<?xml version="1.0" encoding="UTF-8" standalone="no"?>
<!DOCTYPE svg PUBLIC "-//W3C//DTD SVG 1.1//EN"
 "http://www.w3.org/Graphics/SVG/1.1/DTD/svg11.dtd">
<!-- Generated by graphviz version 2.36.0 (20140111.2315)
 -->
<!-- Title: String Pages: 1 -->
<svg width="1034pt" height="458pt"
 viewBox="0.00 0.00 1034.00 458.00" xmlns="http://www.w3.org/2000/svg" xmlns:xlink="http://www.w3.org/1999/xlink">
<g id="graph0" class="graph" transform="scale(1 1) rotate(0) translate(4 454)">
<title>String</title>
<!-- Node1 -->
<g id="node1" class="node"><title>Node1</title>
<polygon fill="#bfbfbf" stroke="black" points="472.947,-295 472.947,-449 597.053,-449 597.053,-295 472.947,-295"/>
<text text-anchor="middle" x="535" y="-437" font-family="Helvetica,sans-Serif" font-size="10.00">String</text>
<polyline fill="none" stroke="black" points="472.947,-431 597.053,-431 "/>
<text text-anchor="middle" x="535" y="-419" font-family="Helvetica,sans-Serif" font-size="10.00"> </text>
<polyline fill="none" stroke="black" points="472.947,-413 597.053,-413 "/>
<text text-anchor="start" x="480.947" y="-401" font-family="Helvetica,sans-Serif" font-size="10.00">+ String()</text>
<text text-anchor="start" x="480.947" y="-391" font-family="Helvetica,sans-Serif" font-size="10.00">+ String()</text>
<text text-anchor="start" x="480.947" y="-381" font-family="Helvetica,sans-Serif" font-size="10.00">+ String()</text>
<text text-anchor="start" x="480.947" y="-371" font-family="Helvetica,sans-Serif" font-size="10.00">+ String()</text>
<text text-anchor="start" x="480.947" y="-361" font-family="Helvetica,sans-Serif" font-size="10.00">+ setformat()</text>
<text text-anchor="start" x="480.947" y="-351" font-family="Helvetica,sans-Serif" font-size="10.00">+ operator const char *()</text>
<text text-anchor="start" x="480.947" y="-341" font-family="Helvetica,sans-Serif" font-size="10.00">+ String()</text>
<text text-anchor="start" x="480.947" y="-331" font-family="Helvetica,sans-Serif" font-size="10.00">+ operator&lt;&lt;()</text>
<text text-anchor="start" x="480.947" y="-321" font-family="Helvetica,sans-Serif" font-size="10.00">+ operator&lt;&lt;()</text>
<text text-anchor="start" x="480.947" y="-311" font-family="Helvetica,sans-Serif" font-size="10.00">+ operator&lt;&lt;()</text>
<text text-anchor="start" x="480.947" y="-301" font-family="Helvetica,sans-Serif" font-size="10.00">and 53 more...</text>
</g>
<!-- Node2 -->
<g id="node2" class="node"><title>Node2</title>
<g id="a_node2"><a xlink:href="class_string_static.html" target="_top" xlink:title="Static String Template Class. ">
<polygon fill="none" stroke="black" points="-0.467773,-148 -0.467773,-222 124.468,-222 124.468,-148 -0.467773,-148"/>
<text text-anchor="middle" x="62" y="-210" font-family="Helvetica,sans-Serif" font-size="10.00">StringStatic&lt; arraysize &gt;</text>
<polyline fill="none" stroke="black" points="-0.467773,-204 124.468,-204 "/>
<text text-anchor="middle" x="62" y="-192" font-family="Helvetica,sans-Serif" font-size="10.00"> </text>
<polyline fill="none" stroke="black" points="-0.467773,-186 124.468,-186 "/>
<text text-anchor="start" x="7.53223" y="-174" font-family="Helvetica,sans-Serif" font-size="10.00">+ StringStatic()</text>
<text text-anchor="start" x="7.53223" y="-164" font-family="Helvetica,sans-Serif" font-size="10.00">+ StringStatic()</text>
<text text-anchor="start" x="7.53223" y="-154" font-family="Helvetica,sans-Serif" font-size="10.00">+ StringStatic()</text>
</a>
</g>
</g>
<!-- Node1&#45;&gt;Node2 -->
<g id="edge1" class="edge"><title>Node1&#45;&gt;Node2</title>
<path fill="none" stroke="midnightblue" d="M462.939,-362.16C378.912,-349.368 238.139,-320.057 133,-258 117.277,-248.72 102.611,-235.097 90.7384,-222.191"/>
<polygon fill="none" stroke="midnightblue" points="462.493,-365.633 472.899,-363.64 463.522,-358.709 462.493,-365.633"/>
</g>
<!-- Node3 -->
<g id="node3" class="node"><title>Node3</title>
<g id="a_node3"><a xlink:href="class_string_static.html" target="_top" xlink:title="{StringStatic\&lt; 12 \&gt;\n||+ StringStatic()\l+ StringStatic()\l+ StringStatic()\l}">
<polygon fill="none" stroke="black" points="142.254,-148 142.254,-222 237.746,-222 237.746,-148 142.254,-148"/>
<text text-anchor="middle" x="190" y="-210" font-family="Helvetica,sans-Serif" font-size="10.00">StringStatic&lt; 12 &gt;</text>
<polyline fill="none" stroke="black" points="142.254,-204 237.746,-204 "/>
<text text-anchor="middle" x="190" y="-192" font-family="Helvetica,sans-Serif" font-size="10.00"> </text>
<polyline fill="none" stroke="black" points="142.254,-186 237.746,-186 "/>
<text text-anchor="start" x="150.254" y="-174" font-family="Helvetica,sans-Serif" font-size="10.00">+ StringStatic()</text>
<text text-anchor="start" x="150.254" y="-164" font-family="Helvetica,sans-Serif" font-size="10.00">+ StringStatic()</text>
<text text-anchor="start" x="150.254" y="-154" font-family="Helvetica,sans-Serif" font-size="10.00">+ StringStatic()</text>
</a>
</g>
</g>
<!-- Node1&#45;&gt;Node3 -->
<g id="edge2" class="edge"><title>Node1&#45;&gt;Node3</title>
<path fill="none" stroke="midnightblue" d="M463.001,-354.415C401.053,-337.586 311.566,-306.943 246,-258 233.056,-248.338 221.537,-234.945 212.362,-222.328"/>
<polygon fill="none" stroke="midnightblue" points="462.135,-357.807 472.699,-356.999 463.937,-351.043 462.135,-357.807"/>
</g>
<!-- Node5 -->
<g id="node5" class="node"><title>Node5</title>
<g id="a_node5"><a xlink:href="class_string_static.html" target="_top" xlink:title="{StringStatic\&lt; 128 \&gt;\n||+ StringStatic()\l+ StringStatic()\l+ StringStatic()\l}">
<polygon fill="none" stroke="black" points="255.473,-148 255.473,-222 356.527,-222 356.527,-148 255.473,-148"/>
<text text-anchor="middle" x="306" y="-210" font-family="Helvetica,sans-Serif" font-size="10.00">StringStatic&lt; 128 &gt;</text>
<polyline fill="none" stroke="black" points="255.473,-204 356.527,-204 "/>
<text text-anchor="middle" x="306" y="-192" font-family="Helvetica,sans-Serif" font-size="10.00"> </text>
<polyline fill="none" stroke="black" points="255.473,-186 356.527,-186 "/>
<text text-anchor="start" x="263.473" y="-174" font-family="Helvetica,sans-Serif" font-size="10.00">+ StringStatic()</text>
<text text-anchor="start" x="263.473" y="-164" font-family="Helvetica,sans-Serif" font-size="10.00">+ StringStatic()</text>
<text text-anchor="start" x="263.473" y="-154" font-family="Helvetica,sans-Serif" font-size="10.00">+ StringStatic()</text>
</a>
</g>
</g>
<!-- Node1&#45;&gt;Node5 -->
<g id="edge4" class="edge"><title>Node1&#45;&gt;Node5</title>
<path fill="none" stroke="midnightblue" d="M463.978,-330.422C432.113,-310.594 395.025,-285.168 365,-258 353.256,-247.374 341.858,-234.332 332.261,-222.281"/>
<polygon fill="none" stroke="midnightblue" points="462.466,-333.601 472.817,-335.863 466.136,-327.64 462.466,-333.601"/>
</g>
<!-- Node7 -->
<g id="node7" class="node"><title>Node7</title>
<g id="a_node7"><a xlink:href="class_string_static.html" target="_top" xlink:title="{StringStatic\&lt; 16 \&gt;\n||+ StringStatic()\l+ StringStatic()\l+ StringStatic()\l}">
<polygon fill="none" stroke="black" points="374.254,-148 374.254,-222 469.746,-222 469.746,-148 374.254,-148"/>
<text text-anchor="middle" x="422" y="-210" font-family="Helvetica,sans-Serif" font-size="10.00">StringStatic&lt; 16 &gt;</text>
<polyline fill="none" stroke="black" points="374.254,-204 469.746,-204 "/>
<text text-anchor="middle" x="422" y="-192" font-family="Helvetica,sans-Serif" font-size="10.00"> </text>
<polyline fill="none" stroke="black" points="374.254,-186 469.746,-186 "/>
<text text-anchor="start" x="382.254" y="-174" font-family="Helvetica,sans-Serif" font-size="10.00">+ StringStatic()</text>
<text text-anchor="start" x="382.254" y="-164" font-family="Helvetica,sans-Serif" font-size="10.00">+ StringStatic()</text>
<text text-anchor="start" x="382.254" y="-154" font-family="Helvetica,sans-Serif" font-size="10.00">+ StringStatic()</text>
</a>
</g>
</g>
<!-- Node1&#45;&gt;Node7 -->
<g id="edge6" class="edge"><title>Node1&#45;&gt;Node7</title>
<path fill="none" stroke="midnightblue" d="M483.304,-286.365C469.55,-263.847 455.414,-240.704 444.187,-222.324"/>
<polygon fill="none" stroke="midnightblue" points="480.35,-288.243 488.549,-294.953 486.324,-284.594 480.35,-288.243"/>
</g>
<!-- Node9 -->
<g id="node9" class="node"><title>Node9</title>
<g id="a_node9"><a xlink:href="class_string_static.html" target="_top" xlink:title="{StringStatic\&lt; 32 \&gt;\n||+ StringStatic()\l+ StringStatic()\l+ StringStatic()\l}">
<polygon fill="none" stroke="black" points="487.254,-148 487.254,-222 582.746,-222 582.746,-148 487.254,-148"/>
<text text-anchor="middle" x="535" y="-210" font-family="Helvetica,sans-Serif" font-size="10.00">StringStatic&lt; 32 &gt;</text>
<polyline fill="none" stroke="black" points="487.254,-204 582.746,-204 "/>
<text text-anchor="middle" x="535" y="-192" font-family="Helvetica,sans-Serif" font-size="10.00"> </text>
<polyline fill="none" stroke="black" points="487.254,-186 582.746,-186 "/>
<text text-anchor="start" x="495.254" y="-174" font-family="Helvetica,sans-Serif" font-size="10.00">+ StringStatic()</text>
<text text-anchor="start" x="495.254" y="-164" font-family="Helvetica,sans-Serif" font-size="10.00">+ StringStatic()</text>
<text text-anchor="start" x="495.254" y="-154" font-family="Helvetica,sans-Serif" font-size="10.00">+ StringStatic()</text>
</a>
</g>
</g>
<!-- Node1&#45;&gt;Node9 -->
<g id="edge8" class="edge"><title>Node1&#45;&gt;Node9</title>
<path fill="none" stroke="midnightblue" d="M535,-284.876C535,-262.83 535,-240.299 535,-222.324"/>
<polygon fill="none" stroke="midnightblue" points="531.5,-284.953 535,-294.953 538.5,-284.953 531.5,-284.953"/>
</g>
<!-- Node11 -->
<g id="node11" class="node"><title>Node11</title>
<g id="a_node11"><a xlink:href="class_string_static.html" target="_top" xlink:title="{StringStatic\&lt; 64 \&gt;\n||+ StringStatic()\l+ StringStatic()\l+ StringStatic()\l}">
<polygon fill="none" stroke="red" points="600.254,-148 600.254,-222 695.746,-222 695.746,-148 600.254,-148"/>
<text text-anchor="middle" x="648" y="-210" font-family="Helvetica,sans-Serif" font-size="10.00">StringStatic&lt; 64 &gt;</text>
<polyline fill="none" stroke="red" points="600.254,-204 695.746,-204 "/>
<text text-anchor="middle" x="648" y="-192" font-family="Helvetica,sans-Serif" font-size="10.00"> </text>
<polyline fill="none" stroke="red" points="600.254,-186 695.746,-186 "/>
<text text-anchor="start" x="608.254" y="-174" font-family="Helvetica,sans-Serif" font-size="10.00">+ StringStatic()</text>
<text text-anchor="start" x="608.254" y="-164" font-family="Helvetica,sans-Serif" font-size="10.00">+ StringStatic()</text>
<text text-anchor="start" x="608.254" y="-154" font-family="Helvetica,sans-Serif" font-size="10.00">+ StringStatic()</text>
</a>
</g>
</g>
<!-- Node1&#45;&gt;Node11 -->
<g id="edge10" class="edge"><title>Node1&#45;&gt;Node11</title>
<path fill="none" stroke="midnightblue" d="M586.696,-286.365C600.45,-263.847 614.586,-240.704 625.813,-222.324"/>
<polygon fill="none" stroke="midnightblue" points="583.676,-284.594 581.451,-294.953 589.65,-288.243 583.676,-284.594"/>
</g>
<!-- Node12 -->
<g id="node12" class="node"><title>Node12</title>
<g id="a_node12"><a xlink:href="class_string_static.html" target="_top" xlink:title="{StringStatic\&lt; LINK\l_NAME_MAX \&gt;\n||+ StringStatic()\l+ StringStatic()\l+ StringStatic()\l}">
<polygon fill="none" stroke="red" points="714.009,-143 714.009,-227 811.991,-227 811.991,-143 714.009,-143"/>
<text text-anchor="start" x="722.009" y="-215" font-family="Helvetica,sans-Serif" font-size="10.00">StringStatic&lt; LINK</text>
<text text-anchor="middle" x="763" y="-205" font-family="Helvetica,sans-Serif" font-size="10.00">_NAME_MAX &gt;</text>
<polyline fill="none" stroke="red" points="714.009,-199 811.991,-199 "/>
<text text-anchor="middle" x="763" y="-187" font-family="Helvetica,sans-Serif" font-size="10.00"> </text>
<polyline fill="none" stroke="red" points="714.009,-181 811.991,-181 "/>
<text text-anchor="start" x="722.009" y="-169" font-family="Helvetica,sans-Serif" font-size="10.00">+ StringStatic()</text>
<text text-anchor="start" x="722.009" y="-159" font-family="Helvetica,sans-Serif" font-size="10.00">+ StringStatic()</text>
<text text-anchor="start" x="722.009" y="-149" font-family="Helvetica,sans-Serif" font-size="10.00">+ StringStatic()</text>
</a>
</g>
</g>
<!-- Node1&#45;&gt;Node12 -->
<g id="edge11" class="edge"><title>Node1&#45;&gt;Node12</title>
<path fill="none" stroke="midnightblue" d="M605.969,-330.119C637.557,-310.313 674.253,-284.989 704,-258 714.173,-248.77 724.095,-237.731 732.811,-227.103"/>
<polygon fill="none" stroke="midnightblue" points="603.857,-327.31 597.204,-335.556 607.547,-333.259 603.857,-327.31"/>
</g>
<!-- Node13 -->
<g id="node13" class="node"><title>Node13</title>
<g id="a_node13"><a xlink:href="class_string_static.html" target="_top" xlink:title="{StringStatic\&lt; LINK\l_PATH_MAX \&gt;\n||+ StringStatic()\l+ StringStatic()\l+ StringStatic()\l}">
<polygon fill="none" stroke="red" points="830.009,-143 830.009,-227 927.991,-227 927.991,-143 830.009,-143"/>
<text text-anchor="start" x="838.009" y="-215" font-family="Helvetica,sans-Serif" font-size="10.00">StringStatic&lt; LINK</text>
<text text-anchor="middle" x="879" y="-205" font-family="Helvetica,sans-Serif" font-size="10.00">_PATH_MAX &gt;</text>
<polyline fill="none" stroke="red" points="830.009,-199 927.991,-199 "/>
<text text-anchor="middle" x="879" y="-187" font-family="Helvetica,sans-Serif" font-size="10.00"> </text>
<polyline fill="none" stroke="red" points="830.009,-181 927.991,-181 "/>
<text text-anchor="start" x="838.009" y="-169" font-family="Helvetica,sans-Serif" font-size="10.00">+ StringStatic()</text>
<text text-anchor="start" x="838.009" y="-159" font-family="Helvetica,sans-Serif" font-size="10.00">+ StringStatic()</text>
<text text-anchor="start" x="838.009" y="-149" font-family="Helvetica,sans-Serif" font-size="10.00">+ StringStatic()</text>
</a>
</g>
</g>
<!-- Node1&#45;&gt;Node13 -->
<g id="edge12" class="edge"><title>Node1&#45;&gt;Node13</title>
<path fill="none" stroke="midnightblue" d="M607.217,-353.359C668.051,-336.047 755.265,-305.288 820,-258 831.614,-249.516 842.284,-238.229 851.262,-227.113"/>
<polygon fill="none" stroke="midnightblue" points="606,-350.064 597.31,-356.125 607.883,-356.806 606,-350.064"/>
</g>
<!-- Node14 -->
<g id="node14" class="node"><title>Node14</title>
<g id="a_node14"><a xlink:href="class_token.html" target="_top" xlink:title="Abstract Token Class. ">
<polygon fill="none" stroke="black" points="945.896,-113 945.896,-257 1026.1,-257 1026.1,-113 945.896,-113"/>
<text text-anchor="middle" x="986" y="-245" font-family="Helvetica,sans-Serif" font-size="10.00">Token</text>
<polyline fill="none" stroke="black" points="945.896,-239 1026.1,-239 "/>
<text text-anchor="middle" x="986" y="-227" font-family="Helvetica,sans-Serif" font-size="10.00"> </text>
<polyline fill="none" stroke="black" points="945.896,-221 1026.1,-221 "/>
<text text-anchor="start" x="953.896" y="-209" font-family="Helvetica,sans-Serif" font-size="10.00">+ Token()</text>
<text text-anchor="start" x="953.896" y="-199" font-family="Helvetica,sans-Serif" font-size="10.00">+ Token()</text>
<text text-anchor="start" x="953.896" y="-189" font-family="Helvetica,sans-Serif" font-size="10.00">+ Token()</text>
<text text-anchor="start" x="953.896" y="-179" font-family="Helvetica,sans-Serif" font-size="10.00">+ Token()</text>
<text text-anchor="start" x="953.896" y="-169" font-family="Helvetica,sans-Serif" font-size="10.00">+ parse()</text>
<text text-anchor="start" x="953.896" y="-159" font-family="Helvetica,sans-Serif" font-size="10.00">+ count()</text>
<text text-anchor="start" x="953.896" y="-149" font-family="Helvetica,sans-Serif" font-size="10.00">+ size()</text>
<text text-anchor="start" x="953.896" y="-139" font-family="Helvetica,sans-Serif" font-size="10.00">+ at()</text>
<text text-anchor="start" x="953.896" y="-129" font-family="Helvetica,sans-Serif" font-size="10.00">+ belongs_to()</text>
<text text-anchor="start" x="953.896" y="-119" font-family="Helvetica,sans-Serif" font-size="10.00">+ belongs_to()</text>
</a>
</g>
</g>
<!-- Node1&#45;&gt;Node14 -->
<g id="edge13" class="edge"><title>Node1&#45;&gt;Node14</title>
<path fill="none" stroke="midnightblue" d="M607.418,-365.364C692.968,-355.583 836.245,-329.102 936,-258 939.346,-255.615 942.542,-252.932 945.584,-250.041"/>
<polygon fill="none" stroke="midnightblue" points="606.837,-361.906 597.278,-366.476 607.6,-368.865 606.837,-361.906"/>
</g>
<!-- Node4 -->
<g id="node4" class="node"><title>Node4</title>
<g id="a_node4"><a xlink:href="class_brsp_address.html" target="_top" xlink:title="BRSP Address class. ">
<polygon fill="none" stroke="black" points="145.738,-11 145.738,-65 234.262,-65 234.262,-11 145.738,-11"/>
<text text-anchor="middle" x="190" y="-53" font-family="Helvetica,sans-Serif" font-size="10.00">BrspAddress</text>
<polyline fill="none" stroke="black" points="145.738,-47 234.262,-47 "/>
<text text-anchor="middle" x="190" y="-35" font-family="Helvetica,sans-Serif" font-size="10.00"> </text>
<polyline fill="none" stroke="black" points="145.738,-29 234.262,-29 "/>
<text text-anchor="start" x="153.738" y="-17" font-family="Helvetica,sans-Serif" font-size="10.00">+ BrspAddress()</text>
</a>
</g>
</g>
<!-- Node3&#45;&gt;Node4 -->
<g id="edge3" class="edge"><title>Node3&#45;&gt;Node4</title>
<path fill="none" stroke="midnightblue" d="M190,-137.491C190,-113.57 190,-85.2976 190,-65.1941"/>
<polygon fill="none" stroke="midnightblue" points="186.5,-137.784 190,-147.784 193.5,-137.784 186.5,-137.784"/>
</g>
<!-- Node6 -->
<g id="node6" class="node"><title>Node6</title>
<g id="a_node6"><a xlink:href="class_string_large.html" target="_top" xlink:title="Large String. ">
<polygon fill="none" stroke="black" points="264.511,-1 264.511,-75 347.489,-75 347.489,-1 264.511,-1"/>
<text text-anchor="middle" x="306" y="-63" font-family="Helvetica,sans-Serif" font-size="10.00">StringLarge</text>
<polyline fill="none" stroke="black" points="264.511,-57 347.489,-57 "/>
<text text-anchor="middle" x="306" y="-45" font-family="Helvetica,sans-Serif" font-size="10.00"> </text>
<polyline fill="none" stroke="black" points="264.511,-39 347.489,-39 "/>
<text text-anchor="start" x="272.511" y="-27" font-family="Helvetica,sans-Serif" font-size="10.00">+ StringLarge()</text>
<text text-anchor="start" x="272.511" y="-17" font-family="Helvetica,sans-Serif" font-size="10.00">+ StringLarge()</text>
<text text-anchor="start" x="272.511" y="-7" font-family="Helvetica,sans-Serif" font-size="10.00">+ StringLarge()</text>
</a>
</g>
</g>
<!-- Node5&#45;&gt;Node6 -->
<g id="edge5" class="edge"><title>Node5&#45;&gt;Node6</title>
<path fill="none" stroke="midnightblue" d="M306,-137.521C306,-117.272 306,-93.9012 306,-75.005"/>
<polygon fill="none" stroke="midnightblue" points="302.5,-137.784 306,-147.784 309.5,-137.784 302.5,-137.784"/>
</g>
<!-- Node8 -->
<g id="node8" class="node"><title>Node8</title>
<g id="a_node8"><a xlink:href="class_string_tiny.html" target="_top" xlink:title="Tiny String. ">
<polygon fill="none" stroke="black" points="384.037,-1 384.037,-75 459.963,-75 459.963,-1 384.037,-1"/>
<text text-anchor="middle" x="422" y="-63" font-family="Helvetica,sans-Serif" font-size="10.00">StringTiny</text>
<polyline fill="none" stroke="black" points="384.037,-57 459.963,-57 "/>
<text text-anchor="middle" x="422" y="-45" font-family="Helvetica,sans-Serif" font-size="10.00"> </text>
<polyline fill="none" stroke="black" points="384.037,-39 459.963,-39 "/>
<text text-anchor="start" x="392.037" y="-27" font-family="Helvetica,sans-Serif" font-size="10.00">+ StringTiny()</text>
<text text-anchor="start" x="392.037" y="-17" font-family="Helvetica,sans-Serif" font-size="10.00">+ StringTiny()</text>
<text text-anchor="start" x="392.037" y="-7" font-family="Helvetica,sans-Serif" font-size="10.00">+ StringTiny()</text>
</a>
</g>
</g>
<!-- Node7&#45;&gt;Node8 -->
<g id="edge7" class="edge"><title>Node7&#45;&gt;Node8</title>
<path fill="none" stroke="midnightblue" d="M422,-137.521C422,-117.272 422,-93.9012 422,-75.005"/>
<polygon fill="none" stroke="midnightblue" points="418.5,-137.784 422,-147.784 425.5,-137.784 418.5,-137.784"/>
</g>
<!-- Node10 -->
<g id="node10" class="node"><title>Node10</title>
<g id="a_node10"><a xlink:href="class_string_small.html" target="_top" xlink:title="Small String. ">
<polygon fill="none" stroke="black" points="493.797,-1 493.797,-75 576.203,-75 576.203,-1 493.797,-1"/>
<text text-anchor="middle" x="535" y="-63" font-family="Helvetica,sans-Serif" font-size="10.00">StringSmall</text>
<polyline fill="none" stroke="black" points="493.797,-57 576.203,-57 "/>
<text text-anchor="middle" x="535" y="-45" font-family="Helvetica,sans-Serif" font-size="10.00"> </text>
<polyline fill="none" stroke="black" points="493.797,-39 576.203,-39 "/>
<text text-anchor="start" x="501.797" y="-27" font-family="Helvetica,sans-Serif" font-size="10.00">+ StringSmall()</text>
<text text-anchor="start" x="501.797" y="-17" font-family="Helvetica,sans-Serif" font-size="10.00">+ StringSmall()</text>
<text text-anchor="start" x="501.797" y="-7" font-family="Helvetica,sans-Serif" font-size="10.00">+ StringSmall()</text>
</a>
</g>
</g>
<!-- Node9&#45;&gt;Node10 -->
<g id="edge9" class="edge"><title>Node9&#45;&gt;Node10</title>
<path fill="none" stroke="midnightblue" d="M535,-137.521C535,-117.272 535,-93.9012 535,-75.005"/>
<polygon fill="none" stroke="midnightblue" points="531.5,-137.784 535,-147.784 538.5,-137.784 531.5,-137.784"/>
</g>
</g>
</svg>
