<?xml version="1.0" encoding="UTF-8" standalone="no"?>
<!DOCTYPE svg PUBLIC "-//W3C//DTD SVG 1.1//EN"
 "http://www.w3.org/Graphics/SVG/1.1/DTD/svg11.dtd">
<!-- Generated by graphviz version 2.36.0 (20140111.2315)
 -->
<!-- Title: StringSmall Pages: 1 -->
<svg width="132pt" height="388pt"
 viewBox="0.00 0.00 132.00 388.00" xmlns="http://www.w3.org/2000/svg" xmlns:xlink="http://www.w3.org/1999/xlink">
<g id="graph0" class="graph" transform="scale(1 1) rotate(0) translate(4 384)">
<title>StringSmall</title>
<!-- Node1 -->
<g id="node1" class="node"><title>Node1</title>
<polygon fill="#bfbfbf" stroke="black" points="20.7969,-1 20.7969,-75 103.203,-75 103.203,-1 20.7969,-1"/>
<text text-anchor="middle" x="62" y="-63" font-family="Helvetica,sans-Serif" font-size="10.00">StringSmall</text>
<polyline fill="none" stroke="black" points="20.7969,-57 103.203,-57 "/>
<text text-anchor="middle" x="62" y="-45" font-family="Helvetica,sans-Serif" font-size="10.00"> </text>
<polyline fill="none" stroke="black" points="20.7969,-39 103.203,-39 "/>
<text text-anchor="start" x="28.7969" y="-27" font-family="Helvetica,sans-Serif" font-size="10.00">+ StringSmall()</text>
<text text-anchor="start" x="28.7969" y="-17" font-family="Helvetica,sans-Serif" font-size="10.00">+ StringSmall()</text>
<text text-anchor="start" x="28.7969" y="-7" font-family="Helvetica,sans-Serif" font-size="10.00">+ StringSmall()</text>
</g>
<!-- Node2 -->
<g id="node2" class="node"><title>Node2</title>
<g id="a_node2"><a xlink:href="class_string_static.html" target="_top" xlink:title="{StringStatic\&lt; 32 \&gt;\n||+ StringStatic()\l+ StringStatic()\l+ StringStatic()\l}">
<polygon fill="none" stroke="black" points="14.2539,-113 14.2539,-187 109.746,-187 109.746,-113 14.2539,-113"/>
<text text-anchor="middle" x="62" y="-175" font-family="Helvetica,sans-Serif" font-size="10.00">StringStatic&lt; 32 &gt;</text>
<polyline fill="none" stroke="black" points="14.2539,-169 109.746,-169 "/>
<text text-anchor="middle" x="62" y="-157" font-family="Helvetica,sans-Serif" font-size="10.00"> </text>
<polyline fill="none" stroke="black" points="14.2539,-151 109.746,-151 "/>
<text text-anchor="start" x="22.2539" y="-139" font-family="Helvetica,sans-Serif" font-size="10.00">+ StringStatic()</text>
<text text-anchor="start" x="22.2539" y="-129" font-family="Helvetica,sans-Serif" font-size="10.00">+ StringStatic()</text>
<text text-anchor="start" x="22.2539" y="-119" font-family="Helvetica,sans-Serif" font-size="10.00">+ StringStatic()</text>
</a>
</g>
</g>
<!-- Node2&#45;&gt;Node1 -->
<g id="edge1" class="edge"><title>Node2&#45;&gt;Node1</title>
<path fill="none" stroke="midnightblue" d="M62,-102.752C62,-93.5127 62,-83.9353 62,-75.099"/>
<polygon fill="none" stroke="midnightblue" points="58.5001,-102.982 62,-112.982 65.5001,-102.982 58.5001,-102.982"/>
</g>
<!-- Node3 -->
<g id="node3" class="node"><title>Node3</title>
<g id="a_node3"><a xlink:href="class_string.html" target="_top" xlink:title="String class. ">
<polygon fill="none" stroke="black" points="-0.0527344,-225 -0.0527344,-379 124.053,-379 124.053,-225 -0.0527344,-225"/>
<text text-anchor="middle" x="62" y="-367" font-family="Helvetica,sans-Serif" font-size="10.00">String</text>
<polyline fill="none" stroke="black" points="-0.0527344,-361 124.053,-361 "/>
<text text-anchor="middle" x="62" y="-349" font-family="Helvetica,sans-Serif" font-size="10.00"> </text>
<polyline fill="none" stroke="black" points="-0.0527344,-343 124.053,-343 "/>
<text text-anchor="start" x="7.94727" y="-331" font-family="Helvetica,sans-Serif" font-size="10.00">+ String()</text>
<text text-anchor="start" x="7.94727" y="-321" font-family="Helvetica,sans-Serif" font-size="10.00">+ String()</text>
<text text-anchor="start" x="7.94727" y="-311" font-family="Helvetica,sans-Serif" font-size="10.00">+ String()</text>
<text text-anchor="start" x="7.94727" y="-301" font-family="Helvetica,sans-Serif" font-size="10.00">+ String()</text>
<text text-anchor="start" x="7.94727" y="-291" font-family="Helvetica,sans-Serif" font-size="10.00">+ setformat()</text>
<text text-anchor="start" x="7.94727" y="-281" font-family="Helvetica,sans-Serif" font-size="10.00">+ operator const char *()</text>
<text text-anchor="start" x="7.94727" y="-271" font-family="Helvetica,sans-Serif" font-size="10.00">+ String()</text>
<text text-anchor="start" x="7.94727" y="-261" font-family="Helvetica,sans-Serif" font-size="10.00">+ operator&lt;&lt;()</text>
<text text-anchor="start" x="7.94727" y="-251" font-family="Helvetica,sans-Serif" font-size="10.00">+ operator&lt;&lt;()</text>
<text text-anchor="start" x="7.94727" y="-241" font-family="Helvetica,sans-Serif" font-size="10.00">+ operator&lt;&lt;()</text>
<text text-anchor="start" x="7.94727" y="-231" font-family="Helvetica,sans-Serif" font-size="10.00">and 53 more...</text>
</a>
</g>
</g>
<!-- Node3&#45;&gt;Node2 -->
<g id="edge2" class="edge"><title>Node3&#45;&gt;Node2</title>
<path fill="none" stroke="midnightblue" d="M62,-214.643C62,-205.073 62,-195.754 62,-187.332"/>
<polygon fill="none" stroke="midnightblue" points="58.5001,-214.682 62,-224.682 65.5001,-214.682 58.5001,-214.682"/>
</g>
</g>
</svg>
