<?xml version="1.0" encoding="UTF-8" standalone="no"?>
<!DOCTYPE svg PUBLIC "-//W3C//DTD SVG 1.1//EN"
 "http://www.w3.org/Graphics/SVG/1.1/DTD/svg11.dtd">
<!-- Generated by graphviz version 2.36.0 (20140111.2315)
 -->
<!-- Title: DbugUart Pages: 1 -->
<svg width="177pt" height="600pt"
 viewBox="0.00 0.00 177.00 600.00" xmlns="http://www.w3.org/2000/svg" xmlns:xlink="http://www.w3.org/1999/xlink">
<g id="graph0" class="graph" transform="scale(1 1) rotate(0) translate(4 596)">
<title>DbugUart</title>
<!-- Node1 -->
<g id="node1" class="node"><title>Node1</title>
<polygon fill="#bfbfbf" stroke="black" points="48.9619,-1 48.9619,-95 123.038,-95 123.038,-1 48.9619,-1"/>
<text text-anchor="middle" x="86" y="-83" font-family="Helvetica,sans-Serif" font-size="10.00">DbugUart</text>
<polyline fill="none" stroke="black" points="48.9619,-77 123.038,-77 "/>
<text text-anchor="middle" x="86" y="-65" font-family="Helvetica,sans-Serif" font-size="10.00"> </text>
<polyline fill="none" stroke="black" points="48.9619,-59 123.038,-59 "/>
<text text-anchor="start" x="56.9619" y="-47" font-family="Helvetica,sans-Serif" font-size="10.00">+ DbugUart()</text>
<text text-anchor="start" x="56.9619" y="-37" font-family="Helvetica,sans-Serif" font-size="10.00">+ open()</text>
<text text-anchor="start" x="56.9619" y="-27" font-family="Helvetica,sans-Serif" font-size="10.00">+ close()</text>
<text text-anchor="start" x="56.9619" y="-17" font-family="Helvetica,sans-Serif" font-size="10.00">+ read()</text>
<text text-anchor="start" x="56.9619" y="-7" font-family="Helvetica,sans-Serif" font-size="10.00">+ write()</text>
</g>
<!-- Node2 -->
<g id="node2" class="node"><title>Node2</title>
<g id="a_node2"><a xlink:href="class_dbug.html" target="_top" xlink:title="Debug Class. ">
<polygon fill="none" stroke="black" points="-0.102051,-133 -0.102051,-277 80.1021,-277 80.1021,-133 -0.102051,-133"/>
<text text-anchor="middle" x="40" y="-265" font-family="Helvetica,sans-Serif" font-size="10.00">Dbug</text>
<polyline fill="none" stroke="black" points="-0.102051,-259 80.1021,-259 "/>
<text text-anchor="middle" x="40" y="-247" font-family="Helvetica,sans-Serif" font-size="10.00"> </text>
<polyline fill="none" stroke="black" points="-0.102051,-241 80.1021,-241 "/>
<text text-anchor="start" x="7.89795" y="-229" font-family="Helvetica,sans-Serif" font-size="10.00">+ Dbug()</text>
<text text-anchor="start" x="7.89795" y="-219" font-family="Helvetica,sans-Serif" font-size="10.00">+ setmode()</text>
<text text-anchor="start" x="7.89795" y="-209" font-family="Helvetica,sans-Serif" font-size="10.00">+ puts()</text>
<text text-anchor="start" x="7.89795" y="-199" font-family="Helvetica,sans-Serif" font-size="10.00">+ operator&lt;&lt;()</text>
<text text-anchor="start" x="7.89795" y="-189" font-family="Helvetica,sans-Serif" font-size="10.00">+ operator&lt;&lt;()</text>
<text text-anchor="start" x="7.89795" y="-179" font-family="Helvetica,sans-Serif" font-size="10.00">+ operator&lt;&lt;()</text>
<text text-anchor="start" x="7.89795" y="-169" font-family="Helvetica,sans-Serif" font-size="10.00">+ operator&lt;&lt;()</text>
<text text-anchor="start" x="7.89795" y="-159" font-family="Helvetica,sans-Serif" font-size="10.00">+ operator&lt;&lt;()</text>
<text text-anchor="start" x="7.89795" y="-149" font-family="Helvetica,sans-Serif" font-size="10.00">+ operator&lt;&lt;()</text>
<text text-anchor="start" x="7.89795" y="-139" font-family="Helvetica,sans-Serif" font-size="10.00">+ write()</text>
</a>
</g>
</g>
<!-- Node2&#45;&gt;Node1 -->
<g id="edge1" class="edge"><title>Node2&#45;&gt;Node1</title>
<path fill="none" stroke="midnightblue" d="M64.0445,-122.98C66.855,-113.51 69.6447,-104.11 72.2452,-95.3476"/>
<polygon fill="none" stroke="midnightblue" points="60.605,-122.269 61.1152,-132.851 67.3157,-124.26 60.605,-122.269"/>
</g>
<!-- Node3 -->
<g id="node3" class="node"><title>Node3</title>
<g id="a_node3"><a xlink:href="class_uart.html" target="_top" xlink:title="UART Class. ">
<polygon fill="none" stroke="black" points="98.2944,-138 98.2944,-272 165.706,-272 165.706,-138 98.2944,-138"/>
<text text-anchor="middle" x="132" y="-260" font-family="Helvetica,sans-Serif" font-size="10.00">Uart</text>
<polyline fill="none" stroke="black" points="98.2944,-254 165.706,-254 "/>
<text text-anchor="middle" x="132" y="-242" font-family="Helvetica,sans-Serif" font-size="10.00"> </text>
<polyline fill="none" stroke="black" points="98.2944,-236 165.706,-236 "/>
<text text-anchor="start" x="106.294" y="-224" font-family="Helvetica,sans-Serif" font-size="10.00">+ Uart()</text>
<text text-anchor="start" x="106.294" y="-214" font-family="Helvetica,sans-Serif" font-size="10.00">+ open()</text>
<text text-anchor="start" x="106.294" y="-204" font-family="Helvetica,sans-Serif" font-size="10.00">+ getattr()</text>
<text text-anchor="start" x="106.294" y="-194" font-family="Helvetica,sans-Serif" font-size="10.00">+ setattr()</text>
<text text-anchor="start" x="106.294" y="-184" font-family="Helvetica,sans-Serif" font-size="10.00">+ getbyte()</text>
<text text-anchor="start" x="106.294" y="-174" font-family="Helvetica,sans-Serif" font-size="10.00">+ flush()</text>
<text text-anchor="start" x="106.294" y="-164" font-family="Helvetica,sans-Serif" font-size="10.00">+ setattr()</text>
<text text-anchor="start" x="106.294" y="-154" font-family="Helvetica,sans-Serif" font-size="10.00">+ init()</text>
<text text-anchor="start" x="106.294" y="-144" font-family="Helvetica,sans-Serif" font-size="10.00">+ getports()</text>
</a>
</g>
</g>
<!-- Node3&#45;&gt;Node1 -->
<g id="edge2" class="edge"><title>Node3&#45;&gt;Node1</title>
<path fill="none" stroke="midnightblue" d="M109.453,-128.028C106.136,-116.849 102.806,-105.629 99.7397,-95.2968"/>
<polygon fill="none" stroke="midnightblue" points="106.158,-129.226 112.358,-137.816 112.869,-127.234 106.158,-129.226"/>
</g>
<!-- Node4 -->
<g id="node4" class="node"><title>Node4</title>
<g id="a_node4"><a xlink:href="class_pchar.html" target="_top" xlink:title="Peripheral Character Class. ">
<polygon fill="none" stroke="black" points="101.627,-315 101.627,-379 162.373,-379 162.373,-315 101.627,-315"/>
<text text-anchor="middle" x="132" y="-367" font-family="Helvetica,sans-Serif" font-size="10.00">Pchar</text>
<polyline fill="none" stroke="black" points="101.627,-361 162.373,-361 "/>
<text text-anchor="middle" x="132" y="-349" font-family="Helvetica,sans-Serif" font-size="10.00"> </text>
<polyline fill="none" stroke="black" points="101.627,-343 162.373,-343 "/>
<text text-anchor="start" x="109.627" y="-331" font-family="Helvetica,sans-Serif" font-size="10.00">+ Pchar()</text>
<text text-anchor="start" x="109.627" y="-321" font-family="Helvetica,sans-Serif" font-size="10.00">+ getline()</text>
</a>
</g>
</g>
<!-- Node4&#45;&gt;Node3 -->
<g id="edge3" class="edge"><title>Node4&#45;&gt;Node3</title>
<path fill="none" stroke="midnightblue" d="M132,-304.698C132,-294.494 132,-283.306 132,-272.243"/>
<polygon fill="none" stroke="midnightblue" points="128.5,-304.929 132,-314.929 135.5,-304.929 128.5,-304.929"/>
</g>
<!-- Node5 -->
<g id="node5" class="node"><title>Node5</title>
<g id="a_node5"><a xlink:href="class_periph.html" target="_top" xlink:title="Peripheral Class. ">
<polygon fill="none" stroke="red" points="94.5396,-417 94.5396,-591 169.46,-591 169.46,-417 94.5396,-417"/>
<text text-anchor="middle" x="132" y="-579" font-family="Helvetica,sans-Serif" font-size="10.00">Periph</text>
<polyline fill="none" stroke="red" points="94.5396,-573 169.46,-573 "/>
<text text-anchor="start" x="102.54" y="-561" font-family="Helvetica,sans-Serif" font-size="10.00"># port_</text>
<text text-anchor="start" x="102.54" y="-551" font-family="Helvetica,sans-Serif" font-size="10.00"># fd</text>
<polyline fill="none" stroke="red" points="94.5396,-545 169.46,-545 "/>
<text text-anchor="start" x="102.54" y="-533" font-family="Helvetica,sans-Serif" font-size="10.00">+ Periph()</text>
<text text-anchor="start" x="102.54" y="-523" font-family="Helvetica,sans-Serif" font-size="10.00">+ open()</text>
<text text-anchor="start" x="102.54" y="-513" font-family="Helvetica,sans-Serif" font-size="10.00">+ open()</text>
<text text-anchor="start" x="102.54" y="-503" font-family="Helvetica,sans-Serif" font-size="10.00">+ setflags()</text>
<text text-anchor="start" x="102.54" y="-493" font-family="Helvetica,sans-Serif" font-size="10.00">+ read()</text>
<text text-anchor="start" x="102.54" y="-483" font-family="Helvetica,sans-Serif" font-size="10.00">+ read()</text>
<text text-anchor="start" x="102.54" y="-473" font-family="Helvetica,sans-Serif" font-size="10.00">+ write()</text>
<text text-anchor="start" x="102.54" y="-463" font-family="Helvetica,sans-Serif" font-size="10.00">+ readline()</text>
<text text-anchor="start" x="102.54" y="-453" font-family="Helvetica,sans-Serif" font-size="10.00">+ write()</text>
<text text-anchor="start" x="102.54" y="-443" font-family="Helvetica,sans-Serif" font-size="10.00">+ write()</text>
<text text-anchor="start" x="102.54" y="-433" font-family="Helvetica,sans-Serif" font-size="10.00">and 7 more...</text>
<text text-anchor="start" x="102.54" y="-423" font-family="Helvetica,sans-Serif" font-size="10.00"># _open()</text>
</a>
</g>
</g>
<!-- Node5&#45;&gt;Node4 -->
<g id="edge4" class="edge"><title>Node5&#45;&gt;Node4</title>
<path fill="none" stroke="midnightblue" d="M132,-406.842C132,-396.914 132,-387.421 132,-379.068"/>
<polygon fill="none" stroke="midnightblue" points="128.5,-406.888 132,-416.888 135.5,-406.888 128.5,-406.888"/>
</g>
</g>
</svg>
