<?xml version="1.0" encoding="UTF-8" standalone="no"?>
<!DOCTYPE svg PUBLIC "-//W3C//DTD SVG 1.1//EN"
 "http://www.w3.org/Graphics/SVG/1.1/DTD/svg11.dtd">
<!-- Generated by graphviz version 2.36.0 (20140111.2315)
 -->
<!-- Title: Pchar Pages: 1 -->
<svg width="318pt" height="812pt"
 viewBox="0.00 0.00 318.00 812.00" xmlns="http://www.w3.org/2000/svg" xmlns:xlink="http://www.w3.org/1999/xlink">
<g id="graph0" class="graph" transform="scale(1 1) rotate(0) translate(4 808)">
<title>Pchar</title>
<!-- Node1 -->
<g id="node1" class="node"><title>Node1</title>
<polygon fill="#bfbfbf" stroke="black" points="101.627,-395 101.627,-459 162.373,-459 162.373,-395 101.627,-395"/>
<text text-anchor="middle" x="132" y="-447" font-family="Helvetica,sans-Serif" font-size="10.00">Pchar</text>
<polyline fill="none" stroke="black" points="101.627,-441 162.373,-441 "/>
<text text-anchor="middle" x="132" y="-429" font-family="Helvetica,sans-Serif" font-size="10.00"> </text>
<polyline fill="none" stroke="black" points="101.627,-423 162.373,-423 "/>
<text text-anchor="start" x="109.627" y="-411" font-family="Helvetica,sans-Serif" font-size="10.00">+ Pchar()</text>
<text text-anchor="start" x="109.627" y="-401" font-family="Helvetica,sans-Serif" font-size="10.00">+ getline()</text>
</g>
<!-- Node4 -->
<g id="node4" class="node"><title>Node4</title>
<g id="a_node4"><a xlink:href="class_spi.html" target="_top" xlink:title="SPI Class. ">
<polygon fill="none" stroke="black" points="-0.0429688,-208 -0.0429688,-342 74.043,-342 74.043,-208 -0.0429688,-208"/>
<text text-anchor="middle" x="37" y="-330" font-family="Helvetica,sans-Serif" font-size="10.00">Spi</text>
<polyline fill="none" stroke="black" points="-0.0429688,-324 74.043,-324 "/>
<text text-anchor="middle" x="37" y="-312" font-family="Helvetica,sans-Serif" font-size="10.00"> </text>
<polyline fill="none" stroke="black" points="-0.0429688,-306 74.043,-306 "/>
<text text-anchor="start" x="7.95703" y="-294" font-family="Helvetica,sans-Serif" font-size="10.00">+ Spi()</text>
<text text-anchor="start" x="7.95703" y="-284" font-family="Helvetica,sans-Serif" font-size="10.00">+ open()</text>
<text text-anchor="start" x="7.95703" y="-274" font-family="Helvetica,sans-Serif" font-size="10.00">+ getattr()</text>
<text text-anchor="start" x="7.95703" y="-264" font-family="Helvetica,sans-Serif" font-size="10.00">+ setattr()</text>
<text text-anchor="start" x="7.95703" y="-254" font-family="Helvetica,sans-Serif" font-size="10.00">+ swap()</text>
<text text-anchor="start" x="7.95703" y="-244" font-family="Helvetica,sans-Serif" font-size="10.00">+ setduplex()</text>
<text text-anchor="start" x="7.95703" y="-234" font-family="Helvetica,sans-Serif" font-size="10.00">+ setattr()</text>
<text text-anchor="start" x="7.95703" y="-224" font-family="Helvetica,sans-Serif" font-size="10.00">+ init()</text>
<text text-anchor="start" x="7.95703" y="-214" font-family="Helvetica,sans-Serif" font-size="10.00">+ getports()</text>
</a>
</g>
</g>
<!-- Node1&#45;&gt;Node4 -->
<g id="edge3" class="edge"><title>Node1&#45;&gt;Node4</title>
<path fill="none" stroke="midnightblue" d="M102.358,-386.452C95.782,-377.249 88.9915,-367.393 83,-358 79.7519,-352.908 76.4819,-347.575 73.264,-342.177"/>
<polygon fill="none" stroke="midnightblue" points="99.6141,-388.631 108.307,-394.688 105.288,-384.532 99.6141,-388.631"/>
</g>
<!-- Node5 -->
<g id="node5" class="node"><title>Node5</title>
<g id="a_node5"><a xlink:href="class_tmr.html" target="_top" xlink:title="Tmr (hardware timer) Class. ">
<polygon fill="none" stroke="black" points="92.1274,-193 92.1274,-357 171.873,-357 171.873,-193 92.1274,-193"/>
<text text-anchor="middle" x="132" y="-345" font-family="Helvetica,sans-Serif" font-size="10.00">Tmr</text>
<polyline fill="none" stroke="black" points="92.1274,-339 171.873,-339 "/>
<text text-anchor="middle" x="132" y="-327" font-family="Helvetica,sans-Serif" font-size="10.00"> </text>
<polyline fill="none" stroke="black" points="92.1274,-321 171.873,-321 "/>
<text text-anchor="start" x="100.127" y="-309" font-family="Helvetica,sans-Serif" font-size="10.00">+ Tmr()</text>
<text text-anchor="start" x="100.127" y="-299" font-family="Helvetica,sans-Serif" font-size="10.00">+ open()</text>
<text text-anchor="start" x="100.127" y="-289" font-family="Helvetica,sans-Serif" font-size="10.00">+ getattr()</text>
<text text-anchor="start" x="100.127" y="-279" font-family="Helvetica,sans-Serif" font-size="10.00">+ setattr()</text>
<text text-anchor="start" x="100.127" y="-269" font-family="Helvetica,sans-Serif" font-size="10.00">+ setaction()</text>
<text text-anchor="start" x="100.127" y="-259" font-family="Helvetica,sans-Serif" font-size="10.00">+ setaction()</text>
<text text-anchor="start" x="100.127" y="-249" font-family="Helvetica,sans-Serif" font-size="10.00">+ on()</text>
<text text-anchor="start" x="100.127" y="-239" font-family="Helvetica,sans-Serif" font-size="10.00">+ off()</text>
<text text-anchor="start" x="100.127" y="-229" font-family="Helvetica,sans-Serif" font-size="10.00">+ setoc()</text>
<text text-anchor="start" x="100.127" y="-219" font-family="Helvetica,sans-Serif" font-size="10.00">+ setoc()</text>
<text text-anchor="start" x="100.127" y="-209" font-family="Helvetica,sans-Serif" font-size="10.00">and 11 more...</text>
<text text-anchor="start" x="100.127" y="-199" font-family="Helvetica,sans-Serif" font-size="10.00">+ getports()</text>
</a>
</g>
</g>
<!-- Node1&#45;&gt;Node5 -->
<g id="edge4" class="edge"><title>Node1&#45;&gt;Node5</title>
<path fill="none" stroke="midnightblue" d="M132,-384.786C132,-376.136 132,-366.727 132,-357.184"/>
<polygon fill="none" stroke="midnightblue" points="128.5,-384.92 132,-394.92 135.5,-384.92 128.5,-384.92"/>
</g>
<!-- Node6 -->
<g id="node6" class="node"><title>Node6</title>
<g id="a_node6"><a xlink:href="class_uart.html" target="_top" xlink:title="UART Class. ">
<polygon fill="none" stroke="black" points="190.294,-208 190.294,-342 257.706,-342 257.706,-208 190.294,-208"/>
<text text-anchor="middle" x="224" y="-330" font-family="Helvetica,sans-Serif" font-size="10.00">Uart</text>
<polyline fill="none" stroke="black" points="190.294,-324 257.706,-324 "/>
<text text-anchor="middle" x="224" y="-312" font-family="Helvetica,sans-Serif" font-size="10.00"> </text>
<polyline fill="none" stroke="black" points="190.294,-306 257.706,-306 "/>
<text text-anchor="start" x="198.294" y="-294" font-family="Helvetica,sans-Serif" font-size="10.00">+ Uart()</text>
<text text-anchor="start" x="198.294" y="-284" font-family="Helvetica,sans-Serif" font-size="10.00">+ open()</text>
<text text-anchor="start" x="198.294" y="-274" font-family="Helvetica,sans-Serif" font-size="10.00">+ getattr()</text>
<text text-anchor="start" x="198.294" y="-264" font-family="Helvetica,sans-Serif" font-size="10.00">+ setattr()</text>
<text text-anchor="start" x="198.294" y="-254" font-family="Helvetica,sans-Serif" font-size="10.00">+ getbyte()</text>
<text text-anchor="start" x="198.294" y="-244" font-family="Helvetica,sans-Serif" font-size="10.00">+ flush()</text>
<text text-anchor="start" x="198.294" y="-234" font-family="Helvetica,sans-Serif" font-size="10.00">+ setattr()</text>
<text text-anchor="start" x="198.294" y="-224" font-family="Helvetica,sans-Serif" font-size="10.00">+ init()</text>
<text text-anchor="start" x="198.294" y="-214" font-family="Helvetica,sans-Serif" font-size="10.00">+ getports()</text>
</a>
</g>
</g>
<!-- Node1&#45;&gt;Node6 -->
<g id="edge5" class="edge"><title>Node1&#45;&gt;Node6</title>
<path fill="none" stroke="midnightblue" d="M161.115,-386.48C167.553,-377.275 174.184,-367.411 180,-358 183.398,-352.503 186.808,-346.721 190.143,-340.879"/>
<polygon fill="none" stroke="midnightblue" points="158.207,-384.531 155.286,-394.715 163.92,-388.575 158.207,-384.531"/>
</g>
<!-- Node2 -->
<g id="node2" class="node"><title>Node2</title>
<g id="a_node2"><a xlink:href="class_periph.html" target="_top" xlink:title="Peripheral Class. ">
<polygon fill="none" stroke="black" points="94.5396,-497 94.5396,-671 169.46,-671 169.46,-497 94.5396,-497"/>
<text text-anchor="middle" x="132" y="-659" font-family="Helvetica,sans-Serif" font-size="10.00">Periph</text>
<polyline fill="none" stroke="black" points="94.5396,-653 169.46,-653 "/>
<text text-anchor="start" x="102.54" y="-641" font-family="Helvetica,sans-Serif" font-size="10.00"># port_</text>
<text text-anchor="start" x="102.54" y="-631" font-family="Helvetica,sans-Serif" font-size="10.00"># fd</text>
<polyline fill="none" stroke="black" points="94.5396,-625 169.46,-625 "/>
<text text-anchor="start" x="102.54" y="-613" font-family="Helvetica,sans-Serif" font-size="10.00">+ Periph()</text>
<text text-anchor="start" x="102.54" y="-603" font-family="Helvetica,sans-Serif" font-size="10.00">+ open()</text>
<text text-anchor="start" x="102.54" y="-593" font-family="Helvetica,sans-Serif" font-size="10.00">+ open()</text>
<text text-anchor="start" x="102.54" y="-583" font-family="Helvetica,sans-Serif" font-size="10.00">+ setflags()</text>
<text text-anchor="start" x="102.54" y="-573" font-family="Helvetica,sans-Serif" font-size="10.00">+ read()</text>
<text text-anchor="start" x="102.54" y="-563" font-family="Helvetica,sans-Serif" font-size="10.00">+ read()</text>
<text text-anchor="start" x="102.54" y="-553" font-family="Helvetica,sans-Serif" font-size="10.00">+ write()</text>
<text text-anchor="start" x="102.54" y="-543" font-family="Helvetica,sans-Serif" font-size="10.00">+ readline()</text>
<text text-anchor="start" x="102.54" y="-533" font-family="Helvetica,sans-Serif" font-size="10.00">+ write()</text>
<text text-anchor="start" x="102.54" y="-523" font-family="Helvetica,sans-Serif" font-size="10.00">+ write()</text>
<text text-anchor="start" x="102.54" y="-513" font-family="Helvetica,sans-Serif" font-size="10.00">and 7 more...</text>
<text text-anchor="start" x="102.54" y="-503" font-family="Helvetica,sans-Serif" font-size="10.00"># _open()</text>
</a>
</g>
</g>
<!-- Node2&#45;&gt;Node1 -->
<g id="edge1" class="edge"><title>Node2&#45;&gt;Node1</title>
<path fill="none" stroke="midnightblue" d="M132,-486.842C132,-476.914 132,-467.421 132,-459.068"/>
<polygon fill="none" stroke="midnightblue" points="128.5,-486.888 132,-496.888 135.5,-486.888 128.5,-486.888"/>
</g>
<!-- Node3 -->
<g id="node3" class="node"><title>Node3</title>
<g id="a_node3"><a xlink:href="class_phy.html" target="_top" xlink:title="Base Applib Class for Physical devices. ">
<polygon fill="none" stroke="black" points="107.469,-709 107.469,-803 156.531,-803 156.531,-709 107.469,-709"/>
<text text-anchor="middle" x="132" y="-791" font-family="Helvetica,sans-Serif" font-size="10.00">Phy</text>
<polyline fill="none" stroke="black" points="107.469,-785 156.531,-785 "/>
<text text-anchor="middle" x="132" y="-773" font-family="Helvetica,sans-Serif" font-size="10.00"> </text>
<polyline fill="none" stroke="black" points="107.469,-767 156.531,-767 "/>
<text text-anchor="start" x="115.469" y="-755" font-family="Helvetica,sans-Serif" font-size="10.00">+ Phy()</text>
<text text-anchor="start" x="115.469" y="-745" font-family="Helvetica,sans-Serif" font-size="10.00">+ ioctl()</text>
<text text-anchor="start" x="115.469" y="-735" font-family="Helvetica,sans-Serif" font-size="10.00">+ ioctl()</text>
<text text-anchor="start" x="115.469" y="-725" font-family="Helvetica,sans-Serif" font-size="10.00">+ ioctl()</text>
<text text-anchor="start" x="115.469" y="-715" font-family="Helvetica,sans-Serif" font-size="10.00">+ ioctl()</text>
</a>
</g>
</g>
<!-- Node3&#45;&gt;Node2 -->
<g id="edge2" class="edge"><title>Node3&#45;&gt;Node2</title>
<path fill="none" stroke="midnightblue" d="M132,-698.763C132,-689.836 132,-680.428 132,-671.004"/>
<polygon fill="none" stroke="midnightblue" points="128.5,-698.996 132,-708.996 135.5,-698.996 128.5,-698.996"/>
</g>
<!-- Node7 -->
<g id="node7" class="node"><title>Node7</title>
<g id="a_node7"><a xlink:href="class_brsp.html" target="_top" xlink:title="BRSP class (bluetooth low energy serial protocol) ">
<polygon fill="none" stroke="black" points="136.759,-1 136.759,-155 217.241,-155 217.241,-1 136.759,-1"/>
<text text-anchor="middle" x="177" y="-143" font-family="Helvetica,sans-Serif" font-size="10.00">Brsp</text>
<polyline fill="none" stroke="black" points="136.759,-137 217.241,-137 "/>
<text text-anchor="middle" x="177" y="-125" font-family="Helvetica,sans-Serif" font-size="10.00"> </text>
<polyline fill="none" stroke="black" points="136.759,-119 217.241,-119 "/>
<text text-anchor="start" x="144.759" y="-107" font-family="Helvetica,sans-Serif" font-size="10.00">+ Brsp()</text>
<text text-anchor="start" x="144.759" y="-97" font-family="Helvetica,sans-Serif" font-size="10.00">+ settimeout()</text>
<text text-anchor="start" x="144.759" y="-87" font-family="Helvetica,sans-Serif" font-size="10.00">+ setuart()</text>
<text text-anchor="start" x="144.759" y="-77" font-family="Helvetica,sans-Serif" font-size="10.00">+ setmode()</text>
<text text-anchor="start" x="144.759" y="-67" font-family="Helvetica,sans-Serif" font-size="10.00">+ discover()</text>
<text text-anchor="start" x="144.759" y="-57" font-family="Helvetica,sans-Serif" font-size="10.00">+ connect()</text>
<text text-anchor="start" x="144.759" y="-47" font-family="Helvetica,sans-Serif" font-size="10.00">+ disconnect()</text>
<text text-anchor="start" x="144.759" y="-37" font-family="Helvetica,sans-Serif" font-size="10.00">+ paired()</text>
<text text-anchor="start" x="144.759" y="-27" font-family="Helvetica,sans-Serif" font-size="10.00">+ name()</text>
<text text-anchor="start" x="144.759" y="-17" font-family="Helvetica,sans-Serif" font-size="10.00">+ version()</text>
<text text-anchor="start" x="144.759" y="-7" font-family="Helvetica,sans-Serif" font-size="10.00">and 15 more...</text>
</a>
</g>
</g>
<!-- Node6&#45;&gt;Node7 -->
<g id="edge6" class="edge"><title>Node6&#45;&gt;Node7</title>
<path fill="none" stroke="midnightblue" d="M205.65,-197.866C202.259,-183.797 198.717,-169.104 195.327,-155.038"/>
<polygon fill="none" stroke="midnightblue" points="202.342,-199.08 208.088,-207.982 209.147,-197.44 202.342,-199.08"/>
</g>
<!-- Node8 -->
<g id="node8" class="node"><title>Node8</title>
<g id="a_node8"><a xlink:href="class_dbug_uart.html" target="_top" xlink:title="Debug UART Class. ">
<polygon fill="none" stroke="black" points="234.962,-31 234.962,-125 309.038,-125 309.038,-31 234.962,-31"/>
<text text-anchor="middle" x="272" y="-113" font-family="Helvetica,sans-Serif" font-size="10.00">DbugUart</text>
<polyline fill="none" stroke="black" points="234.962,-107 309.038,-107 "/>
<text text-anchor="middle" x="272" y="-95" font-family="Helvetica,sans-Serif" font-size="10.00"> </text>
<polyline fill="none" stroke="black" points="234.962,-89 309.038,-89 "/>
<text text-anchor="start" x="242.962" y="-77" font-family="Helvetica,sans-Serif" font-size="10.00">+ DbugUart()</text>
<text text-anchor="start" x="242.962" y="-67" font-family="Helvetica,sans-Serif" font-size="10.00">+ open()</text>
<text text-anchor="start" x="242.962" y="-57" font-family="Helvetica,sans-Serif" font-size="10.00">+ close()</text>
<text text-anchor="start" x="242.962" y="-47" font-family="Helvetica,sans-Serif" font-size="10.00">+ read()</text>
<text text-anchor="start" x="242.962" y="-37" font-family="Helvetica,sans-Serif" font-size="10.00">+ write()</text>
</a>
</g>
</g>
<!-- Node6&#45;&gt;Node8 -->
<g id="edge7" class="edge"><title>Node6&#45;&gt;Node8</title>
<path fill="none" stroke="midnightblue" d="M242.717,-197.964C248.757,-173.423 255.268,-146.972 260.613,-125.259"/>
<polygon fill="none" stroke="midnightblue" points="239.242,-197.435 240.251,-207.982 246.039,-199.108 239.242,-197.435"/>
</g>
</g>
</svg>
