<?xml version="1.0" encoding="UTF-8" standalone="no"?>
<!DOCTYPE svg PUBLIC "-//W3C//DTD SVG 1.1//EN"
 "http://www.w3.org/Graphics/SVG/1.1/DTD/svg11.dtd">
<!-- Generated by graphviz version 2.36.0 (20140111.2315)
 -->
<!-- Title: Graphical Class Hierarchy Pages: 1 -->
<svg width="326pt" height="342pt"
 viewBox="0.00 0.00 326.00 342.00" xmlns="http://www.w3.org/2000/svg" xmlns:xlink="http://www.w3.org/1999/xlink">
<g id="graph0" class="graph" transform="scale(1 1) rotate(0) translate(4 338)">
<title>Graphical Class Hierarchy</title>
<!-- Node1 -->
<g id="node1" class="node"><title>Node1</title>
<g id="a_node1"><a xlink:href="class_string.html" target="_top" xlink:title="String class. ">
<polygon fill="none" stroke="black" points="-0.0615234,-168 -0.0615234,-186 42.0615,-186 42.0615,-168 -0.0615234,-168"/>
<text text-anchor="middle" x="21" y="-174" font-family="Helvetica,sans-Serif" font-size="10.00">String</text>
</a>
</g>
</g>
<!-- Node2 -->
<g id="node2" class="node"><title>Node2</title>
<g id="a_node2"><a xlink:href="class_string_static.html" target="_top" xlink:title="Static String Template Class. ">
<polygon fill="none" stroke="black" points="78.5322,-316 78.5322,-334 203.468,-334 203.468,-316 78.5322,-316"/>
<text text-anchor="middle" x="141" y="-322" font-family="Helvetica,sans-Serif" font-size="10.00">StringStatic&lt; arraysize &gt;</text>
</a>
</g>
</g>
<!-- Node1&#45;&gt;Node2 -->
<g id="edge1" class="edge"><title>Node1&#45;&gt;Node2</title>
<path fill="none" stroke="midnightblue" d="M25.1136,-196.121C30.6902,-224.228 45.0393,-276.544 78,-306 82.6169,-310.126 88.1118,-313.356 93.8943,-315.885"/>
<polygon fill="midnightblue" stroke="midnightblue" points="28.5078,-195.222 23.2825,-186.005 21.6197,-196.469 28.5078,-195.222"/>
</g>
<!-- Node3 -->
<g id="node3" class="node"><title>Node3</title>
<g id="a_node3"><a xlink:href="class_string_static.html" target="_top" xlink:title="StringStatic\&lt; 12 \&gt;">
<polygon fill="none" stroke="black" points="93.2539,-279 93.2539,-297 188.746,-297 188.746,-279 93.2539,-279"/>
<text text-anchor="middle" x="141" y="-285" font-family="Helvetica,sans-Serif" font-size="10.00">StringStatic&lt; 12 &gt;</text>
</a>
</g>
</g>
<!-- Node1&#45;&gt;Node3 -->
<g id="edge2" class="edge"><title>Node1&#45;&gt;Node3</title>
<path fill="none" stroke="midnightblue" d="M28.6733,-195.714C37.0441,-216.563 53.3583,-249.848 78,-269 83.3334,-273.145 89.5725,-276.391 95.9998,-278.931"/>
<polygon fill="midnightblue" stroke="midnightblue" points="31.8394,-194.193 25.0179,-186.086 25.2952,-196.677 31.8394,-194.193"/>
</g>
<!-- Node5 -->
<g id="node5" class="node"><title>Node5</title>
<g id="a_node5"><a xlink:href="class_string_static.html" target="_top" xlink:title="StringStatic\&lt; 128 \&gt;">
<polygon fill="none" stroke="black" points="90.4731,-242 90.4731,-260 191.527,-260 191.527,-242 90.4731,-242"/>
<text text-anchor="middle" x="141" y="-248" font-family="Helvetica,sans-Serif" font-size="10.00">StringStatic&lt; 128 &gt;</text>
</a>
</g>
</g>
<!-- Node1&#45;&gt;Node5 -->
<g id="edge4" class="edge"><title>Node1&#45;&gt;Node5</title>
<path fill="none" stroke="midnightblue" d="M35.6151,-194.215C46.0421,-206.347 61.4159,-222.129 78,-232 84.8686,-236.088 92.6963,-239.37 100.423,-241.979"/>
<polygon fill="midnightblue" stroke="midnightblue" points="38.0228,-191.635 28.9504,-186.163 32.6303,-196.098 38.0228,-191.635"/>
</g>
<!-- Node7 -->
<g id="node7" class="node"><title>Node7</title>
<g id="a_node7"><a xlink:href="class_string_static.html" target="_top" xlink:title="StringStatic\&lt; 16 \&gt;">
<polygon fill="none" stroke="black" points="93.2539,-205 93.2539,-223 188.746,-223 188.746,-205 93.2539,-205"/>
<text text-anchor="middle" x="141" y="-211" font-family="Helvetica,sans-Serif" font-size="10.00">StringStatic&lt; 16 &gt;</text>
</a>
</g>
</g>
<!-- Node1&#45;&gt;Node7 -->
<g id="edge6" class="edge"><title>Node1&#45;&gt;Node7</title>
<path fill="none" stroke="midnightblue" d="M51.9877,-186.722C60.3966,-189.426 69.5492,-192.347 78,-195 88.5263,-198.304 100.079,-201.863 110.33,-204.998"/>
<polygon fill="midnightblue" stroke="midnightblue" points="52.7884,-183.303 42.1968,-183.565 50.6402,-189.965 52.7884,-183.303"/>
</g>
<!-- Node9 -->
<g id="node9" class="node"><title>Node9</title>
<g id="a_node9"><a xlink:href="class_string_static.html" target="_top" xlink:title="StringStatic\&lt; 32 \&gt;">
<polygon fill="none" stroke="black" points="93.2539,-168 93.2539,-186 188.746,-186 188.746,-168 93.2539,-168"/>
<text text-anchor="middle" x="141" y="-174" font-family="Helvetica,sans-Serif" font-size="10.00">StringStatic&lt; 32 &gt;</text>
</a>
</g>
</g>
<!-- Node1&#45;&gt;Node9 -->
<g id="edge8" class="edge"><title>Node1&#45;&gt;Node9</title>
<path fill="none" stroke="midnightblue" d="M52.5005,-177C64.8565,-177 79.4074,-177 93.0587,-177"/>
<polygon fill="midnightblue" stroke="midnightblue" points="52.285,-173.5 42.2849,-177 52.2849,-180.5 52.285,-173.5"/>
</g>
<!-- Node11 -->
<g id="node11" class="node"><title>Node11</title>
<g id="a_node11"><a xlink:href="class_string_static.html" target="_top" xlink:title="StringStatic\&lt; 64 \&gt;">
<polygon fill="none" stroke="black" points="93.2539,-131 93.2539,-149 188.746,-149 188.746,-131 93.2539,-131"/>
<text text-anchor="middle" x="141" y="-137" font-family="Helvetica,sans-Serif" font-size="10.00">StringStatic&lt; 64 &gt;</text>
</a>
</g>
</g>
<!-- Node1&#45;&gt;Node11 -->
<g id="edge10" class="edge"><title>Node1&#45;&gt;Node11</title>
<path fill="none" stroke="midnightblue" d="M51.9877,-167.278C60.3966,-164.574 69.5492,-161.653 78,-159 88.5263,-155.696 100.079,-152.137 110.33,-149.002"/>
<polygon fill="midnightblue" stroke="midnightblue" points="50.6402,-164.035 42.1968,-170.435 52.7884,-170.697 50.6402,-164.035"/>
</g>
<!-- Node13 -->
<g id="node13" class="node"><title>Node13</title>
<g id="a_node13"><a xlink:href="class_string_static.html" target="_top" xlink:title="StringStatic\&lt; LINK\l_NAME_MAX \&gt;">
<polygon fill="none" stroke="black" points="92.0088,-84 92.0088,-112 189.991,-112 189.991,-84 92.0088,-84"/>
<text text-anchor="start" x="100.009" y="-100" font-family="Helvetica,sans-Serif" font-size="10.00">StringStatic&lt; LINK</text>
<text text-anchor="middle" x="141" y="-90" font-family="Helvetica,sans-Serif" font-size="10.00">_NAME_MAX &gt;</text>
</a>
</g>
</g>
<!-- Node1&#45;&gt;Node13 -->
<g id="edge12" class="edge"><title>Node1&#45;&gt;Node13</title>
<path fill="none" stroke="midnightblue" d="M36.1952,-159.73C46.7194,-147.824 61.966,-132.342 78,-122 83.8197,-118.246 90.3172,-114.934 96.8551,-112.062"/>
<polygon fill="midnightblue" stroke="midnightblue" points="33.2664,-157.769 29.4229,-167.642 38.5845,-162.321 33.2664,-157.769"/>
</g>
<!-- Node15 -->
<g id="node15" class="node"><title>Node15</title>
<g id="a_node15"><a xlink:href="class_string_static.html" target="_top" xlink:title="StringStatic\&lt; LINK\l_PATH_MAX \&gt;">
<polygon fill="none" stroke="black" points="92.0088,-37 92.0088,-65 189.991,-65 189.991,-37 92.0088,-37"/>
<text text-anchor="start" x="100.009" y="-53" font-family="Helvetica,sans-Serif" font-size="10.00">StringStatic&lt; LINK</text>
<text text-anchor="middle" x="141" y="-43" font-family="Helvetica,sans-Serif" font-size="10.00">_PATH_MAX &gt;</text>
</a>
</g>
</g>
<!-- Node1&#45;&gt;Node15 -->
<g id="edge14" class="edge"><title>Node1&#45;&gt;Node15</title>
<path fill="none" stroke="midnightblue" d="M27.8343,-158.23C35.766,-135.589 52.0174,-97.7435 78,-75 82.4293,-71.1229 87.5545,-67.838 92.9225,-65.0633"/>
<polygon fill="midnightblue" stroke="midnightblue" points="24.512,-157.129 24.6863,-167.722 31.1562,-159.332 24.512,-157.129"/>
</g>
<!-- Node17 -->
<g id="node17" class="node"><title>Node17</title>
<g id="a_node17"><a xlink:href="class_token.html" target="_top" xlink:title="Abstract Token Class. ">
<polygon fill="none" stroke="black" points="119.658,-0 119.658,-18 162.342,-18 162.342,-0 119.658,-0"/>
<text text-anchor="middle" x="141" y="-6" font-family="Helvetica,sans-Serif" font-size="10.00">Token</text>
</a>
</g>
</g>
<!-- Node1&#45;&gt;Node17 -->
<g id="edge16" class="edge"><title>Node1&#45;&gt;Node17</title>
<path fill="none" stroke="midnightblue" d="M23.8602,-157.638C27.9345,-126 40.5144,-63.2257 78,-28 89.2396,-17.438 106.206,-12.7392 119.55,-10.653"/>
<polygon fill="midnightblue" stroke="midnightblue" points="20.3596,-157.447 22.7136,-167.777 27.3153,-158.233 20.3596,-157.447"/>
</g>
<!-- Node4 -->
<g id="node4" class="node"><title>Node4</title>
<g id="a_node4"><a xlink:href="class_brsp_address.html" target="_top" xlink:title="BRSP Address class. ">
<polygon fill="none" stroke="black" points="242.377,-279 242.377,-297 315.623,-297 315.623,-279 242.377,-279"/>
<text text-anchor="middle" x="279" y="-285" font-family="Helvetica,sans-Serif" font-size="10.00">BrspAddress</text>
</a>
</g>
</g>
<!-- Node3&#45;&gt;Node4 -->
<g id="edge3" class="edge"><title>Node3&#45;&gt;Node4</title>
<path fill="none" stroke="midnightblue" d="M198.842,-288C213.559,-288 228.993,-288 242.284,-288"/>
<polygon fill="midnightblue" stroke="midnightblue" points="198.804,-284.5 188.803,-288 198.803,-291.5 198.804,-284.5"/>
</g>
<!-- Node6 -->
<g id="node6" class="node"><title>Node6</title>
<g id="a_node6"><a xlink:href="class_string_large.html" target="_top" xlink:title="Large String. ">
<polygon fill="none" stroke="black" points="245.15,-242 245.15,-260 312.85,-260 312.85,-242 245.15,-242"/>
<text text-anchor="middle" x="279" y="-248" font-family="Helvetica,sans-Serif" font-size="10.00">StringLarge</text>
</a>
</g>
</g>
<!-- Node5&#45;&gt;Node6 -->
<g id="edge5" class="edge"><title>Node5&#45;&gt;Node6</title>
<path fill="none" stroke="midnightblue" d="M202,-251C216.802,-251 232.117,-251 245.086,-251"/>
<polygon fill="midnightblue" stroke="midnightblue" points="201.869,-247.5 191.869,-251 201.869,-254.5 201.869,-247.5"/>
</g>
<!-- Node8 -->
<g id="node8" class="node"><title>Node8</title>
<g id="a_node8"><a xlink:href="class_string_tiny.html" target="_top" xlink:title="Tiny String. ">
<polygon fill="none" stroke="black" points="248.676,-205 248.676,-223 309.324,-223 309.324,-205 248.676,-205"/>
<text text-anchor="middle" x="279" y="-211" font-family="Helvetica,sans-Serif" font-size="10.00">StringTiny</text>
</a>
</g>
</g>
<!-- Node7&#45;&gt;Node8 -->
<g id="edge7" class="edge"><title>Node7&#45;&gt;Node8</title>
<path fill="none" stroke="midnightblue" d="M199.222,-214C216.21,-214 234.119,-214 248.561,-214"/>
<polygon fill="midnightblue" stroke="midnightblue" points="198.804,-210.5 188.803,-214 198.803,-217.5 198.804,-210.5"/>
</g>
<!-- Node10 -->
<g id="node10" class="node"><title>Node10</title>
<g id="a_node10"><a xlink:href="class_string_small.html" target="_top" xlink:title="Small String. ">
<polygon fill="none" stroke="black" points="245.436,-168 245.436,-186 312.564,-186 312.564,-168 245.436,-168"/>
<text text-anchor="middle" x="279" y="-174" font-family="Helvetica,sans-Serif" font-size="10.00">StringSmall</text>
</a>
</g>
</g>
<!-- Node9&#45;&gt;Node10 -->
<g id="edge9" class="edge"><title>Node9&#45;&gt;Node10</title>
<path fill="none" stroke="midnightblue" d="M199.018,-177C214.794,-177 231.381,-177 245.26,-177"/>
<polygon fill="midnightblue" stroke="midnightblue" points="198.804,-173.5 188.803,-177 198.803,-180.5 198.804,-173.5"/>
</g>
<!-- Node12 -->
<g id="node12" class="node"><title>Node12</title>
<g id="a_node12"><a xlink:href="class_string_medium.html" target="_top" xlink:title="Medium String. ">
<polygon fill="none" stroke="black" points="240.155,-131 240.155,-149 317.845,-149 317.845,-131 240.155,-131"/>
<text text-anchor="middle" x="279" y="-137" font-family="Helvetica,sans-Serif" font-size="10.00">StringMedium</text>
</a>
</g>
</g>
<!-- Node11&#45;&gt;Node12 -->
<g id="edge11" class="edge"><title>Node11&#45;&gt;Node12</title>
<path fill="none" stroke="midnightblue" d="M199.208,-140C213.019,-140 227.441,-140 240.114,-140"/>
<polygon fill="midnightblue" stroke="midnightblue" points="198.804,-136.5 188.803,-140 198.803,-143.5 198.804,-136.5"/>
</g>
<!-- Node14 -->
<g id="node14" class="node"><title>Node14</title>
<g id="a_node14"><a xlink:href="class_string_name.html" target="_top" xlink:title="String for file names. ">
<polygon fill="none" stroke="black" points="244.601,-89 244.601,-107 313.399,-107 313.399,-89 244.601,-89"/>
<text text-anchor="middle" x="279" y="-95" font-family="Helvetica,sans-Serif" font-size="10.00">StringName</text>
</a>
</g>
</g>
<!-- Node13&#45;&gt;Node14 -->
<g id="edge13" class="edge"><title>Node13&#45;&gt;Node14</title>
<path fill="none" stroke="midnightblue" d="M200.553,-98C215.514,-98 231.098,-98 244.33,-98"/>
<polygon fill="midnightblue" stroke="midnightblue" points="200.331,-94.5001 190.331,-98 200.331,-101.5 200.331,-94.5001"/>
</g>
<!-- Node16 -->
<g id="node16" class="node"><title>Node16</title>
<g id="a_node16"><a xlink:href="class_string_path.html" target="_top" xlink:title="String for path names. ">
<polygon fill="none" stroke="black" points="247.653,-42 247.653,-60 310.347,-60 310.347,-42 247.653,-42"/>
<text text-anchor="middle" x="279" y="-48" font-family="Helvetica,sans-Serif" font-size="10.00">StringPath</text>
</a>
</g>
</g>
<!-- Node15&#45;&gt;Node16 -->
<g id="edge15" class="edge"><title>Node15&#45;&gt;Node16</title>
<path fill="none" stroke="midnightblue" d="M200.339,-51C216.624,-51 233.664,-51 247.619,-51"/>
<polygon fill="midnightblue" stroke="midnightblue" points="200.331,-47.5001 190.331,-51 200.331,-54.5001 200.331,-47.5001"/>
</g>
</g>
</svg>
