<?xml version="1.0" encoding="UTF-8" standalone="no"?>
<!DOCTYPE svg PUBLIC "-//W3C//DTD SVG 1.1//EN"
 "http://www.w3.org/Graphics/SVG/1.1/DTD/svg11.dtd">
<!-- Generated by graphviz version 2.36.0 (20140111.2315)
 -->
<!-- Title: Graphical Class Hierarchy Pages: 1 -->
<svg width="400pt" height="478pt"
 viewBox="0.00 0.00 400.00 478.00" xmlns="http://www.w3.org/2000/svg" xmlns:xlink="http://www.w3.org/1999/xlink">
<g id="graph0" class="graph" transform="scale(1 1) rotate(0) translate(4 474)">
<title>Graphical Class Hierarchy</title>
<!-- Node1 -->
<g id="node1" class="node"><title>Node1</title>
<g id="a_node1"><a xlink:href="class_appfs.html" target="_top" xlink:title="Class for accessing Application file system (Flash/RAM) ">
<polygon fill="none" stroke="black" points="72.2144,-452 72.2144,-470 113.786,-470 113.786,-452 72.2144,-452"/>
<text text-anchor="middle" x="93" y="-458" font-family="Helvetica,sans-Serif" font-size="10.00">Appfs</text>
</a>
</g>
</g>
<!-- Node2 -->
<g id="node2" class="node"><title>Node2</title>
<g id="a_node2"><a xlink:href="class_rle_appfs.html" target="_top" xlink:title="Class for reading/writing compressed file data using Appfs. ">
<polygon fill="none" stroke="black" points="152.712,-452 152.712,-470 209.288,-470 209.288,-452 152.712,-452"/>
<text text-anchor="middle" x="181" y="-458" font-family="Helvetica,sans-Serif" font-size="10.00">RleAppfs</text>
</a>
</g>
</g>
<!-- Node1&#45;&gt;Node2 -->
<g id="edge1" class="edge"><title>Node1&#45;&gt;Node2</title>
<path fill="none" stroke="midnightblue" d="M123.985,-461C133.31,-461 143.537,-461 152.671,-461"/>
<polygon fill="midnightblue" stroke="midnightblue" points="123.946,-457.5 113.946,-461 123.946,-464.5 123.946,-457.5"/>
</g>
<!-- Node3 -->
<g id="node3" class="node"><title>Node3</title>
<g id="a_node3"><a xlink:href="class_dbug.html" target="_top" xlink:title="Debug Class. ">
<polygon fill="none" stroke="black" points="246.047,-37 246.047,-55 285.953,-55 285.953,-37 246.047,-37"/>
<text text-anchor="middle" x="266" y="-43" font-family="Helvetica,sans-Serif" font-size="10.00">Dbug</text>
</a>
</g>
</g>
<!-- Node4 -->
<g id="node4" class="node"><title>Node4</title>
<g id="a_node4"><a xlink:href="class_dbug_null.html" target="_top" xlink:title="Debug Null Class. ">
<polygon fill="none" stroke="black" points="328.434,-37 328.434,-55 385.566,-55 385.566,-37 328.434,-37"/>
<text text-anchor="middle" x="357" y="-43" font-family="Helvetica,sans-Serif" font-size="10.00">DbugNull</text>
</a>
</g>
</g>
<!-- Node3&#45;&gt;Node4 -->
<g id="edge2" class="edge"><title>Node3&#45;&gt;Node4</title>
<path fill="none" stroke="midnightblue" d="M296.454,-46C306.709,-46 318.172,-46 328.282,-46"/>
<polygon fill="midnightblue" stroke="midnightblue" points="296.312,-42.5001 286.312,-46 296.312,-49.5001 296.312,-42.5001"/>
</g>
<!-- Node5 -->
<g id="node5" class="node"><title>Node5</title>
<g id="a_node5"><a xlink:href="class_dbug_stdout.html" target="_top" xlink:title="Debug Stdout Class. ">
<polygon fill="none" stroke="black" points="322.591,-0 322.591,-18 391.409,-18 391.409,-0 322.591,-0"/>
<text text-anchor="middle" x="357" y="-6" font-family="Helvetica,sans-Serif" font-size="10.00">DbugStdout</text>
</a>
</g>
</g>
<!-- Node3&#45;&gt;Node5 -->
<g id="edge3" class="edge"><title>Node3&#45;&gt;Node5</title>
<path fill="none" stroke="midnightblue" d="M295.824,-34.017C308.3,-28.8303 322.661,-22.8599 334.225,-18.0527"/>
<polygon fill="midnightblue" stroke="midnightblue" points="294.202,-30.9009 286.312,-37.9716 296.889,-37.3646 294.202,-30.9009"/>
</g>
<!-- Node6 -->
<g id="node6" class="node"><title>Node6</title>
<g id="a_node6"><a xlink:href="class_dbug_uart.html" target="_top" xlink:title="Debug UART Class. ">
<polygon fill="none" stroke="black" points="327.601,-74 327.601,-92 386.399,-92 386.399,-74 327.601,-74"/>
<text text-anchor="middle" x="357" y="-80" font-family="Helvetica,sans-Serif" font-size="10.00">DbugUart</text>
</a>
</g>
</g>
<!-- Node3&#45;&gt;Node6 -->
<g id="edge4" class="edge"><title>Node3&#45;&gt;Node6</title>
<path fill="none" stroke="midnightblue" d="M295.824,-57.983C308.3,-63.1697 322.661,-69.1401 334.225,-73.9473"/>
<polygon fill="midnightblue" stroke="midnightblue" points="296.889,-54.6354 286.312,-54.0284 294.202,-61.0991 296.889,-54.6354"/>
</g>
<!-- Node7 -->
<g id="node7" class="node"><title>Node7</title>
<g id="a_node7"><a xlink:href="class_phy.html" target="_top" xlink:title="Base Applib Class for Physical devices. ">
<polygon fill="none" stroke="black" points="0.384277,-341 0.384277,-359 33.6157,-359 33.6157,-341 0.384277,-341"/>
<text text-anchor="middle" x="17" y="-347" font-family="Helvetica,sans-Serif" font-size="10.00">Phy</text>
</a>
</g>
</g>
<!-- Node8 -->
<g id="node8" class="node"><title>Node8</title>
<g id="a_node8"><a xlink:href="class_dir.html" target="_top" xlink:title="Dir class. ">
<polygon fill="none" stroke="black" points="78.5,-378 78.5,-396 107.5,-396 107.5,-378 78.5,-378"/>
<text text-anchor="middle" x="93" y="-384" font-family="Helvetica,sans-Serif" font-size="10.00">Dir</text>
</a>
</g>
</g>
<!-- Node7&#45;&gt;Node8 -->
<g id="edge5" class="edge"><title>Node7&#45;&gt;Node8</title>
<path fill="none" stroke="midnightblue" d="M42.6974,-362.349C54.5706,-368.285 68.351,-375.176 78.3194,-380.16"/>
<polygon fill="midnightblue" stroke="midnightblue" points="44.203,-359.188 33.6935,-357.847 41.0725,-365.449 44.203,-359.188"/>
</g>
<!-- Node9 -->
<g id="node9" class="node"><title>Node9</title>
<g id="a_node9"><a xlink:href="class_file.html" target="_top" xlink:title="File Class. ">
<polygon fill="none" stroke="black" points="76.9434,-341 76.9434,-359 109.057,-359 109.057,-341 76.9434,-341"/>
<text text-anchor="middle" x="93" y="-347" font-family="Helvetica,sans-Serif" font-size="10.00">File</text>
</a>
</g>
</g>
<!-- Node7&#45;&gt;Node9 -->
<g id="edge6" class="edge"><title>Node7&#45;&gt;Node9</title>
<path fill="none" stroke="midnightblue" d="M44.0343,-350C55.0085,-350 67.3975,-350 76.8352,-350"/>
<polygon fill="midnightblue" stroke="midnightblue" points="43.6935,-346.5 33.6935,-350 43.6935,-353.5 43.6935,-346.5"/>
</g>
<!-- Node12 -->
<g id="node12" class="node"><title>Node12</title>
<g id="a_node12"><a xlink:href="class_periph.html" target="_top" xlink:title="Peripheral Class. ">
<polygon fill="none" stroke="black" points="70.5469,-240 70.5469,-258 115.453,-258 115.453,-240 70.5469,-240"/>
<text text-anchor="middle" x="93" y="-246" font-family="Helvetica,sans-Serif" font-size="10.00">Periph</text>
</a>
</g>
</g>
<!-- Node7&#45;&gt;Node12 -->
<g id="edge9" class="edge"><title>Node7&#45;&gt;Node12</title>
<path fill="none" stroke="midnightblue" d="M30.9268,-332.357C46.8178,-310.668 73.1775,-274.69 85.4005,-258.007"/>
<polygon fill="midnightblue" stroke="midnightblue" points="27.916,-330.544 24.8291,-340.679 33.5626,-334.681 27.916,-330.544"/>
</g>
<!-- Node10 -->
<g id="node10" class="node"><title>Node10</title>
<g id="a_node10"><a xlink:href="class_rle_file.html" target="_top" xlink:title="Class for reading/writing compressed file data. ">
<polygon fill="none" stroke="black" points="157.441,-406 157.441,-424 204.559,-424 204.559,-406 157.441,-406"/>
<text text-anchor="middle" x="181" y="-412" font-family="Helvetica,sans-Serif" font-size="10.00">RleFile</text>
</a>
</g>
</g>
<!-- Node9&#45;&gt;Node10 -->
<g id="edge7" class="edge"><title>Node9&#45;&gt;Node10</title>
<path fill="none" stroke="midnightblue" d="M113.996,-365.114C130.667,-377.714 153.876,-395.255 167.866,-405.829"/>
<polygon fill="midnightblue" stroke="midnightblue" points="116.046,-362.275 105.958,-359.038 111.825,-367.86 116.046,-362.275"/>
</g>
<!-- Node11 -->
<g id="node11" class="node"><title>Node11</title>
<g id="a_node11"><a xlink:href="class_xml.html" target="_top" xlink:title="XML Class. ">
<polygon fill="none" stroke="black" points="164.389,-351 164.389,-369 197.611,-369 197.611,-351 164.389,-351"/>
<text text-anchor="middle" x="181" y="-357" font-family="Helvetica,sans-Serif" font-size="10.00">Xml</text>
</a>
</g>
</g>
<!-- Node9&#45;&gt;Node11 -->
<g id="edge8" class="edge"><title>Node9&#45;&gt;Node11</title>
<path fill="none" stroke="midnightblue" d="M119.682,-352.986C134.138,-354.667 151.731,-356.713 164.176,-358.16"/>
<polygon fill="midnightblue" stroke="midnightblue" points="119.712,-349.466 109.375,-351.788 118.904,-356.419 119.712,-349.466"/>
</g>
<!-- Node13 -->
<g id="node13" class="node"><title>Node13</title>
<g id="a_node13"><a xlink:href="class_core.html" target="_top" xlink:title="Core Class. ">
<polygon fill="none" stroke="black" points="162.163,-314 162.163,-332 199.837,-332 199.837,-314 162.163,-314"/>
<text text-anchor="middle" x="181" y="-320" font-family="Helvetica,sans-Serif" font-size="10.00">Core</text>
</a>
</g>
</g>
<!-- Node12&#45;&gt;Node13 -->
<g id="edge10" class="edge"><title>Node12&#45;&gt;Node13</title>
<path fill="none" stroke="midnightblue" d="M109.671,-265.203C120.993,-276.569 136.89,-291.843 152,-304 156.302,-307.462 161.22,-310.943 165.722,-313.963"/>
<polygon fill="midnightblue" stroke="midnightblue" points="112.137,-262.72 102.629,-258.046 107.147,-267.629 112.137,-262.72"/>
</g>
<!-- Node14 -->
<g id="node14" class="node"><title>Node14</title>
<g id="a_node14"><a xlink:href="class_eint.html" target="_top" xlink:title="External Interrupt Class. ">
<polygon fill="none" stroke="black" points="164.384,-277 164.384,-295 197.616,-295 197.616,-277 164.384,-277"/>
<text text-anchor="middle" x="181" y="-283" font-family="Helvetica,sans-Serif" font-size="10.00">Eint</text>
</a>
</g>
</g>
<!-- Node12&#45;&gt;Node14 -->
<g id="edge11" class="edge"><title>Node12&#45;&gt;Node14</title>
<path fill="none" stroke="midnightblue" d="M124.657,-262.19C138.107,-267.976 153.317,-274.52 164.384,-279.281"/>
<polygon fill="midnightblue" stroke="midnightblue" points="125.828,-258.883 115.258,-258.146 123.061,-265.313 125.828,-258.883"/>
</g>
<!-- Node15 -->
<g id="node15" class="node"><title>Node15</title>
<g id="a_node15"><a xlink:href="class_pblock.html" target="_top" xlink:title="Peripheral Block Class. ">
<polygon fill="none" stroke="black" points="157.993,-240 157.993,-258 204.007,-258 204.007,-240 157.993,-240"/>
<text text-anchor="middle" x="181" y="-246" font-family="Helvetica,sans-Serif" font-size="10.00">Pblock</text>
</a>
</g>
</g>
<!-- Node12&#45;&gt;Node15 -->
<g id="edge12" class="edge"><title>Node12&#45;&gt;Node15</title>
<path fill="none" stroke="midnightblue" d="M125.861,-249C136.447,-249 148.001,-249 157.706,-249"/>
<polygon fill="midnightblue" stroke="midnightblue" points="125.701,-245.5 115.701,-249 125.701,-252.5 125.701,-245.5"/>
</g>
<!-- Node23 -->
<g id="node23" class="node"><title>Node23</title>
<g id="a_node23"><a xlink:href="class_pchar.html" target="_top" xlink:title="Peripheral Character Class. ">
<polygon fill="none" stroke="black" points="159.938,-185 159.938,-203 202.062,-203 202.062,-185 159.938,-185"/>
<text text-anchor="middle" x="181" y="-191" font-family="Helvetica,sans-Serif" font-size="10.00">Pchar</text>
</a>
</g>
</g>
<!-- Node12&#45;&gt;Node23 -->
<g id="edge20" class="edge"><title>Node12&#45;&gt;Node23</title>
<path fill="none" stroke="midnightblue" d="M116.746,-234.453C132.306,-224.502 152.45,-211.619 165.778,-203.096"/>
<polygon fill="midnightblue" stroke="midnightblue" points="114.74,-231.581 108.201,-239.918 118.511,-237.479 114.74,-231.581"/>
</g>
<!-- Node28 -->
<g id="node28" class="node"><title>Node28</title>
<g id="a_node28"><a xlink:href="class_pio.html" target="_top" xlink:title="Pin Input/Output Class. ">
<polygon fill="none" stroke="black" points="165.773,-148 165.773,-166 196.227,-166 196.227,-148 165.773,-148"/>
<text text-anchor="middle" x="181" y="-154" font-family="Helvetica,sans-Serif" font-size="10.00">Pio</text>
</a>
</g>
</g>
<!-- Node12&#45;&gt;Node28 -->
<g id="edge26" class="edge"><title>Node12&#45;&gt;Node28</title>
<path fill="none" stroke="midnightblue" d="M105.927,-231.045C116.812,-215.441 133.916,-192.773 152,-176 156.135,-172.165 161.106,-168.534 165.705,-165.494"/>
<polygon fill="midnightblue" stroke="midnightblue" points="102.746,-229.498 100.001,-239.731 108.528,-233.443 102.746,-229.498"/>
</g>
<!-- Node30 -->
<g id="node30" class="node"><title>Node30</title>
<g id="a_node30"><a xlink:href="class_rtc.html" target="_top" xlink:title="RTC Class. ">
<polygon fill="none" stroke="black" points="165.5,-111 165.5,-129 196.5,-129 196.5,-111 165.5,-111"/>
<text text-anchor="middle" x="181" y="-117" font-family="Helvetica,sans-Serif" font-size="10.00">Rtc</text>
</a>
</g>
</g>
<!-- Node12&#45;&gt;Node30 -->
<g id="edge28" class="edge"><title>Node12&#45;&gt;Node30</title>
<path fill="none" stroke="midnightblue" d="M100.55,-230.413C109.451,-207.083 127.157,-166.765 152,-139 155.761,-134.797 160.638,-131.075 165.266,-128.063"/>
<polygon fill="midnightblue" stroke="midnightblue" points="97.2529,-229.237 97.085,-239.83 103.822,-231.654 97.2529,-229.237"/>
</g>
<!-- Node16 -->
<g id="node16" class="node"><title>Node16</title>
<g id="a_node16"><a xlink:href="class_adc.html" target="_top" xlink:title="ADC Peripheral Class. ">
<polygon fill="none" stroke="black" points="249.384,-370 249.384,-388 282.616,-388 282.616,-370 249.384,-370"/>
<text text-anchor="middle" x="266" y="-376" font-family="Helvetica,sans-Serif" font-size="10.00">Adc</text>
</a>
</g>
</g>
<!-- Node15&#45;&gt;Node16 -->
<g id="edge13" class="edge"><title>Node15&#45;&gt;Node16</title>
<path fill="none" stroke="midnightblue" d="M206.933,-264.609C208.029,-265.692 209.061,-266.824 210,-268 237.396,-302.312 221.967,-323.253 246,-360 248.247,-363.436 251.194,-366.754 254.095,-369.631"/>
<polygon fill="midnightblue" stroke="midnightblue" points="209.017,-261.793 199.056,-258.183 204.592,-267.217 209.017,-261.793"/>
</g>
<!-- Node17 -->
<g id="node17" class="node"><title>Node17</title>
<g id="a_node17"><a xlink:href="class_dac.html" target="_top" xlink:title="DAC Class. ">
<polygon fill="none" stroke="black" points="249.108,-333 249.108,-351 282.892,-351 282.892,-333 249.108,-333"/>
<text text-anchor="middle" x="266" y="-339" font-family="Helvetica,sans-Serif" font-size="10.00">Dac</text>
</a>
</g>
</g>
<!-- Node15&#45;&gt;Node17 -->
<g id="edge14" class="edge"><title>Node15&#45;&gt;Node17</title>
<path fill="none" stroke="midnightblue" d="M206.013,-264.311C207.411,-265.5 208.754,-266.733 210,-268 230.486,-288.829 227.573,-300.329 246,-323 248.707,-326.33 251.922,-329.721 254.931,-332.698"/>
<polygon fill="midnightblue" stroke="midnightblue" points="207.764,-261.25 197.665,-258.046 203.562,-266.848 207.764,-261.25"/>
</g>
<!-- Node18 -->
<g id="node18" class="node"><title>Node18</title>
<g id="a_node18"><a xlink:href="class_i2c.html" target="_top" xlink:title="I2C Peripheral Class. ">
<polygon fill="none" stroke="black" points="251.33,-296 251.33,-314 280.67,-314 280.67,-296 251.33,-296"/>
<text text-anchor="middle" x="266" y="-302" font-family="Helvetica,sans-Serif" font-size="10.00">I2c</text>
</a>
</g>
</g>
<!-- Node15&#45;&gt;Node18 -->
<g id="edge15" class="edge"><title>Node15&#45;&gt;Node18</title>
<path fill="none" stroke="midnightblue" d="M204.006,-263.847C219.123,-274.047 238.705,-287.259 251.549,-295.925"/>
<polygon fill="midnightblue" stroke="midnightblue" points="205.953,-260.939 195.706,-258.247 202.038,-266.742 205.953,-260.939"/>
</g>
<!-- Node21 -->
<g id="node21" class="node"><title>Node21</title>
<g id="a_node21"><a xlink:href="class_pwm.html" target="_top" xlink:title="PWM Class. ">
<polygon fill="none" stroke="black" points="246.889,-259 246.889,-277 285.111,-277 285.111,-259 246.889,-259"/>
<text text-anchor="middle" x="266" y="-265" font-family="Helvetica,sans-Serif" font-size="10.00">Pwm</text>
</a>
</g>
</g>
<!-- Node15&#45;&gt;Node21 -->
<g id="edge18" class="edge"><title>Node15&#45;&gt;Node21</title>
<path fill="none" stroke="midnightblue" d="M214.02,-256.33C225.06,-258.857 237.047,-261.601 246.621,-263.793"/>
<polygon fill="midnightblue" stroke="midnightblue" points="214.771,-252.911 204.242,-254.092 213.209,-259.735 214.771,-252.911"/>
</g>
<!-- Node22 -->
<g id="node22" class="node"><title>Node22</title>
<g id="a_node22"><a xlink:href="class_usb.html" target="_top" xlink:title="USB Class. ">
<polygon fill="none" stroke="black" points="249.108,-222 249.108,-240 282.892,-240 282.892,-222 249.108,-222"/>
<text text-anchor="middle" x="266" y="-228" font-family="Helvetica,sans-Serif" font-size="10.00">Usb</text>
</a>
</g>
</g>
<!-- Node15&#45;&gt;Node22 -->
<g id="edge19" class="edge"><title>Node15&#45;&gt;Node22</title>
<path fill="none" stroke="midnightblue" d="M214.321,-241.991C226.22,-239.41 239.179,-236.6 249.014,-234.467"/>
<polygon fill="midnightblue" stroke="midnightblue" points="213.273,-238.636 204.242,-244.176 214.757,-245.477 213.273,-238.636"/>
</g>
<!-- Node19 -->
<g id="node19" class="node"><title>Node19</title>
<g id="a_node19"><a xlink:href="class_i2_c.html" target="_top" xlink:title="I2C Class (alternate class for I2c) ">
<polygon fill="none" stroke="black" points="341.219,-314 341.219,-332 372.781,-332 372.781,-314 341.219,-314"/>
<text text-anchor="middle" x="357" y="-320" font-family="Helvetica,sans-Serif" font-size="10.00">I2C</text>
</a>
</g>
</g>
<!-- Node18&#45;&gt;Node19 -->
<g id="edge16" class="edge"><title>Node18&#45;&gt;Node19</title>
<path fill="none" stroke="midnightblue" d="M291.077,-309.87C306.995,-313.089 327.364,-317.208 341.003,-319.967"/>
<polygon fill="midnightblue" stroke="midnightblue" points="291.402,-306.364 280.906,-307.812 290.014,-313.225 291.402,-306.364"/>
</g>
<!-- Node20 -->
<g id="node20" class="node"><title>Node20</title>
<g id="a_node20"><a xlink:href="class_iic.html" target="_top" xlink:title="IIC Class (alternate class for I2c) ">
<polygon fill="none" stroke="black" points="342.5,-277 342.5,-295 371.5,-295 371.5,-277 342.5,-277"/>
<text text-anchor="middle" x="357" y="-283" font-family="Helvetica,sans-Serif" font-size="10.00">Iic</text>
</a>
</g>
</g>
<!-- Node18&#45;&gt;Node20 -->
<g id="edge17" class="edge"><title>Node18&#45;&gt;Node20</title>
<path fill="none" stroke="midnightblue" d="M290.934,-299.89C307.458,-296.363 328.832,-291.8 342.483,-288.886"/>
<polygon fill="midnightblue" stroke="midnightblue" points="289.955,-296.521 280.906,-302.031 291.417,-303.366 289.955,-296.521"/>
</g>
<!-- Node24 -->
<g id="node24" class="node"><title>Node24</title>
<g id="a_node24"><a xlink:href="class_spi.html" target="_top" xlink:title="SPI Class. ">
<polygon fill="none" stroke="black" points="250.773,-185 250.773,-203 281.227,-203 281.227,-185 250.773,-185"/>
<text text-anchor="middle" x="266" y="-191" font-family="Helvetica,sans-Serif" font-size="10.00">Spi</text>
</a>
</g>
</g>
<!-- Node23&#45;&gt;Node24 -->
<g id="edge21" class="edge"><title>Node23&#45;&gt;Node24</title>
<path fill="none" stroke="midnightblue" d="M212.137,-194C225.237,-194 239.975,-194 250.554,-194"/>
<polygon fill="midnightblue" stroke="midnightblue" points="212.092,-190.5 202.092,-194 212.092,-197.5 212.092,-190.5"/>
</g>
<!-- Node25 -->
<g id="node25" class="node"><title>Node25</title>
<g id="a_node25"><a xlink:href="class_tmr.html" target="_top" xlink:title="Tmr (hardware timer) Class. ">
<polygon fill="none" stroke="black" points="249.116,-148 249.116,-166 282.884,-166 282.884,-148 249.116,-148"/>
<text text-anchor="middle" x="266" y="-154" font-family="Helvetica,sans-Serif" font-size="10.00">Tmr</text>
</a>
</g>
</g>
<!-- Node23&#45;&gt;Node25 -->
<g id="edge22" class="edge"><title>Node23&#45;&gt;Node25</title>
<path fill="none" stroke="midnightblue" d="M211.36,-180.912C224.017,-175.27 238.325,-168.891 248.978,-164.142"/>
<polygon fill="midnightblue" stroke="midnightblue" points="209.8,-177.775 202.092,-185.043 212.651,-184.168 209.8,-177.775"/>
</g>
<!-- Node26 -->
<g id="node26" class="node"><title>Node26</title>
<g id="a_node26"><a xlink:href="class_uart.html" target="_top" xlink:title="UART Class. ">
<polygon fill="none" stroke="black" points="248.554,-111 248.554,-129 283.446,-129 283.446,-111 248.554,-111"/>
<text text-anchor="middle" x="266" y="-117" font-family="Helvetica,sans-Serif" font-size="10.00">Uart</text>
</a>
</g>
</g>
<!-- Node23&#45;&gt;Node26 -->
<g id="edge23" class="edge"><title>Node23&#45;&gt;Node26</title>
<path fill="none" stroke="midnightblue" d="M205.103,-178.842C206.788,-177.58 208.438,-176.291 210,-175 210.309,-174.745 240.456,-144.572 255.979,-129.031"/>
<polygon fill="midnightblue" stroke="midnightblue" points="202.767,-176.207 196.622,-184.838 206.808,-181.923 202.767,-176.207"/>
</g>
<!-- Node26&#45;&gt;Node6 -->
<g id="edge25" class="edge"><title>Node26&#45;&gt;Node6</title>
<path fill="none" stroke="midnightblue" d="M293.147,-109.13C306.227,-103.692 321.872,-97.1879 334.282,-92.029"/>
<polygon fill="midnightblue" stroke="midnightblue" points="291.63,-105.97 283.74,-113.041 294.318,-112.434 291.63,-105.97"/>
</g>
<!-- Node27 -->
<g id="node27" class="node"><title>Node27</title>
<g id="a_node27"><a xlink:href="class_brsp.html" target="_top" xlink:title="BRSP class (bluetooth low energy serial protocol) ">
<polygon fill="none" stroke="black" points="338.719,-111 338.719,-129 375.281,-129 375.281,-111 338.719,-111"/>
<text text-anchor="middle" x="357" y="-117" font-family="Helvetica,sans-Serif" font-size="10.00">Brsp</text>
</a>
</g>
</g>
<!-- Node26&#45;&gt;Node27 -->
<g id="edge24" class="edge"><title>Node26&#45;&gt;Node27</title>
<path fill="none" stroke="midnightblue" d="M294.067,-120C308.472,-120 325.772,-120 338.421,-120"/>
<polygon fill="midnightblue" stroke="midnightblue" points="293.74,-116.5 283.74,-120 293.74,-123.5 293.74,-116.5"/>
</g>
<!-- Node29 -->
<g id="node29" class="node"><title>Node29</title>
<g id="a_node29"><a xlink:href="class_pin.html" target="_top" xlink:title="Pin class. ">
<polygon fill="none" stroke="black" points="250.773,-74 250.773,-92 281.227,-92 281.227,-74 250.773,-74"/>
<text text-anchor="middle" x="266" y="-80" font-family="Helvetica,sans-Serif" font-size="10.00">Pin</text>
</a>
</g>
</g>
<!-- Node28&#45;&gt;Node29 -->
<g id="edge27" class="edge"><title>Node28&#45;&gt;Node29</title>
<path fill="none" stroke="midnightblue" d="M204.562,-142.246C206.435,-140.855 208.271,-139.429 210,-138 210.309,-137.745 240.456,-107.572 255.979,-92.0312"/>
<polygon fill="midnightblue" stroke="midnightblue" points="202.502,-139.416 196.334,-148.031 206.527,-145.143 202.502,-139.416"/>
</g>
<!-- Node31 -->
<g id="node31" class="node"><title>Node31</title>
<g id="a_node31"><a xlink:href="class_rle.html" target="_top" xlink:title="Run Length Encoding Class. ">
<polygon fill="none" stroke="black" points="77.4976,-415 77.4976,-433 108.502,-433 108.502,-415 77.4976,-415"/>
<text text-anchor="middle" x="93" y="-421" font-family="Helvetica,sans-Serif" font-size="10.00">Rle</text>
</a>
</g>
</g>
<!-- Node31&#45;&gt;Node2 -->
<g id="edge29" class="edge"><title>Node31&#45;&gt;Node2</title>
<path fill="none" stroke="midnightblue" d="M118.15,-434.39C130.961,-439.902 146.555,-446.611 158.879,-451.913"/>
<polygon fill="midnightblue" stroke="midnightblue" points="119.158,-431.014 108.589,-430.277 116.391,-437.444 119.158,-431.014"/>
</g>
<!-- Node31&#45;&gt;Node10 -->
<g id="edge30" class="edge"><title>Node31&#45;&gt;Node10</title>
<path fill="none" stroke="midnightblue" d="M118.899,-421.394C130.996,-420.128 145.432,-418.618 157.234,-417.382"/>
<polygon fill="midnightblue" stroke="midnightblue" points="118.17,-417.951 108.589,-422.473 118.899,-424.913 118.17,-417.951"/>
</g>
</g>
</svg>
