<?xml version="1.0" encoding="UTF-8" standalone="no"?>
<!DOCTYPE svg PUBLIC "-//W3C//DTD SVG 1.1//EN"
 "http://www.w3.org/Graphics/SVG/1.1/DTD/svg11.dtd">
<!-- Generated by graphviz version 2.36.0 (20140111.2315)
 -->
<!-- Title: Graphical Class Hierarchy Pages: 1 -->
<svg width="290pt" height="26pt"
 viewBox="0.00 0.00 290.00 26.00" xmlns="http://www.w3.org/2000/svg" xmlns:xlink="http://www.w3.org/1999/xlink">
<g id="graph0" class="graph" transform="scale(1 1) rotate(0) translate(4 22)">
<title>Graphical Class Hierarchy</title>
<!-- Node1 -->
<g id="node1" class="node"><title>Node1</title>
<g id="a_node1"><a xlink:href="class_font.html" target="_top" xlink:title="Font class. ">
<polygon fill="none" stroke="black" points="-0.00488281,-0 -0.00488281,-18 36.0049,-18 36.0049,-0 -0.00488281,-0"/>
<text text-anchor="middle" x="18" y="-6" font-family="Helvetica,sans-Serif" font-size="10.00">Font</text>
</a>
</g>
</g>
<!-- Node2 -->
<g id="node2" class="node"><title>Node2</title>
<g id="a_node2"><a xlink:href="class_m_font.html" target="_top" xlink:title="Monochrome Font. ">
<polygon fill="none" stroke="black" points="71.8301,-0 71.8301,-18 116.17,-18 116.17,-0 71.8301,-0"/>
<text text-anchor="middle" x="94" y="-6" font-family="Helvetica,sans-Serif" font-size="10.00">MFont</text>
</a>
</g>
</g>
<!-- Node1&#45;&gt;Node2 -->
<g id="edge1" class="edge"><title>Node1&#45;&gt;Node2</title>
<path fill="none" stroke="midnightblue" d="M46.2642,-9C54.6554,-9 63.7657,-9 71.6954,-9"/>
<polygon fill="midnightblue" stroke="midnightblue" points="46.1631,-5.5001 36.1631,-9 46.1631,-12.5001 46.1631,-5.5001"/>
</g>
<!-- Node3 -->
<g id="node3" class="node"><title>Node3</title>
<g id="a_node3"><a xlink:href="class_m_b_font.html" target="_top" xlink:title="Monochrome Bitmap Font class. ">
<polygon fill="none" stroke="black" points="152.495,-0 152.495,-18 203.505,-18 203.505,-0 152.495,-0"/>
<text text-anchor="middle" x="178" y="-6" font-family="Helvetica,sans-Serif" font-size="10.00">MBFont</text>
</a>
</g>
</g>
<!-- Node2&#45;&gt;Node3 -->
<g id="edge2" class="edge"><title>Node2&#45;&gt;Node3</title>
<path fill="none" stroke="midnightblue" d="M126.594,-9C135.156,-9 144.297,-9 152.411,-9"/>
<polygon fill="midnightblue" stroke="midnightblue" points="126.545,-5.5001 116.545,-9 126.544,-12.5001 126.545,-5.5001"/>
</g>
<!-- Node4 -->
<g id="node4" class="node"><title>Node4</title>
<g id="a_node4"><a xlink:href="class_font8.html" target="_top" xlink:title="Bitmap Fonts (used with LCDs) ">
<polygon fill="none" stroke="black" points="240.214,-0 240.214,-18 281.786,-18 281.786,-0 240.214,-0"/>
<text text-anchor="middle" x="261" y="-6" font-family="Helvetica,sans-Serif" font-size="10.00">Font8</text>
</a>
</g>
</g>
<!-- Node3&#45;&gt;Node4 -->
<g id="edge3" class="edge"><title>Node3&#45;&gt;Node4</title>
<path fill="none" stroke="midnightblue" d="M213.938,-9C222.856,-9 232.142,-9 240.02,-9"/>
<polygon fill="midnightblue" stroke="midnightblue" points="213.743,-5.5001 203.743,-9 213.743,-12.5001 213.743,-5.5001"/>
</g>
</g>
</svg>
