<?xml version="1.0" encoding="UTF-8" standalone="no"?>
<!DOCTYPE svg PUBLIC "-//W3C//DTD SVG 1.1//EN"
 "http://www.w3.org/Graphics/SVG/1.1/DTD/svg11.dtd">
<!-- Generated by graphviz version 2.36.0 (20140111.2315)
 -->
<!-- Title: Dir Pages: 1 -->
<svg width="68pt" height="296pt"
 viewBox="0.00 0.00 68.00 296.00" xmlns="http://www.w3.org/2000/svg" xmlns:xlink="http://www.w3.org/1999/xlink">
<g id="graph0" class="graph" transform="scale(1 1) rotate(0) translate(4 292)">
<title>Dir</title>
<!-- Node1 -->
<g id="node1" class="node"><title>Node1</title>
<polygon fill="#bfbfbf" stroke="black" points="-0.368164,-1 -0.368164,-155 60.3682,-155 60.3682,-1 -0.368164,-1"/>
<text text-anchor="middle" x="30" y="-143" font-family="Helvetica,sans-Serif" font-size="10.00">Dir</text>
<polyline fill="none" stroke="black" points="-0.368164,-137 60.3682,-137 "/>
<text text-anchor="middle" x="30" y="-125" font-family="Helvetica,sans-Serif" font-size="10.00"> </text>
<polyline fill="none" stroke="black" points="-0.368164,-119 60.3682,-119 "/>
<text text-anchor="start" x="7.63184" y="-107" font-family="Helvetica,sans-Serif" font-size="10.00">+ Dir()</text>
<text text-anchor="start" x="7.63184" y="-97" font-family="Helvetica,sans-Serif" font-size="10.00">+ open()</text>
<text text-anchor="start" x="7.63184" y="-87" font-family="Helvetica,sans-Serif" font-size="10.00">+ close()</text>
<text text-anchor="start" x="7.63184" y="-77" font-family="Helvetica,sans-Serif" font-size="10.00">+ read()</text>
<text text-anchor="start" x="7.63184" y="-67" font-family="Helvetica,sans-Serif" font-size="10.00">+ name()</text>
<text text-anchor="start" x="7.63184" y="-57" font-family="Helvetica,sans-Serif" font-size="10.00">+ ino()</text>
<text text-anchor="start" x="7.63184" y="-47" font-family="Helvetica,sans-Serif" font-size="10.00">+ count()</text>
<text text-anchor="start" x="7.63184" y="-37" font-family="Helvetica,sans-Serif" font-size="10.00">+ rewind()</text>
<text text-anchor="start" x="7.63184" y="-27" font-family="Helvetica,sans-Serif" font-size="10.00">+ seek()</text>
<text text-anchor="start" x="7.63184" y="-17" font-family="Helvetica,sans-Serif" font-size="10.00">+ tell()</text>
<text text-anchor="start" x="7.63184" y="-7" font-family="Helvetica,sans-Serif" font-size="10.00">+ ioctl()</text>
</g>
<!-- Node2 -->
<g id="node2" class="node"><title>Node2</title>
<g id="a_node2"><a xlink:href="class_phy.html" target="_top" xlink:title="Base Applib Class for Physical devices. ">
<polygon fill="none" stroke="black" points="5.46924,-193 5.46924,-287 54.5308,-287 54.5308,-193 5.46924,-193"/>
<text text-anchor="middle" x="30" y="-275" font-family="Helvetica,sans-Serif" font-size="10.00">Phy</text>
<polyline fill="none" stroke="black" points="5.46924,-269 54.5308,-269 "/>
<text text-anchor="middle" x="30" y="-257" font-family="Helvetica,sans-Serif" font-size="10.00"> </text>
<polyline fill="none" stroke="black" points="5.46924,-251 54.5308,-251 "/>
<text text-anchor="start" x="13.4692" y="-239" font-family="Helvetica,sans-Serif" font-size="10.00">+ Phy()</text>
<text text-anchor="start" x="13.4692" y="-229" font-family="Helvetica,sans-Serif" font-size="10.00">+ ioctl()</text>
<text text-anchor="start" x="13.4692" y="-219" font-family="Helvetica,sans-Serif" font-size="10.00">+ ioctl()</text>
<text text-anchor="start" x="13.4692" y="-209" font-family="Helvetica,sans-Serif" font-size="10.00">+ ioctl()</text>
<text text-anchor="start" x="13.4692" y="-199" font-family="Helvetica,sans-Serif" font-size="10.00">+ ioctl()</text>
</a>
</g>
</g>
<!-- Node2&#45;&gt;Node1 -->
<g id="edge1" class="edge"><title>Node2&#45;&gt;Node1</title>
<path fill="none" stroke="midnightblue" d="M30,-182.499C30,-173.598 30,-164.272 30,-155.017"/>
<polygon fill="none" stroke="midnightblue" points="26.5001,-182.721 30,-192.721 33.5001,-182.721 26.5001,-182.721"/>
</g>
</g>
</svg>
