<?xml version="1.0" encoding="UTF-8" standalone="no"?>
<!DOCTYPE svg PUBLIC "-//W3C//DTD SVG 1.1//EN"
 "http://www.w3.org/Graphics/SVG/1.1/DTD/svg11.dtd">
<!-- Generated by graphviz version 2.36.0 (20140111.2315)
 -->
<!-- Title: Uart Pages: 1 -->
<svg width="180pt" height="782pt"
 viewBox="0.00 0.00 180.00 782.00" xmlns="http://www.w3.org/2000/svg" xmlns:xlink="http://www.w3.org/1999/xlink">
<g id="graph0" class="graph" transform="scale(1 1) rotate(0) translate(4 778)">
<title>Uart</title>
<!-- Node1 -->
<g id="node1" class="node"><title>Node1</title>
<polygon fill="#bfbfbf" stroke="black" points="53.2944,-193 53.2944,-327 120.706,-327 120.706,-193 53.2944,-193"/>
<text text-anchor="middle" x="87" y="-315" font-family="Helvetica,sans-Serif" font-size="10.00">Uart</text>
<polyline fill="none" stroke="black" points="53.2944,-309 120.706,-309 "/>
<text text-anchor="middle" x="87" y="-297" font-family="Helvetica,sans-Serif" font-size="10.00"> </text>
<polyline fill="none" stroke="black" points="53.2944,-291 120.706,-291 "/>
<text text-anchor="start" x="61.2944" y="-279" font-family="Helvetica,sans-Serif" font-size="10.00">+ Uart()</text>
<text text-anchor="start" x="61.2944" y="-269" font-family="Helvetica,sans-Serif" font-size="10.00">+ open()</text>
<text text-anchor="start" x="61.2944" y="-259" font-family="Helvetica,sans-Serif" font-size="10.00">+ getattr()</text>
<text text-anchor="start" x="61.2944" y="-249" font-family="Helvetica,sans-Serif" font-size="10.00">+ setattr()</text>
<text text-anchor="start" x="61.2944" y="-239" font-family="Helvetica,sans-Serif" font-size="10.00">+ getbyte()</text>
<text text-anchor="start" x="61.2944" y="-229" font-family="Helvetica,sans-Serif" font-size="10.00">+ flush()</text>
<text text-anchor="start" x="61.2944" y="-219" font-family="Helvetica,sans-Serif" font-size="10.00">+ setattr()</text>
<text text-anchor="start" x="61.2944" y="-209" font-family="Helvetica,sans-Serif" font-size="10.00">+ init()</text>
<text text-anchor="start" x="61.2944" y="-199" font-family="Helvetica,sans-Serif" font-size="10.00">+ getports()</text>
</g>
<!-- Node5 -->
<g id="node5" class="node"><title>Node5</title>
<g id="a_node5"><a xlink:href="class_brsp.html" target="_top" xlink:title="BRSP class (bluetooth low energy serial protocol) ">
<polygon fill="none" stroke="black" points="-0.241211,-1 -0.241211,-155 80.2412,-155 80.2412,-1 -0.241211,-1"/>
<text text-anchor="middle" x="40" y="-143" font-family="Helvetica,sans-Serif" font-size="10.00">Brsp</text>
<polyline fill="none" stroke="black" points="-0.241211,-137 80.2412,-137 "/>
<text text-anchor="middle" x="40" y="-125" font-family="Helvetica,sans-Serif" font-size="10.00"> </text>
<polyline fill="none" stroke="black" points="-0.241211,-119 80.2412,-119 "/>
<text text-anchor="start" x="7.75879" y="-107" font-family="Helvetica,sans-Serif" font-size="10.00">+ Brsp()</text>
<text text-anchor="start" x="7.75879" y="-97" font-family="Helvetica,sans-Serif" font-size="10.00">+ settimeout()</text>
<text text-anchor="start" x="7.75879" y="-87" font-family="Helvetica,sans-Serif" font-size="10.00">+ setuart()</text>
<text text-anchor="start" x="7.75879" y="-77" font-family="Helvetica,sans-Serif" font-size="10.00">+ setmode()</text>
<text text-anchor="start" x="7.75879" y="-67" font-family="Helvetica,sans-Serif" font-size="10.00">+ discover()</text>
<text text-anchor="start" x="7.75879" y="-57" font-family="Helvetica,sans-Serif" font-size="10.00">+ connect()</text>
<text text-anchor="start" x="7.75879" y="-47" font-family="Helvetica,sans-Serif" font-size="10.00">+ disconnect()</text>
<text text-anchor="start" x="7.75879" y="-37" font-family="Helvetica,sans-Serif" font-size="10.00">+ paired()</text>
<text text-anchor="start" x="7.75879" y="-27" font-family="Helvetica,sans-Serif" font-size="10.00">+ name()</text>
<text text-anchor="start" x="7.75879" y="-17" font-family="Helvetica,sans-Serif" font-size="10.00">+ version()</text>
<text text-anchor="start" x="7.75879" y="-7" font-family="Helvetica,sans-Serif" font-size="10.00">and 15 more...</text>
</a>
</g>
</g>
<!-- Node1&#45;&gt;Node5 -->
<g id="edge4" class="edge"><title>Node1&#45;&gt;Node5</title>
<path fill="none" stroke="midnightblue" d="M67.167,-183.044C64.7483,-173.781 62.2763,-164.314 59.8572,-155.049"/>
<polygon fill="none" stroke="midnightblue" points="63.8529,-184.205 69.7658,-192.997 70.6258,-182.437 63.8529,-184.205"/>
</g>
<!-- Node6 -->
<g id="node6" class="node"><title>Node6</title>
<g id="a_node6"><a xlink:href="class_dbug_uart.html" target="_top" xlink:title="Debug UART Class. ">
<polygon fill="none" stroke="black" points="97.9619,-31 97.9619,-125 172.038,-125 172.038,-31 97.9619,-31"/>
<text text-anchor="middle" x="135" y="-113" font-family="Helvetica,sans-Serif" font-size="10.00">DbugUart</text>
<polyline fill="none" stroke="black" points="97.9619,-107 172.038,-107 "/>
<text text-anchor="middle" x="135" y="-95" font-family="Helvetica,sans-Serif" font-size="10.00"> </text>
<polyline fill="none" stroke="black" points="97.9619,-89 172.038,-89 "/>
<text text-anchor="start" x="105.962" y="-77" font-family="Helvetica,sans-Serif" font-size="10.00">+ DbugUart()</text>
<text text-anchor="start" x="105.962" y="-67" font-family="Helvetica,sans-Serif" font-size="10.00">+ open()</text>
<text text-anchor="start" x="105.962" y="-57" font-family="Helvetica,sans-Serif" font-size="10.00">+ close()</text>
<text text-anchor="start" x="105.962" y="-47" font-family="Helvetica,sans-Serif" font-size="10.00">+ read()</text>
<text text-anchor="start" x="105.962" y="-37" font-family="Helvetica,sans-Serif" font-size="10.00">+ write()</text>
</a>
</g>
</g>
<!-- Node1&#45;&gt;Node6 -->
<g id="edge5" class="edge"><title>Node1&#45;&gt;Node6</title>
<path fill="none" stroke="midnightblue" d="M107.242,-183.091C112.506,-163.353 118.017,-142.688 122.728,-125.02"/>
<polygon fill="none" stroke="midnightblue" points="103.796,-182.433 104.601,-192.997 110.559,-184.236 103.796,-182.433"/>
</g>
<!-- Node2 -->
<g id="node2" class="node"><title>Node2</title>
<g id="a_node2"><a xlink:href="class_pchar.html" target="_top" xlink:title="Peripheral Character Class. ">
<polygon fill="none" stroke="black" points="56.627,-365 56.627,-429 117.373,-429 117.373,-365 56.627,-365"/>
<text text-anchor="middle" x="87" y="-417" font-family="Helvetica,sans-Serif" font-size="10.00">Pchar</text>
<polyline fill="none" stroke="black" points="56.627,-411 117.373,-411 "/>
<text text-anchor="middle" x="87" y="-399" font-family="Helvetica,sans-Serif" font-size="10.00"> </text>
<polyline fill="none" stroke="black" points="56.627,-393 117.373,-393 "/>
<text text-anchor="start" x="64.627" y="-381" font-family="Helvetica,sans-Serif" font-size="10.00">+ Pchar()</text>
<text text-anchor="start" x="64.627" y="-371" font-family="Helvetica,sans-Serif" font-size="10.00">+ getline()</text>
</a>
</g>
</g>
<!-- Node2&#45;&gt;Node1 -->
<g id="edge1" class="edge"><title>Node2&#45;&gt;Node1</title>
<path fill="none" stroke="midnightblue" d="M87,-354.462C87,-345.762 87,-336.383 87,-327.042"/>
<polygon fill="none" stroke="midnightblue" points="83.5001,-354.689 87,-364.689 90.5001,-354.689 83.5001,-354.689"/>
</g>
<!-- Node3 -->
<g id="node3" class="node"><title>Node3</title>
<g id="a_node3"><a xlink:href="class_periph.html" target="_top" xlink:title="Peripheral Class. ">
<polygon fill="none" stroke="black" points="49.5396,-467 49.5396,-641 124.46,-641 124.46,-467 49.5396,-467"/>
<text text-anchor="middle" x="87" y="-629" font-family="Helvetica,sans-Serif" font-size="10.00">Periph</text>
<polyline fill="none" stroke="black" points="49.5396,-623 124.46,-623 "/>
<text text-anchor="start" x="57.5396" y="-611" font-family="Helvetica,sans-Serif" font-size="10.00"># port_</text>
<text text-anchor="start" x="57.5396" y="-601" font-family="Helvetica,sans-Serif" font-size="10.00"># fd</text>
<polyline fill="none" stroke="black" points="49.5396,-595 124.46,-595 "/>
<text text-anchor="start" x="57.5396" y="-583" font-family="Helvetica,sans-Serif" font-size="10.00">+ Periph()</text>
<text text-anchor="start" x="57.5396" y="-573" font-family="Helvetica,sans-Serif" font-size="10.00">+ open()</text>
<text text-anchor="start" x="57.5396" y="-563" font-family="Helvetica,sans-Serif" font-size="10.00">+ open()</text>
<text text-anchor="start" x="57.5396" y="-553" font-family="Helvetica,sans-Serif" font-size="10.00">+ setflags()</text>
<text text-anchor="start" x="57.5396" y="-543" font-family="Helvetica,sans-Serif" font-size="10.00">+ read()</text>
<text text-anchor="start" x="57.5396" y="-533" font-family="Helvetica,sans-Serif" font-size="10.00">+ read()</text>
<text text-anchor="start" x="57.5396" y="-523" font-family="Helvetica,sans-Serif" font-size="10.00">+ write()</text>
<text text-anchor="start" x="57.5396" y="-513" font-family="Helvetica,sans-Serif" font-size="10.00">+ readline()</text>
<text text-anchor="start" x="57.5396" y="-503" font-family="Helvetica,sans-Serif" font-size="10.00">+ write()</text>
<text text-anchor="start" x="57.5396" y="-493" font-family="Helvetica,sans-Serif" font-size="10.00">+ write()</text>
<text text-anchor="start" x="57.5396" y="-483" font-family="Helvetica,sans-Serif" font-size="10.00">and 7 more...</text>
<text text-anchor="start" x="57.5396" y="-473" font-family="Helvetica,sans-Serif" font-size="10.00"># _open()</text>
</a>
</g>
</g>
<!-- Node3&#45;&gt;Node2 -->
<g id="edge2" class="edge"><title>Node3&#45;&gt;Node2</title>
<path fill="none" stroke="midnightblue" d="M87,-456.842C87,-446.914 87,-437.421 87,-429.068"/>
<polygon fill="none" stroke="midnightblue" points="83.5001,-456.888 87,-466.888 90.5001,-456.888 83.5001,-456.888"/>
</g>
<!-- Node4 -->
<g id="node4" class="node"><title>Node4</title>
<g id="a_node4"><a xlink:href="class_phy.html" target="_top" xlink:title="Base Applib Class for Physical devices. ">
<polygon fill="none" stroke="black" points="62.4692,-679 62.4692,-773 111.531,-773 111.531,-679 62.4692,-679"/>
<text text-anchor="middle" x="87" y="-761" font-family="Helvetica,sans-Serif" font-size="10.00">Phy</text>
<polyline fill="none" stroke="black" points="62.4692,-755 111.531,-755 "/>
<text text-anchor="middle" x="87" y="-743" font-family="Helvetica,sans-Serif" font-size="10.00"> </text>
<polyline fill="none" stroke="black" points="62.4692,-737 111.531,-737 "/>
<text text-anchor="start" x="70.4692" y="-725" font-family="Helvetica,sans-Serif" font-size="10.00">+ Phy()</text>
<text text-anchor="start" x="70.4692" y="-715" font-family="Helvetica,sans-Serif" font-size="10.00">+ ioctl()</text>
<text text-anchor="start" x="70.4692" y="-705" font-family="Helvetica,sans-Serif" font-size="10.00">+ ioctl()</text>
<text text-anchor="start" x="70.4692" y="-695" font-family="Helvetica,sans-Serif" font-size="10.00">+ ioctl()</text>
<text text-anchor="start" x="70.4692" y="-685" font-family="Helvetica,sans-Serif" font-size="10.00">+ ioctl()</text>
</a>
</g>
</g>
<!-- Node4&#45;&gt;Node3 -->
<g id="edge3" class="edge"><title>Node4&#45;&gt;Node3</title>
<path fill="none" stroke="midnightblue" d="M87,-668.763C87,-659.836 87,-650.428 87,-641.004"/>
<polygon fill="none" stroke="midnightblue" points="83.5001,-668.996 87,-678.996 90.5001,-668.996 83.5001,-668.996"/>
</g>
</g>
</svg>
