<?xml version="1.0" encoding="UTF-8" standalone="no"?>
<!DOCTYPE svg PUBLIC "-//W3C//DTD SVG 1.1//EN"
 "http://www.w3.org/Graphics/SVG/1.1/DTD/svg11.dtd">
<!-- Generated by graphviz version 2.36.0 (20140111.2315)
 -->
<!-- Title: Pblock Pages: 1 -->
<svg width="426pt" height="742pt"
 viewBox="0.00 0.00 426.00 742.00" xmlns="http://www.w3.org/2000/svg" xmlns:xlink="http://www.w3.org/1999/xlink">
<g id="graph0" class="graph" transform="scale(1 1) rotate(0) translate(4 738)">
<title>Pblock</title>
<!-- Node1 -->
<g id="node1" class="node"><title>Node1</title>
<polygon fill="#bfbfbf" stroke="black" points="166.354,-335 166.354,-389 227.646,-389 227.646,-335 166.354,-335"/>
<text text-anchor="middle" x="197" y="-377" font-family="Helvetica,sans-Serif" font-size="10.00">Pblock</text>
<polyline fill="none" stroke="black" points="166.354,-371 227.646,-371 "/>
<text text-anchor="middle" x="197" y="-359" font-family="Helvetica,sans-Serif" font-size="10.00"> </text>
<polyline fill="none" stroke="black" points="166.354,-353 227.646,-353 "/>
<text text-anchor="start" x="174.354" y="-341" font-family="Helvetica,sans-Serif" font-size="10.00">+ Pblock()</text>
</g>
<!-- Node4 -->
<g id="node4" class="node"><title>Node4</title>
<g id="a_node4"><a xlink:href="class_adc.html" target="_top" xlink:title="ADC Peripheral Class. ">
<polygon fill="none" stroke="black" points="-0.705566,-138 -0.705566,-252 66.7056,-252 66.7056,-138 -0.705566,-138"/>
<text text-anchor="middle" x="33" y="-240" font-family="Helvetica,sans-Serif" font-size="10.00">Adc</text>
<polyline fill="none" stroke="black" points="-0.705566,-234 66.7056,-234 "/>
<text text-anchor="middle" x="33" y="-222" font-family="Helvetica,sans-Serif" font-size="10.00"> </text>
<polyline fill="none" stroke="black" points="-0.705566,-216 66.7056,-216 "/>
<text text-anchor="start" x="7.29443" y="-204" font-family="Helvetica,sans-Serif" font-size="10.00">+ Adc()</text>
<text text-anchor="start" x="7.29443" y="-194" font-family="Helvetica,sans-Serif" font-size="10.00">+ open()</text>
<text text-anchor="start" x="7.29443" y="-184" font-family="Helvetica,sans-Serif" font-size="10.00">+ getattr()</text>
<text text-anchor="start" x="7.29443" y="-174" font-family="Helvetica,sans-Serif" font-size="10.00">+ setattr()</text>
<text text-anchor="start" x="7.29443" y="-164" font-family="Helvetica,sans-Serif" font-size="10.00">+ setattr()</text>
<text text-anchor="start" x="7.29443" y="-154" font-family="Helvetica,sans-Serif" font-size="10.00">+ init()</text>
<text text-anchor="start" x="7.29443" y="-144" font-family="Helvetica,sans-Serif" font-size="10.00">+ getports()</text>
</a>
</g>
</g>
<!-- Node1&#45;&gt;Node4 -->
<g id="edge3" class="edge"><title>Node1&#45;&gt;Node4</title>
<path fill="none" stroke="midnightblue" d="M156.621,-348.084C130.673,-338.007 97.8519,-321.7 76,-298 64.0803,-285.072 55.1881,-268.356 48.6819,-252.21"/>
<polygon fill="none" stroke="midnightblue" points="155.599,-351.438 166.192,-351.643 158.039,-344.877 155.599,-351.438"/>
</g>
<!-- Node5 -->
<g id="node5" class="node"><title>Node5</title>
<g id="a_node5"><a xlink:href="class_dac.html" target="_top" xlink:title="DAC Class. ">
<polygon fill="none" stroke="black" points="85.186,-128 85.186,-262 144.814,-262 144.814,-128 85.186,-128"/>
<text text-anchor="middle" x="115" y="-250" font-family="Helvetica,sans-Serif" font-size="10.00">Dac</text>
<polyline fill="none" stroke="black" points="85.186,-244 144.814,-244 "/>
<text text-anchor="middle" x="115" y="-232" font-family="Helvetica,sans-Serif" font-size="10.00"> </text>
<polyline fill="none" stroke="black" points="85.186,-226 144.814,-226 "/>
<text text-anchor="start" x="93.186" y="-214" font-family="Helvetica,sans-Serif" font-size="10.00">+ Dac()</text>
<text text-anchor="start" x="93.186" y="-204" font-family="Helvetica,sans-Serif" font-size="10.00">+ open()</text>
<text text-anchor="start" x="93.186" y="-194" font-family="Helvetica,sans-Serif" font-size="10.00">+ getattr()</text>
<text text-anchor="start" x="93.186" y="-184" font-family="Helvetica,sans-Serif" font-size="10.00">+ setattr()</text>
<text text-anchor="start" x="93.186" y="-174" font-family="Helvetica,sans-Serif" font-size="10.00">+ value()</text>
<text text-anchor="start" x="93.186" y="-164" font-family="Helvetica,sans-Serif" font-size="10.00">+ get()</text>
<text text-anchor="start" x="93.186" y="-154" font-family="Helvetica,sans-Serif" font-size="10.00">+ setattr()</text>
<text text-anchor="start" x="93.186" y="-144" font-family="Helvetica,sans-Serif" font-size="10.00">+ init()</text>
<text text-anchor="start" x="93.186" y="-134" font-family="Helvetica,sans-Serif" font-size="10.00">+ set()</text>
</a>
</g>
</g>
<!-- Node1&#45;&gt;Node5 -->
<g id="edge4" class="edge"><title>Node1&#45;&gt;Node5</title>
<path fill="none" stroke="midnightblue" d="M171.351,-326.533C165.231,-317.505 159.025,-307.603 154,-298 148.067,-286.661 142.552,-274.211 137.646,-262.023"/>
<polygon fill="none" stroke="midnightblue" points="168.571,-328.666 177.15,-334.883 174.32,-324.673 168.571,-328.666"/>
</g>
<!-- Node6 -->
<g id="node6" class="node"><title>Node6</title>
<g id="a_node6"><a xlink:href="class_i2c.html" target="_top" xlink:title="I2C Peripheral Class. ">
<polygon fill="none" stroke="black" points="163.294,-98 163.294,-292 230.706,-292 230.706,-98 163.294,-98"/>
<text text-anchor="middle" x="197" y="-280" font-family="Helvetica,sans-Serif" font-size="10.00">I2c</text>
<polyline fill="none" stroke="black" points="163.294,-274 230.706,-274 "/>
<text text-anchor="middle" x="197" y="-262" font-family="Helvetica,sans-Serif" font-size="10.00"> </text>
<polyline fill="none" stroke="black" points="163.294,-256 230.706,-256 "/>
<text text-anchor="start" x="171.294" y="-244" font-family="Helvetica,sans-Serif" font-size="10.00">+ I2c()</text>
<text text-anchor="start" x="171.294" y="-234" font-family="Helvetica,sans-Serif" font-size="10.00">+ open()</text>
<text text-anchor="start" x="171.294" y="-224" font-family="Helvetica,sans-Serif" font-size="10.00">+ getattr()</text>
<text text-anchor="start" x="171.294" y="-214" font-family="Helvetica,sans-Serif" font-size="10.00">+ setattr()</text>
<text text-anchor="start" x="171.294" y="-204" font-family="Helvetica,sans-Serif" font-size="10.00">+ setup()</text>
<text text-anchor="start" x="171.294" y="-194" font-family="Helvetica,sans-Serif" font-size="10.00">+ geterr()</text>
<text text-anchor="start" x="171.294" y="-184" font-family="Helvetica,sans-Serif" font-size="10.00">+ err()</text>
<text text-anchor="start" x="171.294" y="-174" font-family="Helvetica,sans-Serif" font-size="10.00">+ setup()</text>
<text text-anchor="start" x="171.294" y="-164" font-family="Helvetica,sans-Serif" font-size="10.00">+ setattr()</text>
<text text-anchor="start" x="171.294" y="-154" font-family="Helvetica,sans-Serif" font-size="10.00">+ init()</text>
<text text-anchor="start" x="171.294" y="-144" font-family="Helvetica,sans-Serif" font-size="10.00">+ read()</text>
<text text-anchor="start" x="171.294" y="-134" font-family="Helvetica,sans-Serif" font-size="10.00">+ write()</text>
<text text-anchor="start" x="171.294" y="-124" font-family="Helvetica,sans-Serif" font-size="10.00">+ set()</text>
<text text-anchor="start" x="171.294" y="-114" font-family="Helvetica,sans-Serif" font-size="10.00">+ clear()</text>
<text text-anchor="start" x="171.294" y="-104" font-family="Helvetica,sans-Serif" font-size="10.00">+ getports()</text>
</a>
</g>
</g>
<!-- Node1&#45;&gt;Node6 -->
<g id="edge5" class="edge"><title>Node1&#45;&gt;Node6</title>
<path fill="none" stroke="midnightblue" d="M197,-324.697C197,-314.823 197,-303.646 197,-292.104"/>
<polygon fill="none" stroke="midnightblue" points="193.5,-324.855 197,-334.855 200.5,-324.855 193.5,-324.855"/>
</g>
<!-- Node9 -->
<g id="node9" class="node"><title>Node9</title>
<g id="a_node9"><a xlink:href="class_pwm.html" target="_top" xlink:title="PWM Class. ">
<polygon fill="none" stroke="black" points="248.294,-128 248.294,-262 315.706,-262 315.706,-128 248.294,-128"/>
<text text-anchor="middle" x="282" y="-250" font-family="Helvetica,sans-Serif" font-size="10.00">Pwm</text>
<polyline fill="none" stroke="black" points="248.294,-244 315.706,-244 "/>
<text text-anchor="middle" x="282" y="-232" font-family="Helvetica,sans-Serif" font-size="10.00"> </text>
<polyline fill="none" stroke="black" points="248.294,-226 315.706,-226 "/>
<text text-anchor="start" x="256.294" y="-214" font-family="Helvetica,sans-Serif" font-size="10.00">+ Pwm()</text>
<text text-anchor="start" x="256.294" y="-204" font-family="Helvetica,sans-Serif" font-size="10.00">+ open()</text>
<text text-anchor="start" x="256.294" y="-194" font-family="Helvetica,sans-Serif" font-size="10.00">+ getattr()</text>
<text text-anchor="start" x="256.294" y="-184" font-family="Helvetica,sans-Serif" font-size="10.00">+ setattr()</text>
<text text-anchor="start" x="256.294" y="-174" font-family="Helvetica,sans-Serif" font-size="10.00">+ set()</text>
<text text-anchor="start" x="256.294" y="-164" font-family="Helvetica,sans-Serif" font-size="10.00">+ set()</text>
<text text-anchor="start" x="256.294" y="-154" font-family="Helvetica,sans-Serif" font-size="10.00">+ setattr()</text>
<text text-anchor="start" x="256.294" y="-144" font-family="Helvetica,sans-Serif" font-size="10.00">+ init()</text>
<text text-anchor="start" x="256.294" y="-134" font-family="Helvetica,sans-Serif" font-size="10.00">+ getports()</text>
</a>
</g>
</g>
<!-- Node1&#45;&gt;Node9 -->
<g id="edge8" class="edge"><title>Node1&#45;&gt;Node9</title>
<path fill="none" stroke="midnightblue" d="M221.791,-326.355C227.773,-317.331 233.904,-307.475 239,-298 245.099,-286.66 250.951,-274.27 256.268,-262.155"/>
<polygon fill="none" stroke="midnightblue" points="218.841,-324.469 216.139,-334.714 224.64,-328.391 218.841,-324.469"/>
</g>
<!-- Node10 -->
<g id="node10" class="node"><title>Node10</title>
<g id="a_node10"><a xlink:href="class_usb.html" target="_top" xlink:title="USB Class. ">
<polygon fill="none" stroke="black" points="333.676,-93 333.676,-297 418.324,-297 418.324,-93 333.676,-93"/>
<text text-anchor="middle" x="376" y="-285" font-family="Helvetica,sans-Serif" font-size="10.00">Usb</text>
<polyline fill="none" stroke="black" points="333.676,-279 418.324,-279 "/>
<text text-anchor="middle" x="376" y="-267" font-family="Helvetica,sans-Serif" font-size="10.00"> </text>
<polyline fill="none" stroke="black" points="333.676,-261 418.324,-261 "/>
<text text-anchor="start" x="341.676" y="-249" font-family="Helvetica,sans-Serif" font-size="10.00">+ Usb()</text>
<text text-anchor="start" x="341.676" y="-239" font-family="Helvetica,sans-Serif" font-size="10.00">+ open()</text>
<text text-anchor="start" x="341.676" y="-229" font-family="Helvetica,sans-Serif" font-size="10.00">+ getattr()</text>
<text text-anchor="start" x="341.676" y="-219" font-family="Helvetica,sans-Serif" font-size="10.00">+ setattr()</text>
<text text-anchor="start" x="341.676" y="-209" font-family="Helvetica,sans-Serif" font-size="10.00">+ reset()</text>
<text text-anchor="start" x="341.676" y="-199" font-family="Helvetica,sans-Serif" font-size="10.00">+ attach()</text>
<text text-anchor="start" x="341.676" y="-189" font-family="Helvetica,sans-Serif" font-size="10.00">+ configure()</text>
<text text-anchor="start" x="341.676" y="-179" font-family="Helvetica,sans-Serif" font-size="10.00">+ detach()</text>
<text text-anchor="start" x="341.676" y="-169" font-family="Helvetica,sans-Serif" font-size="10.00">+ disableep()</text>
<text text-anchor="start" x="341.676" y="-159" font-family="Helvetica,sans-Serif" font-size="10.00">+ enableep()</text>
<text text-anchor="start" x="341.676" y="-149" font-family="Helvetica,sans-Serif" font-size="10.00">+ isconnected()</text>
<text text-anchor="start" x="341.676" y="-139" font-family="Helvetica,sans-Serif" font-size="10.00">+ resetep()</text>
<text text-anchor="start" x="341.676" y="-129" font-family="Helvetica,sans-Serif" font-size="10.00">+ setaddr()</text>
<text text-anchor="start" x="341.676" y="-119" font-family="Helvetica,sans-Serif" font-size="10.00">+ stallep()</text>
<text text-anchor="start" x="341.676" y="-109" font-family="Helvetica,sans-Serif" font-size="10.00">+ unstallep()</text>
<text text-anchor="start" x="341.676" y="-99" font-family="Helvetica,sans-Serif" font-size="10.00">+ getports()</text>
</a>
</g>
</g>
<!-- Node1&#45;&gt;Node10 -->
<g id="edge9" class="edge"><title>Node1&#45;&gt;Node10</title>
<path fill="none" stroke="midnightblue" d="M237.392,-348.516C264.584,-338.443 299.766,-321.97 324,-298 327.392,-294.645 330.604,-291.023 333.642,-287.213"/>
<polygon fill="none" stroke="midnightblue" points="236.018,-345.289 227.77,-351.939 238.365,-351.884 236.018,-345.289"/>
</g>
<!-- Node2 -->
<g id="node2" class="node"><title>Node2</title>
<g id="a_node2"><a xlink:href="class_periph.html" target="_top" xlink:title="Peripheral Class. ">
<polygon fill="none" stroke="black" points="159.54,-427 159.54,-601 234.46,-601 234.46,-427 159.54,-427"/>
<text text-anchor="middle" x="197" y="-589" font-family="Helvetica,sans-Serif" font-size="10.00">Periph</text>
<polyline fill="none" stroke="black" points="159.54,-583 234.46,-583 "/>
<text text-anchor="start" x="167.54" y="-571" font-family="Helvetica,sans-Serif" font-size="10.00"># port_</text>
<text text-anchor="start" x="167.54" y="-561" font-family="Helvetica,sans-Serif" font-size="10.00"># fd</text>
<polyline fill="none" stroke="black" points="159.54,-555 234.46,-555 "/>
<text text-anchor="start" x="167.54" y="-543" font-family="Helvetica,sans-Serif" font-size="10.00">+ Periph()</text>
<text text-anchor="start" x="167.54" y="-533" font-family="Helvetica,sans-Serif" font-size="10.00">+ open()</text>
<text text-anchor="start" x="167.54" y="-523" font-family="Helvetica,sans-Serif" font-size="10.00">+ open()</text>
<text text-anchor="start" x="167.54" y="-513" font-family="Helvetica,sans-Serif" font-size="10.00">+ setflags()</text>
<text text-anchor="start" x="167.54" y="-503" font-family="Helvetica,sans-Serif" font-size="10.00">+ read()</text>
<text text-anchor="start" x="167.54" y="-493" font-family="Helvetica,sans-Serif" font-size="10.00">+ read()</text>
<text text-anchor="start" x="167.54" y="-483" font-family="Helvetica,sans-Serif" font-size="10.00">+ write()</text>
<text text-anchor="start" x="167.54" y="-473" font-family="Helvetica,sans-Serif" font-size="10.00">+ readline()</text>
<text text-anchor="start" x="167.54" y="-463" font-family="Helvetica,sans-Serif" font-size="10.00">+ write()</text>
<text text-anchor="start" x="167.54" y="-453" font-family="Helvetica,sans-Serif" font-size="10.00">+ write()</text>
<text text-anchor="start" x="167.54" y="-443" font-family="Helvetica,sans-Serif" font-size="10.00">and 7 more...</text>
<text text-anchor="start" x="167.54" y="-433" font-family="Helvetica,sans-Serif" font-size="10.00"># _open()</text>
</a>
</g>
</g>
<!-- Node2&#45;&gt;Node1 -->
<g id="edge1" class="edge"><title>Node2&#45;&gt;Node1</title>
<path fill="none" stroke="midnightblue" d="M197,-416.483C197,-406.507 197,-397.087 197,-389.013"/>
<polygon fill="none" stroke="midnightblue" points="193.5,-416.613 197,-426.614 200.5,-416.614 193.5,-416.613"/>
</g>
<!-- Node3 -->
<g id="node3" class="node"><title>Node3</title>
<g id="a_node3"><a xlink:href="class_phy.html" target="_top" xlink:title="Base Applib Class for Physical devices. ">
<polygon fill="none" stroke="black" points="172.469,-639 172.469,-733 221.531,-733 221.531,-639 172.469,-639"/>
<text text-anchor="middle" x="197" y="-721" font-family="Helvetica,sans-Serif" font-size="10.00">Phy</text>
<polyline fill="none" stroke="black" points="172.469,-715 221.531,-715 "/>
<text text-anchor="middle" x="197" y="-703" font-family="Helvetica,sans-Serif" font-size="10.00"> </text>
<polyline fill="none" stroke="black" points="172.469,-697 221.531,-697 "/>
<text text-anchor="start" x="180.469" y="-685" font-family="Helvetica,sans-Serif" font-size="10.00">+ Phy()</text>
<text text-anchor="start" x="180.469" y="-675" font-family="Helvetica,sans-Serif" font-size="10.00">+ ioctl()</text>
<text text-anchor="start" x="180.469" y="-665" font-family="Helvetica,sans-Serif" font-size="10.00">+ ioctl()</text>
<text text-anchor="start" x="180.469" y="-655" font-family="Helvetica,sans-Serif" font-size="10.00">+ ioctl()</text>
<text text-anchor="start" x="180.469" y="-645" font-family="Helvetica,sans-Serif" font-size="10.00">+ ioctl()</text>
</a>
</g>
</g>
<!-- Node3&#45;&gt;Node2 -->
<g id="edge2" class="edge"><title>Node3&#45;&gt;Node2</title>
<path fill="none" stroke="midnightblue" d="M197,-628.763C197,-619.836 197,-610.428 197,-601.004"/>
<polygon fill="none" stroke="midnightblue" points="193.5,-628.996 197,-638.996 200.5,-628.996 193.5,-628.996"/>
</g>
<!-- Node7 -->
<g id="node7" class="node"><title>Node7</title>
<g id="a_node7"><a xlink:href="class_i2_c.html" target="_top" xlink:title="I2C Class (alternate class for I2c) ">
<polygon fill="none" stroke="black" points="142.58,-1 142.58,-55 189.42,-55 189.42,-1 142.58,-1"/>
<text text-anchor="middle" x="166" y="-43" font-family="Helvetica,sans-Serif" font-size="10.00">I2C</text>
<polyline fill="none" stroke="black" points="142.58,-37 189.42,-37 "/>
<text text-anchor="middle" x="166" y="-25" font-family="Helvetica,sans-Serif" font-size="10.00"> </text>
<polyline fill="none" stroke="black" points="142.58,-19 189.42,-19 "/>
<text text-anchor="start" x="150.58" y="-7" font-family="Helvetica,sans-Serif" font-size="10.00">+ I2C()</text>
</a>
</g>
</g>
<!-- Node6&#45;&gt;Node7 -->
<g id="edge6" class="edge"><title>Node6&#45;&gt;Node7</title>
<path fill="none" stroke="midnightblue" d="M176.987,-87.4809C174.77,-75.6769 172.687,-64.5916 170.944,-55.3129"/>
<polygon fill="none" stroke="midnightblue" points="173.591,-88.3597 178.877,-97.5414 180.471,-87.0671 173.591,-88.3597"/>
</g>
<!-- Node8 -->
<g id="node8" class="node"><title>Node8</title>
<g id="a_node8"><a xlink:href="class_iic.html" target="_top" xlink:title="IIC Class (alternate class for I2c) ">
<polygon fill="none" stroke="black" points="207.361,-1 207.361,-55 248.639,-55 248.639,-1 207.361,-1"/>
<text text-anchor="middle" x="228" y="-43" font-family="Helvetica,sans-Serif" font-size="10.00">Iic</text>
<polyline fill="none" stroke="black" points="207.361,-37 248.639,-37 "/>
<text text-anchor="middle" x="228" y="-25" font-family="Helvetica,sans-Serif" font-size="10.00"> </text>
<polyline fill="none" stroke="black" points="207.361,-19 248.639,-19 "/>
<text text-anchor="start" x="215.361" y="-7" font-family="Helvetica,sans-Serif" font-size="10.00">+ Iic()</text>
</a>
</g>
</g>
<!-- Node6&#45;&gt;Node8 -->
<g id="edge7" class="edge"><title>Node6&#45;&gt;Node8</title>
<path fill="none" stroke="midnightblue" d="M217.013,-87.4809C219.23,-75.6769 221.313,-64.5916 223.056,-55.3129"/>
<polygon fill="none" stroke="midnightblue" points="213.529,-87.0671 215.123,-97.5414 220.409,-88.3597 213.529,-87.0671"/>
</g>
</g>
</svg>
