<?xml version="1.0" encoding="UTF-8" standalone="no"?>
<!DOCTYPE svg PUBLIC "-//W3C//DTD SVG 1.1//EN"
 "http://www.w3.org/Graphics/SVG/1.1/DTD/svg11.dtd">
<!-- Generated by graphviz version 2.36.0 (20140111.2315)
 -->
<!-- Title: I2c Pages: 1 -->
<svg width="113pt" height="732pt"
 viewBox="0.00 0.00 113.00 732.00" xmlns="http://www.w3.org/2000/svg" xmlns:xlink="http://www.w3.org/1999/xlink">
<g id="graph0" class="graph" transform="scale(1 1) rotate(0) translate(4 728)">
<title>I2c</title>
<!-- Node1 -->
<g id="node1" class="node"><title>Node1</title>
<polygon fill="#bfbfbf" stroke="black" points="20.2944,-93 20.2944,-287 87.7056,-287 87.7056,-93 20.2944,-93"/>
<text text-anchor="middle" x="54" y="-275" font-family="Helvetica,sans-Serif" font-size="10.00">I2c</text>
<polyline fill="none" stroke="black" points="20.2944,-269 87.7056,-269 "/>
<text text-anchor="middle" x="54" y="-257" font-family="Helvetica,sans-Serif" font-size="10.00"> </text>
<polyline fill="none" stroke="black" points="20.2944,-251 87.7056,-251 "/>
<text text-anchor="start" x="28.2944" y="-239" font-family="Helvetica,sans-Serif" font-size="10.00">+ I2c()</text>
<text text-anchor="start" x="28.2944" y="-229" font-family="Helvetica,sans-Serif" font-size="10.00">+ open()</text>
<text text-anchor="start" x="28.2944" y="-219" font-family="Helvetica,sans-Serif" font-size="10.00">+ getattr()</text>
<text text-anchor="start" x="28.2944" y="-209" font-family="Helvetica,sans-Serif" font-size="10.00">+ setattr()</text>
<text text-anchor="start" x="28.2944" y="-199" font-family="Helvetica,sans-Serif" font-size="10.00">+ setup()</text>
<text text-anchor="start" x="28.2944" y="-189" font-family="Helvetica,sans-Serif" font-size="10.00">+ geterr()</text>
<text text-anchor="start" x="28.2944" y="-179" font-family="Helvetica,sans-Serif" font-size="10.00">+ err()</text>
<text text-anchor="start" x="28.2944" y="-169" font-family="Helvetica,sans-Serif" font-size="10.00">+ setup()</text>
<text text-anchor="start" x="28.2944" y="-159" font-family="Helvetica,sans-Serif" font-size="10.00">+ setattr()</text>
<text text-anchor="start" x="28.2944" y="-149" font-family="Helvetica,sans-Serif" font-size="10.00">+ init()</text>
<text text-anchor="start" x="28.2944" y="-139" font-family="Helvetica,sans-Serif" font-size="10.00">+ read()</text>
<text text-anchor="start" x="28.2944" y="-129" font-family="Helvetica,sans-Serif" font-size="10.00">+ write()</text>
<text text-anchor="start" x="28.2944" y="-119" font-family="Helvetica,sans-Serif" font-size="10.00">+ set()</text>
<text text-anchor="start" x="28.2944" y="-109" font-family="Helvetica,sans-Serif" font-size="10.00">+ clear()</text>
<text text-anchor="start" x="28.2944" y="-99" font-family="Helvetica,sans-Serif" font-size="10.00">+ getports()</text>
</g>
<!-- Node5 -->
<g id="node5" class="node"><title>Node5</title>
<g id="a_node5"><a xlink:href="class_i2_c.html" target="_top" xlink:title="I2C Class (alternate class for I2c) ">
<polygon fill="none" stroke="black" points="-0.419922,-1 -0.419922,-55 46.4199,-55 46.4199,-1 -0.419922,-1"/>
<text text-anchor="middle" x="23" y="-43" font-family="Helvetica,sans-Serif" font-size="10.00">I2C</text>
<polyline fill="none" stroke="black" points="-0.419922,-37 46.4199,-37 "/>
<text text-anchor="middle" x="23" y="-25" font-family="Helvetica,sans-Serif" font-size="10.00"> </text>
<polyline fill="none" stroke="black" points="-0.419922,-19 46.4199,-19 "/>
<text text-anchor="start" x="7.58008" y="-7" font-family="Helvetica,sans-Serif" font-size="10.00">+ I2C()</text>
</a>
</g>
</g>
<!-- Node1&#45;&gt;Node5 -->
<g id="edge4" class="edge"><title>Node1&#45;&gt;Node5</title>
<path fill="none" stroke="midnightblue" d="M33.4309,-82.8369C31.4724,-72.7284 29.6352,-63.2461 28.0648,-55.141"/>
<polygon fill="none" stroke="midnightblue" points="30.0028,-83.5443 35.3411,-92.696 36.875,-82.2128 30.0028,-83.5443"/>
</g>
<!-- Node6 -->
<g id="node6" class="node"><title>Node6</title>
<g id="a_node6"><a xlink:href="class_iic.html" target="_top" xlink:title="IIC Class (alternate class for I2c) ">
<polygon fill="none" stroke="black" points="64.3608,-1 64.3608,-55 105.639,-55 105.639,-1 64.3608,-1"/>
<text text-anchor="middle" x="85" y="-43" font-family="Helvetica,sans-Serif" font-size="10.00">Iic</text>
<polyline fill="none" stroke="black" points="64.3608,-37 105.639,-37 "/>
<text text-anchor="middle" x="85" y="-25" font-family="Helvetica,sans-Serif" font-size="10.00"> </text>
<polyline fill="none" stroke="black" points="64.3608,-19 105.639,-19 "/>
<text text-anchor="start" x="72.3608" y="-7" font-family="Helvetica,sans-Serif" font-size="10.00">+ Iic()</text>
</a>
</g>
</g>
<!-- Node1&#45;&gt;Node6 -->
<g id="edge5" class="edge"><title>Node1&#45;&gt;Node6</title>
<path fill="none" stroke="midnightblue" d="M74.5691,-82.8369C76.5276,-72.7284 78.3648,-63.2461 79.9352,-55.141"/>
<polygon fill="none" stroke="midnightblue" points="71.125,-82.2128 72.6589,-92.696 77.9972,-83.5443 71.125,-82.2128"/>
</g>
<!-- Node2 -->
<g id="node2" class="node"><title>Node2</title>
<g id="a_node2"><a xlink:href="class_pblock.html" target="_top" xlink:title="Peripheral Block Class. ">
<polygon fill="none" stroke="black" points="23.3535,-325 23.3535,-379 84.6465,-379 84.6465,-325 23.3535,-325"/>
<text text-anchor="middle" x="54" y="-367" font-family="Helvetica,sans-Serif" font-size="10.00">Pblock</text>
<polyline fill="none" stroke="black" points="23.3535,-361 84.6465,-361 "/>
<text text-anchor="middle" x="54" y="-349" font-family="Helvetica,sans-Serif" font-size="10.00"> </text>
<polyline fill="none" stroke="black" points="23.3535,-343 84.6465,-343 "/>
<text text-anchor="start" x="31.3535" y="-331" font-family="Helvetica,sans-Serif" font-size="10.00">+ Pblock()</text>
</a>
</g>
</g>
<!-- Node2&#45;&gt;Node1 -->
<g id="edge1" class="edge"><title>Node2&#45;&gt;Node1</title>
<path fill="none" stroke="midnightblue" d="M54,-314.801C54,-306.367 54,-296.993 54,-287.285"/>
<polygon fill="none" stroke="midnightblue" points="50.5001,-314.937 54,-324.937 57.5001,-314.937 50.5001,-314.937"/>
</g>
<!-- Node3 -->
<g id="node3" class="node"><title>Node3</title>
<g id="a_node3"><a xlink:href="class_periph.html" target="_top" xlink:title="Peripheral Class. ">
<polygon fill="none" stroke="black" points="16.5396,-417 16.5396,-591 91.4604,-591 91.4604,-417 16.5396,-417"/>
<text text-anchor="middle" x="54" y="-579" font-family="Helvetica,sans-Serif" font-size="10.00">Periph</text>
<polyline fill="none" stroke="black" points="16.5396,-573 91.4604,-573 "/>
<text text-anchor="start" x="24.5396" y="-561" font-family="Helvetica,sans-Serif" font-size="10.00"># port_</text>
<text text-anchor="start" x="24.5396" y="-551" font-family="Helvetica,sans-Serif" font-size="10.00"># fd</text>
<polyline fill="none" stroke="black" points="16.5396,-545 91.4604,-545 "/>
<text text-anchor="start" x="24.5396" y="-533" font-family="Helvetica,sans-Serif" font-size="10.00">+ Periph()</text>
<text text-anchor="start" x="24.5396" y="-523" font-family="Helvetica,sans-Serif" font-size="10.00">+ open()</text>
<text text-anchor="start" x="24.5396" y="-513" font-family="Helvetica,sans-Serif" font-size="10.00">+ open()</text>
<text text-anchor="start" x="24.5396" y="-503" font-family="Helvetica,sans-Serif" font-size="10.00">+ setflags()</text>
<text text-anchor="start" x="24.5396" y="-493" font-family="Helvetica,sans-Serif" font-size="10.00">+ read()</text>
<text text-anchor="start" x="24.5396" y="-483" font-family="Helvetica,sans-Serif" font-size="10.00">+ read()</text>
<text text-anchor="start" x="24.5396" y="-473" font-family="Helvetica,sans-Serif" font-size="10.00">+ write()</text>
<text text-anchor="start" x="24.5396" y="-463" font-family="Helvetica,sans-Serif" font-size="10.00">+ readline()</text>
<text text-anchor="start" x="24.5396" y="-453" font-family="Helvetica,sans-Serif" font-size="10.00">+ write()</text>
<text text-anchor="start" x="24.5396" y="-443" font-family="Helvetica,sans-Serif" font-size="10.00">+ write()</text>
<text text-anchor="start" x="24.5396" y="-433" font-family="Helvetica,sans-Serif" font-size="10.00">and 7 more...</text>
<text text-anchor="start" x="24.5396" y="-423" font-family="Helvetica,sans-Serif" font-size="10.00"># _open()</text>
</a>
</g>
</g>
<!-- Node3&#45;&gt;Node2 -->
<g id="edge2" class="edge"><title>Node3&#45;&gt;Node2</title>
<path fill="none" stroke="midnightblue" d="M54,-406.483C54,-396.507 54,-387.087 54,-379.013"/>
<polygon fill="none" stroke="midnightblue" points="50.5001,-406.613 54,-416.614 57.5001,-406.614 50.5001,-406.613"/>
</g>
<!-- Node4 -->
<g id="node4" class="node"><title>Node4</title>
<g id="a_node4"><a xlink:href="class_phy.html" target="_top" xlink:title="Base Applib Class for Physical devices. ">
<polygon fill="none" stroke="black" points="29.4692,-629 29.4692,-723 78.5308,-723 78.5308,-629 29.4692,-629"/>
<text text-anchor="middle" x="54" y="-711" font-family="Helvetica,sans-Serif" font-size="10.00">Phy</text>
<polyline fill="none" stroke="black" points="29.4692,-705 78.5308,-705 "/>
<text text-anchor="middle" x="54" y="-693" font-family="Helvetica,sans-Serif" font-size="10.00"> </text>
<polyline fill="none" stroke="black" points="29.4692,-687 78.5308,-687 "/>
<text text-anchor="start" x="37.4692" y="-675" font-family="Helvetica,sans-Serif" font-size="10.00">+ Phy()</text>
<text text-anchor="start" x="37.4692" y="-665" font-family="Helvetica,sans-Serif" font-size="10.00">+ ioctl()</text>
<text text-anchor="start" x="37.4692" y="-655" font-family="Helvetica,sans-Serif" font-size="10.00">+ ioctl()</text>
<text text-anchor="start" x="37.4692" y="-645" font-family="Helvetica,sans-Serif" font-size="10.00">+ ioctl()</text>
<text text-anchor="start" x="37.4692" y="-635" font-family="Helvetica,sans-Serif" font-size="10.00">+ ioctl()</text>
</a>
</g>
</g>
<!-- Node4&#45;&gt;Node3 -->
<g id="edge3" class="edge"><title>Node4&#45;&gt;Node3</title>
<path fill="none" stroke="midnightblue" d="M54,-618.763C54,-609.836 54,-600.428 54,-591.004"/>
<polygon fill="none" stroke="midnightblue" points="50.5001,-618.996 54,-628.996 57.5001,-618.996 50.5001,-618.996"/>
</g>
</g>
</svg>
