<?xml version="1.0" encoding="UTF-8" standalone="no"?>
<!DOCTYPE svg PUBLIC "-//W3C//DTD SVG 1.1//EN"
 "http://www.w3.org/Graphics/SVG/1.1/DTD/svg11.dtd">
<!-- Generated by graphviz version 2.36.0 (20140111.2315)
 -->
<!-- Title: Phy Pages: 1 -->
<svg width="744pt" height="740pt"
 viewBox="0.00 0.00 744.00 740.00" xmlns="http://www.w3.org/2000/svg" xmlns:xlink="http://www.w3.org/1999/xlink">
<g id="graph0" class="graph" transform="scale(1 1) rotate(0) translate(4 736)">
<title>Phy</title>
<!-- Node1 -->
<g id="node1" class="node"><title>Node1</title>
<polygon fill="#bfbfbf" stroke="black" points="103.469,-637 103.469,-731 152.531,-731 152.531,-637 103.469,-637"/>
<text text-anchor="middle" x="128" y="-719" font-family="Helvetica,sans-Serif" font-size="10.00">Phy</text>
<polyline fill="none" stroke="black" points="103.469,-713 152.531,-713 "/>
<text text-anchor="middle" x="128" y="-701" font-family="Helvetica,sans-Serif" font-size="10.00"> </text>
<polyline fill="none" stroke="black" points="103.469,-695 152.531,-695 "/>
<text text-anchor="start" x="111.469" y="-683" font-family="Helvetica,sans-Serif" font-size="10.00">+ Phy()</text>
<text text-anchor="start" x="111.469" y="-673" font-family="Helvetica,sans-Serif" font-size="10.00">+ ioctl()</text>
<text text-anchor="start" x="111.469" y="-663" font-family="Helvetica,sans-Serif" font-size="10.00">+ ioctl()</text>
<text text-anchor="start" x="111.469" y="-653" font-family="Helvetica,sans-Serif" font-size="10.00">+ ioctl()</text>
<text text-anchor="start" x="111.469" y="-643" font-family="Helvetica,sans-Serif" font-size="10.00">+ ioctl()</text>
</g>
<!-- Node2 -->
<g id="node2" class="node"><title>Node2</title>
<g id="a_node2"><a xlink:href="class_dir.html" target="_top" xlink:title="Dir class. ">
<polygon fill="none" stroke="black" points="-0.368164,-425 -0.368164,-579 60.3682,-579 60.3682,-425 -0.368164,-425"/>
<text text-anchor="middle" x="30" y="-567" font-family="Helvetica,sans-Serif" font-size="10.00">Dir</text>
<polyline fill="none" stroke="black" points="-0.368164,-561 60.3682,-561 "/>
<text text-anchor="middle" x="30" y="-549" font-family="Helvetica,sans-Serif" font-size="10.00"> </text>
<polyline fill="none" stroke="black" points="-0.368164,-543 60.3682,-543 "/>
<text text-anchor="start" x="7.63184" y="-531" font-family="Helvetica,sans-Serif" font-size="10.00">+ Dir()</text>
<text text-anchor="start" x="7.63184" y="-521" font-family="Helvetica,sans-Serif" font-size="10.00">+ open()</text>
<text text-anchor="start" x="7.63184" y="-511" font-family="Helvetica,sans-Serif" font-size="10.00">+ close()</text>
<text text-anchor="start" x="7.63184" y="-501" font-family="Helvetica,sans-Serif" font-size="10.00">+ read()</text>
<text text-anchor="start" x="7.63184" y="-491" font-family="Helvetica,sans-Serif" font-size="10.00">+ name()</text>
<text text-anchor="start" x="7.63184" y="-481" font-family="Helvetica,sans-Serif" font-size="10.00">+ ino()</text>
<text text-anchor="start" x="7.63184" y="-471" font-family="Helvetica,sans-Serif" font-size="10.00">+ count()</text>
<text text-anchor="start" x="7.63184" y="-461" font-family="Helvetica,sans-Serif" font-size="10.00">+ rewind()</text>
<text text-anchor="start" x="7.63184" y="-451" font-family="Helvetica,sans-Serif" font-size="10.00">+ seek()</text>
<text text-anchor="start" x="7.63184" y="-441" font-family="Helvetica,sans-Serif" font-size="10.00">+ tell()</text>
<text text-anchor="start" x="7.63184" y="-431" font-family="Helvetica,sans-Serif" font-size="10.00">+ ioctl()</text>
</a>
</g>
</g>
<!-- Node1&#45;&gt;Node2 -->
<g id="edge1" class="edge"><title>Node1&#45;&gt;Node2</title>
<path fill="none" stroke="midnightblue" d="M97.2246,-643.741C87.4838,-630.309 77.1441,-614.903 69,-600 65.3444,-593.31 61.8386,-586.205 58.5317,-579"/>
<polygon fill="none" stroke="midnightblue" points="94.4355,-645.856 103.187,-651.828 100.07,-641.702 94.4355,-645.856"/>
</g>
<!-- Node3 -->
<g id="node3" class="node"><title>Node3</title>
<g id="a_node3"><a xlink:href="class_file.html" target="_top" xlink:title="File Class. ">
<polygon fill="none" stroke="black" points="77.8931,-405 77.8931,-599 178.107,-599 178.107,-405 77.8931,-405"/>
<text text-anchor="middle" x="128" y="-587" font-family="Helvetica,sans-Serif" font-size="10.00">File</text>
<polyline fill="none" stroke="black" points="77.8931,-581 178.107,-581 "/>
<text text-anchor="middle" x="128" y="-569" font-family="Helvetica,sans-Serif" font-size="10.00"> </text>
<polyline fill="none" stroke="black" points="77.8931,-563 178.107,-563 "/>
<text text-anchor="start" x="85.8931" y="-551" font-family="Helvetica,sans-Serif" font-size="10.00">+ File()</text>
<text text-anchor="start" x="85.8931" y="-541" font-family="Helvetica,sans-Serif" font-size="10.00">+ open()</text>
<text text-anchor="start" x="85.8931" y="-531" font-family="Helvetica,sans-Serif" font-size="10.00">+ open_readwrite()</text>
<text text-anchor="start" x="85.8931" y="-521" font-family="Helvetica,sans-Serif" font-size="10.00">+ open_readonly()</text>
<text text-anchor="start" x="85.8931" y="-511" font-family="Helvetica,sans-Serif" font-size="10.00">+ create()</text>
<text text-anchor="start" x="85.8931" y="-501" font-family="Helvetica,sans-Serif" font-size="10.00">+ read()</text>
<text text-anchor="start" x="85.8931" y="-491" font-family="Helvetica,sans-Serif" font-size="10.00">+ read()</text>
<text text-anchor="start" x="85.8931" y="-481" font-family="Helvetica,sans-Serif" font-size="10.00">+ write()</text>
<text text-anchor="start" x="85.8931" y="-471" font-family="Helvetica,sans-Serif" font-size="10.00">+ write()</text>
<text text-anchor="start" x="85.8931" y="-461" font-family="Helvetica,sans-Serif" font-size="10.00">+ seek()</text>
<text text-anchor="start" x="85.8931" y="-451" font-family="Helvetica,sans-Serif" font-size="10.00">and 9 more...</text>
<text text-anchor="start" x="85.8931" y="-441" font-family="Helvetica,sans-Serif" font-size="10.00">+ remove()</text>
<text text-anchor="start" x="85.8931" y="-431" font-family="Helvetica,sans-Serif" font-size="10.00">+ stat()</text>
<text text-anchor="start" x="85.8931" y="-421" font-family="Helvetica,sans-Serif" font-size="10.00">+ stat()</text>
<text text-anchor="start" x="85.8931" y="-411" font-family="Helvetica,sans-Serif" font-size="10.00">+ size()</text>
</a>
</g>
</g>
<!-- Node1&#45;&gt;Node3 -->
<g id="edge2" class="edge"><title>Node1&#45;&gt;Node3</title>
<path fill="none" stroke="midnightblue" d="M128,-626.613C128,-617.852 128,-608.595 128,-599.247"/>
<polygon fill="none" stroke="midnightblue" points="124.5,-626.645 128,-636.646 131.5,-626.646 124.5,-626.645"/>
</g>
<!-- Node6 -->
<g id="node6" class="node"><title>Node6</title>
<g id="a_node6"><a xlink:href="class_periph.html" target="_top" xlink:title="Peripheral Class. ">
<polygon fill="none" stroke="black" points="393.54,-415 393.54,-589 468.46,-589 468.46,-415 393.54,-415"/>
<text text-anchor="middle" x="431" y="-577" font-family="Helvetica,sans-Serif" font-size="10.00">Periph</text>
<polyline fill="none" stroke="black" points="393.54,-571 468.46,-571 "/>
<text text-anchor="start" x="401.54" y="-559" font-family="Helvetica,sans-Serif" font-size="10.00"># port_</text>
<text text-anchor="start" x="401.54" y="-549" font-family="Helvetica,sans-Serif" font-size="10.00"># fd</text>
<polyline fill="none" stroke="black" points="393.54,-543 468.46,-543 "/>
<text text-anchor="start" x="401.54" y="-531" font-family="Helvetica,sans-Serif" font-size="10.00">+ Periph()</text>
<text text-anchor="start" x="401.54" y="-521" font-family="Helvetica,sans-Serif" font-size="10.00">+ open()</text>
<text text-anchor="start" x="401.54" y="-511" font-family="Helvetica,sans-Serif" font-size="10.00">+ open()</text>
<text text-anchor="start" x="401.54" y="-501" font-family="Helvetica,sans-Serif" font-size="10.00">+ setflags()</text>
<text text-anchor="start" x="401.54" y="-491" font-family="Helvetica,sans-Serif" font-size="10.00">+ read()</text>
<text text-anchor="start" x="401.54" y="-481" font-family="Helvetica,sans-Serif" font-size="10.00">+ read()</text>
<text text-anchor="start" x="401.54" y="-471" font-family="Helvetica,sans-Serif" font-size="10.00">+ write()</text>
<text text-anchor="start" x="401.54" y="-461" font-family="Helvetica,sans-Serif" font-size="10.00">+ readline()</text>
<text text-anchor="start" x="401.54" y="-451" font-family="Helvetica,sans-Serif" font-size="10.00">+ write()</text>
<text text-anchor="start" x="401.54" y="-441" font-family="Helvetica,sans-Serif" font-size="10.00">+ write()</text>
<text text-anchor="start" x="401.54" y="-431" font-family="Helvetica,sans-Serif" font-size="10.00">and 7 more...</text>
<text text-anchor="start" x="401.54" y="-421" font-family="Helvetica,sans-Serif" font-size="10.00"># _open()</text>
</a>
</g>
</g>
<!-- Node1&#45;&gt;Node6 -->
<g id="edge5" class="edge"><title>Node1&#45;&gt;Node6</title>
<path fill="none" stroke="midnightblue" d="M161.139,-663.313C217.985,-629.543 333.72,-560.79 393.458,-525.302"/>
<polygon fill="none" stroke="midnightblue" points="159.349,-660.306 152.539,-668.422 162.924,-666.324 159.349,-660.306"/>
</g>
<!-- Node4 -->
<g id="node4" class="node"><title>Node4</title>
<g id="a_node4"><a xlink:href="class_rle_file.html" target="_top" xlink:title="Class for reading/writing compressed file data. ">
<polygon fill="none" stroke="black" points="17.8042,-238 17.8042,-302 70.1958,-302 70.1958,-238 17.8042,-238"/>
<text text-anchor="middle" x="44" y="-290" font-family="Helvetica,sans-Serif" font-size="10.00">RleFile</text>
<polyline fill="none" stroke="black" points="17.8042,-284 70.1958,-284 "/>
<text text-anchor="middle" x="44" y="-272" font-family="Helvetica,sans-Serif" font-size="10.00"> </text>
<polyline fill="none" stroke="black" points="17.8042,-266 70.1958,-266 "/>
<text text-anchor="start" x="25.8042" y="-254" font-family="Helvetica,sans-Serif" font-size="10.00">+ write()</text>
<text text-anchor="start" x="25.8042" y="-244" font-family="Helvetica,sans-Serif" font-size="10.00">+ read()</text>
</a>
</g>
</g>
<!-- Node3&#45;&gt;Node4 -->
<g id="edge3" class="edge"><title>Node3&#45;&gt;Node4</title>
<path fill="none" stroke="midnightblue" d="M88.9458,-395.194C85.5742,-385.999 82.222,-376.837 79,-368 70.966,-345.966 61.9894,-321.082 55.1385,-302.035"/>
<polygon fill="none" stroke="midnightblue" points="85.7309,-396.593 92.4619,-404.775 92.3024,-394.181 85.7309,-396.593"/>
</g>
<!-- Node5 -->
<g id="node5" class="node"><title>Node5</title>
<g id="a_node5"><a xlink:href="class_xml.html" target="_top" xlink:title="XML Class. ">
<polygon fill="none" stroke="black" points="87.7588,-193 87.7588,-347 168.241,-347 168.241,-193 87.7588,-193"/>
<text text-anchor="middle" x="128" y="-335" font-family="Helvetica,sans-Serif" font-size="10.00">Xml</text>
<polyline fill="none" stroke="black" points="87.7588,-329 168.241,-329 "/>
<text text-anchor="middle" x="128" y="-317" font-family="Helvetica,sans-Serif" font-size="10.00"> </text>
<polyline fill="none" stroke="black" points="87.7588,-311 168.241,-311 "/>
<text text-anchor="start" x="95.7588" y="-299" font-family="Helvetica,sans-Serif" font-size="10.00">+ Xml()</text>
<text text-anchor="start" x="95.7588" y="-289" font-family="Helvetica,sans-Serif" font-size="10.00">+ Xml()</text>
<text text-anchor="start" x="95.7588" y="-279" font-family="Helvetica,sans-Serif" font-size="10.00">+ init()</text>
<text text-anchor="start" x="95.7588" y="-269" font-family="Helvetica,sans-Serif" font-size="10.00">+ close()</text>
<text text-anchor="start" x="95.7588" y="-259" font-family="Helvetica,sans-Serif" font-size="10.00">+ exit()</text>
<text text-anchor="start" x="95.7588" y="-249" font-family="Helvetica,sans-Serif" font-size="10.00">+ value()</text>
<text text-anchor="start" x="95.7588" y="-239" font-family="Helvetica,sans-Serif" font-size="10.00">+ value()</text>
<text text-anchor="start" x="95.7588" y="-229" font-family="Helvetica,sans-Serif" font-size="10.00">+ setvalue()</text>
<text text-anchor="start" x="95.7588" y="-219" font-family="Helvetica,sans-Serif" font-size="10.00">+ setvalue()</text>
<text text-anchor="start" x="95.7588" y="-209" font-family="Helvetica,sans-Serif" font-size="10.00">+ find()</text>
<text text-anchor="start" x="95.7588" y="-199" font-family="Helvetica,sans-Serif" font-size="10.00">and 16 more...</text>
</a>
</g>
</g>
<!-- Node3&#45;&gt;Node5 -->
<g id="edge4" class="edge"><title>Node3&#45;&gt;Node5</title>
<path fill="none" stroke="midnightblue" d="M128,-394.383C128,-378.478 128,-362.357 128,-347.247"/>
<polygon fill="none" stroke="midnightblue" points="124.5,-394.792 128,-404.792 131.5,-394.792 124.5,-394.792"/>
</g>
<!-- Node7 -->
<g id="node7" class="node"><title>Node7</title>
<g id="a_node7"><a xlink:href="class_core.html" target="_top" xlink:title="Core Class. ">
<polygon fill="none" stroke="black" points="186.277,-188 186.277,-352 293.723,-352 293.723,-188 186.277,-188"/>
<text text-anchor="middle" x="240" y="-340" font-family="Helvetica,sans-Serif" font-size="10.00">Core</text>
<polyline fill="none" stroke="black" points="186.277,-334 293.723,-334 "/>
<text text-anchor="middle" x="240" y="-322" font-family="Helvetica,sans-Serif" font-size="10.00"> </text>
<polyline fill="none" stroke="black" points="186.277,-316 293.723,-316 "/>
<text text-anchor="start" x="194.277" y="-304" font-family="Helvetica,sans-Serif" font-size="10.00">+ Core()</text>
<text text-anchor="start" x="194.277" y="-294" font-family="Helvetica,sans-Serif" font-size="10.00">+ open()</text>
<text text-anchor="start" x="194.277" y="-284" font-family="Helvetica,sans-Serif" font-size="10.00">+ getattr()</text>
<text text-anchor="start" x="194.277" y="-274" font-family="Helvetica,sans-Serif" font-size="10.00">+ setattr()</text>
<text text-anchor="start" x="194.277" y="-264" font-family="Helvetica,sans-Serif" font-size="10.00">+ setpinfunc()</text>
<text text-anchor="start" x="194.277" y="-254" font-family="Helvetica,sans-Serif" font-size="10.00">+ sleep()</text>
<text text-anchor="start" x="194.277" y="-244" font-family="Helvetica,sans-Serif" font-size="10.00">+ reset()</text>
<text text-anchor="start" x="194.277" y="-234" font-family="Helvetica,sans-Serif" font-size="10.00">+ invokebootloader()</text>
<text text-anchor="start" x="194.277" y="-224" font-family="Helvetica,sans-Serif" font-size="10.00">+ setirqprio()</text>
<text text-anchor="start" x="194.277" y="-214" font-family="Helvetica,sans-Serif" font-size="10.00">+ setirqprio()</text>
<text text-anchor="start" x="194.277" y="-204" font-family="Helvetica,sans-Serif" font-size="10.00">+ setclkout()</text>
<text text-anchor="start" x="194.277" y="-194" font-family="Helvetica,sans-Serif" font-size="10.00">+ getports()</text>
</a>
</g>
</g>
<!-- Node6&#45;&gt;Node7 -->
<g id="edge6" class="edge"><title>Node6&#45;&gt;Node7</title>
<path fill="none" stroke="midnightblue" d="M385.864,-458.912C359.968,-433.71 327.616,-400.371 302,-368 297.969,-362.906 293.963,-357.543 290.039,-352.06"/>
<polygon fill="none" stroke="midnightblue" points="383.708,-461.696 393.331,-466.128 388.572,-456.662 383.708,-461.696"/>
</g>
<!-- Node8 -->
<g id="node8" class="node"><title>Node8</title>
<g id="a_node8"><a xlink:href="class_eint.html" target="_top" xlink:title="External Interrupt Class. ">
<polygon fill="none" stroke="black" points="311.349,-193 311.349,-347 382.651,-347 382.651,-193 311.349,-193"/>
<text text-anchor="middle" x="347" y="-335" font-family="Helvetica,sans-Serif" font-size="10.00">Eint</text>
<polyline fill="none" stroke="black" points="311.349,-329 382.651,-329 "/>
<text text-anchor="middle" x="347" y="-317" font-family="Helvetica,sans-Serif" font-size="10.00"> </text>
<polyline fill="none" stroke="black" points="311.349,-311 382.651,-311 "/>
<text text-anchor="start" x="319.349" y="-299" font-family="Helvetica,sans-Serif" font-size="10.00">+ Eint()</text>
<text text-anchor="start" x="319.349" y="-289" font-family="Helvetica,sans-Serif" font-size="10.00">+ open()</text>
<text text-anchor="start" x="319.349" y="-279" font-family="Helvetica,sans-Serif" font-size="10.00">+ getattr()</text>
<text text-anchor="start" x="319.349" y="-269" font-family="Helvetica,sans-Serif" font-size="10.00">+ setattr()</text>
<text text-anchor="start" x="319.349" y="-259" font-family="Helvetica,sans-Serif" font-size="10.00">+ setaction()</text>
<text text-anchor="start" x="319.349" y="-249" font-family="Helvetica,sans-Serif" font-size="10.00">+ value()</text>
<text text-anchor="start" x="319.349" y="-239" font-family="Helvetica,sans-Serif" font-size="10.00">+ get()</text>
<text text-anchor="start" x="319.349" y="-229" font-family="Helvetica,sans-Serif" font-size="10.00">+ setaction()</text>
<text text-anchor="start" x="319.349" y="-219" font-family="Helvetica,sans-Serif" font-size="10.00">+ setattr()</text>
<text text-anchor="start" x="319.349" y="-209" font-family="Helvetica,sans-Serif" font-size="10.00">+ init()</text>
<text text-anchor="start" x="319.349" y="-199" font-family="Helvetica,sans-Serif" font-size="10.00">+ getports()</text>
</a>
</g>
</g>
<!-- Node6&#45;&gt;Node8 -->
<g id="edge7" class="edge"><title>Node6&#45;&gt;Node8</title>
<path fill="none" stroke="midnightblue" d="M396.036,-405.265C388.963,-385.898 381.615,-365.78 374.828,-347.195"/>
<polygon fill="none" stroke="midnightblue" points="392.764,-406.51 399.483,-414.702 399.34,-404.108 392.764,-406.51"/>
</g>
<!-- Node9 -->
<g id="node9" class="node"><title>Node9</title>
<g id="a_node9"><a xlink:href="class_pblock.html" target="_top" xlink:title="Peripheral Block Class. ">
<polygon fill="none" stroke="red" points="400.354,-243 400.354,-297 461.646,-297 461.646,-243 400.354,-243"/>
<text text-anchor="middle" x="431" y="-285" font-family="Helvetica,sans-Serif" font-size="10.00">Pblock</text>
<polyline fill="none" stroke="red" points="400.354,-279 461.646,-279 "/>
<text text-anchor="middle" x="431" y="-267" font-family="Helvetica,sans-Serif" font-size="10.00"> </text>
<polyline fill="none" stroke="red" points="400.354,-261 461.646,-261 "/>
<text text-anchor="start" x="408.354" y="-249" font-family="Helvetica,sans-Serif" font-size="10.00">+ Pblock()</text>
</a>
</g>
</g>
<!-- Node6&#45;&gt;Node9 -->
<g id="edge8" class="edge"><title>Node6&#45;&gt;Node9</title>
<path fill="none" stroke="midnightblue" d="M431,-404.317C431,-365.272 431,-323.335 431,-297.139"/>
<polygon fill="none" stroke="midnightblue" points="427.5,-404.702 431,-414.702 434.5,-404.702 427.5,-404.702"/>
</g>
<!-- Node12 -->
<g id="node12" class="node"><title>Node12</title>
<g id="a_node12"><a xlink:href="class_pchar.html" target="_top" xlink:title="Peripheral Character Class. ">
<polygon fill="none" stroke="red" points="479.627,-238 479.627,-302 540.373,-302 540.373,-238 479.627,-238"/>
<text text-anchor="middle" x="510" y="-290" font-family="Helvetica,sans-Serif" font-size="10.00">Pchar</text>
<polyline fill="none" stroke="red" points="479.627,-284 540.373,-284 "/>
<text text-anchor="middle" x="510" y="-272" font-family="Helvetica,sans-Serif" font-size="10.00"> </text>
<polyline fill="none" stroke="red" points="479.627,-266 540.373,-266 "/>
<text text-anchor="start" x="487.627" y="-254" font-family="Helvetica,sans-Serif" font-size="10.00">+ Pchar()</text>
<text text-anchor="start" x="487.627" y="-244" font-family="Helvetica,sans-Serif" font-size="10.00">+ getline()</text>
</a>
</g>
</g>
<!-- Node6&#45;&gt;Node12 -->
<g id="edge11" class="edge"><title>Node6&#45;&gt;Node12</title>
<path fill="none" stroke="midnightblue" d="M464.011,-404.891C476.677,-368.016 490.258,-328.476 499.351,-302.002"/>
<polygon fill="none" stroke="midnightblue" points="460.58,-404.107 460.641,-414.702 467.2,-406.381 460.58,-404.107"/>
</g>
<!-- Node13 -->
<g id="node13" class="node"><title>Node13</title>
<g id="a_node13"><a xlink:href="class_pio.html" target="_top" xlink:title="Pin Input/Output Class. ">
<polygon fill="none" stroke="red" points="558.79,-173 558.79,-367 631.21,-367 631.21,-173 558.79,-173"/>
<text text-anchor="middle" x="595" y="-355" font-family="Helvetica,sans-Serif" font-size="10.00">Pio</text>
<polyline fill="none" stroke="red" points="558.79,-349 631.21,-349 "/>
<text text-anchor="middle" x="595" y="-337" font-family="Helvetica,sans-Serif" font-size="10.00"> </text>
<polyline fill="none" stroke="red" points="558.79,-331 631.21,-331 "/>
<text text-anchor="start" x="566.79" y="-319" font-family="Helvetica,sans-Serif" font-size="10.00">+ Pio()</text>
<text text-anchor="start" x="566.79" y="-309" font-family="Helvetica,sans-Serif" font-size="10.00">+ open()</text>
<text text-anchor="start" x="566.79" y="-299" font-family="Helvetica,sans-Serif" font-size="10.00">+ getattr()</text>
<text text-anchor="start" x="566.79" y="-289" font-family="Helvetica,sans-Serif" font-size="10.00">+ setattr()</text>
<text text-anchor="start" x="566.79" y="-279" font-family="Helvetica,sans-Serif" font-size="10.00">+ setaction()</text>
<text text-anchor="start" x="566.79" y="-269" font-family="Helvetica,sans-Serif" font-size="10.00">+ setmask()</text>
<text text-anchor="start" x="566.79" y="-259" font-family="Helvetica,sans-Serif" font-size="10.00">+ clrmask()</text>
<text text-anchor="start" x="566.79" y="-249" font-family="Helvetica,sans-Serif" font-size="10.00">+ get()</text>
<text text-anchor="start" x="566.79" y="-239" font-family="Helvetica,sans-Serif" font-size="10.00">+ value()</text>
<text text-anchor="start" x="566.79" y="-229" font-family="Helvetica,sans-Serif" font-size="10.00">+ set()</text>
<text text-anchor="start" x="566.79" y="-219" font-family="Helvetica,sans-Serif" font-size="10.00">+ setattr()</text>
<text text-anchor="start" x="566.79" y="-209" font-family="Helvetica,sans-Serif" font-size="10.00">+ init()</text>
<text text-anchor="start" x="566.79" y="-199" font-family="Helvetica,sans-Serif" font-size="10.00">+ setoutput()</text>
<text text-anchor="start" x="566.79" y="-189" font-family="Helvetica,sans-Serif" font-size="10.00">+ setinput()</text>
<text text-anchor="start" x="566.79" y="-179" font-family="Helvetica,sans-Serif" font-size="10.00">+ getports()</text>
</a>
</g>
</g>
<!-- Node6&#45;&gt;Node13 -->
<g id="edge12" class="edge"><title>Node6&#45;&gt;Node13</title>
<path fill="none" stroke="midnightblue" d="M475.836,-456.943C499.471,-432.21 527.861,-399.967 549,-368 552.341,-362.947 555.575,-357.614 558.676,-352.154"/>
<polygon fill="none" stroke="midnightblue" points="473.094,-454.743 468.667,-464.368 478.13,-459.605 473.094,-454.743"/>
</g>
<!-- Node14 -->
<g id="node14" class="node"><title>Node14</title>
<g id="a_node14"><a xlink:href="class_rtc.html" target="_top" xlink:title="RTC Class. ">
<polygon fill="none" stroke="black" points="649.014,-193 649.014,-347 736.986,-347 736.986,-193 649.014,-193"/>
<text text-anchor="middle" x="693" y="-335" font-family="Helvetica,sans-Serif" font-size="10.00">Rtc</text>
<polyline fill="none" stroke="black" points="649.014,-329 736.986,-329 "/>
<text text-anchor="middle" x="693" y="-317" font-family="Helvetica,sans-Serif" font-size="10.00"> </text>
<polyline fill="none" stroke="black" points="649.014,-311 736.986,-311 "/>
<text text-anchor="start" x="657.014" y="-299" font-family="Helvetica,sans-Serif" font-size="10.00">+ Rtc()</text>
<text text-anchor="start" x="657.014" y="-289" font-family="Helvetica,sans-Serif" font-size="10.00">+ open()</text>
<text text-anchor="start" x="657.014" y="-279" font-family="Helvetica,sans-Serif" font-size="10.00">+ getattr()</text>
<text text-anchor="start" x="657.014" y="-269" font-family="Helvetica,sans-Serif" font-size="10.00">+ setattr()</text>
<text text-anchor="start" x="657.014" y="-259" font-family="Helvetica,sans-Serif" font-size="10.00">+ setaction()</text>
<text text-anchor="start" x="657.014" y="-249" font-family="Helvetica,sans-Serif" font-size="10.00">+ setalarm()</text>
<text text-anchor="start" x="657.014" y="-239" font-family="Helvetica,sans-Serif" font-size="10.00">+ getalarm()</text>
<text text-anchor="start" x="657.014" y="-229" font-family="Helvetica,sans-Serif" font-size="10.00">+ disablealarm()</text>
<text text-anchor="start" x="657.014" y="-219" font-family="Helvetica,sans-Serif" font-size="10.00">+ set()</text>
<text text-anchor="start" x="657.014" y="-209" font-family="Helvetica,sans-Serif" font-size="10.00">+ get()</text>
<text text-anchor="start" x="657.014" y="-199" font-family="Helvetica,sans-Serif" font-size="10.00">+ getports()</text>
</a>
</g>
</g>
<!-- Node6&#45;&gt;Node14 -->
<g id="edge13" class="edge"><title>Node6&#45;&gt;Node14</title>
<path fill="none" stroke="midnightblue" d="M477.717,-479.912C523.529,-457.402 593.134,-418.1 640,-368 645.899,-361.694 651.362,-354.607 656.36,-347.21"/>
<polygon fill="none" stroke="midnightblue" points="476.079,-476.816 468.603,-484.323 479.129,-483.117 476.079,-476.816"/>
</g>
<!-- Node10 -->
<g id="node10" class="node"><title>Node10</title>
<g id="a_node10"><a xlink:href="class_adc.html" target="_top" xlink:title="ADC Peripheral Class. ">
<polygon fill="none" stroke="black" points="356.294,-11 356.294,-125 423.706,-125 423.706,-11 356.294,-11"/>
<text text-anchor="middle" x="390" y="-113" font-family="Helvetica,sans-Serif" font-size="10.00">Adc</text>
<polyline fill="none" stroke="black" points="356.294,-107 423.706,-107 "/>
<text text-anchor="middle" x="390" y="-95" font-family="Helvetica,sans-Serif" font-size="10.00"> </text>
<polyline fill="none" stroke="black" points="356.294,-89 423.706,-89 "/>
<text text-anchor="start" x="364.294" y="-77" font-family="Helvetica,sans-Serif" font-size="10.00">+ Adc()</text>
<text text-anchor="start" x="364.294" y="-67" font-family="Helvetica,sans-Serif" font-size="10.00">+ open()</text>
<text text-anchor="start" x="364.294" y="-57" font-family="Helvetica,sans-Serif" font-size="10.00">+ getattr()</text>
<text text-anchor="start" x="364.294" y="-47" font-family="Helvetica,sans-Serif" font-size="10.00">+ setattr()</text>
<text text-anchor="start" x="364.294" y="-37" font-family="Helvetica,sans-Serif" font-size="10.00">+ setattr()</text>
<text text-anchor="start" x="364.294" y="-27" font-family="Helvetica,sans-Serif" font-size="10.00">+ init()</text>
<text text-anchor="start" x="364.294" y="-17" font-family="Helvetica,sans-Serif" font-size="10.00">+ getports()</text>
</a>
</g>
</g>
<!-- Node9&#45;&gt;Node10 -->
<g id="edge9" class="edge"><title>Node9&#45;&gt;Node10</title>
<path fill="none" stroke="midnightblue" d="M423.583,-232.818C417.427,-202.788 408.567,-159.571 401.493,-125.064"/>
<polygon fill="none" stroke="midnightblue" points="420.203,-233.76 425.64,-242.853 427.06,-232.354 420.203,-233.76"/>
</g>
<!-- Node11 -->
<g id="node11" class="node"><title>Node11</title>
<g id="a_node11"><a xlink:href="class_dac.html" target="_top" xlink:title="DAC Class. ">
<polygon fill="none" stroke="black" points="442.186,-1 442.186,-135 501.814,-135 501.814,-1 442.186,-1"/>
<text text-anchor="middle" x="472" y="-123" font-family="Helvetica,sans-Serif" font-size="10.00">Dac</text>
<polyline fill="none" stroke="black" points="442.186,-117 501.814,-117 "/>
<text text-anchor="middle" x="472" y="-105" font-family="Helvetica,sans-Serif" font-size="10.00"> </text>
<polyline fill="none" stroke="black" points="442.186,-99 501.814,-99 "/>
<text text-anchor="start" x="450.186" y="-87" font-family="Helvetica,sans-Serif" font-size="10.00">+ Dac()</text>
<text text-anchor="start" x="450.186" y="-77" font-family="Helvetica,sans-Serif" font-size="10.00">+ open()</text>
<text text-anchor="start" x="450.186" y="-67" font-family="Helvetica,sans-Serif" font-size="10.00">+ getattr()</text>
<text text-anchor="start" x="450.186" y="-57" font-family="Helvetica,sans-Serif" font-size="10.00">+ setattr()</text>
<text text-anchor="start" x="450.186" y="-47" font-family="Helvetica,sans-Serif" font-size="10.00">+ value()</text>
<text text-anchor="start" x="450.186" y="-37" font-family="Helvetica,sans-Serif" font-size="10.00">+ get()</text>
<text text-anchor="start" x="450.186" y="-27" font-family="Helvetica,sans-Serif" font-size="10.00">+ setattr()</text>
<text text-anchor="start" x="450.186" y="-17" font-family="Helvetica,sans-Serif" font-size="10.00">+ init()</text>
<text text-anchor="start" x="450.186" y="-7" font-family="Helvetica,sans-Serif" font-size="10.00">+ set()</text>
</a>
</g>
</g>
<!-- Node9&#45;&gt;Node11 -->
<g id="edge10" class="edge"><title>Node9&#45;&gt;Node11</title>
<path fill="none" stroke="midnightblue" d="M438.379,-233.005C443.95,-205.83 451.751,-167.778 458.436,-135.167"/>
<polygon fill="none" stroke="midnightblue" points="434.94,-232.354 436.36,-242.853 441.797,-233.76 434.94,-232.354"/>
</g>
</g>
</svg>
