<?xml version="1.0" encoding="UTF-8" standalone="no"?>
<!DOCTYPE svg PUBLIC "-//W3C//DTD SVG 1.1//EN"
 "http://www.w3.org/Graphics/SVG/1.1/DTD/svg11.dtd">
<!-- Generated by graphviz version 2.36.0 (20140111.2315)
 -->
<!-- Title: RleFile Pages: 1 -->
<svg width="190pt" height="438pt"
 viewBox="0.00 0.00 190.00 438.00" xmlns="http://www.w3.org/2000/svg" xmlns:xlink="http://www.w3.org/1999/xlink">
<g id="graph0" class="graph" transform="scale(1 1) rotate(0) translate(4 434)">
<title>RleFile</title>
<!-- Node1 -->
<g id="node1" class="node"><title>Node1</title>
<polygon fill="#bfbfbf" stroke="black" points="55.8042,-1 55.8042,-65 108.196,-65 108.196,-1 55.8042,-1"/>
<text text-anchor="middle" x="82" y="-53" font-family="Helvetica,sans-Serif" font-size="10.00">RleFile</text>
<polyline fill="none" stroke="black" points="55.8042,-47 108.196,-47 "/>
<text text-anchor="middle" x="82" y="-35" font-family="Helvetica,sans-Serif" font-size="10.00"> </text>
<polyline fill="none" stroke="black" points="55.8042,-29 108.196,-29 "/>
<text text-anchor="start" x="63.8042" y="-17" font-family="Helvetica,sans-Serif" font-size="10.00">+ write()</text>
<text text-anchor="start" x="63.8042" y="-7" font-family="Helvetica,sans-Serif" font-size="10.00">+ read()</text>
</g>
<!-- Node2 -->
<g id="node2" class="node"><title>Node2</title>
<g id="a_node2"><a xlink:href="class_rle.html" target="_top" xlink:title="Run Length Encoding Class. ">
<polygon fill="none" stroke="black" points="-0.0429688,-158 -0.0429688,-242 64.043,-242 64.043,-158 -0.0429688,-158"/>
<text text-anchor="middle" x="32" y="-230" font-family="Helvetica,sans-Serif" font-size="10.00">Rle</text>
<polyline fill="none" stroke="black" points="-0.0429688,-224 64.043,-224 "/>
<text text-anchor="middle" x="32" y="-212" font-family="Helvetica,sans-Serif" font-size="10.00"> </text>
<polyline fill="none" stroke="black" points="-0.0429688,-206 64.043,-206 "/>
<text text-anchor="start" x="7.95703" y="-194" font-family="Helvetica,sans-Serif" font-size="10.00">+ Rle()</text>
<text text-anchor="start" x="7.95703" y="-184" font-family="Helvetica,sans-Serif" font-size="10.00">+ encode()</text>
<text text-anchor="start" x="7.95703" y="-174" font-family="Helvetica,sans-Serif" font-size="10.00">+ decode()</text>
<text text-anchor="start" x="7.95703" y="-164" font-family="Helvetica,sans-Serif" font-size="10.00">+ size()</text>
</a>
</g>
</g>
<!-- Node2&#45;&gt;Node1 -->
<g id="edge1" class="edge"><title>Node2&#45;&gt;Node1</title>
<path fill="none" stroke="midnightblue" d="M47.4347,-148.065C55.6541,-120.941 65.4979,-88.457 72.5745,-65.1041"/>
<polygon fill="none" stroke="midnightblue" points="44.0387,-147.204 44.4881,-157.789 50.7379,-149.234 44.0387,-147.204"/>
</g>
<!-- Node3 -->
<g id="node3" class="node"><title>Node3</title>
<g id="a_node3"><a xlink:href="class_file.html" target="_top" xlink:title="File Class. ">
<polygon fill="none" stroke="black" points="81.8931,-103 81.8931,-297 182.107,-297 182.107,-103 81.8931,-103"/>
<text text-anchor="middle" x="132" y="-285" font-family="Helvetica,sans-Serif" font-size="10.00">File</text>
<polyline fill="none" stroke="black" points="81.8931,-279 182.107,-279 "/>
<text text-anchor="middle" x="132" y="-267" font-family="Helvetica,sans-Serif" font-size="10.00"> </text>
<polyline fill="none" stroke="black" points="81.8931,-261 182.107,-261 "/>
<text text-anchor="start" x="89.8931" y="-249" font-family="Helvetica,sans-Serif" font-size="10.00">+ File()</text>
<text text-anchor="start" x="89.8931" y="-239" font-family="Helvetica,sans-Serif" font-size="10.00">+ open()</text>
<text text-anchor="start" x="89.8931" y="-229" font-family="Helvetica,sans-Serif" font-size="10.00">+ open_readwrite()</text>
<text text-anchor="start" x="89.8931" y="-219" font-family="Helvetica,sans-Serif" font-size="10.00">+ open_readonly()</text>
<text text-anchor="start" x="89.8931" y="-209" font-family="Helvetica,sans-Serif" font-size="10.00">+ create()</text>
<text text-anchor="start" x="89.8931" y="-199" font-family="Helvetica,sans-Serif" font-size="10.00">+ read()</text>
<text text-anchor="start" x="89.8931" y="-189" font-family="Helvetica,sans-Serif" font-size="10.00">+ read()</text>
<text text-anchor="start" x="89.8931" y="-179" font-family="Helvetica,sans-Serif" font-size="10.00">+ write()</text>
<text text-anchor="start" x="89.8931" y="-169" font-family="Helvetica,sans-Serif" font-size="10.00">+ write()</text>
<text text-anchor="start" x="89.8931" y="-159" font-family="Helvetica,sans-Serif" font-size="10.00">+ seek()</text>
<text text-anchor="start" x="89.8931" y="-149" font-family="Helvetica,sans-Serif" font-size="10.00">and 9 more...</text>
<text text-anchor="start" x="89.8931" y="-139" font-family="Helvetica,sans-Serif" font-size="10.00">+ remove()</text>
<text text-anchor="start" x="89.8931" y="-129" font-family="Helvetica,sans-Serif" font-size="10.00">+ stat()</text>
<text text-anchor="start" x="89.8931" y="-119" font-family="Helvetica,sans-Serif" font-size="10.00">+ stat()</text>
<text text-anchor="start" x="89.8931" y="-109" font-family="Helvetica,sans-Serif" font-size="10.00">+ size()</text>
</a>
</g>
</g>
<!-- Node3&#45;&gt;Node1 -->
<g id="edge2" class="edge"><title>Node3&#45;&gt;Node1</title>
<path fill="none" stroke="midnightblue" d="M99.8533,-92.9158C96.8523,-83.0127 94.0014,-73.6045 91.4942,-65.3309"/>
<polygon fill="none" stroke="midnightblue" points="96.5204,-93.9862 102.77,-102.541 103.22,-91.9561 96.5204,-93.9862"/>
</g>
<!-- Node4 -->
<g id="node4" class="node"><title>Node4</title>
<g id="a_node4"><a xlink:href="class_phy.html" target="_top" xlink:title="Base Applib Class for Physical devices. ">
<polygon fill="none" stroke="black" points="107.469,-335 107.469,-429 156.531,-429 156.531,-335 107.469,-335"/>
<text text-anchor="middle" x="132" y="-417" font-family="Helvetica,sans-Serif" font-size="10.00">Phy</text>
<polyline fill="none" stroke="black" points="107.469,-411 156.531,-411 "/>
<text text-anchor="middle" x="132" y="-399" font-family="Helvetica,sans-Serif" font-size="10.00"> </text>
<polyline fill="none" stroke="black" points="107.469,-393 156.531,-393 "/>
<text text-anchor="start" x="115.469" y="-381" font-family="Helvetica,sans-Serif" font-size="10.00">+ Phy()</text>
<text text-anchor="start" x="115.469" y="-371" font-family="Helvetica,sans-Serif" font-size="10.00">+ ioctl()</text>
<text text-anchor="start" x="115.469" y="-361" font-family="Helvetica,sans-Serif" font-size="10.00">+ ioctl()</text>
<text text-anchor="start" x="115.469" y="-351" font-family="Helvetica,sans-Serif" font-size="10.00">+ ioctl()</text>
<text text-anchor="start" x="115.469" y="-341" font-family="Helvetica,sans-Serif" font-size="10.00">+ ioctl()</text>
</a>
</g>
</g>
<!-- Node4&#45;&gt;Node3 -->
<g id="edge3" class="edge"><title>Node4&#45;&gt;Node3</title>
<path fill="none" stroke="midnightblue" d="M132,-324.613C132,-315.852 132,-306.595 132,-297.247"/>
<polygon fill="none" stroke="midnightblue" points="128.5,-324.645 132,-334.646 135.5,-324.646 128.5,-324.645"/>
</g>
</g>
</svg>
