<?xml version="1.0" encoding="UTF-8" standalone="no"?>
<!DOCTYPE svg PUBLIC "-//W3C//DTD SVG 1.1//EN"
 "http://www.w3.org/Graphics/SVG/1.1/DTD/svg11.dtd">
<!-- Generated by graphviz version 2.34.0 (20130907.0228)
 -->
<!-- Title: Dbug Pages: 1 -->
<svg width="274pt" height="324pt"
 viewBox="0.00 0.00 274.00 324.00" xmlns="http://www.w3.org/2000/svg" xmlns:xlink="http://www.w3.org/1999/xlink">
<g id="graph0" class="graph" transform="scale(1 1) rotate(0) translate(4 320)">
<title>Dbug</title>
<!-- Node1 -->
<g id="node1" class="node"><title>Node1</title>
<polygon fill="#bfbfbf" stroke="black" points="91.8979,-147 91.8979,-315 172.102,-315 172.102,-147 91.8979,-147"/>
<text text-anchor="middle" x="132" y="-301" font-family="Helvetica,sans-Serif" font-size="10.00">Dbug</text>
<polyline fill="none" stroke="black" points="91.8979,-295 172.102,-295 "/>
<text text-anchor="middle" x="132" y="-281" font-family="Helvetica,sans-Serif" font-size="10.00"> </text>
<polyline fill="none" stroke="black" points="91.8979,-275 172.102,-275 "/>
<text text-anchor="start" x="99.8979" y="-261" font-family="Helvetica,sans-Serif" font-size="10.00">+ Dbug()</text>
<text text-anchor="start" x="99.8979" y="-249" font-family="Helvetica,sans-Serif" font-size="10.00">+ setmode()</text>
<text text-anchor="start" x="99.8979" y="-237" font-family="Helvetica,sans-Serif" font-size="10.00">+ puts()</text>
<text text-anchor="start" x="99.8979" y="-225" font-family="Helvetica,sans-Serif" font-size="10.00">+ operator&lt;&lt;()</text>
<text text-anchor="start" x="99.8979" y="-213" font-family="Helvetica,sans-Serif" font-size="10.00">+ operator&lt;&lt;()</text>
<text text-anchor="start" x="99.8979" y="-201" font-family="Helvetica,sans-Serif" font-size="10.00">+ operator&lt;&lt;()</text>
<text text-anchor="start" x="99.8979" y="-189" font-family="Helvetica,sans-Serif" font-size="10.00">+ operator&lt;&lt;()</text>
<text text-anchor="start" x="99.8979" y="-177" font-family="Helvetica,sans-Serif" font-size="10.00">+ operator&lt;&lt;()</text>
<text text-anchor="start" x="99.8979" y="-165" font-family="Helvetica,sans-Serif" font-size="10.00">+ operator&lt;&lt;()</text>
<text text-anchor="start" x="99.8979" y="-153" font-family="Helvetica,sans-Serif" font-size="10.00">+ write()</text>
</g>
<!-- Node2 -->
<g id="node2" class="node"><title>Node2</title>
<g id="a_node2"><a xlink:href="class_dbug_null.html" target="_top" xlink:title="Debug Null Class. ">
<polygon fill="none" stroke="black" points="-0.205566,-1 -0.205566,-109 72.2056,-109 72.2056,-1 -0.205566,-1"/>
<text text-anchor="middle" x="36" y="-95" font-family="Helvetica,sans-Serif" font-size="10.00">DbugNull</text>
<polyline fill="none" stroke="black" points="-0.205566,-89 72.2056,-89 "/>
<text text-anchor="middle" x="36" y="-75" font-family="Helvetica,sans-Serif" font-size="10.00"> </text>
<polyline fill="none" stroke="black" points="-0.205566,-69 72.2056,-69 "/>
<text text-anchor="start" x="7.79443" y="-55" font-family="Helvetica,sans-Serif" font-size="10.00">+ DbugNull()</text>
<text text-anchor="start" x="7.79443" y="-43" font-family="Helvetica,sans-Serif" font-size="10.00">+ open()</text>
<text text-anchor="start" x="7.79443" y="-31" font-family="Helvetica,sans-Serif" font-size="10.00">+ close()</text>
<text text-anchor="start" x="7.79443" y="-19" font-family="Helvetica,sans-Serif" font-size="10.00">+ read()</text>
<text text-anchor="start" x="7.79443" y="-7" font-family="Helvetica,sans-Serif" font-size="10.00">+ write()</text>
</a>
</g>
</g>
<!-- Node1&#45;&gt;Node2 -->
<g id="edge1" class="edge"><title>Node1&#45;&gt;Node2</title>
<path fill="none" stroke="midnightblue" d="M86.8131,-148.099C79.5148,-134.871 72.1294,-121.485 65.335,-109.17"/>
<polygon fill="none" stroke="midnightblue" points="83.9482,-150.152 91.8436,-157.217 90.0773,-146.77 83.9482,-150.152"/>
</g>
<!-- Node3 -->
<g id="node3" class="node"><title>Node3</title>
<g id="a_node3"><a xlink:href="class_dbug_stdout.html" target="_top" xlink:title="Debug Stdout Class. ">
<polygon fill="none" stroke="black" points="89.9521,-1 89.9521,-109 174.048,-109 174.048,-1 89.9521,-1"/>
<text text-anchor="middle" x="132" y="-95" font-family="Helvetica,sans-Serif" font-size="10.00">DbugStdout</text>
<polyline fill="none" stroke="black" points="89.9521,-89 174.048,-89 "/>
<text text-anchor="middle" x="132" y="-75" font-family="Helvetica,sans-Serif" font-size="10.00"> </text>
<polyline fill="none" stroke="black" points="89.9521,-69 174.048,-69 "/>
<text text-anchor="start" x="97.9521" y="-55" font-family="Helvetica,sans-Serif" font-size="10.00">+ DbugStdout()</text>
<text text-anchor="start" x="97.9521" y="-43" font-family="Helvetica,sans-Serif" font-size="10.00">+ open()</text>
<text text-anchor="start" x="97.9521" y="-31" font-family="Helvetica,sans-Serif" font-size="10.00">+ close()</text>
<text text-anchor="start" x="97.9521" y="-19" font-family="Helvetica,sans-Serif" font-size="10.00">+ read()</text>
<text text-anchor="start" x="97.9521" y="-7" font-family="Helvetica,sans-Serif" font-size="10.00">+ write()</text>
</a>
</g>
</g>
<!-- Node1&#45;&gt;Node3 -->
<g id="edge2" class="edge"><title>Node1&#45;&gt;Node3</title>
<path fill="none" stroke="midnightblue" d="M132,-136.654C132,-127.3 132,-118.044 132,-109.322"/>
<polygon fill="none" stroke="midnightblue" points="128.5,-136.822 132,-146.822 135.5,-136.822 128.5,-136.822"/>
</g>
<!-- Node4 -->
<g id="node4" class="node"><title>Node4</title>
<g id="a_node4"><a xlink:href="class_dbug_uart.html" target="_top" xlink:title="Debug UART Class. ">
<polygon fill="none" stroke="black" points="191.962,-1 191.962,-109 266.038,-109 266.038,-1 191.962,-1"/>
<text text-anchor="middle" x="229" y="-95" font-family="Helvetica,sans-Serif" font-size="10.00">DbugUart</text>
<polyline fill="none" stroke="black" points="191.962,-89 266.038,-89 "/>
<text text-anchor="middle" x="229" y="-75" font-family="Helvetica,sans-Serif" font-size="10.00"> </text>
<polyline fill="none" stroke="black" points="191.962,-69 266.038,-69 "/>
<text text-anchor="start" x="199.962" y="-55" font-family="Helvetica,sans-Serif" font-size="10.00">+ DbugUart()</text>
<text text-anchor="start" x="199.962" y="-43" font-family="Helvetica,sans-Serif" font-size="10.00">+ open()</text>
<text text-anchor="start" x="199.962" y="-31" font-family="Helvetica,sans-Serif" font-size="10.00">+ close()</text>
<text text-anchor="start" x="199.962" y="-19" font-family="Helvetica,sans-Serif" font-size="10.00">+ read()</text>
<text text-anchor="start" x="199.962" y="-7" font-family="Helvetica,sans-Serif" font-size="10.00">+ write()</text>
</a>
</g>
</g>
<!-- Node1&#45;&gt;Node4 -->
<g id="edge3" class="edge"><title>Node1&#45;&gt;Node4</title>
<path fill="none" stroke="midnightblue" d="M177.102,-149.095C184.668,-135.523 192.345,-121.752 199.392,-109.112"/>
<polygon fill="none" stroke="midnightblue" points="173.966,-147.533 172.154,-157.972 180.08,-150.941 173.966,-147.533"/>
</g>
</g>
</svg>
