<?xml version="1.0" encoding="UTF-8" standalone="no"?>
<!DOCTYPE svg PUBLIC "-//W3C//DTD SVG 1.1//EN"
 "http://www.w3.org/Graphics/SVG/1.1/DTD/svg11.dtd">
<!-- Generated by graphviz version 2.36.0 (20140111.2315)
 -->
<!-- Title: BrspAddress Pages: 1 -->
<svg width="132pt" height="368pt"
 viewBox="0.00 0.00 132.00 368.00" xmlns="http://www.w3.org/2000/svg" xmlns:xlink="http://www.w3.org/1999/xlink">
<g id="graph0" class="graph" transform="scale(1 1) rotate(0) translate(4 364)">
<title>BrspAddress</title>
<!-- Node1 -->
<g id="node1" class="node"><title>Node1</title>
<polygon fill="#bfbfbf" stroke="black" points="17.7378,-1 17.7378,-55 106.262,-55 106.262,-1 17.7378,-1"/>
<text text-anchor="middle" x="62" y="-43" font-family="Helvetica,sans-Serif" font-size="10.00">BrspAddress</text>
<polyline fill="none" stroke="black" points="17.7378,-37 106.262,-37 "/>
<text text-anchor="middle" x="62" y="-25" font-family="Helvetica,sans-Serif" font-size="10.00"> </text>
<polyline fill="none" stroke="black" points="17.7378,-19 106.262,-19 "/>
<text text-anchor="start" x="25.7378" y="-7" font-family="Helvetica,sans-Serif" font-size="10.00">+ BrspAddress()</text>
</g>
<!-- Node2 -->
<g id="node2" class="node"><title>Node2</title>
<g id="a_node2"><a xlink:href="class_string_static.html" target="_top" xlink:title="{StringStatic\&lt; 12 \&gt;\n||+ StringStatic()\l+ StringStatic()\l+ StringStatic()\l}">
<polygon fill="none" stroke="black" points="14.2539,-93 14.2539,-167 109.746,-167 109.746,-93 14.2539,-93"/>
<text text-anchor="middle" x="62" y="-155" font-family="Helvetica,sans-Serif" font-size="10.00">StringStatic&lt; 12 &gt;</text>
<polyline fill="none" stroke="black" points="14.2539,-149 109.746,-149 "/>
<text text-anchor="middle" x="62" y="-137" font-family="Helvetica,sans-Serif" font-size="10.00"> </text>
<polyline fill="none" stroke="black" points="14.2539,-131 109.746,-131 "/>
<text text-anchor="start" x="22.2539" y="-119" font-family="Helvetica,sans-Serif" font-size="10.00">+ StringStatic()</text>
<text text-anchor="start" x="22.2539" y="-109" font-family="Helvetica,sans-Serif" font-size="10.00">+ StringStatic()</text>
<text text-anchor="start" x="22.2539" y="-99" font-family="Helvetica,sans-Serif" font-size="10.00">+ StringStatic()</text>
</a>
</g>
</g>
<!-- Node2&#45;&gt;Node1 -->
<g id="edge1" class="edge"><title>Node2&#45;&gt;Node1</title>
<path fill="none" stroke="midnightblue" d="M62,-82.7094C62,-73.1945 62,-63.4995 62,-55.0128"/>
<polygon fill="none" stroke="midnightblue" points="58.5001,-82.8977 62,-92.8977 65.5001,-82.8977 58.5001,-82.8977"/>
</g>
<!-- Node3 -->
<g id="node3" class="node"><title>Node3</title>
<g id="a_node3"><a xlink:href="class_string.html" target="_top" xlink:title="String class. ">
<polygon fill="none" stroke="black" points="-0.0527344,-205 -0.0527344,-359 124.053,-359 124.053,-205 -0.0527344,-205"/>
<text text-anchor="middle" x="62" y="-347" font-family="Helvetica,sans-Serif" font-size="10.00">String</text>
<polyline fill="none" stroke="black" points="-0.0527344,-341 124.053,-341 "/>
<text text-anchor="middle" x="62" y="-329" font-family="Helvetica,sans-Serif" font-size="10.00"> </text>
<polyline fill="none" stroke="black" points="-0.0527344,-323 124.053,-323 "/>
<text text-anchor="start" x="7.94727" y="-311" font-family="Helvetica,sans-Serif" font-size="10.00">+ String()</text>
<text text-anchor="start" x="7.94727" y="-301" font-family="Helvetica,sans-Serif" font-size="10.00">+ String()</text>
<text text-anchor="start" x="7.94727" y="-291" font-family="Helvetica,sans-Serif" font-size="10.00">+ String()</text>
<text text-anchor="start" x="7.94727" y="-281" font-family="Helvetica,sans-Serif" font-size="10.00">+ String()</text>
<text text-anchor="start" x="7.94727" y="-271" font-family="Helvetica,sans-Serif" font-size="10.00">+ setformat()</text>
<text text-anchor="start" x="7.94727" y="-261" font-family="Helvetica,sans-Serif" font-size="10.00">+ operator const char *()</text>
<text text-anchor="start" x="7.94727" y="-251" font-family="Helvetica,sans-Serif" font-size="10.00">+ String()</text>
<text text-anchor="start" x="7.94727" y="-241" font-family="Helvetica,sans-Serif" font-size="10.00">+ operator&lt;&lt;()</text>
<text text-anchor="start" x="7.94727" y="-231" font-family="Helvetica,sans-Serif" font-size="10.00">+ operator&lt;&lt;()</text>
<text text-anchor="start" x="7.94727" y="-221" font-family="Helvetica,sans-Serif" font-size="10.00">+ operator&lt;&lt;()</text>
<text text-anchor="start" x="7.94727" y="-211" font-family="Helvetica,sans-Serif" font-size="10.00">and 53 more...</text>
</a>
</g>
</g>
<!-- Node3&#45;&gt;Node2 -->
<g id="edge2" class="edge"><title>Node3&#45;&gt;Node2</title>
<path fill="none" stroke="midnightblue" d="M62,-194.643C62,-185.073 62,-175.754 62,-167.332"/>
<polygon fill="none" stroke="midnightblue" points="58.5001,-194.682 62,-204.682 65.5001,-194.682 58.5001,-194.682"/>
</g>
</g>
</svg>
