<?xml version="1.0" encoding="UTF-8" standalone="no"?>
<!DOCTYPE svg PUBLIC "-//W3C//DTD SVG 1.1//EN"
 "http://www.w3.org/Graphics/SVG/1.1/DTD/svg11.dtd">
<!-- Generated by graphviz version 2.36.0 (20140111.2315)
 -->
<!-- Title: Signal::Event Pages: 1 -->
<svg width="100pt" height="226pt"
 viewBox="0.00 0.00 100.00 226.00" xmlns="http://www.w3.org/2000/svg" xmlns:xlink="http://www.w3.org/1999/xlink">
<g id="graph0" class="graph" transform="scale(1 1) rotate(0) translate(4 222)">
<title>Signal::Event</title>
<!-- Node1 -->
<g id="node1" class="node"><title>Node1</title>
<polygon fill="#bfbfbf" stroke="black" points="4.23047,-113 4.23047,-217 87.7695,-217 87.7695,-113 4.23047,-113"/>
<text text-anchor="middle" x="46" y="-205" font-family="Helvetica,sans-Serif" font-size="10.00">Signal::Event</text>
<polyline fill="none" stroke="black" points="4.23047,-199 87.7695,-199 "/>
<text text-anchor="middle" x="46" y="-187" font-family="Helvetica,sans-Serif" font-size="10.00"> </text>
<polyline fill="none" stroke="black" points="4.23047,-181 87.7695,-181 "/>
<text text-anchor="start" x="12.2305" y="-169" font-family="Helvetica,sans-Serif" font-size="10.00">+ Event()</text>
<text text-anchor="start" x="12.2305" y="-159" font-family="Helvetica,sans-Serif" font-size="10.00">+ trigger()</text>
<text text-anchor="start" x="12.2305" y="-149" font-family="Helvetica,sans-Serif" font-size="10.00">+ trigger()</text>
<text text-anchor="start" x="12.2305" y="-139" font-family="Helvetica,sans-Serif" font-size="10.00">+ trigger()</text>
<text text-anchor="start" x="12.2305" y="-129" font-family="Helvetica,sans-Serif" font-size="10.00">+ trigger()</text>
<text text-anchor="start" x="12.2305" y="-119" font-family="Helvetica,sans-Serif" font-size="10.00">+ set_handler()</text>
</g>
<!-- Node2 -->
<g id="node2" class="node"><title>Node2</title>
<g id="a_node2"><a xlink:href="class_signal_1_1_event_phy.html" target="_top" xlink:title="Class for bridging physical events with Signal events. ">
<polygon fill="none" stroke="black" points="-0.0786133,-1 -0.0786133,-75 92.0786,-75 92.0786,-1 -0.0786133,-1"/>
<text text-anchor="middle" x="46" y="-63" font-family="Helvetica,sans-Serif" font-size="10.00">Signal::EventPhy</text>
<polyline fill="none" stroke="black" points="-0.0786133,-57 92.0786,-57 "/>
<text text-anchor="middle" x="46" y="-45" font-family="Helvetica,sans-Serif" font-size="10.00"> </text>
<polyline fill="none" stroke="black" points="-0.0786133,-39 92.0786,-39 "/>
<text text-anchor="start" x="7.92139" y="-27" font-family="Helvetica,sans-Serif" font-size="10.00">+ EventPhy()</text>
<text text-anchor="start" x="7.92139" y="-17" font-family="Helvetica,sans-Serif" font-size="10.00">+ EventPhy()</text>
<text text-anchor="start" x="7.92139" y="-7" font-family="Helvetica,sans-Serif" font-size="10.00">+ action()</text>
</a>
</g>
</g>
<!-- Node1&#45;&gt;Node2 -->
<g id="edge1" class="edge"><title>Node1&#45;&gt;Node2</title>
<path fill="none" stroke="midnightblue" d="M46,-102.601C46,-93.1556 46,-83.6763 46,-75.0268"/>
<polygon fill="none" stroke="midnightblue" points="42.5001,-102.797 46,-112.797 49.5001,-102.797 42.5001,-102.797"/>
</g>
</g>
</svg>
