<?xml version="1.0" encoding="UTF-8" standalone="no"?>
<!DOCTYPE svg PUBLIC "-//W3C//DTD SVG 1.1//EN"
 "http://www.w3.org/Graphics/SVG/1.1/DTD/svg11.dtd">
<!-- Generated by graphviz version 2.36.0 (20140111.2315)
 -->
<!-- Title: File Pages: 1 -->
<svg width="158pt" height="528pt"
 viewBox="0.00 0.00 158.00 528.00" xmlns="http://www.w3.org/2000/svg" xmlns:xlink="http://www.w3.org/1999/xlink">
<g id="graph0" class="graph" transform="scale(1 1) rotate(0) translate(4 524)">
<title>File</title>
<!-- Node1 -->
<g id="node1" class="node"><title>Node1</title>
<polygon fill="#bfbfbf" stroke="black" points="17.8931,-193 17.8931,-387 118.107,-387 118.107,-193 17.8931,-193"/>
<text text-anchor="middle" x="68" y="-375" font-family="Helvetica,sans-Serif" font-size="10.00">File</text>
<polyline fill="none" stroke="black" points="17.8931,-369 118.107,-369 "/>
<text text-anchor="middle" x="68" y="-357" font-family="Helvetica,sans-Serif" font-size="10.00"> </text>
<polyline fill="none" stroke="black" points="17.8931,-351 118.107,-351 "/>
<text text-anchor="start" x="25.8931" y="-339" font-family="Helvetica,sans-Serif" font-size="10.00">+ File()</text>
<text text-anchor="start" x="25.8931" y="-329" font-family="Helvetica,sans-Serif" font-size="10.00">+ open()</text>
<text text-anchor="start" x="25.8931" y="-319" font-family="Helvetica,sans-Serif" font-size="10.00">+ open_readwrite()</text>
<text text-anchor="start" x="25.8931" y="-309" font-family="Helvetica,sans-Serif" font-size="10.00">+ open_readonly()</text>
<text text-anchor="start" x="25.8931" y="-299" font-family="Helvetica,sans-Serif" font-size="10.00">+ create()</text>
<text text-anchor="start" x="25.8931" y="-289" font-family="Helvetica,sans-Serif" font-size="10.00">+ read()</text>
<text text-anchor="start" x="25.8931" y="-279" font-family="Helvetica,sans-Serif" font-size="10.00">+ read()</text>
<text text-anchor="start" x="25.8931" y="-269" font-family="Helvetica,sans-Serif" font-size="10.00">+ write()</text>
<text text-anchor="start" x="25.8931" y="-259" font-family="Helvetica,sans-Serif" font-size="10.00">+ write()</text>
<text text-anchor="start" x="25.8931" y="-249" font-family="Helvetica,sans-Serif" font-size="10.00">+ seek()</text>
<text text-anchor="start" x="25.8931" y="-239" font-family="Helvetica,sans-Serif" font-size="10.00">and 9 more...</text>
<text text-anchor="start" x="25.8931" y="-229" font-family="Helvetica,sans-Serif" font-size="10.00">+ remove()</text>
<text text-anchor="start" x="25.8931" y="-219" font-family="Helvetica,sans-Serif" font-size="10.00">+ stat()</text>
<text text-anchor="start" x="25.8931" y="-209" font-family="Helvetica,sans-Serif" font-size="10.00">+ stat()</text>
<text text-anchor="start" x="25.8931" y="-199" font-family="Helvetica,sans-Serif" font-size="10.00">+ size()</text>
</g>
<!-- Node3 -->
<g id="node3" class="node"><title>Node3</title>
<g id="a_node3"><a xlink:href="class_rle_file.html" target="_top" xlink:title="Class for reading/writing compressed file data. ">
<polygon fill="none" stroke="black" points="-0.195801,-46 -0.195801,-110 52.1958,-110 52.1958,-46 -0.195801,-46"/>
<text text-anchor="middle" x="26" y="-98" font-family="Helvetica,sans-Serif" font-size="10.00">RleFile</text>
<polyline fill="none" stroke="black" points="-0.195801,-92 52.1958,-92 "/>
<text text-anchor="middle" x="26" y="-80" font-family="Helvetica,sans-Serif" font-size="10.00"> </text>
<polyline fill="none" stroke="black" points="-0.195801,-74 52.1958,-74 "/>
<text text-anchor="start" x="7.8042" y="-62" font-family="Helvetica,sans-Serif" font-size="10.00">+ write()</text>
<text text-anchor="start" x="7.8042" y="-52" font-family="Helvetica,sans-Serif" font-size="10.00">+ read()</text>
</a>
</g>
</g>
<!-- Node1&#45;&gt;Node3 -->
<g id="edge2" class="edge"><title>Node1&#45;&gt;Node3</title>
<path fill="none" stroke="midnightblue" d="M46.7517,-182.758C41.4487,-156.244 36.167,-129.835 32.2591,-110.296"/>
<polygon fill="none" stroke="midnightblue" points="43.389,-183.792 48.7823,-192.911 50.2531,-182.419 43.389,-183.792"/>
</g>
<!-- Node4 -->
<g id="node4" class="node"><title>Node4</title>
<g id="a_node4"><a xlink:href="class_xml.html" target="_top" xlink:title="XML Class. ">
<polygon fill="none" stroke="black" points="69.7588,-1 69.7588,-155 150.241,-155 150.241,-1 69.7588,-1"/>
<text text-anchor="middle" x="110" y="-143" font-family="Helvetica,sans-Serif" font-size="10.00">Xml</text>
<polyline fill="none" stroke="black" points="69.7588,-137 150.241,-137 "/>
<text text-anchor="middle" x="110" y="-125" font-family="Helvetica,sans-Serif" font-size="10.00"> </text>
<polyline fill="none" stroke="black" points="69.7588,-119 150.241,-119 "/>
<text text-anchor="start" x="77.7588" y="-107" font-family="Helvetica,sans-Serif" font-size="10.00">+ Xml()</text>
<text text-anchor="start" x="77.7588" y="-97" font-family="Helvetica,sans-Serif" font-size="10.00">+ Xml()</text>
<text text-anchor="start" x="77.7588" y="-87" font-family="Helvetica,sans-Serif" font-size="10.00">+ init()</text>
<text text-anchor="start" x="77.7588" y="-77" font-family="Helvetica,sans-Serif" font-size="10.00">+ close()</text>
<text text-anchor="start" x="77.7588" y="-67" font-family="Helvetica,sans-Serif" font-size="10.00">+ exit()</text>
<text text-anchor="start" x="77.7588" y="-57" font-family="Helvetica,sans-Serif" font-size="10.00">+ value()</text>
<text text-anchor="start" x="77.7588" y="-47" font-family="Helvetica,sans-Serif" font-size="10.00">+ value()</text>
<text text-anchor="start" x="77.7588" y="-37" font-family="Helvetica,sans-Serif" font-size="10.00">+ setvalue()</text>
<text text-anchor="start" x="77.7588" y="-27" font-family="Helvetica,sans-Serif" font-size="10.00">+ setvalue()</text>
<text text-anchor="start" x="77.7588" y="-17" font-family="Helvetica,sans-Serif" font-size="10.00">+ find()</text>
<text text-anchor="start" x="77.7588" y="-7" font-family="Helvetica,sans-Serif" font-size="10.00">and 16 more...</text>
</a>
</g>
</g>
<!-- Node1&#45;&gt;Node4 -->
<g id="edge3" class="edge"><title>Node1&#45;&gt;Node4</title>
<path fill="none" stroke="midnightblue" d="M89.2361,-182.819C91.0979,-173.51 92.9572,-164.214 94.7555,-155.223"/>
<polygon fill="none" stroke="midnightblue" points="85.7469,-182.419 87.2177,-192.911 92.611,-183.792 85.7469,-182.419"/>
</g>
<!-- Node2 -->
<g id="node2" class="node"><title>Node2</title>
<g id="a_node2"><a xlink:href="class_phy.html" target="_top" xlink:title="Base Applib Class for Physical devices. ">
<polygon fill="none" stroke="black" points="43.4692,-425 43.4692,-519 92.5308,-519 92.5308,-425 43.4692,-425"/>
<text text-anchor="middle" x="68" y="-507" font-family="Helvetica,sans-Serif" font-size="10.00">Phy</text>
<polyline fill="none" stroke="black" points="43.4692,-501 92.5308,-501 "/>
<text text-anchor="middle" x="68" y="-489" font-family="Helvetica,sans-Serif" font-size="10.00"> </text>
<polyline fill="none" stroke="black" points="43.4692,-483 92.5308,-483 "/>
<text text-anchor="start" x="51.4692" y="-471" font-family="Helvetica,sans-Serif" font-size="10.00">+ Phy()</text>
<text text-anchor="start" x="51.4692" y="-461" font-family="Helvetica,sans-Serif" font-size="10.00">+ ioctl()</text>
<text text-anchor="start" x="51.4692" y="-451" font-family="Helvetica,sans-Serif" font-size="10.00">+ ioctl()</text>
<text text-anchor="start" x="51.4692" y="-441" font-family="Helvetica,sans-Serif" font-size="10.00">+ ioctl()</text>
<text text-anchor="start" x="51.4692" y="-431" font-family="Helvetica,sans-Serif" font-size="10.00">+ ioctl()</text>
</a>
</g>
</g>
<!-- Node2&#45;&gt;Node1 -->
<g id="edge1" class="edge"><title>Node2&#45;&gt;Node1</title>
<path fill="none" stroke="midnightblue" d="M68,-414.613C68,-405.852 68,-396.595 68,-387.247"/>
<polygon fill="none" stroke="midnightblue" points="64.5001,-414.645 68,-424.646 71.5001,-414.646 64.5001,-414.645"/>
</g>
</g>
</svg>
