<?xml version="1.0" encoding="UTF-8" standalone="no"?>
<!DOCTYPE svg PUBLIC "-//W3C//DTD SVG 1.1//EN"
 "http://www.w3.org/Graphics/SVG/1.1/DTD/svg11.dtd">
<!-- Generated by graphviz version 2.36.0 (20140111.2315)
 -->
<!-- Title: Core Pages: 1 -->
<svg width="114pt" height="518pt"
 viewBox="0.00 0.00 114.00 518.00" xmlns="http://www.w3.org/2000/svg" xmlns:xlink="http://www.w3.org/1999/xlink">
<g id="graph0" class="graph" transform="scale(1 1) rotate(0) translate(4 514)">
<title>Core</title>
<!-- Node1 -->
<g id="node1" class="node"><title>Node1</title>
<polygon fill="#bfbfbf" stroke="black" points="-0.722656,-1 -0.722656,-165 106.723,-165 106.723,-1 -0.722656,-1"/>
<text text-anchor="middle" x="53" y="-153" font-family="Helvetica,sans-Serif" font-size="10.00">Core</text>
<polyline fill="none" stroke="black" points="-0.722656,-147 106.723,-147 "/>
<text text-anchor="middle" x="53" y="-135" font-family="Helvetica,sans-Serif" font-size="10.00"> </text>
<polyline fill="none" stroke="black" points="-0.722656,-129 106.723,-129 "/>
<text text-anchor="start" x="7.27734" y="-117" font-family="Helvetica,sans-Serif" font-size="10.00">+ Core()</text>
<text text-anchor="start" x="7.27734" y="-107" font-family="Helvetica,sans-Serif" font-size="10.00">+ open()</text>
<text text-anchor="start" x="7.27734" y="-97" font-family="Helvetica,sans-Serif" font-size="10.00">+ getattr()</text>
<text text-anchor="start" x="7.27734" y="-87" font-family="Helvetica,sans-Serif" font-size="10.00">+ setattr()</text>
<text text-anchor="start" x="7.27734" y="-77" font-family="Helvetica,sans-Serif" font-size="10.00">+ setpinfunc()</text>
<text text-anchor="start" x="7.27734" y="-67" font-family="Helvetica,sans-Serif" font-size="10.00">+ sleep()</text>
<text text-anchor="start" x="7.27734" y="-57" font-family="Helvetica,sans-Serif" font-size="10.00">+ reset()</text>
<text text-anchor="start" x="7.27734" y="-47" font-family="Helvetica,sans-Serif" font-size="10.00">+ invokebootloader()</text>
<text text-anchor="start" x="7.27734" y="-37" font-family="Helvetica,sans-Serif" font-size="10.00">+ setirqprio()</text>
<text text-anchor="start" x="7.27734" y="-27" font-family="Helvetica,sans-Serif" font-size="10.00">+ setirqprio()</text>
<text text-anchor="start" x="7.27734" y="-17" font-family="Helvetica,sans-Serif" font-size="10.00">+ setclkout()</text>
<text text-anchor="start" x="7.27734" y="-7" font-family="Helvetica,sans-Serif" font-size="10.00">+ getports()</text>
</g>
<!-- Node2 -->
<g id="node2" class="node"><title>Node2</title>
<g id="a_node2"><a xlink:href="class_periph.html" target="_top" xlink:title="Peripheral Class. ">
<polygon fill="none" stroke="black" points="15.5396,-203 15.5396,-377 90.4604,-377 90.4604,-203 15.5396,-203"/>
<text text-anchor="middle" x="53" y="-365" font-family="Helvetica,sans-Serif" font-size="10.00">Periph</text>
<polyline fill="none" stroke="black" points="15.5396,-359 90.4604,-359 "/>
<text text-anchor="start" x="23.5396" y="-347" font-family="Helvetica,sans-Serif" font-size="10.00"># port_</text>
<text text-anchor="start" x="23.5396" y="-337" font-family="Helvetica,sans-Serif" font-size="10.00"># fd</text>
<polyline fill="none" stroke="black" points="15.5396,-331 90.4604,-331 "/>
<text text-anchor="start" x="23.5396" y="-319" font-family="Helvetica,sans-Serif" font-size="10.00">+ Periph()</text>
<text text-anchor="start" x="23.5396" y="-309" font-family="Helvetica,sans-Serif" font-size="10.00">+ open()</text>
<text text-anchor="start" x="23.5396" y="-299" font-family="Helvetica,sans-Serif" font-size="10.00">+ open()</text>
<text text-anchor="start" x="23.5396" y="-289" font-family="Helvetica,sans-Serif" font-size="10.00">+ setflags()</text>
<text text-anchor="start" x="23.5396" y="-279" font-family="Helvetica,sans-Serif" font-size="10.00">+ read()</text>
<text text-anchor="start" x="23.5396" y="-269" font-family="Helvetica,sans-Serif" font-size="10.00">+ read()</text>
<text text-anchor="start" x="23.5396" y="-259" font-family="Helvetica,sans-Serif" font-size="10.00">+ write()</text>
<text text-anchor="start" x="23.5396" y="-249" font-family="Helvetica,sans-Serif" font-size="10.00">+ readline()</text>
<text text-anchor="start" x="23.5396" y="-239" font-family="Helvetica,sans-Serif" font-size="10.00">+ write()</text>
<text text-anchor="start" x="23.5396" y="-229" font-family="Helvetica,sans-Serif" font-size="10.00">+ write()</text>
<text text-anchor="start" x="23.5396" y="-219" font-family="Helvetica,sans-Serif" font-size="10.00">and 7 more...</text>
<text text-anchor="start" x="23.5396" y="-209" font-family="Helvetica,sans-Serif" font-size="10.00"># _open()</text>
</a>
</g>
</g>
<!-- Node2&#45;&gt;Node1 -->
<g id="edge1" class="edge"><title>Node2&#45;&gt;Node1</title>
<path fill="none" stroke="midnightblue" d="M53,-192.942C53,-183.678 53,-174.344 53,-165.243"/>
<polygon fill="none" stroke="midnightblue" points="49.5001,-192.953 53,-202.953 56.5001,-192.953 49.5001,-192.953"/>
</g>
<!-- Node3 -->
<g id="node3" class="node"><title>Node3</title>
<g id="a_node3"><a xlink:href="class_phy.html" target="_top" xlink:title="Base Applib Class for Physical devices. ">
<polygon fill="none" stroke="black" points="28.4692,-415 28.4692,-509 77.5308,-509 77.5308,-415 28.4692,-415"/>
<text text-anchor="middle" x="53" y="-497" font-family="Helvetica,sans-Serif" font-size="10.00">Phy</text>
<polyline fill="none" stroke="black" points="28.4692,-491 77.5308,-491 "/>
<text text-anchor="middle" x="53" y="-479" font-family="Helvetica,sans-Serif" font-size="10.00"> </text>
<polyline fill="none" stroke="black" points="28.4692,-473 77.5308,-473 "/>
<text text-anchor="start" x="36.4692" y="-461" font-family="Helvetica,sans-Serif" font-size="10.00">+ Phy()</text>
<text text-anchor="start" x="36.4692" y="-451" font-family="Helvetica,sans-Serif" font-size="10.00">+ ioctl()</text>
<text text-anchor="start" x="36.4692" y="-441" font-family="Helvetica,sans-Serif" font-size="10.00">+ ioctl()</text>
<text text-anchor="start" x="36.4692" y="-431" font-family="Helvetica,sans-Serif" font-size="10.00">+ ioctl()</text>
<text text-anchor="start" x="36.4692" y="-421" font-family="Helvetica,sans-Serif" font-size="10.00">+ ioctl()</text>
</a>
</g>
</g>
<!-- Node3&#45;&gt;Node2 -->
<g id="edge2" class="edge"><title>Node3&#45;&gt;Node2</title>
<path fill="none" stroke="midnightblue" d="M53,-404.763C53,-395.836 53,-386.428 53,-377.004"/>
<polygon fill="none" stroke="midnightblue" points="49.5001,-404.996 53,-414.996 56.5001,-404.996 49.5001,-404.996"/>
</g>
</g>
</svg>
