<?xml version="1.0" encoding="UTF-8" standalone="no"?>
<!DOCTYPE svg PUBLIC "-//W3C//DTD SVG 1.1//EN"
 "http://www.w3.org/Graphics/SVG/1.1/DTD/svg11.dtd">
<!-- Generated by graphviz version 2.36.0 (20140111.2315)
 -->
<!-- Title: I2C Pages: 1 -->
<svg width="82pt" height="600pt"
 viewBox="0.00 0.00 82.00 600.00" xmlns="http://www.w3.org/2000/svg" xmlns:xlink="http://www.w3.org/1999/xlink">
<g id="graph0" class="graph" transform="scale(1 1) rotate(0) translate(4 596)">
<title>I2C</title>
<!-- Node1 -->
<g id="node1" class="node"><title>Node1</title>
<polygon fill="#bfbfbf" stroke="black" points="13.5801,-1 13.5801,-55 60.4199,-55 60.4199,-1 13.5801,-1"/>
<text text-anchor="middle" x="37" y="-43" font-family="Helvetica,sans-Serif" font-size="10.00">I2C</text>
<polyline fill="none" stroke="black" points="13.5801,-37 60.4199,-37 "/>
<text text-anchor="middle" x="37" y="-25" font-family="Helvetica,sans-Serif" font-size="10.00"> </text>
<polyline fill="none" stroke="black" points="13.5801,-19 60.4199,-19 "/>
<text text-anchor="start" x="21.5801" y="-7" font-family="Helvetica,sans-Serif" font-size="10.00">+ I2C()</text>
</g>
<!-- Node2 -->
<g id="node2" class="node"><title>Node2</title>
<g id="a_node2"><a xlink:href="class_i2c.html" target="_top" xlink:title="I2C Peripheral Class. ">
<polygon fill="none" stroke="black" points="3.29443,-93 3.29443,-287 70.7056,-287 70.7056,-93 3.29443,-93"/>
<text text-anchor="middle" x="37" y="-275" font-family="Helvetica,sans-Serif" font-size="10.00">I2c</text>
<polyline fill="none" stroke="black" points="3.29443,-269 70.7056,-269 "/>
<text text-anchor="middle" x="37" y="-257" font-family="Helvetica,sans-Serif" font-size="10.00"> </text>
<polyline fill="none" stroke="black" points="3.29443,-251 70.7056,-251 "/>
<text text-anchor="start" x="11.2944" y="-239" font-family="Helvetica,sans-Serif" font-size="10.00">+ I2c()</text>
<text text-anchor="start" x="11.2944" y="-229" font-family="Helvetica,sans-Serif" font-size="10.00">+ open()</text>
<text text-anchor="start" x="11.2944" y="-219" font-family="Helvetica,sans-Serif" font-size="10.00">+ getattr()</text>
<text text-anchor="start" x="11.2944" y="-209" font-family="Helvetica,sans-Serif" font-size="10.00">+ setattr()</text>
<text text-anchor="start" x="11.2944" y="-199" font-family="Helvetica,sans-Serif" font-size="10.00">+ setup()</text>
<text text-anchor="start" x="11.2944" y="-189" font-family="Helvetica,sans-Serif" font-size="10.00">+ geterr()</text>
<text text-anchor="start" x="11.2944" y="-179" font-family="Helvetica,sans-Serif" font-size="10.00">+ err()</text>
<text text-anchor="start" x="11.2944" y="-169" font-family="Helvetica,sans-Serif" font-size="10.00">+ setup()</text>
<text text-anchor="start" x="11.2944" y="-159" font-family="Helvetica,sans-Serif" font-size="10.00">+ setattr()</text>
<text text-anchor="start" x="11.2944" y="-149" font-family="Helvetica,sans-Serif" font-size="10.00">+ init()</text>
<text text-anchor="start" x="11.2944" y="-139" font-family="Helvetica,sans-Serif" font-size="10.00">+ read()</text>
<text text-anchor="start" x="11.2944" y="-129" font-family="Helvetica,sans-Serif" font-size="10.00">+ write()</text>
<text text-anchor="start" x="11.2944" y="-119" font-family="Helvetica,sans-Serif" font-size="10.00">+ set()</text>
<text text-anchor="start" x="11.2944" y="-109" font-family="Helvetica,sans-Serif" font-size="10.00">+ clear()</text>
<text text-anchor="start" x="11.2944" y="-99" font-family="Helvetica,sans-Serif" font-size="10.00">+ getports()</text>
</a>
</g>
</g>
<!-- Node2&#45;&gt;Node1 -->
<g id="edge1" class="edge"><title>Node2&#45;&gt;Node1</title>
<path fill="none" stroke="midnightblue" d="M37,-82.5245C37,-72.533 37,-63.1626 37,-55.141"/>
<polygon fill="none" stroke="midnightblue" points="33.5001,-82.6959 37,-92.696 40.5001,-82.696 33.5001,-82.6959"/>
</g>
<!-- Node3 -->
<g id="node3" class="node"><title>Node3</title>
<g id="a_node3"><a xlink:href="class_pblock.html" target="_top" xlink:title="Peripheral Block Class. ">
<polygon fill="none" stroke="black" points="6.35352,-325 6.35352,-379 67.6465,-379 67.6465,-325 6.35352,-325"/>
<text text-anchor="middle" x="37" y="-367" font-family="Helvetica,sans-Serif" font-size="10.00">Pblock</text>
<polyline fill="none" stroke="black" points="6.35352,-361 67.6465,-361 "/>
<text text-anchor="middle" x="37" y="-349" font-family="Helvetica,sans-Serif" font-size="10.00"> </text>
<polyline fill="none" stroke="black" points="6.35352,-343 67.6465,-343 "/>
<text text-anchor="start" x="14.3535" y="-331" font-family="Helvetica,sans-Serif" font-size="10.00">+ Pblock()</text>
</a>
</g>
</g>
<!-- Node3&#45;&gt;Node2 -->
<g id="edge2" class="edge"><title>Node3&#45;&gt;Node2</title>
<path fill="none" stroke="midnightblue" d="M37,-314.801C37,-306.367 37,-296.993 37,-287.285"/>
<polygon fill="none" stroke="midnightblue" points="33.5001,-314.937 37,-324.937 40.5001,-314.937 33.5001,-314.937"/>
</g>
<!-- Node4 -->
<g id="node4" class="node"><title>Node4</title>
<g id="a_node4"><a xlink:href="class_periph.html" target="_top" xlink:title="Peripheral Class. ">
<polygon fill="none" stroke="red" points="-0.460449,-417 -0.460449,-591 74.4604,-591 74.4604,-417 -0.460449,-417"/>
<text text-anchor="middle" x="37" y="-579" font-family="Helvetica,sans-Serif" font-size="10.00">Periph</text>
<polyline fill="none" stroke="red" points="-0.460449,-573 74.4604,-573 "/>
<text text-anchor="start" x="7.53955" y="-561" font-family="Helvetica,sans-Serif" font-size="10.00"># port_</text>
<text text-anchor="start" x="7.53955" y="-551" font-family="Helvetica,sans-Serif" font-size="10.00"># fd</text>
<polyline fill="none" stroke="red" points="-0.460449,-545 74.4604,-545 "/>
<text text-anchor="start" x="7.53955" y="-533" font-family="Helvetica,sans-Serif" font-size="10.00">+ Periph()</text>
<text text-anchor="start" x="7.53955" y="-523" font-family="Helvetica,sans-Serif" font-size="10.00">+ open()</text>
<text text-anchor="start" x="7.53955" y="-513" font-family="Helvetica,sans-Serif" font-size="10.00">+ open()</text>
<text text-anchor="start" x="7.53955" y="-503" font-family="Helvetica,sans-Serif" font-size="10.00">+ setflags()</text>
<text text-anchor="start" x="7.53955" y="-493" font-family="Helvetica,sans-Serif" font-size="10.00">+ read()</text>
<text text-anchor="start" x="7.53955" y="-483" font-family="Helvetica,sans-Serif" font-size="10.00">+ read()</text>
<text text-anchor="start" x="7.53955" y="-473" font-family="Helvetica,sans-Serif" font-size="10.00">+ write()</text>
<text text-anchor="start" x="7.53955" y="-463" font-family="Helvetica,sans-Serif" font-size="10.00">+ readline()</text>
<text text-anchor="start" x="7.53955" y="-453" font-family="Helvetica,sans-Serif" font-size="10.00">+ write()</text>
<text text-anchor="start" x="7.53955" y="-443" font-family="Helvetica,sans-Serif" font-size="10.00">+ write()</text>
<text text-anchor="start" x="7.53955" y="-433" font-family="Helvetica,sans-Serif" font-size="10.00">and 7 more...</text>
<text text-anchor="start" x="7.53955" y="-423" font-family="Helvetica,sans-Serif" font-size="10.00"># _open()</text>
</a>
</g>
</g>
<!-- Node4&#45;&gt;Node3 -->
<g id="edge3" class="edge"><title>Node4&#45;&gt;Node3</title>
<path fill="none" stroke="midnightblue" d="M37,-406.483C37,-396.507 37,-387.087 37,-379.013"/>
<polygon fill="none" stroke="midnightblue" points="33.5001,-406.613 37,-416.614 40.5001,-406.614 33.5001,-406.613"/>
</g>
</g>
</svg>
