<?xml version="1.0" encoding="UTF-8" standalone="no"?>
<!DOCTYPE svg PUBLIC "-//W3C//DTD SVG 1.1//EN"
 "http://www.w3.org/Graphics/SVG/1.1/DTD/svg11.dtd">
<!-- Generated by graphviz version 2.36.0 (20140111.2315)
 -->
<!-- Title: Spi Pages: 1 -->
<svg width="82pt" height="590pt"
 viewBox="0.00 0.00 82.00 590.00" xmlns="http://www.w3.org/2000/svg" xmlns:xlink="http://www.w3.org/1999/xlink">
<g id="graph0" class="graph" transform="scale(1 1) rotate(0) translate(4 586)">
<title>Spi</title>
<!-- Node1 -->
<g id="node1" class="node"><title>Node1</title>
<polygon fill="#bfbfbf" stroke="black" points="-0.0429688,-1 -0.0429688,-135 74.043,-135 74.043,-1 -0.0429688,-1"/>
<text text-anchor="middle" x="37" y="-123" font-family="Helvetica,sans-Serif" font-size="10.00">Spi</text>
<polyline fill="none" stroke="black" points="-0.0429688,-117 74.043,-117 "/>
<text text-anchor="middle" x="37" y="-105" font-family="Helvetica,sans-Serif" font-size="10.00"> </text>
<polyline fill="none" stroke="black" points="-0.0429688,-99 74.043,-99 "/>
<text text-anchor="start" x="7.95703" y="-87" font-family="Helvetica,sans-Serif" font-size="10.00">+ Spi()</text>
<text text-anchor="start" x="7.95703" y="-77" font-family="Helvetica,sans-Serif" font-size="10.00">+ open()</text>
<text text-anchor="start" x="7.95703" y="-67" font-family="Helvetica,sans-Serif" font-size="10.00">+ getattr()</text>
<text text-anchor="start" x="7.95703" y="-57" font-family="Helvetica,sans-Serif" font-size="10.00">+ setattr()</text>
<text text-anchor="start" x="7.95703" y="-47" font-family="Helvetica,sans-Serif" font-size="10.00">+ swap()</text>
<text text-anchor="start" x="7.95703" y="-37" font-family="Helvetica,sans-Serif" font-size="10.00">+ setduplex()</text>
<text text-anchor="start" x="7.95703" y="-27" font-family="Helvetica,sans-Serif" font-size="10.00">+ setattr()</text>
<text text-anchor="start" x="7.95703" y="-17" font-family="Helvetica,sans-Serif" font-size="10.00">+ init()</text>
<text text-anchor="start" x="7.95703" y="-7" font-family="Helvetica,sans-Serif" font-size="10.00">+ getports()</text>
</g>
<!-- Node2 -->
<g id="node2" class="node"><title>Node2</title>
<g id="a_node2"><a xlink:href="class_pchar.html" target="_top" xlink:title="Peripheral Character Class. ">
<polygon fill="none" stroke="black" points="6.62695,-173 6.62695,-237 67.373,-237 67.373,-173 6.62695,-173"/>
<text text-anchor="middle" x="37" y="-225" font-family="Helvetica,sans-Serif" font-size="10.00">Pchar</text>
<polyline fill="none" stroke="black" points="6.62695,-219 67.373,-219 "/>
<text text-anchor="middle" x="37" y="-207" font-family="Helvetica,sans-Serif" font-size="10.00"> </text>
<polyline fill="none" stroke="black" points="6.62695,-201 67.373,-201 "/>
<text text-anchor="start" x="14.627" y="-189" font-family="Helvetica,sans-Serif" font-size="10.00">+ Pchar()</text>
<text text-anchor="start" x="14.627" y="-179" font-family="Helvetica,sans-Serif" font-size="10.00">+ getline()</text>
</a>
</g>
</g>
<!-- Node2&#45;&gt;Node1 -->
<g id="edge1" class="edge"><title>Node2&#45;&gt;Node1</title>
<path fill="none" stroke="midnightblue" d="M37,-162.462C37,-153.762 37,-144.383 37,-135.042"/>
<polygon fill="none" stroke="midnightblue" points="33.5001,-162.689 37,-172.689 40.5001,-162.689 33.5001,-162.689"/>
</g>
<!-- Node3 -->
<g id="node3" class="node"><title>Node3</title>
<g id="a_node3"><a xlink:href="class_periph.html" target="_top" xlink:title="Peripheral Class. ">
<polygon fill="none" stroke="black" points="-0.460449,-275 -0.460449,-449 74.4604,-449 74.4604,-275 -0.460449,-275"/>
<text text-anchor="middle" x="37" y="-437" font-family="Helvetica,sans-Serif" font-size="10.00">Periph</text>
<polyline fill="none" stroke="black" points="-0.460449,-431 74.4604,-431 "/>
<text text-anchor="start" x="7.53955" y="-419" font-family="Helvetica,sans-Serif" font-size="10.00"># port_</text>
<text text-anchor="start" x="7.53955" y="-409" font-family="Helvetica,sans-Serif" font-size="10.00"># fd</text>
<polyline fill="none" stroke="black" points="-0.460449,-403 74.4604,-403 "/>
<text text-anchor="start" x="7.53955" y="-391" font-family="Helvetica,sans-Serif" font-size="10.00">+ Periph()</text>
<text text-anchor="start" x="7.53955" y="-381" font-family="Helvetica,sans-Serif" font-size="10.00">+ open()</text>
<text text-anchor="start" x="7.53955" y="-371" font-family="Helvetica,sans-Serif" font-size="10.00">+ open()</text>
<text text-anchor="start" x="7.53955" y="-361" font-family="Helvetica,sans-Serif" font-size="10.00">+ setflags()</text>
<text text-anchor="start" x="7.53955" y="-351" font-family="Helvetica,sans-Serif" font-size="10.00">+ read()</text>
<text text-anchor="start" x="7.53955" y="-341" font-family="Helvetica,sans-Serif" font-size="10.00">+ read()</text>
<text text-anchor="start" x="7.53955" y="-331" font-family="Helvetica,sans-Serif" font-size="10.00">+ write()</text>
<text text-anchor="start" x="7.53955" y="-321" font-family="Helvetica,sans-Serif" font-size="10.00">+ readline()</text>
<text text-anchor="start" x="7.53955" y="-311" font-family="Helvetica,sans-Serif" font-size="10.00">+ write()</text>
<text text-anchor="start" x="7.53955" y="-301" font-family="Helvetica,sans-Serif" font-size="10.00">+ write()</text>
<text text-anchor="start" x="7.53955" y="-291" font-family="Helvetica,sans-Serif" font-size="10.00">and 7 more...</text>
<text text-anchor="start" x="7.53955" y="-281" font-family="Helvetica,sans-Serif" font-size="10.00"># _open()</text>
</a>
</g>
</g>
<!-- Node3&#45;&gt;Node2 -->
<g id="edge2" class="edge"><title>Node3&#45;&gt;Node2</title>
<path fill="none" stroke="midnightblue" d="M37,-264.842C37,-254.914 37,-245.421 37,-237.068"/>
<polygon fill="none" stroke="midnightblue" points="33.5001,-264.888 37,-274.888 40.5001,-264.888 33.5001,-264.888"/>
</g>
<!-- Node4 -->
<g id="node4" class="node"><title>Node4</title>
<g id="a_node4"><a xlink:href="class_phy.html" target="_top" xlink:title="Base Applib Class for Physical devices. ">
<polygon fill="none" stroke="black" points="12.4692,-487 12.4692,-581 61.5308,-581 61.5308,-487 12.4692,-487"/>
<text text-anchor="middle" x="37" y="-569" font-family="Helvetica,sans-Serif" font-size="10.00">Phy</text>
<polyline fill="none" stroke="black" points="12.4692,-563 61.5308,-563 "/>
<text text-anchor="middle" x="37" y="-551" font-family="Helvetica,sans-Serif" font-size="10.00"> </text>
<polyline fill="none" stroke="black" points="12.4692,-545 61.5308,-545 "/>
<text text-anchor="start" x="20.4692" y="-533" font-family="Helvetica,sans-Serif" font-size="10.00">+ Phy()</text>
<text text-anchor="start" x="20.4692" y="-523" font-family="Helvetica,sans-Serif" font-size="10.00">+ ioctl()</text>
<text text-anchor="start" x="20.4692" y="-513" font-family="Helvetica,sans-Serif" font-size="10.00">+ ioctl()</text>
<text text-anchor="start" x="20.4692" y="-503" font-family="Helvetica,sans-Serif" font-size="10.00">+ ioctl()</text>
<text text-anchor="start" x="20.4692" y="-493" font-family="Helvetica,sans-Serif" font-size="10.00">+ ioctl()</text>
</a>
</g>
</g>
<!-- Node4&#45;&gt;Node3 -->
<g id="edge3" class="edge"><title>Node4&#45;&gt;Node3</title>
<path fill="none" stroke="midnightblue" d="M37,-476.763C37,-467.836 37,-458.428 37,-449.004"/>
<polygon fill="none" stroke="midnightblue" points="33.5001,-476.996 37,-486.996 40.5001,-476.996 33.5001,-476.996"/>
</g>
</g>
</svg>
