<?xml version="1.0" encoding="UTF-8" standalone="no"?>
<!DOCTYPE svg PUBLIC "-//W3C//DTD SVG 1.1//EN"
 "http://www.w3.org/Graphics/SVG/1.1/DTD/svg11.dtd">
<!-- Generated by graphviz version 2.36.0 (20140111.2315)
 -->
<!-- Title: Calc::Ema_i16 Pages: 1 -->
<svg width="110pt" height="216pt"
 viewBox="0.00 0.00 110.00 216.00" xmlns="http://www.w3.org/2000/svg" xmlns:xlink="http://www.w3.org/1999/xlink">
<g id="graph0" class="graph" transform="scale(1 1) rotate(0) translate(4 212)">
<title>Calc::Ema_i16</title>
<!-- Node1 -->
<g id="node1" class="node"><title>Node1</title>
<polygon fill="#bfbfbf" stroke="black" points="10.4854,-1 10.4854,-55 91.5146,-55 91.5146,-1 10.4854,-1"/>
<text text-anchor="middle" x="51" y="-43" font-family="Helvetica,sans-Serif" font-size="10.00">Calc::Ema_i16</text>
<polyline fill="none" stroke="black" points="10.4854,-37 91.5146,-37 "/>
<text text-anchor="middle" x="51" y="-25" font-family="Helvetica,sans-Serif" font-size="10.00"> </text>
<polyline fill="none" stroke="black" points="10.4854,-19 91.5146,-19 "/>
<text text-anchor="start" x="18.4854" y="-7" font-family="Helvetica,sans-Serif" font-size="10.00">+ Ema_i16()</text>
</g>
<!-- Node2 -->
<g id="node2" class="node"><title>Node2</title>
<g id="a_node2"><a xlink:href="class_calc_1_1_ema.html" target="_top" xlink:title="{Calc::Ema\&lt; u8, i16,\l i32 \&gt;\n||+ Ema()\l+ calc()\l+ average()\l+ avg()\l+ set()\l+ small_max()\l}">
<polygon fill="none" stroke="black" points="-0.771973,-93 -0.771973,-207 102.772,-207 102.772,-93 -0.771973,-93"/>
<text text-anchor="start" x="7.22803" y="-195" font-family="Helvetica,sans-Serif" font-size="10.00">Calc::Ema&lt; u8, i16,</text>
<text text-anchor="middle" x="51" y="-185" font-family="Helvetica,sans-Serif" font-size="10.00"> i32 &gt;</text>
<polyline fill="none" stroke="black" points="-0.771973,-179 102.772,-179 "/>
<text text-anchor="middle" x="51" y="-167" font-family="Helvetica,sans-Serif" font-size="10.00"> </text>
<polyline fill="none" stroke="black" points="-0.771973,-161 102.772,-161 "/>
<text text-anchor="start" x="7.22803" y="-149" font-family="Helvetica,sans-Serif" font-size="10.00">+ Ema()</text>
<text text-anchor="start" x="7.22803" y="-139" font-family="Helvetica,sans-Serif" font-size="10.00">+ calc()</text>
<text text-anchor="start" x="7.22803" y="-129" font-family="Helvetica,sans-Serif" font-size="10.00">+ average()</text>
<text text-anchor="start" x="7.22803" y="-119" font-family="Helvetica,sans-Serif" font-size="10.00">+ avg()</text>
<text text-anchor="start" x="7.22803" y="-109" font-family="Helvetica,sans-Serif" font-size="10.00">+ set()</text>
<text text-anchor="start" x="7.22803" y="-99" font-family="Helvetica,sans-Serif" font-size="10.00">+ small_max()</text>
</a>
</g>
</g>
<!-- Node2&#45;&gt;Node1 -->
<g id="edge1" class="edge"><title>Node2&#45;&gt;Node1</title>
<path fill="none" stroke="midnightblue" d="M51,-82.6683C51,-72.92 51,-63.3972 51,-55.1446"/>
<polygon fill="none" stroke="midnightblue" points="47.5001,-82.8648 51,-92.8648 54.5001,-82.8648 47.5001,-82.8648"/>
</g>
</g>
</svg>
