<?xml version="1.0" encoding="UTF-8" standalone="no"?>
<!DOCTYPE svg PUBLIC "-//W3C//DTD SVG 1.1//EN"
 "http://www.w3.org/Graphics/SVG/1.1/DTD/svg11.dtd">
<!-- Generated by graphviz version 2.36.0 (20140111.2315)
 -->
<!-- Title: Hal::Spi Pages: 1 -->
<svg width="82pt" height="488pt"
 viewBox="0.00 0.00 82.00 488.00" xmlns="http://www.w3.org/2000/svg" xmlns:xlink="http://www.w3.org/1999/xlink">
<g id="graph0" class="graph" transform="scale(1 1) rotate(0) translate(4 484)">
<title>Hal::Spi</title>
<!-- Node1 -->
<g id="node1" class="node"><title>Node1</title>
<polygon fill="#bfbfbf" stroke="black" points="-0.0429688,-1 -0.0429688,-135 74.043,-135 74.043,-1 -0.0429688,-1"/>
<text text-anchor="middle" x="37" y="-123" font-family="Helvetica,sans-Serif" font-size="10.00">Hal::Spi</text>
<polyline fill="none" stroke="black" points="-0.0429688,-117 74.043,-117 "/>
<text text-anchor="middle" x="37" y="-105" font-family="Helvetica,sans-Serif" font-size="10.00"> </text>
<polyline fill="none" stroke="black" points="-0.0429688,-99 74.043,-99 "/>
<text text-anchor="start" x="7.95703" y="-87" font-family="Helvetica,sans-Serif" font-size="10.00">+ Spi()</text>
<text text-anchor="start" x="7.95703" y="-77" font-family="Helvetica,sans-Serif" font-size="10.00">+ open()</text>
<text text-anchor="start" x="7.95703" y="-67" font-family="Helvetica,sans-Serif" font-size="10.00">+ attr()</text>
<text text-anchor="start" x="7.95703" y="-57" font-family="Helvetica,sans-Serif" font-size="10.00">+ setattr()</text>
<text text-anchor="start" x="7.95703" y="-47" font-family="Helvetica,sans-Serif" font-size="10.00">+ swap()</text>
<text text-anchor="start" x="7.95703" y="-37" font-family="Helvetica,sans-Serif" font-size="10.00">+ setduplex()</text>
<text text-anchor="start" x="7.95703" y="-27" font-family="Helvetica,sans-Serif" font-size="10.00">+ setattr()</text>
<text text-anchor="start" x="7.95703" y="-17" font-family="Helvetica,sans-Serif" font-size="10.00">+ init()</text>
<text text-anchor="start" x="7.95703" y="-7" font-family="Helvetica,sans-Serif" font-size="10.00">+ ports()</text>
</g>
<!-- Node2 -->
<g id="node2" class="node"><title>Node2</title>
<g id="a_node2"><a xlink:href="class_hal_1_1_periph.html" target="_top" xlink:title="Peripheral Class. ">
<polygon fill="none" stroke="black" points="-0.460449,-173 -0.460449,-347 74.4604,-347 74.4604,-173 -0.460449,-173"/>
<text text-anchor="middle" x="37" y="-335" font-family="Helvetica,sans-Serif" font-size="10.00">Hal::Periph</text>
<polyline fill="none" stroke="black" points="-0.460449,-329 74.4604,-329 "/>
<text text-anchor="start" x="7.53955" y="-317" font-family="Helvetica,sans-Serif" font-size="10.00"># port_</text>
<text text-anchor="start" x="7.53955" y="-307" font-family="Helvetica,sans-Serif" font-size="10.00"># fd</text>
<polyline fill="none" stroke="black" points="-0.460449,-301 74.4604,-301 "/>
<text text-anchor="start" x="7.53955" y="-289" font-family="Helvetica,sans-Serif" font-size="10.00">+ Periph()</text>
<text text-anchor="start" x="7.53955" y="-279" font-family="Helvetica,sans-Serif" font-size="10.00">+ open()</text>
<text text-anchor="start" x="7.53955" y="-269" font-family="Helvetica,sans-Serif" font-size="10.00">+ open()</text>
<text text-anchor="start" x="7.53955" y="-259" font-family="Helvetica,sans-Serif" font-size="10.00">+ setflags()</text>
<text text-anchor="start" x="7.53955" y="-249" font-family="Helvetica,sans-Serif" font-size="10.00">+ read()</text>
<text text-anchor="start" x="7.53955" y="-239" font-family="Helvetica,sans-Serif" font-size="10.00">+ read()</text>
<text text-anchor="start" x="7.53955" y="-229" font-family="Helvetica,sans-Serif" font-size="10.00">+ write()</text>
<text text-anchor="start" x="7.53955" y="-219" font-family="Helvetica,sans-Serif" font-size="10.00">+ readline()</text>
<text text-anchor="start" x="7.53955" y="-209" font-family="Helvetica,sans-Serif" font-size="10.00">+ write()</text>
<text text-anchor="start" x="7.53955" y="-199" font-family="Helvetica,sans-Serif" font-size="10.00">+ write()</text>
<text text-anchor="start" x="7.53955" y="-189" font-family="Helvetica,sans-Serif" font-size="10.00">and 7 more...</text>
<text text-anchor="start" x="7.53955" y="-179" font-family="Helvetica,sans-Serif" font-size="10.00"># _open()</text>
</a>
</g>
</g>
<!-- Node2&#45;&gt;Node1 -->
<g id="edge1" class="edge"><title>Node2&#45;&gt;Node1</title>
<path fill="none" stroke="midnightblue" d="M37,-162.773C37,-153.436 37,-144.114 37,-135.169"/>
<polygon fill="none" stroke="midnightblue" points="33.5001,-162.895 37,-172.895 40.5001,-162.895 33.5001,-162.895"/>
</g>
<!-- Node3 -->
<g id="node3" class="node"><title>Node3</title>
<g id="a_node3"><a xlink:href="class_hal_1_1_phy.html" target="_top" xlink:title="Base Applib Class for Physical devices. ">
<polygon fill="none" stroke="black" points="10.1035,-385 10.1035,-479 63.8965,-479 63.8965,-385 10.1035,-385"/>
<text text-anchor="middle" x="37" y="-467" font-family="Helvetica,sans-Serif" font-size="10.00">Hal::Phy</text>
<polyline fill="none" stroke="black" points="10.1035,-461 63.8965,-461 "/>
<text text-anchor="middle" x="37" y="-449" font-family="Helvetica,sans-Serif" font-size="10.00"> </text>
<polyline fill="none" stroke="black" points="10.1035,-443 63.8965,-443 "/>
<text text-anchor="start" x="18.1035" y="-431" font-family="Helvetica,sans-Serif" font-size="10.00">+ Phy()</text>
<text text-anchor="start" x="18.1035" y="-421" font-family="Helvetica,sans-Serif" font-size="10.00">+ ioctl()</text>
<text text-anchor="start" x="18.1035" y="-411" font-family="Helvetica,sans-Serif" font-size="10.00">+ ioctl()</text>
<text text-anchor="start" x="18.1035" y="-401" font-family="Helvetica,sans-Serif" font-size="10.00">+ ioctl()</text>
<text text-anchor="start" x="18.1035" y="-391" font-family="Helvetica,sans-Serif" font-size="10.00">+ ioctl()</text>
</a>
</g>
</g>
<!-- Node3&#45;&gt;Node2 -->
<g id="edge2" class="edge"><title>Node3&#45;&gt;Node2</title>
<path fill="none" stroke="midnightblue" d="M37,-374.763C37,-365.836 37,-356.428 37,-347.004"/>
<polygon fill="none" stroke="midnightblue" points="33.5001,-374.996 37,-384.996 40.5001,-374.996 33.5001,-374.996"/>
</g>
</g>
</svg>
