<?xml version="1.0" encoding="UTF-8" standalone="no"?>
<!DOCTYPE svg PUBLIC "-//W3C//DTD SVG 1.1//EN"
 "http://www.w3.org/Graphics/SVG/1.1/DTD/svg11.dtd">
<!-- Generated by graphviz version 2.36.0 (20140111.2315)
 -->
<!-- Title: Calc::Rle Pages: 1 -->
<svg width="180pt" height="206pt"
 viewBox="0.00 0.00 180.00 206.00" xmlns="http://www.w3.org/2000/svg" xmlns:xlink="http://www.w3.org/1999/xlink">
<g id="graph0" class="graph" transform="scale(1 1) rotate(0) translate(4 202)">
<title>Calc::Rle</title>
<!-- Node1 -->
<g id="node1" class="node"><title>Node1</title>
<polygon fill="#bfbfbf" stroke="black" points="55.957,-113 55.957,-197 120.043,-197 120.043,-113 55.957,-113"/>
<text text-anchor="middle" x="88" y="-185" font-family="Helvetica,sans-Serif" font-size="10.00">Calc::Rle</text>
<polyline fill="none" stroke="black" points="55.957,-179 120.043,-179 "/>
<text text-anchor="middle" x="88" y="-167" font-family="Helvetica,sans-Serif" font-size="10.00"> </text>
<polyline fill="none" stroke="black" points="55.957,-161 120.043,-161 "/>
<text text-anchor="start" x="63.957" y="-149" font-family="Helvetica,sans-Serif" font-size="10.00">+ Rle()</text>
<text text-anchor="start" x="63.957" y="-139" font-family="Helvetica,sans-Serif" font-size="10.00">+ encode()</text>
<text text-anchor="start" x="63.957" y="-129" font-family="Helvetica,sans-Serif" font-size="10.00">+ decode()</text>
<text text-anchor="start" x="63.957" y="-119" font-family="Helvetica,sans-Serif" font-size="10.00">+ size()</text>
</g>
<!-- Node2 -->
<g id="node2" class="node"><title>Node2</title>
<g id="a_node2"><a xlink:href="class_calc_1_1_rle_appfs.html" target="_top" xlink:title="Class for reading/writing compressed file data using Appfs. ">
<polygon fill="none" stroke="black" points="-0.0688477,-1 -0.0688477,-75 82.0688,-75 82.0688,-1 -0.0688477,-1"/>
<text text-anchor="middle" x="41" y="-63" font-family="Helvetica,sans-Serif" font-size="10.00">Calc::RleAppfs</text>
<polyline fill="none" stroke="black" points="-0.0688477,-57 82.0688,-57 "/>
<text text-anchor="middle" x="41" y="-45" font-family="Helvetica,sans-Serif" font-size="10.00"> </text>
<polyline fill="none" stroke="black" points="-0.0688477,-39 82.0688,-39 "/>
<text text-anchor="start" x="7.93115" y="-27" font-family="Helvetica,sans-Serif" font-size="10.00">+ RleAppfs()</text>
<text text-anchor="start" x="7.93115" y="-17" font-family="Helvetica,sans-Serif" font-size="10.00">+ write()</text>
<text text-anchor="start" x="7.93115" y="-7" font-family="Helvetica,sans-Serif" font-size="10.00">+ read()</text>
</a>
</g>
</g>
<!-- Node1&#45;&gt;Node2 -->
<g id="edge1" class="edge"><title>Node1&#45;&gt;Node2</title>
<path fill="none" stroke="midnightblue" d="M67.3446,-103.46C63.4739,-93.9894 59.4987,-84.2628 55.8474,-75.3287"/>
<polygon fill="none" stroke="midnightblue" points="64.1416,-104.875 71.1647,-112.807 70.6213,-102.226 64.1416,-104.875"/>
</g>
<!-- Node3 -->
<g id="node3" class="node"><title>Node3</title>
<g id="a_node3"><a xlink:href="class_calc_1_1_rle_file.html" target="_top" xlink:title="Class for reading/writing compressed file data. ">
<polygon fill="none" stroke="black" points="99.6602,-6 99.6602,-70 172.34,-70 172.34,-6 99.6602,-6"/>
<text text-anchor="middle" x="136" y="-58" font-family="Helvetica,sans-Serif" font-size="10.00">Calc::RleFile</text>
<polyline fill="none" stroke="black" points="99.6602,-52 172.34,-52 "/>
<text text-anchor="middle" x="136" y="-40" font-family="Helvetica,sans-Serif" font-size="10.00"> </text>
<polyline fill="none" stroke="black" points="99.6602,-34 172.34,-34 "/>
<text text-anchor="start" x="107.66" y="-22" font-family="Helvetica,sans-Serif" font-size="10.00">+ write()</text>
<text text-anchor="start" x="107.66" y="-12" font-family="Helvetica,sans-Serif" font-size="10.00">+ read()</text>
</a>
</g>
</g>
<!-- Node1&#45;&gt;Node3 -->
<g id="edge2" class="edge"><title>Node1&#45;&gt;Node3</title>
<path fill="none" stroke="midnightblue" d="M109.11,-103.423C113.835,-92.1027 118.712,-80.4192 122.993,-70.1621"/>
<polygon fill="none" stroke="midnightblue" points="105.815,-102.231 105.194,-112.807 112.275,-104.927 105.815,-102.231"/>
</g>
</g>
</svg>
