<?xml version="1.0" encoding="UTF-8" standalone="no"?>
<!DOCTYPE svg PUBLIC "-//W3C//DTD SVG 1.1//EN"
 "http://www.w3.org/Graphics/SVG/1.1/DTD/svg11.dtd">
<!-- Generated by graphviz version 2.36.0 (20140111.2315)
 -->
<!-- Title: Sys::Event Pages: 1 -->
<svg width="90pt" height="226pt"
 viewBox="0.00 0.00 90.00 226.00" xmlns="http://www.w3.org/2000/svg" xmlns:xlink="http://www.w3.org/1999/xlink">
<g id="graph0" class="graph" transform="scale(1 1) rotate(0) translate(4 222)">
<title>Sys::Event</title>
<!-- Node1 -->
<g id="node1" class="node"><title>Node1</title>
<polygon fill="#bfbfbf" stroke="black" points="-0.769531,-113 -0.769531,-217 82.7695,-217 82.7695,-113 -0.769531,-113"/>
<text text-anchor="middle" x="41" y="-205" font-family="Helvetica,sans-Serif" font-size="10.00">Sys::Event</text>
<polyline fill="none" stroke="black" points="-0.769531,-199 82.7695,-199 "/>
<text text-anchor="middle" x="41" y="-187" font-family="Helvetica,sans-Serif" font-size="10.00"> </text>
<polyline fill="none" stroke="black" points="-0.769531,-181 82.7695,-181 "/>
<text text-anchor="start" x="7.23047" y="-169" font-family="Helvetica,sans-Serif" font-size="10.00">+ Event()</text>
<text text-anchor="start" x="7.23047" y="-159" font-family="Helvetica,sans-Serif" font-size="10.00">+ trigger()</text>
<text text-anchor="start" x="7.23047" y="-149" font-family="Helvetica,sans-Serif" font-size="10.00">+ trigger()</text>
<text text-anchor="start" x="7.23047" y="-139" font-family="Helvetica,sans-Serif" font-size="10.00">+ trigger()</text>
<text text-anchor="start" x="7.23047" y="-129" font-family="Helvetica,sans-Serif" font-size="10.00">+ trigger()</text>
<text text-anchor="start" x="7.23047" y="-119" font-family="Helvetica,sans-Serif" font-size="10.00">+ set_handler()</text>
</g>
<!-- Node2 -->
<g id="node2" class="node"><title>Node2</title>
<g id="a_node2"><a xlink:href="class_sys_1_1_event_phy.html" target="_top" xlink:title="Class for bridging physical events with Signal events. ">
<polygon fill="none" stroke="black" points="0.485352,-1 0.485352,-75 81.5146,-75 81.5146,-1 0.485352,-1"/>
<text text-anchor="middle" x="41" y="-63" font-family="Helvetica,sans-Serif" font-size="10.00">Sys::EventPhy</text>
<polyline fill="none" stroke="black" points="0.485352,-57 81.5146,-57 "/>
<text text-anchor="middle" x="41" y="-45" font-family="Helvetica,sans-Serif" font-size="10.00"> </text>
<polyline fill="none" stroke="black" points="0.485352,-39 81.5146,-39 "/>
<text text-anchor="start" x="8.48535" y="-27" font-family="Helvetica,sans-Serif" font-size="10.00">+ EventPhy()</text>
<text text-anchor="start" x="8.48535" y="-17" font-family="Helvetica,sans-Serif" font-size="10.00">+ EventPhy()</text>
<text text-anchor="start" x="8.48535" y="-7" font-family="Helvetica,sans-Serif" font-size="10.00">+ action()</text>
</a>
</g>
</g>
<!-- Node1&#45;&gt;Node2 -->
<g id="edge1" class="edge"><title>Node1&#45;&gt;Node2</title>
<path fill="none" stroke="midnightblue" d="M41,-102.601C41,-93.1556 41,-83.6763 41,-75.0268"/>
<polygon fill="none" stroke="midnightblue" points="37.5001,-102.797 41,-112.797 44.5001,-102.797 37.5001,-102.797"/>
</g>
</g>
</svg>
