<?xml version="1.0" encoding="UTF-8" standalone="no"?>
<!DOCTYPE svg PUBLIC "-//W3C//DTD SVG 1.1//EN"
 "http://www.w3.org/Graphics/SVG/1.1/DTD/svg11.dtd">
<!-- Generated by graphviz version 2.36.0 (20140111.2315)
 -->
<!-- Title: Sys::DbugStdout Pages: 1 -->
<svg width="98pt" height="286pt"
 viewBox="0.00 0.00 98.00 286.00" xmlns="http://www.w3.org/2000/svg" xmlns:xlink="http://www.w3.org/1999/xlink">
<g id="graph0" class="graph" transform="scale(1 1) rotate(0) translate(4 282)">
<title>Sys::DbugStdout</title>
<!-- Node1 -->
<g id="node1" class="node"><title>Node1</title>
<polygon fill="#bfbfbf" stroke="black" points="-0.521973,-1 -0.521973,-95 90.522,-95 90.522,-1 -0.521973,-1"/>
<text text-anchor="middle" x="45" y="-83" font-family="Helvetica,sans-Serif" font-size="10.00">Sys::DbugStdout</text>
<polyline fill="none" stroke="black" points="-0.521973,-77 90.522,-77 "/>
<text text-anchor="middle" x="45" y="-65" font-family="Helvetica,sans-Serif" font-size="10.00"> </text>
<polyline fill="none" stroke="black" points="-0.521973,-59 90.522,-59 "/>
<text text-anchor="start" x="7.47803" y="-47" font-family="Helvetica,sans-Serif" font-size="10.00">+ DbugStdout()</text>
<text text-anchor="start" x="7.47803" y="-37" font-family="Helvetica,sans-Serif" font-size="10.00">+ open()</text>
<text text-anchor="start" x="7.47803" y="-27" font-family="Helvetica,sans-Serif" font-size="10.00">+ close()</text>
<text text-anchor="start" x="7.47803" y="-17" font-family="Helvetica,sans-Serif" font-size="10.00">+ read()</text>
<text text-anchor="start" x="7.47803" y="-7" font-family="Helvetica,sans-Serif" font-size="10.00">+ write()</text>
</g>
<!-- Node2 -->
<g id="node2" class="node"><title>Node2</title>
<g id="a_node2"><a xlink:href="class_sys_1_1_dbug.html" target="_top" xlink:title="Debug Class. ">
<polygon fill="none" stroke="black" points="4.89795,-133 4.89795,-277 85.1021,-277 85.1021,-133 4.89795,-133"/>
<text text-anchor="middle" x="45" y="-265" font-family="Helvetica,sans-Serif" font-size="10.00">Sys::Dbug</text>
<polyline fill="none" stroke="black" points="4.89795,-259 85.1021,-259 "/>
<text text-anchor="middle" x="45" y="-247" font-family="Helvetica,sans-Serif" font-size="10.00"> </text>
<polyline fill="none" stroke="black" points="4.89795,-241 85.1021,-241 "/>
<text text-anchor="start" x="12.8979" y="-229" font-family="Helvetica,sans-Serif" font-size="10.00">+ Dbug()</text>
<text text-anchor="start" x="12.8979" y="-219" font-family="Helvetica,sans-Serif" font-size="10.00">+ setmode()</text>
<text text-anchor="start" x="12.8979" y="-209" font-family="Helvetica,sans-Serif" font-size="10.00">+ puts()</text>
<text text-anchor="start" x="12.8979" y="-199" font-family="Helvetica,sans-Serif" font-size="10.00">+ operator&lt;&lt;()</text>
<text text-anchor="start" x="12.8979" y="-189" font-family="Helvetica,sans-Serif" font-size="10.00">+ operator&lt;&lt;()</text>
<text text-anchor="start" x="12.8979" y="-179" font-family="Helvetica,sans-Serif" font-size="10.00">+ operator&lt;&lt;()</text>
<text text-anchor="start" x="12.8979" y="-169" font-family="Helvetica,sans-Serif" font-size="10.00">+ operator&lt;&lt;()</text>
<text text-anchor="start" x="12.8979" y="-159" font-family="Helvetica,sans-Serif" font-size="10.00">+ operator&lt;&lt;()</text>
<text text-anchor="start" x="12.8979" y="-149" font-family="Helvetica,sans-Serif" font-size="10.00">+ operator&lt;&lt;()</text>
<text text-anchor="start" x="12.8979" y="-139" font-family="Helvetica,sans-Serif" font-size="10.00">+ write()</text>
</a>
</g>
</g>
<!-- Node2&#45;&gt;Node1 -->
<g id="edge1" class="edge"><title>Node2&#45;&gt;Node1</title>
<path fill="none" stroke="midnightblue" d="M45,-122.681C45,-113.312 45,-104.018 45,-95.3476"/>
<polygon fill="none" stroke="midnightblue" points="41.5001,-122.851 45,-132.851 48.5001,-122.851 41.5001,-122.851"/>
</g>
</g>
</svg>
