<?xml version="1.0" encoding="UTF-8" standalone="no"?>
<!DOCTYPE svg PUBLIC "-//W3C//DTD SVG 1.1//EN"
 "http://www.w3.org/Graphics/SVG/1.1/DTD/svg11.dtd">
<!-- Generated by graphviz version 2.36.0 (20140111.2315)
 -->
<!-- Title: Fmt::Xml Pages: 1 -->
<svg width="108pt" height="528pt"
 viewBox="0.00 0.00 108.00 528.00" xmlns="http://www.w3.org/2000/svg" xmlns:xlink="http://www.w3.org/1999/xlink">
<g id="graph0" class="graph" transform="scale(1 1) rotate(0) translate(4 524)">
<title>Fmt::Xml</title>
<!-- Node1 -->
<g id="node1" class="node"><title>Node1</title>
<polygon fill="#bfbfbf" stroke="black" points="9.75879,-1 9.75879,-155 90.2412,-155 90.2412,-1 9.75879,-1"/>
<text text-anchor="middle" x="50" y="-143" font-family="Helvetica,sans-Serif" font-size="10.00">Fmt::Xml</text>
<polyline fill="none" stroke="black" points="9.75879,-137 90.2412,-137 "/>
<text text-anchor="middle" x="50" y="-125" font-family="Helvetica,sans-Serif" font-size="10.00"> </text>
<polyline fill="none" stroke="black" points="9.75879,-119 90.2412,-119 "/>
<text text-anchor="start" x="17.7588" y="-107" font-family="Helvetica,sans-Serif" font-size="10.00">+ Xml()</text>
<text text-anchor="start" x="17.7588" y="-97" font-family="Helvetica,sans-Serif" font-size="10.00">+ Xml()</text>
<text text-anchor="start" x="17.7588" y="-87" font-family="Helvetica,sans-Serif" font-size="10.00">+ init()</text>
<text text-anchor="start" x="17.7588" y="-77" font-family="Helvetica,sans-Serif" font-size="10.00">+ close()</text>
<text text-anchor="start" x="17.7588" y="-67" font-family="Helvetica,sans-Serif" font-size="10.00">+ exit()</text>
<text text-anchor="start" x="17.7588" y="-57" font-family="Helvetica,sans-Serif" font-size="10.00">+ value()</text>
<text text-anchor="start" x="17.7588" y="-47" font-family="Helvetica,sans-Serif" font-size="10.00">+ value()</text>
<text text-anchor="start" x="17.7588" y="-37" font-family="Helvetica,sans-Serif" font-size="10.00">+ setvalue()</text>
<text text-anchor="start" x="17.7588" y="-27" font-family="Helvetica,sans-Serif" font-size="10.00">+ setvalue()</text>
<text text-anchor="start" x="17.7588" y="-17" font-family="Helvetica,sans-Serif" font-size="10.00">+ find()</text>
<text text-anchor="start" x="17.7588" y="-7" font-family="Helvetica,sans-Serif" font-size="10.00">and 17 more...</text>
</g>
<!-- Node2 -->
<g id="node2" class="node"><title>Node2</title>
<g id="a_node2"><a xlink:href="class_sys_1_1_file.html" target="_top" xlink:title="File Class. ">
<polygon fill="none" stroke="black" points="-0.106934,-193 -0.106934,-387 100.107,-387 100.107,-193 -0.106934,-193"/>
<text text-anchor="middle" x="50" y="-375" font-family="Helvetica,sans-Serif" font-size="10.00">Sys::File</text>
<polyline fill="none" stroke="black" points="-0.106934,-369 100.107,-369 "/>
<text text-anchor="middle" x="50" y="-357" font-family="Helvetica,sans-Serif" font-size="10.00"> </text>
<polyline fill="none" stroke="black" points="-0.106934,-351 100.107,-351 "/>
<text text-anchor="start" x="7.89307" y="-339" font-family="Helvetica,sans-Serif" font-size="10.00">+ File()</text>
<text text-anchor="start" x="7.89307" y="-329" font-family="Helvetica,sans-Serif" font-size="10.00">+ open()</text>
<text text-anchor="start" x="7.89307" y="-319" font-family="Helvetica,sans-Serif" font-size="10.00">+ open_readwrite()</text>
<text text-anchor="start" x="7.89307" y="-309" font-family="Helvetica,sans-Serif" font-size="10.00">+ open_readonly()</text>
<text text-anchor="start" x="7.89307" y="-299" font-family="Helvetica,sans-Serif" font-size="10.00">+ open_append()</text>
<text text-anchor="start" x="7.89307" y="-289" font-family="Helvetica,sans-Serif" font-size="10.00">+ create()</text>
<text text-anchor="start" x="7.89307" y="-279" font-family="Helvetica,sans-Serif" font-size="10.00">+ read()</text>
<text text-anchor="start" x="7.89307" y="-269" font-family="Helvetica,sans-Serif" font-size="10.00">+ read()</text>
<text text-anchor="start" x="7.89307" y="-259" font-family="Helvetica,sans-Serif" font-size="10.00">+ write()</text>
<text text-anchor="start" x="7.89307" y="-249" font-family="Helvetica,sans-Serif" font-size="10.00">+ write()</text>
<text text-anchor="start" x="7.89307" y="-239" font-family="Helvetica,sans-Serif" font-size="10.00">and 12 more...</text>
<text text-anchor="start" x="7.89307" y="-229" font-family="Helvetica,sans-Serif" font-size="10.00">+ remove()</text>
<text text-anchor="start" x="7.89307" y="-219" font-family="Helvetica,sans-Serif" font-size="10.00">+ stat()</text>
<text text-anchor="start" x="7.89307" y="-209" font-family="Helvetica,sans-Serif" font-size="10.00">+ size()</text>
<text text-anchor="start" x="7.89307" y="-199" font-family="Helvetica,sans-Serif" font-size="10.00">+ name()</text>
</a>
</g>
</g>
<!-- Node2&#45;&gt;Node1 -->
<g id="edge1" class="edge"><title>Node2&#45;&gt;Node1</title>
<path fill="none" stroke="midnightblue" d="M50,-182.819C50,-173.51 50,-164.214 50,-155.223"/>
<polygon fill="none" stroke="midnightblue" points="46.5001,-182.911 50,-192.911 53.5001,-182.911 46.5001,-182.911"/>
</g>
<!-- Node3 -->
<g id="node3" class="node"><title>Node3</title>
<g id="a_node3"><a xlink:href="class_hal_1_1_phy.html" target="_top" xlink:title="Base Applib Class for Physical devices. ">
<polygon fill="none" stroke="black" points="23.1035,-425 23.1035,-519 76.8965,-519 76.8965,-425 23.1035,-425"/>
<text text-anchor="middle" x="50" y="-507" font-family="Helvetica,sans-Serif" font-size="10.00">Hal::Phy</text>
<polyline fill="none" stroke="black" points="23.1035,-501 76.8965,-501 "/>
<text text-anchor="middle" x="50" y="-489" font-family="Helvetica,sans-Serif" font-size="10.00"> </text>
<polyline fill="none" stroke="black" points="23.1035,-483 76.8965,-483 "/>
<text text-anchor="start" x="31.1035" y="-471" font-family="Helvetica,sans-Serif" font-size="10.00">+ Phy()</text>
<text text-anchor="start" x="31.1035" y="-461" font-family="Helvetica,sans-Serif" font-size="10.00">+ ioctl()</text>
<text text-anchor="start" x="31.1035" y="-451" font-family="Helvetica,sans-Serif" font-size="10.00">+ ioctl()</text>
<text text-anchor="start" x="31.1035" y="-441" font-family="Helvetica,sans-Serif" font-size="10.00">+ ioctl()</text>
<text text-anchor="start" x="31.1035" y="-431" font-family="Helvetica,sans-Serif" font-size="10.00">+ ioctl()</text>
</a>
</g>
</g>
<!-- Node3&#45;&gt;Node2 -->
<g id="edge2" class="edge"><title>Node3&#45;&gt;Node2</title>
<path fill="none" stroke="midnightblue" d="M50,-414.613C50,-405.852 50,-396.595 50,-387.247"/>
<polygon fill="none" stroke="midnightblue" points="46.5001,-414.645 50,-424.646 53.5001,-414.646 46.5001,-414.645"/>
</g>
</g>
</svg>
