<?xml version="1.0" encoding="UTF-8" standalone="no"?>
<!DOCTYPE svg PUBLIC "-//W3C//DTD SVG 1.1//EN"
 "http://www.w3.org/Graphics/SVG/1.1/DTD/svg11.dtd">
<!-- Generated by graphviz version 2.36.0 (20140111.2315)
 -->
<!-- Title: include/Sys Pages: 1 -->
<svg width="134pt" height="150pt"
 viewBox="0.00 0.00 134.00 150.00" xmlns="http://www.w3.org/2000/svg" xmlns:xlink="http://www.w3.org/1999/xlink">
<g id="graph0" class="graph" transform="scale(1 1) rotate(0) translate(4 146)">
<title>include/Sys</title>
<g id="clust1" class="cluster"><title>clusterdir_d44c64559bbebec7f509842c48db8b23</title>
<g id="a_clust1"><a xlink:href="dir_d44c64559bbebec7f509842c48db8b23.html" target="_top" xlink:title="include">
<polygon fill="#ddddee" stroke="black" points="28,-64 28,-134 98,-134 98,-64 28,-64"/>
<text text-anchor="middle" x="63" y="-122" font-family="Helvetica,sans-Serif" font-size="10.00">include</text>
</a>
</g>
</g>
<!-- dir_b142eaf1c758882af30358f2d78f1e20 -->
<g id="node1" class="node"><title>dir_b142eaf1c758882af30358f2d78f1e20</title>
<g id="a_node1"><a xlink:href="dir_b142eaf1c758882af30358f2d78f1e20.html" target="_top" xlink:title="Sys">
<polygon fill="#eeeeff" stroke="black" points="90,-108 36,-108 36,-72 90,-72 90,-108"/>
<text text-anchor="middle" x="63" y="-87" font-family="Helvetica,sans-Serif" font-size="10.00">Sys</text>
</a>
</g>
</g>
<!-- dir_73d196bab2a1569080baa8a8aeaf175c -->
<g id="node2" class="node"><title>dir_73d196bab2a1569080baa8a8aeaf175c</title>
<g id="a_node2"><a xlink:href="dir_73d196bab2a1569080baa8a8aeaf175c.html" target="_top" xlink:title="Hal">
<polygon fill="none" stroke="black" points="54,-36 0,-36 0,-0 54,-0 54,-36"/>
<text text-anchor="middle" x="27" y="-15" font-family="Helvetica,sans-Serif" font-size="10.00">Hal</text>
</a>
</g>
</g>
<!-- dir_b142eaf1c758882af30358f2d78f1e20&#45;&gt;dir_73d196bab2a1569080baa8a8aeaf175c -->
<g id="edge2" class="edge"><title>dir_b142eaf1c758882af30358f2d78f1e20&#45;&gt;dir_73d196bab2a1569080baa8a8aeaf175c</title>
<path fill="none" stroke="black" d="M48.1854,-71.6966C43.2655,-63.7284 38.0989,-54.0995 33.9477,-45.2641"/>
<polygon fill="black" stroke="black" points="37.1438,-43.8373 29.9015,-36.1043 30.7407,-46.6659 37.1438,-43.8373"/>
<g id="a_edge2&#45;headlabel"><a xlink:href="dir_000006_000004.html" target="_top" xlink:title="2">
<text text-anchor="middle" x="41.1934" y="-42.9782" font-family="Helvetica,sans-Serif" font-size="10.00">2</text>
</a>
</g>
</g>
<!-- dir_67799cdd02442778bdf31f2a76de14e4 -->
<g id="node3" class="node"><title>dir_67799cdd02442778bdf31f2a76de14e4</title>
<g id="a_node3"><a xlink:href="dir_67799cdd02442778bdf31f2a76de14e4.html" target="_top" xlink:title="Var">
<polygon fill="none" stroke="black" points="126,-36 72,-36 72,-0 126,-0 126,-36"/>
<text text-anchor="middle" x="99" y="-15" font-family="Helvetica,sans-Serif" font-size="10.00">Var</text>
</a>
</g>
</g>
<!-- dir_b142eaf1c758882af30358f2d78f1e20&#45;&gt;dir_67799cdd02442778bdf31f2a76de14e4 -->
<g id="edge3" class="edge"><title>dir_b142eaf1c758882af30358f2d78f1e20&#45;&gt;dir_67799cdd02442778bdf31f2a76de14e4</title>
<path fill="none" stroke="black" d="M71.8989,-71.6966C75.9968,-63.7284 80.9488,-54.0995 85.4927,-45.2641"/>
<polygon fill="black" stroke="black" points="88.7425,-46.598 90.2035,-36.1043 82.5174,-43.3965 88.7425,-46.598"/>
<g id="a_edge3&#45;headlabel"><a xlink:href="dir_000006_000007.html" target="_top" xlink:title="2">
<text text-anchor="middle" x="89.6235" y="-48.0931" font-family="Helvetica,sans-Serif" font-size="10.00">2</text>
</a>
</g>
</g>
<!-- dir_73d196bab2a1569080baa8a8aeaf175c&#45;&gt;dir_b142eaf1c758882af30358f2d78f1e20 -->
<g id="edge1" class="edge"><title>dir_73d196bab2a1569080baa8a8aeaf175c&#45;&gt;dir_b142eaf1c758882af30358f2d78f1e20</title>
<path fill="none" stroke="black" d="M41.6915,-36.1043C46.6072,-44.0447 51.7801,-53.6661 55.9482,-62.5146"/>
<polygon fill="black" stroke="black" points="52.7657,-63.9719 60.0168,-71.6966 59.1655,-61.136 52.7657,-63.9719"/>
<g id="a_edge1&#45;headlabel"><a xlink:href="dir_000004_000006.html" target="_top" xlink:title="1">
<text text-anchor="middle" x="48.7136" y="-58.8357" font-family="Helvetica,sans-Serif" font-size="10.00">1</text>
</a>
</g>
</g>
</g>
</svg>
