<?xml version="1.0" encoding="UTF-8" standalone="no"?>
<!DOCTYPE svg PUBLIC "-//W3C//DTD SVG 1.1//EN"
 "http://www.w3.org/Graphics/SVG/1.1/DTD/svg11.dtd">
<!-- Generated by graphviz version 2.34.0 (20130907.0228)
 -->
<!-- Title: /Users/tgil/git/CoActionOS/CoActionOS/src/sys/unistd/_close.c Pages: 1 -->
<svg width="1070pt" height="344pt"
 viewBox="0.00 0.00 1069.85 344.00" xmlns="http://www.w3.org/2000/svg" xmlns:xlink="http://www.w3.org/1999/xlink">
<g id="graph0" class="graph" transform="scale(1 1) rotate(0) translate(4 340)">
<title>/Users/tgil/git/CoActionOS/CoActionOS/src/sys/unistd/_close.c</title>
<!-- Node1 -->
<g id="node1" class="node"><title>Node1</title>
<polygon fill="#bfbfbf" stroke="black" points="699.931,-291 699.931,-335 822.069,-335 822.069,-291 699.931,-291"/>
<text text-anchor="start" x="707.931" y="-321" font-family="Helvetica,sans-Serif" font-size="10.00">/Users/tgil/git/CoAction</text>
<text text-anchor="start" x="707.931" y="-309" font-family="Helvetica,sans-Serif" font-size="10.00">OS/CoActionOS/src/sys</text>
<text text-anchor="middle" x="761" y="-297" font-family="Helvetica,sans-Serif" font-size="10.00">/unistd/_close.c</text>
</g>
<!-- Node2 -->
<g id="node2" class="node"><title>Node2</title>
<g id="a_node2"><a xlink:href="hwpl_8h.html" target="_top" xlink:title="HWPL Header file (includes all other header files) ">
<polygon fill="none" stroke="black" points="806.547,-117 806.547,-137 851.453,-137 851.453,-117 806.547,-117"/>
<text text-anchor="middle" x="829" y="-123" font-family="Helvetica,sans-Serif" font-size="10.00">hwpl.h</text>
</a>
</g>
</g>
<!-- Node1&#45;&gt;Node2 -->
<g id="edge1" class="edge"><title>Node1&#45;&gt;Node2</title>
<path fill="none" stroke="midnightblue" d="M782.499,-290.966C791.775,-280.675 801.881,-267.59 808,-254 823.95,-218.578 827.904,-172.636 828.812,-147.157"/>
<polygon fill="midnightblue" stroke="midnightblue" points="832.314,-147.08 829.046,-137.001 825.316,-146.918 832.314,-147.08"/>
</g>
<!-- Node11 -->
<g id="node11" class="node"><title>Node11</title>
<g id="a_node11"><a xlink:href="sysfs_8h_source.html" target="_top" xlink:title="sysfs.h">
<polygon fill="none" stroke="black" points="581.441,-175 581.441,-195 628.559,-195 628.559,-175 581.441,-175"/>
<text text-anchor="middle" x="605" y="-181" font-family="Helvetica,sans-Serif" font-size="10.00">sysfs.h</text>
</a>
</g>
</g>
<!-- Node1&#45;&gt;Node11 -->
<g id="edge12" class="edge"><title>Node1&#45;&gt;Node11</title>
<path fill="none" stroke="midnightblue" d="M734.889,-290.91C703.604,-265.642 651.937,-223.911 624.131,-201.452"/>
<polygon fill="midnightblue" stroke="midnightblue" points="626.295,-198.701 616.316,-195.14 621.897,-204.146 626.295,-198.701"/>
</g>
<!-- Node19 -->
<g id="node19" class="node"><title>Node19</title>
<g id="a_node19"><a xlink:href="unistd__fs_8h_source.html" target="_top" xlink:title="unistd_fs.h">
<polygon fill="none" stroke="black" points="232.818,-233 232.818,-253 297.182,-253 297.182,-233 232.818,-233"/>
<text text-anchor="middle" x="265" y="-239" font-family="Helvetica,sans-Serif" font-size="10.00">unistd_fs.h</text>
</a>
</g>
</g>
<!-- Node1&#45;&gt;Node19 -->
<g id="edge29" class="edge"><title>Node1&#45;&gt;Node19</title>
<path fill="none" stroke="midnightblue" d="M699.683,-303.594C597.566,-289.594 395.218,-261.852 307.361,-249.808"/>
<polygon fill="midnightblue" stroke="midnightblue" points="307.612,-246.309 297.229,-248.418 306.661,-253.244 307.612,-246.309"/>
</g>
<!-- Node24 -->
<g id="node24" class="node"><title>Node24</title>
<g id="a_node24"><a xlink:href="unistd__flags_8h_source.html" target="_top" xlink:title="unistd_flags.h">
<polygon fill="none" stroke="black" points="722.146,-233 722.146,-253 799.854,-253 799.854,-233 722.146,-233"/>
<text text-anchor="middle" x="761" y="-239" font-family="Helvetica,sans-Serif" font-size="10.00">unistd_flags.h</text>
</a>
</g>
</g>
<!-- Node1&#45;&gt;Node24 -->
<g id="edge37" class="edge"><title>Node1&#45;&gt;Node24</title>
<path fill="none" stroke="midnightblue" d="M761,-290.857C761,-282.074 761,-271.948 761,-263.362"/>
<polygon fill="midnightblue" stroke="midnightblue" points="764.5,-263.204 761,-253.204 757.5,-263.204 764.5,-263.204"/>
</g>
<!-- Node25 -->
<g id="node25" class="node"><title>Node25</title>
<polygon fill="none" stroke="#bfbfbf" points="929.254,-233 929.254,-253 1004.75,-253 1004.75,-233 929.254,-233"/>
<text text-anchor="middle" x="967" y="-239" font-family="Helvetica,sans-Serif" font-size="10.00">hwpl/debug.h</text>
</g>
<!-- Node1&#45;&gt;Node25 -->
<g id="edge43" class="edge"><title>Node1&#45;&gt;Node25</title>
<path fill="none" stroke="midnightblue" d="M822.249,-291.782C857.306,-280.21 900.129,-266.074 930.068,-256.191"/>
<polygon fill="midnightblue" stroke="midnightblue" points="931.298,-259.471 939.697,-253.013 929.104,-252.824 931.298,-259.471"/>
</g>
<!-- Node3 -->
<g id="node3" class="node"><title>Node3</title>
<polygon fill="none" stroke="#bfbfbf" points="645.879,-1 645.879,-21 694.121,-21 694.121,-1 645.879,-1"/>
<text text-anchor="middle" x="670" y="-7" font-family="Helvetica,sans-Serif" font-size="10.00">stdint.h</text>
</g>
<!-- Node2&#45;&gt;Node3 -->
<g id="edge2" class="edge"><title>Node2&#45;&gt;Node3</title>
<path fill="none" stroke="midnightblue" d="M851.591,-121.592C891.556,-112.829 967.987,-91.1586 940,-58 910.221,-22.7185 770.261,-14.4942 704.412,-12.5796"/>
<polygon fill="midnightblue" stroke="midnightblue" points="704.222,-9.07364 694.135,-12.3149 704.041,-16.0713 704.222,-9.07364"/>
</g>
<!-- Node4 -->
<g id="node4" class="node"><title>Node4</title>
<polygon fill="none" stroke="#bfbfbf" points="884.158,-59 884.158,-79 931.842,-79 931.842,-59 884.158,-59"/>
<text text-anchor="middle" x="908" y="-65" font-family="Helvetica,sans-Serif" font-size="10.00">stdlib.h</text>
</g>
<!-- Node2&#45;&gt;Node4 -->
<g id="edge3" class="edge"><title>Node2&#45;&gt;Node4</title>
<path fill="none" stroke="midnightblue" d="M842.045,-116.753C854.239,-108.109 872.659,-95.0518 886.936,-84.9314"/>
<polygon fill="midnightblue" stroke="midnightblue" points="889.063,-87.7137 895.197,-79.0752 885.015,-82.0029 889.063,-87.7137"/>
</g>
<!-- Node5 -->
<g id="node5" class="node"><title>Node5</title>
<polygon fill="none" stroke="#bfbfbf" points="987.604,-59 987.604,-79 1036.4,-79 1036.4,-59 987.604,-59"/>
<text text-anchor="middle" x="1012" y="-65" font-family="Helvetica,sans-Serif" font-size="10.00">string.h</text>
</g>
<!-- Node2&#45;&gt;Node5 -->
<g id="edge4" class="edge"><title>Node2&#45;&gt;Node5</title>
<path fill="none" stroke="midnightblue" d="M851.807,-119.021C883.423,-109.346 940.825,-91.7803 977.643,-80.5135"/>
<polygon fill="midnightblue" stroke="midnightblue" points="978.906,-83.7875 987.444,-77.5145 976.857,-77.0939 978.906,-83.7875"/>
</g>
<!-- Node6 -->
<g id="node6" class="node"><title>Node6</title>
<polygon fill="none" stroke="#bfbfbf" points="698.269,-59 698.269,-79 743.731,-79 743.731,-59 698.269,-59"/>
<text text-anchor="middle" x="721" y="-65" font-family="Helvetica,sans-Serif" font-size="10.00">stdio.h</text>
</g>
<!-- Node2&#45;&gt;Node6 -->
<g id="edge5" class="edge"><title>Node2&#45;&gt;Node6</title>
<path fill="none" stroke="midnightblue" d="M811.166,-116.753C793.866,-107.783 767.402,-94.0601 747.612,-83.7986"/>
<polygon fill="midnightblue" stroke="midnightblue" points="748.991,-80.5713 738.502,-79.0752 745.769,-86.7856 748.991,-80.5713"/>
</g>
<!-- Node7 -->
<g id="node7" class="node"><title>Node7</title>
<polygon fill="none" stroke="#bfbfbf" points="513.707,-1 513.707,-21 570.293,-21 570.293,-1 513.707,-1"/>
<text text-anchor="middle" x="542" y="-7" font-family="Helvetica,sans-Serif" font-size="10.00">stdbool.h</text>
</g>
<!-- Node2&#45;&gt;Node7 -->
<g id="edge6" class="edge"><title>Node2&#45;&gt;Node7</title>
<path fill="none" stroke="midnightblue" d="M821.513,-116.894C808.826,-102.105 781.583,-73.0093 752,-58 696.499,-29.8405 624.202,-18.8485 580.538,-14.6068"/>
<polygon fill="midnightblue" stroke="midnightblue" points="580.62,-11.1001 570.347,-13.6894 579.992,-18.0719 580.62,-11.1001"/>
</g>
<!-- Node8 -->
<g id="node8" class="node"><title>Node8</title>
<polygon fill="none" stroke="#bfbfbf" points="799.707,-59 799.707,-79 866.293,-79 866.293,-59 799.707,-59"/>
<text text-anchor="middle" x="833" y="-65" font-family="Helvetica,sans-Serif" font-size="10.00">hwpl/fault.h</text>
</g>
<!-- Node2&#45;&gt;Node8 -->
<g id="edge7" class="edge"><title>Node2&#45;&gt;Node8</title>
<path fill="none" stroke="midnightblue" d="M829.661,-116.753C830.196,-109.25 830.97,-98.4238 831.637,-89.0781"/>
<polygon fill="midnightblue" stroke="midnightblue" points="835.13,-89.2992 832.352,-79.0752 828.148,-88.8004 835.13,-89.2992"/>
</g>
<!-- Node9 -->
<g id="node9" class="node"><title>Node9</title>
<polygon fill="none" stroke="#bfbfbf" points="349.431,-1 349.431,-21 416.569,-21 416.569,-1 349.431,-1"/>
<text text-anchor="middle" x="383" y="-7" font-family="Helvetica,sans-Serif" font-size="10.00">hwpl/arch.h</text>
</g>
<!-- Node2&#45;&gt;Node9 -->
<g id="edge8" class="edge"><title>Node2&#45;&gt;Node9</title>
<path fill="none" stroke="midnightblue" d="M806.176,-118.825C802.15,-117.747 797.975,-116.748 794,-116 709.988,-100.19 479.723,-130.843 411,-80 395.638,-68.635 388.668,-47.3153 385.528,-31.5659"/>
<polygon fill="midnightblue" stroke="midnightblue" points="388.919,-30.61 383.854,-21.3043 382.01,-31.7375 388.919,-30.61"/>
</g>
<!-- Node10 -->
<g id="node10" class="node"><title>Node10</title>
<g id="a_node10"><a xlink:href="types_8h_source.html" target="_top" xlink:title="hwpl/types.h">
<polygon fill="none" stroke="black" points="570.207,-59 570.207,-79 641.793,-79 641.793,-59 570.207,-59"/>
<text text-anchor="middle" x="606" y="-65" font-family="Helvetica,sans-Serif" font-size="10.00">hwpl/types.h</text>
</a>
</g>
</g>
<!-- Node2&#45;&gt;Node10 -->
<g id="edge9" class="edge"><title>Node2&#45;&gt;Node10</title>
<path fill="none" stroke="midnightblue" d="M806.442,-119.417C802.311,-118.251 798.032,-117.069 794,-116 745.55,-103.156 689.731,-89.6619 651.581,-80.6361"/>
<polygon fill="midnightblue" stroke="midnightblue" points="652.331,-77.2171 641.795,-78.3271 650.724,-84.03 652.331,-77.2171"/>
</g>
<!-- Node10&#45;&gt;Node3 -->
<g id="edge10" class="edge"><title>Node10&#45;&gt;Node3</title>
<path fill="none" stroke="midnightblue" d="M616.568,-58.7527C626.168,-50.3534 640.529,-37.7874 651.946,-27.7976"/>
<polygon fill="midnightblue" stroke="midnightblue" points="654.407,-30.2943 659.628,-21.0752 649.798,-25.0262 654.407,-30.2943"/>
</g>
<!-- Node10&#45;&gt;Node7 -->
<g id="edge11" class="edge"><title>Node10&#45;&gt;Node7</title>
<path fill="none" stroke="midnightblue" d="M595.432,-58.7527C585.832,-50.3534 571.471,-37.7874 560.054,-27.7976"/>
<polygon fill="midnightblue" stroke="midnightblue" points="562.202,-25.0262 552.372,-21.0752 557.593,-30.2943 562.202,-25.0262"/>
</g>
<!-- Node11&#45;&gt;Node3 -->
<g id="edge15" class="edge"><title>Node11&#45;&gt;Node3</title>
<path fill="none" stroke="midnightblue" d="M610.341,-174.666C615.473,-165.498 623.273,-151.029 629,-138 645.135,-101.293 658.305,-56.1588 665.068,-31.0907"/>
<polygon fill="midnightblue" stroke="midnightblue" points="668.541,-31.6496 667.712,-21.0872 661.773,-29.8608 668.541,-31.6496"/>
</g>
<!-- Node11&#45;&gt;Node7 -->
<g id="edge13" class="edge"><title>Node11&#45;&gt;Node7</title>
<path fill="none" stroke="midnightblue" d="M609.083,-174.594C614.375,-160.88 621.828,-134.967 612,-116 599.236,-91.3657 576.992,-102.673 561,-80 550.854,-65.615 546.112,-45.9702 543.904,-31.4936"/>
<polygon fill="midnightblue" stroke="midnightblue" points="547.33,-30.6821 542.622,-21.191 540.384,-31.5467 547.33,-30.6821"/>
</g>
<!-- Node12 -->
<g id="node12" class="node"><title>Node12</title>
<polygon fill="none" stroke="#bfbfbf" points="467.99,-117 467.99,-137 534.01,-137 534.01,-117 467.99,-117"/>
<text text-anchor="middle" x="501" y="-123" font-family="Helvetica,sans-Serif" font-size="10.00">sys/types.h</text>
</g>
<!-- Node11&#45;&gt;Node12 -->
<g id="edge14" class="edge"><title>Node11&#45;&gt;Node12</title>
<path fill="none" stroke="midnightblue" d="M587.827,-174.753C571.243,-165.823 545.915,-152.185 526.886,-141.939"/>
<polygon fill="midnightblue" stroke="midnightblue" points="528.318,-138.735 517.854,-137.075 524.999,-144.898 528.318,-138.735"/>
</g>
<!-- Node13 -->
<g id="node13" class="node"><title>Node13</title>
<polygon fill="none" stroke="#bfbfbf" points="552.209,-117 552.209,-137 603.791,-137 603.791,-117 552.209,-117"/>
<text text-anchor="middle" x="578" y="-123" font-family="Helvetica,sans-Serif" font-size="10.00">stddef.h</text>
</g>
<!-- Node11&#45;&gt;Node13 -->
<g id="edge16" class="edge"><title>Node11&#45;&gt;Node13</title>
<path fill="none" stroke="midnightblue" d="M600.541,-174.753C596.806,-167.006 591.362,-155.714 586.76,-146.169"/>
<polygon fill="midnightblue" stroke="midnightblue" points="589.871,-144.563 582.376,-137.075 583.566,-147.603 589.871,-144.563"/>
</g>
<!-- Node14 -->
<g id="node14" class="node"><title>Node14</title>
<polygon fill="none" stroke="#bfbfbf" points="267.882,-59 267.882,-79 326.118,-79 326.118,-59 267.882,-59"/>
<text text-anchor="middle" x="297" y="-65" font-family="Helvetica,sans-Serif" font-size="10.00">sys/stat.h</text>
</g>
<!-- Node11&#45;&gt;Node14 -->
<g id="edge17" class="edge"><title>Node11&#45;&gt;Node14</title>
<path fill="none" stroke="midnightblue" d="M581.363,-182.397C540.185,-178.882 453.351,-168.23 387,-138 358.514,-125.022 330.513,-101.74 313.497,-86.081"/>
<polygon fill="midnightblue" stroke="midnightblue" points="315.751,-83.3954 306.072,-79.0848 310.95,-88.49 315.751,-83.3954"/>
</g>
<!-- Node15 -->
<g id="node15" class="node"><title>Node15</title>
<polygon fill="none" stroke="#bfbfbf" points="736.323,-117 736.323,-137 785.677,-137 785.677,-117 736.323,-117"/>
<text text-anchor="middle" x="761" y="-123" font-family="Helvetica,sans-Serif" font-size="10.00">dirent.h</text>
</g>
<!-- Node11&#45;&gt;Node15 -->
<g id="edge18" class="edge"><title>Node11&#45;&gt;Node15</title>
<path fill="none" stroke="midnightblue" d="M628.693,-175.495C654.806,-166.121 697.041,-150.96 726.754,-140.293"/>
<polygon fill="midnightblue" stroke="midnightblue" points="728.08,-143.536 736.31,-136.863 725.715,-136.948 728.08,-143.536"/>
</g>
<!-- Node16 -->
<g id="node16" class="node"><title>Node16</title>
<g id="a_node16"><a xlink:href="device_8h_source.html" target="_top" xlink:title="device.h">
<polygon fill="none" stroke="black" points="396.377,-117 396.377,-137 449.623,-137 449.623,-117 396.377,-117"/>
<text text-anchor="middle" x="423" y="-123" font-family="Helvetica,sans-Serif" font-size="10.00">device.h</text>
</a>
</g>
</g>
<!-- Node11&#45;&gt;Node16 -->
<g id="edge19" class="edge"><title>Node11&#45;&gt;Node16</title>
<path fill="none" stroke="midnightblue" d="M581.207,-176.679C550.205,-167.14 495.69,-150.366 459.457,-139.218"/>
<polygon fill="midnightblue" stroke="midnightblue" points="460.344,-135.829 449.757,-136.233 458.285,-142.519 460.344,-135.829"/>
</g>
<!-- Node16&#45;&gt;Node7 -->
<g id="edge21" class="edge"><title>Node16&#45;&gt;Node7</title>
<path fill="none" stroke="midnightblue" d="M437.025,-116.991C450.089,-108.285 469.784,-94.3398 485,-80 501.711,-64.2517 518.287,-43.7881 529.219,-29.4397"/>
<polygon fill="midnightblue" stroke="midnightblue" points="532.053,-31.4947 535.247,-21.3929 526.45,-27.2977 532.053,-31.4947"/>
</g>
<!-- Node16&#45;&gt;Node9 -->
<g id="edge23" class="edge"><title>Node16&#45;&gt;Node9</title>
<path fill="none" stroke="midnightblue" d="M409.498,-116.853C398.69,-108.643 384.328,-95.5173 378,-80 371.651,-64.4318 373.886,-45.2071 377.135,-31.1752"/>
<polygon fill="midnightblue" stroke="midnightblue" points="380.599,-31.77 379.812,-21.2044 373.838,-29.9544 380.599,-31.77"/>
</g>
<!-- Node16&#45;&gt;Node10 -->
<g id="edge22" class="edge"><title>Node16&#45;&gt;Node10</title>
<path fill="none" stroke="midnightblue" d="M450.002,-117.737C480.769,-108.322 531.331,-92.8496 566.52,-82.0812"/>
<polygon fill="midnightblue" stroke="midnightblue" points="567.92,-85.3132 576.458,-79.0401 565.872,-78.6196 567.92,-85.3132"/>
</g>
<!-- Node16&#45;&gt;Node14 -->
<g id="edge20" class="edge"><title>Node16&#45;&gt;Node14</title>
<path fill="none" stroke="midnightblue" d="M402.475,-116.878C381.974,-107.766 350.239,-93.6617 326.931,-83.3028"/>
<polygon fill="midnightblue" stroke="midnightblue" points="328.075,-79.9812 317.516,-79.1181 325.232,-86.3779 328.075,-79.9812"/>
</g>
<!-- Node17 -->
<g id="node17" class="node"><title>Node17</title>
<g id="a_node17"><a xlink:href="pio_8h.html" target="_top" xlink:title="General Purpose Input/Output Header File. ">
<polygon fill="none" stroke="black" points="419.707,-59 419.707,-79 476.293,-79 476.293,-59 419.707,-59"/>
<text text-anchor="middle" x="448" y="-65" font-family="Helvetica,sans-Serif" font-size="10.00">dev/pio.h</text>
</a>
</g>
</g>
<!-- Node16&#45;&gt;Node17 -->
<g id="edge24" class="edge"><title>Node16&#45;&gt;Node17</title>
<path fill="none" stroke="midnightblue" d="M427.128,-116.753C430.55,-109.087 435.522,-97.9515 439.754,-88.4708"/>
<polygon fill="midnightblue" stroke="midnightblue" points="443.068,-89.6334 443.949,-79.0752 436.676,-86.7798 443.068,-89.6334"/>
</g>
<!-- Node17&#45;&gt;Node3 -->
<g id="edge26" class="edge"><title>Node17&#45;&gt;Node3</title>
<path fill="none" stroke="midnightblue" d="M476.568,-60.7936C517.332,-50.5108 592.077,-31.6564 635.755,-20.6385"/>
<polygon fill="midnightblue" stroke="midnightblue" points="636.787,-23.9878 645.627,-18.1481 635.075,-17.2004 636.787,-23.9878"/>
</g>
<!-- Node17&#45;&gt;Node7 -->
<g id="edge25" class="edge"><title>Node17&#45;&gt;Node7</title>
<path fill="none" stroke="midnightblue" d="M463.522,-58.7527C478.306,-49.9457 500.778,-36.5575 517.893,-26.3617"/>
<polygon fill="midnightblue" stroke="midnightblue" points="519.967,-29.2002 526.767,-21.0752 516.384,-23.1864 519.967,-29.2002"/>
</g>
<!-- Node17&#45;&gt;Node9 -->
<g id="edge28" class="edge"><title>Node17&#45;&gt;Node9</title>
<path fill="none" stroke="midnightblue" d="M437.267,-58.7527C427.517,-50.3534 412.932,-37.7874 401.336,-27.7976"/>
<polygon fill="midnightblue" stroke="midnightblue" points="403.394,-24.9507 393.534,-21.0752 398.825,-30.254 403.394,-24.9507"/>
</g>
<!-- Node18 -->
<g id="node18" class="node"><title>Node18</title>
<g id="a_node18"><a xlink:href="ioctl_8h_source.html" target="_top" xlink:title="ioctl.h">
<polygon fill="none" stroke="black" points="434.938,-1 434.938,-21 477.062,-21 477.062,-1 434.938,-1"/>
<text text-anchor="middle" x="456" y="-7" font-family="Helvetica,sans-Serif" font-size="10.00">ioctl.h</text>
</a>
</g>
</g>
<!-- Node17&#45;&gt;Node18 -->
<g id="edge27" class="edge"><title>Node17&#45;&gt;Node18</title>
<path fill="none" stroke="midnightblue" d="M449.321,-58.7527C450.393,-51.2504 451.939,-40.4238 453.275,-31.0781"/>
<polygon fill="midnightblue" stroke="midnightblue" points="456.754,-31.4697 454.704,-21.0752 449.824,-30.4797 456.754,-31.4697"/>
</g>
<!-- Node19&#45;&gt;Node6 -->
<g id="edge33" class="edge"><title>Node19&#45;&gt;Node6</title>
<path fill="none" stroke="midnightblue" d="M297.233,-241.407C376.834,-239.413 580.375,-230.944 637,-196 677.868,-170.78 703.181,-117.4 714.331,-88.887"/>
<polygon fill="midnightblue" stroke="midnightblue" points="717.696,-89.8797 717.913,-79.2871 711.138,-87.4323 717.696,-89.8797"/>
</g>
<!-- Node19&#45;&gt;Node11 -->
<g id="edge36" class="edge"><title>Node19&#45;&gt;Node11</title>
<path fill="none" stroke="midnightblue" d="M297.293,-236.681C361.671,-226.078 505.436,-202.399 571.106,-191.582"/>
<polygon fill="midnightblue" stroke="midnightblue" points="572.023,-194.979 581.321,-189.9 570.885,-188.072 572.023,-194.979"/>
</g>
<!-- Node19&#45;&gt;Node14 -->
<g id="edge32" class="edge"><title>Node19&#45;&gt;Node14</title>
<path fill="none" stroke="midnightblue" d="M266.72,-232.753C271.756,-205.688 286.54,-126.224 293.412,-89.2864"/>
<polygon fill="midnightblue" stroke="midnightblue" points="296.883,-89.7647 295.271,-79.2932 290.001,-88.4843 296.883,-89.7647"/>
</g>
<!-- Node20 -->
<g id="node20" class="node"><title>Node20</title>
<g id="a_node20"><a xlink:href="config_8h.html" target="_top" xlink:title="config.h">
<polygon fill="none" stroke="black" points="64.4878,-175 64.4878,-195 115.512,-195 115.512,-175 64.4878,-175"/>
<text text-anchor="middle" x="90" y="-181" font-family="Helvetica,sans-Serif" font-size="10.00">config.h</text>
</a>
</g>
</g>
<!-- Node19&#45;&gt;Node20 -->
<g id="edge30" class="edge"><title>Node19&#45;&gt;Node20</title>
<path fill="none" stroke="midnightblue" d="M236.494,-232.878C206.125,-223.16 158.008,-207.763 125.273,-197.287"/>
<polygon fill="midnightblue" stroke="midnightblue" points="126.235,-193.92 115.644,-194.206 124.102,-200.587 126.235,-193.92"/>
</g>
<!-- Node21 -->
<g id="node21" class="node"><title>Node21</title>
<polygon fill="none" stroke="#bfbfbf" points="133.771,-175 133.771,-195 194.229,-195 194.229,-175 133.771,-175"/>
<text text-anchor="middle" x="164" y="-181" font-family="Helvetica,sans-Serif" font-size="10.00">sys/fcntl.h</text>
</g>
<!-- Node19&#45;&gt;Node21 -->
<g id="edge31" class="edge"><title>Node19&#45;&gt;Node21</title>
<path fill="none" stroke="midnightblue" d="M248.322,-232.753C232.217,-223.823 207.619,-210.185 189.14,-199.939"/>
<polygon fill="midnightblue" stroke="midnightblue" points="190.811,-196.863 180.368,-195.075 187.416,-202.985 190.811,-196.863"/>
</g>
<!-- Node22 -->
<g id="node22" class="node"><title>Node22</title>
<polygon fill="none" stroke="#bfbfbf" points="212.488,-175 212.488,-195 263.512,-195 263.512,-175 212.488,-175"/>
<text text-anchor="middle" x="238" y="-181" font-family="Helvetica,sans-Serif" font-size="10.00">unistd.h</text>
</g>
<!-- Node19&#45;&gt;Node22 -->
<g id="edge34" class="edge"><title>Node19&#45;&gt;Node22</title>
<path fill="none" stroke="midnightblue" d="M260.541,-232.753C256.806,-225.006 251.362,-213.714 246.76,-204.169"/>
<polygon fill="midnightblue" stroke="midnightblue" points="249.871,-202.563 242.376,-195.075 243.566,-205.603 249.871,-202.563"/>
</g>
<!-- Node23 -->
<g id="node23" class="node"><title>Node23</title>
<polygon fill="none" stroke="#bfbfbf" points="-0.842285,-175 -0.842285,-195 46.8423,-195 46.8423,-175 -0.842285,-175"/>
<text text-anchor="middle" x="23" y="-181" font-family="Helvetica,sans-Serif" font-size="10.00">errno.h</text>
</g>
<!-- Node19&#45;&gt;Node23 -->
<g id="edge35" class="edge"><title>Node19&#45;&gt;Node23</title>
<path fill="none" stroke="midnightblue" d="M232.771,-235.849C193.313,-228.121 124.273,-213.962 56.9621,-196.38"/>
<polygon fill="midnightblue" stroke="midnightblue" points="57.6095,-192.931 47.0473,-193.762 55.8221,-199.699 57.6095,-192.931"/>
</g>
<!-- Node24&#45;&gt;Node2 -->
<g id="edge42" class="edge"><title>Node24&#45;&gt;Node2</title>
<path fill="none" stroke="midnightblue" d="M766.565,-232.671C777.878,-213.705 803.726,-170.371 818.369,-145.822"/>
<polygon fill="midnightblue" stroke="midnightblue" points="821.431,-147.521 823.548,-137.139 815.42,-143.935 821.431,-147.521"/>
</g>
<!-- Node24&#45;&gt;Node3 -->
<g id="edge38" class="edge"><title>Node24&#45;&gt;Node3</title>
<path fill="none" stroke="midnightblue" d="M800.173,-233.661C895.244,-211.772 1124.71,-148.087 1045,-58 1022.58,-32.6572 792.631,-18.2814 704.3,-13.6593"/>
<polygon fill="midnightblue" stroke="midnightblue" points="704.42,-10.1609 694.254,-13.1439 704.061,-17.1517 704.42,-10.1609"/>
</g>
<!-- Node24&#45;&gt;Node11 -->
<g id="edge41" class="edge"><title>Node24&#45;&gt;Node11</title>
<path fill="none" stroke="midnightblue" d="M735.589,-232.878C709.098,-223.369 667.461,-208.422 638.343,-197.969"/>
<polygon fill="midnightblue" stroke="midnightblue" points="639.206,-194.56 628.612,-194.476 636.841,-201.149 639.206,-194.56"/>
</g>
<!-- Node24&#45;&gt;Node14 -->
<g id="edge39" class="edge"><title>Node24&#45;&gt;Node14</title>
<path fill="none" stroke="midnightblue" d="M722.085,-240.638C644.707,-236.219 468.684,-217.478 349,-138 330.11,-125.456 315.265,-103.709 306.354,-88.1855"/>
<polygon fill="midnightblue" stroke="midnightblue" points="309.23,-86.1487 301.372,-79.0422 303.084,-89.4979 309.23,-86.1487"/>
</g>
<!-- Node24&#45;&gt;Node15 -->
<g id="edge40" class="edge"><title>Node24&#45;&gt;Node15</title>
<path fill="none" stroke="midnightblue" d="M761,-232.671C761,-214.041 761,-171.898 761,-147.143"/>
<polygon fill="midnightblue" stroke="midnightblue" points="764.5,-147.139 761,-137.139 757.5,-147.139 764.5,-147.139"/>
</g>
</g>
</svg>
