<?xml version="1.0" encoding="UTF-8" standalone="no"?>
<!DOCTYPE svg PUBLIC "-//W3C//DTD SVG 1.1//EN"
 "http://www.w3.org/Graphics/SVG/1.1/DTD/svg11.dtd">
<!-- Generated by graphviz version 2.34.0 (20130907.0228)
 -->
<!-- Title: /Users/tgil/git/CoActionOS/CoActionOS/src/sys/unistd/_fcntl.c Pages: 1 -->
<svg width="909pt" height="344pt"
 viewBox="0.00 0.00 909.07 344.00" xmlns="http://www.w3.org/2000/svg" xmlns:xlink="http://www.w3.org/1999/xlink">
<g id="graph0" class="graph" transform="scale(1 1) rotate(0) translate(4 340)">
<title>/Users/tgil/git/CoActionOS/CoActionOS/src/sys/unistd/_fcntl.c</title>
<!-- Node1 -->
<g id="node1" class="node"><title>Node1</title>
<polygon fill="#bfbfbf" stroke="black" points="196.379,-291 196.379,-335 318.517,-335 318.517,-291 196.379,-291"/>
<text text-anchor="start" x="204.379" y="-321" font-family="Helvetica,sans-Serif" font-size="10.00">/Users/tgil/git/CoAction</text>
<text text-anchor="start" x="204.379" y="-309" font-family="Helvetica,sans-Serif" font-size="10.00">OS/CoActionOS/src/sys</text>
<text text-anchor="middle" x="257.448" y="-297" font-family="Helvetica,sans-Serif" font-size="10.00">/unistd/_fcntl.c</text>
</g>
<!-- Node2 -->
<g id="node2" class="node"><title>Node2</title>
<polygon fill="none" stroke="#bfbfbf" points="95.1081,-233 95.1081,-253 137.788,-253 137.788,-233 95.1081,-233"/>
<text text-anchor="middle" x="116.448" y="-239" font-family="Helvetica,sans-Serif" font-size="10.00">fcntl.h</text>
</g>
<!-- Node1&#45;&gt;Node2 -->
<g id="edge1" class="edge"><title>Node1&#45;&gt;Node2</title>
<path fill="none" stroke="midnightblue" d="M213.608,-290.857C190.959,-279.935 164.006,-266.936 144.24,-257.403"/>
<polygon fill="midnightblue" stroke="midnightblue" points="145.692,-254.218 135.165,-253.027 142.652,-260.523 145.692,-254.218"/>
</g>
<!-- Node3 -->
<g id="node3" class="node"><title>Node3</title>
<polygon fill="none" stroke="#bfbfbf" points="155.382,-233 155.382,-253 207.514,-253 207.514,-233 155.382,-233"/>
<text text-anchor="middle" x="181.448" y="-239" font-family="Helvetica,sans-Serif" font-size="10.00">stdarg.h</text>
</g>
<!-- Node1&#45;&gt;Node3 -->
<g id="edge2" class="edge"><title>Node1&#45;&gt;Node3</title>
<path fill="none" stroke="midnightblue" d="M233.818,-290.857C222.678,-280.89 209.605,-269.194 199.308,-259.98"/>
<polygon fill="midnightblue" stroke="midnightblue" points="201.521,-257.264 191.735,-253.204 196.853,-262.48 201.521,-257.264"/>
</g>
<!-- Node4 -->
<g id="node4" class="node"><title>Node4</title>
<g id="a_node4"><a xlink:href="unistd__fs_8h_source.html" target="_top" xlink:title="unistd_fs.h">
<polygon fill="none" stroke="black" points="225.266,-233 225.266,-253 289.63,-253 289.63,-233 225.266,-233"/>
<text text-anchor="middle" x="257.448" y="-239" font-family="Helvetica,sans-Serif" font-size="10.00">unistd_fs.h</text>
</a>
</g>
</g>
<!-- Node1&#45;&gt;Node4 -->
<g id="edge3" class="edge"><title>Node1&#45;&gt;Node4</title>
<path fill="none" stroke="midnightblue" d="M257.448,-290.857C257.448,-282.074 257.448,-271.948 257.448,-263.362"/>
<polygon fill="midnightblue" stroke="midnightblue" points="260.948,-263.204 257.448,-253.204 253.948,-263.204 260.948,-263.204"/>
</g>
<!-- Node21 -->
<g id="node21" class="node"><title>Node21</title>
<g id="a_node21"><a xlink:href="unistd__flags_8h_source.html" target="_top" xlink:title="unistd_flags.h">
<polygon fill="none" stroke="black" points="324.593,-233 324.593,-253 402.302,-253 402.302,-233 324.593,-233"/>
<text text-anchor="middle" x="363.448" y="-239" font-family="Helvetica,sans-Serif" font-size="10.00">unistd_flags.h</text>
</a>
</g>
</g>
<!-- Node1&#45;&gt;Node21 -->
<g id="edge28" class="edge"><title>Node1&#45;&gt;Node21</title>
<path fill="none" stroke="midnightblue" d="M290.406,-290.857C306.813,-280.332 326.226,-267.879 340.912,-258.457"/>
<polygon fill="midnightblue" stroke="midnightblue" points="342.85,-261.372 349.377,-253.027 339.07,-255.48 342.85,-261.372"/>
</g>
<!-- Node26 -->
<g id="node26" class="node"><title>Node26</title>
<polygon fill="none" stroke="#bfbfbf" points="420.702,-233 420.702,-253 496.194,-253 496.194,-233 420.702,-233"/>
<text text-anchor="middle" x="458.448" y="-239" font-family="Helvetica,sans-Serif" font-size="10.00">hwpl/debug.h</text>
</g>
<!-- Node1&#45;&gt;Node26 -->
<g id="edge42" class="edge"><title>Node1&#45;&gt;Node26</title>
<path fill="none" stroke="midnightblue" d="M318.573,-291.321C352.358,-279.891 393.194,-266.076 421.997,-256.332"/>
<polygon fill="midnightblue" stroke="midnightblue" points="423.301,-259.585 431.652,-253.065 421.058,-252.954 423.301,-259.585"/>
</g>
<!-- Node5 -->
<g id="node5" class="node"><title>Node5</title>
<g id="a_node5"><a xlink:href="config_8h.html" target="_top" xlink:title="config.h">
<polygon fill="none" stroke="black" points="83.9357,-175 83.9357,-195 134.96,-195 134.96,-175 83.9357,-175"/>
<text text-anchor="middle" x="109.448" y="-181" font-family="Helvetica,sans-Serif" font-size="10.00">config.h</text>
</a>
</g>
</g>
<!-- Node4&#45;&gt;Node5 -->
<g id="edge4" class="edge"><title>Node4&#45;&gt;Node5</title>
<path fill="none" stroke="midnightblue" d="M233.34,-232.878C208.828,-223.603 170.647,-209.156 143.148,-198.752"/>
<polygon fill="midnightblue" stroke="midnightblue" points="144.137,-195.384 133.546,-195.118 141.66,-201.931 144.137,-195.384"/>
</g>
<!-- Node6 -->
<g id="node6" class="node"><title>Node6</title>
<polygon fill="none" stroke="#bfbfbf" points="153.219,-175 153.219,-195 213.677,-195 213.677,-175 153.219,-175"/>
<text text-anchor="middle" x="183.448" y="-181" font-family="Helvetica,sans-Serif" font-size="10.00">sys/fcntl.h</text>
</g>
<!-- Node4&#45;&gt;Node6 -->
<g id="edge5" class="edge"><title>Node4&#45;&gt;Node6</title>
<path fill="none" stroke="midnightblue" d="M245.228,-232.753C233.914,-224.19 216.877,-211.298 203.558,-201.219"/>
<polygon fill="midnightblue" stroke="midnightblue" points="205.526,-198.319 195.44,-195.075 201.302,-203.901 205.526,-198.319"/>
</g>
<!-- Node7 -->
<g id="node7" class="node"><title>Node7</title>
<polygon fill="none" stroke="#bfbfbf" points="90.3298,-59 90.3298,-79 148.566,-79 148.566,-59 90.3298,-59"/>
<text text-anchor="middle" x="119.448" y="-65" font-family="Helvetica,sans-Serif" font-size="10.00">sys/stat.h</text>
</g>
<!-- Node4&#45;&gt;Node7 -->
<g id="edge6" class="edge"><title>Node4&#45;&gt;Node7</title>
<path fill="none" stroke="midnightblue" d="M225.265,-233.935C222.29,-233.254 219.317,-232.599 216.448,-232 170.742,-222.463 39.5018,-231.732 9.44792,-196 -25.3795,-154.593 48.7642,-106.712 91.7012,-83.7172"/>
<polygon fill="midnightblue" stroke="midnightblue" points="93.3519,-86.8037 100.593,-79.0697 90.1095,-80.5999 93.3519,-86.8037"/>
</g>
<!-- Node8 -->
<g id="node8" class="node"><title>Node8</title>
<polygon fill="none" stroke="#bfbfbf" points="549.716,-59 549.716,-79 595.179,-79 595.179,-59 549.716,-59"/>
<text text-anchor="middle" x="572.448" y="-65" font-family="Helvetica,sans-Serif" font-size="10.00">stdio.h</text>
</g>
<!-- Node4&#45;&gt;Node8 -->
<g id="edge7" class="edge"><title>Node4&#45;&gt;Node8</title>
<path fill="none" stroke="midnightblue" d="M289.762,-234.154C318.437,-226.518 361.002,-213.506 395.448,-196 458.151,-164.133 523.418,-111.839 554.246,-85.7835"/>
<polygon fill="midnightblue" stroke="midnightblue" points="556.662,-88.3227 561.997,-79.1689 552.118,-82.998 556.662,-88.3227"/>
</g>
<!-- Node9 -->
<g id="node9" class="node"><title>Node9</title>
<polygon fill="none" stroke="#bfbfbf" points="231.936,-175 231.936,-195 282.96,-195 282.96,-175 231.936,-175"/>
<text text-anchor="middle" x="257.448" y="-181" font-family="Helvetica,sans-Serif" font-size="10.00">unistd.h</text>
</g>
<!-- Node4&#45;&gt;Node9 -->
<g id="edge8" class="edge"><title>Node4&#45;&gt;Node9</title>
<path fill="none" stroke="midnightblue" d="M257.448,-232.753C257.448,-225.25 257.448,-214.424 257.448,-205.078"/>
<polygon fill="midnightblue" stroke="midnightblue" points="260.948,-205.075 257.448,-195.075 253.948,-205.075 260.948,-205.075"/>
</g>
<!-- Node10 -->
<g id="node10" class="node"><title>Node10</title>
<polygon fill="none" stroke="#bfbfbf" points="18.6056,-175 18.6056,-195 66.2902,-195 66.2902,-175 18.6056,-175"/>
<text text-anchor="middle" x="42.4479" y="-181" font-family="Helvetica,sans-Serif" font-size="10.00">errno.h</text>
</g>
<!-- Node4&#45;&gt;Node10 -->
<g id="edge9" class="edge"><title>Node4&#45;&gt;Node10</title>
<path fill="none" stroke="midnightblue" d="M225.025,-234.085C184.114,-224.06 115.141,-207.027 76.1967,-196.375"/>
<polygon fill="midnightblue" stroke="midnightblue" points="77.0893,-192.991 66.5171,-193.682 75.2128,-199.734 77.0893,-192.991"/>
</g>
<!-- Node11 -->
<g id="node11" class="node"><title>Node11</title>
<g id="a_node11"><a xlink:href="sysfs_8h_source.html" target="_top" xlink:title="sysfs.h">
<polygon fill="none" stroke="black" points="339.889,-175 339.889,-195 387.007,-195 387.007,-175 339.889,-175"/>
<text text-anchor="middle" x="363.448" y="-181" font-family="Helvetica,sans-Serif" font-size="10.00">sysfs.h</text>
</a>
</g>
</g>
<!-- Node4&#45;&gt;Node11 -->
<g id="edge10" class="edge"><title>Node4&#45;&gt;Node11</title>
<path fill="none" stroke="midnightblue" d="M274.952,-232.753C291.931,-223.783 317.906,-210.06 337.329,-199.799"/>
<polygon fill="midnightblue" stroke="midnightblue" points="339.063,-202.841 346.27,-195.075 335.793,-196.652 339.063,-202.841"/>
</g>
<!-- Node11&#45;&gt;Node7 -->
<g id="edge15" class="edge"><title>Node11&#45;&gt;Node7</title>
<path fill="none" stroke="midnightblue" d="M339.768,-177.612C335.034,-176.379 330.089,-175.123 325.448,-174 253.338,-156.556 223.166,-180.632 162.448,-138 145.172,-125.87 133.308,-104.364 126.487,-88.7792"/>
<polygon fill="midnightblue" stroke="midnightblue" points="129.571,-87.0718 122.565,-79.1236 123.085,-89.7057 129.571,-87.0718"/>
</g>
<!-- Node12 -->
<g id="node12" class="node"><title>Node12</title>
<polygon fill="none" stroke="#bfbfbf" points="279.155,-1 279.155,-21 335.741,-21 335.741,-1 279.155,-1"/>
<text text-anchor="middle" x="307.448" y="-7" font-family="Helvetica,sans-Serif" font-size="10.00">stdbool.h</text>
</g>
<!-- Node11&#45;&gt;Node12 -->
<g id="edge11" class="edge"><title>Node11&#45;&gt;Node12</title>
<path fill="none" stroke="midnightblue" d="M358.383,-174.856C348.798,-157.128 328.023,-116.607 317.448,-80 312.843,-64.0582 310.29,-45.3705 308.919,-31.6243"/>
<polygon fill="midnightblue" stroke="midnightblue" points="312.383,-31.0656 308.026,-21.4084 305.41,-31.6752 312.383,-31.0656"/>
</g>
<!-- Node13 -->
<g id="node13" class="node"><title>Node13</title>
<polygon fill="none" stroke="#bfbfbf" points="171.438,-117 171.438,-137 237.458,-137 237.458,-117 171.438,-117"/>
<text text-anchor="middle" x="204.448" y="-123" font-family="Helvetica,sans-Serif" font-size="10.00">sys/types.h</text>
</g>
<!-- Node11&#45;&gt;Node13 -->
<g id="edge12" class="edge"><title>Node11&#45;&gt;Node13</title>
<path fill="none" stroke="midnightblue" d="M339.644,-175.616C313.258,-166.323 270.424,-151.237 240.047,-140.538"/>
<polygon fill="midnightblue" stroke="midnightblue" points="240.859,-137.113 230.264,-137.092 238.533,-143.716 240.859,-137.113"/>
</g>
<!-- Node14 -->
<g id="node14" class="node"><title>Node14</title>
<polygon fill="none" stroke="#bfbfbf" points="497.327,-1 497.327,-21 545.569,-21 545.569,-1 497.327,-1"/>
<text text-anchor="middle" x="521.448" y="-7" font-family="Helvetica,sans-Serif" font-size="10.00">stdint.h</text>
</g>
<!-- Node11&#45;&gt;Node14 -->
<g id="edge13" class="edge"><title>Node11&#45;&gt;Node14</title>
<path fill="none" stroke="midnightblue" d="M382.147,-174.991C411.934,-159.677 469.996,-125.728 501.448,-80 511.463,-65.4396 516.535,-45.8161 519.059,-31.3922"/>
<polygon fill="midnightblue" stroke="midnightblue" points="522.575,-31.5409 520.582,-21.1352 515.651,-30.5126 522.575,-31.5409"/>
</g>
<!-- Node15 -->
<g id="node15" class="node"><title>Node15</title>
<polygon fill="none" stroke="#bfbfbf" points="255.657,-117 255.657,-137 307.238,-137 307.238,-117 255.657,-117"/>
<text text-anchor="middle" x="281.448" y="-123" font-family="Helvetica,sans-Serif" font-size="10.00">stddef.h</text>
</g>
<!-- Node11&#45;&gt;Node15 -->
<g id="edge14" class="edge"><title>Node11&#45;&gt;Node15</title>
<path fill="none" stroke="midnightblue" d="M349.907,-174.753C337.25,-166.109 318.131,-153.052 303.312,-142.931"/>
<polygon fill="midnightblue" stroke="midnightblue" points="304.968,-139.825 294.737,-137.075 301.021,-145.605 304.968,-139.825"/>
</g>
<!-- Node16 -->
<g id="node16" class="node"><title>Node16</title>
<polygon fill="none" stroke="#bfbfbf" points="560.771,-117 560.771,-137 610.125,-137 610.125,-117 560.771,-117"/>
<text text-anchor="middle" x="585.448" y="-123" font-family="Helvetica,sans-Serif" font-size="10.00">dirent.h</text>
</g>
<!-- Node11&#45;&gt;Node16 -->
<g id="edge16" class="edge"><title>Node11&#45;&gt;Node16</title>
<path fill="none" stroke="midnightblue" d="M387.206,-178.007C426.514,-168.091 505.255,-148.229 550.78,-136.745"/>
<polygon fill="midnightblue" stroke="midnightblue" points="551.667,-140.131 560.507,-134.291 549.955,-133.344 551.667,-140.131"/>
</g>
<!-- Node17 -->
<g id="node17" class="node"><title>Node17</title>
<g id="a_node17"><a xlink:href="device_8h_source.html" target="_top" xlink:title="device.h">
<polygon fill="none" stroke="black" points="363.825,-117 363.825,-137 417.071,-137 417.071,-117 363.825,-117"/>
<text text-anchor="middle" x="390.448" y="-123" font-family="Helvetica,sans-Serif" font-size="10.00">device.h</text>
</a>
</g>
</g>
<!-- Node11&#45;&gt;Node17 -->
<g id="edge17" class="edge"><title>Node11&#45;&gt;Node17</title>
<path fill="none" stroke="midnightblue" d="M367.906,-174.753C371.642,-167.006 377.086,-155.714 381.688,-146.169"/>
<polygon fill="midnightblue" stroke="midnightblue" points="384.882,-147.603 386.072,-137.075 378.577,-144.563 384.882,-147.603"/>
</g>
<!-- Node17&#45;&gt;Node7 -->
<g id="edge18" class="edge"><title>Node17&#45;&gt;Node7</title>
<path fill="none" stroke="midnightblue" d="M363.473,-120.426C315.327,-110.477 214.429,-89.627 158.634,-78.0975"/>
<polygon fill="midnightblue" stroke="midnightblue" points="159.265,-74.654 148.764,-76.0579 157.848,-81.5092 159.265,-74.654"/>
</g>
<!-- Node17&#45;&gt;Node12 -->
<g id="edge19" class="edge"><title>Node17&#45;&gt;Node12</title>
<path fill="none" stroke="midnightblue" d="M374.663,-116.905C361.718,-108.727 343.748,-95.6191 332.448,-80 321.755,-65.22 315.154,-45.3617 311.441,-30.9228"/>
<polygon fill="midnightblue" stroke="midnightblue" points="314.831,-30.0504 309.144,-21.1115 308.015,-31.6461 314.831,-30.0504"/>
</g>
<!-- Node18 -->
<g id="node18" class="node"><title>Node18</title>
<g id="a_node18"><a xlink:href="types_8h_source.html" target="_top" xlink:title="hwpl/types.h">
<polygon fill="none" stroke="black" points="421.655,-59 421.655,-79 493.241,-79 493.241,-59 421.655,-59"/>
<text text-anchor="middle" x="457.448" y="-65" font-family="Helvetica,sans-Serif" font-size="10.00">hwpl/types.h</text>
</a>
</g>
</g>
<!-- Node17&#45;&gt;Node18 -->
<g id="edge20" class="edge"><title>Node17&#45;&gt;Node18</title>
<path fill="none" stroke="midnightblue" d="M401.512,-116.753C411.658,-108.272 426.888,-95.543 438.894,-85.5073"/>
<polygon fill="midnightblue" stroke="midnightblue" points="441.162,-88.1738 446.59,-79.0752 436.673,-82.8028 441.162,-88.1738"/>
</g>
<!-- Node19 -->
<g id="node19" class="node"><title>Node19</title>
<polygon fill="none" stroke="#bfbfbf" points="353.879,-1 353.879,-21 421.017,-21 421.017,-1 353.879,-1"/>
<text text-anchor="middle" x="387.448" y="-7" font-family="Helvetica,sans-Serif" font-size="10.00">hwpl/arch.h</text>
</g>
<!-- Node17&#45;&gt;Node19 -->
<g id="edge23" class="edge"><title>Node17&#45;&gt;Node19</title>
<path fill="none" stroke="midnightblue" d="M374.153,-116.869C361.791,-108.924 345.726,-96.1545 338.448,-80 329.541,-60.2289 347.608,-40.4333 364.264,-27.3414"/>
<polygon fill="midnightblue" stroke="midnightblue" points="366.711,-29.8859 372.694,-21.142 362.564,-24.2465 366.711,-29.8859"/>
</g>
<!-- Node20 -->
<g id="node20" class="node"><title>Node20</title>
<g id="a_node20"><a xlink:href="pio_8h.html" target="_top" xlink:title="General Purpose Input/Output Header File. ">
<polygon fill="none" stroke="red" points="347.155,-59 347.155,-79 403.741,-79 403.741,-59 347.155,-59"/>
<text text-anchor="middle" x="375.448" y="-65" font-family="Helvetica,sans-Serif" font-size="10.00">dev/pio.h</text>
</a>
</g>
</g>
<!-- Node17&#45;&gt;Node20 -->
<g id="edge24" class="edge"><title>Node17&#45;&gt;Node20</title>
<path fill="none" stroke="midnightblue" d="M387.971,-116.753C385.94,-109.169 382.998,-98.1881 380.477,-88.7739"/>
<polygon fill="midnightblue" stroke="midnightblue" points="383.847,-87.8291 377.879,-79.0752 377.085,-89.6403 383.847,-87.8291"/>
</g>
<!-- Node18&#45;&gt;Node12 -->
<g id="edge22" class="edge"><title>Node18&#45;&gt;Node12</title>
<path fill="none" stroke="midnightblue" d="M433.014,-58.878C408.171,-49.6034 369.474,-35.1564 341.604,-24.7515"/>
<polygon fill="midnightblue" stroke="midnightblue" points="342.464,-21.3368 331.871,-21.1181 340.016,-27.8946 342.464,-21.3368"/>
</g>
<!-- Node18&#45;&gt;Node14 -->
<g id="edge21" class="edge"><title>Node18&#45;&gt;Node14</title>
<path fill="none" stroke="midnightblue" d="M468.016,-58.7527C477.615,-50.3534 491.977,-37.7874 503.394,-27.7976"/>
<polygon fill="midnightblue" stroke="midnightblue" points="505.855,-30.2943 511.076,-21.0752 501.246,-25.0262 505.855,-30.2943"/>
</g>
<!-- Node20&#45;&gt;Node12 -->
<g id="edge25" class="edge"><title>Node20&#45;&gt;Node12</title>
<path fill="none" stroke="midnightblue" d="M364.219,-58.7527C353.921,-50.2718 338.464,-37.543 326.278,-27.5073"/>
<polygon fill="midnightblue" stroke="midnightblue" points="328.412,-24.7305 318.468,-21.0752 323.962,-30.1341 328.412,-24.7305"/>
</g>
<!-- Node20&#45;&gt;Node14 -->
<g id="edge26" class="edge"><title>Node20&#45;&gt;Node14</title>
<path fill="none" stroke="midnightblue" d="M399.23,-58.878C423.41,-49.6034 461.076,-35.1564 488.203,-24.7515"/>
<polygon fill="midnightblue" stroke="midnightblue" points="489.592,-27.9672 497.676,-21.1181 487.086,-21.4315 489.592,-27.9672"/>
</g>
<!-- Node20&#45;&gt;Node19 -->
<g id="edge27" class="edge"><title>Node20&#45;&gt;Node19</title>
<path fill="none" stroke="midnightblue" d="M377.429,-58.7527C379.037,-51.2504 381.357,-40.4238 383.36,-31.0781"/>
<polygon fill="midnightblue" stroke="midnightblue" points="386.83,-31.5866 385.503,-21.0752 379.986,-30.1198 386.83,-31.5866"/>
</g>
<!-- Node21&#45;&gt;Node7 -->
<g id="edge30" class="edge"><title>Node21&#45;&gt;Node7</title>
<path fill="none" stroke="midnightblue" d="M356.558,-232.929C344.855,-218.189 319.605,-189.162 291.448,-174 229.942,-140.88 188.855,-186.364 138.448,-138 125.479,-125.557 121.133,-105.06 119.787,-89.8174"/>
<polygon fill="midnightblue" stroke="midnightblue" points="123.261,-89.2117 119.249,-79.4056 116.27,-89.5729 123.261,-89.2117"/>
</g>
<!-- Node21&#45;&gt;Node11 -->
<g id="edge32" class="edge"><title>Node21&#45;&gt;Node11</title>
<path fill="none" stroke="midnightblue" d="M363.448,-232.753C363.448,-225.25 363.448,-214.424 363.448,-205.078"/>
<polygon fill="midnightblue" stroke="midnightblue" points="366.948,-205.075 363.448,-195.075 359.948,-205.075 366.948,-205.075"/>
</g>
<!-- Node21&#45;&gt;Node14 -->
<g id="edge29" class="edge"><title>Node21&#45;&gt;Node14</title>
<path fill="none" stroke="midnightblue" d="M402.47,-233.819C405.507,-233.198 408.527,-232.585 411.448,-232 632.937,-187.611 768.938,-266.465 896.448,-80 901.967,-71.9289 902.927,-65.3227 896.448,-58 874.024,-32.6572 644.079,-18.2814 555.748,-13.6593"/>
<polygon fill="midnightblue" stroke="midnightblue" points="555.868,-10.1609 545.702,-13.1439 555.509,-17.1517 555.868,-10.1609"/>
</g>
<!-- Node21&#45;&gt;Node16 -->
<g id="edge31" class="edge"><title>Node21&#45;&gt;Node16</title>
<path fill="none" stroke="midnightblue" d="M402.525,-233.881C452.77,-223.181 534.957,-204.702 546.448,-196 562.844,-183.583 573.473,-162.129 579.43,-146.635"/>
<polygon fill="midnightblue" stroke="midnightblue" points="582.787,-147.639 582.821,-137.044 576.188,-145.305 582.787,-147.639"/>
</g>
<!-- Node22 -->
<g id="node22" class="node"><title>Node22</title>
<g id="a_node22"><a xlink:href="hwpl_8h.html" target="_top" xlink:title="HWPL Header file (includes all other header files) ">
<polygon fill="none" stroke="black" points="627.995,-117 627.995,-137 672.901,-137 672.901,-117 627.995,-117"/>
<text text-anchor="middle" x="650.448" y="-123" font-family="Helvetica,sans-Serif" font-size="10.00">hwpl.h</text>
</a>
</g>
</g>
<!-- Node21&#45;&gt;Node22 -->
<g id="edge33" class="edge"><title>Node21&#45;&gt;Node22</title>
<path fill="none" stroke="midnightblue" d="M402.314,-233.818C459.896,-221.624 561.933,-199.714 569.448,-196 595.519,-183.114 620.337,-160.143 635.471,-144.499"/>
<polygon fill="midnightblue" stroke="midnightblue" points="638.152,-146.758 642.459,-137.078 633.055,-141.959 638.152,-146.758"/>
</g>
<!-- Node22&#45;&gt;Node8 -->
<g id="edge37" class="edge"><title>Node22&#45;&gt;Node8</title>
<path fill="none" stroke="midnightblue" d="M637.568,-116.753C625.528,-108.109 607.342,-95.0518 593.245,-84.9314"/>
<polygon fill="midnightblue" stroke="midnightblue" points="595.253,-82.0642 585.088,-79.0752 591.17,-87.7504 595.253,-82.0642"/>
</g>
<!-- Node22&#45;&gt;Node12 -->
<g id="edge38" class="edge"><title>Node22&#45;&gt;Node12</title>
<path fill="none" stroke="midnightblue" d="M627.854,-118.402C624.717,-117.505 621.518,-116.672 618.448,-116 557.163,-102.593 388.936,-117.236 338.448,-80 322.82,-68.4737 314.869,-47.1813 310.961,-31.4824"/>
<polygon fill="midnightblue" stroke="midnightblue" points="314.289,-30.3077 308.777,-21.2593 307.443,-31.7698 314.289,-30.3077"/>
</g>
<!-- Node22&#45;&gt;Node14 -->
<g id="edge34" class="edge"><title>Node22&#45;&gt;Node14</title>
<path fill="none" stroke="midnightblue" d="M673.131,-123.58C721.255,-117.585 826.419,-99.4329 791.448,-58 761.669,-22.7185 621.709,-14.4942 555.859,-12.5796"/>
<polygon fill="midnightblue" stroke="midnightblue" points="555.67,-9.07364 545.583,-12.3149 555.489,-16.0713 555.67,-9.07364"/>
</g>
<!-- Node22&#45;&gt;Node18 -->
<g id="edge41" class="edge"><title>Node22&#45;&gt;Node18</title>
<path fill="none" stroke="midnightblue" d="M627.743,-118.829C624.624,-117.866 621.459,-116.901 618.448,-116 578.19,-103.961 532.065,-90.8515 499.534,-81.719"/>
<polygon fill="midnightblue" stroke="midnightblue" points="500.469,-78.3464 489.896,-79.0181 498.58,-85.0867 500.469,-78.3464"/>
</g>
<!-- Node22&#45;&gt;Node19 -->
<g id="edge40" class="edge"><title>Node22&#45;&gt;Node19</title>
<path fill="none" stroke="midnightblue" d="M646.809,-116.849C640.406,-101.993 625.659,-72.8048 603.448,-58 575.724,-39.5207 486.088,-24.9309 431.382,-17.4667"/>
<polygon fill="midnightblue" stroke="midnightblue" points="431.642,-13.9703 421.266,-16.1132 430.714,-20.9085 431.642,-13.9703"/>
</g>
<!-- Node23 -->
<g id="node23" class="node"><title>Node23</title>
<polygon fill="none" stroke="#bfbfbf" points="735.606,-59 735.606,-79 783.29,-79 783.29,-59 735.606,-59"/>
<text text-anchor="middle" x="759.448" y="-65" font-family="Helvetica,sans-Serif" font-size="10.00">stdlib.h</text>
</g>
<!-- Node22&#45;&gt;Node23 -->
<g id="edge35" class="edge"><title>Node22&#45;&gt;Node23</title>
<path fill="none" stroke="midnightblue" d="M668.447,-116.753C685.986,-107.742 712.86,-93.9353 732.862,-83.6589"/>
<polygon fill="midnightblue" stroke="midnightblue" points="734.488,-86.7582 741.784,-79.0752 731.289,-80.5319 734.488,-86.7582"/>
</g>
<!-- Node24 -->
<g id="node24" class="node"><title>Node24</title>
<polygon fill="none" stroke="#bfbfbf" points="839.051,-59 839.051,-79 887.844,-79 887.844,-59 839.051,-59"/>
<text text-anchor="middle" x="863.448" y="-65" font-family="Helvetica,sans-Serif" font-size="10.00">string.h</text>
</g>
<!-- Node22&#45;&gt;Node24 -->
<g id="edge36" class="edge"><title>Node22&#45;&gt;Node24</title>
<path fill="none" stroke="midnightblue" d="M673.102,-120.047C706.461,-111.281 770.762,-94.3827 825.448,-80 826.673,-79.6779 827.919,-79.3499 829.179,-79.0187"/>
<polygon fill="midnightblue" stroke="midnightblue" points="830.138,-82.3855 838.918,-76.4562 828.357,-75.6158 830.138,-82.3855"/>
</g>
<!-- Node25 -->
<g id="node25" class="node"><title>Node25</title>
<polygon fill="none" stroke="#bfbfbf" points="651.155,-59 651.155,-79 717.741,-79 717.741,-59 651.155,-59"/>
<text text-anchor="middle" x="684.448" y="-65" font-family="Helvetica,sans-Serif" font-size="10.00">hwpl/fault.h</text>
</g>
<!-- Node22&#45;&gt;Node25 -->
<g id="edge39" class="edge"><title>Node22&#45;&gt;Node25</title>
<path fill="none" stroke="midnightblue" d="M656.062,-116.753C660.815,-108.924 667.766,-97.4761 673.6,-87.8679"/>
<polygon fill="midnightblue" stroke="midnightblue" points="676.74,-89.4395 678.938,-79.0752 670.756,-85.8066 676.74,-89.4395"/>
</g>
</g>
</svg>
