<?xml version="1.0" encoding="UTF-8" standalone="no"?>
<!DOCTYPE svg PUBLIC "-//W3C//DTD SVG 1.1//EN"
 "http://www.w3.org/Graphics/SVG/1.1/DTD/svg11.dtd">
<!-- Generated by graphviz version 2.34.0 (20130907.0228)
 -->
<!-- Title: /Users/tgil/git/CoActionOS/CoActionOS/src/sys/unistd/_fork.c Pages: 1 -->
<svg width="140pt" height="112pt"
 viewBox="0.00 0.00 140.00 112.00" xmlns="http://www.w3.org/2000/svg" xmlns:xlink="http://www.w3.org/1999/xlink">
<g id="graph0" class="graph" transform="scale(1 1) rotate(0) translate(4 108)">
<title>/Users/tgil/git/CoActionOS/CoActionOS/src/sys/unistd/_fork.c</title>
<!-- Node1 -->
<g id="node1" class="node"><title>Node1</title>
<polygon fill="#bfbfbf" stroke="black" points="-0.0688477,-59 -0.0688477,-103 122.069,-103 122.069,-59 -0.0688477,-59"/>
<text text-anchor="start" x="7.93115" y="-89" font-family="Helvetica,sans-Serif" font-size="10.00">/Users/tgil/git/CoAction</text>
<text text-anchor="start" x="7.93115" y="-77" font-family="Helvetica,sans-Serif" font-size="10.00">OS/CoActionOS/src/sys</text>
<text text-anchor="middle" x="61" y="-65" font-family="Helvetica,sans-Serif" font-size="10.00">/unistd/_fork.c</text>
</g>
<!-- Node2 -->
<g id="node2" class="node"><title>Node2</title>
<polygon fill="none" stroke="#bfbfbf" points="0.157715,-1 0.157715,-21 47.8423,-21 47.8423,-1 0.157715,-1"/>
<text text-anchor="middle" x="24" y="-7" font-family="Helvetica,sans-Serif" font-size="10.00">errno.h</text>
</g>
<!-- Node1&#45;&gt;Node2 -->
<g id="edge1" class="edge"><title>Node1&#45;&gt;Node2</title>
<path fill="none" stroke="midnightblue" d="M49.4958,-58.8571C44.5019,-49.6792 38.7105,-39.0355 33.9106,-30.2141"/>
<polygon fill="midnightblue" stroke="midnightblue" points="36.8619,-28.315 29.008,-21.2039 30.7132,-31.6607 36.8619,-28.315"/>
</g>
<!-- Node3 -->
<g id="node3" class="node"><title>Node3</title>
<polygon fill="none" stroke="#bfbfbf" points="65.9902,-1 65.9902,-21 132.01,-21 132.01,-1 65.9902,-1"/>
<text text-anchor="middle" x="99" y="-7" font-family="Helvetica,sans-Serif" font-size="10.00">sys/types.h</text>
</g>
<!-- Node1&#45;&gt;Node3 -->
<g id="edge2" class="edge"><title>Node1&#45;&gt;Node3</title>
<path fill="none" stroke="midnightblue" d="M72.8151,-58.8571C77.944,-49.6792 83.8919,-39.0355 88.8215,-30.2141"/>
<polygon fill="midnightblue" stroke="midnightblue" points="92.0337,-31.6408 93.8566,-21.2039 85.9231,-28.226 92.0337,-31.6408"/>
</g>
</g>
</svg>
