<?xml version="1.0" encoding="UTF-8" standalone="no"?>
<!DOCTYPE svg PUBLIC "-//W3C//DTD SVG 1.1//EN"
 "http://www.w3.org/Graphics/SVG/1.1/DTD/svg11.dtd">
<!-- Generated by graphviz version 2.34.0 (20130907.0228)
 -->
<!-- Title: /Users/tgil/git/CoActionOS/CoActionOS/src/sys/unistd/_getpid.c Pages: 1 -->
<svg width="474pt" height="228pt"
 viewBox="0.00 0.00 474.04 228.00" xmlns="http://www.w3.org/2000/svg" xmlns:xlink="http://www.w3.org/1999/xlink">
<g id="graph0" class="graph" transform="scale(1 1) rotate(0) translate(4 224)">
<title>/Users/tgil/git/CoActionOS/CoActionOS/src/sys/unistd/_getpid.c</title>
<!-- Node1 -->
<g id="node1" class="node"><title>Node1</title>
<polygon fill="#bfbfbf" stroke="black" points="110.056,-175 110.056,-219 232.193,-219 232.193,-175 110.056,-175"/>
<text text-anchor="start" x="118.056" y="-205" font-family="Helvetica,sans-Serif" font-size="10.00">/Users/tgil/git/CoAction</text>
<text text-anchor="start" x="118.056" y="-193" font-family="Helvetica,sans-Serif" font-size="10.00">OS/CoActionOS/src/sys</text>
<text text-anchor="middle" x="171.124" y="-181" font-family="Helvetica,sans-Serif" font-size="10.00">/unistd/_getpid.c</text>
</g>
<!-- Node2 -->
<g id="node2" class="node"><title>Node2</title>
<g id="a_node2"><a xlink:href="config_8h.html" target="_top" xlink:title="config.h">
<polygon fill="none" stroke="black" points="32.6122,-117 32.6122,-137 83.6366,-137 83.6366,-117 32.6122,-117"/>
<text text-anchor="middle" x="58.1244" y="-123" font-family="Helvetica,sans-Serif" font-size="10.00">config.h</text>
</a>
</g>
</g>
<!-- Node1&#45;&gt;Node2 -->
<g id="edge1" class="edge"><title>Node1&#45;&gt;Node2</title>
<path fill="none" stroke="midnightblue" d="M135.99,-174.857C118.334,-164.232 97.4141,-151.643 81.7064,-142.191"/>
<polygon fill="midnightblue" stroke="midnightblue" points="83.4973,-139.184 73.1244,-137.027 79.888,-145.182 83.4973,-139.184"/>
</g>
<!-- Node3 -->
<g id="node3" class="node"><title>Node3</title>
<polygon fill="none" stroke="#bfbfbf" points="102.115,-117 102.115,-137 168.134,-137 168.134,-117 102.115,-117"/>
<text text-anchor="middle" x="135.124" y="-123" font-family="Helvetica,sans-Serif" font-size="10.00">sys/types.h</text>
</g>
<!-- Node1&#45;&gt;Node3 -->
<g id="edge2" class="edge"><title>Node1&#45;&gt;Node3</title>
<path fill="none" stroke="midnightblue" d="M159.931,-174.857C155.072,-165.679 149.437,-155.036 144.767,-146.214"/>
<polygon fill="midnightblue" stroke="midnightblue" points="147.769,-144.404 139.997,-137.204 141.583,-147.679 147.769,-144.404"/>
</g>
<!-- Node4 -->
<g id="node4" class="node"><title>Node4</title>
<g id="a_node4"><a xlink:href="hwpl_8h.html" target="_top" xlink:title="HWPL Header file (includes all other header files) ">
<polygon fill="none" stroke="black" points="185.671,-117 185.671,-137 230.577,-137 230.577,-117 185.671,-117"/>
<text text-anchor="middle" x="208.124" y="-123" font-family="Helvetica,sans-Serif" font-size="10.00">hwpl.h</text>
</a>
</g>
</g>
<!-- Node1&#45;&gt;Node4 -->
<g id="edge3" class="edge"><title>Node1&#45;&gt;Node4</title>
<path fill="none" stroke="midnightblue" d="M182.629,-174.857C187.622,-165.679 193.414,-155.036 198.214,-146.214"/>
<polygon fill="midnightblue" stroke="midnightblue" points="201.411,-147.661 203.116,-137.204 195.262,-144.315 201.411,-147.661"/>
</g>
<!-- Node13 -->
<g id="node13" class="node"><title>Node13</title>
<polygon fill="none" stroke="#bfbfbf" points="248.112,-117 248.112,-137 314.137,-137 314.137,-117 248.112,-117"/>
<text text-anchor="middle" x="281.124" y="-123" font-family="Helvetica,sans-Serif" font-size="10.00">hwpl/task.h</text>
</g>
<!-- Node1&#45;&gt;Node13 -->
<g id="edge14" class="edge"><title>Node1&#45;&gt;Node13</title>
<path fill="none" stroke="midnightblue" d="M205.326,-174.857C222.352,-164.332 242.497,-151.879 257.738,-142.457"/>
<polygon fill="midnightblue" stroke="midnightblue" points="259.857,-145.262 266.523,-137.027 256.176,-139.308 259.857,-145.262"/>
</g>
<!-- Node5 -->
<g id="node5" class="node"><title>Node5</title>
<polygon fill="none" stroke="#bfbfbf" points="57.0038,-1 57.0038,-21 105.245,-21 105.245,-1 57.0038,-1"/>
<text text-anchor="middle" x="81.1244" y="-7" font-family="Helvetica,sans-Serif" font-size="10.00">stdint.h</text>
</g>
<!-- Node4&#45;&gt;Node5 -->
<g id="edge4" class="edge"><title>Node4&#45;&gt;Node5</title>
<path fill="none" stroke="midnightblue" d="M185.519,-118.403C182.705,-117.548 179.857,-116.725 177.124,-116 101.632,-95.9834 54.3694,-140.619 5.12436,-80 -12.2514,-58.6109 19.5964,-38.0937 47.235,-25.295"/>
<polygon fill="midnightblue" stroke="midnightblue" points="49.0097,-28.3377 56.748,-21.1011 46.1859,-21.9326 49.0097,-28.3377"/>
</g>
<!-- Node6 -->
<g id="node6" class="node"><title>Node6</title>
<polygon fill="none" stroke="#bfbfbf" points="14.2821,-59 14.2821,-79 61.9666,-79 61.9666,-59 14.2821,-59"/>
<text text-anchor="middle" x="38.1244" y="-65" font-family="Helvetica,sans-Serif" font-size="10.00">stdlib.h</text>
</g>
<!-- Node4&#45;&gt;Node6 -->
<g id="edge5" class="edge"><title>Node4&#45;&gt;Node6</title>
<path fill="none" stroke="midnightblue" d="M185.55,-118.564C156.492,-108.992 105.743,-92.2745 72.0359,-81.1709"/>
<polygon fill="midnightblue" stroke="midnightblue" points="72.7579,-77.7238 62.1649,-77.9192 70.5678,-84.3723 72.7579,-77.7238"/>
</g>
<!-- Node7 -->
<g id="node7" class="node"><title>Node7</title>
<polygon fill="none" stroke="#bfbfbf" points="79.7279,-59 79.7279,-79 128.521,-79 128.521,-59 79.7279,-59"/>
<text text-anchor="middle" x="104.124" y="-65" font-family="Helvetica,sans-Serif" font-size="10.00">string.h</text>
</g>
<!-- Node4&#45;&gt;Node7 -->
<g id="edge6" class="edge"><title>Node4&#45;&gt;Node7</title>
<path fill="none" stroke="midnightblue" d="M190.951,-116.753C174.368,-107.823 149.039,-94.1848 130.011,-83.9388"/>
<polygon fill="midnightblue" stroke="midnightblue" points="131.442,-80.7346 120.978,-79.0752 128.124,-86.8979 131.442,-80.7346"/>
</g>
<!-- Node8 -->
<g id="node8" class="node"><title>Node8</title>
<polygon fill="none" stroke="#bfbfbf" points="146.393,-59 146.393,-79 191.856,-79 191.856,-59 146.393,-59"/>
<text text-anchor="middle" x="169.124" y="-65" font-family="Helvetica,sans-Serif" font-size="10.00">stdio.h</text>
</g>
<!-- Node4&#45;&gt;Node8 -->
<g id="edge7" class="edge"><title>Node4&#45;&gt;Node8</title>
<path fill="none" stroke="midnightblue" d="M201.684,-116.753C196.176,-108.843 188.093,-97.2372 181.359,-87.5683"/>
<polygon fill="midnightblue" stroke="midnightblue" points="184.032,-85.281 175.445,-79.0752 178.287,-89.2815 184.032,-85.281"/>
</g>
<!-- Node9 -->
<g id="node9" class="node"><title>Node9</title>
<polygon fill="none" stroke="#bfbfbf" points="334.831,-1 334.831,-21 391.417,-21 391.417,-1 334.831,-1"/>
<text text-anchor="middle" x="363.124" y="-7" font-family="Helvetica,sans-Serif" font-size="10.00">stdbool.h</text>
</g>
<!-- Node4&#45;&gt;Node9 -->
<g id="edge8" class="edge"><title>Node4&#45;&gt;Node9</title>
<path fill="none" stroke="midnightblue" d="M230.699,-118.284C233.518,-117.449 236.376,-116.663 239.124,-116 287.495,-104.329 427.892,-117.908 460.124,-80 481.739,-54.5794 436.994,-34.0671 401.322,-22.4523"/>
<polygon fill="midnightblue" stroke="midnightblue" points="402.152,-19.0451 391.564,-19.4156 400.072,-25.729 402.152,-19.0451"/>
</g>
<!-- Node10 -->
<g id="node10" class="node"><title>Node10</title>
<polygon fill="none" stroke="#bfbfbf" points="299.831,-59 299.831,-79 366.417,-79 366.417,-59 299.831,-59"/>
<text text-anchor="middle" x="333.124" y="-65" font-family="Helvetica,sans-Serif" font-size="10.00">hwpl/fault.h</text>
</g>
<!-- Node4&#45;&gt;Node10 -->
<g id="edge9" class="edge"><title>Node4&#45;&gt;Node10</title>
<path fill="none" stroke="midnightblue" d="M228.486,-116.878C248.825,-107.766 280.308,-93.6617 303.431,-83.3028"/>
<polygon fill="midnightblue" stroke="midnightblue" points="305.076,-86.4007 312.771,-79.1181 302.214,-80.0125 305.076,-86.4007"/>
</g>
<!-- Node11 -->
<g id="node11" class="node"><title>Node11</title>
<polygon fill="none" stroke="#bfbfbf" points="384.556,-59 384.556,-79 451.693,-79 451.693,-59 384.556,-59"/>
<text text-anchor="middle" x="418.124" y="-65" font-family="Helvetica,sans-Serif" font-size="10.00">hwpl/arch.h</text>
</g>
<!-- Node4&#45;&gt;Node11 -->
<g id="edge10" class="edge"><title>Node4&#45;&gt;Node11</title>
<path fill="none" stroke="midnightblue" d="M230.763,-118.523C233.571,-117.647 236.408,-116.786 239.124,-116 285.045,-102.706 338.145,-89.3052 374.514,-80.4245"/>
<polygon fill="midnightblue" stroke="midnightblue" points="375.418,-83.8067 384.309,-78.0434 373.765,-77.0049 375.418,-83.8067"/>
</g>
<!-- Node12 -->
<g id="node12" class="node"><title>Node12</title>
<g id="a_node12"><a xlink:href="types_8h_source.html" target="_top" xlink:title="hwpl/types.h">
<polygon fill="none" stroke="black" points="210.331,-59 210.331,-79 281.917,-79 281.917,-59 210.331,-59"/>
<text text-anchor="middle" x="246.124" y="-65" font-family="Helvetica,sans-Serif" font-size="10.00">hwpl/types.h</text>
</a>
</g>
</g>
<!-- Node4&#45;&gt;Node12 -->
<g id="edge11" class="edge"><title>Node4&#45;&gt;Node12</title>
<path fill="none" stroke="midnightblue" d="M214.399,-116.753C219.767,-108.843 227.642,-97.2372 234.203,-87.5683"/>
<polygon fill="midnightblue" stroke="midnightblue" points="237.247,-89.3152 239.966,-79.0752 231.455,-85.3847 237.247,-89.3152"/>
</g>
<!-- Node12&#45;&gt;Node5 -->
<g id="edge12" class="edge"><title>Node12&#45;&gt;Node5</title>
<path fill="none" stroke="midnightblue" d="M219.247,-58.878C190.737,-49.2017 145.637,-33.8953 114.782,-23.4231"/>
<polygon fill="midnightblue" stroke="midnightblue" points="115.898,-20.1058 105.303,-20.2061 113.648,-26.7344 115.898,-20.1058"/>
</g>
<!-- Node12&#45;&gt;Node9 -->
<g id="edge13" class="edge"><title>Node12&#45;&gt;Node9</title>
<path fill="none" stroke="midnightblue" d="M265.183,-58.878C284.135,-49.8068 313.425,-35.7876 335.041,-25.4418"/>
<polygon fill="midnightblue" stroke="midnightblue" points="336.565,-28.5925 344.074,-21.1181 333.543,-22.2784 336.565,-28.5925"/>
</g>
</g>
</svg>
