<?xml version="1.0" encoding="UTF-8" standalone="no"?>
<!DOCTYPE svg PUBLIC "-//W3C//DTD SVG 1.1//EN"
 "http://www.w3.org/Graphics/SVG/1.1/DTD/svg11.dtd">
<!-- Generated by graphviz version 2.34.0 (20130907.0228)
 -->
<!-- Title: /Users/tgil/git/CoActionOS/CoActionOS/src/sys/unistd/_getppid.c Pages: 1 -->
<svg width="474pt" height="228pt"
 viewBox="0.00 0.00 474.04 228.00" xmlns="http://www.w3.org/2000/svg" xmlns:xlink="http://www.w3.org/1999/xlink">
<g id="graph0" class="graph" transform="scale(1 1) rotate(0) translate(4 224)">
<title>/Users/tgil/git/CoActionOS/CoActionOS/src/sys/unistd/_getppid.c</title>
<!-- Node1 -->
<g id="node1" class="node"><title>Node1</title>
<polygon fill="#bfbfbf" stroke="black" points="146.049,-175 146.049,-219 268.187,-219 268.187,-175 146.049,-175"/>
<text text-anchor="start" x="154.049" y="-205" font-family="Helvetica,sans-Serif" font-size="10.00">/Users/tgil/git/CoAction</text>
<text text-anchor="start" x="154.049" y="-193" font-family="Helvetica,sans-Serif" font-size="10.00">OS/CoActionOS/src/sys</text>
<text text-anchor="middle" x="207.118" y="-181" font-family="Helvetica,sans-Serif" font-size="10.00">/unistd/_getppid.c</text>
</g>
<!-- Node2 -->
<g id="node2" class="node"><title>Node2</title>
<polygon fill="none" stroke="#bfbfbf" points="101.109,-117 101.109,-137 167.128,-137 167.128,-117 101.109,-117"/>
<text text-anchor="middle" x="134.118" y="-123" font-family="Helvetica,sans-Serif" font-size="10.00">sys/types.h</text>
</g>
<!-- Node1&#45;&gt;Node2 -->
<g id="edge1" class="edge"><title>Node1&#45;&gt;Node2</title>
<path fill="none" stroke="midnightblue" d="M184.421,-174.857C173.826,-164.988 161.413,-153.425 151.568,-144.255"/>
<polygon fill="midnightblue" stroke="midnightblue" points="153.702,-141.459 143.999,-137.204 148.931,-146.581 153.702,-141.459"/>
</g>
<!-- Node3 -->
<g id="node3" class="node"><title>Node3</title>
<g id="a_node3"><a xlink:href="hwpl_8h.html" target="_top" xlink:title="HWPL Header file (includes all other header files) ">
<polygon fill="none" stroke="black" points="184.665,-117 184.665,-137 229.571,-137 229.571,-117 184.665,-117"/>
<text text-anchor="middle" x="207.118" y="-123" font-family="Helvetica,sans-Serif" font-size="10.00">hwpl.h</text>
</a>
</g>
</g>
<!-- Node1&#45;&gt;Node3 -->
<g id="edge2" class="edge"><title>Node1&#45;&gt;Node3</title>
<path fill="none" stroke="midnightblue" d="M207.118,-174.857C207.118,-166.074 207.118,-155.948 207.118,-147.362"/>
<polygon fill="midnightblue" stroke="midnightblue" points="210.618,-147.204 207.118,-137.204 203.618,-147.204 210.618,-147.204"/>
</g>
<!-- Node12 -->
<g id="node12" class="node"><title>Node12</title>
<polygon fill="none" stroke="#bfbfbf" points="247.106,-117 247.106,-137 313.131,-137 313.131,-117 247.106,-117"/>
<text text-anchor="middle" x="280.118" y="-123" font-family="Helvetica,sans-Serif" font-size="10.00">hwpl/task.h</text>
</g>
<!-- Node1&#45;&gt;Node12 -->
<g id="edge13" class="edge"><title>Node1&#45;&gt;Node12</title>
<path fill="none" stroke="midnightblue" d="M229.816,-174.857C240.41,-164.988 252.824,-153.425 262.669,-144.255"/>
<polygon fill="midnightblue" stroke="midnightblue" points="265.306,-146.581 270.238,-137.204 260.535,-141.459 265.306,-146.581"/>
</g>
<!-- Node4 -->
<g id="node4" class="node"><title>Node4</title>
<polygon fill="none" stroke="#bfbfbf" points="56.9977,-1 56.9977,-21 105.239,-21 105.239,-1 56.9977,-1"/>
<text text-anchor="middle" x="81.1183" y="-7" font-family="Helvetica,sans-Serif" font-size="10.00">stdint.h</text>
</g>
<!-- Node3&#45;&gt;Node4 -->
<g id="edge3" class="edge"><title>Node3&#45;&gt;Node4</title>
<path fill="none" stroke="midnightblue" d="M184.512,-118.406C181.699,-117.55 178.851,-116.726 176.118,-116 101.058,-96.0509 54.0537,-140.31 5.11832,-80 -12.2449,-58.6007 19.6002,-38.0857 47.2348,-25.2903"/>
<polygon fill="midnightblue" stroke="midnightblue" points="49.0076,-28.3339 56.7463,-21.0976 46.1841,-21.9286 49.0076,-28.3339"/>
</g>
<!-- Node5 -->
<g id="node5" class="node"><title>Node5</title>
<polygon fill="none" stroke="#bfbfbf" points="14.276,-59 14.276,-79 61.9606,-79 61.9606,-59 14.276,-59"/>
<text text-anchor="middle" x="38.1183" y="-65" font-family="Helvetica,sans-Serif" font-size="10.00">stdlib.h</text>
</g>
<!-- Node3&#45;&gt;Node5 -->
<g id="edge4" class="edge"><title>Node3&#45;&gt;Node5</title>
<path fill="none" stroke="midnightblue" d="M184.326,-118.448C155.422,-108.87 105.337,-92.2736 71.9624,-81.2146"/>
<polygon fill="midnightblue" stroke="midnightblue" points="72.7766,-77.7973 62.1832,-77.9742 70.5748,-84.442 72.7766,-77.7973"/>
</g>
<!-- Node6 -->
<g id="node6" class="node"><title>Node6</title>
<polygon fill="none" stroke="#bfbfbf" points="79.7218,-59 79.7218,-79 128.515,-79 128.515,-59 79.7218,-59"/>
<text text-anchor="middle" x="104.118" y="-65" font-family="Helvetica,sans-Serif" font-size="10.00">string.h</text>
</g>
<!-- Node3&#45;&gt;Node6 -->
<g id="edge5" class="edge"><title>Node3&#45;&gt;Node6</title>
<path fill="none" stroke="midnightblue" d="M190.11,-116.753C173.686,-107.823 148.601,-94.1848 129.756,-83.9388"/>
<polygon fill="midnightblue" stroke="midnightblue" points="131.267,-80.7769 120.81,-79.0752 127.924,-86.9267 131.267,-80.7769"/>
</g>
<!-- Node7 -->
<g id="node7" class="node"><title>Node7</title>
<polygon fill="none" stroke="#bfbfbf" points="146.387,-59 146.387,-79 191.85,-79 191.85,-59 146.387,-59"/>
<text text-anchor="middle" x="169.118" y="-65" font-family="Helvetica,sans-Serif" font-size="10.00">stdio.h</text>
</g>
<!-- Node3&#45;&gt;Node7 -->
<g id="edge6" class="edge"><title>Node3&#45;&gt;Node7</title>
<path fill="none" stroke="midnightblue" d="M200.843,-116.753C195.476,-108.843 187.601,-97.2372 181.04,-87.5683"/>
<polygon fill="midnightblue" stroke="midnightblue" points="183.788,-85.3847 175.276,-79.0752 177.995,-89.3152 183.788,-85.3847"/>
</g>
<!-- Node8 -->
<g id="node8" class="node"><title>Node8</title>
<polygon fill="none" stroke="#bfbfbf" points="334.825,-1 334.825,-21 391.411,-21 391.411,-1 334.825,-1"/>
<text text-anchor="middle" x="363.118" y="-7" font-family="Helvetica,sans-Serif" font-size="10.00">stdbool.h</text>
</g>
<!-- Node3&#45;&gt;Node8 -->
<g id="edge7" class="edge"><title>Node3&#45;&gt;Node8</title>
<path fill="none" stroke="midnightblue" d="M229.693,-118.282C232.512,-117.447 235.369,-116.662 238.118,-116 286.706,-104.295 427.73,-118.063 460.118,-80 481.742,-54.5871 436.995,-34.0727 401.319,-22.4554"/>
<polygon fill="midnightblue" stroke="midnightblue" points="402.149,-19.048 391.56,-19.4179 400.068,-25.7317 402.149,-19.048"/>
</g>
<!-- Node9 -->
<g id="node9" class="node"><title>Node9</title>
<polygon fill="none" stroke="#bfbfbf" points="299.825,-59 299.825,-79 366.411,-79 366.411,-59 299.825,-59"/>
<text text-anchor="middle" x="333.118" y="-65" font-family="Helvetica,sans-Serif" font-size="10.00">hwpl/fault.h</text>
</g>
<!-- Node3&#45;&gt;Node9 -->
<g id="edge8" class="edge"><title>Node3&#45;&gt;Node9</title>
<path fill="none" stroke="midnightblue" d="M227.643,-116.878C248.145,-107.766 279.879,-93.6617 303.187,-83.3028"/>
<polygon fill="midnightblue" stroke="midnightblue" points="304.886,-86.3779 312.603,-79.1181 302.043,-79.9812 304.886,-86.3779"/>
</g>
<!-- Node10 -->
<g id="node10" class="node"><title>Node10</title>
<polygon fill="none" stroke="#bfbfbf" points="384.549,-59 384.549,-79 451.687,-79 451.687,-59 384.549,-59"/>
<text text-anchor="middle" x="418.118" y="-65" font-family="Helvetica,sans-Serif" font-size="10.00">hwpl/arch.h</text>
</g>
<!-- Node3&#45;&gt;Node10 -->
<g id="edge9" class="edge"><title>Node3&#45;&gt;Node10</title>
<path fill="none" stroke="midnightblue" d="M229.756,-118.519C232.564,-117.644 235.402,-116.784 238.118,-116 284.43,-102.627 338.014,-89.1906 374.597,-80.3227"/>
<polygon fill="midnightblue" stroke="midnightblue" points="375.544,-83.6947 384.444,-77.9465 373.902,-76.89 375.544,-83.6947"/>
</g>
<!-- Node11 -->
<g id="node11" class="node"><title>Node11</title>
<g id="a_node11"><a xlink:href="types_8h_source.html" target="_top" xlink:title="hwpl/types.h">
<polygon fill="none" stroke="black" points="210.325,-59 210.325,-79 281.911,-79 281.911,-59 210.325,-59"/>
<text text-anchor="middle" x="246.118" y="-65" font-family="Helvetica,sans-Serif" font-size="10.00">hwpl/types.h</text>
</a>
</g>
</g>
<!-- Node3&#45;&gt;Node11 -->
<g id="edge10" class="edge"><title>Node3&#45;&gt;Node11</title>
<path fill="none" stroke="midnightblue" d="M213.558,-116.753C219.067,-108.843 227.15,-97.2372 233.883,-87.5683"/>
<polygon fill="midnightblue" stroke="midnightblue" points="236.955,-89.2815 239.798,-79.0752 231.211,-85.281 236.955,-89.2815"/>
</g>
<!-- Node11&#45;&gt;Node4 -->
<g id="edge11" class="edge"><title>Node11&#45;&gt;Node4</title>
<path fill="none" stroke="midnightblue" d="M219.241,-58.878C190.731,-49.2017 145.631,-33.8953 114.776,-23.4231"/>
<polygon fill="midnightblue" stroke="midnightblue" points="115.891,-20.1058 105.297,-20.2061 113.642,-26.7344 115.891,-20.1058"/>
</g>
<!-- Node11&#45;&gt;Node8 -->
<g id="edge12" class="edge"><title>Node11&#45;&gt;Node8</title>
<path fill="none" stroke="midnightblue" d="M265.177,-58.878C284.129,-49.8068 313.419,-35.7876 335.035,-25.4418"/>
<polygon fill="midnightblue" stroke="midnightblue" points="336.559,-28.5925 344.068,-21.1181 333.537,-22.2784 336.559,-28.5925"/>
</g>
</g>
</svg>
