<?xml version="1.0" encoding="UTF-8" standalone="no"?>
<!DOCTYPE svg PUBLIC "-//W3C//DTD SVG 1.1//EN"
 "http://www.w3.org/Graphics/SVG/1.1/DTD/svg11.dtd">
<!-- Generated by graphviz version 2.34.0 (20130907.0228)
 -->
<!-- Title: /Users/tgil/git/CoActionOS/CoActionOS/src/sys/time/_gettimeofday.c Pages: 1 -->
<svg width="760pt" height="228pt"
 viewBox="0.00 0.00 760.00 228.00" xmlns="http://www.w3.org/2000/svg" xmlns:xlink="http://www.w3.org/1999/xlink">
<g id="graph0" class="graph" transform="scale(1 1) rotate(0) translate(4 224)">
<title>/Users/tgil/git/CoActionOS/CoActionOS/src/sys/time/_gettimeofday.c</title>
<!-- Node1 -->
<g id="node1" class="node"><title>Node1</title>
<polygon fill="#bfbfbf" stroke="black" points="392.931,-175 392.931,-219 515.069,-219 515.069,-175 392.931,-175"/>
<text text-anchor="start" x="400.931" y="-205" font-family="Helvetica,sans-Serif" font-size="10.00">/Users/tgil/git/CoAction</text>
<text text-anchor="start" x="400.931" y="-193" font-family="Helvetica,sans-Serif" font-size="10.00">OS/CoActionOS/src/sys</text>
<text text-anchor="middle" x="454" y="-181" font-family="Helvetica,sans-Serif" font-size="10.00">/time/_gettimeofday.c</text>
</g>
<!-- Node2 -->
<g id="node2" class="node"><title>Node2</title>
<polygon fill="none" stroke="#bfbfbf" points="189.495,-117 189.495,-137 250.505,-137 250.505,-117 189.495,-117"/>
<text text-anchor="middle" x="220" y="-123" font-family="Helvetica,sans-Serif" font-size="10.00">sys/time.h</text>
</g>
<!-- Node1&#45;&gt;Node2 -->
<g id="edge1" class="edge"><title>Node1&#45;&gt;Node2</title>
<path fill="none" stroke="midnightblue" d="M392.825,-178.223C351.112,-166.101 297.034,-150.386 260.568,-139.789"/>
<polygon fill="midnightblue" stroke="midnightblue" points="261.355,-136.373 250.775,-136.943 259.401,-143.095 261.355,-136.373"/>
</g>
<!-- Node3 -->
<g id="node3" class="node"><title>Node3</title>
<polygon fill="none" stroke="#bfbfbf" points="630.384,-59 630.384,-79 673.616,-79 673.616,-59 630.384,-59"/>
<text text-anchor="middle" x="652" y="-65" font-family="Helvetica,sans-Serif" font-size="10.00">time.h</text>
</g>
<!-- Node1&#45;&gt;Node3 -->
<g id="edge2" class="edge"><title>Node1&#45;&gt;Node3</title>
<path fill="none" stroke="midnightblue" d="M515.142,-176.348C539.657,-166.877 567.394,-154.047 590,-138 609.85,-123.909 628.036,-102.501 639.505,-87.4789"/>
<polygon fill="midnightblue" stroke="midnightblue" points="642.593,-89.1916 645.734,-79.0732 636.968,-85.024 642.593,-89.1916"/>
</g>
<!-- Node4 -->
<g id="node4" class="node"><title>Node4</title>
<polygon fill="none" stroke="#bfbfbf" points="331.158,-117 331.158,-137 378.842,-137 378.842,-117 331.158,-117"/>
<text text-anchor="middle" x="355" y="-123" font-family="Helvetica,sans-Serif" font-size="10.00">errno.h</text>
</g>
<!-- Node1&#45;&gt;Node4 -->
<g id="edge3" class="edge"><title>Node1&#45;&gt;Node4</title>
<path fill="none" stroke="midnightblue" d="M423.218,-174.857C408.039,-164.431 390.106,-152.113 376.437,-142.724"/>
<polygon fill="midnightblue" stroke="midnightblue" points="378.366,-139.803 368.142,-137.027 374.403,-145.573 378.366,-139.803"/>
</g>
<!-- Node5 -->
<g id="node5" class="node"><title>Node5</title>
<polygon fill="none" stroke="#bfbfbf" points="396.488,-117 396.488,-137 447.512,-137 447.512,-117 396.488,-117"/>
<text text-anchor="middle" x="422" y="-123" font-family="Helvetica,sans-Serif" font-size="10.00">unistd.h</text>
</g>
<!-- Node1&#45;&gt;Node5 -->
<g id="edge4" class="edge"><title>Node1&#45;&gt;Node5</title>
<path fill="none" stroke="midnightblue" d="M444.05,-174.857C439.778,-165.778 434.83,-155.264 430.706,-146.499"/>
<polygon fill="midnightblue" stroke="midnightblue" points="433.756,-144.762 426.331,-137.204 427.422,-147.742 433.756,-144.762"/>
</g>
<!-- Node6 -->
<g id="node6" class="node"><title>Node6</title>
<polygon fill="none" stroke="#bfbfbf" points="465.66,-117 465.66,-137 508.34,-137 508.34,-117 465.66,-117"/>
<text text-anchor="middle" x="487" y="-123" font-family="Helvetica,sans-Serif" font-size="10.00">fcntl.h</text>
</g>
<!-- Node1&#45;&gt;Node6 -->
<g id="edge5" class="edge"><title>Node1&#45;&gt;Node6</title>
<path fill="none" stroke="midnightblue" d="M464.261,-174.857C468.714,-165.679 473.88,-155.036 478.161,-146.214"/>
<polygon fill="midnightblue" stroke="midnightblue" points="481.316,-147.729 482.533,-137.204 475.019,-144.672 481.316,-147.729"/>
</g>
<!-- Node7 -->
<g id="node7" class="node"><title>Node7</title>
<g id="a_node7"><a xlink:href="hwpl_8h.html" target="_top" xlink:title="HWPL Header file (includes all other header files) ">
<polygon fill="none" stroke="black" points="268.547,-117 268.547,-137 313.453,-137 313.453,-117 268.547,-117"/>
<text text-anchor="middle" x="291" y="-123" font-family="Helvetica,sans-Serif" font-size="10.00">hwpl.h</text>
</a>
</g>
</g>
<!-- Node1&#45;&gt;Node7 -->
<g id="edge6" class="edge"><title>Node1&#45;&gt;Node7</title>
<path fill="none" stroke="midnightblue" d="M403.319,-174.857C376.661,-163.736 344.844,-150.463 321.891,-140.887"/>
<polygon fill="midnightblue" stroke="midnightblue" points="323.214,-137.647 312.637,-137.027 320.519,-144.107 323.214,-137.647"/>
</g>
<!-- Node16 -->
<g id="node16" class="node"><title>Node16</title>
<g id="a_node16"><a xlink:href="rtc_8h.html" target="_top" xlink:title="Real Time Clock Header File. ">
<polygon fill="none" stroke="black" points="526.825,-117 526.825,-137 581.175,-137 581.175,-117 526.825,-117"/>
<text text-anchor="middle" x="554" y="-123" font-family="Helvetica,sans-Serif" font-size="10.00">dev/rtc.h</text>
</a>
</g>
</g>
<!-- Node1&#45;&gt;Node16 -->
<g id="edge17" class="edge"><title>Node1&#45;&gt;Node16</title>
<path fill="none" stroke="midnightblue" d="M485.092,-174.857C500.425,-164.431 518.539,-152.113 532.347,-142.724"/>
<polygon fill="midnightblue" stroke="midnightblue" points="534.424,-145.544 540.726,-137.027 530.488,-139.755 534.424,-145.544"/>
</g>
<!-- Node18 -->
<g id="node18" class="node"><title>Node18</title>
<polygon fill="none" stroke="#bfbfbf" points="637.247,-117 637.247,-137 752.753,-137 752.753,-117 637.247,-117"/>
<text text-anchor="middle" x="695" y="-123" font-family="Helvetica,sans-Serif" font-size="10.00">../sched/sched_flags.h</text>
</g>
<!-- Node1&#45;&gt;Node18 -->
<g id="edge22" class="edge"><title>Node1&#45;&gt;Node18</title>
<path fill="none" stroke="midnightblue" d="M515.126,-178.753C558.266,-166.581 614.941,-150.589 653.046,-139.838"/>
<polygon fill="midnightblue" stroke="midnightblue" points="654.12,-143.171 662.794,-137.087 652.219,-136.434 654.12,-143.171"/>
</g>
<!-- Node8 -->
<g id="node8" class="node"><title>Node8</title>
<polygon fill="none" stroke="#bfbfbf" points="393.879,-1 393.879,-21 442.121,-21 442.121,-1 393.879,-1"/>
<text text-anchor="middle" x="418" y="-7" font-family="Helvetica,sans-Serif" font-size="10.00">stdint.h</text>
</g>
<!-- Node7&#45;&gt;Node8 -->
<g id="edge7" class="edge"><title>Node7&#45;&gt;Node8</title>
<path fill="none" stroke="midnightblue" d="M313.79,-118.756C341.611,-109.493 386.396,-93.0869 398,-80 409.971,-66.4997 414.79,-46.1569 416.723,-31.2385"/>
<polygon fill="midnightblue" stroke="midnightblue" points="420.225,-31.3824 417.709,-21.0908 413.258,-30.7054 420.225,-31.3824"/>
</g>
<!-- Node9 -->
<g id="node9" class="node"><title>Node9</title>
<polygon fill="none" stroke="#bfbfbf" points="342.158,-59 342.158,-79 389.842,-79 389.842,-59 342.158,-59"/>
<text text-anchor="middle" x="366" y="-65" font-family="Helvetica,sans-Serif" font-size="10.00">stdlib.h</text>
</g>
<!-- Node7&#45;&gt;Node9 -->
<g id="edge8" class="edge"><title>Node7&#45;&gt;Node9</title>
<path fill="none" stroke="midnightblue" d="M303.385,-116.753C314.852,-108.19 332.119,-95.2978 345.618,-85.2186"/>
<polygon fill="midnightblue" stroke="midnightblue" points="347.927,-87.8626 353.846,-79.0752 343.739,-82.2536 347.927,-87.8626"/>
</g>
<!-- Node10 -->
<g id="node10" class="node"><title>Node10</title>
<polygon fill="none" stroke="#bfbfbf" points="-0.396484,-59 -0.396484,-79 48.3965,-79 48.3965,-59 -0.396484,-59"/>
<text text-anchor="middle" x="24" y="-65" font-family="Helvetica,sans-Serif" font-size="10.00">string.h</text>
</g>
<!-- Node7&#45;&gt;Node10 -->
<g id="edge9" class="edge"><title>Node7&#45;&gt;Node10</title>
<path fill="none" stroke="midnightblue" d="M268.374,-118.54C265.242,-117.622 262.053,-116.746 259,-116 173.528,-95.1174 147.498,-100.81 58.4153,-80.1197"/>
<polygon fill="midnightblue" stroke="midnightblue" points="58.9582,-76.6515 48.4205,-77.7504 57.3435,-83.4627 58.9582,-76.6515"/>
</g>
<!-- Node11 -->
<g id="node11" class="node"><title>Node11</title>
<polygon fill="none" stroke="#bfbfbf" points="66.2686,-59 66.2686,-79 111.731,-79 111.731,-59 66.2686,-59"/>
<text text-anchor="middle" x="89" y="-65" font-family="Helvetica,sans-Serif" font-size="10.00">stdio.h</text>
</g>
<!-- Node7&#45;&gt;Node11 -->
<g id="edge10" class="edge"><title>Node7&#45;&gt;Node11</title>
<path fill="none" stroke="midnightblue" d="M268.307,-118.79C265.186,-117.833 262.018,-116.879 259,-116 255.643,-115.022 170.23,-91.9399 121.78,-78.8528"/>
<polygon fill="midnightblue" stroke="midnightblue" points="122.612,-75.4522 112.045,-76.2234 120.787,-82.21 122.612,-75.4522"/>
</g>
<!-- Node12 -->
<g id="node12" class="node"><title>Node12</title>
<polygon fill="none" stroke="#bfbfbf" points="143.707,-1 143.707,-21 200.293,-21 200.293,-1 143.707,-1"/>
<text text-anchor="middle" x="172" y="-7" font-family="Helvetica,sans-Serif" font-size="10.00">stdbool.h</text>
</g>
<!-- Node7&#45;&gt;Node12 -->
<g id="edge11" class="edge"><title>Node7&#45;&gt;Node12</title>
<path fill="none" stroke="midnightblue" d="M268.413,-118.878C231.573,-107.158 162.294,-84.6367 159,-80 148.706,-65.5111 154.642,-45.0717 161.493,-30.3906"/>
<polygon fill="midnightblue" stroke="midnightblue" points="164.713,-31.7817 166.193,-21.2907 158.494,-28.569 164.713,-31.7817"/>
</g>
<!-- Node13 -->
<g id="node13" class="node"><title>Node13</title>
<polygon fill="none" stroke="#bfbfbf" points="257.707,-59 257.707,-79 324.293,-79 324.293,-59 257.707,-59"/>
<text text-anchor="middle" x="291" y="-65" font-family="Helvetica,sans-Serif" font-size="10.00">hwpl/fault.h</text>
</g>
<!-- Node7&#45;&gt;Node13 -->
<g id="edge12" class="edge"><title>Node7&#45;&gt;Node13</title>
<path fill="none" stroke="midnightblue" d="M291,-116.753C291,-109.25 291,-98.4238 291,-89.0781"/>
<polygon fill="midnightblue" stroke="midnightblue" points="294.5,-89.0752 291,-79.0752 287.5,-89.0752 294.5,-89.0752"/>
</g>
<!-- Node14 -->
<g id="node14" class="node"><title>Node14</title>
<polygon fill="none" stroke="#bfbfbf" points="446.431,-59 446.431,-79 513.569,-79 513.569,-59 446.431,-59"/>
<text text-anchor="middle" x="480" y="-65" font-family="Helvetica,sans-Serif" font-size="10.00">hwpl/arch.h</text>
</g>
<!-- Node7&#45;&gt;Node14 -->
<g id="edge13" class="edge"><title>Node7&#45;&gt;Node14</title>
<path fill="none" stroke="midnightblue" d="M313.663,-118.606C316.467,-117.716 319.297,-116.829 322,-116 361.187,-103.978 406.076,-90.9828 437.969,-81.8815"/>
<polygon fill="midnightblue" stroke="midnightblue" points="439.184,-85.1746 447.843,-79.0695 437.267,-78.4423 439.184,-85.1746"/>
</g>
<!-- Node15 -->
<g id="node15" class="node"><title>Node15</title>
<g id="a_node15"><a xlink:href="types_8h_source.html" target="_top" xlink:title="hwpl/types.h">
<polygon fill="none" stroke="black" points="168.207,-59 168.207,-79 239.793,-79 239.793,-59 168.207,-59"/>
<text text-anchor="middle" x="204" y="-65" font-family="Helvetica,sans-Serif" font-size="10.00">hwpl/types.h</text>
</a>
</g>
</g>
<!-- Node7&#45;&gt;Node15 -->
<g id="edge14" class="edge"><title>Node7&#45;&gt;Node15</title>
<path fill="none" stroke="midnightblue" d="M276.634,-116.753C263.078,-108.027 242.536,-94.8051 226.753,-84.6458"/>
<polygon fill="midnightblue" stroke="midnightblue" points="228.402,-81.5447 218.099,-79.0752 224.613,-87.4307 228.402,-81.5447"/>
</g>
<!-- Node15&#45;&gt;Node8 -->
<g id="edge15" class="edge"><title>Node15&#45;&gt;Node8</title>
<path fill="none" stroke="midnightblue" d="M238.859,-58.878C278.953,-48.386 344.344,-31.2745 384.051,-20.8839"/>
<polygon fill="midnightblue" stroke="midnightblue" points="385.014,-24.2497 393.803,-18.332 383.242,-17.4777 385.014,-24.2497"/>
</g>
<!-- Node15&#45;&gt;Node12 -->
<g id="edge16" class="edge"><title>Node15&#45;&gt;Node12</title>
<path fill="none" stroke="midnightblue" d="M198.716,-58.7527C194.242,-50.9242 187.701,-39.4761 182.21,-29.8679"/>
<polygon fill="midnightblue" stroke="midnightblue" points="185.186,-28.0211 177.186,-21.0752 179.108,-31.4941 185.186,-28.0211"/>
</g>
<!-- Node16&#45;&gt;Node3 -->
<g id="edge18" class="edge"><title>Node16&#45;&gt;Node3</title>
<path fill="none" stroke="midnightblue" d="M570.183,-116.753C585.738,-107.864 609.459,-94.3092 627.361,-84.0793"/>
<polygon fill="midnightblue" stroke="midnightblue" points="629.172,-87.0755 636.118,-79.0752 625.699,-80.9978 629.172,-87.0755"/>
</g>
<!-- Node16&#45;&gt;Node8 -->
<g id="edge19" class="edge"><title>Node16&#45;&gt;Node8</title>
<path fill="none" stroke="midnightblue" d="M551.905,-116.87C548.191,-102.565 539.173,-74.7759 522,-58 502.65,-39.0973 474.221,-27.2517 451.975,-20.3238"/>
<polygon fill="midnightblue" stroke="midnightblue" points="452.824,-16.9256 442.243,-17.4791 450.86,-23.6444 452.824,-16.9256"/>
</g>
<!-- Node16&#45;&gt;Node14 -->
<g id="edge21" class="edge"><title>Node16&#45;&gt;Node14</title>
<path fill="none" stroke="midnightblue" d="M541.78,-116.753C530.466,-108.19 513.429,-95.2978 500.11,-85.2186"/>
<polygon fill="midnightblue" stroke="midnightblue" points="502.078,-82.3187 491.992,-79.0752 497.854,-87.9006 502.078,-82.3187"/>
</g>
<!-- Node17 -->
<g id="node17" class="node"><title>Node17</title>
<g id="a_node17"><a xlink:href="ioctl_8h_source.html" target="_top" xlink:title="ioctl.h">
<polygon fill="none" stroke="black" points="569.938,-59 569.938,-79 612.062,-79 612.062,-59 569.938,-59"/>
<text text-anchor="middle" x="591" y="-65" font-family="Helvetica,sans-Serif" font-size="10.00">ioctl.h</text>
</a>
</g>
</g>
<!-- Node16&#45;&gt;Node17 -->
<g id="edge20" class="edge"><title>Node16&#45;&gt;Node17</title>
<path fill="none" stroke="midnightblue" d="M560.11,-116.753C565.336,-108.843 573.004,-97.2372 579.392,-87.5683"/>
<polygon fill="midnightblue" stroke="midnightblue" points="582.411,-89.348 585.004,-79.0752 576.571,-85.4891 582.411,-89.348"/>
</g>
</g>
</svg>
