<?xml version="1.0" encoding="UTF-8" standalone="no"?>
<!DOCTYPE svg PUBLIC "-//W3C//DTD SVG 1.1//EN"
 "http://www.w3.org/Graphics/SVG/1.1/DTD/svg11.dtd">
<!-- Generated by graphviz version 2.34.0 (20130907.0228)
 -->
<!-- Title: /Users/tgil/git/CoActionOS/CoActionOS/src/sys/time/_itimer.c Pages: 1 -->
<svg width="194pt" height="112pt"
 viewBox="0.00 0.00 194.00 112.00" xmlns="http://www.w3.org/2000/svg" xmlns:xlink="http://www.w3.org/1999/xlink">
<g id="graph0" class="graph" transform="scale(1 1) rotate(0) translate(4 108)">
<title>/Users/tgil/git/CoActionOS/CoActionOS/src/sys/time/_itimer.c</title>
<!-- Node1 -->
<g id="node1" class="node"><title>Node1</title>
<polygon fill="#bfbfbf" stroke="black" points="38.9312,-59 38.9312,-103 161.069,-103 161.069,-59 38.9312,-59"/>
<text text-anchor="start" x="46.9312" y="-89" font-family="Helvetica,sans-Serif" font-size="10.00">/Users/tgil/git/CoAction</text>
<text text-anchor="start" x="46.9312" y="-77" font-family="Helvetica,sans-Serif" font-size="10.00">OS/CoActionOS/src/sys</text>
<text text-anchor="middle" x="100" y="-65" font-family="Helvetica,sans-Serif" font-size="10.00">/time/_itimer.c</text>
</g>
<!-- Node2 -->
<g id="node2" class="node"><title>Node2</title>
<polygon fill="none" stroke="#bfbfbf" points="-0.504883,-1 -0.504883,-21 60.5049,-21 60.5049,-1 -0.504883,-1"/>
<text text-anchor="middle" x="30" y="-7" font-family="Helvetica,sans-Serif" font-size="10.00">sys/time.h</text>
</g>
<!-- Node1&#45;&gt;Node2 -->
<g id="edge1" class="edge"><title>Node1&#45;&gt;Node2</title>
<path fill="none" stroke="midnightblue" d="M78.2353,-58.8571C68.0763,-48.9884 56.1728,-37.425 46.7326,-28.2545"/>
<polygon fill="midnightblue" stroke="midnightblue" points="49.0862,-25.6613 39.4746,-21.2039 44.2087,-30.6823 49.0862,-25.6613"/>
</g>
<!-- Node3 -->
<g id="node3" class="node"><title>Node3</title>
<polygon fill="none" stroke="#bfbfbf" points="78.3843,-1 78.3843,-21 121.616,-21 121.616,-1 78.3843,-1"/>
<text text-anchor="middle" x="100" y="-7" font-family="Helvetica,sans-Serif" font-size="10.00">time.h</text>
</g>
<!-- Node1&#45;&gt;Node3 -->
<g id="edge2" class="edge"><title>Node1&#45;&gt;Node3</title>
<path fill="none" stroke="midnightblue" d="M100,-58.8571C100,-50.074 100,-39.9484 100,-31.3622"/>
<polygon fill="midnightblue" stroke="midnightblue" points="103.5,-31.2039 100,-21.2039 96.5001,-31.204 103.5,-31.2039"/>
</g>
<!-- Node4 -->
<g id="node4" class="node"><title>Node4</title>
<polygon fill="none" stroke="#bfbfbf" points="139.158,-1 139.158,-21 186.842,-21 186.842,-1 139.158,-1"/>
<text text-anchor="middle" x="163" y="-7" font-family="Helvetica,sans-Serif" font-size="10.00">errno.h</text>
</g>
<!-- Node1&#45;&gt;Node4 -->
<g id="edge3" class="edge"><title>Node1&#45;&gt;Node4</title>
<path fill="none" stroke="midnightblue" d="M119.588,-58.8571C128.548,-49.1858 139.017,-37.8868 147.428,-28.8076"/>
<polygon fill="midnightblue" stroke="midnightblue" points="150.244,-30.9183 154.473,-21.2039 145.109,-26.1609 150.244,-30.9183"/>
</g>
</g>
</svg>
