<?xml version="1.0" encoding="UTF-8" standalone="no"?>
<!DOCTYPE svg PUBLIC "-//W3C//DTD SVG 1.1//EN"
 "http://www.w3.org/Graphics/SVG/1.1/DTD/svg11.dtd">
<!-- Generated by graphviz version 2.36.0 (20140111.2315)
 -->
<!-- Title: /Users/tgil/git/CoActionOS/CoActionOS/src/sys/signal/_kill.c Pages: 1 -->
<svg width="713pt" height="272pt"
 viewBox="0.00 0.00 713.00 272.00" xmlns="http://www.w3.org/2000/svg" xmlns:xlink="http://www.w3.org/1999/xlink">
<g id="graph0" class="graph" transform="scale(1 1) rotate(0) translate(4 268)">
<title>/Users/tgil/git/CoActionOS/CoActionOS/src/sys/signal/_kill.c</title>
<!-- Node1 -->
<g id="node1" class="node"><title>Node1</title>
<polygon fill="#bfbfbf" stroke="black" points="442.931,-225 442.931,-263 565.069,-263 565.069,-225 442.931,-225"/>
<text text-anchor="start" x="450.931" y="-251" font-family="Helvetica,sans-Serif" font-size="10.00">/Users/tgil/git/CoAction</text>
<text text-anchor="start" x="450.931" y="-241" font-family="Helvetica,sans-Serif" font-size="10.00">OS/CoActionOS/src/sys</text>
<text text-anchor="middle" x="504" y="-231" font-family="Helvetica,sans-Serif" font-size="10.00">/signal/_kill.c</text>
</g>
<!-- Node2 -->
<g id="node2" class="node"><title>Node2</title>
<polygon fill="none" stroke="#bfbfbf" points="375.766,-169 375.766,-187 426.234,-187 426.234,-169 375.766,-169"/>
<text text-anchor="middle" x="401" y="-175" font-family="Helvetica,sans-Serif" font-size="10.00">signal.h</text>
</g>
<!-- Node1&#45;&gt;Node2 -->
<g id="edge1" class="edge"><title>Node1&#45;&gt;Node2</title>
<path fill="none" stroke="midnightblue" d="M474.76,-224.831C458.211,-214.548 437.865,-201.906 422.736,-192.506"/>
<polygon fill="midnightblue" stroke="midnightblue" points="424.412,-189.427 414.071,-187.122 420.718,-195.373 424.412,-189.427"/>
</g>
<!-- Node3 -->
<g id="node3" class="node"><title>Node3</title>
<polygon fill="none" stroke="#bfbfbf" points="444.158,-169 444.158,-187 491.842,-187 491.842,-169 444.158,-169"/>
<text text-anchor="middle" x="468" y="-175" font-family="Helvetica,sans-Serif" font-size="10.00">errno.h</text>
</g>
<!-- Node1&#45;&gt;Node3 -->
<g id="edge2" class="edge"><title>Node1&#45;&gt;Node3</title>
<path fill="none" stroke="midnightblue" d="M493.78,-224.831C488.705,-215.81 482.609,-204.972 477.619,-196.1"/>
<polygon fill="midnightblue" stroke="midnightblue" points="480.522,-194.122 472.569,-187.122 474.421,-197.554 480.522,-194.122"/>
</g>
<!-- Node4 -->
<g id="node4" class="node"><title>Node4</title>
<g id="a_node4"><a xlink:href="sig__local_8h_source.html" target="_top" xlink:title="sig_local.h">
<polygon fill="none" stroke="black" points="509.375,-169 509.375,-187 572.625,-187 572.625,-169 509.375,-169"/>
<text text-anchor="middle" x="541" y="-175" font-family="Helvetica,sans-Serif" font-size="10.00">sig_local.h</text>
</a>
</g>
</g>
<!-- Node1&#45;&gt;Node4 -->
<g id="edge3" class="edge"><title>Node1&#45;&gt;Node4</title>
<path fill="none" stroke="midnightblue" d="M514.504,-224.831C519.776,-215.713 526.12,-204.738 531.279,-195.815"/>
<polygon fill="midnightblue" stroke="midnightblue" points="534.33,-197.531 536.305,-187.122 528.269,-194.027 534.33,-197.531"/>
</g>
<!-- Node16 -->
<g id="node16" class="node"><title>Node16</title>
<polygon fill="none" stroke="#bfbfbf" points="590.247,-169 590.247,-187 705.753,-187 705.753,-169 590.247,-169"/>
<text text-anchor="middle" x="648" y="-175" font-family="Helvetica,sans-Serif" font-size="10.00">../sched/sched_flags.h</text>
</g>
<!-- Node1&#45;&gt;Node16 -->
<g id="edge18" class="edge"><title>Node1&#45;&gt;Node16</title>
<path fill="none" stroke="midnightblue" d="M544.879,-224.831C569.107,-214.063 599.157,-200.708 620.555,-191.198"/>
<polygon fill="midnightblue" stroke="midnightblue" points="622.009,-194.382 629.726,-187.122 619.166,-187.985 622.009,-194.382"/>
</g>
<!-- Node5 -->
<g id="node5" class="node"><title>Node5</title>
<g id="a_node5"><a xlink:href="hwpl_8h.html" target="_top" xlink:title="HWPL Header file (includes all other header files) ">
<polygon fill="none" stroke="black" points="244.547,-113 244.547,-131 289.453,-131 289.453,-113 244.547,-113"/>
<text text-anchor="middle" x="267" y="-119" font-family="Helvetica,sans-Serif" font-size="10.00">hwpl.h</text>
</a>
</g>
</g>
<!-- Node4&#45;&gt;Node5 -->
<g id="edge4" class="edge"><title>Node4&#45;&gt;Node5</title>
<path fill="none" stroke="midnightblue" d="M509.233,-169.944C506.115,-169.276 502.998,-168.618 500,-168 428.653,-153.282 344.705,-137.427 299.602,-129.027"/>
<polygon fill="midnightblue" stroke="midnightblue" points="300.002,-125.542 289.53,-127.155 298.722,-132.424 300.002,-125.542"/>
</g>
<!-- Node6 -->
<g id="node6" class="node"><title>Node6</title>
<polygon fill="none" stroke="#bfbfbf" points="482.879,-1 482.879,-19 531.121,-19 531.121,-1 482.879,-1"/>
<text text-anchor="middle" x="507" y="-7" font-family="Helvetica,sans-Serif" font-size="10.00">stdint.h</text>
</g>
<!-- Node4&#45;&gt;Node6 -->
<g id="edge16" class="edge"><title>Node4&#45;&gt;Node6</title>
<path fill="none" stroke="midnightblue" d="M539.36,-168.993C534.189,-143.748 518.134,-65.3617 510.766,-29.3862"/>
<polygon fill="midnightblue" stroke="midnightblue" points="514.139,-28.4115 508.704,-19.3172 507.281,-29.8162 514.139,-28.4115"/>
</g>
<!-- Node15 -->
<g id="node15" class="node"><title>Node15</title>
<polygon fill="none" stroke="#bfbfbf" points="568.544,-113 568.544,-131 633.456,-131 633.456,-113 568.544,-113"/>
<text text-anchor="middle" x="601" y="-119" font-family="Helvetica,sans-Serif" font-size="10.00">sys/reent.h</text>
</g>
<!-- Node4&#45;&gt;Node15 -->
<g id="edge17" class="edge"><title>Node4&#45;&gt;Node15</title>
<path fill="none" stroke="midnightblue" d="M550.113,-168.799C559.099,-160.711 573.05,-148.155 584.073,-138.234"/>
<polygon fill="midnightblue" stroke="midnightblue" points="586.71,-140.57 591.802,-131.279 582.027,-135.367 586.71,-140.57"/>
</g>
<!-- Node5&#45;&gt;Node6 -->
<g id="edge5" class="edge"><title>Node5&#45;&gt;Node6</title>
<path fill="none" stroke="midnightblue" d="M289.69,-119.037C339.046,-114.338 454.054,-100.942 483,-76 496.652,-64.236 502.545,-43.9805 505.084,-29.2007"/>
<polygon fill="midnightblue" stroke="midnightblue" points="508.565,-29.578 506.446,-19.1973 501.629,-28.634 508.565,-29.578"/>
</g>
<!-- Node7 -->
<g id="node7" class="node"><title>Node7</title>
<polygon fill="none" stroke="#bfbfbf" points="0.157715,-57 0.157715,-75 47.8423,-75 47.8423,-57 0.157715,-57"/>
<text text-anchor="middle" x="24" y="-63" font-family="Helvetica,sans-Serif" font-size="10.00">stdlib.h</text>
</g>
<!-- Node5&#45;&gt;Node7 -->
<g id="edge6" class="edge"><title>Node5&#45;&gt;Node7</title>
<path fill="none" stroke="midnightblue" d="M244.53,-116.609C207.661,-109.312 131.818,-93.9259 58.0331,-76.1489"/>
<polygon fill="midnightblue" stroke="midnightblue" points="58.6542,-72.6981 48.1108,-73.7405 57.0031,-79.5006 58.6542,-72.6981"/>
</g>
<!-- Node8 -->
<g id="node8" class="node"><title>Node8</title>
<polygon fill="none" stroke="#bfbfbf" points="65.6035,-57 65.6035,-75 114.396,-75 114.396,-57 65.6035,-57"/>
<text text-anchor="middle" x="90" y="-63" font-family="Helvetica,sans-Serif" font-size="10.00">string.h</text>
</g>
<!-- Node5&#45;&gt;Node8 -->
<g id="edge7" class="edge"><title>Node5&#45;&gt;Node8</title>
<path fill="none" stroke="midnightblue" d="M244.223,-114.051C213.885,-104.795 159.941,-88.3379 124.571,-77.5471"/>
<polygon fill="midnightblue" stroke="midnightblue" points="125.266,-74.1 114.68,-74.5295 123.224,-80.7954 125.266,-74.1"/>
</g>
<!-- Node9 -->
<g id="node9" class="node"><title>Node9</title>
<polygon fill="none" stroke="#bfbfbf" points="132.269,-57 132.269,-75 177.731,-75 177.731,-57 132.269,-57"/>
<text text-anchor="middle" x="155" y="-63" font-family="Helvetica,sans-Serif" font-size="10.00">stdio.h</text>
</g>
<!-- Node5&#45;&gt;Node9 -->
<g id="edge8" class="edge"><title>Node5&#45;&gt;Node9</title>
<path fill="none" stroke="midnightblue" d="M249.99,-112.799C231.628,-103.946 202.165,-89.7404 180.918,-79.4963"/>
<polygon fill="midnightblue" stroke="midnightblue" points="182.331,-76.292 171.803,-75.1017 179.291,-82.5974 182.331,-76.292"/>
</g>
<!-- Node10 -->
<g id="node10" class="node"><title>Node10</title>
<polygon fill="none" stroke="#bfbfbf" points="255.707,-1 255.707,-19 312.293,-19 312.293,-1 255.707,-1"/>
<text text-anchor="middle" x="284" y="-7" font-family="Helvetica,sans-Serif" font-size="10.00">stdbool.h</text>
</g>
<!-- Node5&#45;&gt;Node10 -->
<g id="edge9" class="edge"><title>Node5&#45;&gt;Node10</title>
<path fill="none" stroke="midnightblue" d="M255.256,-112.946C239.395,-101.004 214.272,-77.6743 225,-56 231.74,-42.3835 244.791,-31.7623 256.909,-24.2666"/>
<polygon fill="midnightblue" stroke="midnightblue" points="258.926,-27.1451 265.874,-19.1459 255.454,-21.0669 258.926,-27.1451"/>
</g>
<!-- Node11 -->
<g id="node11" class="node"><title>Node11</title>
<polygon fill="none" stroke="#bfbfbf" points="233.707,-57 233.707,-75 300.293,-75 300.293,-57 233.707,-57"/>
<text text-anchor="middle" x="267" y="-63" font-family="Helvetica,sans-Serif" font-size="10.00">hwpl/fault.h</text>
</g>
<!-- Node5&#45;&gt;Node11 -->
<g id="edge10" class="edge"><title>Node5&#45;&gt;Node11</title>
<path fill="none" stroke="midnightblue" d="M267,-112.562C267,-105.308 267,-94.5884 267,-85.3691"/>
<polygon fill="midnightblue" stroke="midnightblue" points="270.5,-85.2014 267,-75.2014 263.5,-85.2015 270.5,-85.2014"/>
</g>
<!-- Node12 -->
<g id="node12" class="node"><title>Node12</title>
<polygon fill="none" stroke="#bfbfbf" points="318.431,-57 318.431,-75 385.569,-75 385.569,-57 318.431,-57"/>
<text text-anchor="middle" x="352" y="-63" font-family="Helvetica,sans-Serif" font-size="10.00">hwpl/arch.h</text>
</g>
<!-- Node5&#45;&gt;Node12 -->
<g id="edge11" class="edge"><title>Node5&#45;&gt;Node12</title>
<path fill="none" stroke="midnightblue" d="M279.91,-112.799C293.342,-104.265 314.604,-90.7573 330.563,-80.6187"/>
<polygon fill="midnightblue" stroke="midnightblue" points="332.683,-83.4183 339.247,-75.1017 328.93,-77.5098 332.683,-83.4183"/>
</g>
<!-- Node13 -->
<g id="node13" class="node"><title>Node13</title>
<g id="a_node13"><a xlink:href="types_8h_source.html" target="_top" xlink:title="hwpl/types.h">
<polygon fill="none" stroke="black" points="403.207,-57 403.207,-75 474.793,-75 474.793,-57 403.207,-57"/>
<text text-anchor="middle" x="439" y="-63" font-family="Helvetica,sans-Serif" font-size="10.00">hwpl/types.h</text>
</a>
</g>
</g>
<!-- Node5&#45;&gt;Node13 -->
<g id="edge12" class="edge"><title>Node5&#45;&gt;Node13</title>
<path fill="none" stroke="midnightblue" d="M289.486,-113.94C318.576,-104.807 369.573,-88.7967 403.814,-78.0468"/>
<polygon fill="midnightblue" stroke="midnightblue" points="404.934,-81.3635 413.427,-75.0288 402.838,-74.6849 404.934,-81.3635"/>
</g>
<!-- Node13&#45;&gt;Node6 -->
<g id="edge13" class="edge"><title>Node13&#45;&gt;Node6</title>
<path fill="none" stroke="midnightblue" d="M449.328,-56.7986C459.712,-48.552 475.946,-35.6608 488.547,-25.6535"/>
<polygon fill="midnightblue" stroke="midnightblue" points="490.921,-28.2384 496.575,-19.2786 486.567,-22.7566 490.921,-28.2384"/>
</g>
<!-- Node13&#45;&gt;Node10 -->
<g id="edge14" class="edge"><title>Node13&#45;&gt;Node10</title>
<path fill="none" stroke="midnightblue" d="M415.795,-56.9157C389.466,-47.743 346.336,-32.7171 316.627,-22.3669"/>
<polygon fill="midnightblue" stroke="midnightblue" points="317.705,-19.0361 307.11,-19.0513 315.402,-25.6465 317.705,-19.0361"/>
</g>
<!-- Node14 -->
<g id="node14" class="node"><title>Node14</title>
<g id="a_node14"><a xlink:href="ioctl_8h_source.html" target="_top" xlink:title="dev/ioctl.h">
<polygon fill="none" stroke="black" points="403.488,-1 403.488,-19 464.512,-19 464.512,-1 403.488,-1"/>
<text text-anchor="middle" x="434" y="-7" font-family="Helvetica,sans-Serif" font-size="10.00">dev/ioctl.h</text>
</a>
</g>
</g>
<!-- Node13&#45;&gt;Node14 -->
<g id="edge15" class="edge"><title>Node13&#45;&gt;Node14</title>
<path fill="none" stroke="midnightblue" d="M438.219,-56.5625C437.547,-49.308 436.554,-38.5884 435.701,-29.3691"/>
<polygon fill="midnightblue" stroke="midnightblue" points="439.167,-28.8361 434.759,-19.2014 432.196,-29.4816 439.167,-28.8361"/>
</g>
</g>
</svg>
