<?xml version="1.0" encoding="UTF-8" standalone="no"?>
<!DOCTYPE svg PUBLIC "-//W3C//DTD SVG 1.1//EN"
 "http://www.w3.org/Graphics/SVG/1.1/DTD/svg11.dtd">
<!-- Generated by graphviz version 2.34.0 (20130907.0228)
 -->
<!-- Title: /Users/tgil/git/CoActionOS/CoActionOS/src/sys/unistd/_lseek.c Pages: 1 -->
<svg width="1078pt" height="344pt"
 viewBox="0.00 0.00 1078.00 344.00" xmlns="http://www.w3.org/2000/svg" xmlns:xlink="http://www.w3.org/1999/xlink">
<g id="graph0" class="graph" transform="scale(1 1) rotate(0) translate(4 340)">
<title>/Users/tgil/git/CoActionOS/CoActionOS/src/sys/unistd/_lseek.c</title>
<!-- Node1 -->
<g id="node1" class="node"><title>Node1</title>
<polygon fill="#bfbfbf" stroke="black" points="171.931,-291 171.931,-335 294.069,-335 294.069,-291 171.931,-291"/>
<text text-anchor="start" x="179.931" y="-321" font-family="Helvetica,sans-Serif" font-size="10.00">/Users/tgil/git/CoAction</text>
<text text-anchor="start" x="179.931" y="-309" font-family="Helvetica,sans-Serif" font-size="10.00">OS/CoActionOS/src/sys</text>
<text text-anchor="middle" x="233" y="-297" font-family="Helvetica,sans-Serif" font-size="10.00">/unistd/_lseek.c</text>
</g>
<!-- Node2 -->
<g id="node2" class="node"><title>Node2</title>
<g id="a_node2"><a xlink:href="config_8h.html" target="_top" xlink:title="config.h">
<polygon fill="none" stroke="black" points="-0.512207,-175 -0.512207,-195 50.5122,-195 50.5122,-175 -0.512207,-175"/>
<text text-anchor="middle" x="25" y="-181" font-family="Helvetica,sans-Serif" font-size="10.00">config.h</text>
</a>
</g>
</g>
<!-- Node1&#45;&gt;Node2 -->
<g id="edge1" class="edge"><title>Node1&#45;&gt;Node2</title>
<path fill="none" stroke="midnightblue" d="M198.185,-290.91C155.933,-265.315 85.7965,-222.829 49.0855,-200.59"/>
<polygon fill="midnightblue" stroke="midnightblue" points="50.4549,-197.328 40.0884,-195.14 46.828,-203.315 50.4549,-197.328"/>
</g>
<!-- Node3 -->
<g id="node3" class="node"><title>Node3</title>
<g id="a_node3"><a xlink:href="unistd__fs_8h_source.html" target="_top" xlink:title="unistd_fs.h">
<polygon fill="none" stroke="black" points="200.818,-233 200.818,-253 265.182,-253 265.182,-233 200.818,-233"/>
<text text-anchor="middle" x="233" y="-239" font-family="Helvetica,sans-Serif" font-size="10.00">unistd_fs.h</text>
</a>
</g>
</g>
<!-- Node1&#45;&gt;Node3 -->
<g id="edge2" class="edge"><title>Node1&#45;&gt;Node3</title>
<path fill="none" stroke="midnightblue" d="M233,-290.857C233,-282.074 233,-271.948 233,-263.362"/>
<polygon fill="midnightblue" stroke="midnightblue" points="236.5,-263.204 233,-253.204 229.5,-263.204 236.5,-263.204"/>
</g>
<!-- Node19 -->
<g id="node19" class="node"><title>Node19</title>
<g id="a_node19"><a xlink:href="unistd__flags_8h_source.html" target="_top" xlink:title="unistd_flags.h">
<polygon fill="none" stroke="black" points="583.146,-233 583.146,-253 660.854,-253 660.854,-233 583.146,-233"/>
<text text-anchor="middle" x="622" y="-239" font-family="Helvetica,sans-Serif" font-size="10.00">unistd_flags.h</text>
</a>
</g>
</g>
<!-- Node1&#45;&gt;Node19 -->
<g id="edge27" class="edge"><title>Node1&#45;&gt;Node19</title>
<path fill="none" stroke="midnightblue" d="M294.209,-301.3C371.295,-287.825 502.202,-264.941 573.016,-252.563"/>
<polygon fill="midnightblue" stroke="midnightblue" points="573.766,-255.985 583.014,-250.815 572.561,-249.089 573.766,-255.985"/>
</g>
<!-- Node3&#45;&gt;Node2 -->
<g id="edge3" class="edge"><title>Node3&#45;&gt;Node2</title>
<path fill="none" stroke="midnightblue" d="M200.538,-233.704C167.516,-225.201 114.628,-211.412 60.3801,-196.339"/>
<polygon fill="midnightblue" stroke="midnightblue" points="61.1707,-192.926 50.598,-193.611 59.2902,-199.669 61.1707,-192.926"/>
</g>
<!-- Node4 -->
<g id="node4" class="node"><title>Node4</title>
<polygon fill="none" stroke="#bfbfbf" points="202.771,-175 202.771,-195 263.229,-195 263.229,-175 202.771,-175"/>
<text text-anchor="middle" x="233" y="-181" font-family="Helvetica,sans-Serif" font-size="10.00">sys/fcntl.h</text>
</g>
<!-- Node3&#45;&gt;Node4 -->
<g id="edge4" class="edge"><title>Node3&#45;&gt;Node4</title>
<path fill="none" stroke="midnightblue" d="M233,-232.753C233,-225.25 233,-214.424 233,-205.078"/>
<polygon fill="midnightblue" stroke="midnightblue" points="236.5,-205.075 233,-195.075 229.5,-205.075 236.5,-205.075"/>
</g>
<!-- Node5 -->
<g id="node5" class="node"><title>Node5</title>
<polygon fill="none" stroke="#bfbfbf" points="311.882,-59 311.882,-79 370.118,-79 370.118,-59 311.882,-59"/>
<text text-anchor="middle" x="341" y="-65" font-family="Helvetica,sans-Serif" font-size="10.00">sys/stat.h</text>
</g>
<!-- Node3&#45;&gt;Node5 -->
<g id="edge5" class="edge"><title>Node3&#45;&gt;Node5</title>
<path fill="none" stroke="midnightblue" d="M241.651,-232.932C249.97,-223.96 262.63,-209.633 272,-196 296.955,-159.689 320.327,-113.491 332.416,-88.3426"/>
<polygon fill="midnightblue" stroke="midnightblue" points="335.617,-89.7623 336.746,-79.2278 329.294,-86.759 335.617,-89.7623"/>
</g>
<!-- Node6 -->
<g id="node6" class="node"><title>Node6</title>
<polygon fill="none" stroke="#bfbfbf" points="717.269,-59 717.269,-79 762.731,-79 762.731,-59 717.269,-59"/>
<text text-anchor="middle" x="740" y="-65" font-family="Helvetica,sans-Serif" font-size="10.00">stdio.h</text>
</g>
<!-- Node3&#45;&gt;Node6 -->
<g id="edge6" class="edge"><title>Node3&#45;&gt;Node6</title>
<path fill="none" stroke="midnightblue" d="M265.452,-242.137C325.83,-241.389 458.667,-234.993 562,-196 596.744,-182.889 682.757,-115.889 721.067,-85.2841"/>
<polygon fill="midnightblue" stroke="midnightblue" points="723.286,-87.9907 728.898,-79.0039 718.907,-82.5299 723.286,-87.9907"/>
</g>
<!-- Node7 -->
<g id="node7" class="node"><title>Node7</title>
<polygon fill="none" stroke="#bfbfbf" points="68.4878,-175 68.4878,-195 119.512,-195 119.512,-175 68.4878,-175"/>
<text text-anchor="middle" x="94" y="-181" font-family="Helvetica,sans-Serif" font-size="10.00">unistd.h</text>
</g>
<!-- Node3&#45;&gt;Node7 -->
<g id="edge7" class="edge"><title>Node3&#45;&gt;Node7</title>
<path fill="none" stroke="midnightblue" d="M210.358,-232.878C187.438,-223.644 151.792,-209.283 125.992,-198.889"/>
<polygon fill="midnightblue" stroke="midnightblue" points="127.216,-195.609 116.632,-195.118 124.6,-202.102 127.216,-195.609"/>
</g>
<!-- Node8 -->
<g id="node8" class="node"><title>Node8</title>
<polygon fill="none" stroke="#bfbfbf" points="137.158,-175 137.158,-195 184.842,-195 184.842,-175 137.158,-175"/>
<text text-anchor="middle" x="161" y="-181" font-family="Helvetica,sans-Serif" font-size="10.00">errno.h</text>
</g>
<!-- Node3&#45;&gt;Node8 -->
<g id="edge8" class="edge"><title>Node3&#45;&gt;Node8</title>
<path fill="none" stroke="midnightblue" d="M221.111,-232.753C210.102,-224.19 193.526,-211.298 180.567,-201.219"/>
<polygon fill="midnightblue" stroke="midnightblue" points="182.71,-198.452 172.668,-195.075 178.413,-203.977 182.71,-198.452"/>
</g>
<!-- Node9 -->
<g id="node9" class="node"><title>Node9</title>
<g id="a_node9"><a xlink:href="sysfs_8h_source.html" target="_top" xlink:title="sysfs.h">
<polygon fill="none" stroke="black" points="506.441,-175 506.441,-195 553.559,-195 553.559,-175 506.441,-175"/>
<text text-anchor="middle" x="530" y="-181" font-family="Helvetica,sans-Serif" font-size="10.00">sysfs.h</text>
</a>
</g>
</g>
<!-- Node3&#45;&gt;Node9 -->
<g id="edge9" class="edge"><title>Node3&#45;&gt;Node9</title>
<path fill="none" stroke="midnightblue" d="M265.35,-235.9C321.963,-225.226 438.456,-203.261 496.126,-192.387"/>
<polygon fill="midnightblue" stroke="midnightblue" points="497.003,-195.783 506.182,-190.491 495.706,-188.905 497.003,-195.783"/>
</g>
<!-- Node9&#45;&gt;Node5 -->
<g id="edge14" class="edge"><title>Node9&#45;&gt;Node5</title>
<path fill="none" stroke="midnightblue" d="M506.351,-181.345C475.854,-176.902 422.417,-165.552 386,-138 369.122,-125.231 356.61,-104.185 349.121,-88.8842"/>
<polygon fill="midnightblue" stroke="midnightblue" points="352.108,-87.0018 344.747,-79.3816 345.749,-89.9289 352.108,-87.0018"/>
</g>
<!-- Node10 -->
<g id="node10" class="node"><title>Node10</title>
<polygon fill="none" stroke="#bfbfbf" points="458.707,-1 458.707,-21 515.293,-21 515.293,-1 458.707,-1"/>
<text text-anchor="middle" x="487" y="-7" font-family="Helvetica,sans-Serif" font-size="10.00">stdbool.h</text>
</g>
<!-- Node9&#45;&gt;Node10 -->
<g id="edge10" class="edge"><title>Node9&#45;&gt;Node10</title>
<path fill="none" stroke="midnightblue" d="M521.464,-174.925C506.211,-157.937 475.029,-119.473 466,-80 462.054,-62.748 469.097,-43.5139 476.069,-29.9164"/>
<polygon fill="midnightblue" stroke="midnightblue" points="479.16,-31.5589 480.974,-21.1205 473.046,-28.1496 479.16,-31.5589"/>
</g>
<!-- Node11 -->
<g id="node11" class="node"><title>Node11</title>
<polygon fill="none" stroke="#bfbfbf" points="574.99,-117 574.99,-137 641.01,-137 641.01,-117 574.99,-117"/>
<text text-anchor="middle" x="608" y="-123" font-family="Helvetica,sans-Serif" font-size="10.00">sys/types.h</text>
</g>
<!-- Node9&#45;&gt;Node11 -->
<g id="edge11" class="edge"><title>Node9&#45;&gt;Node11</title>
<path fill="none" stroke="midnightblue" d="M542.88,-174.753C554.92,-166.109 573.106,-153.052 587.203,-142.931"/>
<polygon fill="midnightblue" stroke="midnightblue" points="589.278,-145.75 595.36,-137.075 585.195,-140.064 589.278,-145.75"/>
</g>
<!-- Node12 -->
<g id="node12" class="node"><title>Node12</title>
<polygon fill="none" stroke="#bfbfbf" points="1021.88,-1 1021.88,-21 1070.12,-21 1070.12,-1 1021.88,-1"/>
<text text-anchor="middle" x="1046" y="-7" font-family="Helvetica,sans-Serif" font-size="10.00">stdint.h</text>
</g>
<!-- Node9&#45;&gt;Node12 -->
<g id="edge12" class="edge"><title>Node9&#45;&gt;Node12</title>
<path fill="none" stroke="midnightblue" d="M553.818,-183.145C647.065,-179.24 985.242,-159.697 1047,-80 1057.71,-66.1818 1055.7,-45.6009 1052.09,-30.7023"/>
<polygon fill="midnightblue" stroke="midnightblue" points="1055.45,-29.7004 1049.35,-21.0361 1048.71,-31.6117 1055.45,-29.7004"/>
</g>
<!-- Node13 -->
<g id="node13" class="node"><title>Node13</title>
<polygon fill="none" stroke="#bfbfbf" points="395.209,-117 395.209,-137 446.791,-137 446.791,-117 395.209,-117"/>
<text text-anchor="middle" x="421" y="-123" font-family="Helvetica,sans-Serif" font-size="10.00">stddef.h</text>
</g>
<!-- Node9&#45;&gt;Node13 -->
<g id="edge13" class="edge"><title>Node9&#45;&gt;Node13</title>
<path fill="none" stroke="midnightblue" d="M512.001,-174.753C494.462,-165.742 467.588,-151.935 447.586,-141.659"/>
<polygon fill="midnightblue" stroke="midnightblue" points="449.158,-138.532 438.664,-137.075 445.96,-144.758 449.158,-138.532"/>
</g>
<!-- Node14 -->
<g id="node14" class="node"><title>Node14</title>
<polygon fill="none" stroke="#bfbfbf" points="697.323,-117 697.323,-137 746.677,-137 746.677,-117 697.323,-117"/>
<text text-anchor="middle" x="722" y="-123" font-family="Helvetica,sans-Serif" font-size="10.00">dirent.h</text>
</g>
<!-- Node9&#45;&gt;Node14 -->
<g id="edge15" class="edge"><title>Node9&#45;&gt;Node14</title>
<path fill="none" stroke="midnightblue" d="M553.929,-177.021C587.518,-167.224 648.849,-149.336 687.406,-138.09"/>
<polygon fill="midnightblue" stroke="midnightblue" points="688.541,-141.405 697.161,-135.245 686.581,-134.685 688.541,-141.405"/>
</g>
<!-- Node15 -->
<g id="node15" class="node"><title>Node15</title>
<g id="a_node15"><a xlink:href="device_8h_source.html" target="_top" xlink:title="device.h">
<polygon fill="none" stroke="black" points="503.377,-117 503.377,-137 556.623,-137 556.623,-117 503.377,-117"/>
<text text-anchor="middle" x="530" y="-123" font-family="Helvetica,sans-Serif" font-size="10.00">device.h</text>
</a>
</g>
</g>
<!-- Node9&#45;&gt;Node15 -->
<g id="edge16" class="edge"><title>Node9&#45;&gt;Node15</title>
<path fill="none" stroke="midnightblue" d="M530,-174.753C530,-167.25 530,-156.424 530,-147.078"/>
<polygon fill="midnightblue" stroke="midnightblue" points="533.5,-147.075 530,-137.075 526.5,-147.075 533.5,-147.075"/>
</g>
<!-- Node15&#45;&gt;Node5 -->
<g id="edge17" class="edge"><title>Node15&#45;&gt;Node5</title>
<path fill="none" stroke="midnightblue" d="M503.322,-118.095C471.234,-108.588 417.095,-92.5466 380.241,-81.627"/>
<polygon fill="midnightblue" stroke="midnightblue" points="380.92,-78.1778 370.338,-78.6926 378.931,-84.8894 380.92,-78.1778"/>
</g>
<!-- Node15&#45;&gt;Node10 -->
<g id="edge18" class="edge"><title>Node15&#45;&gt;Node10</title>
<path fill="none" stroke="midnightblue" d="M511.629,-116.938C498.182,-109.184 480.952,-96.6359 473,-80 465.471,-64.2487 470.943,-44.553 477.115,-30.4186"/>
<polygon fill="midnightblue" stroke="midnightblue" points="480.349,-31.7712 481.557,-21.2455 474.049,-28.7205 480.349,-31.7712"/>
</g>
<!-- Node16 -->
<g id="node16" class="node"><title>Node16</title>
<g id="a_node16"><a xlink:href="types_8h_source.html" target="_top" xlink:title="hwpl/types.h">
<polygon fill="none" stroke="black" points="627.207,-59 627.207,-79 698.793,-79 698.793,-59 627.207,-59"/>
<text text-anchor="middle" x="663" y="-65" font-family="Helvetica,sans-Serif" font-size="10.00">hwpl/types.h</text>
</a>
</g>
</g>
<!-- Node15&#45;&gt;Node16 -->
<g id="edge19" class="edge"><title>Node15&#45;&gt;Node16</title>
<path fill="none" stroke="midnightblue" d="M551.665,-116.878C573.499,-107.685 607.403,-93.4095 632.063,-83.0263"/>
<polygon fill="midnightblue" stroke="midnightblue" points="633.486,-86.2245 641.345,-79.1181 630.77,-79.773 633.486,-86.2245"/>
</g>
<!-- Node17 -->
<g id="node17" class="node"><title>Node17</title>
<polygon fill="none" stroke="#bfbfbf" points="547.431,-1 547.431,-21 614.569,-21 614.569,-1 547.431,-1"/>
<text text-anchor="middle" x="581" y="-7" font-family="Helvetica,sans-Serif" font-size="10.00">hwpl/arch.h</text>
</g>
<!-- Node15&#45;&gt;Node17 -->
<g id="edge22" class="edge"><title>Node15&#45;&gt;Node17</title>
<path fill="none" stroke="midnightblue" d="M530.525,-116.768C531.589,-103.272 534.755,-77.6272 544,-58 549.044,-47.2911 557.069,-36.8817 564.357,-28.6814"/>
<polygon fill="midnightblue" stroke="midnightblue" points="566.994,-30.9854 571.262,-21.2883 561.879,-26.2072 566.994,-30.9854"/>
</g>
<!-- Node18 -->
<g id="node18" class="node"><title>Node18</title>
<g id="a_node18"><a xlink:href="pio_8h.html" target="_top" xlink:title="General Purpose Input/Output Header File. ">
<polygon fill="none" stroke="red" points="552.707,-59 552.707,-79 609.293,-79 609.293,-59 552.707,-59"/>
<text text-anchor="middle" x="581" y="-65" font-family="Helvetica,sans-Serif" font-size="10.00">dev/pio.h</text>
</a>
</g>
</g>
<!-- Node15&#45;&gt;Node18 -->
<g id="edge23" class="edge"><title>Node15&#45;&gt;Node18</title>
<path fill="none" stroke="midnightblue" d="M538.422,-116.753C545.848,-108.598 556.852,-96.5158 565.812,-86.6769"/>
<polygon fill="midnightblue" stroke="midnightblue" points="568.589,-88.8253 572.735,-79.0752 563.414,-84.112 568.589,-88.8253"/>
</g>
<!-- Node16&#45;&gt;Node10 -->
<g id="edge21" class="edge"><title>Node16&#45;&gt;Node10</title>
<path fill="none" stroke="midnightblue" d="M634.331,-58.878C604.583,-49.4126 557.902,-34.5598 525.074,-24.1146"/>
<polygon fill="midnightblue" stroke="midnightblue" points="525.956,-20.7222 515.365,-21.0253 523.833,-27.3927 525.956,-20.7222"/>
</g>
<!-- Node16&#45;&gt;Node12 -->
<g id="edge20" class="edge"><title>Node16&#45;&gt;Node12</title>
<path fill="none" stroke="midnightblue" d="M698.807,-59.7603C701.91,-59.1322 705.006,-58.5354 708,-58 818.264,-38.2807 950.103,-22.5894 1011.44,-15.7386"/>
<polygon fill="midnightblue" stroke="midnightblue" points="1012.16,-19.1811 1021.71,-14.6013 1011.39,-12.2237 1012.16,-19.1811"/>
</g>
<!-- Node18&#45;&gt;Node10 -->
<g id="edge24" class="edge"><title>Node18&#45;&gt;Node10</title>
<path fill="none" stroke="midnightblue" d="M565.478,-58.7527C550.694,-49.9457 528.222,-36.5575 511.107,-26.3617"/>
<polygon fill="midnightblue" stroke="midnightblue" points="512.616,-23.1864 502.233,-21.0752 509.033,-29.2002 512.616,-23.1864"/>
</g>
<!-- Node18&#45;&gt;Node12 -->
<g id="edge25" class="edge"><title>Node18&#45;&gt;Node12</title>
<path fill="none" stroke="midnightblue" d="M609.581,-59.7998C612.412,-59.131 615.253,-58.5155 618,-58 762.917,-30.8031 938.678,-18.2046 1011.67,-13.8568"/>
<polygon fill="midnightblue" stroke="midnightblue" points="1011.89,-17.3496 1021.67,-13.2745 1011.49,-10.3615 1011.89,-17.3496"/>
</g>
<!-- Node18&#45;&gt;Node17 -->
<g id="edge26" class="edge"><title>Node18&#45;&gt;Node17</title>
<path fill="none" stroke="midnightblue" d="M581,-58.7527C581,-51.2504 581,-40.4238 581,-31.0781"/>
<polygon fill="midnightblue" stroke="midnightblue" points="584.5,-31.0752 581,-21.0752 577.5,-31.0752 584.5,-31.0752"/>
</g>
<!-- Node19&#45;&gt;Node5 -->
<g id="edge29" class="edge"><title>Node19&#45;&gt;Node5</title>
<path fill="none" stroke="midnightblue" d="M583.053,-237.088C526.452,-227.882 421.819,-202.728 363,-138 350.765,-124.535 345.328,-104.187 342.916,-89.2581"/>
<polygon fill="midnightblue" stroke="midnightblue" points="346.356,-88.568 341.598,-79.1014 339.414,-89.4686 346.356,-88.568"/>
</g>
<!-- Node19&#45;&gt;Node9 -->
<g id="edge31" class="edge"><title>Node19&#45;&gt;Node9</title>
<path fill="none" stroke="midnightblue" d="M606.808,-232.753C592.339,-223.946 570.345,-210.558 553.594,-200.362"/>
<polygon fill="midnightblue" stroke="midnightblue" points="555.271,-197.285 544.909,-195.075 551.631,-203.264 555.271,-197.285"/>
</g>
<!-- Node19&#45;&gt;Node12 -->
<g id="edge28" class="edge"><title>Node19&#45;&gt;Node12</title>
<path fill="none" stroke="midnightblue" d="M661.057,-234.286C727.418,-220.35 865.535,-187.727 974,-138 1017.26,-118.168 1041.22,-121.78 1064,-80 1072.55,-64.319 1065.46,-44.3615 1057.8,-30.1316"/>
<polygon fill="midnightblue" stroke="midnightblue" points="1060.7,-28.1504 1052.6,-21.3181 1054.67,-31.7089 1060.7,-28.1504"/>
</g>
<!-- Node19&#45;&gt;Node14 -->
<g id="edge30" class="edge"><title>Node19&#45;&gt;Node14</title>
<path fill="none" stroke="midnightblue" d="M637.42,-232.88C650.661,-224.503 669.665,-211.121 683,-196 696.183,-181.051 707.046,-160.951 713.93,-146.486"/>
<polygon fill="midnightblue" stroke="midnightblue" points="717.244,-147.654 718.214,-137.104 710.876,-144.746 717.244,-147.654"/>
</g>
<!-- Node20 -->
<g id="node20" class="node"><title>Node20</title>
<g id="a_node20"><a xlink:href="hwpl_8h.html" target="_top" xlink:title="HWPL Header file (includes all other header files) ">
<polygon fill="none" stroke="black" points="768.547,-117 768.547,-137 813.453,-137 813.453,-117 768.547,-117"/>
<text text-anchor="middle" x="791" y="-123" font-family="Helvetica,sans-Serif" font-size="10.00">hwpl.h</text>
</a>
</g>
</g>
<!-- Node19&#45;&gt;Node20 -->
<g id="edge32" class="edge"><title>Node19&#45;&gt;Node20</title>
<path fill="none" stroke="midnightblue" d="M640.058,-232.886C656.99,-224.105 682.803,-210.111 704,-196 728.596,-179.626 755.112,-158.319 772.32,-143.955"/>
<polygon fill="midnightblue" stroke="midnightblue" points="775.018,-146.258 780.411,-137.139 770.508,-140.905 775.018,-146.258"/>
</g>
<!-- Node20&#45;&gt;Node6 -->
<g id="edge36" class="edge"><title>Node20&#45;&gt;Node6</title>
<path fill="none" stroke="midnightblue" d="M782.578,-116.753C775.152,-108.598 764.148,-96.5158 755.188,-86.6769"/>
<polygon fill="midnightblue" stroke="midnightblue" points="757.586,-84.112 748.265,-79.0752 752.411,-88.8253 757.586,-84.112"/>
</g>
<!-- Node20&#45;&gt;Node10 -->
<g id="edge37" class="edge"><title>Node20&#45;&gt;Node10</title>
<path fill="none" stroke="midnightblue" d="M768.235,-119.299C763.862,-118.119 759.305,-116.962 755,-116 662.159,-95.2422 626.507,-127.359 544,-80 523.421,-68.1879 506.971,-45.9725 497.131,-30.149"/>
<polygon fill="midnightblue" stroke="midnightblue" points="499.984,-28.098 491.881,-21.2729 493.959,-31.6618 499.984,-28.098"/>
</g>
<!-- Node20&#45;&gt;Node12 -->
<g id="edge33" class="edge"><title>Node20&#45;&gt;Node12</title>
<path fill="none" stroke="midnightblue" d="M813.544,-124.569C866.353,-120.765 995.943,-108.667 1027,-80 1040.48,-67.556 1044.69,-46.419 1045.87,-31.0075"/>
<polygon fill="midnightblue" stroke="midnightblue" points="1049.36,-31.1374 1046.27,-21.0035 1042.37,-30.8532 1049.36,-31.1374"/>
</g>
<!-- Node20&#45;&gt;Node16 -->
<g id="edge40" class="edge"><title>Node20&#45;&gt;Node16</title>
<path fill="none" stroke="midnightblue" d="M770.15,-116.878C749.23,-107.725 716.796,-93.5357 693.09,-83.1643"/>
<polygon fill="midnightblue" stroke="midnightblue" points="694.406,-79.9198 683.841,-79.1181 691.6,-86.3329 694.406,-79.9198"/>
</g>
<!-- Node20&#45;&gt;Node17 -->
<g id="edge39" class="edge"><title>Node20&#45;&gt;Node17</title>
<path fill="none" stroke="midnightblue" d="M791.034,-116.595C790.554,-101.914 787.394,-73.6174 771,-58 750.238,-38.2214 674.101,-24.5112 624.739,-17.4759"/>
<polygon fill="midnightblue" stroke="midnightblue" points="625.028,-13.9825 614.642,-16.0761 624.066,-20.9162 625.028,-13.9825"/>
</g>
<!-- Node21 -->
<g id="node21" class="node"><title>Node21</title>
<polygon fill="none" stroke="#bfbfbf" points="819.158,-59 819.158,-79 866.842,-79 866.842,-59 819.158,-59"/>
<text text-anchor="middle" x="843" y="-65" font-family="Helvetica,sans-Serif" font-size="10.00">stdlib.h</text>
</g>
<!-- Node20&#45;&gt;Node21 -->
<g id="edge34" class="edge"><title>Node20&#45;&gt;Node21</title>
<path fill="none" stroke="midnightblue" d="M799.587,-116.753C807.159,-108.598 818.378,-96.5158 827.514,-86.6769"/>
<polygon fill="midnightblue" stroke="midnightblue" points="830.333,-88.7847 834.573,-79.0752 825.204,-84.0216 830.333,-88.7847"/>
</g>
<!-- Node22 -->
<g id="node22" class="node"><title>Node22</title>
<polygon fill="none" stroke="#bfbfbf" points="884.604,-59 884.604,-79 933.396,-79 933.396,-59 884.604,-59"/>
<text text-anchor="middle" x="909" y="-65" font-family="Helvetica,sans-Serif" font-size="10.00">string.h</text>
</g>
<!-- Node20&#45;&gt;Node22 -->
<g id="edge35" class="edge"><title>Node20&#45;&gt;Node22</title>
<path fill="none" stroke="midnightblue" d="M810.221,-116.878C829.336,-107.807 858.876,-93.7876 880.676,-83.4418"/>
<polygon fill="midnightblue" stroke="midnightblue" points="882.253,-86.5676 889.787,-79.1181 879.252,-80.2436 882.253,-86.5676"/>
</g>
<!-- Node23 -->
<g id="node23" class="node"><title>Node23</title>
<polygon fill="none" stroke="#bfbfbf" points="951.707,-59 951.707,-79 1018.29,-79 1018.29,-59 951.707,-59"/>
<text text-anchor="middle" x="985" y="-65" font-family="Helvetica,sans-Serif" font-size="10.00">hwpl/fault.h</text>
</g>
<!-- Node20&#45;&gt;Node23 -->
<g id="edge38" class="edge"><title>Node20&#45;&gt;Node23</title>
<path fill="none" stroke="midnightblue" d="M813.634,-119.466C845.515,-110.264 904.182,-93.3288 943.888,-81.8675"/>
<polygon fill="midnightblue" stroke="midnightblue" points="944.909,-85.2157 953.546,-79.0796 942.967,-78.4903 944.909,-85.2157"/>
</g>
</g>
</svg>
