<?xml version="1.0" encoding="UTF-8" standalone="no"?>
<!DOCTYPE svg PUBLIC "-//W3C//DTD SVG 1.1//EN"
 "http://www.w3.org/Graphics/SVG/1.1/DTD/svg11.dtd">
<!-- Generated by graphviz version 2.34.0 (20130907.0228)
 -->
<!-- Title: /Users/tgil/git/CoActionOS/CoActionOS/src/sys/unistd/_read.c Pages: 1 -->
<svg width="909pt" height="344pt"
 viewBox="0.00 0.00 908.71 344.00" xmlns="http://www.w3.org/2000/svg" xmlns:xlink="http://www.w3.org/1999/xlink">
<g id="graph0" class="graph" transform="scale(1 1) rotate(0) translate(4 340)">
<title>/Users/tgil/git/CoActionOS/CoActionOS/src/sys/unistd/_read.c</title>
<!-- Node1 -->
<g id="node1" class="node"><title>Node1</title>
<polygon fill="#bfbfbf" stroke="black" points="291.023,-291 291.023,-335 413.16,-335 413.16,-291 291.023,-291"/>
<text text-anchor="start" x="299.023" y="-321" font-family="Helvetica,sans-Serif" font-size="10.00">/Users/tgil/git/CoAction</text>
<text text-anchor="start" x="299.023" y="-309" font-family="Helvetica,sans-Serif" font-size="10.00">OS/CoActionOS/src/sys</text>
<text text-anchor="middle" x="352.092" y="-297" font-family="Helvetica,sans-Serif" font-size="10.00">/unistd/_read.c</text>
</g>
<!-- Node2 -->
<g id="node2" class="node"><title>Node2</title>
<g id="a_node2"><a xlink:href="unistd__fs_8h_source.html" target="_top" xlink:title="unistd_fs.h">
<polygon fill="none" stroke="black" points="187.909,-233 187.909,-253 252.274,-253 252.274,-233 187.909,-233"/>
<text text-anchor="middle" x="220.092" y="-239" font-family="Helvetica,sans-Serif" font-size="10.00">unistd_fs.h</text>
</a>
</g>
</g>
<!-- Node1&#45;&gt;Node2 -->
<g id="edge1" class="edge"><title>Node1&#45;&gt;Node2</title>
<path fill="none" stroke="midnightblue" d="M311.05,-290.857C290.04,-280.034 265.073,-267.172 246.616,-257.664"/>
<polygon fill="midnightblue" stroke="midnightblue" points="248.106,-254.495 237.614,-253.027 244.901,-260.718 248.106,-254.495"/>
</g>
<!-- Node19 -->
<g id="node19" class="node"><title>Node19</title>
<g id="a_node19"><a xlink:href="unistd__flags_8h_source.html" target="_top" xlink:title="unistd_flags.h">
<polygon fill="none" stroke="black" points="409.237,-233 409.237,-253 486.946,-253 486.946,-233 409.237,-233"/>
<text text-anchor="middle" x="448.092" y="-239" font-family="Helvetica,sans-Serif" font-size="10.00">unistd_flags.h</text>
</a>
</g>
</g>
<!-- Node1&#45;&gt;Node19 -->
<g id="edge26" class="edge"><title>Node1&#45;&gt;Node19</title>
<path fill="none" stroke="midnightblue" d="M381.94,-290.857C396.43,-280.594 413.507,-268.497 426.681,-259.166"/>
<polygon fill="midnightblue" stroke="midnightblue" points="428.961,-261.84 435.098,-253.204 424.914,-256.128 428.961,-261.84"/>
</g>
<!-- Node3 -->
<g id="node3" class="node"><title>Node3</title>
<g id="a_node3"><a xlink:href="config_8h.html" target="_top" xlink:title="config.h">
<polygon fill="none" stroke="black" points="83.5794,-175 83.5794,-195 134.604,-195 134.604,-175 83.5794,-175"/>
<text text-anchor="middle" x="109.092" y="-181" font-family="Helvetica,sans-Serif" font-size="10.00">config.h</text>
</a>
</g>
</g>
<!-- Node2&#45;&gt;Node3 -->
<g id="edge2" class="edge"><title>Node2&#45;&gt;Node3</title>
<path fill="none" stroke="midnightblue" d="M201.762,-232.753C183.901,-223.742 156.535,-209.935 136.165,-199.659"/>
<polygon fill="midnightblue" stroke="midnightblue" points="137.585,-196.455 127.08,-195.075 134.432,-202.704 137.585,-196.455"/>
</g>
<!-- Node4 -->
<g id="node4" class="node"><title>Node4</title>
<polygon fill="none" stroke="#bfbfbf" points="152.863,-175 152.863,-195 213.321,-195 213.321,-175 152.863,-175"/>
<text text-anchor="middle" x="183.092" y="-181" font-family="Helvetica,sans-Serif" font-size="10.00">sys/fcntl.h</text>
</g>
<!-- Node2&#45;&gt;Node4 -->
<g id="edge3" class="edge"><title>Node2&#45;&gt;Node4</title>
<path fill="none" stroke="midnightblue" d="M213.982,-232.753C208.755,-224.843 201.088,-213.237 194.699,-203.568"/>
<polygon fill="midnightblue" stroke="midnightblue" points="197.52,-201.489 189.088,-195.075 191.68,-205.348 197.52,-201.489"/>
</g>
<!-- Node5 -->
<g id="node5" class="node"><title>Node5</title>
<polygon fill="none" stroke="#bfbfbf" points="89.9734,-59 89.9734,-79 148.21,-79 148.21,-59 89.9734,-59"/>
<text text-anchor="middle" x="119.092" y="-65" font-family="Helvetica,sans-Serif" font-size="10.00">sys/stat.h</text>
</g>
<!-- Node2&#45;&gt;Node5 -->
<g id="edge4" class="edge"><title>Node2&#45;&gt;Node5</title>
<path fill="none" stroke="midnightblue" d="M187.591,-239.762C134.08,-235.325 31.1404,-223.374 9.09157,-196 -24.6932,-154.056 48.2158,-106.751 90.9525,-83.87"/>
<polygon fill="midnightblue" stroke="midnightblue" points="92.8262,-86.8402 100.072,-79.1105 89.5874,-80.6345 92.8262,-86.8402"/>
</g>
<!-- Node6 -->
<g id="node6" class="node"><title>Node6</title>
<polygon fill="none" stroke="#bfbfbf" points="549.36,-59 549.36,-79 594.823,-79 594.823,-59 549.36,-59"/>
<text text-anchor="middle" x="572.092" y="-65" font-family="Helvetica,sans-Serif" font-size="10.00">stdio.h</text>
</g>
<!-- Node2&#45;&gt;Node6 -->
<g id="edge5" class="edge"><title>Node2&#45;&gt;Node6</title>
<path fill="none" stroke="midnightblue" d="M252.586,-237.083C288.661,-230.811 348.006,-218.043 395.092,-196 459.105,-166.032 524.239,-112.428 554.556,-85.8451"/>
<polygon fill="midnightblue" stroke="midnightblue" points="556.996,-88.3601 562.154,-79.1061 552.351,-83.1232 556.996,-88.3601"/>
</g>
<!-- Node7 -->
<g id="node7" class="node"><title>Node7</title>
<polygon fill="none" stroke="#bfbfbf" points="231.579,-175 231.579,-195 282.604,-195 282.604,-175 231.579,-175"/>
<text text-anchor="middle" x="257.092" y="-181" font-family="Helvetica,sans-Serif" font-size="10.00">unistd.h</text>
</g>
<!-- Node2&#45;&gt;Node7 -->
<g id="edge6" class="edge"><title>Node2&#45;&gt;Node7</title>
<path fill="none" stroke="midnightblue" d="M226.201,-232.753C231.428,-224.843 239.096,-213.237 245.484,-203.568"/>
<polygon fill="midnightblue" stroke="midnightblue" points="248.503,-205.348 251.095,-195.075 242.663,-201.489 248.503,-205.348"/>
</g>
<!-- Node8 -->
<g id="node8" class="node"><title>Node8</title>
<polygon fill="none" stroke="#bfbfbf" points="18.2493,-175 18.2493,-195 65.9339,-195 65.9339,-175 18.2493,-175"/>
<text text-anchor="middle" x="42.0916" y="-181" font-family="Helvetica,sans-Serif" font-size="10.00">errno.h</text>
</g>
<!-- Node2&#45;&gt;Node8 -->
<g id="edge7" class="edge"><title>Node2&#45;&gt;Node8</title>
<path fill="none" stroke="midnightblue" d="M191.097,-232.878C159.493,-222.935 108.993,-207.048 75.6851,-196.569"/>
<polygon fill="midnightblue" stroke="midnightblue" points="76.5296,-193.165 65.9401,-193.503 74.4288,-199.843 76.5296,-193.165"/>
</g>
<!-- Node9 -->
<g id="node9" class="node"><title>Node9</title>
<g id="a_node9"><a xlink:href="sysfs_8h_source.html" target="_top" xlink:title="sysfs.h">
<polygon fill="none" stroke="black" points="339.532,-175 339.532,-195 386.651,-195 386.651,-175 339.532,-175"/>
<text text-anchor="middle" x="363.092" y="-181" font-family="Helvetica,sans-Serif" font-size="10.00">sysfs.h</text>
</a>
</g>
</g>
<!-- Node2&#45;&gt;Node9 -->
<g id="edge8" class="edge"><title>Node2&#45;&gt;Node9</title>
<path fill="none" stroke="midnightblue" d="M243.385,-232.878C266.965,-223.644 303.637,-209.283 330.179,-198.889"/>
<polygon fill="midnightblue" stroke="midnightblue" points="331.773,-202.024 339.808,-195.118 329.22,-195.506 331.773,-202.024"/>
</g>
<!-- Node9&#45;&gt;Node5 -->
<g id="edge13" class="edge"><title>Node9&#45;&gt;Node5</title>
<path fill="none" stroke="midnightblue" d="M339.412,-177.612C334.677,-176.379 329.733,-175.123 325.092,-174 252.981,-156.556 222.81,-180.632 162.092,-138 144.816,-125.87 132.952,-104.364 126.13,-88.7792"/>
<polygon fill="midnightblue" stroke="midnightblue" points="129.215,-87.0718 122.209,-79.1236 122.729,-89.7057 129.215,-87.0718"/>
</g>
<!-- Node10 -->
<g id="node10" class="node"><title>Node10</title>
<polygon fill="none" stroke="#bfbfbf" points="278.799,-1 278.799,-21 335.385,-21 335.385,-1 278.799,-1"/>
<text text-anchor="middle" x="307.092" y="-7" font-family="Helvetica,sans-Serif" font-size="10.00">stdbool.h</text>
</g>
<!-- Node9&#45;&gt;Node10 -->
<g id="edge9" class="edge"><title>Node9&#45;&gt;Node10</title>
<path fill="none" stroke="midnightblue" d="M358.026,-174.856C348.442,-157.128 327.667,-116.607 317.092,-80 312.486,-64.0582 309.933,-45.3705 308.562,-31.6243"/>
<polygon fill="midnightblue" stroke="midnightblue" points="312.027,-31.0656 307.669,-21.4084 305.053,-31.6752 312.027,-31.0656"/>
</g>
<!-- Node11 -->
<g id="node11" class="node"><title>Node11</title>
<polygon fill="none" stroke="#bfbfbf" points="171.082,-117 171.082,-137 237.101,-137 237.101,-117 171.082,-117"/>
<text text-anchor="middle" x="204.092" y="-123" font-family="Helvetica,sans-Serif" font-size="10.00">sys/types.h</text>
</g>
<!-- Node9&#45;&gt;Node11 -->
<g id="edge10" class="edge"><title>Node9&#45;&gt;Node11</title>
<path fill="none" stroke="midnightblue" d="M339.288,-175.616C312.902,-166.323 270.067,-151.237 239.69,-140.538"/>
<polygon fill="midnightblue" stroke="midnightblue" points="240.503,-137.113 229.908,-137.092 238.177,-143.716 240.503,-137.113"/>
</g>
<!-- Node12 -->
<g id="node12" class="node"><title>Node12</title>
<polygon fill="none" stroke="#bfbfbf" points="496.971,-1 496.971,-21 545.212,-21 545.212,-1 496.971,-1"/>
<text text-anchor="middle" x="521.092" y="-7" font-family="Helvetica,sans-Serif" font-size="10.00">stdint.h</text>
</g>
<!-- Node9&#45;&gt;Node12 -->
<g id="edge11" class="edge"><title>Node9&#45;&gt;Node12</title>
<path fill="none" stroke="midnightblue" d="M381.791,-174.991C411.578,-159.677 469.64,-125.728 501.092,-80 511.106,-65.4396 516.179,-45.8161 518.702,-31.3922"/>
<polygon fill="midnightblue" stroke="midnightblue" points="522.219,-31.5409 520.226,-21.1352 515.295,-30.5126 522.219,-31.5409"/>
</g>
<!-- Node13 -->
<g id="node13" class="node"><title>Node13</title>
<polygon fill="none" stroke="#bfbfbf" points="255.301,-117 255.301,-137 306.882,-137 306.882,-117 255.301,-117"/>
<text text-anchor="middle" x="281.092" y="-123" font-family="Helvetica,sans-Serif" font-size="10.00">stddef.h</text>
</g>
<!-- Node9&#45;&gt;Node13 -->
<g id="edge12" class="edge"><title>Node9&#45;&gt;Node13</title>
<path fill="none" stroke="midnightblue" d="M349.551,-174.753C336.894,-166.109 317.775,-153.052 302.955,-142.931"/>
<polygon fill="midnightblue" stroke="midnightblue" points="304.612,-139.825 294.38,-137.075 300.664,-145.605 304.612,-139.825"/>
</g>
<!-- Node14 -->
<g id="node14" class="node"><title>Node14</title>
<polygon fill="none" stroke="#bfbfbf" points="560.414,-117 560.414,-137 609.769,-137 609.769,-117 560.414,-117"/>
<text text-anchor="middle" x="585.092" y="-123" font-family="Helvetica,sans-Serif" font-size="10.00">dirent.h</text>
</g>
<!-- Node9&#45;&gt;Node14 -->
<g id="edge14" class="edge"><title>Node9&#45;&gt;Node14</title>
<path fill="none" stroke="midnightblue" d="M386.849,-178.007C426.158,-168.091 504.899,-148.229 550.423,-136.745"/>
<polygon fill="midnightblue" stroke="midnightblue" points="551.311,-140.131 560.151,-134.291 549.599,-133.344 551.311,-140.131"/>
</g>
<!-- Node15 -->
<g id="node15" class="node"><title>Node15</title>
<g id="a_node15"><a xlink:href="device_8h_source.html" target="_top" xlink:title="device.h">
<polygon fill="none" stroke="black" points="363.469,-117 363.469,-137 416.715,-137 416.715,-117 363.469,-117"/>
<text text-anchor="middle" x="390.092" y="-123" font-family="Helvetica,sans-Serif" font-size="10.00">device.h</text>
</a>
</g>
</g>
<!-- Node9&#45;&gt;Node15 -->
<g id="edge15" class="edge"><title>Node9&#45;&gt;Node15</title>
<path fill="none" stroke="midnightblue" d="M367.55,-174.753C371.285,-167.006 376.729,-155.714 381.332,-146.169"/>
<polygon fill="midnightblue" stroke="midnightblue" points="384.526,-147.603 385.716,-137.075 378.22,-144.563 384.526,-147.603"/>
</g>
<!-- Node15&#45;&gt;Node5 -->
<g id="edge16" class="edge"><title>Node15&#45;&gt;Node5</title>
<path fill="none" stroke="midnightblue" d="M363.116,-120.426C314.971,-110.477 214.072,-89.627 158.278,-78.0975"/>
<polygon fill="midnightblue" stroke="midnightblue" points="158.909,-74.654 148.407,-76.0579 157.492,-81.5092 158.909,-74.654"/>
</g>
<!-- Node15&#45;&gt;Node10 -->
<g id="edge17" class="edge"><title>Node15&#45;&gt;Node10</title>
<path fill="none" stroke="midnightblue" d="M374.306,-116.905C361.362,-108.727 343.391,-95.6191 332.092,-80 321.399,-65.22 314.798,-45.3617 311.084,-30.9228"/>
<polygon fill="midnightblue" stroke="midnightblue" points="314.475,-30.0504 308.787,-21.1115 307.659,-31.6461 314.475,-30.0504"/>
</g>
<!-- Node16 -->
<g id="node16" class="node"><title>Node16</title>
<g id="a_node16"><a xlink:href="types_8h_source.html" target="_top" xlink:title="hwpl/types.h">
<polygon fill="none" stroke="black" points="421.299,-59 421.299,-79 492.885,-79 492.885,-59 421.299,-59"/>
<text text-anchor="middle" x="457.092" y="-65" font-family="Helvetica,sans-Serif" font-size="10.00">hwpl/types.h</text>
</a>
</g>
</g>
<!-- Node15&#45;&gt;Node16 -->
<g id="edge18" class="edge"><title>Node15&#45;&gt;Node16</title>
<path fill="none" stroke="midnightblue" d="M401.155,-116.753C411.302,-108.272 426.531,-95.543 438.538,-85.5073"/>
<polygon fill="midnightblue" stroke="midnightblue" points="440.806,-88.1738 446.234,-79.0752 436.316,-82.8028 440.806,-88.1738"/>
</g>
<!-- Node17 -->
<g id="node17" class="node"><title>Node17</title>
<polygon fill="none" stroke="#bfbfbf" points="353.523,-1 353.523,-21 420.66,-21 420.66,-1 353.523,-1"/>
<text text-anchor="middle" x="387.092" y="-7" font-family="Helvetica,sans-Serif" font-size="10.00">hwpl/arch.h</text>
</g>
<!-- Node15&#45;&gt;Node17 -->
<g id="edge21" class="edge"><title>Node15&#45;&gt;Node17</title>
<path fill="none" stroke="midnightblue" d="M373.796,-116.869C361.435,-108.924 345.369,-96.1545 338.092,-80 329.185,-60.2289 347.252,-40.4333 363.907,-27.3414"/>
<polygon fill="midnightblue" stroke="midnightblue" points="366.355,-29.8859 372.338,-21.142 362.208,-24.2465 366.355,-29.8859"/>
</g>
<!-- Node18 -->
<g id="node18" class="node"><title>Node18</title>
<g id="a_node18"><a xlink:href="pio_8h.html" target="_top" xlink:title="General Purpose Input/Output Header File. ">
<polygon fill="none" stroke="red" points="346.799,-59 346.799,-79 403.385,-79 403.385,-59 346.799,-59"/>
<text text-anchor="middle" x="375.092" y="-65" font-family="Helvetica,sans-Serif" font-size="10.00">dev/pio.h</text>
</a>
</g>
</g>
<!-- Node15&#45;&gt;Node18 -->
<g id="edge22" class="edge"><title>Node15&#45;&gt;Node18</title>
<path fill="none" stroke="midnightblue" d="M387.615,-116.753C385.583,-109.169 382.642,-98.1881 380.12,-88.7739"/>
<polygon fill="midnightblue" stroke="midnightblue" points="383.491,-87.8291 377.522,-79.0752 376.729,-89.6403 383.491,-87.8291"/>
</g>
<!-- Node16&#45;&gt;Node10 -->
<g id="edge20" class="edge"><title>Node16&#45;&gt;Node10</title>
<path fill="none" stroke="midnightblue" d="M432.658,-58.878C407.815,-49.6034 369.118,-35.1564 341.247,-24.7515"/>
<polygon fill="midnightblue" stroke="midnightblue" points="342.108,-21.3368 331.515,-21.1181 339.659,-27.8946 342.108,-21.3368"/>
</g>
<!-- Node16&#45;&gt;Node12 -->
<g id="edge19" class="edge"><title>Node16&#45;&gt;Node12</title>
<path fill="none" stroke="midnightblue" d="M467.66,-58.7527C477.259,-50.3534 491.62,-37.7874 503.037,-27.7976"/>
<polygon fill="midnightblue" stroke="midnightblue" points="505.499,-30.2943 510.72,-21.0752 500.889,-25.0262 505.499,-30.2943"/>
</g>
<!-- Node18&#45;&gt;Node10 -->
<g id="edge23" class="edge"><title>Node18&#45;&gt;Node10</title>
<path fill="none" stroke="midnightblue" d="M363.863,-58.7527C353.565,-50.2718 338.108,-37.543 325.922,-27.5073"/>
<polygon fill="midnightblue" stroke="midnightblue" points="328.056,-24.7305 318.111,-21.0752 323.606,-30.1341 328.056,-24.7305"/>
</g>
<!-- Node18&#45;&gt;Node12 -->
<g id="edge24" class="edge"><title>Node18&#45;&gt;Node12</title>
<path fill="none" stroke="midnightblue" d="M398.874,-58.878C423.054,-49.6034 460.719,-35.1564 487.847,-24.7515"/>
<polygon fill="midnightblue" stroke="midnightblue" points="489.236,-27.9672 497.319,-21.1181 486.729,-21.4315 489.236,-27.9672"/>
</g>
<!-- Node18&#45;&gt;Node17 -->
<g id="edge25" class="edge"><title>Node18&#45;&gt;Node17</title>
<path fill="none" stroke="midnightblue" d="M377.073,-58.7527C378.681,-51.2504 381.001,-40.4238 383.003,-31.0781"/>
<polygon fill="midnightblue" stroke="midnightblue" points="386.474,-31.5866 385.147,-21.0752 379.629,-30.1198 386.474,-31.5866"/>
</g>
<!-- Node19&#45;&gt;Node5 -->
<g id="edge28" class="edge"><title>Node19&#45;&gt;Node5</title>
<path fill="none" stroke="midnightblue" d="M421.863,-232.986C397.65,-224.382 360.888,-210.598 330.092,-196 312.109,-187.476 309.629,-181.24 291.092,-174 226.021,-148.586 188.499,-186.364 138.092,-138 125.123,-125.557 120.777,-105.06 119.431,-89.8174"/>
<polygon fill="midnightblue" stroke="midnightblue" points="122.904,-89.2117 118.893,-79.4056 115.913,-89.5729 122.904,-89.2117"/>
</g>
<!-- Node19&#45;&gt;Node9 -->
<g id="edge30" class="edge"><title>Node19&#45;&gt;Node9</title>
<path fill="none" stroke="midnightblue" d="M434.056,-232.753C420.811,-224.027 400.742,-210.805 385.322,-200.646"/>
<polygon fill="midnightblue" stroke="midnightblue" points="387.143,-197.654 376.866,-195.075 383.291,-203.5 387.143,-197.654"/>
</g>
<!-- Node19&#45;&gt;Node12 -->
<g id="edge27" class="edge"><title>Node19&#45;&gt;Node12</title>
<path fill="none" stroke="midnightblue" d="M487.242,-241.822C577.962,-239.014 801.982,-217.789 896.092,-80 901.606,-71.9258 902.571,-65.3227 896.092,-58 873.668,-32.6572 643.722,-18.2814 555.392,-13.6593"/>
<polygon fill="midnightblue" stroke="midnightblue" points="555.512,-10.1609 545.345,-13.1439 555.153,-17.1517 555.512,-10.1609"/>
</g>
<!-- Node19&#45;&gt;Node14 -->
<g id="edge29" class="edge"><title>Node19&#45;&gt;Node14</title>
<path fill="none" stroke="midnightblue" d="M479.203,-232.892C500.029,-225.568 527.016,-213.574 546.092,-196 560.911,-182.347 571.634,-161.74 578.042,-146.79"/>
<polygon fill="midnightblue" stroke="midnightblue" points="581.461,-147.669 581.942,-137.085 574.966,-145.058 581.461,-147.669"/>
</g>
<!-- Node20 -->
<g id="node20" class="node"><title>Node20</title>
<g id="a_node20"><a xlink:href="hwpl_8h.html" target="_top" xlink:title="HWPL Header file (includes all other header files) ">
<polygon fill="none" stroke="black" points="627.638,-117 627.638,-137 672.545,-137 672.545,-117 627.638,-117"/>
<text text-anchor="middle" x="650.092" y="-123" font-family="Helvetica,sans-Serif" font-size="10.00">hwpl.h</text>
</a>
</g>
</g>
<!-- Node19&#45;&gt;Node20 -->
<g id="edge31" class="edge"><title>Node19&#45;&gt;Node20</title>
<path fill="none" stroke="midnightblue" d="M480.5,-232.94C505.661,-225.15 540.892,-212.554 569.092,-196 593.902,-181.436 618.685,-159.226 634.181,-144.185"/>
<polygon fill="midnightblue" stroke="midnightblue" points="636.742,-146.574 641.388,-137.052 631.818,-141.599 636.742,-146.574"/>
</g>
<!-- Node20&#45;&gt;Node6 -->
<g id="edge35" class="edge"><title>Node20&#45;&gt;Node6</title>
<path fill="none" stroke="midnightblue" d="M637.211,-116.753C625.172,-108.109 606.985,-95.0518 592.889,-84.9314"/>
<polygon fill="midnightblue" stroke="midnightblue" points="594.897,-82.0642 584.732,-79.0752 590.814,-87.7504 594.897,-82.0642"/>
</g>
<!-- Node20&#45;&gt;Node10 -->
<g id="edge36" class="edge"><title>Node20&#45;&gt;Node10</title>
<path fill="none" stroke="midnightblue" d="M627.498,-118.402C624.361,-117.505 621.162,-116.672 618.092,-116 556.807,-102.593 388.58,-117.236 338.092,-80 322.463,-68.4737 314.513,-47.1813 310.604,-31.4824"/>
<polygon fill="midnightblue" stroke="midnightblue" points="313.933,-30.3077 308.421,-21.2593 307.087,-31.7698 313.933,-30.3077"/>
</g>
<!-- Node20&#45;&gt;Node12 -->
<g id="edge32" class="edge"><title>Node20&#45;&gt;Node12</title>
<path fill="none" stroke="midnightblue" d="M672.775,-123.58C720.898,-117.585 826.063,-99.4329 791.092,-58 761.313,-22.7185 621.353,-14.4942 555.503,-12.5796"/>
<polygon fill="midnightblue" stroke="midnightblue" points="555.313,-9.07364 545.226,-12.3149 555.133,-16.0713 555.313,-9.07364"/>
</g>
<!-- Node20&#45;&gt;Node16 -->
<g id="edge39" class="edge"><title>Node20&#45;&gt;Node16</title>
<path fill="none" stroke="midnightblue" d="M627.387,-118.829C624.268,-117.866 621.103,-116.901 618.092,-116 577.834,-103.961 531.709,-90.8515 499.177,-81.719"/>
<polygon fill="midnightblue" stroke="midnightblue" points="500.113,-78.3464 489.539,-79.0181 498.224,-85.0867 500.113,-78.3464"/>
</g>
<!-- Node20&#45;&gt;Node17 -->
<g id="edge38" class="edge"><title>Node20&#45;&gt;Node17</title>
<path fill="none" stroke="midnightblue" d="M646.453,-116.849C640.049,-101.993 625.303,-72.8048 603.092,-58 575.368,-39.5207 485.731,-24.9309 431.026,-17.4667"/>
<polygon fill="midnightblue" stroke="midnightblue" points="431.286,-13.9703 420.91,-16.1132 430.357,-20.9085 431.286,-13.9703"/>
</g>
<!-- Node21 -->
<g id="node21" class="node"><title>Node21</title>
<polygon fill="none" stroke="#bfbfbf" points="735.249,-59 735.249,-79 782.934,-79 782.934,-59 735.249,-59"/>
<text text-anchor="middle" x="759.092" y="-65" font-family="Helvetica,sans-Serif" font-size="10.00">stdlib.h</text>
</g>
<!-- Node20&#45;&gt;Node21 -->
<g id="edge33" class="edge"><title>Node20&#45;&gt;Node21</title>
<path fill="none" stroke="midnightblue" d="M668.091,-116.753C685.63,-107.742 712.503,-93.9353 732.505,-83.6589"/>
<polygon fill="midnightblue" stroke="midnightblue" points="734.132,-86.7582 741.427,-79.0752 730.933,-80.5319 734.132,-86.7582"/>
</g>
<!-- Node22 -->
<g id="node22" class="node"><title>Node22</title>
<polygon fill="none" stroke="#bfbfbf" points="838.695,-59 838.695,-79 887.488,-79 887.488,-59 838.695,-59"/>
<text text-anchor="middle" x="863.092" y="-65" font-family="Helvetica,sans-Serif" font-size="10.00">string.h</text>
</g>
<!-- Node20&#45;&gt;Node22 -->
<g id="edge34" class="edge"><title>Node20&#45;&gt;Node22</title>
<path fill="none" stroke="midnightblue" d="M672.745,-120.047C706.105,-111.281 770.406,-94.3827 825.092,-80 826.316,-79.6779 827.563,-79.3499 828.822,-79.0187"/>
<polygon fill="midnightblue" stroke="midnightblue" points="829.782,-82.3855 838.562,-76.4562 828.001,-75.6158 829.782,-82.3855"/>
</g>
<!-- Node23 -->
<g id="node23" class="node"><title>Node23</title>
<polygon fill="none" stroke="#bfbfbf" points="650.799,-59 650.799,-79 717.385,-79 717.385,-59 650.799,-59"/>
<text text-anchor="middle" x="684.092" y="-65" font-family="Helvetica,sans-Serif" font-size="10.00">hwpl/fault.h</text>
</g>
<!-- Node20&#45;&gt;Node23 -->
<g id="edge37" class="edge"><title>Node20&#45;&gt;Node23</title>
<path fill="none" stroke="midnightblue" d="M655.706,-116.753C660.459,-108.924 667.41,-97.4761 673.243,-87.8679"/>
<polygon fill="midnightblue" stroke="midnightblue" points="676.384,-89.4395 678.582,-79.0752 670.4,-85.8066 676.384,-89.4395"/>
</g>
</g>
</svg>
