<?xml version="1.0" encoding="UTF-8" standalone="no"?>
<!DOCTYPE svg PUBLIC "-//W3C//DTD SVG 1.1//EN"
 "http://www.w3.org/Graphics/SVG/1.1/DTD/svg11.dtd">
<!-- Generated by graphviz version 2.34.0 (20130907.0228)
 -->
<!-- Title: /Users/tgil/git/CoActionOS/CoActionOS/src/sys/time/_settimeofday.c Pages: 1 -->
<svg width="748pt" height="228pt"
 viewBox="0.00 0.00 748.00 228.00" xmlns="http://www.w3.org/2000/svg" xmlns:xlink="http://www.w3.org/1999/xlink">
<g id="graph0" class="graph" transform="scale(1 1) rotate(0) translate(4 224)">
<title>/Users/tgil/git/CoActionOS/CoActionOS/src/sys/time/_settimeofday.c</title>
<!-- Node1 -->
<g id="node1" class="node"><title>Node1</title>
<polygon fill="#bfbfbf" stroke="black" points="380.931,-175 380.931,-219 503.069,-219 503.069,-175 380.931,-175"/>
<text text-anchor="start" x="388.931" y="-205" font-family="Helvetica,sans-Serif" font-size="10.00">/Users/tgil/git/CoAction</text>
<text text-anchor="start" x="388.931" y="-193" font-family="Helvetica,sans-Serif" font-size="10.00">OS/CoActionOS/src/sys</text>
<text text-anchor="middle" x="442" y="-181" font-family="Helvetica,sans-Serif" font-size="10.00">/time/_settimeofday.c</text>
</g>
<!-- Node2 -->
<g id="node2" class="node"><title>Node2</title>
<polygon fill="none" stroke="#bfbfbf" points="177.158,-117 177.158,-137 224.842,-137 224.842,-117 177.158,-117"/>
<text text-anchor="middle" x="201" y="-123" font-family="Helvetica,sans-Serif" font-size="10.00">errno.h</text>
</g>
<!-- Node1&#45;&gt;Node2 -->
<g id="edge1" class="edge"><title>Node1&#45;&gt;Node2</title>
<path fill="none" stroke="midnightblue" d="M380.579,-179.513C341.222,-168.82 288.821,-154.345 234.828,-138.489"/>
<polygon fill="midnightblue" stroke="midnightblue" points="235.669,-135.088 225.087,-135.618 233.69,-141.803 235.669,-135.088"/>
</g>
<!-- Node3 -->
<g id="node3" class="node"><title>Node3</title>
<polygon fill="none" stroke="#bfbfbf" points="242.495,-117 242.495,-137 303.505,-137 303.505,-117 242.495,-117"/>
<text text-anchor="middle" x="273" y="-123" font-family="Helvetica,sans-Serif" font-size="10.00">sys/time.h</text>
</g>
<!-- Node1&#45;&gt;Node3 -->
<g id="edge2" class="edge"><title>Node1&#45;&gt;Node3</title>
<path fill="none" stroke="midnightblue" d="M389.454,-174.857C361.814,-163.736 328.826,-150.463 305.028,-140.887"/>
<polygon fill="midnightblue" stroke="midnightblue" points="306.017,-137.512 295.434,-137.027 303.404,-144.006 306.017,-137.512"/>
</g>
<!-- Node4 -->
<g id="node4" class="node"><title>Node4</title>
<polygon fill="none" stroke="#bfbfbf" points="630.384,-59 630.384,-79 673.616,-79 673.616,-59 630.384,-59"/>
<text text-anchor="middle" x="652" y="-65" font-family="Helvetica,sans-Serif" font-size="10.00">time.h</text>
</g>
<!-- Node1&#45;&gt;Node4 -->
<g id="edge3" class="edge"><title>Node1&#45;&gt;Node4</title>
<path fill="none" stroke="midnightblue" d="M503.132,-175.064C527.379,-165.47 554.924,-152.894 578,-138 600.512,-123.471 622.643,-101.904 636.75,-86.9712"/>
<polygon fill="midnightblue" stroke="midnightblue" points="639.491,-89.1617 643.713,-79.4443 634.353,-84.4082 639.491,-89.1617"/>
</g>
<!-- Node5 -->
<g id="node5" class="node"><title>Node5</title>
<polygon fill="none" stroke="#bfbfbf" points="384.488,-117 384.488,-137 435.512,-137 435.512,-117 384.488,-117"/>
<text text-anchor="middle" x="410" y="-123" font-family="Helvetica,sans-Serif" font-size="10.00">unistd.h</text>
</g>
<!-- Node1&#45;&gt;Node5 -->
<g id="edge4" class="edge"><title>Node1&#45;&gt;Node5</title>
<path fill="none" stroke="midnightblue" d="M432.05,-174.857C427.778,-165.778 422.83,-155.264 418.706,-146.499"/>
<polygon fill="midnightblue" stroke="midnightblue" points="421.756,-144.762 414.331,-137.204 415.422,-147.742 421.756,-144.762"/>
</g>
<!-- Node6 -->
<g id="node6" class="node"><title>Node6</title>
<polygon fill="none" stroke="#bfbfbf" points="453.66,-117 453.66,-137 496.34,-137 496.34,-117 453.66,-117"/>
<text text-anchor="middle" x="475" y="-123" font-family="Helvetica,sans-Serif" font-size="10.00">fcntl.h</text>
</g>
<!-- Node1&#45;&gt;Node6 -->
<g id="edge5" class="edge"><title>Node1&#45;&gt;Node6</title>
<path fill="none" stroke="midnightblue" d="M452.261,-174.857C456.714,-165.679 461.88,-155.036 466.161,-146.214"/>
<polygon fill="midnightblue" stroke="midnightblue" points="469.316,-147.729 470.533,-137.204 463.019,-144.672 469.316,-147.729"/>
</g>
<!-- Node7 -->
<g id="node7" class="node"><title>Node7</title>
<g id="a_node7"><a xlink:href="hwpl_8h.html" target="_top" xlink:title="HWPL Header file (includes all other header files) ">
<polygon fill="none" stroke="black" points="321.547,-117 321.547,-137 366.453,-137 366.453,-117 321.547,-117"/>
<text text-anchor="middle" x="344" y="-123" font-family="Helvetica,sans-Serif" font-size="10.00">hwpl.h</text>
</a>
</g>
</g>
<!-- Node1&#45;&gt;Node7 -->
<g id="edge6" class="edge"><title>Node1&#45;&gt;Node7</title>
<path fill="none" stroke="midnightblue" d="M411.529,-174.857C396.647,-164.53 379.089,-152.348 365.608,-142.993"/>
<polygon fill="midnightblue" stroke="midnightblue" points="367.22,-139.852 357.009,-137.027 363.229,-145.603 367.22,-139.852"/>
</g>
<!-- Node16 -->
<g id="node16" class="node"><title>Node16</title>
<g id="a_node16"><a xlink:href="rtc_8h.html" target="_top" xlink:title="Real Time Clock Header File. ">
<polygon fill="none" stroke="black" points="514.825,-117 514.825,-137 569.175,-137 569.175,-117 514.825,-117"/>
<text text-anchor="middle" x="542" y="-123" font-family="Helvetica,sans-Serif" font-size="10.00">dev/rtc.h</text>
</a>
</g>
</g>
<!-- Node1&#45;&gt;Node16 -->
<g id="edge17" class="edge"><title>Node1&#45;&gt;Node16</title>
<path fill="none" stroke="midnightblue" d="M473.092,-174.857C488.425,-164.431 506.539,-152.113 520.347,-142.724"/>
<polygon fill="midnightblue" stroke="midnightblue" points="522.424,-145.544 528.726,-137.027 518.488,-139.755 522.424,-145.544"/>
</g>
<!-- Node18 -->
<g id="node18" class="node"><title>Node18</title>
<polygon fill="none" stroke="#bfbfbf" points="625.247,-117 625.247,-137 740.753,-137 740.753,-117 625.247,-117"/>
<text text-anchor="middle" x="683" y="-123" font-family="Helvetica,sans-Serif" font-size="10.00">../sched/sched_flags.h</text>
</g>
<!-- Node1&#45;&gt;Node18 -->
<g id="edge22" class="edge"><title>Node1&#45;&gt;Node18</title>
<path fill="none" stroke="midnightblue" d="M503.126,-178.753C546.266,-166.581 602.941,-150.589 641.046,-139.838"/>
<polygon fill="midnightblue" stroke="midnightblue" points="642.12,-143.171 650.794,-137.087 640.219,-136.434 642.12,-143.171"/>
</g>
<!-- Node8 -->
<g id="node8" class="node"><title>Node8</title>
<polygon fill="none" stroke="#bfbfbf" points="393.879,-1 393.879,-21 442.121,-21 442.121,-1 393.879,-1"/>
<text text-anchor="middle" x="418" y="-7" font-family="Helvetica,sans-Serif" font-size="10.00">stdint.h</text>
</g>
<!-- Node7&#45;&gt;Node8 -->
<g id="edge7" class="edge"><title>Node7&#45;&gt;Node8</title>
<path fill="none" stroke="midnightblue" d="M358.935,-116.842C371.133,-108.625 387.944,-95.496 398,-80 407.62,-65.176 412.741,-45.5847 415.383,-31.2398"/>
<polygon fill="midnightblue" stroke="midnightblue" points="418.889,-31.4781 417.009,-21.0515 411.976,-30.3749 418.889,-31.4781"/>
</g>
<!-- Node9 -->
<g id="node9" class="node"><title>Node9</title>
<polygon fill="none" stroke="#bfbfbf" points="342.158,-59 342.158,-79 389.842,-79 389.842,-59 342.158,-59"/>
<text text-anchor="middle" x="366" y="-65" font-family="Helvetica,sans-Serif" font-size="10.00">stdlib.h</text>
</g>
<!-- Node7&#45;&gt;Node9 -->
<g id="edge8" class="edge"><title>Node7&#45;&gt;Node9</title>
<path fill="none" stroke="midnightblue" d="M347.633,-116.753C350.644,-109.087 355.019,-97.9515 358.744,-88.4708"/>
<polygon fill="midnightblue" stroke="midnightblue" points="362.036,-89.6625 362.435,-79.0752 355.521,-87.1029 362.036,-89.6625"/>
</g>
<!-- Node10 -->
<g id="node10" class="node"><title>Node10</title>
<polygon fill="none" stroke="#bfbfbf" points="-0.396484,-59 -0.396484,-79 48.3965,-79 48.3965,-59 -0.396484,-59"/>
<text text-anchor="middle" x="24" y="-65" font-family="Helvetica,sans-Serif" font-size="10.00">string.h</text>
</g>
<!-- Node7&#45;&gt;Node10 -->
<g id="edge9" class="edge"><title>Node7&#45;&gt;Node10</title>
<path fill="none" stroke="midnightblue" d="M321.398,-118.437C318.263,-117.535 315.066,-116.691 312,-116 203.503,-91.5594 170.62,-103.918 58.4144,-80.0332"/>
<polygon fill="midnightblue" stroke="midnightblue" points="58.9134,-76.5598 48.3975,-77.8506 57.4231,-83.3994 58.9134,-76.5598"/>
</g>
<!-- Node11 -->
<g id="node11" class="node"><title>Node11</title>
<polygon fill="none" stroke="#bfbfbf" points="66.2686,-59 66.2686,-79 111.731,-79 111.731,-59 66.2686,-59"/>
<text text-anchor="middle" x="89" y="-65" font-family="Helvetica,sans-Serif" font-size="10.00">stdio.h</text>
</g>
<!-- Node7&#45;&gt;Node11 -->
<g id="edge10" class="edge"><title>Node7&#45;&gt;Node11</title>
<path fill="none" stroke="midnightblue" d="M321.363,-118.583C318.233,-117.658 315.048,-116.769 312,-116 230.355,-95.4104 208.03,-98.997 126,-80 124.724,-79.7044 123.425,-79.3952 122.115,-79.0761"/>
<polygon fill="midnightblue" stroke="midnightblue" points="122.582,-75.5833 112.027,-76.5016 120.851,-82.3659 122.582,-75.5833"/>
</g>
<!-- Node12 -->
<g id="node12" class="node"><title>Node12</title>
<polygon fill="none" stroke="#bfbfbf" points="143.707,-1 143.707,-21 200.293,-21 200.293,-1 143.707,-1"/>
<text text-anchor="middle" x="172" y="-7" font-family="Helvetica,sans-Serif" font-size="10.00">stdbool.h</text>
</g>
<!-- Node7&#45;&gt;Node12 -->
<g id="edge11" class="edge"><title>Node7&#45;&gt;Node12</title>
<path fill="none" stroke="midnightblue" d="M321.334,-118.696C318.208,-117.754 315.032,-116.829 312,-116 244.618,-97.5698 202.372,-134.762 159,-80 147.965,-66.067 154.016,-45.5413 161.096,-30.6882"/>
<polygon fill="midnightblue" stroke="midnightblue" points="164.393,-31.9398 165.965,-21.4622 158.202,-28.6728 164.393,-31.9398"/>
</g>
<!-- Node13 -->
<g id="node13" class="node"><title>Node13</title>
<polygon fill="none" stroke="#bfbfbf" points="257.707,-59 257.707,-79 324.293,-79 324.293,-59 257.707,-59"/>
<text text-anchor="middle" x="291" y="-65" font-family="Helvetica,sans-Serif" font-size="10.00">hwpl/fault.h</text>
</g>
<!-- Node7&#45;&gt;Node13 -->
<g id="edge12" class="edge"><title>Node7&#45;&gt;Node13</title>
<path fill="none" stroke="midnightblue" d="M335.248,-116.753C327.453,-108.516 315.866,-96.2738 306.505,-86.3824"/>
<polygon fill="midnightblue" stroke="midnightblue" points="309.005,-83.9323 299.589,-79.0752 303.921,-88.744 309.005,-83.9323"/>
</g>
<!-- Node14 -->
<g id="node14" class="node"><title>Node14</title>
<polygon fill="none" stroke="#bfbfbf" points="446.431,-59 446.431,-79 513.569,-79 513.569,-59 446.431,-59"/>
<text text-anchor="middle" x="480" y="-65" font-family="Helvetica,sans-Serif" font-size="10.00">hwpl/arch.h</text>
</g>
<!-- Node7&#45;&gt;Node14 -->
<g id="edge13" class="edge"><title>Node7&#45;&gt;Node14</title>
<path fill="none" stroke="midnightblue" d="M366.153,-116.878C388.48,-107.685 423.148,-93.4095 448.365,-83.0263"/>
<polygon fill="midnightblue" stroke="midnightblue" points="449.942,-86.162 457.856,-79.1181 447.277,-79.6893 449.942,-86.162"/>
</g>
<!-- Node15 -->
<g id="node15" class="node"><title>Node15</title>
<g id="a_node15"><a xlink:href="types_8h_source.html" target="_top" xlink:title="hwpl/types.h">
<polygon fill="none" stroke="black" points="168.207,-59 168.207,-79 239.793,-79 239.793,-59 168.207,-59"/>
<text text-anchor="middle" x="204" y="-65" font-family="Helvetica,sans-Serif" font-size="10.00">hwpl/types.h</text>
</a>
</g>
</g>
<!-- Node7&#45;&gt;Node15 -->
<g id="edge14" class="edge"><title>Node7&#45;&gt;Node15</title>
<path fill="none" stroke="midnightblue" d="M321.507,-117.003C298.478,-107.791 262.46,-93.3841 236.369,-82.9475"/>
<polygon fill="midnightblue" stroke="midnightblue" points="237.487,-79.6254 226.903,-79.1611 234.888,-86.1247 237.487,-79.6254"/>
</g>
<!-- Node15&#45;&gt;Node8 -->
<g id="edge15" class="edge"><title>Node15&#45;&gt;Node8</title>
<path fill="none" stroke="midnightblue" d="M238.859,-58.878C278.953,-48.386 344.344,-31.2745 384.051,-20.8839"/>
<polygon fill="midnightblue" stroke="midnightblue" points="385.014,-24.2497 393.803,-18.332 383.242,-17.4777 385.014,-24.2497"/>
</g>
<!-- Node15&#45;&gt;Node12 -->
<g id="edge16" class="edge"><title>Node15&#45;&gt;Node12</title>
<path fill="none" stroke="midnightblue" d="M198.716,-58.7527C194.242,-50.9242 187.701,-39.4761 182.21,-29.8679"/>
<polygon fill="midnightblue" stroke="midnightblue" points="185.186,-28.0211 177.186,-21.0752 179.108,-31.4941 185.186,-28.0211"/>
</g>
<!-- Node16&#45;&gt;Node4 -->
<g id="edge18" class="edge"><title>Node16&#45;&gt;Node4</title>
<path fill="none" stroke="midnightblue" d="M560.164,-116.753C577.864,-107.742 604.984,-93.9353 625.17,-83.6589"/>
<polygon fill="midnightblue" stroke="midnightblue" points="626.85,-86.7312 634.174,-79.0752 623.674,-80.493 626.85,-86.7312"/>
</g>
<!-- Node16&#45;&gt;Node8 -->
<g id="edge19" class="edge"><title>Node16&#45;&gt;Node8</title>
<path fill="none" stroke="midnightblue" d="M541.688,-116.928C540.732,-102.702 536.933,-75.0195 522,-58 504.046,-37.538 475.262,-25.7735 452.523,-19.2734"/>
<polygon fill="midnightblue" stroke="midnightblue" points="453.123,-15.812 442.561,-16.6449 451.338,-22.5804 453.123,-15.812"/>
</g>
<!-- Node16&#45;&gt;Node14 -->
<g id="edge21" class="edge"><title>Node16&#45;&gt;Node14</title>
<path fill="none" stroke="midnightblue" d="M531.762,-116.753C522.463,-108.353 508.55,-95.7874 497.49,-85.7976"/>
<polygon fill="midnightblue" stroke="midnightblue" points="499.815,-83.1807 490.048,-79.0752 495.123,-88.3755 499.815,-83.1807"/>
</g>
<!-- Node17 -->
<g id="node17" class="node"><title>Node17</title>
<g id="a_node17"><a xlink:href="ioctl_8h_source.html" target="_top" xlink:title="ioctl.h">
<polygon fill="none" stroke="black" points="569.938,-59 569.938,-79 612.062,-79 612.062,-59 569.938,-59"/>
<text text-anchor="middle" x="591" y="-65" font-family="Helvetica,sans-Serif" font-size="10.00">ioctl.h</text>
</a>
</g>
</g>
<!-- Node16&#45;&gt;Node17 -->
<g id="edge20" class="edge"><title>Node16&#45;&gt;Node17</title>
<path fill="none" stroke="midnightblue" d="M550.091,-116.753C557.227,-108.598 567.799,-96.5158 576.408,-86.6769"/>
<polygon fill="midnightblue" stroke="midnightblue" points="579.108,-88.9058 583.059,-79.0752 573.84,-84.2962 579.108,-88.9058"/>
</g>
</g>
</svg>
