<?xml version="1.0" encoding="UTF-8" standalone="no"?>
<!DOCTYPE svg PUBLIC "-//W3C//DTD SVG 1.1//EN"
 "http://www.w3.org/Graphics/SVG/1.1/DTD/svg11.dtd">
<!-- Generated by graphviz version 2.34.0 (20130907.0228)
 -->
<!-- Title: /Users/tgil/git/CoActionOS/CoActionOS/src/sys/time/_times.c Pages: 1 -->
<svg width="374pt" height="112pt"
 viewBox="0.00 0.00 374.00 112.00" xmlns="http://www.w3.org/2000/svg" xmlns:xlink="http://www.w3.org/1999/xlink">
<g id="graph0" class="graph" transform="scale(1 1) rotate(0) translate(4 108)">
<title>/Users/tgil/git/CoActionOS/CoActionOS/src/sys/time/_times.c</title>
<!-- Node1 -->
<g id="node1" class="node"><title>Node1</title>
<polygon fill="#bfbfbf" stroke="black" points="111.931,-59 111.931,-103 234.069,-103 234.069,-59 111.931,-59"/>
<text text-anchor="start" x="119.931" y="-89" font-family="Helvetica,sans-Serif" font-size="10.00">/Users/tgil/git/CoAction</text>
<text text-anchor="start" x="119.931" y="-77" font-family="Helvetica,sans-Serif" font-size="10.00">OS/CoActionOS/src/sys</text>
<text text-anchor="middle" x="173" y="-65" font-family="Helvetica,sans-Serif" font-size="10.00">/time/_times.c</text>
</g>
<!-- Node2 -->
<g id="node2" class="node"><title>Node2</title>
<polygon fill="none" stroke="#bfbfbf" points="-0.842285,-1 -0.842285,-21 46.8423,-21 46.8423,-1 -0.842285,-1"/>
<text text-anchor="middle" x="23" y="-7" font-family="Helvetica,sans-Serif" font-size="10.00">stdlib.h</text>
</g>
<!-- Node1&#45;&gt;Node2 -->
<g id="edge1" class="edge"><title>Node1&#45;&gt;Node2</title>
<path fill="none" stroke="midnightblue" d="M126.361,-58.8571C102.158,-47.8849 73.3331,-34.8177 52.2801,-25.2737"/>
<polygon fill="midnightblue" stroke="midnightblue" points="53.4645,-21.9678 42.9116,-21.0266 50.5743,-28.3433 53.4645,-21.9678"/>
</g>
<!-- Node3 -->
<g id="node3" class="node"><title>Node3</title>
<polygon fill="none" stroke="#bfbfbf" points="64.9951,-1 64.9951,-21 131.005,-21 131.005,-1 64.9951,-1"/>
<text text-anchor="middle" x="98" y="-7" font-family="Helvetica,sans-Serif" font-size="10.00">sys/times.h</text>
</g>
<!-- Node1&#45;&gt;Node3 -->
<g id="edge2" class="edge"><title>Node1&#45;&gt;Node3</title>
<path fill="none" stroke="midnightblue" d="M149.681,-58.8571C138.687,-48.8897 125.787,-37.1935 115.625,-27.9801"/>
<polygon fill="midnightblue" stroke="midnightblue" points="117.911,-25.3279 108.151,-21.2039 113.209,-30.5138 117.911,-25.3279"/>
</g>
<!-- Node4 -->
<g id="node4" class="node"><title>Node4</title>
<polygon fill="none" stroke="#bfbfbf" points="149.158,-1 149.158,-21 196.842,-21 196.842,-1 149.158,-1"/>
<text text-anchor="middle" x="173" y="-7" font-family="Helvetica,sans-Serif" font-size="10.00">errno.h</text>
</g>
<!-- Node1&#45;&gt;Node4 -->
<g id="edge3" class="edge"><title>Node1&#45;&gt;Node4</title>
<path fill="none" stroke="midnightblue" d="M173,-58.8571C173,-50.074 173,-39.9484 173,-31.3622"/>
<polygon fill="midnightblue" stroke="midnightblue" points="176.5,-31.2039 173,-21.2039 169.5,-31.204 176.5,-31.2039"/>
</g>
<!-- Node5 -->
<g id="node5" class="node"><title>Node5</title>
<polygon fill="none" stroke="#bfbfbf" points="214.431,-1 214.431,-21 281.569,-21 281.569,-1 214.431,-1"/>
<text text-anchor="middle" x="248" y="-7" font-family="Helvetica,sans-Serif" font-size="10.00">hwpl/arch.h</text>
</g>
<!-- Node1&#45;&gt;Node5 -->
<g id="edge4" class="edge"><title>Node1&#45;&gt;Node5</title>
<path fill="none" stroke="midnightblue" d="M196.319,-58.8571C207.313,-48.8897 220.213,-37.1935 230.375,-27.9801"/>
<polygon fill="midnightblue" stroke="midnightblue" points="232.791,-30.5138 237.849,-21.2039 228.089,-25.3279 232.791,-30.5138"/>
</g>
<!-- Node6 -->
<g id="node6" class="node"><title>Node6</title>
<polygon fill="none" stroke="#bfbfbf" points="299.988,-1 299.988,-21 366.012,-21 366.012,-1 299.988,-1"/>
<text text-anchor="middle" x="333" y="-7" font-family="Helvetica,sans-Serif" font-size="10.00">hwpl/task.h</text>
</g>
<!-- Node1&#45;&gt;Node6 -->
<g id="edge5" class="edge"><title>Node1&#45;&gt;Node6</title>
<path fill="none" stroke="midnightblue" d="M222.748,-58.8571C248.799,-47.7856 279.868,-34.581 302.375,-25.0154"/>
<polygon fill="midnightblue" stroke="midnightblue" points="303.927,-28.1592 311.761,-21.0266 301.189,-21.7169 303.927,-28.1592"/>
</g>
</g>
</svg>
