<?xml version="1.0" encoding="UTF-8" standalone="no"?>
<!DOCTYPE svg PUBLIC "-//W3C//DTD SVG 1.1//EN"
 "http://www.w3.org/Graphics/SVG/1.1/DTD/svg11.dtd">
<!-- Generated by graphviz version 2.34.0 (20130907.0228)
 -->
<!-- Title: /Users/tgil/git/CoActionOS/CoActionOS&#45;Applib/include/Aio.hpp Pages: 1 -->
<svg width="2396pt" height="464pt"
 viewBox="0.00 0.00 2396.00 464.00" xmlns="http://www.w3.org/2000/svg" xmlns:xlink="http://www.w3.org/1999/xlink">
<g id="graph0" class="graph" transform="scale(1 1) rotate(0) translate(4 460)">
<title>/Users/tgil/git/CoActionOS/CoActionOS&#45;Applib/include/Aio.hpp</title>
<!-- Node1 -->
<g id="node1" class="node"><title>Node1</title>
<polygon fill="#bfbfbf" stroke="black" points="1031.08,-411 1031.08,-455 1184.92,-455 1184.92,-411 1031.08,-411"/>
<text text-anchor="start" x="1039.08" y="-441" font-family="Helvetica,sans-Serif" font-size="10.00">/Users/tgil/git/CoAction</text>
<text text-anchor="start" x="1039.08" y="-429" font-family="Helvetica,sans-Serif" font-size="10.00">OS/CoActionOS&#45;Applib/include</text>
<text text-anchor="middle" x="1108" y="-417" font-family="Helvetica,sans-Serif" font-size="10.00">/Aio.hpp</text>
</g>
<!-- Node2 -->
<g id="node2" class="node"><title>Node2</title>
<g id="a_node2"><a xlink:href="_periph_8hpp.html" target="_top" target="_top" xlink:title="/Users/tgil/git/CoAction\lOS/CoActionOS&#45;Applib/include\l/Periph.hpp">
<polygon fill="none" stroke="black" points="1031.08,-329 1031.08,-373 1184.92,-373 1184.92,-329 1031.08,-329"/>
<text text-anchor="start" x="1039.08" y="-359" font-family="Helvetica,sans-Serif" font-size="10.00">/Users/tgil/git/CoAction</text>
<text text-anchor="start" x="1039.08" y="-347" font-family="Helvetica,sans-Serif" font-size="10.00">OS/CoActionOS&#45;Applib/include</text>
<text text-anchor="middle" x="1108" y="-335" font-family="Helvetica,sans-Serif" font-size="10.00">/Periph.hpp</text>
</a>
</g>
</g>
<!-- Node1&#45;&gt;Node2 -->
<g id="edge1" class="edge"><title>Node1&#45;&gt;Node2</title>
<path fill="none" stroke="midnightblue" d="M1108,-400.896C1108,-391.609 1108,-381.649 1108,-373.156"/>
<polygon fill="midnightblue" stroke="midnightblue" points="1104.5,-400.981 1108,-410.981 1111.5,-400.981 1104.5,-400.981"/>
</g>
<!-- Node3 -->
<g id="node3" class="node"><title>Node3</title>
<g id="a_node3"><a xlink:href="_pblock_8hpp.html" target="_top" target="_top" xlink:title="/Users/tgil/git/CoAction\lOS/CoActionOS&#45;Applib/include\l/Pblock.hpp">
<polygon fill="none" stroke="black" points="515.077,-247 515.077,-291 668.923,-291 668.923,-247 515.077,-247"/>
<text text-anchor="start" x="523.077" y="-277" font-family="Helvetica,sans-Serif" font-size="10.00">/Users/tgil/git/CoAction</text>
<text text-anchor="start" x="523.077" y="-265" font-family="Helvetica,sans-Serif" font-size="10.00">OS/CoActionOS&#45;Applib/include</text>
<text text-anchor="middle" x="592" y="-253" font-family="Helvetica,sans-Serif" font-size="10.00">/Pblock.hpp</text>
</a>
</g>
</g>
<!-- Node2&#45;&gt;Node3 -->
<g id="edge2" class="edge"><title>Node2&#45;&gt;Node3</title>
<path fill="none" stroke="midnightblue" d="M1021.09,-336.526C922.527,-321.244 763.3,-296.558 669.024,-281.942"/>
<polygon fill="midnightblue" stroke="midnightblue" points="1020.61,-339.993 1031.03,-338.066 1021.68,-333.076 1020.61,-339.993"/>
</g>
<!-- Node10 -->
<g id="node10" class="node"><title>Node10</title>
<g id="a_node10"><a xlink:href="_pchar_8hpp.html" target="_top" target="_top" xlink:title="/Users/tgil/git/CoAction\lOS/CoActionOS&#45;Applib/include\l/Pchar.hpp">
<polygon fill="none" stroke="black" points="1547.08,-247 1547.08,-291 1700.92,-291 1700.92,-247 1547.08,-247"/>
<text text-anchor="start" x="1555.08" y="-277" font-family="Helvetica,sans-Serif" font-size="10.00">/Users/tgil/git/CoAction</text>
<text text-anchor="start" x="1555.08" y="-265" font-family="Helvetica,sans-Serif" font-size="10.00">OS/CoActionOS&#45;Applib/include</text>
<text text-anchor="middle" x="1624" y="-253" font-family="Helvetica,sans-Serif" font-size="10.00">/Pchar.hpp</text>
</a>
</g>
</g>
<!-- Node2&#45;&gt;Node10 -->
<g id="edge9" class="edge"><title>Node2&#45;&gt;Node10</title>
<path fill="none" stroke="midnightblue" d="M1194.91,-336.526C1293.47,-321.244 1452.7,-296.558 1546.98,-281.942"/>
<polygon fill="midnightblue" stroke="midnightblue" points="1194.32,-333.076 1184.97,-338.066 1195.39,-339.993 1194.32,-333.076"/>
</g>
<!-- Node4 -->
<g id="node4" class="node"><title>Node4</title>
<g id="a_node4"><a xlink:href="_adc_8hpp.html" target="_top" target="_top" xlink:title="/Users/tgil/git/CoAction\lOS/CoActionOS&#45;Applib/include\l/Adc.hpp">
<polygon fill="none" stroke="black" points="-0.92334,-165 -0.92334,-209 152.923,-209 152.923,-165 -0.92334,-165"/>
<text text-anchor="start" x="7.07666" y="-195" font-family="Helvetica,sans-Serif" font-size="10.00">/Users/tgil/git/CoAction</text>
<text text-anchor="start" x="7.07666" y="-183" font-family="Helvetica,sans-Serif" font-size="10.00">OS/CoActionOS&#45;Applib/include</text>
<text text-anchor="middle" x="76" y="-171" font-family="Helvetica,sans-Serif" font-size="10.00">/Adc.hpp</text>
</a>
</g>
</g>
<!-- Node3&#45;&gt;Node4 -->
<g id="edge3" class="edge"><title>Node3&#45;&gt;Node4</title>
<path fill="none" stroke="midnightblue" d="M504.934,-259.264C417.725,-249.81 279.889,-232.949 162,-210 159.126,-209.44 156.205,-208.843 153.259,-208.216"/>
<polygon fill="midnightblue" stroke="midnightblue" points="504.733,-262.763 515.05,-260.352 505.482,-255.803 504.733,-262.763"/>
</g>
<!-- Node5 -->
<g id="node5" class="node"><title>Node5</title>
<g id="a_node5"><a xlink:href="_dac_8hpp.html" target="_top" target="_top" xlink:title="/Users/tgil/git/CoAction\lOS/CoActionOS&#45;Applib/include\l/Dac.hpp">
<polygon fill="none" stroke="black" points="171.077,-165 171.077,-209 324.923,-209 324.923,-165 171.077,-165"/>
<text text-anchor="start" x="179.077" y="-195" font-family="Helvetica,sans-Serif" font-size="10.00">/Users/tgil/git/CoAction</text>
<text text-anchor="start" x="179.077" y="-183" font-family="Helvetica,sans-Serif" font-size="10.00">OS/CoActionOS&#45;Applib/include</text>
<text text-anchor="middle" x="248" y="-171" font-family="Helvetica,sans-Serif" font-size="10.00">/Dac.hpp</text>
</a>
</g>
</g>
<!-- Node3&#45;&gt;Node5 -->
<g id="edge4" class="edge"><title>Node3&#45;&gt;Node5</title>
<path fill="none" stroke="midnightblue" d="M504.988,-249.105C454.898,-238.061 390.81,-223.649 334,-210 331.153,-209.316 328.255,-208.612 325.329,-207.896"/>
<polygon fill="midnightblue" stroke="midnightblue" points="504.294,-252.536 514.813,-251.268 505.799,-245.7 504.294,-252.536"/>
</g>
<!-- Node6 -->
<g id="node6" class="node"><title>Node6</title>
<g id="a_node6"><a xlink:href="_eint_8hpp.html" target="_top" target="_top" xlink:title="/Users/tgil/git/CoAction\lOS/CoActionOS&#45;Applib/include\l/Eint.hpp">
<polygon fill="none" stroke="black" points="343.077,-165 343.077,-209 496.923,-209 496.923,-165 343.077,-165"/>
<text text-anchor="start" x="351.077" y="-195" font-family="Helvetica,sans-Serif" font-size="10.00">/Users/tgil/git/CoAction</text>
<text text-anchor="start" x="351.077" y="-183" font-family="Helvetica,sans-Serif" font-size="10.00">OS/CoActionOS&#45;Applib/include</text>
<text text-anchor="middle" x="420" y="-171" font-family="Helvetica,sans-Serif" font-size="10.00">/Eint.hpp</text>
</a>
</g>
</g>
<!-- Node3&#45;&gt;Node6 -->
<g id="edge5" class="edge"><title>Node3&#45;&gt;Node6</title>
<path fill="none" stroke="midnightblue" d="M537.725,-242.756C514.385,-231.9 487.418,-219.357 465.187,-209.017"/>
<polygon fill="midnightblue" stroke="midnightblue" points="536.266,-245.937 546.809,-246.981 539.218,-239.59 536.266,-245.937"/>
</g>
<!-- Node7 -->
<g id="node7" class="node"><title>Node7</title>
<g id="a_node7"><a xlink:href="_i2c_8hpp.html" target="_top" target="_top" xlink:title="/Users/tgil/git/CoAction\lOS/CoActionOS&#45;Applib/include\l/I2c.hpp">
<polygon fill="none" stroke="black" points="515.077,-165 515.077,-209 668.923,-209 668.923,-165 515.077,-165"/>
<text text-anchor="start" x="523.077" y="-195" font-family="Helvetica,sans-Serif" font-size="10.00">/Users/tgil/git/CoAction</text>
<text text-anchor="start" x="523.077" y="-183" font-family="Helvetica,sans-Serif" font-size="10.00">OS/CoActionOS&#45;Applib/include</text>
<text text-anchor="middle" x="592" y="-171" font-family="Helvetica,sans-Serif" font-size="10.00">/I2c.hpp</text>
</a>
</g>
</g>
<!-- Node3&#45;&gt;Node7 -->
<g id="edge6" class="edge"><title>Node3&#45;&gt;Node7</title>
<path fill="none" stroke="midnightblue" d="M592,-236.896C592,-227.609 592,-217.649 592,-209.156"/>
<polygon fill="midnightblue" stroke="midnightblue" points="588.5,-236.981 592,-246.981 595.5,-236.981 588.5,-236.981"/>
</g>
<!-- Node8 -->
<g id="node8" class="node"><title>Node8</title>
<g id="a_node8"><a xlink:href="_pwm_8hpp.html" target="_top" target="_top" xlink:title="/Users/tgil/git/CoAction\lOS/CoActionOS&#45;Applib/include\l/Pwm.hpp">
<polygon fill="none" stroke="black" points="687.077,-165 687.077,-209 840.923,-209 840.923,-165 687.077,-165"/>
<text text-anchor="start" x="695.077" y="-195" font-family="Helvetica,sans-Serif" font-size="10.00">/Users/tgil/git/CoAction</text>
<text text-anchor="start" x="695.077" y="-183" font-family="Helvetica,sans-Serif" font-size="10.00">OS/CoActionOS&#45;Applib/include</text>
<text text-anchor="middle" x="764" y="-171" font-family="Helvetica,sans-Serif" font-size="10.00">/Pwm.hpp</text>
</a>
</g>
</g>
<!-- Node3&#45;&gt;Node8 -->
<g id="edge7" class="edge"><title>Node3&#45;&gt;Node8</title>
<path fill="none" stroke="midnightblue" d="M646.275,-242.756C669.615,-231.9 696.582,-219.357 718.813,-209.017"/>
<polygon fill="midnightblue" stroke="midnightblue" points="644.782,-239.59 637.191,-246.981 647.734,-245.937 644.782,-239.59"/>
</g>
<!-- Node9 -->
<g id="node9" class="node"><title>Node9</title>
<g id="a_node9"><a xlink:href="_usb_8hpp.html" target="_top" target="_top" xlink:title="/Users/tgil/git/CoAction\lOS/CoActionOS&#45;Applib/include\l/Usb.hpp">
<polygon fill="none" stroke="black" points="859.077,-165 859.077,-209 1012.92,-209 1012.92,-165 859.077,-165"/>
<text text-anchor="start" x="867.077" y="-195" font-family="Helvetica,sans-Serif" font-size="10.00">/Users/tgil/git/CoAction</text>
<text text-anchor="start" x="867.077" y="-183" font-family="Helvetica,sans-Serif" font-size="10.00">OS/CoActionOS&#45;Applib/include</text>
<text text-anchor="middle" x="936" y="-171" font-family="Helvetica,sans-Serif" font-size="10.00">/Usb.hpp</text>
</a>
</g>
</g>
<!-- Node3&#45;&gt;Node9 -->
<g id="edge8" class="edge"><title>Node3&#45;&gt;Node9</title>
<path fill="none" stroke="midnightblue" d="M678.933,-248.964C728.781,-237.903 792.49,-223.519 849,-210 852.182,-209.239 855.427,-208.454 858.704,-207.656"/>
<polygon fill="midnightblue" stroke="midnightblue" points="678.16,-245.55 669.154,-251.131 679.674,-252.385 678.16,-245.55"/>
</g>
<!-- Node11 -->
<g id="node11" class="node"><title>Node11</title>
<g id="a_node11"><a xlink:href="_uart_8hpp.html" target="_top" target="_top" xlink:title="/Users/tgil/git/CoAction\lOS/CoActionOS&#45;Applib/include\l/Uart.hpp">
<polygon fill="none" stroke="black" points="1031.08,-165 1031.08,-209 1184.92,-209 1184.92,-165 1031.08,-165"/>
<text text-anchor="start" x="1039.08" y="-195" font-family="Helvetica,sans-Serif" font-size="10.00">/Users/tgil/git/CoAction</text>
<text text-anchor="start" x="1039.08" y="-183" font-family="Helvetica,sans-Serif" font-size="10.00">OS/CoActionOS&#45;Applib/include</text>
<text text-anchor="middle" x="1108" y="-171" font-family="Helvetica,sans-Serif" font-size="10.00">/Uart.hpp</text>
</a>
</g>
</g>
<!-- Node10&#45;&gt;Node11 -->
<g id="edge10" class="edge"><title>Node10&#45;&gt;Node11</title>
<path fill="none" stroke="midnightblue" d="M1536.93,-259.264C1449.72,-249.81 1311.89,-232.949 1194,-210 1191.13,-209.44 1188.2,-208.843 1185.26,-208.216"/>
<polygon fill="midnightblue" stroke="midnightblue" points="1536.73,-262.763 1547.05,-260.352 1537.48,-255.803 1536.73,-262.763"/>
</g>
<!-- Node15 -->
<g id="node15" class="node"><title>Node15</title>
<g id="a_node15"><a xlink:href="_core_8hpp.html" target="_top" target="_top" xlink:title="/Users/tgil/git/CoAction\lOS/CoActionOS&#45;Applib/include\l/Core.hpp">
<polygon fill="none" stroke="black" points="1203.08,-165 1203.08,-209 1356.92,-209 1356.92,-165 1203.08,-165"/>
<text text-anchor="start" x="1211.08" y="-195" font-family="Helvetica,sans-Serif" font-size="10.00">/Users/tgil/git/CoAction</text>
<text text-anchor="start" x="1211.08" y="-183" font-family="Helvetica,sans-Serif" font-size="10.00">OS/CoActionOS&#45;Applib/include</text>
<text text-anchor="middle" x="1280" y="-171" font-family="Helvetica,sans-Serif" font-size="10.00">/Core.hpp</text>
</a>
</g>
</g>
<!-- Node10&#45;&gt;Node15 -->
<g id="edge14" class="edge"><title>Node10&#45;&gt;Node15</title>
<path fill="none" stroke="midnightblue" d="M1536.99,-249.105C1486.9,-238.061 1422.81,-223.649 1366,-210 1363.15,-209.316 1360.25,-208.612 1357.33,-207.896"/>
<polygon fill="midnightblue" stroke="midnightblue" points="1536.29,-252.536 1546.81,-251.268 1537.8,-245.7 1536.29,-252.536"/>
</g>
<!-- Node16 -->
<g id="node16" class="node"><title>Node16</title>
<g id="a_node16"><a xlink:href="_dbug_8hpp.html" target="_top" target="_top" xlink:title="/Users/tgil/git/CoAction\lOS/CoActionOS&#45;Applib/include\l/Dbug.hpp">
<polygon fill="none" stroke="black" points="1375.08,-165 1375.08,-209 1528.92,-209 1528.92,-165 1375.08,-165"/>
<text text-anchor="start" x="1383.08" y="-195" font-family="Helvetica,sans-Serif" font-size="10.00">/Users/tgil/git/CoAction</text>
<text text-anchor="start" x="1383.08" y="-183" font-family="Helvetica,sans-Serif" font-size="10.00">OS/CoActionOS&#45;Applib/include</text>
<text text-anchor="middle" x="1452" y="-171" font-family="Helvetica,sans-Serif" font-size="10.00">/Dbug.hpp</text>
</a>
</g>
</g>
<!-- Node10&#45;&gt;Node16 -->
<g id="edge15" class="edge"><title>Node10&#45;&gt;Node16</title>
<path fill="none" stroke="midnightblue" d="M1569.73,-242.756C1546.38,-231.9 1519.42,-219.357 1497.19,-209.017"/>
<polygon fill="midnightblue" stroke="midnightblue" points="1568.27,-245.937 1578.81,-246.981 1571.22,-239.59 1568.27,-245.937"/>
</g>
<!-- Node19 -->
<g id="node19" class="node"><title>Node19</title>
<g id="a_node19"><a xlink:href="_pio_8hpp.html" target="_top" target="_top" xlink:title="/Users/tgil/git/CoAction\lOS/CoActionOS&#45;Applib/include\l/Pio.hpp">
<polygon fill="none" stroke="black" points="1719.08,-165 1719.08,-209 1872.92,-209 1872.92,-165 1719.08,-165"/>
<text text-anchor="start" x="1727.08" y="-195" font-family="Helvetica,sans-Serif" font-size="10.00">/Users/tgil/git/CoAction</text>
<text text-anchor="start" x="1727.08" y="-183" font-family="Helvetica,sans-Serif" font-size="10.00">OS/CoActionOS&#45;Applib/include</text>
<text text-anchor="middle" x="1796" y="-171" font-family="Helvetica,sans-Serif" font-size="10.00">/Pio.hpp</text>
</a>
</g>
</g>
<!-- Node10&#45;&gt;Node19 -->
<g id="edge19" class="edge"><title>Node10&#45;&gt;Node19</title>
<path fill="none" stroke="midnightblue" d="M1678.27,-242.756C1701.62,-231.9 1728.58,-219.357 1750.81,-209.017"/>
<polygon fill="midnightblue" stroke="midnightblue" points="1676.78,-239.59 1669.19,-246.981 1679.73,-245.937 1676.78,-239.59"/>
</g>
<!-- Node22 -->
<g id="node22" class="node"><title>Node22</title>
<g id="a_node22"><a xlink:href="_spi_8hpp.html" target="_top" target="_top" xlink:title="/Users/tgil/git/CoAction\lOS/CoActionOS&#45;Applib/include\l/Spi.hpp">
<polygon fill="none" stroke="black" points="1547.08,-165 1547.08,-209 1700.92,-209 1700.92,-165 1547.08,-165"/>
<text text-anchor="start" x="1555.08" y="-195" font-family="Helvetica,sans-Serif" font-size="10.00">/Users/tgil/git/CoAction</text>
<text text-anchor="start" x="1555.08" y="-183" font-family="Helvetica,sans-Serif" font-size="10.00">OS/CoActionOS&#45;Applib/include</text>
<text text-anchor="middle" x="1624" y="-171" font-family="Helvetica,sans-Serif" font-size="10.00">/Spi.hpp</text>
</a>
</g>
</g>
<!-- Node10&#45;&gt;Node22 -->
<g id="edge23" class="edge"><title>Node10&#45;&gt;Node22</title>
<path fill="none" stroke="midnightblue" d="M1624,-236.896C1624,-227.609 1624,-217.649 1624,-209.156"/>
<polygon fill="midnightblue" stroke="midnightblue" points="1620.5,-236.981 1624,-246.981 1627.5,-236.981 1620.5,-236.981"/>
</g>
<!-- Node23 -->
<g id="node23" class="node"><title>Node23</title>
<g id="a_node23"><a xlink:href="_gpio_8hpp_source.html" target="_top" target="_top" xlink:title="/Users/tgil/git/CoAction\lOS/CoActionOS&#45;Applib/include\l/Gpio.hpp">
<polygon fill="none" stroke="black" points="1891.08,-165 1891.08,-209 2044.92,-209 2044.92,-165 1891.08,-165"/>
<text text-anchor="start" x="1899.08" y="-195" font-family="Helvetica,sans-Serif" font-size="10.00">/Users/tgil/git/CoAction</text>
<text text-anchor="start" x="1899.08" y="-183" font-family="Helvetica,sans-Serif" font-size="10.00">OS/CoActionOS&#45;Applib/include</text>
<text text-anchor="middle" x="1968" y="-171" font-family="Helvetica,sans-Serif" font-size="10.00">/Gpio.hpp</text>
</a>
</g>
</g>
<!-- Node10&#45;&gt;Node23 -->
<g id="edge25" class="edge"><title>Node10&#45;&gt;Node23</title>
<path fill="none" stroke="midnightblue" d="M1710.93,-248.964C1760.78,-237.903 1824.49,-223.519 1881,-210 1884.18,-209.239 1887.43,-208.454 1890.7,-207.656"/>
<polygon fill="midnightblue" stroke="midnightblue" points="1710.16,-245.55 1701.15,-251.131 1711.67,-252.385 1710.16,-245.55"/>
</g>
<!-- Node24 -->
<g id="node24" class="node"><title>Node24</title>
<g id="a_node24"><a xlink:href="_rtc_8hpp.html" target="_top" target="_top" xlink:title="/Users/tgil/git/CoAction\lOS/CoActionOS&#45;Applib/include\l/Rtc.hpp">
<polygon fill="none" stroke="black" points="2063.08,-165 2063.08,-209 2216.92,-209 2216.92,-165 2063.08,-165"/>
<text text-anchor="start" x="2071.08" y="-195" font-family="Helvetica,sans-Serif" font-size="10.00">/Users/tgil/git/CoAction</text>
<text text-anchor="start" x="2071.08" y="-183" font-family="Helvetica,sans-Serif" font-size="10.00">OS/CoActionOS&#45;Applib/include</text>
<text text-anchor="middle" x="2140" y="-171" font-family="Helvetica,sans-Serif" font-size="10.00">/Rtc.hpp</text>
</a>
</g>
</g>
<!-- Node10&#45;&gt;Node24 -->
<g id="edge26" class="edge"><title>Node10&#45;&gt;Node24</title>
<path fill="none" stroke="midnightblue" d="M1711.24,-259.137C1798.26,-249.61 1935.53,-232.718 2053,-210 2056.21,-209.379 2059.48,-208.711 2062.78,-208.01"/>
<polygon fill="midnightblue" stroke="midnightblue" points="1710.71,-255.674 1701.15,-260.234 1711.47,-262.633 1710.71,-255.674"/>
</g>
<!-- Node25 -->
<g id="node25" class="node"><title>Node25</title>
<g id="a_node25"><a xlink:href="_tmr_8hpp.html" target="_top" target="_top" xlink:title="/Users/tgil/git/CoAction\lOS/CoActionOS&#45;Applib/include\l/Tmr.hpp">
<polygon fill="none" stroke="black" points="2235.08,-165 2235.08,-209 2388.92,-209 2388.92,-165 2235.08,-165"/>
<text text-anchor="start" x="2243.08" y="-195" font-family="Helvetica,sans-Serif" font-size="10.00">/Users/tgil/git/CoAction</text>
<text text-anchor="start" x="2243.08" y="-183" font-family="Helvetica,sans-Serif" font-size="10.00">OS/CoActionOS&#45;Applib/include</text>
<text text-anchor="middle" x="2312" y="-171" font-family="Helvetica,sans-Serif" font-size="10.00">/Tmr.hpp</text>
</a>
</g>
</g>
<!-- Node10&#45;&gt;Node25 -->
<g id="edge27" class="edge"><title>Node10&#45;&gt;Node25</title>
<path fill="none" stroke="midnightblue" d="M1711.36,-263.726C1828.83,-257.035 2043.86,-241.457 2225,-210 2228.22,-209.44 2231.5,-208.824 2234.81,-208.165"/>
<polygon fill="midnightblue" stroke="midnightblue" points="1711.13,-260.233 1701.35,-264.289 1711.53,-267.222 1711.13,-260.233"/>
</g>
<!-- Node12 -->
<g id="node12" class="node"><title>Node12</title>
<g id="a_node12"><a xlink:href="_brsp_8hpp.html" target="_top" target="_top" xlink:title="/Users/tgil/git/CoAction\lOS/CoActionOS&#45;Applib/include\l/Brsp.hpp">
<polygon fill="none" stroke="black" points="926.077,-83 926.077,-127 1079.92,-127 1079.92,-83 926.077,-83"/>
<text text-anchor="start" x="934.077" y="-113" font-family="Helvetica,sans-Serif" font-size="10.00">/Users/tgil/git/CoAction</text>
<text text-anchor="start" x="934.077" y="-101" font-family="Helvetica,sans-Serif" font-size="10.00">OS/CoActionOS&#45;Applib/include</text>
<text text-anchor="middle" x="1003" y="-89" font-family="Helvetica,sans-Serif" font-size="10.00">/Brsp.hpp</text>
</a>
</g>
</g>
<!-- Node11&#45;&gt;Node12 -->
<g id="edge11" class="edge"><title>Node11&#45;&gt;Node12</title>
<path fill="none" stroke="midnightblue" d="M1072.23,-158.745C1058.68,-148.423 1043.47,-136.836 1030.77,-127.156"/>
<polygon fill="midnightblue" stroke="midnightblue" points="1070.34,-161.704 1080.41,-164.981 1074.58,-156.136 1070.34,-161.704"/>
</g>
<!-- Node13 -->
<g id="node13" class="node"><title>Node13</title>
<g id="a_node13"><a xlink:href="_dbug_uart_8hpp.html" target="_top" target="_top" xlink:title="/Users/tgil/git/CoAction\lOS/CoActionOS&#45;Applib/include\l/DbugUart.hpp">
<polygon fill="none" stroke="black" points="1136.08,-83 1136.08,-127 1289.92,-127 1289.92,-83 1136.08,-83"/>
<text text-anchor="start" x="1144.08" y="-113" font-family="Helvetica,sans-Serif" font-size="10.00">/Users/tgil/git/CoAction</text>
<text text-anchor="start" x="1144.08" y="-101" font-family="Helvetica,sans-Serif" font-size="10.00">OS/CoActionOS&#45;Applib/include</text>
<text text-anchor="middle" x="1213" y="-89" font-family="Helvetica,sans-Serif" font-size="10.00">/DbugUart.hpp</text>
</a>
</g>
</g>
<!-- Node11&#45;&gt;Node13 -->
<g id="edge12" class="edge"><title>Node11&#45;&gt;Node13</title>
<path fill="none" stroke="midnightblue" d="M1143.77,-158.745C1157.32,-148.423 1172.53,-136.836 1185.23,-127.156"/>
<polygon fill="midnightblue" stroke="midnightblue" points="1141.42,-156.136 1135.59,-164.981 1145.66,-161.704 1141.42,-156.136"/>
</g>
<!-- Node14 -->
<g id="node14" class="node"><title>Node14</title>
<g id="a_node14"><a xlink:href="_lpc_phy_8hpp_source.html" target="_top" target="_top" xlink:title="/Users/tgil/git/CoAction\lOS/CoActionOS&#45;Applib/include\l/LpcPhy.hpp">
<polygon fill="none" stroke="red" points="1427.08,-1 1427.08,-45 1580.92,-45 1580.92,-1 1427.08,-1"/>
<text text-anchor="start" x="1435.08" y="-31" font-family="Helvetica,sans-Serif" font-size="10.00">/Users/tgil/git/CoAction</text>
<text text-anchor="start" x="1435.08" y="-19" font-family="Helvetica,sans-Serif" font-size="10.00">OS/CoActionOS&#45;Applib/include</text>
<text text-anchor="middle" x="1504" y="-7" font-family="Helvetica,sans-Serif" font-size="10.00">/LpcPhy.hpp</text>
</a>
</g>
</g>
<!-- Node11&#45;&gt;Node14 -->
<g id="edge13" class="edge"><title>Node11&#45;&gt;Node14</title>
<path fill="none" stroke="midnightblue" d="M1104.85,-154.676C1104.37,-131.377 1107.94,-100.53 1127,-82 1168.48,-41.6639 1329,-29.37 1426.71,-25.6294"/>
<polygon fill="midnightblue" stroke="midnightblue" points="1101.36,-154.951 1105.32,-164.778 1108.36,-154.626 1101.36,-154.951"/>
</g>
<!-- Node16&#45;&gt;Node13 -->
<g id="edge18" class="edge"><title>Node16&#45;&gt;Node13</title>
<path fill="none" stroke="midnightblue" d="M1379.58,-161.76C1346.48,-150.679 1307.64,-137.677 1275.79,-127.017"/>
<polygon fill="midnightblue" stroke="midnightblue" points="1378.61,-165.126 1389.21,-164.981 1380.83,-158.488 1378.61,-165.126"/>
</g>
<!-- Node17 -->
<g id="node17" class="node"><title>Node17</title>
<g id="a_node17"><a xlink:href="_dbug_null_8hpp.html" target="_top" target="_top" xlink:title="/Users/tgil/git/CoAction\lOS/CoActionOS&#45;Applib/include\l/DbugNull.hpp">
<polygon fill="none" stroke="black" points="1308.08,-83 1308.08,-127 1461.92,-127 1461.92,-83 1308.08,-83"/>
<text text-anchor="start" x="1316.08" y="-113" font-family="Helvetica,sans-Serif" font-size="10.00">/Users/tgil/git/CoAction</text>
<text text-anchor="start" x="1316.08" y="-101" font-family="Helvetica,sans-Serif" font-size="10.00">OS/CoActionOS&#45;Applib/include</text>
<text text-anchor="middle" x="1385" y="-89" font-family="Helvetica,sans-Serif" font-size="10.00">/DbugNull.hpp</text>
</a>
</g>
</g>
<!-- Node16&#45;&gt;Node17 -->
<g id="edge16" class="edge"><title>Node16&#45;&gt;Node17</title>
<path fill="none" stroke="midnightblue" d="M1427.94,-157.277C1419.62,-147.334 1410.44,-136.379 1402.72,-127.156"/>
<polygon fill="midnightblue" stroke="midnightblue" points="1425.29,-159.562 1434.4,-164.981 1430.66,-155.067 1425.29,-159.562"/>
</g>
<!-- Node18 -->
<g id="node18" class="node"><title>Node18</title>
<g id="a_node18"><a xlink:href="_dbug_stdout_8hpp.html" target="_top" target="_top" xlink:title="/Users/tgil/git/CoAction\lOS/CoActionOS&#45;Applib/include\l/DbugStdout.hpp">
<polygon fill="none" stroke="black" points="1480.08,-83 1480.08,-127 1633.92,-127 1633.92,-83 1480.08,-83"/>
<text text-anchor="start" x="1488.08" y="-113" font-family="Helvetica,sans-Serif" font-size="10.00">/Users/tgil/git/CoAction</text>
<text text-anchor="start" x="1488.08" y="-101" font-family="Helvetica,sans-Serif" font-size="10.00">OS/CoActionOS&#45;Applib/include</text>
<text text-anchor="middle" x="1557" y="-89" font-family="Helvetica,sans-Serif" font-size="10.00">/DbugStdout.hpp</text>
</a>
</g>
</g>
<!-- Node16&#45;&gt;Node18 -->
<g id="edge17" class="edge"><title>Node16&#45;&gt;Node18</title>
<path fill="none" stroke="midnightblue" d="M1487.77,-158.745C1501.32,-148.423 1516.53,-136.836 1529.23,-127.156"/>
<polygon fill="midnightblue" stroke="midnightblue" points="1485.42,-156.136 1479.59,-164.981 1489.66,-161.704 1485.42,-156.136"/>
</g>
<!-- Node20 -->
<g id="node20" class="node"><title>Node20</title>
<g id="a_node20"><a xlink:href="_nhdc12832_8hpp_source.html" target="_top" target="_top" xlink:title="/Users/tgil/git/CoAction\lOS/CoActionOS&#45;Applib/include\l/Nhdc12832.hpp">
<polygon fill="none" stroke="red" points="1652.08,-83 1652.08,-127 1805.92,-127 1805.92,-83 1652.08,-83"/>
<text text-anchor="start" x="1660.08" y="-113" font-family="Helvetica,sans-Serif" font-size="10.00">/Users/tgil/git/CoAction</text>
<text text-anchor="start" x="1660.08" y="-101" font-family="Helvetica,sans-Serif" font-size="10.00">OS/CoActionOS&#45;Applib/include</text>
<text text-anchor="middle" x="1729" y="-89" font-family="Helvetica,sans-Serif" font-size="10.00">/Nhdc12832.hpp</text>
</a>
</g>
</g>
<!-- Node19&#45;&gt;Node20 -->
<g id="edge20" class="edge"><title>Node19&#45;&gt;Node20</title>
<path fill="none" stroke="midnightblue" d="M1771.94,-157.277C1763.62,-147.334 1754.44,-136.379 1746.72,-127.156"/>
<polygon fill="midnightblue" stroke="midnightblue" points="1769.29,-159.562 1778.4,-164.981 1774.66,-155.067 1769.29,-159.562"/>
</g>
<!-- Node21 -->
<g id="node21" class="node"><title>Node21</title>
<g id="a_node21"><a xlink:href="_pin_8hpp.html" target="_top" target="_top" xlink:title="/Users/tgil/git/CoAction\lOS/CoActionOS&#45;Applib/include\l/Pin.hpp">
<polygon fill="none" stroke="black" points="1824.08,-83 1824.08,-127 1977.92,-127 1977.92,-83 1824.08,-83"/>
<text text-anchor="start" x="1832.08" y="-113" font-family="Helvetica,sans-Serif" font-size="10.00">/Users/tgil/git/CoAction</text>
<text text-anchor="start" x="1832.08" y="-101" font-family="Helvetica,sans-Serif" font-size="10.00">OS/CoActionOS&#45;Applib/include</text>
<text text-anchor="middle" x="1901" y="-89" font-family="Helvetica,sans-Serif" font-size="10.00">/Pin.hpp</text>
</a>
</g>
</g>
<!-- Node19&#45;&gt;Node21 -->
<g id="edge21" class="edge"><title>Node19&#45;&gt;Node21</title>
<path fill="none" stroke="midnightblue" d="M1831.77,-158.745C1845.32,-148.423 1860.53,-136.836 1873.23,-127.156"/>
<polygon fill="midnightblue" stroke="midnightblue" points="1829.42,-156.136 1823.59,-164.981 1833.66,-161.704 1829.42,-156.136"/>
</g>
<!-- Node21&#45;&gt;Node14 -->
<g id="edge22" class="edge"><title>Node21&#45;&gt;Node14</title>
<path fill="none" stroke="midnightblue" d="M1813.85,-82.0298C1728.27,-63.4091 1641.58,-47.5886 1581.03,-37.0273"/>
<polygon fill="midnightblue" stroke="midnightblue" points="1813.22,-85.475 1823.74,-84.1951 1814.72,-78.637 1813.22,-85.475"/>
</g>
<!-- Node22&#45;&gt;Node20 -->
<g id="edge24" class="edge"><title>Node22&#45;&gt;Node20</title>
<path fill="none" stroke="midnightblue" d="M1659.77,-158.745C1673.32,-148.423 1688.53,-136.836 1701.23,-127.156"/>
<polygon fill="midnightblue" stroke="midnightblue" points="1657.42,-156.136 1651.59,-164.981 1661.66,-161.704 1657.42,-156.136"/>
</g>
<!-- Node26 -->
<g id="node26" class="node"><title>Node26</title>
<g id="a_node26"><a xlink:href="_timer_8hpp.html" target="_top" target="_top" xlink:title="/Users/tgil/git/CoAction\lOS/CoActionOS&#45;Applib/include\l/Timer.hpp">
<polygon fill="none" stroke="black" points="2235.08,-83 2235.08,-127 2388.92,-127 2388.92,-83 2235.08,-83"/>
<text text-anchor="start" x="2243.08" y="-113" font-family="Helvetica,sans-Serif" font-size="10.00">/Users/tgil/git/CoAction</text>
<text text-anchor="start" x="2243.08" y="-101" font-family="Helvetica,sans-Serif" font-size="10.00">OS/CoActionOS&#45;Applib/include</text>
<text text-anchor="middle" x="2312" y="-89" font-family="Helvetica,sans-Serif" font-size="10.00">/Timer.hpp</text>
</a>
</g>
</g>
<!-- Node25&#45;&gt;Node26 -->
<g id="edge28" class="edge"><title>Node25&#45;&gt;Node26</title>
<path fill="none" stroke="midnightblue" d="M2312,-154.896C2312,-145.609 2312,-135.649 2312,-127.156"/>
<polygon fill="midnightblue" stroke="midnightblue" points="2308.5,-154.981 2312,-164.981 2315.5,-154.981 2308.5,-154.981"/>
</g>
</g>
</svg>
