<?xml version="1.0" encoding="UTF-8" standalone="no"?>
<!DOCTYPE svg PUBLIC "-//W3C//DTD SVG 1.1//EN"
 "http://www.w3.org/Graphics/SVG/1.1/DTD/svg11.dtd">
<!-- Generated by graphviz version 2.34.0 (20130907.0228)
 -->
<!-- Title: /Users/tgil/git/CoActionOS/CoActionOS&#45;Applib/include/Brsp.hpp Pages: 1 -->
<svg width="612pt" height="344pt"
 viewBox="0.00 0.00 611.75 344.00" xmlns="http://www.w3.org/2000/svg" xmlns:xlink="http://www.w3.org/1999/xlink">
<g id="graph0" class="graph" transform="scale(1 1) rotate(0) translate(4 340)">
<title>/Users/tgil/git/CoActionOS/CoActionOS&#45;Applib/include/Brsp.hpp</title>
<!-- Node1 -->
<g id="node1" class="node"><title>Node1</title>
<polygon fill="#bfbfbf" stroke="black" points="259.825,-291 259.825,-335 413.672,-335 413.672,-291 259.825,-291"/>
<text text-anchor="start" x="267.825" y="-321" font-family="Helvetica,sans-Serif" font-size="10.00">/Users/tgil/git/CoAction</text>
<text text-anchor="start" x="267.825" y="-309" font-family="Helvetica,sans-Serif" font-size="10.00">OS/CoActionOS&#45;Applib/include</text>
<text text-anchor="middle" x="336.749" y="-297" font-family="Helvetica,sans-Serif" font-size="10.00">/Brsp.hpp</text>
</g>
<!-- Node2 -->
<g id="node2" class="node"><title>Node2</title>
<g id="a_node2"><a xlink:href="_uart_8hpp.html" target="_top" xlink:title="Uart.hpp">
<polygon fill="none" stroke="black" points="272.572,-233 272.572,-253 326.926,-253 326.926,-233 272.572,-233"/>
<text text-anchor="middle" x="299.749" y="-239" font-family="Helvetica,sans-Serif" font-size="10.00">Uart.hpp</text>
</a>
</g>
</g>
<!-- Node1&#45;&gt;Node2 -->
<g id="edge1" class="edge"><title>Node1&#45;&gt;Node2</title>
<path fill="none" stroke="midnightblue" d="M325.245,-290.857C320.251,-281.679 314.459,-271.036 309.659,-262.214"/>
<polygon fill="midnightblue" stroke="midnightblue" points="312.611,-260.315 304.757,-253.204 306.462,-263.661 312.611,-260.315"/>
</g>
<!-- Node14 -->
<g id="node14" class="node"><title>Node14</title>
<g id="a_node14"><a xlink:href="_string_types_8hpp_source.html" target="_top" xlink:title="StringTypes.hpp">
<polygon fill="none" stroke="black" points="435.614,-175 435.614,-195 523.884,-195 523.884,-175 435.614,-175"/>
<text text-anchor="middle" x="479.749" y="-181" font-family="Helvetica,sans-Serif" font-size="10.00">StringTypes.hpp</text>
</a>
</g>
</g>
<!-- Node1&#45;&gt;Node14 -->
<g id="edge15" class="edge"><title>Node1&#45;&gt;Node14</title>
<path fill="none" stroke="midnightblue" d="M360.684,-290.91C389.114,-265.86 435.908,-224.629 461.548,-202.037"/>
<polygon fill="midnightblue" stroke="midnightblue" points="464.186,-204.377 469.376,-195.14 459.559,-199.125 464.186,-204.377"/>
</g>
<!-- Node3 -->
<g id="node3" class="node"><title>Node3</title>
<polygon fill="none" stroke="#bfbfbf" points="190.512,-175 190.512,-195 250.985,-195 250.985,-175 190.512,-175"/>
<text text-anchor="middle" x="220.749" y="-181" font-family="Helvetica,sans-Serif" font-size="10.00">dev/uart.h</text>
</g>
<!-- Node2&#45;&gt;Node3 -->
<g id="edge2" class="edge"><title>Node2&#45;&gt;Node3</title>
<path fill="none" stroke="midnightblue" d="M286.704,-232.753C274.509,-224.109 256.09,-211.052 241.813,-200.931"/>
<polygon fill="midnightblue" stroke="midnightblue" points="243.734,-198.003 233.551,-195.075 239.685,-203.714 243.734,-198.003"/>
</g>
<!-- Node4 -->
<g id="node4" class="node"><title>Node4</title>
<g id="a_node4"><a xlink:href="_pchar_8hpp.html" target="_top" xlink:title="Pchar.hpp">
<polygon fill="none" stroke="black" points="269.229,-175 269.229,-195 330.268,-195 330.268,-175 269.229,-175"/>
<text text-anchor="middle" x="299.749" y="-181" font-family="Helvetica,sans-Serif" font-size="10.00">Pchar.hpp</text>
</a>
</g>
</g>
<!-- Node2&#45;&gt;Node4 -->
<g id="edge3" class="edge"><title>Node2&#45;&gt;Node4</title>
<path fill="none" stroke="midnightblue" d="M299.749,-232.753C299.749,-225.25 299.749,-214.424 299.749,-205.078"/>
<polygon fill="midnightblue" stroke="midnightblue" points="303.249,-205.075 299.749,-195.075 296.249,-205.075 303.249,-205.075"/>
</g>
<!-- Node5 -->
<g id="node5" class="node"><title>Node5</title>
<g id="a_node5"><a xlink:href="_periph_8hpp.html" target="_top" xlink:title="Periph.hpp">
<polygon fill="none" stroke="black" points="208.564,-117 208.564,-137 272.933,-137 272.933,-117 208.564,-117"/>
<text text-anchor="middle" x="240.749" y="-123" font-family="Helvetica,sans-Serif" font-size="10.00">Periph.hpp</text>
</a>
</g>
</g>
<!-- Node4&#45;&gt;Node5 -->
<g id="edge4" class="edge"><title>Node4&#45;&gt;Node5</title>
<path fill="none" stroke="midnightblue" d="M290.006,-174.753C281.243,-166.435 268.174,-154.031 257.7,-144.089"/>
<polygon fill="midnightblue" stroke="midnightblue" points="259.973,-141.421 250.31,-137.075 255.154,-146.498 259.973,-141.421"/>
</g>
<!-- Node6 -->
<g id="node6" class="node"><title>Node6</title>
<polygon fill="none" stroke="#bfbfbf" points="227.508,-1 227.508,-21 307.99,-21 307.99,-1 227.508,-1"/>
<text text-anchor="middle" x="267.749" y="-7" font-family="Helvetica,sans-Serif" font-size="10.00">link_protocol.h</text>
</g>
<!-- Node5&#45;&gt;Node6 -->
<g id="edge5" class="edge"><title>Node5&#45;&gt;Node6</title>
<path fill="none" stroke="midnightblue" d="M250.361,-116.829C258.632,-108.221 269.963,-94.5254 274.749,-80 280.023,-63.9903 277.29,-44.8139 273.812,-30.9127"/>
<polygon fill="midnightblue" stroke="midnightblue" points="277.109,-29.713 271.001,-21.0564 270.378,-31.6329 277.109,-29.713"/>
</g>
<!-- Node7 -->
<g id="node7" class="node"><title>Node7</title>
<polygon fill="none" stroke="#bfbfbf" points="79.4089,-1 79.4089,-21 122.089,-21 122.089,-1 79.4089,-1"/>
<text text-anchor="middle" x="100.749" y="-7" font-family="Helvetica,sans-Serif" font-size="10.00">fcntl.h</text>
</g>
<!-- Node5&#45;&gt;Node7 -->
<g id="edge6" class="edge"><title>Node5&#45;&gt;Node7</title>
<path fill="none" stroke="midnightblue" d="M208.33,-124.564C149.997,-121.226 31.0483,-110.732 5.74878,-80 -16.3679,-53.1344 33.8271,-31.737 69.3443,-20.5448"/>
<polygon fill="midnightblue" stroke="midnightblue" points="70.7827,-23.767 79.3495,-17.5332 68.7651,-17.064 70.7827,-23.767"/>
</g>
<!-- Node8 -->
<g id="node8" class="node"><title>Node8</title>
<polygon fill="none" stroke="#bfbfbf" points="386.576,-59 386.576,-79 430.921,-79 430.921,-59 386.576,-59"/>
<text text-anchor="middle" x="408.749" y="-65" font-family="Helvetica,sans-Serif" font-size="10.00">cstdlib</text>
</g>
<!-- Node5&#45;&gt;Node8 -->
<g id="edge7" class="edge"><title>Node5&#45;&gt;Node8</title>
<path fill="none" stroke="midnightblue" d="M268.115,-116.878C297.899,-106.95 345.463,-91.0952 376.901,-80.6159"/>
<polygon fill="midnightblue" stroke="midnightblue" points="378.119,-83.8995 386.499,-77.4167 375.905,-77.2587 378.119,-83.8995"/>
</g>
<!-- Node9 -->
<g id="node9" class="node"><title>Node9</title>
<polygon fill="none" stroke="#bfbfbf" points="323.022,-59 323.022,-79 368.475,-79 368.475,-59 323.022,-59"/>
<text text-anchor="middle" x="345.749" y="-65" font-family="Helvetica,sans-Serif" font-size="10.00">cstring</text>
</g>
<!-- Node5&#45;&gt;Node9 -->
<g id="edge8" class="edge"><title>Node5&#45;&gt;Node9</title>
<path fill="none" stroke="midnightblue" d="M258.087,-116.753C274.906,-107.783 300.636,-94.0601 319.876,-83.7986"/>
<polygon fill="midnightblue" stroke="midnightblue" points="321.556,-86.8694 328.733,-79.0752 318.262,-80.6929 321.556,-86.8694"/>
</g>
<!-- Node10 -->
<g id="node10" class="node"><title>Node10</title>
<polygon fill="none" stroke="#bfbfbf" points="14.5149,-59 14.5149,-79 64.9827,-79 64.9827,-59 14.5149,-59"/>
<text text-anchor="middle" x="39.7488" y="-65" font-family="Helvetica,sans-Serif" font-size="10.00">signal.h</text>
</g>
<!-- Node5&#45;&gt;Node10 -->
<g id="edge9" class="edge"><title>Node5&#45;&gt;Node10</title>
<path fill="none" stroke="midnightblue" d="M208.376,-117.261C176.671,-108.663 126.745,-95.0192 74.7204,-80.246"/>
<polygon fill="midnightblue" stroke="midnightblue" points="75.5619,-76.8465 64.9857,-77.4753 73.6456,-83.5791 75.5619,-76.8465"/>
</g>
<!-- Node11 -->
<g id="node11" class="node"><title>Node11</title>
<polygon fill="none" stroke="#bfbfbf" points="83.0173,-59 83.0173,-79 128.48,-79 128.48,-59 83.0173,-59"/>
<text text-anchor="middle" x="105.749" y="-65" font-family="Helvetica,sans-Serif" font-size="10.00">caos.h</text>
</g>
<!-- Node5&#45;&gt;Node11 -->
<g id="edge10" class="edge"><title>Node5&#45;&gt;Node11</title>
<path fill="none" stroke="midnightblue" d="M218.758,-116.878C196.596,-107.685 162.182,-93.4095 137.151,-83.0263"/>
<polygon fill="midnightblue" stroke="midnightblue" points="138.308,-79.7168 127.73,-79.1181 135.626,-86.1826 138.308,-79.7168"/>
</g>
<!-- Node12 -->
<g id="node12" class="node"><title>Node12</title>
<g id="a_node12"><a xlink:href="_aio_8hpp.html" target="_top" xlink:title="Aio.hpp">
<polygon fill="none" stroke="red" points="146.791,-59 146.791,-79 196.707,-79 196.707,-59 146.791,-59"/>
<text text-anchor="middle" x="171.749" y="-65" font-family="Helvetica,sans-Serif" font-size="10.00">Aio.hpp</text>
</a>
</g>
</g>
<!-- Node5&#45;&gt;Node12 -->
<g id="edge11" class="edge"><title>Node5&#45;&gt;Node12</title>
<path fill="none" stroke="midnightblue" d="M229.355,-116.753C218.905,-108.272 203.221,-95.543 190.856,-85.5073"/>
<polygon fill="midnightblue" stroke="midnightblue" points="192.901,-82.6593 182.931,-79.0752 188.49,-88.0945 192.901,-82.6593"/>
</g>
<!-- Node13 -->
<g id="node13" class="node"><title>Node13</title>
<g id="a_node13"><a xlink:href="_phy_8hpp.html" target="_top" xlink:title="Phy.hpp">
<polygon fill="none" stroke="black" points="214.77,-59 214.77,-79 266.727,-79 266.727,-59 214.77,-59"/>
<text text-anchor="middle" x="240.749" y="-65" font-family="Helvetica,sans-Serif" font-size="10.00">Phy.hpp</text>
</a>
</g>
</g>
<!-- Node5&#45;&gt;Node13 -->
<g id="edge12" class="edge"><title>Node5&#45;&gt;Node13</title>
<path fill="none" stroke="midnightblue" d="M240.749,-116.753C240.749,-109.25 240.749,-98.4238 240.749,-89.0781"/>
<polygon fill="midnightblue" stroke="midnightblue" points="244.249,-89.0752 240.749,-79.0752 237.249,-89.0752 244.249,-89.0752"/>
</g>
<!-- Node13&#45;&gt;Node6 -->
<g id="edge13" class="edge"><title>Node13&#45;&gt;Node6</title>
<path fill="none" stroke="midnightblue" d="M245.207,-58.7527C248.942,-51.0058 254.387,-39.7142 258.989,-30.1688"/>
<polygon fill="midnightblue" stroke="midnightblue" points="262.183,-31.603 263.373,-21.0752 255.878,-28.5628 262.183,-31.603"/>
</g>
<!-- Node13&#45;&gt;Node7 -->
<g id="edge14" class="edge"><title>Node13&#45;&gt;Node7</title>
<path fill="none" stroke="midnightblue" d="M217.944,-58.878C194.447,-49.4792 157.67,-34.7685 131.588,-24.3357"/>
<polygon fill="midnightblue" stroke="midnightblue" points="132.75,-21.0309 122.165,-20.5666 130.15,-27.5303 132.75,-21.0309"/>
</g>
<!-- Node14&#45;&gt;Node8 -->
<g id="edge16" class="edge"><title>Node14&#45;&gt;Node8</title>
<path fill="none" stroke="midnightblue" d="M454.997,-174.902C438.993,-167.584 419.406,-155.591 409.749,-138 401.589,-123.137 402.269,-103.55 404.44,-89.2171"/>
<polygon fill="midnightblue" stroke="midnightblue" points="407.945,-89.5144 406.359,-79.039 401.066,-88.2172 407.945,-89.5144"/>
</g>
<!-- Node15 -->
<g id="node15" class="node"><title>Node15</title>
<polygon fill="none" stroke="#bfbfbf" points="555.628,-1 555.628,-21 603.869,-21 603.869,-1 555.628,-1"/>
<text text-anchor="middle" x="579.749" y="-7" font-family="Helvetica,sans-Serif" font-size="10.00">stdint.h</text>
</g>
<!-- Node14&#45;&gt;Node15 -->
<g id="edge17" class="edge"><title>Node14&#45;&gt;Node15</title>
<path fill="none" stroke="midnightblue" d="M496.574,-174.902C523.115,-159.463 573.738,-125.342 593.749,-80 600.798,-64.028 595.388,-44.3613 589.362,-30.2938"/>
<polygon fill="midnightblue" stroke="midnightblue" points="592.483,-28.707 585.034,-21.173 586.159,-31.7079 592.483,-28.707"/>
</g>
<!-- Node16 -->
<g id="node16" class="node"><title>Node16</title>
<polygon fill="none" stroke="#bfbfbf" points="448.687,-59 448.687,-79 490.81,-79 490.81,-59 448.687,-59"/>
<text text-anchor="middle" x="469.749" y="-65" font-family="Helvetica,sans-Serif" font-size="10.00">cstdio</text>
</g>
<!-- Node14&#45;&gt;Node16 -->
<g id="edge18" class="edge"><title>Node14&#45;&gt;Node16</title>
<path fill="none" stroke="midnightblue" d="M482.895,-174.699C486.911,-161.545 492.874,-136.792 488.749,-116 486.86,-106.48 482.971,-96.4578 479.2,-88.2073"/>
<polygon fill="midnightblue" stroke="midnightblue" points="482.327,-86.6335 474.802,-79.1749 476.033,-89.698 482.327,-86.6335"/>
</g>
<!-- Node17 -->
<g id="node17" class="node"><title>Node17</title>
<g id="a_node17"><a xlink:href="_string_util_8hpp_source.html" target="_top" xlink:title="StringUtil.hpp">
<polygon fill="none" stroke="black" points="508.734,-59 508.734,-79 584.763,-79 584.763,-59 508.734,-59"/>
<text text-anchor="middle" x="546.749" y="-65" font-family="Helvetica,sans-Serif" font-size="10.00">StringUtil.hpp</text>
</a>
</g>
</g>
<!-- Node14&#45;&gt;Node17 -->
<g id="edge19" class="edge"><title>Node14&#45;&gt;Node17</title>
<path fill="none" stroke="midnightblue" d="M485.232,-174.671C496.378,-155.705 521.846,-112.371 536.275,-87.8218"/>
<polygon fill="midnightblue" stroke="midnightblue" points="539.328,-89.5341 541.377,-79.1394 533.293,-85.9873 539.328,-89.5341"/>
</g>
<!-- Node18 -->
<g id="node18" class="node"><title>Node18</title>
<g id="a_node18"><a xlink:href="_string_8hpp.html" target="_top" xlink:title="String.hpp">
<polygon fill="none" stroke="black" points="418.956,-117 418.956,-137 480.542,-137 480.542,-117 418.956,-117"/>
<text text-anchor="middle" x="449.749" y="-123" font-family="Helvetica,sans-Serif" font-size="10.00">String.hpp</text>
</a>
</g>
</g>
<!-- Node14&#45;&gt;Node18 -->
<g id="edge21" class="edge"><title>Node14&#45;&gt;Node18</title>
<path fill="none" stroke="midnightblue" d="M474.795,-174.753C470.645,-167.006 464.596,-155.714 459.482,-146.169"/>
<polygon fill="midnightblue" stroke="midnightblue" points="462.418,-144.237 454.61,-137.075 456.248,-147.543 462.418,-144.237"/>
</g>
<!-- Node17&#45;&gt;Node15 -->
<g id="edge20" class="edge"><title>Node17&#45;&gt;Node15</title>
<path fill="none" stroke="midnightblue" d="M552.198,-58.7527C556.811,-50.9242 563.558,-39.4761 569.219,-29.8679"/>
<polygon fill="midnightblue" stroke="midnightblue" points="572.339,-31.4675 574.401,-21.0752 566.309,-27.9136 572.339,-31.4675"/>
</g>
<!-- Node18&#45;&gt;Node8 -->
<g id="edge23" class="edge"><title>Node18&#45;&gt;Node8</title>
<path fill="none" stroke="midnightblue" d="M442.978,-116.753C437.127,-108.761 428.515,-96.9975 421.393,-87.2698"/>
<polygon fill="midnightblue" stroke="midnightblue" points="424.125,-85.0762 415.393,-79.0752 418.477,-89.2114 424.125,-85.0762"/>
</g>
<!-- Node18&#45;&gt;Node9 -->
<g id="edge22" class="edge"><title>Node18&#45;&gt;Node9</title>
<path fill="none" stroke="midnightblue" d="M432.575,-116.753C415.992,-107.823 390.663,-94.1848 371.635,-83.9388"/>
<polygon fill="midnightblue" stroke="midnightblue" points="373.067,-80.7346 362.603,-79.0752 369.748,-86.8979 373.067,-80.7346"/>
</g>
<!-- Node18&#45;&gt;Node16 -->
<g id="edge24" class="edge"><title>Node18&#45;&gt;Node16</title>
<path fill="none" stroke="midnightblue" d="M453.051,-116.753C455.76,-109.169 459.682,-98.1881 463.044,-88.7739"/>
<polygon fill="midnightblue" stroke="midnightblue" points="466.44,-89.6698 466.508,-79.0752 459.848,-87.3154 466.44,-89.6698"/>
</g>
<!-- Node18&#45;&gt;Node17 -->
<g id="edge25" class="edge"><title>Node18&#45;&gt;Node17</title>
<path fill="none" stroke="midnightblue" d="M465.766,-116.753C481.163,-107.864 504.642,-94.3092 522.361,-84.0793"/>
<polygon fill="midnightblue" stroke="midnightblue" points="524.119,-87.1062 531.029,-79.0752 520.619,-81.0439 524.119,-87.1062"/>
</g>
</g>
</svg>
