<?xml version="1.0" encoding="UTF-8" standalone="no"?>
<!DOCTYPE svg PUBLIC "-//W3C//DTD SVG 1.1//EN"
 "http://www.w3.org/Graphics/SVG/1.1/DTD/svg11.dtd">
<!-- Generated by graphviz version 2.34.0 (20130907.0228)
 -->
<!-- Title: /Users/tgil/git/CoActionOS/CoActionOS&#45;Applib/include/Dbug.hpp Pages: 1 -->
<svg width="488pt" height="286pt"
 viewBox="0.00 0.00 488.00 286.00" xmlns="http://www.w3.org/2000/svg" xmlns:xlink="http://www.w3.org/1999/xlink">
<g id="graph0" class="graph" transform="scale(1 1) rotate(0) translate(4 282)">
<title>/Users/tgil/git/CoActionOS/CoActionOS&#45;Applib/include/Dbug.hpp</title>
<!-- Node1 -->
<g id="node1" class="node"><title>Node1</title>
<polygon fill="#bfbfbf" stroke="black" points="115.077,-233 115.077,-277 268.923,-277 268.923,-233 115.077,-233"/>
<text text-anchor="start" x="123.077" y="-263" font-family="Helvetica,sans-Serif" font-size="10.00">/Users/tgil/git/CoAction</text>
<text text-anchor="start" x="123.077" y="-251" font-family="Helvetica,sans-Serif" font-size="10.00">OS/CoActionOS&#45;Applib/include</text>
<text text-anchor="middle" x="192" y="-239" font-family="Helvetica,sans-Serif" font-size="10.00">/Dbug.hpp</text>
</g>
<!-- Node2 -->
<g id="node2" class="node"><title>Node2</title>
<polygon fill="none" stroke="#bfbfbf" points="131.879,-175 131.879,-195 180.121,-195 180.121,-175 131.879,-175"/>
<text text-anchor="middle" x="156" y="-181" font-family="Helvetica,sans-Serif" font-size="10.00">stdint.h</text>
</g>
<!-- Node1&#45;&gt;Node2 -->
<g id="edge1" class="edge"><title>Node1&#45;&gt;Node2</title>
<path fill="none" stroke="midnightblue" d="M180.807,-232.857C175.948,-223.679 170.313,-213.036 165.643,-204.214"/>
<polygon fill="midnightblue" stroke="midnightblue" points="168.645,-202.404 160.873,-195.204 162.458,-205.679 168.645,-202.404"/>
</g>
<!-- Node3 -->
<g id="node3" class="node"><title>Node3</title>
<g id="a_node3"><a xlink:href="_pchar_8hpp.html" target="_top" xlink:title="Pchar.hpp">
<polygon fill="none" stroke="black" points="198.48,-175 198.48,-195 259.52,-195 259.52,-175 198.48,-175"/>
<text text-anchor="middle" x="229" y="-181" font-family="Helvetica,sans-Serif" font-size="10.00">Pchar.hpp</text>
</a>
</g>
</g>
<!-- Node1&#45;&gt;Node3 -->
<g id="edge2" class="edge"><title>Node1&#45;&gt;Node3</title>
<path fill="none" stroke="midnightblue" d="M203.504,-232.857C208.498,-223.679 214.289,-213.036 219.089,-204.214"/>
<polygon fill="midnightblue" stroke="midnightblue" points="222.287,-205.661 223.992,-195.204 216.138,-202.315 222.287,-205.661"/>
</g>
<!-- Node4 -->
<g id="node4" class="node"><title>Node4</title>
<g id="a_node4"><a xlink:href="_periph_8hpp.html" target="_top" xlink:title="Periph.hpp">
<polygon fill="none" stroke="black" points="196.815,-117 196.815,-137 261.185,-137 261.185,-117 196.815,-117"/>
<text text-anchor="middle" x="229" y="-123" font-family="Helvetica,sans-Serif" font-size="10.00">Periph.hpp</text>
</a>
</g>
</g>
<!-- Node3&#45;&gt;Node4 -->
<g id="edge3" class="edge"><title>Node3&#45;&gt;Node4</title>
<path fill="none" stroke="midnightblue" d="M229,-174.753C229,-167.25 229,-156.424 229,-147.078"/>
<polygon fill="midnightblue" stroke="midnightblue" points="232.5,-147.075 229,-137.075 225.5,-147.075 232.5,-147.075"/>
</g>
<!-- Node5 -->
<g id="node5" class="node"><title>Node5</title>
<polygon fill="none" stroke="#bfbfbf" points="-0.241211,-1 -0.241211,-21 80.2412,-21 80.2412,-1 -0.241211,-1"/>
<text text-anchor="middle" x="40" y="-7" font-family="Helvetica,sans-Serif" font-size="10.00">link_protocol.h</text>
</g>
<!-- Node4&#45;&gt;Node5 -->
<g id="edge4" class="edge"><title>Node4&#45;&gt;Node5</title>
<path fill="none" stroke="midnightblue" d="M196.605,-123.221C146.08,-118.14 52.192,-105.45 32,-80 20.9547,-66.0784 25.5382,-45.2263 31.2635,-30.286"/>
<polygon fill="midnightblue" stroke="midnightblue" points="34.5019,-31.6147 35.2315,-21.045 28.0698,-28.8528 34.5019,-31.6147"/>
</g>
<!-- Node6 -->
<g id="node6" class="node"><title>Node6</title>
<polygon fill="none" stroke="#bfbfbf" points="220.66,-1 220.66,-21 263.34,-21 263.34,-1 220.66,-1"/>
<text text-anchor="middle" x="242" y="-7" font-family="Helvetica,sans-Serif" font-size="10.00">fcntl.h</text>
</g>
<!-- Node4&#45;&gt;Node6 -->
<g id="edge5" class="edge"><title>Node4&#45;&gt;Node6</title>
<path fill="none" stroke="midnightblue" d="M261.384,-124.58C292.2,-121.3 337.027,-111.083 359,-80 383.368,-45.5283 315.888,-25.9471 273.49,-17.3358"/>
<polygon fill="midnightblue" stroke="midnightblue" points="274.061,-13.8816 263.58,-15.4273 272.737,-20.7553 274.061,-13.8816"/>
</g>
<!-- Node7 -->
<g id="node7" class="node"><title>Node7</title>
<polygon fill="none" stroke="#bfbfbf" points="110.828,-59 110.828,-79 155.172,-79 155.172,-59 110.828,-59"/>
<text text-anchor="middle" x="133" y="-65" font-family="Helvetica,sans-Serif" font-size="10.00">cstdlib</text>
</g>
<!-- Node4&#45;&gt;Node7 -->
<g id="edge6" class="edge"><title>Node4&#45;&gt;Node7</title>
<path fill="none" stroke="midnightblue" d="M213.148,-116.753C198.05,-107.946 175.099,-94.5575 157.62,-84.3617"/>
<polygon fill="midnightblue" stroke="midnightblue" points="158.959,-81.0907 148.557,-79.0752 155.432,-87.1372 158.959,-81.0907"/>
</g>
<!-- Node8 -->
<g id="node8" class="node"><title>Node8</title>
<polygon fill="none" stroke="#bfbfbf" points="173.273,-59 173.273,-79 218.727,-79 218.727,-59 173.273,-59"/>
<text text-anchor="middle" x="196" y="-65" font-family="Helvetica,sans-Serif" font-size="10.00">cstring</text>
</g>
<!-- Node4&#45;&gt;Node8 -->
<g id="edge7" class="edge"><title>Node4&#45;&gt;Node8</title>
<path fill="none" stroke="midnightblue" d="M223.551,-116.753C218.937,-108.924 212.191,-97.4761 206.529,-87.8679"/>
<polygon fill="midnightblue" stroke="midnightblue" points="209.44,-85.9136 201.348,-79.0752 203.409,-89.4675 209.44,-85.9136"/>
</g>
<!-- Node9 -->
<g id="node9" class="node"><title>Node9</title>
<polygon fill="none" stroke="#bfbfbf" points="236.766,-59 236.766,-79 287.234,-79 287.234,-59 236.766,-59"/>
<text text-anchor="middle" x="262" y="-65" font-family="Helvetica,sans-Serif" font-size="10.00">signal.h</text>
</g>
<!-- Node4&#45;&gt;Node9 -->
<g id="edge8" class="edge"><title>Node4&#45;&gt;Node9</title>
<path fill="none" stroke="midnightblue" d="M234.449,-116.753C239.063,-108.924 245.809,-97.4761 251.471,-87.8679"/>
<polygon fill="midnightblue" stroke="midnightblue" points="254.591,-89.4675 256.652,-79.0752 248.56,-85.9136 254.591,-89.4675"/>
</g>
<!-- Node10 -->
<g id="node10" class="node"><title>Node10</title>
<polygon fill="none" stroke="#bfbfbf" points="305.269,-59 305.269,-79 350.731,-79 350.731,-59 305.269,-59"/>
<text text-anchor="middle" x="328" y="-65" font-family="Helvetica,sans-Serif" font-size="10.00">caos.h</text>
</g>
<!-- Node4&#45;&gt;Node10 -->
<g id="edge9" class="edge"><title>Node4&#45;&gt;Node10</title>
<path fill="none" stroke="midnightblue" d="M245.348,-116.753C261.062,-107.864 285.025,-94.3092 303.11,-84.0793"/>
<polygon fill="midnightblue" stroke="midnightblue" points="304.976,-87.0451 311.956,-79.0752 301.529,-80.9523 304.976,-87.0451"/>
</g>
<!-- Node11 -->
<g id="node11" class="node"><title>Node11</title>
<g id="a_node11"><a xlink:href="_aio_8hpp.html" target="_top" xlink:title="Aio.hpp">
<polygon fill="none" stroke="black" points="407.042,-59 407.042,-79 456.958,-79 456.958,-59 407.042,-59"/>
<text text-anchor="middle" x="432" y="-65" font-family="Helvetica,sans-Serif" font-size="10.00">Aio.hpp</text>
</a>
</g>
</g>
<!-- Node4&#45;&gt;Node11 -->
<g id="edge10" class="edge"><title>Node4&#45;&gt;Node11</title>
<path fill="none" stroke="midnightblue" d="M261.615,-117.003C298.598,-106.8 358.682,-90.2255 396.73,-79.7297"/>
<polygon fill="midnightblue" stroke="midnightblue" points="398.13,-82.9742 406.839,-76.9409 396.269,-76.2263 398.13,-82.9742"/>
</g>
<!-- Node14 -->
<g id="node14" class="node"><title>Node14</title>
<g id="a_node14"><a xlink:href="_phy_8hpp.html" target="_top" xlink:title="Phy.hpp">
<polygon fill="none" stroke="black" points="41.0215,-59 41.0215,-79 92.9785,-79 92.9785,-59 41.0215,-59"/>
<text text-anchor="middle" x="67" y="-65" font-family="Helvetica,sans-Serif" font-size="10.00">Phy.hpp</text>
</a>
</g>
</g>
<!-- Node4&#45;&gt;Node14 -->
<g id="edge13" class="edge"><title>Node4&#45;&gt;Node14</title>
<path fill="none" stroke="midnightblue" d="M202.611,-116.878C175.465,-107.494 133.002,-92.8155 102.83,-82.3857"/>
<polygon fill="midnightblue" stroke="midnightblue" points="103.704,-78.9845 93.1089,-79.0253 101.417,-85.6004 103.704,-78.9845"/>
</g>
<!-- Node12 -->
<g id="node12" class="node"><title>Node12</title>
<polygon fill="none" stroke="#bfbfbf" points="377.158,-1 377.158,-21 424.842,-21 424.842,-1 377.158,-1"/>
<text text-anchor="middle" x="401" y="-7" font-family="Helvetica,sans-Serif" font-size="10.00">errno.h</text>
</g>
<!-- Node11&#45;&gt;Node12 -->
<g id="edge11" class="edge"><title>Node11&#45;&gt;Node12</title>
<path fill="none" stroke="midnightblue" d="M426.881,-58.7527C422.547,-50.9242 416.21,-39.4761 410.891,-29.8679"/>
<polygon fill="midnightblue" stroke="midnightblue" points="413.929,-28.129 406.024,-21.0752 407.805,-31.5193 413.929,-28.129"/>
</g>
<!-- Node13 -->
<g id="node13" class="node"><title>Node13</title>
<polygon fill="none" stroke="#bfbfbf" points="443.158,-1 443.158,-21 480.842,-21 480.842,-1 443.158,-1"/>
<text text-anchor="middle" x="462" y="-7" font-family="Helvetica,sans-Serif" font-size="10.00">aio.h</text>
</g>
<!-- Node11&#45;&gt;Node13 -->
<g id="edge12" class="edge"><title>Node11&#45;&gt;Node13</title>
<path fill="none" stroke="midnightblue" d="M436.954,-58.7527C441.104,-51.0058 447.153,-39.7142 452.267,-30.1688"/>
<polygon fill="midnightblue" stroke="midnightblue" points="455.501,-31.5428 457.138,-21.0752 449.331,-28.2372 455.501,-31.5428"/>
</g>
<!-- Node14&#45;&gt;Node5 -->
<g id="edge14" class="edge"><title>Node14&#45;&gt;Node5</title>
<path fill="none" stroke="midnightblue" d="M62.5415,-58.7527C58.8063,-51.0058 53.3622,-39.7142 48.7599,-30.1688"/>
<polygon fill="midnightblue" stroke="midnightblue" points="51.8713,-28.5628 44.3755,-21.0752 45.5659,-31.603 51.8713,-28.5628"/>
</g>
<!-- Node14&#45;&gt;Node6 -->
<g id="edge15" class="edge"><title>Node14&#45;&gt;Node6</title>
<path fill="none" stroke="midnightblue" d="M93.1993,-59.6162C124.653,-49.5511 177.344,-32.6899 210.85,-21.9679"/>
<polygon fill="midnightblue" stroke="midnightblue" points="212.131,-25.2331 220.588,-18.8518 209.997,-18.5661 212.131,-25.2331"/>
</g>
</g>
</svg>
