<?xml version="1.0" encoding="UTF-8" standalone="no"?>
<!DOCTYPE svg PUBLIC "-//W3C//DTD SVG 1.1//EN"
 "http://www.w3.org/Graphics/SVG/1.1/DTD/svg11.dtd">
<!-- Generated by graphviz version 2.34.0 (20130907.0228)
 -->
<!-- Title: /Users/tgil/git/CoActionOS/CoActionOS&#45;Applib/include/ExpLcdDevice.hpp Pages: 1 -->
<svg width="442pt" height="344pt"
 viewBox="0.00 0.00 442.00 344.00" xmlns="http://www.w3.org/2000/svg" xmlns:xlink="http://www.w3.org/1999/xlink">
<g id="graph0" class="graph" transform="scale(1 1) rotate(0) translate(4 340)">
<title>/Users/tgil/git/CoActionOS/CoActionOS&#45;Applib/include/ExpLcdDevice.hpp</title>
<!-- Node1 -->
<g id="node1" class="node"><title>Node1</title>
<polygon fill="#bfbfbf" stroke="black" points="33.0767,-291 33.0767,-335 186.923,-335 186.923,-291 33.0767,-291"/>
<text text-anchor="start" x="41.0767" y="-321" font-family="Helvetica,sans-Serif" font-size="10.00">/Users/tgil/git/CoAction</text>
<text text-anchor="start" x="41.0767" y="-309" font-family="Helvetica,sans-Serif" font-size="10.00">OS/CoActionOS&#45;Applib/include</text>
<text text-anchor="middle" x="110" y="-297" font-family="Helvetica,sans-Serif" font-size="10.00">/ExpLcdDevice.hpp</text>
</g>
<!-- Node2 -->
<g id="node2" class="node"><title>Node2</title>
<g id="a_node2"><a xlink:href="coactionhero_8h.html" target="_top" target="_top" xlink:title="coactionhero.h">
<polygon fill="none" stroke="black" points="14.1997,-233 14.1997,-253 95.8003,-253 95.8003,-233 14.1997,-233"/>
<text text-anchor="middle" x="55" y="-239" font-family="Helvetica,sans-Serif" font-size="10.00">coactionhero.h</text>
</a>
</g>
</g>
<!-- Node1&#45;&gt;Node2 -->
<g id="edge1" class="edge"><title>Node1&#45;&gt;Node2</title>
<path fill="none" stroke="midnightblue" d="M92.8991,-290.857C85.1566,-281.284 76.1242,-270.117 68.8197,-261.086"/>
<polygon fill="midnightblue" stroke="midnightblue" points="71.4544,-258.778 62.4444,-253.204 66.0118,-263.18 71.4544,-258.778"/>
</g>
<!-- Node4 -->
<g id="node4" class="node"><title>Node4</title>
<g id="a_node4"><a xlink:href="_nhdc12832_8hpp_source.html" target="_top" target="_top" xlink:title="Nhdc12832.hpp">
<polygon fill="none" stroke="black" points="121.692,-233 121.692,-253 208.308,-253 208.308,-233 121.692,-233"/>
<text text-anchor="middle" x="165" y="-239" font-family="Helvetica,sans-Serif" font-size="10.00">Nhdc12832.hpp</text>
</a>
</g>
</g>
<!-- Node1&#45;&gt;Node4 -->
<g id="edge3" class="edge"><title>Node1&#45;&gt;Node4</title>
<path fill="none" stroke="midnightblue" d="M127.101,-290.857C134.843,-281.284 143.876,-270.117 151.18,-261.086"/>
<polygon fill="midnightblue" stroke="midnightblue" points="153.988,-263.18 157.556,-253.204 148.546,-258.778 153.988,-263.18"/>
</g>
<!-- Node3 -->
<g id="node3" class="node"><title>Node3</title>
<polygon fill="none" stroke="#bfbfbf" points="17.5469,-175 17.5469,-195 62.4531,-195 62.4531,-175 17.5469,-175"/>
<text text-anchor="middle" x="40" y="-181" font-family="Helvetica,sans-Serif" font-size="10.00">hwpl.h</text>
</g>
<!-- Node2&#45;&gt;Node3 -->
<g id="edge2" class="edge"><title>Node2&#45;&gt;Node3</title>
<path fill="none" stroke="midnightblue" d="M52.5231,-232.753C50.4917,-225.169 47.5504,-214.188 45.0287,-204.774"/>
<polygon fill="midnightblue" stroke="midnightblue" points="48.3991,-203.829 42.4309,-195.075 41.6375,-205.64 48.3991,-203.829"/>
</g>
<!-- Node5 -->
<g id="node5" class="node"><title>Node5</title>
<g id="a_node5"><a xlink:href="_pio_8hpp.html" target="_top" target="_top" xlink:title="Pio.hpp">
<polygon fill="none" stroke="black" points="80.042,-175 80.042,-195 129.958,-195 129.958,-175 80.042,-175"/>
<text text-anchor="middle" x="105" y="-181" font-family="Helvetica,sans-Serif" font-size="10.00">Pio.hpp</text>
</a>
</g>
</g>
<!-- Node4&#45;&gt;Node5 -->
<g id="edge4" class="edge"><title>Node4&#45;&gt;Node5</title>
<path fill="none" stroke="midnightblue" d="M155.092,-232.753C146.18,-224.435 132.89,-212.031 122.238,-202.089"/>
<polygon fill="midnightblue" stroke="midnightblue" points="124.422,-199.34 114.723,-195.075 119.646,-204.457 124.422,-199.34"/>
</g>
<!-- Node9 -->
<g id="node9" class="node"><title>Node9</title>
<g id="a_node9"><a xlink:href="_spi_8hpp.html" target="_top" target="_top" xlink:title="Spi.hpp">
<polygon fill="none" stroke="black" points="148.042,-175 148.042,-195 197.958,-195 197.958,-175 148.042,-175"/>
<text text-anchor="middle" x="173" y="-181" font-family="Helvetica,sans-Serif" font-size="10.00">Spi.hpp</text>
</a>
</g>
</g>
<!-- Node4&#45;&gt;Node9 -->
<g id="edge8" class="edge"><title>Node4&#45;&gt;Node9</title>
<path fill="none" stroke="midnightblue" d="M166.321,-232.753C167.393,-225.25 168.939,-214.424 170.275,-205.078"/>
<polygon fill="midnightblue" stroke="midnightblue" points="173.754,-205.47 171.704,-195.075 166.824,-204.48 173.754,-205.47"/>
</g>
<!-- Node11 -->
<g id="node11" class="node"><title>Node11</title>
<g id="a_node11"><a xlink:href="_m_lcd_8hpp_source.html" target="_top" target="_top" xlink:title="MLcd.hpp">
<polygon fill="none" stroke="black" points="245.042,-175 245.042,-195 304.958,-195 304.958,-175 245.042,-175"/>
<text text-anchor="middle" x="275" y="-181" font-family="Helvetica,sans-Serif" font-size="10.00">MLcd.hpp</text>
</a>
</g>
</g>
<!-- Node4&#45;&gt;Node11 -->
<g id="edge11" class="edge"><title>Node4&#45;&gt;Node11</title>
<path fill="none" stroke="midnightblue" d="M183.164,-232.753C200.864,-223.742 227.984,-209.935 248.17,-199.659"/>
<polygon fill="midnightblue" stroke="midnightblue" points="249.85,-202.731 257.174,-195.075 246.674,-196.493 249.85,-202.731"/>
</g>
<!-- Node6 -->
<g id="node6" class="node"><title>Node6</title>
<polygon fill="none" stroke="#bfbfbf" points="-0.292969,-117 -0.292969,-137 56.293,-137 56.293,-117 -0.292969,-117"/>
<text text-anchor="middle" x="28" y="-123" font-family="Helvetica,sans-Serif" font-size="10.00">dev/pio.h</text>
</g>
<!-- Node5&#45;&gt;Node6 -->
<g id="edge5" class="edge"><title>Node5&#45;&gt;Node6</title>
<path fill="none" stroke="midnightblue" d="M92.285,-174.753C80.5117,-166.19 62.7844,-153.298 48.9256,-143.219"/>
<polygon fill="midnightblue" stroke="midnightblue" points="50.6244,-140.126 40.4784,-137.075 46.5072,-145.788 50.6244,-140.126"/>
</g>
<!-- Node7 -->
<g id="node7" class="node"><title>Node7</title>
<g id="a_node7"><a xlink:href="_pchar_8hpp.html" target="_top" target="_top" xlink:title="Pchar.hpp">
<polygon fill="none" stroke="black" points="74.4805,-117 74.4805,-137 135.52,-137 135.52,-117 74.4805,-117"/>
<text text-anchor="middle" x="105" y="-123" font-family="Helvetica,sans-Serif" font-size="10.00">Pchar.hpp</text>
</a>
</g>
</g>
<!-- Node5&#45;&gt;Node7 -->
<g id="edge6" class="edge"><title>Node5&#45;&gt;Node7</title>
<path fill="none" stroke="midnightblue" d="M105,-174.753C105,-167.25 105,-156.424 105,-147.078"/>
<polygon fill="midnightblue" stroke="midnightblue" points="108.5,-147.075 105,-137.075 101.5,-147.075 108.5,-147.075"/>
</g>
<!-- Node8 -->
<g id="node8" class="node"><title>Node8</title>
<g id="a_node8"><a xlink:href="_periph_8hpp.html" target="_top" target="_top" xlink:title="Periph.hpp">
<polygon fill="none" stroke="red" points="72.8154,-59 72.8154,-79 137.185,-79 137.185,-59 72.8154,-59"/>
<text text-anchor="middle" x="105" y="-65" font-family="Helvetica,sans-Serif" font-size="10.00">Periph.hpp</text>
</a>
</g>
</g>
<!-- Node7&#45;&gt;Node8 -->
<g id="edge7" class="edge"><title>Node7&#45;&gt;Node8</title>
<path fill="none" stroke="midnightblue" d="M105,-116.753C105,-109.25 105,-98.4238 105,-89.0781"/>
<polygon fill="midnightblue" stroke="midnightblue" points="108.5,-89.0752 105,-79.0752 101.5,-89.0752 108.5,-89.0752"/>
</g>
<!-- Node9&#45;&gt;Node7 -->
<g id="edge10" class="edge"><title>Node9&#45;&gt;Node7</title>
<path fill="none" stroke="midnightblue" d="M161.771,-174.753C151.473,-166.272 136.016,-153.543 123.83,-143.507"/>
<polygon fill="midnightblue" stroke="midnightblue" points="125.964,-140.731 116.02,-137.075 121.514,-146.134 125.964,-140.731"/>
</g>
<!-- Node10 -->
<g id="node10" class="node"><title>Node10</title>
<polygon fill="none" stroke="#bfbfbf" points="153.988,-117 153.988,-137 210.012,-137 210.012,-117 153.988,-117"/>
<text text-anchor="middle" x="182" y="-123" font-family="Helvetica,sans-Serif" font-size="10.00">dev/spi.h</text>
</g>
<!-- Node9&#45;&gt;Node10 -->
<g id="edge9" class="edge"><title>Node9&#45;&gt;Node10</title>
<path fill="none" stroke="midnightblue" d="M174.486,-174.753C175.692,-167.25 177.432,-156.424 178.934,-147.078"/>
<polygon fill="midnightblue" stroke="midnightblue" points="182.41,-147.504 180.541,-137.075 175.499,-146.393 182.41,-147.504"/>
</g>
<!-- Node12 -->
<g id="node12" class="node"><title>Node12</title>
<polygon fill="none" stroke="#bfbfbf" points="279.879,-1 279.879,-21 328.121,-21 328.121,-1 279.879,-1"/>
<text text-anchor="middle" x="304" y="-7" font-family="Helvetica,sans-Serif" font-size="10.00">stdint.h</text>
</g>
<!-- Node11&#45;&gt;Node12 -->
<g id="edge12" class="edge"><title>Node11&#45;&gt;Node12</title>
<path fill="none" stroke="midnightblue" d="M270.48,-174.721C260.698,-153.268 239.783,-98.9423 257,-58 262.135,-45.7897 272.268,-35.1991 281.815,-27.2678"/>
<polygon fill="midnightblue" stroke="midnightblue" points="284.142,-29.8933 289.914,-21.0087 279.861,-24.3547 284.142,-29.8933"/>
</g>
<!-- Node13 -->
<g id="node13" class="node"><title>Node13</title>
<g id="a_node13"><a xlink:href="_font8_8hpp_source.html" target="_top" target="_top" xlink:title="Font8.hpp">
<polygon fill="none" stroke="black" points="273.483,-117 273.483,-137 334.517,-137 334.517,-117 273.483,-117"/>
<text text-anchor="middle" x="304" y="-123" font-family="Helvetica,sans-Serif" font-size="10.00">Font8.hpp</text>
</a>
</g>
</g>
<!-- Node11&#45;&gt;Node13 -->
<g id="edge13" class="edge"><title>Node11&#45;&gt;Node13</title>
<path fill="none" stroke="midnightblue" d="M279.789,-174.753C283.801,-167.006 289.648,-155.714 294.591,-146.169"/>
<polygon fill="midnightblue" stroke="midnightblue" points="297.81,-147.565 299.3,-137.075 291.594,-144.346 297.81,-147.565"/>
</g>
<!-- Node15 -->
<g id="node15" class="node"><title>Node15</title>
<g id="a_node15"><a xlink:href="_m_bitmap_8hpp_source.html" target="_top" target="_top" xlink:title="MBitmap.hpp">
<polygon fill="none" stroke="red" points="359.542,-59 359.542,-79 434.458,-79 434.458,-59 359.542,-59"/>
<text text-anchor="middle" x="397" y="-65" font-family="Helvetica,sans-Serif" font-size="10.00">MBitmap.hpp</text>
</a>
</g>
</g>
<!-- Node11&#45;&gt;Node15 -->
<g id="edge18" class="edge"><title>Node11&#45;&gt;Node15</title>
<path fill="none" stroke="midnightblue" d="M291.397,-174.85C305.838,-166.356 327.002,-152.82 343,-138 359.511,-122.705 375.13,-102.122 385.282,-87.621"/>
<polygon fill="midnightblue" stroke="midnightblue" points="388.362,-89.317 391.118,-79.0868 382.584,-85.3656 388.362,-89.317"/>
</g>
<!-- Node14 -->
<g id="node14" class="node"><title>Node14</title>
<g id="a_node14"><a xlink:href="_font8_util_8hpp_source.html" target="_top" target="_top" xlink:title="Font8Util.hpp">
<polygon fill="none" stroke="black" points="266.261,-59 266.261,-79 341.739,-79 341.739,-59 266.261,-59"/>
<text text-anchor="middle" x="304" y="-65" font-family="Helvetica,sans-Serif" font-size="10.00">Font8Util.hpp</text>
</a>
</g>
</g>
<!-- Node13&#45;&gt;Node14 -->
<g id="edge14" class="edge"><title>Node13&#45;&gt;Node14</title>
<path fill="none" stroke="midnightblue" d="M304,-116.753C304,-109.25 304,-98.4238 304,-89.0781"/>
<polygon fill="midnightblue" stroke="midnightblue" points="307.5,-89.0752 304,-79.0752 300.5,-89.0752 307.5,-89.0752"/>
</g>
<!-- Node13&#45;&gt;Node15 -->
<g id="edge16" class="edge"><title>Node13&#45;&gt;Node15</title>
<path fill="none" stroke="midnightblue" d="M319.357,-116.753C333.983,-107.946 356.217,-94.5575 373.149,-84.3617"/>
<polygon fill="midnightblue" stroke="midnightblue" points="375.167,-87.2321 381.929,-79.0752 371.556,-81.2354 375.167,-87.2321"/>
</g>
<!-- Node14&#45;&gt;Node12 -->
<g id="edge15" class="edge"><title>Node14&#45;&gt;Node12</title>
<path fill="none" stroke="midnightblue" d="M304,-58.7527C304,-51.2504 304,-40.4238 304,-31.0781"/>
<polygon fill="midnightblue" stroke="midnightblue" points="307.5,-31.0752 304,-21.0752 300.5,-31.0752 307.5,-31.0752"/>
</g>
<!-- Node15&#45;&gt;Node12 -->
<g id="edge17" class="edge"><title>Node15&#45;&gt;Node12</title>
<path fill="none" stroke="midnightblue" d="M381.643,-58.7527C367.017,-49.9457 344.783,-36.5575 327.851,-26.3617"/>
<polygon fill="midnightblue" stroke="midnightblue" points="329.444,-23.2354 319.071,-21.0752 325.833,-29.2321 329.444,-23.2354"/>
</g>
</g>
</svg>
