<?xml version="1.0" encoding="UTF-8" standalone="no"?>
<!DOCTYPE svg PUBLIC "-//W3C//DTD SVG 1.1//EN"
 "http://www.w3.org/Graphics/SVG/1.1/DTD/svg11.dtd">
<!-- Generated by graphviz version 2.34.0 (20130907.0228)
 -->
<!-- Title: /Users/tgil/git/CoActionOS/CoActionOS&#45;Applib/include/File.hpp Pages: 1 -->
<svg width="332pt" height="136pt"
 viewBox="0.00 0.00 332.00 136.00" xmlns="http://www.w3.org/2000/svg" xmlns:xlink="http://www.w3.org/1999/xlink">
<g id="graph0" class="graph" transform="scale(1 1) rotate(0) translate(4 132)">
<title>/Users/tgil/git/CoActionOS/CoActionOS&#45;Applib/include/File.hpp</title>
<!-- Node1 -->
<g id="node1" class="node"><title>Node1</title>
<polygon fill="#bfbfbf" stroke="black" points="85.0767,-83 85.0767,-127 238.923,-127 238.923,-83 85.0767,-83"/>
<text text-anchor="start" x="93.0767" y="-113" font-family="Helvetica,sans-Serif" font-size="10.00">/Users/tgil/git/CoAction</text>
<text text-anchor="start" x="93.0767" y="-101" font-family="Helvetica,sans-Serif" font-size="10.00">OS/CoActionOS&#45;Applib/include</text>
<text text-anchor="middle" x="162" y="-89" font-family="Helvetica,sans-Serif" font-size="10.00">/File.hpp</text>
</g>
<!-- Node2 -->
<g id="node2" class="node"><title>Node2</title>
<g id="a_node2"><a xlink:href="_m_b_font_8hpp_source.html" target="_top" xlink:title="/Users/tgil/git/CoAction\lOS/CoActionOS&#45;Applib/include\l/MBFont.hpp">
<polygon fill="none" stroke="black" points="-0.92334,-1 -0.92334,-45 152.923,-45 152.923,-1 -0.92334,-1"/>
<text text-anchor="start" x="7.07666" y="-31" font-family="Helvetica,sans-Serif" font-size="10.00">/Users/tgil/git/CoAction</text>
<text text-anchor="start" x="7.07666" y="-19" font-family="Helvetica,sans-Serif" font-size="10.00">OS/CoActionOS&#45;Applib/include</text>
<text text-anchor="middle" x="76" y="-7" font-family="Helvetica,sans-Serif" font-size="10.00">/MBFont.hpp</text>
</a>
</g>
</g>
<!-- Node1&#45;&gt;Node2 -->
<g id="edge1" class="edge"><title>Node1&#45;&gt;Node2</title>
<path fill="none" stroke="midnightblue" d="M132.072,-76.1598C121.135,-65.9862 108.952,-54.653 98.7432,-45.1564"/>
<polygon fill="midnightblue" stroke="midnightblue" points="129.699,-78.7325 139.405,-82.9809 134.466,-73.6072 129.699,-78.7325"/>
</g>
<!-- Node3 -->
<g id="node3" class="node"><title>Node3</title>
<g id="a_node3"><a xlink:href="_rle_8hpp_source.html" target="_top" xlink:title="/Users/tgil/git/CoAction\lOS/CoActionOS&#45;Applib/include\l/Rle.hpp">
<polygon fill="none" stroke="black" points="171.077,-1 171.077,-45 324.923,-45 324.923,-1 171.077,-1"/>
<text text-anchor="start" x="179.077" y="-31" font-family="Helvetica,sans-Serif" font-size="10.00">/Users/tgil/git/CoAction</text>
<text text-anchor="start" x="179.077" y="-19" font-family="Helvetica,sans-Serif" font-size="10.00">OS/CoActionOS&#45;Applib/include</text>
<text text-anchor="middle" x="248" y="-7" font-family="Helvetica,sans-Serif" font-size="10.00">/Rle.hpp</text>
</a>
</g>
</g>
<!-- Node1&#45;&gt;Node3 -->
<g id="edge2" class="edge"><title>Node1&#45;&gt;Node3</title>
<path fill="none" stroke="midnightblue" d="M191.928,-76.1598C202.865,-65.9862 215.048,-54.653 225.257,-45.1564"/>
<polygon fill="midnightblue" stroke="midnightblue" points="189.534,-73.6072 184.595,-82.9809 194.301,-78.7325 189.534,-73.6072"/>
</g>
</g>
</svg>
