<?xml version="1.0" encoding="UTF-8" standalone="no"?>
<!DOCTYPE svg PUBLIC "-//W3C//DTD SVG 1.1//EN"
 "http://www.w3.org/Graphics/SVG/1.1/DTD/svg11.dtd">
<!-- Generated by graphviz version 2.34.0 (20130907.0228)
 -->
<!-- Title: /Users/tgil/git/CoActionOS/CoActionOS/src/sys/unistd/access.c Pages: 1 -->
<svg width="566pt" height="286pt"
 viewBox="0.00 0.00 566.00 286.00" xmlns="http://www.w3.org/2000/svg" xmlns:xlink="http://www.w3.org/1999/xlink">
<g id="graph0" class="graph" transform="scale(1 1) rotate(0) translate(4 282)">
<title>/Users/tgil/git/CoActionOS/CoActionOS/src/sys/unistd/access.c</title>
<!-- Node1 -->
<g id="node1" class="node"><title>Node1</title>
<polygon fill="#bfbfbf" stroke="black" points="284.931,-233 284.931,-277 407.069,-277 407.069,-233 284.931,-233"/>
<text text-anchor="start" x="292.931" y="-263" font-family="Helvetica,sans-Serif" font-size="10.00">/Users/tgil/git/CoAction</text>
<text text-anchor="start" x="292.931" y="-251" font-family="Helvetica,sans-Serif" font-size="10.00">OS/CoActionOS/src/sys</text>
<text text-anchor="middle" x="346" y="-239" font-family="Helvetica,sans-Serif" font-size="10.00">/unistd/access.c</text>
</g>
<!-- Node2 -->
<g id="node2" class="node"><title>Node2</title>
<polygon fill="none" stroke="#bfbfbf" points="106.488,-175 106.488,-195 157.512,-195 157.512,-175 106.488,-175"/>
<text text-anchor="middle" x="132" y="-181" font-family="Helvetica,sans-Serif" font-size="10.00">unistd.h</text>
</g>
<!-- Node1&#45;&gt;Node2 -->
<g id="edge1" class="edge"><title>Node1&#45;&gt;Node2</title>
<path fill="none" stroke="midnightblue" d="M284.676,-234.514C246.673,-222.438 199.205,-207.355 167.375,-197.241"/>
<polygon fill="midnightblue" stroke="midnightblue" points="168.212,-193.834 157.622,-194.141 166.092,-200.506 168.212,-193.834"/>
</g>
<!-- Node3 -->
<g id="node3" class="node"><title>Node3</title>
<polygon fill="none" stroke="#bfbfbf" points="498.882,-59 498.882,-79 557.118,-79 557.118,-59 498.882,-59"/>
<text text-anchor="middle" x="528" y="-65" font-family="Helvetica,sans-Serif" font-size="10.00">sys/stat.h</text>
</g>
<!-- Node1&#45;&gt;Node3 -->
<g id="edge2" class="edge"><title>Node1&#45;&gt;Node3</title>
<path fill="none" stroke="midnightblue" d="M407.432,-251.258C447.457,-245.926 497.079,-231.875 524,-196 547.448,-164.753 540.142,-115.822 533.569,-89.0601"/>
<polygon fill="midnightblue" stroke="midnightblue" points="536.859,-87.8164 530.889,-79.0639 530.098,-89.6292 536.859,-87.8164"/>
</g>
<!-- Node4 -->
<g id="node4" class="node"><title>Node4</title>
<polygon fill="none" stroke="#bfbfbf" points="240.158,-175 240.158,-195 287.842,-195 287.842,-175 240.158,-175"/>
<text text-anchor="middle" x="264" y="-181" font-family="Helvetica,sans-Serif" font-size="10.00">errno.h</text>
</g>
<!-- Node1&#45;&gt;Node4 -->
<g id="edge3" class="edge"><title>Node1&#45;&gt;Node4</title>
<path fill="none" stroke="midnightblue" d="M320.504,-232.857C308.366,-222.791 294.101,-210.962 282.941,-201.707"/>
<polygon fill="midnightblue" stroke="midnightblue" points="285.031,-198.893 275.099,-195.204 280.562,-204.281 285.031,-198.893"/>
</g>
<!-- Node5 -->
<g id="node5" class="node"><title>Node5</title>
<polygon fill="none" stroke="#bfbfbf" points="306.054,-175 306.054,-195 385.946,-195 385.946,-175 306.054,-175"/>
<text text-anchor="middle" x="346" y="-181" font-family="Helvetica,sans-Serif" font-size="10.00">sys/syslimits.h</text>
</g>
<!-- Node1&#45;&gt;Node5 -->
<g id="edge4" class="edge"><title>Node1&#45;&gt;Node5</title>
<path fill="none" stroke="midnightblue" d="M346,-232.857C346,-224.074 346,-213.948 346,-205.362"/>
<polygon fill="midnightblue" stroke="midnightblue" points="349.5,-205.204 346,-195.204 342.5,-205.204 349.5,-205.204"/>
</g>
<!-- Node6 -->
<g id="node6" class="node"><title>Node6</title>
<polygon fill="none" stroke="#bfbfbf" points="403.604,-175 403.604,-195 452.396,-195 452.396,-175 403.604,-175"/>
<text text-anchor="middle" x="428" y="-181" font-family="Helvetica,sans-Serif" font-size="10.00">string.h</text>
</g>
<!-- Node1&#45;&gt;Node6 -->
<g id="edge5" class="edge"><title>Node1&#45;&gt;Node6</title>
<path fill="none" stroke="midnightblue" d="M371.496,-232.857C383.634,-222.791 397.899,-210.962 409.059,-201.707"/>
<polygon fill="midnightblue" stroke="midnightblue" points="411.438,-204.281 416.901,-195.204 406.969,-198.893 411.438,-204.281"/>
</g>
<!-- Node7 -->
<g id="node7" class="node"><title>Node7</title>
<polygon fill="none" stroke="#bfbfbf" points="470.269,-175 470.269,-195 515.731,-195 515.731,-175 470.269,-175"/>
<text text-anchor="middle" x="493" y="-181" font-family="Helvetica,sans-Serif" font-size="10.00">stdio.h</text>
</g>
<!-- Node1&#45;&gt;Node7 -->
<g id="edge6" class="edge"><title>Node1&#45;&gt;Node7</title>
<path fill="none" stroke="midnightblue" d="M391.706,-232.857C415.425,-221.885 443.674,-208.818 464.305,-199.274"/>
<polygon fill="midnightblue" stroke="midnightblue" points="465.88,-202.402 473.487,-195.027 462.941,-196.048 465.88,-202.402"/>
</g>
<!-- Node8 -->
<g id="node8" class="node"><title>Node8</title>
<g id="a_node8"><a xlink:href="sysfs_8h_source.html" target="_top" xlink:title="sysfs.h">
<polygon fill="none" stroke="black" points="175.441,-175 175.441,-195 222.559,-195 222.559,-175 175.441,-175"/>
<text text-anchor="middle" x="199" y="-181" font-family="Helvetica,sans-Serif" font-size="10.00">sysfs.h</text>
</a>
</g>
</g>
<!-- Node1&#45;&gt;Node8 -->
<g id="edge7" class="edge"><title>Node1&#45;&gt;Node8</title>
<path fill="none" stroke="midnightblue" d="M300.294,-232.857C276.575,-221.885 248.326,-208.818 227.695,-199.274"/>
<polygon fill="midnightblue" stroke="midnightblue" points="229.059,-196.048 218.513,-195.027 226.12,-202.402 229.059,-196.048"/>
</g>
<!-- Node8&#45;&gt;Node3 -->
<g id="edge12" class="edge"><title>Node8&#45;&gt;Node3</title>
<path fill="none" stroke="midnightblue" d="M222.687,-176.298C225.478,-175.48 228.294,-174.695 231,-174 309.179,-153.936 333.443,-166.384 409,-138 445.38,-124.334 483.775,-100.428 506.807,-84.9107"/>
<polygon fill="midnightblue" stroke="midnightblue" points="508.85,-87.7537 515.126,-79.218 504.897,-81.9767 508.85,-87.7537"/>
</g>
<!-- Node9 -->
<g id="node9" class="node"><title>Node9</title>
<polygon fill="none" stroke="#bfbfbf" points="218.707,-1 218.707,-21 275.293,-21 275.293,-1 218.707,-1"/>
<text text-anchor="middle" x="247" y="-7" font-family="Helvetica,sans-Serif" font-size="10.00">stdbool.h</text>
</g>
<!-- Node8&#45;&gt;Node9 -->
<g id="edge8" class="edge"><title>Node8&#45;&gt;Node9</title>
<path fill="none" stroke="midnightblue" d="M175.252,-177.214C144.967,-167.181 98.1825,-146.257 113,-116 134.396,-72.3108 183.976,-41.7007 216.457,-25.482"/>
<polygon fill="midnightblue" stroke="midnightblue" points="218.048,-28.6003 225.532,-21.1011 215.005,-22.2964 218.048,-28.6003"/>
</g>
<!-- Node10 -->
<g id="node10" class="node"><title>Node10</title>
<polygon fill="none" stroke="#bfbfbf" points="-0.00976562,-117 -0.00976562,-137 66.0098,-137 66.0098,-117 -0.00976562,-117"/>
<text text-anchor="middle" x="33" y="-123" font-family="Helvetica,sans-Serif" font-size="10.00">sys/types.h</text>
</g>
<!-- Node8&#45;&gt;Node10 -->
<g id="edge9" class="edge"><title>Node8&#45;&gt;Node10</title>
<path fill="none" stroke="midnightblue" d="M175.216,-175.977C147.512,-166.63 101.441,-151.088 69.2674,-140.235"/>
<polygon fill="midnightblue" stroke="midnightblue" points="70.3586,-136.909 59.7644,-137.029 68.121,-143.542 70.3586,-136.909"/>
</g>
<!-- Node11 -->
<g id="node11" class="node"><title>Node11</title>
<polygon fill="none" stroke="#bfbfbf" points="308.879,-1 308.879,-21 357.121,-21 357.121,-1 308.879,-1"/>
<text text-anchor="middle" x="333" y="-7" font-family="Helvetica,sans-Serif" font-size="10.00">stdint.h</text>
</g>
<!-- Node8&#45;&gt;Node11 -->
<g id="edge10" class="edge"><title>Node8&#45;&gt;Node11</title>
<path fill="none" stroke="midnightblue" d="M211.319,-174.849C222.258,-166.254 238.147,-152.566 249,-138 272.633,-106.28 265.21,-90.3307 288,-58 295.688,-47.0937 305.997,-36.3512 314.809,-27.9937"/>
<polygon fill="midnightblue" stroke="midnightblue" points="317.367,-30.3963 322.362,-21.0527 312.63,-25.2422 317.367,-30.3963"/>
</g>
<!-- Node12 -->
<g id="node12" class="node"><title>Node12</title>
<polygon fill="none" stroke="#bfbfbf" points="122.209,-117 122.209,-137 173.791,-137 173.791,-117 122.209,-117"/>
<text text-anchor="middle" x="148" y="-123" font-family="Helvetica,sans-Serif" font-size="10.00">stddef.h</text>
</g>
<!-- Node8&#45;&gt;Node12 -->
<g id="edge11" class="edge"><title>Node8&#45;&gt;Node12</title>
<path fill="none" stroke="midnightblue" d="M190.578,-174.753C183.152,-166.598 172.148,-154.516 163.188,-144.677"/>
<polygon fill="midnightblue" stroke="midnightblue" points="165.586,-142.112 156.265,-137.075 160.411,-146.825 165.586,-142.112"/>
</g>
<!-- Node13 -->
<g id="node13" class="node"><title>Node13</title>
<polygon fill="none" stroke="#bfbfbf" points="191.323,-117 191.323,-137 240.677,-137 240.677,-117 191.323,-117"/>
<text text-anchor="middle" x="216" y="-123" font-family="Helvetica,sans-Serif" font-size="10.00">dirent.h</text>
</g>
<!-- Node8&#45;&gt;Node13 -->
<g id="edge13" class="edge"><title>Node8&#45;&gt;Node13</title>
<path fill="none" stroke="midnightblue" d="M201.807,-174.753C204.109,-167.169 207.443,-156.188 210.301,-146.774"/>
<polygon fill="midnightblue" stroke="midnightblue" points="213.689,-147.661 213.245,-137.075 206.991,-145.627 213.689,-147.661"/>
</g>
<!-- Node14 -->
<g id="node14" class="node"><title>Node14</title>
<g id="a_node14"><a xlink:href="device_8h_source.html" target="_top" xlink:title="device.h">
<polygon fill="none" stroke="black" points="347.377,-117 347.377,-137 400.623,-137 400.623,-117 347.377,-117"/>
<text text-anchor="middle" x="374" y="-123" font-family="Helvetica,sans-Serif" font-size="10.00">device.h</text>
</a>
</g>
</g>
<!-- Node8&#45;&gt;Node14 -->
<g id="edge14" class="edge"><title>Node8&#45;&gt;Node14</title>
<path fill="none" stroke="midnightblue" d="M222.601,-176.448C252.151,-166.992 303.08,-150.694 337.628,-139.639"/>
<polygon fill="midnightblue" stroke="midnightblue" points="338.886,-142.911 347.344,-136.53 336.753,-136.244 338.886,-142.911"/>
</g>
<!-- Node14&#45;&gt;Node3 -->
<g id="edge15" class="edge"><title>Node14&#45;&gt;Node3</title>
<path fill="none" stroke="midnightblue" d="M399.086,-116.878C424.779,-107.535 464.907,-92.943 493.565,-82.522"/>
<polygon fill="midnightblue" stroke="midnightblue" points="494.979,-85.7321 503.18,-79.0253 492.586,-79.1535 494.979,-85.7321"/>
</g>
<!-- Node14&#45;&gt;Node9 -->
<g id="edge16" class="edge"><title>Node14&#45;&gt;Node9</title>
<path fill="none" stroke="midnightblue" d="M349.172,-116.932C330.68,-109.248 305.678,-96.7921 288,-80 273.22,-65.9608 261.834,-45.4515 254.854,-30.6313"/>
<polygon fill="midnightblue" stroke="midnightblue" points="258.016,-29.1283 250.737,-21.4295 251.626,-31.9869 258.016,-29.1283"/>
</g>
<!-- Node15 -->
<g id="node15" class="node"><title>Node15</title>
<g id="a_node15"><a xlink:href="types_8h_source.html" target="_top" xlink:title="hwpl/types.h">
<polygon fill="none" stroke="black" points="297.207,-59 297.207,-79 368.793,-79 368.793,-59 297.207,-59"/>
<text text-anchor="middle" x="333" y="-65" font-family="Helvetica,sans-Serif" font-size="10.00">hwpl/types.h</text>
</a>
</g>
</g>
<!-- Node14&#45;&gt;Node15 -->
<g id="edge17" class="edge"><title>Node14&#45;&gt;Node15</title>
<path fill="none" stroke="midnightblue" d="M367.23,-116.753C361.379,-108.761 352.766,-96.9975 345.644,-87.2698"/>
<polygon fill="midnightblue" stroke="midnightblue" points="348.376,-85.0762 339.644,-79.0752 342.728,-89.2114 348.376,-85.0762"/>
</g>
<!-- Node16 -->
<g id="node16" class="node"><title>Node16</title>
<polygon fill="none" stroke="#bfbfbf" points="437.431,-1 437.431,-21 504.569,-21 504.569,-1 437.431,-1"/>
<text text-anchor="middle" x="471" y="-7" font-family="Helvetica,sans-Serif" font-size="10.00">hwpl/arch.h</text>
</g>
<!-- Node14&#45;&gt;Node16 -->
<g id="edge20" class="edge"><title>Node14&#45;&gt;Node16</title>
<path fill="none" stroke="midnightblue" d="M399.271,-116.975C416.519,-109.573 438.589,-97.4519 452,-80 462.832,-65.9038 467.489,-45.9545 469.491,-31.3082"/>
<polygon fill="midnightblue" stroke="midnightblue" points="472.975,-31.6431 470.563,-21.3266 466.015,-30.8958 472.975,-31.6431"/>
</g>
<!-- Node17 -->
<g id="node17" class="node"><title>Node17</title>
<g id="a_node17"><a xlink:href="pio_8h.html" target="_top" xlink:title="General Purpose Input/Output Header File. ">
<polygon fill="none" stroke="black" points="386.707,-59 386.707,-79 443.293,-79 443.293,-59 386.707,-59"/>
<text text-anchor="middle" x="415" y="-65" font-family="Helvetica,sans-Serif" font-size="10.00">dev/pio.h</text>
</a>
</g>
</g>
<!-- Node14&#45;&gt;Node17 -->
<g id="edge21" class="edge"><title>Node14&#45;&gt;Node17</title>
<path fill="none" stroke="midnightblue" d="M380.77,-116.753C386.621,-108.761 395.234,-96.9975 402.356,-87.2698"/>
<polygon fill="midnightblue" stroke="midnightblue" points="405.272,-89.2114 408.356,-79.0752 399.624,-85.0762 405.272,-89.2114"/>
</g>
<!-- Node15&#45;&gt;Node9 -->
<g id="edge19" class="edge"><title>Node15&#45;&gt;Node9</title>
<path fill="none" stroke="midnightblue" d="M318.799,-58.7527C305.399,-50.0272 285.093,-36.8051 269.492,-26.6458"/>
<polygon fill="midnightblue" stroke="midnightblue" points="271.227,-23.599 260.937,-21.0752 267.407,-29.465 271.227,-23.599"/>
</g>
<!-- Node15&#45;&gt;Node11 -->
<g id="edge18" class="edge"><title>Node15&#45;&gt;Node11</title>
<path fill="none" stroke="midnightblue" d="M333,-58.7527C333,-51.2504 333,-40.4238 333,-31.0781"/>
<polygon fill="midnightblue" stroke="midnightblue" points="336.5,-31.0752 333,-21.0752 329.5,-31.0752 336.5,-31.0752"/>
</g>
<!-- Node17&#45;&gt;Node9 -->
<g id="edge22" class="edge"><title>Node17&#45;&gt;Node9</title>
<path fill="none" stroke="midnightblue" d="M387.634,-58.878C359.36,-49.4534 315.063,-34.6878 283.75,-24.2499"/>
<polygon fill="midnightblue" stroke="midnightblue" points="284.67,-20.8673 274.076,-21.0253 282.456,-27.508 284.67,-20.8673"/>
</g>
<!-- Node17&#45;&gt;Node11 -->
<g id="edge23" class="edge"><title>Node17&#45;&gt;Node11</title>
<path fill="none" stroke="midnightblue" d="M401.459,-58.7527C388.802,-50.1087 369.683,-37.0518 354.864,-26.9314"/>
<polygon fill="midnightblue" stroke="midnightblue" points="356.521,-23.8245 346.289,-21.0752 352.573,-29.6052 356.521,-23.8245"/>
</g>
<!-- Node17&#45;&gt;Node16 -->
<g id="edge25" class="edge"><title>Node17&#45;&gt;Node16</title>
<path fill="none" stroke="midnightblue" d="M424.247,-58.7527C432.484,-50.5165 444.726,-38.2738 454.618,-28.3824"/>
<polygon fill="midnightblue" stroke="midnightblue" points="457.329,-30.6212 461.925,-21.0752 452.379,-25.6714 457.329,-30.6212"/>
</g>
<!-- Node18 -->
<g id="node18" class="node"><title>Node18</title>
<g id="a_node18"><a xlink:href="ioctl_8h_source.html" target="_top" xlink:title="ioctl.h">
<polygon fill="none" stroke="black" points="376.938,-1 376.938,-21 419.062,-21 419.062,-1 376.938,-1"/>
<text text-anchor="middle" x="398" y="-7" font-family="Helvetica,sans-Serif" font-size="10.00">ioctl.h</text>
</a>
</g>
</g>
<!-- Node17&#45;&gt;Node18 -->
<g id="edge24" class="edge"><title>Node17&#45;&gt;Node18</title>
<path fill="none" stroke="midnightblue" d="M412.193,-58.7527C409.891,-51.1689 406.557,-40.1881 403.699,-30.7739"/>
<polygon fill="midnightblue" stroke="midnightblue" points="407.009,-29.6273 400.755,-21.0752 400.311,-31.6607 407.009,-29.6273"/>
</g>
</g>
</svg>
