<?xml version="1.0" encoding="UTF-8" standalone="no"?>
<!DOCTYPE svg PUBLIC "-//W3C//DTD SVG 1.1//EN"
 "http://www.w3.org/Graphics/SVG/1.1/DTD/svg11.dtd">
<!-- Generated by graphviz version 2.34.0 (20130907.0228)
 -->
<!-- Title: I2c Pages: 1 -->
<svg width="74pt" height="822pt"
 viewBox="0.00 0.00 74.00 822.00" xmlns="http://www.w3.org/2000/svg" xmlns:xlink="http://www.w3.org/1999/xlink">
<g id="graph0" class="graph" transform="scale(1 1) rotate(0) translate(4 818)">
<title>I2c</title>
<!-- Node1 -->
<g id="node1" class="node"><title>Node1</title>
<polygon fill="#bfbfbf" stroke="black" points="-0.705566,-99 -0.705566,-267 66.7056,-267 66.7056,-99 -0.705566,-99"/>
<text text-anchor="middle" x="33" y="-253" font-family="Helvetica,sans-Serif" font-size="10.00">I2c</text>
<polyline fill="none" stroke="black" points="-0.705566,-247 66.7056,-247 "/>
<text text-anchor="middle" x="33" y="-233" font-family="Helvetica,sans-Serif" font-size="10.00"> </text>
<polyline fill="none" stroke="black" points="-0.705566,-227 66.7056,-227 "/>
<text text-anchor="start" x="7.29443" y="-213" font-family="Helvetica,sans-Serif" font-size="10.00">+ I2c()</text>
<text text-anchor="start" x="7.29443" y="-201" font-family="Helvetica,sans-Serif" font-size="10.00">+ open()</text>
<text text-anchor="start" x="7.29443" y="-189" font-family="Helvetica,sans-Serif" font-size="10.00">+ getattr()</text>
<text text-anchor="start" x="7.29443" y="-177" font-family="Helvetica,sans-Serif" font-size="10.00">+ setattr()</text>
<text text-anchor="start" x="7.29443" y="-165" font-family="Helvetica,sans-Serif" font-size="10.00">+ setup()</text>
<text text-anchor="start" x="7.29443" y="-153" font-family="Helvetica,sans-Serif" font-size="10.00">+ geterr()</text>
<text text-anchor="start" x="7.29443" y="-141" font-family="Helvetica,sans-Serif" font-size="10.00">+ setup()</text>
<text text-anchor="start" x="7.29443" y="-129" font-family="Helvetica,sans-Serif" font-size="10.00">+ setattr()</text>
<text text-anchor="start" x="7.29443" y="-117" font-family="Helvetica,sans-Serif" font-size="10.00">+ init()</text>
<text text-anchor="start" x="7.29443" y="-105" font-family="Helvetica,sans-Serif" font-size="10.00">+ getports()</text>
</g>
<!-- Node5 -->
<g id="node5" class="node"><title>Node5</title>
<g id="a_node5"><a xlink:href="class_iic.html" target="_top" xlink:title="IIC Class (alternate class for I2c) ">
<polygon fill="none" stroke="black" points="12.3608,-1 12.3608,-61 53.6392,-61 53.6392,-1 12.3608,-1"/>
<text text-anchor="middle" x="33" y="-47" font-family="Helvetica,sans-Serif" font-size="10.00">Iic</text>
<polyline fill="none" stroke="black" points="12.3608,-41 53.6392,-41 "/>
<text text-anchor="middle" x="33" y="-27" font-family="Helvetica,sans-Serif" font-size="10.00"> </text>
<polyline fill="none" stroke="black" points="12.3608,-21 53.6392,-21 "/>
<text text-anchor="start" x="20.3608" y="-7" font-family="Helvetica,sans-Serif" font-size="10.00">+ Iic()</text>
</a>
</g>
</g>
<!-- Node1&#45;&gt;Node5 -->
<g id="edge4" class="edge"><title>Node1&#45;&gt;Node5</title>
<path fill="none" stroke="midnightblue" d="M33,-88.6468C33,-78.7515 33,-69.3103 33,-61.0716"/>
<polygon fill="none" stroke="midnightblue" points="29.5001,-88.6657 33,-98.6657 36.5001,-88.6658 29.5001,-88.6657"/>
</g>
<!-- Node2 -->
<g id="node2" class="node"><title>Node2</title>
<g id="a_node2"><a xlink:href="class_pblock.html" target="_top" xlink:title="Peripheral Block Class. ">
<polygon fill="none" stroke="black" points="2.35352,-305 2.35352,-389 63.6465,-389 63.6465,-305 2.35352,-305"/>
<text text-anchor="middle" x="33" y="-375" font-family="Helvetica,sans-Serif" font-size="10.00">Pblock</text>
<polyline fill="none" stroke="black" points="2.35352,-369 63.6465,-369 "/>
<text text-anchor="middle" x="33" y="-355" font-family="Helvetica,sans-Serif" font-size="10.00"> </text>
<polyline fill="none" stroke="black" points="2.35352,-349 63.6465,-349 "/>
<text text-anchor="start" x="10.3535" y="-335" font-family="Helvetica,sans-Serif" font-size="10.00">+ Pblock()</text>
<text text-anchor="start" x="10.3535" y="-323" font-family="Helvetica,sans-Serif" font-size="10.00">+ read()</text>
<text text-anchor="start" x="10.3535" y="-311" font-family="Helvetica,sans-Serif" font-size="10.00">+ write()</text>
</a>
</g>
</g>
<!-- Node2&#45;&gt;Node1 -->
<g id="edge1" class="edge"><title>Node2&#45;&gt;Node1</title>
<path fill="none" stroke="midnightblue" d="M33,-294.664C33,-285.877 33,-276.549 33,-267.183"/>
<polygon fill="none" stroke="midnightblue" points="29.5001,-294.701 33,-304.701 36.5001,-294.701 29.5001,-294.701"/>
</g>
<!-- Node3 -->
<g id="node3" class="node"><title>Node3</title>
<g id="a_node3"><a xlink:href="class_periph.html" target="_top" xlink:title="Peripheral Class. ">
<polygon fill="none" stroke="black" points="-0.429688,-427 -0.429688,-667 66.4297,-667 66.4297,-427 -0.429688,-427"/>
<text text-anchor="middle" x="33" y="-653" font-family="Helvetica,sans-Serif" font-size="10.00">Periph</text>
<polyline fill="none" stroke="black" points="-0.429688,-647 66.4297,-647 "/>
<text text-anchor="start" x="7.57031" y="-633" font-family="Helvetica,sans-Serif" font-size="10.00"># port_</text>
<text text-anchor="start" x="7.57031" y="-621" font-family="Helvetica,sans-Serif" font-size="10.00"># fd</text>
<polyline fill="none" stroke="black" points="-0.429688,-615 66.4297,-615 "/>
<text text-anchor="start" x="7.57031" y="-601" font-family="Helvetica,sans-Serif" font-size="10.00">+ Periph()</text>
<text text-anchor="start" x="7.57031" y="-589" font-family="Helvetica,sans-Serif" font-size="10.00">+ open()</text>
<text text-anchor="start" x="7.57031" y="-577" font-family="Helvetica,sans-Serif" font-size="10.00">+ open()</text>
<text text-anchor="start" x="7.57031" y="-565" font-family="Helvetica,sans-Serif" font-size="10.00">+ setflags()</text>
<text text-anchor="start" x="7.57031" y="-553" font-family="Helvetica,sans-Serif" font-size="10.00">+ read()</text>
<text text-anchor="start" x="7.57031" y="-541" font-family="Helvetica,sans-Serif" font-size="10.00">+ readline()</text>
<text text-anchor="start" x="7.57031" y="-529" font-family="Helvetica,sans-Serif" font-size="10.00">+ write()</text>
<text text-anchor="start" x="7.57031" y="-517" font-family="Helvetica,sans-Serif" font-size="10.00">+ write()</text>
<text text-anchor="start" x="7.57031" y="-505" font-family="Helvetica,sans-Serif" font-size="10.00">+ close()</text>
<text text-anchor="start" x="7.57031" y="-493" font-family="Helvetica,sans-Serif" font-size="10.00">+ read()</text>
<text text-anchor="start" x="7.57031" y="-481" font-family="Helvetica,sans-Serif" font-size="10.00">+ write()</text>
<text text-anchor="start" x="7.57031" y="-469" font-family="Helvetica,sans-Serif" font-size="10.00">+ fileno()</text>
<text text-anchor="start" x="7.57031" y="-457" font-family="Helvetica,sans-Serif" font-size="10.00">+ ioctl()</text>
<text text-anchor="start" x="7.57031" y="-445" font-family="Helvetica,sans-Serif" font-size="10.00">+ port()</text>
<text text-anchor="start" x="7.57031" y="-433" font-family="Helvetica,sans-Serif" font-size="10.00"># _open()</text>
</a>
</g>
</g>
<!-- Node3&#45;&gt;Node2 -->
<g id="edge2" class="edge"><title>Node3&#45;&gt;Node2</title>
<path fill="none" stroke="midnightblue" d="M33,-416.556C33,-406.837 33,-397.551 33,-389.127"/>
<polygon fill="none" stroke="midnightblue" points="29.5001,-416.824 33,-426.824 36.5001,-416.824 29.5001,-416.824"/>
</g>
<!-- Node4 -->
<g id="node4" class="node"><title>Node4</title>
<g id="a_node4"><a xlink:href="class_phy.html" target="_top" xlink:title="Base Applib Class for Physical devices. ">
<polygon fill="none" stroke="black" points="8.46924,-705 8.46924,-813 57.5308,-813 57.5308,-705 8.46924,-705"/>
<text text-anchor="middle" x="33" y="-799" font-family="Helvetica,sans-Serif" font-size="10.00">Phy</text>
<polyline fill="none" stroke="black" points="8.46924,-793 57.5308,-793 "/>
<text text-anchor="middle" x="33" y="-779" font-family="Helvetica,sans-Serif" font-size="10.00"> </text>
<polyline fill="none" stroke="black" points="8.46924,-773 57.5308,-773 "/>
<text text-anchor="start" x="16.4692" y="-759" font-family="Helvetica,sans-Serif" font-size="10.00">+ Phy()</text>
<text text-anchor="start" x="16.4692" y="-747" font-family="Helvetica,sans-Serif" font-size="10.00">+ ioctl()</text>
<text text-anchor="start" x="16.4692" y="-735" font-family="Helvetica,sans-Serif" font-size="10.00">+ ioctl()</text>
<text text-anchor="start" x="16.4692" y="-723" font-family="Helvetica,sans-Serif" font-size="10.00">+ ioctl()</text>
<text text-anchor="start" x="16.4692" y="-711" font-family="Helvetica,sans-Serif" font-size="10.00">+ ioctl()</text>
</a>
</g>
</g>
<!-- Node4&#45;&gt;Node3 -->
<g id="edge3" class="edge"><title>Node4&#45;&gt;Node3</title>
<path fill="none" stroke="midnightblue" d="M33,-694.643C33,-685.847 33,-676.586 33,-667.17"/>
<polygon fill="none" stroke="midnightblue" points="29.5001,-694.737 33,-704.737 36.5001,-694.737 29.5001,-694.737"/>
</g>
</g>
</svg>
