<?xml version="1.0" encoding="UTF-8" standalone="no"?>
<!DOCTYPE svg PUBLIC "-//W3C//DTD SVG 1.1//EN"
 "http://www.w3.org/Graphics/SVG/1.1/DTD/svg11.dtd">
<!-- Generated by graphviz version 2.34.0 (20130907.0228)
 -->
<!-- Title: BrspAddress Pages: 1 -->
<svg width="132pt" height="446pt"
 viewBox="0.00 0.00 132.00 446.00" xmlns="http://www.w3.org/2000/svg" xmlns:xlink="http://www.w3.org/1999/xlink">
<g id="graph0" class="graph" transform="scale(1 1) rotate(0) translate(4 442)">
<title>BrspAddress</title>
<!-- Node1 -->
<g id="node1" class="node"><title>Node1</title>
<polygon fill="#bfbfbf" stroke="black" points="17.7378,-1 17.7378,-61 106.262,-61 106.262,-1 17.7378,-1"/>
<text text-anchor="middle" x="62" y="-47" font-family="Helvetica,sans-Serif" font-size="10.00">BrspAddress</text>
<polyline fill="none" stroke="black" points="17.7378,-41 106.262,-41 "/>
<text text-anchor="middle" x="62" y="-27" font-family="Helvetica,sans-Serif" font-size="10.00"> </text>
<polyline fill="none" stroke="black" points="17.7378,-21 106.262,-21 "/>
<text text-anchor="start" x="25.7378" y="-7" font-family="Helvetica,sans-Serif" font-size="10.00">+ BrspAddress()</text>
</g>
<!-- Node2 -->
<g id="node2" class="node"><title>Node2</title>
<g id="a_node2"><a xlink:href="class_string_static.html" target="_top" xlink:title="{StringStatic\&lt; 12 \&gt;\n||+ StringStatic()\l+ StringStatic()\l+ StringStatic()\l+ c_str()\l+ data()\l+ capacity()\l}">
<polygon fill="none" stroke="black" points="14.2539,-99 14.2539,-219 109.746,-219 109.746,-99 14.2539,-99"/>
<text text-anchor="middle" x="62" y="-205" font-family="Helvetica,sans-Serif" font-size="10.00">StringStatic&lt; 12 &gt;</text>
<polyline fill="none" stroke="black" points="14.2539,-199 109.746,-199 "/>
<text text-anchor="middle" x="62" y="-185" font-family="Helvetica,sans-Serif" font-size="10.00"> </text>
<polyline fill="none" stroke="black" points="14.2539,-179 109.746,-179 "/>
<text text-anchor="start" x="22.2539" y="-165" font-family="Helvetica,sans-Serif" font-size="10.00">+ StringStatic()</text>
<text text-anchor="start" x="22.2539" y="-153" font-family="Helvetica,sans-Serif" font-size="10.00">+ StringStatic()</text>
<text text-anchor="start" x="22.2539" y="-141" font-family="Helvetica,sans-Serif" font-size="10.00">+ StringStatic()</text>
<text text-anchor="start" x="22.2539" y="-129" font-family="Helvetica,sans-Serif" font-size="10.00">+ c_str()</text>
<text text-anchor="start" x="22.2539" y="-117" font-family="Helvetica,sans-Serif" font-size="10.00">+ data()</text>
<text text-anchor="start" x="22.2539" y="-105" font-family="Helvetica,sans-Serif" font-size="10.00">+ capacity()</text>
</a>
</g>
</g>
<!-- Node2&#45;&gt;Node1 -->
<g id="edge1" class="edge"><title>Node2&#45;&gt;Node1</title>
<path fill="none" stroke="midnightblue" d="M62,-88.6147C62,-78.9802 62,-69.5468 62,-61.2286"/>
<polygon fill="none" stroke="midnightblue" points="58.5001,-88.6895 62,-98.6895 65.5001,-88.6896 58.5001,-88.6895"/>
</g>
<!-- Node3 -->
<g id="node3" class="node"><title>Node3</title>
<g id="a_node3"><a xlink:href="class_string.html" target="_top" xlink:title="String class. ">
<polygon fill="none" stroke="black" points="-0.0527344,-257 -0.0527344,-437 124.053,-437 124.053,-257 -0.0527344,-257"/>
<text text-anchor="middle" x="62" y="-423" font-family="Helvetica,sans-Serif" font-size="10.00">String</text>
<polyline fill="none" stroke="black" points="-0.0527344,-417 124.053,-417 "/>
<text text-anchor="middle" x="62" y="-403" font-family="Helvetica,sans-Serif" font-size="10.00"> </text>
<polyline fill="none" stroke="black" points="-0.0527344,-397 124.053,-397 "/>
<text text-anchor="start" x="7.94727" y="-383" font-family="Helvetica,sans-Serif" font-size="10.00">+ String()</text>
<text text-anchor="start" x="7.94727" y="-371" font-family="Helvetica,sans-Serif" font-size="10.00">+ String()</text>
<text text-anchor="start" x="7.94727" y="-359" font-family="Helvetica,sans-Serif" font-size="10.00">+ String()</text>
<text text-anchor="start" x="7.94727" y="-347" font-family="Helvetica,sans-Serif" font-size="10.00">+ setformat()</text>
<text text-anchor="start" x="7.94727" y="-335" font-family="Helvetica,sans-Serif" font-size="10.00">+ operator const char *()</text>
<text text-anchor="start" x="7.94727" y="-323" font-family="Helvetica,sans-Serif" font-size="10.00">+ operator&lt;&lt;()</text>
<text text-anchor="start" x="7.94727" y="-311" font-family="Helvetica,sans-Serif" font-size="10.00">+ operator&lt;&lt;()</text>
<text text-anchor="start" x="7.94727" y="-299" font-family="Helvetica,sans-Serif" font-size="10.00">+ operator&lt;&lt;()</text>
<text text-anchor="start" x="7.94727" y="-287" font-family="Helvetica,sans-Serif" font-size="10.00">+ operator&lt;&lt;()</text>
<text text-anchor="start" x="7.94727" y="-275" font-family="Helvetica,sans-Serif" font-size="10.00">+ operator&lt;&lt;()</text>
<text text-anchor="start" x="7.94727" y="-263" font-family="Helvetica,sans-Serif" font-size="10.00">and 33 more...</text>
</a>
</g>
</g>
<!-- Node3&#45;&gt;Node2 -->
<g id="edge2" class="edge"><title>Node3&#45;&gt;Node2</title>
<path fill="none" stroke="midnightblue" d="M62,-246.633C62,-237.265 62,-227.984 62,-219.172"/>
<polygon fill="none" stroke="midnightblue" points="58.5001,-246.813 62,-256.814 65.5001,-246.814 58.5001,-246.813"/>
</g>
</g>
</svg>
