<?xml version="1.0" encoding="UTF-8" standalone="no"?>
<!DOCTYPE svg PUBLIC "-//W3C//DTD SVG 1.1//EN"
 "http://www.w3.org/Graphics/SVG/1.1/DTD/svg11.dtd">
<!-- Generated by graphviz version 2.34.0 (20130907.0228)
 -->
<!-- Title: /Users/tgil/git/CoActionOS/CoActionOS/include/dev/devfifo.h Pages: 1 -->
<svg width="376pt" height="228pt"
 viewBox="0.00 0.00 375.74 228.00" xmlns="http://www.w3.org/2000/svg" xmlns:xlink="http://www.w3.org/1999/xlink">
<g id="graph0" class="graph" transform="scale(1 1) rotate(0) translate(4 224)">
<title>/Users/tgil/git/CoActionOS/CoActionOS/include/dev/devfifo.h</title>
<!-- Node1 -->
<g id="node1" class="node"><title>Node1</title>
<polygon fill="#bfbfbf" stroke="black" points="48.3764,-175 48.3764,-219 171.095,-219 171.095,-175 48.3764,-175"/>
<text text-anchor="start" x="56.3764" y="-205" font-family="Helvetica,sans-Serif" font-size="10.00">/Users/tgil/git/CoAction</text>
<text text-anchor="start" x="56.3764" y="-193" font-family="Helvetica,sans-Serif" font-size="10.00">OS/CoActionOS/include</text>
<text text-anchor="middle" x="109.736" y="-181" font-family="Helvetica,sans-Serif" font-size="10.00">/dev/devfifo.h</text>
</g>
<!-- Node2 -->
<g id="node2" class="node"><title>Node2</title>
<polygon fill="none" stroke="#bfbfbf" points="23.6152,-1 23.6152,-21 71.8564,-21 71.8564,-1 23.6152,-1"/>
<text text-anchor="middle" x="47.7358" y="-7" font-family="Helvetica,sans-Serif" font-size="10.00">stdint.h</text>
</g>
<!-- Node1&#45;&gt;Node2 -->
<g id="edge1" class="edge"><title>Node1&#45;&gt;Node2</title>
<path fill="none" stroke="midnightblue" d="M80.6317,-174.951C54.6225,-154.176 18.2924,-119.809 2.73577,-80 -0.823088,-70.8929 -0.956339,-67.0539 2.73577,-58 7.58052,-46.1195 17.1347,-35.6409 26.1979,-27.6974"/>
<polygon fill="midnightblue" stroke="midnightblue" points="28.6939,-30.1784 34.2341,-21.1475 24.2714,-24.7523 28.6939,-30.1784"/>
</g>
<!-- Node3 -->
<g id="node3" class="node"><title>Node3</title>
<g id="a_node3"><a xlink:href="ioctl_8h_source.html" target="_top" target="_top" xlink:title="dev/ioctl.h">
<polygon fill="none" stroke="black" points="307.224,-1 307.224,-21 368.248,-21 368.248,-1 307.224,-1"/>
<text text-anchor="middle" x="337.736" y="-7" font-family="Helvetica,sans-Serif" font-size="10.00">dev/ioctl.h</text>
</a>
</g>
</g>
<!-- Node1&#45;&gt;Node3 -->
<g id="edge2" class="edge"><title>Node1&#45;&gt;Node3</title>
<path fill="none" stroke="midnightblue" d="M156.246,-174.975C196.892,-154.904 255.666,-121.593 296.736,-80 311.059,-65.4946 322.515,-45.0578 329.637,-30.3818"/>
<polygon fill="midnightblue" stroke="midnightblue" points="332.824,-31.8299 333.858,-21.2856 326.474,-28.8837 332.824,-31.8299"/>
</g>
<!-- Node4 -->
<g id="node4" class="node"><title>Node4</title>
<g id="a_node4"><a xlink:href="device_8h_source.html" target="_top" target="_top" xlink:title="device.h">
<polygon fill="none" stroke="black" points="132.113,-117 132.113,-137 185.359,-137 185.359,-117 132.113,-117"/>
<text text-anchor="middle" x="158.736" y="-123" font-family="Helvetica,sans-Serif" font-size="10.00">device.h</text>
</a>
</g>
</g>
<!-- Node1&#45;&gt;Node4 -->
<g id="edge3" class="edge"><title>Node1&#45;&gt;Node4</title>
<path fill="none" stroke="midnightblue" d="M124.971,-174.857C131.798,-165.383 139.75,-154.347 146.222,-145.366"/>
<polygon fill="midnightblue" stroke="midnightblue" points="149.097,-147.363 152.104,-137.204 143.418,-143.271 149.097,-147.363"/>
</g>
<!-- Node7 -->
<g id="node7" class="node"><title>Node7</title>
<g id="a_node7"><a xlink:href="types_8h_source.html" target="_top" target="_top" xlink:title="hwpl/types.h">
<polygon fill="none" stroke="black" points="11.9428,-59 11.9428,-79 83.5287,-79 83.5287,-59 11.9428,-59"/>
<text text-anchor="middle" x="47.7358" y="-65" font-family="Helvetica,sans-Serif" font-size="10.00">hwpl/types.h</text>
</a>
</g>
</g>
<!-- Node1&#45;&gt;Node7 -->
<g id="edge15" class="edge"><title>Node1&#45;&gt;Node7</title>
<path fill="none" stroke="midnightblue" d="M99.3584,-174.91C87.4069,-150.622 67.9712,-111.124 56.6669,-88.1504"/>
<polygon fill="midnightblue" stroke="midnightblue" points="59.7888,-86.5674 52.2333,-79.1401 53.508,-89.6579 59.7888,-86.5674"/>
</g>
<!-- Node5 -->
<g id="node5" class="node"><title>Node5</title>
<polygon fill="none" stroke="#bfbfbf" points="101.618,-59 101.618,-79 159.854,-79 159.854,-59 101.618,-59"/>
<text text-anchor="middle" x="130.736" y="-65" font-family="Helvetica,sans-Serif" font-size="10.00">sys/stat.h</text>
</g>
<!-- Node4&#45;&gt;Node5 -->
<g id="edge4" class="edge"><title>Node4&#45;&gt;Node5</title>
<path fill="none" stroke="midnightblue" d="M154.112,-116.753C150.239,-109.006 144.593,-97.7142 139.82,-88.1688"/>
<polygon fill="midnightblue" stroke="midnightblue" points="142.876,-86.4542 135.273,-79.0752 136.615,-89.5847 142.876,-86.4542"/>
</g>
<!-- Node6 -->
<g id="node6" class="node"><title>Node6</title>
<polygon fill="none" stroke="#bfbfbf" points="147.443,-1 147.443,-21 204.029,-21 204.029,-1 147.443,-1"/>
<text text-anchor="middle" x="175.736" y="-7" font-family="Helvetica,sans-Serif" font-size="10.00">stdbool.h</text>
</g>
<!-- Node4&#45;&gt;Node6 -->
<g id="edge5" class="edge"><title>Node4&#45;&gt;Node6</title>
<path fill="none" stroke="midnightblue" d="M161.03,-116.893C163.283,-107.653 166.674,-92.9127 168.736,-80 171.338,-63.7025 173.178,-45.0456 174.317,-31.4017"/>
<polygon fill="midnightblue" stroke="midnightblue" points="177.818,-31.5244 175.11,-21.2816 170.84,-30.9777 177.818,-31.5244"/>
</g>
<!-- Node4&#45;&gt;Node7 -->
<g id="edge6" class="edge"><title>Node4&#45;&gt;Node7</title>
<path fill="none" stroke="midnightblue" d="M140.406,-116.753C122.545,-107.742 95.1789,-93.9353 74.8097,-83.6589"/>
<polygon fill="midnightblue" stroke="midnightblue" points="76.2287,-80.4547 65.7241,-79.0752 73.0757,-86.7044 76.2287,-80.4547"/>
</g>
<!-- Node8 -->
<g id="node8" class="node"><title>Node8</title>
<polygon fill="none" stroke="#bfbfbf" points="222.167,-1 222.167,-21 289.305,-21 289.305,-1 222.167,-1"/>
<text text-anchor="middle" x="255.736" y="-7" font-family="Helvetica,sans-Serif" font-size="10.00">hwpl/arch.h</text>
</g>
<!-- Node4&#45;&gt;Node8 -->
<g id="edge9" class="edge"><title>Node4&#45;&gt;Node8</title>
<path fill="none" stroke="midnightblue" d="M185.444,-124.4C214.409,-121.071 259.36,-110.904 280.736,-80 291.52,-64.4086 280.94,-43.6057 270.415,-29.1321"/>
<polygon fill="midnightblue" stroke="midnightblue" points="272.989,-26.7433 264.059,-21.0413 267.484,-31.0674 272.989,-26.7433"/>
</g>
<!-- Node9 -->
<g id="node9" class="node"><title>Node9</title>
<g id="a_node9"><a xlink:href="pio_8h.html" target="_top" target="_top" xlink:title="General Purpose Input/Output Header File. ">
<polygon fill="none" stroke="black" points="215.443,-59 215.443,-79 272.029,-79 272.029,-59 215.443,-59"/>
<text text-anchor="middle" x="243.736" y="-65" font-family="Helvetica,sans-Serif" font-size="10.00">dev/pio.h</text>
</a>
</g>
</g>
<!-- Node4&#45;&gt;Node9 -->
<g id="edge10" class="edge"><title>Node4&#45;&gt;Node9</title>
<path fill="none" stroke="midnightblue" d="M172.772,-116.753C186.016,-108.027 206.085,-94.8051 221.506,-84.6458"/>
<polygon fill="midnightblue" stroke="midnightblue" points="223.536,-87.4995 229.961,-79.0752 219.685,-81.6541 223.536,-87.4995"/>
</g>
<!-- Node7&#45;&gt;Node2 -->
<g id="edge7" class="edge"><title>Node7&#45;&gt;Node2</title>
<path fill="none" stroke="midnightblue" d="M47.7358,-58.7527C47.7358,-51.2504 47.7358,-40.4238 47.7358,-31.0781"/>
<polygon fill="midnightblue" stroke="midnightblue" points="51.2359,-31.0752 47.7358,-21.0752 44.2359,-31.0752 51.2359,-31.0752"/>
</g>
<!-- Node7&#45;&gt;Node6 -->
<g id="edge8" class="edge"><title>Node7&#45;&gt;Node6</title>
<path fill="none" stroke="midnightblue" d="M68.5861,-58.878C89.5061,-49.7255 121.94,-35.5357 145.646,-25.1643"/>
<polygon fill="midnightblue" stroke="midnightblue" points="147.136,-28.3329 154.894,-21.1181 144.33,-21.9198 147.136,-28.3329"/>
</g>
<!-- Node9&#45;&gt;Node2 -->
<g id="edge12" class="edge"><title>Node9&#45;&gt;Node2</title>
<path fill="none" stroke="midnightblue" d="M215.236,-59.8571C179.91,-49.7641 119.762,-32.5791 81.9713,-21.7816"/>
<polygon fill="midnightblue" stroke="midnightblue" points="82.5211,-18.2987 71.9443,-18.9167 80.598,-25.0293 82.5211,-18.2987"/>
</g>
<!-- Node9&#45;&gt;Node3 -->
<g id="edge13" class="edge"><title>Node9&#45;&gt;Node3</title>
<path fill="none" stroke="midnightblue" d="M259.258,-58.7527C274.041,-49.9457 296.514,-36.5575 313.629,-26.3617"/>
<polygon fill="midnightblue" stroke="midnightblue" points="315.703,-29.2002 322.502,-21.0752 312.12,-23.1864 315.703,-29.2002"/>
</g>
<!-- Node9&#45;&gt;Node6 -->
<g id="edge11" class="edge"><title>Node9&#45;&gt;Node6</title>
<path fill="none" stroke="midnightblue" d="M232.507,-58.7527C222.209,-50.2718 206.752,-37.543 194.566,-27.5073"/>
<polygon fill="midnightblue" stroke="midnightblue" points="196.7,-24.7305 186.756,-21.0752 192.25,-30.1341 196.7,-24.7305"/>
</g>
<!-- Node9&#45;&gt;Node8 -->
<g id="edge14" class="edge"><title>Node9&#45;&gt;Node8</title>
<path fill="none" stroke="midnightblue" d="M245.717,-58.7527C247.325,-51.2504 249.645,-40.4238 251.648,-31.0781"/>
<polygon fill="midnightblue" stroke="midnightblue" points="255.118,-31.5866 253.791,-21.0752 248.273,-30.1198 255.118,-31.5866"/>
</g>
</g>
</svg>
