<?xml version="1.0" encoding="UTF-8" standalone="no"?>
<!DOCTYPE svg PUBLIC "-//W3C//DTD SVG 1.1//EN"
 "http://www.w3.org/Graphics/SVG/1.1/DTD/svg11.dtd">
<!-- Generated by graphviz version 2.34.0 (20130907.0228)
 -->
<!-- Title: /Users/tgil/git/CoActionOS/CoActionOS/src/sys/dirent/dirent.c Pages: 1 -->
<svg width="563pt" height="286pt"
 viewBox="0.00 0.00 562.69 286.00" xmlns="http://www.w3.org/2000/svg" xmlns:xlink="http://www.w3.org/1999/xlink">
<g id="graph0" class="graph" transform="scale(1 1) rotate(0) translate(4 282)">
<title>/Users/tgil/git/CoActionOS/CoActionOS/src/sys/dirent/dirent.c</title>
<!-- Node1 -->
<g id="node1" class="node"><title>Node1</title>
<polygon fill="#bfbfbf" stroke="black" points="170.931,-233 170.931,-277 293.069,-277 293.069,-233 170.931,-233"/>
<text text-anchor="start" x="178.931" y="-263" font-family="Helvetica,sans-Serif" font-size="10.00">/Users/tgil/git/CoAction</text>
<text text-anchor="start" x="178.931" y="-251" font-family="Helvetica,sans-Serif" font-size="10.00">OS/CoActionOS/src/sys</text>
<text text-anchor="middle" x="232" y="-239" font-family="Helvetica,sans-Serif" font-size="10.00">/dirent/dirent.c</text>
</g>
<!-- Node2 -->
<g id="node2" class="node"><title>Node2</title>
<g id="a_node2"><a xlink:href="config_8h.html" target="_top" xlink:title="config.h">
<polygon fill="none" stroke="black" points="-0.512207,-175 -0.512207,-195 50.5122,-195 50.5122,-175 -0.512207,-175"/>
<text text-anchor="middle" x="25" y="-181" font-family="Helvetica,sans-Serif" font-size="10.00">config.h</text>
</a>
</g>
</g>
<!-- Node1&#45;&gt;Node2 -->
<g id="edge1" class="edge"><title>Node1&#45;&gt;Node2</title>
<path fill="none" stroke="midnightblue" d="M170.733,-233.874C134.745,-222.051 90.5328,-207.528 60.3053,-197.598"/>
<polygon fill="midnightblue" stroke="midnightblue" points="61.2152,-194.213 50.6224,-194.417 59.0305,-200.863 61.2152,-194.213"/>
</g>
<!-- Node3 -->
<g id="node3" class="node"><title>Node3</title>
<polygon fill="none" stroke="#bfbfbf" points="68.4878,-175 68.4878,-195 119.512,-195 119.512,-175 68.4878,-175"/>
<text text-anchor="middle" x="94" y="-181" font-family="Helvetica,sans-Serif" font-size="10.00">unistd.h</text>
</g>
<!-- Node1&#45;&gt;Node3 -->
<g id="edge2" class="edge"><title>Node1&#45;&gt;Node3</title>
<path fill="none" stroke="midnightblue" d="M189.092,-232.857C167.027,-221.984 140.786,-209.054 121.465,-199.534"/>
<polygon fill="midnightblue" stroke="midnightblue" points="122.836,-196.307 112.319,-195.027 119.742,-202.586 122.836,-196.307"/>
</g>
<!-- Node4 -->
<g id="node4" class="node"><title>Node4</title>
<polygon fill="none" stroke="#bfbfbf" points="137.382,-175 137.382,-195 190.618,-195 190.618,-175 137.382,-175"/>
<text text-anchor="middle" x="164" y="-181" font-family="Helvetica,sans-Serif" font-size="10.00">malloc.h</text>
</g>
<!-- Node1&#45;&gt;Node4 -->
<g id="edge3" class="edge"><title>Node1&#45;&gt;Node4</title>
<path fill="none" stroke="midnightblue" d="M210.857,-232.857C201.087,-223.087 189.656,-211.656 180.53,-202.53"/>
<polygon fill="midnightblue" stroke="midnightblue" points="182.75,-199.8 173.204,-195.204 177.8,-204.75 182.75,-199.8"/>
</g>
<!-- Node5 -->
<g id="node5" class="node"><title>Node5</title>
<polygon fill="none" stroke="#bfbfbf" points="208.158,-175 208.158,-195 255.842,-195 255.842,-175 208.158,-175"/>
<text text-anchor="middle" x="232" y="-181" font-family="Helvetica,sans-Serif" font-size="10.00">errno.h</text>
</g>
<!-- Node1&#45;&gt;Node5 -->
<g id="edge4" class="edge"><title>Node1&#45;&gt;Node5</title>
<path fill="none" stroke="midnightblue" d="M232,-232.857C232,-224.074 232,-213.948 232,-205.362"/>
<polygon fill="midnightblue" stroke="midnightblue" points="235.5,-205.204 232,-195.204 228.5,-205.204 235.5,-205.204"/>
</g>
<!-- Node6 -->
<g id="node6" class="node"><title>Node6</title>
<polygon fill="none" stroke="#bfbfbf" points="126.323,-117 126.323,-137 175.677,-137 175.677,-117 126.323,-117"/>
<text text-anchor="middle" x="151" y="-123" font-family="Helvetica,sans-Serif" font-size="10.00">dirent.h</text>
</g>
<!-- Node1&#45;&gt;Node6 -->
<g id="edge5" class="edge"><title>Node1&#45;&gt;Node6</title>
<path fill="none" stroke="midnightblue" d="M251.138,-232.764C263.899,-215.916 276.272,-192.246 264,-174 254.813,-160.341 215.127,-146.311 185.363,-137.396"/>
<polygon fill="midnightblue" stroke="midnightblue" points="186.288,-134.02 175.708,-134.577 184.326,-140.739 186.288,-134.02"/>
</g>
<!-- Node7 -->
<g id="node7" class="node"><title>Node7</title>
<g id="a_node7"><a xlink:href="sysfs_8h_source.html" target="_top" xlink:title="sysfs.h">
<polygon fill="none" stroke="black" points="312.441,-175 312.441,-195 359.559,-195 359.559,-175 312.441,-175"/>
<text text-anchor="middle" x="336" y="-181" font-family="Helvetica,sans-Serif" font-size="10.00">sysfs.h</text>
</a>
</g>
</g>
<!-- Node1&#45;&gt;Node7 -->
<g id="edge6" class="edge"><title>Node1&#45;&gt;Node7</title>
<path fill="none" stroke="midnightblue" d="M264.336,-232.857C280.282,-222.431 299.121,-210.113 313.481,-200.724"/>
<polygon fill="midnightblue" stroke="midnightblue" points="315.74,-203.429 322.195,-195.027 311.91,-197.57 315.74,-203.429"/>
</g>
<!-- Node18 -->
<g id="node18" class="node"><title>Node18</title>
<polygon fill="none" stroke="#bfbfbf" points="377.254,-175 377.254,-195 452.746,-195 452.746,-175 377.254,-175"/>
<text text-anchor="middle" x="415" y="-181" font-family="Helvetica,sans-Serif" font-size="10.00">hwpl/debug.h</text>
</g>
<!-- Node1&#45;&gt;Node18 -->
<g id="edge25" class="edge"><title>Node1&#45;&gt;Node18</title>
<path fill="none" stroke="midnightblue" d="M288.899,-232.857C319.095,-221.637 355.188,-208.225 381.007,-198.631"/>
<polygon fill="midnightblue" stroke="midnightblue" points="382.553,-201.791 390.708,-195.027 380.115,-195.229 382.553,-201.791"/>
</g>
<!-- Node7&#45;&gt;Node6 -->
<g id="edge12" class="edge"><title>Node7&#45;&gt;Node6</title>
<path fill="none" stroke="midnightblue" d="M312.193,-176.794C280.08,-167.073 222.662,-149.692 185.731,-138.513"/>
<polygon fill="midnightblue" stroke="midnightblue" points="186.481,-135.083 175.896,-135.536 184.453,-141.783 186.481,-135.083"/>
</g>
<!-- Node8 -->
<g id="node8" class="node"><title>Node8</title>
<polygon fill="none" stroke="#bfbfbf" points="216.707,-1 216.707,-21 273.293,-21 273.293,-1 216.707,-1"/>
<text text-anchor="middle" x="245" y="-7" font-family="Helvetica,sans-Serif" font-size="10.00">stdbool.h</text>
</g>
<!-- Node7&#45;&gt;Node8 -->
<g id="edge7" class="edge"><title>Node7&#45;&gt;Node8</title>
<path fill="none" stroke="midnightblue" d="M318.09,-174.872C303.902,-166.846 284.457,-153.967 272,-138 247.545,-106.656 244.031,-58.1144 244.169,-31.3535"/>
<polygon fill="midnightblue" stroke="midnightblue" points="247.676,-31.1107 244.415,-21.0304 240.678,-30.9444 247.676,-31.1107"/>
</g>
<!-- Node9 -->
<g id="node9" class="node"><title>Node9</title>
<polygon fill="none" stroke="#bfbfbf" points="390.99,-117 390.99,-137 457.01,-137 457.01,-117 390.99,-117"/>
<text text-anchor="middle" x="424" y="-123" font-family="Helvetica,sans-Serif" font-size="10.00">sys/types.h</text>
</g>
<!-- Node7&#45;&gt;Node9 -->
<g id="edge8" class="edge"><title>Node7&#45;&gt;Node9</title>
<path fill="none" stroke="midnightblue" d="M350.531,-174.753C364.243,-166.027 385.021,-152.805 400.985,-142.646"/>
<polygon fill="midnightblue" stroke="midnightblue" points="403.181,-145.397 409.739,-137.075 399.423,-139.491 403.181,-145.397"/>
</g>
<!-- Node10 -->
<g id="node10" class="node"><title>Node10</title>
<polygon fill="none" stroke="#bfbfbf" points="296.879,-1 296.879,-21 345.121,-21 345.121,-1 296.879,-1"/>
<text text-anchor="middle" x="321" y="-7" font-family="Helvetica,sans-Serif" font-size="10.00">stdint.h</text>
</g>
<!-- Node7&#45;&gt;Node10 -->
<g id="edge9" class="edge"><title>Node7&#45;&gt;Node10</title>
<path fill="none" stroke="midnightblue" d="M359.696,-176.332C362.485,-175.508 365.298,-174.712 368,-174 441.422,-154.657 485.297,-195.398 535,-138 558.304,-111.088 561.642,-85.4722 539,-58 487.703,4.2415 439.046,-38.7058 355.275,-21.9227"/>
<polygon fill="midnightblue" stroke="midnightblue" points="355.956,-18.4884 345.431,-19.7067 354.418,-25.3175 355.956,-18.4884"/>
</g>
<!-- Node11 -->
<g id="node11" class="node"><title>Node11</title>
<polygon fill="none" stroke="#bfbfbf" points="475.209,-117 475.209,-137 526.791,-137 526.791,-117 475.209,-117"/>
<text text-anchor="middle" x="501" y="-123" font-family="Helvetica,sans-Serif" font-size="10.00">stddef.h</text>
</g>
<!-- Node7&#45;&gt;Node11 -->
<g id="edge10" class="edge"><title>Node7&#45;&gt;Node11</title>
<path fill="none" stroke="midnightblue" d="M359.64,-175.977C387.22,-166.616 433.112,-151.041 465.098,-140.185"/>
<polygon fill="midnightblue" stroke="midnightblue" points="466.609,-143.368 474.953,-136.84 464.359,-136.74 466.609,-143.368"/>
</g>
<!-- Node12 -->
<g id="node12" class="node"><title>Node12</title>
<polygon fill="none" stroke="#bfbfbf" points="471.882,-59 471.882,-79 530.118,-79 530.118,-59 471.882,-59"/>
<text text-anchor="middle" x="501" y="-65" font-family="Helvetica,sans-Serif" font-size="10.00">sys/stat.h</text>
</g>
<!-- Node7&#45;&gt;Node12 -->
<g id="edge11" class="edge"><title>Node7&#45;&gt;Node12</title>
<path fill="none" stroke="midnightblue" d="M340.001,-174.766C346.696,-160.318 361.484,-132.336 382,-116 405.377,-97.3861 437.164,-85.6157 462.005,-78.6454"/>
<polygon fill="midnightblue" stroke="midnightblue" points="463.071,-81.9836 471.837,-76.0324 461.273,-75.2185 463.071,-81.9836"/>
</g>
<!-- Node13 -->
<g id="node13" class="node"><title>Node13</title>
<g id="a_node13"><a xlink:href="device_8h_source.html" target="_top" xlink:title="device.h">
<polygon fill="none" stroke="black" points="281.377,-117 281.377,-137 334.623,-137 334.623,-117 281.377,-117"/>
<text text-anchor="middle" x="308" y="-123" font-family="Helvetica,sans-Serif" font-size="10.00">device.h</text>
</a>
</g>
</g>
<!-- Node7&#45;&gt;Node13 -->
<g id="edge13" class="edge"><title>Node7&#45;&gt;Node13</title>
<path fill="none" stroke="midnightblue" d="M331.376,-174.753C327.503,-167.006 321.857,-155.714 317.084,-146.169"/>
<polygon fill="midnightblue" stroke="midnightblue" points="320.14,-144.454 312.538,-137.075 313.879,-147.585 320.14,-144.454"/>
</g>
<!-- Node13&#45;&gt;Node8 -->
<g id="edge15" class="edge"><title>Node13&#45;&gt;Node8</title>
<path fill="none" stroke="midnightblue" d="M295.254,-116.877C284.497,-108.498 269.527,-95.1153 261,-80 252.537,-64.9971 248.539,-45.7104 246.658,-31.5113"/>
<polygon fill="midnightblue" stroke="midnightblue" points="250.118,-30.9567 245.557,-21.3938 243.159,-31.7136 250.118,-30.9567"/>
</g>
<!-- Node13&#45;&gt;Node12 -->
<g id="edge14" class="edge"><title>Node13&#45;&gt;Node12</title>
<path fill="none" stroke="midnightblue" d="M334.836,-118.213C367.924,-108.613 424.409,-92.2234 462.213,-81.2541"/>
<polygon fill="midnightblue" stroke="midnightblue" points="463.242,-84.6 471.871,-78.452 461.292,-77.8773 463.242,-84.6"/>
</g>
<!-- Node14 -->
<g id="node14" class="node"><title>Node14</title>
<g id="a_node14"><a xlink:href="types_8h_source.html" target="_top" xlink:title="hwpl/types.h">
<polygon fill="none" stroke="black" points="270.207,-59 270.207,-79 341.793,-79 341.793,-59 270.207,-59"/>
<text text-anchor="middle" x="306" y="-65" font-family="Helvetica,sans-Serif" font-size="10.00">hwpl/types.h</text>
</a>
</g>
</g>
<!-- Node13&#45;&gt;Node14 -->
<g id="edge16" class="edge"><title>Node13&#45;&gt;Node14</title>
<path fill="none" stroke="midnightblue" d="M307.67,-116.753C307.402,-109.25 307.015,-98.4238 306.681,-89.0781"/>
<polygon fill="midnightblue" stroke="midnightblue" points="310.179,-88.9439 306.324,-79.0752 303.183,-89.1938 310.179,-88.9439"/>
</g>
<!-- Node15 -->
<g id="node15" class="node"><title>Node15</title>
<polygon fill="none" stroke="#bfbfbf" points="423.431,-1 423.431,-21 490.569,-21 490.569,-1 423.431,-1"/>
<text text-anchor="middle" x="457" y="-7" font-family="Helvetica,sans-Serif" font-size="10.00">hwpl/arch.h</text>
</g>
<!-- Node13&#45;&gt;Node15 -->
<g id="edge19" class="edge"><title>Node13&#45;&gt;Node15</title>
<path fill="none" stroke="midnightblue" d="M334.69,-118.042C364.862,-108.617 411.54,-92.6089 425,-80 439.098,-66.7927 447.593,-46.116 452.25,-31.0281"/>
<polygon fill="midnightblue" stroke="midnightblue" points="455.671,-31.789 454.988,-21.2162 448.929,-29.9075 455.671,-31.789"/>
</g>
<!-- Node16 -->
<g id="node16" class="node"><title>Node16</title>
<g id="a_node16"><a xlink:href="pio_8h.html" target="_top" xlink:title="General Purpose Input/Output Header File. ">
<polygon fill="none" stroke="black" points="359.707,-59 359.707,-79 416.293,-79 416.293,-59 359.707,-59"/>
<text text-anchor="middle" x="388" y="-65" font-family="Helvetica,sans-Serif" font-size="10.00">dev/pio.h</text>
</a>
</g>
</g>
<!-- Node13&#45;&gt;Node16 -->
<g id="edge20" class="edge"><title>Node13&#45;&gt;Node16</title>
<path fill="none" stroke="midnightblue" d="M321.21,-116.753C333.559,-108.109 352.212,-95.0518 366.669,-84.9314"/>
<polygon fill="midnightblue" stroke="midnightblue" points="368.85,-87.6772 375.035,-79.0752 364.836,-81.9425 368.85,-87.6772"/>
</g>
<!-- Node14&#45;&gt;Node8 -->
<g id="edge18" class="edge"><title>Node14&#45;&gt;Node8</title>
<path fill="none" stroke="midnightblue" d="M295.927,-58.7527C286.867,-50.4349 273.355,-38.031 262.526,-28.0893"/>
<polygon fill="midnightblue" stroke="midnightblue" points="264.619,-25.2596 254.885,-21.0752 259.885,-30.4162 264.619,-25.2596"/>
</g>
<!-- Node14&#45;&gt;Node10 -->
<g id="edge17" class="edge"><title>Node14&#45;&gt;Node10</title>
<path fill="none" stroke="midnightblue" d="M308.477,-58.7527C310.508,-51.1689 313.45,-40.1881 315.971,-30.7739"/>
<polygon fill="midnightblue" stroke="midnightblue" points="319.363,-31.6403 318.569,-21.0752 312.601,-29.8291 319.363,-31.6403"/>
</g>
<!-- Node16&#45;&gt;Node8 -->
<g id="edge21" class="edge"><title>Node16&#45;&gt;Node8</title>
<path fill="none" stroke="midnightblue" d="M364.706,-58.878C341.127,-49.6441 304.455,-35.283 277.912,-24.8887"/>
<polygon fill="midnightblue" stroke="midnightblue" points="278.871,-21.5056 268.284,-21.1181 276.319,-28.0236 278.871,-21.5056"/>
</g>
<!-- Node16&#45;&gt;Node10 -->
<g id="edge22" class="edge"><title>Node16&#45;&gt;Node10</title>
<path fill="none" stroke="midnightblue" d="M376.936,-58.7527C366.79,-50.2718 351.56,-37.543 339.553,-27.5073"/>
<polygon fill="midnightblue" stroke="midnightblue" points="341.775,-24.8028 331.858,-21.0752 337.286,-30.1738 341.775,-24.8028"/>
</g>
<!-- Node16&#45;&gt;Node15 -->
<g id="edge24" class="edge"><title>Node16&#45;&gt;Node15</title>
<path fill="none" stroke="midnightblue" d="M399.394,-58.7527C409.844,-50.2718 425.527,-37.543 437.893,-27.5073"/>
<polygon fill="midnightblue" stroke="midnightblue" points="440.259,-30.0945 445.818,-21.0752 435.848,-24.6593 440.259,-30.0945"/>
</g>
<!-- Node17 -->
<g id="node17" class="node"><title>Node17</title>
<g id="a_node17"><a xlink:href="ioctl_8h_source.html" target="_top" xlink:title="ioctl.h">
<polygon fill="none" stroke="black" points="362.938,-1 362.938,-21 405.062,-21 405.062,-1 362.938,-1"/>
<text text-anchor="middle" x="384" y="-7" font-family="Helvetica,sans-Serif" font-size="10.00">ioctl.h</text>
</a>
</g>
</g>
<!-- Node16&#45;&gt;Node17 -->
<g id="edge23" class="edge"><title>Node16&#45;&gt;Node17</title>
<path fill="none" stroke="midnightblue" d="M387.339,-58.7527C386.804,-51.2504 386.03,-40.4238 385.363,-31.0781"/>
<polygon fill="midnightblue" stroke="midnightblue" points="388.852,-30.8004 384.648,-21.0752 381.87,-31.2992 388.852,-30.8004"/>
</g>
</g>
</svg>
