<?xml version="1.0" encoding="UTF-8" standalone="no"?>
<!DOCTYPE svg PUBLIC "-//W3C//DTD SVG 1.1//EN"
 "http://www.w3.org/Graphics/SVG/1.1/DTD/svg11.dtd">
<!-- Generated by graphviz version 2.36.0 (20140111.2315)
 -->
<!-- Title: /Users/tgil/git/CoActionOS/CoActionOS/include/dev/eint.h Pages: 1 -->
<svg width="280pt" height="104pt"
 viewBox="0.00 0.00 280.00 104.00" xmlns="http://www.w3.org/2000/svg" xmlns:xlink="http://www.w3.org/1999/xlink">
<g id="graph0" class="graph" transform="scale(1 1) rotate(0) translate(4 100)">
<title>/Users/tgil/git/CoActionOS/CoActionOS/include/dev/eint.h</title>
<!-- Node1 -->
<g id="node1" class="node"><title>Node1</title>
<polygon fill="#bfbfbf" stroke="black" points="61.6406,-57 61.6406,-95 184.359,-95 184.359,-57 61.6406,-57"/>
<text text-anchor="start" x="69.6406" y="-83" font-family="Helvetica,sans-Serif" font-size="10.00">/Users/tgil/git/CoAction</text>
<text text-anchor="start" x="69.6406" y="-73" font-family="Helvetica,sans-Serif" font-size="10.00">OS/CoActionOS/include</text>
<text text-anchor="middle" x="123" y="-63" font-family="Helvetica,sans-Serif" font-size="10.00">/dev/eint.h</text>
</g>
<!-- Node2 -->
<g id="node2" class="node"><title>Node2</title>
<polygon fill="none" stroke="#bfbfbf" points="-0.120605,-1 -0.120605,-19 48.1206,-19 48.1206,-1 -0.120605,-1"/>
<text text-anchor="middle" x="24" y="-7" font-family="Helvetica,sans-Serif" font-size="10.00">stdint.h</text>
</g>
<!-- Node1&#45;&gt;Node2 -->
<g id="edge1" class="edge"><title>Node1&#45;&gt;Node2</title>
<path fill="none" stroke="midnightblue" d="M94.8954,-56.8314C79.1391,-46.6455 59.8016,-34.1445 45.3047,-24.7728"/>
<polygon fill="midnightblue" stroke="midnightblue" points="46.8617,-21.6116 36.5635,-19.1219 43.0614,-27.4902 46.8617,-21.6116"/>
</g>
<!-- Node3 -->
<g id="node3" class="node"><title>Node3</title>
<g id="a_node3"><a xlink:href="ioctl_8h_source.html" target="_top" xlink:title="ioctl.h">
<polygon fill="none" stroke="black" points="65.9385,-1 65.9385,-19 108.062,-19 108.062,-1 65.9385,-1"/>
<text text-anchor="middle" x="87" y="-7" font-family="Helvetica,sans-Serif" font-size="10.00">ioctl.h</text>
</a>
</g>
</g>
<!-- Node1&#45;&gt;Node3 -->
<g id="edge2" class="edge"><title>Node1&#45;&gt;Node3</title>
<path fill="none" stroke="midnightblue" d="M112.78,-56.8314C107.705,-47.8096 101.609,-36.9716 96.619,-28.1004"/>
<polygon fill="midnightblue" stroke="midnightblue" points="99.5217,-26.1217 91.5686,-19.1219 93.4207,-29.5536 99.5217,-26.1217"/>
</g>
<!-- Node4 -->
<g id="node4" class="node"><title>Node4</title>
<polygon fill="none" stroke="#bfbfbf" points="126.431,-1 126.431,-19 193.569,-19 193.569,-1 126.431,-1"/>
<text text-anchor="middle" x="160" y="-7" font-family="Helvetica,sans-Serif" font-size="10.00">hwpl/arch.h</text>
</g>
<!-- Node1&#45;&gt;Node4 -->
<g id="edge3" class="edge"><title>Node1&#45;&gt;Node4</title>
<path fill="none" stroke="midnightblue" d="M133.504,-56.8314C138.776,-47.7126 145.12,-36.7383 150.279,-27.8149"/>
<polygon fill="midnightblue" stroke="midnightblue" points="153.33,-29.531 155.305,-19.1219 147.269,-26.0275 153.33,-29.531"/>
</g>
<!-- Node5 -->
<g id="node5" class="node"><title>Node5</title>
<polygon fill="none" stroke="#bfbfbf" points="211.485,-1 211.485,-19 272.515,-19 272.515,-1 211.485,-1"/>
<text text-anchor="middle" x="242" y="-7" font-family="Helvetica,sans-Serif" font-size="10.00">hwpl/pio.h</text>
</g>
<!-- Node1&#45;&gt;Node5 -->
<g id="edge4" class="edge"><title>Node1&#45;&gt;Node5</title>
<path fill="none" stroke="midnightblue" d="M156.782,-56.8314C176.263,-46.3545 200.298,-33.4282 217.87,-23.9773"/>
<polygon fill="midnightblue" stroke="midnightblue" points="219.749,-26.941 226.898,-19.1219 216.433,-20.776 219.749,-26.941"/>
</g>
</g>
</svg>
