<?xml version="1.0" encoding="UTF-8" standalone="no"?>
<!DOCTYPE svg PUBLIC "-//W3C//DTD SVG 1.1//EN"
 "http://www.w3.org/Graphics/SVG/1.1/DTD/svg11.dtd">
<!-- Generated by graphviz version 2.36.0 (20140111.2315)
 -->
<!-- Title: /Users/tgil/git/CoActionOS/CoActionOS/include/dev/enet.h Pages: 1 -->
<svg width="201pt" height="104pt"
 viewBox="0.00 0.00 201.00 104.00" xmlns="http://www.w3.org/2000/svg" xmlns:xlink="http://www.w3.org/1999/xlink">
<g id="graph0" class="graph" transform="scale(1 1) rotate(0) translate(4 100)">
<title>/Users/tgil/git/CoActionOS/CoActionOS/include/dev/enet.h</title>
<!-- Node1 -->
<g id="node1" class="node"><title>Node1</title>
<polygon fill="#bfbfbf" stroke="black" points="25.6406,-57 25.6406,-95 148.359,-95 148.359,-57 25.6406,-57"/>
<text text-anchor="start" x="33.6406" y="-83" font-family="Helvetica,sans-Serif" font-size="10.00">/Users/tgil/git/CoAction</text>
<text text-anchor="start" x="33.6406" y="-73" font-family="Helvetica,sans-Serif" font-size="10.00">OS/CoActionOS/include</text>
<text text-anchor="middle" x="87" y="-63" font-family="Helvetica,sans-Serif" font-size="10.00">/dev/enet.h</text>
</g>
<!-- Node2 -->
<g id="node2" class="node"><title>Node2</title>
<polygon fill="none" stroke="#bfbfbf" points="-0.120605,-1 -0.120605,-19 48.1206,-19 48.1206,-1 -0.120605,-1"/>
<text text-anchor="middle" x="24" y="-7" font-family="Helvetica,sans-Serif" font-size="10.00">stdint.h</text>
</g>
<!-- Node1&#45;&gt;Node2 -->
<g id="edge1" class="edge"><title>Node1&#45;&gt;Node2</title>
<path fill="none" stroke="midnightblue" d="M69.1152,-56.8314C59.6615,-47.2276 48.1818,-35.5656 39.1682,-26.409"/>
<polygon fill="midnightblue" stroke="midnightblue" points="41.5045,-23.7931 31.995,-19.1219 36.5159,-28.7038 41.5045,-23.7931"/>
</g>
<!-- Node3 -->
<g id="node3" class="node"><title>Node3</title>
<g id="a_node3"><a xlink:href="ioctl_8h_source.html" target="_top" xlink:title="ioctl.h">
<polygon fill="none" stroke="black" points="65.9385,-1 65.9385,-19 108.062,-19 108.062,-1 65.9385,-1"/>
<text text-anchor="middle" x="87" y="-7" font-family="Helvetica,sans-Serif" font-size="10.00">ioctl.h</text>
</a>
</g>
</g>
<!-- Node1&#45;&gt;Node3 -->
<g id="edge2" class="edge"><title>Node1&#45;&gt;Node3</title>
<path fill="none" stroke="midnightblue" d="M87,-56.8314C87,-48.1976 87,-37.9005 87,-29.2557"/>
<polygon fill="midnightblue" stroke="midnightblue" points="90.5001,-29.1218 87,-19.1219 83.5001,-29.1219 90.5001,-29.1218"/>
</g>
<!-- Node4 -->
<g id="node4" class="node"><title>Node4</title>
<polygon fill="none" stroke="#bfbfbf" points="126.431,-1 126.431,-19 193.569,-19 193.569,-1 126.431,-1"/>
<text text-anchor="middle" x="160" y="-7" font-family="Helvetica,sans-Serif" font-size="10.00">hwpl/arch.h</text>
</g>
<!-- Node1&#45;&gt;Node4 -->
<g id="edge3" class="edge"><title>Node1&#45;&gt;Node4</title>
<path fill="none" stroke="midnightblue" d="M107.724,-56.8314C118.899,-47.0335 132.518,-35.0936 143.054,-25.8571"/>
<polygon fill="midnightblue" stroke="midnightblue" points="145.524,-28.346 150.736,-19.1219 140.909,-23.0825 145.524,-28.346"/>
</g>
</g>
</svg>
