<?xml version="1.0" encoding="UTF-8" standalone="no"?>
<!DOCTYPE svg PUBLIC "-//W3C//DTD SVG 1.1//EN"
 "http://www.w3.org/Graphics/SVG/1.1/DTD/svg11.dtd">
<!-- Generated by graphviz version 2.34.0 (20130907.0228)
 -->
<!-- Title: /Users/tgil/git/CoActionOS/CoActionOS/include/dev/fifo.h Pages: 1 -->
<svg width="188pt" height="170pt"
 viewBox="0.00 0.00 188.00 170.00" xmlns="http://www.w3.org/2000/svg" xmlns:xlink="http://www.w3.org/1999/xlink">
<g id="graph0" class="graph" transform="scale(1 1) rotate(0) translate(4 166)">
<title>/Users/tgil/git/CoActionOS/CoActionOS/include/dev/fifo.h</title>
<!-- Node1 -->
<g id="node1" class="node"><title>Node1</title>
<polygon fill="#bfbfbf" stroke="black" points="-0.359375,-117 -0.359375,-161 122.359,-161 122.359,-117 -0.359375,-117"/>
<text text-anchor="start" x="7.64062" y="-147" font-family="Helvetica,sans-Serif" font-size="10.00">/Users/tgil/git/CoAction</text>
<text text-anchor="start" x="7.64062" y="-135" font-family="Helvetica,sans-Serif" font-size="10.00">OS/CoActionOS/include</text>
<text text-anchor="middle" x="61" y="-123" font-family="Helvetica,sans-Serif" font-size="10.00">/dev/fifo.h</text>
</g>
<!-- Node2 -->
<g id="node2" class="node"><title>Node2</title>
<polygon fill="none" stroke="#bfbfbf" points="13.8794,-1 13.8794,-21 62.1206,-21 62.1206,-1 13.8794,-1"/>
<text text-anchor="middle" x="38" y="-7" font-family="Helvetica,sans-Serif" font-size="10.00">stdint.h</text>
</g>
<!-- Node1&#45;&gt;Node2 -->
<g id="edge1" class="edge"><title>Node1&#45;&gt;Node2</title>
<path fill="none" stroke="midnightblue" d="M41.7697,-116.82C33.6788,-106.499 25.1822,-93.4306 21,-80 15.8682,-63.5197 21.6422,-44.426 27.8122,-30.6745"/>
<polygon fill="midnightblue" stroke="midnightblue" points="31.1371,-31.8468 32.4336,-21.3316 24.8627,-28.7432 31.1371,-31.8468"/>
</g>
<!-- Node3 -->
<g id="node3" class="node"><title>Node3</title>
<g id="a_node3"><a xlink:href="ioctl_8h_source.html" target="_top" target="_top" xlink:title="dev/ioctl.h">
<polygon fill="none" stroke="black" points="30.4878,-59 30.4878,-79 91.5122,-79 91.5122,-59 30.4878,-59"/>
<text text-anchor="middle" x="61" y="-65" font-family="Helvetica,sans-Serif" font-size="10.00">dev/ioctl.h</text>
</a>
</g>
</g>
<!-- Node1&#45;&gt;Node3 -->
<g id="edge2" class="edge"><title>Node1&#45;&gt;Node3</title>
<path fill="none" stroke="midnightblue" d="M61,-116.857C61,-108.074 61,-97.9484 61,-89.3622"/>
<polygon fill="midnightblue" stroke="midnightblue" points="64.5001,-89.2039 61,-79.2039 57.5001,-89.204 64.5001,-89.2039"/>
</g>
<!-- Node4 -->
<g id="node4" class="node"><title>Node4</title>
<g id="a_node4"><a xlink:href="types_8h_source.html" target="_top" target="_top" xlink:title="hwpl/types.h">
<polygon fill="none" stroke="black" points="109.207,-59 109.207,-79 180.793,-79 180.793,-59 109.207,-59"/>
<text text-anchor="middle" x="145" y="-65" font-family="Helvetica,sans-Serif" font-size="10.00">hwpl/types.h</text>
</a>
</g>
</g>
<!-- Node1&#45;&gt;Node4 -->
<g id="edge3" class="edge"><title>Node1&#45;&gt;Node4</title>
<path fill="none" stroke="midnightblue" d="M87.1177,-116.857C99.5522,-106.791 114.165,-94.9617 125.597,-85.7072"/>
<polygon fill="midnightblue" stroke="midnightblue" points="128.06,-88.2163 133.63,-79.2039 123.656,-82.7756 128.06,-88.2163"/>
</g>
<!-- Node4&#45;&gt;Node2 -->
<g id="edge4" class="edge"><title>Node4&#45;&gt;Node2</title>
<path fill="none" stroke="midnightblue" d="M127.331,-58.7527C110.192,-49.7826 83.972,-36.0601 64.3652,-25.7986"/>
<polygon fill="midnightblue" stroke="midnightblue" points="65.823,-22.6112 55.3401,-21.0752 62.5771,-28.8132 65.823,-22.6112"/>
</g>
<!-- Node5 -->
<g id="node5" class="node"><title>Node5</title>
<polygon fill="none" stroke="#bfbfbf" points="116.707,-1 116.707,-21 173.293,-21 173.293,-1 116.707,-1"/>
<text text-anchor="middle" x="145" y="-7" font-family="Helvetica,sans-Serif" font-size="10.00">stdbool.h</text>
</g>
<!-- Node4&#45;&gt;Node5 -->
<g id="edge5" class="edge"><title>Node4&#45;&gt;Node5</title>
<path fill="none" stroke="midnightblue" d="M145,-58.7527C145,-51.2504 145,-40.4238 145,-31.0781"/>
<polygon fill="midnightblue" stroke="midnightblue" points="148.5,-31.0752 145,-21.0752 141.5,-31.0752 148.5,-31.0752"/>
</g>
</g>
</svg>
