<?xml version="1.0" encoding="UTF-8" standalone="no"?>
<!DOCTYPE svg PUBLIC "-//W3C//DTD SVG 1.1//EN"
 "http://www.w3.org/Graphics/SVG/1.1/DTD/svg11.dtd">
<!-- Generated by graphviz version 2.34.0 (20130907.0228)
 -->
<!-- Title: /Users/tgil/git/CoActionOS/CoActionOS/include/dev/fifo.h Pages: 1 -->
<svg width="271pt" height="136pt"
 viewBox="0.00 0.00 271.00 136.00" xmlns="http://www.w3.org/2000/svg" xmlns:xlink="http://www.w3.org/1999/xlink">
<g id="graph0" class="graph" transform="scale(1 1) rotate(0) translate(4 132)">
<title>/Users/tgil/git/CoActionOS/CoActionOS/include/dev/fifo.h</title>
<!-- Node1 -->
<g id="node1" class="node"><title>Node1</title>
<polygon fill="#bfbfbf" stroke="black" points="69.6406,-83 69.6406,-127 192.359,-127 192.359,-83 69.6406,-83"/>
<text text-anchor="start" x="77.6406" y="-113" font-family="Helvetica,sans-Serif" font-size="10.00">/Users/tgil/git/CoAction</text>
<text text-anchor="start" x="77.6406" y="-101" font-family="Helvetica,sans-Serif" font-size="10.00">OS/CoActionOS/include</text>
<text text-anchor="middle" x="131" y="-89" font-family="Helvetica,sans-Serif" font-size="10.00">/dev/fifo.h</text>
</g>
<!-- Node2 -->
<g id="node2" class="node"><title>Node2</title>
<g id="a_node2"><a xlink:href="uartfifo_8h.html" target="_top" xlink:title="/Users/tgil/git/CoAction\lOS/CoActionOS/include\l/dev/uartfifo.h">
<polygon fill="none" stroke="black" points="-0.359375,-1 -0.359375,-45 122.359,-45 122.359,-1 -0.359375,-1"/>
<text text-anchor="start" x="7.64062" y="-31" font-family="Helvetica,sans-Serif" font-size="10.00">/Users/tgil/git/CoAction</text>
<text text-anchor="start" x="7.64062" y="-19" font-family="Helvetica,sans-Serif" font-size="10.00">OS/CoActionOS/include</text>
<text text-anchor="middle" x="61" y="-7" font-family="Helvetica,sans-Serif" font-size="10.00">/dev/uartfifo.h</text>
</a>
</g>
</g>
<!-- Node1&#45;&gt;Node2 -->
<g id="edge1" class="edge"><title>Node1&#45;&gt;Node2</title>
<path fill="none" stroke="midnightblue" d="M105.867,-75.2766C97.1672,-65.3339 87.5817,-54.379 79.5119,-45.1564"/>
<polygon fill="midnightblue" stroke="midnightblue" points="103.389,-77.7599 112.608,-82.9809 108.657,-73.1504 103.389,-77.7599"/>
</g>
<!-- Node3 -->
<g id="node3" class="node"><title>Node3</title>
<g id="a_node3"><a xlink:href="usbfifo_8h.html" target="_top" xlink:title="/Users/tgil/git/CoAction\lOS/CoActionOS/include\l/dev/usbfifo.h">
<polygon fill="none" stroke="black" points="140.641,-1 140.641,-45 263.359,-45 263.359,-1 140.641,-1"/>
<text text-anchor="start" x="148.641" y="-31" font-family="Helvetica,sans-Serif" font-size="10.00">/Users/tgil/git/CoAction</text>
<text text-anchor="start" x="148.641" y="-19" font-family="Helvetica,sans-Serif" font-size="10.00">OS/CoActionOS/include</text>
<text text-anchor="middle" x="202" y="-7" font-family="Helvetica,sans-Serif" font-size="10.00">/dev/usbfifo.h</text>
</a>
</g>
</g>
<!-- Node1&#45;&gt;Node3 -->
<g id="edge2" class="edge"><title>Node1&#45;&gt;Node3</title>
<path fill="none" stroke="midnightblue" d="M156.492,-75.2766C165.316,-65.3339 175.039,-54.379 183.224,-45.1564"/>
<polygon fill="midnightblue" stroke="midnightblue" points="153.675,-73.1784 149.654,-82.9809 158.91,-77.8249 153.675,-73.1784"/>
</g>
</g>
</svg>
