<?xml version="1.0" encoding="UTF-8" standalone="no"?>
<!DOCTYPE svg PUBLIC "-//W3C//DTD SVG 1.1//EN"
 "http://www.w3.org/Graphics/SVG/1.1/DTD/svg11.dtd">
<!-- Generated by graphviz version 2.34.0 (20130907.0228)
 -->
<!-- Title: /Users/tgil/git/CoActionOS/CoActionOS/include/dev/gpio.h Pages: 1 -->
<svg width="275pt" height="112pt"
 viewBox="0.00 0.00 275.00 112.00" xmlns="http://www.w3.org/2000/svg" xmlns:xlink="http://www.w3.org/1999/xlink">
<g id="graph0" class="graph" transform="scale(1 1) rotate(0) translate(4 108)">
<title>/Users/tgil/git/CoActionOS/CoActionOS/include/dev/gpio.h</title>
<!-- Node1 -->
<g id="node1" class="node"><title>Node1</title>
<polygon fill="#bfbfbf" stroke="black" points="67.6406,-59 67.6406,-103 190.359,-103 190.359,-59 67.6406,-59"/>
<text text-anchor="start" x="75.6406" y="-89" font-family="Helvetica,sans-Serif" font-size="10.00">/Users/tgil/git/CoAction</text>
<text text-anchor="start" x="75.6406" y="-77" font-family="Helvetica,sans-Serif" font-size="10.00">OS/CoActionOS/include</text>
<text text-anchor="middle" x="129" y="-65" font-family="Helvetica,sans-Serif" font-size="10.00">/dev/gpio.h</text>
</g>
<!-- Node2 -->
<g id="node2" class="node"><title>Node2</title>
<polygon fill="none" stroke="#bfbfbf" points="-0.292969,-1 -0.292969,-21 56.293,-21 56.293,-1 -0.292969,-1"/>
<text text-anchor="middle" x="28" y="-7" font-family="Helvetica,sans-Serif" font-size="10.00">stdbool.h</text>
</g>
<!-- Node1&#45;&gt;Node2 -->
<g id="edge1" class="edge"><title>Node1&#45;&gt;Node2</title>
<path fill="none" stroke="midnightblue" d="M97.5966,-58.8571C82.1108,-48.431 63.8154,-36.1133 49.8699,-26.7243"/>
<polygon fill="midnightblue" stroke="midnightblue" points="51.657,-23.7082 41.4071,-21.0266 47.7476,-29.5148 51.657,-23.7082"/>
</g>
<!-- Node3 -->
<g id="node3" class="node"><title>Node3</title>
<polygon fill="none" stroke="#bfbfbf" points="73.8794,-1 73.8794,-21 122.121,-21 122.121,-1 73.8794,-1"/>
<text text-anchor="middle" x="98" y="-7" font-family="Helvetica,sans-Serif" font-size="10.00">stdint.h</text>
</g>
<!-- Node1&#45;&gt;Node3 -->
<g id="edge2" class="edge"><title>Node1&#45;&gt;Node3</title>
<path fill="none" stroke="midnightblue" d="M119.361,-58.8571C115.222,-49.7779 110.429,-39.2643 106.433,-30.4993"/>
<polygon fill="midnightblue" stroke="midnightblue" points="109.529,-28.8512 102.196,-21.2039 103.159,-31.7549 109.529,-28.8512"/>
</g>
<!-- Node4 -->
<g id="node4" class="node"><title>Node4</title>
<g id="a_node4"><a xlink:href="ioctl_8h_source.html" target="_top" xlink:title="ioctl.h">
<polygon fill="none" stroke="black" points="139.938,-1 139.938,-21 182.062,-21 182.062,-1 139.938,-1"/>
<text text-anchor="middle" x="161" y="-7" font-family="Helvetica,sans-Serif" font-size="10.00">ioctl.h</text>
</a>
</g>
</g>
<!-- Node1&#45;&gt;Node4 -->
<g id="edge3" class="edge"><title>Node1&#45;&gt;Node4</title>
<path fill="none" stroke="midnightblue" d="M138.95,-58.8571C143.222,-49.7779 148.17,-39.2643 152.294,-30.4993"/>
<polygon fill="midnightblue" stroke="midnightblue" points="155.578,-31.7424 156.669,-21.2039 149.244,-28.7618 155.578,-31.7424"/>
</g>
<!-- Node5 -->
<g id="node5" class="node"><title>Node5</title>
<polygon fill="none" stroke="#bfbfbf" points="200.431,-1 200.431,-21 267.569,-21 267.569,-1 200.431,-1"/>
<text text-anchor="middle" x="234" y="-7" font-family="Helvetica,sans-Serif" font-size="10.00">hwpl/arch.h</text>
</g>
<!-- Node1&#45;&gt;Node5 -->
<g id="edge4" class="edge"><title>Node1&#45;&gt;Node5</title>
<path fill="none" stroke="midnightblue" d="M161.647,-58.8571C177.746,-48.431 196.766,-36.1133 211.264,-26.7243"/>
<polygon fill="midnightblue" stroke="midnightblue" points="213.571,-29.4002 220.062,-21.0266 209.766,-23.5247 213.571,-29.4002"/>
</g>
</g>
</svg>
