<?xml version="1.0" encoding="UTF-8" standalone="no"?>
<!DOCTYPE svg PUBLIC "-//W3C//DTD SVG 1.1//EN"
 "http://www.w3.org/Graphics/SVG/1.1/DTD/svg11.dtd">
<!-- Generated by graphviz version 2.34.0 (20130907.0228)
 -->
<!-- Title: POSIX Pages: 1 -->
<svg width="336pt" height="418pt"
 viewBox="0.00 0.00 336.00 418.00" xmlns="http://www.w3.org/2000/svg" xmlns:xlink="http://www.w3.org/1999/xlink">
<g id="graph0" class="graph" transform="scale(1 1) rotate(0) translate(4 414)">
<title>POSIX</title>
<!-- Node5 -->
<g id="node1" class="node"><title>Node5</title>
<g id="a_node1"><a xlink:href="group___s_i_g_n_a_l.html" target="_top" xlink:title="Signal Handling">
<polygon fill="none" stroke="black" points="216.976,-390 216.976,-410 303.024,-410 303.024,-390 216.976,-390"/>
<text text-anchor="middle" x="260" y="-396" font-family="Helvetica,sans-Serif" font-size="10.00">Signal Handling</text>
</a>
</g>
</g>
<!-- Node0 -->
<g id="node2" class="node"><title>Node0</title>
<polygon fill="#bfbfbf" stroke="black" points="108.717,-195 108.717,-215 155.283,-215 155.283,-195 108.717,-195"/>
<text text-anchor="middle" x="132" y="-201" font-family="Helvetica,sans-Serif" font-size="10.00">POSIX</text>
</g>
<!-- Node0&#45;&gt;Node5 -->
<g id="edge5" class="edge"><title>Node0&#45;&gt;Node5</title>
<path fill="none" stroke="midnightblue" d="M134.027,-225.752C136.964,-262.19 148.292,-337.8 192,-380 198.812,-386.577 207.692,-391.003 216.749,-393.977"/>
<polygon fill="midnightblue" stroke="midnightblue" points="137.494,-225.136 133.338,-215.39 130.51,-225.601 137.494,-225.136"/>
</g>
<!-- Node9 -->
<g id="node3" class="node"><title>Node9</title>
<g id="a_node3"><a xlink:href="group___m_q_u_e_u_e.html" target="_top" xlink:title="Message Queue (mqueue)">
<polygon fill="none" stroke="black" points="192.522,-351 192.522,-371 327.478,-371 327.478,-351 192.522,-351"/>
<text text-anchor="middle" x="260" y="-357" font-family="Helvetica,sans-Serif" font-size="10.00">Message Queue (mqueue)</text>
</a>
</g>
</g>
<!-- Node0&#45;&gt;Node9 -->
<g id="edge9" class="edge"><title>Node0&#45;&gt;Node9</title>
<path fill="none" stroke="midnightblue" d="M136.263,-225.272C142.108,-254.965 157.177,-310.1 192,-341 196.631,-345.109 202.075,-348.375 207.826,-350.97"/>
<polygon fill="midnightblue" stroke="midnightblue" points="139.674,-224.46 134.453,-215.241 132.785,-225.704 139.674,-224.46"/>
</g>
<!-- Node8 -->
<g id="node4" class="node"><title>Node8</title>
<g id="a_node4"><a xlink:href="group___s_e_m_a_p_h_o_r_e.html" target="_top" xlink:title="Semaphore">
<polygon fill="none" stroke="black" points="226.15,-312 226.15,-332 293.85,-332 293.85,-312 226.15,-312"/>
<text text-anchor="middle" x="260" y="-318" font-family="Helvetica,sans-Serif" font-size="10.00">Semaphore</text>
</a>
</g>
</g>
<!-- Node0&#45;&gt;Node8 -->
<g id="edge8" class="edge"><title>Node0&#45;&gt;Node8</title>
<path fill="none" stroke="midnightblue" d="M140.03,-224.84C148.83,-246.857 165.984,-281.925 192,-302 201.803,-309.564 214.43,-314.276 226.076,-317.207"/>
<polygon fill="midnightblue" stroke="midnightblue" points="143.194,-223.313 136.379,-215.202 136.649,-225.793 143.194,-223.313"/>
</g>
<!-- Node10 -->
<g id="node5" class="node"><title>Node10</title>
<g id="a_node5"><a xlink:href="group___d_i_r_e_n_t.html" target="_top" xlink:title="Directory Entry (dirent)">
<polygon fill="none" stroke="black" points="201.712,-273 201.712,-293 318.288,-293 318.288,-273 201.712,-273"/>
<text text-anchor="middle" x="260" y="-279" font-family="Helvetica,sans-Serif" font-size="10.00">Directory Entry (dirent)</text>
</a>
</g>
</g>
<!-- Node0&#45;&gt;Node10 -->
<g id="edge10" class="edge"><title>Node0&#45;&gt;Node10</title>
<path fill="none" stroke="midnightblue" d="M147.062,-222.892C158.038,-235.744 174.347,-252.574 192,-263 198.794,-267.012 206.457,-270.277 214.111,-272.914"/>
<polygon fill="midnightblue" stroke="midnightblue" points="149.721,-220.616 140.658,-215.128 144.321,-225.07 149.721,-220.616"/>
</g>
<!-- Node12 -->
<g id="node6" class="node"><title>Node12</title>
<g id="a_node6"><a xlink:href="group___s_c_h_e_d.html" target="_top" xlink:title="Scheduler">
<polygon fill="none" stroke="black" points="229.485,-234 229.485,-254 290.515,-254 290.515,-234 229.485,-234"/>
<text text-anchor="middle" x="260" y="-240" font-family="Helvetica,sans-Serif" font-size="10.00">Scheduler</text>
</a>
</g>
</g>
<!-- Node0&#45;&gt;Node12 -->
<g id="edge12" class="edge"><title>Node0&#45;&gt;Node12</title>
<path fill="none" stroke="midnightblue" d="M165.17,-215.498C173.866,-218.298 183.283,-221.296 192,-224 204.174,-227.777 217.632,-231.82 229.274,-235.276"/>
<polygon fill="midnightblue" stroke="midnightblue" points="165.969,-212.078 155.377,-212.331 163.815,-218.738 165.969,-212.078"/>
</g>
<!-- Node6 -->
<g id="node7" class="node"><title>Node6</title>
<g id="a_node7"><a xlink:href="group___g_r_p.html" target="_top" xlink:title="Groups">
<polygon fill="none" stroke="black" points="235.604,-195 235.604,-215 284.396,-215 284.396,-195 235.604,-195"/>
<text text-anchor="middle" x="260" y="-201" font-family="Helvetica,sans-Serif" font-size="10.00">Groups</text>
</a>
</g>
</g>
<!-- Node0&#45;&gt;Node6 -->
<g id="edge6" class="edge"><title>Node0&#45;&gt;Node6</title>
<path fill="none" stroke="midnightblue" d="M165.666,-205C187.5,-205 215.718,-205 235.386,-205"/>
<polygon fill="midnightblue" stroke="midnightblue" points="165.526,-201.5 155.526,-205 165.526,-208.5 165.526,-201.5"/>
</g>
<!-- Node4 -->
<g id="node8" class="node"><title>Node4</title>
<g id="a_node8"><a xlink:href="group___p_t_h_r_e_a_d.html" target="_top" xlink:title="Posix Threads (pthread)">
<polygon fill="none" stroke="black" points="198.453,-156 198.453,-176 321.547,-176 321.547,-156 198.453,-156"/>
<text text-anchor="middle" x="260" y="-162" font-family="Helvetica,sans-Serif" font-size="10.00">Posix Threads (pthread)</text>
</a>
</g>
</g>
<!-- Node0&#45;&gt;Node4 -->
<g id="edge4" class="edge"><title>Node0&#45;&gt;Node4</title>
<path fill="none" stroke="midnightblue" d="M164.83,-193.882C173.605,-190.907 183.146,-187.754 192,-185 201.813,-181.947 212.496,-178.827 222.39,-176.021"/>
<polygon fill="midnightblue" stroke="midnightblue" points="163.654,-190.585 155.326,-197.135 165.921,-197.208 163.654,-190.585"/>
</g>
<!-- Node11 -->
<g id="node9" class="node"><title>Node11</title>
<g id="a_node9"><a xlink:href="group___e_r_r_n_o.html" target="_top" xlink:title="Error Numbers">
<polygon fill="none" stroke="black" points="219.217,-117 219.217,-137 300.783,-137 300.783,-117 219.217,-117"/>
<text text-anchor="middle" x="260" y="-123" font-family="Helvetica,sans-Serif" font-size="10.00">Error Numbers</text>
</a>
</g>
</g>
<!-- Node0&#45;&gt;Node11 -->
<g id="edge11" class="edge"><title>Node0&#45;&gt;Node11</title>
<path fill="none" stroke="midnightblue" d="M146.957,-186.719C157.881,-173.604 174.169,-156.468 192,-146 200.237,-141.164 209.771,-137.504 219.016,-134.754"/>
<polygon fill="midnightblue" stroke="midnightblue" points="144.124,-184.657 140.592,-194.646 149.582,-189.04 144.124,-184.657"/>
</g>
<!-- Node7 -->
<g id="node10" class="node"><title>Node7</title>
<g id="a_node10"><a xlink:href="group___p_w_d.html" target="_top" xlink:title="Password">
<polygon fill="none" stroke="black" points="230.047,-78 230.047,-98 289.953,-98 289.953,-78 230.047,-78"/>
<text text-anchor="middle" x="260" y="-84" font-family="Helvetica,sans-Serif" font-size="10.00">Password</text>
</a>
</g>
</g>
<!-- Node0&#45;&gt;Node7 -->
<g id="edge7" class="edge"><title>Node0&#45;&gt;Node7</title>
<path fill="none" stroke="midnightblue" d="M139.673,-185.538C148.298,-163.279 165.439,-127.301 192,-107 202.855,-98.7034 217.181,-94.0292 229.799,-91.396"/>
<polygon fill="midnightblue" stroke="midnightblue" points="136.373,-184.371 136.212,-194.965 142.944,-186.783 136.373,-184.371"/>
</g>
<!-- Node2 -->
<g id="node11" class="node"><title>Node2</title>
<g id="a_node11"><a xlink:href="group___t_i_m_e.html" target="_top" xlink:title="Time">
<polygon fill="none" stroke="black" points="241.072,-39 241.072,-59 278.928,-59 278.928,-39 241.072,-39"/>
<text text-anchor="middle" x="260" y="-45" font-family="Helvetica,sans-Serif" font-size="10.00">Time</text>
</a>
</g>
</g>
<!-- Node0&#45;&gt;Node2 -->
<g id="edge2" class="edge"><title>Node0&#45;&gt;Node2</title>
<path fill="none" stroke="midnightblue" d="M136.163,-184.52C141.881,-154.533 156.789,-98.8968 192,-68 205.632,-56.0382 226.292,-51.571 241.063,-49.9224"/>
<polygon fill="midnightblue" stroke="midnightblue" points="132.666,-184.199 134.399,-194.652 139.563,-185.4 132.666,-184.199"/>
</g>
<!-- Node3 -->
<g id="node13" class="node"><title>Node3</title>
<g id="a_node13"><a xlink:href="group___u_n_i_s_t_d.html" target="_top" xlink:title="Unix Standard (unistd)">
<polygon fill="none" stroke="black" points="202.254,-0 202.254,-20 317.746,-20 317.746,-0 202.254,-0"/>
<text text-anchor="middle" x="260" y="-6" font-family="Helvetica,sans-Serif" font-size="10.00">Unix Standard (unistd)</text>
</a>
</g>
</g>
<!-- Node0&#45;&gt;Node3 -->
<g id="edge3" class="edge"><title>Node0&#45;&gt;Node3</title>
<path fill="none" stroke="midnightblue" d="M133.891,-184.592C136.61,-148.059 147.603,-71.3523 192,-29 195.762,-25.4114 200.15,-22.4923 204.849,-20.119"/>
<polygon fill="midnightblue" stroke="midnightblue" points="130.375,-184.756 133.267,-194.948 137.362,-185.177 130.375,-184.756"/>
</g>
<!-- Node1 -->
<g id="node12" class="node"><title>Node1</title>
<g id="a_node12"><a xlink:href="group___c_a_o_s.html" target="_top" xlink:title="CoActionOS">
<polygon fill="none" stroke="black" points="0.487793,-195 0.487793,-215 71.5122,-215 71.5122,-195 0.487793,-195"/>
<text text-anchor="middle" x="36" y="-201" font-family="Helvetica,sans-Serif" font-size="10.00">CoActionOS</text>
</a>
</g>
</g>
<!-- Node1&#45;&gt;Node0 -->
<g id="edge1" class="edge"><title>Node1&#45;&gt;Node0</title>
<path fill="none" stroke="midnightblue" d="M81.7573,-205C91.1009,-205 100.563,-205 108.662,-205"/>
<polygon fill="midnightblue" stroke="midnightblue" points="81.7351,-201.5 71.7351,-205 81.735,-208.5 81.7351,-201.5"/>
</g>
</g>
</svg>
