<?xml version="1.0" encoding="UTF-8" standalone="no"?>
<!DOCTYPE svg PUBLIC "-//W3C//DTD SVG 1.1//EN"
 "http://www.w3.org/Graphics/SVG/1.1/DTD/svg11.dtd">
<!-- Generated by graphviz version 2.34.0 (20130907.0228)
 -->
<!-- Title: System Pages: 1 -->
<svg width="372pt" height="184pt"
 viewBox="0.00 0.00 372.00 184.00" xmlns="http://www.w3.org/2000/svg" xmlns:xlink="http://www.w3.org/1999/xlink">
<g id="graph0" class="graph" transform="scale(1 1) rotate(0) translate(4 180)">
<title>System</title>
<!-- Node2 -->
<g id="node1" class="node"><title>Node2</title>
<g id="a_node1"><a xlink:href="group___s_y_s___d_e_v_f_i_f_o.html" target="_top" xlink:title="Device FIFO">
<polygon fill="none" stroke="black" points="269.941,-156 269.941,-176 342.059,-176 342.059,-156 269.941,-156"/>
<text text-anchor="middle" x="306" y="-162" font-family="Helvetica,sans-Serif" font-size="10.00">Device FIFO</text>
</a>
</g>
</g>
<!-- Node6 -->
<g id="node2" class="node"><title>Node6</title>
<g id="a_node2"><a xlink:href="group___s_y_s___u_a_r_t_f_i_f_o.html" target="_top" xlink:title="UART FIFO">
<polygon fill="none" stroke="black" points="271.789,-117 271.789,-137 340.211,-137 340.211,-117 271.789,-117"/>
<text text-anchor="middle" x="306" y="-123" font-family="Helvetica,sans-Serif" font-size="10.00">UART FIFO</text>
</a>
</g>
</g>
<!-- Node4 -->
<g id="node3" class="node"><title>Node4</title>
<g id="a_node3"><a xlink:href="group___s_y_s___f_i_f_o.html" target="_top" xlink:title="FIFO Buffer">
<polygon fill="none" stroke="black" points="271.972,-78 271.972,-98 340.028,-98 340.028,-78 271.972,-78"/>
<text text-anchor="middle" x="306" y="-84" font-family="Helvetica,sans-Serif" font-size="10.00">FIFO Buffer</text>
</a>
</g>
</g>
<!-- Node1 -->
<g id="node4" class="node"><title>Node1</title>
<g id="a_node4"><a xlink:href="group___h_w_d_l.html" target="_top" xlink:title="Hardware Device Library">
<polygon fill="none" stroke="black" points="-0.0195312,-78 -0.0195312,-98 126.02,-98 126.02,-78 -0.0195312,-78"/>
<text text-anchor="middle" x="63" y="-84" font-family="Helvetica,sans-Serif" font-size="10.00">Hardware Device Library</text>
</a>
</g>
</g>
<!-- Node0 -->
<g id="node5" class="node"><title>Node0</title>
<polygon fill="#bfbfbf" stroke="black" points="162.33,-78 162.33,-98 211.67,-98 211.67,-78 162.33,-78"/>
<text text-anchor="middle" x="187" y="-84" font-family="Helvetica,sans-Serif" font-size="10.00">System</text>
</g>
<!-- Node1&#45;&gt;Node0 -->
<g id="edge1" class="edge"><title>Node1&#45;&gt;Node0</title>
<path fill="none" stroke="midnightblue" d="M136.242,-88C145.523,-88 154.445,-88 162.107,-88"/>
<polygon fill="midnightblue" stroke="midnightblue" points="136.072,-84.5001 126.072,-88 136.072,-91.5001 136.072,-84.5001"/>
</g>
<!-- Node0&#45;&gt;Node2 -->
<g id="edge2" class="edge"><title>Node0&#45;&gt;Node2</title>
<path fill="none" stroke="midnightblue" d="M202.899,-106.077C214.158,-118.744 230.605,-135.264 248,-146 254.693,-150.131 262.357,-153.558 269.848,-156.339"/>
<polygon fill="midnightblue" stroke="midnightblue" points="205.47,-103.699 196.291,-98.4086 200.168,-108.269 205.47,-103.699"/>
</g>
<!-- Node0&#45;&gt;Node6 -->
<g id="edge6" class="edge"><title>Node0&#45;&gt;Node6</title>
<path fill="none" stroke="midnightblue" d="M221.602,-99.2005C238.338,-104.779 258.417,-111.472 274.679,-116.893"/>
<polygon fill="midnightblue" stroke="midnightblue" points="222.27,-95.7342 211.677,-95.8922 220.057,-102.375 222.27,-95.7342"/>
</g>
<!-- Node0&#45;&gt;Node4 -->
<g id="edge4" class="edge"><title>Node0&#45;&gt;Node4</title>
<path fill="none" stroke="midnightblue" d="M221.964,-88C237.584,-88 256.055,-88 271.605,-88"/>
<polygon fill="midnightblue" stroke="midnightblue" points="221.677,-84.5001 211.677,-88 221.677,-91.5001 221.677,-84.5001"/>
</g>
<!-- Node5 -->
<g id="node6" class="node"><title>Node5</title>
<g id="a_node6"><a xlink:href="group___t_t_y.html" target="_top" xlink:title="TTY (terminal devices)">
<polygon fill="none" stroke="black" points="247.8,-39 247.8,-59 364.2,-59 364.2,-39 247.8,-39"/>
<text text-anchor="middle" x="306" y="-45" font-family="Helvetica,sans-Serif" font-size="10.00">TTY (terminal devices)</text>
</a>
</g>
</g>
<!-- Node0&#45;&gt;Node5 -->
<g id="edge5" class="edge"><title>Node0&#45;&gt;Node5</title>
<path fill="none" stroke="midnightblue" d="M221.602,-76.7995C238.338,-71.2206 258.417,-64.5276 274.679,-59.1069"/>
<polygon fill="midnightblue" stroke="midnightblue" points="220.057,-73.625 211.677,-80.1078 222.27,-80.2658 220.057,-73.625"/>
</g>
<!-- Node3 -->
<g id="node7" class="node"><title>Node3</title>
<g id="a_node7"><a xlink:href="group___d_i_s_k.html" target="_top" xlink:title="Disk">
<polygon fill="none" stroke="black" points="288.278,-0 288.278,-20 323.722,-20 323.722,-0 288.278,-0"/>
<text text-anchor="middle" x="306" y="-6" font-family="Helvetica,sans-Serif" font-size="10.00">Disk</text>
</a>
</g>
</g>
<!-- Node0&#45;&gt;Node3 -->
<g id="edge3" class="edge"><title>Node0&#45;&gt;Node3</title>
<path fill="none" stroke="midnightblue" d="M202.399,-69.9655C213.611,-56.976 230.216,-39.8881 248,-29 260.455,-21.3747 276.334,-16.4072 288.168,-13.4711"/>
<polygon fill="midnightblue" stroke="midnightblue" points="199.576,-67.8848 195.851,-77.8032 204.949,-72.3726 199.576,-67.8848"/>
</g>
</g>
</svg>
