<?xml version="1.0" encoding="UTF-8" standalone="no"?>
<!DOCTYPE svg PUBLIC "-//W3C//DTD SVG 1.1//EN"
 "http://www.w3.org/Graphics/SVG/1.1/DTD/svg11.dtd">
<!-- Generated by graphviz version 2.34.0 (20130907.0228)
 -->
<!-- Title: Unix Standard (unistd) Pages: 1 -->
<svg width="330pt" height="106pt"
 viewBox="0.00 0.00 330.00 106.00" xmlns="http://www.w3.org/2000/svg" xmlns:xlink="http://www.w3.org/1999/xlink">
<g id="graph0" class="graph" transform="scale(1 1) rotate(0) translate(4 102)">
<title>Unix Standard (unistd)</title>
<!-- Node3 -->
<g id="node1" class="node"><title>Node3</title>
<g id="a_node1"><a xlink:href="group___u_n_i___p_r_o_c_e_s_s.html" target="_top" xlink:title="Processes">
<polygon fill="none" stroke="black" points="247.658,-78 247.658,-98 310.342,-98 310.342,-78 247.658,-78"/>
<text text-anchor="middle" x="279" y="-84" font-family="Helvetica,sans-Serif" font-size="10.00">Processes</text>
</a>
</g>
</g>
<!-- Node1 -->
<g id="node2" class="node"><title>Node1</title>
<g id="a_node2"><a xlink:href="group___p_o_s_i_x.html" target="_top" xlink:title="POSIX">
<polygon fill="none" stroke="black" points="0.716797,-39 0.716797,-59 47.2832,-59 47.2832,-39 0.716797,-39"/>
<text text-anchor="middle" x="24" y="-45" font-family="Helvetica,sans-Serif" font-size="10.00">POSIX</text>
</a>
</g>
</g>
<!-- Node0 -->
<g id="node5" class="node"><title>Node0</title>
<polygon fill="#bfbfbf" stroke="black" points="84.2539,-39 84.2539,-59 199.746,-59 199.746,-39 84.2539,-39"/>
<text text-anchor="middle" x="142" y="-45" font-family="Helvetica,sans-Serif" font-size="10.00">Unix Standard (unistd)</text>
</g>
<!-- Node1&#45;&gt;Node0 -->
<g id="edge1" class="edge"><title>Node1&#45;&gt;Node0</title>
<path fill="none" stroke="midnightblue" d="M57.6332,-49C65.8727,-49 74.9627,-49 84.0195,-49"/>
<polygon fill="midnightblue" stroke="midnightblue" points="57.366,-45.5001 47.366,-49 57.3659,-52.5001 57.366,-45.5001"/>
</g>
<!-- Node4 -->
<g id="node3" class="node"><title>Node4</title>
<g id="a_node3"><a xlink:href="group___u_n_i___s_l_e_e_p.html" target="_top" xlink:title="Sleep Funcions">
<polygon fill="none" stroke="black" points="236.535,-39 236.535,-59 321.465,-59 321.465,-39 236.535,-39"/>
<text text-anchor="middle" x="279" y="-45" font-family="Helvetica,sans-Serif" font-size="10.00">Sleep Funcions</text>
</a>
</g>
</g>
<!-- Node2 -->
<g id="node4" class="node"><title>Node2</title>
<g id="a_node4"><a xlink:href="group___u_n_i___f_s.html" target="_top" xlink:title="Filesystem">
<polygon fill="none" stroke="black" points="247.108,-0 247.108,-20 310.892,-20 310.892,-0 247.108,-0"/>
<text text-anchor="middle" x="279" y="-6" font-family="Helvetica,sans-Serif" font-size="10.00">Filesystem</text>
</a>
</g>
</g>
<!-- Node0&#45;&gt;Node3 -->
<g id="edge3" class="edge"><title>Node0&#45;&gt;Node3</title>
<path fill="none" stroke="midnightblue" d="M187.446,-61.8398C207.12,-67.5236 229.765,-74.0654 247.488,-79.1853"/>
<polygon fill="midnightblue" stroke="midnightblue" points="188.344,-58.4564 177.766,-59.0435 186.402,-65.1814 188.344,-58.4564"/>
</g>
<!-- Node0&#45;&gt;Node4 -->
<g id="edge4" class="edge"><title>Node0&#45;&gt;Node4</title>
<path fill="none" stroke="midnightblue" d="M209.983,-49C218.984,-49 227.996,-49 236.381,-49"/>
<polygon fill="midnightblue" stroke="midnightblue" points="209.861,-45.5001 199.861,-49 209.861,-52.5001 209.861,-45.5001"/>
</g>
<!-- Node0&#45;&gt;Node2 -->
<g id="edge2" class="edge"><title>Node0&#45;&gt;Node2</title>
<path fill="none" stroke="midnightblue" d="M187.373,-36.181C206.898,-30.5405 229.36,-24.0517 247.036,-18.9451"/>
<polygon fill="midnightblue" stroke="midnightblue" points="186.402,-32.8186 177.766,-38.9565 188.344,-39.5436 186.402,-32.8186"/>
</g>
</g>
</svg>
