<?xml version="1.0" encoding="UTF-8" standalone="no"?>
<!DOCTYPE svg PUBLIC "-//W3C//DTD SVG 1.1//EN"
 "http://www.w3.org/Graphics/SVG/1.1/DTD/svg11.dtd">
<!-- Generated by graphviz version 2.34.0 (20130907.0228)
 -->
<!-- Title: Filesystem Pages: 1 -->
<svg width="364pt" height="106pt"
 viewBox="0.00 0.00 364.00 106.00" xmlns="http://www.w3.org/2000/svg" xmlns:xlink="http://www.w3.org/1999/xlink">
<g id="graph0" class="graph" transform="scale(1 1) rotate(0) translate(4 102)">
<title>Filesystem</title>
<!-- Node3 -->
<g id="node1" class="node"><title>Node3</title>
<g id="a_node1"><a xlink:href="group___u_n_i___f_i_l_e___a_c_c_e_s_s.html" target="_top" xlink:title="Access">
<polygon fill="none" stroke="black" points="279.884,-78 279.884,-98 328.116,-98 328.116,-78 279.884,-78"/>
<text text-anchor="middle" x="304" y="-84" font-family="Helvetica,sans-Serif" font-size="10.00">Access</text>
</a>
</g>
</g>
<!-- Node2 -->
<g id="node2" class="node"><title>Node2</title>
<g id="a_node2"><a xlink:href="group___u_n_i___p_e_r_m_s.html" target="_top" xlink:title="Permissions">
<polygon fill="none" stroke="black" points="268.771,-39 268.771,-59 339.229,-59 339.229,-39 268.771,-39"/>
<text text-anchor="middle" x="304" y="-45" font-family="Helvetica,sans-Serif" font-size="10.00">Permissions</text>
</a>
</g>
</g>
<!-- Node4 -->
<g id="node3" class="node"><title>Node4</title>
<g id="a_node3"><a xlink:href="group___u_n_i___f_i_l_d_e_s.html" target="_top" xlink:title="Descriptor Handling">
<polygon fill="none" stroke="black" points="252.091,-0 252.091,-20 355.909,-20 355.909,-0 252.091,-0"/>
<text text-anchor="middle" x="304" y="-6" font-family="Helvetica,sans-Serif" font-size="10.00">Descriptor Handling</text>
</a>
</g>
</g>
<!-- Node0 -->
<g id="node4" class="node"><title>Node0</title>
<polygon fill="#bfbfbf" stroke="black" points="152.108,-39 152.108,-59 215.892,-59 215.892,-39 152.108,-39"/>
<text text-anchor="middle" x="184" y="-45" font-family="Helvetica,sans-Serif" font-size="10.00">Filesystem</text>
</g>
<!-- Node0&#45;&gt;Node3 -->
<g id="edge3" class="edge"><title>Node0&#45;&gt;Node3</title>
<path fill="none" stroke="midnightblue" d="M224.922,-62.1947C243.184,-68.2304 264.179,-75.1692 279.795,-80.3305"/>
<polygon fill="midnightblue" stroke="midnightblue" points="225.981,-58.8585 215.388,-59.0435 223.784,-65.5049 225.981,-58.8585"/>
</g>
<!-- Node0&#45;&gt;Node2 -->
<g id="edge2" class="edge"><title>Node0&#45;&gt;Node2</title>
<path fill="none" stroke="midnightblue" d="M226.215,-49C240.009,-49 255.233,-49 268.463,-49"/>
<polygon fill="midnightblue" stroke="midnightblue" points="226.003,-45.5001 216.003,-49 226.003,-52.5001 226.003,-45.5001"/>
</g>
<!-- Node0&#45;&gt;Node4 -->
<g id="edge4" class="edge"><title>Node0&#45;&gt;Node4</title>
<path fill="none" stroke="midnightblue" d="M225.268,-35.6911C240.806,-30.5558 258.277,-24.7812 272.715,-20.0094"/>
<polygon fill="midnightblue" stroke="midnightblue" points="223.784,-32.4951 215.388,-38.9565 225.981,-39.1415 223.784,-32.4951"/>
</g>
<!-- Node1 -->
<g id="node5" class="node"><title>Node1</title>
<g id="a_node5"><a xlink:href="group___u_n_i_s_t_d.html" target="_top" xlink:title="Unix Standard (unistd)">
<polygon fill="none" stroke="black" points="0.253906,-39 0.253906,-59 115.746,-59 115.746,-39 0.253906,-39"/>
<text text-anchor="middle" x="58" y="-45" font-family="Helvetica,sans-Serif" font-size="10.00">Unix Standard (unistd)</text>
</a>
</g>
</g>
<!-- Node1&#45;&gt;Node0 -->
<g id="edge1" class="edge"><title>Node1&#45;&gt;Node0</title>
<path fill="none" stroke="midnightblue" d="M126.071,-49C135.046,-49 143.877,-49 151.807,-49"/>
<polygon fill="midnightblue" stroke="midnightblue" points="125.919,-45.5001 115.919,-49 125.919,-52.5001 125.919,-45.5001"/>
</g>
</g>
</svg>
