<?xml version="1.0" encoding="UTF-8" standalone="no"?>
<!DOCTYPE svg PUBLIC "-//W3C//DTD SVG 1.1//EN"
 "http://www.w3.org/Graphics/SVG/1.1/DTD/svg11.dtd">
<!-- Generated by graphviz version 2.36.0 (20140111.2315)
 -->
<!-- Title: /Users/tgil/git/CoActionOS/CoActionOS/include/hwpl.h Pages: 1 -->
<svg width="3094pt" height="200pt"
 viewBox="0.00 0.00 3094.00 200.00" xmlns="http://www.w3.org/2000/svg" xmlns:xlink="http://www.w3.org/1999/xlink">
<g id="graph0" class="graph" transform="scale(1 1) rotate(0) translate(4 196)">
<title>/Users/tgil/git/CoActionOS/CoActionOS/include/hwpl.h</title>
<!-- Node1 -->
<g id="node1" class="node"><title>Node1</title>
<polygon fill="#bfbfbf" stroke="black" points="1316.64,-153 1316.64,-191 1439.36,-191 1439.36,-153 1316.64,-153"/>
<text text-anchor="start" x="1324.64" y="-179" font-family="Helvetica,sans-Serif" font-size="10.00">/Users/tgil/git/CoAction</text>
<text text-anchor="start" x="1324.64" y="-169" font-family="Helvetica,sans-Serif" font-size="10.00">OS/CoActionOS/include</text>
<text text-anchor="middle" x="1378" y="-159" font-family="Helvetica,sans-Serif" font-size="10.00">/hwpl.h</text>
</g>
<!-- Node2 -->
<g id="node2" class="node"><title>Node2</title>
<g id="a_node2"><a xlink:href="disk_8h.html" target="_top" xlink:title="/Users/tgil/git/CoAction\lOS/CoActionOS/include\l/dev/disk.h">
<polygon fill="none" stroke="black" points="29.6406,-77 29.6406,-115 152.359,-115 152.359,-77 29.6406,-77"/>
<text text-anchor="start" x="37.6406" y="-103" font-family="Helvetica,sans-Serif" font-size="10.00">/Users/tgil/git/CoAction</text>
<text text-anchor="start" x="37.6406" y="-93" font-family="Helvetica,sans-Serif" font-size="10.00">OS/CoActionOS/include</text>
<text text-anchor="middle" x="91" y="-83" font-family="Helvetica,sans-Serif" font-size="10.00">/dev/disk.h</text>
</a>
</g>
</g>
<!-- Node1&#45;&gt;Node2 -->
<g id="edge1" class="edge"><title>Node1&#45;&gt;Node2</title>
<path fill="none" stroke="midnightblue" d="M1306.21,-169.99C1124.38,-166.911 631.06,-155.303 222,-116 199.239,-113.813 174.381,-110.456 152.495,-107.168"/>
<polygon fill="midnightblue" stroke="midnightblue" points="1306.39,-173.494 1316.44,-170.16 1306.5,-166.495 1306.39,-173.494"/>
</g>
<!-- Node4 -->
<g id="node4" class="node"><title>Node4</title>
<g id="a_node4"><a xlink:href="caos_8h.html" target="_top" xlink:title="/Users/tgil/git/CoAction\lOS/CoActionOS/include\l/caos.h">
<polygon fill="none" stroke="black" points="230.641,-77 230.641,-115 353.359,-115 353.359,-77 230.641,-77"/>
<text text-anchor="start" x="238.641" y="-103" font-family="Helvetica,sans-Serif" font-size="10.00">/Users/tgil/git/CoAction</text>
<text text-anchor="start" x="238.641" y="-93" font-family="Helvetica,sans-Serif" font-size="10.00">OS/CoActionOS/include</text>
<text text-anchor="middle" x="292" y="-83" font-family="Helvetica,sans-Serif" font-size="10.00">/caos.h</text>
</a>
</g>
</g>
<!-- Node1&#45;&gt;Node4 -->
<g id="edge3" class="edge"><title>Node1&#45;&gt;Node4</title>
<path fill="none" stroke="midnightblue" d="M1306.27,-167.438C1154.82,-159.726 791.313,-140.21 487,-116 442.242,-112.439 391.796,-107.499 353.428,-103.549"/>
<polygon fill="midnightblue" stroke="midnightblue" points="1306.21,-170.939 1316.37,-167.951 1306.56,-163.948 1306.21,-170.939"/>
</g>
<!-- Node5 -->
<g id="node5" class="node"><title>Node5</title>
<g id="a_node5"><a xlink:href="pthread__kill_8c.html" target="_top" xlink:title="/Users/tgil/git/CoAction\lOS/CoActionOS/src/sys\l/signal/pthread_kill.c">
<polygon fill="none" stroke="black" points="139.931,-1 139.931,-39 262.069,-39 262.069,-1 139.931,-1"/>
<text text-anchor="start" x="147.931" y="-27" font-family="Helvetica,sans-Serif" font-size="10.00">/Users/tgil/git/CoAction</text>
<text text-anchor="start" x="147.931" y="-17" font-family="Helvetica,sans-Serif" font-size="10.00">OS/CoActionOS/src/sys</text>
<text text-anchor="middle" x="201" y="-7" font-family="Helvetica,sans-Serif" font-size="10.00">/signal/pthread_kill.c</text>
</a>
</g>
</g>
<!-- Node1&#45;&gt;Node5 -->
<g id="edge17" class="edge"><title>Node1&#45;&gt;Node5</title>
<path fill="none" stroke="midnightblue" d="M1306.1,-170.824C1162.67,-169.454 831.165,-161.177 557,-116 448.123,-98.0593 324.335,-61.1623 255.166,-39.0014"/>
<polygon fill="midnightblue" stroke="midnightblue" points="1306.48,-174.328 1316.51,-170.915 1306.54,-167.328 1306.48,-174.328"/>
</g>
<!-- Node6 -->
<g id="node6" class="node"><title>Node6</title>
<g id="a_node6"><a xlink:href="usb__dev_8h_source.html" target="_top" xlink:title="/Users/tgil/git/CoAction\lOS/CoActionOS/include\l/usb_dev.h">
<polygon fill="none" stroke="black" points="755.641,-77 755.641,-115 878.359,-115 878.359,-77 755.641,-77"/>
<text text-anchor="start" x="763.641" y="-103" font-family="Helvetica,sans-Serif" font-size="10.00">/Users/tgil/git/CoAction</text>
<text text-anchor="start" x="763.641" y="-93" font-family="Helvetica,sans-Serif" font-size="10.00">OS/CoActionOS/include</text>
<text text-anchor="middle" x="817" y="-83" font-family="Helvetica,sans-Serif" font-size="10.00">/usb_dev.h</text>
</a>
</g>
</g>
<!-- Node1&#45;&gt;Node6 -->
<g id="edge5" class="edge"><title>Node1&#45;&gt;Node6</title>
<path fill="none" stroke="midnightblue" d="M1306.28,-166.328C1210.37,-159.312 1035.31,-143.815 888,-116 884.865,-115.408 881.666,-114.751 878.444,-114.046"/>
<polygon fill="midnightblue" stroke="midnightblue" points="1306.22,-169.833 1316.45,-167.062 1306.73,-162.851 1306.22,-169.833"/>
</g>
<!-- Node7 -->
<g id="node7" class="node"><title>Node7</title>
<g id="a_node7"><a xlink:href="usb__dev__std__inline_8h_source.html" target="_top" xlink:title="/Users/tgil/git/CoAction\lOS/CoActionOS/include\l/usb_dev_std_inline.h">
<polygon fill="none" stroke="black" points="896.641,-77 896.641,-115 1019.36,-115 1019.36,-77 896.641,-77"/>
<text text-anchor="start" x="904.641" y="-103" font-family="Helvetica,sans-Serif" font-size="10.00">/Users/tgil/git/CoAction</text>
<text text-anchor="start" x="904.641" y="-93" font-family="Helvetica,sans-Serif" font-size="10.00">OS/CoActionOS/include</text>
<text text-anchor="middle" x="958" y="-83" font-family="Helvetica,sans-Serif" font-size="10.00">/usb_dev_std_inline.h</text>
</a>
</g>
</g>
<!-- Node1&#45;&gt;Node7 -->
<g id="edge6" class="edge"><title>Node1&#45;&gt;Node7</title>
<path fill="none" stroke="midnightblue" d="M1306.44,-162.083C1235.4,-152.686 1123.6,-136.422 1028,-116 1025.17,-115.395 1022.28,-114.745 1019.37,-114.064"/>
<polygon fill="midnightblue" stroke="midnightblue" points="1306.24,-165.588 1316.61,-163.419 1307.16,-158.647 1306.24,-165.588"/>
</g>
<!-- Node8 -->
<g id="node8" class="node"><title>Node8</title>
<g id="a_node8"><a xlink:href="pthread__self_8c.html" target="_top" xlink:title="/Users/tgil/git/CoAction\lOS/CoActionOS/src/sys\l/pthread/pthread_self.c">
<polygon fill="none" stroke="black" points="1036.93,-77 1036.93,-115 1159.07,-115 1159.07,-77 1036.93,-77"/>
<text text-anchor="start" x="1044.93" y="-103" font-family="Helvetica,sans-Serif" font-size="10.00">/Users/tgil/git/CoAction</text>
<text text-anchor="start" x="1044.93" y="-93" font-family="Helvetica,sans-Serif" font-size="10.00">OS/CoActionOS/src/sys</text>
<text text-anchor="middle" x="1098" y="-83" font-family="Helvetica,sans-Serif" font-size="10.00">/pthread/pthread_self.c</text>
</a>
</g>
</g>
<!-- Node1&#45;&gt;Node8 -->
<g id="edge7" class="edge"><title>Node1&#45;&gt;Node8</title>
<path fill="none" stroke="midnightblue" d="M1306.58,-152.463C1265.94,-141.871 1214.09,-128.29 1168,-116 1165.08,-115.221 1162.09,-114.422 1159.07,-113.612"/>
<polygon fill="midnightblue" stroke="midnightblue" points="1305.84,-155.886 1316.4,-155.019 1307.6,-149.112 1305.84,-155.886"/>
</g>
<!-- Node9 -->
<g id="node9" class="node"><title>Node9</title>
<g id="a_node9"><a xlink:href="sched__posix_8c.html" target="_top" xlink:title="/Users/tgil/git/CoAction\lOS/CoActionOS/src/sys\l/sched/sched_posix.c">
<polygon fill="none" stroke="black" points="1176.93,-77 1176.93,-115 1299.07,-115 1299.07,-77 1176.93,-77"/>
<text text-anchor="start" x="1184.93" y="-103" font-family="Helvetica,sans-Serif" font-size="10.00">/Users/tgil/git/CoAction</text>
<text text-anchor="start" x="1184.93" y="-93" font-family="Helvetica,sans-Serif" font-size="10.00">OS/CoActionOS/src/sys</text>
<text text-anchor="middle" x="1238" y="-83" font-family="Helvetica,sans-Serif" font-size="10.00">/sched/sched_posix.c</text>
</a>
</g>
</g>
<!-- Node1&#45;&gt;Node9 -->
<g id="edge8" class="edge"><title>Node1&#45;&gt;Node9</title>
<path fill="none" stroke="midnightblue" d="M1334.81,-148.169C1314.74,-137.563 1291.21,-125.128 1272.38,-115.172"/>
<polygon fill="midnightblue" stroke="midnightblue" points="1333.28,-151.319 1343.75,-152.898 1336.55,-145.13 1333.28,-151.319"/>
</g>
<!-- Node10 -->
<g id="node10" class="node"><title>Node10</title>
<g id="a_node10"><a xlink:href="sig__local_8h_source.html" target="_top" xlink:title="/Users/tgil/git/CoAction\lOS/CoActionOS/src/sys\l/signal/sig_local.h">
<polygon fill="none" stroke="black" points="565.931,-77 565.931,-115 688.069,-115 688.069,-77 565.931,-77"/>
<text text-anchor="start" x="573.931" y="-103" font-family="Helvetica,sans-Serif" font-size="10.00">/Users/tgil/git/CoAction</text>
<text text-anchor="start" x="573.931" y="-93" font-family="Helvetica,sans-Serif" font-size="10.00">OS/CoActionOS/src/sys</text>
<text text-anchor="middle" x="627" y="-83" font-family="Helvetica,sans-Serif" font-size="10.00">/signal/sig_local.h</text>
</a>
</g>
</g>
<!-- Node1&#45;&gt;Node10 -->
<g id="edge9" class="edge"><title>Node1&#45;&gt;Node10</title>
<path fill="none" stroke="midnightblue" d="M1306.01,-168.162C1183.75,-162.645 927.972,-148.082 714,-116 705.591,-114.739 696.779,-113.143 688.126,-111.414"/>
<polygon fill="midnightblue" stroke="midnightblue" points="1306.21,-171.674 1316.35,-168.621 1306.52,-164.681 1306.21,-171.674"/>
</g>
<!-- Node13 -->
<g id="node13" class="node"><title>Node13</title>
<g id="a_node13"><a xlink:href="sig__realtime_8c.html" target="_top" xlink:title="/Users/tgil/git/CoAction\lOS/CoActionOS/src/sys\l/signal/sig_realtime.c">
<polygon fill="none" stroke="black" points="979.931,-1 979.931,-39 1102.07,-39 1102.07,-1 979.931,-1"/>
<text text-anchor="start" x="987.931" y="-27" font-family="Helvetica,sans-Serif" font-size="10.00">/Users/tgil/git/CoAction</text>
<text text-anchor="start" x="987.931" y="-17" font-family="Helvetica,sans-Serif" font-size="10.00">OS/CoActionOS/src/sys</text>
<text text-anchor="middle" x="1041" y="-7" font-family="Helvetica,sans-Serif" font-size="10.00">/signal/sig_realtime.c</text>
</a>
</g>
</g>
<!-- Node1&#45;&gt;Node13 -->
<g id="edge18" class="edge"><title>Node1&#45;&gt;Node13</title>
<path fill="none" stroke="midnightblue" d="M1306.5,-170.084C1149.22,-167.326 784.194,-156.577 747,-116 626.655,15.2904 604.642,-118.928 971,-40 973.831,-39.39 976.719,-38.7363 979.63,-38.0516"/>
<polygon fill="midnightblue" stroke="midnightblue" points="1306.5,-173.584 1316.55,-170.254 1306.61,-166.585 1306.5,-173.584"/>
</g>
<!-- Node17 -->
<g id="node17" class="node"><title>Node17</title>
<g id="a_node17"><a xlink:href="__gettimeofday_8c.html" target="_top" xlink:title="/Users/tgil/git/CoAction\lOS/CoActionOS/src/sys\l/time/_gettimeofday.c">
<polygon fill="none" stroke="black" points="1316.93,-77 1316.93,-115 1439.07,-115 1439.07,-77 1316.93,-77"/>
<text text-anchor="start" x="1324.93" y="-103" font-family="Helvetica,sans-Serif" font-size="10.00">/Users/tgil/git/CoAction</text>
<text text-anchor="start" x="1324.93" y="-93" font-family="Helvetica,sans-Serif" font-size="10.00">OS/CoActionOS/src/sys</text>
<text text-anchor="middle" x="1378" y="-83" font-family="Helvetica,sans-Serif" font-size="10.00">/time/_gettimeofday.c</text>
</a>
</g>
</g>
<!-- Node1&#45;&gt;Node17 -->
<g id="edge19" class="edge"><title>Node1&#45;&gt;Node17</title>
<path fill="none" stroke="midnightblue" d="M1378,-142.702C1378,-133.431 1378,-123.387 1378,-115.082"/>
<polygon fill="midnightblue" stroke="midnightblue" points="1374.5,-142.708 1378,-152.708 1381.5,-142.708 1374.5,-142.708"/>
</g>
<!-- Node18 -->
<g id="node18" class="node"><title>Node18</title>
<g id="a_node18"><a xlink:href="__settimeofday_8c.html" target="_top" xlink:title="/Users/tgil/git/CoAction\lOS/CoActionOS/src/sys\l/time/_settimeofday.c">
<polygon fill="none" stroke="black" points="1456.93,-77 1456.93,-115 1579.07,-115 1579.07,-77 1456.93,-77"/>
<text text-anchor="start" x="1464.93" y="-103" font-family="Helvetica,sans-Serif" font-size="10.00">/Users/tgil/git/CoAction</text>
<text text-anchor="start" x="1464.93" y="-93" font-family="Helvetica,sans-Serif" font-size="10.00">OS/CoActionOS/src/sys</text>
<text text-anchor="middle" x="1518" y="-83" font-family="Helvetica,sans-Serif" font-size="10.00">/time/_settimeofday.c</text>
</a>
</g>
</g>
<!-- Node1&#45;&gt;Node18 -->
<g id="edge20" class="edge"><title>Node1&#45;&gt;Node18</title>
<path fill="none" stroke="midnightblue" d="M1421.19,-148.169C1441.26,-137.563 1464.79,-125.128 1483.62,-115.172"/>
<polygon fill="midnightblue" stroke="midnightblue" points="1419.45,-145.13 1412.25,-152.898 1422.72,-151.319 1419.45,-145.13"/>
</g>
<!-- Node19 -->
<g id="node19" class="node"><title>Node19</title>
<g id="a_node19"><a xlink:href="hibernate_8c.html" target="_top" xlink:title="/Users/tgil/git/CoAction\lOS/CoActionOS/src/sys\l/time/hibernate.c">
<polygon fill="none" stroke="black" points="1596.93,-77 1596.93,-115 1719.07,-115 1719.07,-77 1596.93,-77"/>
<text text-anchor="start" x="1604.93" y="-103" font-family="Helvetica,sans-Serif" font-size="10.00">/Users/tgil/git/CoAction</text>
<text text-anchor="start" x="1604.93" y="-93" font-family="Helvetica,sans-Serif" font-size="10.00">OS/CoActionOS/src/sys</text>
<text text-anchor="middle" x="1658" y="-83" font-family="Helvetica,sans-Serif" font-size="10.00">/time/hibernate.c</text>
</a>
</g>
</g>
<!-- Node1&#45;&gt;Node19 -->
<g id="edge21" class="edge"><title>Node1&#45;&gt;Node19</title>
<path fill="none" stroke="midnightblue" d="M1449.42,-152.463C1490.06,-141.871 1541.91,-128.29 1588,-116 1590.92,-115.221 1593.91,-114.422 1596.93,-113.612"/>
<polygon fill="midnightblue" stroke="midnightblue" points="1448.4,-149.112 1439.6,-155.019 1450.16,-155.886 1448.4,-149.112"/>
</g>
<!-- Node20 -->
<g id="node20" class="node"><title>Node20</title>
<g id="a_node20"><a xlink:href="__close_8c.html" target="_top" xlink:title="/Users/tgil/git/CoAction\lOS/CoActionOS/src/sys\l/unistd/_close.c">
<polygon fill="none" stroke="black" points="1119.93,-1 1119.93,-39 1242.07,-39 1242.07,-1 1119.93,-1"/>
<text text-anchor="start" x="1127.93" y="-27" font-family="Helvetica,sans-Serif" font-size="10.00">/Users/tgil/git/CoAction</text>
<text text-anchor="start" x="1127.93" y="-17" font-family="Helvetica,sans-Serif" font-size="10.00">OS/CoActionOS/src/sys</text>
<text text-anchor="middle" x="1181" y="-7" font-family="Helvetica,sans-Serif" font-size="10.00">/unistd/_close.c</text>
</a>
</g>
</g>
<!-- Node1&#45;&gt;Node20 -->
<g id="edge22" class="edge"><title>Node1&#45;&gt;Node20</title>
<path fill="none" stroke="midnightblue" d="M1449.77,-170.27C1541.58,-167.638 1692.94,-157.004 1728,-116 1739.55,-102.489 1740.09,-89.0352 1728,-76 1691.86,-37.0282 1303.38,-49.0019 1251,-40 1248.15,-39.5095 1245.24,-38.9537 1242.31,-38.3484"/>
<polygon fill="midnightblue" stroke="midnightblue" points="1449.61,-166.773 1439.71,-170.534 1449.8,-173.771 1449.61,-166.773"/>
</g>
<!-- Node21 -->
<g id="node21" class="node"><title>Node21</title>
<g id="a_node21"><a xlink:href="unistd__flags_8h_source.html" target="_top" xlink:title="/Users/tgil/git/CoAction\lOS/CoActionOS/src/sys\l/unistd/unistd_flags.h">
<polygon fill="none" stroke="black" points="1819.93,-77 1819.93,-115 1942.07,-115 1942.07,-77 1819.93,-77"/>
<text text-anchor="start" x="1827.93" y="-103" font-family="Helvetica,sans-Serif" font-size="10.00">/Users/tgil/git/CoAction</text>
<text text-anchor="start" x="1827.93" y="-93" font-family="Helvetica,sans-Serif" font-size="10.00">OS/CoActionOS/src/sys</text>
<text text-anchor="middle" x="1881" y="-83" font-family="Helvetica,sans-Serif" font-size="10.00">/unistd/unistd_flags.h</text>
</a>
</g>
</g>
<!-- Node1&#45;&gt;Node21 -->
<g id="edge23" class="edge"><title>Node1&#45;&gt;Node21</title>
<path fill="none" stroke="midnightblue" d="M1449.6,-163.804C1533.63,-154.861 1677.02,-138.045 1799,-116 1805.76,-114.779 1812.8,-113.365 1819.79,-111.871"/>
<polygon fill="midnightblue" stroke="midnightblue" points="1449.22,-160.324 1439.65,-164.856 1449.96,-167.285 1449.22,-160.324"/>
</g>
<!-- Node27 -->
<g id="node27" class="node"><title>Node27</title>
<g id="a_node27"><a xlink:href="__open_8c.html" target="_top" xlink:title="/Users/tgil/git/CoAction\lOS/CoActionOS/src/sys\l/unistd/_open.c">
<polygon fill="none" stroke="black" points="1259.93,-1 1259.93,-39 1382.07,-39 1382.07,-1 1259.93,-1"/>
<text text-anchor="start" x="1267.93" y="-27" font-family="Helvetica,sans-Serif" font-size="10.00">/Users/tgil/git/CoAction</text>
<text text-anchor="start" x="1267.93" y="-17" font-family="Helvetica,sans-Serif" font-size="10.00">OS/CoActionOS/src/sys</text>
<text text-anchor="middle" x="1321" y="-7" font-family="Helvetica,sans-Serif" font-size="10.00">/unistd/_open.c</text>
</a>
</g>
</g>
<!-- Node1&#45;&gt;Node27 -->
<g id="edge40" class="edge"><title>Node1&#45;&gt;Node27</title>
<path fill="none" stroke="midnightblue" d="M1449.75,-171.405C1549.29,-170.26 1721.54,-161.535 1761,-116 1772.64,-102.565 1772.95,-89.1654 1761,-76 1705.49,-14.8225 1472.26,-54.8724 1391,-40 1388.15,-39.4786 1385.25,-38.8975 1382.33,-38.2717"/>
<polygon fill="midnightblue" stroke="midnightblue" points="1449.43,-167.907 1439.46,-171.499 1449.5,-174.907 1449.43,-167.907"/>
</g>
<!-- Node31 -->
<g id="node31" class="node"><title>Node31</title>
<g id="a_node31"><a xlink:href="ioctl_8c.html" target="_top" xlink:title="/Users/tgil/git/CoAction\lOS/CoActionOS/src/sys\l/unistd/ioctl.c">
<polygon fill="none" stroke="black" points="2799.93,-1 2799.93,-39 2922.07,-39 2922.07,-1 2799.93,-1"/>
<text text-anchor="start" x="2807.93" y="-27" font-family="Helvetica,sans-Serif" font-size="10.00">/Users/tgil/git/CoAction</text>
<text text-anchor="start" x="2807.93" y="-17" font-family="Helvetica,sans-Serif" font-size="10.00">OS/CoActionOS/src/sys</text>
<text text-anchor="middle" x="2861" y="-7" font-family="Helvetica,sans-Serif" font-size="10.00">/unistd/ioctl.c</text>
</a>
</g>
</g>
<!-- Node1&#45;&gt;Node31 -->
<g id="edge41" class="edge"><title>Node1&#45;&gt;Node31</title>
<path fill="none" stroke="midnightblue" d="M1449.61,-169.818C1582.82,-166.691 1863.16,-155.487 1951,-116 1974.81,-105.298 1969.93,-86.0971 1994,-76 2157.49,-7.41621 2615.84,-67.3862 2791,-40 2793.86,-39.5526 2796.77,-39.0323 2799.7,-38.4556"/>
<polygon fill="midnightblue" stroke="midnightblue" points="1449.42,-166.321 1439.5,-170.046 1449.58,-173.319 1449.42,-166.321"/>
</g>
<!-- Node34 -->
<g id="node34" class="node"><title>Node34</title>
<g id="a_node34"><a xlink:href="unistd__data__transfer_8c.html" target="_top" xlink:title="/Users/tgil/git/CoAction\lOS/CoActionOS/src/sys\l/unistd/unistd_data_transfer.c">
<polygon fill="none" stroke="black" points="2939.68,-1 2939.68,-39 3086.32,-39 3086.32,-1 2939.68,-1"/>
<text text-anchor="start" x="2947.68" y="-27" font-family="Helvetica,sans-Serif" font-size="10.00">/Users/tgil/git/CoAction</text>
<text text-anchor="start" x="2947.68" y="-17" font-family="Helvetica,sans-Serif" font-size="10.00">OS/CoActionOS/src/sys</text>
<text text-anchor="middle" x="3013" y="-7" font-family="Helvetica,sans-Serif" font-size="10.00">/unistd/unistd_data_transfer.c</text>
</a>
</g>
</g>
<!-- Node1&#45;&gt;Node34 -->
<g id="edge42" class="edge"><title>Node1&#45;&gt;Node34</title>
<path fill="none" stroke="midnightblue" d="M1449.56,-170.59C1589.37,-168.809 1893.31,-159.846 1987,-116 2009.77,-105.343 2003.97,-86.0816 2027,-76 2119.09,-35.6906 2831.37,-53.4046 2931,-40 2933.75,-39.6298 2936.55,-39.2098 2939.36,-38.7496"/>
<polygon fill="midnightblue" stroke="midnightblue" points="1449.34,-167.092 1439.38,-170.71 1449.42,-174.092 1449.34,-167.092"/>
</g>
<!-- Node35 -->
<g id="node35" class="node"><title>Node35</title>
<g id="a_node35"><a xlink:href="__getpid_8c.html" target="_top" xlink:title="/Users/tgil/git/CoAction\lOS/CoActionOS/src/sys\l/unistd/_getpid.c">
<polygon fill="none" stroke="black" points="2035.93,-77 2035.93,-115 2158.07,-115 2158.07,-77 2035.93,-77"/>
<text text-anchor="start" x="2043.93" y="-103" font-family="Helvetica,sans-Serif" font-size="10.00">/Users/tgil/git/CoAction</text>
<text text-anchor="start" x="2043.93" y="-93" font-family="Helvetica,sans-Serif" font-size="10.00">OS/CoActionOS/src/sys</text>
<text text-anchor="middle" x="2097" y="-83" font-family="Helvetica,sans-Serif" font-size="10.00">/unistd/_getpid.c</text>
</a>
</g>
</g>
<!-- Node1&#45;&gt;Node35 -->
<g id="edge38" class="edge"><title>Node1&#45;&gt;Node35</title>
<path fill="none" stroke="midnightblue" d="M1449.8,-168.684C1569.27,-163.979 1816.09,-150.637 2022,-116 2026.5,-115.242 2031.13,-114.351 2035.78,-113.374"/>
<polygon fill="midnightblue" stroke="midnightblue" points="1449.55,-165.191 1439.69,-169.074 1449.81,-172.186 1449.55,-165.191"/>
</g>
<!-- Node36 -->
<g id="node36" class="node"><title>Node36</title>
<g id="a_node36"><a xlink:href="__getppid_8c.html" target="_top" xlink:title="/Users/tgil/git/CoAction\lOS/CoActionOS/src/sys\l/unistd/_getppid.c">
<polygon fill="none" stroke="black" points="2175.93,-77 2175.93,-115 2298.07,-115 2298.07,-77 2175.93,-77"/>
<text text-anchor="start" x="2183.93" y="-103" font-family="Helvetica,sans-Serif" font-size="10.00">/Users/tgil/git/CoAction</text>
<text text-anchor="start" x="2183.93" y="-93" font-family="Helvetica,sans-Serif" font-size="10.00">OS/CoActionOS/src/sys</text>
<text text-anchor="middle" x="2237" y="-83" font-family="Helvetica,sans-Serif" font-size="10.00">/unistd/_getppid.c</text>
</a>
</g>
</g>
<!-- Node1&#45;&gt;Node36 -->
<g id="edge39" class="edge"><title>Node1&#45;&gt;Node36</title>
<path fill="none" stroke="midnightblue" d="M1449.47,-170.676C1588.6,-169.021 1905.13,-160.229 2167,-116 2169.86,-115.518 2172.76,-114.969 2175.69,-114.369"/>
<polygon fill="midnightblue" stroke="midnightblue" points="1449.32,-167.177 1439.36,-170.787 1449.4,-174.177 1449.32,-167.177"/>
</g>
<!-- Node3 -->
<g id="node3" class="node"><title>Node3</title>
<g id="a_node3"><a xlink:href="cafs__lite_8h_source.html" target="_top" xlink:title="/Users/tgil/git/CoAction\lOS/CoActionOS/include\l/cafs_lite.h">
<polygon fill="none" stroke="black" points="-0.359375,-1 -0.359375,-39 122.359,-39 122.359,-1 -0.359375,-1"/>
<text text-anchor="start" x="7.64062" y="-27" font-family="Helvetica,sans-Serif" font-size="10.00">/Users/tgil/git/CoAction</text>
<text text-anchor="start" x="7.64062" y="-17" font-family="Helvetica,sans-Serif" font-size="10.00">OS/CoActionOS/include</text>
<text text-anchor="middle" x="61" y="-7" font-family="Helvetica,sans-Serif" font-size="10.00">/cafs_lite.h</text>
</a>
</g>
</g>
<!-- Node2&#45;&gt;Node3 -->
<g id="edge2" class="edge"><title>Node2&#45;&gt;Node3</title>
<path fill="none" stroke="midnightblue" d="M79.77,-67.2994C75.9447,-57.8637 71.7696,-47.5651 68.3304,-39.0817"/>
<polygon fill="midnightblue" stroke="midnightblue" points="76.5836,-68.7555 83.5843,-76.7079 83.0707,-66.1255 76.5836,-68.7555"/>
</g>
<!-- Node4&#45;&gt;Node5 -->
<g id="edge4" class="edge"><title>Node4&#45;&gt;Node5</title>
<path fill="none" stroke="midnightblue" d="M261.561,-70.2473C249.023,-60.0519 234.766,-48.4581 223.236,-39.0817"/>
<polygon fill="midnightblue" stroke="midnightblue" points="259.539,-73.1142 269.506,-76.7079 263.955,-67.6832 259.539,-73.1142"/>
</g>
<!-- Node10&#45;&gt;Node5 -->
<g id="edge12" class="edge"><title>Node10&#45;&gt;Node5</title>
<path fill="none" stroke="midnightblue" d="M555.541,-82.641C542.081,-80.3801 528.116,-78.0799 515,-76 406.734,-58.832 378.306,-62.3966 271,-40 268.165,-39.4082 265.274,-38.7695 262.361,-38.0969"/>
<polygon fill="midnightblue" stroke="midnightblue" points="555.27,-86.1446 565.713,-84.3578 556.435,-79.2422 555.27,-86.1446"/>
</g>
<!-- Node11 -->
<g id="node11" class="node"><title>Node11</title>
<g id="a_node11"><a xlink:href="__kill_8c.html" target="_top" xlink:title="/Users/tgil/git/CoAction\lOS/CoActionOS/src/sys\l/signal/_kill.c">
<polygon fill="none" stroke="black" points="839.931,-1 839.931,-39 962.069,-39 962.069,-1 839.931,-1"/>
<text text-anchor="start" x="847.931" y="-27" font-family="Helvetica,sans-Serif" font-size="10.00">/Users/tgil/git/CoAction</text>
<text text-anchor="start" x="847.931" y="-17" font-family="Helvetica,sans-Serif" font-size="10.00">OS/CoActionOS/src/sys</text>
<text text-anchor="middle" x="901" y="-7" font-family="Helvetica,sans-Serif" font-size="10.00">/signal/_kill.c</text>
</a>
</g>
</g>
<!-- Node10&#45;&gt;Node11 -->
<g id="edge10" class="edge"><title>Node10&#45;&gt;Node11</title>
<path fill="none" stroke="midnightblue" d="M697.896,-75.9174C737.133,-65.3485 786.77,-51.9651 831,-40 833.917,-39.2108 836.903,-38.4026 839.918,-37.5859"/>
<polygon fill="midnightblue" stroke="midnightblue" points="696.9,-72.5609 688.155,-78.5412 698.721,-79.32 696.9,-72.5609"/>
</g>
<!-- Node12 -->
<g id="node12" class="node"><title>Node12</title>
<g id="a_node12"><a xlink:href="__wait_8c.html" target="_top" xlink:title="/Users/tgil/git/CoAction\lOS/CoActionOS/src/sys\l/signal/_wait.c">
<polygon fill="none" stroke="black" points="279.931,-1 279.931,-39 402.069,-39 402.069,-1 279.931,-1"/>
<text text-anchor="start" x="287.931" y="-27" font-family="Helvetica,sans-Serif" font-size="10.00">/Users/tgil/git/CoAction</text>
<text text-anchor="start" x="287.931" y="-17" font-family="Helvetica,sans-Serif" font-size="10.00">OS/CoActionOS/src/sys</text>
<text text-anchor="middle" x="341" y="-7" font-family="Helvetica,sans-Serif" font-size="10.00">/signal/_wait.c</text>
</a>
</g>
</g>
<!-- Node10&#45;&gt;Node12 -->
<g id="edge11" class="edge"><title>Node10&#45;&gt;Node12</title>
<path fill="none" stroke="midnightblue" d="M555.599,-77.1188C513.479,-66.4958 459.158,-52.6662 411,-40 408.199,-39.2633 405.336,-38.5056 402.445,-37.7366"/>
<polygon fill="midnightblue" stroke="midnightblue" points="554.932,-80.5601 565.484,-79.6096 556.643,-73.7722 554.932,-80.5601"/>
</g>
<!-- Node10&#45;&gt;Node13 -->
<g id="edge13" class="edge"><title>Node10&#45;&gt;Node13</title>
<path fill="none" stroke="midnightblue" d="M698.36,-78.9601C703.643,-77.9123 708.899,-76.9128 714,-76 827.534,-55.6811 858.01,-63.1522 971,-40 973.837,-39.4186 976.73,-38.7883 979.645,-38.1226"/>
<polygon fill="midnightblue" stroke="midnightblue" points="697.301,-75.6035 688.199,-81.0245 698.695,-82.4633 697.301,-75.6035"/>
</g>
<!-- Node14 -->
<g id="node14" class="node"><title>Node14</title>
<g id="a_node14"><a xlink:href="signal_8c.html" target="_top" xlink:title="/Users/tgil/git/CoAction\lOS/CoActionOS/src/sys\l/signal/signal.c">
<polygon fill="none" stroke="black" points="419.931,-1 419.931,-39 542.069,-39 542.069,-1 419.931,-1"/>
<text text-anchor="start" x="427.931" y="-27" font-family="Helvetica,sans-Serif" font-size="10.00">/Users/tgil/git/CoAction</text>
<text text-anchor="start" x="427.931" y="-17" font-family="Helvetica,sans-Serif" font-size="10.00">OS/CoActionOS/src/sys</text>
<text text-anchor="middle" x="481" y="-7" font-family="Helvetica,sans-Serif" font-size="10.00">/signal/signal.c</text>
</a>
</g>
</g>
<!-- Node10&#45;&gt;Node14 -->
<g id="edge14" class="edge"><title>Node10&#45;&gt;Node14</title>
<path fill="none" stroke="midnightblue" d="M582.203,-72.2945C561.134,-61.6158 536.362,-49.0601 516.6,-39.0436"/>
<polygon fill="midnightblue" stroke="midnightblue" points="580.782,-75.4985 591.284,-76.8976 583.947,-69.2547 580.782,-75.4985"/>
</g>
<!-- Node15 -->
<g id="node15" class="node"><title>Node15</title>
<g id="a_node15"><a xlink:href="signal__handler_8c.html" target="_top" xlink:title="/Users/tgil/git/CoAction\lOS/CoActionOS/src/sys\l/signal/signal_handler.c">
<polygon fill="none" stroke="black" points="559.931,-1 559.931,-39 682.069,-39 682.069,-1 559.931,-1"/>
<text text-anchor="start" x="567.931" y="-27" font-family="Helvetica,sans-Serif" font-size="10.00">/Users/tgil/git/CoAction</text>
<text text-anchor="start" x="567.931" y="-17" font-family="Helvetica,sans-Serif" font-size="10.00">OS/CoActionOS/src/sys</text>
<text text-anchor="middle" x="621" y="-7" font-family="Helvetica,sans-Serif" font-size="10.00">/signal/signal_handler.c</text>
</a>
</g>
</g>
<!-- Node10&#45;&gt;Node15 -->
<g id="edge15" class="edge"><title>Node10&#45;&gt;Node15</title>
<path fill="none" stroke="midnightblue" d="M624.706,-66.7024C623.954,-57.4309 623.139,-47.3865 622.466,-39.0817"/>
<polygon fill="midnightblue" stroke="midnightblue" points="621.22,-67.0235 625.517,-76.7079 628.197,-66.4577 621.22,-67.0235"/>
</g>
<!-- Node16 -->
<g id="node16" class="node"><title>Node16</title>
<g id="a_node16"><a xlink:href="__exit_8c.html" target="_top" xlink:title="/Users/tgil/git/CoAction\lOS/CoActionOS/src/sys\l/unistd/_exit.c">
<polygon fill="none" stroke="black" points="699.931,-1 699.931,-39 822.069,-39 822.069,-1 699.931,-1"/>
<text text-anchor="start" x="707.931" y="-27" font-family="Helvetica,sans-Serif" font-size="10.00">/Users/tgil/git/CoAction</text>
<text text-anchor="start" x="707.931" y="-17" font-family="Helvetica,sans-Serif" font-size="10.00">OS/CoActionOS/src/sys</text>
<text text-anchor="middle" x="761" y="-7" font-family="Helvetica,sans-Serif" font-size="10.00">/unistd/_exit.c</text>
</a>
</g>
</g>
<!-- Node10&#45;&gt;Node16 -->
<g id="edge16" class="edge"><title>Node10&#45;&gt;Node16</title>
<path fill="none" stroke="midnightblue" d="M668.603,-72.0254C687.751,-61.4512 710.147,-49.083 728.094,-39.172"/>
<polygon fill="midnightblue" stroke="midnightblue" points="666.842,-68.9994 659.78,-76.8976 670.226,-75.1271 666.842,-68.9994"/>
</g>
<!-- Node21&#45;&gt;Node20 -->
<g id="edge24" class="edge"><title>Node21&#45;&gt;Node20</title>
<path fill="none" stroke="midnightblue" d="M1809.47,-82.6354C1793.55,-80.1736 1776.73,-77.797 1761,-76 1535.24,-50.2081 1475.04,-77.941 1251,-40 1248.14,-39.5164 1245.24,-38.9663 1242.31,-38.3657"/>
<polygon fill="midnightblue" stroke="midnightblue" points="1809.36,-86.161 1819.78,-84.2603 1810.45,-79.2463 1809.36,-86.161"/>
</g>
<!-- Node22 -->
<g id="node22" class="node"><title>Node22</title>
<g id="a_node22"><a xlink:href="__fcntl_8c.html" target="_top" xlink:title="/Users/tgil/git/CoAction\lOS/CoActionOS/src/sys\l/unistd/_fcntl.c">
<polygon fill="none" stroke="black" points="1959.93,-1 1959.93,-39 2082.07,-39 2082.07,-1 1959.93,-1"/>
<text text-anchor="start" x="1967.93" y="-27" font-family="Helvetica,sans-Serif" font-size="10.00">/Users/tgil/git/CoAction</text>
<text text-anchor="start" x="1967.93" y="-17" font-family="Helvetica,sans-Serif" font-size="10.00">OS/CoActionOS/src/sys</text>
<text text-anchor="middle" x="2021" y="-7" font-family="Helvetica,sans-Serif" font-size="10.00">/unistd/_fcntl.c</text>
</a>
</g>
</g>
<!-- Node21&#45;&gt;Node22 -->
<g id="edge25" class="edge"><title>Node21&#45;&gt;Node22</title>
<path fill="none" stroke="midnightblue" d="M1924.19,-72.1689C1944.26,-61.5631 1967.79,-49.1279 1986.62,-39.172"/>
<polygon fill="midnightblue" stroke="midnightblue" points="1922.45,-69.1301 1915.25,-76.8976 1925.72,-75.3188 1922.45,-69.1301"/>
</g>
<!-- Node23 -->
<g id="node23" class="node"><title>Node23</title>
<g id="a_node23"><a xlink:href="__fstat_8c.html" target="_top" xlink:title="/Users/tgil/git/CoAction\lOS/CoActionOS/src/sys\l/unistd/_fstat.c">
<polygon fill="none" stroke="black" points="2099.93,-1 2099.93,-39 2222.07,-39 2222.07,-1 2099.93,-1"/>
<text text-anchor="start" x="2107.93" y="-27" font-family="Helvetica,sans-Serif" font-size="10.00">/Users/tgil/git/CoAction</text>
<text text-anchor="start" x="2107.93" y="-17" font-family="Helvetica,sans-Serif" font-size="10.00">OS/CoActionOS/src/sys</text>
<text text-anchor="middle" x="2161" y="-7" font-family="Helvetica,sans-Serif" font-size="10.00">/unistd/_fstat.c</text>
</a>
</g>
</g>
<!-- Node21&#45;&gt;Node23 -->
<g id="edge26" class="edge"><title>Node21&#45;&gt;Node23</title>
<path fill="none" stroke="midnightblue" d="M1951.98,-76.5788C1992.69,-65.9705 2044.74,-52.335 2091,-40 2093.92,-39.2213 2096.91,-38.4216 2099.93,-37.6117"/>
<polygon fill="midnightblue" stroke="midnightblue" points="1950.94,-73.2313 1942.15,-79.1387 1952.71,-80.0053 1950.94,-73.2313"/>
</g>
<!-- Node24 -->
<g id="node24" class="node"><title>Node24</title>
<g id="a_node24"><a xlink:href="__isatty_8c.html" target="_top" xlink:title="/Users/tgil/git/CoAction\lOS/CoActionOS/src/sys\l/unistd/_isatty.c">
<polygon fill="none" stroke="black" points="2239.93,-1 2239.93,-39 2362.07,-39 2362.07,-1 2239.93,-1"/>
<text text-anchor="start" x="2247.93" y="-27" font-family="Helvetica,sans-Serif" font-size="10.00">/Users/tgil/git/CoAction</text>
<text text-anchor="start" x="2247.93" y="-17" font-family="Helvetica,sans-Serif" font-size="10.00">OS/CoActionOS/src/sys</text>
<text text-anchor="middle" x="2301" y="-7" font-family="Helvetica,sans-Serif" font-size="10.00">/unistd/_isatty.c</text>
</a>
</g>
</g>
<!-- Node21&#45;&gt;Node24 -->
<g id="edge27" class="edge"><title>Node21&#45;&gt;Node24</title>
<path fill="none" stroke="midnightblue" d="M1952.19,-76.7489C1953.47,-76.4915 1954.74,-76.2415 1956,-76 2077.07,-52.8243 2110.13,-64.1997 2231,-40 2233.84,-39.4314 2236.73,-38.8116 2239.65,-38.1544"/>
<polygon fill="midnightblue" stroke="midnightblue" points="1951.32,-73.3549 1942.26,-78.8536 1952.77,-80.2026 1951.32,-73.3549"/>
</g>
<!-- Node25 -->
<g id="node25" class="node"><title>Node25</title>
<g id="a_node25"><a xlink:href="__link_8c.html" target="_top" xlink:title="/Users/tgil/git/CoAction\lOS/CoActionOS/src/sys\l/unistd/_link.c">
<polygon fill="none" stroke="black" points="2379.93,-1 2379.93,-39 2502.07,-39 2502.07,-1 2379.93,-1"/>
<text text-anchor="start" x="2387.93" y="-27" font-family="Helvetica,sans-Serif" font-size="10.00">/Users/tgil/git/CoAction</text>
<text text-anchor="start" x="2387.93" y="-17" font-family="Helvetica,sans-Serif" font-size="10.00">OS/CoActionOS/src/sys</text>
<text text-anchor="middle" x="2441" y="-7" font-family="Helvetica,sans-Serif" font-size="10.00">/unistd/_link.c</text>
</a>
</g>
</g>
<!-- Node21&#45;&gt;Node25 -->
<g id="edge28" class="edge"><title>Node21&#45;&gt;Node25</title>
<path fill="none" stroke="midnightblue" d="M1952.17,-76.6722C1953.46,-76.4384 1954.73,-76.2139 1956,-76 2138.55,-45.1668 2188.72,-72.3773 2371,-40 2373.85,-39.4935 2376.76,-38.9246 2379.68,-38.3087"/>
<polygon fill="midnightblue" stroke="midnightblue" points="1951.36,-73.2654 1942.22,-78.6323 1952.71,-80.1334 1951.36,-73.2654"/>
</g>
<!-- Node26 -->
<g id="node26" class="node"><title>Node26</title>
<g id="a_node26"><a xlink:href="__lseek_8c.html" target="_top" xlink:title="/Users/tgil/git/CoAction\lOS/CoActionOS/src/sys\l/unistd/_lseek.c">
<polygon fill="none" stroke="black" points="2519.93,-1 2519.93,-39 2642.07,-39 2642.07,-1 2519.93,-1"/>
<text text-anchor="start" x="2527.93" y="-27" font-family="Helvetica,sans-Serif" font-size="10.00">/Users/tgil/git/CoAction</text>
<text text-anchor="start" x="2527.93" y="-17" font-family="Helvetica,sans-Serif" font-size="10.00">OS/CoActionOS/src/sys</text>
<text text-anchor="middle" x="2581" y="-7" font-family="Helvetica,sans-Serif" font-size="10.00">/unistd/_lseek.c</text>
</a>
</g>
</g>
<!-- Node21&#45;&gt;Node26 -->
<g id="edge29" class="edge"><title>Node21&#45;&gt;Node26</title>
<path fill="none" stroke="midnightblue" d="M1952.17,-76.6339C1953.45,-76.4118 1954.73,-76.2001 1956,-76 2200.17,-37.487 2267.17,-80.5784 2511,-40 2513.86,-39.5245 2516.77,-38.9812 2519.69,-38.3859"/>
<polygon fill="midnightblue" stroke="midnightblue" points="1951.38,-73.2209 1942.21,-78.5217 1952.68,-80.0985 1951.38,-73.2209"/>
</g>
<!-- Node21&#45;&gt;Node27 -->
<g id="edge30" class="edge"><title>Node21&#45;&gt;Node27</title>
<path fill="none" stroke="midnightblue" d="M1809.99,-77.9084C1806.28,-77.216 1802.6,-76.5736 1799,-76 1619.23,-47.3848 1570.21,-71.9676 1391,-40 1388.15,-39.4914 1385.24,-38.9208 1382.32,-38.3035"/>
<polygon fill="midnightblue" stroke="midnightblue" points="1809.35,-81.3495 1819.84,-79.8449 1810.7,-74.481 1809.35,-81.3495"/>
</g>
<!-- Node28 -->
<g id="node28" class="node"><title>Node28</title>
<g id="a_node28"><a xlink:href="__read_8c.html" target="_top" xlink:title="/Users/tgil/git/CoAction\lOS/CoActionOS/src/sys\l/unistd/_read.c">
<polygon fill="none" stroke="black" points="2659.93,-1 2659.93,-39 2782.07,-39 2782.07,-1 2659.93,-1"/>
<text text-anchor="start" x="2667.93" y="-27" font-family="Helvetica,sans-Serif" font-size="10.00">/Users/tgil/git/CoAction</text>
<text text-anchor="start" x="2667.93" y="-17" font-family="Helvetica,sans-Serif" font-size="10.00">OS/CoActionOS/src/sys</text>
<text text-anchor="middle" x="2721" y="-7" font-family="Helvetica,sans-Serif" font-size="10.00">/unistd/_read.c</text>
</a>
</g>
</g>
<!-- Node21&#45;&gt;Node28 -->
<g id="edge31" class="edge"><title>Node21&#45;&gt;Node28</title>
<path fill="none" stroke="midnightblue" d="M1952.16,-76.6109C1953.45,-76.3959 1954.73,-76.1919 1956,-76 2261.83,-29.7989 2345.57,-88.7882 2651,-40 2653.86,-39.5432 2656.77,-39.015 2659.7,-38.4321"/>
<polygon fill="midnightblue" stroke="midnightblue" points="1951.39,-73.1943 1942.19,-78.4554 1952.66,-80.0774 1951.39,-73.1943"/>
</g>
<!-- Node29 -->
<g id="node29" class="node"><title>Node29</title>
<g id="a_node29"><a xlink:href="__symlink_8c.html" target="_top" xlink:title="/Users/tgil/git/CoAction\lOS/CoActionOS/src/sys\l/unistd/_symlink.c">
<polygon fill="none" stroke="black" points="1399.93,-1 1399.93,-39 1522.07,-39 1522.07,-1 1399.93,-1"/>
<text text-anchor="start" x="1407.93" y="-27" font-family="Helvetica,sans-Serif" font-size="10.00">/Users/tgil/git/CoAction</text>
<text text-anchor="start" x="1407.93" y="-17" font-family="Helvetica,sans-Serif" font-size="10.00">OS/CoActionOS/src/sys</text>
<text text-anchor="middle" x="1461" y="-7" font-family="Helvetica,sans-Serif" font-size="10.00">/unistd/_symlink.c</text>
</a>
</g>
</g>
<!-- Node21&#45;&gt;Node29 -->
<g id="edge32" class="edge"><title>Node21&#45;&gt;Node29</title>
<path fill="none" stroke="midnightblue" d="M1809.96,-78.1084C1806.26,-77.3637 1802.59,-76.6554 1799,-76 1680.77,-54.412 1648.8,-63.7922 1531,-40 1528.16,-39.4266 1525.27,-38.8029 1522.35,-38.1425"/>
<polygon fill="midnightblue" stroke="midnightblue" points="1809.28,-81.543 1819.79,-80.153 1810.71,-74.6897 1809.28,-81.543"/>
</g>
<!-- Node30 -->
<g id="node30" class="node"><title>Node30</title>
<g id="a_node30"><a xlink:href="__write_8c.html" target="_top" xlink:title="/Users/tgil/git/CoAction\lOS/CoActionOS/src/sys\l/unistd/_write.c">
<polygon fill="none" stroke="black" points="1539.93,-1 1539.93,-39 1662.07,-39 1662.07,-1 1539.93,-1"/>
<text text-anchor="start" x="1547.93" y="-27" font-family="Helvetica,sans-Serif" font-size="10.00">/Users/tgil/git/CoAction</text>
<text text-anchor="start" x="1547.93" y="-17" font-family="Helvetica,sans-Serif" font-size="10.00">OS/CoActionOS/src/sys</text>
<text text-anchor="middle" x="1601" y="-7" font-family="Helvetica,sans-Serif" font-size="10.00">/unistd/_write.c</text>
</a>
</g>
</g>
<!-- Node21&#45;&gt;Node30 -->
<g id="edge33" class="edge"><title>Node21&#45;&gt;Node30</title>
<path fill="none" stroke="midnightblue" d="M1810.02,-76.5788C1769.31,-65.9705 1717.26,-52.335 1671,-40 1668.08,-39.2213 1665.09,-38.4216 1662.07,-37.6117"/>
<polygon fill="midnightblue" stroke="midnightblue" points="1809.29,-80.0053 1819.85,-79.1387 1811.06,-73.2313 1809.29,-80.0053"/>
</g>
<!-- Node21&#45;&gt;Node31 -->
<g id="edge34" class="edge"><title>Node21&#45;&gt;Node31</title>
<path fill="none" stroke="midnightblue" d="M1952.16,-76.5956C1953.45,-76.3853 1954.73,-76.1864 1956,-76 2323.53,-22.1068 2423.94,-97.0022 2791,-40 2793.86,-39.5555 2796.77,-39.0376 2799.71,-38.4629"/>
<polygon fill="midnightblue" stroke="midnightblue" points="1951.4,-73.1766 1942.19,-78.4113 1952.65,-80.0634 1951.4,-73.1766"/>
</g>
<!-- Node32 -->
<g id="node32" class="node"><title>Node32</title>
<g id="a_node32"><a xlink:href="mkdir_8c.html" target="_top" xlink:title="/Users/tgil/git/CoAction\lOS/CoActionOS/src/sys\l/unistd/mkdir.c">
<polygon fill="none" stroke="black" points="1679.93,-1 1679.93,-39 1802.07,-39 1802.07,-1 1679.93,-1"/>
<text text-anchor="start" x="1687.93" y="-27" font-family="Helvetica,sans-Serif" font-size="10.00">/Users/tgil/git/CoAction</text>
<text text-anchor="start" x="1687.93" y="-17" font-family="Helvetica,sans-Serif" font-size="10.00">OS/CoActionOS/src/sys</text>
<text text-anchor="middle" x="1741" y="-7" font-family="Helvetica,sans-Serif" font-size="10.00">/unistd/mkdir.c</text>
</a>
</g>
</g>
<!-- Node21&#45;&gt;Node32 -->
<g id="edge35" class="edge"><title>Node21&#45;&gt;Node32</title>
<path fill="none" stroke="midnightblue" d="M1837.81,-72.1689C1817.74,-61.5631 1794.21,-49.1279 1775.38,-39.172"/>
<polygon fill="midnightblue" stroke="midnightblue" points="1836.28,-75.3188 1846.75,-76.8976 1839.55,-69.1301 1836.28,-75.3188"/>
</g>
<!-- Node33 -->
<g id="node33" class="node"><title>Node33</title>
<g id="a_node33"><a xlink:href="rmdir_8c.html" target="_top" xlink:title="/Users/tgil/git/CoAction\lOS/CoActionOS/src/sys\l/unistd/rmdir.c">
<polygon fill="none" stroke="black" points="1819.93,-1 1819.93,-39 1942.07,-39 1942.07,-1 1819.93,-1"/>
<text text-anchor="start" x="1827.93" y="-27" font-family="Helvetica,sans-Serif" font-size="10.00">/Users/tgil/git/CoAction</text>
<text text-anchor="start" x="1827.93" y="-17" font-family="Helvetica,sans-Serif" font-size="10.00">OS/CoActionOS/src/sys</text>
<text text-anchor="middle" x="1881" y="-7" font-family="Helvetica,sans-Serif" font-size="10.00">/unistd/rmdir.c</text>
</a>
</g>
</g>
<!-- Node21&#45;&gt;Node33 -->
<g id="edge36" class="edge"><title>Node21&#45;&gt;Node33</title>
<path fill="none" stroke="midnightblue" d="M1881,-66.7024C1881,-57.4309 1881,-47.3865 1881,-39.0817"/>
<polygon fill="midnightblue" stroke="midnightblue" points="1877.5,-66.7078 1881,-76.7079 1884.5,-66.7079 1877.5,-66.7078"/>
</g>
<!-- Node21&#45;&gt;Node34 -->
<g id="edge37" class="edge"><title>Node21&#45;&gt;Node34</title>
<path fill="none" stroke="midnightblue" d="M1952.06,-81.6258C1965.93,-79.4203 1980.38,-77.4003 1994,-76 2408.56,-33.3608 2517.93,-95.2835 2931,-40 2933.75,-39.6317 2936.55,-39.2134 2939.36,-38.7545"/>
<polygon fill="midnightblue" stroke="midnightblue" points="1951.39,-78.1884 1942.09,-83.2582 1952.52,-85.0964 1951.39,-78.1884"/>
</g>
</g>
</svg>
