<?xml version="1.0" encoding="UTF-8" standalone="no"?>
<!DOCTYPE svg PUBLIC "-//W3C//DTD SVG 1.1//EN"
 "http://www.w3.org/Graphics/SVG/1.1/DTD/svg11.dtd">
<!-- Generated by graphviz version 2.34.0 (20130907.0228)
 -->
<!-- Title: /Users/tgil/git/CoActionOS/CoActionOS/include/hwpl.h Pages: 1 -->
<svg width="473pt" height="170pt"
 viewBox="0.00 0.00 473.32 170.00" xmlns="http://www.w3.org/2000/svg" xmlns:xlink="http://www.w3.org/1999/xlink">
<g id="graph0" class="graph" transform="scale(1 1) rotate(0) translate(4 166)">
<title>/Users/tgil/git/CoActionOS/CoActionOS/include/hwpl.h</title>
<!-- Node1 -->
<g id="node1" class="node"><title>Node1</title>
<polygon fill="#bfbfbf" stroke="black" points="145.385,-117 145.385,-161 268.103,-161 268.103,-117 145.385,-117"/>
<text text-anchor="start" x="153.385" y="-147" font-family="Helvetica,sans-Serif" font-size="10.00">/Users/tgil/git/CoAction</text>
<text text-anchor="start" x="153.385" y="-135" font-family="Helvetica,sans-Serif" font-size="10.00">OS/CoActionOS/include</text>
<text text-anchor="middle" x="206.744" y="-123" font-family="Helvetica,sans-Serif" font-size="10.00">/hwpl.h</text>
</g>
<!-- Node2 -->
<g id="node2" class="node"><title>Node2</title>
<polygon fill="none" stroke="#bfbfbf" points="56.6233,-1 56.6233,-21 104.864,-21 104.864,-1 56.6233,-1"/>
<text text-anchor="middle" x="80.7439" y="-7" font-family="Helvetica,sans-Serif" font-size="10.00">stdint.h</text>
</g>
<!-- Node1&#45;&gt;Node2 -->
<g id="edge1" class="edge"><title>Node1&#45;&gt;Node2</title>
<path fill="none" stroke="midnightblue" d="M145.172,-128.587C92.2203,-119.084 21.7574,-102.586 4.74388,-80 -11.7414,-58.1152 19.4769,-37.8403 46.7486,-25.2262"/>
<polygon fill="midnightblue" stroke="midnightblue" points="48.4006,-28.3233 56.1457,-21.0938 45.5828,-21.9154 48.4006,-28.3233"/>
</g>
<!-- Node3 -->
<g id="node3" class="node"><title>Node3</title>
<polygon fill="none" stroke="#bfbfbf" points="13.9016,-59 13.9016,-79 61.5862,-79 61.5862,-59 13.9016,-59"/>
<text text-anchor="middle" x="37.7439" y="-65" font-family="Helvetica,sans-Serif" font-size="10.00">stdlib.h</text>
</g>
<!-- Node1&#45;&gt;Node3 -->
<g id="edge2" class="edge"><title>Node1&#45;&gt;Node3</title>
<path fill="none" stroke="midnightblue" d="M154.198,-116.857C126.558,-105.736 93.5699,-92.4625 69.7717,-82.887"/>
<polygon fill="midnightblue" stroke="midnightblue" points="70.7613,-79.5125 60.1776,-79.0266 68.1483,-86.0065 70.7613,-79.5125"/>
</g>
<!-- Node4 -->
<g id="node4" class="node"><title>Node4</title>
<polygon fill="none" stroke="#bfbfbf" points="79.3474,-59 79.3474,-79 128.14,-79 128.14,-59 79.3474,-59"/>
<text text-anchor="middle" x="103.744" y="-65" font-family="Helvetica,sans-Serif" font-size="10.00">string.h</text>
</g>
<!-- Node1&#45;&gt;Node4 -->
<g id="edge3" class="edge"><title>Node1&#45;&gt;Node4</title>
<path fill="none" stroke="midnightblue" d="M174.719,-116.857C158.926,-106.431 140.268,-94.1133 126.047,-84.7243"/>
<polygon fill="midnightblue" stroke="midnightblue" points="127.69,-81.6153 117.416,-79.0266 123.834,-87.4571 127.69,-81.6153"/>
</g>
<!-- Node5 -->
<g id="node5" class="node"><title>Node5</title>
<polygon fill="none" stroke="#bfbfbf" points="146.012,-59 146.012,-79 191.475,-79 191.475,-59 146.012,-59"/>
<text text-anchor="middle" x="168.744" y="-65" font-family="Helvetica,sans-Serif" font-size="10.00">stdio.h</text>
</g>
<!-- Node1&#45;&gt;Node5 -->
<g id="edge4" class="edge"><title>Node1&#45;&gt;Node5</title>
<path fill="none" stroke="midnightblue" d="M194.929,-116.857C189.8,-107.679 183.852,-97.0355 178.922,-88.2141"/>
<polygon fill="midnightblue" stroke="midnightblue" points="181.821,-86.226 173.887,-79.2039 175.71,-89.6408 181.821,-86.226"/>
</g>
<!-- Node6 -->
<g id="node6" class="node"><title>Node6</title>
<polygon fill="none" stroke="#bfbfbf" points="334.451,-1 334.451,-21 391.037,-21 391.037,-1 334.451,-1"/>
<text text-anchor="middle" x="362.744" y="-7" font-family="Helvetica,sans-Serif" font-size="10.00">stdbool.h</text>
</g>
<!-- Node1&#45;&gt;Node6 -->
<g id="edge5" class="edge"><title>Node1&#45;&gt;Node6</title>
<path fill="none" stroke="midnightblue" d="M268.116,-132.581C335.174,-125.239 436.227,-109.518 459.744,-80 480.477,-53.9756 436.261,-33.6856 400.91,-22.2762"/>
<polygon fill="midnightblue" stroke="midnightblue" points="401.822,-18.8951 391.235,-19.2963 399.762,-25.585 401.822,-18.8951"/>
</g>
<!-- Node7 -->
<g id="node7" class="node"><title>Node7</title>
<polygon fill="none" stroke="#bfbfbf" points="299.451,-59 299.451,-79 366.037,-79 366.037,-59 299.451,-59"/>
<text text-anchor="middle" x="332.744" y="-65" font-family="Helvetica,sans-Serif" font-size="10.00">hwpl/fault.h</text>
</g>
<!-- Node1&#45;&gt;Node7 -->
<g id="edge6" class="edge"><title>Node1&#45;&gt;Node7</title>
<path fill="none" stroke="midnightblue" d="M245.92,-116.857C265.791,-106.133 289.37,-93.4079 306.938,-83.9268"/>
<polygon fill="midnightblue" stroke="midnightblue" points="308.88,-86.856 316.018,-79.0266 305.556,-80.6959 308.88,-86.856"/>
</g>
<!-- Node8 -->
<g id="node8" class="node"><title>Node8</title>
<polygon fill="none" stroke="#bfbfbf" points="384.175,-59 384.175,-79 451.313,-79 451.313,-59 384.175,-59"/>
<text text-anchor="middle" x="417.744" y="-65" font-family="Helvetica,sans-Serif" font-size="10.00">hwpl/arch.h</text>
</g>
<!-- Node1&#45;&gt;Node8 -->
<g id="edge7" class="edge"><title>Node1&#45;&gt;Node8</title>
<path fill="none" stroke="midnightblue" d="M268.341,-118.149C304.562,-106.476 349.186,-92.0943 380.188,-82.1033"/>
<polygon fill="midnightblue" stroke="midnightblue" points="381.303,-85.4215 389.747,-79.0227 379.155,-78.7589 381.303,-85.4215"/>
</g>
<!-- Node9 -->
<g id="node9" class="node"><title>Node9</title>
<g id="a_node9"><a xlink:href="types_8h_source.html" target="_top" xlink:title="hwpl/types.h">
<polygon fill="none" stroke="black" points="209.951,-59 209.951,-79 281.537,-79 281.537,-59 209.951,-59"/>
<text text-anchor="middle" x="245.744" y="-65" font-family="Helvetica,sans-Serif" font-size="10.00">hwpl/types.h</text>
</a>
</g>
</g>
<!-- Node1&#45;&gt;Node9 -->
<g id="edge8" class="edge"><title>Node1&#45;&gt;Node9</title>
<path fill="none" stroke="midnightblue" d="M218.87,-116.857C224.19,-107.581 230.37,-96.8065 235.46,-87.9302"/>
<polygon fill="midnightblue" stroke="midnightblue" points="238.526,-89.6198 240.465,-79.2039 232.454,-86.1372 238.526,-89.6198"/>
</g>
<!-- Node9&#45;&gt;Node2 -->
<g id="edge9" class="edge"><title>Node9&#45;&gt;Node2</title>
<path fill="none" stroke="midnightblue" d="M218.867,-58.878C190.356,-49.2017 145.257,-33.8953 114.401,-23.4231"/>
<polygon fill="midnightblue" stroke="midnightblue" points="115.517,-20.1058 104.923,-20.2061 113.267,-26.7344 115.517,-20.1058"/>
</g>
<!-- Node9&#45;&gt;Node6 -->
<g id="edge10" class="edge"><title>Node9&#45;&gt;Node6</title>
<path fill="none" stroke="midnightblue" d="M264.802,-58.878C283.755,-49.8068 313.045,-35.7876 334.66,-25.4418"/>
<polygon fill="midnightblue" stroke="midnightblue" points="336.185,-28.5925 343.694,-21.1181 333.162,-22.2784 336.185,-28.5925"/>
</g>
</g>
</svg>
