<?xml version="1.0" encoding="UTF-8" standalone="no"?>
<!DOCTYPE svg PUBLIC "-//W3C//DTD SVG 1.1//EN"
 "http://www.w3.org/Graphics/SVG/1.1/DTD/svg11.dtd">
<!-- Generated by graphviz version 2.34.0 (20130907.0228)
 -->
<!-- Title: /Users/tgil/git/CoActionOS/CoActionOS/src/sys/unistd/ioctl.c Pages: 1 -->
<svg width="1067pt" height="344pt"
 viewBox="0.00 0.00 1066.51 344.00" xmlns="http://www.w3.org/2000/svg" xmlns:xlink="http://www.w3.org/1999/xlink">
<g id="graph0" class="graph" transform="scale(1 1) rotate(0) translate(4 340)">
<title>/Users/tgil/git/CoActionOS/CoActionOS/src/sys/unistd/ioctl.c</title>
<!-- Node1 -->
<g id="node1" class="node"><title>Node1</title>
<polygon fill="#bfbfbf" stroke="black" points="807.443,-291 807.443,-335 929.581,-335 929.581,-291 807.443,-291"/>
<text text-anchor="start" x="815.443" y="-321" font-family="Helvetica,sans-Serif" font-size="10.00">/Users/tgil/git/CoAction</text>
<text text-anchor="start" x="815.443" y="-309" font-family="Helvetica,sans-Serif" font-size="10.00">OS/CoActionOS/src/sys</text>
<text text-anchor="middle" x="868.512" y="-297" font-family="Helvetica,sans-Serif" font-size="10.00">/unistd/ioctl.c</text>
</g>
<!-- Node2 -->
<g id="node2" class="node"><title>Node2</title>
<g id="a_node2"><a xlink:href="config_8h.html" target="_top" xlink:title="config.h">
<polygon fill="none" stroke="black" points="632,-233 632,-253 683.024,-253 683.024,-233 632,-233"/>
<text text-anchor="middle" x="657.512" y="-239" font-family="Helvetica,sans-Serif" font-size="10.00">config.h</text>
</a>
</g>
</g>
<!-- Node1&#45;&gt;Node2 -->
<g id="edge1" class="edge"><title>Node1&#45;&gt;Node2</title>
<path fill="none" stroke="midnightblue" d="M807.199,-292.24C769.978,-280.245 723.802,-265.364 692.658,-255.327"/>
<polygon fill="midnightblue" stroke="midnightblue" points="693.696,-251.984 683.104,-252.248 691.549,-258.647 693.696,-251.984"/>
</g>
<!-- Node3 -->
<g id="node3" class="node"><title>Node3</title>
<g id="a_node3"><a xlink:href="hwpl_8h.html" target="_top" xlink:title="HWPL Header file (includes all other header files) ">
<polygon fill="none" stroke="black" points="717.059,-117 717.059,-137 761.965,-137 761.965,-117 717.059,-117"/>
<text text-anchor="middle" x="739.512" y="-123" font-family="Helvetica,sans-Serif" font-size="10.00">hwpl.h</text>
</a>
</g>
</g>
<!-- Node1&#45;&gt;Node3 -->
<g id="edge2" class="edge"><title>Node1&#45;&gt;Node3</title>
<path fill="none" stroke="midnightblue" d="M906.838,-290.817C929.222,-275.53 950.698,-253.82 937.512,-232 901.385,-172.218 818.259,-145.099 772.026,-134.259"/>
<polygon fill="midnightblue" stroke="midnightblue" points="772.728,-130.829 762.206,-132.071 771.206,-137.662 772.728,-130.829"/>
</g>
<!-- Node12 -->
<g id="node12" class="node"><title>Node12</title>
<polygon fill="none" stroke="#bfbfbf" points="810.67,-233 810.67,-253 858.354,-253 858.354,-233 810.67,-233"/>
<text text-anchor="middle" x="834.512" y="-239" font-family="Helvetica,sans-Serif" font-size="10.00">errno.h</text>
</g>
<!-- Node1&#45;&gt;Node12 -->
<g id="edge13" class="edge"><title>Node1&#45;&gt;Node12</title>
<path fill="none" stroke="midnightblue" d="M857.94,-290.857C853.352,-281.679 848.03,-271.036 843.619,-262.214"/>
<polygon fill="midnightblue" stroke="midnightblue" points="846.717,-260.583 839.114,-253.204 840.456,-263.713 846.717,-260.583"/>
</g>
<!-- Node13 -->
<g id="node13" class="node"><title>Node13</title>
<polygon fill="none" stroke="#bfbfbf" points="876.445,-233 876.445,-253 928.578,-253 928.578,-233 876.445,-233"/>
<text text-anchor="middle" x="902.512" y="-239" font-family="Helvetica,sans-Serif" font-size="10.00">stdarg.h</text>
</g>
<!-- Node1&#45;&gt;Node13 -->
<g id="edge14" class="edge"><title>Node1&#45;&gt;Node13</title>
<path fill="none" stroke="midnightblue" d="M879.083,-290.857C883.672,-281.679 888.994,-271.036 893.405,-262.214"/>
<polygon fill="midnightblue" stroke="midnightblue" points="896.568,-263.713 897.91,-253.204 890.307,-260.583 896.568,-263.713"/>
</g>
<!-- Node14 -->
<g id="node14" class="node"><title>Node14</title>
<g id="a_node14"><a xlink:href="unistd__flags_8h_source.html" target="_top" xlink:title="unistd_flags.h">
<polygon fill="none" stroke="black" points="700.657,-233 700.657,-253 778.366,-253 778.366,-233 700.657,-233"/>
<text text-anchor="middle" x="739.512" y="-239" font-family="Helvetica,sans-Serif" font-size="10.00">unistd_flags.h</text>
</a>
</g>
</g>
<!-- Node1&#45;&gt;Node14 -->
<g id="edge15" class="edge"><title>Node1&#45;&gt;Node14</title>
<path fill="none" stroke="midnightblue" d="M828.403,-290.857C808.059,-280.133 783.918,-267.408 765.932,-257.927"/>
<polygon fill="midnightblue" stroke="midnightblue" points="767.114,-254.594 756.636,-253.027 763.85,-260.786 767.114,-254.594"/>
</g>
<!-- Node22 -->
<g id="node22" class="node"><title>Node22</title>
<polygon fill="none" stroke="#bfbfbf" points="991.943,-233 991.943,-253 1059.08,-253 1059.08,-233 991.943,-233"/>
<text text-anchor="middle" x="1025.51" y="-239" font-family="Helvetica,sans-Serif" font-size="10.00">hwpl/core.h</text>
</g>
<!-- Node1&#45;&gt;Node22 -->
<g id="edge36" class="edge"><title>Node1&#45;&gt;Node22</title>
<path fill="none" stroke="midnightblue" d="M917.327,-290.857C942.889,-279.786 973.376,-266.581 995.462,-257.015"/>
<polygon fill="midnightblue" stroke="midnightblue" points="996.886,-260.213 1004.67,-253.027 994.104,-253.789 996.886,-260.213"/>
</g>
<!-- Node4 -->
<g id="node4" class="node"><title>Node4</title>
<polygon fill="none" stroke="#bfbfbf" points="541.391,-1 541.391,-21 589.632,-21 589.632,-1 541.391,-1"/>
<text text-anchor="middle" x="565.512" y="-7" font-family="Helvetica,sans-Serif" font-size="10.00">stdint.h</text>
</g>
<!-- Node3&#45;&gt;Node4 -->
<g id="edge3" class="edge"><title>Node3&#45;&gt;Node4</title>
<path fill="none" stroke="midnightblue" d="M762.114,-120.491C798.567,-110.575 863.824,-87.9334 838.512,-58 808.379,-22.3649 666.876,-14.3235 600.302,-12.5178"/>
<polygon fill="midnightblue" stroke="midnightblue" points="599.992,-9.0095 589.912,-12.2705 599.826,-16.0075 599.992,-9.0095"/>
</g>
<!-- Node5 -->
<g id="node5" class="node"><title>Node5</title>
<polygon fill="none" stroke="#bfbfbf" points="715.67,-59 715.67,-79 763.354,-79 763.354,-59 715.67,-59"/>
<text text-anchor="middle" x="739.512" y="-65" font-family="Helvetica,sans-Serif" font-size="10.00">stdlib.h</text>
</g>
<!-- Node3&#45;&gt;Node5 -->
<g id="edge4" class="edge"><title>Node3&#45;&gt;Node5</title>
<path fill="none" stroke="midnightblue" d="M739.512,-116.753C739.512,-109.25 739.512,-98.4238 739.512,-89.0781"/>
<polygon fill="midnightblue" stroke="midnightblue" points="743.012,-89.0752 739.512,-79.0752 736.012,-89.0752 743.012,-89.0752"/>
</g>
<!-- Node6 -->
<g id="node6" class="node"><title>Node6</title>
<polygon fill="none" stroke="#bfbfbf" points="781.115,-59 781.115,-79 829.908,-79 829.908,-59 781.115,-59"/>
<text text-anchor="middle" x="805.512" y="-65" font-family="Helvetica,sans-Serif" font-size="10.00">string.h</text>
</g>
<!-- Node3&#45;&gt;Node6 -->
<g id="edge5" class="edge"><title>Node3&#45;&gt;Node6</title>
<path fill="none" stroke="midnightblue" d="M750.41,-116.753C760.31,-108.353 775.12,-95.7874 786.893,-85.7976"/>
<polygon fill="midnightblue" stroke="midnightblue" points="789.455,-88.2138 794.816,-79.0752 784.927,-82.8762 789.455,-88.2138"/>
</g>
<!-- Node7 -->
<g id="node7" class="node"><title>Node7</title>
<polygon fill="none" stroke="#bfbfbf" points="885.78,-59 885.78,-79 931.243,-79 931.243,-59 885.78,-59"/>
<text text-anchor="middle" x="908.512" y="-65" font-family="Helvetica,sans-Serif" font-size="10.00">stdio.h</text>
</g>
<!-- Node3&#45;&gt;Node7 -->
<g id="edge6" class="edge"><title>Node3&#45;&gt;Node7</title>
<path fill="none" stroke="midnightblue" d="M762.304,-118.448C791.535,-108.762 842.428,-91.8977 875.793,-80.8419"/>
<polygon fill="midnightblue" stroke="midnightblue" points="877.15,-84.0794 885.541,-77.6116 874.948,-77.4347 877.15,-84.0794"/>
</g>
<!-- Node8 -->
<g id="node8" class="node"><title>Node8</title>
<polygon fill="none" stroke="#bfbfbf" points="323.219,-1 323.219,-21 379.805,-21 379.805,-1 323.219,-1"/>
<text text-anchor="middle" x="351.512" y="-7" font-family="Helvetica,sans-Serif" font-size="10.00">stdbool.h</text>
</g>
<!-- Node3&#45;&gt;Node8 -->
<g id="edge7" class="edge"><title>Node3&#45;&gt;Node8</title>
<path fill="none" stroke="midnightblue" d="M716.72,-125.881C646.654,-125.091 435.943,-119.418 382.512,-80 366.885,-68.4716 358.934,-47.1796 355.026,-31.4813"/>
<polygon fill="midnightblue" stroke="midnightblue" points="358.354,-30.3069 352.842,-21.2587 351.508,-31.7693 358.354,-30.3069"/>
</g>
<!-- Node9 -->
<g id="node9" class="node"><title>Node9</title>
<polygon fill="none" stroke="#bfbfbf" points="631.219,-59 631.219,-79 697.805,-79 697.805,-59 631.219,-59"/>
<text text-anchor="middle" x="664.512" y="-65" font-family="Helvetica,sans-Serif" font-size="10.00">hwpl/fault.h</text>
</g>
<!-- Node3&#45;&gt;Node9 -->
<g id="edge8" class="edge"><title>Node3&#45;&gt;Node9</title>
<path fill="none" stroke="midnightblue" d="M727.127,-116.753C715.66,-108.19 698.393,-95.2978 684.894,-85.2186"/>
<polygon fill="midnightblue" stroke="midnightblue" points="686.773,-82.2536 676.666,-79.0752 682.585,-87.8626 686.773,-82.2536"/>
</g>
<!-- Node10 -->
<g id="node10" class="node"><title>Node10</title>
<polygon fill="none" stroke="#bfbfbf" points="397.943,-1 397.943,-21 465.081,-21 465.081,-1 397.943,-1"/>
<text text-anchor="middle" x="431.512" y="-7" font-family="Helvetica,sans-Serif" font-size="10.00">hwpl/arch.h</text>
</g>
<!-- Node3&#45;&gt;Node10 -->
<g id="edge9" class="edge"><title>Node3&#45;&gt;Node10</title>
<path fill="none" stroke="midnightblue" d="M716.864,-117.617C663.325,-97.801 528.715,-47.9778 465.411,-24.5473"/>
<polygon fill="midnightblue" stroke="midnightblue" points="466.48,-21.2109 455.887,-21.022 464.051,-27.7756 466.48,-21.2109"/>
</g>
<!-- Node11 -->
<g id="node11" class="node"><title>Node11</title>
<g id="a_node11"><a xlink:href="types_8h_source.html" target="_top" xlink:title="hwpl/types.h">
<polygon fill="none" stroke="black" points="465.719,-59 465.719,-79 537.305,-79 537.305,-59 465.719,-59"/>
<text text-anchor="middle" x="501.512" y="-65" font-family="Helvetica,sans-Serif" font-size="10.00">hwpl/types.h</text>
</a>
</g>
</g>
<!-- Node3&#45;&gt;Node11 -->
<g id="edge10" class="edge"><title>Node3&#45;&gt;Node11</title>
<path fill="none" stroke="midnightblue" d="M716.691,-120.63C677.833,-111.487 598.106,-92.7281 547.365,-80.7891"/>
<polygon fill="midnightblue" stroke="midnightblue" points="547.85,-77.3075 537.314,-78.424 546.246,-84.1214 547.85,-77.3075"/>
</g>
<!-- Node11&#45;&gt;Node4 -->
<g id="edge11" class="edge"><title>Node11&#45;&gt;Node4</title>
<path fill="none" stroke="midnightblue" d="M512.08,-58.7527C521.679,-50.3534 536.041,-37.7874 547.458,-27.7976"/>
<polygon fill="midnightblue" stroke="midnightblue" points="549.919,-30.2943 555.14,-21.0752 545.31,-25.0262 549.919,-30.2943"/>
</g>
<!-- Node11&#45;&gt;Node8 -->
<g id="edge12" class="edge"><title>Node11&#45;&gt;Node8</title>
<path fill="none" stroke="midnightblue" d="M477.078,-58.878C452.235,-49.6034 413.538,-35.1564 385.668,-24.7515"/>
<polygon fill="midnightblue" stroke="midnightblue" points="386.528,-21.3368 375.935,-21.1181 384.08,-27.8946 386.528,-21.3368"/>
</g>
<!-- Node14&#45;&gt;Node3 -->
<g id="edge35" class="edge"><title>Node14&#45;&gt;Node3</title>
<path fill="none" stroke="midnightblue" d="M739.512,-232.671C739.512,-214.041 739.512,-171.898 739.512,-147.143"/>
<polygon fill="midnightblue" stroke="midnightblue" points="743.012,-147.139 739.512,-137.139 736.012,-147.139 743.012,-147.139"/>
</g>
<!-- Node14&#45;&gt;Node4 -->
<g id="edge16" class="edge"><title>Node14&#45;&gt;Node4</title>
<path fill="none" stroke="midnightblue" d="M764.345,-232.957C831.032,-207.397 1004.69,-131.684 939.512,-58 917.151,-32.7202 687.817,-18.3058 599.721,-13.6664"/>
<polygon fill="midnightblue" stroke="midnightblue" points="599.869,-10.1694 589.701,-13.149 599.508,-17.1601 599.869,-10.1694"/>
</g>
<!-- Node15 -->
<g id="node15" class="node"><title>Node15</title>
<polygon fill="none" stroke="#bfbfbf" points="148.394,-59 148.394,-79 206.63,-79 206.63,-59 148.394,-59"/>
<text text-anchor="middle" x="177.512" y="-65" font-family="Helvetica,sans-Serif" font-size="10.00">sys/stat.h</text>
</g>
<!-- Node14&#45;&gt;Node15 -->
<g id="edge17" class="edge"><title>Node14&#45;&gt;Node15</title>
<path fill="none" stroke="midnightblue" d="M700.558,-233.412C697.506,-232.884 694.464,-232.404 691.512,-232 452.317,-199.302 384.802,-250.056 149.512,-196 82.6689,-180.643 44.8254,-194.885 6.51189,-138 -26.4881,-89.0043 77.3847,-75.311 137.63,-71.4842"/>
<polygon fill="midnightblue" stroke="midnightblue" points="138.185,-74.9583 147.97,-70.8961 137.788,-67.9696 138.185,-74.9583"/>
</g>
<!-- Node16 -->
<g id="node16" class="node"><title>Node16</title>
<polygon fill="none" stroke="#bfbfbf" points="15.8346,-117 15.8346,-137 65.1891,-137 65.1891,-117 15.8346,-117"/>
<text text-anchor="middle" x="40.5119" y="-123" font-family="Helvetica,sans-Serif" font-size="10.00">dirent.h</text>
</g>
<!-- Node14&#45;&gt;Node16 -->
<g id="edge18" class="edge"><title>Node14&#45;&gt;Node16</title>
<path fill="none" stroke="midnightblue" d="M700.553,-233.447C697.502,-232.911 694.462,-232.419 691.512,-232 485.852,-202.756 428.472,-240.251 225.512,-196 168.211,-183.507 104.716,-157.264 69.0033,-141.281"/>
<polygon fill="midnightblue" stroke="midnightblue" points="70.2486,-138.003 59.6953,-137.065 67.3604,-144.379 70.2486,-138.003"/>
</g>
<!-- Node17 -->
<g id="node17" class="node"><title>Node17</title>
<g id="a_node17"><a xlink:href="sysfs_8h_source.html" target="_top" xlink:title="sysfs.h">
<polygon fill="none" stroke="black" points="234.953,-175 234.953,-195 282.071,-195 282.071,-175 234.953,-175"/>
<text text-anchor="middle" x="258.512" y="-181" font-family="Helvetica,sans-Serif" font-size="10.00">sysfs.h</text>
</a>
</g>
</g>
<!-- Node14&#45;&gt;Node17 -->
<g id="edge19" class="edge"><title>Node14&#45;&gt;Node17</title>
<path fill="none" stroke="midnightblue" d="M700.539,-233.542C697.491,-232.984 694.455,-232.462 691.512,-232 543.453,-208.772 365.034,-193.933 292.071,-188.42"/>
<polygon fill="midnightblue" stroke="midnightblue" points="292.321,-184.929 282.088,-187.675 291.799,-191.91 292.321,-184.929"/>
</g>
<!-- Node17&#45;&gt;Node4 -->
<g id="edge22" class="edge"><title>Node17&#45;&gt;Node4</title>
<path fill="none" stroke="midnightblue" d="M282.457,-182.408C337.231,-177.46 472.544,-157.608 545.512,-80 557.871,-66.8548 562.634,-46.4603 564.447,-31.4329"/>
<polygon fill="midnightblue" stroke="midnightblue" points="567.958,-31.4618 565.336,-21.1965 560.984,-30.8562 567.958,-31.4618"/>
</g>
<!-- Node17&#45;&gt;Node8 -->
<g id="edge20" class="edge"><title>Node17&#45;&gt;Node8</title>
<path fill="none" stroke="midnightblue" d="M260.5,-174.842C265.492,-153.188 280.014,-97.6744 305.512,-58 312.785,-46.6833 323.248,-35.9393 332.358,-27.6849"/>
<polygon fill="midnightblue" stroke="midnightblue" points="334.656,-30.3251 339.902,-21.1201 330.061,-25.0447 334.656,-30.3251"/>
</g>
<!-- Node17&#45;&gt;Node15 -->
<g id="edge24" class="edge"><title>Node17&#45;&gt;Node15</title>
<path fill="none" stroke="midnightblue" d="M240.436,-174.912C226.463,-166.991 207.677,-154.234 196.512,-138 186.536,-123.496 181.774,-103.866 179.515,-89.4248"/>
<polygon fill="midnightblue" stroke="midnightblue" points="182.94,-88.6223 178.188,-79.1531 175.998,-89.5192 182.94,-88.6223"/>
</g>
<!-- Node17&#45;&gt;Node16 -->
<g id="edge25" class="edge"><title>Node17&#45;&gt;Node16</title>
<path fill="none" stroke="midnightblue" d="M234.905,-178.426C201.527,-170.476 138.421,-155.185 75.1088,-138.084"/>
<polygon fill="midnightblue" stroke="midnightblue" points="75.9286,-134.68 65.3609,-135.436 74.094,-141.435 75.9286,-134.68"/>
</g>
<!-- Node18 -->
<g id="node18" class="node"><title>Node18</title>
<polygon fill="none" stroke="#bfbfbf" points="83.5021,-117 83.5021,-137 149.522,-137 149.522,-117 83.5021,-117"/>
<text text-anchor="middle" x="116.512" y="-123" font-family="Helvetica,sans-Serif" font-size="10.00">sys/types.h</text>
</g>
<!-- Node17&#45;&gt;Node18 -->
<g id="edge21" class="edge"><title>Node17&#45;&gt;Node18</title>
<path fill="none" stroke="midnightblue" d="M235.381,-174.878C211.967,-165.644 175.551,-151.283 149.194,-140.889"/>
<polygon fill="midnightblue" stroke="midnightblue" points="150.22,-137.531 139.633,-137.118 147.651,-144.043 150.22,-137.531"/>
</g>
<!-- Node19 -->
<g id="node19" class="node"><title>Node19</title>
<polygon fill="none" stroke="#bfbfbf" points="205.721,-117 205.721,-137 257.302,-137 257.302,-117 205.721,-117"/>
<text text-anchor="middle" x="231.512" y="-123" font-family="Helvetica,sans-Serif" font-size="10.00">stddef.h</text>
</g>
<!-- Node17&#45;&gt;Node19 -->
<g id="edge23" class="edge"><title>Node17&#45;&gt;Node19</title>
<path fill="none" stroke="midnightblue" d="M254.053,-174.753C250.318,-167.006 244.874,-155.714 240.272,-146.169"/>
<polygon fill="midnightblue" stroke="midnightblue" points="243.383,-144.563 235.887,-137.075 237.078,-147.603 243.383,-144.563"/>
</g>
<!-- Node20 -->
<g id="node20" class="node"><title>Node20</title>
<g id="a_node20"><a xlink:href="device_8h_source.html" target="_top" xlink:title="device.h">
<polygon fill="none" stroke="black" points="313.889,-117 313.889,-137 367.135,-137 367.135,-117 313.889,-117"/>
<text text-anchor="middle" x="340.512" y="-123" font-family="Helvetica,sans-Serif" font-size="10.00">device.h</text>
</a>
</g>
</g>
<!-- Node17&#45;&gt;Node20 -->
<g id="edge26" class="edge"><title>Node17&#45;&gt;Node20</title>
<path fill="none" stroke="midnightblue" d="M272.053,-174.753C284.71,-166.109 303.829,-153.052 318.648,-142.931"/>
<polygon fill="midnightblue" stroke="midnightblue" points="320.939,-145.605 327.223,-137.075 316.991,-139.825 320.939,-145.605"/>
</g>
<!-- Node20&#45;&gt;Node8 -->
<g id="edge28" class="edge"><title>Node20&#45;&gt;Node8</title>
<path fill="none" stroke="midnightblue" d="M331.847,-116.868C320.656,-103.914 303.51,-79.3977 311.512,-58 315.738,-46.6996 324.132,-36.3416 332.145,-28.3277"/>
<polygon fill="midnightblue" stroke="midnightblue" points="334.925,-30.5217 339.861,-21.147 330.156,-25.3973 334.925,-30.5217"/>
</g>
<!-- Node20&#45;&gt;Node10 -->
<g id="edge30" class="edge"><title>Node20&#45;&gt;Node10</title>
<path fill="none" stroke="midnightblue" d="M345.24,-116.693C352.364,-103.101 366.707,-77.3403 382.512,-58 391.42,-47.0986 402.816,-36.2549 412.376,-27.8361"/>
<polygon fill="midnightblue" stroke="midnightblue" points="414.889,-30.2916 420.195,-21.1214 410.328,-24.9808 414.889,-30.2916"/>
</g>
<!-- Node20&#45;&gt;Node11 -->
<g id="edge29" class="edge"><title>Node20&#45;&gt;Node11</title>
<path fill="none" stroke="midnightblue" d="M366.738,-116.878C393.716,-107.494 435.917,-92.8155 465.903,-82.3857"/>
<polygon fill="midnightblue" stroke="midnightblue" points="467.269,-85.6163 475.564,-79.0253 464.969,-79.0048 467.269,-85.6163"/>
</g>
<!-- Node20&#45;&gt;Node15 -->
<g id="edge27" class="edge"><title>Node20&#45;&gt;Node15</title>
<path fill="none" stroke="midnightblue" d="M313.96,-116.878C286.647,-107.494 243.921,-92.8155 213.563,-82.3857"/>
<polygon fill="midnightblue" stroke="midnightblue" points="214.377,-78.9644 203.782,-79.0253 212.102,-85.5846 214.377,-78.9644"/>
</g>
<!-- Node21 -->
<g id="node21" class="node"><title>Node21</title>
<g id="a_node21"><a xlink:href="pio_8h.html" target="_top" xlink:title="General Purpose Input/Output Header File. ">
<polygon fill="none" stroke="red" points="391.219,-59 391.219,-79 447.805,-79 447.805,-59 391.219,-59"/>
<text text-anchor="middle" x="419.512" y="-65" font-family="Helvetica,sans-Serif" font-size="10.00">dev/pio.h</text>
</a>
</g>
</g>
<!-- Node20&#45;&gt;Node21 -->
<g id="edge31" class="edge"><title>Node20&#45;&gt;Node21</title>
<path fill="none" stroke="midnightblue" d="M353.557,-116.753C365.751,-108.109 384.171,-95.0518 398.448,-84.9314"/>
<polygon fill="midnightblue" stroke="midnightblue" points="400.575,-87.7137 406.709,-79.0752 396.527,-82.0029 400.575,-87.7137"/>
</g>
<!-- Node21&#45;&gt;Node4 -->
<g id="edge33" class="edge"><title>Node21&#45;&gt;Node4</title>
<path fill="none" stroke="midnightblue" d="M443.294,-58.878C467.474,-49.6034 505.14,-35.1564 532.267,-24.7515"/>
<polygon fill="midnightblue" stroke="midnightblue" points="533.656,-27.9672 541.74,-21.1181 531.15,-21.4315 533.656,-27.9672"/>
</g>
<!-- Node21&#45;&gt;Node8 -->
<g id="edge32" class="edge"><title>Node21&#45;&gt;Node8</title>
<path fill="none" stroke="midnightblue" d="M408.283,-58.7527C397.985,-50.2718 382.528,-37.543 370.342,-27.5073"/>
<polygon fill="midnightblue" stroke="midnightblue" points="372.476,-24.7305 362.532,-21.0752 368.026,-30.1341 372.476,-24.7305"/>
</g>
<!-- Node21&#45;&gt;Node10 -->
<g id="edge34" class="edge"><title>Node21&#45;&gt;Node10</title>
<path fill="none" stroke="midnightblue" d="M421.493,-58.7527C423.101,-51.2504 425.421,-40.4238 427.424,-31.0781"/>
<polygon fill="midnightblue" stroke="midnightblue" points="430.894,-31.5866 429.567,-21.0752 424.05,-30.1198 430.894,-31.5866"/>
</g>
</g>
</svg>
