<?xml version="1.0" encoding="UTF-8" standalone="no"?>
<!DOCTYPE svg PUBLIC "-//W3C//DTD SVG 1.1//EN"
 "http://www.w3.org/Graphics/SVG/1.1/DTD/svg11.dtd">
<!-- Generated by graphviz version 2.34.0 (20130907.0228)
 -->
<!-- Title: /Users/tgil/git/CoActionOS/CoActionOS/include/hwpl/arch/lpc13xx.h Pages: 1 -->
<svg width="979pt" height="170pt"
 viewBox="0.00 0.00 979.00 170.00" xmlns="http://www.w3.org/2000/svg" xmlns:xlink="http://www.w3.org/1999/xlink">
<g id="graph0" class="graph" transform="scale(1 1) rotate(0) translate(4 166)">
<title>/Users/tgil/git/CoActionOS/CoActionOS/include/hwpl/arch/lpc13xx.h</title>
<!-- Node1 -->
<g id="node1" class="node"><title>Node1</title>
<polygon fill="#bfbfbf" stroke="black" points="359.641,-117 359.641,-161 482.359,-161 482.359,-117 359.641,-117"/>
<text text-anchor="start" x="367.641" y="-147" font-family="Helvetica,sans-Serif" font-size="10.00">/Users/tgil/git/CoAction</text>
<text text-anchor="start" x="367.641" y="-135" font-family="Helvetica,sans-Serif" font-size="10.00">OS/CoActionOS/include</text>
<text text-anchor="middle" x="421" y="-123" font-family="Helvetica,sans-Serif" font-size="10.00">/hwpl/arch/lpc13xx.h</text>
</g>
<!-- Node2 -->
<g id="node2" class="node"><title>Node2</title>
<g id="a_node2"><a xlink:href="types_8h_source.html" target="_top" xlink:title="hwpl/types.h">
<polygon fill="none" stroke="black" points="52.207,-59 52.207,-79 123.793,-79 123.793,-59 52.207,-59"/>
<text text-anchor="middle" x="88" y="-65" font-family="Helvetica,sans-Serif" font-size="10.00">hwpl/types.h</text>
</a>
</g>
</g>
<!-- Node1&#45;&gt;Node2 -->
<g id="edge1" class="edge"><title>Node1&#45;&gt;Node2</title>
<path fill="none" stroke="midnightblue" d="M359.409,-125.965C303.268,-114.912 217.78,-97.8704 133.812,-80.1423"/>
<polygon fill="midnightblue" stroke="midnightblue" points="134.355,-76.6798 123.847,-78.0336 132.906,-83.5282 134.355,-76.6798"/>
</g>
<!-- Node3 -->
<g id="node3" class="node"><title>Node3</title>
<polygon fill="none" stroke="#bfbfbf" points="-0.120605,-1 -0.120605,-21 48.1206,-21 48.1206,-1 -0.120605,-1"/>
<text text-anchor="middle" x="24" y="-7" font-family="Helvetica,sans-Serif" font-size="10.00">stdint.h</text>
</g>
<!-- Node1&#45;&gt;Node3 -->
<g id="edge5" class="edge"><title>Node1&#45;&gt;Node3</title>
<path fill="none" stroke="midnightblue" d="M359.351,-136.447C264.463,-132.788 88.7698,-120.574 43,-80 29.2713,-67.8299 25.1011,-46.6465 24.0053,-31.1492"/>
<polygon fill="midnightblue" stroke="midnightblue" points="27.5007,-30.9532 23.6581,-21.0799 20.5049,-31.1946 27.5007,-30.9532"/>
</g>
<!-- Node5 -->
<g id="node5" class="node"><title>Node5</title>
<polygon fill="none" stroke="#bfbfbf" points="141.604,-59 141.604,-79 190.396,-79 190.396,-59 141.604,-59"/>
<text text-anchor="middle" x="166" y="-65" font-family="Helvetica,sans-Serif" font-size="10.00">string.h</text>
</g>
<!-- Node1&#45;&gt;Node5 -->
<g id="edge4" class="edge"><title>Node1&#45;&gt;Node5</title>
<path fill="none" stroke="midnightblue" d="M359.424,-122.357C317.36,-111.551 260.114,-96.6142 200.471,-80.0731"/>
<polygon fill="midnightblue" stroke="midnightblue" points="201.062,-76.6047 190.489,-77.2961 199.185,-83.3486 201.062,-76.6047"/>
</g>
<!-- Node6 -->
<g id="node6" class="node"><title>Node6</title>
<polygon fill="none" stroke="#bfbfbf" points="208.527,-59 208.527,-79 343.473,-79 343.473,-59 208.527,-59"/>
<text text-anchor="middle" x="276" y="-65" font-family="Helvetica,sans-Serif" font-size="10.00">hwpl/arch/LPC13xx_cm3.h</text>
</g>
<!-- Node1&#45;&gt;Node6 -->
<g id="edge6" class="edge"><title>Node1&#45;&gt;Node6</title>
<path fill="none" stroke="midnightblue" d="M375.916,-116.857C352.519,-105.885 324.655,-92.8177 304.304,-83.2737"/>
<polygon fill="midnightblue" stroke="midnightblue" points="305.788,-80.1037 295.248,-79.0266 302.816,-86.4414 305.788,-80.1037"/>
</g>
<!-- Node7 -->
<g id="node7" class="node"><title>Node7</title>
<polygon fill="none" stroke="#bfbfbf" points="361.862,-59 361.862,-79 480.138,-79 480.138,-59 361.862,-59"/>
<text text-anchor="middle" x="421" y="-65" font-family="Helvetica,sans-Serif" font-size="10.00">hwpl/arch/delay_cm3.h</text>
</g>
<!-- Node1&#45;&gt;Node7 -->
<g id="edge7" class="edge"><title>Node1&#45;&gt;Node7</title>
<path fill="none" stroke="midnightblue" d="M421,-116.857C421,-108.074 421,-97.9484 421,-89.3622"/>
<polygon fill="midnightblue" stroke="midnightblue" points="424.5,-89.2039 421,-79.2039 417.5,-89.204 424.5,-89.2039"/>
</g>
<!-- Node8 -->
<g id="node8" class="node"><title>Node8</title>
<polygon fill="none" stroke="#bfbfbf" points="497.747,-59 497.747,-79 628.253,-79 628.253,-59 497.747,-59"/>
<text text-anchor="middle" x="563" y="-65" font-family="Helvetica,sans-Serif" font-size="10.00">hwpl/arch/lpc13xx_flags.h</text>
</g>
<!-- Node1&#45;&gt;Node8 -->
<g id="edge8" class="edge"><title>Node1&#45;&gt;Node8</title>
<path fill="none" stroke="midnightblue" d="M465.151,-116.857C487.96,-105.935 515.104,-92.9359 535.01,-83.4034"/>
<polygon fill="midnightblue" stroke="midnightblue" points="536.643,-86.5024 544.15,-79.0266 533.619,-80.189 536.643,-86.5024"/>
</g>
<!-- Node9 -->
<g id="node9" class="node"><title>Node9</title>
<polygon fill="none" stroke="#bfbfbf" points="646.643,-59 646.643,-79 779.357,-79 779.357,-59 646.643,-59"/>
<text text-anchor="middle" x="713" y="-65" font-family="Helvetica,sans-Serif" font-size="10.00">hwpl/arch/common_cm3.h</text>
</g>
<!-- Node1&#45;&gt;Node9 -->
<g id="edge9" class="edge"><title>Node1&#45;&gt;Node9</title>
<path fill="none" stroke="midnightblue" d="M482.569,-123.662C536.731,-111.049 614.513,-92.9353 664.4,-81.3178"/>
<polygon fill="midnightblue" stroke="midnightblue" points="665.351,-84.6901 674.297,-79.0131 663.763,-77.8725 665.351,-84.6901"/>
</g>
<!-- Node10 -->
<g id="node10" class="node"><title>Node10</title>
<polygon fill="none" stroke="#bfbfbf" points="797.535,-59 797.535,-79 882.465,-79 882.465,-59 797.535,-59"/>
<text text-anchor="middle" x="840" y="-65" font-family="Helvetica,sans-Serif" font-size="10.00">lpc13xx_flags.h</text>
</g>
<!-- Node1&#45;&gt;Node10 -->
<g id="edge10" class="edge"><title>Node1&#45;&gt;Node10</title>
<path fill="none" stroke="midnightblue" d="M482.468,-128.924C553.378,-118.311 673.721,-99.8593 787.522,-80.0378"/>
<polygon fill="midnightblue" stroke="midnightblue" points="788.206,-83.4712 797.454,-78.3013 787.001,-76.5758 788.206,-83.4712"/>
</g>
<!-- Node11 -->
<g id="node11" class="node"><title>Node11</title>
<polygon fill="none" stroke="#bfbfbf" points="900.207,-59 900.207,-79 971.793,-79 971.793,-59 900.207,-59"/>
<text text-anchor="middle" x="936" y="-65" font-family="Helvetica,sans-Serif" font-size="10.00">hwpl/types.h</text>
</g>
<!-- Node1&#45;&gt;Node11 -->
<g id="edge11" class="edge"><title>Node1&#45;&gt;Node11</title>
<path fill="none" stroke="midnightblue" d="M482.49,-132.311C570.594,-123.74 737.977,-105.896 890.196,-79.9979"/>
<polygon fill="midnightblue" stroke="midnightblue" points="890.936,-83.4221 900.2,-78.2804 889.752,-76.5231 890.936,-83.4221"/>
</g>
<!-- Node2&#45;&gt;Node3 -->
<g id="edge2" class="edge"><title>Node2&#45;&gt;Node3</title>
<path fill="none" stroke="midnightblue" d="M77.4317,-58.7527C67.8324,-50.3534 53.4713,-37.7874 42.0544,-27.7976"/>
<polygon fill="midnightblue" stroke="midnightblue" points="44.2022,-25.0262 34.3716,-21.0752 39.5927,-30.2943 44.2022,-25.0262"/>
</g>
<!-- Node4 -->
<g id="node4" class="node"><title>Node4</title>
<polygon fill="none" stroke="#bfbfbf" points="65.707,-1 65.707,-21 122.293,-21 122.293,-1 65.707,-1"/>
<text text-anchor="middle" x="94" y="-7" font-family="Helvetica,sans-Serif" font-size="10.00">stdbool.h</text>
</g>
<!-- Node2&#45;&gt;Node4 -->
<g id="edge3" class="edge"><title>Node2&#45;&gt;Node4</title>
<path fill="none" stroke="midnightblue" d="M88.9908,-58.7527C89.7946,-51.2504 90.9546,-40.4238 91.9559,-31.0781"/>
<polygon fill="midnightblue" stroke="midnightblue" points="95.4423,-31.3912 93.0277,-21.0752 88.4822,-30.6454 95.4423,-31.3912"/>
</g>
</g>
</svg>
