<?xml version="1.0" encoding="UTF-8" standalone="no"?>
<!DOCTYPE svg PUBLIC "-//W3C//DTD SVG 1.1//EN"
 "http://www.w3.org/Graphics/SVG/1.1/DTD/svg11.dtd">
<!-- Generated by graphviz version 2.36.0 (20140111.2315)
 -->
<!-- Title: /Users/tgil/git/CoActionOS/CoActionOS/include/dev/mci.h Pages: 1 -->
<svg width="275pt" height="104pt"
 viewBox="0.00 0.00 275.00 104.00" xmlns="http://www.w3.org/2000/svg" xmlns:xlink="http://www.w3.org/1999/xlink">
<g id="graph0" class="graph" transform="scale(1 1) rotate(0) translate(4 100)">
<title>/Users/tgil/git/CoActionOS/CoActionOS/include/dev/mci.h</title>
<!-- Node1 -->
<g id="node1" class="node"><title>Node1</title>
<polygon fill="#bfbfbf" stroke="black" points="67.6406,-57 67.6406,-95 190.359,-95 190.359,-57 67.6406,-57"/>
<text text-anchor="start" x="75.6406" y="-83" font-family="Helvetica,sans-Serif" font-size="10.00">/Users/tgil/git/CoAction</text>
<text text-anchor="start" x="75.6406" y="-73" font-family="Helvetica,sans-Serif" font-size="10.00">OS/CoActionOS/include</text>
<text text-anchor="middle" x="129" y="-63" font-family="Helvetica,sans-Serif" font-size="10.00">/dev/mci.h</text>
</g>
<!-- Node2 -->
<g id="node2" class="node"><title>Node2</title>
<polygon fill="none" stroke="#bfbfbf" points="-0.292969,-1 -0.292969,-19 56.293,-19 56.293,-1 -0.292969,-1"/>
<text text-anchor="middle" x="28" y="-7" font-family="Helvetica,sans-Serif" font-size="10.00">stdbool.h</text>
</g>
<!-- Node1&#45;&gt;Node2 -->
<g id="edge1" class="edge"><title>Node1&#45;&gt;Node2</title>
<path fill="none" stroke="midnightblue" d="M100.328,-56.8314C84.1,-46.5485 64.1487,-33.9061 49.3139,-24.5058"/>
<polygon fill="midnightblue" stroke="midnightblue" points="51.1377,-21.518 40.8173,-19.1219 47.3909,-27.4309 51.1377,-21.518"/>
</g>
<!-- Node3 -->
<g id="node3" class="node"><title>Node3</title>
<polygon fill="none" stroke="#bfbfbf" points="73.8794,-1 73.8794,-19 122.121,-19 122.121,-1 73.8794,-1"/>
<text text-anchor="middle" x="98" y="-7" font-family="Helvetica,sans-Serif" font-size="10.00">stdint.h</text>
</g>
<!-- Node1&#45;&gt;Node3 -->
<g id="edge2" class="edge"><title>Node1&#45;&gt;Node3</title>
<path fill="none" stroke="midnightblue" d="M120.2,-56.8314C115.877,-47.9066 110.693,-37.2045 106.422,-28.3872"/>
<polygon fill="midnightblue" stroke="midnightblue" points="109.443,-26.5959 101.934,-19.1219 103.143,-29.6475 109.443,-26.5959"/>
</g>
<!-- Node4 -->
<g id="node4" class="node"><title>Node4</title>
<g id="a_node4"><a xlink:href="ioctl_8h_source.html" target="_top" xlink:title="ioctl.h">
<polygon fill="none" stroke="black" points="139.938,-1 139.938,-19 182.062,-19 182.062,-1 139.938,-1"/>
<text text-anchor="middle" x="161" y="-7" font-family="Helvetica,sans-Serif" font-size="10.00">ioctl.h</text>
</a>
</g>
</g>
<!-- Node1&#45;&gt;Node4 -->
<g id="edge3" class="edge"><title>Node1&#45;&gt;Node4</title>
<path fill="none" stroke="midnightblue" d="M138.084,-56.8314C142.595,-47.8096 148.014,-36.9716 152.45,-28.1004"/>
<polygon fill="midnightblue" stroke="midnightblue" points="155.597,-29.6314 156.939,-19.1219 149.336,-26.5009 155.597,-29.6314"/>
</g>
<!-- Node5 -->
<g id="node5" class="node"><title>Node5</title>
<polygon fill="none" stroke="#bfbfbf" points="200.431,-1 200.431,-19 267.569,-19 267.569,-1 200.431,-1"/>
<text text-anchor="middle" x="234" y="-7" font-family="Helvetica,sans-Serif" font-size="10.00">hwpl/arch.h</text>
</g>
<!-- Node1&#45;&gt;Node5 -->
<g id="edge4" class="edge"><title>Node1&#45;&gt;Node5</title>
<path fill="none" stroke="midnightblue" d="M158.808,-56.8314C175.678,-46.5485 196.42,-33.9061 211.842,-24.5058"/>
<polygon fill="midnightblue" stroke="midnightblue" points="213.958,-27.3152 220.675,-19.1219 210.315,-21.338 213.958,-27.3152"/>
</g>
</g>
</svg>
