<?xml version="1.0" encoding="UTF-8" standalone="no"?>
<!DOCTYPE svg PUBLIC "-//W3C//DTD SVG 1.1//EN"
 "http://www.w3.org/Graphics/SVG/1.1/DTD/svg11.dtd">
<!-- Generated by graphviz version 2.36.0 (20140111.2315)
 -->
<!-- Title: /Users/tgil/git/CoActionOS/CoActionOS/src/sys/signal/pthread_kill.c Pages: 1 -->
<svg width="859pt" height="272pt"
 viewBox="0.00 0.00 858.78 272.00" xmlns="http://www.w3.org/2000/svg" xmlns:xlink="http://www.w3.org/1999/xlink">
<g id="graph0" class="graph" transform="scale(1 1) rotate(0) translate(4 268)">
<title>/Users/tgil/git/CoActionOS/CoActionOS/src/sys/signal/pthread_kill.c</title>
<!-- Node1 -->
<g id="node1" class="node"><title>Node1</title>
<polygon fill="#bfbfbf" stroke="black" points="290.931,-225 290.931,-263 413.069,-263 413.069,-225 290.931,-225"/>
<text text-anchor="start" x="298.931" y="-251" font-family="Helvetica,sans-Serif" font-size="10.00">/Users/tgil/git/CoAction</text>
<text text-anchor="start" x="298.931" y="-241" font-family="Helvetica,sans-Serif" font-size="10.00">OS/CoActionOS/src/sys</text>
<text text-anchor="middle" x="352" y="-231" font-family="Helvetica,sans-Serif" font-size="10.00">/signal/pthread_kill.c</text>
</g>
<!-- Node2 -->
<g id="node2" class="node"><title>Node2</title>
<polygon fill="none" stroke="#bfbfbf" points="57.8721,-169 57.8721,-187 116.128,-187 116.128,-169 57.8721,-169"/>
<text text-anchor="middle" x="87" y="-175" font-family="Helvetica,sans-Serif" font-size="10.00">pthread.h</text>
</g>
<!-- Node1&#45;&gt;Node2 -->
<g id="edge1" class="edge"><title>Node1&#45;&gt;Node2</title>
<path fill="none" stroke="midnightblue" d="M290.871,-228.237C240.211,-216.002 169.71,-198.975 126.283,-188.487"/>
<polygon fill="midnightblue" stroke="midnightblue" points="126.927,-185.042 116.385,-186.097 125.284,-191.847 126.927,-185.042"/>
</g>
<!-- Node3 -->
<g id="node3" class="node"><title>Node3</title>
<g id="a_node3"><a xlink:href="config_8h.html" target="_top" xlink:title="config.h">
<polygon fill="none" stroke="black" points="-0.512207,-113 -0.512207,-131 50.5122,-131 50.5122,-113 -0.512207,-113"/>
<text text-anchor="middle" x="25" y="-119" font-family="Helvetica,sans-Serif" font-size="10.00">config.h</text>
</a>
</g>
</g>
<!-- Node1&#45;&gt;Node3 -->
<g id="edge2" class="edge"><title>Node1&#45;&gt;Node3</title>
<path fill="none" stroke="midnightblue" d="M290.512,-228.457C253.028,-218.773 204.51,-204.764 163,-188 145.303,-180.853 142.155,-176.364 125,-168 101.03,-156.312 73.3508,-143.942 53.1989,-135.135"/>
<polygon fill="midnightblue" stroke="midnightblue" points="54.5261,-131.896 43.96,-131.117 51.7341,-138.315 54.5261,-131.896"/>
</g>
<!-- Node5 -->
<g id="node5" class="node"><title>Node5</title>
<g id="a_node5"><a xlink:href="hwpl_8h.html" target="_top" xlink:title="HWPL Header file (includes all other header files) ">
<polygon fill="none" stroke="black" points="235.547,-113 235.547,-131 280.453,-131 280.453,-113 235.547,-113"/>
<text text-anchor="middle" x="258" y="-119" font-family="Helvetica,sans-Serif" font-size="10.00">hwpl.h</text>
</a>
</g>
</g>
<!-- Node1&#45;&gt;Node5 -->
<g id="edge4" class="edge"><title>Node1&#45;&gt;Node5</title>
<path fill="none" stroke="midnightblue" d="M322.781,-224.994C309.181,-215.404 293.686,-202.58 283,-188 272.623,-173.842 265.975,-154.836 262.164,-141.035"/>
<polygon fill="midnightblue" stroke="midnightblue" points="265.541,-140.113 259.699,-131.275 258.755,-141.827 265.541,-140.113"/>
</g>
<!-- Node14 -->
<g id="node14" class="node"><title>Node14</title>
<polygon fill="none" stroke="#bfbfbf" points="355.988,-169 355.988,-187 422.012,-187 422.012,-169 355.988,-169"/>
<text text-anchor="middle" x="389" y="-175" font-family="Helvetica,sans-Serif" font-size="10.00">hwpl/task.h</text>
</g>
<!-- Node1&#45;&gt;Node14 -->
<g id="edge16" class="edge"><title>Node1&#45;&gt;Node14</title>
<path fill="none" stroke="midnightblue" d="M362.504,-224.831C367.776,-215.713 374.12,-204.738 379.279,-195.815"/>
<polygon fill="midnightblue" stroke="midnightblue" points="382.33,-197.531 384.305,-187.122 376.269,-194.027 382.33,-197.531"/>
</g>
<!-- Node15 -->
<g id="node15" class="node"><title>Node15</title>
<polygon fill="none" stroke="#bfbfbf" points="440.254,-169 440.254,-187 515.746,-187 515.746,-169 440.254,-169"/>
<text text-anchor="middle" x="478" y="-175" font-family="Helvetica,sans-Serif" font-size="10.00">hwpl/debug.h</text>
</g>
<!-- Node1&#45;&gt;Node15 -->
<g id="edge17" class="edge"><title>Node1&#45;&gt;Node15</title>
<path fill="none" stroke="midnightblue" d="M387.77,-224.831C408.587,-214.257 434.316,-201.189 452.966,-191.716"/>
<polygon fill="midnightblue" stroke="midnightblue" points="454.679,-194.771 462.01,-187.122 451.509,-188.53 454.679,-194.771"/>
</g>
<!-- Node16 -->
<g id="node16" class="node"><title>Node16</title>
<g id="a_node16"><a xlink:href="caos_8h.html" target="_top" xlink:title="caos.h">
<polygon fill="none" stroke="black" points="292.269,-169 292.269,-187 337.731,-187 337.731,-169 292.269,-169"/>
<text text-anchor="middle" x="315" y="-175" font-family="Helvetica,sans-Serif" font-size="10.00">caos.h</text>
</a>
</g>
</g>
<!-- Node1&#45;&gt;Node16 -->
<g id="edge18" class="edge"><title>Node1&#45;&gt;Node16</title>
<path fill="none" stroke="midnightblue" d="M341.496,-224.831C336.224,-215.713 329.88,-204.738 324.721,-195.815"/>
<polygon fill="midnightblue" stroke="midnightblue" points="327.731,-194.027 319.695,-187.122 321.67,-197.531 327.731,-194.027"/>
</g>
<!-- Node22 -->
<g id="node22" class="node"><title>Node22</title>
<polygon fill="none" stroke="#bfbfbf" points="533.766,-169 533.766,-187 584.234,-187 584.234,-169 533.766,-169"/>
<text text-anchor="middle" x="559" y="-175" font-family="Helvetica,sans-Serif" font-size="10.00">signal.h</text>
</g>
<!-- Node1&#45;&gt;Node22 -->
<g id="edge35" class="edge"><title>Node1&#45;&gt;Node22</title>
<path fill="none" stroke="midnightblue" d="M410.488,-224.917C447.008,-213.625 492.815,-199.463 523.827,-189.875"/>
<polygon fill="midnightblue" stroke="midnightblue" points="525.222,-193.107 533.742,-186.809 523.155,-186.419 525.222,-193.107"/>
</g>
<!-- Node23 -->
<g id="node23" class="node"><title>Node23</title>
<polygon fill="none" stroke="#bfbfbf" points="602.158,-169 602.158,-187 649.842,-187 649.842,-169 602.158,-169"/>
<text text-anchor="middle" x="626" y="-175" font-family="Helvetica,sans-Serif" font-size="10.00">errno.h</text>
</g>
<!-- Node1&#45;&gt;Node23 -->
<g id="edge36" class="edge"><title>Node1&#45;&gt;Node23</title>
<path fill="none" stroke="midnightblue" d="M413.082,-229.801C459.612,-219.577 525.484,-204.74 592.055,-188.162"/>
<polygon fill="midnightblue" stroke="midnightblue" points="593.029,-191.526 601.88,-185.703 591.329,-184.735 593.029,-191.526"/>
</g>
<!-- Node24 -->
<g id="node24" class="node"><title>Node24</title>
<polygon fill="none" stroke="#bfbfbf" points="668.247,-169 668.247,-187 783.753,-187 783.753,-169 668.247,-169"/>
<text text-anchor="middle" x="726" y="-175" font-family="Helvetica,sans-Serif" font-size="10.00">../sched/sched_flags.h</text>
</g>
<!-- Node1&#45;&gt;Node24 -->
<g id="edge37" class="edge"><title>Node1&#45;&gt;Node24</title>
<path fill="none" stroke="midnightblue" d="M413.34,-232.503C484.202,-220.377 599.871,-200.584 668.89,-188.773"/>
<polygon fill="midnightblue" stroke="midnightblue" points="669.872,-192.156 679.138,-187.019 668.691,-185.256 669.872,-192.156"/>
</g>
<!-- Node25 -->
<g id="node25" class="node"><title>Node25</title>
<g id="a_node25"><a xlink:href="sig__local_8h_source.html" target="_top" xlink:title="sig_local.h">
<polygon fill="none" stroke="black" points="172.375,-169 172.375,-187 235.625,-187 235.625,-169 172.375,-169"/>
<text text-anchor="middle" x="204" y="-175" font-family="Helvetica,sans-Serif" font-size="10.00">sig_local.h</text>
</a>
</g>
</g>
<!-- Node1&#45;&gt;Node25 -->
<g id="edge38" class="edge"><title>Node1&#45;&gt;Node25</title>
<path fill="none" stroke="midnightblue" d="M309.985,-224.831C285.084,-214.063 254.2,-200.708 232.208,-191.198"/>
<polygon fill="midnightblue" stroke="midnightblue" points="233.35,-187.879 222.782,-187.122 230.571,-194.304 233.35,-187.879"/>
</g>
<!-- Node4 -->
<g id="node4" class="node"><title>Node4</title>
<polygon fill="none" stroke="#bfbfbf" points="232.879,-1 232.879,-19 281.121,-19 281.121,-1 232.879,-1"/>
<text text-anchor="middle" x="257" y="-7" font-family="Helvetica,sans-Serif" font-size="10.00">stdint.h</text>
</g>
<!-- Node3&#45;&gt;Node4 -->
<g id="edge3" class="edge"><title>Node3&#45;&gt;Node4</title>
<path fill="none" stroke="midnightblue" d="M37.6481,-112.928C58.3259,-99.9299 100.889,-74.0008 139,-56 166.582,-42.9724 199.035,-30.8142 222.919,-22.428"/>
<polygon fill="midnightblue" stroke="midnightblue" points="224.29,-25.657 232.591,-19.0733 221.997,-19.0435 224.29,-25.657"/>
</g>
<!-- Node5&#45;&gt;Node4 -->
<g id="edge5" class="edge"><title>Node5&#45;&gt;Node4</title>
<path fill="none" stroke="midnightblue" d="M257.925,-112.732C257.765,-95.1275 257.387,-53.5746 257.167,-29.3716"/>
<polygon fill="midnightblue" stroke="midnightblue" points="260.664,-29.0326 257.073,-19.0649 253.664,-29.0963 260.664,-29.0326"/>
</g>
<!-- Node6 -->
<g id="node6" class="node"><title>Node6</title>
<polygon fill="none" stroke="#bfbfbf" points="181.158,-57 181.158,-75 228.842,-75 228.842,-57 181.158,-57"/>
<text text-anchor="middle" x="205" y="-63" font-family="Helvetica,sans-Serif" font-size="10.00">stdlib.h</text>
</g>
<!-- Node5&#45;&gt;Node6 -->
<g id="edge6" class="edge"><title>Node5&#45;&gt;Node6</title>
<path fill="none" stroke="midnightblue" d="M249.719,-112.562C241.816,-104.511 229.724,-92.1905 220.106,-82.3907"/>
<polygon fill="midnightblue" stroke="midnightblue" points="222.552,-79.8867 213.05,-75.2014 217.556,-84.79 222.552,-79.8867"/>
</g>
<!-- Node7 -->
<g id="node7" class="node"><title>Node7</title>
<polygon fill="none" stroke="#bfbfbf" points="407.604,-57 407.604,-75 456.396,-75 456.396,-57 407.604,-57"/>
<text text-anchor="middle" x="432" y="-63" font-family="Helvetica,sans-Serif" font-size="10.00">string.h</text>
</g>
<!-- Node5&#45;&gt;Node7 -->
<g id="edge7" class="edge"><title>Node5&#45;&gt;Node7</title>
<path fill="none" stroke="midnightblue" d="M280.747,-113.94C310.595,-104.677 363.24,-88.3392 397.875,-77.5906"/>
<polygon fill="midnightblue" stroke="midnightblue" points="399.052,-80.8899 407.565,-74.5831 396.977,-74.2045 399.052,-80.8899"/>
</g>
<!-- Node8 -->
<g id="node8" class="node"><title>Node8</title>
<polygon fill="none" stroke="#bfbfbf" points="474.269,-57 474.269,-75 519.731,-75 519.731,-57 474.269,-57"/>
<text text-anchor="middle" x="497" y="-63" font-family="Helvetica,sans-Serif" font-size="10.00">stdio.h</text>
</g>
<!-- Node5&#45;&gt;Node8 -->
<g id="edge8" class="edge"><title>Node5&#45;&gt;Node8</title>
<path fill="none" stroke="midnightblue" d="M280.63,-114.201C283.439,-113.425 286.28,-112.672 289,-112 363.484,-93.6019 385.689,-94.6993 464.129,-76.0625"/>
<polygon fill="midnightblue" stroke="midnightblue" points="465.078,-79.4339 473.98,-73.6892 463.439,-72.6286 465.078,-79.4339"/>
</g>
<!-- Node9 -->
<g id="node9" class="node"><title>Node9</title>
<polygon fill="none" stroke="#bfbfbf" points="710.707,-1 710.707,-19 767.293,-19 767.293,-1 710.707,-1"/>
<text text-anchor="middle" x="739" y="-7" font-family="Helvetica,sans-Serif" font-size="10.00">stdbool.h</text>
</g>
<!-- Node5&#45;&gt;Node9 -->
<g id="edge9" class="edge"><title>Node5&#45;&gt;Node9</title>
<path fill="none" stroke="midnightblue" d="M280.561,-113.881C283.382,-113.16 286.244,-112.507 289,-112 337.351,-103.101 694.275,-109.774 730,-76 742.402,-64.2751 743.371,-44.0129 742.041,-29.2209"/>
<polygon fill="midnightblue" stroke="midnightblue" points="745.498,-28.6673 740.727,-19.2077 738.558,-29.5781 745.498,-28.6673"/>
</g>
<!-- Node10 -->
<g id="node10" class="node"><title>Node10</title>
<polygon fill="none" stroke="#bfbfbf" points="322.707,-57 322.707,-75 389.293,-75 389.293,-57 322.707,-57"/>
<text text-anchor="middle" x="356" y="-63" font-family="Helvetica,sans-Serif" font-size="10.00">hwpl/fault.h</text>
</g>
<!-- Node5&#45;&gt;Node10 -->
<g id="edge10" class="edge"><title>Node5&#45;&gt;Node10</title>
<path fill="none" stroke="midnightblue" d="M272.884,-112.799C288.661,-104.105 313.805,-90.2506 332.31,-80.0538"/>
<polygon fill="midnightblue" stroke="midnightblue" points="334.228,-82.9932 341.297,-75.1017 330.849,-76.8623 334.228,-82.9932"/>
</g>
<!-- Node11 -->
<g id="node11" class="node"><title>Node11</title>
<polygon fill="none" stroke="#bfbfbf" points="514.431,-1 514.431,-19 581.569,-19 581.569,-1 514.431,-1"/>
<text text-anchor="middle" x="548" y="-7" font-family="Helvetica,sans-Serif" font-size="10.00">hwpl/arch.h</text>
</g>
<!-- Node5&#45;&gt;Node11 -->
<g id="edge11" class="edge"><title>Node5&#45;&gt;Node11</title>
<path fill="none" stroke="midnightblue" d="M262.625,-112.648C270.924,-98.5089 289.766,-70.031 314,-56 373.662,-21.4571 454.807,-12.8176 504.183,-10.9949"/>
<polygon fill="midnightblue" stroke="midnightblue" points="504.325,-14.4923 514.218,-10.7025 504.121,-7.49532 504.325,-14.4923"/>
</g>
<!-- Node12 -->
<g id="node12" class="node"><title>Node12</title>
<g id="a_node12"><a xlink:href="types_8h_source.html" target="_top" xlink:title="hwpl/types.h">
<polygon fill="none" stroke="black" points="650.207,-57 650.207,-75 721.793,-75 721.793,-57 650.207,-57"/>
<text text-anchor="middle" x="686" y="-63" font-family="Helvetica,sans-Serif" font-size="10.00">hwpl/types.h</text>
</a>
</g>
</g>
<!-- Node5&#45;&gt;Node12 -->
<g id="edge12" class="edge"><title>Node5&#45;&gt;Node12</title>
<path fill="none" stroke="midnightblue" d="M280.571,-113.936C283.391,-113.205 286.25,-112.535 289,-112 440.198,-82.5708 483.722,-98.7499 640.213,-75.9651"/>
<polygon fill="midnightblue" stroke="midnightblue" points="640.816,-79.414 650.193,-74.4819 639.787,-72.49 640.816,-79.414"/>
</g>
<!-- Node12&#45;&gt;Node4 -->
<g id="edge13" class="edge"><title>Node12&#45;&gt;Node4</title>
<path fill="none" stroke="midnightblue" d="M650.186,-57.566C647.084,-57.0046 643.99,-56.4735 641,-56 512.622,-35.674 358.749,-20.3506 291.403,-14.0914"/>
<polygon fill="midnightblue" stroke="midnightblue" points="291.633,-10.5979 281.354,-13.1653 290.991,-17.5683 291.633,-10.5979"/>
</g>
<!-- Node12&#45;&gt;Node9 -->
<g id="edge14" class="edge"><title>Node12&#45;&gt;Node9</title>
<path fill="none" stroke="midnightblue" d="M694.281,-56.5625C702.184,-48.5108 714.276,-36.1905 723.894,-26.3907"/>
<polygon fill="midnightblue" stroke="midnightblue" points="726.444,-28.79 730.95,-19.2014 721.448,-23.8867 726.444,-28.79"/>
</g>
<!-- Node13 -->
<g id="node13" class="node"><title>Node13</title>
<g id="a_node13"><a xlink:href="ioctl_8h_source.html" target="_top" xlink:title="dev/ioctl.h">
<polygon fill="none" stroke="black" points="620.488,-1 620.488,-19 681.512,-19 681.512,-1 620.488,-1"/>
<text text-anchor="middle" x="651" y="-7" font-family="Helvetica,sans-Serif" font-size="10.00">dev/ioctl.h</text>
</a>
</g>
</g>
<!-- Node12&#45;&gt;Node13 -->
<g id="edge15" class="edge"><title>Node12&#45;&gt;Node13</title>
<path fill="none" stroke="midnightblue" d="M680.531,-56.5625C675.571,-48.9094 668.111,-37.3999 661.93,-27.8638"/>
<polygon fill="midnightblue" stroke="midnightblue" points="664.692,-25.6893 656.316,-19.2014 658.818,-29.4966 664.692,-25.6893"/>
</g>
<!-- Node16&#45;&gt;Node5 -->
<g id="edge23" class="edge"><title>Node16&#45;&gt;Node5</title>
<path fill="none" stroke="midnightblue" d="M306.094,-168.562C297.511,-160.431 284.332,-147.946 273.939,-138.1"/>
<polygon fill="midnightblue" stroke="midnightblue" points="276.324,-135.538 266.657,-131.201 271.51,-140.62 276.324,-135.538"/>
</g>
<!-- Node16&#45;&gt;Node6 -->
<g id="edge21" class="edge"><title>Node16&#45;&gt;Node6</title>
<path fill="none" stroke="midnightblue" d="M292.059,-170.659C272.239,-164.064 244.158,-151.872 227,-132 215.573,-118.765 210.018,-99.3418 207.357,-85.1753"/>
<polygon fill="midnightblue" stroke="midnightblue" points="210.793,-84.4972 205.787,-75.1599 203.878,-85.5813 210.793,-84.4972"/>
</g>
<!-- Node16&#45;&gt;Node7 -->
<g id="edge20" class="edge"><title>Node16&#45;&gt;Node7</title>
<path fill="none" stroke="midnightblue" d="M337.752,-170.287C371.874,-159.994 432.97,-140.603 439,-132 448.656,-118.224 444.784,-98.611 439.812,-84.5379"/>
<polygon fill="midnightblue" stroke="midnightblue" points="442.975,-83.021 436.002,-75.0444 436.479,-85.6285 442.975,-83.021"/>
</g>
<!-- Node16&#45;&gt;Node8 -->
<g id="edge19" class="edge"><title>Node16&#45;&gt;Node8</title>
<path fill="none" stroke="midnightblue" d="M337.932,-170.13C376.633,-158.472 451.199,-135.715 456,-132 471.964,-119.649 483.378,-99.1965 490.045,-84.5308"/>
<polygon fill="midnightblue" stroke="midnightblue" points="493.374,-85.6459 494.058,-75.0732 486.93,-82.9118 493.374,-85.6459"/>
</g>
<!-- Node17 -->
<g id="node17" class="node"><title>Node17</title>
<polygon fill="none" stroke="#bfbfbf" points="298.384,-113 298.384,-131 341.616,-131 341.616,-113 298.384,-113"/>
<text text-anchor="middle" x="320" y="-119" font-family="Helvetica,sans-Serif" font-size="10.00">time.h</text>
</g>
<!-- Node16&#45;&gt;Node17 -->
<g id="edge22" class="edge"><title>Node16&#45;&gt;Node17</title>
<path fill="none" stroke="midnightblue" d="M315.781,-168.562C316.453,-161.308 317.446,-150.588 318.299,-141.369"/>
<polygon fill="midnightblue" stroke="midnightblue" points="321.804,-141.482 319.241,-131.201 314.833,-140.836 321.804,-141.482"/>
</g>
<!-- Node18 -->
<g id="node18" class="node"><title>Node18</title>
<polygon fill="none" stroke="#bfbfbf" points="359.207,-113 359.207,-131 430.793,-131 430.793,-113 359.207,-113"/>
<text text-anchor="middle" x="395" y="-119" font-family="Helvetica,sans-Serif" font-size="10.00">hwpl/types.h</text>
</g>
<!-- Node16&#45;&gt;Node18 -->
<g id="edge24" class="edge"><title>Node16&#45;&gt;Node18</title>
<path fill="none" stroke="midnightblue" d="M327.15,-168.799C339.675,-160.345 359.431,-147.009 374.402,-136.904"/>
<polygon fill="midnightblue" stroke="midnightblue" points="376.667,-139.597 382.998,-131.102 372.751,-133.795 376.667,-139.597"/>
</g>
<!-- Node19 -->
<g id="node19" class="node"><title>Node19</title>
<g id="a_node19"><a xlink:href="device_8h_source.html" target="_top" xlink:title="device.h">
<polygon fill="none" stroke="black" points="618.377,-113 618.377,-131 671.623,-131 671.623,-113 618.377,-113"/>
<text text-anchor="middle" x="645" y="-119" font-family="Helvetica,sans-Serif" font-size="10.00">device.h</text>
</a>
</g>
</g>
<!-- Node16&#45;&gt;Node19 -->
<g id="edge25" class="edge"><title>Node16&#45;&gt;Node19</title>
<path fill="none" stroke="midnightblue" d="M337.987,-170.166C341.004,-169.378 344.066,-168.632 347,-168 439.984,-147.985 551.175,-133.704 607.83,-127.107"/>
<polygon fill="midnightblue" stroke="midnightblue" points="608.55,-130.547 618.085,-125.927 607.75,-123.593 608.55,-130.547"/>
</g>
<!-- Node19&#45;&gt;Node9 -->
<g id="edge27" class="edge"><title>Node19&#45;&gt;Node9</title>
<path fill="none" stroke="midnightblue" d="M671.862,-119.005C721.297,-114.715 823.601,-102.749 845,-76 867.344,-48.0695 816.359,-29.0647 777.607,-19.1321"/>
<polygon fill="midnightblue" stroke="midnightblue" points="778.117,-15.6539 767.573,-16.6867 776.46,-22.4549 778.117,-15.6539"/>
</g>
<!-- Node19&#45;&gt;Node11 -->
<g id="edge29" class="edge"><title>Node19&#45;&gt;Node11</title>
<path fill="none" stroke="midnightblue" d="M621.261,-112.862C603.85,-105.728 580.908,-93.7022 567,-76 556.445,-62.5661 551.751,-43.4401 549.665,-29.4123"/>
<polygon fill="midnightblue" stroke="midnightblue" points="553.093,-28.5906 548.455,-19.065 546.14,-29.4039 553.093,-28.5906"/>
</g>
<!-- Node19&#45;&gt;Node12 -->
<g id="edge28" class="edge"><title>Node19&#45;&gt;Node12</title>
<path fill="none" stroke="midnightblue" d="M651.406,-112.562C657.338,-104.75 666.321,-92.9187 673.647,-83.2704"/>
<polygon fill="midnightblue" stroke="midnightblue" points="676.513,-85.2824 679.773,-75.2014 670.938,-81.0494 676.513,-85.2824"/>
</g>
<!-- Node20 -->
<g id="node20" class="node"><title>Node20</title>
<polygon fill="none" stroke="#bfbfbf" points="777.882,-57 777.882,-75 836.118,-75 836.118,-57 777.882,-57"/>
<text text-anchor="middle" x="807" y="-63" font-family="Helvetica,sans-Serif" font-size="10.00">sys/stat.h</text>
</g>
<!-- Node19&#45;&gt;Node20 -->
<g id="edge26" class="edge"><title>Node19&#45;&gt;Node20</title>
<path fill="none" stroke="midnightblue" d="M669.253,-112.916C696.891,-103.703 742.241,-88.5863 773.303,-78.2322"/>
<polygon fill="midnightblue" stroke="midnightblue" points="774.466,-81.534 782.846,-75.0513 772.252,-74.8933 774.466,-81.534"/>
</g>
<!-- Node21 -->
<g id="node21" class="node"><title>Node21</title>
<g id="a_node21"><a xlink:href="pio_8h.html" target="_top" xlink:title="General Purpose Input/Output Header File. ">
<polygon fill="none" stroke="black" points="575.707,-57 575.707,-75 632.293,-75 632.293,-57 575.707,-57"/>
<text text-anchor="middle" x="604" y="-63" font-family="Helvetica,sans-Serif" font-size="10.00">dev/pio.h</text>
</a>
</g>
</g>
<!-- Node19&#45;&gt;Node21 -->
<g id="edge30" class="edge"><title>Node19&#45;&gt;Node21</title>
<path fill="none" stroke="midnightblue" d="M638.594,-112.562C632.662,-104.75 623.679,-92.9187 616.353,-83.2704"/>
<polygon fill="midnightblue" stroke="midnightblue" points="619.062,-81.0494 610.227,-75.2014 613.487,-85.2824 619.062,-81.0494"/>
</g>
<!-- Node21&#45;&gt;Node4 -->
<g id="edge32" class="edge"><title>Node21&#45;&gt;Node4</title>
<path fill="none" stroke="midnightblue" d="M575.604,-60.581C512.456,-50.754 360.561,-27.1161 291.827,-16.4198"/>
<polygon fill="midnightblue" stroke="midnightblue" points="291.956,-12.8977 281.536,-14.8184 290.879,-19.8145 291.956,-12.8977"/>
</g>
<!-- Node21&#45;&gt;Node9 -->
<g id="edge31" class="edge"><title>Node21&#45;&gt;Node9</title>
<path fill="none" stroke="midnightblue" d="M624.211,-56.9157C646.778,-47.8888 683.517,-33.1931 709.341,-22.8637"/>
<polygon fill="midnightblue" stroke="midnightblue" points="710.666,-26.1033 718.651,-19.1396 708.066,-19.6039 710.666,-26.1033"/>
</g>
<!-- Node21&#45;&gt;Node11 -->
<g id="edge34" class="edge"><title>Node21&#45;&gt;Node11</title>
<path fill="none" stroke="midnightblue" d="M595.25,-56.5625C586.9,-48.5108 574.124,-36.1905 563.961,-26.3907"/>
<polygon fill="midnightblue" stroke="midnightblue" points="566.133,-23.6234 556.505,-19.2014 561.274,-28.6623 566.133,-23.6234"/>
</g>
<!-- Node21&#45;&gt;Node13 -->
<g id="edge33" class="edge"><title>Node21&#45;&gt;Node13</title>
<path fill="none" stroke="midnightblue" d="M611.344,-56.5625C618.213,-48.6703 628.652,-36.6768 637.095,-26.9758"/>
<polygon fill="midnightblue" stroke="midnightblue" points="639.937,-29.0424 643.862,-19.2014 634.656,-24.4467 639.937,-29.0424"/>
</g>
<!-- Node25&#45;&gt;Node4 -->
<g id="edge40" class="edge"><title>Node25&#45;&gt;Node4</title>
<path fill="none" stroke="midnightblue" d="M197.745,-168.751C183.032,-148.264 149.136,-93.9756 172,-56 183.097,-37.5692 204.555,-26.2919 223.133,-19.6361"/>
<polygon fill="midnightblue" stroke="midnightblue" points="224.376,-22.9124 232.795,-16.4806 222.202,-16.2584 224.376,-22.9124"/>
</g>
<!-- Node25&#45;&gt;Node5 -->
<g id="edge39" class="edge"><title>Node25&#45;&gt;Node5</title>
<path fill="none" stroke="midnightblue" d="M212.438,-168.562C220.489,-160.511 232.809,-148.191 242.609,-138.391"/>
<polygon fill="midnightblue" stroke="midnightblue" points="245.202,-140.747 249.799,-131.201 240.253,-135.798 245.202,-140.747"/>
</g>
<!-- Node26 -->
<g id="node26" class="node"><title>Node26</title>
<polygon fill="none" stroke="#bfbfbf" points="68.5444,-113 68.5444,-131 133.456,-131 133.456,-113 68.5444,-113"/>
<text text-anchor="middle" x="101" y="-119" font-family="Helvetica,sans-Serif" font-size="10.00">sys/reent.h</text>
</g>
<!-- Node25&#45;&gt;Node26 -->
<g id="edge41" class="edge"><title>Node25&#45;&gt;Node26</title>
<path fill="none" stroke="midnightblue" d="M188.357,-168.799C171.623,-160.026 144.863,-145.996 125.365,-135.774"/>
<polygon fill="midnightblue" stroke="midnightblue" points="126.935,-132.645 116.453,-131.102 123.685,-138.845 126.935,-132.645"/>
</g>
</g>
</svg>
