<?xml version="1.0" encoding="UTF-8" standalone="no"?>
<!DOCTYPE svg PUBLIC "-//W3C//DTD SVG 1.1//EN"
 "http://www.w3.org/Graphics/SVG/1.1/DTD/svg11.dtd">
<!-- Generated by graphviz version 2.34.0 (20130907.0228)
 -->
<!-- Title: /Users/tgil/git/CoActionOS/CoActionOS/src/sys/pthread/pthread_schedparam.c Pages: 1 -->
<svg width="402pt" height="112pt"
 viewBox="0.00 0.00 402.00 112.00" xmlns="http://www.w3.org/2000/svg" xmlns:xlink="http://www.w3.org/1999/xlink">
<g id="graph0" class="graph" transform="scale(1 1) rotate(0) translate(4 108)">
<title>/Users/tgil/git/CoActionOS/CoActionOS/src/sys/pthread/pthread_schedparam.c</title>
<!-- Node1 -->
<g id="node1" class="node"><title>Node1</title>
<polygon fill="#bfbfbf" stroke="black" points="90.1211,-59 90.1211,-103 247.879,-103 247.879,-59 90.1211,-59"/>
<text text-anchor="start" x="98.1211" y="-89" font-family="Helvetica,sans-Serif" font-size="10.00">/Users/tgil/git/CoAction</text>
<text text-anchor="start" x="98.1211" y="-77" font-family="Helvetica,sans-Serif" font-size="10.00">OS/CoActionOS/src/sys</text>
<text text-anchor="middle" x="169" y="-65" font-family="Helvetica,sans-Serif" font-size="10.00">/pthread/pthread_schedparam.c</text>
</g>
<!-- Node2 -->
<g id="node2" class="node"><title>Node2</title>
<g id="a_node2"><a xlink:href="config_8h.html" target="_top" xlink:title="config.h">
<polygon fill="none" stroke="black" points="-0.512207,-1 -0.512207,-21 50.5122,-21 50.5122,-1 -0.512207,-1"/>
<text text-anchor="middle" x="25" y="-7" font-family="Helvetica,sans-Serif" font-size="10.00">config.h</text>
</a>
</g>
</g>
<!-- Node1&#45;&gt;Node2 -->
<g id="edge1" class="edge"><title>Node1&#45;&gt;Node2</title>
<path fill="none" stroke="midnightblue" d="M124.227,-58.8571C101.097,-47.9346 73.5701,-34.9359 53.3837,-25.4034"/>
<polygon fill="midnightblue" stroke="midnightblue" points="54.6522,-22.1318 44.1151,-21.0266 51.6631,-28.4616 54.6522,-22.1318"/>
</g>
<!-- Node3 -->
<g id="node3" class="node"><title>Node3</title>
<polygon fill="none" stroke="#bfbfbf" points="68.8721,-1 68.8721,-21 127.128,-21 127.128,-1 68.8721,-1"/>
<text text-anchor="middle" x="98" y="-7" font-family="Helvetica,sans-Serif" font-size="10.00">pthread.h</text>
</g>
<!-- Node1&#45;&gt;Node3 -->
<g id="edge2" class="edge"><title>Node1&#45;&gt;Node3</title>
<path fill="none" stroke="midnightblue" d="M146.924,-58.8571C136.62,-48.9884 124.547,-37.425 114.972,-28.2545"/>
<polygon fill="midnightblue" stroke="midnightblue" points="117.253,-25.5931 107.61,-21.2039 112.411,-30.6485 117.253,-25.5931"/>
</g>
<!-- Node4 -->
<g id="node4" class="node"><title>Node4</title>
<polygon fill="none" stroke="#bfbfbf" points="145.158,-1 145.158,-21 192.842,-21 192.842,-1 145.158,-1"/>
<text text-anchor="middle" x="169" y="-7" font-family="Helvetica,sans-Serif" font-size="10.00">errno.h</text>
</g>
<!-- Node1&#45;&gt;Node4 -->
<g id="edge3" class="edge"><title>Node1&#45;&gt;Node4</title>
<path fill="none" stroke="midnightblue" d="M169,-58.8571C169,-50.074 169,-39.9484 169,-31.3622"/>
<polygon fill="midnightblue" stroke="midnightblue" points="172.5,-31.2039 169,-21.2039 165.5,-31.204 172.5,-31.2039"/>
</g>
<!-- Node5 -->
<g id="node5" class="node"><title>Node5</title>
<polygon fill="none" stroke="#bfbfbf" points="210.488,-1 210.488,-21 261.512,-21 261.512,-1 210.488,-1"/>
<text text-anchor="middle" x="236" y="-7" font-family="Helvetica,sans-Serif" font-size="10.00">sched.h</text>
</g>
<!-- Node1&#45;&gt;Node5 -->
<g id="edge4" class="edge"><title>Node1&#45;&gt;Node5</title>
<path fill="none" stroke="midnightblue" d="M189.832,-58.8571C199.458,-49.0871 210.721,-37.6561 219.713,-28.5303"/>
<polygon fill="midnightblue" stroke="midnightblue" points="222.406,-30.7837 226.931,-21.2039 217.42,-25.8707 222.406,-30.7837"/>
</g>
<!-- Node6 -->
<g id="node6" class="node"><title>Node6</title>
<polygon fill="none" stroke="#bfbfbf" points="279.247,-1 279.247,-21 394.753,-21 394.753,-1 279.247,-1"/>
<text text-anchor="middle" x="337" y="-7" font-family="Helvetica,sans-Serif" font-size="10.00">../sched/sched_flags.h</text>
</g>
<!-- Node1&#45;&gt;Node6 -->
<g id="edge5" class="edge"><title>Node1&#45;&gt;Node6</title>
<path fill="none" stroke="midnightblue" d="M221.235,-58.8571C248.711,-47.736 281.504,-34.4625 305.162,-24.887"/>
<polygon fill="midnightblue" stroke="midnightblue" points="306.743,-28.0229 314.699,-21.0266 304.116,-21.5343 306.743,-28.0229"/>
</g>
</g>
</svg>
