<?xml version="1.0" encoding="UTF-8" standalone="no"?>
<!DOCTYPE svg PUBLIC "-//W3C//DTD SVG 1.1//EN"
 "http://www.w3.org/Graphics/SVG/1.1/DTD/svg11.dtd">
<!-- Generated by graphviz version 2.34.0 (20130907.0228)
 -->
<!-- Title: /Users/tgil/git/CoActionOS/CoActionOS/src/sys/pthread/pthread_cancel.c Pages: 1 -->
<svg width="200pt" height="112pt"
 viewBox="0.00 0.00 200.00 112.00" xmlns="http://www.w3.org/2000/svg" xmlns:xlink="http://www.w3.org/1999/xlink">
<g id="graph0" class="graph" transform="scale(1 1) rotate(0) translate(4 108)">
<title>/Users/tgil/git/CoActionOS/CoActionOS/src/sys/pthread/pthread_cancel.c</title>
<!-- Node1 -->
<g id="node1" class="node"><title>Node1</title>
<polygon fill="#bfbfbf" stroke="black" points="32.1826,-59 32.1826,-103 163.817,-103 163.817,-59 32.1826,-59"/>
<text text-anchor="start" x="40.1826" y="-89" font-family="Helvetica,sans-Serif" font-size="10.00">/Users/tgil/git/CoAction</text>
<text text-anchor="start" x="40.1826" y="-77" font-family="Helvetica,sans-Serif" font-size="10.00">OS/CoActionOS/src/sys</text>
<text text-anchor="middle" x="98" y="-65" font-family="Helvetica,sans-Serif" font-size="10.00">/pthread/pthread_cancel.c</text>
</g>
<!-- Node2 -->
<g id="node2" class="node"><title>Node2</title>
<g id="a_node2"><a xlink:href="config_8h.html" target="_top" xlink:title="config.h">
<polygon fill="none" stroke="black" points="-0.512207,-1 -0.512207,-21 50.5122,-21 50.5122,-1 -0.512207,-1"/>
<text text-anchor="middle" x="25" y="-7" font-family="Helvetica,sans-Serif" font-size="10.00">config.h</text>
</a>
</g>
</g>
<!-- Node1&#45;&gt;Node2 -->
<g id="edge1" class="edge"><title>Node1&#45;&gt;Node2</title>
<path fill="none" stroke="midnightblue" d="M75.3025,-58.8571C64.7082,-48.9884 52.2944,-37.425 42.4497,-28.2545"/>
<polygon fill="midnightblue" stroke="midnightblue" points="44.5836,-25.459 34.8807,-21.2039 39.8123,-30.581 44.5836,-25.459"/>
</g>
<!-- Node3 -->
<g id="node3" class="node"><title>Node3</title>
<polygon fill="none" stroke="#bfbfbf" points="68.8721,-1 68.8721,-21 127.128,-21 127.128,-1 68.8721,-1"/>
<text text-anchor="middle" x="98" y="-7" font-family="Helvetica,sans-Serif" font-size="10.00">pthread.h</text>
</g>
<!-- Node1&#45;&gt;Node3 -->
<g id="edge2" class="edge"><title>Node1&#45;&gt;Node3</title>
<path fill="none" stroke="midnightblue" d="M98,-58.8571C98,-50.074 98,-39.9484 98,-31.3622"/>
<polygon fill="midnightblue" stroke="midnightblue" points="101.5,-31.2039 98,-21.2039 94.5001,-31.204 101.5,-31.2039"/>
</g>
<!-- Node4 -->
<g id="node4" class="node"><title>Node4</title>
<polygon fill="none" stroke="#bfbfbf" points="145.158,-1 145.158,-21 192.842,-21 192.842,-1 145.158,-1"/>
<text text-anchor="middle" x="169" y="-7" font-family="Helvetica,sans-Serif" font-size="10.00">errno.h</text>
</g>
<!-- Node1&#45;&gt;Node4 -->
<g id="edge3" class="edge"><title>Node1&#45;&gt;Node4</title>
<path fill="none" stroke="midnightblue" d="M120.076,-58.8571C130.38,-48.9884 142.453,-37.425 152.028,-28.2545"/>
<polygon fill="midnightblue" stroke="midnightblue" points="154.589,-30.6485 159.39,-21.2039 149.747,-25.5931 154.589,-30.6485"/>
</g>
</g>
</svg>
