<?xml version="1.0" encoding="UTF-8" standalone="no"?>
<!DOCTYPE svg PUBLIC "-//W3C//DTD SVG 1.1//EN"
 "http://www.w3.org/Graphics/SVG/1.1/DTD/svg11.dtd">
<!-- Generated by graphviz version 2.34.0 (20130907.0228)
 -->
<!-- Title: /Users/tgil/git/CoActionOS/CoActionOS/src/sys/semaphore/sem.c Pages: 1 -->
<svg width="801pt" height="286pt"
 viewBox="0.00 0.00 801.00 286.00" xmlns="http://www.w3.org/2000/svg" xmlns:xlink="http://www.w3.org/1999/xlink">
<g id="graph0" class="graph" transform="scale(1 1) rotate(0) translate(4 282)">
<title>/Users/tgil/git/CoActionOS/CoActionOS/src/sys/semaphore/sem.c</title>
<!-- Node1 -->
<g id="node1" class="node"><title>Node1</title>
<polygon fill="#bfbfbf" stroke="black" points="257.931,-233 257.931,-277 380.069,-277 380.069,-233 257.931,-233"/>
<text text-anchor="start" x="265.931" y="-263" font-family="Helvetica,sans-Serif" font-size="10.00">/Users/tgil/git/CoAction</text>
<text text-anchor="start" x="265.931" y="-251" font-family="Helvetica,sans-Serif" font-size="10.00">OS/CoActionOS/src/sys</text>
<text text-anchor="middle" x="319" y="-239" font-family="Helvetica,sans-Serif" font-size="10.00">/semaphore/sem.c</text>
</g>
<!-- Node2 -->
<g id="node2" class="node"><title>Node2</title>
<polygon fill="none" stroke="#bfbfbf" points="-0.842285,-175 -0.842285,-195 46.8423,-195 46.8423,-175 -0.842285,-175"/>
<text text-anchor="middle" x="23" y="-181" font-family="Helvetica,sans-Serif" font-size="10.00">errno.h</text>
</g>
<!-- Node1&#45;&gt;Node2 -->
<g id="edge1" class="edge"><title>Node1&#45;&gt;Node2</title>
<path fill="none" stroke="midnightblue" d="M257.831,-241.905C206.622,-231.462 131.446,-215.396 57.0968,-196.146"/>
<polygon fill="midnightblue" stroke="midnightblue" points="57.6494,-192.673 47.0896,-193.534 55.8816,-199.446 57.6494,-192.673"/>
</g>
<!-- Node3 -->
<g id="node3" class="node"><title>Node3</title>
<polygon fill="none" stroke="#bfbfbf" points="64.6602,-175 64.6602,-195 107.34,-195 107.34,-175 64.6602,-175"/>
<text text-anchor="middle" x="86" y="-181" font-family="Helvetica,sans-Serif" font-size="10.00">fcntl.h</text>
</g>
<!-- Node1&#45;&gt;Node3 -->
<g id="edge2" class="edge"><title>Node1&#45;&gt;Node3</title>
<path fill="none" stroke="midnightblue" d="M257.5,-237.178C219.504,-226.611 169.538,-212.406 117.36,-196.343"/>
<polygon fill="midnightblue" stroke="midnightblue" points="118.182,-192.934 107.594,-193.322 116.113,-199.621 118.182,-192.934"/>
</g>
<!-- Node4 -->
<g id="node4" class="node"><title>Node4</title>
<polygon fill="none" stroke="#bfbfbf" points="125.488,-175 125.488,-195 176.512,-195 176.512,-175 125.488,-175"/>
<text text-anchor="middle" x="151" y="-181" font-family="Helvetica,sans-Serif" font-size="10.00">unistd.h</text>
</g>
<!-- Node1&#45;&gt;Node4 -->
<g id="edge3" class="edge"><title>Node1&#45;&gt;Node4</title>
<path fill="none" stroke="midnightblue" d="M266.765,-232.857C239.289,-221.736 206.496,-208.463 182.838,-198.887"/>
<polygon fill="midnightblue" stroke="midnightblue" points="183.884,-195.534 173.301,-195.027 181.257,-202.023 183.884,-195.534"/>
</g>
<!-- Node5 -->
<g id="node5" class="node"><title>Node5</title>
<polygon fill="none" stroke="#bfbfbf" points="194.604,-175 194.604,-195 243.396,-195 243.396,-175 194.604,-175"/>
<text text-anchor="middle" x="219" y="-181" font-family="Helvetica,sans-Serif" font-size="10.00">string.h</text>
</g>
<!-- Node1&#45;&gt;Node5 -->
<g id="edge4" class="edge"><title>Node1&#45;&gt;Node5</title>
<path fill="none" stroke="midnightblue" d="M287.908,-232.857C272.575,-222.431 254.461,-210.113 240.653,-200.724"/>
<polygon fill="midnightblue" stroke="midnightblue" points="242.512,-197.755 232.274,-195.027 238.576,-203.544 242.512,-197.755"/>
</g>
<!-- Node6 -->
<g id="node6" class="node"><title>Node6</title>
<polygon fill="none" stroke="#bfbfbf" points="261.158,-175 261.158,-195 308.842,-195 308.842,-175 261.158,-175"/>
<text text-anchor="middle" x="285" y="-181" font-family="Helvetica,sans-Serif" font-size="10.00">stdlib.h</text>
</g>
<!-- Node1&#45;&gt;Node6 -->
<g id="edge5" class="edge"><title>Node1&#45;&gt;Node6</title>
<path fill="none" stroke="midnightblue" d="M308.429,-232.857C303.84,-223.679 298.518,-213.036 294.107,-204.214"/>
<polygon fill="midnightblue" stroke="midnightblue" points="297.205,-202.583 289.602,-195.204 290.944,-205.713 297.205,-202.583"/>
</g>
<!-- Node7 -->
<g id="node7" class="node"><title>Node7</title>
<polygon fill="none" stroke="#bfbfbf" points="326.934,-175 326.934,-195 379.066,-195 379.066,-175 326.934,-175"/>
<text text-anchor="middle" x="353" y="-181" font-family="Helvetica,sans-Serif" font-size="10.00">stdarg.h</text>
</g>
<!-- Node1&#45;&gt;Node7 -->
<g id="edge6" class="edge"><title>Node1&#45;&gt;Node7</title>
<path fill="none" stroke="midnightblue" d="M329.571,-232.857C334.16,-223.679 339.482,-213.036 343.893,-204.214"/>
<polygon fill="midnightblue" stroke="midnightblue" points="347.056,-205.713 348.398,-195.204 340.795,-202.583 347.056,-205.713"/>
</g>
<!-- Node8 -->
<g id="node8" class="node"><title>Node8</title>
<g id="a_node8"><a xlink:href="sysfs_8h_source.html" target="_top" xlink:title="sysfs.h">
<polygon fill="none" stroke="black" points="397.441,-175 397.441,-195 444.559,-195 444.559,-175 397.441,-175"/>
<text text-anchor="middle" x="421" y="-181" font-family="Helvetica,sans-Serif" font-size="10.00">sysfs.h</text>
</a>
</g>
</g>
<!-- Node1&#45;&gt;Node8 -->
<g id="edge7" class="edge"><title>Node1&#45;&gt;Node8</title>
<path fill="none" stroke="midnightblue" d="M350.714,-232.857C366.353,-222.431 384.83,-210.113 398.914,-200.724"/>
<polygon fill="midnightblue" stroke="midnightblue" points="401.081,-203.486 407.46,-195.027 397.198,-197.661 401.081,-203.486"/>
</g>
<!-- Node20 -->
<g id="node20" class="node"><title>Node20</title>
<g id="a_node20"><a xlink:href="semaphore_8h_source.html" target="_top" xlink:title="semaphore.h">
<polygon fill="none" stroke="black" points="480.815,-175 480.815,-195 555.185,-195 555.185,-175 480.815,-175"/>
<text text-anchor="middle" x="518" y="-181" font-family="Helvetica,sans-Serif" font-size="10.00">semaphore.h</text>
</a>
</g>
</g>
<!-- Node1&#45;&gt;Node20 -->
<g id="edge26" class="edge"><title>Node1&#45;&gt;Node20</title>
<path fill="none" stroke="midnightblue" d="M380.33,-233.043C413.633,-221.663 453.66,-207.985 481.949,-198.319"/>
<polygon fill="midnightblue" stroke="midnightblue" points="483.103,-201.623 491.434,-195.078 480.84,-194.999 483.103,-201.623"/>
</g>
<!-- Node24 -->
<g id="node24" class="node"><title>Node24</title>
<polygon fill="none" stroke="#bfbfbf" points="573.247,-175 573.247,-195 688.753,-195 688.753,-175 573.247,-175"/>
<text text-anchor="middle" x="631" y="-181" font-family="Helvetica,sans-Serif" font-size="10.00">../sched/sched_flags.h</text>
</g>
<!-- Node1&#45;&gt;Node24 -->
<g id="edge31" class="edge"><title>Node1&#45;&gt;Node24</title>
<path fill="none" stroke="midnightblue" d="M380.269,-240.647C438.408,-227.975 524.801,-209.146 579.486,-197.227"/>
<polygon fill="midnightblue" stroke="midnightblue" points="580.289,-200.635 589.314,-195.085 578.798,-193.795 580.289,-200.635"/>
</g>
<!-- Node25 -->
<g id="node25" class="node"><title>Node25</title>
<polygon fill="none" stroke="#bfbfbf" points="706.254,-175 706.254,-195 781.746,-195 781.746,-175 706.254,-175"/>
<text text-anchor="middle" x="744" y="-181" font-family="Helvetica,sans-Serif" font-size="10.00">hwpl/debug.h</text>
</g>
<!-- Node1&#45;&gt;Node25 -->
<g id="edge32" class="edge"><title>Node1&#45;&gt;Node25</title>
<path fill="none" stroke="midnightblue" d="M380.396,-245.684C453.283,-235.564 578.717,-217.371 696.185,-196.069"/>
<polygon fill="midnightblue" stroke="midnightblue" points="696.863,-199.503 706.072,-194.265 695.606,-192.617 696.863,-199.503"/>
</g>
<!-- Node9 -->
<g id="node9" class="node"><title>Node9</title>
<polygon fill="none" stroke="#bfbfbf" points="271.707,-1 271.707,-21 328.293,-21 328.293,-1 271.707,-1"/>
<text text-anchor="middle" x="300" y="-7" font-family="Helvetica,sans-Serif" font-size="10.00">stdbool.h</text>
</g>
<!-- Node8&#45;&gt;Node9 -->
<g id="edge8" class="edge"><title>Node8&#45;&gt;Node9</title>
<path fill="none" stroke="midnightblue" d="M397.224,-176.733C394.124,-175.804 390.988,-174.873 388,-174 299.092,-148.029 237.446,-165.573 202,-80 198.258,-70.9665 196.757,-66.2531 202,-58 215.051,-37.457 239.973,-25.9268 261.418,-19.5477"/>
<polygon fill="midnightblue" stroke="midnightblue" points="262.539,-22.8706 271.284,-16.8892 260.718,-16.1116 262.539,-22.8706"/>
</g>
<!-- Node10 -->
<g id="node10" class="node"><title>Node10</title>
<polygon fill="none" stroke="#bfbfbf" points="484.99,-117 484.99,-137 551.01,-137 551.01,-117 484.99,-117"/>
<text text-anchor="middle" x="518" y="-123" font-family="Helvetica,sans-Serif" font-size="10.00">sys/types.h</text>
</g>
<!-- Node8&#45;&gt;Node10 -->
<g id="edge9" class="edge"><title>Node8&#45;&gt;Node10</title>
<path fill="none" stroke="midnightblue" d="M437.018,-174.753C452.414,-165.864 475.893,-152.309 493.613,-142.079"/>
<polygon fill="midnightblue" stroke="midnightblue" points="495.37,-145.106 502.28,-137.075 491.87,-139.044 495.37,-145.106"/>
</g>
<!-- Node11 -->
<g id="node11" class="node"><title>Node11</title>
<polygon fill="none" stroke="#bfbfbf" points="351.879,-1 351.879,-21 400.121,-21 400.121,-1 351.879,-1"/>
<text text-anchor="middle" x="376" y="-7" font-family="Helvetica,sans-Serif" font-size="10.00">stdint.h</text>
</g>
<!-- Node8&#45;&gt;Node11 -->
<g id="edge10" class="edge"><title>Node8&#45;&gt;Node11</title>
<path fill="none" stroke="midnightblue" d="M427.629,-174.957C445.733,-149.748 493.773,-79.1524 480,-58 471.845,-45.4752 436.958,-31.6751 409.812,-22.4893"/>
<polygon fill="midnightblue" stroke="midnightblue" points="410.818,-19.1357 400.225,-19.3248 408.624,-25.783 410.818,-19.1357"/>
</g>
<!-- Node12 -->
<g id="node12" class="node"><title>Node12</title>
<polygon fill="none" stroke="#bfbfbf" points="103.209,-117 103.209,-137 154.791,-137 154.791,-117 103.209,-117"/>
<text text-anchor="middle" x="129" y="-123" font-family="Helvetica,sans-Serif" font-size="10.00">stddef.h</text>
</g>
<!-- Node8&#45;&gt;Node12 -->
<g id="edge11" class="edge"><title>Node8&#45;&gt;Node12</title>
<path fill="none" stroke="midnightblue" d="M397.308,-176.414C394.194,-175.537 391.032,-174.705 388,-174 291.926,-151.649 265.595,-157.979 169,-138 167.738,-137.739 166.456,-137.465 165.163,-137.182"/>
<polygon fill="midnightblue" stroke="midnightblue" points="165.711,-133.716 155.179,-134.872 164.133,-140.536 165.711,-133.716"/>
</g>
<!-- Node13 -->
<g id="node13" class="node"><title>Node13</title>
<polygon fill="none" stroke="#bfbfbf" points="210.882,-59 210.882,-79 269.118,-79 269.118,-59 210.882,-59"/>
<text text-anchor="middle" x="240" y="-65" font-family="Helvetica,sans-Serif" font-size="10.00">sys/stat.h</text>
</g>
<!-- Node8&#45;&gt;Node13 -->
<g id="edge12" class="edge"><title>Node8&#45;&gt;Node13</title>
<path fill="none" stroke="midnightblue" d="M409.495,-174.867C392.13,-161.273 357.959,-135.251 327,-116 307.902,-104.125 285.444,-92.3003 268.129,-83.614"/>
<polygon fill="midnightblue" stroke="midnightblue" points="269.607,-80.44 259.093,-79.1307 266.496,-86.7106 269.607,-80.44"/>
</g>
<!-- Node14 -->
<g id="node14" class="node"><title>Node14</title>
<polygon fill="none" stroke="#bfbfbf" points="269.323,-117 269.323,-137 318.677,-137 318.677,-117 269.323,-117"/>
<text text-anchor="middle" x="294" y="-123" font-family="Helvetica,sans-Serif" font-size="10.00">dirent.h</text>
</g>
<!-- Node8&#45;&gt;Node14 -->
<g id="edge13" class="edge"><title>Node8&#45;&gt;Node14</title>
<path fill="none" stroke="midnightblue" d="M400.313,-174.878C379.556,-165.725 347.376,-151.536 323.855,-141.164"/>
<polygon fill="midnightblue" stroke="midnightblue" points="325.241,-137.95 314.679,-137.118 322.416,-144.355 325.241,-137.95"/>
</g>
<!-- Node15 -->
<g id="node15" class="node"><title>Node15</title>
<g id="a_node15"><a xlink:href="device_8h_source.html" target="_top" xlink:title="device.h">
<polygon fill="none" stroke="black" points="375.377,-117 375.377,-137 428.623,-137 428.623,-117 375.377,-117"/>
<text text-anchor="middle" x="402" y="-123" font-family="Helvetica,sans-Serif" font-size="10.00">device.h</text>
</a>
</g>
</g>
<!-- Node8&#45;&gt;Node15 -->
<g id="edge14" class="edge"><title>Node8&#45;&gt;Node15</title>
<path fill="none" stroke="midnightblue" d="M417.863,-174.753C415.289,-167.169 411.564,-156.188 408.37,-146.774"/>
<polygon fill="midnightblue" stroke="midnightblue" points="411.607,-145.42 405.079,-137.075 404.978,-147.67 411.607,-145.42"/>
</g>
<!-- Node15&#45;&gt;Node9 -->
<g id="edge16" class="edge"><title>Node15&#45;&gt;Node9</title>
<path fill="none" stroke="midnightblue" d="M375.149,-118.245C355.862,-111.3 330.757,-99.1968 316,-80 305.28,-66.0547 301.571,-46.0853 300.37,-31.3933"/>
<polygon fill="midnightblue" stroke="midnightblue" points="303.864,-31.1854 299.866,-21.3741 296.873,-31.5374 303.864,-31.1854"/>
</g>
<!-- Node15&#45;&gt;Node13 -->
<g id="edge15" class="edge"><title>Node15&#45;&gt;Node13</title>
<path fill="none" stroke="midnightblue" d="M375.611,-116.878C348.465,-107.494 306.002,-92.8155 275.83,-82.3857"/>
<polygon fill="midnightblue" stroke="midnightblue" points="276.704,-78.9845 266.109,-79.0253 274.417,-85.6004 276.704,-78.9845"/>
</g>
<!-- Node16 -->
<g id="node16" class="node"><title>Node16</title>
<g id="a_node16"><a xlink:href="types_8h_source.html" target="_top" xlink:title="hwpl/types.h">
<polygon fill="none" stroke="black" points="325.207,-59 325.207,-79 396.793,-79 396.793,-59 325.207,-59"/>
<text text-anchor="middle" x="361" y="-65" font-family="Helvetica,sans-Serif" font-size="10.00">hwpl/types.h</text>
</a>
</g>
</g>
<!-- Node15&#45;&gt;Node16 -->
<g id="edge17" class="edge"><title>Node15&#45;&gt;Node16</title>
<path fill="none" stroke="midnightblue" d="M395.23,-116.753C389.379,-108.761 380.766,-96.9975 373.644,-87.2698"/>
<polygon fill="midnightblue" stroke="midnightblue" points="376.376,-85.0762 367.644,-79.0752 370.728,-89.2114 376.376,-85.0762"/>
</g>
<!-- Node17 -->
<g id="node17" class="node"><title>Node17</title>
<polygon fill="none" stroke="#bfbfbf" points="478.431,-1 478.431,-21 545.569,-21 545.569,-1 478.431,-1"/>
<text text-anchor="middle" x="512" y="-7" font-family="Helvetica,sans-Serif" font-size="10.00">hwpl/arch.h</text>
</g>
<!-- Node15&#45;&gt;Node17 -->
<g id="edge20" class="edge"><title>Node15&#45;&gt;Node17</title>
<path fill="none" stroke="midnightblue" d="M424.971,-116.899C441.98,-109.197 464.754,-96.7346 480,-80 492.869,-65.8749 501.487,-45.6563 506.505,-30.939"/>
<polygon fill="midnightblue" stroke="midnightblue" points="509.856,-31.9505 509.533,-21.3606 503.182,-29.8407 509.856,-31.9505"/>
</g>
<!-- Node18 -->
<g id="node18" class="node"><title>Node18</title>
<g id="a_node18"><a xlink:href="pio_8h.html" target="_top" xlink:title="General Purpose Input/Output Header File. ">
<polygon fill="none" stroke="black" points="414.707,-59 414.707,-79 471.293,-79 471.293,-59 414.707,-59"/>
<text text-anchor="middle" x="443" y="-65" font-family="Helvetica,sans-Serif" font-size="10.00">dev/pio.h</text>
</a>
</g>
</g>
<!-- Node15&#45;&gt;Node18 -->
<g id="edge21" class="edge"><title>Node15&#45;&gt;Node18</title>
<path fill="none" stroke="midnightblue" d="M408.77,-116.753C414.621,-108.761 423.234,-96.9975 430.356,-87.2698"/>
<polygon fill="midnightblue" stroke="midnightblue" points="433.272,-89.2114 436.356,-79.0752 427.624,-85.0762 433.272,-89.2114"/>
</g>
<!-- Node16&#45;&gt;Node9 -->
<g id="edge19" class="edge"><title>Node16&#45;&gt;Node9</title>
<path fill="none" stroke="midnightblue" d="M350.927,-58.7527C341.867,-50.4349 328.355,-38.031 317.526,-28.0893"/>
<polygon fill="midnightblue" stroke="midnightblue" points="319.619,-25.2596 309.885,-21.0752 314.885,-30.4162 319.619,-25.2596"/>
</g>
<!-- Node16&#45;&gt;Node11 -->
<g id="edge18" class="edge"><title>Node16&#45;&gt;Node11</title>
<path fill="none" stroke="midnightblue" d="M363.477,-58.7527C365.508,-51.1689 368.45,-40.1881 370.971,-30.7739"/>
<polygon fill="midnightblue" stroke="midnightblue" points="374.363,-31.6403 373.569,-21.0752 367.601,-29.8291 374.363,-31.6403"/>
</g>
<!-- Node18&#45;&gt;Node9 -->
<g id="edge22" class="edge"><title>Node18&#45;&gt;Node9</title>
<path fill="none" stroke="midnightblue" d="M419.706,-58.878C396.127,-49.6441 359.455,-35.283 332.912,-24.8887"/>
<polygon fill="midnightblue" stroke="midnightblue" points="333.871,-21.5056 323.284,-21.1181 331.319,-28.0236 333.871,-21.5056"/>
</g>
<!-- Node18&#45;&gt;Node11 -->
<g id="edge23" class="edge"><title>Node18&#45;&gt;Node11</title>
<path fill="none" stroke="midnightblue" d="M431.936,-58.7527C421.79,-50.2718 406.56,-37.543 394.553,-27.5073"/>
<polygon fill="midnightblue" stroke="midnightblue" points="396.775,-24.8028 386.858,-21.0752 392.286,-30.1738 396.775,-24.8028"/>
</g>
<!-- Node18&#45;&gt;Node17 -->
<g id="edge25" class="edge"><title>Node18&#45;&gt;Node17</title>
<path fill="none" stroke="midnightblue" d="M454.394,-58.7527C464.844,-50.2718 480.527,-37.543 492.893,-27.5073"/>
<polygon fill="midnightblue" stroke="midnightblue" points="495.259,-30.0945 500.818,-21.0752 490.848,-24.6593 495.259,-30.0945"/>
</g>
<!-- Node19 -->
<g id="node19" class="node"><title>Node19</title>
<g id="a_node19"><a xlink:href="ioctl_8h_source.html" target="_top" xlink:title="ioctl.h">
<polygon fill="none" stroke="black" points="417.938,-1 417.938,-21 460.062,-21 460.062,-1 417.938,-1"/>
<text text-anchor="middle" x="439" y="-7" font-family="Helvetica,sans-Serif" font-size="10.00">ioctl.h</text>
</a>
</g>
</g>
<!-- Node18&#45;&gt;Node19 -->
<g id="edge24" class="edge"><title>Node18&#45;&gt;Node19</title>
<path fill="none" stroke="midnightblue" d="M442.339,-58.7527C441.804,-51.2504 441.03,-40.4238 440.363,-31.0781"/>
<polygon fill="midnightblue" stroke="midnightblue" points="443.852,-30.8004 439.648,-21.0752 436.87,-31.2992 443.852,-30.8004"/>
</g>
<!-- Node20&#45;&gt;Node10 -->
<g id="edge29" class="edge"><title>Node20&#45;&gt;Node10</title>
<path fill="none" stroke="midnightblue" d="M518,-174.753C518,-167.25 518,-156.424 518,-147.078"/>
<polygon fill="midnightblue" stroke="midnightblue" points="521.5,-147.075 518,-137.075 514.5,-147.075 521.5,-147.075"/>
</g>
<!-- Node21 -->
<g id="node21" class="node"><title>Node21</title>
<polygon fill="none" stroke="#bfbfbf" points="635.054,-117 635.054,-137 714.946,-137 714.946,-117 635.054,-117"/>
<text text-anchor="middle" x="675" y="-123" font-family="Helvetica,sans-Serif" font-size="10.00">sys/syslimits.h</text>
</g>
<!-- Node20&#45;&gt;Node21 -->
<g id="edge27" class="edge"><title>Node20&#45;&gt;Node21</title>
<path fill="none" stroke="midnightblue" d="M543.574,-174.878C569.882,-165.494 611.035,-150.815 640.276,-140.386"/>
<polygon fill="midnightblue" stroke="midnightblue" points="641.454,-143.682 649.697,-137.025 639.102,-137.088 641.454,-143.682"/>
</g>
<!-- Node22 -->
<g id="node22" class="node"><title>Node22</title>
<polygon fill="none" stroke="#bfbfbf" points="732.495,-117 732.495,-137 793.505,-137 793.505,-117 732.495,-117"/>
<text text-anchor="middle" x="763" y="-123" font-family="Helvetica,sans-Serif" font-size="10.00">sys/time.h</text>
</g>
<!-- Node20&#45;&gt;Node22 -->
<g id="edge28" class="edge"><title>Node20&#45;&gt;Node22</title>
<path fill="none" stroke="midnightblue" d="M555.544,-175.69C601.9,-165.411 679.026,-148.246 722.635,-138.035"/>
<polygon fill="midnightblue" stroke="midnightblue" points="723.515,-141.423 732.444,-135.72 721.907,-134.61 723.515,-141.423"/>
</g>
<!-- Node23 -->
<g id="node23" class="node"><title>Node23</title>
<polygon fill="none" stroke="#bfbfbf" points="569.443,-117 569.443,-137 616.557,-137 616.557,-117 569.443,-117"/>
<text text-anchor="middle" x="593" y="-123" font-family="Helvetica,sans-Serif" font-size="10.00">limits.h</text>
</g>
<!-- Node20&#45;&gt;Node23 -->
<g id="edge30" class="edge"><title>Node20&#45;&gt;Node23</title>
<path fill="none" stroke="midnightblue" d="M530.385,-174.753C541.852,-166.19 559.119,-153.298 572.618,-143.219"/>
<polygon fill="midnightblue" stroke="midnightblue" points="574.927,-145.863 580.846,-137.075 570.739,-140.254 574.927,-145.863"/>
</g>
</g>
</svg>
