<?xml version="1.0" encoding="UTF-8" standalone="no"?>
<!DOCTYPE svg PUBLIC "-//W3C//DTD SVG 1.1//EN"
 "http://www.w3.org/Graphics/SVG/1.1/DTD/svg11.dtd">
<!-- Generated by graphviz version 2.36.0 (20140111.2315)
 -->
<!-- Title: /Users/tgil/git/CoActionOS/CoActionOS/src/sys/signal/sig_realtime.c Pages: 1 -->
<svg width="640pt" height="272pt"
 viewBox="0.00 0.00 640.00 272.00" xmlns="http://www.w3.org/2000/svg" xmlns:xlink="http://www.w3.org/1999/xlink">
<g id="graph0" class="graph" transform="scale(1 1) rotate(0) translate(4 268)">
<title>/Users/tgil/git/CoActionOS/CoActionOS/src/sys/signal/sig_realtime.c</title>
<!-- Node1 -->
<g id="node1" class="node"><title>Node1</title>
<polygon fill="#bfbfbf" stroke="black" points="201.931,-225 201.931,-263 324.069,-263 324.069,-225 201.931,-225"/>
<text text-anchor="start" x="209.931" y="-251" font-family="Helvetica,sans-Serif" font-size="10.00">/Users/tgil/git/CoAction</text>
<text text-anchor="start" x="209.931" y="-241" font-family="Helvetica,sans-Serif" font-size="10.00">OS/CoActionOS/src/sys</text>
<text text-anchor="middle" x="263" y="-231" font-family="Helvetica,sans-Serif" font-size="10.00">/signal/sig_realtime.c</text>
</g>
<!-- Node2 -->
<g id="node2" class="node"><title>Node2</title>
<polygon fill="none" stroke="#bfbfbf" points="81.1577,-169 81.1577,-187 128.842,-187 128.842,-169 81.1577,-169"/>
<text text-anchor="middle" x="105" y="-175" font-family="Helvetica,sans-Serif" font-size="10.00">errno.h</text>
</g>
<!-- Node1&#45;&gt;Node2 -->
<g id="edge1" class="edge"><title>Node1&#45;&gt;Node2</title>
<path fill="none" stroke="midnightblue" d="M218.146,-224.831C191.323,-213.966 157.998,-200.467 134.481,-190.942"/>
<polygon fill="midnightblue" stroke="midnightblue" points="135.633,-187.632 125.051,-187.122 133.005,-194.12 135.633,-187.632"/>
</g>
<!-- Node3 -->
<g id="node3" class="node"><title>Node3</title>
<polygon fill="none" stroke="#bfbfbf" points="146.766,-169 146.766,-187 197.234,-187 197.234,-169 146.766,-169"/>
<text text-anchor="middle" x="172" y="-175" font-family="Helvetica,sans-Serif" font-size="10.00">signal.h</text>
</g>
<!-- Node1&#45;&gt;Node3 -->
<g id="edge2" class="edge"><title>Node1&#45;&gt;Node3</title>
<path fill="none" stroke="midnightblue" d="M237.166,-224.831C222.821,-214.743 205.247,-202.382 191.965,-193.041"/>
<polygon fill="midnightblue" stroke="midnightblue" points="193.741,-190.012 183.548,-187.122 189.714,-195.738 193.741,-190.012"/>
</g>
<!-- Node4 -->
<g id="node4" class="node"><title>Node4</title>
<polygon fill="none" stroke="#bfbfbf" points="-0.842285,-57 -0.842285,-75 46.8423,-75 46.8423,-57 -0.842285,-57"/>
<text text-anchor="middle" x="23" y="-63" font-family="Helvetica,sans-Serif" font-size="10.00">stdlib.h</text>
</g>
<!-- Node1&#45;&gt;Node4 -->
<g id="edge3" class="edge"><title>Node1&#45;&gt;Node4</title>
<path fill="none" stroke="midnightblue" d="M252.341,-224.929C242.031,-208.572 225.181,-184.574 206,-168 158.488,-126.945 91.5968,-95.2459 53.2314,-79.0119"/>
<polygon fill="midnightblue" stroke="midnightblue" points="54.2412,-75.6413 43.6638,-75.0346 51.5542,-82.1051 54.2412,-75.6413"/>
</g>
<!-- Node5 -->
<g id="node5" class="node"><title>Node5</title>
<g id="a_node5"><a xlink:href="hwpl_8h.html" target="_top" xlink:title="HWPL Header file (includes all other header files) ">
<polygon fill="none" stroke="black" points="257.547,-113 257.547,-131 302.453,-131 302.453,-113 257.547,-113"/>
<text text-anchor="middle" x="280" y="-119" font-family="Helvetica,sans-Serif" font-size="10.00">hwpl.h</text>
</a>
</g>
</g>
<!-- Node1&#45;&gt;Node5 -->
<g id="edge4" class="edge"><title>Node1&#45;&gt;Node5</title>
<path fill="none" stroke="midnightblue" d="M265.582,-224.775C268.792,-202.114 274.238,-163.673 277.439,-141.08"/>
<polygon fill="midnightblue" stroke="midnightblue" points="280.91,-141.531 278.847,-131.139 273.979,-140.549 280.91,-141.531"/>
</g>
<!-- Node14 -->
<g id="node14" class="node"><title>Node14</title>
<polygon fill="none" stroke="#bfbfbf" points="290.988,-169 290.988,-187 357.012,-187 357.012,-169 290.988,-169"/>
<text text-anchor="middle" x="324" y="-175" font-family="Helvetica,sans-Serif" font-size="10.00">hwpl/task.h</text>
</g>
<!-- Node1&#45;&gt;Node14 -->
<g id="edge16" class="edge"><title>Node1&#45;&gt;Node14</title>
<path fill="none" stroke="midnightblue" d="M280.317,-224.831C289.471,-215.228 300.586,-203.566 309.313,-194.409"/>
<polygon fill="midnightblue" stroke="midnightblue" points="311.893,-196.775 316.259,-187.122 306.826,-191.946 311.893,-196.775"/>
</g>
<!-- Node15 -->
<g id="node15" class="node"><title>Node15</title>
<polygon fill="none" stroke="#bfbfbf" points="375.247,-169 375.247,-187 490.753,-187 490.753,-169 375.247,-169"/>
<text text-anchor="middle" x="433" y="-175" font-family="Helvetica,sans-Serif" font-size="10.00">../sched/sched_flags.h</text>
</g>
<!-- Node1&#45;&gt;Node15 -->
<g id="edge17" class="edge"><title>Node1&#45;&gt;Node15</title>
<path fill="none" stroke="midnightblue" d="M311.26,-224.831C340.378,-213.869 376.618,-200.226 401.955,-190.688"/>
<polygon fill="midnightblue" stroke="midnightblue" points="403.301,-193.921 411.426,-187.122 400.834,-187.37 403.301,-193.921"/>
</g>
<!-- Node16 -->
<g id="node16" class="node"><title>Node16</title>
<g id="a_node16"><a xlink:href="sig__local_8h_source.html" target="_top" xlink:title="sig_local.h">
<polygon fill="none" stroke="black" points="508.375,-169 508.375,-187 571.625,-187 571.625,-169 508.375,-169"/>
<text text-anchor="middle" x="540" y="-175" font-family="Helvetica,sans-Serif" font-size="10.00">sig_local.h</text>
</a>
</g>
</g>
<!-- Node1&#45;&gt;Node16 -->
<g id="edge18" class="edge"><title>Node1&#45;&gt;Node16</title>
<path fill="none" stroke="midnightblue" d="M324.132,-228.876C377.011,-216.658 452.044,-199.322 498.289,-188.637"/>
<polygon fill="midnightblue" stroke="midnightblue" points="499.31,-191.994 508.265,-186.332 497.734,-185.173 499.31,-191.994"/>
</g>
<!-- Node5&#45;&gt;Node4 -->
<g id="edge6" class="edge"><title>Node5&#45;&gt;Node4</title>
<path fill="none" stroke="midnightblue" d="M257.462,-115.96C251.468,-114.645 244.993,-113.247 239,-112 161.016,-95.7723 138.448,-94.9582 57.2944,-76.1704"/>
<polygon fill="midnightblue" stroke="midnightblue" points="57.6337,-72.6554 47.0995,-73.7878 56.0406,-79.4717 57.6337,-72.6554"/>
</g>
<!-- Node6 -->
<g id="node6" class="node"><title>Node6</title>
<polygon fill="none" stroke="#bfbfbf" points="415.879,-1 415.879,-19 464.121,-19 464.121,-1 415.879,-1"/>
<text text-anchor="middle" x="440" y="-7" font-family="Helvetica,sans-Serif" font-size="10.00">stdint.h</text>
</g>
<!-- Node5&#45;&gt;Node6 -->
<g id="edge5" class="edge"><title>Node5&#45;&gt;Node6</title>
<path fill="none" stroke="midnightblue" d="M302.576,-119.447C332.345,-116.224 384.614,-106.331 416,-76 428.695,-63.7311 434.722,-44.1658 437.554,-29.7027"/>
<polygon fill="midnightblue" stroke="midnightblue" points="441.073,-29.8635 439.207,-19.4344 434.162,-28.7512 441.073,-29.8635"/>
</g>
<!-- Node7 -->
<g id="node7" class="node"><title>Node7</title>
<polygon fill="none" stroke="#bfbfbf" points="463.604,-57 463.604,-75 512.396,-75 512.396,-57 463.604,-57"/>
<text text-anchor="middle" x="488" y="-63" font-family="Helvetica,sans-Serif" font-size="10.00">string.h</text>
</g>
<!-- Node5&#45;&gt;Node7 -->
<g id="edge7" class="edge"><title>Node5&#45;&gt;Node7</title>
<path fill="none" stroke="midnightblue" d="M302.656,-115.118C339.112,-105.654 411.022,-86.9846 453.763,-75.8885"/>
<polygon fill="midnightblue" stroke="midnightblue" points="454.647,-79.2751 463.446,-73.3745 452.888,-72.4997 454.647,-79.2751"/>
</g>
<!-- Node8 -->
<g id="node8" class="node"><title>Node8</title>
<polygon fill="none" stroke="#bfbfbf" points="65.2686,-57 65.2686,-75 110.731,-75 110.731,-57 65.2686,-57"/>
<text text-anchor="middle" x="88" y="-63" font-family="Helvetica,sans-Serif" font-size="10.00">stdio.h</text>
</g>
<!-- Node5&#45;&gt;Node8 -->
<g id="edge8" class="edge"><title>Node5&#45;&gt;Node8</title>
<path fill="none" stroke="midnightblue" d="M257.221,-114.593C223.3,-105.053 159.351,-87.0675 120.519,-76.1459"/>
<polygon fill="midnightblue" stroke="midnightblue" points="121.323,-72.7365 110.749,-73.3982 119.428,-79.475 121.323,-72.7365"/>
</g>
<!-- Node9 -->
<g id="node9" class="node"><title>Node9</title>
<polygon fill="none" stroke="#bfbfbf" points="188.707,-1 188.707,-19 245.293,-19 245.293,-1 188.707,-1"/>
<text text-anchor="middle" x="217" y="-7" font-family="Helvetica,sans-Serif" font-size="10.00">stdbool.h</text>
</g>
<!-- Node5&#45;&gt;Node9 -->
<g id="edge9" class="edge"><title>Node5&#45;&gt;Node9</title>
<path fill="none" stroke="midnightblue" d="M257.465,-115.928C225.522,-108.23 169.65,-92.7148 158,-76 144.351,-56.4174 169.488,-36.4659 191.061,-23.9271"/>
<polygon fill="midnightblue" stroke="midnightblue" points="192.889,-26.916 199.964,-19.0299 189.515,-20.7826 192.889,-26.916"/>
</g>
<!-- Node10 -->
<g id="node10" class="node"><title>Node10</title>
<polygon fill="none" stroke="#bfbfbf" points="166.707,-57 166.707,-75 233.293,-75 233.293,-57 166.707,-57"/>
<text text-anchor="middle" x="200" y="-63" font-family="Helvetica,sans-Serif" font-size="10.00">hwpl/fault.h</text>
</g>
<!-- Node5&#45;&gt;Node10 -->
<g id="edge10" class="edge"><title>Node5&#45;&gt;Node10</title>
<path fill="none" stroke="midnightblue" d="M267.85,-112.799C255.325,-104.345 235.569,-91.0093 220.598,-80.9039"/>
<polygon fill="midnightblue" stroke="midnightblue" points="222.249,-77.7955 212.002,-75.1017 218.333,-83.5974 222.249,-77.7955"/>
</g>
<!-- Node11 -->
<g id="node11" class="node"><title>Node11</title>
<polygon fill="none" stroke="#bfbfbf" points="251.431,-57 251.431,-75 318.569,-75 318.569,-57 251.431,-57"/>
<text text-anchor="middle" x="285" y="-63" font-family="Helvetica,sans-Serif" font-size="10.00">hwpl/arch.h</text>
</g>
<!-- Node5&#45;&gt;Node11 -->
<g id="edge11" class="edge"><title>Node5&#45;&gt;Node11</title>
<path fill="none" stroke="midnightblue" d="M280.781,-112.562C281.453,-105.308 282.446,-94.5884 283.299,-85.3691"/>
<polygon fill="midnightblue" stroke="midnightblue" points="286.804,-85.4816 284.241,-75.2014 279.833,-84.8361 286.804,-85.4816"/>
</g>
<!-- Node12 -->
<g id="node12" class="node"><title>Node12</title>
<g id="a_node12"><a xlink:href="types_8h_source.html" target="_top" xlink:title="hwpl/types.h">
<polygon fill="none" stroke="black" points="336.207,-57 336.207,-75 407.793,-75 407.793,-57 336.207,-57"/>
<text text-anchor="middle" x="372" y="-63" font-family="Helvetica,sans-Serif" font-size="10.00">hwpl/types.h</text>
</a>
</g>
</g>
<!-- Node5&#45;&gt;Node12 -->
<g id="edge12" class="edge"><title>Node5&#45;&gt;Node12</title>
<path fill="none" stroke="midnightblue" d="M293.973,-112.799C308.648,-104.185 331.956,-90.5043 349.281,-80.3354"/>
<polygon fill="midnightblue" stroke="midnightblue" points="351.345,-83.1822 358.197,-75.1017 347.801,-77.1453 351.345,-83.1822"/>
</g>
<!-- Node12&#45;&gt;Node6 -->
<g id="edge13" class="edge"><title>Node12&#45;&gt;Node6</title>
<path fill="none" stroke="midnightblue" d="M382.328,-56.7986C392.712,-48.552 408.946,-35.6608 421.547,-25.6535"/>
<polygon fill="midnightblue" stroke="midnightblue" points="423.921,-28.2384 429.575,-19.2786 419.567,-22.7566 423.921,-28.2384"/>
</g>
<!-- Node12&#45;&gt;Node9 -->
<g id="edge14" class="edge"><title>Node12&#45;&gt;Node9</title>
<path fill="none" stroke="midnightblue" d="M348.795,-56.9157C322.466,-47.743 279.336,-32.7171 249.627,-22.3669"/>
<polygon fill="midnightblue" stroke="midnightblue" points="250.705,-19.0361 240.11,-19.0513 248.402,-25.6465 250.705,-19.0361"/>
</g>
<!-- Node13 -->
<g id="node13" class="node"><title>Node13</title>
<g id="a_node13"><a xlink:href="ioctl_8h_source.html" target="_top" xlink:title="dev/ioctl.h">
<polygon fill="none" stroke="black" points="336.488,-1 336.488,-19 397.512,-19 397.512,-1 336.488,-1"/>
<text text-anchor="middle" x="367" y="-7" font-family="Helvetica,sans-Serif" font-size="10.00">dev/ioctl.h</text>
</a>
</g>
</g>
<!-- Node12&#45;&gt;Node13 -->
<g id="edge15" class="edge"><title>Node12&#45;&gt;Node13</title>
<path fill="none" stroke="midnightblue" d="M371.219,-56.5625C370.547,-49.308 369.554,-38.5884 368.701,-29.3691"/>
<polygon fill="midnightblue" stroke="midnightblue" points="372.167,-28.8361 367.759,-19.2014 365.196,-29.4816 372.167,-28.8361"/>
</g>
<!-- Node16&#45;&gt;Node5 -->
<g id="edge19" class="edge"><title>Node16&#45;&gt;Node5</title>
<path fill="none" stroke="midnightblue" d="M508.225,-169.981C505.109,-169.306 501.994,-168.636 499,-168 432.883,-153.951 355.379,-138.193 312.575,-129.551"/>
<polygon fill="midnightblue" stroke="midnightblue" points="313.215,-126.11 302.72,-127.564 311.831,-132.972 313.215,-126.11"/>
</g>
<!-- Node16&#45;&gt;Node6 -->
<g id="edge20" class="edge"><title>Node16&#45;&gt;Node6</title>
<path fill="none" stroke="midnightblue" d="M541.01,-168.762C543.13,-147.83 545.963,-91.7369 521,-56 509.68,-39.794 490.564,-28.7777 473.745,-21.7028"/>
<polygon fill="midnightblue" stroke="midnightblue" points="474.772,-18.347 464.184,-17.9833 472.234,-24.8708 474.772,-18.347"/>
</g>
<!-- Node17 -->
<g id="node17" class="node"><title>Node17</title>
<polygon fill="none" stroke="#bfbfbf" points="567.544,-113 567.544,-131 632.456,-131 632.456,-113 567.544,-113"/>
<text text-anchor="middle" x="600" y="-119" font-family="Helvetica,sans-Serif" font-size="10.00">sys/reent.h</text>
</g>
<!-- Node16&#45;&gt;Node17 -->
<g id="edge21" class="edge"><title>Node16&#45;&gt;Node17</title>
<path fill="none" stroke="midnightblue" d="M549.113,-168.799C558.099,-160.711 572.05,-148.155 583.073,-138.234"/>
<polygon fill="midnightblue" stroke="midnightblue" points="585.71,-140.57 590.802,-131.279 581.027,-135.367 585.71,-140.57"/>
</g>
</g>
</svg>
