<?xml version="1.0" encoding="UTF-8" standalone="no"?>
<!DOCTYPE svg PUBLIC "-//W3C//DTD SVG 1.1//EN"
 "http://www.w3.org/Graphics/SVG/1.1/DTD/svg11.dtd">
<!-- Generated by graphviz version 2.34.0 (20130907.0228)
 -->
<!-- Title: core_pinfunc_t Pages: 1 -->
<svg width="88pt" height="204pt"
 viewBox="0.00 0.00 88.00 204.00" xmlns="http://www.w3.org/2000/svg" xmlns:xlink="http://www.w3.org/1999/xlink">
<g id="graph0" class="graph" transform="scale(1 1) rotate(0) translate(4 200)">
<title>core_pinfunc_t</title>
<!-- Node1 -->
<g id="node1" class="node"><title>Node1</title>
<polygon fill="#bfbfbf" stroke="black" points="-0.800293,-1 -0.800293,-73 80.8003,-73 80.8003,-1 -0.800293,-1"/>
<text text-anchor="middle" x="40" y="-59" font-family="Helvetica,sans-Serif" font-size="10.00">core_pinfunc_t</text>
<polyline fill="none" stroke="black" points="-0.800293,-53 80.8003,-53 "/>
<text text-anchor="start" x="7.19971" y="-39" font-family="Helvetica,sans-Serif" font-size="10.00">+ periph_port</text>
<text text-anchor="start" x="7.19971" y="-27" font-family="Helvetica,sans-Serif" font-size="10.00">+ periph_func</text>
<polyline fill="none" stroke="black" points="-0.800293,-21 80.8003,-21 "/>
<text text-anchor="middle" x="40" y="-7" font-family="Helvetica,sans-Serif" font-size="10.00"> </text>
</g>
<!-- Node2 -->
<g id="node2" class="node"><title>Node2</title>
<g id="a_node2"><a xlink:href="structpio__t.html" target="_top" xlink:title="IO port and pin. ">
<polygon fill="none" stroke="black" points="19.0752,-123 19.0752,-195 60.9248,-195 60.9248,-123 19.0752,-123"/>
<text text-anchor="middle" x="40" y="-181" font-family="Helvetica,sans-Serif" font-size="10.00">pio_t</text>
<polyline fill="none" stroke="black" points="19.0752,-175 60.9248,-175 "/>
<text text-anchor="start" x="27.0752" y="-161" font-family="Helvetica,sans-Serif" font-size="10.00">+ port</text>
<text text-anchor="start" x="27.0752" y="-149" font-family="Helvetica,sans-Serif" font-size="10.00">+ pin</text>
<polyline fill="none" stroke="black" points="19.0752,-143 60.9248,-143 "/>
<text text-anchor="middle" x="40" y="-129" font-family="Helvetica,sans-Serif" font-size="10.00"> </text>
</a>
</g>
</g>
<!-- Node2&#45;&gt;Node1 -->
<g id="edge1" class="edge"><title>Node2&#45;&gt;Node1</title>
<path fill="none" stroke="#404040" d="M40,-122.968C40,-111.243 40,-97.9682 40,-85.4558"/>
<polygon fill="none" stroke="#404040" points="40.0001,-85.2829 36,-79.2829 40,-73.2829 44,-79.2828 40.0001,-85.2829"/>
<text text-anchor="middle" x="48.2007" y="-94" font-family="Helvetica,sans-Serif" font-size="10.00"> +io</text>
</g>
</g>
</svg>
