<?xml version="1.0" encoding="UTF-8" standalone="no"?>
<!DOCTYPE svg PUBLIC "-//W3C//DTD SVG 1.1//EN"
 "http://www.w3.org/Graphics/SVG/1.1/DTD/svg11.dtd">
<!-- Generated by graphviz version 2.34.0 (20130907.0228)
 -->
<!-- Title: rtc_alarm_t Pages: 1 -->
<svg width="80pt" height="216pt"
 viewBox="0.00 0.00 80.00 216.00" xmlns="http://www.w3.org/2000/svg" xmlns:xlink="http://www.w3.org/1999/xlink">
<g id="graph0" class="graph" transform="scale(1 1) rotate(0) translate(4 212)">
<title>rtc_alarm_t</title>
<!-- Node1 -->
<g id="node1" class="node"><title>Node1</title>
<polygon fill="#bfbfbf" stroke="black" points="2.99268,-1 2.99268,-61 69.0073,-61 69.0073,-1 2.99268,-1"/>
<text text-anchor="middle" x="36" y="-47" font-family="Helvetica,sans-Serif" font-size="10.00">rtc_alarm_t</text>
<polyline fill="none" stroke="black" points="2.99268,-41 69.0073,-41 "/>
<text text-anchor="start" x="10.9927" y="-27" font-family="Helvetica,sans-Serif" font-size="10.00">+ type</text>
<polyline fill="none" stroke="black" points="2.99268,-21 69.0073,-21 "/>
<text text-anchor="middle" x="36" y="-7" font-family="Helvetica,sans-Serif" font-size="10.00"> </text>
</g>
<!-- Node2 -->
<g id="node2" class="node"><title>Node2</title>
<g id="a_node2"><a xlink:href="structrtc__time__t.html" target="_top" xlink:title="RTC Time Structure (compatible with struct tm from time.h) ">
<polygon fill="none" stroke="black" points="-0.76709,-111 -0.76709,-207 72.7671,-207 72.7671,-111 -0.76709,-111"/>
<text text-anchor="middle" x="36" y="-193" font-family="Helvetica,sans-Serif" font-size="10.00">rtc_time_t</text>
<polyline fill="none" stroke="black" points="-0.76709,-187 72.7671,-187 "/>
<text text-anchor="start" x="7.23291" y="-173" font-family="Helvetica,sans-Serif" font-size="10.00">+ time</text>
<text text-anchor="start" x="7.23291" y="-161" font-family="Helvetica,sans-Serif" font-size="10.00">+ useconds</text>
<text text-anchor="start" x="7.23291" y="-149" font-family="Helvetica,sans-Serif" font-size="10.00">+ time_t</text>
<text text-anchor="start" x="7.23291" y="-137" font-family="Helvetica,sans-Serif" font-size="10.00">+ use_time_t</text>
<polyline fill="none" stroke="black" points="-0.76709,-131 72.7671,-131 "/>
<text text-anchor="middle" x="36" y="-117" font-family="Helvetica,sans-Serif" font-size="10.00"> </text>
</a>
</g>
</g>
<!-- Node2&#45;&gt;Node1 -->
<g id="edge1" class="edge"><title>Node2&#45;&gt;Node1</title>
<path fill="none" stroke="#404040" d="M36,-110.724C36,-98.5188 36,-85.4727 36,-73.582"/>
<polygon fill="none" stroke="#404040" points="36.0001,-73.2274 32,-67.2274 36,-61.2274 40,-67.2273 36.0001,-73.2274"/>
<text text-anchor="middle" x="49.7549" y="-82" font-family="Helvetica,sans-Serif" font-size="10.00"> +time</text>
</g>
</g>
</svg>
