<?xml version="1.0" encoding="UTF-8" standalone="no"?>
<!DOCTYPE svg PUBLIC "-//W3C//DTD SVG 1.1//EN"
 "http://www.w3.org/Graphics/SVG/1.1/DTD/svg11.dtd">
<!-- Generated by graphviz version 2.34.0 (20130907.0228)
 -->
<!-- Title: devfifo_cfg_t Pages: 1 -->
<svg width="710pt" height="848pt"
 viewBox="0.00 0.00 710.00 848.00" xmlns="http://www.w3.org/2000/svg" xmlns:xlink="http://www.w3.org/1999/xlink">
<g id="graph0" class="graph" transform="scale(1 1) rotate(0) translate(4 844)">
<title>devfifo_cfg_t</title>
<!-- Node1 -->
<g id="node1" class="node"><title>Node1</title>
<polygon fill="#bfbfbf" stroke="black" points="289.671,-1 289.671,-109 374.329,-109 374.329,-1 289.671,-1"/>
<text text-anchor="middle" x="332" y="-95" font-family="Helvetica,sans-Serif" font-size="10.00">devfifo_cfg_t</text>
<polyline fill="none" stroke="black" points="289.671,-89 374.329,-89 "/>
<text text-anchor="start" x="297.671" y="-75" font-family="Helvetica,sans-Serif" font-size="10.00">+ buffer</text>
<text text-anchor="start" x="297.671" y="-63" font-family="Helvetica,sans-Serif" font-size="10.00">+ size</text>
<text text-anchor="start" x="297.671" y="-51" font-family="Helvetica,sans-Serif" font-size="10.00">+ req_getbyte</text>
<text text-anchor="start" x="297.671" y="-39" font-family="Helvetica,sans-Serif" font-size="10.00">+ req_setaction</text>
<text text-anchor="start" x="297.671" y="-27" font-family="Helvetica,sans-Serif" font-size="10.00">+ event</text>
<polyline fill="none" stroke="black" points="289.671,-21 374.329,-21 "/>
<text text-anchor="middle" x="332" y="-7" font-family="Helvetica,sans-Serif" font-size="10.00"> </text>
</g>
<!-- Node2 -->
<g id="node2" class="node"><title>Node2</title>
<g id="a_node2"><a xlink:href="structdevice__t.html" target="_top" xlink:title="A device driver (can either be an MCU peripheral or external IC) ">
<polygon fill="none" stroke="black" points="305.377,-159 305.377,-255 358.623,-255 358.623,-159 305.377,-159"/>
<text text-anchor="middle" x="332" y="-241" font-family="Helvetica,sans-Serif" font-size="10.00">device_t</text>
<polyline fill="none" stroke="black" points="305.377,-235 358.623,-235 "/>
<text text-anchor="start" x="313.377" y="-221" font-family="Helvetica,sans-Serif" font-size="10.00">+ name</text>
<text text-anchor="start" x="313.377" y="-209" font-family="Helvetica,sans-Serif" font-size="10.00">+ uid</text>
<text text-anchor="start" x="313.377" y="-197" font-family="Helvetica,sans-Serif" font-size="10.00">+ gid</text>
<text text-anchor="start" x="313.377" y="-185" font-family="Helvetica,sans-Serif" font-size="10.00">+ mode</text>
<polyline fill="none" stroke="black" points="305.377,-179 358.623,-179 "/>
<text text-anchor="middle" x="332" y="-165" font-family="Helvetica,sans-Serif" font-size="10.00"> </text>
</a>
</g>
</g>
<!-- Node2&#45;&gt;Node1 -->
<g id="edge1" class="edge"><title>Node2&#45;&gt;Node1</title>
<path fill="none" stroke="#404040" d="M332,-158.951C332,-146.97 332,-133.88 332,-121.172"/>
<polygon fill="none" stroke="#404040" points="332,-121.155 328,-115.155 332,-109.155 336,-115.155 332,-121.155"/>
<text text-anchor="middle" x="344.371" y="-130" font-family="Helvetica,sans-Serif" font-size="10.00"> +dev</text>
</g>
<!-- Node3 -->
<g id="node3" class="node"><title>Node3</title>
<g id="a_node3"><a xlink:href="structdevice__driver__t.html" target="_top" xlink:title="HWPL Driver Function Pointers. ">
<polygon fill="none" stroke="black" points="344.094,-305 344.094,-365 427.906,-365 427.906,-305 344.094,-305"/>
<text text-anchor="middle" x="386" y="-351" font-family="Helvetica,sans-Serif" font-size="10.00">device_driver_t</text>
<polyline fill="none" stroke="black" points="344.094,-345 427.906,-345 "/>
<text text-anchor="middle" x="386" y="-331" font-family="Helvetica,sans-Serif" font-size="10.00"> </text>
<polyline fill="none" stroke="black" points="344.094,-325 427.906,-325 "/>
<text text-anchor="middle" x="386" y="-311" font-family="Helvetica,sans-Serif" font-size="10.00"> </text>
</a>
</g>
</g>
<!-- Node3&#45;&gt;Node2 -->
<g id="edge2" class="edge"><title>Node3&#45;&gt;Node2</title>
<path fill="none" stroke="#404040" d="M373.476,-304.776C368.559,-293.304 362.732,-279.709 357.025,-266.391"/>
<polygon fill="none" stroke="#404040" points="357.008,-266.351 350.967,-262.412 352.28,-255.321 358.321,-259.26 357.008,-266.351"/>
<text text-anchor="middle" x="382.812" y="-276" font-family="Helvetica,sans-Serif" font-size="10.00"> +driver</text>
</g>
<!-- Node4 -->
<g id="node4" class="node"><title>Node4</title>
<g id="a_node4"><a xlink:href="structdevice__cfg__t.html" target="_top" xlink:title="Data structure for device configuration. ">
<polygon fill="none" stroke="black" points="283.785,-463 283.785,-571 356.215,-571 356.215,-463 283.785,-463"/>
<text text-anchor="middle" x="320" y="-557" font-family="Helvetica,sans-Serif" font-size="10.00">device_cfg_t</text>
<polyline fill="none" stroke="black" points="283.785,-551 356.215,-551 "/>
<text text-anchor="start" x="291.785" y="-537" font-family="Helvetica,sans-Serif" font-size="10.00">+ pin_assign</text>
<text text-anchor="start" x="291.785" y="-525" font-family="Helvetica,sans-Serif" font-size="10.00">+ bitrate</text>
<text text-anchor="start" x="291.785" y="-513" font-family="Helvetica,sans-Serif" font-size="10.00">+ pcfg</text>
<text text-anchor="start" x="291.785" y="-501" font-family="Helvetica,sans-Serif" font-size="10.00">+ dcfg</text>
<text text-anchor="start" x="291.785" y="-489" font-family="Helvetica,sans-Serif" font-size="10.00">+ state</text>
<polyline fill="none" stroke="black" points="283.785,-483 356.215,-483 "/>
<text text-anchor="middle" x="320" y="-469" font-family="Helvetica,sans-Serif" font-size="10.00"> </text>
</a>
</g>
</g>
<!-- Node4&#45;&gt;Node2 -->
<g id="edge12" class="edge"><title>Node4&#45;&gt;Node2</title>
<path fill="none" stroke="#404040" d="M314.424,-462.73C310.849,-419.781 307.773,-357.876 313.042,-304 314.22,-291.953 316.211,-279.176 318.471,-267.007"/>
<polygon fill="none" stroke="#404040" points="318.498,-266.869 315.723,-260.213 320.8,-255.092 323.575,-261.748 318.498,-266.869"/>
<text text-anchor="middle" x="324.979" y="-331" font-family="Helvetica,sans-Serif" font-size="10.00"> +cfg</text>
</g>
<!-- Node4&#45;&gt;Node3 -->
<g id="edge3" class="edge"><title>Node4&#45;&gt;Node3</title>
<path fill="none" stroke="#404040" d="M339.445,-462.968C349.555,-435.394 361.72,-402.217 371.079,-376.694"/>
<polygon fill="none" stroke="#404040" points="371.164,-376.462 369.474,-369.452 375.295,-365.195 376.985,-372.206 371.164,-376.462"/>
<text text-anchor="middle" x="383.866" y="-434" font-family="Helvetica,sans-Serif" font-size="10.00"> +write</text>
<text text-anchor="middle" x="383.866" y="-422" font-family="Helvetica,sans-Serif" font-size="10.00">+open</text>
<text text-anchor="middle" x="383.866" y="-410" font-family="Helvetica,sans-Serif" font-size="10.00">+ioctl</text>
<text text-anchor="middle" x="383.866" y="-398" font-family="Helvetica,sans-Serif" font-size="10.00">+close</text>
<text text-anchor="middle" x="383.866" y="-386" font-family="Helvetica,sans-Serif" font-size="10.00">+read</text>
</g>
<!-- Node5 -->
<g id="node5" class="node"><title>Node5</title>
<g id="a_node5"><a xlink:href="structdevice__uart__cfg__t.html" target="_top" xlink:title="Data structure for a UART device (RX and TX lines) ">
<polygon fill="none" stroke="black" points="-0.470215,-627 -0.470215,-711 94.4702,-711 94.4702,-627 -0.470215,-627"/>
<text text-anchor="middle" x="47" y="-697" font-family="Helvetica,sans-Serif" font-size="10.00">device_uart_cfg_t</text>
<polyline fill="none" stroke="black" points="-0.470215,-691 94.4702,-691 "/>
<text text-anchor="start" x="7.52979" y="-677" font-family="Helvetica,sans-Serif" font-size="10.00">+ stop_bits</text>
<text text-anchor="start" x="7.52979" y="-665" font-family="Helvetica,sans-Serif" font-size="10.00">+ parity</text>
<text text-anchor="start" x="7.52979" y="-653" font-family="Helvetica,sans-Serif" font-size="10.00">+ width</text>
<polyline fill="none" stroke="black" points="-0.470215,-647 94.4702,-647 "/>
<text text-anchor="middle" x="47" y="-633" font-family="Helvetica,sans-Serif" font-size="10.00"> </text>
</a>
</g>
</g>
<!-- Node5&#45;&gt;Node4 -->
<g id="edge4" class="edge"><title>Node5&#45;&gt;Node4</title>
<path fill="none" stroke="#404040" d="M94.6315,-627.342C97.7773,-624.827 100.919,-622.36 104,-620 122.542,-605.795 126.665,-601.221 147.15,-590 187.751,-567.761 236.666,-547.985 272.084,-534.813"/>
<polygon fill="none" stroke="#404040" points="272.281,-534.741 276.535,-528.918 283.546,-530.605 279.292,-536.428 272.281,-534.741"/>
<text text-anchor="middle" x="160.925" y="-592" font-family="Helvetica,sans-Serif" font-size="10.00"> +uart</text>
</g>
<!-- Node6 -->
<g id="node6" class="node"><title>Node6</title>
<g id="a_node6"><a xlink:href="structdevice__periph__t.html" target="_top" xlink:title="Data structure for on&#45;chip MCU peripherals. ">
<polygon fill="none" stroke="black" points="112.697,-639 112.697,-699 199.303,-699 199.303,-639 112.697,-639"/>
<text text-anchor="middle" x="156" y="-685" font-family="Helvetica,sans-Serif" font-size="10.00">device_periph_t</text>
<polyline fill="none" stroke="black" points="112.697,-679 199.303,-679 "/>
<text text-anchor="start" x="120.697" y="-665" font-family="Helvetica,sans-Serif" font-size="10.00">+ port</text>
<polyline fill="none" stroke="black" points="112.697,-659 199.303,-659 "/>
<text text-anchor="middle" x="156" y="-645" font-family="Helvetica,sans-Serif" font-size="10.00"> </text>
</a>
</g>
</g>
<!-- Node6&#45;&gt;Node4 -->
<g id="edge5" class="edge"><title>Node6&#45;&gt;Node4</title>
<path fill="none" stroke="#404040" d="M161.392,-638.686C165.536,-622.811 172.647,-603.701 184.584,-590 207.797,-563.356 243.335,-544.987 272.182,-533.474"/>
<polygon fill="none" stroke="#404040" points="272.458,-533.369 276.644,-527.497 283.674,-529.102 279.489,-534.974 272.458,-533.369"/>
<text text-anchor="middle" x="203.208" y="-592" font-family="Helvetica,sans-Serif" font-size="10.00"> +periph</text>
</g>
<!-- Node7 -->
<g id="node7" class="node"><title>Node7</title>
<g id="a_node7"><a xlink:href="structpio__t.html" target="_top" xlink:title="IO port and pin. ">
<polygon fill="none" stroke="black" points="243.075,-767 243.075,-839 284.925,-839 284.925,-767 243.075,-767"/>
<text text-anchor="middle" x="264" y="-825" font-family="Helvetica,sans-Serif" font-size="10.00">pio_t</text>
<polyline fill="none" stroke="black" points="243.075,-819 284.925,-819 "/>
<text text-anchor="start" x="251.075" y="-805" font-family="Helvetica,sans-Serif" font-size="10.00">+ port</text>
<text text-anchor="start" x="251.075" y="-793" font-family="Helvetica,sans-Serif" font-size="10.00">+ pin</text>
<polyline fill="none" stroke="black" points="243.075,-787 284.925,-787 "/>
<text text-anchor="middle" x="264" y="-773" font-family="Helvetica,sans-Serif" font-size="10.00"> </text>
</a>
</g>
</g>
<!-- Node7&#45;&gt;Node4 -->
<g id="edge6" class="edge"><title>Node7&#45;&gt;Node4</title>
<path fill="none" stroke="#404040" d="M251.556,-766.866C240.286,-729.518 227.736,-669.181 244.037,-620 250.653,-600.04 262.859,-580.815 275.58,-564.54"/>
<polygon fill="none" stroke="#404040" points="275.936,-564.105 276.63,-556.928 283.523,-554.808 282.828,-561.986 275.936,-564.105"/>
<text text-anchor="middle" x="255.981" y="-665" font-family="Helvetica,sans-Serif" font-size="10.00"> +pio</text>
</g>
<!-- Node11 -->
<g id="node11" class="node"><title>Node11</title>
<g id="a_node11"><a xlink:href="structdevice__spi__cfg__t.html" target="_top" xlink:title="Data structure for a SPI device with a CS pin. ">
<polygon fill="none" stroke="black" points="274.754,-621 274.754,-717 365.246,-717 365.246,-621 274.754,-621"/>
<text text-anchor="middle" x="320" y="-703" font-family="Helvetica,sans-Serif" font-size="10.00">device_spi_cfg_t</text>
<polyline fill="none" stroke="black" points="274.754,-697 365.246,-697 "/>
<text text-anchor="start" x="282.754" y="-683" font-family="Helvetica,sans-Serif" font-size="10.00">+ width</text>
<text text-anchor="start" x="282.754" y="-671" font-family="Helvetica,sans-Serif" font-size="10.00">+ format</text>
<text text-anchor="start" x="282.754" y="-659" font-family="Helvetica,sans-Serif" font-size="10.00">+ mode</text>
<text text-anchor="start" x="282.754" y="-647" font-family="Helvetica,sans-Serif" font-size="10.00">+ reserved0</text>
<polyline fill="none" stroke="black" points="274.754,-641 365.246,-641 "/>
<text text-anchor="middle" x="320" y="-627" font-family="Helvetica,sans-Serif" font-size="10.00"> </text>
</a>
</g>
</g>
<!-- Node7&#45;&gt;Node11 -->
<g id="edge11" class="edge"><title>Node7&#45;&gt;Node11</title>
<path fill="none" stroke="#404040" d="M278.86,-766.973C283.872,-755.158 289.611,-741.631 295.18,-728.504"/>
<polygon fill="none" stroke="#404040" points="295.321,-728.172 293.982,-721.086 300.008,-717.125 301.347,-724.211 295.321,-728.172"/>
<text text-anchor="middle" x="301.309" y="-738" font-family="Helvetica,sans-Serif" font-size="10.00"> +cs</text>
</g>
<!-- Node8 -->
<g id="node8" class="node"><title>Node8</title>
<g id="a_node8"><a xlink:href="structdevice__adc__cfg__t.html" target="_top" xlink:title="Data structure for an analog input device (up to 16 channels) ">
<polygon fill="none" stroke="black" points="383.084,-633 383.084,-705 476.916,-705 476.916,-633 383.084,-633"/>
<text text-anchor="middle" x="430" y="-691" font-family="Helvetica,sans-Serif" font-size="10.00">device_adc_cfg_t</text>
<polyline fill="none" stroke="black" points="383.084,-685 476.916,-685 "/>
<text text-anchor="start" x="391.084" y="-671" font-family="Helvetica,sans-Serif" font-size="10.00">+ reference</text>
<text text-anchor="start" x="391.084" y="-659" font-family="Helvetica,sans-Serif" font-size="10.00">+ channels</text>
<polyline fill="none" stroke="black" points="383.084,-653 476.916,-653 "/>
<text text-anchor="middle" x="430" y="-639" font-family="Helvetica,sans-Serif" font-size="10.00"> </text>
</a>
</g>
</g>
<!-- Node8&#45;&gt;Node4 -->
<g id="edge7" class="edge"><title>Node8&#45;&gt;Node4</title>
<path fill="none" stroke="#404040" d="M404.21,-632.832C392.043,-616.24 377.189,-595.985 363.364,-577.132"/>
<polygon fill="none" stroke="#404040" points="363.344,-577.105 356.57,-574.632 356.247,-567.428 363.021,-569.901 363.344,-577.105"/>
<text text-anchor="middle" x="394.371" y="-592" font-family="Helvetica,sans-Serif" font-size="10.00"> +adc</text>
</g>
<!-- Node9 -->
<g id="node9" class="node"><title>Node9</title>
<g id="a_node9"><a xlink:href="structdevice__i2c__cfg__t.html" target="_top" xlink:title="Data structure for an I2C device (SCL and SDA lines) ">
<polygon fill="none" stroke="black" points="494.754,-639 494.754,-699 585.246,-699 585.246,-639 494.754,-639"/>
<text text-anchor="middle" x="540" y="-685" font-family="Helvetica,sans-Serif" font-size="10.00">device_i2c_cfg_t</text>
<polyline fill="none" stroke="black" points="494.754,-679 585.246,-679 "/>
<text text-anchor="start" x="502.754" y="-665" font-family="Helvetica,sans-Serif" font-size="10.00">+ slave_addr</text>
<polyline fill="none" stroke="black" points="494.754,-659 585.246,-659 "/>
<text text-anchor="middle" x="540" y="-645" font-family="Helvetica,sans-Serif" font-size="10.00"> </text>
</a>
</g>
</g>
<!-- Node9&#45;&gt;Node4 -->
<g id="edge8" class="edge"><title>Node9&#45;&gt;Node4</title>
<path fill="none" stroke="#404040" d="M508.452,-638.913C500.958,-632.444 492.853,-625.793 485,-620 446.852,-591.856 400.768,-563.823 367.01,-544.288"/>
<polygon fill="none" stroke="#404040" points="366.914,-544.233 359.719,-544.712 356.509,-538.255 363.704,-537.776 366.914,-544.233"/>
<text text-anchor="middle" x="470.701" y="-592" font-family="Helvetica,sans-Serif" font-size="10.00"> +i2c</text>
</g>
<!-- Node10 -->
<g id="node10" class="node"><title>Node10</title>
<g id="a_node10"><a xlink:href="structdevice__pwm__cfg__t.html" target="_top" xlink:title="Data structure for a PWM device (up to 8 channels) ">
<polygon fill="none" stroke="black" points="603.589,-627 603.589,-711 702.411,-711 702.411,-627 603.589,-627"/>
<text text-anchor="middle" x="653" y="-697" font-family="Helvetica,sans-Serif" font-size="10.00">device_pwm_cfg_t</text>
<polyline fill="none" stroke="black" points="603.589,-691 702.411,-691 "/>
<text text-anchor="start" x="611.589" y="-677" font-family="Helvetica,sans-Serif" font-size="10.00">+ top</text>
<text text-anchor="start" x="611.589" y="-665" font-family="Helvetica,sans-Serif" font-size="10.00">+ freq</text>
<text text-anchor="start" x="611.589" y="-653" font-family="Helvetica,sans-Serif" font-size="10.00">+ channels</text>
<polyline fill="none" stroke="black" points="603.589,-647 702.411,-647 "/>
<text text-anchor="middle" x="653" y="-633" font-family="Helvetica,sans-Serif" font-size="10.00"> </text>
</a>
</g>
</g>
<!-- Node10&#45;&gt;Node4 -->
<g id="edge9" class="edge"><title>Node10&#45;&gt;Node4</title>
<path fill="none" stroke="#404040" d="M604.959,-626.882C601.34,-624.422 597.668,-622.098 594,-620 519.707,-577.496 424.403,-546.73 368.003,-530.681"/>
<polygon fill="none" stroke="#404040" points="367.795,-530.623 360.938,-532.857 356.239,-527.387 363.096,-525.153 367.795,-530.623"/>
<text text-anchor="middle" x="573.866" y="-592" font-family="Helvetica,sans-Serif" font-size="10.00"> +pwm</text>
</g>
<!-- Node11&#45;&gt;Node4 -->
<g id="edge10" class="edge"><title>Node11&#45;&gt;Node4</title>
<path fill="none" stroke="#404040" d="M320,-620.951C320,-608.97 320,-595.88 320,-583.172"/>
<polygon fill="none" stroke="#404040" points="320,-583.155 316,-577.155 320,-571.155 324,-577.155 320,-583.155"/>
<text text-anchor="middle" x="330.701" y="-592" font-family="Helvetica,sans-Serif" font-size="10.00"> +spi</text>
</g>
</g>
</svg>
