<?xml version="1.0" encoding="UTF-8" standalone="no"?>
<!DOCTYPE svg PUBLIC "-//W3C//DTD SVG 1.1//EN"
 "http://www.w3.org/Graphics/SVG/1.1/DTD/svg11.dtd">
<!-- Generated by graphviz version 2.34.0 (20130907.0228)
 -->
<!-- Title: device_cfg_t Pages: 1 -->
<svg width="710pt" height="386pt"
 viewBox="0.00 0.00 710.00 386.00" xmlns="http://www.w3.org/2000/svg" xmlns:xlink="http://www.w3.org/1999/xlink">
<g id="graph0" class="graph" transform="scale(1 1) rotate(0) translate(4 382)">
<title>device_cfg_t</title>
<!-- Node1 -->
<g id="node1" class="node"><title>Node1</title>
<polygon fill="#bfbfbf" stroke="black" points="283.785,-1 283.785,-109 356.215,-109 356.215,-1 283.785,-1"/>
<text text-anchor="middle" x="320" y="-95" font-family="Helvetica,sans-Serif" font-size="10.00">device_cfg_t</text>
<polyline fill="none" stroke="black" points="283.785,-89 356.215,-89 "/>
<text text-anchor="start" x="291.785" y="-75" font-family="Helvetica,sans-Serif" font-size="10.00">+ pin_assign</text>
<text text-anchor="start" x="291.785" y="-63" font-family="Helvetica,sans-Serif" font-size="10.00">+ bitrate</text>
<text text-anchor="start" x="291.785" y="-51" font-family="Helvetica,sans-Serif" font-size="10.00">+ pcfg</text>
<text text-anchor="start" x="291.785" y="-39" font-family="Helvetica,sans-Serif" font-size="10.00">+ dcfg</text>
<text text-anchor="start" x="291.785" y="-27" font-family="Helvetica,sans-Serif" font-size="10.00">+ state</text>
<polyline fill="none" stroke="black" points="283.785,-21 356.215,-21 "/>
<text text-anchor="middle" x="320" y="-7" font-family="Helvetica,sans-Serif" font-size="10.00"> </text>
</g>
<!-- Node2 -->
<g id="node2" class="node"><title>Node2</title>
<g id="a_node2"><a xlink:href="structdevice__uart__cfg__t.html" target="_top" xlink:title="Data structure for a UART device (RX and TX lines) ">
<polygon fill="none" stroke="black" points="-0.470215,-165 -0.470215,-249 94.4702,-249 94.4702,-165 -0.470215,-165"/>
<text text-anchor="middle" x="47" y="-235" font-family="Helvetica,sans-Serif" font-size="10.00">device_uart_cfg_t</text>
<polyline fill="none" stroke="black" points="-0.470215,-229 94.4702,-229 "/>
<text text-anchor="start" x="7.52979" y="-215" font-family="Helvetica,sans-Serif" font-size="10.00">+ stop_bits</text>
<text text-anchor="start" x="7.52979" y="-203" font-family="Helvetica,sans-Serif" font-size="10.00">+ parity</text>
<text text-anchor="start" x="7.52979" y="-191" font-family="Helvetica,sans-Serif" font-size="10.00">+ width</text>
<polyline fill="none" stroke="black" points="-0.470215,-185 94.4702,-185 "/>
<text text-anchor="middle" x="47" y="-171" font-family="Helvetica,sans-Serif" font-size="10.00"> </text>
</a>
</g>
</g>
<!-- Node2&#45;&gt;Node1 -->
<g id="edge1" class="edge"><title>Node2&#45;&gt;Node1</title>
<path fill="none" stroke="#404040" d="M94.6315,-165.342C97.7773,-162.827 100.919,-160.36 104,-158 122.542,-143.795 126.665,-139.221 147.15,-128 187.751,-105.761 236.666,-85.9851 272.084,-72.8129"/>
<polygon fill="none" stroke="#404040" points="272.281,-72.7406 276.535,-66.9178 283.546,-68.605 279.292,-74.4278 272.281,-72.7406"/>
<text text-anchor="middle" x="160.925" y="-130" font-family="Helvetica,sans-Serif" font-size="10.00"> +uart</text>
</g>
<!-- Node3 -->
<g id="node3" class="node"><title>Node3</title>
<g id="a_node3"><a xlink:href="structdevice__periph__t.html" target="_top" xlink:title="Data structure for on&#45;chip MCU peripherals. ">
<polygon fill="none" stroke="black" points="112.697,-177 112.697,-237 199.303,-237 199.303,-177 112.697,-177"/>
<text text-anchor="middle" x="156" y="-223" font-family="Helvetica,sans-Serif" font-size="10.00">device_periph_t</text>
<polyline fill="none" stroke="black" points="112.697,-217 199.303,-217 "/>
<text text-anchor="start" x="120.697" y="-203" font-family="Helvetica,sans-Serif" font-size="10.00">+ port</text>
<polyline fill="none" stroke="black" points="112.697,-197 199.303,-197 "/>
<text text-anchor="middle" x="156" y="-183" font-family="Helvetica,sans-Serif" font-size="10.00"> </text>
</a>
</g>
</g>
<!-- Node3&#45;&gt;Node1 -->
<g id="edge2" class="edge"><title>Node3&#45;&gt;Node1</title>
<path fill="none" stroke="#404040" d="M161.392,-176.686C165.536,-160.811 172.647,-141.701 184.584,-128 207.797,-101.356 243.335,-82.9874 272.182,-71.4742"/>
<polygon fill="none" stroke="#404040" points="272.458,-71.369 276.644,-65.497 283.674,-67.1021 279.489,-72.9742 272.458,-71.369"/>
<text text-anchor="middle" x="203.208" y="-130" font-family="Helvetica,sans-Serif" font-size="10.00"> +periph</text>
</g>
<!-- Node4 -->
<g id="node4" class="node"><title>Node4</title>
<g id="a_node4"><a xlink:href="structpio__t.html" target="_top" xlink:title="IO port and pin. ">
<polygon fill="none" stroke="black" points="243.075,-305 243.075,-377 284.925,-377 284.925,-305 243.075,-305"/>
<text text-anchor="middle" x="264" y="-363" font-family="Helvetica,sans-Serif" font-size="10.00">pio_t</text>
<polyline fill="none" stroke="black" points="243.075,-357 284.925,-357 "/>
<text text-anchor="start" x="251.075" y="-343" font-family="Helvetica,sans-Serif" font-size="10.00">+ port</text>
<text text-anchor="start" x="251.075" y="-331" font-family="Helvetica,sans-Serif" font-size="10.00">+ pin</text>
<polyline fill="none" stroke="black" points="243.075,-325 284.925,-325 "/>
<text text-anchor="middle" x="264" y="-311" font-family="Helvetica,sans-Serif" font-size="10.00"> </text>
</a>
</g>
</g>
<!-- Node4&#45;&gt;Node1 -->
<g id="edge3" class="edge"><title>Node4&#45;&gt;Node1</title>
<path fill="none" stroke="#404040" d="M251.556,-304.866C240.286,-267.518 227.736,-207.181 244.037,-158 250.653,-138.04 262.859,-118.815 275.58,-102.54"/>
<polygon fill="none" stroke="#404040" points="275.936,-102.105 276.63,-94.9276 283.523,-92.808 282.828,-99.9856 275.936,-102.105"/>
<text text-anchor="middle" x="255.981" y="-203" font-family="Helvetica,sans-Serif" font-size="10.00"> +pio</text>
</g>
<!-- Node8 -->
<g id="node8" class="node"><title>Node8</title>
<g id="a_node8"><a xlink:href="structdevice__spi__cfg__t.html" target="_top" xlink:title="Data structure for a SPI device with a CS pin. ">
<polygon fill="none" stroke="black" points="274.754,-159 274.754,-255 365.246,-255 365.246,-159 274.754,-159"/>
<text text-anchor="middle" x="320" y="-241" font-family="Helvetica,sans-Serif" font-size="10.00">device_spi_cfg_t</text>
<polyline fill="none" stroke="black" points="274.754,-235 365.246,-235 "/>
<text text-anchor="start" x="282.754" y="-221" font-family="Helvetica,sans-Serif" font-size="10.00">+ width</text>
<text text-anchor="start" x="282.754" y="-209" font-family="Helvetica,sans-Serif" font-size="10.00">+ format</text>
<text text-anchor="start" x="282.754" y="-197" font-family="Helvetica,sans-Serif" font-size="10.00">+ mode</text>
<text text-anchor="start" x="282.754" y="-185" font-family="Helvetica,sans-Serif" font-size="10.00">+ reserved0</text>
<polyline fill="none" stroke="black" points="274.754,-179 365.246,-179 "/>
<text text-anchor="middle" x="320" y="-165" font-family="Helvetica,sans-Serif" font-size="10.00"> </text>
</a>
</g>
</g>
<!-- Node4&#45;&gt;Node8 -->
<g id="edge8" class="edge"><title>Node4&#45;&gt;Node8</title>
<path fill="none" stroke="#404040" d="M278.86,-304.973C283.872,-293.158 289.611,-279.631 295.18,-266.504"/>
<polygon fill="none" stroke="#404040" points="295.321,-266.172 293.982,-259.086 300.008,-255.125 301.347,-262.211 295.321,-266.172"/>
<text text-anchor="middle" x="301.309" y="-276" font-family="Helvetica,sans-Serif" font-size="10.00"> +cs</text>
</g>
<!-- Node5 -->
<g id="node5" class="node"><title>Node5</title>
<g id="a_node5"><a xlink:href="structdevice__adc__cfg__t.html" target="_top" xlink:title="Data structure for an analog input device (up to 16 channels) ">
<polygon fill="none" stroke="black" points="383.084,-171 383.084,-243 476.916,-243 476.916,-171 383.084,-171"/>
<text text-anchor="middle" x="430" y="-229" font-family="Helvetica,sans-Serif" font-size="10.00">device_adc_cfg_t</text>
<polyline fill="none" stroke="black" points="383.084,-223 476.916,-223 "/>
<text text-anchor="start" x="391.084" y="-209" font-family="Helvetica,sans-Serif" font-size="10.00">+ reference</text>
<text text-anchor="start" x="391.084" y="-197" font-family="Helvetica,sans-Serif" font-size="10.00">+ channels</text>
<polyline fill="none" stroke="black" points="383.084,-191 476.916,-191 "/>
<text text-anchor="middle" x="430" y="-177" font-family="Helvetica,sans-Serif" font-size="10.00"> </text>
</a>
</g>
</g>
<!-- Node5&#45;&gt;Node1 -->
<g id="edge4" class="edge"><title>Node5&#45;&gt;Node1</title>
<path fill="none" stroke="#404040" d="M404.21,-170.832C392.043,-154.24 377.189,-133.985 363.364,-115.132"/>
<polygon fill="none" stroke="#404040" points="363.344,-115.105 356.57,-112.632 356.247,-105.428 363.021,-107.901 363.344,-115.105"/>
<text text-anchor="middle" x="394.371" y="-130" font-family="Helvetica,sans-Serif" font-size="10.00"> +adc</text>
</g>
<!-- Node6 -->
<g id="node6" class="node"><title>Node6</title>
<g id="a_node6"><a xlink:href="structdevice__i2c__cfg__t.html" target="_top" xlink:title="Data structure for an I2C device (SCL and SDA lines) ">
<polygon fill="none" stroke="black" points="494.754,-177 494.754,-237 585.246,-237 585.246,-177 494.754,-177"/>
<text text-anchor="middle" x="540" y="-223" font-family="Helvetica,sans-Serif" font-size="10.00">device_i2c_cfg_t</text>
<polyline fill="none" stroke="black" points="494.754,-217 585.246,-217 "/>
<text text-anchor="start" x="502.754" y="-203" font-family="Helvetica,sans-Serif" font-size="10.00">+ slave_addr</text>
<polyline fill="none" stroke="black" points="494.754,-197 585.246,-197 "/>
<text text-anchor="middle" x="540" y="-183" font-family="Helvetica,sans-Serif" font-size="10.00"> </text>
</a>
</g>
</g>
<!-- Node6&#45;&gt;Node1 -->
<g id="edge5" class="edge"><title>Node6&#45;&gt;Node1</title>
<path fill="none" stroke="#404040" d="M508.452,-176.913C500.958,-170.444 492.853,-163.793 485,-158 446.852,-129.856 400.768,-101.823 367.01,-82.2884"/>
<polygon fill="none" stroke="#404040" points="366.914,-82.233 359.719,-82.7124 356.509,-76.2551 363.704,-75.7757 366.914,-82.233"/>
<text text-anchor="middle" x="470.701" y="-130" font-family="Helvetica,sans-Serif" font-size="10.00"> +i2c</text>
</g>
<!-- Node7 -->
<g id="node7" class="node"><title>Node7</title>
<g id="a_node7"><a xlink:href="structdevice__pwm__cfg__t.html" target="_top" xlink:title="Data structure for a PWM device (up to 8 channels) ">
<polygon fill="none" stroke="black" points="603.589,-165 603.589,-249 702.411,-249 702.411,-165 603.589,-165"/>
<text text-anchor="middle" x="653" y="-235" font-family="Helvetica,sans-Serif" font-size="10.00">device_pwm_cfg_t</text>
<polyline fill="none" stroke="black" points="603.589,-229 702.411,-229 "/>
<text text-anchor="start" x="611.589" y="-215" font-family="Helvetica,sans-Serif" font-size="10.00">+ top</text>
<text text-anchor="start" x="611.589" y="-203" font-family="Helvetica,sans-Serif" font-size="10.00">+ freq</text>
<text text-anchor="start" x="611.589" y="-191" font-family="Helvetica,sans-Serif" font-size="10.00">+ channels</text>
<polyline fill="none" stroke="black" points="603.589,-185 702.411,-185 "/>
<text text-anchor="middle" x="653" y="-171" font-family="Helvetica,sans-Serif" font-size="10.00"> </text>
</a>
</g>
</g>
<!-- Node7&#45;&gt;Node1 -->
<g id="edge6" class="edge"><title>Node7&#45;&gt;Node1</title>
<path fill="none" stroke="#404040" d="M604.959,-164.882C601.34,-162.422 597.668,-160.098 594,-158 519.707,-115.496 424.403,-84.7304 368.003,-68.6809"/>
<polygon fill="none" stroke="#404040" points="367.795,-68.6229 360.938,-70.8567 356.239,-65.3869 363.096,-63.1531 367.795,-68.6229"/>
<text text-anchor="middle" x="573.866" y="-130" font-family="Helvetica,sans-Serif" font-size="10.00"> +pwm</text>
</g>
<!-- Node8&#45;&gt;Node1 -->
<g id="edge7" class="edge"><title>Node8&#45;&gt;Node1</title>
<path fill="none" stroke="#404040" d="M320,-158.951C320,-146.97 320,-133.88 320,-121.172"/>
<polygon fill="none" stroke="#404040" points="320,-121.155 316,-115.155 320,-109.155 324,-115.155 320,-121.155"/>
<text text-anchor="middle" x="330.701" y="-130" font-family="Helvetica,sans-Serif" font-size="10.00"> +spi</text>
</g>
</g>
</svg>
