<?xml version="1.0" encoding="UTF-8" standalone="no"?>
<!DOCTYPE svg PUBLIC "-//W3C//DTD SVG 1.1//EN"
 "http://www.w3.org/Graphics/SVG/1.1/DTD/svg11.dtd">
<!-- Generated by graphviz version 2.36.0 (20140111.2315)
 -->
<!-- Title: /Users/tgil/git/CoActionOS/CoActionOS/include/dev/sys.h Pages: 1 -->
<svg width="1448pt" height="272pt"
 viewBox="0.00 0.00 1448.10 272.00" xmlns="http://www.w3.org/2000/svg" xmlns:xlink="http://www.w3.org/1999/xlink">
<g id="graph0" class="graph" transform="scale(1 1) rotate(0) translate(4 268)">
<title>/Users/tgil/git/CoActionOS/CoActionOS/include/dev/sys.h</title>
<!-- Node1 -->
<g id="node1" class="node"><title>Node1</title>
<polygon fill="#bfbfbf" stroke="black" points="652.741,-225 652.741,-263 775.46,-263 775.46,-225 652.741,-225"/>
<text text-anchor="start" x="660.741" y="-251" font-family="Helvetica,sans-Serif" font-size="10.00">/Users/tgil/git/CoAction</text>
<text text-anchor="start" x="660.741" y="-241" font-family="Helvetica,sans-Serif" font-size="10.00">OS/CoActionOS/include</text>
<text text-anchor="middle" x="714.1" y="-231" font-family="Helvetica,sans-Serif" font-size="10.00">/dev/sys.h</text>
</g>
<!-- Node2 -->
<g id="node2" class="node"><title>Node2</title>
<polygon fill="none" stroke="#bfbfbf" points="570.98,-1 570.98,-19 619.221,-19 619.221,-1 570.98,-1"/>
<text text-anchor="middle" x="595.1" y="-7" font-family="Helvetica,sans-Serif" font-size="10.00">stdint.h</text>
</g>
<!-- Node1&#45;&gt;Node2 -->
<g id="edge1" class="edge"><title>Node1&#45;&gt;Node2</title>
<path fill="none" stroke="midnightblue" d="M652.641,-243.48C555.383,-242.674 360.945,-234.661 204.1,-188 106.452,-158.95 53.5764,-165.057 4.10025,-76 -0.216578,-68.2297 -1.94184,-62.5196 4.10025,-56 23.1303,-35.4658 437.019,-17.3195 560.577,-12.3442"/>
<polygon fill="midnightblue" stroke="midnightblue" points="560.771,-15.8393 570.624,-11.943 560.492,-8.84489 560.771,-15.8393"/>
</g>
<!-- Node3 -->
<g id="node3" class="node"><title>Node3</title>
<g id="a_node3"><a xlink:href="link__protocol_8h.html" target="_top" xlink:title="USB Link Protocol Header File. ">
<polygon fill="none" stroke="black" points="673.859,-169 673.859,-187 754.341,-187 754.341,-169 673.859,-169"/>
<text text-anchor="middle" x="714.1" y="-175" font-family="Helvetica,sans-Serif" font-size="10.00">link_protocol.h</text>
</a>
</g>
</g>
<!-- Node1&#45;&gt;Node3 -->
<g id="edge2" class="edge"><title>Node1&#45;&gt;Node3</title>
<path fill="none" stroke="midnightblue" d="M707.945,-224.831C707.155,-216.198 707.152,-205.901 707.937,-197.256"/>
<polygon fill="midnightblue" stroke="midnightblue" points="711.435,-197.524 709.423,-187.122 704.509,-196.508 711.435,-197.524"/>
</g>
<!-- Node7 -->
<g id="node7" class="node"><title>Node7</title>
<g id="a_node7"><a xlink:href="ioctl_8h_source.html" target="_top" xlink:title="ioctl.h">
<polygon fill="none" stroke="black" points="664.039,-1 664.039,-19 706.162,-19 706.162,-1 664.039,-1"/>
<text text-anchor="middle" x="685.1" y="-7" font-family="Helvetica,sans-Serif" font-size="10.00">ioctl.h</text>
</a>
</g>
</g>
<!-- Node1&#45;&gt;Node7 -->
<g id="edge81" class="edge"><title>Node1&#45;&gt;Node7</title>
<path fill="none" stroke="midnightblue" d="M775.505,-238.065C918.853,-224.388 1255.24,-178.572 1144.1,-56 1129.7,-40.1186 818.066,-19.3101 716.671,-12.9376"/>
<polygon fill="midnightblue" stroke="midnightblue" points="716.648,-9.42941 706.449,-12.2994 716.211,-16.4158 716.648,-9.42941"/>
</g>
<!-- Node9 -->
<g id="node9" class="node"><title>Node9</title>
<g id="a_node9"><a xlink:href="types_8h_source.html" target="_top" xlink:title="hwpl/types.h">
<polygon fill="none" stroke="black" points="24.3073,-57 24.3073,-75 95.8932,-75 95.8932,-57 24.3073,-57"/>
<text text-anchor="middle" x="60.1002" y="-63" font-family="Helvetica,sans-Serif" font-size="10.00">hwpl/types.h</text>
</a>
</g>
</g>
<!-- Node1&#45;&gt;Node9 -->
<g id="edge82" class="edge"><title>Node1&#45;&gt;Node9</title>
<path fill="none" stroke="midnightblue" d="M652.672,-243.422C540.633,-241.701 298.494,-226.306 123.1,-132 101.551,-120.413 82.9115,-98.8792 71.6128,-83.7822"/>
<polygon fill="midnightblue" stroke="midnightblue" points="74.2414,-81.4422 65.566,-75.3605 68.5553,-85.5249 74.2414,-81.4422"/>
</g>
<!-- Node3&#45;&gt;Node1 -->
<g id="edge80" class="edge"><title>Node3&#45;&gt;Node1</title>
<path fill="none" stroke="midnightblue" d="M718.777,-187.122C720.352,-194.124 721.03,-204.665 720.81,-214.711"/>
<polygon fill="midnightblue" stroke="midnightblue" points="717.308,-214.655 720.255,-224.831 724.297,-215.038 717.308,-214.655"/>
</g>
<!-- Node4 -->
<g id="node4" class="node"><title>Node4</title>
<polygon fill="none" stroke="#bfbfbf" points="931.982,-113 931.982,-131 990.218,-131 990.218,-113 931.982,-113"/>
<text text-anchor="middle" x="961.1" y="-119" font-family="Helvetica,sans-Serif" font-size="10.00">sys/stat.h</text>
</g>
<!-- Node3&#45;&gt;Node4 -->
<g id="edge3" class="edge"><title>Node3&#45;&gt;Node4</title>
<path fill="none" stroke="midnightblue" d="M750.812,-168.974C796.761,-158.928 875.119,-141.797 922.11,-131.524"/>
<polygon fill="midnightblue" stroke="midnightblue" points="922.901,-134.934 931.922,-129.379 921.406,-128.096 922.901,-134.934"/>
</g>
<!-- Node5 -->
<g id="node5" class="node"><title>Node5</title>
<polygon fill="none" stroke="#bfbfbf" points="1397.48,-1 1397.48,-19 1440.72,-19 1440.72,-1 1397.48,-1"/>
<text text-anchor="middle" x="1419.1" y="-7" font-family="Helvetica,sans-Serif" font-size="10.00">time.h</text>
</g>
<!-- Node3&#45;&gt;Node5 -->
<g id="edge4" class="edge"><title>Node3&#45;&gt;Node5</title>
<path fill="none" stroke="midnightblue" d="M754.573,-174.377C898.87,-164.611 1381.86,-128.216 1425.1,-76 1435.92,-62.9355 1432.04,-42.929 1426.94,-28.5636"/>
<polygon fill="midnightblue" stroke="midnightblue" points="1430.19,-27.2557 1423.22,-19.2803 1423.69,-29.8643 1430.19,-27.2557"/>
</g>
<!-- Node6 -->
<g id="node6" class="node"><title>Node6</title>
<g id="a_node6"><a xlink:href="adc_8h.html" target="_top" xlink:title="Analog to Digital Converter Header File. ">
<polygon fill="none" stroke="black" points="132.418,-113 132.418,-131 191.782,-131 191.782,-113 132.418,-113"/>
<text text-anchor="middle" x="162.1" y="-119" font-family="Helvetica,sans-Serif" font-size="10.00">dev/adc.h</text>
</a>
</g>
</g>
<!-- Node3&#45;&gt;Node6 -->
<g id="edge5" class="edge"><title>Node3&#45;&gt;Node6</title>
<path fill="none" stroke="midnightblue" d="M673.644,-174.378C588.676,-168.644 385.511,-153.741 216.1,-132 211.577,-131.419 206.852,-130.74 202.16,-130.02"/>
<polygon fill="midnightblue" stroke="midnightblue" points="202.46,-126.524 192.032,-128.4 201.354,-133.436 202.46,-126.524"/>
</g>
<!-- Node11 -->
<g id="node11" class="node"><title>Node11</title>
<g id="a_node11"><a xlink:href="bootloader_8h.html" target="_top" xlink:title="Analog to Digital Converter Header File. ">
<polygon fill="none" stroke="black" points="385.123,-113 385.123,-131 475.078,-131 475.078,-113 385.123,-113"/>
<text text-anchor="middle" x="430.1" y="-119" font-family="Helvetica,sans-Serif" font-size="10.00">dev/bootloader.h</text>
</a>
</g>
</g>
<!-- Node3&#45;&gt;Node11 -->
<g id="edge13" class="edge"><title>Node3&#45;&gt;Node11</title>
<path fill="none" stroke="midnightblue" d="M673.712,-169.32C623.398,-159.754 537.342,-143.391 482.135,-132.894"/>
<polygon fill="midnightblue" stroke="midnightblue" points="482.678,-129.435 472.201,-131.005 481.371,-136.311 482.678,-129.435"/>
</g>
<!-- Node12 -->
<g id="node12" class="node"><title>Node12</title>
<g id="a_node12"><a xlink:href="core_8h.html" target="_top" xlink:title="Analog to Digital Converter Header File. ">
<polygon fill="none" stroke="black" points="224.753,-113 224.753,-131 287.447,-131 287.447,-113 224.753,-113"/>
<text text-anchor="middle" x="256.1" y="-119" font-family="Helvetica,sans-Serif" font-size="10.00">dev/core.h</text>
</a>
</g>
</g>
<!-- Node3&#45;&gt;Node12 -->
<g id="edge18" class="edge"><title>Node3&#45;&gt;Node12</title>
<path fill="none" stroke="midnightblue" d="M673.627,-172.354C603.465,-164.282 454.713,-147.084 329.1,-132 318.926,-130.778 307.957,-129.438 297.691,-128.174"/>
<polygon fill="midnightblue" stroke="midnightblue" points="298.069,-124.694 287.715,-126.942 297.211,-131.641 298.069,-124.694"/>
</g>
<!-- Node13 -->
<g id="node13" class="node"><title>Node13</title>
<g id="a_node13"><a xlink:href="pio_8h.html" target="_top" xlink:title="General Purpose Input/Output Header File. ">
<polygon fill="none" stroke="black" points="189.807,-57 189.807,-75 246.393,-75 246.393,-57 189.807,-57"/>
<text text-anchor="middle" x="218.1" y="-63" font-family="Helvetica,sans-Serif" font-size="10.00">dev/pio.h</text>
</a>
</g>
</g>
<!-- Node3&#45;&gt;Node13 -->
<g id="edge33" class="edge"><title>Node3&#45;&gt;Node13</title>
<path fill="none" stroke="midnightblue" d="M673.64,-174.986C609.552,-171.047 481.184,-160.104 376.1,-132 327.233,-118.931 273.354,-94.4276 242.829,-79.5247"/>
<polygon fill="midnightblue" stroke="midnightblue" points="244.29,-76.3429 233.774,-75.0502 241.189,-82.6184 244.29,-76.3429"/>
</g>
<!-- Node14 -->
<g id="node14" class="node"><title>Node14</title>
<g id="a_node14"><a xlink:href="gpio_8h.html" target="_top" xlink:title="General Purpose Input/Output Header File. ">
<polygon fill="none" stroke="black" points="302.027,-57 302.027,-75 364.174,-75 364.174,-57 302.027,-57"/>
<text text-anchor="middle" x="333.1" y="-63" font-family="Helvetica,sans-Serif" font-size="10.00">dev/gpio.h</text>
</a>
</g>
</g>
<!-- Node3&#45;&gt;Node14 -->
<g id="edge28" class="edge"><title>Node3&#45;&gt;Node14</title>
<path fill="none" stroke="midnightblue" d="M686.084,-168.911C618.571,-149.419 446.842,-99.8387 370.577,-77.82"/>
<polygon fill="midnightblue" stroke="midnightblue" points="371.478,-74.4374 360.9,-75.0261 369.536,-81.1627 371.478,-74.4374"/>
</g>
<!-- Node15 -->
<g id="node15" class="node"><title>Node15</title>
<g id="a_node15"><a xlink:href="dac_8h.html" target="_top" xlink:title="DAC Header File. ">
<polygon fill="none" stroke="black" points="458.418,-57 458.418,-75 517.782,-75 517.782,-57 458.418,-57"/>
<text text-anchor="middle" x="488.1" y="-63" font-family="Helvetica,sans-Serif" font-size="10.00">dev/dac.h</text>
</a>
</g>
</g>
<!-- Node3&#45;&gt;Node15 -->
<g id="edge34" class="edge"><title>Node3&#45;&gt;Node15</title>
<path fill="none" stroke="midnightblue" d="M697.482,-168.911C658.463,-149.92 560.76,-102.365 513.925,-79.5697"/>
<polygon fill="midnightblue" stroke="midnightblue" points="515.266,-76.3298 504.743,-75.1004 512.203,-82.6239 515.266,-76.3298"/>
</g>
<!-- Node16 -->
<g id="node16" class="node"><title>Node16</title>
<g id="a_node16"><a xlink:href="eint_8h.html" target="_top" xlink:title="External Interrupt Header File. ">
<polygon fill="none" stroke="black" points="1268.42,-57 1268.42,-75 1327.78,-75 1327.78,-57 1268.42,-57"/>
<text text-anchor="middle" x="1298.1" y="-63" font-family="Helvetica,sans-Serif" font-size="10.00">dev/eint.h</text>
</a>
</g>
</g>
<!-- Node3&#45;&gt;Node16 -->
<g id="edge38" class="edge"><title>Node3&#45;&gt;Node16</title>
<path fill="none" stroke="midnightblue" d="M754.344,-171.39C809.655,-163.509 912.202,-148.292 999.1,-132 1092.25,-114.537 1200.77,-89.8475 1258.01,-76.4836"/>
<polygon fill="midnightblue" stroke="midnightblue" points="1259.15,-79.8122 1268.08,-74.1244 1257.55,-72.9966 1259.15,-79.8122"/>
</g>
<!-- Node18 -->
<g id="node18" class="node"><title>Node18</title>
<g id="a_node18"><a xlink:href="flash_8h.html" target="_top" xlink:title="Flash Memory Header File. ">
<polygon fill="none" stroke="black" points="535.918,-57 535.918,-75 600.282,-75 600.282,-57 535.918,-57"/>
<text text-anchor="middle" x="568.1" y="-63" font-family="Helvetica,sans-Serif" font-size="10.00">dev/flash.h</text>
</a>
</g>
</g>
<!-- Node3&#45;&gt;Node18 -->
<g id="edge43" class="edge"><title>Node3&#45;&gt;Node18</title>
<path fill="none" stroke="midnightblue" d="M703.127,-168.732C678.38,-150.087 617.979,-104.58 587.042,-81.2714"/>
<polygon fill="midnightblue" stroke="midnightblue" points="588.898,-78.287 578.805,-75.0649 584.685,-83.8778 588.898,-78.287"/>
</g>
<!-- Node19 -->
<g id="node19" class="node"><title>Node19</title>
<g id="a_node19"><a xlink:href="i2c_8h.html" target="_top" xlink:title="I2C Header File. ">
<polygon fill="none" stroke="black" points="618.088,-57 618.088,-75 674.112,-75 674.112,-57 618.088,-57"/>
<text text-anchor="middle" x="646.1" y="-63" font-family="Helvetica,sans-Serif" font-size="10.00">dev/i2c.h</text>
</a>
</g>
</g>
<!-- Node3&#45;&gt;Node19 -->
<g id="edge47" class="edge"><title>Node3&#45;&gt;Node19</title>
<path fill="none" stroke="midnightblue" d="M708.989,-168.732C697.859,-150.727 671.244,-107.673 656.454,-83.7488"/>
<polygon fill="midnightblue" stroke="midnightblue" points="659.321,-81.7304 651.086,-75.0649 653.367,-85.4112 659.321,-81.7304"/>
</g>
<!-- Node20 -->
<g id="node20" class="node"><title>Node20</title>
<g id="a_node20"><a xlink:href="pwm_8h.html" target="_top" xlink:title="Pulse Width Modulation Header File. ">
<polygon fill="none" stroke="black" points="691.923,-57 691.923,-75 756.277,-75 756.277,-57 691.923,-57"/>
<text text-anchor="middle" x="724.1" y="-63" font-family="Helvetica,sans-Serif" font-size="10.00">dev/pwm.h</text>
</a>
</g>
</g>
<!-- Node3&#45;&gt;Node20 -->
<g id="edge51" class="edge"><title>Node3&#45;&gt;Node20</title>
<path fill="none" stroke="midnightblue" d="M714.852,-168.732C716.46,-151.047 720.264,-109.196 722.46,-85.0427"/>
<polygon fill="midnightblue" stroke="midnightblue" points="725.947,-85.3407 723.367,-75.0649 718.976,-84.7069 725.947,-85.3407"/>
</g>
<!-- Node21 -->
<g id="node21" class="node"><title>Node21</title>
<g id="a_node21"><a xlink:href="qei_8h.html" target="_top" xlink:title="Quadrature Encoder Interface Header File. ">
<polygon fill="none" stroke="black" points="773.807,-57 773.807,-75 830.393,-75 830.393,-57 773.807,-57"/>
<text text-anchor="middle" x="802.1" y="-63" font-family="Helvetica,sans-Serif" font-size="10.00">dev/qei.h</text>
</a>
</g>
</g>
<!-- Node3&#45;&gt;Node21 -->
<g id="edge55" class="edge"><title>Node3&#45;&gt;Node21</title>
<path fill="none" stroke="midnightblue" d="M720.715,-168.732C735.246,-150.567 770.175,-106.906 789.208,-83.1154"/>
<polygon fill="midnightblue" stroke="midnightblue" points="792.134,-85.06 795.648,-75.0649 786.668,-80.6871 792.134,-85.06"/>
</g>
<!-- Node22 -->
<g id="node22" class="node"><title>Node22</title>
<g id="a_node22"><a xlink:href="rtc_8h.html" target="_top" xlink:title="Real Time Clock Header File. ">
<polygon fill="none" stroke="black" points="1345.93,-57 1345.93,-75 1400.28,-75 1400.28,-57 1345.93,-57"/>
<text text-anchor="middle" x="1373.1" y="-63" font-family="Helvetica,sans-Serif" font-size="10.00">dev/rtc.h</text>
</a>
</g>
</g>
<!-- Node3&#45;&gt;Node22 -->
<g id="edge59" class="edge"><title>Node3&#45;&gt;Node22</title>
<path fill="none" stroke="midnightblue" d="M754.43,-172.753C819.414,-165.692 951.232,-150.473 1062.1,-132 1181.59,-112.091 1213.22,-103.574 1335.87,-75.9923"/>
<polygon fill="midnightblue" stroke="midnightblue" points="1336.66,-79.4034 1345.65,-73.7973 1335.12,-72.5734 1336.66,-79.4034"/>
</g>
<!-- Node23 -->
<g id="node23" class="node"><title>Node23</title>
<g id="a_node23"><a xlink:href="spi_8h.html" target="_top" xlink:title="Serial Peripheral Interface Header File. ">
<polygon fill="none" stroke="black" points="848.088,-57 848.088,-75 904.112,-75 904.112,-57 848.088,-57"/>
<text text-anchor="middle" x="876.1" y="-63" font-family="Helvetica,sans-Serif" font-size="10.00">dev/spi.h</text>
</a>
</g>
</g>
<!-- Node3&#45;&gt;Node23 -->
<g id="edge64" class="edge"><title>Node3&#45;&gt;Node23</title>
<path fill="none" stroke="midnightblue" d="M726.012,-168.911C753.514,-150.238 821.685,-103.949 855.873,-80.7348"/>
<polygon fill="midnightblue" stroke="midnightblue" points="857.864,-83.6136 864.171,-75.1004 853.931,-77.8224 857.864,-83.6136"/>
</g>
<!-- Node24 -->
<g id="node24" class="node"><title>Node24</title>
<g id="a_node24"><a xlink:href="tmr_8h.html" target="_top" xlink:title="Timer Header File. ">
<polygon fill="none" stroke="black" points="922.534,-57 922.534,-75 979.667,-75 979.667,-57 922.534,-57"/>
<text text-anchor="middle" x="951.1" y="-63" font-family="Helvetica,sans-Serif" font-size="10.00">dev/tmr.h</text>
</a>
</g>
</g>
<!-- Node3&#45;&gt;Node24 -->
<g id="edge68" class="edge"><title>Node3&#45;&gt;Node24</title>
<path fill="none" stroke="midnightblue" d="M731.062,-168.92C757.062,-156.555 808.358,-132.242 852.1,-112 876.285,-100.808 903.898,-88.2775 923.806,-79.2868"/>
<polygon fill="midnightblue" stroke="midnightblue" points="925.506,-82.3593 933.182,-75.0566 922.628,-75.9786 925.506,-82.3593"/>
</g>
<!-- Node25 -->
<g id="node25" class="node"><title>Node25</title>
<g id="a_node25"><a xlink:href="uart_8h.html" target="_top" xlink:title="Universal Asynchronous Receiver/Transmitter Header File. ">
<polygon fill="none" stroke="black" points="997.864,-57 997.864,-75 1058.34,-75 1058.34,-57 997.864,-57"/>
<text text-anchor="middle" x="1028.1" y="-63" font-family="Helvetica,sans-Serif" font-size="10.00">dev/uart.h</text>
</a>
</g>
</g>
<!-- Node3&#45;&gt;Node25 -->
<g id="edge72" class="edge"><title>Node3&#45;&gt;Node25</title>
<path fill="none" stroke="midnightblue" d="M740.173,-168.946C766.998,-160.465 809.865,-146.372 846.1,-132 866.068,-124.08 870.08,-119.786 890.1,-112 923.568,-98.9836 962.536,-86.5149 990.511,-78.0173"/>
<polygon fill="midnightblue" stroke="midnightblue" points="991.723,-81.3075 1000.29,-75.0726 989.705,-74.6048 991.723,-81.3075"/>
</g>
<!-- Node26 -->
<g id="node26" class="node"><title>Node26</title>
<g id="a_node26"><a xlink:href="usb_8h.html" target="_top" xlink:title="Universal Serial Bus Header File. ">
<polygon fill="none" stroke="black" points="1076.42,-57 1076.42,-75 1135.78,-75 1135.78,-57 1076.42,-57"/>
<text text-anchor="middle" x="1106.1" y="-63" font-family="Helvetica,sans-Serif" font-size="10.00">dev/usb.h</text>
</a>
</g>
</g>
<!-- Node3&#45;&gt;Node26 -->
<g id="edge76" class="edge"><title>Node3&#45;&gt;Node26</title>
<path fill="none" stroke="midnightblue" d="M752.451,-168.941C786.934,-161.177 838.686,-148.231 882.1,-132 901.091,-124.9 904.037,-118.904 923.1,-112 936.519,-107.14 1016.65,-88.0013 1066.33,-76.3049"/>
<polygon fill="midnightblue" stroke="midnightblue" points="1067.2,-79.6964 1076.13,-74.0006 1065.6,-72.8821 1067.2,-79.6964"/>
</g>
<!-- Node6&#45;&gt;Node2 -->
<g id="edge6" class="edge"><title>Node6&#45;&gt;Node2</title>
<path fill="none" stroke="midnightblue" d="M132.308,-118.217C79.593,-112.224 -21.2893,-95.3223 15.1002,-56 33.7242,-35.8752 438.237,-17.5073 560.444,-12.4012"/>
<polygon fill="midnightblue" stroke="midnightblue" points="560.872,-15.8866 570.719,-11.9755 560.583,-8.89256 560.872,-15.8866"/>
</g>
<!-- Node6&#45;&gt;Node7 -->
<g id="edge7" class="edge"><title>Node6&#45;&gt;Node7</title>
<path fill="none" stroke="midnightblue" d="M161.782,-112.632C161.748,-98.4693 163.961,-69.9564 181.1,-56 219.738,-24.5378 578.622,-25.8899 628.1,-20 636.424,-19.0091 645.396,-17.7045 653.703,-16.3972"/>
<polygon fill="midnightblue" stroke="midnightblue" points="654.461,-19.8201 663.771,-14.763 653.339,-12.9105 654.461,-19.8201"/>
</g>
<!-- Node8 -->
<g id="node8" class="node"><title>Node8</title>
<polygon fill="none" stroke="#bfbfbf" points="879.531,-1 879.531,-19 946.669,-19 946.669,-1 879.531,-1"/>
<text text-anchor="middle" x="913.1" y="-7" font-family="Helvetica,sans-Serif" font-size="10.00">hwpl/arch.h</text>
</g>
<!-- Node6&#45;&gt;Node8 -->
<g id="edge8" class="edge"><title>Node6&#45;&gt;Node8</title>
<path fill="none" stroke="midnightblue" d="M192,-115.325C199.817,-114.031 208.253,-112.803 216.1,-112 267.427,-106.748 1108.33,-113.183 1144.1,-76 1200.07,-17.8124 1038.92,-10.4731 957.299,-10.3418"/>
<polygon fill="midnightblue" stroke="midnightblue" points="956.806,-6.84271 946.813,-10.3637 956.82,-13.8427 956.806,-6.84271"/>
</g>
<!-- Node6&#45;&gt;Node9 -->
<g id="edge9" class="edge"><title>Node6&#45;&gt;Node9</title>
<path fill="none" stroke="midnightblue" d="M146.609,-112.799C130.113,-104.065 103.778,-90.1234 84.4928,-79.9137"/>
<polygon fill="midnightblue" stroke="midnightblue" points="85.8789,-76.6874 75.4034,-75.1017 82.6037,-82.8739 85.8789,-76.6874"/>
</g>
<!-- Node9&#45;&gt;Node2 -->
<g id="edge10" class="edge"><title>Node9&#45;&gt;Node2</title>
<path fill="none" stroke="midnightblue" d="M96.0919,-58.1418C100.794,-57.3574 105.556,-56.6187 110.1,-56 278.155,-33.1214 480.58,-18.4702 560.366,-13.1979"/>
<polygon fill="midnightblue" stroke="midnightblue" points="561.043,-16.6612 570.793,-12.5164 560.586,-9.67613 561.043,-16.6612"/>
</g>
<!-- Node9&#45;&gt;Node7 -->
<g id="edge12" class="edge"><title>Node9&#45;&gt;Node7</title>
<path fill="none" stroke="midnightblue" d="M96.0441,-61.1019C111.982,-59.4308 130.967,-57.5183 148.1,-56 361.198,-37.1153 415.599,-44.7034 628.1,-20 636.427,-19.032 645.399,-17.7354 653.706,-16.4283"/>
<polygon fill="midnightblue" stroke="midnightblue" points="654.465,-19.8509 663.774,-14.791 653.342,-12.9417 654.465,-19.8509"/>
</g>
<!-- Node10 -->
<g id="node10" class="node"><title>Node10</title>
<polygon fill="none" stroke="#bfbfbf" points="189.807,-1 189.807,-19 246.393,-19 246.393,-1 189.807,-1"/>
<text text-anchor="middle" x="218.1" y="-7" font-family="Helvetica,sans-Serif" font-size="10.00">stdbool.h</text>
</g>
<!-- Node9&#45;&gt;Node10 -->
<g id="edge11" class="edge"><title>Node9&#45;&gt;Node10</title>
<path fill="none" stroke="midnightblue" d="M83.7544,-56.9157C110.593,-47.743 154.558,-32.7171 184.842,-22.3669"/>
<polygon fill="midnightblue" stroke="midnightblue" points="186.212,-25.5973 194.543,-19.0513 183.948,-18.9735 186.212,-25.5973"/>
</g>
<!-- Node11&#45;&gt;Node2 -->
<g id="edge14" class="edge"><title>Node11&#45;&gt;Node2</title>
<path fill="none" stroke="midnightblue" d="M385.098,-115.538C334.708,-107.645 263.707,-90.0973 293.1,-56 327.256,-16.3778 488.253,-11.1029 560.207,-10.765"/>
<polygon fill="midnightblue" stroke="midnightblue" points="560.561,-14.2646 570.555,-10.7481 560.55,-7.26456 560.561,-14.2646"/>
</g>
<!-- Node11&#45;&gt;Node7 -->
<g id="edge15" class="edge"><title>Node11&#45;&gt;Node7</title>
<path fill="none" stroke="midnightblue" d="M429.947,-112.824C430.162,-98.9501 432.739,-70.8616 449.1,-56 456.67,-49.1236 591.194,-26.3657 653.678,-16.1008"/>
<polygon fill="midnightblue" stroke="midnightblue" points="654.457,-19.5199 663.76,-14.4502 653.326,-12.6119 654.457,-19.5199"/>
</g>
<!-- Node11&#45;&gt;Node8 -->
<g id="edge16" class="edge"><title>Node11&#45;&gt;Node8</title>
<path fill="none" stroke="midnightblue" d="M475.167,-119.769C665.281,-114.471 1392.76,-93.1105 1409.1,-76 1415.24,-69.5719 1415.09,-62.5632 1409.1,-56 1378.92,-22.9558 1073.14,-13.9272 957.281,-11.6824"/>
<polygon fill="midnightblue" stroke="midnightblue" points="957.062,-8.17782 946.999,-11.4914 956.932,-15.1766 957.062,-8.17782"/>
</g>
<!-- Node11&#45;&gt;Node9 -->
<g id="edge17" class="edge"><title>Node11&#45;&gt;Node9</title>
<path fill="none" stroke="midnightblue" d="M385.101,-114.433C314.246,-104.092 177.409,-84.1207 106,-73.6988"/>
<polygon fill="midnightblue" stroke="midnightblue" points="106.355,-70.2137 95.9544,-72.2328 105.344,-77.1403 106.355,-70.2137"/>
</g>
<!-- Node12&#45;&gt;Node2 -->
<g id="edge19" class="edge"><title>Node12&#45;&gt;Node2</title>
<path fill="none" stroke="midnightblue" d="M233.751,-112.932C204.879,-101.336 160.618,-78.8287 181.1,-56 206.292,-27.9217 465.573,-15.7164 560.512,-12.1651"/>
<polygon fill="midnightblue" stroke="midnightblue" points="560.868,-15.6546 570.734,-11.7927 560.613,-8.65921 560.868,-15.6546"/>
</g>
<!-- Node12&#45;&gt;Node7 -->
<g id="edge20" class="edge"><title>Node12&#45;&gt;Node7</title>
<path fill="none" stroke="midnightblue" d="M276.517,-112.988C316.163,-97.517 402.37,-64.3173 433.1,-56 454.137,-50.3063 590.884,-26.9186 653.671,-16.2947"/>
<polygon fill="midnightblue" stroke="midnightblue" points="654.512,-19.7023 663.789,-14.5849 653.345,-12.8002 654.512,-19.7023"/>
</g>
<!-- Node12&#45;&gt;Node8 -->
<g id="edge21" class="edge"><title>Node12&#45;&gt;Node8</title>
<path fill="none" stroke="midnightblue" d="M287.664,-118.355C311.853,-116.396 346.068,-113.769 376.1,-112 422.729,-109.253 1183.79,-109.728 1216.1,-76 1222.25,-69.5815 1221.91,-62.7313 1216.1,-56 1183.18,-17.8253 1032.84,-11.5126 957.054,-10.8066"/>
<polygon fill="midnightblue" stroke="midnightblue" points="956.897,-7.30559 946.875,-10.7414 956.852,-14.3054 956.897,-7.30559"/>
</g>
<!-- Node12&#45;&gt;Node9 -->
<g id="edge22" class="edge"><title>Node12&#45;&gt;Node9</title>
<path fill="none" stroke="midnightblue" d="M226.757,-112.916C192.885,-103.584 137.022,-88.1927 99.4135,-77.8312"/>
<polygon fill="midnightblue" stroke="midnightblue" points="99.894,-74.3332 89.3235,-75.0513 98.0346,-81.0818 99.894,-74.3332"/>
</g>
<!-- Node12&#45;&gt;Node13 -->
<g id="edge23" class="edge"><title>Node12&#45;&gt;Node13</title>
<path fill="none" stroke="midnightblue" d="M250.163,-112.562C244.721,-104.83 236.509,-93.1597 229.758,-83.5665"/>
<polygon fill="midnightblue" stroke="midnightblue" points="232.489,-81.3653 223.872,-75.2014 226.764,-85.3938 232.489,-81.3653"/>
</g>
<!-- Node13&#45;&gt;Node2 -->
<g id="edge25" class="edge"><title>Node13&#45;&gt;Node2</title>
<path fill="none" stroke="midnightblue" d="M246.509,-58.6005C251.043,-57.6691 255.692,-56.7672 260.1,-56 369.177,-37.0166 499.436,-21.5721 560.408,-14.7614"/>
<polygon fill="midnightblue" stroke="midnightblue" points="561.068,-18.2097 570.621,-13.6291 560.297,-11.2524 561.068,-18.2097"/>
</g>
<!-- Node13&#45;&gt;Node7 -->
<g id="edge26" class="edge"><title>Node13&#45;&gt;Node7</title>
<path fill="none" stroke="midnightblue" d="M246.582,-61.4981C260.589,-59.7974 277.725,-57.7486 293.1,-56 441.887,-39.0789 479.653,-39.6834 628.1,-20 636.48,-18.8889 645.528,-17.5325 653.893,-16.2133"/>
<polygon fill="midnightblue" stroke="midnightblue" points="654.705,-19.6277 664.022,-14.5834 653.593,-12.7166 654.705,-19.6277"/>
</g>
<!-- Node13&#45;&gt;Node8 -->
<g id="edge27" class="edge"><title>Node13&#45;&gt;Node8</title>
<path fill="none" stroke="midnightblue" d="M246.557,-61.266C260.558,-59.5104 277.697,-57.4824 293.1,-56 508.908,-35.2313 767.81,-19.3472 869.278,-13.4709"/>
<polygon fill="midnightblue" stroke="midnightblue" points="869.668,-16.9543 879.45,-12.8849 869.265,-9.96593 869.668,-16.9543"/>
</g>
<!-- Node13&#45;&gt;Node10 -->
<g id="edge24" class="edge"><title>Node13&#45;&gt;Node10</title>
<path fill="none" stroke="midnightblue" d="M218.1,-56.5625C218.1,-49.308 218.1,-38.5884 218.1,-29.3691"/>
<polygon fill="midnightblue" stroke="midnightblue" points="221.6,-29.2014 218.1,-19.2014 214.6,-29.2015 221.6,-29.2014"/>
</g>
<!-- Node14&#45;&gt;Node2 -->
<g id="edge30" class="edge"><title>Node14&#45;&gt;Node2</title>
<path fill="none" stroke="midnightblue" d="M364.184,-58.5934C413.514,-48.4262 509.383,-28.6669 560.708,-18.0884"/>
<polygon fill="midnightblue" stroke="midnightblue" points="561.565,-21.4855 570.652,-16.0389 560.152,-14.6297 561.565,-21.4855"/>
</g>
<!-- Node14&#45;&gt;Node7 -->
<g id="edge31" class="edge"><title>Node14&#45;&gt;Node7</title>
<path fill="none" stroke="midnightblue" d="M364.531,-58.4874C369.076,-57.6115 373.703,-56.7557 378.1,-56 488.735,-36.9852 517.1,-36.7543 628.1,-20 636.459,-18.7384 645.499,-17.3307 653.864,-16.0104"/>
<polygon fill="midnightblue" stroke="midnightblue" points="654.669,-19.4265 663.997,-14.4021 653.572,-12.5131 654.669,-19.4265"/>
</g>
<!-- Node14&#45;&gt;Node8 -->
<g id="edge32" class="edge"><title>Node14&#45;&gt;Node8</title>
<path fill="none" stroke="midnightblue" d="M364.284,-62.0967C461.143,-53.0788 757.018,-25.5318 869.279,-15.08"/>
<polygon fill="midnightblue" stroke="midnightblue" points="869.611,-18.5642 879.244,-14.1521 868.962,-11.5943 869.611,-18.5642"/>
</g>
<!-- Node14&#45;&gt;Node10 -->
<g id="edge29" class="edge"><title>Node14&#45;&gt;Node10</title>
<path fill="none" stroke="midnightblue" d="M315.634,-56.7986C296.696,-47.9059 266.256,-33.6123 244.418,-23.3581"/>
<polygon fill="midnightblue" stroke="midnightblue" points="245.893,-20.184 235.354,-19.1017 242.918,-26.5202 245.893,-20.184"/>
</g>
<!-- Node15&#45;&gt;Node2 -->
<g id="edge35" class="edge"><title>Node15&#45;&gt;Node2</title>
<path fill="none" stroke="midnightblue" d="M504.351,-56.7986C521.814,-47.9857 549.787,-33.8683 570.064,-23.6349"/>
<polygon fill="midnightblue" stroke="midnightblue" points="571.696,-26.7319 579.047,-19.1017 568.542,-20.4826 571.696,-26.7319"/>
</g>
<!-- Node15&#45;&gt;Node7 -->
<g id="edge36" class="edge"><title>Node15&#45;&gt;Node7</title>
<path fill="none" stroke="midnightblue" d="M517.593,-56.9157C554.287,-46.8574 616.658,-29.7609 654.058,-19.5091"/>
<polygon fill="midnightblue" stroke="midnightblue" points="655.183,-22.8297 663.902,-16.8106 653.333,-16.0788 655.183,-22.8297"/>
</g>
<!-- Node15&#45;&gt;Node8 -->
<g id="edge37" class="edge"><title>Node15&#45;&gt;Node8</title>
<path fill="none" stroke="midnightblue" d="M517.842,-57.7793C520.958,-57.1297 524.088,-56.5216 527.1,-56 650.341,-34.6638 797.508,-20.6311 869.322,-14.5128"/>
<polygon fill="midnightblue" stroke="midnightblue" points="869.688,-17.9945 879.359,-13.6676 869.101,-11.0192 869.688,-17.9945"/>
</g>
<!-- Node16&#45;&gt;Node2 -->
<g id="edge39" class="edge"><title>Node16&#45;&gt;Node2</title>
<path fill="none" stroke="midnightblue" d="M1268.2,-63.2227C1158.25,-56.6385 776.487,-33.3305 655.1,-20 646.689,-19.0763 637.648,-17.846 629.201,-16.5925"/>
<polygon fill="midnightblue" stroke="midnightblue" points="629.689,-13.1266 619.274,-15.0711 628.629,-20.0458 629.689,-13.1266"/>
</g>
<!-- Node16&#45;&gt;Node7 -->
<g id="edge40" class="edge"><title>Node16&#45;&gt;Node7</title>
<path fill="none" stroke="midnightblue" d="M1268.12,-62.3589C1164.47,-53.2285 821.895,-23.0504 716.339,-13.7519"/>
<polygon fill="midnightblue" stroke="midnightblue" points="716.591,-10.2606 706.322,-12.8695 715.976,-17.2336 716.591,-10.2606"/>
</g>
<!-- Node16&#45;&gt;Node8 -->
<g id="edge41" class="edge"><title>Node16&#45;&gt;Node8</title>
<path fill="none" stroke="midnightblue" d="M1268.33,-58.6147C1263.58,-57.6815 1258.71,-56.7753 1254.1,-56 1148.11,-38.1897 1022.6,-23.1799 957.412,-15.8361"/>
<polygon fill="midnightblue" stroke="midnightblue" points="957.426,-12.3159 947.099,-14.6817 956.647,-19.2724 957.426,-12.3159"/>
</g>
<!-- Node17 -->
<g id="node17" class="node"><title>Node17</title>
<polygon fill="none" stroke="#bfbfbf" points="1267.59,-1 1267.59,-19 1328.61,-19 1328.61,-1 1267.59,-1"/>
<text text-anchor="middle" x="1298.1" y="-7" font-family="Helvetica,sans-Serif" font-size="10.00">hwpl/pio.h</text>
</g>
<!-- Node16&#45;&gt;Node17 -->
<g id="edge42" class="edge"><title>Node16&#45;&gt;Node17</title>
<path fill="none" stroke="midnightblue" d="M1298.1,-56.5625C1298.1,-49.308 1298.1,-38.5884 1298.1,-29.3691"/>
<polygon fill="midnightblue" stroke="midnightblue" points="1301.6,-29.2014 1298.1,-19.2014 1294.6,-29.2015 1301.6,-29.2014"/>
</g>
<!-- Node18&#45;&gt;Node2 -->
<g id="edge44" class="edge"><title>Node18&#45;&gt;Node2</title>
<path fill="none" stroke="midnightblue" d="M572.319,-56.5625C576.106,-48.9891 581.781,-37.6393 586.519,-28.1625"/>
<polygon fill="midnightblue" stroke="midnightblue" points="589.658,-29.711 591,-19.2014 583.397,-26.5805 589.658,-29.711"/>
</g>
<!-- Node18&#45;&gt;Node7 -->
<g id="edge45" class="edge"><title>Node18&#45;&gt;Node7</title>
<path fill="none" stroke="midnightblue" d="M585.616,-56.9157C604.83,-48.0478 635.897,-33.7092 658.204,-23.4138"/>
<polygon fill="midnightblue" stroke="midnightblue" points="659.852,-26.5081 667.464,-19.1396 656.918,-20.1524 659.852,-26.5081"/>
</g>
<!-- Node18&#45;&gt;Node8 -->
<g id="edge46" class="edge"><title>Node18&#45;&gt;Node8</title>
<path fill="none" stroke="midnightblue" d="M600.287,-57.7144C603.261,-57.1078 606.233,-56.5262 609.1,-56 701.178,-39.0999 809.849,-24.2264 869.11,-16.5408"/>
<polygon fill="midnightblue" stroke="midnightblue" points="869.765,-19.9854 879.235,-15.2353 868.87,-13.0429 869.765,-19.9854"/>
</g>
<!-- Node19&#45;&gt;Node2 -->
<g id="edge48" class="edge"><title>Node19&#45;&gt;Node2</title>
<path fill="none" stroke="midnightblue" d="M638.131,-56.5625C630.602,-48.5905 619.121,-36.4341 609.912,-26.6825"/>
<polygon fill="midnightblue" stroke="midnightblue" points="612.257,-24.0684 602.846,-19.2014 607.168,-28.8748 612.257,-24.0684"/>
</g>
<!-- Node19&#45;&gt;Node7 -->
<g id="edge49" class="edge"><title>Node19&#45;&gt;Node7</title>
<path fill="none" stroke="midnightblue" d="M652.194,-56.5625C657.779,-48.8297 666.207,-37.1597 673.136,-27.5665"/>
<polygon fill="midnightblue" stroke="midnightblue" points="676.159,-29.3575 679.177,-19.2014 670.485,-25.259 676.159,-29.3575"/>
</g>
<!-- Node19&#45;&gt;Node8 -->
<g id="edge50" class="edge"><title>Node19&#45;&gt;Node8</title>
<path fill="none" stroke="midnightblue" d="M674.351,-57.9883C677.301,-57.298 680.259,-56.6232 683.1,-56 747.76,-41.8182 823.13,-27.4869 869.481,-18.9242"/>
<polygon fill="midnightblue" stroke="midnightblue" points="870.281,-22.3357 879.482,-17.0829 869.014,-15.4514 870.281,-22.3357"/>
</g>
<!-- Node20&#45;&gt;Node2 -->
<g id="edge52" class="edge"><title>Node20&#45;&gt;Node2</title>
<path fill="none" stroke="midnightblue" d="M704.788,-56.9157C683.413,-47.9683 648.735,-33.4516 624.096,-23.1378"/>
<polygon fill="midnightblue" stroke="midnightblue" points="625.121,-19.7725 614.545,-19.1396 622.418,-26.2296 625.121,-19.7725"/>
</g>
<!-- Node20&#45;&gt;Node7 -->
<g id="edge53" class="edge"><title>Node20&#45;&gt;Node7</title>
<path fill="none" stroke="midnightblue" d="M718.006,-56.5625C712.422,-48.8297 703.993,-37.1597 697.065,-27.5665"/>
<polygon fill="midnightblue" stroke="midnightblue" points="699.716,-25.259 691.024,-19.2014 694.041,-29.3575 699.716,-25.259"/>
</g>
<!-- Node20&#45;&gt;Node8 -->
<g id="edge54" class="edge"><title>Node20&#45;&gt;Node8</title>
<path fill="none" stroke="midnightblue" d="M752.395,-56.9157C785.058,-47.5835 838.926,-32.1927 875.191,-21.8312"/>
<polygon fill="midnightblue" stroke="midnightblue" points="876.267,-25.1639 884.921,-19.0513 874.344,-18.4332 876.267,-25.1639"/>
</g>
<!-- Node21&#45;&gt;Node2 -->
<g id="edge56" class="edge"><title>Node21&#45;&gt;Node2</title>
<path fill="none" stroke="midnightblue" d="M773.752,-57.6048C736.064,-47.7731 669.531,-30.4167 629.161,-19.8854"/>
<polygon fill="midnightblue" stroke="midnightblue" points="629.809,-16.4374 619.249,-17.2998 628.042,-23.2107 629.809,-16.4374"/>
</g>
<!-- Node21&#45;&gt;Node7 -->
<g id="edge57" class="edge"><title>Node21&#45;&gt;Node7</title>
<path fill="none" stroke="midnightblue" d="M784.584,-56.9157C765.371,-48.0478 734.304,-33.7092 711.997,-23.4138"/>
<polygon fill="midnightblue" stroke="midnightblue" points="713.282,-20.1524 702.736,-19.1396 710.349,-26.5081 713.282,-20.1524"/>
</g>
<!-- Node21&#45;&gt;Node8 -->
<g id="edge58" class="edge"><title>Node21&#45;&gt;Node8</title>
<path fill="none" stroke="midnightblue" d="M818.959,-56.7986C837.156,-47.9458 866.356,-33.7404 887.414,-23.4963"/>
<polygon fill="midnightblue" stroke="midnightblue" points="888.986,-26.6237 896.447,-19.1017 885.923,-20.3291 888.986,-26.6237"/>
</g>
<!-- Node22&#45;&gt;Node2 -->
<g id="edge61" class="edge"><title>Node22&#45;&gt;Node2</title>
<path fill="none" stroke="midnightblue" d="M1345.73,-57.7431C1342.5,-57.0651 1339.24,-56.4607 1336.1,-56 1036.22,-11.9924 956.649,-50.5154 655.1,-20 646.681,-19.148 637.638,-17.9445 629.19,-16.6939"/>
<polygon fill="midnightblue" stroke="midnightblue" points="629.681,-13.2282 619.264,-15.1656 628.615,-20.1467 629.681,-13.2282"/>
</g>
<!-- Node22&#45;&gt;Node5 -->
<g id="edge60" class="edge"><title>Node22&#45;&gt;Node5</title>
<path fill="none" stroke="midnightblue" d="M1380.29,-56.5625C1387.01,-48.6703 1397.23,-36.6768 1405.49,-26.9758"/>
<polygon fill="midnightblue" stroke="midnightblue" points="1408.29,-29.0835 1412.11,-19.2014 1402.96,-24.5442 1408.29,-29.0835"/>
</g>
<!-- Node22&#45;&gt;Node7 -->
<g id="edge62" class="edge"><title>Node22&#45;&gt;Node7</title>
<path fill="none" stroke="midnightblue" d="M1345.73,-57.7934C1342.5,-57.1064 1339.24,-56.4862 1336.1,-56 1214.22,-37.1048 828.763,-17.7998 716.23,-12.4497"/>
<polygon fill="midnightblue" stroke="midnightblue" points="716.364,-8.95224 706.21,-11.976 716.033,-15.9444 716.364,-8.95224"/>
</g>
<!-- Node22&#45;&gt;Node8 -->
<g id="edge63" class="edge"><title>Node22&#45;&gt;Node8</title>
<path fill="none" stroke="midnightblue" d="M1345.71,-57.908C1342.48,-57.2005 1339.23,-56.544 1336.1,-56 1198.86,-32.1167 1034.21,-18.998 957.054,-13.7472"/>
<polygon fill="midnightblue" stroke="midnightblue" points="956.971,-10.2339 946.76,-13.0582 956.504,-17.2182 956.971,-10.2339"/>
</g>
<!-- Node23&#45;&gt;Node2 -->
<g id="edge65" class="edge"><title>Node23&#45;&gt;Node2</title>
<path fill="none" stroke="midnightblue" d="M847.856,-57.9566C844.905,-57.2725 841.945,-56.6078 839.1,-56 764.691,-40.1018 676.798,-24.7186 629.455,-16.7088"/>
<polygon fill="midnightblue" stroke="midnightblue" points="629.875,-13.2303 619.432,-15.021 628.712,-20.1331 629.875,-13.2303"/>
</g>
<!-- Node23&#45;&gt;Node7 -->
<g id="edge66" class="edge"><title>Node23&#45;&gt;Node7</title>
<path fill="none" stroke="midnightblue" d="M847.918,-57.0321C812.784,-47.0989 752.917,-30.1733 716.393,-19.847"/>
<polygon fill="midnightblue" stroke="midnightblue" points="716.88,-16.3477 706.305,-16.995 714.975,-23.0836 716.88,-16.3477"/>
</g>
<!-- Node23&#45;&gt;Node8 -->
<g id="edge67" class="edge"><title>Node23&#45;&gt;Node8</title>
<path fill="none" stroke="midnightblue" d="M881.881,-56.5625C887.18,-48.8297 895.176,-37.1597 901.749,-27.5665"/>
<polygon fill="midnightblue" stroke="midnightblue" points="904.716,-29.4291 907.481,-19.2014 898.941,-25.4725 904.716,-29.4291"/>
</g>
<!-- Node24&#45;&gt;Node2 -->
<g id="edge69" class="edge"><title>Node24&#45;&gt;Node2</title>
<path fill="none" stroke="midnightblue" d="M922.528,-57.9291C919.356,-57.2348 916.165,-56.5755 913.1,-56 799.311,-34.635 769.683,-36.5875 655.1,-20 646.726,-18.7877 637.698,-17.4499 629.253,-16.1848"/>
<polygon fill="midnightblue" stroke="midnightblue" points="629.732,-12.7176 619.323,-14.6911 628.691,-19.6398 629.732,-12.7176"/>
</g>
<!-- Node24&#45;&gt;Node7 -->
<g id="edge70" class="edge"><title>Node24&#45;&gt;Node7</title>
<path fill="none" stroke="midnightblue" d="M922.493,-58.1026C919.327,-57.3757 916.148,-56.6614 913.1,-56 842.981,-40.7824 760.255,-24.9915 716.275,-16.7675"/>
<polygon fill="midnightblue" stroke="midnightblue" points="716.688,-13.2842 706.216,-14.8921 715.405,-20.1656 716.688,-13.2842"/>
</g>
<!-- Node24&#45;&gt;Node8 -->
<g id="edge71" class="edge"><title>Node24&#45;&gt;Node8</title>
<path fill="none" stroke="midnightblue" d="M945.163,-56.5625C939.721,-48.8297 931.509,-37.1597 924.758,-27.5665"/>
<polygon fill="midnightblue" stroke="midnightblue" points="927.489,-25.3653 918.872,-19.2014 921.764,-29.3938 927.489,-25.3653"/>
</g>
<!-- Node25&#45;&gt;Node2 -->
<g id="edge73" class="edge"><title>Node25&#45;&gt;Node2</title>
<path fill="none" stroke="midnightblue" d="M997.596,-57.7614C994.399,-57.1153 991.19,-56.5129 988.1,-56 841.248,-31.6221 802.739,-39.0452 655.1,-20 646.708,-18.9174 637.674,-17.628 629.228,-16.3681"/>
<polygon fill="midnightblue" stroke="midnightblue" points="629.711,-12.9015 619.299,-14.8619 628.661,-19.8223 629.711,-12.9015"/>
</g>
<!-- Node25&#45;&gt;Node7 -->
<g id="edge74" class="edge"><title>Node25&#45;&gt;Node7</title>
<path fill="none" stroke="midnightblue" d="M997.573,-57.8875C994.381,-57.2169 991.179,-56.5742 988.1,-56 889.586,-37.6276 771.93,-21.9206 716.689,-14.9096"/>
<polygon fill="midnightblue" stroke="midnightblue" points="716.856,-11.4031 706.497,-13.6251 715.981,-18.3481 716.856,-11.4031"/>
</g>
<!-- Node25&#45;&gt;Node8 -->
<g id="edge75" class="edge"><title>Node25&#45;&gt;Node8</title>
<path fill="none" stroke="midnightblue" d="M1010.63,-56.7986C991.696,-47.9059 961.256,-33.6123 939.418,-23.3581"/>
<polygon fill="midnightblue" stroke="midnightblue" points="940.893,-20.184 930.354,-19.1017 937.918,-26.5202 940.893,-20.184"/>
</g>
<!-- Node26&#45;&gt;Node2 -->
<g id="edge77" class="edge"><title>Node26&#45;&gt;Node2</title>
<path fill="none" stroke="midnightblue" d="M1076.37,-57.6896C1073.25,-57.0575 1070.12,-56.478 1067.1,-56 885.552,-27.2644 837.63,-41.6435 655.1,-20 646.697,-19.0036 637.659,-17.7463 629.213,-16.4899"/>
<polygon fill="midnightblue" stroke="midnightblue" points="629.699,-13.0236 619.285,-14.9755 628.643,-19.9436 629.699,-13.0236"/>
</g>
<!-- Node26&#45;&gt;Node7 -->
<g id="edge78" class="edge"><title>Node26&#45;&gt;Node7</title>
<path fill="none" stroke="midnightblue" d="M1076.36,-57.783C1073.24,-57.1327 1070.11,-56.5234 1067.1,-56 937.78,-33.5311 781.848,-19.0371 716.406,-13.5176"/>
<polygon fill="midnightblue" stroke="midnightblue" points="716.594,-10.0212 706.338,-12.6794 716.013,-16.9971 716.594,-10.0212"/>
</g>
<!-- Node26&#45;&gt;Node8 -->
<g id="edge79" class="edge"><title>Node26&#45;&gt;Node8</title>
<path fill="none" stroke="midnightblue" d="M1077.21,-56.9157C1043.85,-47.5835 988.845,-32.1927 951.812,-21.8312"/>
<polygon fill="midnightblue" stroke="midnightblue" points="952.449,-18.3753 941.876,-19.0513 950.563,-25.1164 952.449,-18.3753"/>
</g>
</g>
</svg>
