<?xml version="1.0" encoding="UTF-8" standalone="no"?>
<!DOCTYPE svg PUBLIC "-//W3C//DTD SVG 1.1//EN"
 "http://www.w3.org/Graphics/SVG/1.1/DTD/svg11.dtd">
<!-- Generated by graphviz version 2.34.0 (20130907.0228)
 -->
<!-- Title: /Users/tgil/git/CoActionOS/CoActionOS/src/sys/unistd/usleep.c Pages: 1 -->
<svg width="411pt" height="112pt"
 viewBox="0.00 0.00 411.00 112.00" xmlns="http://www.w3.org/2000/svg" xmlns:xlink="http://www.w3.org/1999/xlink">
<g id="graph0" class="graph" transform="scale(1 1) rotate(0) translate(4 108)">
<title>/Users/tgil/git/CoActionOS/CoActionOS/src/sys/unistd/usleep.c</title>
<!-- Node1 -->
<g id="node1" class="node"><title>Node1</title>
<polygon fill="#bfbfbf" stroke="black" points="91.9312,-59 91.9312,-103 214.069,-103 214.069,-59 91.9312,-59"/>
<text text-anchor="start" x="99.9312" y="-89" font-family="Helvetica,sans-Serif" font-size="10.00">/Users/tgil/git/CoAction</text>
<text text-anchor="start" x="99.9312" y="-77" font-family="Helvetica,sans-Serif" font-size="10.00">OS/CoActionOS/src/sys</text>
<text text-anchor="middle" x="153" y="-65" font-family="Helvetica,sans-Serif" font-size="10.00">/unistd/usleep.c</text>
</g>
<!-- Node2 -->
<g id="node2" class="node"><title>Node2</title>
<polygon fill="none" stroke="#bfbfbf" points="-0.512207,-1 -0.512207,-21 50.5122,-21 50.5122,-1 -0.512207,-1"/>
<text text-anchor="middle" x="25" y="-7" font-family="Helvetica,sans-Serif" font-size="10.00">unistd.h</text>
</g>
<!-- Node1&#45;&gt;Node2 -->
<g id="edge1" class="edge"><title>Node1&#45;&gt;Node2</title>
<path fill="none" stroke="midnightblue" d="M113.202,-58.8571C93.0153,-48.1331 69.0619,-35.4079 51.2151,-25.9268"/>
<polygon fill="midnightblue" stroke="midnightblue" points="52.4644,-22.6273 41.9912,-21.0266 49.1803,-28.8091 52.4644,-22.6273"/>
</g>
<!-- Node3 -->
<g id="node3" class="node"><title>Node3</title>
<polygon fill="none" stroke="#bfbfbf" points="68.3843,-1 68.3843,-21 111.616,-21 111.616,-1 68.3843,-1"/>
<text text-anchor="middle" x="90" y="-7" font-family="Helvetica,sans-Serif" font-size="10.00">time.h</text>
</g>
<!-- Node1&#45;&gt;Node3 -->
<g id="edge2" class="edge"><title>Node1&#45;&gt;Node3</title>
<path fill="none" stroke="midnightblue" d="M133.412,-58.8571C124.452,-49.1858 113.983,-37.8868 105.572,-28.8076"/>
<polygon fill="midnightblue" stroke="midnightblue" points="107.891,-26.1609 98.5272,-21.2039 102.756,-30.9183 107.891,-26.1609"/>
</g>
<!-- Node4 -->
<g id="node4" class="node"><title>Node4</title>
<polygon fill="none" stroke="#bfbfbf" points="129.158,-1 129.158,-21 176.842,-21 176.842,-1 129.158,-1"/>
<text text-anchor="middle" x="153" y="-7" font-family="Helvetica,sans-Serif" font-size="10.00">errno.h</text>
</g>
<!-- Node1&#45;&gt;Node4 -->
<g id="edge3" class="edge"><title>Node1&#45;&gt;Node4</title>
<path fill="none" stroke="midnightblue" d="M153,-58.8571C153,-50.074 153,-39.9484 153,-31.3622"/>
<polygon fill="midnightblue" stroke="midnightblue" points="156.5,-31.2039 153,-21.2039 149.5,-31.204 156.5,-31.2039"/>
</g>
<!-- Node5 -->
<g id="node5" class="node"><title>Node5</title>
<polygon fill="none" stroke="#bfbfbf" points="195.254,-1 195.254,-21 270.746,-21 270.746,-1 195.254,-1"/>
<text text-anchor="middle" x="233" y="-7" font-family="Helvetica,sans-Serif" font-size="10.00">hwpl/debug.h</text>
</g>
<!-- Node1&#45;&gt;Node5 -->
<g id="edge4" class="edge"><title>Node1&#45;&gt;Node5</title>
<path fill="none" stroke="midnightblue" d="M177.874,-58.8571C189.716,-48.7911 203.633,-36.9617 214.521,-27.7072"/>
<polygon fill="midnightblue" stroke="midnightblue" points="216.819,-30.3472 222.172,-21.2039 212.286,-25.0137 216.819,-30.3472"/>
</g>
<!-- Node6 -->
<g id="node6" class="node"><title>Node6</title>
<polygon fill="none" stroke="#bfbfbf" points="288.247,-1 288.247,-21 403.753,-21 403.753,-1 288.247,-1"/>
<text text-anchor="middle" x="346" y="-7" font-family="Helvetica,sans-Serif" font-size="10.00">../sched/sched_flags.h</text>
</g>
<!-- Node1&#45;&gt;Node6 -->
<g id="edge5" class="edge"><title>Node1&#45;&gt;Node6</title>
<path fill="none" stroke="midnightblue" d="M212.745,-58.9501C244.888,-47.625 283.428,-34.0463 310.773,-24.4117"/>
<polygon fill="midnightblue" stroke="midnightblue" points="312.039,-27.6764 320.308,-21.0521 309.713,-21.0742 312.039,-27.6764"/>
</g>
</g>
</svg>
