<?xml version="1.0" encoding="UTF-8" standalone="no"?>
<!DOCTYPE svg PUBLIC "-//W3C//DTD SVG 1.1//EN"
 "http://www.w3.org/Graphics/SVG/1.1/DTD/svg11.dtd">
<!-- Generated by graphviz version 2.36.0 (20140111.2315)
 -->
<!-- Title: src/sys/unistd/_exit.c Pages: 1 -->
<svg width="1441pt" height="252pt"
 viewBox="0.00 0.00 1441.16 252.00" xmlns="http://www.w3.org/2000/svg" xmlns:xlink="http://www.w3.org/1999/xlink">
<g id="graph0" class="graph" transform="scale(1 1) rotate(0) translate(4 248)">
<title>src/sys/unistd/_exit.c</title>
<!-- Node1 -->
<g id="node1" class="node"><title>Node1</title>
<polygon fill="#bfbfbf" stroke="black" points="325.037,-225 325.037,-243 433.288,-243 433.288,-225 325.037,-225"/>
<text text-anchor="middle" x="379.163" y="-231" font-family="Helvetica,sans-Serif" font-size="10.00">src/sys/unistd/_exit.c</text>
</g>
<!-- Node2 -->
<g id="node2" class="node"><title>Node2</title>
<g id="a_node2"><a xlink:href="config_8h.html" target="_top" xlink:title="config.h">
<polygon fill="none" stroke="black" points="90.6504,-169 90.6504,-187 141.675,-187 141.675,-169 90.6504,-169"/>
<text text-anchor="middle" x="116.163" y="-175" font-family="Helvetica,sans-Serif" font-size="10.00">config.h</text>
</a>
</g>
</g>
<!-- Node1&#45;&gt;Node2 -->
<g id="edge1" class="edge"><title>Node1&#45;&gt;Node2</title>
<path fill="none" stroke="midnightblue" d="M340.073,-224.974C289.175,-214.523 200.928,-196.404 151.793,-186.316"/>
<polygon fill="midnightblue" stroke="midnightblue" points="152.429,-182.873 141.929,-184.29 151.021,-189.73 152.429,-182.873"/>
</g>
<!-- Node5 -->
<g id="node5" class="node"><title>Node5</title>
<polygon fill="none" stroke="#bfbfbf" points="75.8696,-1 75.8696,-19 132.456,-19 132.456,-1 75.8696,-1"/>
<text text-anchor="middle" x="104.163" y="-7" font-family="Helvetica,sans-Serif" font-size="10.00">stdbool.h</text>
</g>
<!-- Node1&#45;&gt;Node5 -->
<g id="edge4" class="edge"><title>Node1&#45;&gt;Node5</title>
<path fill="none" stroke="midnightblue" d="M324.876,-232.562C263.502,-230.332 161.657,-221.318 81.1626,-188 42.3953,-171.953 24.0852,-169.448 5.1626,-132 -17.2552,-87.6354 43.0648,-44.8227 79.2186,-24.0454"/>
<polygon fill="midnightblue" stroke="midnightblue" points="81.2186,-26.938 88.2557,-19.0178 77.8154,-20.8209 81.2186,-26.938"/>
</g>
<!-- Node6 -->
<g id="node6" class="node"><title>Node6</title>
<polygon fill="none" stroke="#bfbfbf" points="208.929,-169 208.929,-187 259.396,-187 259.396,-169 208.929,-169"/>
<text text-anchor="middle" x="234.163" y="-175" font-family="Helvetica,sans-Serif" font-size="10.00">signal.h</text>
</g>
<!-- Node1&#45;&gt;Node6 -->
<g id="edge5" class="edge"><title>Node1&#45;&gt;Node6</title>
<path fill="none" stroke="midnightblue" d="M357.455,-224.916C333.109,-215.849 293.407,-201.063 265.653,-190.727"/>
<polygon fill="midnightblue" stroke="midnightblue" points="266.612,-187.35 256.019,-187.14 264.169,-193.91 266.612,-187.35"/>
</g>
<!-- Node7 -->
<g id="node7" class="node"><title>Node7</title>
<polygon fill="none" stroke="#bfbfbf" points="277.65,-169 277.65,-187 328.675,-187 328.675,-169 277.65,-169"/>
<text text-anchor="middle" x="303.163" y="-175" font-family="Helvetica,sans-Serif" font-size="10.00">unistd.h</text>
</g>
<!-- Node1&#45;&gt;Node7 -->
<g id="edge6" class="edge"><title>Node1&#45;&gt;Node7</title>
<path fill="none" stroke="midnightblue" d="M367.62,-224.799C355.79,-216.393 337.17,-203.163 322.978,-193.079"/>
<polygon fill="midnightblue" stroke="midnightblue" points="324.993,-190.218 314.814,-187.279 320.939,-195.924 324.993,-190.218"/>
</g>
<!-- Node8 -->
<g id="node8" class="node"><title>Node8</title>
<polygon fill="none" stroke="#bfbfbf" points="346.707,-169 346.707,-187 411.618,-187 411.618,-169 346.707,-169"/>
<text text-anchor="middle" x="379.163" y="-175" font-family="Helvetica,sans-Serif" font-size="10.00">sys/reent.h</text>
</g>
<!-- Node1&#45;&gt;Node8 -->
<g id="edge7" class="edge"><title>Node1&#45;&gt;Node8</title>
<path fill="none" stroke="midnightblue" d="M379.163,-224.562C379.163,-217.308 379.163,-206.588 379.163,-197.369"/>
<polygon fill="midnightblue" stroke="midnightblue" points="382.663,-197.201 379.163,-187.201 375.663,-197.201 382.663,-197.201"/>
</g>
<!-- Node9 -->
<g id="node9" class="node"><title>Node9</title>
<polygon fill="none" stroke="#bfbfbf" points="429.32,-169 429.32,-187 477.005,-187 477.005,-169 429.32,-169"/>
<text text-anchor="middle" x="453.163" y="-175" font-family="Helvetica,sans-Serif" font-size="10.00">errno.h</text>
</g>
<!-- Node1&#45;&gt;Node9 -->
<g id="edge8" class="edge"><title>Node1&#45;&gt;Node9</title>
<path fill="none" stroke="midnightblue" d="M390.402,-224.799C401.811,-216.473 419.708,-203.413 433.476,-193.366"/>
<polygon fill="midnightblue" stroke="midnightblue" points="435.803,-196.001 441.818,-187.279 431.677,-190.346 435.803,-196.001"/>
</g>
<!-- Node10 -->
<g id="node10" class="node"><title>Node10</title>
<polygon fill="none" stroke="#bfbfbf" points="495.431,-169 495.431,-187 560.894,-187 560.894,-169 495.431,-169"/>
<text text-anchor="middle" x="528.163" y="-175" font-family="Helvetica,sans-Serif" font-size="10.00">mcu/mpu.h</text>
</g>
<!-- Node1&#45;&gt;Node10 -->
<g id="edge9" class="edge"><title>Node1&#45;&gt;Node10</title>
<path fill="none" stroke="midnightblue" d="M401.469,-224.916C426.596,-215.809 467.642,-200.934 496.178,-190.592"/>
<polygon fill="midnightblue" stroke="midnightblue" points="497.494,-193.838 505.703,-187.14 495.109,-187.256 497.494,-193.838"/>
</g>
<!-- Node11 -->
<g id="node11" class="node"><title>Node11</title>
<g id="a_node11"><a xlink:href="iface_2link_8h.html" target="_top" xlink:title="Link Layer Header. ">
<polygon fill="none" stroke="black" points="626.54,-169 626.54,-187 689.786,-187 689.786,-169 626.54,-169"/>
<text text-anchor="middle" x="658.163" y="-175" font-family="Helvetica,sans-Serif" font-size="10.00">iface/link.h</text>
</a>
</g>
</g>
<!-- Node1&#45;&gt;Node11 -->
<g id="edge10" class="edge"><title>Node1&#45;&gt;Node11</title>
<path fill="none" stroke="midnightblue" d="M420.63,-224.974C473.286,-214.783 563.62,-197.299 616.41,-187.081"/>
<polygon fill="midnightblue" stroke="midnightblue" points="617.293,-190.475 626.445,-185.139 615.962,-183.603 617.293,-190.475"/>
</g>
<!-- Node32 -->
<g id="node32" class="node"><title>Node32</title>
<polygon fill="none" stroke="#bfbfbf" points="707.409,-169 707.409,-187 822.916,-187 822.916,-169 707.409,-169"/>
<text text-anchor="middle" x="765.163" y="-175" font-family="Helvetica,sans-Serif" font-size="10.00">../sched/sched_flags.h</text>
</g>
<!-- Node1&#45;&gt;Node32 -->
<g id="edge65" class="edge"><title>Node1&#45;&gt;Node32</title>
<path fill="none" stroke="midnightblue" d="M433.648,-225.378C502.918,-215.687 622.5,-198.958 697.528,-188.462"/>
<polygon fill="midnightblue" stroke="midnightblue" points="698.391,-191.875 707.809,-187.024 697.421,-184.943 698.391,-191.875"/>
</g>
<!-- Node3 -->
<g id="node3" class="node"><title>Node3</title>
<polygon fill="none" stroke="#bfbfbf" points="14.2539,-113 14.2539,-131 88.0713,-131 88.0713,-113 14.2539,-113"/>
<text text-anchor="middle" x="51.1626" y="-119" font-family="Helvetica,sans-Serif" font-size="10.00">mcu/debug.h</text>
</g>
<!-- Node2&#45;&gt;Node3 -->
<g id="edge2" class="edge"><title>Node2&#45;&gt;Node3</title>
<path fill="none" stroke="midnightblue" d="M106.29,-168.799C96.4596,-160.631 81.1448,-147.908 69.1495,-137.943"/>
<polygon fill="midnightblue" stroke="midnightblue" points="71.0561,-134.977 61.1276,-131.279 66.583,-140.361 71.0561,-134.977"/>
</g>
<!-- Node4 -->
<g id="node4" class="node"><title>Node4</title>
<polygon fill="none" stroke="#bfbfbf" points="739.042,-1 739.042,-19 787.283,-19 787.283,-1 739.042,-1"/>
<text text-anchor="middle" x="763.163" y="-7" font-family="Helvetica,sans-Serif" font-size="10.00">stdint.h</text>
</g>
<!-- Node2&#45;&gt;Node4 -->
<g id="edge3" class="edge"><title>Node2&#45;&gt;Node4</title>
<path fill="none" stroke="midnightblue" d="M116.385,-168.788C117.482,-146.384 123.901,-84.0149 161.163,-56 206.598,-21.8398 607.382,-13.2599 728.589,-11.4372"/>
<polygon fill="midnightblue" stroke="midnightblue" points="728.833,-14.9341 738.782,-11.2901 728.732,-7.93486 728.833,-14.9341"/>
</g>
<!-- Node12 -->
<g id="node12" class="node"><title>Node12</title>
<polygon fill="none" stroke="#bfbfbf" points="758.044,-113 758.044,-131 816.281,-131 816.281,-113 758.044,-113"/>
<text text-anchor="middle" x="787.163" y="-119" font-family="Helvetica,sans-Serif" font-size="10.00">sys/stat.h</text>
</g>
<!-- Node11&#45;&gt;Node12 -->
<g id="edge11" class="edge"><title>Node11&#45;&gt;Node12</title>
<path fill="none" stroke="midnightblue" d="M677.475,-168.916C698.849,-159.968 733.528,-145.452 758.167,-135.138"/>
<polygon fill="midnightblue" stroke="midnightblue" points="759.845,-138.23 767.718,-131.14 757.142,-131.773 759.845,-138.23"/>
</g>
<!-- Node13 -->
<g id="node13" class="node"><title>Node13</title>
<polygon fill="none" stroke="#bfbfbf" points="691.547,-57 691.547,-75 734.778,-75 734.778,-57 691.547,-57"/>
<text text-anchor="middle" x="713.163" y="-63" font-family="Helvetica,sans-Serif" font-size="10.00">time.h</text>
</g>
<!-- Node11&#45;&gt;Node13 -->
<g id="edge12" class="edge"><title>Node11&#45;&gt;Node13</title>
<path fill="none" stroke="midnightblue" d="M659.533,-168.605C661.852,-155.828 667.29,-130.984 677.163,-112 682.644,-101.459 690.787,-91.0149 697.942,-82.8454"/>
<polygon fill="midnightblue" stroke="midnightblue" points="700.724,-84.9892 704.888,-75.2468 695.557,-80.2662 700.724,-84.9892"/>
</g>
<!-- Node14 -->
<g id="node14" class="node"><title>Node14</title>
<g id="a_node14"><a xlink:href="adc_8h.html" target="_top" xlink:title="Analog to Digital Converter Header File. ">
<polygon fill="none" stroke="black" points="791.48,-57 791.48,-75 850.845,-75 850.845,-57 791.48,-57"/>
<text text-anchor="middle" x="821.163" y="-63" font-family="Helvetica,sans-Serif" font-size="10.00">dev/adc.h</text>
</a>
</g>
</g>
<!-- Node11&#45;&gt;Node14 -->
<g id="edge13" class="edge"><title>Node11&#45;&gt;Node14</title>
<path fill="none" stroke="midnightblue" d="M690.137,-169.439C737.443,-158.105 820.985,-137.452 825.163,-132 835.355,-118.698 832.404,-99.0101 828.113,-84.7899"/>
<polygon fill="midnightblue" stroke="midnightblue" points="831.359,-83.4704 824.765,-75.1778 824.749,-85.7726 831.359,-83.4704"/>
</g>
<!-- Node16 -->
<g id="node16" class="node"><title>Node16</title>
<g id="a_node16"><a xlink:href="bootloader_8h.html" target="_top" xlink:title="Analog to Digital Converter Header File. ">
<polygon fill="none" stroke="black" points="318.185,-57 318.185,-75 408.14,-75 408.14,-57 318.185,-57"/>
<text text-anchor="middle" x="363.163" y="-63" font-family="Helvetica,sans-Serif" font-size="10.00">dev/bootloader.h</text>
</a>
</g>
</g>
<!-- Node11&#45;&gt;Node16 -->
<g id="edge16" class="edge"><title>Node11&#45;&gt;Node16</title>
<path fill="none" stroke="midnightblue" d="M634.71,-168.915C609.669,-160.183 568.895,-145.68 534.163,-132 513.041,-123.68 508.285,-120.32 487.163,-112 456.636,-99.9761 421.443,-87.3171 396.366,-78.4993"/>
<polygon fill="midnightblue" stroke="midnightblue" points="397.21,-75.0867 386.615,-75.0851 394.897,-81.6934 397.21,-75.0867"/>
</g>
<!-- Node17 -->
<g id="node17" class="node"><title>Node17</title>
<g id="a_node17"><a xlink:href="core_8h.html" target="_top" xlink:title="Analog to Digital Converter Header File. ">
<polygon fill="none" stroke="black" points="415.815,-113 415.815,-131 478.51,-131 478.51,-113 415.815,-113"/>
<text text-anchor="middle" x="447.163" y="-119" font-family="Helvetica,sans-Serif" font-size="10.00">dev/core.h</text>
</a>
</g>
</g>
<!-- Node11&#45;&gt;Node17 -->
<g id="edge19" class="edge"><title>Node11&#45;&gt;Node17</title>
<path fill="none" stroke="midnightblue" d="M626.574,-168.916C589.798,-159.504 528.941,-143.929 488.451,-133.567"/>
<polygon fill="midnightblue" stroke="midnightblue" points="489.178,-130.14 478.622,-131.051 487.442,-136.921 489.178,-130.14"/>
</g>
<!-- Node18 -->
<g id="node18" class="node"><title>Node18</title>
<g id="a_node18"><a xlink:href="pio_8h.html" target="_top" xlink:title="General Purpose Input/Output Header File. ">
<polygon fill="none" stroke="black" points="181.919,-57 181.919,-75 262.406,-75 262.406,-57 181.919,-57"/>
<text text-anchor="middle" x="222.163" y="-63" font-family="Helvetica,sans-Serif" font-size="10.00">iface/dev/pio.h</text>
</a>
</g>
</g>
<!-- Node11&#45;&gt;Node18 -->
<g id="edge26" class="edge"><title>Node11&#45;&gt;Node18</title>
<path fill="none" stroke="midnightblue" d="M626.471,-174.456C578.08,-169.88 483.364,-158.181 407.163,-132 389.113,-125.799 386.809,-119.27 369.163,-112 334.686,-97.7971 294.059,-85.6941 264.263,-77.629"/>
<polygon fill="midnightblue" stroke="midnightblue" points="265.162,-74.2466 254.598,-75.0515 263.359,-81.0102 265.162,-74.2466"/>
</g>
<!-- Node19 -->
<g id="node19" class="node"><title>Node19</title>
<g id="a_node19"><a xlink:href="dac_8h.html" target="_top" xlink:title="DAC Header File. ">
<polygon fill="none" stroke="black" points="868.48,-57 868.48,-75 927.845,-75 927.845,-57 868.48,-57"/>
<text text-anchor="middle" x="898.163" y="-63" font-family="Helvetica,sans-Serif" font-size="10.00">dev/dac.h</text>
</a>
</g>
</g>
<!-- Node11&#45;&gt;Node19 -->
<g id="edge27" class="edge"><title>Node11&#45;&gt;Node19</title>
<path fill="none" stroke="midnightblue" d="M689.804,-169.84C740.906,-158.201 836.59,-136.062 843.163,-132 862.555,-120.015 878.543,-98.8808 888.19,-83.9704"/>
<polygon fill="midnightblue" stroke="midnightblue" points="891.311,-85.5772 893.586,-75.2295 885.355,-81.9 891.311,-85.5772"/>
</g>
<!-- Node20 -->
<g id="node20" class="node"><title>Node20</title>
<g id="a_node20"><a xlink:href="eint_8h.html" target="_top" xlink:title="External Interrupt Header File. ">
<polygon fill="none" stroke="black" points="1374.48,-57 1374.48,-75 1433.84,-75 1433.84,-57 1374.48,-57"/>
<text text-anchor="middle" x="1404.16" y="-63" font-family="Helvetica,sans-Serif" font-size="10.00">dev/eint.h</text>
</a>
</g>
</g>
<!-- Node11&#45;&gt;Node20 -->
<g id="edge30" class="edge"><title>Node11&#45;&gt;Node20</title>
<path fill="none" stroke="midnightblue" d="M689.966,-169.442C692.73,-168.908 695.49,-168.417 698.163,-168 878.028,-139.958 926.207,-159.452 1106.16,-132 1199.55,-117.754 1307.49,-91.7981 1364.36,-77.3705"/>
<polygon fill="midnightblue" stroke="midnightblue" points="1365.54,-80.6805 1374.37,-74.8162 1363.81,-73.898 1365.54,-80.6805"/>
</g>
<!-- Node22 -->
<g id="node22" class="node"><title>Node22</title>
<g id="a_node22"><a xlink:href="flash_8h.html" target="_top" xlink:title="Flash Memory Header File. ">
<polygon fill="none" stroke="black" points="945.98,-57 945.98,-75 1010.34,-75 1010.34,-57 945.98,-57"/>
<text text-anchor="middle" x="978.163" y="-63" font-family="Helvetica,sans-Serif" font-size="10.00">dev/flash.h</text>
</a>
</g>
</g>
<!-- Node11&#45;&gt;Node22 -->
<g id="edge34" class="edge"><title>Node11&#45;&gt;Node22</title>
<path fill="none" stroke="midnightblue" d="M690.031,-169.788C692.78,-169.178 695.52,-168.576 698.163,-168 774.05,-151.475 796.826,-160.274 869.163,-132 902.769,-118.864 937.985,-95.9349 958.998,-81.1175"/>
<polygon fill="midnightblue" stroke="midnightblue" points="961.258,-83.8037 967.342,-75.1303 957.177,-78.1163 961.258,-83.8037"/>
</g>
<!-- Node23 -->
<g id="node23" class="node"><title>Node23</title>
<g id="a_node23"><a xlink:href="i2c_8h.html" target="_top" xlink:title="I2C Header File. ">
<polygon fill="none" stroke="black" points="1106.15,-57 1106.15,-75 1162.17,-75 1162.17,-57 1106.15,-57"/>
<text text-anchor="middle" x="1134.16" y="-63" font-family="Helvetica,sans-Serif" font-size="10.00">dev/i2c.h</text>
</a>
</g>
</g>
<!-- Node11&#45;&gt;Node23 -->
<g id="edge37" class="edge"><title>Node11&#45;&gt;Node23</title>
<path fill="none" stroke="midnightblue" d="M689.994,-169.604C692.751,-169.034 695.503,-168.491 698.163,-168 808.124,-147.712 838.525,-158.477 947.163,-132 1004.55,-118.015 1069.15,-93.5162 1105.43,-78.9206"/>
<polygon fill="midnightblue" stroke="midnightblue" points="1106.93,-82.0884 1114.88,-75.0835 1104.3,-75.6026 1106.93,-82.0884"/>
</g>
<!-- Node24 -->
<g id="node24" class="node"><title>Node24</title>
<g id="a_node24"><a xlink:href="pwm_8h.html" target="_top" xlink:title="Pulse Width Modulation Header File. ">
<polygon fill="none" stroke="black" points="1179.99,-57 1179.99,-75 1244.34,-75 1244.34,-57 1179.99,-57"/>
<text text-anchor="middle" x="1212.16" y="-63" font-family="Helvetica,sans-Serif" font-size="10.00">dev/pwm.h</text>
</a>
</g>
</g>
<!-- Node11&#45;&gt;Node24 -->
<g id="edge40" class="edge"><title>Node11&#45;&gt;Node24</title>
<path fill="none" stroke="midnightblue" d="M689.982,-169.537C692.742,-168.982 695.497,-168.46 698.163,-168 829.19,-145.377 865.003,-159.175 995.163,-132 1062.2,-118.003 1138.45,-92.9714 1180.35,-78.3943"/>
<polygon fill="midnightblue" stroke="midnightblue" points="1181.72,-81.6257 1189.99,-75.0139 1179.4,-75.02 1181.72,-81.6257"/>
</g>
<!-- Node25 -->
<g id="node25" class="node"><title>Node25</title>
<g id="a_node25"><a xlink:href="qei_8h.html" target="_top" xlink:title="Quadrature Encoder Interface Header File. ">
<polygon fill="none" stroke="black" points="1261.87,-57 1261.87,-75 1318.46,-75 1318.46,-57 1261.87,-57"/>
<text text-anchor="middle" x="1290.16" y="-63" font-family="Helvetica,sans-Serif" font-size="10.00">dev/qei.h</text>
</a>
</g>
</g>
<!-- Node11&#45;&gt;Node25 -->
<g id="edge43" class="edge"><title>Node11&#45;&gt;Node25</title>
<path fill="none" stroke="midnightblue" d="M689.973,-169.484C692.735,-168.94 695.493,-168.436 698.163,-168 852.934,-142.743 894.958,-160.511 1049.16,-132 1124,-118.164 1209.57,-92.7226 1255.93,-78.1094"/>
<polygon fill="midnightblue" stroke="midnightblue" points="1257.01,-81.4385 1265.49,-75.0764 1254.9,-74.7667 1257.01,-81.4385"/>
</g>
<!-- Node26 -->
<g id="node26" class="node"><title>Node26</title>
<g id="a_node26"><a xlink:href="rtc_8h.html" target="_top" xlink:title="Real Time Clock Header File. ">
<polygon fill="none" stroke="black" points="685.988,-113 685.988,-131 740.337,-131 740.337,-113 685.988,-113"/>
<text text-anchor="middle" x="713.163" y="-119" font-family="Helvetica,sans-Serif" font-size="10.00">dev/rtc.h</text>
</a>
</g>
</g>
<!-- Node11&#45;&gt;Node26 -->
<g id="edge46" class="edge"><title>Node11&#45;&gt;Node26</title>
<path fill="none" stroke="midnightblue" d="M666.756,-168.562C674.957,-160.511 687.506,-148.191 697.487,-138.391"/>
<polygon fill="midnightblue" stroke="midnightblue" points="700.126,-140.705 704.809,-131.201 695.222,-135.71 700.126,-140.705"/>
</g>
<!-- Node27 -->
<g id="node27" class="node"><title>Node27</title>
<g id="a_node27"><a xlink:href="spi_8h.html" target="_top" xlink:title="Serial Peripheral Interface Header File. ">
<polygon fill="none" stroke="black" points="426.15,-57 426.15,-75 482.175,-75 482.175,-57 426.15,-57"/>
<text text-anchor="middle" x="454.163" y="-63" font-family="Helvetica,sans-Serif" font-size="10.00">dev/spi.h</text>
</a>
</g>
</g>
<!-- Node11&#45;&gt;Node27 -->
<g id="edge50" class="edge"><title>Node11&#45;&gt;Node27</title>
<path fill="none" stroke="midnightblue" d="M643.162,-168.911C608.089,-149.999 520.486,-102.763 478.007,-79.8571"/>
<polygon fill="midnightblue" stroke="midnightblue" points="479.648,-76.7659 469.185,-75.1004 476.326,-82.9273 479.648,-76.7659"/>
</g>
<!-- Node28 -->
<g id="node28" class="node"><title>Node28</title>
<g id="a_node28"><a xlink:href="tmr_8h.html" target="_top" xlink:title="Timer Header File. ">
<polygon fill="none" stroke="black" points="500.596,-57 500.596,-75 557.729,-75 557.729,-57 500.596,-57"/>
<text text-anchor="middle" x="529.163" y="-63" font-family="Helvetica,sans-Serif" font-size="10.00">dev/tmr.h</text>
</a>
</g>
</g>
<!-- Node11&#45;&gt;Node28 -->
<g id="edge53" class="edge"><title>Node11&#45;&gt;Node28</title>
<path fill="none" stroke="midnightblue" d="M648.467,-168.732C626.695,-150.167 573.691,-104.97 546.252,-81.5727"/>
<polygon fill="midnightblue" stroke="midnightblue" points="548.501,-78.8901 538.62,-75.0649 543.959,-84.2166 548.501,-78.8901"/>
</g>
<!-- Node29 -->
<g id="node29" class="node"><title>Node29</title>
<g id="a_node29"><a xlink:href="uart_8h.html" target="_top" xlink:title="Universal Asynchronous Receiver/Transmitter Header File. ">
<polygon fill="none" stroke="black" points="1027.93,-57 1027.93,-75 1088.4,-75 1088.4,-57 1027.93,-57"/>
<text text-anchor="middle" x="1058.16" y="-63" font-family="Helvetica,sans-Serif" font-size="10.00">dev/uart.h</text>
</a>
</g>
</g>
<!-- Node11&#45;&gt;Node29 -->
<g id="edge56" class="edge"><title>Node11&#45;&gt;Node29</title>
<path fill="none" stroke="midnightblue" d="M690.01,-169.689C692.764,-169.101 695.51,-168.53 698.163,-168 789.305,-149.794 815,-158.239 904.163,-132 951.185,-118.162 1003.2,-94.2884 1033.15,-79.6459"/>
<polygon fill="midnightblue" stroke="midnightblue" points="1035,-82.6316 1042.42,-75.062 1031.9,-76.3567 1035,-82.6316"/>
</g>
<!-- Node30 -->
<g id="node30" class="node"><title>Node30</title>
<g id="a_node30"><a xlink:href="usb_8h.html" target="_top" xlink:title="Universal Serial Bus Header File. ">
<polygon fill="none" stroke="black" points="575.48,-57 575.48,-75 634.845,-75 634.845,-57 575.48,-57"/>
<text text-anchor="middle" x="605.163" y="-63" font-family="Helvetica,sans-Serif" font-size="10.00">dev/usb.h</text>
</a>
</g>
</g>
<!-- Node11&#45;&gt;Node30 -->
<g id="edge59" class="edge"><title>Node11&#45;&gt;Node30</title>
<path fill="none" stroke="midnightblue" d="M654.179,-168.732C645.581,-150.887 625.128,-108.437 613.542,-84.3913"/>
<polygon fill="midnightblue" stroke="midnightblue" points="616.542,-82.5545 609.048,-75.0649 610.236,-85.5929 616.542,-82.5545"/>
</g>
<!-- Node31 -->
<g id="node31" class="node"><title>Node31</title>
<g id="a_node31"><a xlink:href="sys_8h.html" target="_top" xlink:title="dev/sys.h">
<polygon fill="none" stroke="black" points="302.042,-113 302.042,-131 360.283,-131 360.283,-113 302.042,-113"/>
<text text-anchor="middle" x="331.163" y="-119" font-family="Helvetica,sans-Serif" font-size="10.00">dev/sys.h</text>
</a>
</g>
</g>
<!-- Node11&#45;&gt;Node31 -->
<g id="edge62" class="edge"><title>Node11&#45;&gt;Node31</title>
<path fill="none" stroke="midnightblue" d="M626.26,-173.217C573.847,-166.215 466.846,-150.418 370.066,-132.866"/>
<polygon fill="midnightblue" stroke="midnightblue" points="370.6,-129.406 360.134,-131.052 369.342,-136.292 370.6,-129.406"/>
</g>
<!-- Node14&#45;&gt;Node4 -->
<g id="edge14" class="edge"><title>Node14&#45;&gt;Node4</title>
<path fill="none" stroke="midnightblue" d="M812.1,-56.5625C803.366,-48.4311 789.957,-35.9462 779.381,-26.1003"/>
<polygon fill="midnightblue" stroke="midnightblue" points="781.675,-23.454 771.972,-19.2014 776.906,-28.5773 781.675,-23.454"/>
</g>
<!-- Node15 -->
<g id="node15" class="node"><title>Node15</title>
<polygon fill="none" stroke="#bfbfbf" points="865.431,-1 865.431,-19 930.894,-19 930.894,-1 865.431,-1"/>
<text text-anchor="middle" x="898.163" y="-7" font-family="Helvetica,sans-Serif" font-size="10.00">mcu/arch.h</text>
</g>
<!-- Node14&#45;&gt;Node15 -->
<g id="edge15" class="edge"><title>Node14&#45;&gt;Node15</title>
<path fill="none" stroke="midnightblue" d="M832.857,-56.7986C844.912,-48.3446 863.927,-35.0093 878.337,-24.9039"/>
<polygon fill="midnightblue" stroke="midnightblue" points="880.432,-27.7091 886.61,-19.1017 876.413,-21.9779 880.432,-27.7091"/>
</g>
<!-- Node16&#45;&gt;Node4 -->
<g id="edge17" class="edge"><title>Node16&#45;&gt;Node4</title>
<path fill="none" stroke="midnightblue" d="M408.225,-57.3657C411.248,-56.8918 414.248,-56.4323 417.163,-56 531.015,-39.1141 666.468,-22.5043 728.737,-15.063"/>
<polygon fill="midnightblue" stroke="midnightblue" points="729.275,-18.5237 738.791,-13.8653 728.447,-11.5729 729.275,-18.5237"/>
</g>
<!-- Node16&#45;&gt;Node15 -->
<g id="edge18" class="edge"><title>Node16&#45;&gt;Node15</title>
<path fill="none" stroke="midnightblue" d="M408.208,-57.2438C411.235,-56.7993 414.241,-56.3797 417.163,-56 460.017,-50.4314 745.634,-24.662 855.348,-14.8278"/>
<polygon fill="midnightblue" stroke="midnightblue" points="855.755,-18.3055 865.403,-13.927 855.13,-11.3334 855.755,-18.3055"/>
</g>
<!-- Node17&#45;&gt;Node4 -->
<g id="edge20" class="edge"><title>Node17&#45;&gt;Node4</title>
<path fill="none" stroke="midnightblue" d="M416.071,-112.927C377.393,-102.574 315.62,-84.8973 309.163,-76 303.942,-68.806 303.195,-62.5881 309.163,-56 337.219,-25.0249 627.606,-14.5373 728.696,-11.8097"/>
<polygon fill="midnightblue" stroke="midnightblue" points="729.065,-15.3014 738.97,-11.5419 728.882,-8.30377 729.065,-15.3014"/>
</g>
<!-- Node17&#45;&gt;Node15 -->
<g id="edge21" class="edge"><title>Node17&#45;&gt;Node15</title>
<path fill="none" stroke="midnightblue" d="M478.743,-116.235C518.064,-109.741 586.912,-96.5182 643.163,-76 661.463,-69.3248 663.796,-62.4893 682.163,-56 740.342,-35.4443 810.828,-22.9401 855.097,-16.4936"/>
<polygon fill="midnightblue" stroke="midnightblue" points="855.809,-19.9278 865.218,-15.059 854.826,-12.9971 855.809,-19.9278"/>
</g>
<!-- Node17&#45;&gt;Node18 -->
<g id="edge22" class="edge"><title>Node17&#45;&gt;Node18</title>
<path fill="none" stroke="midnightblue" d="M415.403,-113.378C376.182,-103.965 309.288,-87.9101 265.406,-77.3784"/>
<polygon fill="midnightblue" stroke="midnightblue" points="266.135,-73.954 255.594,-75.0235 264.501,-80.7607 266.135,-73.954"/>
</g>
<!-- Node18&#45;&gt;Node4 -->
<g id="edge24" class="edge"><title>Node18&#45;&gt;Node4</title>
<path fill="none" stroke="midnightblue" d="M262.512,-57.9446C267.109,-57.2391 271.732,-56.5731 276.163,-56 445.255,-34.1264 648.716,-18.8805 728.59,-13.3231"/>
<polygon fill="midnightblue" stroke="midnightblue" points="729.289,-16.7833 739.024,-12.6035 728.807,-9.79992 729.289,-16.7833"/>
</g>
<!-- Node18&#45;&gt;Node5 -->
<g id="edge23" class="edge"><title>Node18&#45;&gt;Node5</title>
<path fill="none" stroke="midnightblue" d="M204.497,-56.9157C185.119,-48.0478 153.786,-33.7092 131.289,-23.4138"/>
<polygon fill="midnightblue" stroke="midnightblue" points="132.499,-20.1183 121.949,-19.1396 129.586,-26.4835 132.499,-20.1183"/>
</g>
<!-- Node18&#45;&gt;Node15 -->
<g id="edge25" class="edge"><title>Node18&#45;&gt;Node15</title>
<path fill="none" stroke="midnightblue" d="M262.421,-60.587C277.122,-59.0411 293.886,-57.3545 309.163,-56 525.349,-36.8316 579.837,-37.5385 796.163,-20 815.508,-18.4316 836.905,-16.564 855.085,-14.9377"/>
<polygon fill="midnightblue" stroke="midnightblue" points="855.452,-18.4189 865.098,-14.0373 854.825,-11.447 855.452,-18.4189"/>
</g>
<!-- Node19&#45;&gt;Node4 -->
<g id="edge28" class="edge"><title>Node19&#45;&gt;Node4</title>
<path fill="none" stroke="midnightblue" d="M877.952,-56.9157C855.385,-47.8888 818.645,-33.1931 792.822,-22.8637"/>
<polygon fill="midnightblue" stroke="midnightblue" points="794.096,-19.6039 783.512,-19.1396 791.497,-26.1033 794.096,-19.6039"/>
</g>
<!-- Node19&#45;&gt;Node15 -->
<g id="edge29" class="edge"><title>Node19&#45;&gt;Node15</title>
<path fill="none" stroke="midnightblue" d="M898.163,-56.5625C898.163,-49.308 898.163,-38.5884 898.163,-29.3691"/>
<polygon fill="midnightblue" stroke="midnightblue" points="901.663,-29.2014 898.163,-19.2014 894.663,-29.2015 901.663,-29.2014"/>
</g>
<!-- Node20&#45;&gt;Node4 -->
<g id="edge31" class="edge"><title>Node20&#45;&gt;Node4</title>
<path fill="none" stroke="midnightblue" d="M1374.21,-61.2162C1359.97,-59.4901 1342.7,-57.5015 1327.16,-56 1118.19,-35.8095 1065.32,-38.1123 856.163,-20 836.891,-18.3312 815.394,-16.2642 797.926,-14.5321"/>
<polygon fill="midnightblue" stroke="midnightblue" points="797.925,-11.0147 787.626,-13.5035 797.229,-17.98 797.925,-11.0147"/>
</g>
<!-- Node20&#45;&gt;Node15 -->
<g id="edge32" class="edge"><title>Node20&#45;&gt;Node15</title>
<path fill="none" stroke="midnightblue" d="M1374.42,-58.4762C1369.66,-57.5608 1364.79,-56.6965 1360.16,-56 1206.9,-32.9265 1023.17,-19.124 941.252,-13.6849"/>
<polygon fill="midnightblue" stroke="midnightblue" points="941.285,-10.1797 931.077,-13.0179 940.827,-17.1647 941.285,-10.1797"/>
</g>
<!-- Node21 -->
<g id="node21" class="node"><title>Node21</title>
<polygon fill="none" stroke="#bfbfbf" points="1374.49,-1 1374.49,-19 1433.84,-19 1433.84,-1 1374.49,-1"/>
<text text-anchor="middle" x="1404.16" y="-7" font-family="Helvetica,sans-Serif" font-size="10.00">mcu/pio.h</text>
</g>
<!-- Node20&#45;&gt;Node21 -->
<g id="edge33" class="edge"><title>Node20&#45;&gt;Node21</title>
<path fill="none" stroke="midnightblue" d="M1404.16,-56.5625C1404.16,-49.308 1404.16,-38.5884 1404.16,-29.3691"/>
<polygon fill="midnightblue" stroke="midnightblue" points="1407.66,-29.2014 1404.16,-19.2014 1400.66,-29.2015 1407.66,-29.2014"/>
</g>
<!-- Node22&#45;&gt;Node4 -->
<g id="edge35" class="edge"><title>Node22&#45;&gt;Node4</title>
<path fill="none" stroke="midnightblue" d="M945.975,-56.9157C906.018,-46.8799 838.164,-29.8374 797.316,-19.5781"/>
<polygon fill="midnightblue" stroke="midnightblue" points="798.098,-16.1658 787.546,-17.1243 796.393,-22.9549 798.098,-16.1658"/>
</g>
<!-- Node22&#45;&gt;Node15 -->
<g id="edge36" class="edge"><title>Node22&#45;&gt;Node15</title>
<path fill="none" stroke="midnightblue" d="M966.012,-56.7986C953.488,-48.3446 933.732,-35.0093 918.761,-24.9039"/>
<polygon fill="midnightblue" stroke="midnightblue" points="920.412,-21.7955 910.165,-19.1017 916.495,-27.5974 920.412,-21.7955"/>
</g>
<!-- Node23&#45;&gt;Node4 -->
<g id="edge38" class="edge"><title>Node23&#45;&gt;Node4</title>
<path fill="none" stroke="midnightblue" d="M1105.95,-57.8145C1102.99,-57.1581 1100.02,-56.5387 1097.16,-56 988.68,-35.5563 858.683,-20.804 797.807,-14.4584"/>
<polygon fill="midnightblue" stroke="midnightblue" points="797.916,-10.9511 787.609,-13.4069 797.198,-17.9142 797.916,-10.9511"/>
</g>
<!-- Node23&#45;&gt;Node15 -->
<g id="edge39" class="edge"><title>Node23&#45;&gt;Node15</title>
<path fill="none" stroke="midnightblue" d="M1105.89,-58.0735C1102.95,-57.3665 1099.99,-56.6646 1097.16,-56 1043.39,-43.3818 981.297,-29.4403 940.966,-20.4687"/>
<polygon fill="midnightblue" stroke="midnightblue" points="941.47,-16.9953 930.949,-18.2429 939.951,-23.8286 941.47,-16.9953"/>
</g>
<!-- Node24&#45;&gt;Node4 -->
<g id="edge41" class="edge"><title>Node24&#45;&gt;Node4</title>
<path fill="none" stroke="midnightblue" d="M1179.55,-57.5135C1176.72,-56.9635 1173.9,-56.4493 1171.16,-56 1099.34,-44.1913 882.38,-22.5777 797.619,-14.324"/>
<polygon fill="midnightblue" stroke="midnightblue" points="797.782,-10.8234 787.49,-13.3401 797.105,-17.7906 797.782,-10.8234"/>
</g>
<!-- Node24&#45;&gt;Node15 -->
<g id="edge42" class="edge"><title>Node24&#45;&gt;Node15</title>
<path fill="none" stroke="midnightblue" d="M1179.97,-57.7646C1176.99,-57.1474 1174.03,-56.5497 1171.16,-56 1090.23,-40.4582 995.164,-25.5371 941.256,-17.3849"/>
<polygon fill="midnightblue" stroke="midnightblue" points="941.449,-13.8746 931.04,-15.8465 940.407,-20.7966 941.449,-13.8746"/>
</g>
<!-- Node25&#45;&gt;Node4 -->
<g id="edge44" class="edge"><title>Node25&#45;&gt;Node4</title>
<path fill="none" stroke="midnightblue" d="M1261.57,-57.6006C1258.74,-57.0025 1255.9,-56.4547 1253.16,-56 1078.39,-26.9834 1032.56,-36.5329 856.163,-20 836.903,-18.1949 815.407,-16.1186 797.936,-14.4154"/>
<polygon fill="midnightblue" stroke="midnightblue" points="797.928,-10.898 787.635,-13.409 797.247,-17.8649 797.928,-10.898"/>
</g>
<!-- Node25&#45;&gt;Node15 -->
<g id="edge45" class="edge"><title>Node25&#45;&gt;Node15</title>
<path fill="none" stroke="midnightblue" d="M1261.55,-57.7028C1258.72,-57.084 1255.89,-56.5035 1253.16,-56 1141.53,-35.4147 1008.4,-21.2897 941.328,-14.8902"/>
<polygon fill="midnightblue" stroke="midnightblue" points="941.43,-11.3843 931.145,-13.9297 940.772,-18.3534 941.43,-11.3843"/>
</g>
<!-- Node26&#45;&gt;Node4 -->
<g id="edge48" class="edge"><title>Node26&#45;&gt;Node4</title>
<path fill="none" stroke="midnightblue" d="M719.688,-112.812C726.358,-104.111 736.639,-89.741 743.163,-76 750.363,-60.8345 755.734,-42.4635 759.088,-29.1262"/>
<polygon fill="midnightblue" stroke="midnightblue" points="762.519,-29.826 761.425,-19.2877 755.708,-28.2077 762.519,-29.826"/>
</g>
<!-- Node26&#45;&gt;Node13 -->
<g id="edge47" class="edge"><title>Node26&#45;&gt;Node13</title>
<path fill="none" stroke="midnightblue" d="M713.163,-112.562C713.163,-105.308 713.163,-94.5884 713.163,-85.3691"/>
<polygon fill="midnightblue" stroke="midnightblue" points="716.663,-85.2014 713.163,-75.2014 709.663,-85.2015 716.663,-85.2014"/>
</g>
<!-- Node26&#45;&gt;Node15 -->
<g id="edge49" class="edge"><title>Node26&#45;&gt;Node15</title>
<path fill="none" stroke="midnightblue" d="M740.574,-113.598C743.46,-112.984 746.361,-112.434 749.163,-112 812.752,-102.156 1283.1,-122.893 1327.16,-76 1381.12,-18.582 1060.45,-11.5994 941.365,-10.9657"/>
<polygon fill="midnightblue" stroke="midnightblue" points="941.164,-7.46493 931.15,-10.9244 941.136,-14.4649 941.164,-7.46493"/>
</g>
<!-- Node27&#45;&gt;Node4 -->
<g id="edge51" class="edge"><title>Node27&#45;&gt;Node4</title>
<path fill="none" stroke="midnightblue" d="M482.396,-57.9027C485.349,-57.2291 488.313,-56.5815 491.163,-56 576.28,-38.6321 677.424,-23.2721 729.086,-15.8027"/>
<polygon fill="midnightblue" stroke="midnightblue" points="729.637,-19.2596 739.038,-14.3732 728.642,-12.3307 729.637,-19.2596"/>
</g>
<!-- Node27&#45;&gt;Node15 -->
<g id="edge52" class="edge"><title>Node27&#45;&gt;Node15</title>
<path fill="none" stroke="midnightblue" d="M482.366,-57.7444C485.325,-57.1017 488.298,-56.5046 491.163,-56 560.36,-43.8106 765.361,-23.6151 855.184,-15.0452"/>
<polygon fill="midnightblue" stroke="midnightblue" points="855.672,-18.5146 865.296,-14.0831 855.009,-11.5461 855.672,-18.5146"/>
</g>
<!-- Node28&#45;&gt;Node4 -->
<g id="edge54" class="edge"><title>Node28&#45;&gt;Node4</title>
<path fill="none" stroke="midnightblue" d="M557.836,-57.9833C560.649,-57.3077 563.46,-56.6373 566.163,-56 623.21,-42.5469 689.701,-27.4873 729.013,-18.6479"/>
<polygon fill="midnightblue" stroke="midnightblue" points="729.885,-22.0394 738.875,-16.4328 728.351,-15.2095 729.885,-22.0394"/>
</g>
<!-- Node28&#45;&gt;Node15 -->
<g id="edge55" class="edge"><title>Node28&#45;&gt;Node15</title>
<path fill="none" stroke="midnightblue" d="M557.782,-57.7275C560.605,-57.1037 563.434,-56.5153 566.163,-56 669.031,-36.5718 791.357,-22.2191 854.935,-15.4081"/>
<polygon fill="midnightblue" stroke="midnightblue" points="855.419,-18.8765 864.994,-14.3411 854.68,-11.9156 855.419,-18.8765"/>
</g>
<!-- Node29&#45;&gt;Node4 -->
<g id="edge57" class="edge"><title>Node29&#45;&gt;Node4</title>
<path fill="none" stroke="midnightblue" d="M1027.54,-57.7722C1024.71,-57.1534 1021.89,-56.5533 1019.16,-56 940.265,-39.9737 847.001,-24.4294 797.715,-16.479"/>
<polygon fill="midnightblue" stroke="midnightblue" points="798.027,-12.9844 787.599,-14.8544 796.917,-19.8959 798.027,-12.9844"/>
</g>
<!-- Node29&#45;&gt;Node15 -->
<g id="edge58" class="edge"><title>Node29&#45;&gt;Node15</title>
<path fill="none" stroke="midnightblue" d="M1034.21,-56.9157C1007.03,-47.743 962.51,-32.7171 931.842,-22.3669"/>
<polygon fill="midnightblue" stroke="midnightblue" points="932.612,-18.9329 922.018,-19.0513 930.374,-25.5654 932.612,-18.9329"/>
</g>
<!-- Node30&#45;&gt;Node4 -->
<g id="edge60" class="edge"><title>Node30&#45;&gt;Node4</title>
<path fill="none" stroke="midnightblue" d="M628.817,-56.9157C655.655,-47.743 699.62,-32.7171 729.904,-22.3669"/>
<polygon fill="midnightblue" stroke="midnightblue" points="731.274,-25.5973 739.605,-19.0513 729.011,-18.9735 731.274,-25.5973"/>
</g>
<!-- Node30&#45;&gt;Node15 -->
<g id="edge61" class="edge"><title>Node30&#45;&gt;Node15</title>
<path fill="none" stroke="midnightblue" d="M634.966,-58.8074C639.711,-57.8492 644.569,-56.8848 649.163,-56 721.25,-42.1155 805.328,-27.1824 855.024,-18.4863"/>
<polygon fill="midnightblue" stroke="midnightblue" points="855.841,-21.8966 865.09,-16.7279 854.637,-15.001 855.841,-21.8966"/>
</g>
<!-- Node31&#45;&gt;Node4 -->
<g id="edge63" class="edge"><title>Node31&#45;&gt;Node4</title>
<path fill="none" stroke="midnightblue" d="M301.829,-118.914C246.102,-113.932 133.85,-98.4251 173.163,-56 211.033,-15.131 608.456,-11.2132 728.813,-10.9689"/>
<polygon fill="midnightblue" stroke="midnightblue" points="728.941,-14.4689 738.936,-10.9559 728.932,-7.46889 728.941,-14.4689"/>
</g>
<!-- Node31&#45;&gt;Node11 -->
<g id="edge64" class="edge"><title>Node31&#45;&gt;Node11</title>
<path fill="none" stroke="midnightblue" d="M360.643,-127.602C368.114,-129.08 375.961,-130.677 383.163,-132 465.728,-147.172 562.366,-161.829 616.412,-170.101"/>
<polygon fill="midnightblue" stroke="midnightblue" points="615.9,-173.563 626.315,-171.619 616.961,-166.644 615.9,-173.563"/>
</g>
</g>
</svg>
