<?xml version="1.0" encoding="UTF-8" standalone="no"?>
<!DOCTYPE svg PUBLIC "-//W3C//DTD SVG 1.1//EN"
 "http://www.w3.org/Graphics/SVG/1.1/DTD/svg11.dtd">
<!-- Generated by graphviz version 2.36.0 (20140111.2315)
 -->
<!-- Title: src/sys/unistd/_fork.c Pages: 1 -->
<svg width="139pt" height="84pt"
 viewBox="0.00 0.00 139.00 84.00" xmlns="http://www.w3.org/2000/svg" xmlns:xlink="http://www.w3.org/1999/xlink">
<g id="graph0" class="graph" transform="scale(1 1) rotate(0) translate(4 80)">
<title>src/sys/unistd/_fork.c</title>
<!-- Node1 -->
<g id="node1" class="node"><title>Node1</title>
<polygon fill="#bfbfbf" stroke="black" points="5.32031,-57 5.32031,-75 114.68,-75 114.68,-57 5.32031,-57"/>
<text text-anchor="middle" x="60" y="-63" font-family="Helvetica,sans-Serif" font-size="10.00">src/sys/unistd/_fork.c</text>
</g>
<!-- Node2 -->
<g id="node2" class="node"><title>Node2</title>
<polygon fill="none" stroke="#bfbfbf" points="-0.842285,-1 -0.842285,-19 46.8423,-19 46.8423,-1 -0.842285,-1"/>
<text text-anchor="middle" x="23" y="-7" font-family="Helvetica,sans-Serif" font-size="10.00">errno.h</text>
</g>
<!-- Node1&#45;&gt;Node2 -->
<g id="edge1" class="edge"><title>Node1&#45;&gt;Node2</title>
<path fill="none" stroke="midnightblue" d="M54.2188,-56.5625C48.9204,-48.8297 40.9242,-37.1597 34.3511,-27.5665"/>
<polygon fill="midnightblue" stroke="midnightblue" points="37.1591,-25.4725 28.6195,-19.2014 31.3846,-29.4291 37.1591,-25.4725"/>
</g>
<!-- Node3 -->
<g id="node3" class="node"><title>Node3</title>
<polygon fill="none" stroke="#bfbfbf" points="64.9902,-1 64.9902,-19 131.01,-19 131.01,-1 64.9902,-1"/>
<text text-anchor="middle" x="98" y="-7" font-family="Helvetica,sans-Serif" font-size="10.00">sys/types.h</text>
</g>
<!-- Node1&#45;&gt;Node3 -->
<g id="edge2" class="edge"><title>Node1&#45;&gt;Node3</title>
<path fill="none" stroke="midnightblue" d="M65.9375,-56.5625C71.3791,-48.8297 79.5913,-37.1597 86.3421,-27.5665"/>
<polygon fill="midnightblue" stroke="midnightblue" points="89.336,-29.3938 92.2286,-19.2014 83.6113,-25.3653 89.336,-29.3938"/>
</g>
</g>
</svg>
