<?xml version="1.0" encoding="UTF-8" standalone="no"?>
<!DOCTYPE svg PUBLIC "-//W3C//DTD SVG 1.1//EN"
 "http://www.w3.org/Graphics/SVG/1.1/DTD/svg11.dtd">
<!-- Generated by graphviz version 2.36.0 (20140111.2315)
 -->
<!-- Title: src/sys/unistd/_getppid.c Pages: 1 -->
<svg width="239pt" height="84pt"
 viewBox="0.00 0.00 239.00 84.00" xmlns="http://www.w3.org/2000/svg" xmlns:xlink="http://www.w3.org/1999/xlink">
<g id="graph0" class="graph" transform="scale(1 1) rotate(0) translate(4 80)">
<title>src/sys/unistd/_getppid.c</title>
<!-- Node1 -->
<g id="node1" class="node"><title>Node1</title>
<polygon fill="#bfbfbf" stroke="black" points="53.2515,-57 53.2515,-75 178.749,-75 178.749,-57 53.2515,-57"/>
<text text-anchor="middle" x="116" y="-63" font-family="Helvetica,sans-Serif" font-size="10.00">src/sys/unistd/_getppid.c</text>
</g>
<!-- Node2 -->
<g id="node2" class="node"><title>Node2</title>
<polygon fill="none" stroke="#bfbfbf" points="-0.00976562,-1 -0.00976562,-19 66.0098,-19 66.0098,-1 -0.00976562,-1"/>
<text text-anchor="middle" x="33" y="-7" font-family="Helvetica,sans-Serif" font-size="10.00">sys/types.h</text>
</g>
<!-- Node1&#45;&gt;Node2 -->
<g id="edge1" class="edge"><title>Node1&#45;&gt;Node2</title>
<path fill="none" stroke="midnightblue" d="M103.394,-56.7986C90.2774,-48.2648 69.5158,-34.7573 53.9325,-24.6187"/>
<polygon fill="midnightblue" stroke="midnightblue" points="55.7435,-21.6214 45.4526,-19.1017 51.926,-27.4889 55.7435,-21.6214"/>
</g>
<!-- Node3 -->
<g id="node3" class="node"><title>Node3</title>
<polygon fill="none" stroke="#bfbfbf" points="83.5493,-1 83.5493,-19 148.451,-19 148.451,-1 83.5493,-1"/>
<text text-anchor="middle" x="116" y="-7" font-family="Helvetica,sans-Serif" font-size="10.00">mcu/mcu.h</text>
</g>
<!-- Node1&#45;&gt;Node3 -->
<g id="edge2" class="edge"><title>Node1&#45;&gt;Node3</title>
<path fill="none" stroke="midnightblue" d="M116,-56.5625C116,-49.308 116,-38.5884 116,-29.3691"/>
<polygon fill="midnightblue" stroke="midnightblue" points="119.5,-29.2014 116,-19.2014 112.5,-29.2015 119.5,-29.2014"/>
</g>
<!-- Node4 -->
<g id="node4" class="node"><title>Node4</title>
<polygon fill="none" stroke="#bfbfbf" points="166.825,-1 166.825,-19 231.175,-19 231.175,-1 166.825,-1"/>
<text text-anchor="middle" x="199" y="-7" font-family="Helvetica,sans-Serif" font-size="10.00">mcu/task.h</text>
</g>
<!-- Node1&#45;&gt;Node4 -->
<g id="edge3" class="edge"><title>Node1&#45;&gt;Node4</title>
<path fill="none" stroke="midnightblue" d="M128.606,-56.7986C141.723,-48.2648 162.484,-34.7573 178.068,-24.6187"/>
<polygon fill="midnightblue" stroke="midnightblue" points="180.074,-27.4889 186.547,-19.1017 176.257,-21.6214 180.074,-27.4889"/>
</g>
</g>
</svg>
