<?xml version="1.0" encoding="UTF-8" standalone="no"?>
<!DOCTYPE svg PUBLIC "-//W3C//DTD SVG 1.1//EN"
 "http://www.w3.org/Graphics/SVG/1.1/DTD/svg11.dtd">
<!-- Generated by graphviz version 2.36.0 (20140111.2315)
 -->
<!-- Title: src/sys/signal/_kill.c Pages: 1 -->
<svg width="257pt" height="84pt"
 viewBox="0.00 0.00 257.00 84.00" xmlns="http://www.w3.org/2000/svg" xmlns:xlink="http://www.w3.org/1999/xlink">
<g id="graph0" class="graph" transform="scale(1 1) rotate(0) translate(4 80)">
<title>src/sys/signal/_kill.c</title>
<!-- Node1 -->
<g id="node1" class="node"><title>Node1</title>
<polygon fill="#bfbfbf" stroke="black" points="40.1011,-57 40.1011,-75 143.899,-75 143.899,-57 40.1011,-57"/>
<text text-anchor="middle" x="92" y="-63" font-family="Helvetica,sans-Serif" font-size="10.00">src/sys/signal/_kill.c</text>
</g>
<!-- Node2 -->
<g id="node2" class="node"><title>Node2</title>
<polygon fill="none" stroke="#bfbfbf" points="-0.233887,-1 -0.233887,-19 50.2339,-19 50.2339,-1 -0.233887,-1"/>
<text text-anchor="middle" x="25" y="-7" font-family="Helvetica,sans-Serif" font-size="10.00">signal.h</text>
</g>
<!-- Node1&#45;&gt;Node2 -->
<g id="edge1" class="edge"><title>Node1&#45;&gt;Node2</title>
<path fill="none" stroke="midnightblue" d="M81.8241,-56.7986C71.5923,-48.552 55.5977,-35.6608 43.1812,-25.6535"/>
<polygon fill="midnightblue" stroke="midnightblue" points="45.254,-22.8288 35.2716,-19.2786 40.8613,-28.279 45.254,-22.8288"/>
</g>
<!-- Node3 -->
<g id="node3" class="node"><title>Node3</title>
<polygon fill="none" stroke="#bfbfbf" points="68.1577,-1 68.1577,-19 115.842,-19 115.842,-1 68.1577,-1"/>
<text text-anchor="middle" x="92" y="-7" font-family="Helvetica,sans-Serif" font-size="10.00">errno.h</text>
</g>
<!-- Node1&#45;&gt;Node3 -->
<g id="edge2" class="edge"><title>Node1&#45;&gt;Node3</title>
<path fill="none" stroke="midnightblue" d="M92,-56.5625C92,-49.308 92,-38.5884 92,-29.3691"/>
<polygon fill="midnightblue" stroke="midnightblue" points="95.5001,-29.2014 92,-19.2014 88.5001,-29.2015 95.5001,-29.2014"/>
</g>
<!-- Node4 -->
<g id="node4" class="node"><title>Node4</title>
<polygon fill="none" stroke="#bfbfbf" points="134.247,-1 134.247,-19 249.753,-19 249.753,-1 134.247,-1"/>
<text text-anchor="middle" x="192" y="-7" font-family="Helvetica,sans-Serif" font-size="10.00">../sched/sched_flags.h</text>
</g>
<!-- Node1&#45;&gt;Node4 -->
<g id="edge3" class="edge"><title>Node1&#45;&gt;Node4</title>
<path fill="none" stroke="midnightblue" d="M107.188,-56.7986C123.36,-48.0654 149.179,-34.1234 168.086,-23.9137"/>
<polygon fill="midnightblue" stroke="midnightblue" points="169.861,-26.9329 176.997,-19.1017 166.535,-20.7736 169.861,-26.9329"/>
</g>
</g>
</svg>
