<?xml version="1.0" encoding="UTF-8" standalone="no"?>
<!DOCTYPE svg PUBLIC "-//W3C//DTD SVG 1.1//EN"
 "http://www.w3.org/Graphics/SVG/1.1/DTD/svg11.dtd">
<!-- Generated by graphviz version 2.36.0 (20140111.2315)
 -->
<!-- Title: src/sys/unistd/_lseek.c Pages: 1 -->
<svg width="147pt" height="140pt"
 viewBox="0.00 0.00 147.00 140.00" xmlns="http://www.w3.org/2000/svg" xmlns:xlink="http://www.w3.org/1999/xlink">
<g id="graph0" class="graph" transform="scale(1 1) rotate(0) translate(4 136)">
<title>src/sys/unistd/_lseek.c</title>
<!-- Node1 -->
<g id="node1" class="node"><title>Node1</title>
<polygon fill="#bfbfbf" stroke="black" points="16.9829,-113 16.9829,-131 133.017,-131 133.017,-113 16.9829,-113"/>
<text text-anchor="middle" x="75" y="-119" font-family="Helvetica,sans-Serif" font-size="10.00">src/sys/unistd/_lseek.c</text>
</g>
<!-- Node2 -->
<g id="node2" class="node"><title>Node2</title>
<g id="a_node2"><a xlink:href="config_8h.html" target="_top" xlink:title="config.h">
<polygon fill="none" stroke="black" points="49.4878,-57 49.4878,-75 100.512,-75 100.512,-57 49.4878,-57"/>
<text text-anchor="middle" x="75" y="-63" font-family="Helvetica,sans-Serif" font-size="10.00">config.h</text>
</a>
</g>
</g>
<!-- Node1&#45;&gt;Node2 -->
<g id="edge1" class="edge"><title>Node1&#45;&gt;Node2</title>
<path fill="none" stroke="midnightblue" d="M75,-112.562C75,-105.308 75,-94.5884 75,-85.3691"/>
<polygon fill="midnightblue" stroke="midnightblue" points="78.5001,-85.2014 75,-75.2014 71.5001,-85.2015 78.5001,-85.2014"/>
</g>
<!-- Node3 -->
<g id="node3" class="node"><title>Node3</title>
<polygon fill="none" stroke="#bfbfbf" points="-0.908691,-1 -0.908691,-19 72.9087,-19 72.9087,-1 -0.908691,-1"/>
<text text-anchor="middle" x="36" y="-7" font-family="Helvetica,sans-Serif" font-size="10.00">mcu/debug.h</text>
</g>
<!-- Node2&#45;&gt;Node3 -->
<g id="edge2" class="edge"><title>Node2&#45;&gt;Node3</title>
<path fill="none" stroke="midnightblue" d="M68.9062,-56.5625C63.3215,-48.8297 54.8931,-37.1597 47.9647,-27.5665"/>
<polygon fill="midnightblue" stroke="midnightblue" points="50.6156,-25.259 41.9233,-19.2014 44.9408,-29.3575 50.6156,-25.259"/>
</g>
<!-- Node4 -->
<g id="node4" class="node"><title>Node4</title>
<polygon fill="none" stroke="#bfbfbf" points="90.8794,-1 90.8794,-19 139.121,-19 139.121,-1 90.8794,-1"/>
<text text-anchor="middle" x="115" y="-7" font-family="Helvetica,sans-Serif" font-size="10.00">stdint.h</text>
</g>
<!-- Node2&#45;&gt;Node4 -->
<g id="edge3" class="edge"><title>Node2&#45;&gt;Node4</title>
<path fill="none" stroke="midnightblue" d="M81.25,-56.5625C87.037,-48.75 95.801,-36.9187 102.948,-27.2704"/>
<polygon fill="midnightblue" stroke="midnightblue" points="105.785,-29.3203 108.925,-19.2014 100.16,-25.1537 105.785,-29.3203"/>
</g>
</g>
</svg>
