<?xml version="1.0" encoding="UTF-8" standalone="no"?>
<!DOCTYPE svg PUBLIC "-//W3C//DTD SVG 1.1//EN"
 "http://www.w3.org/Graphics/SVG/1.1/DTD/svg11.dtd">
<!-- Generated by graphviz version 2.36.0 (20140111.2315)
 -->
<!-- Title: src/sys/unistd/_open.c Pages: 1 -->
<svg width="1261pt" height="308pt"
 viewBox="0.00 0.00 1261.18 308.00" xmlns="http://www.w3.org/2000/svg" xmlns:xlink="http://www.w3.org/1999/xlink">
<g id="graph0" class="graph" transform="scale(1 1) rotate(0) translate(4 304)">
<title>src/sys/unistd/_open.c</title>
<!-- Node1 -->
<g id="node1" class="node"><title>Node1</title>
<polygon fill="#bfbfbf" stroke="black" points="599.48,-281 599.48,-299 714.416,-299 714.416,-281 599.48,-281"/>
<text text-anchor="middle" x="656.948" y="-287" font-family="Helvetica,sans-Serif" font-size="10.00">src/sys/unistd/_open.c</text>
</g>
<!-- Node2 -->
<g id="node2" class="node"><title>Node2</title>
<polygon fill="none" stroke="#bfbfbf" points="401.382,-225 401.382,-243 448.515,-243 448.515,-225 401.382,-225"/>
<text text-anchor="middle" x="424.948" y="-231" font-family="Helvetica,sans-Serif" font-size="10.00">reent.h</text>
</g>
<!-- Node1&#45;&gt;Node2 -->
<g id="edge1" class="edge"><title>Node1&#45;&gt;Node2</title>
<path fill="none" stroke="midnightblue" d="M619.052,-280.948C580.965,-272.741 520.348,-259.369 458.622,-244.083"/>
<polygon fill="midnightblue" stroke="midnightblue" points="459.258,-240.635 448.709,-241.614 457.566,-247.427 459.258,-240.635"/>
</g>
<!-- Node3 -->
<g id="node3" class="node"><title>Node3</title>
<polygon fill="none" stroke="#bfbfbf" points="466.882,-225 466.882,-243 519.015,-243 519.015,-225 466.882,-225"/>
<text text-anchor="middle" x="492.948" y="-231" font-family="Helvetica,sans-Serif" font-size="10.00">stdarg.h</text>
</g>
<!-- Node1&#45;&gt;Node3 -->
<g id="edge2" class="edge"><title>Node1&#45;&gt;Node3</title>
<path fill="none" stroke="midnightblue" d="M632.396,-280.916C604.417,-271.703 558.507,-256.586 527.061,-246.232"/>
<polygon fill="midnightblue" stroke="midnightblue" points="527.993,-242.854 517.4,-243.051 525.804,-249.503 527.993,-242.854"/>
</g>
<!-- Node4 -->
<g id="node4" class="node"><title>Node4</title>
<polygon fill="none" stroke="#bfbfbf" points="221.83,-113 221.83,-131 280.066,-131 280.066,-113 221.83,-113"/>
<text text-anchor="middle" x="250.948" y="-119" font-family="Helvetica,sans-Serif" font-size="10.00">sys/stat.h</text>
</g>
<!-- Node1&#45;&gt;Node4 -->
<g id="edge3" class="edge"><title>Node1&#45;&gt;Node4</title>
<path fill="none" stroke="midnightblue" d="M640.446,-280.995C622.167,-272.091 591.851,-257.219 565.948,-244 548.949,-235.325 545.398,-231.731 527.948,-224 443.094,-186.405 339.485,-151.399 286.254,-134.174"/>
<polygon fill="midnightblue" stroke="midnightblue" points="287.199,-130.801 276.608,-131.069 285.055,-137.465 287.199,-130.801"/>
</g>
<!-- Node5 -->
<g id="node5" class="node"><title>Node5</title>
<polygon fill="none" stroke="#bfbfbf" points="675.106,-225 675.106,-243 722.791,-243 722.791,-225 675.106,-225"/>
<text text-anchor="middle" x="698.948" y="-231" font-family="Helvetica,sans-Serif" font-size="10.00">errno.h</text>
</g>
<!-- Node1&#45;&gt;Node5 -->
<g id="edge4" class="edge"><title>Node1&#45;&gt;Node5</title>
<path fill="none" stroke="midnightblue" d="M663.511,-280.562C669.587,-272.75 678.789,-260.919 686.293,-251.27"/>
<polygon fill="midnightblue" stroke="midnightblue" points="689.193,-253.244 692.569,-243.201 683.667,-248.946 689.193,-253.244"/>
</g>
<!-- Node6 -->
<g id="node6" class="node"><title>Node6</title>
<polygon fill="none" stroke="#bfbfbf" points="740.547,-225 740.547,-243 809.35,-243 809.35,-225 740.547,-225"/>
<text text-anchor="middle" x="774.948" y="-231" font-family="Helvetica,sans-Serif" font-size="10.00">sys/unistd.h</text>
</g>
<!-- Node1&#45;&gt;Node6 -->
<g id="edge5" class="edge"><title>Node1&#45;&gt;Node6</title>
<path fill="none" stroke="midnightblue" d="M674.614,-280.916C693.992,-272.048 725.324,-257.709 747.822,-247.414"/>
<polygon fill="midnightblue" stroke="midnightblue" points="749.525,-250.483 757.162,-243.14 746.612,-244.118 749.525,-250.483"/>
</g>
<!-- Node7 -->
<g id="node7" class="node"><title>Node7</title>
<g id="a_node7"><a xlink:href="sys_8h.html" target="_top" xlink:title="iface/dev/sys.h">
<polygon fill="none" stroke="black" points="574.877,-225 574.877,-243 657.02,-243 657.02,-225 574.877,-225"/>
<text text-anchor="middle" x="615.948" y="-231" font-family="Helvetica,sans-Serif" font-size="10.00">iface/dev/sys.h</text>
</a>
</g>
</g>
<!-- Node1&#45;&gt;Node7 -->
<g id="edge6" class="edge"><title>Node1&#45;&gt;Node7</title>
<path fill="none" stroke="midnightblue" d="M650.542,-280.562C644.61,-272.75 635.627,-260.919 628.302,-251.27"/>
<polygon fill="midnightblue" stroke="midnightblue" points="631.01,-249.049 622.175,-243.201 625.435,-253.282 631.01,-249.049"/>
</g>
<!-- Node28 -->
<g id="node28" class="node"><title>Node28</title>
<polygon fill="none" stroke="#bfbfbf" points="827.498,-225 827.498,-243 892.399,-243 892.399,-225 827.498,-225"/>
<text text-anchor="middle" x="859.948" y="-231" font-family="Helvetica,sans-Serif" font-size="10.00">mcu/mcu.h</text>
</g>
<!-- Node1&#45;&gt;Node28 -->
<g id="edge60" class="edge"><title>Node1&#45;&gt;Node28</title>
<path fill="none" stroke="midnightblue" d="M687.339,-280.916C722.571,-271.544 780.774,-256.061 819.729,-245.699"/>
<polygon fill="midnightblue" stroke="midnightblue" points="820.917,-249.004 829.681,-243.051 819.118,-242.24 820.917,-249.004"/>
</g>
<!-- Node29 -->
<g id="node29" class="node"><title>Node29</title>
<polygon fill="none" stroke="#bfbfbf" points="910.195,-225 910.195,-243 1025.7,-243 1025.7,-225 910.195,-225"/>
<text text-anchor="middle" x="967.948" y="-231" font-family="Helvetica,sans-Serif" font-size="10.00">../sched/sched_flags.h</text>
</g>
<!-- Node1&#45;&gt;Node29 -->
<g id="edge61" class="edge"><title>Node1&#45;&gt;Node29</title>
<path fill="none" stroke="midnightblue" d="M703.172,-280.974C758.757,-271.323 852.009,-255.131 911.713,-244.764"/>
<polygon fill="midnightblue" stroke="midnightblue" points="912.471,-248.185 921.725,-243.026 911.273,-241.288 912.471,-248.185"/>
</g>
<!-- Node8 -->
<g id="node8" class="node"><title>Node8</title>
<polygon fill="none" stroke="#bfbfbf" points="666.828,-1 666.828,-19 715.069,-19 715.069,-1 666.828,-1"/>
<text text-anchor="middle" x="690.948" y="-7" font-family="Helvetica,sans-Serif" font-size="10.00">stdint.h</text>
</g>
<!-- Node7&#45;&gt;Node8 -->
<g id="edge7" class="edge"><title>Node7&#45;&gt;Node8</title>
<path fill="none" stroke="midnightblue" d="M657.146,-225.312C769.779,-204.219 1077.43,-146.073 1121.95,-132 1180.77,-113.407 1215.26,-127.676 1248.95,-76 1253.8,-68.5538 1254.98,-62.5331 1248.95,-56 1213.4,-17.4688 841.393,-11.9218 725.333,-11.13"/>
<polygon fill="midnightblue" stroke="midnightblue" points="725.251,-7.6295 715.23,-11.0688 725.209,-14.6294 725.251,-7.6295"/>
</g>
<!-- Node9 -->
<g id="node9" class="node"><title>Node9</title>
<g id="a_node9"><a xlink:href="iface_2link_8h.html" target="_top" xlink:title="Link Layer Header. ">
<polygon fill="none" stroke="black" points="584.325,-169 584.325,-187 647.571,-187 647.571,-169 584.325,-169"/>
<text text-anchor="middle" x="615.948" y="-175" font-family="Helvetica,sans-Serif" font-size="10.00">iface/link.h</text>
</a>
</g>
</g>
<!-- Node7&#45;&gt;Node9 -->
<g id="edge8" class="edge"><title>Node7&#45;&gt;Node9</title>
<path fill="none" stroke="midnightblue" d="M610.886,-224.562C609.274,-217.308 608.817,-206.588 609.515,-197.369"/>
<polygon fill="midnightblue" stroke="midnightblue" points="613.018,-197.59 610.939,-187.201 606.085,-196.619 613.018,-197.59"/>
</g>
<!-- Node9&#45;&gt;Node4 -->
<g id="edge9" class="edge"><title>Node9&#45;&gt;Node4</title>
<path fill="none" stroke="midnightblue" d="M584.273,-171.647C576.642,-170.404 568.51,-169.119 560.948,-168 443.499,-150.622 410.596,-153.888 290.313,-132.098"/>
<polygon fill="midnightblue" stroke="midnightblue" points="290.812,-128.631 280.345,-130.272 289.55,-135.517 290.812,-128.631"/>
</g>
<!-- Node9&#45;&gt;Node7 -->
<g id="edge59" class="edge"><title>Node9&#45;&gt;Node7</title>
<path fill="none" stroke="midnightblue" d="M620.958,-187.201C622.613,-194.459 623.088,-205.313 622.382,-214.633"/>
<polygon fill="midnightblue" stroke="midnightblue" points="618.911,-214.178 621.011,-224.562 625.846,-215.135 618.911,-214.178"/>
</g>
<!-- Node10 -->
<g id="node10" class="node"><title>Node10</title>
<polygon fill="none" stroke="#bfbfbf" points="1120.33,-57 1120.33,-75 1163.56,-75 1163.56,-57 1120.33,-57"/>
<text text-anchor="middle" x="1141.95" y="-63" font-family="Helvetica,sans-Serif" font-size="10.00">time.h</text>
</g>
<!-- Node9&#45;&gt;Node10 -->
<g id="edge10" class="edge"><title>Node9&#45;&gt;Node10</title>
<path fill="none" stroke="midnightblue" d="M647.679,-175.937C735.545,-172.649 980.448,-161.059 1054.95,-132 1083.37,-120.915 1110.62,-97.8774 1126.82,-82.424"/>
<polygon fill="midnightblue" stroke="midnightblue" points="1129.56,-84.643 1134.24,-75.1377 1124.65,-79.65 1129.56,-84.643"/>
</g>
<!-- Node11 -->
<g id="node11" class="node"><title>Node11</title>
<g id="a_node11"><a xlink:href="adc_8h.html" target="_top" xlink:title="Analog to Digital Converter Header File. ">
<polygon fill="none" stroke="black" points="280.266,-57 280.266,-75 339.63,-75 339.63,-57 280.266,-57"/>
<text text-anchor="middle" x="309.948" y="-63" font-family="Helvetica,sans-Serif" font-size="10.00">dev/adc.h</text>
</a>
</g>
</g>
<!-- Node9&#45;&gt;Node11 -->
<g id="edge11" class="edge"><title>Node9&#45;&gt;Node11</title>
<path fill="none" stroke="midnightblue" d="M596.988,-168.883C576.755,-160.125 543.841,-145.6 515.948,-132 498.794,-123.636 495.72,-118.957 477.948,-112 454.765,-102.925 391.74,-86.8696 349.821,-76.592"/>
<polygon fill="midnightblue" stroke="midnightblue" points="350.462,-73.1456 339.917,-74.1747 348.802,-79.946 350.462,-73.1456"/>
</g>
<!-- Node13 -->
<g id="node13" class="node"><title>Node13</title>
<g id="a_node13"><a xlink:href="bootloader_8h.html" target="_top" xlink:title="Analog to Digital Converter Header File. ">
<polygon fill="none" stroke="black" points="357.971,-57 357.971,-75 447.926,-75 447.926,-57 357.971,-57"/>
<text text-anchor="middle" x="402.948" y="-63" font-family="Helvetica,sans-Serif" font-size="10.00">dev/bootloader.h</text>
</a>
</g>
</g>
<!-- Node9&#45;&gt;Node13 -->
<g id="edge14" class="edge"><title>Node9&#45;&gt;Node13</title>
<path fill="none" stroke="midnightblue" d="M604.989,-168.838C587.041,-155.713 549.967,-129.61 515.948,-112 490.302,-98.7237 459.807,-86.7896 436.964,-78.5527"/>
<polygon fill="midnightblue" stroke="midnightblue" points="437.961,-75.1926 427.366,-75.1464 435.62,-81.7895 437.961,-75.1926"/>
</g>
<!-- Node14 -->
<g id="node14" class="node"><title>Node14</title>
<g id="a_node14"><a xlink:href="core_8h.html" target="_top" xlink:title="Analog to Digital Converter Header File. ">
<polygon fill="none" stroke="black" points="297.601,-113 297.601,-131 360.295,-131 360.295,-113 297.601,-113"/>
<text text-anchor="middle" x="328.948" y="-119" font-family="Helvetica,sans-Serif" font-size="10.00">dev/core.h</text>
</a>
</g>
</g>
<!-- Node9&#45;&gt;Node14 -->
<g id="edge17" class="edge"><title>Node9&#45;&gt;Node14</title>
<path fill="none" stroke="midnightblue" d="M584.211,-171.24C537.94,-162.81 449.266,-146.534 373.948,-132 372.853,-131.789 371.743,-131.574 370.623,-131.356"/>
<polygon fill="midnightblue" stroke="midnightblue" points="370.896,-127.842 360.409,-129.349 369.546,-134.711 370.896,-127.842"/>
</g>
<!-- Node15 -->
<g id="node15" class="node"><title>Node15</title>
<g id="a_node15"><a xlink:href="pio_8h.html" target="_top" xlink:title="General Purpose Input/Output Header File. ">
<polygon fill="none" stroke="red" points="26.7046,-57 26.7046,-75 107.192,-75 107.192,-57 26.7046,-57"/>
<text text-anchor="middle" x="66.9482" y="-63" font-family="Helvetica,sans-Serif" font-size="10.00">iface/dev/pio.h</text>
</a>
</g>
</g>
<!-- Node9&#45;&gt;Node15 -->
<g id="edge23" class="edge"><title>Node9&#45;&gt;Node15</title>
<path fill="none" stroke="midnightblue" d="M584.064,-171.655C532.877,-162.847 434.789,-144.967 401.948,-132 385.997,-125.701 385.099,-117.769 368.948,-112 265.02,-74.8734 230.029,-93.1502 117.356,-76.1259"/>
<polygon fill="midnightblue" stroke="midnightblue" points="117.725,-72.641 107.303,-74.5451 116.638,-79.556 117.725,-72.641"/>
</g>
<!-- Node16 -->
<g id="node16" class="node"><title>Node16</title>
<g id="a_node16"><a xlink:href="dac_8h.html" target="_top" xlink:title="DAC Header File. ">
<polygon fill="none" stroke="black" points="466.266,-57 466.266,-75 525.63,-75 525.63,-57 466.266,-57"/>
<text text-anchor="middle" x="495.948" y="-63" font-family="Helvetica,sans-Serif" font-size="10.00">dev/dac.h</text>
</a>
</g>
</g>
<!-- Node9&#45;&gt;Node16 -->
<g id="edge24" class="edge"><title>Node9&#45;&gt;Node16</title>
<path fill="none" stroke="midnightblue" d="M608.682,-168.614C597.464,-155.85 575.014,-131.021 553.948,-112 541.737,-100.974 527.092,-89.6251 515.574,-81.0828"/>
<polygon fill="midnightblue" stroke="midnightblue" points="517.604,-78.2312 507.467,-75.1494 513.469,-83.8799 517.604,-78.2312"/>
</g>
<!-- Node17 -->
<g id="node17" class="node"><title>Node17</title>
<g id="a_node17"><a xlink:href="eint_8h.html" target="_top" xlink:title="External Interrupt Header File. ">
<polygon fill="none" stroke="black" points="1181.27,-57 1181.27,-75 1240.63,-75 1240.63,-57 1181.27,-57"/>
<text text-anchor="middle" x="1210.95" y="-63" font-family="Helvetica,sans-Serif" font-size="10.00">dev/eint.h</text>
</a>
</g>
</g>
<!-- Node9&#45;&gt;Node17 -->
<g id="edge27" class="edge"><title>Node9&#45;&gt;Node17</title>
<path fill="none" stroke="midnightblue" d="M647.626,-175.526C739.114,-171.023 1002.45,-156.256 1084.95,-132 1124.56,-120.354 1166.35,-96.0644 1190.47,-80.6995"/>
<polygon fill="midnightblue" stroke="midnightblue" points="1192.61,-83.4836 1199.09,-75.1029 1188.8,-77.6122 1192.61,-83.4836"/>
</g>
<!-- Node19 -->
<g id="node19" class="node"><title>Node19</title>
<g id="a_node19"><a xlink:href="flash_8h.html" target="_top" xlink:title="Flash Memory Header File. ">
<polygon fill="none" stroke="black" points="543.766,-57 543.766,-75 608.13,-75 608.13,-57 543.766,-57"/>
<text text-anchor="middle" x="575.948" y="-63" font-family="Helvetica,sans-Serif" font-size="10.00">dev/flash.h</text>
</a>
</g>
</g>
<!-- Node9&#45;&gt;Node19 -->
<g id="edge31" class="edge"><title>Node9&#45;&gt;Node19</title>
<path fill="none" stroke="midnightblue" d="M612.942,-168.732C606.482,-150.967 591.154,-108.817 582.39,-84.7159"/>
<polygon fill="midnightblue" stroke="midnightblue" points="585.588,-83.2667 578.881,-75.0649 579.009,-85.6589 585.588,-83.2667"/>
</g>
<!-- Node20 -->
<g id="node20" class="node"><title>Node20</title>
<g id="a_node20"><a xlink:href="i2c_8h.html" target="_top" xlink:title="I2C Header File. ">
<polygon fill="none" stroke="black" points="625.936,-57 625.936,-75 681.96,-75 681.96,-57 625.936,-57"/>
<text text-anchor="middle" x="653.948" y="-63" font-family="Helvetica,sans-Serif" font-size="10.00">dev/i2c.h</text>
</a>
</g>
</g>
<!-- Node9&#45;&gt;Node20 -->
<g id="edge34" class="edge"><title>Node9&#45;&gt;Node20</title>
<path fill="none" stroke="midnightblue" d="M618.804,-168.732C624.941,-150.967 639.502,-108.817 647.828,-84.7159"/>
<polygon fill="midnightblue" stroke="midnightblue" points="651.205,-85.6596 651.162,-75.0649 644.589,-83.3739 651.205,-85.6596"/>
</g>
<!-- Node21 -->
<g id="node21" class="node"><title>Node21</title>
<g id="a_node21"><a xlink:href="pwm_8h.html" target="_top" xlink:title="Pulse Width Modulation Header File. ">
<polygon fill="none" stroke="black" points="773.771,-57 773.771,-75 838.125,-75 838.125,-57 773.771,-57"/>
<text text-anchor="middle" x="805.948" y="-63" font-family="Helvetica,sans-Serif" font-size="10.00">dev/pwm.h</text>
</a>
</g>
</g>
<!-- Node9&#45;&gt;Node21 -->
<g id="edge37" class="edge"><title>Node9&#45;&gt;Node21</title>
<path fill="none" stroke="midnightblue" d="M629.919,-168.911C662.448,-150.079 743.492,-103.159 783.239,-80.1472"/>
<polygon fill="midnightblue" stroke="midnightblue" points="785.056,-83.1398 791.957,-75.1004 781.549,-77.0818 785.056,-83.1398"/>
</g>
<!-- Node22 -->
<g id="node22" class="node"><title>Node22</title>
<g id="a_node22"><a xlink:href="qei_8h.html" target="_top" xlink:title="Quadrature Encoder Interface Header File. ">
<polygon fill="none" stroke="black" points="855.655,-57 855.655,-75 912.241,-75 912.241,-57 855.655,-57"/>
<text text-anchor="middle" x="883.948" y="-63" font-family="Helvetica,sans-Serif" font-size="10.00">dev/qei.h</text>
</a>
</g>
</g>
<!-- Node9&#45;&gt;Node22 -->
<g id="edge40" class="edge"><title>Node9&#45;&gt;Node22</title>
<path fill="none" stroke="midnightblue" d="M635.655,-168.911C682.312,-149.761 799.73,-101.567 854.705,-79.0027"/>
<polygon fill="midnightblue" stroke="midnightblue" points="856.291,-82.1354 864.213,-75.1004 853.633,-75.6597 856.291,-82.1354"/>
</g>
<!-- Node23 -->
<g id="node23" class="node"><title>Node23</title>
<g id="a_node23"><a xlink:href="rtc_8h.html" target="_top" xlink:title="Real Time Clock Header File. ">
<polygon fill="none" stroke="black" points="991.773,-113 991.773,-131 1046.12,-131 1046.12,-113 991.773,-113"/>
<text text-anchor="middle" x="1018.95" y="-119" font-family="Helvetica,sans-Serif" font-size="10.00">dev/rtc.h</text>
</a>
</g>
</g>
<!-- Node9&#45;&gt;Node23 -->
<g id="edge43" class="edge"><title>Node9&#45;&gt;Node23</title>
<path fill="none" stroke="midnightblue" d="M647.908,-172.718C721.581,-162.846 903.026,-138.533 981.635,-128"/>
<polygon fill="midnightblue" stroke="midnightblue" points="982.135,-131.464 991.582,-126.667 981.205,-124.526 982.135,-131.464"/>
</g>
<!-- Node24 -->
<g id="node24" class="node"><title>Node24</title>
<g id="a_node24"><a xlink:href="spi_8h.html" target="_top" xlink:title="Serial Peripheral Interface Header File. ">
<polygon fill="none" stroke="black" points="699.936,-57 699.936,-75 755.96,-75 755.96,-57 699.936,-57"/>
<text text-anchor="middle" x="727.948" y="-63" font-family="Helvetica,sans-Serif" font-size="10.00">dev/spi.h</text>
</a>
</g>
</g>
<!-- Node9&#45;&gt;Node24 -->
<g id="edge47" class="edge"><title>Node9&#45;&gt;Node24</title>
<path fill="none" stroke="midnightblue" d="M624.366,-168.732C643.106,-150.327 688.496,-105.748 712.49,-82.1827"/>
<polygon fill="midnightblue" stroke="midnightblue" points="715.055,-84.5691 719.737,-75.0649 710.15,-79.5749 715.055,-84.5691"/>
</g>
<!-- Node25 -->
<g id="node25" class="node"><title>Node25</title>
<g id="a_node25"><a xlink:href="tmr_8h.html" target="_top" xlink:title="Timer Header File. ">
<polygon fill="none" stroke="black" points="1006.38,-57 1006.38,-75 1063.51,-75 1063.51,-57 1006.38,-57"/>
<text text-anchor="middle" x="1034.95" y="-63" font-family="Helvetica,sans-Serif" font-size="10.00">dev/tmr.h</text>
</a>
</g>
</g>
<!-- Node9&#45;&gt;Node25 -->
<g id="edge50" class="edge"><title>Node9&#45;&gt;Node25</title>
<path fill="none" stroke="midnightblue" d="M646.758,-168.911C721.867,-149.193 914.265,-98.683 996.613,-77.0641"/>
<polygon fill="midnightblue" stroke="midnightblue" points="997.543,-80.4387 1006.33,-74.5141 995.765,-73.6681 997.543,-80.4387"/>
</g>
<!-- Node26 -->
<g id="node26" class="node"><title>Node26</title>
<g id="a_node26"><a xlink:href="uart_8h.html" target="_top" xlink:title="Universal Asynchronous Receiver/Transmitter Header File. ">
<polygon fill="none" stroke="black" points="124.712,-57 124.712,-75 185.185,-75 185.185,-57 124.712,-57"/>
<text text-anchor="middle" x="154.948" y="-63" font-family="Helvetica,sans-Serif" font-size="10.00">dev/uart.h</text>
</a>
</g>
</g>
<!-- Node9&#45;&gt;Node26 -->
<g id="edge53" class="edge"><title>Node9&#45;&gt;Node26</title>
<path fill="none" stroke="midnightblue" d="M584.101,-171.198C548.306,-164.143 488.808,-150.805 439.948,-132 422.137,-125.145 420.016,-118.147 401.948,-112 316.165,-82.8154 287.846,-93.7323 195.608,-76.206"/>
<polygon fill="midnightblue" stroke="midnightblue" points="196.057,-72.7274 185.57,-74.2354 194.709,-79.5963 196.057,-72.7274"/>
</g>
<!-- Node27 -->
<g id="node27" class="node"><title>Node27</title>
<g id="a_node27"><a xlink:href="usb_8h.html" target="_top" xlink:title="Universal Serial Bus Header File. ">
<polygon fill="none" stroke="black" points="203.266,-57 203.266,-75 262.63,-75 262.63,-57 203.266,-57"/>
<text text-anchor="middle" x="232.948" y="-63" font-family="Helvetica,sans-Serif" font-size="10.00">dev/usb.h</text>
</a>
</g>
</g>
<!-- Node9&#45;&gt;Node27 -->
<g id="edge56" class="edge"><title>Node9&#45;&gt;Node27</title>
<path fill="none" stroke="midnightblue" d="M586.347,-168.926C558.038,-160.837 514.391,-147.401 477.948,-132 460.368,-124.571 457.895,-118.494 439.948,-112 370.696,-86.942 347.751,-92.3337 272.724,-76.3155"/>
<polygon fill="midnightblue" stroke="midnightblue" points="273.322,-72.8634 262.804,-74.1386 271.822,-79.7007 273.322,-72.8634"/>
</g>
<!-- Node11&#45;&gt;Node8 -->
<g id="edge12" class="edge"><title>Node11&#45;&gt;Node8</title>
<path fill="none" stroke="midnightblue" d="M339.698,-57.825C342.813,-57.1665 345.94,-56.5438 348.948,-56 378.805,-50.6036 575.703,-25.552 656.471,-15.3452"/>
<polygon fill="midnightblue" stroke="midnightblue" points="657.14,-18.7887 666.622,-14.0633 656.263,-11.8438 657.14,-18.7887"/>
</g>
<!-- Node12 -->
<g id="node12" class="node"><title>Node12</title>
<polygon fill="none" stroke="#bfbfbf" points="543.217,-1 543.217,-19 608.68,-19 608.68,-1 543.217,-1"/>
<text text-anchor="middle" x="575.948" y="-7" font-family="Helvetica,sans-Serif" font-size="10.00">mcu/arch.h</text>
</g>
<!-- Node11&#45;&gt;Node12 -->
<g id="edge13" class="edge"><title>Node11&#45;&gt;Node12</title>
<path fill="none" stroke="midnightblue" d="M339.737,-58.0252C342.845,-57.3277 345.959,-56.6411 348.948,-56 413.043,-42.2549 487.646,-27.7512 533.327,-19.0392"/>
<polygon fill="midnightblue" stroke="midnightblue" points="534.009,-22.4724 543.178,-17.1647 532.7,-15.5957 534.009,-22.4724"/>
</g>
<!-- Node13&#45;&gt;Node8 -->
<g id="edge15" class="edge"><title>Node13&#45;&gt;Node8</title>
<path fill="none" stroke="midnightblue" d="M445.754,-56.974C503.192,-46.2042 604.066,-27.2905 656.739,-17.4143"/>
<polygon fill="midnightblue" stroke="midnightblue" points="657.42,-20.8477 666.603,-15.5646 656.13,-13.9676 657.42,-20.8477"/>
</g>
<!-- Node13&#45;&gt;Node12 -->
<g id="edge16" class="edge"><title>Node13&#45;&gt;Node12</title>
<path fill="none" stroke="midnightblue" d="M428.848,-56.9157C458.49,-47.6633 507.212,-32.4553 540.394,-22.098"/>
<polygon fill="midnightblue" stroke="midnightblue" points="541.651,-25.372 550.154,-19.0513 539.566,-18.69 541.651,-25.372"/>
</g>
<!-- Node14&#45;&gt;Node8 -->
<g id="edge18" class="edge"><title>Node14&#45;&gt;Node8</title>
<path fill="none" stroke="midnightblue" d="M360.469,-121.045C477.544,-120.888 882.63,-117.342 920.948,-76 977.792,-14.6716 802.617,-9.61904 725.486,-10.246"/>
<polygon fill="midnightblue" stroke="midnightblue" points="725.245,-6.74848 715.287,-10.3669 725.328,-13.748 725.245,-6.74848"/>
</g>
<!-- Node14&#45;&gt;Node12 -->
<g id="edge19" class="edge"><title>Node14&#45;&gt;Node12</title>
<path fill="none" stroke="midnightblue" d="M297.559,-113.659C294.655,-113.064 291.751,-112.5 288.948,-112 167.874,-90.3818 -65.4496,-146.394 17.9482,-56 52.6483,-18.3889 407.928,-12.2055 532.819,-11.1952"/>
<polygon fill="midnightblue" stroke="midnightblue" points="533.164,-14.6929 543.138,-11.1194 533.112,-7.69305 533.164,-14.6929"/>
</g>
<!-- Node14&#45;&gt;Node15 -->
<g id="edge20" class="edge"><title>Node14&#45;&gt;Node15</title>
<path fill="none" stroke="midnightblue" d="M297.519,-113.862C294.623,-113.224 291.733,-112.595 288.948,-112 230.136,-99.4244 162.364,-85.8143 117.327,-76.8937"/>
<polygon fill="midnightblue" stroke="midnightblue" points="118.001,-73.4594 107.512,-74.9527 116.643,-80.3264 118.001,-73.4594"/>
</g>
<!-- Node15&#45;&gt;Node8 -->
<g id="edge21" class="edge"><title>Node15&#45;&gt;Node8</title>
<path fill="none" stroke="midnightblue" d="M107.27,-57.2311C110.201,-56.7779 113.117,-56.3606 115.948,-56 337.4,-27.793 394.743,-41.4827 616.948,-20 629.931,-18.7449 644.16,-17.0831 656.642,-15.5295"/>
<polygon fill="midnightblue" stroke="midnightblue" points="657.17,-18.9906 666.651,-14.2611 656.29,-12.0462 657.17,-18.9906"/>
</g>
<!-- Node15&#45;&gt;Node12 -->
<g id="edge22" class="edge"><title>Node15&#45;&gt;Node12</title>
<path fill="none" stroke="midnightblue" d="M107.281,-57.3141C110.21,-56.8414 113.122,-56.3971 115.948,-56 268.614,-34.5511 451.217,-19.9511 532.838,-14.0006"/>
<polygon fill="midnightblue" stroke="midnightblue" points="533.487,-17.463 543.209,-13.2516 532.983,-10.4811 533.487,-17.463"/>
</g>
<!-- Node16&#45;&gt;Node8 -->
<g id="edge25" class="edge"><title>Node16&#45;&gt;Node8</title>
<path fill="none" stroke="midnightblue" d="M525.142,-56.9157C560.395,-47.1532 619.591,-30.7605 656.892,-20.4311"/>
<polygon fill="midnightblue" stroke="midnightblue" points="658.09,-23.7309 666.794,-17.689 656.222,-16.9848 658.09,-23.7309"/>
</g>
<!-- Node16&#45;&gt;Node12 -->
<g id="edge26" class="edge"><title>Node16&#45;&gt;Node12</title>
<path fill="none" stroke="midnightblue" d="M508.098,-56.7986C520.623,-48.3446 540.379,-35.0093 555.35,-24.9039"/>
<polygon fill="midnightblue" stroke="midnightblue" points="557.615,-27.5974 563.946,-19.1017 553.699,-21.7955 557.615,-27.5974"/>
</g>
<!-- Node17&#45;&gt;Node8 -->
<g id="edge28" class="edge"><title>Node17&#45;&gt;Node8</title>
<path fill="none" stroke="midnightblue" d="M1181.22,-57.7086C1178.1,-57.0729 1174.97,-56.4872 1171.95,-56 1005.88,-29.1929 804.784,-16.7689 725.481,-12.6453"/>
<polygon fill="midnightblue" stroke="midnightblue" points="725.281,-9.1307 715.116,-12.1179 724.925,-16.1217 725.281,-9.1307"/>
</g>
<!-- Node17&#45;&gt;Node12 -->
<g id="edge29" class="edge"><title>Node17&#45;&gt;Node12</title>
<path fill="none" stroke="midnightblue" d="M1181.23,-57.636C1178.11,-57.0144 1174.97,-56.4519 1171.95,-56 945.46,-22.1491 886.033,-40.4963 657.948,-20 645.356,-18.8684 631.697,-17.447 619.204,-16.0702"/>
<polygon fill="midnightblue" stroke="midnightblue" points="619.361,-12.566 609.034,-14.9315 618.583,-19.5225 619.361,-12.566"/>
</g>
<!-- Node18 -->
<g id="node18" class="node"><title>Node18</title>
<polygon fill="none" stroke="#bfbfbf" points="1181.27,-1 1181.27,-19 1240.63,-19 1240.63,-1 1181.27,-1"/>
<text text-anchor="middle" x="1210.95" y="-7" font-family="Helvetica,sans-Serif" font-size="10.00">mcu/pio.h</text>
</g>
<!-- Node17&#45;&gt;Node18 -->
<g id="edge30" class="edge"><title>Node17&#45;&gt;Node18</title>
<path fill="none" stroke="midnightblue" d="M1210.95,-56.5625C1210.95,-49.308 1210.95,-38.5884 1210.95,-29.3691"/>
<polygon fill="midnightblue" stroke="midnightblue" points="1214.45,-29.2014 1210.95,-19.2014 1207.45,-29.2015 1214.45,-29.2014"/>
</g>
<!-- Node19&#45;&gt;Node8 -->
<g id="edge32" class="edge"><title>Node19&#45;&gt;Node8</title>
<path fill="none" stroke="midnightblue" d="M593.414,-56.7986C612.352,-47.9059 642.792,-33.6123 664.63,-23.3581"/>
<polygon fill="midnightblue" stroke="midnightblue" points="666.131,-26.5202 673.695,-19.1017 663.155,-20.184 666.131,-26.5202"/>
</g>
<!-- Node19&#45;&gt;Node12 -->
<g id="edge33" class="edge"><title>Node19&#45;&gt;Node12</title>
<path fill="none" stroke="midnightblue" d="M575.948,-56.5625C575.948,-49.308 575.948,-38.5884 575.948,-29.3691"/>
<polygon fill="midnightblue" stroke="midnightblue" points="579.448,-29.2014 575.948,-19.2014 572.448,-29.2015 579.448,-29.2014"/>
</g>
<!-- Node20&#45;&gt;Node8 -->
<g id="edge35" class="edge"><title>Node20&#45;&gt;Node8</title>
<path fill="none" stroke="midnightblue" d="M659.729,-56.5625C665.028,-48.8297 673.024,-37.1597 679.597,-27.5665"/>
<polygon fill="midnightblue" stroke="midnightblue" points="682.564,-29.4291 685.329,-19.2014 676.789,-25.4725 682.564,-29.4291"/>
</g>
<!-- Node20&#45;&gt;Node12 -->
<g id="edge36" class="edge"><title>Node20&#45;&gt;Node12</title>
<path fill="none" stroke="midnightblue" d="M642.102,-56.7986C629.89,-48.3446 610.628,-35.0093 596.032,-24.9039"/>
<polygon fill="midnightblue" stroke="midnightblue" points="597.865,-21.9161 587.651,-19.1017 593.88,-27.6715 597.865,-21.9161"/>
</g>
<!-- Node21&#45;&gt;Node8 -->
<g id="edge38" class="edge"><title>Node21&#45;&gt;Node8</title>
<path fill="none" stroke="midnightblue" d="M788.482,-56.7986C769.544,-47.9059 739.104,-33.6123 717.266,-23.3581"/>
<polygon fill="midnightblue" stroke="midnightblue" points="718.741,-20.184 708.202,-19.1017 715.766,-26.5202 718.741,-20.184"/>
</g>
<!-- Node21&#45;&gt;Node12 -->
<g id="edge39" class="edge"><title>Node21&#45;&gt;Node12</title>
<path fill="none" stroke="midnightblue" d="M773.483,-57.3776C733.045,-47.8837 663.832,-31.6336 619.001,-21.108"/>
<polygon fill="midnightblue" stroke="midnightblue" points="619.529,-17.6368 608.993,-18.7584 617.929,-24.4515 619.529,-17.6368"/>
</g>
<!-- Node22&#45;&gt;Node8 -->
<g id="edge41" class="edge"><title>Node22&#45;&gt;Node8</title>
<path fill="none" stroke="midnightblue" d="M855.47,-57.0321C820.775,-47.3245 762.209,-30.9383 725.118,-20.5605"/>
<polygon fill="midnightblue" stroke="midnightblue" points="725.837,-17.1272 715.263,-17.8032 723.951,-23.8683 725.837,-17.1272"/>
</g>
<!-- Node22&#45;&gt;Node12 -->
<g id="edge42" class="edge"><title>Node22&#45;&gt;Node12</title>
<path fill="none" stroke="midnightblue" d="M855.312,-57.8127C852.492,-57.1717 849.669,-56.5559 846.948,-56 767.001,-39.6624 672.869,-25.0625 619.222,-17.1752"/>
<polygon fill="midnightblue" stroke="midnightblue" points="619.45,-13.6714 609.049,-15.6887 618.438,-20.5978 619.45,-13.6714"/>
</g>
<!-- Node23&#45;&gt;Node8 -->
<g id="edge45" class="edge"><title>Node23&#45;&gt;Node8</title>
<path fill="none" stroke="midnightblue" d="M1034.09,-112.811C1055.34,-100.304 1089.55,-75.807 1071.95,-56 1049.09,-30.287 814.979,-16.7678 725.48,-12.5078"/>
<polygon fill="midnightblue" stroke="midnightblue" points="725.458,-9.00307 715.306,-12.034 725.132,-15.9955 725.458,-9.00307"/>
</g>
<!-- Node23&#45;&gt;Node10 -->
<g id="edge44" class="edge"><title>Node23&#45;&gt;Node10</title>
<path fill="none" stroke="midnightblue" d="M1037.36,-112.916C1057.65,-104.008 1090.51,-89.5805 1113.99,-79.2755"/>
<polygon fill="midnightblue" stroke="midnightblue" points="1115.66,-82.3643 1123.41,-75.1396 1112.84,-75.9548 1115.66,-82.3643"/>
</g>
<!-- Node23&#45;&gt;Node12 -->
<g id="edge46" class="edge"><title>Node23&#45;&gt;Node12</title>
<path fill="none" stroke="midnightblue" d="M1010.01,-112.975C993.666,-98.8072 957.284,-69.5804 920.948,-56 906.951,-50.7684 708.395,-26.7301 619.011,-16.0909"/>
<polygon fill="midnightblue" stroke="midnightblue" points="619.269,-12.597 608.926,-14.8922 618.443,-19.548 619.269,-12.597"/>
</g>
<!-- Node24&#45;&gt;Node8 -->
<g id="edge48" class="edge"><title>Node24&#45;&gt;Node8</title>
<path fill="none" stroke="midnightblue" d="M722.167,-56.5625C716.869,-48.8297 708.872,-37.1597 702.299,-27.5665"/>
<polygon fill="midnightblue" stroke="midnightblue" points="705.107,-25.4725 696.568,-19.2014 699.333,-29.4291 705.107,-25.4725"/>
</g>
<!-- Node24&#45;&gt;Node12 -->
<g id="edge49" class="edge"><title>Node24&#45;&gt;Node12</title>
<path fill="none" stroke="midnightblue" d="M705.192,-56.9157C679.559,-47.8092 637.688,-32.9337 608.577,-22.5917"/>
<polygon fill="midnightblue" stroke="midnightblue" points="609.454,-19.1893 598.86,-19.1396 607.111,-25.7854 609.454,-19.1893"/>
</g>
<!-- Node25&#45;&gt;Node8 -->
<g id="edge51" class="edge"><title>Node25&#45;&gt;Node8</title>
<path fill="none" stroke="midnightblue" d="M1006.31,-58.7654C1001.52,-57.7924 996.603,-56.8343 991.948,-56 895.694,-38.7468 781.297,-22.9208 725.296,-15.4757"/>
<polygon fill="midnightblue" stroke="midnightblue" points="725.589,-11.984 715.216,-14.1425 724.671,-18.9236 725.589,-11.984"/>
</g>
<!-- Node25&#45;&gt;Node12 -->
<g id="edge52" class="edge"><title>Node25&#45;&gt;Node12</title>
<path fill="none" stroke="midnightblue" d="M1006.34,-58.6006C1001.55,-57.6474 996.619,-56.7387 991.948,-56 844.477,-32.678 806.377,-36.1446 657.948,-20 645.379,-18.6329 631.727,-17.1383 619.234,-15.7669"/>
<polygon fill="midnightblue" stroke="midnightblue" points="619.385,-12.2624 609.062,-14.6493 618.62,-19.2205 619.385,-12.2624"/>
</g>
<!-- Node26&#45;&gt;Node8 -->
<g id="edge54" class="edge"><title>Node26&#45;&gt;Node8</title>
<path fill="none" stroke="midnightblue" d="M185.525,-57.512C188.362,-56.9478 191.202,-56.4314 193.948,-56 380.341,-26.7131 429.268,-39.393 616.948,-20 629.922,-18.6594 644.15,-16.9795 656.633,-15.4352"/>
<polygon fill="midnightblue" stroke="midnightblue" points="657.156,-18.8971 666.643,-14.1803 656.285,-11.9515 657.156,-18.8971"/>
</g>
<!-- Node26&#45;&gt;Node12 -->
<g id="edge55" class="edge"><title>Node26&#45;&gt;Node12</title>
<path fill="none" stroke="midnightblue" d="M185.541,-57.6067C188.375,-57.0226 191.21,-56.4758 193.948,-56 315.979,-34.7975 461.707,-20.6963 532.735,-14.5363"/>
<polygon fill="midnightblue" stroke="midnightblue" points="533.405,-17.9918 543.07,-13.6505 532.808,-11.0173 533.405,-17.9918"/>
</g>
<!-- Node27&#45;&gt;Node8 -->
<g id="edge57" class="edge"><title>Node27&#45;&gt;Node8</title>
<path fill="none" stroke="midnightblue" d="M262.745,-57.5596C265.509,-56.9855 268.275,-56.4538 270.948,-56 423.376,-30.1303 463.315,-37.3337 616.948,-20 629.909,-18.5377 644.134,-16.8319 656.618,-15.301"/>
<polygon fill="midnightblue" stroke="midnightblue" points="657.135,-18.7639 666.63,-14.0653 656.277,-11.8166 657.135,-18.7639"/>
</g>
<!-- Node27&#45;&gt;Node12 -->
<g id="edge58" class="edge"><title>Node27&#45;&gt;Node12</title>
<path fill="none" stroke="midnightblue" d="M262.767,-57.6816C265.526,-57.0819 268.285,-56.5109 270.948,-56 363.679,-38.2121 473.439,-23.571 532.725,-16.1864"/>
<polygon fill="midnightblue" stroke="midnightblue" points="533.349,-19.6361 542.844,-14.9356 532.49,-12.6889 533.349,-19.6361"/>
</g>
</g>
</svg>
