<?xml version="1.0" encoding="UTF-8" standalone="no"?>
<!DOCTYPE svg PUBLIC "-//W3C//DTD SVG 1.1//EN"
 "http://www.w3.org/Graphics/SVG/1.1/DTD/svg11.dtd">
<!-- Generated by graphviz version 2.36.0 (20140111.2315)
 -->
<!-- Title: src/sys/time/_settimeofday.c Pages: 1 -->
<svg width="615pt" height="140pt"
 viewBox="0.00 0.00 615.00 140.00" xmlns="http://www.w3.org/2000/svg" xmlns:xlink="http://www.w3.org/1999/xlink">
<g id="graph0" class="graph" transform="scale(1 1) rotate(0) translate(4 136)">
<title>src/sys/time/_settimeofday.c</title>
<!-- Node1 -->
<g id="node1" class="node"><title>Node1</title>
<polygon fill="#bfbfbf" stroke="black" points="169.573,-113 169.573,-131 310.427,-131 310.427,-113 169.573,-113"/>
<text text-anchor="middle" x="240" y="-119" font-family="Helvetica,sans-Serif" font-size="10.00">src/sys/time/_settimeofday.c</text>
</g>
<!-- Node2 -->
<g id="node2" class="node"><title>Node2</title>
<polygon fill="none" stroke="#bfbfbf" points="-0.842285,-57 -0.842285,-75 46.8423,-75 46.8423,-57 -0.842285,-57"/>
<text text-anchor="middle" x="23" y="-63" font-family="Helvetica,sans-Serif" font-size="10.00">errno.h</text>
</g>
<!-- Node1&#45;&gt;Node2 -->
<g id="edge1" class="edge"><title>Node1&#45;&gt;Node2</title>
<path fill="none" stroke="midnightblue" d="M205.471,-112.988C170.277,-104.737 113.874,-91.2795 56.9656,-76.4588"/>
<polygon fill="midnightblue" stroke="midnightblue" points="57.6481,-73.0196 47.0877,-73.8736 55.8757,-79.7915 57.6481,-73.0196"/>
</g>
<!-- Node3 -->
<g id="node3" class="node"><title>Node3</title>
<polygon fill="none" stroke="#bfbfbf" points="64.4951,-57 64.4951,-75 125.505,-75 125.505,-57 64.4951,-57"/>
<text text-anchor="middle" x="95" y="-63" font-family="Helvetica,sans-Serif" font-size="10.00">sys/time.h</text>
</g>
<!-- Node1&#45;&gt;Node3 -->
<g id="edge2" class="edge"><title>Node1&#45;&gt;Node3</title>
<path fill="none" stroke="midnightblue" d="M218.292,-112.916C193.946,-103.849 154.245,-89.0635 126.49,-78.7275"/>
<polygon fill="midnightblue" stroke="midnightblue" points="127.449,-75.3497 116.856,-75.1396 125.006,-81.9096 127.449,-75.3497"/>
</g>
<!-- Node4 -->
<g id="node4" class="node"><title>Node4</title>
<polygon fill="none" stroke="#bfbfbf" points="221.384,-1 221.384,-19 264.616,-19 264.616,-1 221.384,-1"/>
<text text-anchor="middle" x="243" y="-7" font-family="Helvetica,sans-Serif" font-size="10.00">time.h</text>
</g>
<!-- Node1&#45;&gt;Node4 -->
<g id="edge3" class="edge"><title>Node1&#45;&gt;Node4</title>
<path fill="none" stroke="midnightblue" d="M219.622,-112.884C195.296,-101.884 159.487,-80.7507 173,-56 181.348,-40.709 197.363,-29.8388 211.97,-22.6174"/>
<polygon fill="midnightblue" stroke="midnightblue" points="213.616,-25.714 221.271,-18.3891 210.719,-19.3416 213.616,-25.714"/>
</g>
<!-- Node5 -->
<g id="node5" class="node"><title>Node5</title>
<polygon fill="none" stroke="#bfbfbf" points="182.488,-57 182.488,-75 233.512,-75 233.512,-57 182.488,-57"/>
<text text-anchor="middle" x="208" y="-63" font-family="Helvetica,sans-Serif" font-size="10.00">unistd.h</text>
</g>
<!-- Node1&#45;&gt;Node5 -->
<g id="edge4" class="edge"><title>Node1&#45;&gt;Node5</title>
<path fill="none" stroke="midnightblue" d="M235,-112.562C230.465,-104.909 223.644,-93.3999 217.993,-83.8638"/>
<polygon fill="midnightblue" stroke="midnightblue" points="220.969,-82.02 212.86,-75.2014 214.947,-85.5887 220.969,-82.02"/>
</g>
<!-- Node6 -->
<g id="node6" class="node"><title>Node6</title>
<polygon fill="none" stroke="#bfbfbf" points="251.66,-57 251.66,-75 294.34,-75 294.34,-57 251.66,-57"/>
<text text-anchor="middle" x="273" y="-63" font-family="Helvetica,sans-Serif" font-size="10.00">fcntl.h</text>
</g>
<!-- Node1&#45;&gt;Node6 -->
<g id="edge5" class="edge"><title>Node1&#45;&gt;Node6</title>
<path fill="none" stroke="midnightblue" d="M245.156,-112.562C249.833,-104.909 256.867,-93.3999 262.694,-83.8638"/>
<polygon fill="midnightblue" stroke="midnightblue" points="265.76,-85.5594 267.988,-75.2014 259.787,-81.9092 265.76,-85.5594"/>
</g>
<!-- Node7 -->
<g id="node7" class="node"><title>Node7</title>
<polygon fill="none" stroke="#bfbfbf" points="312.549,-57 312.549,-75 377.451,-75 377.451,-57 312.549,-57"/>
<text text-anchor="middle" x="345" y="-63" font-family="Helvetica,sans-Serif" font-size="10.00">mcu/mcu.h</text>
</g>
<!-- Node1&#45;&gt;Node7 -->
<g id="edge6" class="edge"><title>Node1&#45;&gt;Node7</title>
<path fill="none" stroke="midnightblue" d="M255.947,-112.799C273.006,-104.026 300.286,-89.9959 320.162,-79.7741"/>
<polygon fill="midnightblue" stroke="midnightblue" points="321.955,-82.7877 329.247,-75.1017 318.753,-76.5627 321.955,-82.7877"/>
</g>
<!-- Node8 -->
<g id="node8" class="node"><title>Node8</title>
<g id="a_node8"><a xlink:href="rtc_8h.html" target="_top" xlink:title="Real Time Clock Header File. ">
<polygon fill="none" stroke="black" points="395.875,-57 395.875,-75 474.125,-75 474.125,-57 395.875,-57"/>
<text text-anchor="middle" x="435" y="-63" font-family="Helvetica,sans-Serif" font-size="10.00">iface/dev/rtc.h</text>
</a>
</g>
</g>
<!-- Node1&#45;&gt;Node8 -->
<g id="edge7" class="edge"><title>Node1&#45;&gt;Node8</title>
<path fill="none" stroke="midnightblue" d="M269.193,-112.916C302.893,-103.584 358.471,-88.1927 395.887,-77.8312"/>
<polygon fill="midnightblue" stroke="midnightblue" points="397.223,-81.0932 405.926,-75.0513 395.354,-74.3471 397.223,-81.0932"/>
</g>
<!-- Node11 -->
<g id="node11" class="node"><title>Node11</title>
<polygon fill="none" stroke="#bfbfbf" points="492.247,-57 492.247,-75 607.753,-75 607.753,-57 492.247,-57"/>
<text text-anchor="middle" x="550" y="-63" font-family="Helvetica,sans-Serif" font-size="10.00">../sched/sched_flags.h</text>
</g>
<!-- Node1&#45;&gt;Node11 -->
<g id="edge11" class="edge"><title>Node1&#45;&gt;Node11</title>
<path fill="none" stroke="midnightblue" d="M286.075,-112.974C341.481,-103.323 434.434,-87.1309 493.946,-76.7643"/>
<polygon fill="midnightblue" stroke="midnightblue" points="494.674,-80.1902 503.925,-75.026 493.473,-73.2941 494.674,-80.1902"/>
</g>
<!-- Node8&#45;&gt;Node4 -->
<g id="edge8" class="edge"><title>Node8&#45;&gt;Node4</title>
<path fill="none" stroke="midnightblue" d="M406.256,-56.9157C370.875,-46.965 311.003,-30.1258 274.432,-19.8404"/>
<polygon fill="midnightblue" stroke="midnightblue" points="275.349,-16.4625 264.775,-17.1243 273.454,-23.2011 275.349,-16.4625"/>
</g>
<!-- Node9 -->
<g id="node9" class="node"><title>Node9</title>
<polygon fill="none" stroke="#bfbfbf" points="372.879,-1 372.879,-19 421.121,-19 421.121,-1 372.879,-1"/>
<text text-anchor="middle" x="397" y="-7" font-family="Helvetica,sans-Serif" font-size="10.00">stdint.h</text>
</g>
<!-- Node8&#45;&gt;Node9 -->
<g id="edge9" class="edge"><title>Node8&#45;&gt;Node9</title>
<path fill="none" stroke="midnightblue" d="M429.062,-56.5625C423.621,-48.8297 415.409,-37.1597 408.658,-27.5665"/>
<polygon fill="midnightblue" stroke="midnightblue" points="411.389,-25.3653 402.771,-19.2014 405.664,-29.3938 411.389,-25.3653"/>
</g>
<!-- Node10 -->
<g id="node10" class="node"><title>Node10</title>
<polygon fill="none" stroke="#bfbfbf" points="439.269,-1 439.269,-19 504.731,-19 504.731,-1 439.269,-1"/>
<text text-anchor="middle" x="472" y="-7" font-family="Helvetica,sans-Serif" font-size="10.00">mcu/arch.h</text>
</g>
<!-- Node8&#45;&gt;Node10 -->
<g id="edge10" class="edge"><title>Node8&#45;&gt;Node10</title>
<path fill="none" stroke="midnightblue" d="M440.781,-56.5625C446.08,-48.8297 454.076,-37.1597 460.649,-27.5665"/>
<polygon fill="midnightblue" stroke="midnightblue" points="463.615,-29.4291 466.38,-19.2014 457.841,-25.4725 463.615,-29.4291"/>
</g>
</g>
</svg>
