<?xml version="1.0" encoding="UTF-8" standalone="no"?>
<!DOCTYPE svg PUBLIC "-//W3C//DTD SVG 1.1//EN"
 "http://www.w3.org/Graphics/SVG/1.1/DTD/svg11.dtd">
<!-- Generated by graphviz version 2.36.0 (20140111.2315)
 -->
<!-- Title: src/sys/time/_times.c Pages: 1 -->
<svg width="371pt" height="84pt"
 viewBox="0.00 0.00 371.00 84.00" xmlns="http://www.w3.org/2000/svg" xmlns:xlink="http://www.w3.org/1999/xlink">
<g id="graph0" class="graph" transform="scale(1 1) rotate(0) translate(4 80)">
<title>src/sys/time/_times.c</title>
<!-- Node1 -->
<g id="node1" class="node"><title>Node1</title>
<polygon fill="#bfbfbf" stroke="black" points="118.606,-57 118.606,-75 227.394,-75 227.394,-57 118.606,-57"/>
<text text-anchor="middle" x="173" y="-63" font-family="Helvetica,sans-Serif" font-size="10.00">src/sys/time/_times.c</text>
</g>
<!-- Node2 -->
<g id="node2" class="node"><title>Node2</title>
<polygon fill="none" stroke="#bfbfbf" points="-0.842285,-1 -0.842285,-19 46.8423,-19 46.8423,-1 -0.842285,-1"/>
<text text-anchor="middle" x="23" y="-7" font-family="Helvetica,sans-Serif" font-size="10.00">stdlib.h</text>
</g>
<!-- Node1&#45;&gt;Node2 -->
<g id="edge1" class="edge"><title>Node1&#45;&gt;Node2</title>
<path fill="none" stroke="midnightblue" d="M150.543,-56.9157C125.248,-47.8092 83.9269,-32.9337 55.1993,-22.5917"/>
<polygon fill="midnightblue" stroke="midnightblue" points="56.2045,-19.2338 45.61,-19.1396 53.8334,-25.82 56.2045,-19.2338"/>
</g>
<!-- Node3 -->
<g id="node3" class="node"><title>Node3</title>
<polygon fill="none" stroke="#bfbfbf" points="64.9951,-1 64.9951,-19 131.005,-19 131.005,-1 64.9951,-1"/>
<text text-anchor="middle" x="98" y="-7" font-family="Helvetica,sans-Serif" font-size="10.00">sys/times.h</text>
</g>
<!-- Node1&#45;&gt;Node3 -->
<g id="edge2" class="edge"><title>Node1&#45;&gt;Node3</title>
<path fill="none" stroke="midnightblue" d="M161.609,-56.7986C150.045,-48.4727 131.906,-35.4125 117.952,-25.3656"/>
<polygon fill="midnightblue" stroke="midnightblue" points="119.659,-22.2813 109.498,-19.2786 115.568,-27.9621 119.659,-22.2813"/>
</g>
<!-- Node4 -->
<g id="node4" class="node"><title>Node4</title>
<polygon fill="none" stroke="#bfbfbf" points="149.158,-1 149.158,-19 196.842,-19 196.842,-1 149.158,-1"/>
<text text-anchor="middle" x="173" y="-7" font-family="Helvetica,sans-Serif" font-size="10.00">errno.h</text>
</g>
<!-- Node1&#45;&gt;Node4 -->
<g id="edge3" class="edge"><title>Node1&#45;&gt;Node4</title>
<path fill="none" stroke="midnightblue" d="M173,-56.5625C173,-49.308 173,-38.5884 173,-29.3691"/>
<polygon fill="midnightblue" stroke="midnightblue" points="176.5,-29.2014 173,-19.2014 169.5,-29.2015 176.5,-29.2014"/>
</g>
<!-- Node5 -->
<g id="node5" class="node"><title>Node5</title>
<polygon fill="none" stroke="#bfbfbf" points="215.269,-1 215.269,-19 280.731,-19 280.731,-1 215.269,-1"/>
<text text-anchor="middle" x="248" y="-7" font-family="Helvetica,sans-Serif" font-size="10.00">mcu/arch.h</text>
</g>
<!-- Node1&#45;&gt;Node5 -->
<g id="edge4" class="edge"><title>Node1&#45;&gt;Node5</title>
<path fill="none" stroke="midnightblue" d="M184.391,-56.7986C195.955,-48.4727 214.094,-35.4125 228.048,-25.3656"/>
<polygon fill="midnightblue" stroke="midnightblue" points="230.432,-27.9621 236.502,-19.2786 226.341,-22.2813 230.432,-27.9621"/>
</g>
<!-- Node6 -->
<g id="node6" class="node"><title>Node6</title>
<polygon fill="none" stroke="#bfbfbf" points="298.825,-1 298.825,-19 363.175,-19 363.175,-1 298.825,-1"/>
<text text-anchor="middle" x="331" y="-7" font-family="Helvetica,sans-Serif" font-size="10.00">mcu/task.h</text>
</g>
<!-- Node1&#45;&gt;Node6 -->
<g id="edge5" class="edge"><title>Node1&#45;&gt;Node6</title>
<path fill="none" stroke="midnightblue" d="M196.654,-56.9157C223.493,-47.743 267.457,-32.7171 297.741,-22.3669"/>
<polygon fill="midnightblue" stroke="midnightblue" points="299.112,-25.5973 307.442,-19.0513 296.848,-18.9735 299.112,-25.5973"/>
</g>
</g>
</svg>
