<?xml version="1.0" encoding="UTF-8" standalone="no"?>
<!DOCTYPE svg PUBLIC "-//W3C//DTD SVG 1.1//EN"
 "http://www.w3.org/Graphics/SVG/1.1/DTD/svg11.dtd">
<!-- Generated by graphviz version 2.36.0 (20140111.2315)
 -->
<!-- Title: src/sys/unistd/access.c Pages: 1 -->
<svg width="428pt" height="84pt"
 viewBox="0.00 0.00 428.00 84.00" xmlns="http://www.w3.org/2000/svg" xmlns:xlink="http://www.w3.org/1999/xlink">
<g id="graph0" class="graph" transform="scale(1 1) rotate(0) translate(4 80)">
<title>src/sys/unistd/access.c</title>
<!-- Node1 -->
<g id="node1" class="node"><title>Node1</title>
<polygon fill="#bfbfbf" stroke="black" points="150.875,-57 150.875,-75 269.125,-75 269.125,-57 150.875,-57"/>
<text text-anchor="middle" x="210" y="-63" font-family="Helvetica,sans-Serif" font-size="10.00">src/sys/unistd/access.c</text>
</g>
<!-- Node2 -->
<g id="node2" class="node"><title>Node2</title>
<polygon fill="none" stroke="#bfbfbf" points="-0.512207,-1 -0.512207,-19 50.5122,-19 50.5122,-1 -0.512207,-1"/>
<text text-anchor="middle" x="25" y="-7" font-family="Helvetica,sans-Serif" font-size="10.00">unistd.h</text>
</g>
<!-- Node1&#45;&gt;Node2 -->
<g id="edge1" class="edge"><title>Node1&#45;&gt;Node2</title>
<path fill="none" stroke="midnightblue" d="M182.304,-56.9157C149.919,-47.4627 96.2361,-31.7933 60.7372,-21.4314"/>
<polygon fill="midnightblue" stroke="midnightblue" points="61.3743,-17.9714 50.7942,-18.5291 59.4129,-24.691 61.3743,-17.9714"/>
</g>
<!-- Node3 -->
<g id="node3" class="node"><title>Node3</title>
<polygon fill="none" stroke="#bfbfbf" points="68.8818,-1 68.8818,-19 127.118,-19 127.118,-1 68.8818,-1"/>
<text text-anchor="middle" x="98" y="-7" font-family="Helvetica,sans-Serif" font-size="10.00">sys/stat.h</text>
</g>
<!-- Node1&#45;&gt;Node3 -->
<g id="edge2" class="edge"><title>Node1&#45;&gt;Node3</title>
<path fill="none" stroke="midnightblue" d="M192.99,-56.7986C174.628,-47.9458 145.165,-33.7404 123.918,-23.4963"/>
<polygon fill="midnightblue" stroke="midnightblue" points="125.331,-20.292 114.803,-19.1017 122.291,-26.5974 125.331,-20.292"/>
</g>
<!-- Node4 -->
<g id="node4" class="node"><title>Node4</title>
<polygon fill="none" stroke="#bfbfbf" points="145.158,-1 145.158,-19 192.842,-19 192.842,-1 145.158,-1"/>
<text text-anchor="middle" x="169" y="-7" font-family="Helvetica,sans-Serif" font-size="10.00">errno.h</text>
</g>
<!-- Node1&#45;&gt;Node4 -->
<g id="edge3" class="edge"><title>Node1&#45;&gt;Node4</title>
<path fill="none" stroke="midnightblue" d="M203.594,-56.5625C197.662,-48.75 188.679,-36.9187 181.353,-27.2704"/>
<polygon fill="midnightblue" stroke="midnightblue" points="184.062,-25.0494 175.227,-19.2014 178.487,-29.2824 184.062,-25.0494"/>
</g>
<!-- Node5 -->
<g id="node5" class="node"><title>Node5</title>
<polygon fill="none" stroke="#bfbfbf" points="211.054,-1 211.054,-19 290.946,-19 290.946,-1 211.054,-1"/>
<text text-anchor="middle" x="251" y="-7" font-family="Helvetica,sans-Serif" font-size="10.00">sys/syslimits.h</text>
</g>
<!-- Node1&#45;&gt;Node5 -->
<g id="edge4" class="edge"><title>Node1&#45;&gt;Node5</title>
<path fill="none" stroke="midnightblue" d="M216.406,-56.5625C222.338,-48.75 231.321,-36.9187 238.647,-27.2704"/>
<polygon fill="midnightblue" stroke="midnightblue" points="241.513,-29.2824 244.773,-19.2014 235.938,-25.0494 241.513,-29.2824"/>
</g>
<!-- Node6 -->
<g id="node6" class="node"><title>Node6</title>
<polygon fill="none" stroke="#bfbfbf" points="308.604,-1 308.604,-19 357.396,-19 357.396,-1 308.604,-1"/>
<text text-anchor="middle" x="333" y="-7" font-family="Helvetica,sans-Serif" font-size="10.00">string.h</text>
</g>
<!-- Node1&#45;&gt;Node6 -->
<g id="edge5" class="edge"><title>Node1&#45;&gt;Node6</title>
<path fill="none" stroke="midnightblue" d="M228.414,-56.9157C248.704,-48.0081 281.567,-33.5805 305.039,-23.2755"/>
<polygon fill="midnightblue" stroke="midnightblue" points="306.71,-26.3643 314.46,-19.1396 303.896,-19.9548 306.71,-26.3643"/>
</g>
<!-- Node7 -->
<g id="node7" class="node"><title>Node7</title>
<polygon fill="none" stroke="#bfbfbf" points="375.269,-1 375.269,-19 420.731,-19 420.731,-1 375.269,-1"/>
<text text-anchor="middle" x="398" y="-7" font-family="Helvetica,sans-Serif" font-size="10.00">stdio.h</text>
</g>
<!-- Node1&#45;&gt;Node7 -->
<g id="edge6" class="edge"><title>Node1&#45;&gt;Node7</title>
<path fill="none" stroke="midnightblue" d="M238.145,-56.9157C272.081,-47.1682 329.03,-30.8107 365.001,-20.4785"/>
<polygon fill="midnightblue" stroke="midnightblue" points="366.352,-23.7319 374.997,-17.6071 364.42,-17.0039 366.352,-23.7319"/>
</g>
</g>
</svg>
