<?xml version="1.0" encoding="UTF-8" standalone="no"?>
<!DOCTYPE svg PUBLIC "-//W3C//DTD SVG 1.1//EN"
 "http://www.w3.org/Graphics/SVG/1.1/DTD/svg11.dtd">
<!-- Generated by graphviz version 2.36.0 (20140111.2315)
 -->
<!-- Title: include/iface/dev/core.h Pages: 1 -->
<svg width="213pt" height="140pt"
 viewBox="0.00 0.00 213.00 140.00" xmlns="http://www.w3.org/2000/svg" xmlns:xlink="http://www.w3.org/1999/xlink">
<g id="graph0" class="graph" transform="scale(1 1) rotate(0) translate(4 136)">
<title>include/iface/dev/core.h</title>
<!-- Node1 -->
<g id="node1" class="node"><title>Node1</title>
<polygon fill="#bfbfbf" stroke="black" points="33.4683,-113 33.4683,-131 154.532,-131 154.532,-113 33.4683,-113"/>
<text text-anchor="middle" x="94" y="-119" font-family="Helvetica,sans-Serif" font-size="10.00">include/iface/dev/core.h</text>
</g>
<!-- Node2 -->
<g id="node2" class="node"><title>Node2</title>
<polygon fill="none" stroke="#bfbfbf" points="-0.120605,-1 -0.120605,-19 48.1206,-19 48.1206,-1 -0.120605,-1"/>
<text text-anchor="middle" x="24" y="-7" font-family="Helvetica,sans-Serif" font-size="10.00">stdint.h</text>
</g>
<!-- Node1&#45;&gt;Node2 -->
<g id="edge1" class="edge"><title>Node1&#45;&gt;Node2</title>
<path fill="none" stroke="midnightblue" d="M81.8632,-112.708C70.7942,-104.56 54.7263,-91.1674 45,-76 35.7977,-61.6497 30.3085,-42.9204 27.264,-29.2547"/>
<polygon fill="midnightblue" stroke="midnightblue" points="30.6419,-28.2962 25.2538,-19.1738 23.777,-29.6652 30.6419,-28.2962"/>
</g>
<!-- Node3 -->
<g id="node3" class="node"><title>Node3</title>
<polygon fill="none" stroke="#bfbfbf" points="140.269,-1 140.269,-19 205.731,-19 205.731,-1 140.269,-1"/>
<text text-anchor="middle" x="173" y="-7" font-family="Helvetica,sans-Serif" font-size="10.00">mcu/arch.h</text>
</g>
<!-- Node1&#45;&gt;Node3 -->
<g id="edge2" class="edge"><title>Node1&#45;&gt;Node3</title>
<path fill="none" stroke="midnightblue" d="M105.317,-112.747C116.102,-104.43 132.246,-90.7439 143,-76 153.633,-61.421 161.855,-42.4716 166.98,-28.7984"/>
<polygon fill="midnightblue" stroke="midnightblue" points="170.359,-29.7428 170.414,-19.1481 163.764,-27.3964 170.359,-29.7428"/>
</g>
<!-- Node4 -->
<g id="node4" class="node"><title>Node4</title>
<g id="a_node4"><a xlink:href="pio_8h.html" target="_top" xlink:title="General Purpose Input/Output Header File. ">
<polygon fill="none" stroke="black" points="53.7563,-57 53.7563,-75 134.244,-75 134.244,-57 53.7563,-57"/>
<text text-anchor="middle" x="94" y="-63" font-family="Helvetica,sans-Serif" font-size="10.00">iface/dev/pio.h</text>
</a>
</g>
</g>
<!-- Node1&#45;&gt;Node4 -->
<g id="edge3" class="edge"><title>Node1&#45;&gt;Node4</title>
<path fill="none" stroke="midnightblue" d="M94,-112.562C94,-105.308 94,-94.5884 94,-85.3691"/>
<polygon fill="midnightblue" stroke="midnightblue" points="97.5001,-85.2014 94,-75.2014 90.5001,-85.2015 97.5001,-85.2014"/>
</g>
<!-- Node4&#45;&gt;Node2 -->
<g id="edge5" class="edge"><title>Node4&#45;&gt;Node2</title>
<path fill="none" stroke="midnightblue" d="M83.3685,-56.7986C72.6786,-48.552 55.9678,-35.6608 42.9953,-25.6535"/>
<polygon fill="midnightblue" stroke="midnightblue" points="44.7872,-22.6154 34.7315,-19.2786 40.5116,-28.1579 44.7872,-22.6154"/>
</g>
<!-- Node4&#45;&gt;Node3 -->
<g id="edge6" class="edge"><title>Node4&#45;&gt;Node3</title>
<path fill="none" stroke="midnightblue" d="M105.998,-56.7986C118.366,-48.3446 137.875,-35.0093 152.659,-24.9039"/>
<polygon fill="midnightblue" stroke="midnightblue" points="154.867,-27.6343 161.148,-19.1017 150.917,-21.8553 154.867,-27.6343"/>
</g>
<!-- Node5 -->
<g id="node5" class="node"><title>Node5</title>
<polygon fill="none" stroke="#bfbfbf" points="65.707,-1 65.707,-19 122.293,-19 122.293,-1 65.707,-1"/>
<text text-anchor="middle" x="94" y="-7" font-family="Helvetica,sans-Serif" font-size="10.00">stdbool.h</text>
</g>
<!-- Node4&#45;&gt;Node5 -->
<g id="edge4" class="edge"><title>Node4&#45;&gt;Node5</title>
<path fill="none" stroke="midnightblue" d="M94,-56.5625C94,-49.308 94,-38.5884 94,-29.3691"/>
<polygon fill="midnightblue" stroke="midnightblue" points="97.5001,-29.2014 94,-19.2014 90.5001,-29.2015 97.5001,-29.2014"/>
</g>
</g>
</svg>
