<?xml version="1.0" encoding="UTF-8" standalone="no"?>
<!DOCTYPE svg PUBLIC "-//W3C//DTD SVG 1.1//EN"
 "http://www.w3.org/Graphics/SVG/1.1/DTD/svg11.dtd">
<!-- Generated by graphviz version 2.36.0 (20140111.2315)
 -->
<!-- Title: include/posix/sys/dirent.h Pages: 1 -->
<svg width="171pt" height="84pt"
 viewBox="0.00 0.00 171.00 84.00" xmlns="http://www.w3.org/2000/svg" xmlns:xlink="http://www.w3.org/1999/xlink">
<g id="graph0" class="graph" transform="scale(1 1) rotate(0) translate(4 80)">
<title>include/posix/sys/dirent.h</title>
<!-- Node1 -->
<g id="node1" class="node"><title>Node1</title>
<polygon fill="#bfbfbf" stroke="black" points="20.1382,-57 20.1382,-75 147.862,-75 147.862,-57 20.1382,-57"/>
<text text-anchor="middle" x="84" y="-63" font-family="Helvetica,sans-Serif" font-size="10.00">include/posix/sys/dirent.h</text>
</g>
<!-- Node2 -->
<g id="node2" class="node"><title>Node2</title>
<polygon fill="none" stroke="#bfbfbf" points="-0.945801,-1 -0.945801,-19 78.9458,-19 78.9458,-1 -0.945801,-1"/>
<text text-anchor="middle" x="39" y="-7" font-family="Helvetica,sans-Serif" font-size="10.00">sys/syslimits.h</text>
</g>
<!-- Node1&#45;&gt;Node2 -->
<g id="edge1" class="edge"><title>Node1&#45;&gt;Node2</title>
<path fill="none" stroke="midnightblue" d="M76.9688,-56.5625C70.3919,-48.6703 60.3973,-36.6768 52.3131,-26.9758"/>
<polygon fill="midnightblue" stroke="midnightblue" points="54.9252,-24.643 45.8345,-19.2014 49.5476,-29.1243 54.9252,-24.643"/>
</g>
<!-- Node3 -->
<g id="node3" class="node"><title>Node3</title>
<polygon fill="none" stroke="#bfbfbf" points="96.9902,-1 96.9902,-19 163.01,-19 163.01,-1 96.9902,-1"/>
<text text-anchor="middle" x="130" y="-7" font-family="Helvetica,sans-Serif" font-size="10.00">sys/types.h</text>
</g>
<!-- Node1&#45;&gt;Node3 -->
<g id="edge2" class="edge"><title>Node1&#45;&gt;Node3</title>
<path fill="none" stroke="midnightblue" d="M91.1875,-56.5625C97.9105,-48.6703 108.127,-36.6768 116.391,-26.9758"/>
<polygon fill="midnightblue" stroke="midnightblue" points="119.193,-29.0835 123.014,-19.2014 113.865,-24.5442 119.193,-29.0835"/>
</g>
</g>
</svg>
