<?xml version="1.0" encoding="UTF-8" standalone="no"?>
<!DOCTYPE svg PUBLIC "-//W3C//DTD SVG 1.1//EN"
 "http://www.w3.org/Graphics/SVG/1.1/DTD/svg11.dtd">
<!-- Generated by graphviz version 2.36.0 (20140111.2315)
 -->
<!-- Title: include/iface/dev/fifo.h Pages: 1 -->
<svg width="289pt" height="84pt"
 viewBox="0.00 0.00 289.00 84.00" xmlns="http://www.w3.org/2000/svg" xmlns:xlink="http://www.w3.org/1999/xlink">
<g id="graph0" class="graph" transform="scale(1 1) rotate(0) translate(4 80)">
<title>include/iface/dev/fifo.h</title>
<!-- Node1 -->
<g id="node1" class="node"><title>Node1</title>
<polygon fill="#bfbfbf" stroke="black" points="83.5249,-57 83.5249,-75 198.475,-75 198.475,-57 83.5249,-57"/>
<text text-anchor="middle" x="141" y="-63" font-family="Helvetica,sans-Serif" font-size="10.00">include/iface/dev/fifo.h</text>
</g>
<!-- Node2 -->
<g id="node2" class="node"><title>Node2</title>
<g id="a_node2"><a xlink:href="uartfifo_8h.html" target="_top" xlink:title="include/iface/dev/uartfifo.h">
<polygon fill="none" stroke="black" points="-0.0908203,-1 -0.0908203,-19 132.091,-19 132.091,-1 -0.0908203,-1"/>
<text text-anchor="middle" x="66" y="-7" font-family="Helvetica,sans-Serif" font-size="10.00">include/iface/dev/uartfifo.h</text>
</a>
</g>
</g>
<!-- Node1&#45;&gt;Node2 -->
<g id="edge1" class="edge"><title>Node1&#45;&gt;Node2</title>
<path fill="none" stroke="midnightblue" d="M121.177,-50.7272C107.249,-40.6991 89.1022,-27.6336 77.4981,-19.2786"/>
<polygon fill="midnightblue" stroke="midnightblue" points="119.449,-53.7959 129.609,-56.7986 123.539,-48.1151 119.449,-53.7959"/>
</g>
<!-- Node3 -->
<g id="node3" class="node"><title>Node3</title>
<g id="a_node3"><a xlink:href="usbfifo_8h.html" target="_top" xlink:title="include/iface/dev/usbfifo.h">
<polygon fill="none" stroke="black" points="150.463,-1 150.463,-19 281.537,-19 281.537,-1 150.463,-1"/>
<text text-anchor="middle" x="216" y="-7" font-family="Helvetica,sans-Serif" font-size="10.00">include/iface/dev/usbfifo.h</text>
</a>
</g>
</g>
<!-- Node1&#45;&gt;Node3 -->
<g id="edge2" class="edge"><title>Node1&#45;&gt;Node3</title>
<path fill="none" stroke="midnightblue" d="M160.823,-50.7272C174.751,-40.6991 192.898,-27.6336 204.502,-19.2786"/>
<polygon fill="midnightblue" stroke="midnightblue" points="158.461,-48.1151 152.391,-56.7986 162.551,-53.7959 158.461,-48.1151"/>
</g>
</g>
</svg>
