<?xml version="1.0" encoding="UTF-8" standalone="no"?>
<!DOCTYPE svg PUBLIC "-//W3C//DTD SVG 1.1//EN"
 "http://www.w3.org/Graphics/SVG/1.1/DTD/svg11.dtd">
<!-- Generated by graphviz version 2.36.0 (20140111.2315)
 -->
<!-- Title: Device Interface Pages: 1 -->
<svg width="370pt" height="1239pt"
 viewBox="0.00 0.00 370.00 1239.00" xmlns="http://www.w3.org/2000/svg" xmlns:xlink="http://www.w3.org/1999/xlink">
<g id="graph0" class="graph" transform="scale(1 1) rotate(0) translate(4 1235)">
<title>Device Interface</title>
<!-- Node7 -->
<g id="node1" class="node"><title>Node7</title>
<g id="a_node1"><a xlink:href="group___s_y_s___d_e_v_f_i_f_o.html" target="_top" xlink:title="Device FIFO">
<polygon fill="none" stroke="black" points="256.941,-1213 256.941,-1231 329.059,-1231 329.059,-1213 256.941,-1213"/>
<text text-anchor="middle" x="293" y="-1219" font-family="Helvetica,sans-Serif" font-size="10.00">Device FIFO</text>
</a>
</g>
</g>
<!-- Node23 -->
<g id="node2" class="node"><title>Node23</title>
<g id="a_node2"><a xlink:href="group___r_t_c.html" target="_top" xlink:title="Real Time Clock (RTC)">
<polygon fill="none" stroke="black" points="233.689,-1176 233.689,-1194 352.311,-1194 352.311,-1176 233.689,-1176"/>
<text text-anchor="middle" x="293" y="-1182" font-family="Helvetica,sans-Serif" font-size="10.00">Real Time Clock (RTC)</text>
</a>
</g>
</g>
<!-- Node11 -->
<g id="node3" class="node"><title>Node11</title>
<g id="a_node3"><a xlink:href="group___e_t_h___d_e_v.html" target="_top" xlink:title="Ethernet Device Access">
<polygon fill="none" stroke="black" points="232.195,-1139 232.195,-1157 353.805,-1157 353.805,-1139 232.195,-1139"/>
<text text-anchor="middle" x="293" y="-1145" font-family="Helvetica,sans-Serif" font-size="10.00">Ethernet Device Access</text>
</a>
</g>
</g>
<!-- Node4 -->
<g id="node4" class="node"><title>Node4</title>
<g id="a_node4"><a xlink:href="group___b_o_o_t_l_o_a_d_e_r___d_e_v.html" target="_top" xlink:title="Bootloader Access">
<polygon fill="none" stroke="black" points="243.584,-1102 243.584,-1120 342.416,-1120 342.416,-1102 243.584,-1102"/>
<text text-anchor="middle" x="293" y="-1108" font-family="Helvetica,sans-Serif" font-size="10.00">Bootloader Access</text>
</a>
</g>
</g>
<!-- Node29 -->
<g id="node5" class="node"><title>Node29</title>
<g id="a_node5"><a xlink:href="group___s_y_s___u_a_r_t_f_i_f_o.html" target="_top" xlink:title="UART FIFO">
<polygon fill="none" stroke="black" points="258.789,-1065 258.789,-1083 327.211,-1083 327.211,-1065 258.789,-1065"/>
<text text-anchor="middle" x="293" y="-1071" font-family="Helvetica,sans-Serif" font-size="10.00">UART FIFO</text>
</a>
</g>
</g>
<!-- Node6 -->
<g id="node6" class="node"><title>Node6</title>
<g id="a_node6"><a xlink:href="group___d_a_c.html" target="_top" xlink:title="Digital to Analog Converter\l (DAC)">
<polygon fill="none" stroke="black" points="225.52,-1018 225.52,-1046 360.48,-1046 360.48,-1018 225.52,-1018"/>
<text text-anchor="start" x="233.52" y="-1034" font-family="Helvetica,sans-Serif" font-size="10.00">Digital to Analog Converter</text>
<text text-anchor="middle" x="293" y="-1024" font-family="Helvetica,sans-Serif" font-size="10.00"> (DAC)</text>
</a>
</g>
</g>
<!-- Node15 -->
<g id="node7" class="node"><title>Node15</title>
<g id="a_node7"><a xlink:href="group___i2_c.html" target="_top" xlink:title="Inter&#45;Integrated Circuit\l (I2C) Master">
<polygon fill="none" stroke="black" points="235.256,-971 235.256,-999 350.744,-999 350.744,-971 235.256,-971"/>
<text text-anchor="start" x="243.256" y="-987" font-family="Helvetica,sans-Serif" font-size="10.00">Inter&#45;Integrated Circuit</text>
<text text-anchor="middle" x="293" y="-977" font-family="Helvetica,sans-Serif" font-size="10.00"> (I2C) Master</text>
</a>
</g>
</g>
<!-- Node16 -->
<g id="node8" class="node"><title>Node16</title>
<g id="a_node8"><a xlink:href="group___i2_s.html" target="_top" xlink:title="Inter&#45;Integrated Circuit\l (I2S) Master">
<polygon fill="none" stroke="black" points="235.256,-924 235.256,-952 350.744,-952 350.744,-924 235.256,-924"/>
<text text-anchor="start" x="243.256" y="-940" font-family="Helvetica,sans-Serif" font-size="10.00">Inter&#45;Integrated Circuit</text>
<text text-anchor="middle" x="293" y="-930" font-family="Helvetica,sans-Serif" font-size="10.00"> (I2S) Master</text>
</a>
</g>
</g>
<!-- Node5 -->
<g id="node9" class="node"><title>Node5</title>
<g id="a_node9"><a xlink:href="group___c_o_r_e.html" target="_top" xlink:title="Core Microcontroller\l Access">
<polygon fill="none" stroke="black" points="239.988,-877 239.988,-905 346.012,-905 346.012,-877 239.988,-877"/>
<text text-anchor="start" x="247.988" y="-893" font-family="Helvetica,sans-Serif" font-size="10.00">Core Microcontroller</text>
<text text-anchor="middle" x="293" y="-883" font-family="Helvetica,sans-Serif" font-size="10.00"> Access</text>
</a>
</g>
</g>
<!-- Node24 -->
<g id="node10" class="node"><title>Node24</title>
<g id="a_node10"><a xlink:href="group___s_p_i.html" target="_top" xlink:title="Serial Peripheral Interface\l (SPI) Master">
<polygon fill="none" stroke="black" points="227.192,-830 227.192,-858 358.808,-858 358.808,-830 227.192,-830"/>
<text text-anchor="start" x="235.192" y="-846" font-family="Helvetica,sans-Serif" font-size="10.00">Serial Peripheral Interface</text>
<text text-anchor="middle" x="293" y="-836" font-family="Helvetica,sans-Serif" font-size="10.00"> (SPI) Master</text>
</a>
</g>
</g>
<!-- Node1 -->
<g id="node11" class="node"><title>Node1</title>
<g id="a_node11"><a xlink:href="group___s_t_f_y.html" target="_top" xlink:title="Stratify OS">
<polygon fill="none" stroke="black" points="-0.172363,-614 -0.172363,-632 64.1724,-632 64.1724,-614 -0.172363,-614"/>
<text text-anchor="middle" x="32" y="-620" font-family="Helvetica,sans-Serif" font-size="10.00">Stratify OS</text>
</a>
</g>
</g>
<!-- Node0 -->
<g id="node15" class="node"><title>Node0</title>
<polygon fill="#bfbfbf" stroke="black" points="99.8721,-614 99.8721,-632 188.128,-632 188.128,-614 99.8721,-614"/>
<text text-anchor="middle" x="144" y="-620" font-family="Helvetica,sans-Serif" font-size="10.00">Device Interface</text>
</g>
<!-- Node1&#45;&gt;Node0 -->
<g id="edge1" class="edge"><title>Node1&#45;&gt;Node0</title>
<path fill="none" stroke="black" d="M74.4282,-623C82.7153,-623 91.4409,-623 99.7866,-623"/>
<polygon fill="black" stroke="black" points="74.2274,-619.5 64.2274,-623 74.2273,-626.5 74.2274,-619.5"/>
</g>
<!-- Node12 -->
<g id="node12" class="node"><title>Node12</title>
<g id="a_node12"><a xlink:href="group___s_y_s___f_i_f_o.html" target="_top" xlink:title="FIFO Buffer">
<polygon fill="none" stroke="black" points="258.972,-793 258.972,-811 327.028,-811 327.028,-793 258.972,-793"/>
<text text-anchor="middle" x="293" y="-799" font-family="Helvetica,sans-Serif" font-size="10.00">FIFO Buffer</text>
</a>
</g>
</g>
<!-- Node14 -->
<g id="node13" class="node"><title>Node14</title>
<g id="a_node13"><a xlink:href="group___h_i_o.html" target="_top" xlink:title="Human Input/Output\l Device">
<polygon fill="none" stroke="black" points="239.973,-746 239.973,-774 346.027,-774 346.027,-746 239.973,-746"/>
<text text-anchor="start" x="247.973" y="-762" font-family="Helvetica,sans-Serif" font-size="10.00">Human Input/Output</text>
<text text-anchor="middle" x="293" y="-752" font-family="Helvetica,sans-Serif" font-size="10.00"> Device</text>
</a>
</g>
</g>
<!-- Node20 -->
<g id="node14" class="node"><title>Node20</title>
<g id="a_node14"><a xlink:href="group___p_i_o.html" target="_top" xlink:title="Pin Input/Output (PIO)">
<polygon fill="none" stroke="black" points="235.532,-709 235.532,-727 350.468,-727 350.468,-709 235.532,-709"/>
<text text-anchor="middle" x="293" y="-715" font-family="Helvetica,sans-Serif" font-size="10.00">Pin Input/Output (PIO)</text>
</a>
</g>
</g>
<!-- Node0&#45;&gt;Node7 -->
<g id="edge7" class="edge"><title>Node0&#45;&gt;Node7</title>
<path fill="none" stroke="black" d="M144.891,-642.503C144.778,-733.641 148.841,-1116.76 224,-1203 232.215,-1212.43 244.678,-1217.36 256.701,-1219.88"/>
<polygon fill="black" stroke="black" points="148.391,-642.262 144.924,-632.251 141.391,-642.24 148.391,-642.262"/>
</g>
<!-- Node0&#45;&gt;Node23 -->
<g id="edge23" class="edge"><title>Node0&#45;&gt;Node23</title>
<path fill="none" stroke="black" d="M145.087,-642.082C145.871,-728.89 153.401,-1085.73 224,-1166 227.643,-1170.14 232.106,-1173.41 236.989,-1176"/>
<polygon fill="black" stroke="black" points="148.587,-642.047 145.017,-632.072 141.587,-642.096 148.587,-642.047"/>
</g>
<!-- Node0&#45;&gt;Node11 -->
<g id="edge11" class="edge"><title>Node0&#45;&gt;Node11</title>
<path fill="none" stroke="black" d="M145.316,-642.351C147.074,-725.91 158.137,-1054.9 224,-1129 227.664,-1133.12 232.142,-1136.38 237.033,-1138.96"/>
<polygon fill="black" stroke="black" points="148.814,-642.173 145.125,-632.241 141.815,-642.305 148.814,-642.173"/>
</g>
<!-- Node0&#45;&gt;Node4 -->
<g id="edge4" class="edge"><title>Node0&#45;&gt;Node4</title>
<path fill="none" stroke="black" d="M145.581,-642.444C148.36,-722.292 162.811,-1023.98 224,-1092 229.247,-1097.83 236.12,-1101.94 243.479,-1104.81"/>
<polygon fill="black" stroke="black" points="149.076,-642.207 145.252,-632.327 142.079,-642.435 149.076,-642.207"/>
</g>
<!-- Node0&#45;&gt;Node29 -->
<g id="edge29" class="edge"><title>Node0&#45;&gt;Node29</title>
<path fill="none" stroke="black" d="M145.884,-642.348C149.727,-718.042 167.423,-992.988 224,-1055 232.84,-1064.69 246.17,-1069.6 258.692,-1072.03"/>
<polygon fill="black" stroke="black" points="149.378,-642.14 145.398,-632.321 142.386,-642.479 149.378,-642.14"/>
</g>
<!-- Node0&#45;&gt;Node6 -->
<g id="edge6" class="edge"><title>Node0&#45;&gt;Node6</title>
<path fill="none" stroke="black" d="M146.485,-642.349C152.231,-712.453 175.159,-951.969 224,-1008 227.373,-1011.87 231.409,-1015.11 235.811,-1017.84"/>
<polygon fill="black" stroke="black" points="149.966,-641.968 145.684,-632.277 142.988,-642.523 149.966,-641.968"/>
</g>
<!-- Node0&#45;&gt;Node15 -->
<g id="edge15" class="edge"><title>Node0&#45;&gt;Node15</title>
<path fill="none" stroke="black" d="M147.092,-642.419C154.405,-706.928 180.75,-912.725 224,-961 227.509,-964.916 231.696,-968.193 236.246,-970.936"/>
<polygon fill="black" stroke="black" points="150.528,-641.642 145.949,-632.088 143.57,-642.412 150.528,-641.642"/>
</g>
<!-- Node0&#45;&gt;Node16 -->
<g id="edge16" class="edge"><title>Node0&#45;&gt;Node16</title>
<path fill="none" stroke="black" d="M144.471,-642.281C144.132,-693.534 150.322,-834.641 224,-914 227.663,-917.945 232.014,-921.242 236.718,-923.997"/>
<polygon fill="black" stroke="black" points="147.97,-642.316 144.633,-632.26 140.971,-642.202 147.97,-642.316"/>
</g>
<!-- Node0&#45;&gt;Node5 -->
<g id="edge5" class="edge"><title>Node0&#45;&gt;Node5</title>
<path fill="none" stroke="black" d="M145.689,-642.464C148.35,-688.025 161.273,-802.609 224,-867 228.543,-871.663 234.046,-875.422 239.931,-878.452"/>
<polygon fill="black" stroke="black" points="149.183,-642.262 145.21,-632.44 142.191,-642.596 149.183,-642.262"/>
</g>
<!-- Node0&#45;&gt;Node24 -->
<g id="edge24" class="edge"><title>Node0&#45;&gt;Node24</title>
<path fill="none" stroke="black" d="M147.422,-642.344C153.314,-681.379 171.951,-770.097 224,-820 228.067,-823.899 232.805,-827.169 237.852,-829.91"/>
<polygon fill="black" stroke="black" points="150.872,-641.745 146.029,-632.321 143.939,-642.708 150.872,-641.745"/>
</g>
<!-- Node0&#45;&gt;Node12 -->
<g id="edge12" class="edge"><title>Node0&#45;&gt;Node12</title>
<path fill="none" stroke="black" d="M149.066,-642.157C157.219,-675.808 178.793,-745.513 224,-783 233.813,-791.137 246.876,-795.799 258.928,-798.466"/>
<polygon fill="black" stroke="black" points="152.437,-641.197 146.801,-632.226 145.612,-642.754 152.437,-641.197"/>
</g>
<!-- Node0&#45;&gt;Node14 -->
<g id="edge14" class="edge"><title>Node0&#45;&gt;Node14</title>
<path fill="none" stroke="black" d="M153.342,-641.422C165.488,-666.281 190.318,-710.396 224,-736 229.083,-739.864 234.839,-743.141 240.799,-745.911"/>
<polygon fill="black" stroke="black" points="156.356,-639.608 148.924,-632.057 150.025,-642.594 156.356,-639.608"/>
</g>
<!-- Node0&#45;&gt;Node20 -->
<g id="edge20" class="edge"><title>Node0&#45;&gt;Node20</title>
<path fill="none" stroke="black" d="M158.588,-640.366C173.027,-657.673 197.407,-683.8 224,-699 231.13,-703.075 239.186,-706.319 247.194,-708.887"/>
<polygon fill="black" stroke="black" points="161.002,-637.786 151.984,-632.224 155.565,-642.196 161.002,-637.786"/>
</g>
<!-- Node2 -->
<g id="node16" class="node"><title>Node2</title>
<g id="a_node16"><a xlink:href="group___d_e_v_i_c_e.html" target="_top" xlink:title="Device Configuration">
<polygon fill="none" stroke="black" points="238.586,-672 238.586,-690 347.414,-690 347.414,-672 238.586,-672"/>
<text text-anchor="middle" x="293" y="-678" font-family="Helvetica,sans-Serif" font-size="10.00">Device Configuration</text>
</a>
</g>
</g>
<!-- Node0&#45;&gt;Node2 -->
<g id="edge2" class="edge"><title>Node0&#45;&gt;Node2</title>
<path fill="none" stroke="black" d="M170.073,-636.875C185.343,-644.944 205.427,-654.892 224,-662 233.845,-665.768 244.75,-669.149 254.891,-671.977"/>
<polygon fill="black" stroke="black" points="171.71,-633.781 161.244,-632.135 168.399,-639.949 171.71,-633.781"/>
</g>
<!-- Node26 -->
<g id="node17" class="node"><title>Node26</title>
<g id="a_node17"><a xlink:href="group___t_m_r.html" target="_top" xlink:title="Timer (TMR)">
<polygon fill="none" stroke="black" points="256.858,-635 256.858,-653 329.142,-653 329.142,-635 256.858,-635"/>
<text text-anchor="middle" x="293" y="-641" font-family="Helvetica,sans-Serif" font-size="10.00">Timer (TMR)</text>
</a>
</g>
</g>
<!-- Node0&#45;&gt;Node26 -->
<g id="edge26" class="edge"><title>Node0&#45;&gt;Node26</title>
<path fill="none" stroke="black" d="M198.213,-630.602C217.567,-633.367 238.956,-636.422 256.415,-638.916"/>
<polygon fill="black" stroke="black" points="198.704,-627.137 188.31,-629.187 197.714,-634.066 198.704,-627.137"/>
</g>
<!-- Node3 -->
<g id="node18" class="node"><title>Node3</title>
<g id="a_node18"><a xlink:href="group___a_d_c.html" target="_top" xlink:title="Analog to Digital Converter\l (ADC)">
<polygon fill="none" stroke="black" points="225.247,-588 225.247,-616 360.753,-616 360.753,-588 225.247,-588"/>
<text text-anchor="start" x="233.247" y="-604" font-family="Helvetica,sans-Serif" font-size="10.00">Analog to Digital Converter</text>
<text text-anchor="middle" x="293" y="-594" font-family="Helvetica,sans-Serif" font-size="10.00"> (ADC)</text>
</a>
</g>
</g>
<!-- Node0&#45;&gt;Node3 -->
<g id="edge3" class="edge"><title>Node0&#45;&gt;Node3</title>
<path fill="none" stroke="black" d="M198.28,-615.389C206.96,-614.149 216.048,-612.85 225.006,-611.571"/>
<polygon fill="black" stroke="black" points="197.714,-611.934 188.31,-616.813 198.704,-618.863 197.714,-611.934"/>
</g>
<!-- Node17 -->
<g id="node19" class="node"><title>Node17</title>
<g id="a_node19"><a xlink:href="group___m_c_i.html" target="_top" xlink:title="Multimedia Card Interface">
<polygon fill="none" stroke="black" points="227.754,-551 227.754,-569 358.246,-569 358.246,-551 227.754,-551"/>
<text text-anchor="middle" x="293" y="-557" font-family="Helvetica,sans-Serif" font-size="10.00">Multimedia Card Interface</text>
</a>
</g>
</g>
<!-- Node0&#45;&gt;Node17 -->
<g id="edge17" class="edge"><title>Node0&#45;&gt;Node17</title>
<path fill="none" stroke="black" d="M167.209,-608.275C182.622,-598.583 203.917,-586.215 224,-578 232.477,-574.532 241.824,-571.552 250.803,-569.07"/>
<polygon fill="black" stroke="black" points="164.962,-605.558 158.435,-613.903 168.742,-611.45 164.962,-605.558"/>
</g>
<!-- Node25 -->
<g id="node20" class="node"><title>Node25</title>
<g id="a_node20"><a xlink:href="group___s_y_s___d_e_v.html" target="_top" xlink:title="System Devices">
<polygon fill="none" stroke="black" points="249.158,-514 249.158,-532 336.842,-532 336.842,-514 249.158,-514"/>
<text text-anchor="middle" x="293" y="-520" font-family="Helvetica,sans-Serif" font-size="10.00">System Devices</text>
</a>
</g>
</g>
<!-- Node0&#45;&gt;Node25 -->
<g id="edge25" class="edge"><title>Node0&#45;&gt;Node25</title>
<path fill="none" stroke="black" d="M157.191,-605.548C171.191,-586.815 195.881,-557.529 224,-541 231.58,-536.544 240.275,-533.171 248.859,-530.624"/>
<polygon fill="black" stroke="black" points="154.248,-603.644 151.209,-613.794 159.914,-607.755 154.248,-603.644"/>
</g>
<!-- Node18 -->
<g id="node21" class="node"><title>Node18</title>
<g id="a_node21"><a xlink:href="group___m_e_m.html" target="_top" xlink:title="Memory (RAM/Flash)">
<polygon fill="none" stroke="black" points="237.498,-477 237.498,-495 348.502,-495 348.502,-477 237.498,-477"/>
<text text-anchor="middle" x="293" y="-483" font-family="Helvetica,sans-Serif" font-size="10.00">Memory (RAM/Flash)</text>
</a>
</g>
</g>
<!-- Node0&#45;&gt;Node18 -->
<g id="edge18" class="edge"><title>Node0&#45;&gt;Node18</title>
<path fill="none" stroke="black" d="M152.293,-604.327C163.591,-577.892 187.859,-529.897 224,-504 229.162,-500.301 235.032,-497.362 241.111,-495.027"/>
<polygon fill="black" stroke="black" points="148.918,-603.332 148.365,-613.912 155.395,-605.986 148.918,-603.332"/>
</g>
<!-- Node22 -->
<g id="node22" class="node"><title>Node22</title>
<g id="a_node22"><a xlink:href="group___q_e_i.html" target="_top" xlink:title="Quadrature Encoder\l Interface (QEI)">
<polygon fill="none" stroke="black" points="239.695,-430 239.695,-458 346.305,-458 346.305,-430 239.695,-430"/>
<text text-anchor="start" x="247.695" y="-446" font-family="Helvetica,sans-Serif" font-size="10.00">Quadrature Encoder</text>
<text text-anchor="middle" x="293" y="-436" font-family="Helvetica,sans-Serif" font-size="10.00"> Interface (QEI)</text>
</a>
</g>
</g>
<!-- Node0&#45;&gt;Node22 -->
<g id="edge22" class="edge"><title>Node0&#45;&gt;Node22</title>
<path fill="none" stroke="black" d="M149.653,-603.661C158.518,-570.884 180.905,-504.35 224,-467 228.615,-463.001 233.954,-459.689 239.572,-456.95"/>
<polygon fill="black" stroke="black" points="146.161,-603.188 147.069,-613.744 152.942,-604.926 146.161,-603.188"/>
</g>
<!-- Node27 -->
<g id="node23" class="node"><title>Node27</title>
<g id="a_node23"><a xlink:href="group___t_t_y.html" target="_top" xlink:title="TTY (terminal devices)">
<polygon fill="none" stroke="black" points="234.8,-393 234.8,-411 351.2,-411 351.2,-393 234.8,-393"/>
<text text-anchor="middle" x="293" y="-399" font-family="Helvetica,sans-Serif" font-size="10.00">TTY (terminal devices)</text>
</a>
</g>
</g>
<!-- Node0&#45;&gt;Node27 -->
<g id="edge27" class="edge"><title>Node0&#45;&gt;Node27</title>
<path fill="none" stroke="black" d="M146.801,-603.542C151.608,-563.108 168.441,-469.643 224,-420 228.098,-416.338 232.856,-413.408 237.916,-411.065"/>
<polygon fill="black" stroke="black" points="143.301,-603.352 145.722,-613.667 150.262,-604.094 143.301,-603.352"/>
</g>
<!-- Node21 -->
<g id="node24" class="node"><title>Node21</title>
<g id="a_node24"><a xlink:href="group___p_w_m.html" target="_top" xlink:title="Pulse Width Modulation\l (PWM)">
<polygon fill="none" stroke="black" points="232.473,-346 232.473,-374 353.527,-374 353.527,-346 232.473,-346"/>
<text text-anchor="start" x="240.473" y="-362" font-family="Helvetica,sans-Serif" font-size="10.00">Pulse Width Modulation</text>
<text text-anchor="middle" x="293" y="-352" font-family="Helvetica,sans-Serif" font-size="10.00"> (PWM)</text>
</a>
</g>
</g>
<!-- Node0&#45;&gt;Node21 -->
<g id="edge21" class="edge"><title>Node0&#45;&gt;Node21</title>
<path fill="none" stroke="black" d="M145.755,-603.507C148.558,-558.369 161.766,-445.744 224,-383 227.423,-379.549 231.381,-376.616 235.632,-374.123"/>
<polygon fill="black" stroke="black" points="142.25,-603.517 145.234,-613.683 149.241,-603.875 142.25,-603.517"/>
</g>
<!-- Node10 -->
<g id="node25" class="node"><title>Node10</title>
<g id="a_node25"><a xlink:href="group___e_m_c.html" target="_top" xlink:title="External Memory Controller\l (EMC)">
<polygon fill="none" stroke="black" points="224.148,-299 224.148,-327 361.852,-327 361.852,-299 224.148,-299"/>
<text text-anchor="start" x="232.148" y="-315" font-family="Helvetica,sans-Serif" font-size="10.00">External Memory Controller</text>
<text text-anchor="middle" x="293" y="-305" font-family="Helvetica,sans-Serif" font-size="10.00"> (EMC)</text>
</a>
</g>
</g>
<!-- Node0&#45;&gt;Node10 -->
<g id="edge10" class="edge"><title>Node0&#45;&gt;Node10</title>
<path fill="none" stroke="black" d="M144.501,-603.604C144.271,-552.645 150.769,-413.571 224,-336 227.251,-332.556 231.035,-329.628 235.122,-327.139"/>
<polygon fill="black" stroke="black" points="141.005,-603.889 144.649,-613.838 148.004,-603.788 141.005,-603.889"/>
</g>
<!-- Node28 -->
<g id="node26" class="node"><title>Node28</title>
<g id="a_node26"><a xlink:href="group___u_a_r_t.html" target="_top" xlink:title="Universal Asynchronous\l Receiver/Transmitter\l (UART)">
<polygon fill="none" stroke="black" points="231.36,-242 231.36,-280 354.64,-280 354.64,-242 231.36,-242"/>
<text text-anchor="start" x="239.36" y="-268" font-family="Helvetica,sans-Serif" font-size="10.00">Universal Asynchronous</text>
<text text-anchor="start" x="239.36" y="-258" font-family="Helvetica,sans-Serif" font-size="10.00"> Receiver/Transmitter</text>
<text text-anchor="middle" x="293" y="-248" font-family="Helvetica,sans-Serif" font-size="10.00"> (UART)</text>
</a>
</g>
</g>
<!-- Node0&#45;&gt;Node28 -->
<g id="edge28" class="edge"><title>Node0&#45;&gt;Node28</title>
<path fill="none" stroke="black" d="M147.27,-603.473C155.055,-539.517 182.5,-337.653 224,-289 226.817,-285.697 230.085,-282.778 233.635,-280.199"/>
<polygon fill="black" stroke="black" points="143.754,-603.398 146.046,-613.742 150.705,-604.226 143.754,-603.398"/>
</g>
<!-- Node31 -->
<g id="node27" class="node"><title>Node31</title>
<g id="a_node27"><a xlink:href="group___s_y_s___u_s_b_f_i_f_o.html" target="_top" xlink:title="USB FIFO">
<polygon fill="none" stroke="black" points="261.943,-205 261.943,-223 324.057,-223 324.057,-205 261.943,-205"/>
<text text-anchor="middle" x="293" y="-211" font-family="Helvetica,sans-Serif" font-size="10.00">USB FIFO</text>
</a>
</g>
</g>
<!-- Node0&#45;&gt;Node31 -->
<g id="edge31" class="edge"><title>Node0&#45;&gt;Node31</title>
<path fill="none" stroke="black" d="M146.259,-603.681C151.278,-532.622 172.15,-287.026 224,-232 233.631,-221.779 248.332,-217.108 261.603,-215.064"/>
<polygon fill="black" stroke="black" points="142.754,-603.649 145.566,-613.863 149.737,-604.124 142.754,-603.649"/>
</g>
<!-- Node9 -->
<g id="node28" class="node"><title>Node9</title>
<g id="a_node28"><a xlink:href="group___e_i_n_t.html" target="_top" xlink:title="External Interrupts\l (EINT)">
<polygon fill="none" stroke="black" points="244.148,-158 244.148,-186 341.852,-186 341.852,-158 244.148,-158"/>
<text text-anchor="start" x="252.148" y="-174" font-family="Helvetica,sans-Serif" font-size="10.00">External Interrupts</text>
<text text-anchor="middle" x="293" y="-164" font-family="Helvetica,sans-Serif" font-size="10.00"> (EINT)</text>
</a>
</g>
</g>
<!-- Node0&#45;&gt;Node9 -->
<g id="edge9" class="edge"><title>Node0&#45;&gt;Node9</title>
<path fill="none" stroke="black" d="M146.035,-603.454C150.4,-528.132 169.659,-257.765 224,-195 229.384,-188.781 236.511,-184.241 244.126,-180.926"/>
<polygon fill="black" stroke="black" points="142.52,-603.628 145.459,-613.807 149.509,-604.017 142.52,-603.628"/>
</g>
<!-- Node30 -->
<g id="node29" class="node"><title>Node30</title>
<g id="a_node29"><a xlink:href="group___u_s_b.html" target="_top" xlink:title="Universal Serial Bus\l (USB)">
<polygon fill="none" stroke="black" points="239.983,-111 239.983,-139 346.017,-139 346.017,-111 239.983,-111"/>
<text text-anchor="start" x="247.983" y="-127" font-family="Helvetica,sans-Serif" font-size="10.00">Universal Serial Bus</text>
<text text-anchor="middle" x="293" y="-117" font-family="Helvetica,sans-Serif" font-size="10.00"> (USB)</text>
</a>
</g>
</g>
<!-- Node0&#45;&gt;Node30 -->
<g id="edge30" class="edge"><title>Node0&#45;&gt;Node30</title>
<path fill="none" stroke="black" d="M145.626,-603.915C148.612,-524.199 163.865,-218.714 224,-148 228.36,-142.873 233.906,-138.886 239.944,-135.786"/>
<polygon fill="black" stroke="black" points="142.126,-603.866 145.271,-613.983 149.121,-604.113 142.126,-603.866"/>
</g>
<!-- Node8 -->
<g id="node30" class="node"><title>Node8</title>
<g id="a_node30"><a xlink:href="group___d_i_s_k.html" target="_top" xlink:title="Disk">
<polygon fill="none" stroke="black" points="275.278,-74 275.278,-92 310.722,-92 310.722,-74 275.278,-74"/>
<text text-anchor="middle" x="293" y="-80" font-family="Helvetica,sans-Serif" font-size="10.00">Disk</text>
</a>
</g>
</g>
<!-- Node0&#45;&gt;Node8 -->
<g id="edge8" class="edge"><title>Node0&#45;&gt;Node8</title>
<path fill="none" stroke="black" d="M145.186,-603.831C146.403,-518.896 155.544,-177.324 224,-101 236.802,-86.727 259.477,-83.1906 275.101,-82.5901"/>
<polygon fill="black" stroke="black" points="141.686,-603.824 145.064,-613.866 148.686,-603.91 141.686,-603.824"/>
</g>
<!-- Node19 -->
<g id="node31" class="node"><title>Node19</title>
<g id="a_node31"><a xlink:href="group___m_l_c_d.html" target="_top" xlink:title="Mono LCD">
<polygon fill="none" stroke="black" points="261.101,-37 261.101,-55 324.899,-55 324.899,-37 261.101,-37"/>
<text text-anchor="middle" x="293" y="-43" font-family="Helvetica,sans-Serif" font-size="10.00">Mono LCD</text>
</a>
</g>
</g>
<!-- Node0&#45;&gt;Node19 -->
<g id="edge19" class="edge"><title>Node0&#45;&gt;Node19</title>
<path fill="none" stroke="black" d="M144.975,-603.611C145.259,-514.642 150.893,-146.317 224,-64 233.245,-53.5907 247.74,-48.8827 260.977,-46.8625"/>
<polygon fill="black" stroke="black" points="141.475,-603.648 144.963,-613.652 148.475,-603.656 141.475,-603.648"/>
</g>
<!-- Node13 -->
<g id="node32" class="node"><title>Node13</title>
<g id="a_node32"><a xlink:href="group___f_l_a_s_h.html" target="_top" xlink:title="Flash Memory">
<polygon fill="none" stroke="black" points="253.328,-0 253.328,-18 332.672,-18 332.672,-0 253.328,-0"/>
<text text-anchor="middle" x="293" y="-6" font-family="Helvetica,sans-Serif" font-size="10.00">Flash Memory</text>
</a>
</g>
</g>
<!-- Node0&#45;&gt;Node13 -->
<g id="edge13" class="edge"><title>Node0&#45;&gt;Node13</title>
<path fill="none" stroke="black" d="M144.788,-603.817C144.166,-511.687 146.114,-115.462 224,-27 231.424,-18.5674 242.295,-13.8711 253.175,-11.3146"/>
<polygon fill="black" stroke="black" points="141.289,-603.952 144.876,-613.921 148.289,-603.891 141.289,-603.952"/>
</g>
</g>
</svg>
