<?xml version="1.0" encoding="UTF-8" standalone="no"?>
<!DOCTYPE svg PUBLIC "-//W3C//DTD SVG 1.1//EN"
 "http://www.w3.org/Graphics/SVG/1.1/DTD/svg11.dtd">
<!-- Generated by graphviz version 2.36.0 (20140111.2315)
 -->
<!-- Title: POSIX Pages: 1 -->
<svg width="328pt" height="396pt"
 viewBox="0.00 0.00 328.00 396.00" xmlns="http://www.w3.org/2000/svg" xmlns:xlink="http://www.w3.org/1999/xlink">
<g id="graph0" class="graph" transform="scale(1 1) rotate(0) translate(4 392)">
<title>POSIX</title>
<!-- Node4 -->
<g id="node1" class="node"><title>Node4</title>
<g id="a_node1"><a xlink:href="group___s_i_g_n_a_l.html" target="_top" xlink:title="Signal Handling">
<polygon fill="none" stroke="black" points="208.976,-370 208.976,-388 295.024,-388 295.024,-370 208.976,-370"/>
<text text-anchor="middle" x="252" y="-376" font-family="Helvetica,sans-Serif" font-size="10.00">Signal Handling</text>
</a>
</g>
</g>
<!-- Node0 -->
<g id="node2" class="node"><title>Node0</title>
<polygon fill="#bfbfbf" stroke="black" points="100.717,-185 100.717,-203 147.283,-203 147.283,-185 100.717,-185"/>
<text text-anchor="middle" x="124" y="-191" font-family="Helvetica,sans-Serif" font-size="10.00">POSIX</text>
</g>
<!-- Node0&#45;&gt;Node4 -->
<g id="edge4" class="edge"><title>Node0&#45;&gt;Node4</title>
<path fill="none" stroke="black" d="M126.262,-213.234C129.574,-247.717 141.487,-320.171 184,-360 190.882,-366.448 199.79,-370.73 208.851,-373.568"/>
<polygon fill="black" stroke="black" points="129.736,-212.78 125.436,-203.097 122.759,-213.348 129.736,-212.78"/>
</g>
<!-- Node10 -->
<g id="node3" class="node"><title>Node10</title>
<g id="a_node3"><a xlink:href="group___m_q_u_e_u_e.html" target="_top" xlink:title="Message Queue (mqueue)">
<polygon fill="none" stroke="black" points="184.522,-333 184.522,-351 319.478,-351 319.478,-333 184.522,-333"/>
<text text-anchor="middle" x="252" y="-339" font-family="Helvetica,sans-Serif" font-size="10.00">Message Queue (mqueue)</text>
</a>
</g>
</g>
<!-- Node0&#45;&gt;Node10 -->
<g id="edge10" class="edge"><title>Node0&#45;&gt;Node10</title>
<path fill="none" stroke="black" d="M128.508,-213.23C134.674,-241.476 150.159,-293.967 184,-323 188.863,-327.173 194.585,-330.432 200.601,-332.977"/>
<polygon fill="black" stroke="black" points="131.866,-212.176 126.466,-203.06 125.003,-213.554 131.866,-212.176"/>
</g>
<!-- Node9 -->
<g id="node4" class="node"><title>Node9</title>
<g id="a_node4"><a xlink:href="group___s_e_m_a_p_h_o_r_e.html" target="_top" xlink:title="Semaphore">
<polygon fill="none" stroke="black" points="218.15,-296 218.15,-314 285.85,-314 285.85,-296 218.15,-296"/>
<text text-anchor="middle" x="252" y="-302" font-family="Helvetica,sans-Serif" font-size="10.00">Semaphore</text>
</a>
</g>
</g>
<!-- Node0&#45;&gt;Node9 -->
<g id="edge9" class="edge"><title>Node0&#45;&gt;Node9</title>
<path fill="none" stroke="black" d="M132.1,-212.528C141.06,-233.45 158.452,-267.04 184,-286 193.806,-293.277 206.304,-297.77 217.842,-300.542"/>
<polygon fill="black" stroke="black" points="135.292,-211.085 128.282,-203.14 128.807,-213.722 135.292,-211.085"/>
</g>
<!-- Node11 -->
<g id="node5" class="node"><title>Node11</title>
<g id="a_node5"><a xlink:href="group___d_i_r_e_n_t.html" target="_top" xlink:title="Directory Entry (dirent)">
<polygon fill="none" stroke="black" points="193.712,-259 193.712,-277 310.288,-277 310.288,-259 193.712,-259"/>
<text text-anchor="middle" x="252" y="-265" font-family="Helvetica,sans-Serif" font-size="10.00">Directory Entry (dirent)</text>
</a>
</g>
</g>
<!-- Node0&#45;&gt;Node11 -->
<g id="edge11" class="edge"><title>Node0&#45;&gt;Node11</title>
<path fill="none" stroke="black" d="M139.142,-210.94C150.191,-223.157 166.556,-239.166 184,-249 191.267,-253.097 199.484,-256.365 207.611,-258.955"/>
<polygon fill="black" stroke="black" points="141.607,-208.442 132.394,-203.211 136.334,-213.046 141.607,-208.442"/>
</g>
<!-- Node3 -->
<g id="node6" class="node"><title>Node3</title>
<g id="a_node6"><a xlink:href="group___s_c_h_e_d.html" target="_top" xlink:title="Scheduler">
<polygon fill="none" stroke="black" points="221.485,-222 221.485,-240 282.515,-240 282.515,-222 221.485,-222"/>
<text text-anchor="middle" x="252" y="-228" font-family="Helvetica,sans-Serif" font-size="10.00">Scheduler</text>
</a>
</g>
</g>
<!-- Node0&#45;&gt;Node3 -->
<g id="edge3" class="edge"><title>Node0&#45;&gt;Node3</title>
<path fill="none" stroke="black" d="M157.175,-203.942C165.871,-206.595 175.287,-209.436 184,-212 196.179,-215.584 209.638,-219.425 221.279,-222.708"/>
<polygon fill="black" stroke="black" points="157.968,-200.525 147.382,-200.942 155.918,-207.218 157.968,-200.525"/>
</g>
<!-- Node8 -->
<g id="node7" class="node"><title>Node8</title>
<g id="a_node7"><a xlink:href="group___g_r_p.html" target="_top" xlink:title="Groups">
<polygon fill="none" stroke="black" points="227.604,-185 227.604,-203 276.396,-203 276.396,-185 227.604,-185"/>
<text text-anchor="middle" x="252" y="-191" font-family="Helvetica,sans-Serif" font-size="10.00">Groups</text>
</a>
</g>
</g>
<!-- Node0&#45;&gt;Node8 -->
<g id="edge8" class="edge"><title>Node0&#45;&gt;Node8</title>
<path fill="none" stroke="black" d="M157.666,-194C179.5,-194 207.718,-194 227.386,-194"/>
<polygon fill="black" stroke="black" points="157.526,-190.5 147.526,-194 157.526,-197.5 157.526,-190.5"/>
</g>
<!-- Node7 -->
<g id="node9" class="node"><title>Node7</title>
<g id="a_node9"><a xlink:href="group___p_t_h_r_e_a_d.html" target="_top" xlink:title="Posix Threads (pthread)">
<polygon fill="none" stroke="black" points="190.453,-148 190.453,-166 313.547,-166 313.547,-148 190.453,-148"/>
<text text-anchor="middle" x="252" y="-154" font-family="Helvetica,sans-Serif" font-size="10.00">Posix Threads (pthread)</text>
</a>
</g>
</g>
<!-- Node0&#45;&gt;Node7 -->
<g id="edge7" class="edge"><title>Node0&#45;&gt;Node7</title>
<path fill="none" stroke="black" d="M157.121,-183.34C165.817,-180.541 175.247,-177.584 184,-175 194.397,-171.931 205.764,-168.796 216.135,-166.019"/>
<polygon fill="black" stroke="black" points="155.761,-180.102 147.333,-186.523 157.925,-186.759 155.761,-180.102"/>
</g>
<!-- Node12 -->
<g id="node10" class="node"><title>Node12</title>
<g id="a_node10"><a xlink:href="group___e_r_r_n_o.html" target="_top" xlink:title="Error Numbers">
<polygon fill="none" stroke="black" points="211.217,-111 211.217,-129 292.783,-129 292.783,-111 211.217,-111"/>
<text text-anchor="middle" x="252" y="-117" font-family="Helvetica,sans-Serif" font-size="10.00">Error Numbers</text>
</a>
</g>
</g>
<!-- Node0&#45;&gt;Node12 -->
<g id="edge12" class="edge"><title>Node0&#45;&gt;Node12</title>
<path fill="none" stroke="black" d="M138.668,-177.095C149.667,-164.562 166.183,-147.987 184,-138 192.3,-133.348 201.858,-129.852 211.107,-127.243"/>
<polygon fill="black" stroke="black" points="135.772,-175.099 131.987,-184.995 141.117,-179.62 135.772,-175.099"/>
</g>
<!-- Node2 -->
<g id="node11" class="node"><title>Node2</title>
<g id="a_node11"><a xlink:href="group___p_w_d.html" target="_top" xlink:title="Password">
<polygon fill="none" stroke="black" points="222.047,-74 222.047,-92 281.953,-92 281.953,-74 222.047,-74"/>
<text text-anchor="middle" x="252" y="-80" font-family="Helvetica,sans-Serif" font-size="10.00">Password</text>
</a>
</g>
</g>
<!-- Node0&#45;&gt;Node2 -->
<g id="edge2" class="edge"><title>Node0&#45;&gt;Node2</title>
<path fill="none" stroke="black" d="M131.999,-175.208C140.865,-154 158.169,-119.991 184,-101 194.966,-92.9382 209.305,-88.4863 221.903,-86.0282"/>
<polygon fill="black" stroke="black" points="128.657,-174.141 128.228,-184.727 135.165,-176.719 128.657,-174.141"/>
</g>
<!-- Node5 -->
<g id="node12" class="node"><title>Node5</title>
<g id="a_node12"><a xlink:href="group___t_i_m_e.html" target="_top" xlink:title="Time">
<polygon fill="none" stroke="black" points="233.072,-37 233.072,-55 270.928,-55 270.928,-37 233.072,-37"/>
<text text-anchor="middle" x="252" y="-43" font-family="Helvetica,sans-Serif" font-size="10.00">Time</text>
</a>
</g>
</g>
<!-- Node0&#45;&gt;Node5 -->
<g id="edge5" class="edge"><title>Node0&#45;&gt;Node5</title>
<path fill="none" stroke="black" d="M128.331,-174.942C134.318,-146.496 149.63,-93.1615 184,-64 197.684,-52.3894 218.136,-48.1966 232.842,-46.72"/>
<polygon fill="black" stroke="black" points="124.88,-174.357 126.417,-184.84 131.752,-175.686 124.88,-174.357"/>
</g>
<!-- Node6 -->
<g id="node13" class="node"><title>Node6</title>
<g id="a_node13"><a xlink:href="group___u_n_i_s_t_d.html" target="_top" xlink:title="Unix Standard (unistd)">
<polygon fill="none" stroke="black" points="194.254,-0 194.254,-18 309.746,-18 309.746,-0 194.254,-0"/>
<text text-anchor="middle" x="252" y="-6" font-family="Helvetica,sans-Serif" font-size="10.00">Unix Standard (unistd)</text>
</a>
</g>
</g>
<!-- Node0&#45;&gt;Node6 -->
<g id="edge6" class="edge"><title>Node0&#45;&gt;Node6</title>
<path fill="none" stroke="black" d="M126.17,-174.595C129.336,-139.814 141.02,-66.7858 184,-27 187.977,-23.3181 192.627,-20.3745 197.589,-18.0233"/>
<polygon fill="black" stroke="black" points="122.661,-174.583 125.39,-184.82 129.64,-175.115 122.661,-174.583"/>
</g>
<!-- Node1 -->
<g id="node8" class="node"><title>Node1</title>
<g id="a_node8"><a xlink:href="group___s_t_f_y.html" target="_top" xlink:title="Stratify OS">
<polygon fill="none" stroke="black" points="-0.172363,-185 -0.172363,-203 64.1724,-203 64.1724,-185 -0.172363,-185"/>
<text text-anchor="middle" x="32" y="-191" font-family="Helvetica,sans-Serif" font-size="10.00">Stratify OS</text>
</a>
</g>
</g>
<!-- Node1&#45;&gt;Node0 -->
<g id="edge1" class="edge"><title>Node1&#45;&gt;Node0</title>
<path fill="none" stroke="black" d="M74.298,-194C83.3658,-194 92.6356,-194 100.621,-194"/>
<polygon fill="black" stroke="black" points="74.2251,-190.5 64.2251,-194 74.225,-197.5 74.2251,-190.5"/>
</g>
</g>
</svg>
