<?xml version="1.0" encoding="UTF-8" standalone="no"?>
<!DOCTYPE svg PUBLIC "-//W3C//DTD SVG 1.1//EN"
 "http://www.w3.org/Graphics/SVG/1.1/DTD/svg11.dtd">
<!-- Generated by graphviz version 2.36.0 (20140111.2315)
 -->
<!-- Title: Posix Threads (pthread) Pages: 1 -->
<svg width="362pt" height="100pt"
 viewBox="0.00 0.00 362.00 100.00" xmlns="http://www.w3.org/2000/svg" xmlns:xlink="http://www.w3.org/1999/xlink">
<g id="graph0" class="graph" transform="scale(1 1) rotate(0) translate(4 96)">
<title>Posix Threads (pthread)</title>
<!-- Node1 -->
<g id="node1" class="node"><title>Node1</title>
<g id="a_node1"><a xlink:href="group___p_o_s_i_x.html" target="_top" xlink:title="POSIX">
<polygon fill="none" stroke="black" points="0.716797,-37 0.716797,-55 47.2832,-55 47.2832,-37 0.716797,-37"/>
<text text-anchor="middle" x="24" y="-43" font-family="Helvetica,sans-Serif" font-size="10.00">POSIX</text>
</a>
</g>
</g>
<!-- Node0 -->
<g id="node3" class="node"><title>Node0</title>
<polygon fill="#bfbfbf" stroke="black" points="84.4526,-37 84.4526,-55 207.547,-55 207.547,-37 84.4526,-37"/>
<text text-anchor="middle" x="146" y="-43" font-family="Helvetica,sans-Serif" font-size="10.00">Posix Threads (pthread)</text>
</g>
<!-- Node1&#45;&gt;Node0 -->
<g id="edge1" class="edge"><title>Node1&#45;&gt;Node0</title>
<path fill="none" stroke="black" d="M57.3341,-46C65.7056,-46 74.997,-46 84.3106,-46"/>
<polygon fill="black" stroke="black" points="57.2899,-42.5001 47.2898,-46 57.2898,-49.5001 57.2899,-42.5001"/>
</g>
<!-- Node4 -->
<g id="node2" class="node"><title>Node4</title>
<g id="a_node2"><a xlink:href="group___p_t_h_r_e_a_d___m_u_t_e_x.html" target="_top" xlink:title="Mutexes">
<polygon fill="none" stroke="black" points="272.104,-74 272.104,-92 325.896,-92 325.896,-74 272.104,-74"/>
<text text-anchor="middle" x="299" y="-80" font-family="Helvetica,sans-Serif" font-size="10.00">Mutexes</text>
</a>
</g>
</g>
<!-- Node0&#45;&gt;Node4 -->
<g id="edge4" class="edge"><title>Node0&#45;&gt;Node4</title>
<path fill="none" stroke="black" d="M193.859,-57.4819C219.544,-63.7756 250.421,-71.3416 271.854,-76.5934"/>
<polygon fill="black" stroke="black" points="194.484,-54.0318 183.939,-55.0512 192.818,-60.8307 194.484,-54.0318"/>
</g>
<!-- Node3 -->
<g id="node4" class="node"><title>Node3</title>
<g id="a_node4"><a xlink:href="group___p_t_h_r_e_a_d___c_o_n_d.html" target="_top" xlink:title="Conditional Variables">
<polygon fill="none" stroke="black" points="244.118,-37 244.118,-55 353.882,-55 353.882,-37 244.118,-37"/>
<text text-anchor="middle" x="299" y="-43" font-family="Helvetica,sans-Serif" font-size="10.00">Conditional Variables</text>
</a>
</g>
</g>
<!-- Node0&#45;&gt;Node3 -->
<g id="edge3" class="edge"><title>Node0&#45;&gt;Node3</title>
<path fill="none" stroke="black" d="M217.751,-46C226.5,-46 235.335,-46 243.782,-46"/>
<polygon fill="black" stroke="black" points="217.547,-42.5001 207.547,-46 217.547,-49.5001 217.547,-42.5001"/>
</g>
<!-- Node2 -->
<g id="node5" class="node"><title>Node2</title>
<g id="a_node5"><a xlink:href="group___p_t_h_r_e_a_d___a_t_t_r.html" target="_top" xlink:title="Attributes">
<polygon fill="none" stroke="black" points="269.879,-0 269.879,-18 328.121,-18 328.121,-0 269.879,-0"/>
<text text-anchor="middle" x="299" y="-6" font-family="Helvetica,sans-Serif" font-size="10.00">Attributes</text>
</a>
</g>
</g>
<!-- Node0&#45;&gt;Node2 -->
<g id="edge2" class="edge"><title>Node0&#45;&gt;Node2</title>
<path fill="none" stroke="black" d="M193.861,-34.5175C218.613,-28.4524 248.187,-21.2059 269.483,-15.9876"/>
<polygon fill="black" stroke="black" points="192.818,-31.1693 183.939,-36.9488 194.484,-37.9682 192.818,-31.1693"/>
</g>
</g>
</svg>
