<?xml version="1.0" encoding="UTF-8" standalone="no"?>
<!DOCTYPE svg PUBLIC "-//W3C//DTD SVG 1.1//EN"
 "http://www.w3.org/Graphics/SVG/1.1/DTD/svg11.dtd">
<!-- Generated by graphviz version 2.36.0 (20140111.2315)
 -->
<!-- Title: Link Transport Layer (for remote access to system) Pages: 1 -->
<svg width="370pt" height="63pt"
 viewBox="0.00 0.00 370.00 63.00" xmlns="http://www.w3.org/2000/svg" xmlns:xlink="http://www.w3.org/1999/xlink">
<g id="graph0" class="graph" transform="scale(1 1) rotate(0) translate(4 59)">
<title>Link Transport Layer (for remote access to system)</title>
<!-- Node3 -->
<g id="node1" class="node"><title>Node3</title>
<g id="a_node1"><a xlink:href="group___b_o_o_t_l_o_a_d_e_r.html" target="_top" xlink:title="Bootloader Functions">
<polygon fill="none" stroke="black" points="250.749,-37 250.749,-55 361.251,-55 361.251,-37 250.749,-37"/>
<text text-anchor="middle" x="306" y="-43" font-family="Helvetica,sans-Serif" font-size="10.00">Bootloader Functions</text>
</a>
</g>
</g>
<!-- Node1 -->
<g id="node2" class="node"><title>Node1</title>
<g id="a_node2"><a xlink:href="group___s_t_f_y.html" target="_top" xlink:title="Stratify OS">
<polygon fill="none" stroke="black" points="-0.172363,-18 -0.172363,-36 64.1724,-36 64.1724,-18 -0.172363,-18"/>
<text text-anchor="middle" x="32" y="-24" font-family="Helvetica,sans-Serif" font-size="10.00">Stratify OS</text>
</a>
</g>
</g>
<!-- Node0 -->
<g id="node3" class="node"><title>Node0</title>
<polygon fill="#bfbfbf" stroke="black" points="100.65,-8 100.65,-46 213.35,-46 213.35,-8 100.65,-8"/>
<text text-anchor="start" x="108.65" y="-34" font-family="Helvetica,sans-Serif" font-size="10.00">Link Transport Layer</text>
<text text-anchor="start" x="108.65" y="-24" font-family="Helvetica,sans-Serif" font-size="10.00"> (for remote access to</text>
<text text-anchor="middle" x="157" y="-14" font-family="Helvetica,sans-Serif" font-size="10.00"> system)</text>
</g>
<!-- Node1&#45;&gt;Node0 -->
<g id="edge1" class="edge"><title>Node1&#45;&gt;Node0</title>
<path fill="none" stroke="black" d="M74.5146,-27C82.8054,-27 91.6399,-27 100.318,-27"/>
<polygon fill="black" stroke="black" points="74.3564,-23.5001 64.3563,-27 74.3563,-30.5001 74.3564,-23.5001"/>
</g>
<!-- Node0&#45;&gt;Node3 -->
<g id="edge3" class="edge"><title>Node0&#45;&gt;Node3</title>
<path fill="none" stroke="black" d="M223.57,-35.475C232.508,-36.6302 241.604,-37.8059 250.321,-38.9327"/>
<polygon fill="black" stroke="black" points="223.941,-31.9939 213.574,-34.1831 223.043,-38.9362 223.941,-31.9939"/>
</g>
<!-- Node2 -->
<g id="node4" class="node"><title>Node2</title>
<g id="a_node4"><a xlink:href="group___u_s_b___h_a_n_d_l_e.html" target="_top" xlink:title="Device Handling">
<polygon fill="none" stroke="black" points="261.591,-0 261.591,-18 350.409,-18 350.409,-0 261.591,-0"/>
<text text-anchor="middle" x="306" y="-6" font-family="Helvetica,sans-Serif" font-size="10.00">Device Handling</text>
</a>
</g>
</g>
<!-- Node0&#45;&gt;Node2 -->
<g id="edge2" class="edge"><title>Node0&#45;&gt;Node2</title>
<path fill="none" stroke="black" d="M223.683,-18.9572C236.408,-17.399 249.45,-15.802 261.259,-14.356"/>
<polygon fill="black" stroke="black" points="223.075,-15.5054 213.574,-20.195 223.926,-22.4535 223.075,-15.5054"/>
</g>
</g>
</svg>
