<?xml version="1.0" encoding="UTF-8" standalone="no"?>
<!DOCTYPE svg PUBLIC "-//W3C//DTD SVG 1.1//EN"
 "http://www.w3.org/Graphics/SVG/1.1/DTD/svg11.dtd">
<!-- Generated by graphviz version 2.36.0 (20140111.2315)
 -->
<!-- Title: src/sys/unistd/ioctl.c Pages: 1 -->
<svg width="499pt" height="140pt"
 viewBox="0.00 0.00 499.00 140.00" xmlns="http://www.w3.org/2000/svg" xmlns:xlink="http://www.w3.org/1999/xlink">
<g id="graph0" class="graph" transform="scale(1 1) rotate(0) translate(4 136)">
<title>src/sys/unistd/ioctl.c</title>
<!-- Node1 -->
<g id="node1" class="node"><title>Node1</title>
<polygon fill="#bfbfbf" stroke="black" points="206.544,-113 206.544,-131 311.456,-131 311.456,-113 206.544,-113"/>
<text text-anchor="middle" x="259" y="-119" font-family="Helvetica,sans-Serif" font-size="10.00">src/sys/unistd/ioctl.c</text>
</g>
<!-- Node2 -->
<g id="node2" class="node"><title>Node2</title>
<g id="a_node2"><a xlink:href="config_8h.html" target="_top" xlink:title="config.h">
<polygon fill="none" stroke="black" points="49.4878,-57 49.4878,-75 100.512,-75 100.512,-57 49.4878,-57"/>
<text text-anchor="middle" x="75" y="-63" font-family="Helvetica,sans-Serif" font-size="10.00">config.h</text>
</a>
</g>
</g>
<!-- Node1&#45;&gt;Node2 -->
<g id="edge1" class="edge"><title>Node1&#45;&gt;Node2</title>
<path fill="none" stroke="midnightblue" d="M231.453,-112.916C199.243,-103.463 145.851,-87.7933 110.544,-77.4314"/>
<polygon fill="midnightblue" stroke="midnightblue" points="111.236,-73.9868 100.655,-74.5291 109.264,-80.7036 111.236,-73.9868"/>
</g>
<!-- Node5 -->
<g id="node5" class="node"><title>Node5</title>
<polygon fill="none" stroke="#bfbfbf" points="118.549,-57 118.549,-75 183.451,-75 183.451,-57 118.549,-57"/>
<text text-anchor="middle" x="151" y="-63" font-family="Helvetica,sans-Serif" font-size="10.00">mcu/mcu.h</text>
</g>
<!-- Node1&#45;&gt;Node5 -->
<g id="edge4" class="edge"><title>Node1&#45;&gt;Node5</title>
<path fill="none" stroke="midnightblue" d="M242.597,-112.799C224.971,-103.986 196.737,-89.8683 176.27,-79.6349"/>
<polygon fill="midnightblue" stroke="midnightblue" points="177.713,-76.4434 167.203,-75.1017 174.582,-82.7044 177.713,-76.4434"/>
</g>
<!-- Node6 -->
<g id="node6" class="node"><title>Node6</title>
<polygon fill="none" stroke="#bfbfbf" points="201.158,-57 201.158,-75 248.842,-75 248.842,-57 201.158,-57"/>
<text text-anchor="middle" x="225" y="-63" font-family="Helvetica,sans-Serif" font-size="10.00">errno.h</text>
</g>
<!-- Node1&#45;&gt;Node6 -->
<g id="edge5" class="edge"><title>Node1&#45;&gt;Node6</title>
<path fill="none" stroke="midnightblue" d="M253.688,-112.562C248.869,-104.909 241.622,-93.3999 235.618,-83.8638"/>
<polygon fill="midnightblue" stroke="midnightblue" points="238.454,-81.7989 230.164,-75.2014 232.53,-85.5286 238.454,-81.7989"/>
</g>
<!-- Node7 -->
<g id="node7" class="node"><title>Node7</title>
<polygon fill="none" stroke="#bfbfbf" points="266.934,-57 266.934,-75 319.066,-75 319.066,-57 266.934,-57"/>
<text text-anchor="middle" x="293" y="-63" font-family="Helvetica,sans-Serif" font-size="10.00">stdarg.h</text>
</g>
<!-- Node1&#45;&gt;Node7 -->
<g id="edge6" class="edge"><title>Node1&#45;&gt;Node7</title>
<path fill="none" stroke="midnightblue" d="M264.312,-112.562C269.131,-104.909 276.378,-93.3999 282.382,-83.8638"/>
<polygon fill="midnightblue" stroke="midnightblue" points="285.47,-85.5286 287.836,-75.2014 279.546,-81.7989 285.47,-85.5286"/>
</g>
<!-- Node8 -->
<g id="node8" class="node"><title>Node8</title>
<polygon fill="none" stroke="#bfbfbf" points="337.269,-57 337.269,-75 402.731,-75 402.731,-57 337.269,-57"/>
<text text-anchor="middle" x="370" y="-63" font-family="Helvetica,sans-Serif" font-size="10.00">mcu/core.h</text>
</g>
<!-- Node1&#45;&gt;Node8 -->
<g id="edge7" class="edge"><title>Node1&#45;&gt;Node8</title>
<path fill="none" stroke="midnightblue" d="M275.859,-112.799C294.056,-103.946 323.256,-89.7404 344.313,-79.4963"/>
<polygon fill="midnightblue" stroke="midnightblue" points="345.885,-82.6237 353.347,-75.1017 342.823,-76.3291 345.885,-82.6237"/>
</g>
<!-- Node9 -->
<g id="node9" class="node"><title>Node9</title>
<polygon fill="none" stroke="#bfbfbf" points="420.488,-57 420.488,-75 491.512,-75 491.512,-57 420.488,-57"/>
<text text-anchor="middle" x="456" y="-63" font-family="Helvetica,sans-Serif" font-size="10.00">device/sys.h</text>
</g>
<!-- Node1&#45;&gt;Node9 -->
<g id="edge8" class="edge"><title>Node1&#45;&gt;Node9</title>
<path fill="none" stroke="midnightblue" d="M288.493,-112.916C322.683,-103.544 379.166,-88.061 416.97,-77.6986"/>
<polygon fill="midnightblue" stroke="midnightblue" points="417.909,-81.0705 426.628,-75.0513 416.058,-74.3195 417.909,-81.0705"/>
</g>
<!-- Node3 -->
<g id="node3" class="node"><title>Node3</title>
<polygon fill="none" stroke="#bfbfbf" points="-0.908691,-1 -0.908691,-19 72.9087,-19 72.9087,-1 -0.908691,-1"/>
<text text-anchor="middle" x="36" y="-7" font-family="Helvetica,sans-Serif" font-size="10.00">mcu/debug.h</text>
</g>
<!-- Node2&#45;&gt;Node3 -->
<g id="edge2" class="edge"><title>Node2&#45;&gt;Node3</title>
<path fill="none" stroke="midnightblue" d="M68.9062,-56.5625C63.3215,-48.8297 54.8931,-37.1597 47.9647,-27.5665"/>
<polygon fill="midnightblue" stroke="midnightblue" points="50.6156,-25.259 41.9233,-19.2014 44.9408,-29.3575 50.6156,-25.259"/>
</g>
<!-- Node4 -->
<g id="node4" class="node"><title>Node4</title>
<polygon fill="none" stroke="#bfbfbf" points="90.8794,-1 90.8794,-19 139.121,-19 139.121,-1 90.8794,-1"/>
<text text-anchor="middle" x="115" y="-7" font-family="Helvetica,sans-Serif" font-size="10.00">stdint.h</text>
</g>
<!-- Node2&#45;&gt;Node4 -->
<g id="edge3" class="edge"><title>Node2&#45;&gt;Node4</title>
<path fill="none" stroke="midnightblue" d="M81.25,-56.5625C87.037,-48.75 95.801,-36.9187 102.948,-27.2704"/>
<polygon fill="midnightblue" stroke="midnightblue" points="105.785,-29.3203 108.925,-19.2014 100.16,-25.1537 105.785,-29.3203"/>
</g>
</g>
</svg>
