<?xml version="1.0" encoding="UTF-8" standalone="no"?>
<!DOCTYPE svg PUBLIC "-//W3C//DTD SVG 1.1//EN"
 "http://www.w3.org/Graphics/SVG/1.1/DTD/svg11.dtd">
<!-- Generated by graphviz version 2.36.0 (20140111.2315)
 -->
<!-- Title: src/sys/pthread/pthread_mutexattr.c Pages: 1 -->
<svg width="250pt" height="150pt"
 viewBox="0.00 0.00 250.00 150.00" xmlns="http://www.w3.org/2000/svg" xmlns:xlink="http://www.w3.org/1999/xlink">
<g id="graph0" class="graph" transform="scale(1 1) rotate(0) translate(4 146)">
<title>src/sys/pthread/pthread_mutexattr.c</title>
<!-- Node1 -->
<g id="node1" class="node"><title>Node1</title>
<polygon fill="#bfbfbf" stroke="black" points="87.7515,-113 87.7515,-141 208.249,-141 208.249,-113 87.7515,-113"/>
<text text-anchor="start" x="95.7515" y="-129" font-family="Helvetica,sans-Serif" font-size="10.00">src/sys/pthread/pthread</text>
<text text-anchor="middle" x="148" y="-119" font-family="Helvetica,sans-Serif" font-size="10.00">_mutexattr.c</text>
</g>
<!-- Node2 -->
<g id="node2" class="node"><title>Node2</title>
<g id="a_node2"><a xlink:href="config_8h.html" target="_top" xlink:title="config.h">
<polygon fill="none" stroke="black" points="49.4878,-57 49.4878,-75 100.512,-75 100.512,-57 49.4878,-57"/>
<text text-anchor="middle" x="75" y="-63" font-family="Helvetica,sans-Serif" font-size="10.00">config.h</text>
</a>
</g>
</g>
<!-- Node1&#45;&gt;Node2 -->
<g id="edge1" class="edge"><title>Node1&#45;&gt;Node2</title>
<path fill="none" stroke="midnightblue" d="M131.799,-112.906C120.307,-103.618 104.878,-91.1479 93.0013,-81.549"/>
<polygon fill="midnightblue" stroke="midnightblue" points="95.0655,-78.7171 85.088,-75.1534 90.6654,-84.1613 95.0655,-78.7171"/>
</g>
<!-- Node5 -->
<g id="node5" class="node"><title>Node5</title>
<polygon fill="none" stroke="#bfbfbf" points="118.872,-57 118.872,-75 177.128,-75 177.128,-57 118.872,-57"/>
<text text-anchor="middle" x="148" y="-63" font-family="Helvetica,sans-Serif" font-size="10.00">pthread.h</text>
</g>
<!-- Node1&#45;&gt;Node5 -->
<g id="edge4" class="edge"><title>Node1&#45;&gt;Node5</title>
<path fill="none" stroke="midnightblue" d="M148,-112.906C148,-104.79 148,-94.245 148,-85.3086"/>
<polygon fill="midnightblue" stroke="midnightblue" points="151.5,-85.1533 148,-75.1534 144.5,-85.1534 151.5,-85.1533"/>
</g>
<!-- Node6 -->
<g id="node6" class="node"><title>Node6</title>
<polygon fill="none" stroke="#bfbfbf" points="195.158,-57 195.158,-75 242.842,-75 242.842,-57 195.158,-57"/>
<text text-anchor="middle" x="219" y="-63" font-family="Helvetica,sans-Serif" font-size="10.00">errno.h</text>
</g>
<!-- Node1&#45;&gt;Node6 -->
<g id="edge5" class="edge"><title>Node1&#45;&gt;Node6</title>
<path fill="none" stroke="midnightblue" d="M163.757,-112.906C174.935,-103.618 189.941,-91.1479 201.492,-81.549"/>
<polygon fill="midnightblue" stroke="midnightblue" points="203.734,-84.2365 209.188,-75.1534 199.26,-78.8527 203.734,-84.2365"/>
</g>
<!-- Node3 -->
<g id="node3" class="node"><title>Node3</title>
<polygon fill="none" stroke="#bfbfbf" points="-0.908691,-1 -0.908691,-19 72.9087,-19 72.9087,-1 -0.908691,-1"/>
<text text-anchor="middle" x="36" y="-7" font-family="Helvetica,sans-Serif" font-size="10.00">mcu/debug.h</text>
</g>
<!-- Node2&#45;&gt;Node3 -->
<g id="edge2" class="edge"><title>Node2&#45;&gt;Node3</title>
<path fill="none" stroke="midnightblue" d="M68.9062,-56.5625C63.3215,-48.8297 54.8931,-37.1597 47.9647,-27.5665"/>
<polygon fill="midnightblue" stroke="midnightblue" points="50.6156,-25.259 41.9233,-19.2014 44.9408,-29.3575 50.6156,-25.259"/>
</g>
<!-- Node4 -->
<g id="node4" class="node"><title>Node4</title>
<polygon fill="none" stroke="#bfbfbf" points="90.8794,-1 90.8794,-19 139.121,-19 139.121,-1 90.8794,-1"/>
<text text-anchor="middle" x="115" y="-7" font-family="Helvetica,sans-Serif" font-size="10.00">stdint.h</text>
</g>
<!-- Node2&#45;&gt;Node4 -->
<g id="edge3" class="edge"><title>Node2&#45;&gt;Node4</title>
<path fill="none" stroke="midnightblue" d="M81.25,-56.5625C87.037,-48.75 95.801,-36.9187 102.948,-27.2704"/>
<polygon fill="midnightblue" stroke="midnightblue" points="105.785,-29.3203 108.925,-19.2014 100.16,-25.1537 105.785,-29.3203"/>
</g>
</g>
</svg>
