<?xml version="1.0" encoding="UTF-8" standalone="no"?>
<!DOCTYPE svg PUBLIC "-//W3C//DTD SVG 1.1//EN"
 "http://www.w3.org/Graphics/SVG/1.1/DTD/svg11.dtd">
<!-- Generated by graphviz version 2.36.0 (20140111.2315)
 -->
<!-- Title: src/sys/signal/pthread_kill.c Pages: 1 -->
<svg width="725pt" height="150pt"
 viewBox="0.00 0.00 725.00 150.00" xmlns="http://www.w3.org/2000/svg" xmlns:xlink="http://www.w3.org/1999/xlink">
<g id="graph0" class="graph" transform="scale(1 1) rotate(0) translate(4 146)">
<title>src/sys/signal/pthread_kill.c</title>
<!-- Node1 -->
<g id="node1" class="node"><title>Node1</title>
<polygon fill="#bfbfbf" stroke="black" points="311.646,-113 311.646,-141 424.354,-141 424.354,-113 311.646,-113"/>
<text text-anchor="start" x="319.646" y="-129" font-family="Helvetica,sans-Serif" font-size="10.00">src/sys/signal/pthread</text>
<text text-anchor="middle" x="368" y="-119" font-family="Helvetica,sans-Serif" font-size="10.00">_kill.c</text>
</g>
<!-- Node2 -->
<g id="node2" class="node"><title>Node2</title>
<polygon fill="none" stroke="#bfbfbf" points="-0.12793,-1 -0.12793,-19 58.1279,-19 58.1279,-1 -0.12793,-1"/>
<text text-anchor="middle" x="29" y="-7" font-family="Helvetica,sans-Serif" font-size="10.00">pthread.h</text>
</g>
<!-- Node1&#45;&gt;Node2 -->
<g id="edge1" class="edge"><title>Node1&#45;&gt;Node2</title>
<path fill="none" stroke="midnightblue" d="M311.514,-113.408C273.6,-104.385 222.773,-91.1779 179,-76 134.189,-60.4623 83.9642,-37.5126 54.4879,-23.4483"/>
<polygon fill="midnightblue" stroke="midnightblue" points="55.8539,-20.2216 45.3248,-19.0429 52.8207,-26.5303 55.8539,-20.2216"/>
</g>
<!-- Node3 -->
<g id="node3" class="node"><title>Node3</title>
<g id="a_node3"><a xlink:href="config_8h.html" target="_top" xlink:title="config.h">
<polygon fill="none" stroke="black" points="396.488,-57 396.488,-75 447.512,-75 447.512,-57 396.488,-57"/>
<text text-anchor="middle" x="422" y="-63" font-family="Helvetica,sans-Serif" font-size="10.00">config.h</text>
</a>
</g>
</g>
<!-- Node1&#45;&gt;Node3 -->
<g id="edge2" class="edge"><title>Node1&#45;&gt;Node3</title>
<path fill="none" stroke="midnightblue" d="M379.984,-112.906C388.155,-103.978 399.016,-92.1117 407.649,-82.6799"/>
<polygon fill="midnightblue" stroke="midnightblue" points="410.368,-84.8932 414.538,-75.1534 405.204,-80.167 410.368,-84.8932"/>
</g>
<!-- Node4 -->
<g id="node4" class="node"><title>Node4</title>
<polygon fill="none" stroke="#bfbfbf" points="577.091,-1 577.091,-19 650.909,-19 650.909,-1 577.091,-1"/>
<text text-anchor="middle" x="614" y="-7" font-family="Helvetica,sans-Serif" font-size="10.00">mcu/debug.h</text>
</g>
<!-- Node1&#45;&gt;Node4 -->
<g id="edge7" class="edge"><title>Node1&#45;&gt;Node4</title>
<path fill="none" stroke="midnightblue" d="M367.686,-112.832C368.067,-96.9874 371.255,-70.6893 387,-56 388.656,-54.4553 500.643,-32.7528 566.683,-20.0614"/>
<polygon fill="midnightblue" stroke="midnightblue" points="567.703,-23.4295 576.863,-18.1063 566.383,-16.5551 567.703,-23.4295"/>
</g>
<!-- Node6 -->
<g id="node6" class="node"><title>Node6</title>
<polygon fill="none" stroke="#bfbfbf" points="76.5493,-1 76.5493,-19 141.451,-19 141.451,-1 76.5493,-1"/>
<text text-anchor="middle" x="109" y="-7" font-family="Helvetica,sans-Serif" font-size="10.00">mcu/mcu.h</text>
</g>
<!-- Node1&#45;&gt;Node6 -->
<g id="edge5" class="edge"><title>Node1&#45;&gt;Node6</title>
<path fill="none" stroke="midnightblue" d="M322.067,-112.946C292.616,-103.953 253.881,-90.9549 221,-76 187.694,-60.8517 151.469,-38.6933 129.498,-24.5605"/>
<polygon fill="midnightblue" stroke="midnightblue" points="131.296,-21.555 121.005,-19.0388 127.481,-27.4238 131.296,-21.555"/>
</g>
<!-- Node7 -->
<g id="node7" class="node"><title>Node7</title>
<polygon fill="none" stroke="#bfbfbf" points="159.825,-1 159.825,-19 224.175,-19 224.175,-1 159.825,-1"/>
<text text-anchor="middle" x="192" y="-7" font-family="Helvetica,sans-Serif" font-size="10.00">mcu/task.h</text>
</g>
<!-- Node1&#45;&gt;Node7 -->
<g id="edge6" class="edge"><title>Node1&#45;&gt;Node7</title>
<path fill="none" stroke="midnightblue" d="M320.769,-112.981C296.612,-104.853 267.617,-92.7137 245,-76 227.133,-62.7964 211.737,-42.242 202.213,-27.7894"/>
<polygon fill="midnightblue" stroke="midnightblue" points="205.148,-25.8814 196.836,-19.3116 199.236,-29.6309 205.148,-25.8814"/>
</g>
<!-- Node8 -->
<g id="node8" class="node"><title>Node8</title>
<polygon fill="none" stroke="#bfbfbf" points="465.766,-57 465.766,-75 516.234,-75 516.234,-57 465.766,-57"/>
<text text-anchor="middle" x="491" y="-63" font-family="Helvetica,sans-Serif" font-size="10.00">signal.h</text>
</g>
<!-- Node1&#45;&gt;Node8 -->
<g id="edge8" class="edge"><title>Node1&#45;&gt;Node8</title>
<path fill="none" stroke="midnightblue" d="M395.298,-112.906C416.071,-102.941 444.479,-89.3151 464.94,-79.5001"/>
<polygon fill="midnightblue" stroke="midnightblue" points="466.5,-82.6341 474.002,-75.1534 463.472,-76.3226 466.5,-82.6341"/>
</g>
<!-- Node9 -->
<g id="node9" class="node"><title>Node9</title>
<polygon fill="none" stroke="#bfbfbf" points="534.158,-57 534.158,-75 581.842,-75 581.842,-57 534.158,-57"/>
<text text-anchor="middle" x="558" y="-63" font-family="Helvetica,sans-Serif" font-size="10.00">errno.h</text>
</g>
<!-- Node1&#45;&gt;Node9 -->
<g id="edge9" class="edge"><title>Node1&#45;&gt;Node9</title>
<path fill="none" stroke="midnightblue" d="M410.167,-112.906C444.498,-102.245 492.325,-87.3938 524.18,-77.5019"/>
<polygon fill="midnightblue" stroke="midnightblue" points="525.412,-80.7843 533.924,-74.4761 523.336,-74.0992 525.412,-80.7843"/>
</g>
<!-- Node10 -->
<g id="node10" class="node"><title>Node10</title>
<g id="a_node10"><a xlink:href="stratify_8h.html" target="_top" xlink:title="stratify/stratify.h">
<polygon fill="none" stroke="black" points="254.361,-57 254.361,-75 339.639,-75 339.639,-57 254.361,-57"/>
<text text-anchor="middle" x="297" y="-63" font-family="Helvetica,sans-Serif" font-size="10.00">stratify/stratify.h</text>
</a>
</g>
</g>
<!-- Node1&#45;&gt;Node10 -->
<g id="edge10" class="edge"><title>Node1&#45;&gt;Node10</title>
<path fill="none" stroke="midnightblue" d="M352.243,-112.906C341.065,-103.618 326.059,-91.1479 314.508,-81.549"/>
<polygon fill="midnightblue" stroke="midnightblue" points="316.74,-78.8527 306.812,-75.1534 312.266,-84.2365 316.74,-78.8527"/>
</g>
<!-- Node16 -->
<g id="node16" class="node"><title>Node16</title>
<polygon fill="none" stroke="#bfbfbf" points="600.247,-57 600.247,-75 715.753,-75 715.753,-57 600.247,-57"/>
<text text-anchor="middle" x="658" y="-63" font-family="Helvetica,sans-Serif" font-size="10.00">../sched/sched_flags.h</text>
</g>
<!-- Node1&#45;&gt;Node16 -->
<g id="edge19" class="edge"><title>Node1&#45;&gt;Node16</title>
<path fill="none" stroke="midnightblue" d="M424.603,-114.484C478.072,-103.606 557.471,-87.4524 608.484,-77.074"/>
<polygon fill="midnightblue" stroke="midnightblue" points="609.19,-80.502 618.292,-75.0785 607.795,-73.6425 609.19,-80.502"/>
</g>
<!-- Node3&#45;&gt;Node4 -->
<g id="edge3" class="edge"><title>Node3&#45;&gt;Node4</title>
<path fill="none" stroke="midnightblue" d="M447.894,-57.7173C480.781,-48.4679 537.802,-32.4306 575.719,-21.7666"/>
<polygon fill="midnightblue" stroke="midnightblue" points="576.716,-25.122 585.395,-19.0452 574.821,-18.3834 576.716,-25.122"/>
</g>
<!-- Node5 -->
<g id="node5" class="node"><title>Node5</title>
<polygon fill="none" stroke="#bfbfbf" points="668.879,-1 668.879,-19 717.121,-19 717.121,-1 668.879,-1"/>
<text text-anchor="middle" x="693" y="-7" font-family="Helvetica,sans-Serif" font-size="10.00">stdint.h</text>
</g>
<!-- Node3&#45;&gt;Node5 -->
<g id="edge4" class="edge"><title>Node3&#45;&gt;Node5</title>
<path fill="none" stroke="midnightblue" d="M447.561,-58.1902C450.731,-57.4156 453.935,-56.6663 457,-56 543.066,-37.293 568.251,-39.5019 658.692,-19.8965"/>
<polygon fill="midnightblue" stroke="midnightblue" points="659.529,-23.2961 668.545,-17.7312 658.027,-16.4593 659.529,-23.2961"/>
</g>
<!-- Node10&#45;&gt;Node2 -->
<g id="edge15" class="edge"><title>Node10&#45;&gt;Node2</title>
<path fill="none" stroke="midnightblue" d="M254.287,-57.0398C210.296,-48.7448 139.503,-35.1292 68.3971,-20.0256"/>
<polygon fill="midnightblue" stroke="midnightblue" points="68.8747,-16.5487 58.3644,-17.8849 67.4139,-23.3946 68.8747,-16.5487"/>
</g>
<!-- Node10&#45;&gt;Node6 -->
<g id="edge17" class="edge"><title>Node10&#45;&gt;Node6</title>
<path fill="none" stroke="midnightblue" d="M268.855,-56.9157C236.365,-47.5835 182.782,-32.1927 146.709,-21.8312"/>
<polygon fill="midnightblue" stroke="midnightblue" points="147.608,-18.4481 137.03,-19.0513 145.676,-25.1761 147.608,-18.4481"/>
</g>
<!-- Node10&#45;&gt;Node7 -->
<g id="edge18" class="edge"><title>Node10&#45;&gt;Node7</title>
<path fill="none" stroke="midnightblue" d="M281.053,-56.7986C263.994,-48.0256 236.714,-33.9959 216.838,-23.7741"/>
<polygon fill="midnightblue" stroke="midnightblue" points="218.247,-20.5627 207.753,-19.1017 215.045,-26.7877 218.247,-20.5627"/>
</g>
<!-- Node11 -->
<g id="node11" class="node"><title>Node11</title>
<polygon fill="none" stroke="#bfbfbf" points="242.269,-1 242.269,-19 287.731,-19 287.731,-1 242.269,-1"/>
<text text-anchor="middle" x="265" y="-7" font-family="Helvetica,sans-Serif" font-size="10.00">stdio.h</text>
</g>
<!-- Node10&#45;&gt;Node11 -->
<g id="edge11" class="edge"><title>Node10&#45;&gt;Node11</title>
<path fill="none" stroke="midnightblue" d="M292,-56.5625C287.465,-48.9094 280.644,-37.3999 274.993,-27.8638"/>
<polygon fill="midnightblue" stroke="midnightblue" points="277.969,-26.02 269.86,-19.2014 271.947,-29.5887 277.969,-26.02"/>
</g>
<!-- Node12 -->
<g id="node12" class="node"><title>Node12</title>
<polygon fill="none" stroke="#bfbfbf" points="305.604,-1 305.604,-19 354.396,-19 354.396,-1 305.604,-1"/>
<text text-anchor="middle" x="330" y="-7" font-family="Helvetica,sans-Serif" font-size="10.00">string.h</text>
</g>
<!-- Node10&#45;&gt;Node12 -->
<g id="edge12" class="edge"><title>Node10&#45;&gt;Node12</title>
<path fill="none" stroke="midnightblue" d="M302.156,-56.5625C306.833,-48.9094 313.867,-37.3999 319.694,-27.8638"/>
<polygon fill="midnightblue" stroke="midnightblue" points="322.76,-29.5594 324.988,-19.2014 316.787,-25.9092 322.76,-29.5594"/>
</g>
<!-- Node13 -->
<g id="node13" class="node"><title>Node13</title>
<polygon fill="none" stroke="#bfbfbf" points="372.158,-1 372.158,-19 419.842,-19 419.842,-1 372.158,-1"/>
<text text-anchor="middle" x="396" y="-7" font-family="Helvetica,sans-Serif" font-size="10.00">stdlib.h</text>
</g>
<!-- Node10&#45;&gt;Node13 -->
<g id="edge13" class="edge"><title>Node10&#45;&gt;Node13</title>
<path fill="none" stroke="midnightblue" d="M312.036,-56.7986C328.047,-48.0654 353.607,-34.1234 372.325,-23.9137"/>
<polygon fill="midnightblue" stroke="midnightblue" points="374.044,-26.9629 381.147,-19.1017 370.692,-20.8176 374.044,-26.9629"/>
</g>
<!-- Node14 -->
<g id="node14" class="node"><title>Node14</title>
<polygon fill="none" stroke="#bfbfbf" points="437.384,-1 437.384,-19 480.616,-19 480.616,-1 437.384,-1"/>
<text text-anchor="middle" x="459" y="-7" font-family="Helvetica,sans-Serif" font-size="10.00">time.h</text>
</g>
<!-- Node10&#45;&gt;Node14 -->
<g id="edge14" class="edge"><title>Node10&#45;&gt;Node14</title>
<path fill="none" stroke="midnightblue" d="M321.253,-56.9157C349.607,-47.4642 396.605,-31.7982 427.691,-21.4363"/>
<polygon fill="midnightblue" stroke="midnightblue" points="428.801,-24.7558 437.181,-18.273 426.587,-18.115 428.801,-24.7558"/>
</g>
<!-- Node15 -->
<g id="node15" class="node"><title>Node15</title>
<polygon fill="none" stroke="#bfbfbf" points="499.049,-1 499.049,-19 558.951,-19 558.951,-1 499.049,-1"/>
<text text-anchor="middle" x="529" y="-7" font-family="Helvetica,sans-Serif" font-size="10.00">sys/lock.h</text>
</g>
<!-- Node10&#45;&gt;Node15 -->
<g id="edge16" class="edge"><title>Node10&#45;&gt;Node15</title>
<path fill="none" stroke="midnightblue" d="M331.482,-56.974C373.523,-47.1886 444.449,-30.6801 488.89,-20.3359"/>
<polygon fill="midnightblue" stroke="midnightblue" points="489.821,-23.7129 498.767,-18.0369 488.234,-16.8951 489.821,-23.7129"/>
</g>
</g>
</svg>
