<?xml version="1.0" encoding="UTF-8" standalone="no"?>
<!DOCTYPE svg PUBLIC "-//W3C//DTD SVG 1.1//EN"
 "http://www.w3.org/Graphics/SVG/1.1/DTD/svg11.dtd">
<!-- Generated by graphviz version 2.36.0 (20140111.2315)
 -->
<!-- Title: src/sys/pthread/pthread_mutex.c Pages: 1 -->
<svg width="543pt" height="150pt"
 viewBox="0.00 0.00 543.00 150.00" xmlns="http://www.w3.org/2000/svg" xmlns:xlink="http://www.w3.org/1999/xlink">
<g id="graph0" class="graph" transform="scale(1 1) rotate(0) translate(4 146)">
<title>src/sys/pthread/pthread_mutex.c</title>
<!-- Node1 -->
<g id="node1" class="node"><title>Node1</title>
<polygon fill="#bfbfbf" stroke="black" points="173.751,-113 173.751,-141 294.249,-141 294.249,-113 173.751,-113"/>
<text text-anchor="start" x="181.751" y="-129" font-family="Helvetica,sans-Serif" font-size="10.00">src/sys/pthread/pthread</text>
<text text-anchor="middle" x="234" y="-119" font-family="Helvetica,sans-Serif" font-size="10.00">_mutex.c</text>
</g>
<!-- Node2 -->
<g id="node2" class="node"><title>Node2</title>
<g id="a_node2"><a xlink:href="config_8h.html" target="_top" xlink:title="config.h">
<polygon fill="none" stroke="black" points="64.4878,-57 64.4878,-75 115.512,-75 115.512,-57 64.4878,-57"/>
<text text-anchor="middle" x="90" y="-63" font-family="Helvetica,sans-Serif" font-size="10.00">config.h</text>
</a>
</g>
</g>
<!-- Node1&#45;&gt;Node2 -->
<g id="edge1" class="edge"><title>Node1&#45;&gt;Node2</title>
<path fill="none" stroke="midnightblue" d="M202.042,-112.906C177.281,-102.761 143.257,-88.8206 119.217,-78.971"/>
<polygon fill="midnightblue" stroke="midnightblue" points="120.48,-75.706 109.9,-75.1534 117.826,-82.1834 120.48,-75.706"/>
</g>
<!-- Node3 -->
<g id="node3" class="node"><title>Node3</title>
<polygon fill="none" stroke="#bfbfbf" points="-0.908691,-1 -0.908691,-19 72.9087,-19 72.9087,-1 -0.908691,-1"/>
<text text-anchor="middle" x="36" y="-7" font-family="Helvetica,sans-Serif" font-size="10.00">mcu/debug.h</text>
</g>
<!-- Node1&#45;&gt;Node3 -->
<g id="edge8" class="edge"><title>Node1&#45;&gt;Node3</title>
<path fill="none" stroke="midnightblue" d="M173.456,-123.671C134.782,-119.026 86.2147,-106.842 55,-76 42.5938,-63.7418 38.1857,-43.8641 36.6722,-29.3136"/>
<polygon fill="midnightblue" stroke="midnightblue" points="40.1441,-28.7766 35.9815,-19.0338 33.1599,-29.246 40.1441,-28.7766"/>
</g>
<!-- Node5 -->
<g id="node5" class="node"><title>Node5</title>
<polygon fill="none" stroke="#bfbfbf" points="133.707,-57 133.707,-75 190.293,-75 190.293,-57 133.707,-57"/>
<text text-anchor="middle" x="162" y="-63" font-family="Helvetica,sans-Serif" font-size="10.00">stdbool.h</text>
</g>
<!-- Node1&#45;&gt;Node5 -->
<g id="edge4" class="edge"><title>Node1&#45;&gt;Node5</title>
<path fill="none" stroke="midnightblue" d="M218.021,-112.906C206.686,-103.618 191.469,-91.1479 179.755,-81.549"/>
<polygon fill="midnightblue" stroke="midnightblue" points="181.903,-78.7844 171.95,-75.1534 177.466,-84.1988 181.903,-78.7844"/>
</g>
<!-- Node6 -->
<g id="node6" class="node"><title>Node6</title>
<polygon fill="none" stroke="#bfbfbf" points="208.488,-57 208.488,-75 259.512,-75 259.512,-57 208.488,-57"/>
<text text-anchor="middle" x="234" y="-63" font-family="Helvetica,sans-Serif" font-size="10.00">unistd.h</text>
</g>
<!-- Node1&#45;&gt;Node6 -->
<g id="edge5" class="edge"><title>Node1&#45;&gt;Node6</title>
<path fill="none" stroke="midnightblue" d="M234,-112.906C234,-104.79 234,-94.245 234,-85.3086"/>
<polygon fill="midnightblue" stroke="midnightblue" points="237.5,-85.1533 234,-75.1534 230.5,-85.1534 237.5,-85.1533"/>
</g>
<!-- Node7 -->
<g id="node7" class="node"><title>Node7</title>
<polygon fill="none" stroke="#bfbfbf" points="277.872,-57 277.872,-75 336.128,-75 336.128,-57 277.872,-57"/>
<text text-anchor="middle" x="307" y="-63" font-family="Helvetica,sans-Serif" font-size="10.00">pthread.h</text>
</g>
<!-- Node1&#45;&gt;Node7 -->
<g id="edge6" class="edge"><title>Node1&#45;&gt;Node7</title>
<path fill="none" stroke="midnightblue" d="M250.201,-112.906C261.693,-103.618 277.122,-91.1479 288.999,-81.549"/>
<polygon fill="midnightblue" stroke="midnightblue" points="291.335,-84.1613 296.912,-75.1534 286.934,-78.7171 291.335,-84.1613"/>
</g>
<!-- Node8 -->
<g id="node8" class="node"><title>Node8</title>
<polygon fill="none" stroke="#bfbfbf" points="354.158,-57 354.158,-75 401.842,-75 401.842,-57 354.158,-57"/>
<text text-anchor="middle" x="378" y="-63" font-family="Helvetica,sans-Serif" font-size="10.00">errno.h</text>
</g>
<!-- Node1&#45;&gt;Node8 -->
<g id="edge7" class="edge"><title>Node1&#45;&gt;Node8</title>
<path fill="none" stroke="midnightblue" d="M265.958,-112.906C290.719,-102.761 324.743,-88.8206 348.783,-78.971"/>
<polygon fill="midnightblue" stroke="midnightblue" points="350.174,-82.1834 358.1,-75.1534 347.52,-75.706 350.174,-82.1834"/>
</g>
<!-- Node9 -->
<g id="node9" class="node"><title>Node9</title>
<polygon fill="none" stroke="#bfbfbf" points="420.247,-57 420.247,-75 535.753,-75 535.753,-57 420.247,-57"/>
<text text-anchor="middle" x="478" y="-63" font-family="Helvetica,sans-Serif" font-size="10.00">../sched/sched_flags.h</text>
</g>
<!-- Node1&#45;&gt;Node9 -->
<g id="edge9" class="edge"><title>Node1&#45;&gt;Node9</title>
<path fill="none" stroke="midnightblue" d="M287.849,-112.979C332.096,-102.28 393.953,-87.3228 434.954,-77.4086"/>
<polygon fill="midnightblue" stroke="midnightblue" points="436.008,-80.7547 444.906,-75.0023 434.363,-73.9507 436.008,-80.7547"/>
</g>
<!-- Node2&#45;&gt;Node3 -->
<g id="edge2" class="edge"><title>Node2&#45;&gt;Node3</title>
<path fill="none" stroke="midnightblue" d="M81.5625,-56.5625C73.5108,-48.5108 61.1905,-36.1905 51.3907,-26.3907"/>
<polygon fill="midnightblue" stroke="midnightblue" points="53.7474,-23.7977 44.2014,-19.2014 48.7977,-28.7474 53.7474,-23.7977"/>
</g>
<!-- Node4 -->
<g id="node4" class="node"><title>Node4</title>
<polygon fill="none" stroke="#bfbfbf" points="90.8794,-1 90.8794,-19 139.121,-19 139.121,-1 90.8794,-1"/>
<text text-anchor="middle" x="115" y="-7" font-family="Helvetica,sans-Serif" font-size="10.00">stdint.h</text>
</g>
<!-- Node2&#45;&gt;Node4 -->
<g id="edge3" class="edge"><title>Node2&#45;&gt;Node4</title>
<path fill="none" stroke="midnightblue" d="M93.9062,-56.5625C97.3755,-49.0689 102.557,-37.8778 106.916,-28.4623"/>
<polygon fill="midnightblue" stroke="midnightblue" points="110.178,-29.7466 111.203,-19.2014 103.826,-26.8057 110.178,-29.7466"/>
</g>
</g>
</svg>
