<?xml version="1.0" encoding="UTF-8" standalone="no"?>
<!DOCTYPE svg PUBLIC "-//W3C//DTD SVG 1.1//EN"
 "http://www.w3.org/Graphics/SVG/1.1/DTD/svg11.dtd">
<!-- Generated by graphviz version 2.36.0 (20140111.2315)
 -->
<!-- Title: src/sys/pthread/pthread_self.c Pages: 1 -->
<svg width="232pt" height="94pt"
 viewBox="0.00 0.00 232.00 94.00" xmlns="http://www.w3.org/2000/svg" xmlns:xlink="http://www.w3.org/1999/xlink">
<g id="graph0" class="graph" transform="scale(1 1) rotate(0) translate(4 90)">
<title>src/sys/pthread/pthread_self.c</title>
<!-- Node1 -->
<g id="node1" class="node"><title>Node1</title>
<polygon fill="#bfbfbf" stroke="black" points="48.7515,-57 48.7515,-85 169.249,-85 169.249,-57 48.7515,-57"/>
<text text-anchor="start" x="56.7515" y="-73" font-family="Helvetica,sans-Serif" font-size="10.00">src/sys/pthread/pthread</text>
<text text-anchor="middle" x="109" y="-63" font-family="Helvetica,sans-Serif" font-size="10.00">_self.c</text>
</g>
<!-- Node2 -->
<g id="node2" class="node"><title>Node2</title>
<polygon fill="none" stroke="#bfbfbf" points="-0.12793,-1 -0.12793,-19 58.1279,-19 58.1279,-1 -0.12793,-1"/>
<text text-anchor="middle" x="29" y="-7" font-family="Helvetica,sans-Serif" font-size="10.00">pthread.h</text>
</g>
<!-- Node1&#45;&gt;Node2 -->
<g id="edge1" class="edge"><title>Node1&#45;&gt;Node2</title>
<path fill="none" stroke="midnightblue" d="M91.2454,-56.906C78.5289,-47.5276 61.4142,-34.9055 48.3494,-25.2702"/>
<polygon fill="midnightblue" stroke="midnightblue" points="50.1809,-22.272 40.0554,-19.1534 46.026,-27.9056 50.1809,-22.272"/>
</g>
<!-- Node3 -->
<g id="node3" class="node"><title>Node3</title>
<polygon fill="none" stroke="#bfbfbf" points="76.5493,-1 76.5493,-19 141.451,-19 141.451,-1 76.5493,-1"/>
<text text-anchor="middle" x="109" y="-7" font-family="Helvetica,sans-Serif" font-size="10.00">mcu/mcu.h</text>
</g>
<!-- Node1&#45;&gt;Node3 -->
<g id="edge2" class="edge"><title>Node1&#45;&gt;Node3</title>
<path fill="none" stroke="midnightblue" d="M109,-56.906C109,-48.7901 109,-38.245 109,-29.3086"/>
<polygon fill="midnightblue" stroke="midnightblue" points="112.5,-29.1533 109,-19.1534 105.5,-29.1534 112.5,-29.1533"/>
</g>
<!-- Node4 -->
<g id="node4" class="node"><title>Node4</title>
<polygon fill="none" stroke="#bfbfbf" points="159.825,-1 159.825,-19 224.175,-19 224.175,-1 159.825,-1"/>
<text text-anchor="middle" x="192" y="-7" font-family="Helvetica,sans-Serif" font-size="10.00">mcu/task.h</text>
</g>
<!-- Node1&#45;&gt;Node4 -->
<g id="edge3" class="edge"><title>Node1&#45;&gt;Node4</title>
<path fill="none" stroke="midnightblue" d="M127.42,-56.906C140.741,-47.4374 158.712,-34.6625 172.315,-24.9931"/>
<polygon fill="midnightblue" stroke="midnightblue" points="174.407,-27.7999 180.53,-19.1534 170.352,-22.0945 174.407,-27.7999"/>
</g>
</g>
</svg>
