<?xml version="1.0" encoding="UTF-8" standalone="no"?>
<!DOCTYPE svg PUBLIC "-//W3C//DTD SVG 1.1//EN"
 "http://www.w3.org/Graphics/SVG/1.1/DTD/svg11.dtd">
<!-- Generated by graphviz version 2.36.0 (20140111.2315)
 -->
<!-- Title: src/sys/pwd/pwd.c Pages: 1 -->
<svg width="115pt" height="84pt"
 viewBox="0.00 0.00 115.00 84.00" xmlns="http://www.w3.org/2000/svg" xmlns:xlink="http://www.w3.org/1999/xlink">
<g id="graph0" class="graph" transform="scale(1 1) rotate(0) translate(4 80)">
<title>src/sys/pwd/pwd.c</title>
<!-- Node1 -->
<g id="node1" class="node"><title>Node1</title>
<polygon fill="#bfbfbf" stroke="black" points="3.43359,-57 3.43359,-75 100.566,-75 100.566,-57 3.43359,-57"/>
<text text-anchor="middle" x="52" y="-63" font-family="Helvetica,sans-Serif" font-size="10.00">src/sys/pwd/pwd.c</text>
</g>
<!-- Node2 -->
<g id="node2" class="node"><title>Node2</title>
<polygon fill="none" stroke="#bfbfbf" points="-0.342285,-1 -0.342285,-19 42.3423,-19 42.3423,-1 -0.342285,-1"/>
<text text-anchor="middle" x="21" y="-7" font-family="Helvetica,sans-Serif" font-size="10.00">pwd.h</text>
</g>
<!-- Node1&#45;&gt;Node2 -->
<g id="edge1" class="edge"><title>Node1&#45;&gt;Node2</title>
<path fill="none" stroke="midnightblue" d="M47.1562,-56.5625C42.8086,-48.9891 36.2929,-37.6393 30.8525,-28.1625"/>
<polygon fill="midnightblue" stroke="midnightblue" points="33.7223,-26.1314 25.7082,-19.2014 27.6516,-29.6165 33.7223,-26.1314"/>
</g>
<!-- Node3 -->
<g id="node3" class="node"><title>Node3</title>
<polygon fill="none" stroke="#bfbfbf" points="60.1577,-1 60.1577,-19 107.842,-19 107.842,-1 60.1577,-1"/>
<text text-anchor="middle" x="84" y="-7" font-family="Helvetica,sans-Serif" font-size="10.00">errno.h</text>
</g>
<!-- Node1&#45;&gt;Node3 -->
<g id="edge2" class="edge"><title>Node1&#45;&gt;Node3</title>
<path fill="none" stroke="midnightblue" d="M57,-56.5625C61.5352,-48.9094 68.3556,-37.3999 74.0066,-27.8638"/>
<polygon fill="midnightblue" stroke="midnightblue" points="77.0528,-29.5887 79.1399,-19.2014 71.0308,-26.02 77.0528,-29.5887"/>
</g>
</g>
</svg>
