<?xml version="1.0" encoding="UTF-8" standalone="no"?>
<!DOCTYPE svg PUBLIC "-//W3C//DTD SVG 1.1//EN"
 "http://www.w3.org/Graphics/SVG/1.1/DTD/svg11.dtd">
<!-- Generated by graphviz version 2.36.0 (20140111.2315)
 -->
<!-- Title: include/iface/dev/rtc.h Pages: 1 -->
<svg width="200pt" height="84pt"
 viewBox="0.00 0.00 200.00 84.00" xmlns="http://www.w3.org/2000/svg" xmlns:xlink="http://www.w3.org/1999/xlink">
<g id="graph0" class="graph" transform="scale(1 1) rotate(0) translate(4 80)">
<title>include/iface/dev/rtc.h</title>
<!-- Node1 -->
<g id="node1" class="node"><title>Node1</title>
<polygon fill="#bfbfbf" stroke="black" points="28.6406,-57 28.6406,-75 141.359,-75 141.359,-57 28.6406,-57"/>
<text text-anchor="middle" x="85" y="-63" font-family="Helvetica,sans-Serif" font-size="10.00">include/iface/dev/rtc.h</text>
</g>
<!-- Node2 -->
<g id="node2" class="node"><title>Node2</title>
<polygon fill="none" stroke="#bfbfbf" points="-0.615723,-1 -0.615723,-19 42.6157,-19 42.6157,-1 -0.615723,-1"/>
<text text-anchor="middle" x="21" y="-7" font-family="Helvetica,sans-Serif" font-size="10.00">time.h</text>
</g>
<!-- Node1&#45;&gt;Node2 -->
<g id="edge1" class="edge"><title>Node1&#45;&gt;Node2</title>
<path fill="none" stroke="midnightblue" d="M75.2798,-56.7986C65.6001,-48.6313 50.521,-35.9083 38.7102,-25.943"/>
<polygon fill="midnightblue" stroke="midnightblue" points="40.7117,-23.0523 30.8117,-19.2786 36.1976,-28.4024 40.7117,-23.0523"/>
</g>
<!-- Node3 -->
<g id="node3" class="node"><title>Node3</title>
<polygon fill="none" stroke="#bfbfbf" points="60.8794,-1 60.8794,-19 109.121,-19 109.121,-1 60.8794,-1"/>
<text text-anchor="middle" x="85" y="-7" font-family="Helvetica,sans-Serif" font-size="10.00">stdint.h</text>
</g>
<!-- Node1&#45;&gt;Node3 -->
<g id="edge2" class="edge"><title>Node1&#45;&gt;Node3</title>
<path fill="none" stroke="midnightblue" d="M85,-56.5625C85,-49.308 85,-38.5884 85,-29.3691"/>
<polygon fill="midnightblue" stroke="midnightblue" points="88.5001,-29.2014 85,-19.2014 81.5001,-29.2015 88.5001,-29.2014"/>
</g>
<!-- Node4 -->
<g id="node4" class="node"><title>Node4</title>
<polygon fill="none" stroke="#bfbfbf" points="127.269,-1 127.269,-19 192.731,-19 192.731,-1 127.269,-1"/>
<text text-anchor="middle" x="160" y="-7" font-family="Helvetica,sans-Serif" font-size="10.00">mcu/arch.h</text>
</g>
<!-- Node1&#45;&gt;Node4 -->
<g id="edge3" class="edge"><title>Node1&#45;&gt;Node4</title>
<path fill="none" stroke="midnightblue" d="M96.3909,-56.7986C107.955,-48.4727 126.094,-35.4125 140.048,-25.3656"/>
<polygon fill="midnightblue" stroke="midnightblue" points="142.432,-27.9621 148.502,-19.2786 138.341,-22.2813 142.432,-27.9621"/>
</g>
</g>
</svg>
