<?xml version="1.0" encoding="UTF-8" standalone="no"?>
<!DOCTYPE svg PUBLIC "-//W3C//DTD SVG 1.1//EN"
 "http://www.w3.org/Graphics/SVG/1.1/DTD/svg11.dtd">
<!-- Generated by graphviz version 2.36.0 (20140111.2315)
 -->
<!-- Title: src/sys/signal/signal.c Pages: 1 -->
<svg width="348pt" height="84pt"
 viewBox="0.00 0.00 348.00 84.00" xmlns="http://www.w3.org/2000/svg" xmlns:xlink="http://www.w3.org/1999/xlink">
<g id="graph0" class="graph" transform="scale(1 1) rotate(0) translate(4 80)">
<title>src/sys/signal/signal.c</title>
<!-- Node1 -->
<g id="node1" class="node"><title>Node1</title>
<polygon fill="#bfbfbf" stroke="black" points="92.6504,-57 92.6504,-75 205.35,-75 205.35,-57 92.6504,-57"/>
<text text-anchor="middle" x="149" y="-63" font-family="Helvetica,sans-Serif" font-size="10.00">src/sys/signal/signal.c</text>
</g>
<!-- Node2 -->
<g id="node2" class="node"><title>Node2</title>
<polygon fill="none" stroke="#bfbfbf" points="-0.908691,-1 -0.908691,-19 72.9087,-19 72.9087,-1 -0.908691,-1"/>
<text text-anchor="middle" x="36" y="-7" font-family="Helvetica,sans-Serif" font-size="10.00">mcu/debug.h</text>
</g>
<!-- Node1&#45;&gt;Node2 -->
<g id="edge1" class="edge"><title>Node1&#45;&gt;Node2</title>
<path fill="none" stroke="midnightblue" d="M131.838,-56.7986C113.313,-47.9458 83.5864,-33.7404 62.1496,-23.4963"/>
<polygon fill="midnightblue" stroke="midnightblue" points="63.4854,-20.2555 52.9535,-19.1017 60.4671,-26.5714 63.4854,-20.2555"/>
</g>
<!-- Node3 -->
<g id="node3" class="node"><title>Node3</title>
<polygon fill="none" stroke="#bfbfbf" points="90.7661,-1 90.7661,-19 141.234,-19 141.234,-1 90.7661,-1"/>
<text text-anchor="middle" x="116" y="-7" font-family="Helvetica,sans-Serif" font-size="10.00">signal.h</text>
</g>
<!-- Node1&#45;&gt;Node3 -->
<g id="edge2" class="edge"><title>Node1&#45;&gt;Node3</title>
<path fill="none" stroke="midnightblue" d="M143.844,-56.5625C139.167,-48.9094 132.133,-37.3999 126.306,-27.8638"/>
<polygon fill="midnightblue" stroke="midnightblue" points="129.213,-25.9092 121.012,-19.2014 123.24,-29.5594 129.213,-25.9092"/>
</g>
<!-- Node4 -->
<g id="node4" class="node"><title>Node4</title>
<polygon fill="none" stroke="#bfbfbf" points="159.158,-1 159.158,-19 206.842,-19 206.842,-1 159.158,-1"/>
<text text-anchor="middle" x="183" y="-7" font-family="Helvetica,sans-Serif" font-size="10.00">errno.h</text>
</g>
<!-- Node1&#45;&gt;Node4 -->
<g id="edge3" class="edge"><title>Node1&#45;&gt;Node4</title>
<path fill="none" stroke="midnightblue" d="M154.312,-56.5625C159.131,-48.9094 166.378,-37.3999 172.382,-27.8638"/>
<polygon fill="midnightblue" stroke="midnightblue" points="175.47,-29.5286 177.836,-19.2014 169.546,-25.7989 175.47,-29.5286"/>
</g>
<!-- Node5 -->
<g id="node5" class="node"><title>Node5</title>
<polygon fill="none" stroke="#bfbfbf" points="225.247,-1 225.247,-19 340.753,-19 340.753,-1 225.247,-1"/>
<text text-anchor="middle" x="283" y="-7" font-family="Helvetica,sans-Serif" font-size="10.00">../sched/sched_flags.h</text>
</g>
<!-- Node1&#45;&gt;Node5 -->
<g id="edge4" class="edge"><title>Node1&#45;&gt;Node5</title>
<path fill="none" stroke="midnightblue" d="M169.061,-56.9157C191.363,-47.9285 227.607,-33.3225 253.221,-23.0005"/>
<polygon fill="midnightblue" stroke="midnightblue" points="254.835,-26.1238 262.802,-19.1396 252.218,-19.6311 254.835,-26.1238"/>
</g>
</g>
</svg>
