<?xml version="1.0" encoding="UTF-8" standalone="no"?>
<!DOCTYPE svg PUBLIC "-//W3C//DTD SVG 1.1//EN"
 "http://www.w3.org/Graphics/SVG/1.1/DTD/svg11.dtd">
<!-- Generated by graphviz version 2.36.0 (20140111.2315)
 -->
<!-- Title: src/sys/unistd/sleep.c Pages: 1 -->
<svg width="252pt" height="84pt"
 viewBox="0.00 0.00 252.00 84.00" xmlns="http://www.w3.org/2000/svg" xmlns:xlink="http://www.w3.org/1999/xlink">
<g id="graph0" class="graph" transform="scale(1 1) rotate(0) translate(4 80)">
<title>src/sys/unistd/sleep.c</title>
<!-- Node1 -->
<g id="node1" class="node"><title>Node1</title>
<polygon fill="#bfbfbf" stroke="black" points="34.4829,-57 34.4829,-75 145.517,-75 145.517,-57 34.4829,-57"/>
<text text-anchor="middle" x="90" y="-63" font-family="Helvetica,sans-Serif" font-size="10.00">src/sys/unistd/sleep.c</text>
</g>
<!-- Node2 -->
<g id="node2" class="node"><title>Node2</title>
<polygon fill="none" stroke="#bfbfbf" points="-0.512207,-1 -0.512207,-19 50.5122,-19 50.5122,-1 -0.512207,-1"/>
<text text-anchor="middle" x="25" y="-7" font-family="Helvetica,sans-Serif" font-size="10.00">unistd.h</text>
</g>
<!-- Node1&#45;&gt;Node2 -->
<g id="edge1" class="edge"><title>Node1&#45;&gt;Node2</title>
<path fill="none" stroke="midnightblue" d="M80.1279,-56.7986C70.297,-48.6313 54.9822,-35.9083 42.9869,-25.943"/>
<polygon fill="midnightblue" stroke="midnightblue" points="44.8935,-22.9767 34.965,-19.2786 40.4204,-28.361 44.8935,-22.9767"/>
</g>
<!-- Node3 -->
<g id="node3" class="node"><title>Node3</title>
<polygon fill="none" stroke="#bfbfbf" points="68.3843,-1 68.3843,-19 111.616,-19 111.616,-1 68.3843,-1"/>
<text text-anchor="middle" x="90" y="-7" font-family="Helvetica,sans-Serif" font-size="10.00">time.h</text>
</g>
<!-- Node1&#45;&gt;Node3 -->
<g id="edge2" class="edge"><title>Node1&#45;&gt;Node3</title>
<path fill="none" stroke="midnightblue" d="M90,-56.5625C90,-49.308 90,-38.5884 90,-29.3691"/>
<polygon fill="midnightblue" stroke="midnightblue" points="93.5001,-29.2014 90,-19.2014 86.5001,-29.2015 93.5001,-29.2014"/>
</g>
<!-- Node4 -->
<g id="node4" class="node"><title>Node4</title>
<polygon fill="none" stroke="#bfbfbf" points="129.247,-1 129.247,-19 244.753,-19 244.753,-1 129.247,-1"/>
<text text-anchor="middle" x="187" y="-7" font-family="Helvetica,sans-Serif" font-size="10.00">../sched/sched_flags.h</text>
</g>
<!-- Node1&#45;&gt;Node4 -->
<g id="edge3" class="edge"><title>Node1&#45;&gt;Node4</title>
<path fill="none" stroke="midnightblue" d="M104.732,-56.7986C120.348,-48.1053 145.235,-34.2506 163.552,-24.0538"/>
<polygon fill="midnightblue" stroke="midnightblue" points="165.412,-27.0239 172.447,-19.1017 162.007,-20.9077 165.412,-27.0239"/>
</g>
</g>
</svg>
