<?xml version="1.0" encoding="UTF-8" standalone="no"?>
<!DOCTYPE svg PUBLIC "-//W3C//DTD SVG 1.1//EN"
 "http://www.w3.org/Graphics/SVG/1.1/DTD/svg11.dtd">
<!-- Generated by graphviz version 2.36.0 (20140111.2315)
 -->
<!-- Title: include/stratify/stratify.h Pages: 1 -->
<svg width="565pt" height="84pt"
 viewBox="0.00 0.00 565.00 84.00" xmlns="http://www.w3.org/2000/svg" xmlns:xlink="http://www.w3.org/1999/xlink">
<g id="graph0" class="graph" transform="scale(1 1) rotate(0) translate(4 80)">
<title>include/stratify/stratify.h</title>
<!-- Node1 -->
<g id="node1" class="node"><title>Node1</title>
<polygon fill="#bfbfbf" stroke="black" points="190.127,-57 190.127,-75 309.873,-75 309.873,-57 190.127,-57"/>
<text text-anchor="middle" x="250" y="-63" font-family="Helvetica,sans-Serif" font-size="10.00">include/stratify/stratify.h</text>
</g>
<!-- Node2 -->
<g id="node2" class="node"><title>Node2</title>
<polygon fill="none" stroke="#bfbfbf" points="-0.731445,-1 -0.731445,-19 44.7314,-19 44.7314,-1 -0.731445,-1"/>
<text text-anchor="middle" x="22" y="-7" font-family="Helvetica,sans-Serif" font-size="10.00">stdio.h</text>
</g>
<!-- Node1&#45;&gt;Node2 -->
<g id="edge1" class="edge"><title>Node1&#45;&gt;Node2</title>
<path fill="none" stroke="midnightblue" d="M212.66,-56.9918C175.136,-48.8189 115.424,-35.4746 54.7747,-20.1063"/>
<polygon fill="midnightblue" stroke="midnightblue" points="55.5909,-16.7025 45.0361,-17.6229 53.8611,-23.4854 55.5909,-16.7025"/>
</g>
<!-- Node3 -->
<g id="node3" class="node"><title>Node3</title>
<polygon fill="none" stroke="#bfbfbf" points="62.6035,-1 62.6035,-19 111.396,-19 111.396,-1 62.6035,-1"/>
<text text-anchor="middle" x="87" y="-7" font-family="Helvetica,sans-Serif" font-size="10.00">string.h</text>
</g>
<!-- Node1&#45;&gt;Node3 -->
<g id="edge2" class="edge"><title>Node1&#45;&gt;Node3</title>
<path fill="none" stroke="midnightblue" d="M225.597,-56.9157C197.789,-47.7032 152.159,-32.5863 120.905,-22.2322"/>
<polygon fill="midnightblue" stroke="midnightblue" points="121.896,-18.8737 111.303,-19.0513 119.695,-25.5186 121.896,-18.8737"/>
</g>
<!-- Node4 -->
<g id="node4" class="node"><title>Node4</title>
<polygon fill="none" stroke="#bfbfbf" points="129.158,-1 129.158,-19 176.842,-19 176.842,-1 129.158,-1"/>
<text text-anchor="middle" x="153" y="-7" font-family="Helvetica,sans-Serif" font-size="10.00">stdlib.h</text>
</g>
<!-- Node1&#45;&gt;Node4 -->
<g id="edge3" class="edge"><title>Node1&#45;&gt;Node4</title>
<path fill="none" stroke="midnightblue" d="M235.268,-56.7986C219.652,-48.1053 194.765,-34.2506 176.448,-24.0538"/>
<polygon fill="midnightblue" stroke="midnightblue" points="177.993,-20.9077 167.553,-19.1017 174.588,-27.0239 177.993,-20.9077"/>
</g>
<!-- Node5 -->
<g id="node5" class="node"><title>Node5</title>
<polygon fill="none" stroke="#bfbfbf" points="194.384,-1 194.384,-19 237.616,-19 237.616,-1 194.384,-1"/>
<text text-anchor="middle" x="216" y="-7" font-family="Helvetica,sans-Serif" font-size="10.00">time.h</text>
</g>
<!-- Node1&#45;&gt;Node5 -->
<g id="edge4" class="edge"><title>Node1&#45;&gt;Node5</title>
<path fill="none" stroke="midnightblue" d="M244.688,-56.5625C239.869,-48.9094 232.622,-37.3999 226.618,-27.8638"/>
<polygon fill="midnightblue" stroke="midnightblue" points="229.454,-25.7989 221.164,-19.2014 223.53,-29.5286 229.454,-25.7989"/>
</g>
<!-- Node6 -->
<g id="node6" class="node"><title>Node6</title>
<polygon fill="none" stroke="#bfbfbf" points="255.872,-1 255.872,-19 314.128,-19 314.128,-1 255.872,-1"/>
<text text-anchor="middle" x="285" y="-7" font-family="Helvetica,sans-Serif" font-size="10.00">pthread.h</text>
</g>
<!-- Node1&#45;&gt;Node6 -->
<g id="edge5" class="edge"><title>Node1&#45;&gt;Node6</title>
<path fill="none" stroke="midnightblue" d="M255.469,-56.5625C260.429,-48.9094 267.889,-37.3999 274.07,-27.8638"/>
<polygon fill="midnightblue" stroke="midnightblue" points="277.182,-29.4966 279.684,-19.2014 271.308,-25.6893 277.182,-29.4966"/>
</g>
<!-- Node7 -->
<g id="node7" class="node"><title>Node7</title>
<polygon fill="none" stroke="#bfbfbf" points="332.049,-1 332.049,-19 391.951,-19 391.951,-1 332.049,-1"/>
<text text-anchor="middle" x="362" y="-7" font-family="Helvetica,sans-Serif" font-size="10.00">sys/lock.h</text>
</g>
<!-- Node1&#45;&gt;Node7 -->
<g id="edge6" class="edge"><title>Node1&#45;&gt;Node7</title>
<path fill="none" stroke="midnightblue" d="M267.01,-56.7986C285.372,-47.9458 314.835,-33.7404 336.082,-23.4963"/>
<polygon fill="midnightblue" stroke="midnightblue" points="337.709,-26.5974 345.197,-19.1017 334.669,-20.292 337.709,-26.5974"/>
</g>
<!-- Node8 -->
<g id="node8" class="node"><title>Node8</title>
<polygon fill="none" stroke="#bfbfbf" points="409.549,-1 409.549,-19 474.451,-19 474.451,-1 409.549,-1"/>
<text text-anchor="middle" x="442" y="-7" font-family="Helvetica,sans-Serif" font-size="10.00">mcu/mcu.h</text>
</g>
<!-- Node1&#45;&gt;Node8 -->
<g id="edge7" class="edge"><title>Node1&#45;&gt;Node8</title>
<path fill="none" stroke="midnightblue" d="M278.744,-56.9157C311.925,-47.5835 366.648,-32.1927 403.489,-21.8312"/>
<polygon fill="midnightblue" stroke="midnightblue" points="404.694,-25.1281 413.373,-19.0513 402.799,-18.3895 404.694,-25.1281"/>
</g>
<!-- Node9 -->
<g id="node9" class="node"><title>Node9</title>
<polygon fill="none" stroke="#bfbfbf" points="492.825,-1 492.825,-19 557.175,-19 557.175,-1 492.825,-1"/>
<text text-anchor="middle" x="525" y="-7" font-family="Helvetica,sans-Serif" font-size="10.00">mcu/task.h</text>
</g>
<!-- Node1&#45;&gt;Node9 -->
<g id="edge8" class="edge"><title>Node1&#45;&gt;Node9</title>
<path fill="none" stroke="midnightblue" d="M292.996,-56.9669C337.688,-48.5563 409.936,-34.7921 482.253,-20.1184"/>
<polygon fill="midnightblue" stroke="midnightblue" points="483.353,-23.4662 492.454,-18.0423 481.957,-16.6068 483.353,-23.4662"/>
</g>
</g>
</svg>
