<?xml version="1.0" encoding="UTF-8" standalone="no"?>
<!DOCTYPE svg PUBLIC "-//W3C//DTD SVG 1.1//EN"
 "http://www.w3.org/Graphics/SVG/1.1/DTD/svg11.dtd">
<!-- Generated by graphviz version 2.36.0 (20140111.2315)
 -->
<!-- Title: hio_attr_t Pages: 1 -->
<svg width="101pt" height="196pt"
 viewBox="0.00 0.00 101.43 196.00" xmlns="http://www.w3.org/2000/svg" xmlns:xlink="http://www.w3.org/1999/xlink">
<g id="graph0" class="graph" transform="scale(1 1) rotate(0) translate(4 192)">
<title>hio_attr_t</title>
<!-- Node1 -->
<g id="node1" class="node"><title>Node1</title>
<polygon fill="#bfbfbf" stroke="black" points="3.15283,-1 3.15283,-65 60.8472,-65 60.8472,-1 3.15283,-1"/>
<text text-anchor="middle" x="32" y="-53" font-family="Helvetica,sans-Serif" font-size="10.00">hio_attr_t</text>
<polyline fill="none" stroke="black" points="3.15283,-47 60.8472,-47 "/>
<text text-anchor="start" x="11.1528" y="-35" font-family="Helvetica,sans-Serif" font-size="10.00">+ count</text>
<text text-anchor="start" x="11.1528" y="-25" font-family="Helvetica,sans-Serif" font-size="10.00">+ size</text>
<polyline fill="none" stroke="black" points="3.15283,-19 60.8472,-19 "/>
<text text-anchor="middle" x="32" y="-7" font-family="Helvetica,sans-Serif" font-size="10.00"> </text>
</g>
<!-- Node2 -->
<g id="node2" class="node"><title>Node2</title>
<g id="a_node2"><a xlink:href="structhio__desc__t.html" target="_top" xlink:title="Descriptor entry. ">
<polygon fill="none" stroke="black" points="-0.18457,-113 -0.18457,-187 64.1846,-187 64.1846,-113 -0.18457,-113"/>
<text text-anchor="middle" x="32" y="-175" font-family="Helvetica,sans-Serif" font-size="10.00">hio_desc_t</text>
<polyline fill="none" stroke="black" points="-0.18457,-169 64.1846,-169 "/>
<text text-anchor="start" x="7.81543" y="-157" font-family="Helvetica,sans-Serif" font-size="10.00">+ type</text>
<text text-anchor="start" x="7.81543" y="-147" font-family="Helvetica,sans-Serif" font-size="10.00">+ use</text>
<text text-anchor="start" x="7.81543" y="-137" font-family="Helvetica,sans-Serif" font-size="10.00">+ count</text>
<polyline fill="none" stroke="black" points="-0.18457,-131 64.1846,-131 "/>
<text text-anchor="middle" x="32" y="-119" font-family="Helvetica,sans-Serif" font-size="10.00"> </text>
</a>
</g>
</g>
<!-- Node2&#45;&gt;Node1 -->
<g id="edge1" class="edge"><title>Node2&#45;&gt;Node1</title>
<path fill="none" stroke="#404040" d="M32,-112.929C32,-101.706 32,-89.2125 32,-77.5365"/>
<polygon fill="none" stroke="#404040" points="32.0001,-77.2866 28,-71.2866 32,-65.2866 36,-71.2866 32.0001,-77.2866"/>
<text text-anchor="middle" x="62.7129" y="-86" font-family="Helvetica,sans-Serif" font-size="10.00"> +report_desc</text>
</g>
</g>
</svg>
