<?xml version="1.0" encoding="UTF-8" standalone="no"?>
<!DOCTYPE svg PUBLIC "-//W3C//DTD SVG 1.1//EN"
 "http://www.w3.org/Graphics/SVG/1.1/DTD/svg11.dtd">
<!-- Generated by graphviz version 2.36.0 (20140111.2315)
 -->
<!-- Title: sys_attr_t Pages: 1 -->
<svg width="98pt" height="266pt"
 viewBox="0.00 0.00 98.00 266.00" xmlns="http://www.w3.org/2000/svg" xmlns:xlink="http://www.w3.org/1999/xlink">
<g id="graph0" class="graph" transform="scale(1 1) rotate(0) translate(4 262)">
<title>sys_attr_t</title>
<!-- Node1 -->
<g id="node1" class="node"><title>Node1</title>
<polygon fill="#bfbfbf" stroke="black" points="-0.373047,-1 -0.373047,-155 90.373,-155 90.373,-1 -0.373047,-1"/>
<text text-anchor="middle" x="45" y="-143" font-family="Helvetica,sans-Serif" font-size="10.00">sys_attr_t</text>
<polyline fill="none" stroke="black" points="-0.373047,-137 90.373,-137 "/>
<text text-anchor="start" x="7.62695" y="-125" font-family="Helvetica,sans-Serif" font-size="10.00">+ version</text>
<text text-anchor="start" x="7.62695" y="-115" font-family="Helvetica,sans-Serif" font-size="10.00">+ sys_version</text>
<text text-anchor="start" x="7.62695" y="-105" font-family="Helvetica,sans-Serif" font-size="10.00">+ arch</text>
<text text-anchor="start" x="7.62695" y="-95" font-family="Helvetica,sans-Serif" font-size="10.00">+ signature</text>
<text text-anchor="start" x="7.62695" y="-85" font-family="Helvetica,sans-Serif" font-size="10.00">+ security</text>
<text text-anchor="start" x="7.62695" y="-75" font-family="Helvetica,sans-Serif" font-size="10.00">+ cpu_freq</text>
<text text-anchor="start" x="7.62695" y="-65" font-family="Helvetica,sans-Serif" font-size="10.00">+ sys_mem_size</text>
<text text-anchor="start" x="7.62695" y="-55" font-family="Helvetica,sans-Serif" font-size="10.00">+ stdout_name</text>
<text text-anchor="start" x="7.62695" y="-45" font-family="Helvetica,sans-Serif" font-size="10.00">+ stdin_name</text>
<text text-anchor="start" x="7.62695" y="-35" font-family="Helvetica,sans-Serif" font-size="10.00">+ name</text>
<text text-anchor="start" x="7.62695" y="-25" font-family="Helvetica,sans-Serif" font-size="10.00">+ flags</text>
<polyline fill="none" stroke="black" points="-0.373047,-19 90.373,-19 "/>
<text text-anchor="middle" x="45" y="-7" font-family="Helvetica,sans-Serif" font-size="10.00"> </text>
</g>
<!-- Node2 -->
<g id="node2" class="node"><title>Node2</title>
<g id="a_node2"><a xlink:href="structsn__t.html" target="_top" xlink:title="Serial number. ">
<polygon fill="none" stroke="black" points="27.4102,-203 27.4102,-257 62.5898,-257 62.5898,-203 27.4102,-203"/>
<text text-anchor="middle" x="45" y="-245" font-family="Helvetica,sans-Serif" font-size="10.00">sn_t</text>
<polyline fill="none" stroke="black" points="27.4102,-239 62.5898,-239 "/>
<text text-anchor="start" x="35.4102" y="-227" font-family="Helvetica,sans-Serif" font-size="10.00">+ sn</text>
<polyline fill="none" stroke="black" points="27.4102,-221 62.5898,-221 "/>
<text text-anchor="middle" x="45" y="-209" font-family="Helvetica,sans-Serif" font-size="10.00"> </text>
</a>
</g>
</g>
<!-- Node2&#45;&gt;Node1 -->
<g id="edge1" class="edge"><title>Node2&#45;&gt;Node1</title>
<path fill="none" stroke="#404040" d="M45,-202.872C45,-192.59 45,-180.137 45,-167.14"/>
<polygon fill="none" stroke="#404040" points="45.0001,-167.099 41,-161.099 45,-155.099 49,-161.099 45.0001,-167.099"/>
<text text-anchor="middle" x="61.2573" y="-176" font-family="Helvetica,sans-Serif" font-size="10.00"> +serial</text>
</g>
</g>
</svg>
