<?xml version="1.0" encoding="UTF-8" standalone="no"?>
<!DOCTYPE svg PUBLIC "-//W3C//DTD SVG 1.1//EN"
 "http://www.w3.org/Graphics/SVG/1.1/DTD/svg11.dtd">
<!-- Generated by graphviz version 2.36.0 (20140111.2315)
 -->
<!-- Title: devfifo_cfg_t Pages: 1 -->
<svg width="710pt" height="764pt"
 viewBox="0.00 0.00 710.00 764.00" xmlns="http://www.w3.org/2000/svg" xmlns:xlink="http://www.w3.org/1999/xlink">
<g id="graph0" class="graph" transform="scale(1 1) rotate(0) translate(4 760)">
<title>devfifo_cfg_t</title>
<!-- Node1 -->
<g id="node1" class="node"><title>Node1</title>
<polygon fill="#bfbfbf" stroke="black" points="289.671,-1 289.671,-95 374.329,-95 374.329,-1 289.671,-1"/>
<text text-anchor="middle" x="332" y="-83" font-family="Helvetica,sans-Serif" font-size="10.00">devfifo_cfg_t</text>
<polyline fill="none" stroke="black" points="289.671,-77 374.329,-77 "/>
<text text-anchor="start" x="297.671" y="-65" font-family="Helvetica,sans-Serif" font-size="10.00">+ buffer</text>
<text text-anchor="start" x="297.671" y="-55" font-family="Helvetica,sans-Serif" font-size="10.00">+ size</text>
<text text-anchor="start" x="297.671" y="-45" font-family="Helvetica,sans-Serif" font-size="10.00">+ req_getbyte</text>
<text text-anchor="start" x="297.671" y="-35" font-family="Helvetica,sans-Serif" font-size="10.00">+ req_setaction</text>
<text text-anchor="start" x="297.671" y="-25" font-family="Helvetica,sans-Serif" font-size="10.00">+ event</text>
<polyline fill="none" stroke="black" points="289.671,-19 374.329,-19 "/>
<text text-anchor="middle" x="332" y="-7" font-family="Helvetica,sans-Serif" font-size="10.00"> </text>
</g>
<!-- Node2 -->
<g id="node2" class="node"><title>Node2</title>
<g id="a_node2"><a xlink:href="structdevice__t.html" target="_top" xlink:title="A device driver (can either be an MCU peripheral or external IC) ">
<polygon fill="none" stroke="black" points="305.377,-143 305.377,-227 358.623,-227 358.623,-143 305.377,-143"/>
<text text-anchor="middle" x="332" y="-215" font-family="Helvetica,sans-Serif" font-size="10.00">device_t</text>
<polyline fill="none" stroke="black" points="305.377,-209 358.623,-209 "/>
<text text-anchor="start" x="313.377" y="-197" font-family="Helvetica,sans-Serif" font-size="10.00">+ name</text>
<text text-anchor="start" x="313.377" y="-187" font-family="Helvetica,sans-Serif" font-size="10.00">+ uid</text>
<text text-anchor="start" x="313.377" y="-177" font-family="Helvetica,sans-Serif" font-size="10.00">+ gid</text>
<text text-anchor="start" x="313.377" y="-167" font-family="Helvetica,sans-Serif" font-size="10.00">+ mode</text>
<polyline fill="none" stroke="black" points="305.377,-161 358.623,-161 "/>
<text text-anchor="middle" x="332" y="-149" font-family="Helvetica,sans-Serif" font-size="10.00"> </text>
</a>
</g>
</g>
<!-- Node2&#45;&gt;Node1 -->
<g id="edge1" class="edge"><title>Node2&#45;&gt;Node1</title>
<path fill="none" stroke="#404040" d="M332,-142.762C332,-131.597 332,-119.297 332,-107.383"/>
<polygon fill="none" stroke="#404040" points="332,-107.17 328,-101.17 332,-95.1702 336,-101.17 332,-107.17"/>
<text text-anchor="middle" x="344.371" y="-116" font-family="Helvetica,sans-Serif" font-size="10.00"> +dev</text>
</g>
<!-- Node3 -->
<g id="node3" class="node"><title>Node3</title>
<g id="a_node3"><a xlink:href="structdevice__driver__t.html" target="_top" xlink:title="HWPL Driver Function Pointers. ">
<polygon fill="none" stroke="black" points="344.094,-275 344.094,-329 427.906,-329 427.906,-275 344.094,-275"/>
<text text-anchor="middle" x="386" y="-317" font-family="Helvetica,sans-Serif" font-size="10.00">device_driver_t</text>
<polyline fill="none" stroke="black" points="344.094,-311 427.906,-311 "/>
<text text-anchor="middle" x="386" y="-299" font-family="Helvetica,sans-Serif" font-size="10.00"> </text>
<polyline fill="none" stroke="black" points="344.094,-293 427.906,-293 "/>
<text text-anchor="middle" x="386" y="-281" font-family="Helvetica,sans-Serif" font-size="10.00"> </text>
</a>
</g>
</g>
<!-- Node3&#45;&gt;Node2 -->
<g id="edge2" class="edge"><title>Node3&#45;&gt;Node2</title>
<path fill="none" stroke="#404040" d="M373.747,-274.905C368.644,-264.039 362.528,-251.014 356.571,-238.328"/>
<polygon fill="none" stroke="#404040" points="356.508,-238.192 350.337,-234.461 351.407,-227.33 357.578,-231.061 356.508,-238.192"/>
<text text-anchor="middle" x="380.812" y="-248" font-family="Helvetica,sans-Serif" font-size="10.00"> +driver</text>
</g>
<!-- Node4 -->
<g id="node4" class="node"><title>Node4</title>
<g id="a_node4"><a xlink:href="structdevice__cfg__t.html" target="_top" xlink:title="Data structure for device configuration. ">
<polygon fill="none" stroke="black" points="283.785,-417 283.785,-511 356.215,-511 356.215,-417 283.785,-417"/>
<text text-anchor="middle" x="320" y="-499" font-family="Helvetica,sans-Serif" font-size="10.00">device_cfg_t</text>
<polyline fill="none" stroke="black" points="283.785,-493 356.215,-493 "/>
<text text-anchor="start" x="291.785" y="-481" font-family="Helvetica,sans-Serif" font-size="10.00">+ pin_assign</text>
<text text-anchor="start" x="291.785" y="-471" font-family="Helvetica,sans-Serif" font-size="10.00">+ bitrate</text>
<text text-anchor="start" x="291.785" y="-461" font-family="Helvetica,sans-Serif" font-size="10.00">+ pcfg</text>
<text text-anchor="start" x="291.785" y="-451" font-family="Helvetica,sans-Serif" font-size="10.00">+ dcfg</text>
<text text-anchor="start" x="291.785" y="-441" font-family="Helvetica,sans-Serif" font-size="10.00">+ state</text>
<polyline fill="none" stroke="black" points="283.785,-435 356.215,-435 "/>
<text text-anchor="middle" x="320" y="-423" font-family="Helvetica,sans-Serif" font-size="10.00"> </text>
</a>
</g>
</g>
<!-- Node4&#45;&gt;Node2 -->
<g id="edge12" class="edge"><title>Node4&#45;&gt;Node2</title>
<path fill="none" stroke="#404040" d="M314.618,-416.657C311.047,-378.317 307.879,-322.485 313.042,-274 314.245,-262.702 316.294,-250.723 318.611,-239.362"/>
<polygon fill="none" stroke="#404040" points="318.674,-239.068 316.029,-232.36 321.203,-227.338 323.849,-234.046 318.674,-239.068"/>
<text text-anchor="middle" x="324.979" y="-299" font-family="Helvetica,sans-Serif" font-size="10.00"> +cfg</text>
</g>
<!-- Node4&#45;&gt;Node3 -->
<g id="edge3" class="edge"><title>Node4&#45;&gt;Node3</title>
<path fill="none" stroke="#404040" d="M339.09,-416.721C349.075,-392.515 361.14,-363.266 370.534,-340.493"/>
<polygon fill="none" stroke="#404040" points="370.602,-340.329 369.192,-333.257 375.178,-329.236 376.587,-336.308 370.602,-340.329"/>
<text text-anchor="middle" x="381.866" y="-390" font-family="Helvetica,sans-Serif" font-size="10.00"> +write</text>
<text text-anchor="middle" x="381.866" y="-380" font-family="Helvetica,sans-Serif" font-size="10.00">+open</text>
<text text-anchor="middle" x="381.866" y="-370" font-family="Helvetica,sans-Serif" font-size="10.00">+ioctl</text>
<text text-anchor="middle" x="381.866" y="-360" font-family="Helvetica,sans-Serif" font-size="10.00">+close</text>
<text text-anchor="middle" x="381.866" y="-350" font-family="Helvetica,sans-Serif" font-size="10.00">+read</text>
</g>
<!-- Node5 -->
<g id="node5" class="node"><title>Node5</title>
<g id="a_node5"><a xlink:href="structdevice__uart__cfg__t.html" target="_top" xlink:title="Data structure for a UART device (RX and TX lines) ">
<polygon fill="none" stroke="black" points="-0.470215,-564 -0.470215,-638 94.4702,-638 94.4702,-564 -0.470215,-564"/>
<text text-anchor="middle" x="47" y="-626" font-family="Helvetica,sans-Serif" font-size="10.00">device_uart_cfg_t</text>
<polyline fill="none" stroke="black" points="-0.470215,-620 94.4702,-620 "/>
<text text-anchor="start" x="7.52979" y="-608" font-family="Helvetica,sans-Serif" font-size="10.00">+ stop_bits</text>
<text text-anchor="start" x="7.52979" y="-598" font-family="Helvetica,sans-Serif" font-size="10.00">+ parity</text>
<text text-anchor="start" x="7.52979" y="-588" font-family="Helvetica,sans-Serif" font-size="10.00">+ width</text>
<polyline fill="none" stroke="black" points="-0.470215,-582 94.4702,-582 "/>
<text text-anchor="middle" x="47" y="-570" font-family="Helvetica,sans-Serif" font-size="10.00"> </text>
</a>
</g>
</g>
<!-- Node5&#45;&gt;Node4 -->
<g id="edge4" class="edge"><title>Node5&#45;&gt;Node4</title>
<path fill="none" stroke="#404040" d="M94.7196,-564.464C97.8439,-562.254 100.957,-560.083 104,-558 123.176,-544.878 127.365,-540.386 148.15,-530 188.479,-509.848 236.658,-492.135 271.727,-480.311"/>
<polygon fill="none" stroke="#404040" points="272.163,-480.166 276.595,-474.477 283.55,-476.379 279.119,-482.068 272.163,-480.166"/>
<text text-anchor="middle" x="161.925" y="-532" font-family="Helvetica,sans-Serif" font-size="10.00"> +uart</text>
</g>
<!-- Node6 -->
<g id="node6" class="node"><title>Node6</title>
<g id="a_node6"><a xlink:href="structdevice__periph__t.html" target="_top" xlink:title="Data structure for on&#45;chip MCU peripherals. ">
<polygon fill="none" stroke="black" points="112.697,-574 112.697,-628 199.303,-628 199.303,-574 112.697,-574"/>
<text text-anchor="middle" x="156" y="-616" font-family="Helvetica,sans-Serif" font-size="10.00">device_periph_t</text>
<polyline fill="none" stroke="black" points="112.697,-610 199.303,-610 "/>
<text text-anchor="start" x="120.697" y="-598" font-family="Helvetica,sans-Serif" font-size="10.00">+ port</text>
<polyline fill="none" stroke="black" points="112.697,-592 199.303,-592 "/>
<text text-anchor="middle" x="156" y="-580" font-family="Helvetica,sans-Serif" font-size="10.00"> </text>
</a>
</g>
</g>
<!-- Node6&#45;&gt;Node4 -->
<g id="edge5" class="edge"><title>Node6&#45;&gt;Node4</title>
<path fill="none" stroke="#404040" d="M161.752,-573.834C166.03,-559.458 173.154,-542.136 184.584,-530 208.235,-504.89 243.598,-488.375 272.256,-478.277"/>
<polygon fill="none" stroke="#404040" points="272.29,-478.266 276.713,-472.57 283.671,-474.463 279.248,-480.158 272.29,-478.266"/>
<text text-anchor="middle" x="203.208" y="-532" font-family="Helvetica,sans-Serif" font-size="10.00"> +periph</text>
</g>
<!-- Node7 -->
<g id="node7" class="node"><title>Node7</title>
<g id="a_node7"><a xlink:href="structpio__t.html" target="_top" xlink:title="IO port and pin. ">
<polygon fill="none" stroke="black" points="243.075,-691 243.075,-755 284.925,-755 284.925,-691 243.075,-691"/>
<text text-anchor="middle" x="264" y="-743" font-family="Helvetica,sans-Serif" font-size="10.00">pio_t</text>
<polyline fill="none" stroke="black" points="243.075,-737 284.925,-737 "/>
<text text-anchor="start" x="251.075" y="-725" font-family="Helvetica,sans-Serif" font-size="10.00">+ port</text>
<text text-anchor="start" x="251.075" y="-715" font-family="Helvetica,sans-Serif" font-size="10.00">+ pin</text>
<polyline fill="none" stroke="black" points="243.075,-709 284.925,-709 "/>
<text text-anchor="middle" x="264" y="-697" font-family="Helvetica,sans-Serif" font-size="10.00"> </text>
</a>
</g>
</g>
<!-- Node7&#45;&gt;Node4 -->
<g id="edge6" class="edge"><title>Node7&#45;&gt;Node4</title>
<path fill="none" stroke="#404040" d="M251.998,-690.849C240.877,-657.152 228.241,-602.308 244.037,-558 250.641,-539.475 262.693,-521.975 275.281,-507.259"/>
<polygon fill="none" stroke="#404040" points="275.566,-506.941 276.595,-499.804 283.579,-498.008 282.55,-505.145 275.566,-506.941"/>
<text text-anchor="middle" x="255.981" y="-598" font-family="Helvetica,sans-Serif" font-size="10.00"> +pio</text>
</g>
<!-- Node11 -->
<g id="node11" class="node"><title>Node11</title>
<g id="a_node11"><a xlink:href="structdevice__spi__cfg__t.html" target="_top" xlink:title="Data structure for a SPI device with a CS pin. ">
<polygon fill="none" stroke="black" points="274.754,-559 274.754,-643 365.246,-643 365.246,-559 274.754,-559"/>
<text text-anchor="middle" x="320" y="-631" font-family="Helvetica,sans-Serif" font-size="10.00">device_spi_cfg_t</text>
<polyline fill="none" stroke="black" points="274.754,-625 365.246,-625 "/>
<text text-anchor="start" x="282.754" y="-613" font-family="Helvetica,sans-Serif" font-size="10.00">+ width</text>
<text text-anchor="start" x="282.754" y="-603" font-family="Helvetica,sans-Serif" font-size="10.00">+ format</text>
<text text-anchor="start" x="282.754" y="-593" font-family="Helvetica,sans-Serif" font-size="10.00">+ mode</text>
<text text-anchor="start" x="282.754" y="-583" font-family="Helvetica,sans-Serif" font-size="10.00">+ reserved0</text>
<polyline fill="none" stroke="black" points="274.754,-577 365.246,-577 "/>
<text text-anchor="middle" x="320" y="-565" font-family="Helvetica,sans-Serif" font-size="10.00"> </text>
</a>
</g>
</g>
<!-- Node7&#45;&gt;Node11 -->
<g id="edge11" class="edge"><title>Node7&#45;&gt;Node11</title>
<path fill="none" stroke="#404040" d="M278.567,-690.785C283.778,-679.619 289.801,-666.711 295.614,-654.256"/>
<polygon fill="none" stroke="#404040" points="295.789,-653.882 294.701,-646.753 300.863,-643.007 301.951,-650.136 295.789,-653.882"/>
<text text-anchor="middle" x="301.309" y="-664" font-family="Helvetica,sans-Serif" font-size="10.00"> +cs</text>
</g>
<!-- Node8 -->
<g id="node8" class="node"><title>Node8</title>
<g id="a_node8"><a xlink:href="structdevice__adc__cfg__t.html" target="_top" xlink:title="Data structure for an analog input device (up to 16 channels) ">
<polygon fill="none" stroke="black" points="383.084,-569 383.084,-633 476.916,-633 476.916,-569 383.084,-569"/>
<text text-anchor="middle" x="430" y="-621" font-family="Helvetica,sans-Serif" font-size="10.00">device_adc_cfg_t</text>
<polyline fill="none" stroke="black" points="383.084,-615 476.916,-615 "/>
<text text-anchor="start" x="391.084" y="-603" font-family="Helvetica,sans-Serif" font-size="10.00">+ reference</text>
<text text-anchor="start" x="391.084" y="-593" font-family="Helvetica,sans-Serif" font-size="10.00">+ channels</text>
<polyline fill="none" stroke="black" points="383.084,-587 476.916,-587 "/>
<text text-anchor="middle" x="430" y="-575" font-family="Helvetica,sans-Serif" font-size="10.00"> </text>
</a>
</g>
</g>
<!-- Node8&#45;&gt;Node4 -->
<g id="edge7" class="edge"><title>Node8&#45;&gt;Node4</title>
<path fill="none" stroke="#404040" d="M404.487,-568.689C392.55,-554.039 377.982,-536.159 364.326,-519.4"/>
<polygon fill="none" stroke="#404040" points="363.998,-518.998 357.107,-516.873 356.418,-509.695 363.309,-511.82 363.998,-518.998"/>
<text text-anchor="middle" x="391.371" y="-532" font-family="Helvetica,sans-Serif" font-size="10.00"> +adc</text>
</g>
<!-- Node9 -->
<g id="node9" class="node"><title>Node9</title>
<g id="a_node9"><a xlink:href="structdevice__i2c__cfg__t.html" target="_top" xlink:title="Data structure for an I2C device (SCL and SDA lines) ">
<polygon fill="none" stroke="black" points="494.754,-574 494.754,-628 585.246,-628 585.246,-574 494.754,-574"/>
<text text-anchor="middle" x="540" y="-616" font-family="Helvetica,sans-Serif" font-size="10.00">device_i2c_cfg_t</text>
<polyline fill="none" stroke="black" points="494.754,-610 585.246,-610 "/>
<text text-anchor="start" x="502.754" y="-598" font-family="Helvetica,sans-Serif" font-size="10.00">+ slave_addr</text>
<polyline fill="none" stroke="black" points="494.754,-592 585.246,-592 "/>
<text text-anchor="middle" x="540" y="-580" font-family="Helvetica,sans-Serif" font-size="10.00"> </text>
</a>
</g>
</g>
<!-- Node9&#45;&gt;Node4 -->
<g id="edge8" class="edge"><title>Node9&#45;&gt;Node4</title>
<path fill="none" stroke="#404040" d="M507.386,-573.918C500.151,-568.466 492.423,-562.892 485,-558 446.518,-532.639 400.716,-507.171 367.143,-489.316"/>
<polygon fill="none" stroke="#404040" points="366.865,-489.169 359.691,-489.903 356.255,-483.564 363.428,-482.83 366.865,-489.169"/>
<text text-anchor="middle" x="465.701" y="-532" font-family="Helvetica,sans-Serif" font-size="10.00"> +i2c</text>
</g>
<!-- Node10 -->
<g id="node10" class="node"><title>Node10</title>
<g id="a_node10"><a xlink:href="structdevice__pwm__cfg__t.html" target="_top" xlink:title="Data structure for a PWM device (up to 8 channels) ">
<polygon fill="none" stroke="black" points="603.589,-564 603.589,-638 702.411,-638 702.411,-564 603.589,-564"/>
<text text-anchor="middle" x="653" y="-626" font-family="Helvetica,sans-Serif" font-size="10.00">device_pwm_cfg_t</text>
<polyline fill="none" stroke="black" points="603.589,-620 702.411,-620 "/>
<text text-anchor="start" x="611.589" y="-608" font-family="Helvetica,sans-Serif" font-size="10.00">+ top</text>
<text text-anchor="start" x="611.589" y="-598" font-family="Helvetica,sans-Serif" font-size="10.00">+ freq</text>
<text text-anchor="start" x="611.589" y="-588" font-family="Helvetica,sans-Serif" font-size="10.00">+ channels</text>
<polyline fill="none" stroke="black" points="603.589,-582 702.411,-582 "/>
<text text-anchor="middle" x="653" y="-570" font-family="Helvetica,sans-Serif" font-size="10.00"> </text>
</a>
</g>
</g>
<!-- Node10&#45;&gt;Node4 -->
<g id="edge9" class="edge"><title>Node10&#45;&gt;Node4</title>
<path fill="none" stroke="#404040" d="M604.427,-563.813C600.965,-561.737 597.47,-559.775 594,-558 518.797,-519.522 424.164,-491.466 368.077,-476.743"/>
<polygon fill="none" stroke="#404040" points="367.994,-476.722 361.184,-479.093 356.376,-473.719 363.186,-471.348 367.994,-476.722"/>
<text text-anchor="middle" x="566.866" y="-532" font-family="Helvetica,sans-Serif" font-size="10.00"> +pwm</text>
</g>
<!-- Node11&#45;&gt;Node4 -->
<g id="edge10" class="edge"><title>Node11&#45;&gt;Node4</title>
<path fill="none" stroke="#404040" d="M320,-558.762C320,-547.597 320,-535.297 320,-523.383"/>
<polygon fill="none" stroke="#404040" points="320,-523.17 316,-517.17 320,-511.17 324,-517.17 320,-523.17"/>
<text text-anchor="middle" x="330.701" y="-532" font-family="Helvetica,sans-Serif" font-size="10.00"> +spi</text>
</g>
</g>
</svg>
