<?xml version="1.0" encoding="UTF-8" standalone="no"?>
<!DOCTYPE svg PUBLIC "-//W3C//DTD SVG 1.1//EN"
 "http://www.w3.org/Graphics/SVG/1.1/DTD/svg11.dtd">
<!-- Generated by graphviz version 2.36.0 (20140111.2315)
 -->
<!-- Title: core_pinfunc_t Pages: 1 -->
<svg width="88pt" height="186pt"
 viewBox="0.00 0.00 88.00 186.00" xmlns="http://www.w3.org/2000/svg" xmlns:xlink="http://www.w3.org/1999/xlink">
<g id="graph0" class="graph" transform="scale(1 1) rotate(0) translate(4 182)">
<title>core_pinfunc_t</title>
<!-- Node1 -->
<g id="node1" class="node"><title>Node1</title>
<polygon fill="#bfbfbf" stroke="black" points="-0.800293,-1 -0.800293,-65 80.8003,-65 80.8003,-1 -0.800293,-1"/>
<text text-anchor="middle" x="40" y="-53" font-family="Helvetica,sans-Serif" font-size="10.00">core_pinfunc_t</text>
<polyline fill="none" stroke="black" points="-0.800293,-47 80.8003,-47 "/>
<text text-anchor="start" x="7.19971" y="-35" font-family="Helvetica,sans-Serif" font-size="10.00">+ periph_port</text>
<text text-anchor="start" x="7.19971" y="-25" font-family="Helvetica,sans-Serif" font-size="10.00">+ periph_func</text>
<polyline fill="none" stroke="black" points="-0.800293,-19 80.8003,-19 "/>
<text text-anchor="middle" x="40" y="-7" font-family="Helvetica,sans-Serif" font-size="10.00"> </text>
</g>
<!-- Node2 -->
<g id="node2" class="node"><title>Node2</title>
<g id="a_node2"><a xlink:href="structpio__t.html" target="_top" xlink:title="IO port and pin. ">
<polygon fill="none" stroke="black" points="19.0752,-113 19.0752,-177 60.9248,-177 60.9248,-113 19.0752,-113"/>
<text text-anchor="middle" x="40" y="-165" font-family="Helvetica,sans-Serif" font-size="10.00">pio_t</text>
<polyline fill="none" stroke="black" points="19.0752,-159 60.9248,-159 "/>
<text text-anchor="start" x="27.0752" y="-147" font-family="Helvetica,sans-Serif" font-size="10.00">+ port</text>
<text text-anchor="start" x="27.0752" y="-137" font-family="Helvetica,sans-Serif" font-size="10.00">+ pin</text>
<polyline fill="none" stroke="black" points="19.0752,-131 60.9248,-131 "/>
<text text-anchor="middle" x="40" y="-119" font-family="Helvetica,sans-Serif" font-size="10.00"> </text>
</a>
</g>
</g>
<!-- Node2&#45;&gt;Node1 -->
<g id="edge1" class="edge"><title>Node2&#45;&gt;Node1</title>
<path fill="none" stroke="#404040" d="M40,-112.773C40,-101.858 40,-89.3958 40,-77.6551"/>
<polygon fill="none" stroke="#404040" points="40.0001,-77.3054 36,-71.3055 40,-65.3054 44,-71.3054 40.0001,-77.3054"/>
<text text-anchor="middle" x="48.2007" y="-86" font-family="Helvetica,sans-Serif" font-size="10.00"> +io</text>
</g>
</g>
</svg>
