<?xml version="1.0" encoding="UTF-8" standalone="no"?>
<!DOCTYPE svg PUBLIC "-//W3C//DTD SVG 1.1//EN"
 "http://www.w3.org/Graphics/SVG/1.1/DTD/svg11.dtd">
<!-- Generated by graphviz version 2.36.0 (20140111.2315)
 -->
<!-- Title: device_t Pages: 1 -->
<svg width="710pt" height="622pt"
 viewBox="0.00 0.00 710.00 622.00" xmlns="http://www.w3.org/2000/svg" xmlns:xlink="http://www.w3.org/1999/xlink">
<g id="graph0" class="graph" transform="scale(1 1) rotate(0) translate(4 618)">
<title>device_t</title>
<!-- Node1 -->
<g id="node1" class="node"><title>Node1</title>
<polygon fill="#bfbfbf" stroke="black" points="305.377,-1 305.377,-85 358.623,-85 358.623,-1 305.377,-1"/>
<text text-anchor="middle" x="332" y="-73" font-family="Helvetica,sans-Serif" font-size="10.00">device_t</text>
<polyline fill="none" stroke="black" points="305.377,-67 358.623,-67 "/>
<text text-anchor="start" x="313.377" y="-55" font-family="Helvetica,sans-Serif" font-size="10.00">+ name</text>
<text text-anchor="start" x="313.377" y="-45" font-family="Helvetica,sans-Serif" font-size="10.00">+ uid</text>
<text text-anchor="start" x="313.377" y="-35" font-family="Helvetica,sans-Serif" font-size="10.00">+ gid</text>
<text text-anchor="start" x="313.377" y="-25" font-family="Helvetica,sans-Serif" font-size="10.00">+ mode</text>
<polyline fill="none" stroke="black" points="305.377,-19 358.623,-19 "/>
<text text-anchor="middle" x="332" y="-7" font-family="Helvetica,sans-Serif" font-size="10.00"> </text>
</g>
<!-- Node2 -->
<g id="node2" class="node"><title>Node2</title>
<g id="a_node2"><a xlink:href="structdevice__driver__t.html" target="_top" xlink:title="HWPL Driver Function Pointers. ">
<polygon fill="none" stroke="black" points="344.094,-133 344.094,-187 427.906,-187 427.906,-133 344.094,-133"/>
<text text-anchor="middle" x="386" y="-175" font-family="Helvetica,sans-Serif" font-size="10.00">device_driver_t</text>
<polyline fill="none" stroke="black" points="344.094,-169 427.906,-169 "/>
<text text-anchor="middle" x="386" y="-157" font-family="Helvetica,sans-Serif" font-size="10.00"> </text>
<polyline fill="none" stroke="black" points="344.094,-151 427.906,-151 "/>
<text text-anchor="middle" x="386" y="-139" font-family="Helvetica,sans-Serif" font-size="10.00"> </text>
</a>
</g>
</g>
<!-- Node2&#45;&gt;Node1 -->
<g id="edge1" class="edge"><title>Node2&#45;&gt;Node1</title>
<path fill="none" stroke="#404040" d="M373.747,-132.905C368.644,-122.039 362.528,-109.014 356.571,-96.3282"/>
<polygon fill="none" stroke="#404040" points="356.508,-96.1919 350.337,-92.461 351.407,-85.3298 357.578,-89.0607 356.508,-96.1919"/>
<text text-anchor="middle" x="380.812" y="-106" font-family="Helvetica,sans-Serif" font-size="10.00"> +driver</text>
</g>
<!-- Node3 -->
<g id="node3" class="node"><title>Node3</title>
<g id="a_node3"><a xlink:href="structdevice__cfg__t.html" target="_top" xlink:title="Data structure for device configuration. ">
<polygon fill="none" stroke="black" points="283.785,-275 283.785,-369 356.215,-369 356.215,-275 283.785,-275"/>
<text text-anchor="middle" x="320" y="-357" font-family="Helvetica,sans-Serif" font-size="10.00">device_cfg_t</text>
<polyline fill="none" stroke="black" points="283.785,-351 356.215,-351 "/>
<text text-anchor="start" x="291.785" y="-339" font-family="Helvetica,sans-Serif" font-size="10.00">+ pin_assign</text>
<text text-anchor="start" x="291.785" y="-329" font-family="Helvetica,sans-Serif" font-size="10.00">+ bitrate</text>
<text text-anchor="start" x="291.785" y="-319" font-family="Helvetica,sans-Serif" font-size="10.00">+ pcfg</text>
<text text-anchor="start" x="291.785" y="-309" font-family="Helvetica,sans-Serif" font-size="10.00">+ dcfg</text>
<text text-anchor="start" x="291.785" y="-299" font-family="Helvetica,sans-Serif" font-size="10.00">+ state</text>
<polyline fill="none" stroke="black" points="283.785,-293 356.215,-293 "/>
<text text-anchor="middle" x="320" y="-281" font-family="Helvetica,sans-Serif" font-size="10.00"> </text>
</a>
</g>
</g>
<!-- Node3&#45;&gt;Node1 -->
<g id="edge11" class="edge"><title>Node3&#45;&gt;Node1</title>
<path fill="none" stroke="#404040" d="M314.618,-274.657C311.047,-236.317 307.879,-180.485 313.042,-132 314.245,-120.702 316.294,-108.723 318.611,-97.362"/>
<polygon fill="none" stroke="#404040" points="318.674,-97.0682 316.029,-90.36 321.203,-85.3377 323.849,-92.046 318.674,-97.0682"/>
<text text-anchor="middle" x="324.979" y="-157" font-family="Helvetica,sans-Serif" font-size="10.00"> +cfg</text>
</g>
<!-- Node3&#45;&gt;Node2 -->
<g id="edge2" class="edge"><title>Node3&#45;&gt;Node2</title>
<path fill="none" stroke="#404040" d="M339.09,-274.721C349.075,-250.515 361.14,-221.266 370.534,-198.493"/>
<polygon fill="none" stroke="#404040" points="370.602,-198.329 369.192,-191.257 375.178,-187.236 376.587,-194.308 370.602,-198.329"/>
<text text-anchor="middle" x="381.866" y="-248" font-family="Helvetica,sans-Serif" font-size="10.00"> +write</text>
<text text-anchor="middle" x="381.866" y="-238" font-family="Helvetica,sans-Serif" font-size="10.00">+open</text>
<text text-anchor="middle" x="381.866" y="-228" font-family="Helvetica,sans-Serif" font-size="10.00">+ioctl</text>
<text text-anchor="middle" x="381.866" y="-218" font-family="Helvetica,sans-Serif" font-size="10.00">+close</text>
<text text-anchor="middle" x="381.866" y="-208" font-family="Helvetica,sans-Serif" font-size="10.00">+read</text>
</g>
<!-- Node4 -->
<g id="node4" class="node"><title>Node4</title>
<g id="a_node4"><a xlink:href="structdevice__uart__cfg__t.html" target="_top" xlink:title="Data structure for a UART device (RX and TX lines) ">
<polygon fill="none" stroke="black" points="-0.470215,-422 -0.470215,-496 94.4702,-496 94.4702,-422 -0.470215,-422"/>
<text text-anchor="middle" x="47" y="-484" font-family="Helvetica,sans-Serif" font-size="10.00">device_uart_cfg_t</text>
<polyline fill="none" stroke="black" points="-0.470215,-478 94.4702,-478 "/>
<text text-anchor="start" x="7.52979" y="-466" font-family="Helvetica,sans-Serif" font-size="10.00">+ stop_bits</text>
<text text-anchor="start" x="7.52979" y="-456" font-family="Helvetica,sans-Serif" font-size="10.00">+ parity</text>
<text text-anchor="start" x="7.52979" y="-446" font-family="Helvetica,sans-Serif" font-size="10.00">+ width</text>
<polyline fill="none" stroke="black" points="-0.470215,-440 94.4702,-440 "/>
<text text-anchor="middle" x="47" y="-428" font-family="Helvetica,sans-Serif" font-size="10.00"> </text>
</a>
</g>
</g>
<!-- Node4&#45;&gt;Node3 -->
<g id="edge3" class="edge"><title>Node4&#45;&gt;Node3</title>
<path fill="none" stroke="#404040" d="M94.7196,-422.464C97.8439,-420.254 100.957,-418.083 104,-416 123.176,-402.878 127.365,-398.386 148.15,-388 188.479,-367.848 236.658,-350.135 271.727,-338.311"/>
<polygon fill="none" stroke="#404040" points="272.163,-338.166 276.595,-332.477 283.55,-334.379 279.119,-340.068 272.163,-338.166"/>
<text text-anchor="middle" x="161.925" y="-390" font-family="Helvetica,sans-Serif" font-size="10.00"> +uart</text>
</g>
<!-- Node5 -->
<g id="node5" class="node"><title>Node5</title>
<g id="a_node5"><a xlink:href="structdevice__periph__t.html" target="_top" xlink:title="Data structure for on&#45;chip MCU peripherals. ">
<polygon fill="none" stroke="black" points="112.697,-432 112.697,-486 199.303,-486 199.303,-432 112.697,-432"/>
<text text-anchor="middle" x="156" y="-474" font-family="Helvetica,sans-Serif" font-size="10.00">device_periph_t</text>
<polyline fill="none" stroke="black" points="112.697,-468 199.303,-468 "/>
<text text-anchor="start" x="120.697" y="-456" font-family="Helvetica,sans-Serif" font-size="10.00">+ port</text>
<polyline fill="none" stroke="black" points="112.697,-450 199.303,-450 "/>
<text text-anchor="middle" x="156" y="-438" font-family="Helvetica,sans-Serif" font-size="10.00"> </text>
</a>
</g>
</g>
<!-- Node5&#45;&gt;Node3 -->
<g id="edge4" class="edge"><title>Node5&#45;&gt;Node3</title>
<path fill="none" stroke="#404040" d="M161.752,-431.834C166.03,-417.458 173.154,-400.136 184.584,-388 208.235,-362.89 243.598,-346.375 272.256,-336.277"/>
<polygon fill="none" stroke="#404040" points="272.29,-336.266 276.713,-330.57 283.671,-332.463 279.248,-338.158 272.29,-336.266"/>
<text text-anchor="middle" x="203.208" y="-390" font-family="Helvetica,sans-Serif" font-size="10.00"> +periph</text>
</g>
<!-- Node6 -->
<g id="node6" class="node"><title>Node6</title>
<g id="a_node6"><a xlink:href="structpio__t.html" target="_top" xlink:title="IO port and pin. ">
<polygon fill="none" stroke="black" points="243.075,-549 243.075,-613 284.925,-613 284.925,-549 243.075,-549"/>
<text text-anchor="middle" x="264" y="-601" font-family="Helvetica,sans-Serif" font-size="10.00">pio_t</text>
<polyline fill="none" stroke="black" points="243.075,-595 284.925,-595 "/>
<text text-anchor="start" x="251.075" y="-583" font-family="Helvetica,sans-Serif" font-size="10.00">+ port</text>
<text text-anchor="start" x="251.075" y="-573" font-family="Helvetica,sans-Serif" font-size="10.00">+ pin</text>
<polyline fill="none" stroke="black" points="243.075,-567 284.925,-567 "/>
<text text-anchor="middle" x="264" y="-555" font-family="Helvetica,sans-Serif" font-size="10.00"> </text>
</a>
</g>
</g>
<!-- Node6&#45;&gt;Node3 -->
<g id="edge5" class="edge"><title>Node6&#45;&gt;Node3</title>
<path fill="none" stroke="#404040" d="M251.998,-548.849C240.877,-515.152 228.241,-460.308 244.037,-416 250.641,-397.475 262.693,-379.975 275.281,-365.259"/>
<polygon fill="none" stroke="#404040" points="275.566,-364.941 276.595,-357.804 283.579,-356.008 282.55,-363.145 275.566,-364.941"/>
<text text-anchor="middle" x="255.981" y="-456" font-family="Helvetica,sans-Serif" font-size="10.00"> +pio</text>
</g>
<!-- Node10 -->
<g id="node10" class="node"><title>Node10</title>
<g id="a_node10"><a xlink:href="structdevice__spi__cfg__t.html" target="_top" xlink:title="Data structure for a SPI device with a CS pin. ">
<polygon fill="none" stroke="black" points="274.754,-417 274.754,-501 365.246,-501 365.246,-417 274.754,-417"/>
<text text-anchor="middle" x="320" y="-489" font-family="Helvetica,sans-Serif" font-size="10.00">device_spi_cfg_t</text>
<polyline fill="none" stroke="black" points="274.754,-483 365.246,-483 "/>
<text text-anchor="start" x="282.754" y="-471" font-family="Helvetica,sans-Serif" font-size="10.00">+ width</text>
<text text-anchor="start" x="282.754" y="-461" font-family="Helvetica,sans-Serif" font-size="10.00">+ format</text>
<text text-anchor="start" x="282.754" y="-451" font-family="Helvetica,sans-Serif" font-size="10.00">+ mode</text>
<text text-anchor="start" x="282.754" y="-441" font-family="Helvetica,sans-Serif" font-size="10.00">+ reserved0</text>
<polyline fill="none" stroke="black" points="274.754,-435 365.246,-435 "/>
<text text-anchor="middle" x="320" y="-423" font-family="Helvetica,sans-Serif" font-size="10.00"> </text>
</a>
</g>
</g>
<!-- Node6&#45;&gt;Node10 -->
<g id="edge10" class="edge"><title>Node6&#45;&gt;Node10</title>
<path fill="none" stroke="#404040" d="M278.567,-548.785C283.778,-537.619 289.801,-524.711 295.614,-512.256"/>
<polygon fill="none" stroke="#404040" points="295.789,-511.882 294.701,-504.753 300.863,-501.007 301.951,-508.136 295.789,-511.882"/>
<text text-anchor="middle" x="301.309" y="-522" font-family="Helvetica,sans-Serif" font-size="10.00"> +cs</text>
</g>
<!-- Node7 -->
<g id="node7" class="node"><title>Node7</title>
<g id="a_node7"><a xlink:href="structdevice__adc__cfg__t.html" target="_top" xlink:title="Data structure for an analog input device (up to 16 channels) ">
<polygon fill="none" stroke="black" points="383.084,-427 383.084,-491 476.916,-491 476.916,-427 383.084,-427"/>
<text text-anchor="middle" x="430" y="-479" font-family="Helvetica,sans-Serif" font-size="10.00">device_adc_cfg_t</text>
<polyline fill="none" stroke="black" points="383.084,-473 476.916,-473 "/>
<text text-anchor="start" x="391.084" y="-461" font-family="Helvetica,sans-Serif" font-size="10.00">+ reference</text>
<text text-anchor="start" x="391.084" y="-451" font-family="Helvetica,sans-Serif" font-size="10.00">+ channels</text>
<polyline fill="none" stroke="black" points="383.084,-445 476.916,-445 "/>
<text text-anchor="middle" x="430" y="-433" font-family="Helvetica,sans-Serif" font-size="10.00"> </text>
</a>
</g>
</g>
<!-- Node7&#45;&gt;Node3 -->
<g id="edge6" class="edge"><title>Node7&#45;&gt;Node3</title>
<path fill="none" stroke="#404040" d="M404.487,-426.689C392.55,-412.039 377.982,-394.159 364.326,-377.4"/>
<polygon fill="none" stroke="#404040" points="363.998,-376.998 357.107,-374.873 356.418,-367.695 363.309,-369.82 363.998,-376.998"/>
<text text-anchor="middle" x="391.371" y="-390" font-family="Helvetica,sans-Serif" font-size="10.00"> +adc</text>
</g>
<!-- Node8 -->
<g id="node8" class="node"><title>Node8</title>
<g id="a_node8"><a xlink:href="structdevice__i2c__cfg__t.html" target="_top" xlink:title="Data structure for an I2C device (SCL and SDA lines) ">
<polygon fill="none" stroke="black" points="494.754,-432 494.754,-486 585.246,-486 585.246,-432 494.754,-432"/>
<text text-anchor="middle" x="540" y="-474" font-family="Helvetica,sans-Serif" font-size="10.00">device_i2c_cfg_t</text>
<polyline fill="none" stroke="black" points="494.754,-468 585.246,-468 "/>
<text text-anchor="start" x="502.754" y="-456" font-family="Helvetica,sans-Serif" font-size="10.00">+ slave_addr</text>
<polyline fill="none" stroke="black" points="494.754,-450 585.246,-450 "/>
<text text-anchor="middle" x="540" y="-438" font-family="Helvetica,sans-Serif" font-size="10.00"> </text>
</a>
</g>
</g>
<!-- Node8&#45;&gt;Node3 -->
<g id="edge7" class="edge"><title>Node8&#45;&gt;Node3</title>
<path fill="none" stroke="#404040" d="M507.386,-431.918C500.151,-426.466 492.423,-420.892 485,-416 446.518,-390.639 400.716,-365.171 367.143,-347.316"/>
<polygon fill="none" stroke="#404040" points="366.865,-347.169 359.691,-347.903 356.255,-341.564 363.428,-340.83 366.865,-347.169"/>
<text text-anchor="middle" x="465.701" y="-390" font-family="Helvetica,sans-Serif" font-size="10.00"> +i2c</text>
</g>
<!-- Node9 -->
<g id="node9" class="node"><title>Node9</title>
<g id="a_node9"><a xlink:href="structdevice__pwm__cfg__t.html" target="_top" xlink:title="Data structure for a PWM device (up to 8 channels) ">
<polygon fill="none" stroke="black" points="603.589,-422 603.589,-496 702.411,-496 702.411,-422 603.589,-422"/>
<text text-anchor="middle" x="653" y="-484" font-family="Helvetica,sans-Serif" font-size="10.00">device_pwm_cfg_t</text>
<polyline fill="none" stroke="black" points="603.589,-478 702.411,-478 "/>
<text text-anchor="start" x="611.589" y="-466" font-family="Helvetica,sans-Serif" font-size="10.00">+ top</text>
<text text-anchor="start" x="611.589" y="-456" font-family="Helvetica,sans-Serif" font-size="10.00">+ freq</text>
<text text-anchor="start" x="611.589" y="-446" font-family="Helvetica,sans-Serif" font-size="10.00">+ channels</text>
<polyline fill="none" stroke="black" points="603.589,-440 702.411,-440 "/>
<text text-anchor="middle" x="653" y="-428" font-family="Helvetica,sans-Serif" font-size="10.00"> </text>
</a>
</g>
</g>
<!-- Node9&#45;&gt;Node3 -->
<g id="edge8" class="edge"><title>Node9&#45;&gt;Node3</title>
<path fill="none" stroke="#404040" d="M604.427,-421.813C600.965,-419.737 597.47,-417.775 594,-416 518.797,-377.522 424.164,-349.466 368.077,-334.743"/>
<polygon fill="none" stroke="#404040" points="367.994,-334.722 361.184,-337.093 356.376,-331.719 363.186,-329.348 367.994,-334.722"/>
<text text-anchor="middle" x="566.866" y="-390" font-family="Helvetica,sans-Serif" font-size="10.00"> +pwm</text>
</g>
<!-- Node10&#45;&gt;Node3 -->
<g id="edge9" class="edge"><title>Node10&#45;&gt;Node3</title>
<path fill="none" stroke="#404040" d="M320,-416.762C320,-405.597 320,-393.297 320,-381.383"/>
<polygon fill="none" stroke="#404040" points="320,-381.17 316,-375.17 320,-369.17 324,-375.17 320,-381.17"/>
<text text-anchor="middle" x="330.701" y="-390" font-family="Helvetica,sans-Serif" font-size="10.00"> +spi</text>
</g>
</g>
</svg>
