<?xml version="1.0" encoding="UTF-8" standalone="no"?>
<!DOCTYPE svg PUBLIC "-//W3C//DTD SVG 1.1//EN"
 "http://www.w3.org/Graphics/SVG/1.1/DTD/svg11.dtd">
<!-- Generated by graphviz version 2.36.0 (20140111.2315)
 -->
<!-- Title: device_spi_cfg_t Pages: 1 -->
<svg width="98pt" height="206pt"
 viewBox="0.00 0.00 98.00 206.00" xmlns="http://www.w3.org/2000/svg" xmlns:xlink="http://www.w3.org/1999/xlink">
<g id="graph0" class="graph" transform="scale(1 1) rotate(0) translate(4 202)">
<title>device_spi_cfg_t</title>
<!-- Node1 -->
<g id="node1" class="node"><title>Node1</title>
<polygon fill="#bfbfbf" stroke="black" points="-0.246094,-1 -0.246094,-85 90.2461,-85 90.2461,-1 -0.246094,-1"/>
<text text-anchor="middle" x="45" y="-73" font-family="Helvetica,sans-Serif" font-size="10.00">device_spi_cfg_t</text>
<polyline fill="none" stroke="black" points="-0.246094,-67 90.2461,-67 "/>
<text text-anchor="start" x="7.75391" y="-55" font-family="Helvetica,sans-Serif" font-size="10.00">+ width</text>
<text text-anchor="start" x="7.75391" y="-45" font-family="Helvetica,sans-Serif" font-size="10.00">+ format</text>
<text text-anchor="start" x="7.75391" y="-35" font-family="Helvetica,sans-Serif" font-size="10.00">+ mode</text>
<text text-anchor="start" x="7.75391" y="-25" font-family="Helvetica,sans-Serif" font-size="10.00">+ reserved0</text>
<polyline fill="none" stroke="black" points="-0.246094,-19 90.2461,-19 "/>
<text text-anchor="middle" x="45" y="-7" font-family="Helvetica,sans-Serif" font-size="10.00"> </text>
</g>
<!-- Node2 -->
<g id="node2" class="node"><title>Node2</title>
<g id="a_node2"><a xlink:href="structpio__t.html" target="_top" xlink:title="IO port and pin. ">
<polygon fill="none" stroke="black" points="24.0752,-133 24.0752,-197 65.9248,-197 65.9248,-133 24.0752,-133"/>
<text text-anchor="middle" x="45" y="-185" font-family="Helvetica,sans-Serif" font-size="10.00">pio_t</text>
<polyline fill="none" stroke="black" points="24.0752,-179 65.9248,-179 "/>
<text text-anchor="start" x="32.0752" y="-167" font-family="Helvetica,sans-Serif" font-size="10.00">+ port</text>
<text text-anchor="start" x="32.0752" y="-157" font-family="Helvetica,sans-Serif" font-size="10.00">+ pin</text>
<polyline fill="none" stroke="black" points="24.0752,-151 65.9248,-151 "/>
<text text-anchor="middle" x="45" y="-139" font-family="Helvetica,sans-Serif" font-size="10.00"> </text>
</a>
</g>
</g>
<!-- Node2&#45;&gt;Node1 -->
<g id="edge1" class="edge"><title>Node2&#45;&gt;Node1</title>
<path fill="none" stroke="#404040" d="M45,-132.785C45,-121.847 45,-109.237 45,-97.0189"/>
<polygon fill="none" stroke="#404040" points="45.0001,-97.0074 41,-91.0074 45,-85.0074 49,-91.0074 45.0001,-97.0074"/>
<text text-anchor="middle" x="54.3091" y="-106" font-family="Helvetica,sans-Serif" font-size="10.00"> +cs</text>
</g>
</g>
</svg>
