<?xml version="1.0" encoding="UTF-8" standalone="no"?>
<!DOCTYPE svg PUBLIC "-//W3C//DTD SVG 1.1//EN"
 "http://www.w3.org/Graphics/SVG/1.1/DTD/svg11.dtd">
<!-- Generated by graphviz version 2.36.0 (20140111.2315)
 -->
<!-- Title: include/iface/dev/sys.h Pages: 1 -->
<svg width="1296pt" height="252pt"
 viewBox="0.00 0.00 1296.02 252.00" xmlns="http://www.w3.org/2000/svg" xmlns:xlink="http://www.w3.org/1999/xlink">
<g id="graph0" class="graph" transform="scale(1 1) rotate(0) translate(4 248)">
<title>include/iface/dev/sys.h</title>
<!-- Node1 -->
<g id="node1" class="node"><title>Node1</title>
<polygon fill="#bfbfbf" stroke="black" points="561.719,-225 561.719,-243 678.33,-243 678.33,-225 561.719,-225"/>
<text text-anchor="middle" x="620.025" y="-231" font-family="Helvetica,sans-Serif" font-size="10.00">include/iface/dev/sys.h</text>
</g>
<!-- Node2 -->
<g id="node2" class="node"><title>Node2</title>
<polygon fill="none" stroke="#bfbfbf" points="613.904,-1 613.904,-19 662.145,-19 662.145,-1 613.904,-1"/>
<text text-anchor="middle" x="638.025" y="-7" font-family="Helvetica,sans-Serif" font-size="10.00">stdint.h</text>
</g>
<!-- Node1&#45;&gt;Node2 -->
<g id="edge1" class="edge"><title>Node1&#45;&gt;Node2</title>
<path fill="none" stroke="midnightblue" d="M561.527,-233.849C384.2,-234.646 -125.962,-222.862 29.0245,-56 68.2452,-13.7744 480.186,-10.8147 603.401,-10.8812"/>
<polygon fill="midnightblue" stroke="midnightblue" points="603.746,-14.3816 613.751,-10.8945 603.755,-7.38159 603.746,-14.3816"/>
</g>
<!-- Node3 -->
<g id="node3" class="node"><title>Node3</title>
<g id="a_node3"><a xlink:href="iface_2link_8h.html" target="_top" xlink:title="Link Layer Header. ">
<polygon fill="none" stroke="black" points="588.401,-169 588.401,-187 651.648,-187 651.648,-169 588.401,-169"/>
<text text-anchor="middle" x="620.025" y="-175" font-family="Helvetica,sans-Serif" font-size="10.00">iface/link.h</text>
</a>
</g>
</g>
<!-- Node1&#45;&gt;Node3 -->
<g id="edge2" class="edge"><title>Node1&#45;&gt;Node3</title>
<path fill="none" stroke="midnightblue" d="M614.962,-224.562C613.35,-217.308 612.893,-206.588 613.591,-197.369"/>
<polygon fill="midnightblue" stroke="midnightblue" points="617.094,-197.59 615.015,-187.201 610.162,-196.619 617.094,-197.59"/>
</g>
<!-- Node3&#45;&gt;Node1 -->
<g id="edge54" class="edge"><title>Node3&#45;&gt;Node1</title>
<path fill="none" stroke="midnightblue" d="M625.034,-187.201C626.689,-194.459 627.164,-205.313 626.458,-214.633"/>
<polygon fill="midnightblue" stroke="midnightblue" points="622.988,-214.178 625.087,-224.562 629.922,-215.135 622.988,-214.178"/>
</g>
<!-- Node4 -->
<g id="node4" class="node"><title>Node4</title>
<polygon fill="none" stroke="#bfbfbf" points="932.906,-113 932.906,-131 991.143,-131 991.143,-113 932.906,-113"/>
<text text-anchor="middle" x="962.025" y="-119" font-family="Helvetica,sans-Serif" font-size="10.00">sys/stat.h</text>
</g>
<!-- Node3&#45;&gt;Node4 -->
<g id="edge3" class="edge"><title>Node3&#45;&gt;Node4</title>
<path fill="none" stroke="midnightblue" d="M651.983,-172.799C706.786,-165.459 822.15,-149.413 919.025,-132 920.113,-131.804 921.216,-131.602 922.329,-131.394"/>
<polygon fill="midnightblue" stroke="midnightblue" points="923.314,-134.768 932.46,-129.419 921.975,-127.898 923.314,-134.768"/>
</g>
<!-- Node5 -->
<g id="node5" class="node"><title>Node5</title>
<polygon fill="none" stroke="#bfbfbf" points="469.409,-57 469.409,-75 512.64,-75 512.64,-57 469.409,-57"/>
<text text-anchor="middle" x="491.025" y="-63" font-family="Helvetica,sans-Serif" font-size="10.00">time.h</text>
</g>
<!-- Node3&#45;&gt;Node5 -->
<g id="edge4" class="edge"><title>Node3&#45;&gt;Node5</title>
<path fill="none" stroke="midnightblue" d="M588.224,-171.728C563.585,-166.026 530.329,-154.532 510.025,-132 498.474,-119.181 493.922,-99.6968 492.141,-85.4025"/>
<polygon fill="midnightblue" stroke="midnightblue" points="495.612,-84.9224 491.226,-75.2781 488.64,-85.5526 495.612,-84.9224"/>
</g>
<!-- Node6 -->
<g id="node6" class="node"><title>Node6</title>
<g id="a_node6"><a xlink:href="adc_8h.html" target="_top" xlink:title="Analog to Digital Converter Header File. ">
<polygon fill="none" stroke="black" points="724.342,-57 724.342,-75 783.707,-75 783.707,-57 724.342,-57"/>
<text text-anchor="middle" x="754.025" y="-63" font-family="Helvetica,sans-Serif" font-size="10.00">dev/adc.h</text>
</a>
</g>
</g>
<!-- Node3&#45;&gt;Node6 -->
<g id="edge5" class="edge"><title>Node3&#45;&gt;Node6</title>
<path fill="none" stroke="midnightblue" d="M630.096,-168.732C652.712,-150.167 707.77,-104.97 736.272,-81.5727"/>
<polygon fill="midnightblue" stroke="midnightblue" points="738.691,-84.1151 744.2,-75.0649 734.25,-78.7046 738.691,-84.1151"/>
</g>
<!-- Node8 -->
<g id="node8" class="node"><title>Node8</title>
<g id="a_node8"><a xlink:href="bootloader_8h.html" target="_top" xlink:title="Analog to Digital Converter Header File. ">
<polygon fill="none" stroke="black" points="174.047,-57 174.047,-75 264.002,-75 264.002,-57 174.047,-57"/>
<text text-anchor="middle" x="219.025" y="-63" font-family="Helvetica,sans-Serif" font-size="10.00">dev/bootloader.h</text>
</a>
</g>
</g>
<!-- Node3&#45;&gt;Node8 -->
<g id="edge8" class="edge"><title>Node3&#45;&gt;Node8</title>
<path fill="none" stroke="midnightblue" d="M588.267,-170.665C548.983,-162.627 480.174,-147.886 422.025,-132 361.143,-115.368 291.285,-92.0482 251.43,-78.3329"/>
<polygon fill="midnightblue" stroke="midnightblue" points="252.563,-75.0212 241.968,-75.0628 250.276,-81.6373 252.563,-75.0212"/>
</g>
<!-- Node9 -->
<g id="node9" class="node"><title>Node9</title>
<g id="a_node9"><a xlink:href="core_8h.html" target="_top" xlink:title="Analog to Digital Converter Header File. ">
<polygon fill="none" stroke="black" points="147.677,-113 147.677,-131 210.372,-131 210.372,-113 147.677,-113"/>
<text text-anchor="middle" x="179.025" y="-119" font-family="Helvetica,sans-Serif" font-size="10.00">dev/core.h</text>
</a>
</g>
</g>
<!-- Node3&#45;&gt;Node9 -->
<g id="edge11" class="edge"><title>Node3&#45;&gt;Node9</title>
<path fill="none" stroke="midnightblue" d="M588.309,-173.116C510.12,-163.542 308.13,-138.809 220.55,-128.085"/>
<polygon fill="midnightblue" stroke="midnightblue" points="220.804,-124.59 210.453,-126.848 219.953,-131.538 220.804,-124.59"/>
</g>
<!-- Node10 -->
<g id="node10" class="node"><title>Node10</title>
<g id="a_node10"><a xlink:href="pio_8h.html" target="_top" xlink:title="General Purpose Input/Output Header File. ">
<polygon fill="none" stroke="black" points="37.7809,-57 37.7809,-75 118.268,-75 118.268,-57 37.7809,-57"/>
<text text-anchor="middle" x="78.0245" y="-63" font-family="Helvetica,sans-Serif" font-size="10.00">iface/dev/pio.h</text>
</a>
</g>
</g>
<!-- Node3&#45;&gt;Node10 -->
<g id="edge18" class="edge"><title>Node3&#45;&gt;Node10</title>
<path fill="none" stroke="midnightblue" d="M588.364,-176.926C494.378,-176.259 218.593,-170.948 139.025,-132 117.154,-121.294 99.1243,-99.1941 88.4759,-83.7502"/>
<polygon fill="midnightblue" stroke="midnightblue" points="91.2464,-81.5928 82.8313,-75.1557 85.3955,-85.4356 91.2464,-81.5928"/>
</g>
<!-- Node12 -->
<g id="node12" class="node"><title>Node12</title>
<g id="a_node12"><a xlink:href="dac_8h.html" target="_top" xlink:title="DAC Header File. ">
<polygon fill="none" stroke="black" points="801.342,-57 801.342,-75 860.707,-75 860.707,-57 801.342,-57"/>
<text text-anchor="middle" x="831.025" y="-63" font-family="Helvetica,sans-Serif" font-size="10.00">dev/dac.h</text>
</a>
</g>
</g>
<!-- Node3&#45;&gt;Node12 -->
<g id="edge19" class="edge"><title>Node3&#45;&gt;Node12</title>
<path fill="none" stroke="midnightblue" d="M634.201,-168.987C656.394,-156.504 700.762,-131.795 739.025,-112 760.978,-100.642 786.218,-88.3501 804.701,-79.4875"/>
<polygon fill="midnightblue" stroke="midnightblue" points="806.44,-82.5359 813.954,-75.0667 803.422,-76.2198 806.44,-82.5359"/>
</g>
<!-- Node13 -->
<g id="node13" class="node"><title>Node13</title>
<g id="a_node13"><a xlink:href="eint_8h.html" target="_top" xlink:title="External Interrupt Header File. ">
<polygon fill="none" stroke="black" points="1229.34,-57 1229.34,-75 1288.71,-75 1288.71,-57 1229.34,-57"/>
<text text-anchor="middle" x="1259.02" y="-63" font-family="Helvetica,sans-Serif" font-size="10.00">dev/eint.h</text>
</a>
</g>
</g>
<!-- Node3&#45;&gt;Node13 -->
<g id="edge22" class="edge"><title>Node3&#45;&gt;Node13</title>
<path fill="none" stroke="midnightblue" d="M651.74,-174.38C701.688,-169.629 801.302,-157.614 882.025,-132 901.731,-125.747 904.17,-117.768 924.025,-112 1048.18,-75.9319 1087.58,-97.801 1219.22,-75.931"/>
<polygon fill="midnightblue" stroke="midnightblue" points="1220.02,-79.3458 1229.28,-74.2053 1218.83,-72.4466 1220.02,-79.3458"/>
</g>
<!-- Node15 -->
<g id="node15" class="node"><title>Node15</title>
<g id="a_node15"><a xlink:href="flash_8h.html" target="_top" xlink:title="Flash Memory Header File. ">
<polygon fill="none" stroke="black" points="878.842,-57 878.842,-75 943.207,-75 943.207,-57 878.842,-57"/>
<text text-anchor="middle" x="911.025" y="-63" font-family="Helvetica,sans-Serif" font-size="10.00">dev/flash.h</text>
</a>
</g>
</g>
<!-- Node3&#45;&gt;Node15 -->
<g id="edge26" class="edge"><title>Node3&#45;&gt;Node15</title>
<path fill="none" stroke="midnightblue" d="M641.832,-168.997C665.103,-160.334 702.957,-145.888 735.025,-132 753.997,-123.783 757.857,-119.749 777.025,-112 809.303,-98.9498 846.961,-86.5433 874.121,-78.0752"/>
<polygon fill="midnightblue" stroke="midnightblue" points="875.461,-81.3244 883.983,-75.0294 873.396,-74.6361 875.461,-81.3244"/>
</g>
<!-- Node16 -->
<g id="node16" class="node"><title>Node16</title>
<g id="a_node16"><a xlink:href="i2c_8h.html" target="_top" xlink:title="I2C Header File. ">
<polygon fill="none" stroke="black" points="961.012,-57 961.012,-75 1017.04,-75 1017.04,-57 961.012,-57"/>
<text text-anchor="middle" x="989.025" y="-63" font-family="Helvetica,sans-Serif" font-size="10.00">dev/i2c.h</text>
</a>
</g>
</g>
<!-- Node3&#45;&gt;Node16 -->
<g id="edge29" class="edge"><title>Node3&#45;&gt;Node16</title>
<path fill="none" stroke="midnightblue" d="M650.852,-168.983C681.442,-160.741 729.488,-147.02 770.025,-132 790.547,-124.396 794.36,-119.209 815.025,-112 827.856,-107.524 903.807,-88.2993 951.025,-76.473"/>
<polygon fill="midnightblue" stroke="midnightblue" points="952.067,-79.8203 960.919,-73.998 950.368,-73.0295 952.067,-79.8203"/>
</g>
<!-- Node17 -->
<g id="node17" class="node"><title>Node17</title>
<g id="a_node17"><a xlink:href="pwm_8h.html" target="_top" xlink:title="Pulse Width Modulation Header File. ">
<polygon fill="none" stroke="black" points="1072.85,-57 1072.85,-75 1137.2,-75 1137.2,-57 1072.85,-57"/>
<text text-anchor="middle" x="1105.02" y="-63" font-family="Helvetica,sans-Serif" font-size="10.00">dev/pwm.h</text>
</a>
</g>
</g>
<!-- Node3&#45;&gt;Node17 -->
<g id="edge32" class="edge"><title>Node3&#45;&gt;Node17</title>
<path fill="none" stroke="midnightblue" d="M651.93,-171.084C689.538,-163.709 753.671,-149.867 807.025,-132 828.164,-124.921 831.684,-118.448 853.025,-112 891.431,-100.396 1001.02,-82.7757 1062.27,-73.3979"/>
<polygon fill="midnightblue" stroke="midnightblue" points="1063.04,-76.822 1072.39,-71.8559 1061.98,-69.9019 1063.04,-76.822"/>
</g>
<!-- Node18 -->
<g id="node18" class="node"><title>Node18</title>
<g id="a_node18"><a xlink:href="qei_8h.html" target="_top" xlink:title="Quadrature Encoder Interface Header File. ">
<polygon fill="none" stroke="black" points="1154.73,-57 1154.73,-75 1211.32,-75 1211.32,-57 1154.73,-57"/>
<text text-anchor="middle" x="1183.02" y="-63" font-family="Helvetica,sans-Serif" font-size="10.00">dev/qei.h</text>
</a>
</g>
</g>
<!-- Node3&#45;&gt;Node18 -->
<g id="edge35" class="edge"><title>Node3&#45;&gt;Node18</title>
<path fill="none" stroke="midnightblue" d="M651.693,-172.722C695.55,-166.329 776.958,-152.767 844.025,-132 865.71,-125.285 869.153,-118.083 891.025,-112 998.173,-82.1975 1031.72,-96.6708 1144.35,-76.1428"/>
<polygon fill="midnightblue" stroke="midnightblue" points="1145.22,-79.5407 1154.4,-74.2567 1143.93,-72.6607 1145.22,-79.5407"/>
</g>
<!-- Node19 -->
<g id="node19" class="node"><title>Node19</title>
<g id="a_node19"><a xlink:href="rtc_8h.html" target="_top" xlink:title="Real Time Clock Header File. ">
<polygon fill="none" stroke="black" points="518.85,-113 518.85,-131 573.199,-131 573.199,-113 518.85,-113"/>
<text text-anchor="middle" x="546.025" y="-119" font-family="Helvetica,sans-Serif" font-size="10.00">dev/rtc.h</text>
</a>
</g>
</g>
<!-- Node3&#45;&gt;Node19 -->
<g id="edge38" class="edge"><title>Node3&#45;&gt;Node19</title>
<path fill="none" stroke="midnightblue" d="M608.786,-168.799C597.376,-160.473 579.479,-147.413 565.711,-137.366"/>
<polygon fill="midnightblue" stroke="midnightblue" points="567.51,-134.346 557.369,-131.279 563.384,-140.001 567.51,-134.346"/>
</g>
<!-- Node20 -->
<g id="node20" class="node"><title>Node20</title>
<g id="a_node20"><a xlink:href="spi_8h.html" target="_top" xlink:title="Serial Peripheral Interface Header File. ">
<polygon fill="none" stroke="black" points="320.012,-57 320.012,-75 376.037,-75 376.037,-57 320.012,-57"/>
<text text-anchor="middle" x="348.025" y="-63" font-family="Helvetica,sans-Serif" font-size="10.00">dev/spi.h</text>
</a>
</g>
</g>
<!-- Node3&#45;&gt;Node20 -->
<g id="edge42" class="edge"><title>Node3&#45;&gt;Node20</title>
<path fill="none" stroke="midnightblue" d="M588.363,-169.906C556.735,-162.323 507.05,-149.051 466.025,-132 430.718,-117.326 392.385,-94.887 369.288,-80.5841"/>
<polygon fill="midnightblue" stroke="midnightblue" points="370.99,-77.5199 360.657,-75.1771 367.273,-83.452 370.99,-77.5199"/>
</g>
<!-- Node21 -->
<g id="node21" class="node"><title>Node21</title>
<g id="a_node21"><a xlink:href="tmr_8h.html" target="_top" xlink:title="Timer Header File. ">
<polygon fill="none" stroke="black" points="394.458,-57 394.458,-75 451.591,-75 451.591,-57 394.458,-57"/>
<text text-anchor="middle" x="423.025" y="-63" font-family="Helvetica,sans-Serif" font-size="10.00">dev/tmr.h</text>
</a>
</g>
</g>
<!-- Node3&#45;&gt;Node21 -->
<g id="edge45" class="edge"><title>Node3&#45;&gt;Node21</title>
<path fill="none" stroke="midnightblue" d="M588.216,-169.247C562.011,-162.013 524.502,-149.668 495.025,-132 472.566,-118.539 450.828,-97.4517 437.221,-82.9675"/>
<polygon fill="midnightblue" stroke="midnightblue" points="439.54,-80.3185 430.204,-75.31 434.379,-85.0475 439.54,-80.3185"/>
</g>
<!-- Node22 -->
<g id="node22" class="node"><title>Node22</title>
<g id="a_node22"><a xlink:href="uart_8h.html" target="_top" xlink:title="Universal Asynchronous Receiver/Transmitter Header File. ">
<polygon fill="none" stroke="black" points="568.788,-57 568.788,-75 629.261,-75 629.261,-57 568.788,-57"/>
<text text-anchor="middle" x="599.025" y="-63" font-family="Helvetica,sans-Serif" font-size="10.00">dev/uart.h</text>
</a>
</g>
</g>
<!-- Node3&#45;&gt;Node22 -->
<g id="edge48" class="edge"><title>Node3&#45;&gt;Node22</title>
<path fill="none" stroke="midnightblue" d="M618.446,-168.732C615.07,-151.047 607.08,-109.196 602.469,-85.0427"/>
<polygon fill="midnightblue" stroke="midnightblue" points="605.877,-84.2311 600.564,-75.0649 599.002,-85.5438 605.877,-84.2311"/>
</g>
<!-- Node23 -->
<g id="node23" class="node"><title>Node23</title>
<g id="a_node23"><a xlink:href="usb_8h.html" target="_top" xlink:title="Universal Serial Bus Header File. ">
<polygon fill="none" stroke="black" points="647.342,-57 647.342,-75 706.707,-75 706.707,-57 647.342,-57"/>
<text text-anchor="middle" x="677.025" y="-63" font-family="Helvetica,sans-Serif" font-size="10.00">dev/usb.h</text>
</a>
</g>
</g>
<!-- Node3&#45;&gt;Node23 -->
<g id="edge51" class="edge"><title>Node3&#45;&gt;Node23</title>
<path fill="none" stroke="midnightblue" d="M624.309,-168.732C633.597,-150.807 655.75,-108.056 668.18,-84.0689"/>
<polygon fill="midnightblue" stroke="midnightblue" points="671.352,-85.554 672.845,-75.0649 665.137,-82.3333 671.352,-85.554"/>
</g>
<!-- Node6&#45;&gt;Node2 -->
<g id="edge6" class="edge"><title>Node6&#45;&gt;Node2</title>
<path fill="none" stroke="midnightblue" d="M736.658,-56.9157C717.609,-48.0478 686.807,-33.7092 664.691,-23.4138"/>
<polygon fill="midnightblue" stroke="midnightblue" points="666.053,-20.1869 655.51,-19.1396 663.098,-26.533 666.053,-20.1869"/>
</g>
<!-- Node7 -->
<g id="node7" class="node"><title>Node7</title>
<polygon fill="none" stroke="#bfbfbf" points="721.293,-1 721.293,-19 786.756,-19 786.756,-1 721.293,-1"/>
<text text-anchor="middle" x="754.025" y="-7" font-family="Helvetica,sans-Serif" font-size="10.00">mcu/arch.h</text>
</g>
<!-- Node6&#45;&gt;Node7 -->
<g id="edge7" class="edge"><title>Node6&#45;&gt;Node7</title>
<path fill="none" stroke="midnightblue" d="M754.025,-56.5625C754.025,-49.308 754.025,-38.5884 754.025,-29.3691"/>
<polygon fill="midnightblue" stroke="midnightblue" points="757.525,-29.2014 754.025,-19.2014 750.525,-29.2015 757.525,-29.2014"/>
</g>
<!-- Node8&#45;&gt;Node2 -->
<g id="edge9" class="edge"><title>Node8&#45;&gt;Node2</title>
<path fill="none" stroke="midnightblue" d="M264.104,-57.9953C268.802,-57.3036 273.509,-56.6265 278.025,-56 397.404,-39.4367 539.449,-22.4931 603.581,-14.9914"/>
<polygon fill="midnightblue" stroke="midnightblue" points="604.023,-18.4637 613.55,-13.828 603.212,-11.5109 604.023,-18.4637"/>
</g>
<!-- Node8&#45;&gt;Node7 -->
<g id="edge10" class="edge"><title>Node8&#45;&gt;Node7</title>
<path fill="none" stroke="midnightblue" d="M264.084,-57.8418C268.786,-57.18 273.499,-56.5519 278.025,-56 452.132,-34.7656 496.497,-37.4547 671.025,-20 683.998,-18.7025 698.102,-17.2057 710.94,-15.8097"/>
<polygon fill="midnightblue" stroke="midnightblue" points="711.359,-19.2848 720.919,-14.7176 710.598,-12.3264 711.359,-19.2848"/>
</g>
<!-- Node9&#45;&gt;Node2 -->
<g id="edge12" class="edge"><title>Node9&#45;&gt;Node2</title>
<path fill="none" stroke="midnightblue" d="M173.217,-112.641C164.515,-99.0001 150.579,-71.8849 165.025,-56 194.438,-23.6555 499.508,-14.0211 603.512,-11.6647"/>
<polygon fill="midnightblue" stroke="midnightblue" points="603.856,-15.1581 613.778,-11.4411 603.704,-8.15975 603.856,-15.1581"/>
</g>
<!-- Node9&#45;&gt;Node7 -->
<g id="edge13" class="edge"><title>Node9&#45;&gt;Node7</title>
<path fill="none" stroke="midnightblue" d="M195.883,-112.987C214.558,-104.077 245.535,-89.1986 272.025,-76 289.46,-67.3127 292.34,-61.5097 311.025,-56 465.256,-10.5189 511.093,-36.6673 671.025,-20 683.992,-18.6486 698.095,-17.1357 710.933,-15.7416"/>
<polygon fill="midnightblue" stroke="midnightblue" points="711.35,-19.2169 720.913,-14.6544 710.592,-12.2581 711.35,-19.2169"/>
</g>
<!-- Node9&#45;&gt;Node10 -->
<g id="edge14" class="edge"><title>Node9&#45;&gt;Node10</title>
<path fill="none" stroke="midnightblue" d="M163.685,-112.799C147.351,-104.065 121.274,-90.1234 102.178,-79.9137"/>
<polygon fill="midnightblue" stroke="midnightblue" points="103.647,-76.7301 93.1777,-75.1017 100.346,-82.9032 103.647,-76.7301"/>
</g>
<!-- Node10&#45;&gt;Node2 -->
<g id="edge16" class="edge"><title>Node10&#45;&gt;Node2</title>
<path fill="none" stroke="midnightblue" d="M118.372,-57.9293C122.969,-57.2266 127.593,-56.5655 132.025,-56 308.865,-33.4333 521.918,-18.4477 603.739,-13.1409"/>
<polygon fill="midnightblue" stroke="midnightblue" points="603.973,-16.6331 613.728,-12.499 603.524,-9.64755 603.973,-16.6331"/>
</g>
<!-- Node10&#45;&gt;Node7 -->
<g id="edge17" class="edge"><title>Node10&#45;&gt;Node7</title>
<path fill="none" stroke="midnightblue" d="M118.281,-60.5638C132.981,-59.0156 149.746,-57.3334 165.025,-56 389.628,-36.3978 446.47,-40.1558 671.025,-20 684.01,-18.8344 698.118,-17.3767 710.956,-15.9762"/>
<polygon fill="midnightblue" stroke="midnightblue" points="711.379,-19.4508 720.934,-14.8718 710.609,-12.4932 711.379,-19.4508"/>
</g>
<!-- Node11 -->
<g id="node11" class="node"><title>Node11</title>
<polygon fill="none" stroke="#bfbfbf" points="49.7316,-1 49.7316,-19 106.318,-19 106.318,-1 49.7316,-1"/>
<text text-anchor="middle" x="78.0245" y="-7" font-family="Helvetica,sans-Serif" font-size="10.00">stdbool.h</text>
</g>
<!-- Node10&#45;&gt;Node11 -->
<g id="edge15" class="edge"><title>Node10&#45;&gt;Node11</title>
<path fill="none" stroke="midnightblue" d="M78.0245,-56.5625C78.0245,-49.308 78.0245,-38.5884 78.0245,-29.3691"/>
<polygon fill="midnightblue" stroke="midnightblue" points="81.5246,-29.2014 78.0245,-19.2014 74.5246,-29.2015 81.5246,-29.2014"/>
</g>
<!-- Node12&#45;&gt;Node2 -->
<g id="edge20" class="edge"><title>Node12&#45;&gt;Node2</title>
<path fill="none" stroke="midnightblue" d="M802.13,-56.9157C767.335,-47.1801 708.973,-30.8508 672.037,-20.5166"/>
<polygon fill="midnightblue" stroke="midnightblue" points="672.799,-17.0952 662.225,-17.7712 670.913,-23.8363 672.799,-17.0952"/>
</g>
<!-- Node12&#45;&gt;Node7 -->
<g id="edge21" class="edge"><title>Node12&#45;&gt;Node7</title>
<path fill="none" stroke="midnightblue" d="M819.33,-56.7986C807.275,-48.3446 788.26,-35.0093 773.85,-24.9039"/>
<polygon fill="midnightblue" stroke="midnightblue" points="775.774,-21.9779 765.577,-19.1017 771.755,-27.7091 775.774,-21.9779"/>
</g>
<!-- Node13&#45;&gt;Node2 -->
<g id="edge23" class="edge"><title>Node13&#45;&gt;Node2</title>
<path fill="none" stroke="midnightblue" d="M1229.31,-57.6386C1226.18,-57.0165 1223.05,-56.4532 1220.02,-56 996.181,-22.4501 937.329,-41.6703 712.025,-20 699.041,-18.7513 684.812,-17.0909 672.33,-15.5365"/>
<polygon fill="midnightblue" stroke="midnightblue" points="672.682,-12.0532 662.321,-14.2671 671.801,-18.9976 672.682,-12.0532"/>
</g>
<!-- Node13&#45;&gt;Node7 -->
<g id="edge24" class="edge"><title>Node13&#45;&gt;Node7</title>
<path fill="none" stroke="midnightblue" d="M1229.29,-57.7179C1226.17,-57.0803 1223.04,-56.4917 1220.02,-56 1065.39,-30.8024 879.429,-18.0378 796.983,-13.2688"/>
<polygon fill="midnightblue" stroke="midnightblue" points="797.165,-9.77357 786.983,-12.7004 796.768,-16.7623 797.165,-9.77357"/>
</g>
<!-- Node14 -->
<g id="node14" class="node"><title>Node14</title>
<polygon fill="none" stroke="#bfbfbf" points="1229.35,-1 1229.35,-19 1288.7,-19 1288.7,-1 1229.35,-1"/>
<text text-anchor="middle" x="1259.02" y="-7" font-family="Helvetica,sans-Serif" font-size="10.00">mcu/pio.h</text>
</g>
<!-- Node13&#45;&gt;Node14 -->
<g id="edge25" class="edge"><title>Node13&#45;&gt;Node14</title>
<path fill="none" stroke="midnightblue" d="M1259.02,-56.5625C1259.02,-49.308 1259.02,-38.5884 1259.02,-29.3691"/>
<polygon fill="midnightblue" stroke="midnightblue" points="1262.52,-29.2014 1259.02,-19.2014 1255.52,-29.2015 1262.52,-29.2014"/>
</g>
<!-- Node15&#45;&gt;Node2 -->
<g id="edge27" class="edge"><title>Node15&#45;&gt;Node2</title>
<path fill="none" stroke="midnightblue" d="M878.478,-57.9629C875.285,-57.2915 872.093,-56.6276 869.025,-56 799.208,-41.7206 717.299,-26.0105 672.183,-17.4474"/>
<polygon fill="midnightblue" stroke="midnightblue" points="672.809,-14.0039 662.332,-15.5804 671.506,-20.8815 672.809,-14.0039"/>
</g>
<!-- Node15&#45;&gt;Node7 -->
<g id="edge28" class="edge"><title>Node15&#45;&gt;Node7</title>
<path fill="none" stroke="midnightblue" d="M887.52,-56.9157C860.852,-47.743 817.165,-32.7171 787.073,-22.3669"/>
<polygon fill="midnightblue" stroke="midnightblue" points="788.028,-18.9941 777.433,-19.0513 785.751,-25.6135 788.028,-18.9941"/>
</g>
<!-- Node16&#45;&gt;Node2 -->
<g id="edge30" class="edge"><title>Node16&#45;&gt;Node2</title>
<path fill="none" stroke="midnightblue" d="M960.804,-57.8392C957.848,-57.178 954.881,-56.5507 952.025,-56 898.918,-45.7604 742.459,-24.743 672.505,-15.5143"/>
<polygon fill="midnightblue" stroke="midnightblue" points="672.813,-12.0247 662.442,-14.1893 671.899,-18.9648 672.813,-12.0247"/>
</g>
<!-- Node16&#45;&gt;Node7 -->
<g id="edge31" class="edge"><title>Node16&#45;&gt;Node7</title>
<path fill="none" stroke="midnightblue" d="M960.753,-58.0766C957.807,-57.3691 954.856,-56.6661 952.025,-56 898.676,-43.4501 837.101,-29.547 796.966,-20.5626"/>
<polygon fill="midnightblue" stroke="midnightblue" points="797.514,-17.099 786.992,-18.3324 795.987,-23.9303 797.514,-17.099"/>
</g>
<!-- Node17&#45;&gt;Node2 -->
<g id="edge33" class="edge"><title>Node17&#45;&gt;Node2</title>
<path fill="none" stroke="midnightblue" d="M1072.81,-61.3248C985.336,-51.3423 747.532,-24.192 712.025,-20 699.072,-18.4707 684.848,-16.7507 672.363,-15.2271"/>
<polygon fill="midnightblue" stroke="midnightblue" points="672.701,-11.7425 662.35,-14.002 671.85,-18.6906 672.701,-11.7425"/>
</g>
<!-- Node17&#45;&gt;Node7 -->
<g id="edge34" class="edge"><title>Node17&#45;&gt;Node7</title>
<path fill="none" stroke="midnightblue" d="M1072.39,-58.4198C1067.91,-57.5726 1063.36,-56.7428 1059.02,-56 965.961,-40.0397 856.327,-24.7074 797.151,-16.7164"/>
<polygon fill="midnightblue" stroke="midnightblue" points="797.43,-13.2224 787.052,-15.3578 796.496,-20.1599 797.43,-13.2224"/>
</g>
<!-- Node18&#45;&gt;Node2 -->
<g id="edge36" class="edge"><title>Node18&#45;&gt;Node2</title>
<path fill="none" stroke="midnightblue" d="M1154.43,-57.5785C1151.6,-56.985 1148.77,-56.4442 1146.02,-56 954.967,-25.0329 904.572,-39.6875 712.025,-20 699.049,-18.6733 684.821,-16.9964 672.338,-15.4505"/>
<polygon fill="midnightblue" stroke="midnightblue" points="672.687,-11.9669 662.328,-14.1935 671.814,-18.9123 672.687,-11.9669"/>
</g>
<!-- Node18&#45;&gt;Node7 -->
<g id="edge37" class="edge"><title>Node18&#45;&gt;Node7</title>
<path fill="none" stroke="midnightblue" d="M1154.42,-57.669C1151.59,-57.0571 1148.76,-56.4874 1146.02,-56 1020.2,-33.5648 869.566,-19.9293 797.116,-14.1836"/>
<polygon fill="midnightblue" stroke="midnightblue" points="797.249,-10.6834 787.007,-13.393 796.703,-17.6621 797.249,-10.6834"/>
</g>
<!-- Node19&#45;&gt;Node2 -->
<g id="edge40" class="edge"><title>Node19&#45;&gt;Node2</title>
<path fill="none" stroke="midnightblue" d="M545.756,-112.97C545.718,-99.802 547.378,-73.3512 560.025,-56 570.929,-41.0386 588.436,-30.2897 604.104,-23.0575"/>
<polygon fill="midnightblue" stroke="midnightblue" points="605.738,-26.1648 613.546,-19.0028 602.976,-19.7328 605.738,-26.1648"/>
</g>
<!-- Node19&#45;&gt;Node5 -->
<g id="edge39" class="edge"><title>Node19&#45;&gt;Node5</title>
<path fill="none" stroke="midnightblue" d="M537.431,-112.562C529.23,-104.511 516.682,-92.1905 506.7,-82.3907"/>
<polygon fill="midnightblue" stroke="midnightblue" points="508.966,-79.7099 499.378,-75.2014 504.061,-84.7049 508.966,-79.7099"/>
</g>
<!-- Node19&#45;&gt;Node7 -->
<g id="edge41" class="edge"><title>Node19&#45;&gt;Node7</title>
<path fill="none" stroke="midnightblue" d="M573.249,-120.536C670.327,-118.604 995.382,-109.65 1026.02,-76 1032.01,-69.4278 1031.77,-62.779 1026.02,-56 997.165,-21.974 866.088,-13.6412 796.976,-11.6251"/>
<polygon fill="midnightblue" stroke="midnightblue" points="796.933,-8.12283 786.845,-11.3619 796.751,-15.1205 796.933,-8.12283"/>
</g>
<!-- Node20&#45;&gt;Node2 -->
<g id="edge43" class="edge"><title>Node20&#45;&gt;Node2</title>
<path fill="none" stroke="midnightblue" d="M376.265,-57.938C379.217,-57.2575 382.178,-56.5987 385.025,-56 462.914,-39.6168 555.118,-24.2131 603.854,-16.3806"/>
<polygon fill="midnightblue" stroke="midnightblue" points="604.536,-19.8163 613.858,-14.7814 603.431,-12.904 604.536,-19.8163"/>
</g>
<!-- Node20&#45;&gt;Node7 -->
<g id="edge44" class="edge"><title>Node20&#45;&gt;Node7</title>
<path fill="none" stroke="midnightblue" d="M376.233,-57.7775C379.192,-57.1283 382.163,-56.5207 385.025,-56 416.479,-50.2769 620.321,-26.4524 710.836,-15.9778"/>
<polygon fill="midnightblue" stroke="midnightblue" points="711.505,-19.4239 721.037,-14.7984 710.701,-12.4702 711.505,-19.4239"/>
</g>
<!-- Node21&#45;&gt;Node2 -->
<g id="edge46" class="edge"><title>Node21&#45;&gt;Node2</title>
<path fill="none" stroke="midnightblue" d="M452.02,-57.7173C491.517,-47.7972 562.102,-30.0689 604.038,-19.5361"/>
<polygon fill="midnightblue" stroke="midnightblue" points="604.948,-22.9165 613.794,-17.0858 603.242,-16.1273 604.948,-22.9165"/>
</g>
<!-- Node21&#45;&gt;Node7 -->
<g id="edge47" class="edge"><title>Node21&#45;&gt;Node7</title>
<path fill="none" stroke="midnightblue" d="M451.653,-57.7765C454.475,-57.1429 457.301,-56.5387 460.025,-56 548.722,-38.4587 653.629,-23.8606 711.075,-16.3861"/>
<polygon fill="midnightblue" stroke="midnightblue" points="711.765,-19.8261 721.234,-15.0742 710.868,-12.8838 711.765,-19.8261"/>
</g>
<!-- Node22&#45;&gt;Node2 -->
<g id="edge49" class="edge"><title>Node22&#45;&gt;Node2</title>
<path fill="none" stroke="midnightblue" d="M605.118,-56.5625C610.703,-48.8297 619.131,-37.1597 626.06,-27.5665"/>
<polygon fill="midnightblue" stroke="midnightblue" points="629.084,-29.3575 632.101,-19.2014 623.409,-25.259 629.084,-29.3575"/>
</g>
<!-- Node22&#45;&gt;Node7 -->
<g id="edge50" class="edge"><title>Node22&#45;&gt;Node7</title>
<path fill="none" stroke="midnightblue" d="M622.23,-56.9157C648.558,-47.743 691.688,-32.7171 721.397,-22.3669"/>
<polygon fill="midnightblue" stroke="midnightblue" points="722.623,-25.6465 730.914,-19.0513 720.32,-19.0361 722.623,-25.6465"/>
</g>
<!-- Node23&#45;&gt;Node2 -->
<g id="edge52" class="edge"><title>Node23&#45;&gt;Node2</title>
<path fill="none" stroke="midnightblue" d="M670.931,-56.5625C665.346,-48.8297 656.918,-37.1597 649.989,-27.5665"/>
<polygon fill="midnightblue" stroke="midnightblue" points="652.64,-25.259 643.948,-19.2014 646.965,-29.3575 652.64,-25.259"/>
</g>
<!-- Node23&#45;&gt;Node7 -->
<g id="edge53" class="edge"><title>Node23&#45;&gt;Node7</title>
<path fill="none" stroke="midnightblue" d="M688.719,-56.7986C700.774,-48.3446 719.789,-35.0093 734.199,-24.9039"/>
<polygon fill="midnightblue" stroke="midnightblue" points="736.294,-27.7091 742.472,-19.1017 732.275,-21.9779 736.294,-27.7091"/>
</g>
</g>
</svg>
