<?xml version="1.0" encoding="UTF-8" standalone="no"?>
<!DOCTYPE svg PUBLIC "-//W3C//DTD SVG 1.1//EN"
 "http://www.w3.org/Graphics/SVG/1.1/DTD/svg11.dtd">
<!-- Generated by graphviz version 2.36.0 (20140111.2315)
 -->
<!-- Title: src/sys/unistd/unistd_data_transfer.c Pages: 1 -->
<svg width="482pt" height="94pt"
 viewBox="0.00 0.00 482.00 94.00" xmlns="http://www.w3.org/2000/svg" xmlns:xlink="http://www.w3.org/1999/xlink">
<g id="graph0" class="graph" transform="scale(1 1) rotate(0) translate(4 90)">
<title>src/sys/unistd/unistd_data_transfer.c</title>
<!-- Node1 -->
<g id="node1" class="node"><title>Node1</title>
<polygon fill="#bfbfbf" stroke="black" points="145.983,-57 145.983,-85 252.017,-85 252.017,-57 145.983,-57"/>
<text text-anchor="start" x="153.983" y="-73" font-family="Helvetica,sans-Serif" font-size="10.00">src/sys/unistd/unistd</text>
<text text-anchor="middle" x="199" y="-63" font-family="Helvetica,sans-Serif" font-size="10.00">_data_transfer.c</text>
</g>
<!-- Node2 -->
<g id="node2" class="node"><title>Node2</title>
<polygon fill="none" stroke="#bfbfbf" points="-0.566406,-1 -0.566406,-19 46.5664,-19 46.5664,-1 -0.566406,-1"/>
<text text-anchor="middle" x="23" y="-7" font-family="Helvetica,sans-Serif" font-size="10.00">reent.h</text>
</g>
<!-- Node1&#45;&gt;Node2 -->
<g id="edge1" class="edge"><title>Node1&#45;&gt;Node2</title>
<path fill="none" stroke="midnightblue" d="M159.94,-56.906C128.958,-46.52 86.1091,-32.1559 56.6362,-22.2758"/>
<polygon fill="midnightblue" stroke="midnightblue" points="57.4044,-18.8419 46.8105,-18.9819 55.1795,-25.4789 57.4044,-18.8419"/>
</g>
<!-- Node3 -->
<g id="node3" class="node"><title>Node3</title>
<polygon fill="none" stroke="#bfbfbf" points="64.9336,-1 64.9336,-19 117.066,-19 117.066,-1 64.9336,-1"/>
<text text-anchor="middle" x="91" y="-7" font-family="Helvetica,sans-Serif" font-size="10.00">stdarg.h</text>
</g>
<!-- Node1&#45;&gt;Node3 -->
<g id="edge2" class="edge"><title>Node1&#45;&gt;Node3</title>
<path fill="none" stroke="midnightblue" d="M175.031,-56.906C157.204,-47.1669 132.973,-33.9298 115.112,-24.172"/>
<polygon fill="midnightblue" stroke="midnightblue" points="116.379,-20.8761 105.925,-19.1534 113.023,-27.0192 116.379,-20.8761"/>
</g>
<!-- Node4 -->
<g id="node4" class="node"><title>Node4</title>
<polygon fill="none" stroke="#bfbfbf" points="134.882,-1 134.882,-19 193.118,-19 193.118,-1 134.882,-1"/>
<text text-anchor="middle" x="164" y="-7" font-family="Helvetica,sans-Serif" font-size="10.00">sys/stat.h</text>
</g>
<!-- Node1&#45;&gt;Node4 -->
<g id="edge3" class="edge"><title>Node1&#45;&gt;Node4</title>
<path fill="none" stroke="midnightblue" d="M191.232,-56.906C186.15,-48.3392 179.463,-37.0658 173.987,-27.8347"/>
<polygon fill="midnightblue" stroke="midnightblue" points="176.949,-25.9682 168.837,-19.1534 170.929,-29.5396 176.949,-25.9682"/>
</g>
<!-- Node5 -->
<g id="node5" class="node"><title>Node5</title>
<polygon fill="none" stroke="#bfbfbf" points="211.158,-1 211.158,-19 258.842,-19 258.842,-1 211.158,-1"/>
<text text-anchor="middle" x="235" y="-7" font-family="Helvetica,sans-Serif" font-size="10.00">errno.h</text>
</g>
<!-- Node1&#45;&gt;Node5 -->
<g id="edge4" class="edge"><title>Node1&#45;&gt;Node5</title>
<path fill="none" stroke="midnightblue" d="M206.99,-56.906C212.217,-48.3392 219.095,-37.0658 224.728,-27.8347"/>
<polygon fill="midnightblue" stroke="midnightblue" points="227.804,-29.5128 230.025,-19.1534 221.829,-25.8667 227.804,-29.5128"/>
</g>
<!-- Node6 -->
<g id="node6" class="node"><title>Node6</title>
<polygon fill="none" stroke="#bfbfbf" points="276.549,-1 276.549,-19 341.451,-19 341.451,-1 276.549,-1"/>
<text text-anchor="middle" x="309" y="-7" font-family="Helvetica,sans-Serif" font-size="10.00">mcu/mcu.h</text>
</g>
<!-- Node1&#45;&gt;Node6 -->
<g id="edge5" class="edge"><title>Node1&#45;&gt;Node6</title>
<path fill="none" stroke="midnightblue" d="M223.413,-56.906C241.738,-47.0767 266.707,-33.6843 284.946,-23.9019"/>
<polygon fill="midnightblue" stroke="midnightblue" points="286.641,-26.9644 293.799,-19.1534 283.332,-20.7957 286.641,-26.9644"/>
</g>
<!-- Node7 -->
<g id="node7" class="node"><title>Node7</title>
<polygon fill="none" stroke="#bfbfbf" points="359.247,-1 359.247,-19 474.753,-19 474.753,-1 359.247,-1"/>
<text text-anchor="middle" x="417" y="-7" font-family="Helvetica,sans-Serif" font-size="10.00">../sched/sched_flags.h</text>
</g>
<!-- Node1&#45;&gt;Node7 -->
<g id="edge6" class="edge"><title>Node1&#45;&gt;Node7</title>
<path fill="none" stroke="midnightblue" d="M247.111,-56.9792C286.308,-46.3707 340.974,-31.576 377.606,-21.6617"/>
<polygon fill="midnightblue" stroke="midnightblue" points="378.694,-24.9933 387.432,-19.0023 376.865,-18.2364 378.694,-24.9933"/>
</g>
</g>
</svg>
