<?xml version="1.0" encoding="UTF-8" standalone="no"?>
<!DOCTYPE svg PUBLIC "-//W3C//DTD SVG 1.1//EN"
 "http://www.w3.org/Graphics/SVG/1.1/DTD/svg11.dtd">
<!-- Generated by graphviz version 2.36.0 (20140111.2315)
 -->
<!-- Title: include/iface/dev/usbfifo.h Pages: 1 -->
<svg width="227pt" height="140pt"
 viewBox="0.00 0.00 227.00 140.00" xmlns="http://www.w3.org/2000/svg" xmlns:xlink="http://www.w3.org/1999/xlink">
<g id="graph0" class="graph" transform="scale(1 1) rotate(0) translate(4 136)">
<title>include/iface/dev/usbfifo.h</title>
<!-- Node1 -->
<g id="node1" class="node"><title>Node1</title>
<polygon fill="#bfbfbf" stroke="black" points="45.4634,-113 45.4634,-131 176.537,-131 176.537,-113 45.4634,-113"/>
<text text-anchor="middle" x="111" y="-119" font-family="Helvetica,sans-Serif" font-size="10.00">include/iface/dev/usbfifo.h</text>
</g>
<!-- Node2 -->
<g id="node2" class="node"><title>Node2</title>
<polygon fill="none" stroke="#bfbfbf" points="86.8794,-1 86.8794,-19 135.121,-19 135.121,-1 86.8794,-1"/>
<text text-anchor="middle" x="111" y="-7" font-family="Helvetica,sans-Serif" font-size="10.00">stdint.h</text>
</g>
<!-- Node1&#45;&gt;Node2 -->
<g id="edge1" class="edge"><title>Node1&#45;&gt;Node2</title>
<path fill="none" stroke="midnightblue" d="M111,-112.732C111,-95.1275 111,-53.5746 111,-29.3716"/>
<polygon fill="midnightblue" stroke="midnightblue" points="114.5,-29.0648 111,-19.0649 107.5,-29.0649 114.5,-29.0648"/>
</g>
<!-- Node3 -->
<g id="node3" class="node"><title>Node3</title>
<g id="a_node3"><a xlink:href="usb_8h.html" target="_top" xlink:title="Universal Serial Bus Header File. ">
<polygon fill="none" stroke="black" points="-0.632812,-57 -0.632812,-75 82.6328,-75 82.6328,-57 -0.632812,-57"/>
<text text-anchor="middle" x="41" y="-63" font-family="Helvetica,sans-Serif" font-size="10.00">iface/dev/usb.h</text>
</a>
</g>
</g>
<!-- Node1&#45;&gt;Node3 -->
<g id="edge2" class="edge"><title>Node1&#45;&gt;Node3</title>
<path fill="none" stroke="midnightblue" d="M100.369,-112.799C89.6786,-104.552 72.9678,-91.6608 59.9953,-81.6535"/>
<polygon fill="midnightblue" stroke="midnightblue" points="61.7872,-78.6154 51.7315,-75.2786 57.5116,-84.1579 61.7872,-78.6154"/>
</g>
<!-- Node5 -->
<g id="node5" class="node"><title>Node5</title>
<g id="a_node5"><a xlink:href="fifo_8h.html" target="_top" xlink:title="fifo.h">
<polygon fill="none" stroke="black" points="139.16,-57 139.16,-75 176.84,-75 176.84,-57 139.16,-57"/>
<text text-anchor="middle" x="158" y="-63" font-family="Helvetica,sans-Serif" font-size="10.00">fifo.h</text>
</a>
</g>
</g>
<!-- Node1&#45;&gt;Node5 -->
<g id="edge5" class="edge"><title>Node1&#45;&gt;Node5</title>
<path fill="none" stroke="midnightblue" d="M118.344,-112.562C125.213,-104.67 135.652,-92.6768 144.095,-82.9758"/>
<polygon fill="midnightblue" stroke="midnightblue" points="146.937,-85.0424 150.862,-75.2014 141.656,-80.4467 146.937,-85.0424"/>
</g>
<!-- Node3&#45;&gt;Node2 -->
<g id="edge3" class="edge"><title>Node3&#45;&gt;Node2</title>
<path fill="none" stroke="midnightblue" d="M51.6315,-56.7986C62.3214,-48.552 79.0322,-35.6608 92.0047,-25.6535"/>
<polygon fill="midnightblue" stroke="midnightblue" points="94.4884,-28.1579 100.268,-19.2786 90.2128,-22.6154 94.4884,-28.1579"/>
</g>
<!-- Node4 -->
<g id="node4" class="node"><title>Node4</title>
<polygon fill="none" stroke="#bfbfbf" points="3.26855,-1 3.26855,-19 68.7314,-19 68.7314,-1 3.26855,-1"/>
<text text-anchor="middle" x="36" y="-7" font-family="Helvetica,sans-Serif" font-size="10.00">mcu/arch.h</text>
</g>
<!-- Node3&#45;&gt;Node4 -->
<g id="edge4" class="edge"><title>Node3&#45;&gt;Node4</title>
<path fill="none" stroke="midnightblue" d="M40.2188,-56.5625C39.547,-49.308 38.5545,-38.5884 37.7008,-29.3691"/>
<polygon fill="midnightblue" stroke="midnightblue" points="41.1666,-28.8361 36.7594,-19.2014 34.1964,-29.4816 41.1666,-28.8361"/>
</g>
<!-- Node5&#45;&gt;Node2 -->
<g id="edge7" class="edge"><title>Node5&#45;&gt;Node2</title>
<path fill="none" stroke="midnightblue" d="M150.656,-56.5625C143.787,-48.6703 133.348,-36.6768 124.905,-26.9758"/>
<polygon fill="midnightblue" stroke="midnightblue" points="127.344,-24.4467 118.138,-19.2014 122.063,-29.0424 127.344,-24.4467"/>
</g>
<!-- Node6 -->
<g id="node6" class="node"><title>Node6</title>
<polygon fill="none" stroke="#bfbfbf" points="152.99,-1 152.99,-19 219.01,-19 219.01,-1 152.99,-1"/>
<text text-anchor="middle" x="186" y="-7" font-family="Helvetica,sans-Serif" font-size="10.00">sys/types.h</text>
</g>
<!-- Node5&#45;&gt;Node6 -->
<g id="edge6" class="edge"><title>Node5&#45;&gt;Node6</title>
<path fill="none" stroke="midnightblue" d="M162.375,-56.5625C166.302,-48.9891 172.187,-37.6393 177.101,-28.1625"/>
<polygon fill="midnightblue" stroke="midnightblue" points="180.251,-29.6901 181.747,-19.2014 174.037,-26.4679 180.251,-29.6901"/>
</g>
</g>
</svg>
