<?xml version="1.0" encoding="UTF-8" standalone="no"?>
<!DOCTYPE svg PUBLIC "-//W3C//DTD SVG 1.1//EN"
 "http://www.w3.org/Graphics/SVG/1.1/DTD/svg11.dtd">
<!-- Generated by graphviz version 2.36.0 (20140111.2315)
 -->
<!-- Title: src/sys/unistd/_close.c Pages: 1 -->
<svg width="163pt" height="84pt"
 viewBox="0.00 0.00 163.00 84.00" xmlns="http://www.w3.org/2000/svg" xmlns:xlink="http://www.w3.org/1999/xlink">
<g id="graph0" class="graph" transform="scale(1 1) rotate(0) translate(4 80)">
<title>src/sys/unistd/_close.c</title>
<!-- Node1 -->
<g id="node1" class="node"><title>Node1</title>
<polygon fill="#bfbfbf" stroke="black" points="16.9829,-57 16.9829,-75 133.017,-75 133.017,-57 16.9829,-57"/>
<text text-anchor="middle" x="75" y="-63" font-family="Helvetica,sans-Serif" font-size="10.00">src/sys/unistd/_close.c</text>
</g>
<!-- Node2 -->
<g id="node2" class="node"><title>Node2</title>
<polygon fill="none" stroke="#bfbfbf" points="-0.450684,-1 -0.450684,-19 64.4507,-19 64.4507,-1 -0.450684,-1"/>
<text text-anchor="middle" x="32" y="-7" font-family="Helvetica,sans-Serif" font-size="10.00">mcu/mcu.h</text>
</g>
<!-- Node1&#45;&gt;Node2 -->
<g id="edge1" class="edge"><title>Node1&#45;&gt;Node2</title>
<path fill="none" stroke="midnightblue" d="M68.2812,-56.5625C62.0602,-48.75 52.6389,-36.9187 44.9561,-27.2704"/>
<polygon fill="midnightblue" stroke="midnightblue" points="47.4981,-24.844 38.5308,-19.2014 42.0221,-29.2045 47.4981,-24.844"/>
</g>
<!-- Node3 -->
<g id="node3" class="node"><title>Node3</title>
<polygon fill="none" stroke="#bfbfbf" points="82.0913,-1 82.0913,-19 155.909,-19 155.909,-1 82.0913,-1"/>
<text text-anchor="middle" x="119" y="-7" font-family="Helvetica,sans-Serif" font-size="10.00">mcu/debug.h</text>
</g>
<!-- Node1&#45;&gt;Node3 -->
<g id="edge2" class="edge"><title>Node1&#45;&gt;Node3</title>
<path fill="none" stroke="midnightblue" d="M81.875,-56.5625C88.3057,-48.6703 98.0782,-36.6768 105.983,-26.9758"/>
<polygon fill="midnightblue" stroke="midnightblue" points="108.714,-29.1647 112.317,-19.2014 103.287,-24.7429 108.714,-29.1647"/>
</g>
</g>
</svg>
