<?xml version="1.0" encoding="UTF-8" standalone="no"?>
<!DOCTYPE svg PUBLIC "-//W3C//DTD SVG 1.1//EN"
 "http://www.w3.org/Graphics/SVG/1.1/DTD/svg11.dtd">
<!-- Generated by graphviz version 2.36.0 (20140111.2315)
 -->
<!-- Title: src/sys/unistd/_exit.c Pages: 1 -->
<svg width="1440pt" height="252pt"
 viewBox="0.00 0.00 1440.16 252.00" xmlns="http://www.w3.org/2000/svg" xmlns:xlink="http://www.w3.org/1999/xlink">
<g id="graph0" class="graph" transform="scale(1 1) rotate(0) translate(4 248)">
<title>src/sys/unistd/_exit.c</title>
<!-- Node1 -->
<g id="node1" class="node"><title>Node1</title>
<polygon fill="#bfbfbf" stroke="black" points="362.037,-225 362.037,-243 470.288,-243 470.288,-225 362.037,-225"/>
<text text-anchor="middle" x="416.163" y="-231" font-family="Helvetica,sans-Serif" font-size="10.00">src/sys/unistd/_exit.c</text>
</g>
<!-- Node2 -->
<g id="node2" class="node"><title>Node2</title>
<g id="a_node2"><a xlink:href="config_8h.html" target="_top" xlink:title="config.h">
<polygon fill="none" stroke="black" points="90.6504,-169 90.6504,-187 141.675,-187 141.675,-169 90.6504,-169"/>
<text text-anchor="middle" x="116.163" y="-175" font-family="Helvetica,sans-Serif" font-size="10.00">config.h</text>
</a>
</g>
</g>
<!-- Node1&#45;&gt;Node2 -->
<g id="edge1" class="edge"><title>Node1&#45;&gt;Node2</title>
<path fill="none" stroke="midnightblue" d="M371.574,-224.974C311.77,-214.209 206.766,-195.309 151.876,-185.429"/>
<polygon fill="midnightblue" stroke="midnightblue" points="152.376,-181.962 141.914,-183.635 151.136,-188.851 152.376,-181.962"/>
</g>
<!-- Node5 -->
<g id="node5" class="node"><title>Node5</title>
<polygon fill="none" stroke="#bfbfbf" points="75.8696,-1 75.8696,-19 132.456,-19 132.456,-1 75.8696,-1"/>
<text text-anchor="middle" x="104.163" y="-7" font-family="Helvetica,sans-Serif" font-size="10.00">stdbool.h</text>
</g>
<!-- Node1&#45;&gt;Node5 -->
<g id="edge4" class="edge"><title>Node1&#45;&gt;Node5</title>
<path fill="none" stroke="midnightblue" d="M361.852,-233.866C293.794,-233.145 174.735,-225.839 81.1626,-188 42.2655,-172.271 24.0852,-169.448 5.1626,-132 -17.2552,-87.6354 43.0648,-44.8227 79.2186,-24.0454"/>
<polygon fill="midnightblue" stroke="midnightblue" points="81.2186,-26.938 88.2557,-19.0178 77.8154,-20.8209 81.2186,-26.938"/>
</g>
<!-- Node6 -->
<g id="node6" class="node"><title>Node6</title>
<polygon fill="none" stroke="#bfbfbf" points="245.929,-169 245.929,-187 296.396,-187 296.396,-169 245.929,-169"/>
<text text-anchor="middle" x="271.163" y="-175" font-family="Helvetica,sans-Serif" font-size="10.00">signal.h</text>
</g>
<!-- Node1&#45;&gt;Node6 -->
<g id="edge5" class="edge"><title>Node1&#45;&gt;Node6</title>
<path fill="none" stroke="midnightblue" d="M394.455,-224.916C370.109,-215.849 330.407,-201.063 302.653,-190.727"/>
<polygon fill="midnightblue" stroke="midnightblue" points="303.612,-187.35 293.019,-187.14 301.169,-193.91 303.612,-187.35"/>
</g>
<!-- Node7 -->
<g id="node7" class="node"><title>Node7</title>
<polygon fill="none" stroke="#bfbfbf" points="314.65,-169 314.65,-187 365.675,-187 365.675,-169 314.65,-169"/>
<text text-anchor="middle" x="340.163" y="-175" font-family="Helvetica,sans-Serif" font-size="10.00">unistd.h</text>
</g>
<!-- Node1&#45;&gt;Node7 -->
<g id="edge6" class="edge"><title>Node1&#45;&gt;Node7</title>
<path fill="none" stroke="midnightblue" d="M404.62,-224.799C392.79,-216.393 374.17,-203.163 359.978,-193.079"/>
<polygon fill="midnightblue" stroke="midnightblue" points="361.993,-190.218 351.814,-187.279 357.939,-195.924 361.993,-190.218"/>
</g>
<!-- Node8 -->
<g id="node8" class="node"><title>Node8</title>
<polygon fill="none" stroke="#bfbfbf" points="383.707,-169 383.707,-187 448.618,-187 448.618,-169 383.707,-169"/>
<text text-anchor="middle" x="416.163" y="-175" font-family="Helvetica,sans-Serif" font-size="10.00">sys/reent.h</text>
</g>
<!-- Node1&#45;&gt;Node8 -->
<g id="edge7" class="edge"><title>Node1&#45;&gt;Node8</title>
<path fill="none" stroke="midnightblue" d="M416.163,-224.562C416.163,-217.308 416.163,-206.588 416.163,-197.369"/>
<polygon fill="midnightblue" stroke="midnightblue" points="419.663,-197.201 416.163,-187.201 412.663,-197.201 419.663,-197.201"/>
</g>
<!-- Node9 -->
<g id="node9" class="node"><title>Node9</title>
<polygon fill="none" stroke="#bfbfbf" points="466.32,-169 466.32,-187 514.005,-187 514.005,-169 466.32,-169"/>
<text text-anchor="middle" x="490.163" y="-175" font-family="Helvetica,sans-Serif" font-size="10.00">errno.h</text>
</g>
<!-- Node1&#45;&gt;Node9 -->
<g id="edge8" class="edge"><title>Node1&#45;&gt;Node9</title>
<path fill="none" stroke="midnightblue" d="M427.402,-224.799C438.811,-216.473 456.708,-203.413 470.476,-193.366"/>
<polygon fill="midnightblue" stroke="midnightblue" points="472.803,-196.001 478.818,-187.279 468.677,-190.346 472.803,-196.001"/>
</g>
<!-- Node10 -->
<g id="node10" class="node"><title>Node10</title>
<polygon fill="none" stroke="#bfbfbf" points="532.431,-169 532.431,-187 597.894,-187 597.894,-169 532.431,-169"/>
<text text-anchor="middle" x="565.163" y="-175" font-family="Helvetica,sans-Serif" font-size="10.00">mcu/mpu.h</text>
</g>
<!-- Node1&#45;&gt;Node10 -->
<g id="edge9" class="edge"><title>Node1&#45;&gt;Node10</title>
<path fill="none" stroke="midnightblue" d="M438.469,-224.916C463.596,-215.809 504.642,-200.934 533.178,-190.592"/>
<polygon fill="midnightblue" stroke="midnightblue" points="534.494,-193.838 542.703,-187.14 532.109,-187.256 534.494,-193.838"/>
</g>
<!-- Node11 -->
<g id="node11" class="node"><title>Node11</title>
<g id="a_node11"><a xlink:href="iface_2link_8h.html" target="_top" xlink:title="Link Layer Header. ">
<polygon fill="none" stroke="black" points="682.54,-169 682.54,-187 745.786,-187 745.786,-169 682.54,-169"/>
<text text-anchor="middle" x="714.163" y="-175" font-family="Helvetica,sans-Serif" font-size="10.00">iface/link.h</text>
</a>
</g>
</g>
<!-- Node1&#45;&gt;Node11 -->
<g id="edge10" class="edge"><title>Node1&#45;&gt;Node11</title>
<path fill="none" stroke="midnightblue" d="M460.454,-224.974C517.693,-214.602 616.616,-196.676 672.529,-186.544"/>
<polygon fill="midnightblue" stroke="midnightblue" points="673.233,-189.974 682.448,-184.747 671.985,-183.086 673.233,-189.974"/>
</g>
<!-- Node33 -->
<g id="node33" class="node"><title>Node33</title>
<polygon fill="none" stroke="#bfbfbf" points="763.409,-169 763.409,-187 878.916,-187 878.916,-169 763.409,-169"/>
<text text-anchor="middle" x="821.163" y="-175" font-family="Helvetica,sans-Serif" font-size="10.00">../sched/sched_flags.h</text>
</g>
<!-- Node1&#45;&gt;Node33 -->
<g id="edge66" class="edge"><title>Node1&#45;&gt;Node33</title>
<path fill="none" stroke="midnightblue" d="M470.314,-225.81C535.045,-217.212 646.941,-202.334 753.131,-188.137"/>
<polygon fill="midnightblue" stroke="midnightblue" points="753.611,-191.604 763.059,-186.809 752.683,-184.666 753.611,-191.604"/>
</g>
<!-- Node3 -->
<g id="node3" class="node"><title>Node3</title>
<polygon fill="none" stroke="#bfbfbf" points="14.2539,-113 14.2539,-131 88.0713,-131 88.0713,-113 14.2539,-113"/>
<text text-anchor="middle" x="51.1626" y="-119" font-family="Helvetica,sans-Serif" font-size="10.00">mcu/debug.h</text>
</g>
<!-- Node2&#45;&gt;Node3 -->
<g id="edge2" class="edge"><title>Node2&#45;&gt;Node3</title>
<path fill="none" stroke="midnightblue" d="M106.29,-168.799C96.4596,-160.631 81.1448,-147.908 69.1495,-137.943"/>
<polygon fill="midnightblue" stroke="midnightblue" points="71.0561,-134.977 61.1276,-131.279 66.583,-140.361 71.0561,-134.977"/>
</g>
<!-- Node4 -->
<g id="node4" class="node"><title>Node4</title>
<polygon fill="none" stroke="#bfbfbf" points="660.042,-1 660.042,-19 708.283,-19 708.283,-1 660.042,-1"/>
<text text-anchor="middle" x="684.163" y="-7" font-family="Helvetica,sans-Serif" font-size="10.00">stdint.h</text>
</g>
<!-- Node2&#45;&gt;Node4 -->
<g id="edge3" class="edge"><title>Node2&#45;&gt;Node4</title>
<path fill="none" stroke="midnightblue" d="M116.331,-168.816C117.277,-146.484 123.258,-84.2795 160.163,-56 198.958,-26.2711 539.433,-14.7922 649.794,-11.8321"/>
<polygon fill="midnightblue" stroke="midnightblue" points="650.129,-15.3246 660.034,-11.5643 649.946,-8.32699 650.129,-15.3246"/>
</g>
<!-- Node12 -->
<g id="node12" class="node"><title>Node12</title>
<polygon fill="none" stroke="#bfbfbf" points="799.044,-113 799.044,-131 857.281,-131 857.281,-113 799.044,-113"/>
<text text-anchor="middle" x="828.163" y="-119" font-family="Helvetica,sans-Serif" font-size="10.00">sys/stat.h</text>
</g>
<!-- Node11&#45;&gt;Node12 -->
<g id="edge11" class="edge"><title>Node11&#45;&gt;Node12</title>
<path fill="none" stroke="midnightblue" d="M731.477,-168.799C750.166,-159.946 780.155,-145.74 801.782,-135.496"/>
<polygon fill="midnightblue" stroke="midnightblue" points="803.52,-138.546 811.059,-131.102 800.523,-132.22 803.52,-138.546"/>
</g>
<!-- Node13 -->
<g id="node13" class="node"><title>Node13</title>
<polygon fill="none" stroke="#bfbfbf" points="1312.55,-57 1312.55,-75 1355.78,-75 1355.78,-57 1312.55,-57"/>
<text text-anchor="middle" x="1334.16" y="-63" font-family="Helvetica,sans-Serif" font-size="10.00">time.h</text>
</g>
<!-- Node11&#45;&gt;Node13 -->
<g id="edge12" class="edge"><title>Node11&#45;&gt;Node13</title>
<path fill="none" stroke="midnightblue" d="M745.957,-169.382C748.722,-168.861 751.486,-168.389 754.163,-168 871.862,-150.895 1184.43,-190.178 1288.16,-132 1306.78,-121.561 1319.67,-100.075 1326.97,-84.6616"/>
<polygon fill="midnightblue" stroke="midnightblue" points="1330.32,-85.735 1331.13,-75.1714 1323.91,-82.9225 1330.32,-85.735"/>
</g>
<!-- Node14 -->
<g id="node14" class="node"><title>Node14</title>
<g id="a_node14"><a xlink:href="adc_8h.html" target="_top" xlink:title="Analog to Digital Converter Header File. ">
<polygon fill="none" stroke="black" points="731.48,-57 731.48,-75 790.845,-75 790.845,-57 731.48,-57"/>
<text text-anchor="middle" x="761.163" y="-63" font-family="Helvetica,sans-Serif" font-size="10.00">dev/adc.h</text>
</a>
</g>
</g>
<!-- Node11&#45;&gt;Node14 -->
<g id="edge13" class="edge"><title>Node11&#45;&gt;Node14</title>
<path fill="none" stroke="midnightblue" d="M717.695,-168.732C725.32,-150.887 743.458,-108.437 753.732,-84.3913"/>
<polygon fill="midnightblue" stroke="midnightblue" points="757.006,-85.6359 757.717,-75.0649 750.569,-82.8854 757.006,-85.6359"/>
</g>
<!-- Node16 -->
<g id="node16" class="node"><title>Node16</title>
<g id="a_node16"><a xlink:href="bootloader_8h.html" target="_top" xlink:title="Analog to Digital Converter Header File. ">
<polygon fill="none" stroke="black" points="318.185,-57 318.185,-75 408.14,-75 408.14,-57 318.185,-57"/>
<text text-anchor="middle" x="363.163" y="-63" font-family="Helvetica,sans-Serif" font-size="10.00">dev/bootloader.h</text>
</a>
</g>
</g>
<!-- Node11&#45;&gt;Node16 -->
<g id="edge16" class="edge"><title>Node11&#45;&gt;Node16</title>
<path fill="none" stroke="midnightblue" d="M682.327,-170.493C649.987,-163.285 598.863,-150.224 557.163,-132 541.448,-125.132 539.9,-118.816 524.163,-112 488.356,-96.4923 445.752,-84.8614 413.367,-77.3127"/>
<polygon fill="midnightblue" stroke="midnightblue" points="413.76,-73.8128 403.233,-75.0055 412.206,-80.6381 413.76,-73.8128"/>
</g>
<!-- Node17 -->
<g id="node17" class="node"><title>Node17</title>
<g id="a_node17"><a xlink:href="core_8h.html" target="_top" xlink:title="Analog to Digital Converter Header File. ">
<polygon fill="none" stroke="black" points="452.815,-113 452.815,-131 515.51,-131 515.51,-113 452.815,-113"/>
<text text-anchor="middle" x="484.163" y="-119" font-family="Helvetica,sans-Serif" font-size="10.00">dev/core.h</text>
</a>
</g>
</g>
<!-- Node11&#45;&gt;Node17 -->
<g id="edge19" class="edge"><title>Node11&#45;&gt;Node17</title>
<path fill="none" stroke="midnightblue" d="M682.182,-169.492C641.415,-159.92 570.845,-143.352 525.886,-132.796"/>
<polygon fill="midnightblue" stroke="midnightblue" points="526.407,-129.323 515.872,-130.445 524.807,-136.138 526.407,-129.323"/>
</g>
<!-- Node18 -->
<g id="node18" class="node"><title>Node18</title>
<g id="a_node18"><a xlink:href="pio_8h.html" target="_top" xlink:title="General Purpose Input/Output Header File. ">
<polygon fill="none" stroke="black" points="181.919,-57 181.919,-75 262.406,-75 262.406,-57 181.919,-57"/>
<text text-anchor="middle" x="222.163" y="-63" font-family="Helvetica,sans-Serif" font-size="10.00">iface/dev/pio.h</text>
</a>
</g>
</g>
<!-- Node11&#45;&gt;Node18 -->
<g id="edge27" class="edge"><title>Node11&#45;&gt;Node18</title>
<path fill="none" stroke="midnightblue" d="M682.188,-174.978C630.819,-171.003 527.255,-159.981 444.163,-132 426.075,-125.909 424.01,-118.762 406.163,-112 362.311,-95.3856 310.224,-83.3183 272.68,-75.8874"/>
<polygon fill="midnightblue" stroke="midnightblue" points="272.979,-72.3802 262.496,-73.9145 271.648,-79.2525 272.979,-72.3802"/>
</g>
<!-- Node19 -->
<g id="node19" class="node"><title>Node19</title>
<polygon fill="none" stroke="#bfbfbf" points="1217.09,-113 1217.09,-131 1279.24,-131 1279.24,-113 1217.09,-113"/>
<text text-anchor="middle" x="1248.16" y="-119" font-family="Helvetica,sans-Serif" font-size="10.00">dev/gpio.h</text>
</g>
<!-- Node11&#45;&gt;Node19 -->
<g id="edge26" class="edge"><title>Node11&#45;&gt;Node19</title>
<path fill="none" stroke="midnightblue" d="M745.962,-169.417C748.726,-168.888 751.488,-168.405 754.163,-168 951.069,-138.196 1006.26,-161.514 1206.83,-131.993"/>
<polygon fill="midnightblue" stroke="midnightblue" points="1207.43,-135.442 1216.8,-130.499 1206.39,-128.519 1207.43,-135.442"/>
</g>
<!-- Node20 -->
<g id="node20" class="node"><title>Node20</title>
<g id="a_node20"><a xlink:href="dac_8h.html" target="_top" xlink:title="DAC Header File. ">
<polygon fill="none" stroke="black" points="808.48,-57 808.48,-75 867.845,-75 867.845,-57 808.48,-57"/>
<text text-anchor="middle" x="838.163" y="-63" font-family="Helvetica,sans-Serif" font-size="10.00">dev/dac.h</text>
</a>
</g>
</g>
<!-- Node11&#45;&gt;Node20 -->
<g id="edge28" class="edge"><title>Node11&#45;&gt;Node20</title>
<path fill="none" stroke="midnightblue" d="M723.483,-168.732C744.32,-150.247 794.921,-105.359 821.393,-81.8765"/>
<polygon fill="midnightblue" stroke="midnightblue" points="823.913,-84.3193 829.071,-75.0649 819.268,-79.0828 823.913,-84.3193"/>
</g>
<!-- Node21 -->
<g id="node21" class="node"><title>Node21</title>
<g id="a_node21"><a xlink:href="eint_8h.html" target="_top" xlink:title="External Interrupt Header File. ">
<polygon fill="none" stroke="black" points="1373.48,-57 1373.48,-75 1432.84,-75 1432.84,-57 1373.48,-57"/>
<text text-anchor="middle" x="1403.16" y="-63" font-family="Helvetica,sans-Serif" font-size="10.00">dev/eint.h</text>
</a>
</g>
</g>
<!-- Node11&#45;&gt;Node21 -->
<g id="edge31" class="edge"><title>Node11&#45;&gt;Node21</title>
<path fill="none" stroke="midnightblue" d="M745.956,-169.374C748.721,-168.854 751.485,-168.385 754.163,-168 877.375,-150.283 1196.01,-174.087 1313.16,-132 1342.78,-121.36 1371.23,-97.8498 1387.95,-82.2158"/>
<polygon fill="midnightblue" stroke="midnightblue" points="1390.4,-84.7213 1395.17,-75.2645 1385.54,-79.6783 1390.4,-84.7213"/>
</g>
<!-- Node23 -->
<g id="node23" class="node"><title>Node23</title>
<g id="a_node23"><a xlink:href="flash_8h.html" target="_top" xlink:title="Flash Memory Header File. ">
<polygon fill="none" stroke="black" points="885.98,-57 885.98,-75 950.345,-75 950.345,-57 885.98,-57"/>
<text text-anchor="middle" x="918.163" y="-63" font-family="Helvetica,sans-Serif" font-size="10.00">dev/flash.h</text>
</a>
</g>
</g>
<!-- Node11&#45;&gt;Node23 -->
<g id="edge35" class="edge"><title>Node11&#45;&gt;Node23</title>
<path fill="none" stroke="midnightblue" d="M745.066,-168.916C786.484,-157.92 855.999,-138.833 866.163,-132 884.658,-119.564 899.74,-98.5228 908.81,-83.7569"/>
<polygon fill="midnightblue" stroke="midnightblue" points="911.839,-85.5103 913.877,-75.1133 905.8,-81.9701 911.839,-85.5103"/>
</g>
<!-- Node24 -->
<g id="node24" class="node"><title>Node24</title>
<g id="a_node24"><a xlink:href="i2c_8h.html" target="_top" xlink:title="I2C Header File. ">
<polygon fill="none" stroke="black" points="968.15,-57 968.15,-75 1024.17,-75 1024.17,-57 968.15,-57"/>
<text text-anchor="middle" x="996.163" y="-63" font-family="Helvetica,sans-Serif" font-size="10.00">dev/i2c.h</text>
</a>
</g>
</g>
<!-- Node11&#45;&gt;Node24 -->
<g id="edge38" class="edge"><title>Node11&#45;&gt;Node24</title>
<path fill="none" stroke="midnightblue" d="M745.875,-169.493C793.101,-158.229 877.811,-137.671 891.163,-132 923.307,-118.348 957.057,-95.7518 977.355,-81.1218"/>
<polygon fill="midnightblue" stroke="midnightblue" points="979.434,-83.9375 985.433,-75.205 975.297,-78.2902 979.434,-83.9375"/>
</g>
<!-- Node25 -->
<g id="node25" class="node"><title>Node25</title>
<g id="a_node25"><a xlink:href="pwm_8h.html" target="_top" xlink:title="Pulse Width Modulation Header File. ">
<polygon fill="none" stroke="black" points="1041.99,-57 1041.99,-75 1106.34,-75 1106.34,-57 1041.99,-57"/>
<text text-anchor="middle" x="1074.16" y="-63" font-family="Helvetica,sans-Serif" font-size="10.00">dev/pwm.h</text>
</a>
</g>
</g>
<!-- Node11&#45;&gt;Node25 -->
<g id="edge41" class="edge"><title>Node11&#45;&gt;Node25</title>
<path fill="none" stroke="midnightblue" d="M746.031,-169.791C748.781,-169.181 751.52,-168.577 754.163,-168 829.616,-151.523 850.584,-155.471 924.163,-132 969.59,-117.509 1020,-94.0422 1049.28,-79.6227"/>
<polygon fill="midnightblue" stroke="midnightblue" points="1050.97,-82.692 1058.37,-75.1054 1047.85,-76.4242 1050.97,-82.692"/>
</g>
<!-- Node26 -->
<g id="node26" class="node"><title>Node26</title>
<g id="a_node26"><a xlink:href="qei_8h.html" target="_top" xlink:title="Quadrature Encoder Interface Header File. ">
<polygon fill="none" stroke="black" points="1199.87,-57 1199.87,-75 1256.46,-75 1256.46,-57 1199.87,-57"/>
<text text-anchor="middle" x="1228.16" y="-63" font-family="Helvetica,sans-Serif" font-size="10.00">dev/qei.h</text>
</a>
</g>
</g>
<!-- Node11&#45;&gt;Node26 -->
<g id="edge44" class="edge"><title>Node11&#45;&gt;Node26</title>
<path fill="none" stroke="midnightblue" d="M746.008,-169.679C748.762,-169.093 751.509,-168.526 754.163,-168 847.053,-149.601 871.462,-151.332 964.163,-132 1045,-115.142 1138.65,-90.9686 1189.84,-77.3517"/>
<polygon fill="midnightblue" stroke="midnightblue" points="1191.04,-80.6542 1199.8,-74.6934 1189.23,-73.891 1191.04,-80.6542"/>
</g>
<!-- Node27 -->
<g id="node27" class="node"><title>Node27</title>
<g id="a_node27"><a xlink:href="rtc_8h.html" target="_top" xlink:title="Real Time Clock Header File. ">
<polygon fill="none" stroke="black" points="1144.99,-113 1144.99,-131 1199.34,-131 1199.34,-113 1144.99,-113"/>
<text text-anchor="middle" x="1172.16" y="-119" font-family="Helvetica,sans-Serif" font-size="10.00">dev/rtc.h</text>
</a>
</g>
</g>
<!-- Node11&#45;&gt;Node27 -->
<g id="edge47" class="edge"><title>Node11&#45;&gt;Node27</title>
<path fill="none" stroke="midnightblue" d="M745.972,-169.479C748.734,-168.936 751.493,-168.433 754.163,-168 911.574,-142.45 952.906,-151.643 1111.16,-132 1118.84,-131.046 1127.05,-129.914 1134.88,-128.779"/>
<polygon fill="midnightblue" stroke="midnightblue" points="1135.49,-132.227 1144.87,-127.3 1134.47,-125.302 1135.49,-132.227"/>
</g>
<!-- Node28 -->
<g id="node28" class="node"><title>Node28</title>
<g id="a_node28"><a xlink:href="spi_8h.html" target="_top" xlink:title="Serial Peripheral Interface Header File. ">
<polygon fill="none" stroke="black" points="426.15,-57 426.15,-75 482.175,-75 482.175,-57 426.15,-57"/>
<text text-anchor="middle" x="454.163" y="-63" font-family="Helvetica,sans-Serif" font-size="10.00">dev/spi.h</text>
</a>
</g>
</g>
<!-- Node11&#45;&gt;Node28 -->
<g id="edge51" class="edge"><title>Node11&#45;&gt;Node28</title>
<path fill="none" stroke="midnightblue" d="M692.796,-168.84C669.981,-160.047 632.828,-145.493 601.163,-132 581.401,-123.579 576.783,-120.745 557.163,-112 531.774,-100.685 502.75,-88.0294 481.997,-79.0287"/>
<polygon fill="midnightblue" stroke="midnightblue" points="483.373,-75.8108 472.806,-75.0471 480.591,-82.234 483.373,-75.8108"/>
</g>
<!-- Node29 -->
<g id="node29" class="node"><title>Node29</title>
<g id="a_node29"><a xlink:href="tmr_8h.html" target="_top" xlink:title="Timer Header File. ">
<polygon fill="none" stroke="black" points="500.596,-57 500.596,-75 557.729,-75 557.729,-57 500.596,-57"/>
<text text-anchor="middle" x="529.163" y="-63" font-family="Helvetica,sans-Serif" font-size="10.00">dev/tmr.h</text>
</a>
</g>
</g>
<!-- Node11&#45;&gt;Node29 -->
<g id="edge54" class="edge"><title>Node11&#45;&gt;Node29</title>
<path fill="none" stroke="midnightblue" d="M700.559,-168.911C669.02,-150.158 590.641,-103.554 551.766,-80.4397"/>
<polygon fill="midnightblue" stroke="midnightblue" points="553.17,-77.2028 542.786,-75.1004 549.593,-83.2196 553.17,-77.2028"/>
</g>
<!-- Node30 -->
<g id="node30" class="node"><title>Node30</title>
<g id="a_node30"><a xlink:href="uart_8h.html" target="_top" xlink:title="Universal Asynchronous Receiver/Transmitter Header File. ">
<polygon fill="none" stroke="black" points="575.926,-57 575.926,-75 636.399,-75 636.399,-57 575.926,-57"/>
<text text-anchor="middle" x="606.163" y="-63" font-family="Helvetica,sans-Serif" font-size="10.00">dev/uart.h</text>
</a>
</g>
</g>
<!-- Node11&#45;&gt;Node30 -->
<g id="edge57" class="edge"><title>Node11&#45;&gt;Node30</title>
<path fill="none" stroke="midnightblue" d="M706.045,-168.732C688.053,-150.407 644.586,-106.135 621.372,-82.4912"/>
<polygon fill="midnightblue" stroke="midnightblue" points="623.584,-79.7485 614.081,-75.0649 618.589,-84.6526 623.584,-79.7485"/>
</g>
<!-- Node31 -->
<g id="node31" class="node"><title>Node31</title>
<g id="a_node31"><a xlink:href="usb_8h.html" target="_top" xlink:title="Universal Serial Bus Header File. ">
<polygon fill="none" stroke="black" points="654.48,-57 654.48,-75 713.845,-75 713.845,-57 654.48,-57"/>
<text text-anchor="middle" x="684.163" y="-63" font-family="Helvetica,sans-Serif" font-size="10.00">dev/usb.h</text>
</a>
</g>
</g>
<!-- Node11&#45;&gt;Node31 -->
<g id="edge60" class="edge"><title>Node11&#45;&gt;Node31</title>
<path fill="none" stroke="midnightblue" d="M711.908,-168.732C707.063,-150.967 695.567,-108.817 688.994,-84.7159"/>
<polygon fill="midnightblue" stroke="midnightblue" points="692.37,-83.7916 686.362,-75.0649 685.617,-85.6335 692.37,-83.7916"/>
</g>
<!-- Node32 -->
<g id="node32" class="node"><title>Node32</title>
<g id="a_node32"><a xlink:href="sys_8h.html" target="_top" xlink:title="dev/sys.h">
<polygon fill="none" stroke="black" points="339.042,-113 339.042,-131 397.283,-131 397.283,-113 339.042,-113"/>
<text text-anchor="middle" x="368.163" y="-119" font-family="Helvetica,sans-Serif" font-size="10.00">dev/sys.h</text>
</a>
</g>
</g>
<!-- Node11&#45;&gt;Node32 -->
<g id="edge63" class="edge"><title>Node11&#45;&gt;Node32</title>
<path fill="none" stroke="midnightblue" d="M682.242,-173.555C627.141,-166.852 511.263,-151.175 407.165,-132.853"/>
<polygon fill="midnightblue" stroke="midnightblue" points="407.588,-129.374 397.13,-131.072 406.364,-136.266 407.588,-129.374"/>
</g>
<!-- Node14&#45;&gt;Node4 -->
<g id="edge14" class="edge"><title>Node14&#45;&gt;Node4</title>
<path fill="none" stroke="midnightblue" d="M749.468,-56.7986C737.413,-48.3446 718.398,-35.0093 703.988,-24.9039"/>
<polygon fill="midnightblue" stroke="midnightblue" points="705.912,-21.9779 695.715,-19.1017 701.893,-27.7091 705.912,-21.9779"/>
</g>
<!-- Node15 -->
<g id="node15" class="node"><title>Node15</title>
<polygon fill="none" stroke="#bfbfbf" points="805.431,-1 805.431,-19 870.894,-19 870.894,-1 805.431,-1"/>
<text text-anchor="middle" x="838.163" y="-7" font-family="Helvetica,sans-Serif" font-size="10.00">mcu/arch.h</text>
</g>
<!-- Node14&#45;&gt;Node15 -->
<g id="edge15" class="edge"><title>Node14&#45;&gt;Node15</title>
<path fill="none" stroke="midnightblue" d="M772.857,-56.7986C784.912,-48.3446 803.927,-35.0093 818.337,-24.9039"/>
<polygon fill="midnightblue" stroke="midnightblue" points="820.432,-27.7091 826.61,-19.1017 816.413,-21.9779 820.432,-27.7091"/>
</g>
<!-- Node16&#45;&gt;Node4 -->
<g id="edge17" class="edge"><title>Node16&#45;&gt;Node4</title>
<path fill="none" stroke="midnightblue" d="M408.473,-57.3776C473.388,-46.4574 591.437,-26.5987 649.719,-16.7942"/>
<polygon fill="midnightblue" stroke="midnightblue" points="650.599,-20.1954 659.88,-15.0849 649.438,-13.2924 650.599,-20.1954"/>
</g>
<!-- Node16&#45;&gt;Node15 -->
<g id="edge18" class="edge"><title>Node16&#45;&gt;Node15</title>
<path fill="none" stroke="midnightblue" d="M408.214,-57.2885C411.239,-56.8332 414.243,-56.3989 417.163,-56 554.888,-37.1788 718.866,-21.6088 795.159,-14.7568"/>
<polygon fill="midnightblue" stroke="midnightblue" points="795.681,-18.2241 805.33,-13.8483 795.059,-11.2519 795.681,-18.2241"/>
</g>
<!-- Node17&#45;&gt;Node4 -->
<g id="edge20" class="edge"><title>Node17&#45;&gt;Node4</title>
<path fill="none" stroke="midnightblue" d="M452.671,-113.949C403.503,-102.794 313.62,-81.7484 309.163,-76 303.716,-68.9754 303.264,-62.6493 309.163,-56 331.613,-30.6948 561.542,-16.9458 649.865,-12.5653"/>
<polygon fill="midnightblue" stroke="midnightblue" points="650.092,-16.0585 659.911,-12.0774 649.753,-9.06674 650.092,-16.0585"/>
</g>
<!-- Node17&#45;&gt;Node15 -->
<g id="edge21" class="edge"><title>Node17&#45;&gt;Node15</title>
<path fill="none" stroke="midnightblue" d="M515.584,-119.937C640.283,-115.568 1094.51,-98.1782 1115.16,-76 1121.22,-69.4949 1120.92,-62.7706 1115.16,-56 1085.66,-21.3195 951.585,-13.2924 881.359,-11.4857"/>
<polygon fill="midnightblue" stroke="midnightblue" points="881.147,-7.98014 871.071,-11.2539 880.99,-14.9784 881.147,-7.98014"/>
</g>
<!-- Node17&#45;&gt;Node18 -->
<g id="edge22" class="edge"><title>Node17&#45;&gt;Node18</title>
<path fill="none" stroke="midnightblue" d="M452.559,-114.486C407.424,-105.184 324.1,-88.0101 270.994,-77.0644"/>
<polygon fill="midnightblue" stroke="midnightblue" points="271.621,-73.6202 261.12,-75.0294 270.208,-80.4761 271.621,-73.6202"/>
</g>
<!-- Node18&#45;&gt;Node4 -->
<g id="edge24" class="edge"><title>Node18&#45;&gt;Node4</title>
<path fill="none" stroke="midnightblue" d="M262.523,-58.023C267.117,-57.3031 271.738,-56.6123 276.163,-56 414.142,-36.9074 579.277,-20.7361 649.658,-14.1558"/>
<polygon fill="midnightblue" stroke="midnightblue" points="650.098,-17.6301 659.731,-13.2192 649.45,-10.6601 650.098,-17.6301"/>
</g>
<!-- Node18&#45;&gt;Node5 -->
<g id="edge23" class="edge"><title>Node18&#45;&gt;Node5</title>
<path fill="none" stroke="midnightblue" d="M204.497,-56.9157C185.119,-48.0478 153.786,-33.7092 131.289,-23.4138"/>
<polygon fill="midnightblue" stroke="midnightblue" points="132.499,-20.1183 121.949,-19.1396 129.586,-26.4835 132.499,-20.1183"/>
</g>
<!-- Node18&#45;&gt;Node15 -->
<g id="edge25" class="edge"><title>Node18&#45;&gt;Node15</title>
<path fill="none" stroke="midnightblue" d="M262.43,-60.68C277.131,-59.1435 293.894,-57.4391 309.163,-56 489.675,-38.9868 705.12,-21.5496 795.23,-14.3854"/>
<polygon fill="midnightblue" stroke="midnightblue" points="795.642,-17.8637 805.334,-13.5834 795.088,-10.8857 795.642,-17.8637"/>
</g>
<!-- Node20&#45;&gt;Node4 -->
<g id="edge29" class="edge"><title>Node20&#45;&gt;Node4</title>
<path fill="none" stroke="midnightblue" d="M815.107,-56.9157C788.948,-47.743 746.097,-32.7171 716.579,-22.3669"/>
<polygon fill="midnightblue" stroke="midnightblue" points="717.719,-19.0575 707.124,-19.0513 715.402,-25.6632 717.719,-19.0575"/>
</g>
<!-- Node20&#45;&gt;Node15 -->
<g id="edge30" class="edge"><title>Node20&#45;&gt;Node15</title>
<path fill="none" stroke="midnightblue" d="M838.163,-56.5625C838.163,-49.308 838.163,-38.5884 838.163,-29.3691"/>
<polygon fill="midnightblue" stroke="midnightblue" points="841.663,-29.2014 838.163,-19.2014 834.663,-29.2015 841.663,-29.2014"/>
</g>
<!-- Node21&#45;&gt;Node4 -->
<g id="edge32" class="edge"><title>Node21&#45;&gt;Node4</title>
<path fill="none" stroke="midnightblue" d="M1373.45,-57.6154C1370.33,-56.9978 1367.19,-56.4419 1364.16,-56 1113.87,-19.4387 1048.46,-38.1312 796.163,-20 770.245,-18.1375 740.976,-15.7766 718.86,-13.9401"/>
<polygon fill="midnightblue" stroke="midnightblue" points="718.88,-10.4297 708.624,-13.0852 718.298,-17.4055 718.88,-10.4297"/>
</g>
<!-- Node21&#45;&gt;Node15 -->
<g id="edge33" class="edge"><title>Node21&#45;&gt;Node15</title>
<path fill="none" stroke="midnightblue" d="M1373.44,-57.684C1370.32,-57.053 1367.18,-56.4752 1364.16,-56 1186.06,-27.9757 971.094,-16.4494 881.075,-12.6136"/>
<polygon fill="midnightblue" stroke="midnightblue" points="881.117,-9.11239 870.98,-12.1936 880.826,-16.1063 881.117,-9.11239"/>
</g>
<!-- Node22 -->
<g id="node22" class="node"><title>Node22</title>
<polygon fill="none" stroke="#bfbfbf" points="1373.49,-1 1373.49,-19 1432.84,-19 1432.84,-1 1373.49,-1"/>
<text text-anchor="middle" x="1403.16" y="-7" font-family="Helvetica,sans-Serif" font-size="10.00">mcu/pio.h</text>
</g>
<!-- Node21&#45;&gt;Node22 -->
<g id="edge34" class="edge"><title>Node21&#45;&gt;Node22</title>
<path fill="none" stroke="midnightblue" d="M1403.16,-56.5625C1403.16,-49.308 1403.16,-38.5884 1403.16,-29.3691"/>
<polygon fill="midnightblue" stroke="midnightblue" points="1406.66,-29.2014 1403.16,-19.2014 1399.66,-29.2015 1406.66,-29.2014"/>
</g>
<!-- Node23&#45;&gt;Node4 -->
<g id="edge36" class="edge"><title>Node23&#45;&gt;Node4</title>
<path fill="none" stroke="midnightblue" d="M885.626,-57.4915C841.587,-47.3287 763.363,-29.2771 718.443,-18.9108"/>
<polygon fill="midnightblue" stroke="midnightblue" points="719.115,-15.4739 708.584,-16.6356 717.541,-22.2947 719.115,-15.4739"/>
</g>
<!-- Node23&#45;&gt;Node15 -->
<g id="edge37" class="edge"><title>Node23&#45;&gt;Node15</title>
<path fill="none" stroke="midnightblue" d="M906.012,-56.7986C893.488,-48.3446 873.732,-35.0093 858.761,-24.9039"/>
<polygon fill="midnightblue" stroke="midnightblue" points="860.412,-21.7955 850.165,-19.1017 856.495,-27.5974 860.412,-21.7955"/>
</g>
<!-- Node24&#45;&gt;Node4 -->
<g id="edge39" class="edge"><title>Node24&#45;&gt;Node4</title>
<path fill="none" stroke="midnightblue" d="M967.931,-57.8975C964.977,-57.2249 962.013,-56.579 959.163,-56 873.116,-38.5212 770.853,-23.2076 718.617,-15.7746"/>
<polygon fill="midnightblue" stroke="midnightblue" points="718.947,-12.2864 708.555,-14.3524 717.967,-19.2175 718.947,-12.2864"/>
</g>
<!-- Node24&#45;&gt;Node15 -->
<g id="edge40" class="edge"><title>Node24&#45;&gt;Node15</title>
<path fill="none" stroke="midnightblue" d="M972.508,-56.9157C945.67,-47.743 901.705,-32.7171 871.421,-22.3669"/>
<polygon fill="midnightblue" stroke="midnightblue" points="872.315,-18.9735 861.72,-19.0513 870.051,-25.5973 872.315,-18.9735"/>
</g>
<!-- Node25&#45;&gt;Node4 -->
<g id="edge42" class="edge"><title>Node25&#45;&gt;Node4</title>
<path fill="none" stroke="midnightblue" d="M1041.54,-57.5681C1038.71,-57.0063 1035.89,-56.4744 1033.16,-56 918.515,-36.065 781.26,-20.8824 718.513,-14.4167"/>
<polygon fill="midnightblue" stroke="midnightblue" points="718.694,-10.917 708.39,-13.3828 717.983,-17.8808 718.694,-10.917"/>
</g>
<!-- Node25&#45;&gt;Node15 -->
<g id="edge43" class="edge"><title>Node25&#45;&gt;Node15</title>
<path fill="none" stroke="midnightblue" d="M1041.84,-57.6048C1000.18,-48.0715 927.596,-31.4635 881.267,-20.8629"/>
<polygon fill="midnightblue" stroke="midnightblue" points="881.76,-17.3852 871.231,-18.5664 880.198,-24.2088 881.76,-17.3852"/>
</g>
<!-- Node26&#45;&gt;Node4 -->
<g id="edge45" class="edge"><title>Node26&#45;&gt;Node4</title>
<path fill="none" stroke="midnightblue" d="M1199.78,-58.4292C1195.24,-57.5199 1190.59,-56.6697 1186.16,-56 1140.16,-49.0355 824.07,-22.5804 718.447,-13.8295"/>
<polygon fill="midnightblue" stroke="midnightblue" points="718.584,-10.3289 708.329,-12.992 718.007,-17.3051 718.584,-10.3289"/>
</g>
<!-- Node26&#45;&gt;Node15 -->
<g id="edge46" class="edge"><title>Node26&#45;&gt;Node15</title>
<path fill="none" stroke="midnightblue" d="M1199.76,-58.5814C1195.22,-57.6525 1190.57,-56.7563 1186.16,-56 1076.73,-37.2333 946.739,-22.3802 880.921,-15.3797"/>
<polygon fill="midnightblue" stroke="midnightblue" points="881.234,-11.8934 870.922,-14.3242 880.499,-18.8547 881.234,-11.8934"/>
</g>
<!-- Node27&#45;&gt;Node4 -->
<g id="edge49" class="edge"><title>Node27&#45;&gt;Node4</title>
<path fill="none" stroke="midnightblue" d="M1167.8,-112.88C1159.62,-98.5616 1140.49,-69.1043 1115.16,-56 1097.57,-46.9001 817.299,-22.323 718.393,-13.8879"/>
<polygon fill="midnightblue" stroke="midnightblue" points="718.586,-10.3918 708.325,-13.0317 717.993,-17.3666 718.586,-10.3918"/>
</g>
<!-- Node27&#45;&gt;Node13 -->
<g id="edge48" class="edge"><title>Node27&#45;&gt;Node13</title>
<path fill="none" stroke="midnightblue" d="M1196.42,-112.916C1224.77,-103.464 1271.77,-87.7982 1302.85,-77.4363"/>
<polygon fill="midnightblue" stroke="midnightblue" points="1303.96,-80.7558 1312.34,-74.273 1301.75,-74.115 1303.96,-80.7558"/>
</g>
<!-- Node27&#45;&gt;Node15 -->
<g id="edge50" class="edge"><title>Node27&#45;&gt;Node15</title>
<path fill="none" stroke="midnightblue" d="M1199.63,-113.743C1234.8,-103.186 1288.56,-81.9873 1265.16,-56 1239.76,-27.7789 984.302,-15.9745 881.086,-12.3316"/>
<polygon fill="midnightblue" stroke="midnightblue" points="881.121,-8.8308 871.006,-11.9848 880.88,-15.8267 881.121,-8.8308"/>
</g>
<!-- Node28&#45;&gt;Node4 -->
<g id="edge52" class="edge"><title>Node28&#45;&gt;Node4</title>
<path fill="none" stroke="midnightblue" d="M482.438,-58.0929C485.383,-57.3822 488.333,-56.674 491.163,-56 546.536,-42.8103 610.946,-27.8739 649.586,-18.9573"/>
<polygon fill="midnightblue" stroke="midnightblue" points="650.814,-22.266 659.772,-16.6085 649.241,-15.445 650.814,-22.266"/>
</g>
<!-- Node28&#45;&gt;Node15 -->
<g id="edge53" class="edge"><title>Node28&#45;&gt;Node15</title>
<path fill="none" stroke="midnightblue" d="M482.376,-57.7999C485.333,-57.1463 488.303,-56.5316 491.163,-56 599.727,-35.8196 729.069,-21.6095 794.946,-15.0658"/>
<polygon fill="midnightblue" stroke="midnightblue" points="795.351,-18.5429 804.961,-14.0816 794.666,-11.5764 795.351,-18.5429"/>
</g>
<!-- Node29&#45;&gt;Node4 -->
<g id="edge55" class="edge"><title>Node29&#45;&gt;Node4</title>
<path fill="none" stroke="midnightblue" d="M552.368,-56.9157C578.696,-47.743 621.826,-32.7171 651.535,-22.3669"/>
<polygon fill="midnightblue" stroke="midnightblue" points="652.761,-25.6465 661.052,-19.0513 650.458,-19.0361 652.761,-25.6465"/>
</g>
<!-- Node29&#45;&gt;Node15 -->
<g id="edge56" class="edge"><title>Node29&#45;&gt;Node15</title>
<path fill="none" stroke="midnightblue" d="M557.751,-58.0092C560.92,-57.2998 564.105,-56.6152 567.163,-56 647.159,-39.9044 741.275,-25.2231 794.905,-17.2551"/>
<polygon fill="midnightblue" stroke="midnightblue" points="795.694,-20.6766 805.075,-15.7525 794.67,-13.7517 795.694,-20.6766"/>
</g>
<!-- Node30&#45;&gt;Node4 -->
<g id="edge58" class="edge"><title>Node30&#45;&gt;Node4</title>
<path fill="none" stroke="midnightblue" d="M618.009,-56.7986C630.22,-48.3446 649.482,-35.0093 664.079,-24.9039"/>
<polygon fill="midnightblue" stroke="midnightblue" points="666.23,-27.6715 672.46,-19.1017 662.246,-21.9161 666.23,-27.6715"/>
</g>
<!-- Node30&#45;&gt;Node15 -->
<g id="edge59" class="edge"><title>Node30&#45;&gt;Node15</title>
<path fill="none" stroke="midnightblue" d="M636.493,-57.9404C677.03,-48.5051 749.103,-31.7293 795.212,-20.997"/>
<polygon fill="midnightblue" stroke="midnightblue" points="796.257,-24.3474 805.204,-18.6715 794.671,-17.5297 796.257,-24.3474"/>
</g>
<!-- Node31&#45;&gt;Node4 -->
<g id="edge61" class="edge"><title>Node31&#45;&gt;Node4</title>
<path fill="none" stroke="midnightblue" d="M684.163,-56.5625C684.163,-49.308 684.163,-38.5884 684.163,-29.3691"/>
<polygon fill="midnightblue" stroke="midnightblue" points="687.663,-29.2014 684.163,-19.2014 680.663,-29.2015 687.663,-29.2014"/>
</g>
<!-- Node31&#45;&gt;Node15 -->
<g id="edge62" class="edge"><title>Node31&#45;&gt;Node15</title>
<path fill="none" stroke="midnightblue" d="M707.218,-56.9157C733.377,-47.743 776.229,-32.7171 805.746,-22.3669"/>
<polygon fill="midnightblue" stroke="midnightblue" points="806.923,-25.6632 815.201,-19.0513 804.607,-19.0575 806.923,-25.6632"/>
</g>
<!-- Node32&#45;&gt;Node4 -->
<g id="edge64" class="edge"><title>Node32&#45;&gt;Node4</title>
<path fill="none" stroke="midnightblue" d="M338.809,-120.627C273.295,-118.849 124.599,-109.029 173.163,-56 205.324,-20.8823 540.421,-13.0338 649.824,-11.4017"/>
<polygon fill="midnightblue" stroke="midnightblue" points="650.033,-14.8992 659.983,-11.2586 649.935,-7.89991 650.033,-14.8992"/>
</g>
<!-- Node32&#45;&gt;Node11 -->
<g id="edge65" class="edge"><title>Node32&#45;&gt;Node11</title>
<path fill="none" stroke="midnightblue" d="M397.636,-127.643C405.106,-129.124 412.955,-130.712 420.163,-132 509.859,-148.033 615.216,-162.762 672.395,-170.751"/>
<polygon fill="midnightblue" stroke="midnightblue" points="672.108,-174.245 682.496,-172.163 673.077,-167.312 672.108,-174.245"/>
</g>
</g>
</svg>
