<?xml version="1.0" encoding="UTF-8" standalone="no"?>
<!DOCTYPE svg PUBLIC "-//W3C//DTD SVG 1.1//EN"
 "http://www.w3.org/Graphics/SVG/1.1/DTD/svg11.dtd">
<!-- Generated by graphviz version 2.36.0 (20140111.2315)
 -->
<!-- Title: src/sys/unistd/_fcntl.c Pages: 1 -->
<svg width="211pt" height="84pt"
 viewBox="0.00 0.00 211.00 84.00" xmlns="http://www.w3.org/2000/svg" xmlns:xlink="http://www.w3.org/1999/xlink">
<g id="graph0" class="graph" transform="scale(1 1) rotate(0) translate(4 80)">
<title>src/sys/unistd/_fcntl.c</title>
<!-- Node1 -->
<g id="node1" class="node"><title>Node1</title>
<polygon fill="#bfbfbf" stroke="black" points="30.4854,-57 30.4854,-75 141.515,-75 141.515,-57 30.4854,-57"/>
<text text-anchor="middle" x="86" y="-63" font-family="Helvetica,sans-Serif" font-size="10.00">src/sys/unistd/_fcntl.c</text>
</g>
<!-- Node2 -->
<g id="node2" class="node"><title>Node2</title>
<polygon fill="none" stroke="#bfbfbf" points="-0.339844,-1 -0.339844,-19 42.3398,-19 42.3398,-1 -0.339844,-1"/>
<text text-anchor="middle" x="21" y="-7" font-family="Helvetica,sans-Serif" font-size="10.00">fcntl.h</text>
</g>
<!-- Node1&#45;&gt;Node2 -->
<g id="edge1" class="edge"><title>Node1&#45;&gt;Node2</title>
<path fill="none" stroke="midnightblue" d="M76.1279,-56.7986C66.297,-48.6313 50.9822,-35.9083 38.9869,-25.943"/>
<polygon fill="midnightblue" stroke="midnightblue" points="40.8935,-22.9767 30.965,-19.2786 36.4204,-28.361 40.8935,-22.9767"/>
</g>
<!-- Node3 -->
<g id="node3" class="node"><title>Node3</title>
<polygon fill="none" stroke="#bfbfbf" points="59.9336,-1 59.9336,-19 112.066,-19 112.066,-1 59.9336,-1"/>
<text text-anchor="middle" x="86" y="-7" font-family="Helvetica,sans-Serif" font-size="10.00">stdarg.h</text>
</g>
<!-- Node1&#45;&gt;Node3 -->
<g id="edge2" class="edge"><title>Node1&#45;&gt;Node3</title>
<path fill="none" stroke="midnightblue" d="M86,-56.5625C86,-49.308 86,-38.5884 86,-29.3691"/>
<polygon fill="midnightblue" stroke="midnightblue" points="89.5001,-29.2014 86,-19.2014 82.5001,-29.2015 89.5001,-29.2014"/>
</g>
<!-- Node4 -->
<g id="node4" class="node"><title>Node4</title>
<polygon fill="none" stroke="#bfbfbf" points="130.091,-1 130.091,-19 203.909,-19 203.909,-1 130.091,-1"/>
<text text-anchor="middle" x="167" y="-7" font-family="Helvetica,sans-Serif" font-size="10.00">mcu/debug.h</text>
</g>
<!-- Node1&#45;&gt;Node4 -->
<g id="edge3" class="edge"><title>Node1&#45;&gt;Node4</title>
<path fill="none" stroke="midnightblue" d="M98.3022,-56.7986C110.983,-48.3446 130.986,-35.0093 146.144,-24.9039"/>
<polygon fill="midnightblue" stroke="midnightblue" points="148.468,-27.5609 154.847,-19.1017 144.585,-21.7365 148.468,-27.5609"/>
</g>
</g>
</svg>
