<?xml version="1.0" encoding="UTF-8" standalone="no"?>
<!DOCTYPE svg PUBLIC "-//W3C//DTD SVG 1.1//EN"
 "http://www.w3.org/Graphics/SVG/1.1/DTD/svg11.dtd">
<!-- Generated by graphviz version 2.36.0 (20140111.2315)
 -->
<!-- Title: src/sys/time/_itimer.c Pages: 1 -->
<svg width="194pt" height="84pt"
 viewBox="0.00 0.00 194.00 84.00" xmlns="http://www.w3.org/2000/svg" xmlns:xlink="http://www.w3.org/1999/xlink">
<g id="graph0" class="graph" transform="scale(1 1) rotate(0) translate(4 80)">
<title>src/sys/time/_itimer.c</title>
<!-- Node1 -->
<g id="node1" class="node"><title>Node1</title>
<polygon fill="#bfbfbf" stroke="black" points="45.6035,-57 45.6035,-75 154.396,-75 154.396,-57 45.6035,-57"/>
<text text-anchor="middle" x="100" y="-63" font-family="Helvetica,sans-Serif" font-size="10.00">src/sys/time/_itimer.c</text>
</g>
<!-- Node2 -->
<g id="node2" class="node"><title>Node2</title>
<polygon fill="none" stroke="#bfbfbf" points="-0.504883,-1 -0.504883,-19 60.5049,-19 60.5049,-1 -0.504883,-1"/>
<text text-anchor="middle" x="30" y="-7" font-family="Helvetica,sans-Serif" font-size="10.00">sys/time.h</text>
</g>
<!-- Node1&#45;&gt;Node2 -->
<g id="edge1" class="edge"><title>Node1&#45;&gt;Node2</title>
<path fill="none" stroke="midnightblue" d="M89.3685,-56.7986C78.6786,-48.552 61.9678,-35.6608 48.9953,-25.6535"/>
<polygon fill="midnightblue" stroke="midnightblue" points="50.7872,-22.6154 40.7315,-19.2786 46.5116,-28.1579 50.7872,-22.6154"/>
</g>
<!-- Node3 -->
<g id="node3" class="node"><title>Node3</title>
<polygon fill="none" stroke="#bfbfbf" points="78.3843,-1 78.3843,-19 121.616,-19 121.616,-1 78.3843,-1"/>
<text text-anchor="middle" x="100" y="-7" font-family="Helvetica,sans-Serif" font-size="10.00">time.h</text>
</g>
<!-- Node1&#45;&gt;Node3 -->
<g id="edge2" class="edge"><title>Node1&#45;&gt;Node3</title>
<path fill="none" stroke="midnightblue" d="M100,-56.5625C100,-49.308 100,-38.5884 100,-29.3691"/>
<polygon fill="midnightblue" stroke="midnightblue" points="103.5,-29.2014 100,-19.2014 96.5001,-29.2015 103.5,-29.2014"/>
</g>
<!-- Node4 -->
<g id="node4" class="node"><title>Node4</title>
<polygon fill="none" stroke="#bfbfbf" points="139.158,-1 139.158,-19 186.842,-19 186.842,-1 139.158,-1"/>
<text text-anchor="middle" x="163" y="-7" font-family="Helvetica,sans-Serif" font-size="10.00">errno.h</text>
</g>
<!-- Node1&#45;&gt;Node4 -->
<g id="edge3" class="edge"><title>Node1&#45;&gt;Node4</title>
<path fill="none" stroke="midnightblue" d="M109.568,-56.7986C119.097,-48.6313 133.94,-35.9083 145.567,-25.943"/>
<polygon fill="midnightblue" stroke="midnightblue" points="148.027,-28.444 153.342,-19.2786 143.471,-23.1292 148.027,-28.444"/>
</g>
</g>
</svg>
