<?xml version="1.0" encoding="UTF-8" standalone="no"?>
<!DOCTYPE svg PUBLIC "-//W3C//DTD SVG 1.1//EN"
 "http://www.w3.org/Graphics/SVG/1.1/DTD/svg11.dtd">
<!-- Generated by graphviz version 2.36.0 (20140111.2315)
 -->
<!-- Title: src/sys/unistd/_open.c Pages: 1 -->
<svg width="1272pt" height="308pt"
 viewBox="0.00 0.00 1272.25 308.00" xmlns="http://www.w3.org/2000/svg" xmlns:xlink="http://www.w3.org/1999/xlink">
<g id="graph0" class="graph" transform="scale(1 1) rotate(0) translate(4 304)">
<title>src/sys/unistd/_open.c</title>
<!-- Node1 -->
<g id="node1" class="node"><title>Node1</title>
<polygon fill="#bfbfbf" stroke="black" points="629.532,-281 629.532,-299 744.468,-299 744.468,-281 629.532,-281"/>
<text text-anchor="middle" x="687" y="-287" font-family="Helvetica,sans-Serif" font-size="10.00">src/sys/unistd/_open.c</text>
</g>
<!-- Node2 -->
<g id="node2" class="node"><title>Node2</title>
<polygon fill="none" stroke="#bfbfbf" points="431.434,-225 431.434,-243 478.566,-243 478.566,-225 431.434,-225"/>
<text text-anchor="middle" x="455" y="-231" font-family="Helvetica,sans-Serif" font-size="10.00">reent.h</text>
</g>
<!-- Node1&#45;&gt;Node2 -->
<g id="edge1" class="edge"><title>Node1&#45;&gt;Node2</title>
<path fill="none" stroke="midnightblue" d="M649.104,-280.948C611.017,-272.741 550.4,-259.369 488.673,-244.083"/>
<polygon fill="midnightblue" stroke="midnightblue" points="489.31,-240.635 478.76,-241.614 487.618,-247.427 489.31,-240.635"/>
</g>
<!-- Node3 -->
<g id="node3" class="node"><title>Node3</title>
<polygon fill="none" stroke="#bfbfbf" points="496.934,-225 496.934,-243 549.066,-243 549.066,-225 496.934,-225"/>
<text text-anchor="middle" x="523" y="-231" font-family="Helvetica,sans-Serif" font-size="10.00">stdarg.h</text>
</g>
<!-- Node1&#45;&gt;Node3 -->
<g id="edge2" class="edge"><title>Node1&#45;&gt;Node3</title>
<path fill="none" stroke="midnightblue" d="M662.448,-280.916C634.469,-271.703 588.559,-256.586 557.113,-246.232"/>
<polygon fill="midnightblue" stroke="midnightblue" points="558.045,-242.854 547.452,-243.051 555.856,-249.503 558.045,-242.854"/>
</g>
<!-- Node4 -->
<g id="node4" class="node"><title>Node4</title>
<polygon fill="none" stroke="#bfbfbf" points="232.882,-113 232.882,-131 291.118,-131 291.118,-113 232.882,-113"/>
<text text-anchor="middle" x="262" y="-119" font-family="Helvetica,sans-Serif" font-size="10.00">sys/stat.h</text>
</g>
<!-- Node1&#45;&gt;Node4 -->
<g id="edge3" class="edge"><title>Node1&#45;&gt;Node4</title>
<path fill="none" stroke="midnightblue" d="M670.498,-280.995C652.219,-272.091 621.903,-257.219 596,-244 579,-235.325 575.529,-231.549 558,-224 467.673,-185.1 356.989,-150.686 299.971,-133.883"/>
<polygon fill="midnightblue" stroke="midnightblue" points="300.877,-130.501 290.297,-131.05 298.91,-137.219 300.877,-130.501"/>
</g>
<!-- Node5 -->
<g id="node5" class="node"><title>Node5</title>
<polygon fill="none" stroke="#bfbfbf" points="705.158,-225 705.158,-243 752.842,-243 752.842,-225 705.158,-225"/>
<text text-anchor="middle" x="729" y="-231" font-family="Helvetica,sans-Serif" font-size="10.00">errno.h</text>
</g>
<!-- Node1&#45;&gt;Node5 -->
<g id="edge4" class="edge"><title>Node1&#45;&gt;Node5</title>
<path fill="none" stroke="midnightblue" d="M693.562,-280.562C699.639,-272.75 708.841,-260.919 716.345,-251.27"/>
<polygon fill="midnightblue" stroke="midnightblue" points="719.244,-253.244 722.621,-243.201 713.719,-248.946 719.244,-253.244"/>
</g>
<!-- Node6 -->
<g id="node6" class="node"><title>Node6</title>
<polygon fill="none" stroke="#bfbfbf" points="770.599,-225 770.599,-243 839.401,-243 839.401,-225 770.599,-225"/>
<text text-anchor="middle" x="805" y="-231" font-family="Helvetica,sans-Serif" font-size="10.00">sys/unistd.h</text>
</g>
<!-- Node1&#45;&gt;Node6 -->
<g id="edge5" class="edge"><title>Node1&#45;&gt;Node6</title>
<path fill="none" stroke="midnightblue" d="M704.666,-280.916C724.044,-272.048 755.376,-257.709 777.874,-247.414"/>
<polygon fill="midnightblue" stroke="midnightblue" points="779.577,-250.483 787.213,-243.14 776.664,-244.118 779.577,-250.483"/>
</g>
<!-- Node7 -->
<g id="node7" class="node"><title>Node7</title>
<g id="a_node7"><a xlink:href="sys_8h.html" target="_top" xlink:title="iface/dev/sys.h">
<polygon fill="none" stroke="black" points="604.929,-225 604.929,-243 687.071,-243 687.071,-225 604.929,-225"/>
<text text-anchor="middle" x="646" y="-231" font-family="Helvetica,sans-Serif" font-size="10.00">iface/dev/sys.h</text>
</a>
</g>
</g>
<!-- Node1&#45;&gt;Node7 -->
<g id="edge6" class="edge"><title>Node1&#45;&gt;Node7</title>
<path fill="none" stroke="midnightblue" d="M680.594,-280.562C674.662,-272.75 665.679,-260.919 658.353,-251.27"/>
<polygon fill="midnightblue" stroke="midnightblue" points="661.062,-249.049 652.227,-243.201 655.487,-253.282 661.062,-249.049"/>
</g>
<!-- Node29 -->
<g id="node29" class="node"><title>Node29</title>
<polygon fill="none" stroke="#bfbfbf" points="857.549,-225 857.549,-243 922.451,-243 922.451,-225 857.549,-225"/>
<text text-anchor="middle" x="890" y="-231" font-family="Helvetica,sans-Serif" font-size="10.00">mcu/mcu.h</text>
</g>
<!-- Node1&#45;&gt;Node29 -->
<g id="edge61" class="edge"><title>Node1&#45;&gt;Node29</title>
<path fill="none" stroke="midnightblue" d="M717.391,-280.916C752.623,-271.544 810.826,-256.061 849.781,-245.699"/>
<polygon fill="midnightblue" stroke="midnightblue" points="850.969,-249.004 859.733,-243.051 849.169,-242.24 850.969,-249.004"/>
</g>
<!-- Node30 -->
<g id="node30" class="node"><title>Node30</title>
<polygon fill="none" stroke="#bfbfbf" points="940.247,-225 940.247,-243 1055.75,-243 1055.75,-225 940.247,-225"/>
<text text-anchor="middle" x="998" y="-231" font-family="Helvetica,sans-Serif" font-size="10.00">../sched/sched_flags.h</text>
</g>
<!-- Node1&#45;&gt;Node30 -->
<g id="edge62" class="edge"><title>Node1&#45;&gt;Node30</title>
<path fill="none" stroke="midnightblue" d="M733.224,-280.974C788.809,-271.323 882.061,-255.131 941.765,-244.764"/>
<polygon fill="midnightblue" stroke="midnightblue" points="942.523,-248.185 951.776,-243.026 941.325,-241.288 942.523,-248.185"/>
</g>
<!-- Node8 -->
<g id="node8" class="node"><title>Node8</title>
<polygon fill="none" stroke="#bfbfbf" points="677.879,-1 677.879,-19 726.121,-19 726.121,-1 677.879,-1"/>
<text text-anchor="middle" x="702" y="-7" font-family="Helvetica,sans-Serif" font-size="10.00">stdint.h</text>
</g>
<!-- Node7&#45;&gt;Node8 -->
<g id="edge7" class="edge"><title>Node7&#45;&gt;Node8</title>
<path fill="none" stroke="midnightblue" d="M687.381,-225.298C787.816,-206.441 1042.3,-157.629 1125,-132 1187.05,-112.772 1223.93,-130.019 1260,-76 1264.94,-68.6079 1266.03,-62.5331 1260,-56 1224.45,-17.4688 852.444,-11.9218 736.385,-11.13"/>
<polygon fill="midnightblue" stroke="midnightblue" points="736.303,-7.6295 726.282,-11.0688 736.26,-14.6294 736.303,-7.6295"/>
</g>
<!-- Node9 -->
<g id="node9" class="node"><title>Node9</title>
<g id="a_node9"><a xlink:href="iface_2link_8h.html" target="_top" xlink:title="Link Layer Header. ">
<polygon fill="none" stroke="black" points="614.377,-169 614.377,-187 677.623,-187 677.623,-169 614.377,-169"/>
<text text-anchor="middle" x="646" y="-175" font-family="Helvetica,sans-Serif" font-size="10.00">iface/link.h</text>
</a>
</g>
</g>
<!-- Node7&#45;&gt;Node9 -->
<g id="edge8" class="edge"><title>Node7&#45;&gt;Node9</title>
<path fill="none" stroke="midnightblue" d="M640.938,-224.562C639.325,-217.308 638.868,-206.588 639.566,-197.369"/>
<polygon fill="midnightblue" stroke="midnightblue" points="643.069,-197.59 640.991,-187.201 636.137,-196.619 643.069,-197.59"/>
</g>
<!-- Node9&#45;&gt;Node4 -->
<g id="edge9" class="edge"><title>Node9&#45;&gt;Node4</title>
<path fill="none" stroke="midnightblue" d="M614.329,-171.612C606.699,-170.371 598.565,-169.095 591,-168 464.206,-149.652 431.358,-153.14 305,-132 303.909,-131.818 302.804,-131.627 301.69,-131.429"/>
<polygon fill="midnightblue" stroke="midnightblue" points="302.024,-127.931 291.549,-129.513 300.725,-134.809 302.024,-127.931"/>
</g>
<!-- Node9&#45;&gt;Node7 -->
<g id="edge60" class="edge"><title>Node9&#45;&gt;Node7</title>
<path fill="none" stroke="midnightblue" d="M651.009,-187.201C652.665,-194.459 653.139,-205.313 652.433,-214.633"/>
<polygon fill="midnightblue" stroke="midnightblue" points="648.963,-214.178 651.062,-224.562 655.897,-215.135 648.963,-214.178"/>
</g>
<!-- Node10 -->
<g id="node10" class="node"><title>Node10</title>
<polygon fill="none" stroke="#bfbfbf" points="1131.38,-57 1131.38,-75 1174.62,-75 1174.62,-57 1131.38,-57"/>
<text text-anchor="middle" x="1153" y="-63" font-family="Helvetica,sans-Serif" font-size="10.00">time.h</text>
</g>
<!-- Node9&#45;&gt;Node10 -->
<g id="edge10" class="edge"><title>Node9&#45;&gt;Node10</title>
<path fill="none" stroke="midnightblue" d="M677.795,-175.414C761.213,-170.948 984.683,-156.943 1054,-132 1085.73,-120.581 1117.44,-97.1112 1136.13,-81.7204"/>
<polygon fill="midnightblue" stroke="midnightblue" points="1138.6,-84.2206 1143.98,-75.0959 1134.08,-78.8714 1138.6,-84.2206"/>
</g>
<!-- Node11 -->
<g id="node11" class="node"><title>Node11</title>
<g id="a_node11"><a xlink:href="adc_8h.html" target="_top" xlink:title="Analog to Digital Converter Header File. ">
<polygon fill="none" stroke="black" points="156.318,-57 156.318,-75 215.682,-75 215.682,-57 156.318,-57"/>
<text text-anchor="middle" x="186" y="-63" font-family="Helvetica,sans-Serif" font-size="10.00">dev/adc.h</text>
</a>
</g>
</g>
<!-- Node9&#45;&gt;Node11 -->
<g id="edge11" class="edge"><title>Node9&#45;&gt;Node11</title>
<path fill="none" stroke="midnightblue" d="M613.939,-171.458C553.743,-160.972 428.127,-138.681 409,-132 390.982,-125.706 388.851,-118.751 371,-112 367.551,-110.696 278.972,-89.3331 225.654,-76.5176"/>
<polygon fill="midnightblue" stroke="midnightblue" points="226.358,-73.0872 215.817,-74.154 224.722,-79.8935 226.358,-73.0872"/>
</g>
<!-- Node13 -->
<g id="node13" class="node"><title>Node13</title>
<g id="a_node13"><a xlink:href="bootloader_8h.html" target="_top" xlink:title="Analog to Digital Converter Header File. ">
<polygon fill="none" stroke="black" points="529.022,-57 529.022,-75 618.978,-75 618.978,-57 529.022,-57"/>
<text text-anchor="middle" x="574" y="-63" font-family="Helvetica,sans-Serif" font-size="10.00">dev/bootloader.h</text>
</a>
</g>
</g>
<!-- Node9&#45;&gt;Node13 -->
<g id="edge14" class="edge"><title>Node9&#45;&gt;Node13</title>
<path fill="none" stroke="midnightblue" d="M640.588,-168.732C628.803,-150.727 600.623,-107.673 584.963,-83.7488"/>
<polygon fill="midnightblue" stroke="midnightblue" points="587.684,-81.5151 579.279,-75.0649 581.827,-85.3487 587.684,-81.5151"/>
</g>
<!-- Node14 -->
<g id="node14" class="node"><title>Node14</title>
<g id="a_node14"><a xlink:href="core_8h.html" target="_top" xlink:title="Analog to Digital Converter Header File. ">
<polygon fill="none" stroke="black" points="498.653,-113 498.653,-131 561.347,-131 561.347,-113 498.653,-113"/>
<text text-anchor="middle" x="530" y="-119" font-family="Helvetica,sans-Serif" font-size="10.00">dev/core.h</text>
</a>
</g>
</g>
<!-- Node9&#45;&gt;Node14 -->
<g id="edge17" class="edge"><title>Node9&#45;&gt;Node14</title>
<path fill="none" stroke="midnightblue" d="M628.634,-168.916C609.584,-160.048 578.783,-145.709 556.667,-135.414"/>
<polygon fill="midnightblue" stroke="midnightblue" points="558.028,-132.187 547.485,-131.14 555.074,-138.533 558.028,-132.187"/>
</g>
<!-- Node15 -->
<g id="node15" class="node"><title>Node15</title>
<g id="a_node15"><a xlink:href="pio_8h.html" target="_top" xlink:title="General Purpose Input/Output Header File. ">
<polygon fill="none" stroke="red" points="310.756,-57 310.756,-75 391.244,-75 391.244,-57 310.756,-57"/>
<text text-anchor="middle" x="351" y="-63" font-family="Helvetica,sans-Serif" font-size="10.00">iface/dev/pio.h</text>
</a>
</g>
</g>
<!-- Node9&#45;&gt;Node15 -->
<g id="edge24" class="edge"><title>Node9&#45;&gt;Node15</title>
<path fill="none" stroke="midnightblue" d="M614.154,-169.374C582.29,-161.381 532.091,-147.801 490,-132 488.564,-131.461 417.151,-98.0079 377.263,-79.3124"/>
<polygon fill="midnightblue" stroke="midnightblue" points="378.636,-76.0908 368.096,-75.0156 375.665,-82.429 378.636,-76.0908"/>
</g>
<!-- Node16 -->
<g id="node16" class="node"><title>Node16</title>
<polygon fill="none" stroke="#bfbfbf" points="768.926,-113 768.926,-131 831.074,-131 831.074,-113 768.926,-113"/>
<text text-anchor="middle" x="800" y="-119" font-family="Helvetica,sans-Serif" font-size="10.00">dev/gpio.h</text>
</g>
<!-- Node9&#45;&gt;Node16 -->
<g id="edge23" class="edge"><title>Node9&#45;&gt;Node16</title>
<path fill="none" stroke="midnightblue" d="M669.055,-168.916C695.214,-159.743 738.066,-144.717 767.583,-134.367"/>
<polygon fill="midnightblue" stroke="midnightblue" points="768.76,-137.663 777.039,-131.051 766.444,-131.057 768.76,-137.663"/>
</g>
<!-- Node17 -->
<g id="node17" class="node"><title>Node17</title>
<g id="a_node17"><a xlink:href="dac_8h.html" target="_top" xlink:title="DAC Header File. ">
<polygon fill="none" stroke="black" points="233.318,-57 233.318,-75 292.682,-75 292.682,-57 233.318,-57"/>
<text text-anchor="middle" x="263" y="-63" font-family="Helvetica,sans-Serif" font-size="10.00">dev/dac.h</text>
</a>
</g>
</g>
<!-- Node9&#45;&gt;Node17 -->
<g id="edge25" class="edge"><title>Node9&#45;&gt;Node17</title>
<path fill="none" stroke="midnightblue" d="M614.102,-170.846C566.031,-161.393 477.407,-143.218 447,-132 429.094,-125.394 426.64,-119.287 409,-112 374.023,-97.5518 332.683,-85.2305 302.937,-77.1534"/>
<polygon fill="midnightblue" stroke="midnightblue" points="303.493,-73.6792 292.929,-74.4768 301.685,-80.4416 303.493,-73.6792"/>
</g>
<!-- Node18 -->
<g id="node18" class="node"><title>Node18</title>
<g id="a_node18"><a xlink:href="eint_8h.html" target="_top" xlink:title="External Interrupt Header File. ">
<polygon fill="none" stroke="black" points="1192.32,-57 1192.32,-75 1251.68,-75 1251.68,-57 1192.32,-57"/>
<text text-anchor="middle" x="1222" y="-63" font-family="Helvetica,sans-Serif" font-size="10.00">dev/eint.h</text>
</a>
</g>
</g>
<!-- Node9&#45;&gt;Node18 -->
<g id="edge28" class="edge"><title>Node9&#45;&gt;Node18</title>
<path fill="none" stroke="midnightblue" d="M677.626,-177.442C750.906,-177.679 937.41,-173.745 1086,-132 1128.63,-120.023 1174.33,-95.4788 1200.41,-80.215"/>
<polygon fill="midnightblue" stroke="midnightblue" points="1202.28,-83.1725 1209.09,-75.0518 1198.7,-77.1565 1202.28,-83.1725"/>
</g>
<!-- Node20 -->
<g id="node20" class="node"><title>Node20</title>
<g id="a_node20"><a xlink:href="flash_8h.html" target="_top" xlink:title="Flash Memory Header File. ">
<polygon fill="none" stroke="black" points="446.818,-57 446.818,-75 511.182,-75 511.182,-57 446.818,-57"/>
<text text-anchor="middle" x="479" y="-63" font-family="Helvetica,sans-Serif" font-size="10.00">dev/flash.h</text>
</a>
</g>
</g>
<!-- Node9&#45;&gt;Node20 -->
<g id="edge32" class="edge"><title>Node9&#45;&gt;Node20</title>
<path fill="none" stroke="midnightblue" d="M637.673,-168.643C624.259,-155.478 596.662,-129.598 570,-112 550.424,-99.0794 526.609,-87.4314 508.253,-79.2245"/>
<polygon fill="midnightblue" stroke="midnightblue" points="509.505,-75.9519 498.94,-75.1456 506.696,-82.3638 509.505,-75.9519"/>
</g>
<!-- Node21 -->
<g id="node21" class="node"><title>Node21</title>
<g id="a_node21"><a xlink:href="i2c_8h.html" target="_top" xlink:title="I2C Header File. ">
<polygon fill="none" stroke="black" points="636.988,-57 636.988,-75 693.012,-75 693.012,-57 636.988,-57"/>
<text text-anchor="middle" x="665" y="-63" font-family="Helvetica,sans-Serif" font-size="10.00">dev/i2c.h</text>
</a>
</g>
</g>
<!-- Node9&#45;&gt;Node21 -->
<g id="edge35" class="edge"><title>Node9&#45;&gt;Node21</title>
<path fill="none" stroke="midnightblue" d="M647.428,-168.732C650.483,-151.047 657.712,-109.196 661.884,-85.0427"/>
<polygon fill="midnightblue" stroke="midnightblue" points="665.354,-85.5147 663.607,-75.0649 658.456,-84.3232 665.354,-85.5147"/>
</g>
<!-- Node22 -->
<g id="node22" class="node"><title>Node22</title>
<g id="a_node22"><a xlink:href="pwm_8h.html" target="_top" xlink:title="Pulse Width Modulation Header File. ">
<polygon fill="none" stroke="black" points="784.823,-57 784.823,-75 849.177,-75 849.177,-57 784.823,-57"/>
<text text-anchor="middle" x="817" y="-63" font-family="Helvetica,sans-Serif" font-size="10.00">dev/pwm.h</text>
</a>
</g>
</g>
<!-- Node9&#45;&gt;Node22 -->
<g id="edge38" class="edge"><title>Node9&#45;&gt;Node22</title>
<path fill="none" stroke="midnightblue" d="M658.574,-168.911C687.603,-150.238 759.561,-103.949 795.649,-80.7348"/>
<polygon fill="midnightblue" stroke="midnightblue" points="797.891,-83.4541 804.408,-75.1004 794.104,-77.567 797.891,-83.4541"/>
</g>
<!-- Node23 -->
<g id="node23" class="node"><title>Node23</title>
<g id="a_node23"><a xlink:href="qei_8h.html" target="_top" xlink:title="Quadrature Encoder Interface Header File. ">
<polygon fill="none" stroke="black" points="866.707,-57 866.707,-75 923.293,-75 923.293,-57 866.707,-57"/>
<text text-anchor="middle" x="895" y="-63" font-family="Helvetica,sans-Serif" font-size="10.00">dev/qei.h</text>
</a>
</g>
</g>
<!-- Node9&#45;&gt;Node23 -->
<g id="edge41" class="edge"><title>Node9&#45;&gt;Node23</title>
<path fill="none" stroke="midnightblue" d="M677.857,-175.707C718.302,-172.765 788.952,-163.174 840,-132 859.456,-120.118 875.431,-98.9633 885.058,-84.0196"/>
<polygon fill="midnightblue" stroke="midnightblue" points="888.189,-85.6092 890.44,-75.2563 882.224,-81.9456 888.189,-85.6092"/>
</g>
<!-- Node24 -->
<g id="node24" class="node"><title>Node24</title>
<g id="a_node24"><a xlink:href="rtc_8h.html" target="_top" xlink:title="Real Time Clock Header File. ">
<polygon fill="none" stroke="black" points="990.825,-113 990.825,-131 1045.17,-131 1045.17,-113 990.825,-113"/>
<text text-anchor="middle" x="1018" y="-119" font-family="Helvetica,sans-Serif" font-size="10.00">dev/rtc.h</text>
</a>
</g>
</g>
<!-- Node9&#45;&gt;Node24 -->
<g id="edge44" class="edge"><title>Node9&#45;&gt;Node24</title>
<path fill="none" stroke="midnightblue" d="M677.717,-172.396C746.043,-162.478 906.879,-139.13 980.283,-128.475"/>
<polygon fill="midnightblue" stroke="midnightblue" points="981.064,-131.899 990.457,-126.998 980.058,-124.971 981.064,-131.899"/>
</g>
<!-- Node25 -->
<g id="node25" class="node"><title>Node25</title>
<g id="a_node25"><a xlink:href="spi_8h.html" target="_top" xlink:title="Serial Peripheral Interface Header File. ">
<polygon fill="none" stroke="black" points="710.988,-57 710.988,-75 767.012,-75 767.012,-57 710.988,-57"/>
<text text-anchor="middle" x="739" y="-63" font-family="Helvetica,sans-Serif" font-size="10.00">dev/spi.h</text>
</a>
</g>
</g>
<!-- Node9&#45;&gt;Node25 -->
<g id="edge48" class="edge"><title>Node9&#45;&gt;Node25</title>
<path fill="none" stroke="midnightblue" d="M652.99,-168.732C668.415,-150.487 705.587,-106.521 725.64,-82.8021"/>
<polygon fill="midnightblue" stroke="midnightblue" points="728.398,-84.9611 732.182,-75.0649 723.052,-80.4417 728.398,-84.9611"/>
</g>
<!-- Node26 -->
<g id="node26" class="node"><title>Node26</title>
<g id="a_node26"><a xlink:href="tmr_8h.html" target="_top" xlink:title="Timer Header File. ">
<polygon fill="none" stroke="black" points="1017.43,-57 1017.43,-75 1074.57,-75 1074.57,-57 1017.43,-57"/>
<text text-anchor="middle" x="1046" y="-63" font-family="Helvetica,sans-Serif" font-size="10.00">dev/tmr.h</text>
</a>
</g>
</g>
<!-- Node9&#45;&gt;Node26 -->
<g id="edge51" class="edge"><title>Node9&#45;&gt;Node26</title>
<path fill="none" stroke="midnightblue" d="M677.891,-171.912C720.829,-164.729 799.415,-150.414 865,-132 919.565,-116.68 981.347,-93.0989 1016.79,-78.9474"/>
<polygon fill="midnightblue" stroke="midnightblue" points="1018.51,-82.0279 1026.48,-75.0492 1015.89,-75.5335 1018.51,-82.0279"/>
</g>
<!-- Node27 -->
<g id="node27" class="node"><title>Node27</title>
<g id="a_node27"><a xlink:href="uart_8h.html" target="_top" xlink:title="Universal Asynchronous Receiver/Transmitter Header File. ">
<polygon fill="none" stroke="black" points="0.763672,-57 0.763672,-75 61.2363,-75 61.2363,-57 0.763672,-57"/>
<text text-anchor="middle" x="31" y="-63" font-family="Helvetica,sans-Serif" font-size="10.00">dev/uart.h</text>
</a>
</g>
</g>
<!-- Node9&#45;&gt;Node27 -->
<g id="edge54" class="edge"><title>Node9&#45;&gt;Node27</title>
<path fill="none" stroke="midnightblue" d="M614.319,-171.685C606.688,-170.441 598.557,-169.145 591,-168 476.53,-150.65 442.082,-170.801 333,-132 316.842,-126.252 316.11,-117.882 300,-112 205.846,-77.6242 173.601,-94.503 71.6963,-76.1694"/>
<polygon fill="midnightblue" stroke="midnightblue" points="72.086,-72.6816 61.6128,-74.2824 70.7983,-79.5622 72.086,-72.6816"/>
</g>
<!-- Node28 -->
<g id="node28" class="node"><title>Node28</title>
<g id="a_node28"><a xlink:href="usb_8h.html" target="_top" xlink:title="Universal Serial Bus Header File. ">
<polygon fill="none" stroke="black" points="79.3179,-57 79.3179,-75 138.682,-75 138.682,-57 79.3179,-57"/>
<text text-anchor="middle" x="109" y="-63" font-family="Helvetica,sans-Serif" font-size="10.00">dev/usb.h</text>
</a>
</g>
</g>
<!-- Node9&#45;&gt;Node28 -->
<g id="edge57" class="edge"><title>Node9&#45;&gt;Node28</title>
<path fill="none" stroke="midnightblue" d="M614.185,-171.794C541.797,-159.949 371,-132 371,-132 352.904,-125.936 351.006,-118.326 333,-112 256.507,-85.128 231.193,-93.0446 148.649,-76.2471"/>
<polygon fill="midnightblue" stroke="midnightblue" points="149.35,-72.818 138.844,-74.1915 147.913,-79.6691 149.35,-72.818"/>
</g>
<!-- Node11&#45;&gt;Node8 -->
<g id="edge12" class="edge"><title>Node11&#45;&gt;Node8</title>
<path fill="none" stroke="midnightblue" d="M215.791,-57.5258C218.556,-56.9587 221.324,-56.4379 224,-56 396.223,-27.8206 441.315,-36.9789 615,-20 632.356,-18.3033 651.649,-16.3177 667.647,-14.6438"/>
<polygon fill="midnightblue" stroke="midnightblue" points="668.052,-18.1206 677.632,-13.595 667.321,-11.1589 668.052,-18.1206"/>
</g>
<!-- Node12 -->
<g id="node12" class="node"><title>Node12</title>
<polygon fill="none" stroke="#bfbfbf" points="541.269,-1 541.269,-19 606.731,-19 606.731,-1 541.269,-1"/>
<text text-anchor="middle" x="574" y="-7" font-family="Helvetica,sans-Serif" font-size="10.00">mcu/arch.h</text>
</g>
<!-- Node11&#45;&gt;Node12 -->
<g id="edge13" class="edge"><title>Node11&#45;&gt;Node12</title>
<path fill="none" stroke="midnightblue" d="M215.809,-57.6287C218.57,-57.04 221.332,-56.4861 224,-56 333.846,-35.9872 464.678,-21.6622 530.943,-15.0695"/>
<polygon fill="midnightblue" stroke="midnightblue" points="531.402,-18.5413 541.01,-14.0781 530.715,-11.575 531.402,-18.5413"/>
</g>
<!-- Node13&#45;&gt;Node8 -->
<g id="edge15" class="edge"><title>Node13&#45;&gt;Node8</title>
<path fill="none" stroke="midnightblue" d="M593.163,-56.9157C614.371,-47.9683 648.781,-33.4516 673.229,-23.1378"/>
<polygon fill="midnightblue" stroke="midnightblue" points="674.853,-26.2515 682.706,-19.1396 672.132,-19.8019 674.853,-26.2515"/>
</g>
<!-- Node13&#45;&gt;Node12 -->
<g id="edge16" class="edge"><title>Node13&#45;&gt;Node12</title>
<path fill="none" stroke="midnightblue" d="M574,-56.5625C574,-49.308 574,-38.5884 574,-29.3691"/>
<polygon fill="midnightblue" stroke="midnightblue" points="577.5,-29.2014 574,-19.2014 570.5,-29.2015 577.5,-29.2014"/>
</g>
<!-- Node14&#45;&gt;Node8 -->
<g id="edge18" class="edge"><title>Node14&#45;&gt;Node8</title>
<path fill="none" stroke="midnightblue" d="M561.57,-119.838C652.05,-116.188 907.393,-103.515 932,-76 987.743,-13.6693 813.2,-9.19246 736.388,-10.1098"/>
<polygon fill="midnightblue" stroke="midnightblue" points="736.176,-6.61261 726.232,-10.2696 736.286,-13.6117 736.176,-6.61261"/>
</g>
<!-- Node14&#45;&gt;Node12 -->
<g id="edge19" class="edge"><title>Node14&#45;&gt;Node12</title>
<path fill="none" stroke="midnightblue" d="M498.938,-112.955C465.214,-102.653 418.588,-82.8699 438,-56 459.001,-26.93 499.494,-16.3313 530.856,-12.6183"/>
<polygon fill="midnightblue" stroke="midnightblue" points="531.493,-16.0725 541.101,-11.6064 530.805,-9.10644 531.493,-16.0725"/>
</g>
<!-- Node14&#45;&gt;Node15 -->
<g id="edge20" class="edge"><title>Node14&#45;&gt;Node15</title>
<path fill="none" stroke="midnightblue" d="M503.202,-112.916C472.4,-103.623 421.686,-88.3241 387.345,-77.9643"/>
<polygon fill="midnightblue" stroke="midnightblue" points="388.273,-74.5887 377.689,-75.0513 386.252,-81.2904 388.273,-74.5887"/>
</g>
<!-- Node15&#45;&gt;Node8 -->
<g id="edge21" class="edge"><title>Node15&#45;&gt;Node8</title>
<path fill="none" stroke="midnightblue" d="M391.264,-58.8055C460.859,-48.0986 602.444,-26.3163 667.68,-16.28"/>
<polygon fill="midnightblue" stroke="midnightblue" points="668.488,-19.6969 677.84,-14.717 667.424,-12.7783 668.488,-19.6969"/>
</g>
<!-- Node15&#45;&gt;Node12 -->
<g id="edge22" class="edge"><title>Node15&#45;&gt;Node12</title>
<path fill="none" stroke="midnightblue" d="M384.385,-56.9157C423.53,-47.4366 488.489,-31.7067 531.276,-21.3457"/>
<polygon fill="midnightblue" stroke="midnightblue" points="532.219,-24.7186 541.114,-18.9633 530.571,-17.9152 532.219,-24.7186"/>
</g>
<!-- Node17&#45;&gt;Node8 -->
<g id="edge26" class="edge"><title>Node17&#45;&gt;Node8</title>
<path fill="none" stroke="midnightblue" d="M292.739,-57.7668C295.856,-57.1197 298.986,-56.5155 302,-56 337.655,-49.901 577.296,-24.2309 667.632,-14.6374"/>
<polygon fill="midnightblue" stroke="midnightblue" points="668.064,-18.1114 677.638,-13.5757 667.325,-11.1504 668.064,-18.1114"/>
</g>
<!-- Node17&#45;&gt;Node12 -->
<g id="edge27" class="edge"><title>Node17&#45;&gt;Node12</title>
<path fill="none" stroke="midnightblue" d="M292.769,-57.9274C295.88,-57.249 299.001,-56.5936 302,-56 382.555,-40.0581 477.301,-25.2731 531.038,-17.2543"/>
<polygon fill="midnightblue" stroke="midnightblue" points="531.845,-20.673 541.222,-15.7424 530.817,-13.7488 531.845,-20.673"/>
</g>
<!-- Node18&#45;&gt;Node8 -->
<g id="edge29" class="edge"><title>Node18&#45;&gt;Node8</title>
<path fill="none" stroke="midnightblue" d="M1192.27,-57.7086C1189.15,-57.0729 1186.02,-56.4872 1183,-56 1016.93,-29.1929 815.836,-16.7689 736.533,-12.6453"/>
<polygon fill="midnightblue" stroke="midnightblue" points="736.332,-9.1307 726.167,-12.1179 735.977,-16.1217 736.332,-9.1307"/>
</g>
<!-- Node18&#45;&gt;Node12 -->
<g id="edge30" class="edge"><title>Node18&#45;&gt;Node12</title>
<path fill="none" stroke="midnightblue" d="M1192.28,-57.636C1189.16,-57.0144 1186.02,-56.4519 1183,-56 956.512,-22.1491 897.231,-38.8006 669,-20 652.07,-18.6054 633.461,-16.884 617.234,-15.3215"/>
<polygon fill="midnightblue" stroke="midnightblue" points="617.248,-11.8064 606.956,-14.3226 616.571,-18.7736 617.248,-11.8064"/>
</g>
<!-- Node19 -->
<g id="node19" class="node"><title>Node19</title>
<polygon fill="none" stroke="#bfbfbf" points="1192.32,-1 1192.32,-19 1251.68,-19 1251.68,-1 1192.32,-1"/>
<text text-anchor="middle" x="1222" y="-7" font-family="Helvetica,sans-Serif" font-size="10.00">mcu/pio.h</text>
</g>
<!-- Node18&#45;&gt;Node19 -->
<g id="edge31" class="edge"><title>Node18&#45;&gt;Node19</title>
<path fill="none" stroke="midnightblue" d="M1222,-56.5625C1222,-49.308 1222,-38.5884 1222,-29.3691"/>
<polygon fill="midnightblue" stroke="midnightblue" points="1225.5,-29.2014 1222,-19.2014 1218.5,-29.2015 1225.5,-29.2014"/>
</g>
<!-- Node20&#45;&gt;Node8 -->
<g id="edge33" class="edge"><title>Node20&#45;&gt;Node8</title>
<path fill="none" stroke="midnightblue" d="M511.426,-57.1479C553.163,-47.0412 625.355,-29.5597 667.892,-19.2593"/>
<polygon fill="midnightblue" stroke="midnightblue" points="668.88,-22.6213 677.775,-16.866 667.233,-15.8179 668.88,-22.6213"/>
</g>
<!-- Node20&#45;&gt;Node12 -->
<g id="edge34" class="edge"><title>Node20&#45;&gt;Node12</title>
<path fill="none" stroke="midnightblue" d="M493.428,-56.7986C508.722,-48.1053 533.096,-34.2506 551.035,-24.0538"/>
<polygon fill="midnightblue" stroke="midnightblue" points="552.783,-27.0862 559.747,-19.1017 549.324,-21.0006 552.783,-27.0862"/>
</g>
<!-- Node21&#45;&gt;Node8 -->
<g id="edge36" class="edge"><title>Node21&#45;&gt;Node8</title>
<path fill="none" stroke="midnightblue" d="M670.781,-56.5625C676.08,-48.8297 684.076,-37.1597 690.649,-27.5665"/>
<polygon fill="midnightblue" stroke="midnightblue" points="693.615,-29.4291 696.38,-19.2014 687.841,-25.4725 693.615,-29.4291"/>
</g>
<!-- Node21&#45;&gt;Node12 -->
<g id="edge37" class="edge"><title>Node21&#45;&gt;Node12</title>
<path fill="none" stroke="midnightblue" d="M651.179,-56.7986C636.664,-48.1851 613.609,-34.5043 596.473,-24.3354"/>
<polygon fill="midnightblue" stroke="midnightblue" points="598.039,-21.195 587.653,-19.1017 594.467,-27.2149 598.039,-21.195"/>
</g>
<!-- Node22&#45;&gt;Node8 -->
<g id="edge39" class="edge"><title>Node22&#45;&gt;Node8</title>
<path fill="none" stroke="midnightblue" d="M799.534,-56.7986C780.596,-47.9059 750.156,-33.6123 728.318,-23.3581"/>
<polygon fill="midnightblue" stroke="midnightblue" points="729.793,-20.184 719.254,-19.1017 726.818,-26.5202 729.793,-20.184"/>
</g>
<!-- Node22&#45;&gt;Node12 -->
<g id="edge40" class="edge"><title>Node22&#45;&gt;Node12</title>
<path fill="none" stroke="midnightblue" d="M784.731,-57.8292C741.461,-48.2136 664.54,-31.12 616.566,-20.4591"/>
<polygon fill="midnightblue" stroke="midnightblue" points="617.312,-17.0396 606.791,-18.2868 615.793,-23.8729 617.312,-17.0396"/>
</g>
<!-- Node23&#45;&gt;Node8 -->
<g id="edge42" class="edge"><title>Node23&#45;&gt;Node8</title>
<path fill="none" stroke="midnightblue" d="M866.522,-57.0321C831.826,-47.3245 773.261,-30.9383 736.17,-20.5605"/>
<polygon fill="midnightblue" stroke="midnightblue" points="736.889,-17.1272 726.315,-17.8032 735.002,-23.8683 736.889,-17.1272"/>
</g>
<!-- Node23&#45;&gt;Node12 -->
<g id="edge43" class="edge"><title>Node23&#45;&gt;Node12</title>
<path fill="none" stroke="midnightblue" d="M866.368,-57.7915C863.547,-57.1548 860.722,-56.5458 858,-56 773.161,-38.9898 673.014,-24.3848 617.18,-16.7259"/>
<polygon fill="midnightblue" stroke="midnightblue" points="617.334,-13.2146 606.953,-15.3328 616.389,-20.1505 617.334,-13.2146"/>
</g>
<!-- Node24&#45;&gt;Node8 -->
<g id="edge46" class="edge"><title>Node24&#45;&gt;Node8</title>
<path fill="none" stroke="midnightblue" d="M1036.83,-112.892C1062.2,-100.883 1102.08,-77.4708 1083,-56 1060.15,-30.287 826.031,-16.7678 736.531,-12.5078"/>
<polygon fill="midnightblue" stroke="midnightblue" points="736.51,-9.00307 726.358,-12.034 736.184,-15.9955 736.51,-9.00307"/>
</g>
<!-- Node24&#45;&gt;Node10 -->
<g id="edge45" class="edge"><title>Node24&#45;&gt;Node10</title>
<path fill="none" stroke="midnightblue" d="M1038.21,-112.916C1060.78,-103.889 1097.52,-89.1931 1123.34,-78.8637"/>
<polygon fill="midnightblue" stroke="midnightblue" points="1124.67,-82.1033 1132.65,-75.1396 1122.07,-75.6039 1124.67,-82.1033"/>
</g>
<!-- Node24&#45;&gt;Node12 -->
<g id="edge47" class="edge"><title>Node24&#45;&gt;Node12</title>
<path fill="none" stroke="midnightblue" d="M1010.37,-112.937C996.358,-98.7099 964.941,-69.3917 932,-56 903.323,-44.3416 705.481,-23.8571 616.818,-15.1279"/>
<polygon fill="midnightblue" stroke="midnightblue" points="617.11,-11.6399 606.817,-14.1476 616.428,-18.6065 617.11,-11.6399"/>
</g>
<!-- Node25&#45;&gt;Node8 -->
<g id="edge49" class="edge"><title>Node25&#45;&gt;Node8</title>
<path fill="none" stroke="midnightblue" d="M733.219,-56.5625C727.92,-48.8297 719.924,-37.1597 713.351,-27.5665"/>
<polygon fill="midnightblue" stroke="midnightblue" points="716.159,-25.4725 707.62,-19.2014 710.385,-29.4291 716.159,-25.4725"/>
</g>
<!-- Node25&#45;&gt;Node12 -->
<g id="edge50" class="edge"><title>Node25&#45;&gt;Node12</title>
<path fill="none" stroke="midnightblue" d="M714.298,-56.9157C686.149,-47.7032 639.958,-32.5863 608.321,-22.2322"/>
<polygon fill="midnightblue" stroke="midnightblue" points="609.194,-18.8354 598.601,-19.0513 607.017,-25.4881 609.194,-18.8354"/>
</g>
<!-- Node26&#45;&gt;Node8 -->
<g id="edge52" class="edge"><title>Node26&#45;&gt;Node8</title>
<path fill="none" stroke="midnightblue" d="M1017.36,-58.7654C1012.58,-57.7924 1007.65,-56.8343 1003,-56 906.746,-38.7468 792.349,-22.9208 736.347,-15.4757"/>
<polygon fill="midnightblue" stroke="midnightblue" points="736.641,-11.984 726.268,-14.1425 735.723,-18.9236 736.641,-11.984"/>
</g>
<!-- Node26&#45;&gt;Node12 -->
<g id="edge53" class="edge"><title>Node26&#45;&gt;Node12</title>
<path fill="none" stroke="midnightblue" d="M1017.18,-61.7033C937.123,-52.5437 711.654,-26.7486 616.847,-15.9019"/>
<polygon fill="midnightblue" stroke="midnightblue" points="617.083,-12.4062 606.75,-14.7468 616.287,-19.3608 617.083,-12.4062"/>
</g>
<!-- Node27&#45;&gt;Node8 -->
<g id="edge55" class="edge"><title>Node27&#45;&gt;Node8</title>
<path fill="none" stroke="midnightblue" d="M61.5683,-57.4564C64.4076,-56.9039 67.2502,-56.4054 70,-56 310.154,-20.5932 373.116,-40.4929 615,-20 632.377,-18.5278 651.671,-16.5653 667.666,-14.8486"/>
<polygon fill="midnightblue" stroke="midnightblue" points="668.084,-18.3239 677.647,-13.7636 667.327,-11.3649 668.084,-18.3239"/>
</g>
<!-- Node27&#45;&gt;Node12 -->
<g id="edge56" class="edge"><title>Node27&#45;&gt;Node12</title>
<path fill="none" stroke="midnightblue" d="M61.5786,-57.5241C64.4158,-56.9574 67.2551,-56.4371 70,-56 239.441,-29.0164 443.699,-17.0132 531.022,-12.8385"/>
<polygon fill="midnightblue" stroke="midnightblue" points="531.256,-16.3315 541.082,-12.3677 530.929,-9.33915 531.256,-16.3315"/>
</g>
<!-- Node28&#45;&gt;Node8 -->
<g id="edge58" class="edge"><title>Node28&#45;&gt;Node8</title>
<path fill="none" stroke="midnightblue" d="M138.784,-57.4827C141.551,-56.9247 144.32,-56.4178 147,-56 353.124,-23.8632 407.228,-38.7347 615,-20 632.368,-18.4339 651.662,-16.4617 667.659,-14.7629"/>
<polygon fill="midnightblue" stroke="midnightblue" points="668.071,-18.2389 677.641,-13.6931 667.325,-11.2787 668.071,-18.2389"/>
</g>
<!-- Node28&#45;&gt;Node12 -->
<g id="edge59" class="edge"><title>Node28&#45;&gt;Node12</title>
<path fill="none" stroke="midnightblue" d="M138.797,-57.5634C141.561,-56.9884 144.327,-56.4555 147,-56 286.312,-32.2614 453.465,-19.0032 530.821,-13.7216"/>
<polygon fill="midnightblue" stroke="midnightblue" points="531.385,-17.1917 541.128,-13.0291 530.915,-10.2075 531.385,-17.1917"/>
</g>
</g>
</svg>
