<?xml version="1.0" encoding="UTF-8" standalone="no"?>
<!DOCTYPE svg PUBLIC "-//W3C//DTD SVG 1.1//EN"
 "http://www.w3.org/Graphics/SVG/1.1/DTD/svg11.dtd">
<!-- Generated by graphviz version 2.36.0 (20140111.2315)
 -->
<!-- Title: src/sys/unistd/_unlink.c Pages: 1 -->
<svg width="895pt" height="318pt"
 viewBox="0.00 0.00 895.00 318.00" xmlns="http://www.w3.org/2000/svg" xmlns:xlink="http://www.w3.org/1999/xlink">
<g id="graph0" class="graph" transform="scale(1 1) rotate(0) translate(4 314)">
<title>src/sys/unistd/_unlink.c</title>
<!-- Node1 -->
<g id="node1" class="node"><title>Node1</title>
<polygon fill="#bfbfbf" stroke="black" points="600.591,-291 600.591,-309 719.409,-309 719.409,-291 600.591,-291"/>
<text text-anchor="middle" x="660" y="-297" font-family="Helvetica,sans-Serif" font-size="10.00">src/sys/unistd/_unlink.c</text>
</g>
<!-- Node2 -->
<g id="node2" class="node"><title>Node2</title>
<g id="a_node2"><a xlink:href="unistd__fs_8h_source.html" target="_top" xlink:title="unistd_fs.h">
<polygon fill="none" stroke="black" points="627.818,-235 627.818,-253 692.182,-253 692.182,-235 627.818,-235"/>
<text text-anchor="middle" x="660" y="-241" font-family="Helvetica,sans-Serif" font-size="10.00">unistd_fs.h</text>
</a>
</g>
</g>
<!-- Node1&#45;&gt;Node2 -->
<g id="edge1" class="edge"><title>Node1&#45;&gt;Node2</title>
<path fill="none" stroke="midnightblue" d="M660,-290.562C660,-283.308 660,-272.588 660,-263.369"/>
<polygon fill="midnightblue" stroke="midnightblue" points="663.5,-263.201 660,-253.201 656.5,-263.201 663.5,-263.201"/>
</g>
<!-- Node3 -->
<g id="node3" class="node"><title>Node3</title>
<g id="a_node3"><a xlink:href="config_8h.html" target="_top" xlink:title="config.h">
<polygon fill="none" stroke="black" points="75.4878,-174 75.4878,-192 126.512,-192 126.512,-174 75.4878,-174"/>
<text text-anchor="middle" x="101" y="-180" font-family="Helvetica,sans-Serif" font-size="10.00">config.h</text>
</a>
</g>
</g>
<!-- Node2&#45;&gt;Node3 -->
<g id="edge2" class="edge"><title>Node2&#45;&gt;Node3</title>
<path fill="none" stroke="midnightblue" d="M627.53,-239.573C529.745,-229.252 238.538,-198.517 136.667,-187.765"/>
<polygon fill="midnightblue" stroke="midnightblue" points="136.892,-184.269 126.58,-186.7 136.158,-191.23 136.892,-184.269"/>
</g>
<!-- Node6 -->
<g id="node6" class="node"><title>Node6</title>
<polygon fill="none" stroke="#bfbfbf" points="629.771,-174 629.771,-192 690.229,-192 690.229,-174 629.771,-174"/>
<text text-anchor="middle" x="660" y="-180" font-family="Helvetica,sans-Serif" font-size="10.00">sys/fcntl.h</text>
</g>
<!-- Node2&#45;&gt;Node6 -->
<g id="edge5" class="edge"><title>Node2&#45;&gt;Node6</title>
<path fill="none" stroke="midnightblue" d="M660,-234.796C660,-226.43 660,-213.171 660,-202.297"/>
<polygon fill="midnightblue" stroke="midnightblue" points="663.5,-202.134 660,-192.134 656.5,-202.134 663.5,-202.134"/>
</g>
<!-- Node7 -->
<g id="node7" class="node"><title>Node7</title>
<polygon fill="none" stroke="#bfbfbf" points="477.882,-57 477.882,-75 536.118,-75 536.118,-57 477.882,-57"/>
<text text-anchor="middle" x="507" y="-63" font-family="Helvetica,sans-Serif" font-size="10.00">sys/stat.h</text>
</g>
<!-- Node2&#45;&gt;Node7 -->
<g id="edge6" class="edge"><title>Node2&#45;&gt;Node7</title>
<path fill="none" stroke="midnightblue" d="M653.028,-234.98C629.432,-207.836 552.282,-119.089 520.683,-82.7399"/>
<polygon fill="midnightblue" stroke="midnightblue" points="523.215,-80.3175 514.013,-75.0668 517.932,-84.9101 523.215,-80.3175"/>
</g>
<!-- Node8 -->
<g id="node8" class="node"><title>Node8</title>
<polygon fill="none" stroke="#bfbfbf" points="708.269,-174 708.269,-192 753.731,-192 753.731,-174 708.269,-174"/>
<text text-anchor="middle" x="731" y="-180" font-family="Helvetica,sans-Serif" font-size="10.00">stdio.h</text>
</g>
<!-- Node2&#45;&gt;Node8 -->
<g id="edge7" class="edge"><title>Node2&#45;&gt;Node8</title>
<path fill="none" stroke="midnightblue" d="M669.872,-234.796C681.106,-225.462 699.669,-210.035 713.398,-198.627"/>
<polygon fill="midnightblue" stroke="midnightblue" points="715.757,-201.217 721.212,-192.134 711.284,-195.833 715.757,-201.217"/>
</g>
<!-- Node9 -->
<g id="node9" class="node"><title>Node9</title>
<polygon fill="none" stroke="#bfbfbf" points="771.488,-174 771.488,-192 822.512,-192 822.512,-174 771.488,-174"/>
<text text-anchor="middle" x="797" y="-180" font-family="Helvetica,sans-Serif" font-size="10.00">unistd.h</text>
</g>
<!-- Node2&#45;&gt;Node9 -->
<g id="edge8" class="edge"><title>Node2&#45;&gt;Node9</title>
<path fill="none" stroke="midnightblue" d="M678.762,-234.92C701.997,-224.914 741.798,-207.773 768.737,-196.172"/>
<polygon fill="midnightblue" stroke="midnightblue" points="770.225,-199.342 778.025,-192.172 767.456,-192.913 770.225,-199.342"/>
</g>
<!-- Node10 -->
<g id="node10" class="node"><title>Node10</title>
<polygon fill="none" stroke="#bfbfbf" points="840.158,-174 840.158,-192 887.842,-192 887.842,-174 840.158,-174"/>
<text text-anchor="middle" x="864" y="-180" font-family="Helvetica,sans-Serif" font-size="10.00">errno.h</text>
</g>
<!-- Node2&#45;&gt;Node10 -->
<g id="edge9" class="edge"><title>Node2&#45;&gt;Node10</title>
<path fill="none" stroke="midnightblue" d="M692.24,-235.977C726.926,-228.084 783.505,-214.23 831,-198 832.899,-197.351 834.844,-196.643 836.792,-195.902"/>
<polygon fill="midnightblue" stroke="midnightblue" points="838.41,-199.023 846.371,-192.032 835.788,-192.533 838.41,-199.023"/>
</g>
<!-- Node11 -->
<g id="node11" class="node"><title>Node11</title>
<g id="a_node11"><a xlink:href="sysfs_8h_source.html" target="_top" xlink:title="../../../include/stratify\l/sysfs.h">
<polygon fill="none" stroke="black" points="347.54,-169 347.54,-197 452.46,-197 452.46,-169 347.54,-169"/>
<text text-anchor="start" x="355.54" y="-185" font-family="Helvetica,sans-Serif" font-size="10.00">../../../include/stratify</text>
<text text-anchor="middle" x="400" y="-175" font-family="Helvetica,sans-Serif" font-size="10.00">/sysfs.h</text>
</a>
</g>
</g>
<!-- Node2&#45;&gt;Node11 -->
<g id="edge10" class="edge"><title>Node2&#45;&gt;Node11</title>
<path fill="none" stroke="midnightblue" d="M627.597,-235.647C586.417,-226.302 514.449,-209.971 462.448,-198.171"/>
<polygon fill="midnightblue" stroke="midnightblue" points="463.183,-194.749 452.656,-195.949 461.634,-201.575 463.183,-194.749"/>
</g>
<!-- Node4 -->
<g id="node4" class="node"><title>Node4</title>
<polygon fill="none" stroke="#bfbfbf" points="-0.908691,-113 -0.908691,-131 72.9087,-131 72.9087,-113 -0.908691,-113"/>
<text text-anchor="middle" x="36" y="-119" font-family="Helvetica,sans-Serif" font-size="10.00">mcu/debug.h</text>
</g>
<!-- Node3&#45;&gt;Node4 -->
<g id="edge3" class="edge"><title>Node3&#45;&gt;Node4</title>
<path fill="none" stroke="midnightblue" d="M91.962,-173.796C81.775,-164.55 65.0029,-149.326 52.4717,-137.951"/>
<polygon fill="midnightblue" stroke="midnightblue" points="54.7182,-135.264 44.9612,-131.134 50.0134,-140.447 54.7182,-135.264"/>
</g>
<!-- Node5 -->
<g id="node5" class="node"><title>Node5</title>
<polygon fill="none" stroke="#bfbfbf" points="232.879,-1 232.879,-19 281.121,-19 281.121,-1 232.879,-1"/>
<text text-anchor="middle" x="257" y="-7" font-family="Helvetica,sans-Serif" font-size="10.00">stdint.h</text>
</g>
<!-- Node3&#45;&gt;Node5 -->
<g id="edge4" class="edge"><title>Node3&#45;&gt;Node5</title>
<path fill="none" stroke="midnightblue" d="M101.479,-173.942C102.649,-160.13 106.627,-131.535 120,-112 148.287,-70.6773 199.16,-39.8039 230.319,-23.6539"/>
<polygon fill="midnightblue" stroke="midnightblue" points="231.958,-26.7477 239.31,-19.1192 228.805,-20.4977 231.958,-26.7477"/>
</g>
<!-- Node11&#45;&gt;Node5 -->
<g id="edge13" class="edge"><title>Node11&#45;&gt;Node5</title>
<path fill="none" stroke="midnightblue" d="M358.431,-168.88C319.141,-153.775 263.533,-124.583 245,-76 239.126,-60.6025 243.619,-42.0252 248.696,-28.6812"/>
<polygon fill="midnightblue" stroke="midnightblue" points="252.009,-29.8341 252.706,-19.2622 245.568,-27.0921 252.009,-29.8341"/>
</g>
<!-- Node11&#45;&gt;Node7 -->
<g id="edge15" class="edge"><title>Node11&#45;&gt;Node7</title>
<path fill="none" stroke="midnightblue" d="M410.941,-168.825C422.922,-154.545 442.853,-131.224 461,-112 470.629,-101.799 481.879,-90.7794 490.843,-82.1979"/>
<polygon fill="midnightblue" stroke="midnightblue" points="493.48,-84.5204 498.32,-75.0959 488.659,-79.4448 493.48,-84.5204"/>
</g>
<!-- Node12 -->
<g id="node12" class="node"><title>Node12</title>
<polygon fill="none" stroke="#bfbfbf" points="387.707,-1 387.707,-19 444.293,-19 444.293,-1 387.707,-1"/>
<text text-anchor="middle" x="416" y="-7" font-family="Helvetica,sans-Serif" font-size="10.00">stdbool.h</text>
</g>
<!-- Node11&#45;&gt;Node12 -->
<g id="edge11" class="edge"><title>Node11&#45;&gt;Node12</title>
<path fill="none" stroke="midnightblue" d="M452.572,-178.666C484.949,-173.574 524.131,-161.271 545,-132 564.609,-104.497 564.559,-83.5384 545,-56 524.666,-27.3711 484.709,-16.805 454.625,-12.9846"/>
<polygon fill="midnightblue" stroke="midnightblue" points="454.759,-9.47915 444.444,-11.8961 454.015,-16.4395 454.759,-9.47915"/>
</g>
<!-- Node13 -->
<g id="node13" class="node"><title>Node13</title>
<polygon fill="none" stroke="#bfbfbf" points="469.99,-113 469.99,-131 536.01,-131 536.01,-113 469.99,-113"/>
<text text-anchor="middle" x="503" y="-119" font-family="Helvetica,sans-Serif" font-size="10.00">sys/types.h</text>
</g>
<!-- Node11&#45;&gt;Node13 -->
<g id="edge12" class="edge"><title>Node11&#45;&gt;Node13</title>
<path fill="none" stroke="midnightblue" d="M422.859,-168.906C439.861,-159.167 462.97,-145.93 480.005,-136.172"/>
<polygon fill="midnightblue" stroke="midnightblue" points="481.829,-139.161 488.766,-131.153 478.349,-133.087 481.829,-139.161"/>
</g>
<!-- Node14 -->
<g id="node14" class="node"><title>Node14</title>
<polygon fill="none" stroke="#bfbfbf" points="129.209,-113 129.209,-131 180.791,-131 180.791,-113 129.209,-113"/>
<text text-anchor="middle" x="155" y="-119" font-family="Helvetica,sans-Serif" font-size="10.00">stddef.h</text>
</g>
<!-- Node11&#45;&gt;Node14 -->
<g id="edge14" class="edge"><title>Node11&#45;&gt;Node14</title>
<path fill="none" stroke="midnightblue" d="M347.447,-169.948C306.956,-160.571 249.33,-147.028 190.759,-132.402"/>
<polygon fill="midnightblue" stroke="midnightblue" points="191.521,-128.985 180.971,-129.949 189.82,-135.775 191.521,-128.985"/>
</g>
<!-- Node15 -->
<g id="node15" class="node"><title>Node15</title>
<polygon fill="none" stroke="#bfbfbf" points="198.323,-113 198.323,-131 247.677,-131 247.677,-113 198.323,-113"/>
<text text-anchor="middle" x="223" y="-119" font-family="Helvetica,sans-Serif" font-size="10.00">dirent.h</text>
</g>
<!-- Node11&#45;&gt;Node15 -->
<g id="edge16" class="edge"><title>Node11&#45;&gt;Node15</title>
<path fill="none" stroke="midnightblue" d="M360.718,-168.906C329.515,-158.505 286.344,-144.115 256.7,-134.233"/>
<polygon fill="midnightblue" stroke="midnightblue" points="257.796,-130.909 247.202,-131.067 255.582,-137.55 257.796,-130.909"/>
</g>
<!-- Node16 -->
<g id="node16" class="node"><title>Node16</title>
<g id="a_node16"><a xlink:href="device__config_8h_source.html" target="_top" xlink:title="iface/device_config.h">
<polygon fill="none" stroke="black" points="304.303,-113 304.303,-131 413.697,-131 413.697,-113 304.303,-113"/>
<text text-anchor="middle" x="359" y="-119" font-family="Helvetica,sans-Serif" font-size="10.00">iface/device_config.h</text>
</a>
</g>
</g>
<!-- Node11&#45;&gt;Node16 -->
<g id="edge17" class="edge"><title>Node11&#45;&gt;Node16</title>
<path fill="none" stroke="midnightblue" d="M390.901,-168.906C384.885,-160.249 376.948,-148.828 370.497,-139.544"/>
<polygon fill="midnightblue" stroke="midnightblue" points="373.247,-137.368 364.666,-131.153 367.498,-141.363 373.247,-137.368"/>
</g>
<!-- Node16&#45;&gt;Node7 -->
<g id="edge18" class="edge"><title>Node16&#45;&gt;Node7</title>
<path fill="none" stroke="midnightblue" d="M381.157,-112.916C406.115,-103.809 446.885,-88.9337 475.23,-78.5917"/>
<polygon fill="midnightblue" stroke="midnightblue" points="476.497,-81.8553 484.691,-75.1396 474.098,-75.2793 476.497,-81.8553"/>
</g>
<!-- Node16&#45;&gt;Node12 -->
<g id="edge19" class="edge"><title>Node16&#45;&gt;Node12</title>
<path fill="none" stroke="midnightblue" d="M383.435,-112.921C400.106,-105.984 420.924,-94.1788 431,-76 439.313,-61.002 432.992,-41.6096 426.184,-27.9229"/>
<polygon fill="midnightblue" stroke="midnightblue" points="429.226,-26.1895 421.344,-19.1097 423.09,-29.5596 429.226,-26.1895"/>
</g>
<!-- Node17 -->
<g id="node17" class="node"><title>Node17</title>
<g id="a_node17"><a xlink:href="types_8h_source.html" target="_top" xlink:title="mcu/types.h">
<polygon fill="none" stroke="red" points="254.044,-57 254.044,-75 323.956,-75 323.956,-57 254.044,-57"/>
<text text-anchor="middle" x="289" y="-63" font-family="Helvetica,sans-Serif" font-size="10.00">mcu/types.h</text>
</a>
</g>
</g>
<!-- Node16&#45;&gt;Node17 -->
<g id="edge20" class="edge"><title>Node16&#45;&gt;Node17</title>
<path fill="none" stroke="midnightblue" d="M348.369,-112.799C337.679,-104.552 320.968,-91.6608 307.995,-81.6535"/>
<polygon fill="midnightblue" stroke="midnightblue" points="309.787,-78.6154 299.732,-75.2786 305.512,-84.1579 309.787,-78.6154"/>
</g>
<!-- Node18 -->
<g id="node18" class="node"><title>Node18</title>
<g id="a_node18"><a xlink:href="pio_8h.html" target="_top" xlink:title="General Purpose Input/Output Header File. ">
<polygon fill="none" stroke="red" points="341.756,-57 341.756,-75 422.244,-75 422.244,-57 341.756,-57"/>
<text text-anchor="middle" x="382" y="-63" font-family="Helvetica,sans-Serif" font-size="10.00">iface/dev/pio.h</text>
</a>
</g>
</g>
<!-- Node16&#45;&gt;Node18 -->
<g id="edge23" class="edge"><title>Node16&#45;&gt;Node18</title>
<path fill="none" stroke="midnightblue" d="M362.594,-112.562C365.785,-105.069 370.552,-93.8778 374.562,-84.4623"/>
<polygon fill="midnightblue" stroke="midnightblue" points="377.808,-85.7732 378.507,-75.2014 371.368,-83.0301 377.808,-85.7732"/>
</g>
<!-- Node17&#45;&gt;Node5 -->
<g id="edge21" class="edge"><title>Node17&#45;&gt;Node5</title>
<path fill="none" stroke="midnightblue" d="M284,-56.5625C279.465,-48.9094 272.644,-37.3999 266.993,-27.8638"/>
<polygon fill="midnightblue" stroke="midnightblue" points="269.969,-26.02 261.86,-19.2014 263.947,-29.5887 269.969,-26.02"/>
</g>
<!-- Node17&#45;&gt;Node12 -->
<g id="edge22" class="edge"><title>Node17&#45;&gt;Node12</title>
<path fill="none" stroke="midnightblue" d="M308.013,-56.9157C329.056,-47.9683 363.197,-33.4516 387.454,-23.1378"/>
<polygon fill="midnightblue" stroke="midnightblue" points="389.024,-26.2735 396.857,-19.1396 386.285,-19.8317 389.024,-26.2735"/>
</g>
<!-- Node18&#45;&gt;Node5 -->
<g id="edge25" class="edge"><title>Node18&#45;&gt;Node5</title>
<path fill="none" stroke="midnightblue" d="M363.286,-56.9157C342.575,-47.9683 308.971,-33.4516 285.097,-23.1378"/>
<polygon fill="midnightblue" stroke="midnightblue" points="286.41,-19.8924 275.842,-19.1396 283.634,-26.3184 286.41,-19.8924"/>
</g>
<!-- Node18&#45;&gt;Node12 -->
<g id="edge24" class="edge"><title>Node18&#45;&gt;Node12</title>
<path fill="none" stroke="midnightblue" d="M387.312,-56.5625C392.131,-48.9094 399.378,-37.3999 405.382,-27.8638"/>
<polygon fill="midnightblue" stroke="midnightblue" points="408.47,-29.5286 410.836,-19.2014 402.546,-25.7989 408.47,-29.5286"/>
</g>
</g>
</svg>
