<?xml version="1.0" encoding="UTF-8" standalone="no"?>
<!DOCTYPE svg PUBLIC "-//W3C//DTD SVG 1.1//EN"
 "http://www.w3.org/Graphics/SVG/1.1/DTD/svg11.dtd">
<!-- Generated by graphviz version 2.36.0 (20140111.2315)
 -->
<!-- Title: src/sys/signal/_wait.c Pages: 1 -->
<svg width="334pt" height="84pt"
 viewBox="0.00 0.00 334.00 84.00" xmlns="http://www.w3.org/2000/svg" xmlns:xlink="http://www.w3.org/1999/xlink">
<g id="graph0" class="graph" transform="scale(1 1) rotate(0) translate(4 80)">
<title>src/sys/signal/_wait.c</title>
<!-- Node1 -->
<g id="node1" class="node"><title>Node1</title>
<polygon fill="#bfbfbf" stroke="black" points="71.042,-57 71.042,-75 180.958,-75 180.958,-57 71.042,-57"/>
<text text-anchor="middle" x="126" y="-63" font-family="Helvetica,sans-Serif" font-size="10.00">src/sys/signal/_wait.c</text>
</g>
<!-- Node2 -->
<g id="node2" class="node"><title>Node2</title>
<polygon fill="none" stroke="#bfbfbf" points="-0.842285,-1 -0.842285,-19 46.8423,-19 46.8423,-1 -0.842285,-1"/>
<text text-anchor="middle" x="23" y="-7" font-family="Helvetica,sans-Serif" font-size="10.00">errno.h</text>
</g>
<!-- Node1&#45;&gt;Node2 -->
<g id="edge1" class="edge"><title>Node1&#45;&gt;Node2</title>
<path fill="none" stroke="midnightblue" d="M110.357,-56.7986C93.6228,-48.0256 66.8626,-33.9959 47.3654,-23.7741"/>
<polygon fill="midnightblue" stroke="midnightblue" points="48.935,-20.6452 38.4532,-19.1017 45.6847,-26.8448 48.935,-20.6452"/>
</g>
<!-- Node3 -->
<g id="node3" class="node"><title>Node3</title>
<polygon fill="none" stroke="#bfbfbf" points="64.7661,-1 64.7661,-19 115.234,-19 115.234,-1 64.7661,-1"/>
<text text-anchor="middle" x="90" y="-7" font-family="Helvetica,sans-Serif" font-size="10.00">signal.h</text>
</g>
<!-- Node1&#45;&gt;Node3 -->
<g id="edge2" class="edge"><title>Node1&#45;&gt;Node3</title>
<path fill="none" stroke="midnightblue" d="M120.375,-56.5625C115.22,-48.8297 107.44,-37.1597 101.044,-27.5665"/>
<polygon fill="midnightblue" stroke="midnightblue" points="103.927,-25.5805 95.4676,-19.2014 98.1025,-29.4634 103.927,-25.5805"/>
</g>
<!-- Node4 -->
<g id="node4" class="node"><title>Node4</title>
<polygon fill="none" stroke="#bfbfbf" points="133.049,-1 133.049,-19 192.951,-19 192.951,-1 133.049,-1"/>
<text text-anchor="middle" x="163" y="-7" font-family="Helvetica,sans-Serif" font-size="10.00">sys/wait.h</text>
</g>
<!-- Node1&#45;&gt;Node4 -->
<g id="edge3" class="edge"><title>Node1&#45;&gt;Node4</title>
<path fill="none" stroke="midnightblue" d="M131.781,-56.5625C137.08,-48.8297 145.076,-37.1597 151.649,-27.5665"/>
<polygon fill="midnightblue" stroke="midnightblue" points="154.615,-29.4291 157.38,-19.2014 148.841,-25.4725 154.615,-29.4291"/>
</g>
<!-- Node5 -->
<g id="node5" class="node"><title>Node5</title>
<polygon fill="none" stroke="#bfbfbf" points="211.247,-1 211.247,-19 326.753,-19 326.753,-1 211.247,-1"/>
<text text-anchor="middle" x="269" y="-7" font-family="Helvetica,sans-Serif" font-size="10.00">../sched/sched_flags.h</text>
</g>
<!-- Node1&#45;&gt;Node5 -->
<g id="edge4" class="edge"><title>Node1&#45;&gt;Node5</title>
<path fill="none" stroke="midnightblue" d="M147.409,-56.9157C171.418,-47.849 210.573,-33.0635 237.944,-22.7275"/>
<polygon fill="midnightblue" stroke="midnightblue" points="239.326,-25.9467 247.445,-19.1396 236.853,-19.3981 239.326,-25.9467"/>
</g>
</g>
</svg>
