<?xml version="1.0" encoding="UTF-8" standalone="no"?>
<!DOCTYPE svg PUBLIC "-//W3C//DTD SVG 1.1//EN"
 "http://www.w3.org/Graphics/SVG/1.1/DTD/svg11.dtd">
<!-- Generated by graphviz version 2.34.0 (20130907.0228)
 -->
<!-- Title: /Users/tgil/git/CoActionOS/CoActionOS&#45;Applib/include/Aio.hpp Pages: 1 -->
<svg width="160pt" height="112pt"
 viewBox="0.00 0.00 160.00 112.00" xmlns="http://www.w3.org/2000/svg" xmlns:xlink="http://www.w3.org/1999/xlink">
<g id="graph0" class="graph" transform="scale(1 1) rotate(0) translate(4 108)">
<title>/Users/tgil/git/CoActionOS/CoActionOS&#45;Applib/include/Aio.hpp</title>
<!-- Node1 -->
<g id="node1" class="node"><title>Node1</title>
<polygon fill="#bfbfbf" stroke="black" points="-0.92334,-59 -0.92334,-103 152.923,-103 152.923,-59 -0.92334,-59"/>
<text text-anchor="start" x="7.07666" y="-89" font-family="Helvetica,sans-Serif" font-size="10.00">/Users/tgil/git/CoAction</text>
<text text-anchor="start" x="7.07666" y="-77" font-family="Helvetica,sans-Serif" font-size="10.00">OS/CoActionOS&#45;Applib/include</text>
<text text-anchor="middle" x="76" y="-65" font-family="Helvetica,sans-Serif" font-size="10.00">/Aio.hpp</text>
</g>
<!-- Node2 -->
<g id="node2" class="node"><title>Node2</title>
<polygon fill="none" stroke="#bfbfbf" points="22.1577,-1 22.1577,-21 69.8423,-21 69.8423,-1 22.1577,-1"/>
<text text-anchor="middle" x="46" y="-7" font-family="Helvetica,sans-Serif" font-size="10.00">errno.h</text>
</g>
<!-- Node1&#45;&gt;Node2 -->
<g id="edge1" class="edge"><title>Node1&#45;&gt;Node2</title>
<path fill="none" stroke="midnightblue" d="M66.6723,-58.8571C62.6667,-49.7779 58.0284,-39.2643 54.1614,-30.4993"/>
<polygon fill="midnightblue" stroke="midnightblue" points="57.2992,-28.9404 50.0606,-21.2039 50.8948,-31.7659 57.2992,-28.9404"/>
</g>
<!-- Node3 -->
<g id="node3" class="node"><title>Node3</title>
<polygon fill="none" stroke="#bfbfbf" points="88.1577,-1 88.1577,-21 125.842,-21 125.842,-1 88.1577,-1"/>
<text text-anchor="middle" x="107" y="-7" font-family="Helvetica,sans-Serif" font-size="10.00">aio.h</text>
</g>
<!-- Node1&#45;&gt;Node3 -->
<g id="edge2" class="edge"><title>Node1&#45;&gt;Node3</title>
<path fill="none" stroke="midnightblue" d="M85.6387,-58.8571C89.7777,-49.7779 94.5707,-39.2643 98.5665,-30.4993"/>
<polygon fill="midnightblue" stroke="midnightblue" points="101.841,-31.7549 102.804,-21.2039 95.4712,-28.8512 101.841,-31.7549"/>
</g>
</g>
</svg>
