<?xml version="1.0" encoding="UTF-8" standalone="no"?>
<!DOCTYPE svg PUBLIC "-//W3C//DTD SVG 1.1//EN"
 "http://www.w3.org/Graphics/SVG/1.1/DTD/svg11.dtd">
<!-- Generated by graphviz version 2.34.0 (20130907.0228)
 -->
<!-- Title: /Users/tgil/git/CoActionOS/CoActionOS&#45;Applib/include/Dbug.hpp Pages: 1 -->
<svg width="504pt" height="136pt"
 viewBox="0.00 0.00 504.00 136.00" xmlns="http://www.w3.org/2000/svg" xmlns:xlink="http://www.w3.org/1999/xlink">
<g id="graph0" class="graph" transform="scale(1 1) rotate(0) translate(4 132)">
<title>/Users/tgil/git/CoActionOS/CoActionOS&#45;Applib/include/Dbug.hpp</title>
<!-- Node1 -->
<g id="node1" class="node"><title>Node1</title>
<polygon fill="#bfbfbf" stroke="black" points="171.077,-83 171.077,-127 324.923,-127 324.923,-83 171.077,-83"/>
<text text-anchor="start" x="179.077" y="-113" font-family="Helvetica,sans-Serif" font-size="10.00">/Users/tgil/git/CoAction</text>
<text text-anchor="start" x="179.077" y="-101" font-family="Helvetica,sans-Serif" font-size="10.00">OS/CoActionOS&#45;Applib/include</text>
<text text-anchor="middle" x="248" y="-89" font-family="Helvetica,sans-Serif" font-size="10.00">/Dbug.hpp</text>
</g>
<!-- Node2 -->
<g id="node2" class="node"><title>Node2</title>
<g id="a_node2"><a xlink:href="_dbug_null_8hpp.html" target="_top" xlink:title="/Users/tgil/git/CoAction\lOS/CoActionOS&#45;Applib/include\l/DbugNull.hpp">
<polygon fill="none" stroke="black" points="-0.92334,-1 -0.92334,-45 152.923,-45 152.923,-1 -0.92334,-1"/>
<text text-anchor="start" x="7.07666" y="-31" font-family="Helvetica,sans-Serif" font-size="10.00">/Users/tgil/git/CoAction</text>
<text text-anchor="start" x="7.07666" y="-19" font-family="Helvetica,sans-Serif" font-size="10.00">OS/CoActionOS&#45;Applib/include</text>
<text text-anchor="middle" x="76" y="-7" font-family="Helvetica,sans-Serif" font-size="10.00">/DbugNull.hpp</text>
</a>
</g>
</g>
<!-- Node1&#45;&gt;Node2 -->
<g id="edge1" class="edge"><title>Node1&#45;&gt;Node2</title>
<path fill="none" stroke="midnightblue" d="M193.725,-78.7559C170.385,-67.8998 143.418,-55.3571 121.187,-45.0174"/>
<polygon fill="midnightblue" stroke="midnightblue" points="192.266,-81.9371 202.809,-82.9809 195.218,-75.59 192.266,-81.9371"/>
</g>
<!-- Node3 -->
<g id="node3" class="node"><title>Node3</title>
<g id="a_node3"><a xlink:href="_dbug_stdout_8hpp.html" target="_top" xlink:title="/Users/tgil/git/CoAction\lOS/CoActionOS&#45;Applib/include\l/DbugStdout.hpp">
<polygon fill="none" stroke="black" points="171.077,-1 171.077,-45 324.923,-45 324.923,-1 171.077,-1"/>
<text text-anchor="start" x="179.077" y="-31" font-family="Helvetica,sans-Serif" font-size="10.00">/Users/tgil/git/CoAction</text>
<text text-anchor="start" x="179.077" y="-19" font-family="Helvetica,sans-Serif" font-size="10.00">OS/CoActionOS&#45;Applib/include</text>
<text text-anchor="middle" x="248" y="-7" font-family="Helvetica,sans-Serif" font-size="10.00">/DbugStdout.hpp</text>
</a>
</g>
</g>
<!-- Node1&#45;&gt;Node3 -->
<g id="edge2" class="edge"><title>Node1&#45;&gt;Node3</title>
<path fill="none" stroke="midnightblue" d="M248,-72.8963C248,-63.6094 248,-53.6485 248,-45.1564"/>
<polygon fill="midnightblue" stroke="midnightblue" points="244.5,-72.9809 248,-82.9809 251.5,-72.981 244.5,-72.9809"/>
</g>
<!-- Node4 -->
<g id="node4" class="node"><title>Node4</title>
<g id="a_node4"><a xlink:href="_dbug_uart_8hpp.html" target="_top" xlink:title="/Users/tgil/git/CoAction\lOS/CoActionOS&#45;Applib/include\l/DbugUart.hpp">
<polygon fill="none" stroke="black" points="343.077,-1 343.077,-45 496.923,-45 496.923,-1 343.077,-1"/>
<text text-anchor="start" x="351.077" y="-31" font-family="Helvetica,sans-Serif" font-size="10.00">/Users/tgil/git/CoAction</text>
<text text-anchor="start" x="351.077" y="-19" font-family="Helvetica,sans-Serif" font-size="10.00">OS/CoActionOS&#45;Applib/include</text>
<text text-anchor="middle" x="420" y="-7" font-family="Helvetica,sans-Serif" font-size="10.00">/DbugUart.hpp</text>
</a>
</g>
</g>
<!-- Node1&#45;&gt;Node4 -->
<g id="edge3" class="edge"><title>Node1&#45;&gt;Node4</title>
<path fill="none" stroke="midnightblue" d="M302.275,-78.7559C325.615,-67.8998 352.582,-55.3571 374.813,-45.0174"/>
<polygon fill="midnightblue" stroke="midnightblue" points="300.782,-75.59 293.191,-82.9809 303.734,-81.9371 300.782,-75.59"/>
</g>
</g>
</svg>
