<?xml version="1.0" encoding="UTF-8" standalone="no"?>
<!DOCTYPE svg PUBLIC "-//W3C//DTD SVG 1.1//EN"
 "http://www.w3.org/Graphics/SVG/1.1/DTD/svg11.dtd">
<!-- Generated by graphviz version 2.34.0 (20130907.0228)
 -->
<!-- Title: /Users/tgil/git/CoActionOS/CoActionOS&#45;Applib/include/DbugUart.hpp Pages: 1 -->
<svg width="442pt" height="344pt"
 viewBox="0.00 0.00 442.03 344.00" xmlns="http://www.w3.org/2000/svg" xmlns:xlink="http://www.w3.org/1999/xlink">
<g id="graph0" class="graph" transform="scale(1 1) rotate(0) translate(4 340)">
<title>/Users/tgil/git/CoActionOS/CoActionOS&#45;Applib/include/DbugUart.hpp</title>
<!-- Node1 -->
<g id="node1" class="node"><title>Node1</title>
<polygon fill="#bfbfbf" stroke="black" points="150.077,-291 150.077,-335 303.923,-335 303.923,-291 150.077,-291"/>
<text text-anchor="start" x="158.077" y="-321" font-family="Helvetica,sans-Serif" font-size="10.00">/Users/tgil/git/CoAction</text>
<text text-anchor="start" x="158.077" y="-309" font-family="Helvetica,sans-Serif" font-size="10.00">OS/CoActionOS&#45;Applib/include</text>
<text text-anchor="middle" x="227" y="-297" font-family="Helvetica,sans-Serif" font-size="10.00">/DbugUart.hpp</text>
</g>
<!-- Node2 -->
<g id="node2" class="node"><title>Node2</title>
<g id="a_node2"><a xlink:href="_uart_8hpp.html" target="_top" xlink:title="Uart.hpp">
<polygon fill="none" stroke="black" points="162.823,-233 162.823,-253 217.177,-253 217.177,-233 162.823,-233"/>
<text text-anchor="middle" x="190" y="-239" font-family="Helvetica,sans-Serif" font-size="10.00">Uart.hpp</text>
</a>
</g>
</g>
<!-- Node1&#45;&gt;Node2 -->
<g id="edge1" class="edge"><title>Node1&#45;&gt;Node2</title>
<path fill="none" stroke="midnightblue" d="M215.496,-290.857C210.502,-281.679 204.711,-271.036 199.911,-262.214"/>
<polygon fill="midnightblue" stroke="midnightblue" points="202.862,-260.315 195.008,-253.204 196.713,-263.661 202.862,-260.315"/>
</g>
<!-- Node14 -->
<g id="node14" class="node"><title>Node14</title>
<g id="a_node14"><a xlink:href="_dbug_8hpp.html" target="_top" xlink:title="Dbug.hpp">
<polygon fill="none" stroke="black" points="235.315,-233 235.315,-253 294.685,-253 294.685,-233 235.315,-233"/>
<text text-anchor="middle" x="265" y="-239" font-family="Helvetica,sans-Serif" font-size="10.00">Dbug.hpp</text>
</a>
</g>
</g>
<!-- Node1&#45;&gt;Node14 -->
<g id="edge15" class="edge"><title>Node1&#45;&gt;Node14</title>
<path fill="none" stroke="midnightblue" d="M238.815,-290.857C243.944,-281.679 249.892,-271.036 254.822,-262.214"/>
<polygon fill="midnightblue" stroke="midnightblue" points="258.034,-263.641 259.857,-253.204 251.923,-260.226 258.034,-263.641"/>
</g>
<!-- Node3 -->
<g id="node3" class="node"><title>Node3</title>
<polygon fill="none" stroke="#bfbfbf" points="119.764,-175 119.764,-195 180.236,-195 180.236,-175 119.764,-175"/>
<text text-anchor="middle" x="150" y="-181" font-family="Helvetica,sans-Serif" font-size="10.00">dev/uart.h</text>
</g>
<!-- Node2&#45;&gt;Node3 -->
<g id="edge2" class="edge"><title>Node2&#45;&gt;Node3</title>
<path fill="none" stroke="midnightblue" d="M183.395,-232.753C177.687,-224.761 169.284,-212.998 162.336,-203.27"/>
<polygon fill="midnightblue" stroke="midnightblue" points="165.143,-201.178 156.482,-195.075 159.447,-205.247 165.143,-201.178"/>
</g>
<!-- Node4 -->
<g id="node4" class="node"><title>Node4</title>
<g id="a_node4"><a xlink:href="_pchar_8hpp.html" target="_top" xlink:title="Pchar.hpp">
<polygon fill="none" stroke="black" points="198.48,-175 198.48,-195 259.52,-195 259.52,-175 198.48,-175"/>
<text text-anchor="middle" x="229" y="-181" font-family="Helvetica,sans-Serif" font-size="10.00">Pchar.hpp</text>
</a>
</g>
</g>
<!-- Node2&#45;&gt;Node4 -->
<g id="edge3" class="edge"><title>Node2&#45;&gt;Node4</title>
<path fill="none" stroke="midnightblue" d="M196.44,-232.753C201.949,-224.843 210.031,-213.237 216.765,-203.568"/>
<polygon fill="midnightblue" stroke="midnightblue" points="219.837,-205.282 222.68,-195.075 214.093,-201.281 219.837,-205.282"/>
</g>
<!-- Node5 -->
<g id="node5" class="node"><title>Node5</title>
<g id="a_node5"><a xlink:href="_periph_8hpp.html" target="_top" xlink:title="Periph.hpp">
<polygon fill="none" stroke="black" points="196.815,-117 196.815,-137 261.185,-137 261.185,-117 196.815,-117"/>
<text text-anchor="middle" x="229" y="-123" font-family="Helvetica,sans-Serif" font-size="10.00">Periph.hpp</text>
</a>
</g>
</g>
<!-- Node4&#45;&gt;Node5 -->
<g id="edge4" class="edge"><title>Node4&#45;&gt;Node5</title>
<path fill="none" stroke="midnightblue" d="M229,-174.753C229,-167.25 229,-156.424 229,-147.078"/>
<polygon fill="midnightblue" stroke="midnightblue" points="232.5,-147.075 229,-137.075 225.5,-147.075 232.5,-147.075"/>
</g>
<!-- Node6 -->
<g id="node6" class="node"><title>Node6</title>
<polygon fill="none" stroke="#bfbfbf" points="-0.241211,-1 -0.241211,-21 80.2412,-21 80.2412,-1 -0.241211,-1"/>
<text text-anchor="middle" x="40" y="-7" font-family="Helvetica,sans-Serif" font-size="10.00">link_protocol.h</text>
</g>
<!-- Node5&#45;&gt;Node6 -->
<g id="edge5" class="edge"><title>Node5&#45;&gt;Node6</title>
<path fill="none" stroke="midnightblue" d="M196.605,-123.221C146.08,-118.14 52.192,-105.45 32,-80 20.9547,-66.0784 25.5382,-45.2263 31.2635,-30.286"/>
<polygon fill="midnightblue" stroke="midnightblue" points="34.5019,-31.6147 35.2315,-21.045 28.0698,-28.8528 34.5019,-31.6147"/>
</g>
<!-- Node7 -->
<g id="node7" class="node"><title>Node7</title>
<polygon fill="none" stroke="#bfbfbf" points="261.66,-1 261.66,-21 304.34,-21 304.34,-1 261.66,-1"/>
<text text-anchor="middle" x="283" y="-7" font-family="Helvetica,sans-Serif" font-size="10.00">fcntl.h</text>
</g>
<!-- Node5&#45;&gt;Node7 -->
<g id="edge6" class="edge"><title>Node5&#45;&gt;Node7</title>
<path fill="none" stroke="midnightblue" d="M261.557,-123.246C312.336,-118.201 406.696,-105.561 427,-80 459.416,-39.1892 366.007,-21.6096 314.505,-15.177"/>
<polygon fill="midnightblue" stroke="midnightblue" points="314.852,-11.6938 304.512,-14.0023 314.035,-18.646 314.852,-11.6938"/>
</g>
<!-- Node8 -->
<g id="node8" class="node"><title>Node8</title>
<polygon fill="none" stroke="#bfbfbf" points="110.828,-59 110.828,-79 155.172,-79 155.172,-59 110.828,-59"/>
<text text-anchor="middle" x="133" y="-65" font-family="Helvetica,sans-Serif" font-size="10.00">cstdlib</text>
</g>
<!-- Node5&#45;&gt;Node8 -->
<g id="edge7" class="edge"><title>Node5&#45;&gt;Node8</title>
<path fill="none" stroke="midnightblue" d="M213.148,-116.753C198.05,-107.946 175.099,-94.5575 157.62,-84.3617"/>
<polygon fill="midnightblue" stroke="midnightblue" points="158.959,-81.0907 148.557,-79.0752 155.432,-87.1372 158.959,-81.0907"/>
</g>
<!-- Node9 -->
<g id="node9" class="node"><title>Node9</title>
<polygon fill="none" stroke="#bfbfbf" points="173.273,-59 173.273,-79 218.727,-79 218.727,-59 173.273,-59"/>
<text text-anchor="middle" x="196" y="-65" font-family="Helvetica,sans-Serif" font-size="10.00">cstring</text>
</g>
<!-- Node5&#45;&gt;Node9 -->
<g id="edge8" class="edge"><title>Node5&#45;&gt;Node9</title>
<path fill="none" stroke="midnightblue" d="M223.551,-116.753C218.937,-108.924 212.191,-97.4761 206.529,-87.8679"/>
<polygon fill="midnightblue" stroke="midnightblue" points="209.44,-85.9136 201.348,-79.0752 203.409,-89.4675 209.44,-85.9136"/>
</g>
<!-- Node10 -->
<g id="node10" class="node"><title>Node10</title>
<polygon fill="none" stroke="#bfbfbf" points="236.766,-59 236.766,-79 287.234,-79 287.234,-59 236.766,-59"/>
<text text-anchor="middle" x="262" y="-65" font-family="Helvetica,sans-Serif" font-size="10.00">signal.h</text>
</g>
<!-- Node5&#45;&gt;Node10 -->
<g id="edge9" class="edge"><title>Node5&#45;&gt;Node10</title>
<path fill="none" stroke="midnightblue" d="M234.449,-116.753C239.063,-108.924 245.809,-97.4761 251.471,-87.8679"/>
<polygon fill="midnightblue" stroke="midnightblue" points="254.591,-89.4675 256.652,-79.0752 248.56,-85.9136 254.591,-89.4675"/>
</g>
<!-- Node11 -->
<g id="node11" class="node"><title>Node11</title>
<polygon fill="none" stroke="#bfbfbf" points="305.269,-59 305.269,-79 350.731,-79 350.731,-59 305.269,-59"/>
<text text-anchor="middle" x="328" y="-65" font-family="Helvetica,sans-Serif" font-size="10.00">caos.h</text>
</g>
<!-- Node5&#45;&gt;Node11 -->
<g id="edge10" class="edge"><title>Node5&#45;&gt;Node11</title>
<path fill="none" stroke="midnightblue" d="M245.348,-116.753C261.062,-107.864 285.025,-94.3092 303.11,-84.0793"/>
<polygon fill="midnightblue" stroke="midnightblue" points="304.976,-87.0451 311.956,-79.0752 301.529,-80.9523 304.976,-87.0451"/>
</g>
<!-- Node12 -->
<g id="node12" class="node"><title>Node12</title>
<g id="a_node12"><a xlink:href="_aio_8hpp.html" target="_top" xlink:title="Aio.hpp">
<polygon fill="none" stroke="red" points="369.042,-59 369.042,-79 418.958,-79 418.958,-59 369.042,-59"/>
<text text-anchor="middle" x="394" y="-65" font-family="Helvetica,sans-Serif" font-size="10.00">Aio.hpp</text>
</a>
</g>
</g>
<!-- Node5&#45;&gt;Node12 -->
<g id="edge11" class="edge"><title>Node5&#45;&gt;Node12</title>
<path fill="none" stroke="midnightblue" d="M255.877,-116.878C284.141,-107.286 328.706,-92.1603 359.537,-81.6966"/>
<polygon fill="midnightblue" stroke="midnightblue" points="360.682,-85.0042 369.026,-78.476 358.432,-78.3756 360.682,-85.0042"/>
</g>
<!-- Node13 -->
<g id="node13" class="node"><title>Node13</title>
<g id="a_node13"><a xlink:href="_phy_8hpp.html" target="_top" xlink:title="Phy.hpp">
<polygon fill="none" stroke="black" points="41.0215,-59 41.0215,-79 92.9785,-79 92.9785,-59 41.0215,-59"/>
<text text-anchor="middle" x="67" y="-65" font-family="Helvetica,sans-Serif" font-size="10.00">Phy.hpp</text>
</a>
</g>
</g>
<!-- Node5&#45;&gt;Node13 -->
<g id="edge12" class="edge"><title>Node5&#45;&gt;Node13</title>
<path fill="none" stroke="midnightblue" d="M202.611,-116.878C175.465,-107.494 133.002,-92.8155 102.83,-82.3857"/>
<polygon fill="midnightblue" stroke="midnightblue" points="103.704,-78.9845 93.1089,-79.0253 101.417,-85.6004 103.704,-78.9845"/>
</g>
<!-- Node13&#45;&gt;Node6 -->
<g id="edge13" class="edge"><title>Node13&#45;&gt;Node6</title>
<path fill="none" stroke="midnightblue" d="M62.5415,-58.7527C58.8063,-51.0058 53.3622,-39.7142 48.7599,-30.1688"/>
<polygon fill="midnightblue" stroke="midnightblue" points="51.8713,-28.5628 44.3755,-21.0752 45.5659,-31.603 51.8713,-28.5628"/>
</g>
<!-- Node13&#45;&gt;Node7 -->
<g id="edge14" class="edge"><title>Node13&#45;&gt;Node7</title>
<path fill="none" stroke="midnightblue" d="M93.3502,-60.3816C96.2654,-59.5655 99.1934,-58.7574 102,-58 154.28,-43.8914 215.383,-28.613 251.545,-19.6961"/>
<polygon fill="midnightblue" stroke="midnightblue" points="252.618,-23.0365 261.493,-17.2487 250.946,-16.2392 252.618,-23.0365"/>
</g>
<!-- Node14&#45;&gt;Node4 -->
<g id="edge17" class="edge"><title>Node14&#45;&gt;Node4</title>
<path fill="none" stroke="midnightblue" d="M259.055,-232.753C253.97,-224.843 246.51,-213.237 240.294,-203.568"/>
<polygon fill="midnightblue" stroke="midnightblue" points="243.186,-201.594 234.834,-195.075 237.298,-205.38 243.186,-201.594"/>
</g>
<!-- Node15 -->
<g id="node15" class="node"><title>Node15</title>
<polygon fill="none" stroke="#bfbfbf" points="277.879,-175 277.879,-195 326.121,-195 326.121,-175 277.879,-175"/>
<text text-anchor="middle" x="302" y="-181" font-family="Helvetica,sans-Serif" font-size="10.00">stdint.h</text>
</g>
<!-- Node14&#45;&gt;Node15 -->
<g id="edge16" class="edge"><title>Node14&#45;&gt;Node15</title>
<path fill="none" stroke="midnightblue" d="M271.11,-232.753C276.336,-224.843 284.004,-213.237 290.392,-203.568"/>
<polygon fill="midnightblue" stroke="midnightblue" points="293.411,-205.348 296.004,-195.075 287.571,-201.489 293.411,-205.348"/>
</g>
</g>
</svg>
