<?xml version="1.0" encoding="UTF-8" standalone="no"?>
<!DOCTYPE svg PUBLIC "-//W3C//DTD SVG 1.1//EN"
 "http://www.w3.org/Graphics/SVG/1.1/DTD/svg11.dtd">
<!-- Generated by graphviz version 2.34.0 (20130907.0228)
 -->
<!-- Title: /Users/tgil/git/CoActionOS/CoActionOS&#45;Applib/include/Ema.hpp Pages: 1 -->
<svg width="160pt" height="112pt"
 viewBox="0.00 0.00 160.00 112.00" xmlns="http://www.w3.org/2000/svg" xmlns:xlink="http://www.w3.org/1999/xlink">
<g id="graph0" class="graph" transform="scale(1 1) rotate(0) translate(4 108)">
<title>/Users/tgil/git/CoActionOS/CoActionOS&#45;Applib/include/Ema.hpp</title>
<!-- Node1 -->
<g id="node1" class="node"><title>Node1</title>
<polygon fill="#bfbfbf" stroke="black" points="-0.92334,-59 -0.92334,-103 152.923,-103 152.923,-59 -0.92334,-59"/>
<text text-anchor="start" x="7.07666" y="-89" font-family="Helvetica,sans-Serif" font-size="10.00">/Users/tgil/git/CoAction</text>
<text text-anchor="start" x="7.07666" y="-77" font-family="Helvetica,sans-Serif" font-size="10.00">OS/CoActionOS&#45;Applib/include</text>
<text text-anchor="middle" x="76" y="-65" font-family="Helvetica,sans-Serif" font-size="10.00">/Ema.hpp</text>
</g>
<!-- Node2 -->
<g id="node2" class="node"><title>Node2</title>
<polygon fill="none" stroke="#bfbfbf" points="20.8794,-1 20.8794,-21 69.1206,-21 69.1206,-1 20.8794,-1"/>
<text text-anchor="middle" x="45" y="-7" font-family="Helvetica,sans-Serif" font-size="10.00">stdint.h</text>
</g>
<!-- Node1&#45;&gt;Node2 -->
<g id="edge1" class="edge"><title>Node1&#45;&gt;Node2</title>
<path fill="none" stroke="midnightblue" d="M66.3613,-58.8571C62.2223,-49.7779 57.4293,-39.2643 53.4335,-30.4993"/>
<polygon fill="midnightblue" stroke="midnightblue" points="56.5288,-28.8512 49.1959,-21.2039 50.1594,-31.7549 56.5288,-28.8512"/>
</g>
<!-- Node3 -->
<g id="node3" class="node"><title>Node3</title>
<polygon fill="none" stroke="#bfbfbf" points="86.9385,-1 86.9385,-21 129.062,-21 129.062,-1 86.9385,-1"/>
<text text-anchor="middle" x="108" y="-7" font-family="Helvetica,sans-Serif" font-size="10.00">cstdio</text>
</g>
<!-- Node1&#45;&gt;Node3 -->
<g id="edge2" class="edge"><title>Node1&#45;&gt;Node3</title>
<path fill="none" stroke="midnightblue" d="M85.9496,-58.8571C90.2222,-49.7779 95.1698,-39.2643 99.2945,-30.4993"/>
<polygon fill="midnightblue" stroke="midnightblue" points="102.578,-31.7424 103.669,-21.2039 96.2438,-28.7618 102.578,-31.7424"/>
</g>
</g>
</svg>
