<?xml version="1.0" encoding="UTF-8" standalone="no"?>
<!DOCTYPE svg PUBLIC "-//W3C//DTD SVG 1.1//EN"
 "http://www.w3.org/Graphics/SVG/1.1/DTD/svg11.dtd">
<!-- Generated by graphviz version 2.34.0 (20130907.0228)
 -->
<!-- Title: /Users/tgil/git/CoActionOS/CoActionOS&#45;Applib/include/File.hpp Pages: 1 -->
<svg width="429pt" height="228pt"
 viewBox="0.00 0.00 429.00 228.00" xmlns="http://www.w3.org/2000/svg" xmlns:xlink="http://www.w3.org/1999/xlink">
<g id="graph0" class="graph" transform="scale(1 1) rotate(0) translate(4 224)">
<title>/Users/tgil/git/CoActionOS/CoActionOS&#45;Applib/include/File.hpp</title>
<!-- Node1 -->
<g id="node1" class="node"><title>Node1</title>
<polygon fill="#bfbfbf" stroke="black" points="43.0767,-175 43.0767,-219 196.923,-219 196.923,-175 43.0767,-175"/>
<text text-anchor="start" x="51.0767" y="-205" font-family="Helvetica,sans-Serif" font-size="10.00">/Users/tgil/git/CoAction</text>
<text text-anchor="start" x="51.0767" y="-193" font-family="Helvetica,sans-Serif" font-size="10.00">OS/CoActionOS&#45;Applib/include</text>
<text text-anchor="middle" x="120" y="-181" font-family="Helvetica,sans-Serif" font-size="10.00">/File.hpp</text>
</g>
<!-- Node2 -->
<g id="node2" class="node"><title>Node2</title>
<polygon fill="none" stroke="#bfbfbf" points="25.4878,-117 25.4878,-137 76.5122,-137 76.5122,-117 25.4878,-117"/>
<text text-anchor="middle" x="51" y="-123" font-family="Helvetica,sans-Serif" font-size="10.00">unistd.h</text>
</g>
<!-- Node1&#45;&gt;Node2 -->
<g id="edge1" class="edge"><title>Node1&#45;&gt;Node2</title>
<path fill="none" stroke="midnightblue" d="M98.5462,-174.857C88.5324,-164.988 76.7989,-153.425 67.4936,-144.255"/>
<polygon fill="midnightblue" stroke="midnightblue" points="69.9186,-141.73 60.3393,-137.204 65.005,-146.716 69.9186,-141.73"/>
</g>
<!-- Node3 -->
<g id="node3" class="node"><title>Node3</title>
<g id="a_node3"><a xlink:href="_phy_8hpp.html" target="_top" xlink:title="Phy.hpp">
<polygon fill="none" stroke="black" points="94.0215,-117 94.0215,-137 145.979,-137 145.979,-117 94.0215,-117"/>
<text text-anchor="middle" x="120" y="-123" font-family="Helvetica,sans-Serif" font-size="10.00">Phy.hpp</text>
</a>
</g>
</g>
<!-- Node1&#45;&gt;Node3 -->
<g id="edge2" class="edge"><title>Node1&#45;&gt;Node3</title>
<path fill="none" stroke="midnightblue" d="M120,-174.857C120,-166.074 120,-155.948 120,-147.362"/>
<polygon fill="midnightblue" stroke="midnightblue" points="123.5,-147.204 120,-137.204 116.5,-147.204 123.5,-147.204"/>
</g>
<!-- Node6 -->
<g id="node6" class="node"><title>Node6</title>
<g id="a_node6"><a xlink:href="_string_8hpp.html" target="_top" xlink:title="String.hpp">
<polygon fill="none" stroke="black" points="214.207,-117 214.207,-137 275.793,-137 275.793,-117 214.207,-117"/>
<text text-anchor="middle" x="245" y="-123" font-family="Helvetica,sans-Serif" font-size="10.00">String.hpp</text>
</a>
</g>
</g>
<!-- Node1&#45;&gt;Node6 -->
<g id="edge5" class="edge"><title>Node1&#45;&gt;Node6</title>
<path fill="none" stroke="midnightblue" d="M158.866,-174.857C178.579,-164.133 201.971,-151.408 219.399,-141.927"/>
<polygon fill="midnightblue" stroke="midnightblue" points="221.295,-144.88 228.407,-137.027 217.95,-138.731 221.295,-144.88"/>
</g>
<!-- Node4 -->
<g id="node4" class="node"><title>Node4</title>
<polygon fill="none" stroke="#bfbfbf" points="-0.241211,-59 -0.241211,-79 80.2412,-79 80.2412,-59 -0.241211,-59"/>
<text text-anchor="middle" x="40" y="-65" font-family="Helvetica,sans-Serif" font-size="10.00">link_protocol.h</text>
</g>
<!-- Node3&#45;&gt;Node4 -->
<g id="edge3" class="edge"><title>Node3&#45;&gt;Node4</title>
<path fill="none" stroke="midnightblue" d="M106.79,-116.753C94.4411,-108.109 75.7883,-95.0518 61.3306,-84.9314"/>
<polygon fill="midnightblue" stroke="midnightblue" points="63.164,-81.9425 52.9646,-79.0752 59.1498,-87.6772 63.164,-81.9425"/>
</g>
<!-- Node5 -->
<g id="node5" class="node"><title>Node5</title>
<polygon fill="none" stroke="#bfbfbf" points="98.6602,-59 98.6602,-79 141.34,-79 141.34,-59 98.6602,-59"/>
<text text-anchor="middle" x="120" y="-65" font-family="Helvetica,sans-Serif" font-size="10.00">fcntl.h</text>
</g>
<!-- Node3&#45;&gt;Node5 -->
<g id="edge4" class="edge"><title>Node3&#45;&gt;Node5</title>
<path fill="none" stroke="midnightblue" d="M120,-116.753C120,-109.25 120,-98.4238 120,-89.0781"/>
<polygon fill="midnightblue" stroke="midnightblue" points="123.5,-89.0752 120,-79.0752 116.5,-89.0752 123.5,-89.0752"/>
</g>
<!-- Node7 -->
<g id="node7" class="node"><title>Node7</title>
<polygon fill="none" stroke="#bfbfbf" points="159.273,-59 159.273,-79 204.727,-79 204.727,-59 159.273,-59"/>
<text text-anchor="middle" x="182" y="-65" font-family="Helvetica,sans-Serif" font-size="10.00">cstring</text>
</g>
<!-- Node6&#45;&gt;Node7 -->
<g id="edge6" class="edge"><title>Node6&#45;&gt;Node7</title>
<path fill="none" stroke="midnightblue" d="M234.597,-116.753C225.148,-108.353 211.011,-95.7874 199.772,-85.7976"/>
<polygon fill="midnightblue" stroke="midnightblue" points="202.009,-83.1029 192.21,-79.0752 197.358,-88.3348 202.009,-83.1029"/>
</g>
<!-- Node8 -->
<g id="node8" class="node"><title>Node8</title>
<polygon fill="none" stroke="#bfbfbf" points="222.828,-59 222.828,-79 267.172,-79 267.172,-59 222.828,-59"/>
<text text-anchor="middle" x="245" y="-65" font-family="Helvetica,sans-Serif" font-size="10.00">cstdlib</text>
</g>
<!-- Node6&#45;&gt;Node8 -->
<g id="edge7" class="edge"><title>Node6&#45;&gt;Node8</title>
<path fill="none" stroke="midnightblue" d="M245,-116.753C245,-109.25 245,-98.4238 245,-89.0781"/>
<polygon fill="midnightblue" stroke="midnightblue" points="248.5,-89.0752 245,-79.0752 241.5,-89.0752 248.5,-89.0752"/>
</g>
<!-- Node9 -->
<g id="node9" class="node"><title>Node9</title>
<polygon fill="none" stroke="#bfbfbf" points="284.938,-59 284.938,-79 327.062,-79 327.062,-59 284.938,-59"/>
<text text-anchor="middle" x="306" y="-65" font-family="Helvetica,sans-Serif" font-size="10.00">cstdio</text>
</g>
<!-- Node6&#45;&gt;Node9 -->
<g id="edge8" class="edge"><title>Node6&#45;&gt;Node9</title>
<path fill="none" stroke="midnightblue" d="M255.073,-116.753C264.133,-108.435 277.645,-96.031 288.474,-86.0893"/>
<polygon fill="midnightblue" stroke="midnightblue" points="291.115,-88.4162 296.115,-79.0752 286.381,-83.2596 291.115,-88.4162"/>
</g>
<!-- Node10 -->
<g id="node10" class="node"><title>Node10</title>
<g id="a_node10"><a xlink:href="_string_util_8hpp_source.html" target="_top" xlink:title="StringUtil.hpp">
<polygon fill="none" stroke="black" points="344.985,-59 344.985,-79 421.015,-79 421.015,-59 344.985,-59"/>
<text text-anchor="middle" x="383" y="-65" font-family="Helvetica,sans-Serif" font-size="10.00">StringUtil.hpp</text>
</a>
</g>
</g>
<!-- Node6&#45;&gt;Node10 -->
<g id="edge9" class="edge"><title>Node6&#45;&gt;Node10</title>
<path fill="none" stroke="midnightblue" d="M267.479,-116.878C290.234,-107.644 325.624,-93.283 351.239,-82.8887"/>
<polygon fill="midnightblue" stroke="midnightblue" points="352.58,-86.1215 360.53,-79.1181 349.948,-79.6352 352.58,-86.1215"/>
</g>
<!-- Node11 -->
<g id="node11" class="node"><title>Node11</title>
<polygon fill="none" stroke="#bfbfbf" points="358.879,-1 358.879,-21 407.121,-21 407.121,-1 358.879,-1"/>
<text text-anchor="middle" x="383" y="-7" font-family="Helvetica,sans-Serif" font-size="10.00">stdint.h</text>
</g>
<!-- Node10&#45;&gt;Node11 -->
<g id="edge10" class="edge"><title>Node10&#45;&gt;Node11</title>
<path fill="none" stroke="midnightblue" d="M383,-58.7527C383,-51.2504 383,-40.4238 383,-31.0781"/>
<polygon fill="midnightblue" stroke="midnightblue" points="386.5,-31.0752 383,-21.0752 379.5,-31.0752 386.5,-31.0752"/>
</g>
</g>
</svg>
