<?xml version="1.0" encoding="UTF-8" standalone="no"?>
<!DOCTYPE svg PUBLIC "-//W3C//DTD SVG 1.1//EN"
 "http://www.w3.org/Graphics/SVG/1.1/DTD/svg11.dtd">
<!-- Generated by graphviz version 2.34.0 (20130907.0228)
 -->
<!-- Title: /Users/tgil/git/CoActionOS/CoActionOS&#45;Applib/include/Pblock.hpp Pages: 1 -->
<svg width="1020pt" height="136pt"
 viewBox="0.00 0.00 1020.00 136.00" xmlns="http://www.w3.org/2000/svg" xmlns:xlink="http://www.w3.org/1999/xlink">
<g id="graph0" class="graph" transform="scale(1 1) rotate(0) translate(4 132)">
<title>/Users/tgil/git/CoActionOS/CoActionOS&#45;Applib/include/Pblock.hpp</title>
<!-- Node1 -->
<g id="node1" class="node"><title>Node1</title>
<polygon fill="#bfbfbf" stroke="black" points="429.077,-83 429.077,-127 582.923,-127 582.923,-83 429.077,-83"/>
<text text-anchor="start" x="437.077" y="-113" font-family="Helvetica,sans-Serif" font-size="10.00">/Users/tgil/git/CoAction</text>
<text text-anchor="start" x="437.077" y="-101" font-family="Helvetica,sans-Serif" font-size="10.00">OS/CoActionOS&#45;Applib/include</text>
<text text-anchor="middle" x="506" y="-89" font-family="Helvetica,sans-Serif" font-size="10.00">/Pblock.hpp</text>
</g>
<!-- Node2 -->
<g id="node2" class="node"><title>Node2</title>
<g id="a_node2"><a xlink:href="_adc_8hpp.html" target="_top" xlink:title="/Users/tgil/git/CoAction\lOS/CoActionOS&#45;Applib/include\l/Adc.hpp">
<polygon fill="none" stroke="black" points="-0.92334,-1 -0.92334,-45 152.923,-45 152.923,-1 -0.92334,-1"/>
<text text-anchor="start" x="7.07666" y="-31" font-family="Helvetica,sans-Serif" font-size="10.00">/Users/tgil/git/CoAction</text>
<text text-anchor="start" x="7.07666" y="-19" font-family="Helvetica,sans-Serif" font-size="10.00">OS/CoActionOS&#45;Applib/include</text>
<text text-anchor="middle" x="76" y="-7" font-family="Helvetica,sans-Serif" font-size="10.00">/Adc.hpp</text>
</a>
</g>
</g>
<!-- Node1&#45;&gt;Node2 -->
<g id="edge1" class="edge"><title>Node1&#45;&gt;Node2</title>
<path fill="none" stroke="midnightblue" d="M418.734,-91.3446C348.971,-80.7332 248.827,-64.3921 162,-46 159.135,-45.3932 156.222,-44.7553 153.284,-44.0942"/>
<polygon fill="midnightblue" stroke="midnightblue" points="418.39,-94.8323 428.801,-92.8682 419.437,-87.9111 418.39,-94.8323"/>
</g>
<!-- Node3 -->
<g id="node3" class="node"><title>Node3</title>
<g id="a_node3"><a xlink:href="_dac_8hpp.html" target="_top" xlink:title="/Users/tgil/git/CoAction\lOS/CoActionOS&#45;Applib/include\l/Dac.hpp">
<polygon fill="none" stroke="black" points="171.077,-1 171.077,-45 324.923,-45 324.923,-1 171.077,-1"/>
<text text-anchor="start" x="179.077" y="-31" font-family="Helvetica,sans-Serif" font-size="10.00">/Users/tgil/git/CoAction</text>
<text text-anchor="start" x="179.077" y="-19" font-family="Helvetica,sans-Serif" font-size="10.00">OS/CoActionOS&#45;Applib/include</text>
<text text-anchor="middle" x="248" y="-7" font-family="Helvetica,sans-Serif" font-size="10.00">/Dac.hpp</text>
</a>
</g>
</g>
<!-- Node1&#45;&gt;Node3 -->
<g id="edge2" class="edge"><title>Node1&#45;&gt;Node3</title>
<path fill="none" stroke="midnightblue" d="M428.285,-79.9023C392.449,-68.7905 350.307,-55.7231 315.781,-45.0174"/>
<polygon fill="midnightblue" stroke="midnightblue" points="427.626,-83.3622 438.214,-82.9809 429.699,-76.6762 427.626,-83.3622"/>
</g>
<!-- Node4 -->
<g id="node4" class="node"><title>Node4</title>
<g id="a_node4"><a xlink:href="_eint_8hpp.html" target="_top" xlink:title="/Users/tgil/git/CoAction\lOS/CoActionOS&#45;Applib/include\l/Eint.hpp">
<polygon fill="none" stroke="black" points="343.077,-1 343.077,-45 496.923,-45 496.923,-1 343.077,-1"/>
<text text-anchor="start" x="351.077" y="-31" font-family="Helvetica,sans-Serif" font-size="10.00">/Users/tgil/git/CoAction</text>
<text text-anchor="start" x="351.077" y="-19" font-family="Helvetica,sans-Serif" font-size="10.00">OS/CoActionOS&#45;Applib/include</text>
<text text-anchor="middle" x="420" y="-7" font-family="Helvetica,sans-Serif" font-size="10.00">/Eint.hpp</text>
</a>
</g>
</g>
<!-- Node1&#45;&gt;Node4 -->
<g id="edge3" class="edge"><title>Node1&#45;&gt;Node4</title>
<path fill="none" stroke="midnightblue" d="M476.072,-76.1598C465.135,-65.9862 452.952,-54.653 442.743,-45.1564"/>
<polygon fill="midnightblue" stroke="midnightblue" points="473.699,-78.7325 483.405,-82.9809 478.466,-73.6072 473.699,-78.7325"/>
</g>
<!-- Node5 -->
<g id="node5" class="node"><title>Node5</title>
<g id="a_node5"><a xlink:href="_i2c_8hpp.html" target="_top" xlink:title="/Users/tgil/git/CoAction\lOS/CoActionOS&#45;Applib/include\l/I2c.hpp">
<polygon fill="none" stroke="black" points="515.077,-1 515.077,-45 668.923,-45 668.923,-1 515.077,-1"/>
<text text-anchor="start" x="523.077" y="-31" font-family="Helvetica,sans-Serif" font-size="10.00">/Users/tgil/git/CoAction</text>
<text text-anchor="start" x="523.077" y="-19" font-family="Helvetica,sans-Serif" font-size="10.00">OS/CoActionOS&#45;Applib/include</text>
<text text-anchor="middle" x="592" y="-7" font-family="Helvetica,sans-Serif" font-size="10.00">/I2c.hpp</text>
</a>
</g>
</g>
<!-- Node1&#45;&gt;Node5 -->
<g id="edge4" class="edge"><title>Node1&#45;&gt;Node5</title>
<path fill="none" stroke="midnightblue" d="M535.928,-76.1598C546.865,-65.9862 559.048,-54.653 569.257,-45.1564"/>
<polygon fill="midnightblue" stroke="midnightblue" points="533.534,-73.6072 528.595,-82.9809 538.301,-78.7325 533.534,-73.6072"/>
</g>
<!-- Node6 -->
<g id="node6" class="node"><title>Node6</title>
<g id="a_node6"><a xlink:href="_pwm_8hpp.html" target="_top" xlink:title="/Users/tgil/git/CoAction\lOS/CoActionOS&#45;Applib/include\l/Pwm.hpp">
<polygon fill="none" stroke="black" points="687.077,-1 687.077,-45 840.923,-45 840.923,-1 687.077,-1"/>
<text text-anchor="start" x="695.077" y="-31" font-family="Helvetica,sans-Serif" font-size="10.00">/Users/tgil/git/CoAction</text>
<text text-anchor="start" x="695.077" y="-19" font-family="Helvetica,sans-Serif" font-size="10.00">OS/CoActionOS&#45;Applib/include</text>
<text text-anchor="middle" x="764" y="-7" font-family="Helvetica,sans-Serif" font-size="10.00">/Pwm.hpp</text>
</a>
</g>
</g>
<!-- Node1&#45;&gt;Node6 -->
<g id="edge5" class="edge"><title>Node1&#45;&gt;Node6</title>
<path fill="none" stroke="midnightblue" d="M583.715,-79.9023C619.551,-68.7905 661.693,-55.7231 696.219,-45.0174"/>
<polygon fill="midnightblue" stroke="midnightblue" points="582.301,-76.6762 573.786,-82.9809 584.374,-83.3622 582.301,-76.6762"/>
</g>
<!-- Node7 -->
<g id="node7" class="node"><title>Node7</title>
<g id="a_node7"><a xlink:href="_usb_8hpp.html" target="_top" xlink:title="/Users/tgil/git/CoAction\lOS/CoActionOS&#45;Applib/include\l/Usb.hpp">
<polygon fill="none" stroke="black" points="859.077,-1 859.077,-45 1012.92,-45 1012.92,-1 859.077,-1"/>
<text text-anchor="start" x="867.077" y="-31" font-family="Helvetica,sans-Serif" font-size="10.00">/Users/tgil/git/CoAction</text>
<text text-anchor="start" x="867.077" y="-19" font-family="Helvetica,sans-Serif" font-size="10.00">OS/CoActionOS&#45;Applib/include</text>
<text text-anchor="middle" x="936" y="-7" font-family="Helvetica,sans-Serif" font-size="10.00">/Usb.hpp</text>
</a>
</g>
</g>
<!-- Node1&#45;&gt;Node7 -->
<g id="edge6" class="edge"><title>Node1&#45;&gt;Node7</title>
<path fill="none" stroke="midnightblue" d="M592.997,-91.2618C662.549,-80.6041 762.397,-64.2413 849,-46 852.201,-45.3257 855.463,-44.6139 858.754,-43.8755"/>
<polygon fill="midnightblue" stroke="midnightblue" points="592.319,-87.8248 582.961,-92.7924 593.374,-94.7448 592.319,-87.8248"/>
</g>
</g>
</svg>
