<?xml version="1.0" encoding="UTF-8" standalone="no"?>
<!DOCTYPE svg PUBLIC "-//W3C//DTD SVG 1.1//EN"
 "http://www.w3.org/Graphics/SVG/1.1/DTD/svg11.dtd">
<!-- Generated by graphviz version 2.34.0 (20130907.0228)
 -->
<!-- Title: /Users/tgil/git/CoActionOS/CoActionOS&#45;Applib/include/Pchar.hpp Pages: 1 -->
<svg width="1574pt" height="382pt"
 viewBox="0.00 0.00 1574.00 382.00" xmlns="http://www.w3.org/2000/svg" xmlns:xlink="http://www.w3.org/1999/xlink">
<g id="graph0" class="graph" transform="scale(1 1) rotate(0) translate(4 378)">
<title>/Users/tgil/git/CoActionOS/CoActionOS&#45;Applib/include/Pchar.hpp</title>
<!-- Node1 -->
<g id="node1" class="node"><title>Node1</title>
<polygon fill="#bfbfbf" stroke="black" points="811.077,-329 811.077,-373 964.923,-373 964.923,-329 811.077,-329"/>
<text text-anchor="start" x="819.077" y="-359" font-family="Helvetica,sans-Serif" font-size="10.00">/Users/tgil/git/CoAction</text>
<text text-anchor="start" x="819.077" y="-347" font-family="Helvetica,sans-Serif" font-size="10.00">OS/CoActionOS&#45;Applib/include</text>
<text text-anchor="middle" x="888" y="-335" font-family="Helvetica,sans-Serif" font-size="10.00">/Pchar.hpp</text>
</g>
<!-- Node2 -->
<g id="node2" class="node"><title>Node2</title>
<g id="a_node2"><a xlink:href="_uart_8hpp.html" target="_top" xlink:title="/Users/tgil/git/CoAction\lOS/CoActionOS&#45;Applib/include\l/Uart.hpp">
<polygon fill="none" stroke="black" points="156.077,-247 156.077,-291 309.923,-291 309.923,-247 156.077,-247"/>
<text text-anchor="start" x="164.077" y="-277" font-family="Helvetica,sans-Serif" font-size="10.00">/Users/tgil/git/CoAction</text>
<text text-anchor="start" x="164.077" y="-265" font-family="Helvetica,sans-Serif" font-size="10.00">OS/CoActionOS&#45;Applib/include</text>
<text text-anchor="middle" x="233" y="-253" font-family="Helvetica,sans-Serif" font-size="10.00">/Uart.hpp</text>
</a>
</g>
</g>
<!-- Node1&#45;&gt;Node2 -->
<g id="edge1" class="edge"><title>Node1&#45;&gt;Node2</title>
<path fill="none" stroke="midnightblue" d="M800.923,-341.421C698.223,-331.023 522.432,-312.349 372,-292 351.904,-289.282 330.228,-286.013 310.108,-282.838"/>
<polygon fill="midnightblue" stroke="midnightblue" points="800.635,-344.909 810.936,-342.432 801.338,-337.945 800.635,-344.909"/>
</g>
<!-- Node7 -->
<g id="node7" class="node"><title>Node7</title>
<g id="a_node7"><a xlink:href="_core_8hpp.html" target="_top" xlink:title="/Users/tgil/git/CoAction\lOS/CoActionOS&#45;Applib/include\l/Core.hpp">
<polygon fill="none" stroke="black" points="381.077,-247 381.077,-291 534.923,-291 534.923,-247 381.077,-247"/>
<text text-anchor="start" x="389.077" y="-277" font-family="Helvetica,sans-Serif" font-size="10.00">/Users/tgil/git/CoAction</text>
<text text-anchor="start" x="389.077" y="-265" font-family="Helvetica,sans-Serif" font-size="10.00">OS/CoActionOS&#45;Applib/include</text>
<text text-anchor="middle" x="458" y="-253" font-family="Helvetica,sans-Serif" font-size="10.00">/Core.hpp</text>
</a>
</g>
</g>
<!-- Node1&#45;&gt;Node7 -->
<g id="edge6" class="edge"><title>Node1&#45;&gt;Node7</title>
<path fill="none" stroke="midnightblue" d="M800.734,-337.345C730.971,-326.733 630.827,-310.392 544,-292 541.135,-291.393 538.222,-290.755 535.284,-290.094"/>
<polygon fill="midnightblue" stroke="midnightblue" points="800.39,-340.832 810.801,-338.868 801.437,-333.911 800.39,-340.832"/>
</g>
<!-- Node8 -->
<g id="node8" class="node"><title>Node8</title>
<g id="a_node8"><a xlink:href="_dbug_8hpp.html" target="_top" xlink:title="/Users/tgil/git/CoAction\lOS/CoActionOS&#45;Applib/include\l/Dbug.hpp">
<polygon fill="none" stroke="black" points="553.077,-247 553.077,-291 706.923,-291 706.923,-247 553.077,-247"/>
<text text-anchor="start" x="561.077" y="-277" font-family="Helvetica,sans-Serif" font-size="10.00">/Users/tgil/git/CoAction</text>
<text text-anchor="start" x="561.077" y="-265" font-family="Helvetica,sans-Serif" font-size="10.00">OS/CoActionOS&#45;Applib/include</text>
<text text-anchor="middle" x="630" y="-253" font-family="Helvetica,sans-Serif" font-size="10.00">/Dbug.hpp</text>
</a>
</g>
</g>
<!-- Node1&#45;&gt;Node8 -->
<g id="edge7" class="edge"><title>Node1&#45;&gt;Node8</title>
<path fill="none" stroke="midnightblue" d="M810.285,-325.902C774.449,-314.791 732.307,-301.723 697.781,-291.017"/>
<polygon fill="midnightblue" stroke="midnightblue" points="809.626,-329.362 820.214,-328.981 811.699,-322.676 809.626,-329.362"/>
</g>
<!-- Node11 -->
<g id="node11" class="node"><title>Node11</title>
<g id="a_node11"><a xlink:href="_pio_8hpp.html" target="_top" xlink:title="/Users/tgil/git/CoAction\lOS/CoActionOS&#45;Applib/include\l/Pio.hpp">
<polygon fill="none" stroke="black" points="725.077,-247 725.077,-291 878.923,-291 878.923,-247 725.077,-247"/>
<text text-anchor="start" x="733.077" y="-277" font-family="Helvetica,sans-Serif" font-size="10.00">/Users/tgil/git/CoAction</text>
<text text-anchor="start" x="733.077" y="-265" font-family="Helvetica,sans-Serif" font-size="10.00">OS/CoActionOS&#45;Applib/include</text>
<text text-anchor="middle" x="802" y="-253" font-family="Helvetica,sans-Serif" font-size="10.00">/Pio.hpp</text>
</a>
</g>
</g>
<!-- Node1&#45;&gt;Node11 -->
<g id="edge11" class="edge"><title>Node1&#45;&gt;Node11</title>
<path fill="none" stroke="midnightblue" d="M858.072,-322.16C847.135,-311.986 834.952,-300.653 824.743,-291.156"/>
<polygon fill="midnightblue" stroke="midnightblue" points="855.699,-324.733 865.405,-328.981 860.466,-319.607 855.699,-324.733"/>
</g>
<!-- Node15 -->
<g id="node15" class="node"><title>Node15</title>
<g id="a_node15"><a xlink:href="_spi_8hpp.html" target="_top" xlink:title="/Users/tgil/git/CoAction\lOS/CoActionOS&#45;Applib/include\l/Spi.hpp">
<polygon fill="none" stroke="black" points="897.077,-247 897.077,-291 1050.92,-291 1050.92,-247 897.077,-247"/>
<text text-anchor="start" x="905.077" y="-277" font-family="Helvetica,sans-Serif" font-size="10.00">/Users/tgil/git/CoAction</text>
<text text-anchor="start" x="905.077" y="-265" font-family="Helvetica,sans-Serif" font-size="10.00">OS/CoActionOS&#45;Applib/include</text>
<text text-anchor="middle" x="974" y="-253" font-family="Helvetica,sans-Serif" font-size="10.00">/Spi.hpp</text>
</a>
</g>
</g>
<!-- Node1&#45;&gt;Node15 -->
<g id="edge16" class="edge"><title>Node1&#45;&gt;Node15</title>
<path fill="none" stroke="midnightblue" d="M917.928,-322.16C928.865,-311.986 941.048,-300.653 951.257,-291.156"/>
<polygon fill="midnightblue" stroke="midnightblue" points="915.534,-319.607 910.595,-328.981 920.301,-324.733 915.534,-319.607"/>
</g>
<!-- Node16 -->
<g id="node16" class="node"><title>Node16</title>
<g id="a_node16"><a xlink:href="_gpio_8hpp_source.html" target="_top" xlink:title="/Users/tgil/git/CoAction\lOS/CoActionOS&#45;Applib/include\l/Gpio.hpp">
<polygon fill="none" stroke="black" points="1069.08,-247 1069.08,-291 1222.92,-291 1222.92,-247 1069.08,-247"/>
<text text-anchor="start" x="1077.08" y="-277" font-family="Helvetica,sans-Serif" font-size="10.00">/Users/tgil/git/CoAction</text>
<text text-anchor="start" x="1077.08" y="-265" font-family="Helvetica,sans-Serif" font-size="10.00">OS/CoActionOS&#45;Applib/include</text>
<text text-anchor="middle" x="1146" y="-253" font-family="Helvetica,sans-Serif" font-size="10.00">/Gpio.hpp</text>
</a>
</g>
</g>
<!-- Node1&#45;&gt;Node16 -->
<g id="edge18" class="edge"><title>Node1&#45;&gt;Node16</title>
<path fill="none" stroke="midnightblue" d="M965.715,-325.902C1001.55,-314.791 1043.69,-301.723 1078.22,-291.017"/>
<polygon fill="midnightblue" stroke="midnightblue" points="964.301,-322.676 955.786,-328.981 966.374,-329.362 964.301,-322.676"/>
</g>
<!-- Node17 -->
<g id="node17" class="node"><title>Node17</title>
<g id="a_node17"><a xlink:href="_rtc_8hpp.html" target="_top" xlink:title="/Users/tgil/git/CoAction\lOS/CoActionOS&#45;Applib/include\l/Rtc.hpp">
<polygon fill="none" stroke="black" points="1241.08,-247 1241.08,-291 1394.92,-291 1394.92,-247 1241.08,-247"/>
<text text-anchor="start" x="1249.08" y="-277" font-family="Helvetica,sans-Serif" font-size="10.00">/Users/tgil/git/CoAction</text>
<text text-anchor="start" x="1249.08" y="-265" font-family="Helvetica,sans-Serif" font-size="10.00">OS/CoActionOS&#45;Applib/include</text>
<text text-anchor="middle" x="1318" y="-253" font-family="Helvetica,sans-Serif" font-size="10.00">/Rtc.hpp</text>
</a>
</g>
</g>
<!-- Node1&#45;&gt;Node17 -->
<g id="edge19" class="edge"><title>Node1&#45;&gt;Node17</title>
<path fill="none" stroke="midnightblue" d="M974.997,-337.262C1044.55,-326.604 1144.4,-310.241 1231,-292 1234.2,-291.326 1237.46,-290.614 1240.75,-289.875"/>
<polygon fill="midnightblue" stroke="midnightblue" points="974.319,-333.825 964.961,-338.792 975.374,-340.745 974.319,-333.825"/>
</g>
<!-- Node18 -->
<g id="node18" class="node"><title>Node18</title>
<g id="a_node18"><a xlink:href="_tmr_8hpp.html" target="_top" xlink:title="/Users/tgil/git/CoAction\lOS/CoActionOS&#45;Applib/include\l/Tmr.hpp">
<polygon fill="none" stroke="black" points="1413.08,-247 1413.08,-291 1566.92,-291 1566.92,-247 1413.08,-247"/>
<text text-anchor="start" x="1421.08" y="-277" font-family="Helvetica,sans-Serif" font-size="10.00">/Users/tgil/git/CoAction</text>
<text text-anchor="start" x="1421.08" y="-265" font-family="Helvetica,sans-Serif" font-size="10.00">OS/CoActionOS&#45;Applib/include</text>
<text text-anchor="middle" x="1490" y="-253" font-family="Helvetica,sans-Serif" font-size="10.00">/Tmr.hpp</text>
</a>
</g>
</g>
<!-- Node1&#45;&gt;Node18 -->
<g id="edge20" class="edge"><title>Node1&#45;&gt;Node18</title>
<path fill="none" stroke="midnightblue" d="M975.286,-343.797C1078.14,-335.652 1253.93,-319.112 1403,-292 1406.22,-291.415 1409.5,-290.777 1412.8,-290.1"/>
<polygon fill="midnightblue" stroke="midnightblue" points="974.953,-340.312 965.257,-344.583 975.5,-347.291 974.953,-340.312"/>
</g>
<!-- Node3 -->
<g id="node3" class="node"><title>Node3</title>
<g id="a_node3"><a xlink:href="_brsp_8hpp.html" target="_top" xlink:title="/Users/tgil/git/CoAction\lOS/CoActionOS&#45;Applib/include\l/Brsp.hpp">
<polygon fill="none" stroke="black" points="-0.92334,-165 -0.92334,-209 152.923,-209 152.923,-165 -0.92334,-165"/>
<text text-anchor="start" x="7.07666" y="-195" font-family="Helvetica,sans-Serif" font-size="10.00">/Users/tgil/git/CoAction</text>
<text text-anchor="start" x="7.07666" y="-183" font-family="Helvetica,sans-Serif" font-size="10.00">OS/CoActionOS&#45;Applib/include</text>
<text text-anchor="middle" x="76" y="-171" font-family="Helvetica,sans-Serif" font-size="10.00">/Brsp.hpp</text>
</a>
</g>
</g>
<!-- Node2&#45;&gt;Node3 -->
<g id="edge2" class="edge"><title>Node2&#45;&gt;Node3</title>
<path fill="none" stroke="midnightblue" d="M182.608,-242.323C161.501,-231.567 137.269,-219.22 117.247,-209.017"/>
<polygon fill="midnightblue" stroke="midnightblue" points="181.251,-245.559 191.75,-246.981 184.429,-239.322 181.251,-245.559"/>
</g>
<!-- Node4 -->
<g id="node4" class="node"><title>Node4</title>
<g id="a_node4"><a xlink:href="_dbug_uart_8hpp.html" target="_top" xlink:title="/Users/tgil/git/CoAction\lOS/CoActionOS&#45;Applib/include\l/DbugUart.hpp">
<polygon fill="none" stroke="black" points="209.077,-165 209.077,-209 362.923,-209 362.923,-165 209.077,-165"/>
<text text-anchor="start" x="217.077" y="-195" font-family="Helvetica,sans-Serif" font-size="10.00">/Users/tgil/git/CoAction</text>
<text text-anchor="start" x="217.077" y="-183" font-family="Helvetica,sans-Serif" font-size="10.00">OS/CoActionOS&#45;Applib/include</text>
<text text-anchor="middle" x="286" y="-171" font-family="Helvetica,sans-Serif" font-size="10.00">/DbugUart.hpp</text>
</a>
</g>
</g>
<!-- Node2&#45;&gt;Node4 -->
<g id="edge3" class="edge"><title>Node2&#45;&gt;Node4</title>
<path fill="none" stroke="midnightblue" d="M252.618,-238.388C259.046,-228.685 266.055,-218.105 271.984,-209.156"/>
<polygon fill="midnightblue" stroke="midnightblue" points="249.53,-236.711 246.925,-246.981 255.366,-240.577 249.53,-236.711"/>
</g>
<!-- Node5 -->
<g id="node5" class="node"><title>Node5</title>
<g id="a_node5"><a xlink:href="_lpc_phy_8hpp_source.html" target="_top" xlink:title="/Users/tgil/git/CoAction\lOS/CoActionOS&#45;Applib/include\l/LpcPhy.hpp">
<polygon fill="none" stroke="black" points="415.077,-83 415.077,-127 568.923,-127 568.923,-83 415.077,-83"/>
<text text-anchor="start" x="423.077" y="-113" font-family="Helvetica,sans-Serif" font-size="10.00">/Users/tgil/git/CoAction</text>
<text text-anchor="start" x="423.077" y="-101" font-family="Helvetica,sans-Serif" font-size="10.00">OS/CoActionOS&#45;Applib/include</text>
<text text-anchor="middle" x="492" y="-89" font-family="Helvetica,sans-Serif" font-size="10.00">/LpcPhy.hpp</text>
</a>
</g>
</g>
<!-- Node2&#45;&gt;Node5 -->
<g id="edge4" class="edge"><title>Node2&#45;&gt;Node5</title>
<path fill="none" stroke="midnightblue" d="M209.873,-238.17C195.435,-215.683 182.599,-185.198 200,-164 226.727,-131.442 337.799,-116.831 414.972,-110.512"/>
<polygon fill="midnightblue" stroke="midnightblue" points="207.126,-240.356 215.64,-246.662 212.917,-236.423 207.126,-240.356"/>
</g>
<!-- Node6 -->
<g id="node6" class="node"><title>Node6</title>
<g id="a_node6"><a xlink:href="_lpc_isp_8hpp_source.html" target="_top" xlink:title="/Users/tgil/git/CoAction\lOS/CoActionOS&#45;Applib/include\l/LpcIsp.hpp">
<polygon fill="none" stroke="black" points="415.077,-1 415.077,-45 568.923,-45 568.923,-1 415.077,-1"/>
<text text-anchor="start" x="423.077" y="-31" font-family="Helvetica,sans-Serif" font-size="10.00">/Users/tgil/git/CoAction</text>
<text text-anchor="start" x="423.077" y="-19" font-family="Helvetica,sans-Serif" font-size="10.00">OS/CoActionOS&#45;Applib/include</text>
<text text-anchor="middle" x="492" y="-7" font-family="Helvetica,sans-Serif" font-size="10.00">/LpcIsp.hpp</text>
</a>
</g>
</g>
<!-- Node5&#45;&gt;Node6 -->
<g id="edge5" class="edge"><title>Node5&#45;&gt;Node6</title>
<path fill="none" stroke="midnightblue" d="M492,-72.8963C492,-63.6094 492,-53.6485 492,-45.1564"/>
<polygon fill="midnightblue" stroke="midnightblue" points="488.5,-72.9809 492,-82.9809 495.5,-72.981 488.5,-72.9809"/>
</g>
<!-- Node8&#45;&gt;Node4 -->
<g id="edge10" class="edge"><title>Node8&#45;&gt;Node4</title>
<path fill="none" stroke="midnightblue" d="M542.535,-245.942C465.627,-228.378 444.537,-226.905 372,-210 369.148,-209.335 366.246,-208.648 363.317,-207.946"/>
<polygon fill="midnightblue" stroke="midnightblue" points="542.188,-249.453 552.718,-248.286 543.758,-242.632 542.188,-249.453"/>
</g>
<!-- Node9 -->
<g id="node9" class="node"><title>Node9</title>
<g id="a_node9"><a xlink:href="_dbug_null_8hpp.html" target="_top" xlink:title="/Users/tgil/git/CoAction\lOS/CoActionOS&#45;Applib/include\l/DbugNull.hpp">
<polygon fill="none" stroke="black" points="381.077,-165 381.077,-209 534.923,-209 534.923,-165 381.077,-165"/>
<text text-anchor="start" x="389.077" y="-195" font-family="Helvetica,sans-Serif" font-size="10.00">/Users/tgil/git/CoAction</text>
<text text-anchor="start" x="389.077" y="-183" font-family="Helvetica,sans-Serif" font-size="10.00">OS/CoActionOS&#45;Applib/include</text>
<text text-anchor="middle" x="458" y="-171" font-family="Helvetica,sans-Serif" font-size="10.00">/DbugNull.hpp</text>
</a>
</g>
</g>
<!-- Node8&#45;&gt;Node9 -->
<g id="edge8" class="edge"><title>Node8&#45;&gt;Node9</title>
<path fill="none" stroke="midnightblue" d="M575.725,-242.756C552.385,-231.9 525.418,-219.357 503.187,-209.017"/>
<polygon fill="midnightblue" stroke="midnightblue" points="574.266,-245.937 584.809,-246.981 577.218,-239.59 574.266,-245.937"/>
</g>
<!-- Node10 -->
<g id="node10" class="node"><title>Node10</title>
<g id="a_node10"><a xlink:href="_dbug_stdout_8hpp.html" target="_top" xlink:title="/Users/tgil/git/CoAction\lOS/CoActionOS&#45;Applib/include\l/DbugStdout.hpp">
<polygon fill="none" stroke="black" points="553.077,-165 553.077,-209 706.923,-209 706.923,-165 553.077,-165"/>
<text text-anchor="start" x="561.077" y="-195" font-family="Helvetica,sans-Serif" font-size="10.00">/Users/tgil/git/CoAction</text>
<text text-anchor="start" x="561.077" y="-183" font-family="Helvetica,sans-Serif" font-size="10.00">OS/CoActionOS&#45;Applib/include</text>
<text text-anchor="middle" x="630" y="-171" font-family="Helvetica,sans-Serif" font-size="10.00">/DbugStdout.hpp</text>
</a>
</g>
</g>
<!-- Node8&#45;&gt;Node10 -->
<g id="edge9" class="edge"><title>Node8&#45;&gt;Node10</title>
<path fill="none" stroke="midnightblue" d="M630,-236.896C630,-227.609 630,-217.649 630,-209.156"/>
<polygon fill="midnightblue" stroke="midnightblue" points="626.5,-236.981 630,-246.981 633.5,-236.981 626.5,-236.981"/>
</g>
<!-- Node12 -->
<g id="node12" class="node"><title>Node12</title>
<g id="a_node12"><a xlink:href="_nhdc12832_8hpp_source.html" target="_top" xlink:title="/Users/tgil/git/CoAction\lOS/CoActionOS&#45;Applib/include\l/Nhdc12832.hpp">
<polygon fill="none" stroke="black" points="897.077,-165 897.077,-209 1050.92,-209 1050.92,-165 897.077,-165"/>
<text text-anchor="start" x="905.077" y="-195" font-family="Helvetica,sans-Serif" font-size="10.00">/Users/tgil/git/CoAction</text>
<text text-anchor="start" x="905.077" y="-183" font-family="Helvetica,sans-Serif" font-size="10.00">OS/CoActionOS&#45;Applib/include</text>
<text text-anchor="middle" x="974" y="-171" font-family="Helvetica,sans-Serif" font-size="10.00">/Nhdc12832.hpp</text>
</a>
</g>
</g>
<!-- Node11&#45;&gt;Node12 -->
<g id="edge12" class="edge"><title>Node11&#45;&gt;Node12</title>
<path fill="none" stroke="midnightblue" d="M856.275,-242.756C879.615,-231.9 906.582,-219.357 928.813,-209.017"/>
<polygon fill="midnightblue" stroke="midnightblue" points="854.782,-239.59 847.191,-246.981 857.734,-245.937 854.782,-239.59"/>
</g>
<!-- Node14 -->
<g id="node14" class="node"><title>Node14</title>
<g id="a_node14"><a xlink:href="_pin_8hpp.html" target="_top" xlink:title="/Users/tgil/git/CoAction\lOS/CoActionOS&#45;Applib/include\l/Pin.hpp">
<polygon fill="none" stroke="black" points="725.077,-165 725.077,-209 878.923,-209 878.923,-165 725.077,-165"/>
<text text-anchor="start" x="733.077" y="-195" font-family="Helvetica,sans-Serif" font-size="10.00">/Users/tgil/git/CoAction</text>
<text text-anchor="start" x="733.077" y="-183" font-family="Helvetica,sans-Serif" font-size="10.00">OS/CoActionOS&#45;Applib/include</text>
<text text-anchor="middle" x="802" y="-171" font-family="Helvetica,sans-Serif" font-size="10.00">/Pin.hpp</text>
</a>
</g>
</g>
<!-- Node11&#45;&gt;Node14 -->
<g id="edge14" class="edge"><title>Node11&#45;&gt;Node14</title>
<path fill="none" stroke="midnightblue" d="M802,-236.896C802,-227.609 802,-217.649 802,-209.156"/>
<polygon fill="midnightblue" stroke="midnightblue" points="798.5,-236.981 802,-246.981 805.5,-236.981 798.5,-236.981"/>
</g>
<!-- Node13 -->
<g id="node13" class="node"><title>Node13</title>
<g id="a_node13"><a xlink:href="_exp_lcd_device_8hpp.html" target="_top" xlink:title="/Users/tgil/git/CoAction\lOS/CoActionOS&#45;Applib/include\l/ExpLcdDevice.hpp">
<polygon fill="none" stroke="black" points="897.077,-83 897.077,-127 1050.92,-127 1050.92,-83 897.077,-83"/>
<text text-anchor="start" x="905.077" y="-113" font-family="Helvetica,sans-Serif" font-size="10.00">/Users/tgil/git/CoAction</text>
<text text-anchor="start" x="905.077" y="-101" font-family="Helvetica,sans-Serif" font-size="10.00">OS/CoActionOS&#45;Applib/include</text>
<text text-anchor="middle" x="974" y="-89" font-family="Helvetica,sans-Serif" font-size="10.00">/ExpLcdDevice.hpp</text>
</a>
</g>
</g>
<!-- Node12&#45;&gt;Node13 -->
<g id="edge13" class="edge"><title>Node12&#45;&gt;Node13</title>
<path fill="none" stroke="midnightblue" d="M974,-154.896C974,-145.609 974,-135.649 974,-127.156"/>
<polygon fill="midnightblue" stroke="midnightblue" points="970.5,-154.981 974,-164.981 977.5,-154.981 970.5,-154.981"/>
</g>
<!-- Node14&#45;&gt;Node5 -->
<g id="edge15" class="edge"><title>Node14&#45;&gt;Node5</title>
<path fill="none" stroke="midnightblue" d="M715.05,-163.561C669.211,-151.732 613.464,-137.345 569.168,-125.914"/>
<polygon fill="midnightblue" stroke="midnightblue" points="714.415,-167.012 724.972,-166.122 716.164,-160.234 714.415,-167.012"/>
</g>
<!-- Node15&#45;&gt;Node12 -->
<g id="edge17" class="edge"><title>Node15&#45;&gt;Node12</title>
<path fill="none" stroke="midnightblue" d="M974,-236.896C974,-227.609 974,-217.649 974,-209.156"/>
<polygon fill="midnightblue" stroke="midnightblue" points="970.5,-236.981 974,-246.981 977.5,-236.981 970.5,-236.981"/>
</g>
<!-- Node19 -->
<g id="node19" class="node"><title>Node19</title>
<g id="a_node19"><a xlink:href="_timer_8hpp.html" target="_top" xlink:title="/Users/tgil/git/CoAction\lOS/CoActionOS&#45;Applib/include\l/Timer.hpp">
<polygon fill="none" stroke="black" points="1413.08,-165 1413.08,-209 1566.92,-209 1566.92,-165 1413.08,-165"/>
<text text-anchor="start" x="1421.08" y="-195" font-family="Helvetica,sans-Serif" font-size="10.00">/Users/tgil/git/CoAction</text>
<text text-anchor="start" x="1421.08" y="-183" font-family="Helvetica,sans-Serif" font-size="10.00">OS/CoActionOS&#45;Applib/include</text>
<text text-anchor="middle" x="1490" y="-171" font-family="Helvetica,sans-Serif" font-size="10.00">/Timer.hpp</text>
</a>
</g>
</g>
<!-- Node18&#45;&gt;Node19 -->
<g id="edge21" class="edge"><title>Node18&#45;&gt;Node19</title>
<path fill="none" stroke="midnightblue" d="M1490,-236.896C1490,-227.609 1490,-217.649 1490,-209.156"/>
<polygon fill="midnightblue" stroke="midnightblue" points="1486.5,-236.981 1490,-246.981 1493.5,-236.981 1486.5,-236.981"/>
</g>
</g>
</svg>
