<?xml version="1.0" encoding="UTF-8" standalone="no"?>
<!DOCTYPE svg PUBLIC "-//W3C//DTD SVG 1.1//EN"
 "http://www.w3.org/Graphics/SVG/1.1/DTD/svg11.dtd">
<!-- Generated by graphviz version 2.34.0 (20130907.0228)
 -->
<!-- Title: /Users/tgil/git/CoActionOS/CoActionOS&#45;Applib/include/Periph.hpp Pages: 1 -->
<svg width="2448pt" height="464pt"
 viewBox="0.00 0.00 2448.00 464.00" xmlns="http://www.w3.org/2000/svg" xmlns:xlink="http://www.w3.org/1999/xlink">
<g id="graph0" class="graph" transform="scale(1 1) rotate(0) translate(4 460)">
<title>/Users/tgil/git/CoActionOS/CoActionOS&#45;Applib/include/Periph.hpp</title>
<!-- Node1 -->
<g id="node1" class="node"><title>Node1</title>
<polygon fill="#bfbfbf" stroke="black" points="1031.08,-411 1031.08,-455 1184.92,-455 1184.92,-411 1031.08,-411"/>
<text text-anchor="start" x="1039.08" y="-441" font-family="Helvetica,sans-Serif" font-size="10.00">/Users/tgil/git/CoAction</text>
<text text-anchor="start" x="1039.08" y="-429" font-family="Helvetica,sans-Serif" font-size="10.00">OS/CoActionOS&#45;Applib/include</text>
<text text-anchor="middle" x="1108" y="-417" font-family="Helvetica,sans-Serif" font-size="10.00">/Periph.hpp</text>
</g>
<!-- Node2 -->
<g id="node2" class="node"><title>Node2</title>
<g id="a_node2"><a xlink:href="_pblock_8hpp.html" target="_top" target="_top" xlink:title="/Users/tgil/git/CoAction\lOS/CoActionOS&#45;Applib/include\l/Pblock.hpp">
<polygon fill="none" stroke="black" points="515.077,-329 515.077,-373 668.923,-373 668.923,-329 515.077,-329"/>
<text text-anchor="start" x="523.077" y="-359" font-family="Helvetica,sans-Serif" font-size="10.00">/Users/tgil/git/CoAction</text>
<text text-anchor="start" x="523.077" y="-347" font-family="Helvetica,sans-Serif" font-size="10.00">OS/CoActionOS&#45;Applib/include</text>
<text text-anchor="middle" x="592" y="-335" font-family="Helvetica,sans-Serif" font-size="10.00">/Pblock.hpp</text>
</a>
</g>
</g>
<!-- Node1&#45;&gt;Node2 -->
<g id="edge1" class="edge"><title>Node1&#45;&gt;Node2</title>
<path fill="none" stroke="midnightblue" d="M1021.09,-418.526C922.527,-403.244 763.3,-378.558 669.024,-363.942"/>
<polygon fill="midnightblue" stroke="midnightblue" points="1020.61,-421.993 1031.03,-420.066 1021.68,-415.076 1020.61,-421.993"/>
</g>
<!-- Node9 -->
<g id="node9" class="node"><title>Node9</title>
<g id="a_node9"><a xlink:href="_pchar_8hpp.html" target="_top" target="_top" xlink:title="/Users/tgil/git/CoAction\lOS/CoActionOS&#45;Applib/include\l/Pchar.hpp">
<polygon fill="none" stroke="black" points="1547.08,-329 1547.08,-373 1700.92,-373 1700.92,-329 1547.08,-329"/>
<text text-anchor="start" x="1555.08" y="-359" font-family="Helvetica,sans-Serif" font-size="10.00">/Users/tgil/git/CoAction</text>
<text text-anchor="start" x="1555.08" y="-347" font-family="Helvetica,sans-Serif" font-size="10.00">OS/CoActionOS&#45;Applib/include</text>
<text text-anchor="middle" x="1624" y="-335" font-family="Helvetica,sans-Serif" font-size="10.00">/Pchar.hpp</text>
</a>
</g>
</g>
<!-- Node1&#45;&gt;Node9 -->
<g id="edge8" class="edge"><title>Node1&#45;&gt;Node9</title>
<path fill="none" stroke="midnightblue" d="M1194.91,-418.526C1293.47,-403.244 1452.7,-378.558 1546.98,-363.942"/>
<polygon fill="midnightblue" stroke="midnightblue" points="1194.32,-415.076 1184.97,-420.066 1195.39,-421.993 1194.32,-415.076"/>
</g>
<!-- Node3 -->
<g id="node3" class="node"><title>Node3</title>
<g id="a_node3"><a xlink:href="_adc_8hpp.html" target="_top" target="_top" xlink:title="/Users/tgil/git/CoAction\lOS/CoActionOS&#45;Applib/include\l/Adc.hpp">
<polygon fill="none" stroke="black" points="687.077,-247 687.077,-291 840.923,-291 840.923,-247 687.077,-247"/>
<text text-anchor="start" x="695.077" y="-277" font-family="Helvetica,sans-Serif" font-size="10.00">/Users/tgil/git/CoAction</text>
<text text-anchor="start" x="695.077" y="-265" font-family="Helvetica,sans-Serif" font-size="10.00">OS/CoActionOS&#45;Applib/include</text>
<text text-anchor="middle" x="764" y="-253" font-family="Helvetica,sans-Serif" font-size="10.00">/Adc.hpp</text>
</a>
</g>
</g>
<!-- Node2&#45;&gt;Node3 -->
<g id="edge2" class="edge"><title>Node2&#45;&gt;Node3</title>
<path fill="none" stroke="midnightblue" d="M646.275,-324.756C669.615,-313.9 696.582,-301.357 718.813,-291.017"/>
<polygon fill="midnightblue" stroke="midnightblue" points="644.782,-321.59 637.191,-328.981 647.734,-327.937 644.782,-321.59"/>
</g>
<!-- Node4 -->
<g id="node4" class="node"><title>Node4</title>
<g id="a_node4"><a xlink:href="_dac_8hpp.html" target="_top" target="_top" xlink:title="/Users/tgil/git/CoAction\lOS/CoActionOS&#45;Applib/include\l/Dac.hpp">
<polygon fill="none" stroke="black" points="859.077,-247 859.077,-291 1012.92,-291 1012.92,-247 859.077,-247"/>
<text text-anchor="start" x="867.077" y="-277" font-family="Helvetica,sans-Serif" font-size="10.00">/Users/tgil/git/CoAction</text>
<text text-anchor="start" x="867.077" y="-265" font-family="Helvetica,sans-Serif" font-size="10.00">OS/CoActionOS&#45;Applib/include</text>
<text text-anchor="middle" x="936" y="-253" font-family="Helvetica,sans-Serif" font-size="10.00">/Dac.hpp</text>
</a>
</g>
</g>
<!-- Node2&#45;&gt;Node4 -->
<g id="edge3" class="edge"><title>Node2&#45;&gt;Node4</title>
<path fill="none" stroke="midnightblue" d="M678.933,-330.964C728.781,-319.903 792.49,-305.519 849,-292 852.182,-291.239 855.427,-290.454 858.704,-289.656"/>
<polygon fill="midnightblue" stroke="midnightblue" points="678.16,-327.55 669.154,-333.131 679.674,-334.385 678.16,-327.55"/>
</g>
<!-- Node5 -->
<g id="node5" class="node"><title>Node5</title>
<g id="a_node5"><a xlink:href="_eint_8hpp.html" target="_top" target="_top" xlink:title="/Users/tgil/git/CoAction\lOS/CoActionOS&#45;Applib/include\l/Eint.hpp">
<polygon fill="none" stroke="black" points="-0.92334,-247 -0.92334,-291 152.923,-291 152.923,-247 -0.92334,-247"/>
<text text-anchor="start" x="7.07666" y="-277" font-family="Helvetica,sans-Serif" font-size="10.00">/Users/tgil/git/CoAction</text>
<text text-anchor="start" x="7.07666" y="-265" font-family="Helvetica,sans-Serif" font-size="10.00">OS/CoActionOS&#45;Applib/include</text>
<text text-anchor="middle" x="76" y="-253" font-family="Helvetica,sans-Serif" font-size="10.00">/Eint.hpp</text>
</a>
</g>
</g>
<!-- Node2&#45;&gt;Node5 -->
<g id="edge4" class="edge"><title>Node2&#45;&gt;Node5</title>
<path fill="none" stroke="midnightblue" d="M504.934,-341.264C417.725,-331.81 279.889,-314.949 162,-292 159.126,-291.44 156.205,-290.843 153.259,-290.216"/>
<polygon fill="midnightblue" stroke="midnightblue" points="504.733,-344.763 515.05,-342.352 505.482,-337.803 504.733,-344.763"/>
</g>
<!-- Node6 -->
<g id="node6" class="node"><title>Node6</title>
<g id="a_node6"><a xlink:href="_i2c_8hpp.html" target="_top" target="_top" xlink:title="/Users/tgil/git/CoAction\lOS/CoActionOS&#45;Applib/include\l/I2c.hpp">
<polygon fill="none" stroke="black" points="171.077,-247 171.077,-291 324.923,-291 324.923,-247 171.077,-247"/>
<text text-anchor="start" x="179.077" y="-277" font-family="Helvetica,sans-Serif" font-size="10.00">/Users/tgil/git/CoAction</text>
<text text-anchor="start" x="179.077" y="-265" font-family="Helvetica,sans-Serif" font-size="10.00">OS/CoActionOS&#45;Applib/include</text>
<text text-anchor="middle" x="248" y="-253" font-family="Helvetica,sans-Serif" font-size="10.00">/I2c.hpp</text>
</a>
</g>
</g>
<!-- Node2&#45;&gt;Node6 -->
<g id="edge5" class="edge"><title>Node2&#45;&gt;Node6</title>
<path fill="none" stroke="midnightblue" d="M504.988,-331.105C454.898,-320.061 390.81,-305.649 334,-292 331.153,-291.316 328.255,-290.612 325.329,-289.896"/>
<polygon fill="midnightblue" stroke="midnightblue" points="504.294,-334.536 514.813,-333.268 505.799,-327.7 504.294,-334.536"/>
</g>
<!-- Node7 -->
<g id="node7" class="node"><title>Node7</title>
<g id="a_node7"><a xlink:href="_pwm_8hpp.html" target="_top" target="_top" xlink:title="/Users/tgil/git/CoAction\lOS/CoActionOS&#45;Applib/include\l/Pwm.hpp">
<polygon fill="none" stroke="black" points="343.077,-247 343.077,-291 496.923,-291 496.923,-247 343.077,-247"/>
<text text-anchor="start" x="351.077" y="-277" font-family="Helvetica,sans-Serif" font-size="10.00">/Users/tgil/git/CoAction</text>
<text text-anchor="start" x="351.077" y="-265" font-family="Helvetica,sans-Serif" font-size="10.00">OS/CoActionOS&#45;Applib/include</text>
<text text-anchor="middle" x="420" y="-253" font-family="Helvetica,sans-Serif" font-size="10.00">/Pwm.hpp</text>
</a>
</g>
</g>
<!-- Node2&#45;&gt;Node7 -->
<g id="edge6" class="edge"><title>Node2&#45;&gt;Node7</title>
<path fill="none" stroke="midnightblue" d="M537.725,-324.756C514.385,-313.9 487.418,-301.357 465.187,-291.017"/>
<polygon fill="midnightblue" stroke="midnightblue" points="536.266,-327.937 546.809,-328.981 539.218,-321.59 536.266,-327.937"/>
</g>
<!-- Node8 -->
<g id="node8" class="node"><title>Node8</title>
<g id="a_node8"><a xlink:href="_usb_8hpp.html" target="_top" target="_top" xlink:title="/Users/tgil/git/CoAction\lOS/CoActionOS&#45;Applib/include\l/Usb.hpp">
<polygon fill="none" stroke="black" points="515.077,-247 515.077,-291 668.923,-291 668.923,-247 515.077,-247"/>
<text text-anchor="start" x="523.077" y="-277" font-family="Helvetica,sans-Serif" font-size="10.00">/Users/tgil/git/CoAction</text>
<text text-anchor="start" x="523.077" y="-265" font-family="Helvetica,sans-Serif" font-size="10.00">OS/CoActionOS&#45;Applib/include</text>
<text text-anchor="middle" x="592" y="-253" font-family="Helvetica,sans-Serif" font-size="10.00">/Usb.hpp</text>
</a>
</g>
</g>
<!-- Node2&#45;&gt;Node8 -->
<g id="edge7" class="edge"><title>Node2&#45;&gt;Node8</title>
<path fill="none" stroke="midnightblue" d="M592,-318.896C592,-309.609 592,-299.649 592,-291.156"/>
<polygon fill="midnightblue" stroke="midnightblue" points="588.5,-318.981 592,-328.981 595.5,-318.981 588.5,-318.981"/>
</g>
<!-- Node10 -->
<g id="node10" class="node"><title>Node10</title>
<g id="a_node10"><a xlink:href="_uart_8hpp.html" target="_top" target="_top" xlink:title="/Users/tgil/git/CoAction\lOS/CoActionOS&#45;Applib/include\l/Uart.hpp">
<polygon fill="none" stroke="black" points="1375.08,-247 1375.08,-291 1528.92,-291 1528.92,-247 1375.08,-247"/>
<text text-anchor="start" x="1383.08" y="-277" font-family="Helvetica,sans-Serif" font-size="10.00">/Users/tgil/git/CoAction</text>
<text text-anchor="start" x="1383.08" y="-265" font-family="Helvetica,sans-Serif" font-size="10.00">OS/CoActionOS&#45;Applib/include</text>
<text text-anchor="middle" x="1452" y="-253" font-family="Helvetica,sans-Serif" font-size="10.00">/Uart.hpp</text>
</a>
</g>
</g>
<!-- Node9&#45;&gt;Node10 -->
<g id="edge9" class="edge"><title>Node9&#45;&gt;Node10</title>
<path fill="none" stroke="midnightblue" d="M1569.73,-324.756C1546.38,-313.9 1519.42,-301.357 1497.19,-291.017"/>
<polygon fill="midnightblue" stroke="midnightblue" points="1568.27,-327.937 1578.81,-328.981 1571.22,-321.59 1568.27,-327.937"/>
</g>
<!-- Node15 -->
<g id="node15" class="node"><title>Node15</title>
<g id="a_node15"><a xlink:href="_core_8hpp.html" target="_top" target="_top" xlink:title="/Users/tgil/git/CoAction\lOS/CoActionOS&#45;Applib/include\l/Core.hpp">
<polygon fill="none" stroke="black" points="1547.08,-247 1547.08,-291 1700.92,-291 1700.92,-247 1547.08,-247"/>
<text text-anchor="start" x="1555.08" y="-277" font-family="Helvetica,sans-Serif" font-size="10.00">/Users/tgil/git/CoAction</text>
<text text-anchor="start" x="1555.08" y="-265" font-family="Helvetica,sans-Serif" font-size="10.00">OS/CoActionOS&#45;Applib/include</text>
<text text-anchor="middle" x="1624" y="-253" font-family="Helvetica,sans-Serif" font-size="10.00">/Core.hpp</text>
</a>
</g>
</g>
<!-- Node9&#45;&gt;Node15 -->
<g id="edge14" class="edge"><title>Node9&#45;&gt;Node15</title>
<path fill="none" stroke="midnightblue" d="M1624,-318.896C1624,-309.609 1624,-299.649 1624,-291.156"/>
<polygon fill="midnightblue" stroke="midnightblue" points="1620.5,-318.981 1624,-328.981 1627.5,-318.981 1620.5,-318.981"/>
</g>
<!-- Node16 -->
<g id="node16" class="node"><title>Node16</title>
<g id="a_node16"><a xlink:href="_dbug_8hpp.html" target="_top" target="_top" xlink:title="/Users/tgil/git/CoAction\lOS/CoActionOS&#45;Applib/include\l/Dbug.hpp">
<polygon fill="none" stroke="black" points="1719.08,-247 1719.08,-291 1872.92,-291 1872.92,-247 1719.08,-247"/>
<text text-anchor="start" x="1727.08" y="-277" font-family="Helvetica,sans-Serif" font-size="10.00">/Users/tgil/git/CoAction</text>
<text text-anchor="start" x="1727.08" y="-265" font-family="Helvetica,sans-Serif" font-size="10.00">OS/CoActionOS&#45;Applib/include</text>
<text text-anchor="middle" x="1796" y="-253" font-family="Helvetica,sans-Serif" font-size="10.00">/Dbug.hpp</text>
</a>
</g>
</g>
<!-- Node9&#45;&gt;Node16 -->
<g id="edge15" class="edge"><title>Node9&#45;&gt;Node16</title>
<path fill="none" stroke="midnightblue" d="M1678.27,-324.756C1701.62,-313.9 1728.58,-301.357 1750.81,-291.017"/>
<polygon fill="midnightblue" stroke="midnightblue" points="1676.78,-321.59 1669.19,-328.981 1679.73,-327.937 1676.78,-321.59"/>
</g>
<!-- Node19 -->
<g id="node19" class="node"><title>Node19</title>
<g id="a_node19"><a xlink:href="_pio_8hpp.html" target="_top" target="_top" xlink:title="/Users/tgil/git/CoAction\lOS/CoActionOS&#45;Applib/include\l/Pio.hpp">
<polygon fill="none" stroke="black" points="1943.08,-247 1943.08,-291 2096.92,-291 2096.92,-247 1943.08,-247"/>
<text text-anchor="start" x="1951.08" y="-277" font-family="Helvetica,sans-Serif" font-size="10.00">/Users/tgil/git/CoAction</text>
<text text-anchor="start" x="1951.08" y="-265" font-family="Helvetica,sans-Serif" font-size="10.00">OS/CoActionOS&#45;Applib/include</text>
<text text-anchor="middle" x="2020" y="-253" font-family="Helvetica,sans-Serif" font-size="10.00">/Pio.hpp</text>
</a>
</g>
</g>
<!-- Node9&#45;&gt;Node19 -->
<g id="edge19" class="edge"><title>Node9&#45;&gt;Node19</title>
<path fill="none" stroke="midnightblue" d="M1711.31,-332.361C1780.57,-318.369 1876.45,-298.999 1942.9,-285.575"/>
<polygon fill="midnightblue" stroke="midnightblue" points="1710.4,-328.974 1701.29,-334.385 1711.79,-335.836 1710.4,-328.974"/>
</g>
<!-- Node23 -->
<g id="node23" class="node"><title>Node23</title>
<g id="a_node23"><a xlink:href="_spi_8hpp.html" target="_top" target="_top" xlink:title="/Users/tgil/git/CoAction\lOS/CoActionOS&#45;Applib/include\l/Spi.hpp">
<polygon fill="none" stroke="black" points="2115.08,-247 2115.08,-291 2268.92,-291 2268.92,-247 2115.08,-247"/>
<text text-anchor="start" x="2123.08" y="-277" font-family="Helvetica,sans-Serif" font-size="10.00">/Users/tgil/git/CoAction</text>
<text text-anchor="start" x="2123.08" y="-265" font-family="Helvetica,sans-Serif" font-size="10.00">OS/CoActionOS&#45;Applib/include</text>
<text text-anchor="middle" x="2192" y="-253" font-family="Helvetica,sans-Serif" font-size="10.00">/Spi.hpp</text>
</a>
</g>
</g>
<!-- Node9&#45;&gt;Node23 -->
<g id="edge24" class="edge"><title>Node9&#45;&gt;Node23</title>
<path fill="none" stroke="midnightblue" d="M1711.13,-342.866C1807.88,-334.163 1968.43,-317.395 2105,-292 2108.22,-291.402 2111.49,-290.754 2114.79,-290.068"/>
<polygon fill="midnightblue" stroke="midnightblue" points="1710.75,-339.386 1701.1,-343.76 1711.37,-346.358 1710.75,-339.386"/>
</g>
<!-- Node24 -->
<g id="node24" class="node"><title>Node24</title>
<g id="a_node24"><a xlink:href="_gpio_8hpp_source.html" target="_top" target="_top" xlink:title="/Users/tgil/git/CoAction\lOS/CoActionOS&#45;Applib/include\l/Gpio.hpp">
<polygon fill="none" stroke="black" points="2287.08,-247 2287.08,-291 2440.92,-291 2440.92,-247 2287.08,-247"/>
<text text-anchor="start" x="2295.08" y="-277" font-family="Helvetica,sans-Serif" font-size="10.00">/Users/tgil/git/CoAction</text>
<text text-anchor="start" x="2295.08" y="-265" font-family="Helvetica,sans-Serif" font-size="10.00">OS/CoActionOS&#45;Applib/include</text>
<text text-anchor="middle" x="2364" y="-253" font-family="Helvetica,sans-Serif" font-size="10.00">/Gpio.hpp</text>
</a>
</g>
</g>
<!-- Node9&#45;&gt;Node24 -->
<g id="edge26" class="edge"><title>Node9&#45;&gt;Node24</title>
<path fill="none" stroke="midnightblue" d="M1711.5,-346.653C1837.33,-340.84 2076.32,-326.063 2277,-292 2280.23,-291.452 2283.51,-290.847 2286.81,-290.196"/>
<polygon fill="midnightblue" stroke="midnightblue" points="1710.99,-343.172 1701.16,-347.122 1711.31,-350.165 1710.99,-343.172"/>
</g>
<!-- Node25 -->
<g id="node25" class="node"><title>Node25</title>
<g id="a_node25"><a xlink:href="_rtc_8hpp.html" target="_top" target="_top" xlink:title="/Users/tgil/git/CoAction\lOS/CoActionOS&#45;Applib/include\l/Rtc.hpp">
<polygon fill="none" stroke="black" points="1031.08,-247 1031.08,-291 1184.92,-291 1184.92,-247 1031.08,-247"/>
<text text-anchor="start" x="1039.08" y="-277" font-family="Helvetica,sans-Serif" font-size="10.00">/Users/tgil/git/CoAction</text>
<text text-anchor="start" x="1039.08" y="-265" font-family="Helvetica,sans-Serif" font-size="10.00">OS/CoActionOS&#45;Applib/include</text>
<text text-anchor="middle" x="1108" y="-253" font-family="Helvetica,sans-Serif" font-size="10.00">/Rtc.hpp</text>
</a>
</g>
</g>
<!-- Node9&#45;&gt;Node25 -->
<g id="edge27" class="edge"><title>Node9&#45;&gt;Node25</title>
<path fill="none" stroke="midnightblue" d="M1536.93,-341.264C1449.72,-331.81 1311.89,-314.949 1194,-292 1191.13,-291.44 1188.2,-290.843 1185.26,-290.216"/>
<polygon fill="midnightblue" stroke="midnightblue" points="1536.73,-344.763 1547.05,-342.352 1537.48,-337.803 1536.73,-344.763"/>
</g>
<!-- Node26 -->
<g id="node26" class="node"><title>Node26</title>
<g id="a_node26"><a xlink:href="_tmr_8hpp.html" target="_top" target="_top" xlink:title="/Users/tgil/git/CoAction\lOS/CoActionOS&#45;Applib/include\l/Tmr.hpp">
<polygon fill="none" stroke="black" points="1203.08,-247 1203.08,-291 1356.92,-291 1356.92,-247 1203.08,-247"/>
<text text-anchor="start" x="1211.08" y="-277" font-family="Helvetica,sans-Serif" font-size="10.00">/Users/tgil/git/CoAction</text>
<text text-anchor="start" x="1211.08" y="-265" font-family="Helvetica,sans-Serif" font-size="10.00">OS/CoActionOS&#45;Applib/include</text>
<text text-anchor="middle" x="1280" y="-253" font-family="Helvetica,sans-Serif" font-size="10.00">/Tmr.hpp</text>
</a>
</g>
</g>
<!-- Node9&#45;&gt;Node26 -->
<g id="edge28" class="edge"><title>Node9&#45;&gt;Node26</title>
<path fill="none" stroke="midnightblue" d="M1536.99,-331.105C1486.9,-320.061 1422.81,-305.649 1366,-292 1363.15,-291.316 1360.25,-290.612 1357.33,-289.896"/>
<polygon fill="midnightblue" stroke="midnightblue" points="1536.29,-334.536 1546.81,-333.268 1537.8,-327.7 1536.29,-334.536"/>
</g>
<!-- Node11 -->
<g id="node11" class="node"><title>Node11</title>
<g id="a_node11"><a xlink:href="_brsp_8hpp.html" target="_top" target="_top" xlink:title="/Users/tgil/git/CoAction\lOS/CoActionOS&#45;Applib/include\l/Brsp.hpp">
<polygon fill="none" stroke="black" points="1243.08,-165 1243.08,-209 1396.92,-209 1396.92,-165 1243.08,-165"/>
<text text-anchor="start" x="1251.08" y="-195" font-family="Helvetica,sans-Serif" font-size="10.00">/Users/tgil/git/CoAction</text>
<text text-anchor="start" x="1251.08" y="-183" font-family="Helvetica,sans-Serif" font-size="10.00">OS/CoActionOS&#45;Applib/include</text>
<text text-anchor="middle" x="1320" y="-171" font-family="Helvetica,sans-Serif" font-size="10.00">/Brsp.hpp</text>
</a>
</g>
</g>
<!-- Node10&#45;&gt;Node11 -->
<g id="edge10" class="edge"><title>Node10&#45;&gt;Node11</title>
<path fill="none" stroke="midnightblue" d="M1408.47,-241.619C1391.08,-231.08 1371.33,-219.11 1354.91,-209.156"/>
<polygon fill="midnightblue" stroke="midnightblue" points="1406.95,-244.791 1417.32,-246.981 1410.58,-238.805 1406.95,-244.791"/>
</g>
<!-- Node12 -->
<g id="node12" class="node"><title>Node12</title>
<g id="a_node12"><a xlink:href="_dbug_uart_8hpp.html" target="_top" target="_top" xlink:title="/Users/tgil/git/CoAction\lOS/CoActionOS&#45;Applib/include\l/DbugUart.hpp">
<polygon fill="none" stroke="black" points="1453.08,-165 1453.08,-209 1606.92,-209 1606.92,-165 1453.08,-165"/>
<text text-anchor="start" x="1461.08" y="-195" font-family="Helvetica,sans-Serif" font-size="10.00">/Users/tgil/git/CoAction</text>
<text text-anchor="start" x="1461.08" y="-183" font-family="Helvetica,sans-Serif" font-size="10.00">OS/CoActionOS&#45;Applib/include</text>
<text text-anchor="middle" x="1530" y="-171" font-family="Helvetica,sans-Serif" font-size="10.00">/DbugUart.hpp</text>
</a>
</g>
</g>
<!-- Node10&#45;&gt;Node12 -->
<g id="edge11" class="edge"><title>Node10&#45;&gt;Node12</title>
<path fill="none" stroke="midnightblue" d="M1479.72,-239.572C1489.49,-229.551 1500.29,-218.47 1509.37,-209.156"/>
<polygon fill="midnightblue" stroke="midnightblue" points="1476.97,-237.378 1472.49,-246.981 1481.98,-242.264 1476.97,-237.378"/>
</g>
<!-- Node13 -->
<g id="node13" class="node"><title>Node13</title>
<g id="a_node13"><a xlink:href="_lpc_phy_8hpp_source.html" target="_top" target="_top" xlink:title="/Users/tgil/git/CoAction\lOS/CoActionOS&#45;Applib/include\l/LpcPhy.hpp">
<polygon fill="none" stroke="black" points="1659.08,-83 1659.08,-127 1812.92,-127 1812.92,-83 1659.08,-83"/>
<text text-anchor="start" x="1667.08" y="-113" font-family="Helvetica,sans-Serif" font-size="10.00">/Users/tgil/git/CoAction</text>
<text text-anchor="start" x="1667.08" y="-101" font-family="Helvetica,sans-Serif" font-size="10.00">OS/CoActionOS&#45;Applib/include</text>
<text text-anchor="middle" x="1736" y="-89" font-family="Helvetica,sans-Serif" font-size="10.00">/LpcPhy.hpp</text>
</a>
</g>
</g>
<!-- Node10&#45;&gt;Node13 -->
<g id="edge12" class="edge"><title>Node10&#45;&gt;Node13</title>
<path fill="none" stroke="midnightblue" d="M1439.2,-237.145C1432.04,-214.429 1427.49,-184.118 1444,-164 1470.73,-131.442 1581.8,-116.831 1658.97,-110.512"/>
<polygon fill="midnightblue" stroke="midnightblue" points="1435.92,-238.366 1442.5,-246.674 1442.54,-236.079 1435.92,-238.366"/>
</g>
<!-- Node14 -->
<g id="node14" class="node"><title>Node14</title>
<g id="a_node14"><a xlink:href="_lpc_isp_8hpp_source.html" target="_top" target="_top" xlink:title="/Users/tgil/git/CoAction\lOS/CoActionOS&#45;Applib/include\l/LpcIsp.hpp">
<polygon fill="none" stroke="black" points="1659.08,-1 1659.08,-45 1812.92,-45 1812.92,-1 1659.08,-1"/>
<text text-anchor="start" x="1667.08" y="-31" font-family="Helvetica,sans-Serif" font-size="10.00">/Users/tgil/git/CoAction</text>
<text text-anchor="start" x="1667.08" y="-19" font-family="Helvetica,sans-Serif" font-size="10.00">OS/CoActionOS&#45;Applib/include</text>
<text text-anchor="middle" x="1736" y="-7" font-family="Helvetica,sans-Serif" font-size="10.00">/LpcIsp.hpp</text>
</a>
</g>
</g>
<!-- Node13&#45;&gt;Node14 -->
<g id="edge13" class="edge"><title>Node13&#45;&gt;Node14</title>
<path fill="none" stroke="midnightblue" d="M1736,-72.8963C1736,-63.6094 1736,-53.6485 1736,-45.1564"/>
<polygon fill="midnightblue" stroke="midnightblue" points="1732.5,-72.9809 1736,-82.9809 1739.5,-72.981 1732.5,-72.9809"/>
</g>
<!-- Node16&#45;&gt;Node12 -->
<g id="edge18" class="edge"><title>Node16&#45;&gt;Node12</title>
<path fill="none" stroke="midnightblue" d="M1716.35,-244.045C1679.3,-232.902 1635.63,-219.769 1599.88,-209.017"/>
<polygon fill="midnightblue" stroke="midnightblue" points="1715.53,-247.452 1726.11,-246.981 1717.54,-240.749 1715.53,-247.452"/>
</g>
<!-- Node17 -->
<g id="node17" class="node"><title>Node17</title>
<g id="a_node17"><a xlink:href="_dbug_null_8hpp.html" target="_top" target="_top" xlink:title="/Users/tgil/git/CoAction\lOS/CoActionOS&#45;Applib/include\l/DbugNull.hpp">
<polygon fill="none" stroke="black" points="1625.08,-165 1625.08,-209 1778.92,-209 1778.92,-165 1625.08,-165"/>
<text text-anchor="start" x="1633.08" y="-195" font-family="Helvetica,sans-Serif" font-size="10.00">/Users/tgil/git/CoAction</text>
<text text-anchor="start" x="1633.08" y="-183" font-family="Helvetica,sans-Serif" font-size="10.00">OS/CoActionOS&#45;Applib/include</text>
<text text-anchor="middle" x="1702" y="-171" font-family="Helvetica,sans-Serif" font-size="10.00">/DbugNull.hpp</text>
</a>
</g>
</g>
<!-- Node16&#45;&gt;Node17 -->
<g id="edge16" class="edge"><title>Node16&#45;&gt;Node17</title>
<path fill="none" stroke="midnightblue" d="M1763.63,-240.453C1751.59,-230.204 1738.12,-218.744 1726.86,-209.156"/>
<polygon fill="midnightblue" stroke="midnightblue" points="1761.42,-243.165 1771.3,-246.981 1765.96,-237.834 1761.42,-243.165"/>
</g>
<!-- Node18 -->
<g id="node18" class="node"><title>Node18</title>
<g id="a_node18"><a xlink:href="_dbug_stdout_8hpp.html" target="_top" target="_top" xlink:title="/Users/tgil/git/CoAction\lOS/CoActionOS&#45;Applib/include\l/DbugStdout.hpp">
<polygon fill="none" stroke="black" points="1797.08,-165 1797.08,-209 1950.92,-209 1950.92,-165 1797.08,-165"/>
<text text-anchor="start" x="1805.08" y="-195" font-family="Helvetica,sans-Serif" font-size="10.00">/Users/tgil/git/CoAction</text>
<text text-anchor="start" x="1805.08" y="-183" font-family="Helvetica,sans-Serif" font-size="10.00">OS/CoActionOS&#45;Applib/include</text>
<text text-anchor="middle" x="1874" y="-171" font-family="Helvetica,sans-Serif" font-size="10.00">/DbugStdout.hpp</text>
</a>
</g>
</g>
<!-- Node16&#45;&gt;Node18 -->
<g id="edge17" class="edge"><title>Node16&#45;&gt;Node18</title>
<path fill="none" stroke="midnightblue" d="M1823.72,-239.572C1833.49,-229.551 1844.29,-218.47 1853.37,-209.156"/>
<polygon fill="midnightblue" stroke="midnightblue" points="1820.97,-237.378 1816.49,-246.981 1825.98,-242.264 1820.97,-237.378"/>
</g>
<!-- Node20 -->
<g id="node20" class="node"><title>Node20</title>
<g id="a_node20"><a xlink:href="_nhdc12832_8hpp_source.html" target="_top" target="_top" xlink:title="/Users/tgil/git/CoAction\lOS/CoActionOS&#45;Applib/include\l/Nhdc12832.hpp">
<polygon fill="none" stroke="black" points="2141.08,-165 2141.08,-209 2294.92,-209 2294.92,-165 2141.08,-165"/>
<text text-anchor="start" x="2149.08" y="-195" font-family="Helvetica,sans-Serif" font-size="10.00">/Users/tgil/git/CoAction</text>
<text text-anchor="start" x="2149.08" y="-183" font-family="Helvetica,sans-Serif" font-size="10.00">OS/CoActionOS&#45;Applib/include</text>
<text text-anchor="middle" x="2218" y="-171" font-family="Helvetica,sans-Serif" font-size="10.00">/Nhdc12832.hpp</text>
</a>
</g>
</g>
<!-- Node19&#45;&gt;Node20 -->
<g id="edge20" class="edge"><title>Node19&#45;&gt;Node20</title>
<path fill="none" stroke="midnightblue" d="M2081.41,-243.187C2108.52,-232.233 2140.05,-219.494 2165.98,-209.017"/>
<polygon fill="midnightblue" stroke="midnightblue" points="2079.98,-239.99 2072.02,-246.981 2082.61,-246.48 2079.98,-239.99"/>
</g>
<!-- Node22 -->
<g id="node22" class="node"><title>Node22</title>
<g id="a_node22"><a xlink:href="_pin_8hpp.html" target="_top" target="_top" xlink:title="/Users/tgil/git/CoAction\lOS/CoActionOS&#45;Applib/include\l/Pin.hpp">
<polygon fill="none" stroke="black" points="1969.08,-165 1969.08,-209 2122.92,-209 2122.92,-165 1969.08,-165"/>
<text text-anchor="start" x="1977.08" y="-195" font-family="Helvetica,sans-Serif" font-size="10.00">/Users/tgil/git/CoAction</text>
<text text-anchor="start" x="1977.08" y="-183" font-family="Helvetica,sans-Serif" font-size="10.00">OS/CoActionOS&#45;Applib/include</text>
<text text-anchor="middle" x="2046" y="-171" font-family="Helvetica,sans-Serif" font-size="10.00">/Pin.hpp</text>
</a>
</g>
</g>
<!-- Node19&#45;&gt;Node22 -->
<g id="edge22" class="edge"><title>Node19&#45;&gt;Node22</title>
<path fill="none" stroke="midnightblue" d="M2030.01,-237.196C2033.06,-227.824 2036.33,-217.74 2039.12,-209.156"/>
<polygon fill="midnightblue" stroke="midnightblue" points="2026.59,-236.389 2026.83,-246.981 2033.25,-238.552 2026.59,-236.389"/>
</g>
<!-- Node21 -->
<g id="node21" class="node"><title>Node21</title>
<g id="a_node21"><a xlink:href="_exp_lcd_device_8hpp.html" target="_top" target="_top" xlink:title="/Users/tgil/git/CoAction\lOS/CoActionOS&#45;Applib/include\l/ExpLcdDevice.hpp">
<polygon fill="none" stroke="black" points="2141.08,-83 2141.08,-127 2294.92,-127 2294.92,-83 2141.08,-83"/>
<text text-anchor="start" x="2149.08" y="-113" font-family="Helvetica,sans-Serif" font-size="10.00">/Users/tgil/git/CoAction</text>
<text text-anchor="start" x="2149.08" y="-101" font-family="Helvetica,sans-Serif" font-size="10.00">OS/CoActionOS&#45;Applib/include</text>
<text text-anchor="middle" x="2218" y="-89" font-family="Helvetica,sans-Serif" font-size="10.00">/ExpLcdDevice.hpp</text>
</a>
</g>
</g>
<!-- Node20&#45;&gt;Node21 -->
<g id="edge21" class="edge"><title>Node20&#45;&gt;Node21</title>
<path fill="none" stroke="midnightblue" d="M2218,-154.896C2218,-145.609 2218,-135.649 2218,-127.156"/>
<polygon fill="midnightblue" stroke="midnightblue" points="2214.5,-154.981 2218,-164.981 2221.5,-154.981 2214.5,-154.981"/>
</g>
<!-- Node22&#45;&gt;Node13 -->
<g id="edge23" class="edge"><title>Node22&#45;&gt;Node13</title>
<path fill="none" stroke="midnightblue" d="M1959.05,-163.561C1913.21,-151.732 1857.46,-137.345 1813.17,-125.914"/>
<polygon fill="midnightblue" stroke="midnightblue" points="1958.42,-167.012 1968.97,-166.122 1960.16,-160.234 1958.42,-167.012"/>
</g>
<!-- Node23&#45;&gt;Node20 -->
<g id="edge25" class="edge"><title>Node23&#45;&gt;Node20</title>
<path fill="none" stroke="midnightblue" d="M2202.01,-237.196C2205.06,-227.824 2208.33,-217.74 2211.12,-209.156"/>
<polygon fill="midnightblue" stroke="midnightblue" points="2198.59,-236.389 2198.83,-246.981 2205.25,-238.552 2198.59,-236.389"/>
</g>
<!-- Node27 -->
<g id="node27" class="node"><title>Node27</title>
<g id="a_node27"><a xlink:href="_timer_8hpp.html" target="_top" target="_top" xlink:title="/Users/tgil/git/CoAction\lOS/CoActionOS&#45;Applib/include\l/Timer.hpp">
<polygon fill="none" stroke="black" points="1071.08,-165 1071.08,-209 1224.92,-209 1224.92,-165 1071.08,-165"/>
<text text-anchor="start" x="1079.08" y="-195" font-family="Helvetica,sans-Serif" font-size="10.00">/Users/tgil/git/CoAction</text>
<text text-anchor="start" x="1079.08" y="-183" font-family="Helvetica,sans-Serif" font-size="10.00">OS/CoActionOS&#45;Applib/include</text>
<text text-anchor="middle" x="1148" y="-171" font-family="Helvetica,sans-Serif" font-size="10.00">/Timer.hpp</text>
</a>
</g>
</g>
<!-- Node26&#45;&gt;Node27 -->
<g id="edge29" class="edge"><title>Node26&#45;&gt;Node27</title>
<path fill="none" stroke="midnightblue" d="M1236.47,-241.619C1219.08,-231.08 1199.33,-219.11 1182.91,-209.156"/>
<polygon fill="midnightblue" stroke="midnightblue" points="1234.95,-244.791 1245.32,-246.981 1238.58,-238.805 1234.95,-244.791"/>
</g>
</g>
</svg>
