<?xml version="1.0" encoding="UTF-8" standalone="no"?>
<!DOCTYPE svg PUBLIC "-//W3C//DTD SVG 1.1//EN"
 "http://www.w3.org/Graphics/SVG/1.1/DTD/svg11.dtd">
<!-- Generated by graphviz version 2.34.0 (20130907.0228)
 -->
<!-- Title: /Users/tgil/git/CoActionOS/CoActionOS&#45;Applib/include/Periph.hpp Pages: 1 -->
<svg width="488pt" height="170pt"
 viewBox="0.00 0.00 488.00 170.00" xmlns="http://www.w3.org/2000/svg" xmlns:xlink="http://www.w3.org/1999/xlink">
<g id="graph0" class="graph" transform="scale(1 1) rotate(0) translate(4 166)">
<title>/Users/tgil/git/CoActionOS/CoActionOS&#45;Applib/include/Periph.hpp</title>
<!-- Node1 -->
<g id="node1" class="node"><title>Node1</title>
<polygon fill="#bfbfbf" stroke="black" points="152.077,-117 152.077,-161 305.923,-161 305.923,-117 152.077,-117"/>
<text text-anchor="start" x="160.077" y="-147" font-family="Helvetica,sans-Serif" font-size="10.00">/Users/tgil/git/CoAction</text>
<text text-anchor="start" x="160.077" y="-135" font-family="Helvetica,sans-Serif" font-size="10.00">OS/CoActionOS&#45;Applib/include</text>
<text text-anchor="middle" x="229" y="-123" font-family="Helvetica,sans-Serif" font-size="10.00">/Periph.hpp</text>
</g>
<!-- Node2 -->
<g id="node2" class="node"><title>Node2</title>
<polygon fill="none" stroke="#bfbfbf" points="-0.241211,-1 -0.241211,-21 80.2412,-21 80.2412,-1 -0.241211,-1"/>
<text text-anchor="middle" x="40" y="-7" font-family="Helvetica,sans-Serif" font-size="10.00">link_protocol.h</text>
</g>
<!-- Node1&#45;&gt;Node2 -->
<g id="edge1" class="edge"><title>Node1&#45;&gt;Node2</title>
<path fill="none" stroke="midnightblue" d="M151.939,-125.055C103.237,-115.125 46.7888,-99.7704 32,-80 21.5723,-66.0597 25.6939,-45.8145 31.1307,-31.0406"/>
<polygon fill="midnightblue" stroke="midnightblue" points="34.5241,-31.9956 35.1327,-21.4182 28.0608,-29.3074 34.5241,-31.9956"/>
</g>
<!-- Node3 -->
<g id="node3" class="node"><title>Node3</title>
<polygon fill="none" stroke="#bfbfbf" points="220.66,-1 220.66,-21 263.34,-21 263.34,-1 220.66,-1"/>
<text text-anchor="middle" x="242" y="-7" font-family="Helvetica,sans-Serif" font-size="10.00">fcntl.h</text>
</g>
<!-- Node1&#45;&gt;Node3 -->
<g id="edge2" class="edge"><title>Node1&#45;&gt;Node3</title>
<path fill="none" stroke="midnightblue" d="M306.143,-120.288C326.793,-111.648 346.759,-98.8661 359,-80 381.871,-44.7523 315.684,-25.5656 273.71,-17.202"/>
<polygon fill="midnightblue" stroke="midnightblue" points="274.104,-13.7148 263.629,-15.3057 272.81,-20.5941 274.104,-13.7148"/>
</g>
<!-- Node4 -->
<g id="node4" class="node"><title>Node4</title>
<polygon fill="none" stroke="#bfbfbf" points="110.828,-59 110.828,-79 155.172,-79 155.172,-59 110.828,-59"/>
<text text-anchor="middle" x="133" y="-65" font-family="Helvetica,sans-Serif" font-size="10.00">cstdlib</text>
</g>
<!-- Node1&#45;&gt;Node4 -->
<g id="edge3" class="edge"><title>Node1&#45;&gt;Node4</title>
<path fill="none" stroke="midnightblue" d="M199.151,-116.857C184.662,-106.594 167.584,-94.4972 154.411,-85.1658"/>
<polygon fill="midnightblue" stroke="midnightblue" points="156.177,-82.1281 145.994,-79.2039 152.131,-87.8402 156.177,-82.1281"/>
</g>
<!-- Node5 -->
<g id="node5" class="node"><title>Node5</title>
<polygon fill="none" stroke="#bfbfbf" points="173.273,-59 173.273,-79 218.727,-79 218.727,-59 173.273,-59"/>
<text text-anchor="middle" x="196" y="-65" font-family="Helvetica,sans-Serif" font-size="10.00">cstring</text>
</g>
<!-- Node1&#45;&gt;Node5 -->
<g id="edge4" class="edge"><title>Node1&#45;&gt;Node5</title>
<path fill="none" stroke="midnightblue" d="M218.739,-116.857C214.286,-107.679 209.12,-97.0355 204.839,-88.2141"/>
<polygon fill="midnightblue" stroke="midnightblue" points="207.981,-86.6724 200.467,-79.2039 201.684,-89.7286 207.981,-86.6724"/>
</g>
<!-- Node6 -->
<g id="node6" class="node"><title>Node6</title>
<polygon fill="none" stroke="#bfbfbf" points="236.766,-59 236.766,-79 287.234,-79 287.234,-59 236.766,-59"/>
<text text-anchor="middle" x="262" y="-65" font-family="Helvetica,sans-Serif" font-size="10.00">signal.h</text>
</g>
<!-- Node1&#45;&gt;Node6 -->
<g id="edge5" class="edge"><title>Node1&#45;&gt;Node6</title>
<path fill="none" stroke="midnightblue" d="M239.261,-116.857C243.714,-107.679 248.88,-97.0355 253.161,-88.2141"/>
<polygon fill="midnightblue" stroke="midnightblue" points="256.316,-89.7286 257.533,-79.2039 250.019,-86.6724 256.316,-89.7286"/>
</g>
<!-- Node7 -->
<g id="node7" class="node"><title>Node7</title>
<polygon fill="none" stroke="#bfbfbf" points="305.269,-59 305.269,-79 350.731,-79 350.731,-59 305.269,-59"/>
<text text-anchor="middle" x="328" y="-65" font-family="Helvetica,sans-Serif" font-size="10.00">caos.h</text>
</g>
<!-- Node1&#45;&gt;Node7 -->
<g id="edge6" class="edge"><title>Node1&#45;&gt;Node7</title>
<path fill="none" stroke="midnightblue" d="M259.782,-116.857C274.961,-106.431 292.894,-94.1133 306.563,-84.7243"/>
<polygon fill="midnightblue" stroke="midnightblue" points="308.597,-87.5734 314.858,-79.0266 304.634,-81.8034 308.597,-87.5734"/>
</g>
<!-- Node8 -->
<g id="node8" class="node"><title>Node8</title>
<g id="a_node8"><a xlink:href="_aio_8hpp.html" target="_top" xlink:title="Aio.hpp">
<polygon fill="none" stroke="black" points="407.042,-59 407.042,-79 456.958,-79 456.958,-59 407.042,-59"/>
<text text-anchor="middle" x="432" y="-65" font-family="Helvetica,sans-Serif" font-size="10.00">Aio.hpp</text>
</a>
</g>
</g>
<!-- Node1&#45;&gt;Node8 -->
<g id="edge7" class="edge"><title>Node1&#45;&gt;Node8</title>
<path fill="none" stroke="midnightblue" d="M291.84,-116.95C326.526,-105.331 368.294,-91.3399 397.163,-81.6697"/>
<polygon fill="midnightblue" stroke="midnightblue" points="398.433,-84.9355 406.803,-78.4404 396.209,-78.298 398.433,-84.9355"/>
</g>
<!-- Node11 -->
<g id="node11" class="node"><title>Node11</title>
<g id="a_node11"><a xlink:href="_phy_8hpp.html" target="_top" xlink:title="Phy.hpp">
<polygon fill="none" stroke="black" points="41.0215,-59 41.0215,-79 92.9785,-79 92.9785,-59 41.0215,-59"/>
<text text-anchor="middle" x="67" y="-65" font-family="Helvetica,sans-Serif" font-size="10.00">Phy.hpp</text>
</a>
</g>
</g>
<!-- Node1&#45;&gt;Node11 -->
<g id="edge10" class="edge"><title>Node1&#45;&gt;Node11</title>
<path fill="none" stroke="midnightblue" d="M178.63,-116.857C152.254,-105.786 120.796,-92.581 98.0073,-83.0154"/>
<polygon fill="midnightblue" stroke="midnightblue" points="99.0798,-79.6698 88.5045,-79.0266 96.3705,-86.1243 99.0798,-79.6698"/>
</g>
<!-- Node9 -->
<g id="node9" class="node"><title>Node9</title>
<polygon fill="none" stroke="#bfbfbf" points="377.158,-1 377.158,-21 424.842,-21 424.842,-1 377.158,-1"/>
<text text-anchor="middle" x="401" y="-7" font-family="Helvetica,sans-Serif" font-size="10.00">errno.h</text>
</g>
<!-- Node8&#45;&gt;Node9 -->
<g id="edge8" class="edge"><title>Node8&#45;&gt;Node9</title>
<path fill="none" stroke="midnightblue" d="M426.881,-58.7527C422.547,-50.9242 416.21,-39.4761 410.891,-29.8679"/>
<polygon fill="midnightblue" stroke="midnightblue" points="413.929,-28.129 406.024,-21.0752 407.805,-31.5193 413.929,-28.129"/>
</g>
<!-- Node10 -->
<g id="node10" class="node"><title>Node10</title>
<polygon fill="none" stroke="#bfbfbf" points="443.158,-1 443.158,-21 480.842,-21 480.842,-1 443.158,-1"/>
<text text-anchor="middle" x="462" y="-7" font-family="Helvetica,sans-Serif" font-size="10.00">aio.h</text>
</g>
<!-- Node8&#45;&gt;Node10 -->
<g id="edge9" class="edge"><title>Node8&#45;&gt;Node10</title>
<path fill="none" stroke="midnightblue" d="M436.954,-58.7527C441.104,-51.0058 447.153,-39.7142 452.267,-30.1688"/>
<polygon fill="midnightblue" stroke="midnightblue" points="455.501,-31.5428 457.138,-21.0752 449.331,-28.2372 455.501,-31.5428"/>
</g>
<!-- Node11&#45;&gt;Node2 -->
<g id="edge11" class="edge"><title>Node11&#45;&gt;Node2</title>
<path fill="none" stroke="midnightblue" d="M62.5415,-58.7527C58.8063,-51.0058 53.3622,-39.7142 48.7599,-30.1688"/>
<polygon fill="midnightblue" stroke="midnightblue" points="51.8713,-28.5628 44.3755,-21.0752 45.5659,-31.603 51.8713,-28.5628"/>
</g>
<!-- Node11&#45;&gt;Node3 -->
<g id="edge12" class="edge"><title>Node11&#45;&gt;Node3</title>
<path fill="none" stroke="midnightblue" d="M93.1993,-59.6162C124.653,-49.5511 177.344,-32.6899 210.85,-21.9679"/>
<polygon fill="midnightblue" stroke="midnightblue" points="212.131,-25.2331 220.588,-18.8518 209.997,-18.5661 212.131,-25.2331"/>
</g>
</g>
</svg>
