<?xml version="1.0" encoding="UTF-8" standalone="no"?>
<!DOCTYPE svg PUBLIC "-//W3C//DTD SVG 1.1//EN"
 "http://www.w3.org/Graphics/SVG/1.1/DTD/svg11.dtd">
<!-- Generated by graphviz version 2.34.0 (20130907.0228)
 -->
<!-- Title: /Users/tgil/git/CoActionOS/CoActionOS&#45;Applib/include/Phy.hpp Pages: 1 -->
<svg width="164pt" height="112pt"
 viewBox="0.00 0.00 164.00 112.00" xmlns="http://www.w3.org/2000/svg" xmlns:xlink="http://www.w3.org/1999/xlink">
<g id="graph0" class="graph" transform="scale(1 1) rotate(0) translate(4 108)">
<title>/Users/tgil/git/CoActionOS/CoActionOS&#45;Applib/include/Phy.hpp</title>
<!-- Node1 -->
<g id="node1" class="node"><title>Node1</title>
<polygon fill="#bfbfbf" stroke="black" points="3.07666,-59 3.07666,-103 156.923,-103 156.923,-59 3.07666,-59"/>
<text text-anchor="start" x="11.0767" y="-89" font-family="Helvetica,sans-Serif" font-size="10.00">/Users/tgil/git/CoAction</text>
<text text-anchor="start" x="11.0767" y="-77" font-family="Helvetica,sans-Serif" font-size="10.00">OS/CoActionOS&#45;Applib/include</text>
<text text-anchor="middle" x="80" y="-65" font-family="Helvetica,sans-Serif" font-size="10.00">/Phy.hpp</text>
</g>
<!-- Node2 -->
<g id="node2" class="node"><title>Node2</title>
<polygon fill="none" stroke="#bfbfbf" points="-0.241211,-1 -0.241211,-21 80.2412,-21 80.2412,-1 -0.241211,-1"/>
<text text-anchor="middle" x="40" y="-7" font-family="Helvetica,sans-Serif" font-size="10.00">link_protocol.h</text>
</g>
<!-- Node1&#45;&gt;Node2 -->
<g id="edge1" class="edge"><title>Node1&#45;&gt;Node2</title>
<path fill="none" stroke="midnightblue" d="M67.563,-58.8571C62.1062,-49.5806 55.7685,-38.8065 50.5472,-29.9302"/>
<polygon fill="midnightblue" stroke="midnightblue" points="53.5011,-28.0487 45.4141,-21.2039 47.4676,-31.5979 53.5011,-28.0487"/>
</g>
<!-- Node3 -->
<g id="node3" class="node"><title>Node3</title>
<polygon fill="none" stroke="#bfbfbf" points="98.6602,-1 98.6602,-21 141.34,-21 141.34,-1 98.6602,-1"/>
<text text-anchor="middle" x="120" y="-7" font-family="Helvetica,sans-Serif" font-size="10.00">fcntl.h</text>
</g>
<!-- Node1&#45;&gt;Node3 -->
<g id="edge2" class="edge"><title>Node1&#45;&gt;Node3</title>
<path fill="none" stroke="midnightblue" d="M92.437,-58.8571C97.8938,-49.5806 104.231,-38.8065 109.453,-29.9302"/>
<polygon fill="midnightblue" stroke="midnightblue" points="112.532,-31.5979 114.586,-21.2039 106.499,-28.0487 112.532,-31.5979"/>
</g>
</g>
</svg>
