<?xml version="1.0" encoding="UTF-8" standalone="no"?>
<!DOCTYPE svg PUBLIC "-//W3C//DTD SVG 1.1//EN"
 "http://www.w3.org/Graphics/SVG/1.1/DTD/svg11.dtd">
<!-- Generated by graphviz version 2.34.0 (20130907.0228)
 -->
<!-- Title: /Users/tgil/git/CoActionOS/CoActionOS&#45;Applib/include/Pio.hpp Pages: 1 -->
<svg width="332pt" height="300pt"
 viewBox="0.00 0.00 332.00 300.00" xmlns="http://www.w3.org/2000/svg" xmlns:xlink="http://www.w3.org/1999/xlink">
<g id="graph0" class="graph" transform="scale(1 1) rotate(0) translate(4 296)">
<title>/Users/tgil/git/CoActionOS/CoActionOS&#45;Applib/include/Pio.hpp</title>
<!-- Node1 -->
<g id="node1" class="node"><title>Node1</title>
<polygon fill="#bfbfbf" stroke="black" points="85.0767,-247 85.0767,-291 238.923,-291 238.923,-247 85.0767,-247"/>
<text text-anchor="start" x="93.0767" y="-277" font-family="Helvetica,sans-Serif" font-size="10.00">/Users/tgil/git/CoAction</text>
<text text-anchor="start" x="93.0767" y="-265" font-family="Helvetica,sans-Serif" font-size="10.00">OS/CoActionOS&#45;Applib/include</text>
<text text-anchor="middle" x="162" y="-253" font-family="Helvetica,sans-Serif" font-size="10.00">/Pio.hpp</text>
</g>
<!-- Node2 -->
<g id="node2" class="node"><title>Node2</title>
<g id="a_node2"><a xlink:href="_nhdc12832_8hpp_source.html" target="_top" xlink:title="/Users/tgil/git/CoAction\lOS/CoActionOS&#45;Applib/include\l/Nhdc12832.hpp">
<polygon fill="none" stroke="black" points="-0.92334,-165 -0.92334,-209 152.923,-209 152.923,-165 -0.92334,-165"/>
<text text-anchor="start" x="7.07666" y="-195" font-family="Helvetica,sans-Serif" font-size="10.00">/Users/tgil/git/CoAction</text>
<text text-anchor="start" x="7.07666" y="-183" font-family="Helvetica,sans-Serif" font-size="10.00">OS/CoActionOS&#45;Applib/include</text>
<text text-anchor="middle" x="76" y="-171" font-family="Helvetica,sans-Serif" font-size="10.00">/Nhdc12832.hpp</text>
</a>
</g>
</g>
<!-- Node1&#45;&gt;Node2 -->
<g id="edge1" class="edge"><title>Node1&#45;&gt;Node2</title>
<path fill="none" stroke="midnightblue" d="M132.072,-240.16C121.135,-229.986 108.952,-218.653 98.7432,-209.156"/>
<polygon fill="midnightblue" stroke="midnightblue" points="129.699,-242.733 139.405,-246.981 134.466,-237.607 129.699,-242.733"/>
</g>
<!-- Node4 -->
<g id="node4" class="node"><title>Node4</title>
<g id="a_node4"><a xlink:href="_pin_8hpp.html" target="_top" xlink:title="/Users/tgil/git/CoAction\lOS/CoActionOS&#45;Applib/include\l/Pin.hpp">
<polygon fill="none" stroke="black" points="171.077,-165 171.077,-209 324.923,-209 324.923,-165 171.077,-165"/>
<text text-anchor="start" x="179.077" y="-195" font-family="Helvetica,sans-Serif" font-size="10.00">/Users/tgil/git/CoAction</text>
<text text-anchor="start" x="179.077" y="-183" font-family="Helvetica,sans-Serif" font-size="10.00">OS/CoActionOS&#45;Applib/include</text>
<text text-anchor="middle" x="248" y="-171" font-family="Helvetica,sans-Serif" font-size="10.00">/Pin.hpp</text>
</a>
</g>
</g>
<!-- Node1&#45;&gt;Node4 -->
<g id="edge3" class="edge"><title>Node1&#45;&gt;Node4</title>
<path fill="none" stroke="midnightblue" d="M191.928,-240.16C202.865,-229.986 215.048,-218.653 225.257,-209.156"/>
<polygon fill="midnightblue" stroke="midnightblue" points="189.534,-237.607 184.595,-246.981 194.301,-242.733 189.534,-237.607"/>
</g>
<!-- Node3 -->
<g id="node3" class="node"><title>Node3</title>
<g id="a_node3"><a xlink:href="_exp_lcd_device_8hpp.html" target="_top" xlink:title="/Users/tgil/git/CoAction\lOS/CoActionOS&#45;Applib/include\l/ExpLcdDevice.hpp">
<polygon fill="none" stroke="black" points="-0.92334,-83 -0.92334,-127 152.923,-127 152.923,-83 -0.92334,-83"/>
<text text-anchor="start" x="7.07666" y="-113" font-family="Helvetica,sans-Serif" font-size="10.00">/Users/tgil/git/CoAction</text>
<text text-anchor="start" x="7.07666" y="-101" font-family="Helvetica,sans-Serif" font-size="10.00">OS/CoActionOS&#45;Applib/include</text>
<text text-anchor="middle" x="76" y="-89" font-family="Helvetica,sans-Serif" font-size="10.00">/ExpLcdDevice.hpp</text>
</a>
</g>
</g>
<!-- Node2&#45;&gt;Node3 -->
<g id="edge2" class="edge"><title>Node2&#45;&gt;Node3</title>
<path fill="none" stroke="midnightblue" d="M76,-154.896C76,-145.609 76,-135.649 76,-127.156"/>
<polygon fill="midnightblue" stroke="midnightblue" points="72.5001,-154.981 76,-164.981 79.5001,-154.981 72.5001,-154.981"/>
</g>
<!-- Node5 -->
<g id="node5" class="node"><title>Node5</title>
<g id="a_node5"><a xlink:href="_lpc_phy_8hpp_source.html" target="_top" xlink:title="/Users/tgil/git/CoAction\lOS/CoActionOS&#45;Applib/include\l/LpcPhy.hpp">
<polygon fill="none" stroke="black" points="171.077,-83 171.077,-127 324.923,-127 324.923,-83 171.077,-83"/>
<text text-anchor="start" x="179.077" y="-113" font-family="Helvetica,sans-Serif" font-size="10.00">/Users/tgil/git/CoAction</text>
<text text-anchor="start" x="179.077" y="-101" font-family="Helvetica,sans-Serif" font-size="10.00">OS/CoActionOS&#45;Applib/include</text>
<text text-anchor="middle" x="248" y="-89" font-family="Helvetica,sans-Serif" font-size="10.00">/LpcPhy.hpp</text>
</a>
</g>
</g>
<!-- Node4&#45;&gt;Node5 -->
<g id="edge4" class="edge"><title>Node4&#45;&gt;Node5</title>
<path fill="none" stroke="midnightblue" d="M248,-154.896C248,-145.609 248,-135.649 248,-127.156"/>
<polygon fill="midnightblue" stroke="midnightblue" points="244.5,-154.981 248,-164.981 251.5,-154.981 244.5,-154.981"/>
</g>
<!-- Node6 -->
<g id="node6" class="node"><title>Node6</title>
<g id="a_node6"><a xlink:href="_lpc_isp_8hpp_source.html" target="_top" xlink:title="/Users/tgil/git/CoAction\lOS/CoActionOS&#45;Applib/include\l/LpcIsp.hpp">
<polygon fill="none" stroke="black" points="171.077,-1 171.077,-45 324.923,-45 324.923,-1 171.077,-1"/>
<text text-anchor="start" x="179.077" y="-31" font-family="Helvetica,sans-Serif" font-size="10.00">/Users/tgil/git/CoAction</text>
<text text-anchor="start" x="179.077" y="-19" font-family="Helvetica,sans-Serif" font-size="10.00">OS/CoActionOS&#45;Applib/include</text>
<text text-anchor="middle" x="248" y="-7" font-family="Helvetica,sans-Serif" font-size="10.00">/LpcIsp.hpp</text>
</a>
</g>
</g>
<!-- Node5&#45;&gt;Node6 -->
<g id="edge5" class="edge"><title>Node5&#45;&gt;Node6</title>
<path fill="none" stroke="midnightblue" d="M248,-72.8963C248,-63.6094 248,-53.6485 248,-45.1564"/>
<polygon fill="midnightblue" stroke="midnightblue" points="244.5,-72.9809 248,-82.9809 251.5,-72.981 244.5,-72.9809"/>
</g>
</g>
</svg>
