<?xml version="1.0" encoding="UTF-8" standalone="no"?>
<!DOCTYPE svg PUBLIC "-//W3C//DTD SVG 1.1//EN"
 "http://www.w3.org/Graphics/SVG/1.1/DTD/svg11.dtd">
<!-- Generated by graphviz version 2.34.0 (20130907.0228)
 -->
<!-- Title: /Users/tgil/git/CoActionOS/CoActionOS&#45;Applib/include/String.hpp Pages: 1 -->
<svg width="269pt" height="170pt"
 viewBox="0.00 0.00 269.00 170.00" xmlns="http://www.w3.org/2000/svg" xmlns:xlink="http://www.w3.org/1999/xlink">
<g id="graph0" class="graph" transform="scale(1 1) rotate(0) translate(4 166)">
<title>/Users/tgil/git/CoActionOS/CoActionOS&#45;Applib/include/String.hpp</title>
<!-- Node1 -->
<g id="node1" class="node"><title>Node1</title>
<polygon fill="#bfbfbf" stroke="black" points="38.0767,-117 38.0767,-161 191.923,-161 191.923,-117 38.0767,-117"/>
<text text-anchor="start" x="46.0767" y="-147" font-family="Helvetica,sans-Serif" font-size="10.00">/Users/tgil/git/CoAction</text>
<text text-anchor="start" x="46.0767" y="-135" font-family="Helvetica,sans-Serif" font-size="10.00">OS/CoActionOS&#45;Applib/include</text>
<text text-anchor="middle" x="115" y="-123" font-family="Helvetica,sans-Serif" font-size="10.00">/String.hpp</text>
</g>
<!-- Node2 -->
<g id="node2" class="node"><title>Node2</title>
<polygon fill="none" stroke="#bfbfbf" points="-0.726562,-59 -0.726562,-79 44.7266,-79 44.7266,-59 -0.726562,-59"/>
<text text-anchor="middle" x="22" y="-65" font-family="Helvetica,sans-Serif" font-size="10.00">cstring</text>
</g>
<!-- Node1&#45;&gt;Node2 -->
<g id="edge1" class="edge"><title>Node1&#45;&gt;Node2</title>
<path fill="none" stroke="midnightblue" d="M86.084,-116.857C72.0472,-106.594 55.5035,-94.4972 42.7415,-85.1658"/>
<polygon fill="midnightblue" stroke="midnightblue" points="44.7259,-82.281 34.5877,-79.2039 40.5942,-87.9316 44.7259,-82.281"/>
</g>
<!-- Node3 -->
<g id="node3" class="node"><title>Node3</title>
<polygon fill="none" stroke="#bfbfbf" points="62.8276,-59 62.8276,-79 107.172,-79 107.172,-59 62.8276,-59"/>
<text text-anchor="middle" x="85" y="-65" font-family="Helvetica,sans-Serif" font-size="10.00">cstdlib</text>
</g>
<!-- Node1&#45;&gt;Node3 -->
<g id="edge2" class="edge"><title>Node1&#45;&gt;Node3</title>
<path fill="none" stroke="midnightblue" d="M105.672,-116.857C101.667,-107.778 97.0284,-97.2643 93.1614,-88.4993"/>
<polygon fill="midnightblue" stroke="midnightblue" points="96.2992,-86.9404 89.0606,-79.2039 89.8948,-89.7659 96.2992,-86.9404"/>
</g>
<!-- Node4 -->
<g id="node4" class="node"><title>Node4</title>
<polygon fill="none" stroke="#bfbfbf" points="124.938,-59 124.938,-79 167.062,-79 167.062,-59 124.938,-59"/>
<text text-anchor="middle" x="146" y="-65" font-family="Helvetica,sans-Serif" font-size="10.00">cstdio</text>
</g>
<!-- Node1&#45;&gt;Node4 -->
<g id="edge3" class="edge"><title>Node1&#45;&gt;Node4</title>
<path fill="none" stroke="midnightblue" d="M124.639,-116.857C128.778,-107.778 133.571,-97.2643 137.567,-88.4993"/>
<polygon fill="midnightblue" stroke="midnightblue" points="140.841,-89.7549 141.804,-79.2039 134.471,-86.8512 140.841,-89.7549"/>
</g>
<!-- Node5 -->
<g id="node5" class="node"><title>Node5</title>
<g id="a_node5"><a xlink:href="_string_util_8hpp_source.html" target="_top" xlink:title="StringUtil.hpp">
<polygon fill="none" stroke="black" points="184.985,-59 184.985,-79 261.015,-79 261.015,-59 184.985,-59"/>
<text text-anchor="middle" x="223" y="-65" font-family="Helvetica,sans-Serif" font-size="10.00">StringUtil.hpp</text>
</a>
</g>
</g>
<!-- Node1&#45;&gt;Node5 -->
<g id="edge4" class="edge"><title>Node1&#45;&gt;Node5</title>
<path fill="none" stroke="midnightblue" d="M148.58,-116.857C165.297,-106.332 185.075,-93.8785 200.039,-84.4568"/>
<polygon fill="midnightblue" stroke="midnightblue" points="202.066,-87.3166 208.664,-79.0266 198.336,-81.3929 202.066,-87.3166"/>
</g>
<!-- Node6 -->
<g id="node6" class="node"><title>Node6</title>
<polygon fill="none" stroke="#bfbfbf" points="198.879,-1 198.879,-21 247.121,-21 247.121,-1 198.879,-1"/>
<text text-anchor="middle" x="223" y="-7" font-family="Helvetica,sans-Serif" font-size="10.00">stdint.h</text>
</g>
<!-- Node5&#45;&gt;Node6 -->
<g id="edge5" class="edge"><title>Node5&#45;&gt;Node6</title>
<path fill="none" stroke="midnightblue" d="M223,-58.7527C223,-51.2504 223,-40.4238 223,-31.0781"/>
<polygon fill="midnightblue" stroke="midnightblue" points="226.5,-31.0752 223,-21.0752 219.5,-31.0752 226.5,-31.0752"/>
</g>
</g>
</svg>
