<?xml version="1.0" encoding="UTF-8" standalone="no"?>
<!DOCTYPE svg PUBLIC "-//W3C//DTD SVG 1.1//EN"
 "http://www.w3.org/Graphics/SVG/1.1/DTD/svg11.dtd">
<!-- Generated by graphviz version 2.34.0 (20130907.0228)
 -->
<!-- Title: /Users/tgil/git/CoActionOS/CoActionOS&#45;Applib/include/String.hpp Pages: 1 -->
<svg width="676pt" height="218pt"
 viewBox="0.00 0.00 676.00 218.00" xmlns="http://www.w3.org/2000/svg" xmlns:xlink="http://www.w3.org/1999/xlink">
<g id="graph0" class="graph" transform="scale(1 1) rotate(0) translate(4 214)">
<title>/Users/tgil/git/CoActionOS/CoActionOS&#45;Applib/include/String.hpp</title>
<!-- Node1 -->
<g id="node1" class="node"><title>Node1</title>
<polygon fill="#bfbfbf" stroke="black" points="257.077,-165 257.077,-209 410.923,-209 410.923,-165 257.077,-165"/>
<text text-anchor="start" x="265.077" y="-195" font-family="Helvetica,sans-Serif" font-size="10.00">/Users/tgil/git/CoAction</text>
<text text-anchor="start" x="265.077" y="-183" font-family="Helvetica,sans-Serif" font-size="10.00">OS/CoActionOS&#45;Applib/include</text>
<text text-anchor="middle" x="334" y="-171" font-family="Helvetica,sans-Serif" font-size="10.00">/String.hpp</text>
</g>
<!-- Node2 -->
<g id="node2" class="node"><title>Node2</title>
<g id="a_node2"><a xlink:href="_string_types_8hpp_source.html" target="_top" xlink:title="/Users/tgil/git/CoAction\lOS/CoActionOS&#45;Applib/include\l/StringTypes.hpp">
<polygon fill="none" stroke="black" points="171.077,-83 171.077,-127 324.923,-127 324.923,-83 171.077,-83"/>
<text text-anchor="start" x="179.077" y="-113" font-family="Helvetica,sans-Serif" font-size="10.00">/Users/tgil/git/CoAction</text>
<text text-anchor="start" x="179.077" y="-101" font-family="Helvetica,sans-Serif" font-size="10.00">OS/CoActionOS&#45;Applib/include</text>
<text text-anchor="middle" x="248" y="-89" font-family="Helvetica,sans-Serif" font-size="10.00">/StringTypes.hpp</text>
</a>
</g>
</g>
<!-- Node1&#45;&gt;Node2 -->
<g id="edge1" class="edge"><title>Node1&#45;&gt;Node2</title>
<path fill="none" stroke="midnightblue" d="M304.072,-158.16C293.135,-147.986 280.952,-136.653 270.743,-127.156"/>
<polygon fill="midnightblue" stroke="midnightblue" points="301.699,-160.733 311.405,-164.981 306.466,-155.607 301.699,-160.733"/>
</g>
<!-- Node5 -->
<g id="node5" class="node"><title>Node5</title>
<g id="a_node5"><a xlink:href="_file_8hpp.html" target="_top" xlink:title="/Users/tgil/git/CoAction\lOS/CoActionOS&#45;Applib/include\l/File.hpp">
<polygon fill="none" stroke="black" points="343.077,-83 343.077,-127 496.923,-127 496.923,-83 343.077,-83"/>
<text text-anchor="start" x="351.077" y="-113" font-family="Helvetica,sans-Serif" font-size="10.00">/Users/tgil/git/CoAction</text>
<text text-anchor="start" x="351.077" y="-101" font-family="Helvetica,sans-Serif" font-size="10.00">OS/CoActionOS&#45;Applib/include</text>
<text text-anchor="middle" x="420" y="-89" font-family="Helvetica,sans-Serif" font-size="10.00">/File.hpp</text>
</a>
</g>
</g>
<!-- Node1&#45;&gt;Node5 -->
<g id="edge4" class="edge"><title>Node1&#45;&gt;Node5</title>
<path fill="none" stroke="midnightblue" d="M363.928,-158.16C374.865,-147.986 387.048,-136.653 397.257,-127.156"/>
<polygon fill="midnightblue" stroke="midnightblue" points="361.534,-155.607 356.595,-164.981 366.301,-160.733 361.534,-155.607"/>
</g>
<!-- Node3 -->
<g id="node3" class="node"><title>Node3</title>
<g id="a_node3"><a xlink:href="_brsp_8hpp.html" target="_top" xlink:title="/Users/tgil/git/CoAction\lOS/CoActionOS&#45;Applib/include\l/Brsp.hpp">
<polygon fill="none" stroke="black" points="-0.92334,-1 -0.92334,-45 152.923,-45 152.923,-1 -0.92334,-1"/>
<text text-anchor="start" x="7.07666" y="-31" font-family="Helvetica,sans-Serif" font-size="10.00">/Users/tgil/git/CoAction</text>
<text text-anchor="start" x="7.07666" y="-19" font-family="Helvetica,sans-Serif" font-size="10.00">OS/CoActionOS&#45;Applib/include</text>
<text text-anchor="middle" x="76" y="-7" font-family="Helvetica,sans-Serif" font-size="10.00">/Brsp.hpp</text>
</a>
</g>
</g>
<!-- Node2&#45;&gt;Node3 -->
<g id="edge2" class="edge"><title>Node2&#45;&gt;Node3</title>
<path fill="none" stroke="midnightblue" d="M193.725,-78.7559C170.385,-67.8998 143.418,-55.3571 121.187,-45.0174"/>
<polygon fill="midnightblue" stroke="midnightblue" points="192.266,-81.9371 202.809,-82.9809 195.218,-75.59 192.266,-81.9371"/>
</g>
<!-- Node4 -->
<g id="node4" class="node"><title>Node4</title>
<g id="a_node4"><a xlink:href="_token_8hpp_source.html" target="_top" xlink:title="/Users/tgil/git/CoAction\lOS/CoActionOS&#45;Applib/include\l/Token.hpp">
<polygon fill="none" stroke="black" points="171.077,-1 171.077,-45 324.923,-45 324.923,-1 171.077,-1"/>
<text text-anchor="start" x="179.077" y="-31" font-family="Helvetica,sans-Serif" font-size="10.00">/Users/tgil/git/CoAction</text>
<text text-anchor="start" x="179.077" y="-19" font-family="Helvetica,sans-Serif" font-size="10.00">OS/CoActionOS&#45;Applib/include</text>
<text text-anchor="middle" x="248" y="-7" font-family="Helvetica,sans-Serif" font-size="10.00">/Token.hpp</text>
</a>
</g>
</g>
<!-- Node2&#45;&gt;Node4 -->
<g id="edge3" class="edge"><title>Node2&#45;&gt;Node4</title>
<path fill="none" stroke="midnightblue" d="M248,-72.8963C248,-63.6094 248,-53.6485 248,-45.1564"/>
<polygon fill="midnightblue" stroke="midnightblue" points="244.5,-72.9809 248,-82.9809 251.5,-72.981 244.5,-72.9809"/>
</g>
<!-- Node6 -->
<g id="node6" class="node"><title>Node6</title>
<g id="a_node6"><a xlink:href="_m_b_font_8hpp_source.html" target="_top" xlink:title="/Users/tgil/git/CoAction\lOS/CoActionOS&#45;Applib/include\l/MBFont.hpp">
<polygon fill="none" stroke="black" points="343.077,-1 343.077,-45 496.923,-45 496.923,-1 343.077,-1"/>
<text text-anchor="start" x="351.077" y="-31" font-family="Helvetica,sans-Serif" font-size="10.00">/Users/tgil/git/CoAction</text>
<text text-anchor="start" x="351.077" y="-19" font-family="Helvetica,sans-Serif" font-size="10.00">OS/CoActionOS&#45;Applib/include</text>
<text text-anchor="middle" x="420" y="-7" font-family="Helvetica,sans-Serif" font-size="10.00">/MBFont.hpp</text>
</a>
</g>
</g>
<!-- Node5&#45;&gt;Node6 -->
<g id="edge5" class="edge"><title>Node5&#45;&gt;Node6</title>
<path fill="none" stroke="midnightblue" d="M420,-72.8963C420,-63.6094 420,-53.6485 420,-45.1564"/>
<polygon fill="midnightblue" stroke="midnightblue" points="416.5,-72.9809 420,-82.9809 423.5,-72.981 416.5,-72.9809"/>
</g>
<!-- Node7 -->
<g id="node7" class="node"><title>Node7</title>
<g id="a_node7"><a xlink:href="_rle_8hpp_source.html" target="_top" xlink:title="/Users/tgil/git/CoAction\lOS/CoActionOS&#45;Applib/include\l/Rle.hpp">
<polygon fill="none" stroke="black" points="515.077,-1 515.077,-45 668.923,-45 668.923,-1 515.077,-1"/>
<text text-anchor="start" x="523.077" y="-31" font-family="Helvetica,sans-Serif" font-size="10.00">/Users/tgil/git/CoAction</text>
<text text-anchor="start" x="523.077" y="-19" font-family="Helvetica,sans-Serif" font-size="10.00">OS/CoActionOS&#45;Applib/include</text>
<text text-anchor="middle" x="592" y="-7" font-family="Helvetica,sans-Serif" font-size="10.00">/Rle.hpp</text>
</a>
</g>
</g>
<!-- Node5&#45;&gt;Node7 -->
<g id="edge6" class="edge"><title>Node5&#45;&gt;Node7</title>
<path fill="none" stroke="midnightblue" d="M474.275,-78.7559C497.615,-67.8998 524.582,-55.3571 546.813,-45.0174"/>
<polygon fill="midnightblue" stroke="midnightblue" points="472.782,-75.59 465.191,-82.9809 475.734,-81.9371 472.782,-75.59"/>
</g>
</g>
</svg>
