<?xml version="1.0" encoding="UTF-8" standalone="no"?>
<!DOCTYPE svg PUBLIC "-//W3C//DTD SVG 1.1//EN"
 "http://www.w3.org/Graphics/SVG/1.1/DTD/svg11.dtd">
<!-- Generated by graphviz version 2.34.0 (20130907.0228)
 -->
<!-- Title: /Users/tgil/git/CoActionOS/CoActionOS&#45;Applib/include/Timer.hpp Pages: 1 -->
<svg width="442pt" height="344pt"
 viewBox="0.00 0.00 441.61 344.00" xmlns="http://www.w3.org/2000/svg" xmlns:xlink="http://www.w3.org/1999/xlink">
<g id="graph0" class="graph" transform="scale(1 1) rotate(0) translate(4 340)">
<title>/Users/tgil/git/CoActionOS/CoActionOS&#45;Applib/include/Timer.hpp</title>
<!-- Node1 -->
<g id="node1" class="node"><title>Node1</title>
<polygon fill="#bfbfbf" stroke="black" points="80.0767,-291 80.0767,-335 233.923,-335 233.923,-291 80.0767,-291"/>
<text text-anchor="start" x="88.0767" y="-321" font-family="Helvetica,sans-Serif" font-size="10.00">/Users/tgil/git/CoAction</text>
<text text-anchor="start" x="88.0767" y="-309" font-family="Helvetica,sans-Serif" font-size="10.00">OS/CoActionOS&#45;Applib/include</text>
<text text-anchor="middle" x="157" y="-297" font-family="Helvetica,sans-Serif" font-size="10.00">/Timer.hpp</text>
</g>
<!-- Node2 -->
<g id="node2" class="node"><title>Node2</title>
<polygon fill="none" stroke="#bfbfbf" points="102.384,-233 102.384,-253 145.616,-253 145.616,-233 102.384,-233"/>
<text text-anchor="middle" x="124" y="-239" font-family="Helvetica,sans-Serif" font-size="10.00">time.h</text>
</g>
<!-- Node1&#45;&gt;Node2 -->
<g id="edge1" class="edge"><title>Node1&#45;&gt;Node2</title>
<path fill="none" stroke="midnightblue" d="M146.739,-290.857C142.286,-281.679 137.12,-271.036 132.839,-262.214"/>
<polygon fill="midnightblue" stroke="midnightblue" points="135.981,-260.672 128.467,-253.204 129.684,-263.729 135.981,-260.672"/>
</g>
<!-- Node3 -->
<g id="node3" class="node"><title>Node3</title>
<g id="a_node3"><a xlink:href="_tmr_8hpp.html" target="_top" xlink:title="Tmr.hpp">
<polygon fill="none" stroke="black" points="163.658,-233 163.658,-253 216.342,-253 216.342,-233 163.658,-233"/>
<text text-anchor="middle" x="190" y="-239" font-family="Helvetica,sans-Serif" font-size="10.00">Tmr.hpp</text>
</a>
</g>
</g>
<!-- Node1&#45;&gt;Node3 -->
<g id="edge2" class="edge"><title>Node1&#45;&gt;Node3</title>
<path fill="none" stroke="midnightblue" d="M167.261,-290.857C171.714,-281.679 176.88,-271.036 181.161,-262.214"/>
<polygon fill="midnightblue" stroke="midnightblue" points="184.316,-263.729 185.533,-253.204 178.019,-260.672 184.316,-263.729"/>
</g>
<!-- Node4 -->
<g id="node4" class="node"><title>Node4</title>
<polygon fill="none" stroke="#bfbfbf" points="123.434,-175 123.434,-195 180.566,-195 180.566,-175 123.434,-175"/>
<text text-anchor="middle" x="152" y="-181" font-family="Helvetica,sans-Serif" font-size="10.00">dev/tmr.h</text>
</g>
<!-- Node3&#45;&gt;Node4 -->
<g id="edge3" class="edge"><title>Node3&#45;&gt;Node4</title>
<path fill="none" stroke="midnightblue" d="M183.725,-232.753C178.358,-224.843 170.482,-213.237 163.921,-203.568"/>
<polygon fill="midnightblue" stroke="midnightblue" points="166.669,-201.385 158.158,-195.075 160.877,-205.315 166.669,-201.385"/>
</g>
<!-- Node5 -->
<g id="node5" class="node"><title>Node5</title>
<g id="a_node5"><a xlink:href="_pchar_8hpp.html" target="_top" xlink:title="Pchar.hpp">
<polygon fill="none" stroke="black" points="198.48,-175 198.48,-195 259.52,-195 259.52,-175 198.48,-175"/>
<text text-anchor="middle" x="229" y="-181" font-family="Helvetica,sans-Serif" font-size="10.00">Pchar.hpp</text>
</a>
</g>
</g>
<!-- Node3&#45;&gt;Node5 -->
<g id="edge4" class="edge"><title>Node3&#45;&gt;Node5</title>
<path fill="none" stroke="midnightblue" d="M196.44,-232.753C201.949,-224.843 210.031,-213.237 216.765,-203.568"/>
<polygon fill="midnightblue" stroke="midnightblue" points="219.837,-205.282 222.68,-195.075 214.093,-201.281 219.837,-205.282"/>
</g>
<!-- Node6 -->
<g id="node6" class="node"><title>Node6</title>
<g id="a_node6"><a xlink:href="_periph_8hpp.html" target="_top" xlink:title="Periph.hpp">
<polygon fill="none" stroke="black" points="196.815,-117 196.815,-137 261.185,-137 261.185,-117 196.815,-117"/>
<text text-anchor="middle" x="229" y="-123" font-family="Helvetica,sans-Serif" font-size="10.00">Periph.hpp</text>
</a>
</g>
</g>
<!-- Node5&#45;&gt;Node6 -->
<g id="edge5" class="edge"><title>Node5&#45;&gt;Node6</title>
<path fill="none" stroke="midnightblue" d="M229,-174.753C229,-167.25 229,-156.424 229,-147.078"/>
<polygon fill="midnightblue" stroke="midnightblue" points="232.5,-147.075 229,-137.075 225.5,-147.075 232.5,-147.075"/>
</g>
<!-- Node7 -->
<g id="node7" class="node"><title>Node7</title>
<polygon fill="none" stroke="#bfbfbf" points="-0.241211,-1 -0.241211,-21 80.2412,-21 80.2412,-1 -0.241211,-1"/>
<text text-anchor="middle" x="40" y="-7" font-family="Helvetica,sans-Serif" font-size="10.00">link_protocol.h</text>
</g>
<!-- Node6&#45;&gt;Node7 -->
<g id="edge6" class="edge"><title>Node6&#45;&gt;Node7</title>
<path fill="none" stroke="midnightblue" d="M196.605,-123.221C146.08,-118.14 52.192,-105.45 32,-80 20.9547,-66.0784 25.5382,-45.2263 31.2635,-30.286"/>
<polygon fill="midnightblue" stroke="midnightblue" points="34.5019,-31.6147 35.2315,-21.045 28.0698,-28.8528 34.5019,-31.6147"/>
</g>
<!-- Node8 -->
<g id="node8" class="node"><title>Node8</title>
<polygon fill="none" stroke="#bfbfbf" points="275.66,-1 275.66,-21 318.34,-21 318.34,-1 275.66,-1"/>
<text text-anchor="middle" x="297" y="-7" font-family="Helvetica,sans-Serif" font-size="10.00">fcntl.h</text>
</g>
<!-- Node6&#45;&gt;Node8 -->
<g id="edge7" class="edge"><title>Node6&#45;&gt;Node8</title>
<path fill="none" stroke="midnightblue" d="M261.557,-123.246C312.336,-118.201 406.696,-105.561 427,-80 456.235,-43.1939 375.766,-24.1162 328.565,-16.3335"/>
<polygon fill="midnightblue" stroke="midnightblue" points="328.909,-12.8449 318.488,-14.7588 327.828,-19.7609 328.909,-12.8449"/>
</g>
<!-- Node9 -->
<g id="node9" class="node"><title>Node9</title>
<polygon fill="none" stroke="#bfbfbf" points="110.828,-59 110.828,-79 155.172,-79 155.172,-59 110.828,-59"/>
<text text-anchor="middle" x="133" y="-65" font-family="Helvetica,sans-Serif" font-size="10.00">cstdlib</text>
</g>
<!-- Node6&#45;&gt;Node9 -->
<g id="edge8" class="edge"><title>Node6&#45;&gt;Node9</title>
<path fill="none" stroke="midnightblue" d="M213.148,-116.753C198.05,-107.946 175.099,-94.5575 157.62,-84.3617"/>
<polygon fill="midnightblue" stroke="midnightblue" points="158.959,-81.0907 148.557,-79.0752 155.432,-87.1372 158.959,-81.0907"/>
</g>
<!-- Node10 -->
<g id="node10" class="node"><title>Node10</title>
<polygon fill="none" stroke="#bfbfbf" points="173.273,-59 173.273,-79 218.727,-79 218.727,-59 173.273,-59"/>
<text text-anchor="middle" x="196" y="-65" font-family="Helvetica,sans-Serif" font-size="10.00">cstring</text>
</g>
<!-- Node6&#45;&gt;Node10 -->
<g id="edge9" class="edge"><title>Node6&#45;&gt;Node10</title>
<path fill="none" stroke="midnightblue" d="M223.551,-116.753C218.937,-108.924 212.191,-97.4761 206.529,-87.8679"/>
<polygon fill="midnightblue" stroke="midnightblue" points="209.44,-85.9136 201.348,-79.0752 203.409,-89.4675 209.44,-85.9136"/>
</g>
<!-- Node11 -->
<g id="node11" class="node"><title>Node11</title>
<polygon fill="none" stroke="#bfbfbf" points="236.766,-59 236.766,-79 287.234,-79 287.234,-59 236.766,-59"/>
<text text-anchor="middle" x="262" y="-65" font-family="Helvetica,sans-Serif" font-size="10.00">signal.h</text>
</g>
<!-- Node6&#45;&gt;Node11 -->
<g id="edge10" class="edge"><title>Node6&#45;&gt;Node11</title>
<path fill="none" stroke="midnightblue" d="M234.449,-116.753C239.063,-108.924 245.809,-97.4761 251.471,-87.8679"/>
<polygon fill="midnightblue" stroke="midnightblue" points="254.591,-89.4675 256.652,-79.0752 248.56,-85.9136 254.591,-89.4675"/>
</g>
<!-- Node12 -->
<g id="node12" class="node"><title>Node12</title>
<polygon fill="none" stroke="#bfbfbf" points="305.269,-59 305.269,-79 350.731,-79 350.731,-59 305.269,-59"/>
<text text-anchor="middle" x="328" y="-65" font-family="Helvetica,sans-Serif" font-size="10.00">caos.h</text>
</g>
<!-- Node6&#45;&gt;Node12 -->
<g id="edge11" class="edge"><title>Node6&#45;&gt;Node12</title>
<path fill="none" stroke="midnightblue" d="M245.348,-116.753C261.062,-107.864 285.025,-94.3092 303.11,-84.0793"/>
<polygon fill="midnightblue" stroke="midnightblue" points="304.976,-87.0451 311.956,-79.0752 301.529,-80.9523 304.976,-87.0451"/>
</g>
<!-- Node13 -->
<g id="node13" class="node"><title>Node13</title>
<g id="a_node13"><a xlink:href="_aio_8hpp.html" target="_top" xlink:title="Aio.hpp">
<polygon fill="none" stroke="red" points="369.042,-59 369.042,-79 418.958,-79 418.958,-59 369.042,-59"/>
<text text-anchor="middle" x="394" y="-65" font-family="Helvetica,sans-Serif" font-size="10.00">Aio.hpp</text>
</a>
</g>
</g>
<!-- Node6&#45;&gt;Node13 -->
<g id="edge12" class="edge"><title>Node6&#45;&gt;Node13</title>
<path fill="none" stroke="midnightblue" d="M255.877,-116.878C284.141,-107.286 328.706,-92.1603 359.537,-81.6966"/>
<polygon fill="midnightblue" stroke="midnightblue" points="360.682,-85.0042 369.026,-78.476 358.432,-78.3756 360.682,-85.0042"/>
</g>
<!-- Node14 -->
<g id="node14" class="node"><title>Node14</title>
<g id="a_node14"><a xlink:href="_phy_8hpp.html" target="_top" xlink:title="Phy.hpp">
<polygon fill="none" stroke="black" points="41.0215,-59 41.0215,-79 92.9785,-79 92.9785,-59 41.0215,-59"/>
<text text-anchor="middle" x="67" y="-65" font-family="Helvetica,sans-Serif" font-size="10.00">Phy.hpp</text>
</a>
</g>
</g>
<!-- Node6&#45;&gt;Node14 -->
<g id="edge13" class="edge"><title>Node6&#45;&gt;Node14</title>
<path fill="none" stroke="midnightblue" d="M202.611,-116.878C175.465,-107.494 133.002,-92.8155 102.83,-82.3857"/>
<polygon fill="midnightblue" stroke="midnightblue" points="103.704,-78.9845 93.1089,-79.0253 101.417,-85.6004 103.704,-78.9845"/>
</g>
<!-- Node14&#45;&gt;Node7 -->
<g id="edge14" class="edge"><title>Node14&#45;&gt;Node7</title>
<path fill="none" stroke="midnightblue" d="M62.5415,-58.7527C58.8063,-51.0058 53.3622,-39.7142 48.7599,-30.1688"/>
<polygon fill="midnightblue" stroke="midnightblue" points="51.8713,-28.5628 44.3755,-21.0752 45.5659,-31.603 51.8713,-28.5628"/>
</g>
<!-- Node14&#45;&gt;Node8 -->
<g id="edge15" class="edge"><title>Node14&#45;&gt;Node8</title>
<path fill="none" stroke="midnightblue" d="M93.3372,-60.3328C96.2549,-59.5258 99.187,-58.7332 102,-58 159.379,-43.0439 226.809,-27.6086 265.461,-18.9644"/>
<polygon fill="midnightblue" stroke="midnightblue" points="266.568,-22.3037 275.567,-16.7124 265.045,-15.4712 266.568,-22.3037"/>
</g>
</g>
</svg>
