<?xml version="1.0" encoding="UTF-8" standalone="no"?>
<!DOCTYPE svg PUBLIC "-//W3C//DTD SVG 1.1//EN"
 "http://www.w3.org/Graphics/SVG/1.1/DTD/svg11.dtd">
<!-- Generated by graphviz version 2.34.0 (20130907.0228)
 -->
<!-- Title: /Users/tgil/git/CoActionOS/CoActionOS&#45;Applib/include/Uart.hpp Pages: 1 -->
<svg width="504pt" height="218pt"
 viewBox="0.00 0.00 504.00 218.00" xmlns="http://www.w3.org/2000/svg" xmlns:xlink="http://www.w3.org/1999/xlink">
<g id="graph0" class="graph" transform="scale(1 1) rotate(0) translate(4 214)">
<title>/Users/tgil/git/CoActionOS/CoActionOS&#45;Applib/include/Uart.hpp</title>
<!-- Node1 -->
<g id="node1" class="node"><title>Node1</title>
<polygon fill="#bfbfbf" stroke="black" points="171.077,-165 171.077,-209 324.923,-209 324.923,-165 171.077,-165"/>
<text text-anchor="start" x="179.077" y="-195" font-family="Helvetica,sans-Serif" font-size="10.00">/Users/tgil/git/CoAction</text>
<text text-anchor="start" x="179.077" y="-183" font-family="Helvetica,sans-Serif" font-size="10.00">OS/CoActionOS&#45;Applib/include</text>
<text text-anchor="middle" x="248" y="-171" font-family="Helvetica,sans-Serif" font-size="10.00">/Uart.hpp</text>
</g>
<!-- Node2 -->
<g id="node2" class="node"><title>Node2</title>
<g id="a_node2"><a xlink:href="_brsp_8hpp.html" target="_top" xlink:title="/Users/tgil/git/CoAction\lOS/CoActionOS&#45;Applib/include\l/Brsp.hpp">
<polygon fill="none" stroke="black" points="-0.92334,-83 -0.92334,-127 152.923,-127 152.923,-83 -0.92334,-83"/>
<text text-anchor="start" x="7.07666" y="-113" font-family="Helvetica,sans-Serif" font-size="10.00">/Users/tgil/git/CoAction</text>
<text text-anchor="start" x="7.07666" y="-101" font-family="Helvetica,sans-Serif" font-size="10.00">OS/CoActionOS&#45;Applib/include</text>
<text text-anchor="middle" x="76" y="-89" font-family="Helvetica,sans-Serif" font-size="10.00">/Brsp.hpp</text>
</a>
</g>
</g>
<!-- Node1&#45;&gt;Node2 -->
<g id="edge1" class="edge"><title>Node1&#45;&gt;Node2</title>
<path fill="none" stroke="midnightblue" d="M193.725,-160.756C170.385,-149.9 143.418,-137.357 121.187,-127.017"/>
<polygon fill="midnightblue" stroke="midnightblue" points="192.266,-163.937 202.809,-164.981 195.218,-157.59 192.266,-163.937"/>
</g>
<!-- Node3 -->
<g id="node3" class="node"><title>Node3</title>
<g id="a_node3"><a xlink:href="_dbug_uart_8hpp.html" target="_top" xlink:title="/Users/tgil/git/CoAction\lOS/CoActionOS&#45;Applib/include\l/DbugUart.hpp">
<polygon fill="none" stroke="black" points="171.077,-83 171.077,-127 324.923,-127 324.923,-83 171.077,-83"/>
<text text-anchor="start" x="179.077" y="-113" font-family="Helvetica,sans-Serif" font-size="10.00">/Users/tgil/git/CoAction</text>
<text text-anchor="start" x="179.077" y="-101" font-family="Helvetica,sans-Serif" font-size="10.00">OS/CoActionOS&#45;Applib/include</text>
<text text-anchor="middle" x="248" y="-89" font-family="Helvetica,sans-Serif" font-size="10.00">/DbugUart.hpp</text>
</a>
</g>
</g>
<!-- Node1&#45;&gt;Node3 -->
<g id="edge2" class="edge"><title>Node1&#45;&gt;Node3</title>
<path fill="none" stroke="midnightblue" d="M248,-154.896C248,-145.609 248,-135.649 248,-127.156"/>
<polygon fill="midnightblue" stroke="midnightblue" points="244.5,-154.981 248,-164.981 251.5,-154.981 244.5,-154.981"/>
</g>
<!-- Node4 -->
<g id="node4" class="node"><title>Node4</title>
<g id="a_node4"><a xlink:href="_lpc_phy_8hpp_source.html" target="_top" xlink:title="/Users/tgil/git/CoAction\lOS/CoActionOS&#45;Applib/include\l/LpcPhy.hpp">
<polygon fill="none" stroke="black" points="343.077,-83 343.077,-127 496.923,-127 496.923,-83 343.077,-83"/>
<text text-anchor="start" x="351.077" y="-113" font-family="Helvetica,sans-Serif" font-size="10.00">/Users/tgil/git/CoAction</text>
<text text-anchor="start" x="351.077" y="-101" font-family="Helvetica,sans-Serif" font-size="10.00">OS/CoActionOS&#45;Applib/include</text>
<text text-anchor="middle" x="420" y="-89" font-family="Helvetica,sans-Serif" font-size="10.00">/LpcPhy.hpp</text>
</a>
</g>
</g>
<!-- Node1&#45;&gt;Node4 -->
<g id="edge3" class="edge"><title>Node1&#45;&gt;Node4</title>
<path fill="none" stroke="midnightblue" d="M302.275,-160.756C325.615,-149.9 352.582,-137.357 374.813,-127.017"/>
<polygon fill="midnightblue" stroke="midnightblue" points="300.782,-157.59 293.191,-164.981 303.734,-163.937 300.782,-157.59"/>
</g>
<!-- Node5 -->
<g id="node5" class="node"><title>Node5</title>
<g id="a_node5"><a xlink:href="_lpc_isp_8hpp_source.html" target="_top" xlink:title="/Users/tgil/git/CoAction\lOS/CoActionOS&#45;Applib/include\l/LpcIsp.hpp">
<polygon fill="none" stroke="black" points="343.077,-1 343.077,-45 496.923,-45 496.923,-1 343.077,-1"/>
<text text-anchor="start" x="351.077" y="-31" font-family="Helvetica,sans-Serif" font-size="10.00">/Users/tgil/git/CoAction</text>
<text text-anchor="start" x="351.077" y="-19" font-family="Helvetica,sans-Serif" font-size="10.00">OS/CoActionOS&#45;Applib/include</text>
<text text-anchor="middle" x="420" y="-7" font-family="Helvetica,sans-Serif" font-size="10.00">/LpcIsp.hpp</text>
</a>
</g>
</g>
<!-- Node4&#45;&gt;Node5 -->
<g id="edge4" class="edge"><title>Node4&#45;&gt;Node5</title>
<path fill="none" stroke="midnightblue" d="M420,-72.8963C420,-63.6094 420,-53.6485 420,-45.1564"/>
<polygon fill="midnightblue" stroke="midnightblue" points="416.5,-72.9809 420,-82.9809 423.5,-72.981 416.5,-72.9809"/>
</g>
</g>
</svg>
