<?xml version="1.0" encoding="UTF-8" standalone="no"?>
<!DOCTYPE svg PUBLIC "-//W3C//DTD SVG 1.1//EN"
 "http://www.w3.org/Graphics/SVG/1.1/DTD/svg11.dtd">
<!-- Generated by graphviz version 2.36.0 (20140111.2315)
 -->
<!-- Title: include/iface/dev/bootloader.h Pages: 1 -->
<svg width="156pt" height="84pt"
 viewBox="0.00 0.00 156.00 84.00" xmlns="http://www.w3.org/2000/svg" xmlns:xlink="http://www.w3.org/1999/xlink">
<g id="graph0" class="graph" transform="scale(1 1) rotate(0) translate(4 80)">
<title>include/iface/dev/bootloader.h</title>
<!-- Node1 -->
<g id="node1" class="node"><title>Node1</title>
<polygon fill="#bfbfbf" stroke="black" points="-0.162109,-57 -0.162109,-75 148.162,-75 148.162,-57 -0.162109,-57"/>
<text text-anchor="middle" x="74" y="-63" font-family="Helvetica,sans-Serif" font-size="10.00">include/iface/dev/bootloader.h</text>
</g>
<!-- Node2 -->
<g id="node2" class="node"><title>Node2</title>
<polygon fill="none" stroke="#bfbfbf" points="12.8794,-1 12.8794,-19 61.1206,-19 61.1206,-1 12.8794,-1"/>
<text text-anchor="middle" x="37" y="-7" font-family="Helvetica,sans-Serif" font-size="10.00">stdint.h</text>
</g>
<!-- Node1&#45;&gt;Node2 -->
<g id="edge1" class="edge"><title>Node1&#45;&gt;Node2</title>
<path fill="none" stroke="midnightblue" d="M68.2188,-56.5625C62.9204,-48.8297 54.9242,-37.1597 48.3511,-27.5665"/>
<polygon fill="midnightblue" stroke="midnightblue" points="51.1591,-25.4725 42.6195,-19.2014 45.3846,-29.4291 51.1591,-25.4725"/>
</g>
<!-- Node3 -->
<g id="node3" class="node"><title>Node3</title>
<polygon fill="none" stroke="#bfbfbf" points="79.2686,-1 79.2686,-19 144.731,-19 144.731,-1 79.2686,-1"/>
<text text-anchor="middle" x="112" y="-7" font-family="Helvetica,sans-Serif" font-size="10.00">mcu/arch.h</text>
</g>
<!-- Node1&#45;&gt;Node3 -->
<g id="edge2" class="edge"><title>Node1&#45;&gt;Node3</title>
<path fill="none" stroke="midnightblue" d="M79.9375,-56.5625C85.3791,-48.8297 93.5913,-37.1597 100.342,-27.5665"/>
<polygon fill="midnightblue" stroke="midnightblue" points="103.336,-29.3938 106.229,-19.2014 97.6113,-25.3653 103.336,-29.3938"/>
</g>
</g>
</svg>
