<?xml version="1.0" encoding="UTF-8" standalone="no"?>
<!DOCTYPE svg PUBLIC "-//W3C//DTD SVG 1.1//EN"
 "http://www.w3.org/Graphics/SVG/1.1/DTD/svg11.dtd">
<!-- Generated by graphviz version 2.34.0 (20130907.0228)
 -->
<!-- Title: Pchar Pages: 1 -->
<svg width="318pt" height="954pt"
 viewBox="0.00 0.00 318.00 954.00" xmlns="http://www.w3.org/2000/svg" xmlns:xlink="http://www.w3.org/1999/xlink">
<g id="graph0" class="graph" transform="scale(1 1) rotate(0) translate(4 950)">
<title>Pchar</title>
<!-- Node1 -->
<g id="node1" class="node"><title>Node1</title>
<polygon fill="#bfbfbf" stroke="black" points="101.627,-449 101.627,-521 162.373,-521 162.373,-449 101.627,-449"/>
<text text-anchor="middle" x="132" y="-507" font-family="Helvetica,sans-Serif" font-size="10.00">Pchar</text>
<polyline fill="none" stroke="black" points="101.627,-501 162.373,-501 "/>
<text text-anchor="middle" x="132" y="-487" font-family="Helvetica,sans-Serif" font-size="10.00"> </text>
<polyline fill="none" stroke="black" points="101.627,-481 162.373,-481 "/>
<text text-anchor="start" x="109.627" y="-467" font-family="Helvetica,sans-Serif" font-size="10.00">+ Pchar()</text>
<text text-anchor="start" x="109.627" y="-455" font-family="Helvetica,sans-Serif" font-size="10.00">+ getline()</text>
</g>
<!-- Node4 -->
<g id="node4" class="node"><title>Node4</title>
<g id="a_node4"><a xlink:href="class_spi.html" target="_top" xlink:title="SPI Class. ">
<polygon fill="none" stroke="black" points="-0.0429688,-237 -0.0429688,-393 74.043,-393 74.043,-237 -0.0429688,-237"/>
<text text-anchor="middle" x="37" y="-379" font-family="Helvetica,sans-Serif" font-size="10.00">Spi</text>
<polyline fill="none" stroke="black" points="-0.0429688,-373 74.043,-373 "/>
<text text-anchor="middle" x="37" y="-359" font-family="Helvetica,sans-Serif" font-size="10.00"> </text>
<polyline fill="none" stroke="black" points="-0.0429688,-353 74.043,-353 "/>
<text text-anchor="start" x="7.95703" y="-339" font-family="Helvetica,sans-Serif" font-size="10.00">+ Spi()</text>
<text text-anchor="start" x="7.95703" y="-327" font-family="Helvetica,sans-Serif" font-size="10.00">+ open()</text>
<text text-anchor="start" x="7.95703" y="-315" font-family="Helvetica,sans-Serif" font-size="10.00">+ getattr()</text>
<text text-anchor="start" x="7.95703" y="-303" font-family="Helvetica,sans-Serif" font-size="10.00">+ setattr()</text>
<text text-anchor="start" x="7.95703" y="-291" font-family="Helvetica,sans-Serif" font-size="10.00">+ swap()</text>
<text text-anchor="start" x="7.95703" y="-279" font-family="Helvetica,sans-Serif" font-size="10.00">+ setduplex()</text>
<text text-anchor="start" x="7.95703" y="-267" font-family="Helvetica,sans-Serif" font-size="10.00">+ setattr()</text>
<text text-anchor="start" x="7.95703" y="-255" font-family="Helvetica,sans-Serif" font-size="10.00">+ init()</text>
<text text-anchor="start" x="7.95703" y="-243" font-family="Helvetica,sans-Serif" font-size="10.00">+ getports()</text>
</a>
</g>
</g>
<!-- Node1&#45;&gt;Node4 -->
<g id="edge3" class="edge"><title>Node1&#45;&gt;Node4</title>
<path fill="none" stroke="midnightblue" d="M100.855,-440.494C94.6762,-431.25 88.4277,-421.431 83,-412 79.4971,-405.913 76.0205,-399.518 72.6397,-393.04"/>
<polygon fill="none" stroke="midnightblue" points="97.9744,-442.482 106.485,-448.793 103.767,-438.552 97.9744,-442.482"/>
</g>
<!-- Node5 -->
<g id="node5" class="node"><title>Node5</title>
<g id="a_node5"><a xlink:href="class_tmr.html" target="_top" xlink:title="Tmr (physcial timer) Class. ">
<polygon fill="none" stroke="black" points="92.1274,-219 92.1274,-411 171.873,-411 171.873,-219 92.1274,-219"/>
<text text-anchor="middle" x="132" y="-397" font-family="Helvetica,sans-Serif" font-size="10.00">Tmr</text>
<polyline fill="none" stroke="black" points="92.1274,-391 171.873,-391 "/>
<text text-anchor="middle" x="132" y="-377" font-family="Helvetica,sans-Serif" font-size="10.00"> </text>
<polyline fill="none" stroke="black" points="92.1274,-371 171.873,-371 "/>
<text text-anchor="start" x="100.127" y="-357" font-family="Helvetica,sans-Serif" font-size="10.00">+ Tmr()</text>
<text text-anchor="start" x="100.127" y="-345" font-family="Helvetica,sans-Serif" font-size="10.00">+ open()</text>
<text text-anchor="start" x="100.127" y="-333" font-family="Helvetica,sans-Serif" font-size="10.00">+ getattr()</text>
<text text-anchor="start" x="100.127" y="-321" font-family="Helvetica,sans-Serif" font-size="10.00">+ setattr()</text>
<text text-anchor="start" x="100.127" y="-309" font-family="Helvetica,sans-Serif" font-size="10.00">+ setaction()</text>
<text text-anchor="start" x="100.127" y="-297" font-family="Helvetica,sans-Serif" font-size="10.00">+ setaction()</text>
<text text-anchor="start" x="100.127" y="-285" font-family="Helvetica,sans-Serif" font-size="10.00">+ on()</text>
<text text-anchor="start" x="100.127" y="-273" font-family="Helvetica,sans-Serif" font-size="10.00">+ off()</text>
<text text-anchor="start" x="100.127" y="-261" font-family="Helvetica,sans-Serif" font-size="10.00">+ setoc()</text>
<text text-anchor="start" x="100.127" y="-249" font-family="Helvetica,sans-Serif" font-size="10.00">+ setoc()</text>
<text text-anchor="start" x="100.127" y="-237" font-family="Helvetica,sans-Serif" font-size="10.00">and 11 more...</text>
<text text-anchor="start" x="100.127" y="-225" font-family="Helvetica,sans-Serif" font-size="10.00">+ getports()</text>
</a>
</g>
</g>
<!-- Node1&#45;&gt;Node5 -->
<g id="edge4" class="edge"><title>Node1&#45;&gt;Node5</title>
<path fill="none" stroke="midnightblue" d="M132,-438.605C132,-429.95 132,-420.596 132,-411.049"/>
<polygon fill="none" stroke="midnightblue" points="128.5,-438.782 132,-448.782 135.5,-438.782 128.5,-438.782"/>
</g>
<!-- Node6 -->
<g id="node6" class="node"><title>Node6</title>
<g id="a_node6"><a xlink:href="class_uart.html" target="_top" xlink:title="UART Class. ">
<polygon fill="none" stroke="black" points="190.294,-237 190.294,-393 257.706,-393 257.706,-237 190.294,-237"/>
<text text-anchor="middle" x="224" y="-379" font-family="Helvetica,sans-Serif" font-size="10.00">Uart</text>
<polyline fill="none" stroke="black" points="190.294,-373 257.706,-373 "/>
<text text-anchor="middle" x="224" y="-359" font-family="Helvetica,sans-Serif" font-size="10.00"> </text>
<polyline fill="none" stroke="black" points="190.294,-353 257.706,-353 "/>
<text text-anchor="start" x="198.294" y="-339" font-family="Helvetica,sans-Serif" font-size="10.00">+ Uart()</text>
<text text-anchor="start" x="198.294" y="-327" font-family="Helvetica,sans-Serif" font-size="10.00">+ open()</text>
<text text-anchor="start" x="198.294" y="-315" font-family="Helvetica,sans-Serif" font-size="10.00">+ getattr()</text>
<text text-anchor="start" x="198.294" y="-303" font-family="Helvetica,sans-Serif" font-size="10.00">+ setattr()</text>
<text text-anchor="start" x="198.294" y="-291" font-family="Helvetica,sans-Serif" font-size="10.00">+ getbyte()</text>
<text text-anchor="start" x="198.294" y="-279" font-family="Helvetica,sans-Serif" font-size="10.00">+ flush()</text>
<text text-anchor="start" x="198.294" y="-267" font-family="Helvetica,sans-Serif" font-size="10.00">+ setattr()</text>
<text text-anchor="start" x="198.294" y="-255" font-family="Helvetica,sans-Serif" font-size="10.00">+ init()</text>
<text text-anchor="start" x="198.294" y="-243" font-family="Helvetica,sans-Serif" font-size="10.00">+ getports()</text>
</a>
</g>
</g>
<!-- Node1&#45;&gt;Node6 -->
<g id="edge5" class="edge"><title>Node1&#45;&gt;Node6</title>
<path fill="none" stroke="midnightblue" d="M162.771,-440.227C168.757,-431.065 174.786,-421.346 180,-412 183.484,-405.756 186.927,-399.186 190.261,-392.535"/>
<polygon fill="none" stroke="midnightblue" points="159.688,-438.542 157.072,-448.809 165.52,-442.414 159.688,-438.542"/>
</g>
<!-- Node2 -->
<g id="node2" class="node"><title>Node2</title>
<g id="a_node2"><a xlink:href="class_periph.html" target="_top" xlink:title="Peripheral Class. ">
<polygon fill="none" stroke="black" points="98.5703,-559 98.5703,-799 165.43,-799 165.43,-559 98.5703,-559"/>
<text text-anchor="middle" x="132" y="-785" font-family="Helvetica,sans-Serif" font-size="10.00">Periph</text>
<polyline fill="none" stroke="black" points="98.5703,-779 165.43,-779 "/>
<text text-anchor="start" x="106.57" y="-765" font-family="Helvetica,sans-Serif" font-size="10.00"># port_</text>
<text text-anchor="start" x="106.57" y="-753" font-family="Helvetica,sans-Serif" font-size="10.00"># fd</text>
<polyline fill="none" stroke="black" points="98.5703,-747 165.43,-747 "/>
<text text-anchor="start" x="106.57" y="-733" font-family="Helvetica,sans-Serif" font-size="10.00">+ Periph()</text>
<text text-anchor="start" x="106.57" y="-721" font-family="Helvetica,sans-Serif" font-size="10.00">+ open()</text>
<text text-anchor="start" x="106.57" y="-709" font-family="Helvetica,sans-Serif" font-size="10.00">+ open()</text>
<text text-anchor="start" x="106.57" y="-697" font-family="Helvetica,sans-Serif" font-size="10.00">+ setflags()</text>
<text text-anchor="start" x="106.57" y="-685" font-family="Helvetica,sans-Serif" font-size="10.00">+ read()</text>
<text text-anchor="start" x="106.57" y="-673" font-family="Helvetica,sans-Serif" font-size="10.00">+ readline()</text>
<text text-anchor="start" x="106.57" y="-661" font-family="Helvetica,sans-Serif" font-size="10.00">+ write()</text>
<text text-anchor="start" x="106.57" y="-649" font-family="Helvetica,sans-Serif" font-size="10.00">+ write()</text>
<text text-anchor="start" x="106.57" y="-637" font-family="Helvetica,sans-Serif" font-size="10.00">+ close()</text>
<text text-anchor="start" x="106.57" y="-625" font-family="Helvetica,sans-Serif" font-size="10.00">+ read()</text>
<text text-anchor="start" x="106.57" y="-613" font-family="Helvetica,sans-Serif" font-size="10.00">+ write()</text>
<text text-anchor="start" x="106.57" y="-601" font-family="Helvetica,sans-Serif" font-size="10.00">+ fileno()</text>
<text text-anchor="start" x="106.57" y="-589" font-family="Helvetica,sans-Serif" font-size="10.00">+ ioctl()</text>
<text text-anchor="start" x="106.57" y="-577" font-family="Helvetica,sans-Serif" font-size="10.00">+ port()</text>
<text text-anchor="start" x="106.57" y="-565" font-family="Helvetica,sans-Serif" font-size="10.00"># _open()</text>
</a>
</g>
</g>
<!-- Node2&#45;&gt;Node1 -->
<g id="edge1" class="edge"><title>Node2&#45;&gt;Node1</title>
<path fill="none" stroke="midnightblue" d="M132,-548.792C132,-538.884 132,-529.514 132,-521.183"/>
<polygon fill="none" stroke="midnightblue" points="128.5,-548.861 132,-558.861 135.5,-548.861 128.5,-548.861"/>
</g>
<!-- Node3 -->
<g id="node3" class="node"><title>Node3</title>
<g id="a_node3"><a xlink:href="class_phy.html" target="_top" xlink:title="Base Applib Class for Physical devices. ">
<polygon fill="none" stroke="black" points="107.469,-837 107.469,-945 156.531,-945 156.531,-837 107.469,-837"/>
<text text-anchor="middle" x="132" y="-931" font-family="Helvetica,sans-Serif" font-size="10.00">Phy</text>
<polyline fill="none" stroke="black" points="107.469,-925 156.531,-925 "/>
<text text-anchor="middle" x="132" y="-911" font-family="Helvetica,sans-Serif" font-size="10.00"> </text>
<polyline fill="none" stroke="black" points="107.469,-905 156.531,-905 "/>
<text text-anchor="start" x="115.469" y="-891" font-family="Helvetica,sans-Serif" font-size="10.00">+ Phy()</text>
<text text-anchor="start" x="115.469" y="-879" font-family="Helvetica,sans-Serif" font-size="10.00">+ ioctl()</text>
<text text-anchor="start" x="115.469" y="-867" font-family="Helvetica,sans-Serif" font-size="10.00">+ ioctl()</text>
<text text-anchor="start" x="115.469" y="-855" font-family="Helvetica,sans-Serif" font-size="10.00">+ ioctl()</text>
<text text-anchor="start" x="115.469" y="-843" font-family="Helvetica,sans-Serif" font-size="10.00">+ ioctl()</text>
</a>
</g>
</g>
<!-- Node3&#45;&gt;Node2 -->
<g id="edge2" class="edge"><title>Node3&#45;&gt;Node2</title>
<path fill="none" stroke="midnightblue" d="M132,-826.643C132,-817.847 132,-808.586 132,-799.17"/>
<polygon fill="none" stroke="midnightblue" points="128.5,-826.737 132,-836.737 135.5,-826.737 128.5,-826.737"/>
</g>
<!-- Node7 -->
<g id="node7" class="node"><title>Node7</title>
<g id="a_node7"><a xlink:href="class_brsp.html" target="_top" xlink:title="BRSP class (bluetooth low energy serial protocol) ">
<polygon fill="none" stroke="black" points="136.759,-1 136.759,-181 217.241,-181 217.241,-1 136.759,-1"/>
<text text-anchor="middle" x="177" y="-167" font-family="Helvetica,sans-Serif" font-size="10.00">Brsp</text>
<polyline fill="none" stroke="black" points="136.759,-161 217.241,-161 "/>
<text text-anchor="middle" x="177" y="-147" font-family="Helvetica,sans-Serif" font-size="10.00"> </text>
<polyline fill="none" stroke="black" points="136.759,-141 217.241,-141 "/>
<text text-anchor="start" x="144.759" y="-127" font-family="Helvetica,sans-Serif" font-size="10.00">+ Brsp()</text>
<text text-anchor="start" x="144.759" y="-115" font-family="Helvetica,sans-Serif" font-size="10.00">+ settimeout()</text>
<text text-anchor="start" x="144.759" y="-103" font-family="Helvetica,sans-Serif" font-size="10.00">+ setuart()</text>
<text text-anchor="start" x="144.759" y="-91" font-family="Helvetica,sans-Serif" font-size="10.00">+ setmode()</text>
<text text-anchor="start" x="144.759" y="-79" font-family="Helvetica,sans-Serif" font-size="10.00">+ discover()</text>
<text text-anchor="start" x="144.759" y="-67" font-family="Helvetica,sans-Serif" font-size="10.00">+ connect()</text>
<text text-anchor="start" x="144.759" y="-55" font-family="Helvetica,sans-Serif" font-size="10.00">+ disconnect()</text>
<text text-anchor="start" x="144.759" y="-43" font-family="Helvetica,sans-Serif" font-size="10.00">+ paired()</text>
<text text-anchor="start" x="144.759" y="-31" font-family="Helvetica,sans-Serif" font-size="10.00">+ name()</text>
<text text-anchor="start" x="144.759" y="-19" font-family="Helvetica,sans-Serif" font-size="10.00">+ version()</text>
<text text-anchor="start" x="144.759" y="-7" font-family="Helvetica,sans-Serif" font-size="10.00">and 15 more...</text>
</a>
</g>
</g>
<!-- Node6&#45;&gt;Node7 -->
<g id="edge6" class="edge"><title>Node6&#45;&gt;Node7</title>
<path fill="none" stroke="midnightblue" d="M205.611,-227.141C202.409,-212.015 199.073,-196.261 195.859,-181.077"/>
<polygon fill="none" stroke="midnightblue" points="202.198,-227.92 207.694,-236.978 209.046,-226.47 202.198,-227.92"/>
</g>
<!-- Node8 -->
<g id="node8" class="node"><title>Node8</title>
<g id="a_node8"><a xlink:href="class_dbug_uart.html" target="_top" xlink:title="Debug UART Class. ">
<polygon fill="none" stroke="black" points="234.962,-37 234.962,-145 309.038,-145 309.038,-37 234.962,-37"/>
<text text-anchor="middle" x="272" y="-131" font-family="Helvetica,sans-Serif" font-size="10.00">DbugUart</text>
<polyline fill="none" stroke="black" points="234.962,-125 309.038,-125 "/>
<text text-anchor="middle" x="272" y="-111" font-family="Helvetica,sans-Serif" font-size="10.00"> </text>
<polyline fill="none" stroke="black" points="234.962,-105 309.038,-105 "/>
<text text-anchor="start" x="242.962" y="-91" font-family="Helvetica,sans-Serif" font-size="10.00">+ DbugUart()</text>
<text text-anchor="start" x="242.962" y="-79" font-family="Helvetica,sans-Serif" font-size="10.00">+ open()</text>
<text text-anchor="start" x="242.962" y="-67" font-family="Helvetica,sans-Serif" font-size="10.00">+ close()</text>
<text text-anchor="start" x="242.962" y="-55" font-family="Helvetica,sans-Serif" font-size="10.00">+ read()</text>
<text text-anchor="start" x="242.962" y="-43" font-family="Helvetica,sans-Serif" font-size="10.00">+ write()</text>
</a>
</g>
</g>
<!-- Node6&#45;&gt;Node8 -->
<g id="edge7" class="edge"><title>Node6&#45;&gt;Node8</title>
<path fill="none" stroke="midnightblue" d="M242.83,-226.913C248.799,-199.303 255.217,-169.62 260.509,-145.146"/>
<polygon fill="none" stroke="midnightblue" points="239.346,-226.464 240.653,-236.978 246.188,-227.944 239.346,-226.464"/>
</g>
</g>
</svg>
