<?xml version="1.0" encoding="UTF-8" standalone="no"?>
<!DOCTYPE svg PUBLIC "-//W3C//DTD SVG 1.1//EN"
 "http://www.w3.org/Graphics/SVG/1.1/DTD/svg11.dtd">
<!-- Generated by graphviz version 2.34.0 (20130907.0228)
 -->
<!-- Title: Font Pages: 1 -->
<svg width="110pt" height="386pt"
 viewBox="0.00 0.00 110.00 386.00" xmlns="http://www.w3.org/2000/svg" xmlns:xlink="http://www.w3.org/1999/xlink">
<g id="graph0" class="graph" transform="scale(1 1) rotate(0) translate(4 382)">
<title>Font</title>
<!-- Node1 -->
<g id="node1" class="node"><title>Node1</title>
<polygon fill="#bfbfbf" stroke="black" points="12.1528,-281 12.1528,-377 89.8472,-377 89.8472,-281 12.1528,-281"/>
<text text-anchor="middle" x="51" y="-363" font-family="Helvetica,sans-Serif" font-size="10.00">Font</text>
<polyline fill="none" stroke="black" points="12.1528,-357 89.8472,-357 "/>
<text text-anchor="middle" x="51" y="-343" font-family="Helvetica,sans-Serif" font-size="10.00"> </text>
<polyline fill="none" stroke="black" points="12.1528,-337 89.8472,-337 "/>
<text text-anchor="start" x="20.1528" y="-323" font-family="Helvetica,sans-Serif" font-size="10.00">+ Font()</text>
<text text-anchor="start" x="20.1528" y="-311" font-family="Helvetica,sans-Serif" font-size="10.00">+ len()</text>
<text text-anchor="start" x="20.1528" y="-299" font-family="Helvetica,sans-Serif" font-size="10.00">+ charset()</text>
<text text-anchor="start" x="20.1528" y="-287" font-family="Helvetica,sans-Serif" font-size="10.00"># to_charset()</text>
</g>
<!-- Node2 -->
<g id="node2" class="node"><title>Node2</title>
<g id="a_node2"><a xlink:href="class_m_font.html" target="_top" xlink:title="Monochrome Font. ">
<polygon fill="none" stroke="black" points="21.1909,-171 21.1909,-243 80.8091,-243 80.8091,-171 21.1909,-171"/>
<text text-anchor="middle" x="51" y="-229" font-family="Helvetica,sans-Serif" font-size="10.00">MFont</text>
<polyline fill="none" stroke="black" points="21.1909,-223 80.8091,-223 "/>
<text text-anchor="middle" x="51" y="-209" font-family="Helvetica,sans-Serif" font-size="10.00"> </text>
<polyline fill="none" stroke="black" points="21.1909,-203 80.8091,-203 "/>
<text text-anchor="start" x="29.1909" y="-189" font-family="Helvetica,sans-Serif" font-size="10.00">+ MFont()</text>
<text text-anchor="start" x="29.1909" y="-177" font-family="Helvetica,sans-Serif" font-size="10.00">+ len()</text>
</a>
</g>
</g>
<!-- Node1&#45;&gt;Node2 -->
<g id="edge1" class="edge"><title>Node1&#45;&gt;Node2</title>
<path fill="none" stroke="midnightblue" d="M51,-270.746C51,-261.299 51,-251.761 51,-243.072"/>
<polygon fill="none" stroke="midnightblue" points="47.5001,-270.917 51,-280.917 54.5001,-270.917 47.5001,-270.917"/>
</g>
<!-- Node3 -->
<g id="node3" class="node"><title>Node3</title>
<g id="a_node3"><a xlink:href="class_m_b_font.html" target="_top" xlink:title="Monochrome Bitmap Font class. ">
<polygon fill="none" stroke="black" points="-0.769531,-1 -0.769531,-133 102.77,-133 102.77,-1 -0.769531,-1"/>
<text text-anchor="middle" x="51" y="-119" font-family="Helvetica,sans-Serif" font-size="10.00">MBFont</text>
<polyline fill="none" stroke="black" points="-0.769531,-113 102.77,-113 "/>
<text text-anchor="middle" x="51" y="-99" font-family="Helvetica,sans-Serif" font-size="10.00"> </text>
<polyline fill="none" stroke="black" points="-0.769531,-93 102.77,-93 "/>
<text text-anchor="start" x="7.23047" y="-79" font-family="Helvetica,sans-Serif" font-size="10.00">+ MBFont()</text>
<text text-anchor="start" x="7.23047" y="-67" font-family="Helvetica,sans-Serif" font-size="10.00">+ MBFont()</text>
<text text-anchor="start" x="7.23047" y="-55" font-family="Helvetica,sans-Serif" font-size="10.00">+ ~MBFont()</text>
<text text-anchor="start" x="7.23047" y="-43" font-family="Helvetica,sans-Serif" font-size="10.00">+ max_byte_width()</text>
<text text-anchor="start" x="7.23047" y="-31" font-family="Helvetica,sans-Serif" font-size="10.00">+ max_height()</text>
<text text-anchor="start" x="7.23047" y="-19" font-family="Helvetica,sans-Serif" font-size="10.00">+ bitmap()</text>
<text text-anchor="start" x="7.23047" y="-7" font-family="Helvetica,sans-Serif" font-size="10.00">+ len()</text>
</a>
</g>
</g>
<!-- Node2&#45;&gt;Node3 -->
<g id="edge2" class="edge"><title>Node2&#45;&gt;Node3</title>
<path fill="none" stroke="midnightblue" d="M51,-160.763C51,-151.93 51,-142.505 51,-133.174"/>
<polygon fill="none" stroke="midnightblue" points="47.5001,-160.82 51,-170.82 54.5001,-160.82 47.5001,-160.82"/>
</g>
</g>
</svg>
