<?xml version="1.0" encoding="UTF-8" standalone="no"?>
<!DOCTYPE svg PUBLIC "-//W3C//DTD SVG 1.1//EN"
 "http://www.w3.org/Graphics/SVG/1.1/DTD/svg11.dtd">
<!-- Generated by graphviz version 2.34.0 (20130907.0228)
 -->
<!-- Title: StringSmall Pages: 1 -->
<svg width="132pt" height="470pt"
 viewBox="0.00 0.00 132.00 470.00" xmlns="http://www.w3.org/2000/svg" xmlns:xlink="http://www.w3.org/1999/xlink">
<g id="graph0" class="graph" transform="scale(1 1) rotate(0) translate(4 466)">
<title>StringSmall</title>
<!-- Node1 -->
<g id="node1" class="node"><title>Node1</title>
<polygon fill="#bfbfbf" stroke="black" points="20.7969,-1 20.7969,-85 103.203,-85 103.203,-1 20.7969,-1"/>
<text text-anchor="middle" x="62" y="-71" font-family="Helvetica,sans-Serif" font-size="10.00">StringSmall</text>
<polyline fill="none" stroke="black" points="20.7969,-65 103.203,-65 "/>
<text text-anchor="middle" x="62" y="-51" font-family="Helvetica,sans-Serif" font-size="10.00"> </text>
<polyline fill="none" stroke="black" points="20.7969,-45 103.203,-45 "/>
<text text-anchor="start" x="28.7969" y="-31" font-family="Helvetica,sans-Serif" font-size="10.00">+ StringSmall()</text>
<text text-anchor="start" x="28.7969" y="-19" font-family="Helvetica,sans-Serif" font-size="10.00">+ StringSmall()</text>
<text text-anchor="start" x="28.7969" y="-7" font-family="Helvetica,sans-Serif" font-size="10.00">+ StringSmall()</text>
</g>
<!-- Node2 -->
<g id="node2" class="node"><title>Node2</title>
<g id="a_node2"><a xlink:href="class_string_static.html" target="_top" xlink:title="{StringStatic\&lt; 32 \&gt;\n||+ StringStatic()\l+ StringStatic()\l+ StringStatic()\l+ c_str()\l+ data()\l+ capacity()\l}">
<polygon fill="none" stroke="black" points="14.2539,-123 14.2539,-243 109.746,-243 109.746,-123 14.2539,-123"/>
<text text-anchor="middle" x="62" y="-229" font-family="Helvetica,sans-Serif" font-size="10.00">StringStatic&lt; 32 &gt;</text>
<polyline fill="none" stroke="black" points="14.2539,-223 109.746,-223 "/>
<text text-anchor="middle" x="62" y="-209" font-family="Helvetica,sans-Serif" font-size="10.00"> </text>
<polyline fill="none" stroke="black" points="14.2539,-203 109.746,-203 "/>
<text text-anchor="start" x="22.2539" y="-189" font-family="Helvetica,sans-Serif" font-size="10.00">+ StringStatic()</text>
<text text-anchor="start" x="22.2539" y="-177" font-family="Helvetica,sans-Serif" font-size="10.00">+ StringStatic()</text>
<text text-anchor="start" x="22.2539" y="-165" font-family="Helvetica,sans-Serif" font-size="10.00">+ StringStatic()</text>
<text text-anchor="start" x="22.2539" y="-153" font-family="Helvetica,sans-Serif" font-size="10.00">+ c_str()</text>
<text text-anchor="start" x="22.2539" y="-141" font-family="Helvetica,sans-Serif" font-size="10.00">+ data()</text>
<text text-anchor="start" x="22.2539" y="-129" font-family="Helvetica,sans-Serif" font-size="10.00">+ capacity()</text>
</a>
</g>
</g>
<!-- Node2&#45;&gt;Node1 -->
<g id="edge1" class="edge"><title>Node2&#45;&gt;Node1</title>
<path fill="none" stroke="midnightblue" d="M62,-112.602C62,-103.293 62,-93.9931 62,-85.3812"/>
<polygon fill="none" stroke="midnightblue" points="58.5001,-112.675 62,-122.675 65.5001,-112.675 58.5001,-112.675"/>
</g>
<!-- Node3 -->
<g id="node3" class="node"><title>Node3</title>
<g id="a_node3"><a xlink:href="class_string.html" target="_top" xlink:title="String class. ">
<polygon fill="none" stroke="black" points="-0.0527344,-281 -0.0527344,-461 124.053,-461 124.053,-281 -0.0527344,-281"/>
<text text-anchor="middle" x="62" y="-447" font-family="Helvetica,sans-Serif" font-size="10.00">String</text>
<polyline fill="none" stroke="black" points="-0.0527344,-441 124.053,-441 "/>
<text text-anchor="middle" x="62" y="-427" font-family="Helvetica,sans-Serif" font-size="10.00"> </text>
<polyline fill="none" stroke="black" points="-0.0527344,-421 124.053,-421 "/>
<text text-anchor="start" x="7.94727" y="-407" font-family="Helvetica,sans-Serif" font-size="10.00">+ String()</text>
<text text-anchor="start" x="7.94727" y="-395" font-family="Helvetica,sans-Serif" font-size="10.00">+ String()</text>
<text text-anchor="start" x="7.94727" y="-383" font-family="Helvetica,sans-Serif" font-size="10.00">+ String()</text>
<text text-anchor="start" x="7.94727" y="-371" font-family="Helvetica,sans-Serif" font-size="10.00">+ setformat()</text>
<text text-anchor="start" x="7.94727" y="-359" font-family="Helvetica,sans-Serif" font-size="10.00">+ operator const char *()</text>
<text text-anchor="start" x="7.94727" y="-347" font-family="Helvetica,sans-Serif" font-size="10.00">+ operator&lt;&lt;()</text>
<text text-anchor="start" x="7.94727" y="-335" font-family="Helvetica,sans-Serif" font-size="10.00">+ operator&lt;&lt;()</text>
<text text-anchor="start" x="7.94727" y="-323" font-family="Helvetica,sans-Serif" font-size="10.00">+ operator&lt;&lt;()</text>
<text text-anchor="start" x="7.94727" y="-311" font-family="Helvetica,sans-Serif" font-size="10.00">+ operator&lt;&lt;()</text>
<text text-anchor="start" x="7.94727" y="-299" font-family="Helvetica,sans-Serif" font-size="10.00">+ operator&lt;&lt;()</text>
<text text-anchor="start" x="7.94727" y="-287" font-family="Helvetica,sans-Serif" font-size="10.00">and 33 more...</text>
</a>
</g>
</g>
<!-- Node3&#45;&gt;Node2 -->
<g id="edge2" class="edge"><title>Node3&#45;&gt;Node2</title>
<path fill="none" stroke="midnightblue" d="M62,-270.633C62,-261.265 62,-251.984 62,-243.172"/>
<polygon fill="none" stroke="midnightblue" points="58.5001,-270.813 62,-280.814 65.5001,-270.814 58.5001,-270.813"/>
</g>
</g>
</svg>
