<?xml version="1.0" encoding="UTF-8" standalone="no"?>
<!DOCTYPE svg PUBLIC "-//W3C//DTD SVG 1.1//EN"
 "http://www.w3.org/Graphics/SVG/1.1/DTD/svg11.dtd">
<!-- Generated by graphviz version 2.34.0 (20130907.0228)
 -->
<!-- Title: Dsp::Ema_u16 Pages: 1 -->
<svg width="112pt" height="216pt"
 viewBox="0.00 0.00 112.00 216.00" xmlns="http://www.w3.org/2000/svg" xmlns:xlink="http://www.w3.org/1999/xlink">
<g id="graph0" class="graph" transform="scale(1 1) rotate(0) translate(4 212)">
<title>Dsp::Ema_u16</title>
<!-- Node1 -->
<g id="node1" class="node"><title>Node1</title>
<polygon fill="#bfbfbf" stroke="black" points="10.9263,-1 10.9263,-61 93.0737,-61 93.0737,-1 10.9263,-1"/>
<text text-anchor="middle" x="52" y="-47" font-family="Helvetica,sans-Serif" font-size="10.00">Dsp::Ema_u16</text>
<polyline fill="none" stroke="black" points="10.9263,-41 93.0737,-41 "/>
<text text-anchor="middle" x="52" y="-27" font-family="Helvetica,sans-Serif" font-size="10.00"> </text>
<polyline fill="none" stroke="black" points="10.9263,-21 93.0737,-21 "/>
<text text-anchor="start" x="18.9263" y="-7" font-family="Helvetica,sans-Serif" font-size="10.00">+ Ema_u16()</text>
</g>
<!-- Node2 -->
<g id="node2" class="node"><title>Node2</title>
<g id="a_node2"><a xlink:href="class_dsp_1_1_ema.html" target="_top" xlink:title="{Dsp::Ema\&lt; uint8_t,\l uint16_t, uint32_t \&gt;\n||+ Ema()\l+ small_max()\l+ calc()\l+ avg()\l}">
<polygon fill="none" stroke="black" points="-0.0625,-99 -0.0625,-207 104.062,-207 104.062,-99 -0.0625,-99"/>
<text text-anchor="start" x="7.9375" y="-193" font-family="Helvetica,sans-Serif" font-size="10.00">Dsp::Ema&lt; uint8_t,</text>
<text text-anchor="middle" x="52" y="-181" font-family="Helvetica,sans-Serif" font-size="10.00"> uint16_t, uint32_t &gt;</text>
<polyline fill="none" stroke="black" points="-0.0625,-175 104.062,-175 "/>
<text text-anchor="middle" x="52" y="-161" font-family="Helvetica,sans-Serif" font-size="10.00"> </text>
<polyline fill="none" stroke="black" points="-0.0625,-155 104.062,-155 "/>
<text text-anchor="start" x="7.9375" y="-141" font-family="Helvetica,sans-Serif" font-size="10.00">+ Ema()</text>
<text text-anchor="start" x="7.9375" y="-129" font-family="Helvetica,sans-Serif" font-size="10.00">+ small_max()</text>
<text text-anchor="start" x="7.9375" y="-117" font-family="Helvetica,sans-Serif" font-size="10.00">+ calc()</text>
<text text-anchor="start" x="7.9375" y="-105" font-family="Helvetica,sans-Serif" font-size="10.00">+ avg()</text>
</a>
</g>
</g>
<!-- Node2&#45;&gt;Node1 -->
<g id="edge1" class="edge"><title>Node2&#45;&gt;Node1</title>
<path fill="none" stroke="midnightblue" d="M52,-88.6527C52,-79.0427 52,-69.5476 52,-61.1575"/>
<polygon fill="none" stroke="midnightblue" points="48.5001,-88.6674 52,-98.6674 55.5001,-88.6675 48.5001,-88.6674"/>
</g>
</g>
</svg>
