<?xml version="1.0" encoding="UTF-8" standalone="no"?>
<!DOCTYPE svg PUBLIC "-//W3C//DTD SVG 1.1//EN"
 "http://www.w3.org/Graphics/SVG/1.1/DTD/svg11.dtd">
<!-- Generated by graphviz version 2.34.0 (20130907.0228)
 -->
<!-- Title: Usb Pages: 1 -->
<svg width="92pt" height="796pt"
 viewBox="0.00 0.00 92.00 796.00" xmlns="http://www.w3.org/2000/svg" xmlns:xlink="http://www.w3.org/1999/xlink">
<g id="graph0" class="graph" transform="scale(1 1) rotate(0) translate(4 792)">
<title>Usb</title>
<!-- Node1 -->
<g id="node1" class="node"><title>Node1</title>
<polygon fill="#bfbfbf" stroke="black" points="-0.32373,-1 -0.32373,-241 84.3237,-241 84.3237,-1 -0.32373,-1"/>
<text text-anchor="middle" x="42" y="-227" font-family="Helvetica,sans-Serif" font-size="10.00">Usb</text>
<polyline fill="none" stroke="black" points="-0.32373,-221 84.3237,-221 "/>
<text text-anchor="middle" x="42" y="-207" font-family="Helvetica,sans-Serif" font-size="10.00"> </text>
<polyline fill="none" stroke="black" points="-0.32373,-201 84.3237,-201 "/>
<text text-anchor="start" x="7.67627" y="-187" font-family="Helvetica,sans-Serif" font-size="10.00">+ Usb()</text>
<text text-anchor="start" x="7.67627" y="-175" font-family="Helvetica,sans-Serif" font-size="10.00">+ open()</text>
<text text-anchor="start" x="7.67627" y="-163" font-family="Helvetica,sans-Serif" font-size="10.00">+ getattr()</text>
<text text-anchor="start" x="7.67627" y="-151" font-family="Helvetica,sans-Serif" font-size="10.00">+ setattr()</text>
<text text-anchor="start" x="7.67627" y="-139" font-family="Helvetica,sans-Serif" font-size="10.00">+ reset()</text>
<text text-anchor="start" x="7.67627" y="-127" font-family="Helvetica,sans-Serif" font-size="10.00">+ attach()</text>
<text text-anchor="start" x="7.67627" y="-115" font-family="Helvetica,sans-Serif" font-size="10.00">+ configure()</text>
<text text-anchor="start" x="7.67627" y="-103" font-family="Helvetica,sans-Serif" font-size="10.00">+ detach()</text>
<text text-anchor="start" x="7.67627" y="-91" font-family="Helvetica,sans-Serif" font-size="10.00">+ disableep()</text>
<text text-anchor="start" x="7.67627" y="-79" font-family="Helvetica,sans-Serif" font-size="10.00">+ enableep()</text>
<text text-anchor="start" x="7.67627" y="-67" font-family="Helvetica,sans-Serif" font-size="10.00">+ isconnected()</text>
<text text-anchor="start" x="7.67627" y="-55" font-family="Helvetica,sans-Serif" font-size="10.00">+ resetep()</text>
<text text-anchor="start" x="7.67627" y="-43" font-family="Helvetica,sans-Serif" font-size="10.00">+ setaddr()</text>
<text text-anchor="start" x="7.67627" y="-31" font-family="Helvetica,sans-Serif" font-size="10.00">+ stallep()</text>
<text text-anchor="start" x="7.67627" y="-19" font-family="Helvetica,sans-Serif" font-size="10.00">+ unstallep()</text>
<text text-anchor="start" x="7.67627" y="-7" font-family="Helvetica,sans-Serif" font-size="10.00">+ getports()</text>
</g>
<!-- Node2 -->
<g id="node2" class="node"><title>Node2</title>
<g id="a_node2"><a xlink:href="class_pblock.html" target="_top" xlink:title="Peripheral Block Class. ">
<polygon fill="none" stroke="black" points="11.3535,-279 11.3535,-363 72.6465,-363 72.6465,-279 11.3535,-279"/>
<text text-anchor="middle" x="42" y="-349" font-family="Helvetica,sans-Serif" font-size="10.00">Pblock</text>
<polyline fill="none" stroke="black" points="11.3535,-343 72.6465,-343 "/>
<text text-anchor="middle" x="42" y="-329" font-family="Helvetica,sans-Serif" font-size="10.00"> </text>
<polyline fill="none" stroke="black" points="11.3535,-323 72.6465,-323 "/>
<text text-anchor="start" x="19.3535" y="-309" font-family="Helvetica,sans-Serif" font-size="10.00">+ Pblock()</text>
<text text-anchor="start" x="19.3535" y="-297" font-family="Helvetica,sans-Serif" font-size="10.00">+ read()</text>
<text text-anchor="start" x="19.3535" y="-285" font-family="Helvetica,sans-Serif" font-size="10.00">+ write()</text>
</a>
</g>
</g>
<!-- Node2&#45;&gt;Node1 -->
<g id="edge1" class="edge"><title>Node2&#45;&gt;Node1</title>
<path fill="none" stroke="midnightblue" d="M42,-268.785C42,-260.151 42,-250.88 42,-241.345"/>
<polygon fill="none" stroke="midnightblue" points="38.5001,-268.974 42,-278.974 45.5001,-268.974 38.5001,-268.974"/>
</g>
<!-- Node3 -->
<g id="node3" class="node"><title>Node3</title>
<g id="a_node3"><a xlink:href="class_periph.html" target="_top" xlink:title="Peripheral Class. ">
<polygon fill="none" stroke="black" points="8.57031,-401 8.57031,-641 75.4297,-641 75.4297,-401 8.57031,-401"/>
<text text-anchor="middle" x="42" y="-627" font-family="Helvetica,sans-Serif" font-size="10.00">Periph</text>
<polyline fill="none" stroke="black" points="8.57031,-621 75.4297,-621 "/>
<text text-anchor="start" x="16.5703" y="-607" font-family="Helvetica,sans-Serif" font-size="10.00"># port_</text>
<text text-anchor="start" x="16.5703" y="-595" font-family="Helvetica,sans-Serif" font-size="10.00"># fd</text>
<polyline fill="none" stroke="black" points="8.57031,-589 75.4297,-589 "/>
<text text-anchor="start" x="16.5703" y="-575" font-family="Helvetica,sans-Serif" font-size="10.00">+ Periph()</text>
<text text-anchor="start" x="16.5703" y="-563" font-family="Helvetica,sans-Serif" font-size="10.00">+ open()</text>
<text text-anchor="start" x="16.5703" y="-551" font-family="Helvetica,sans-Serif" font-size="10.00">+ open()</text>
<text text-anchor="start" x="16.5703" y="-539" font-family="Helvetica,sans-Serif" font-size="10.00">+ setflags()</text>
<text text-anchor="start" x="16.5703" y="-527" font-family="Helvetica,sans-Serif" font-size="10.00">+ read()</text>
<text text-anchor="start" x="16.5703" y="-515" font-family="Helvetica,sans-Serif" font-size="10.00">+ readline()</text>
<text text-anchor="start" x="16.5703" y="-503" font-family="Helvetica,sans-Serif" font-size="10.00">+ write()</text>
<text text-anchor="start" x="16.5703" y="-491" font-family="Helvetica,sans-Serif" font-size="10.00">+ write()</text>
<text text-anchor="start" x="16.5703" y="-479" font-family="Helvetica,sans-Serif" font-size="10.00">+ close()</text>
<text text-anchor="start" x="16.5703" y="-467" font-family="Helvetica,sans-Serif" font-size="10.00">+ read()</text>
<text text-anchor="start" x="16.5703" y="-455" font-family="Helvetica,sans-Serif" font-size="10.00">+ write()</text>
<text text-anchor="start" x="16.5703" y="-443" font-family="Helvetica,sans-Serif" font-size="10.00">+ fileno()</text>
<text text-anchor="start" x="16.5703" y="-431" font-family="Helvetica,sans-Serif" font-size="10.00">+ ioctl()</text>
<text text-anchor="start" x="16.5703" y="-419" font-family="Helvetica,sans-Serif" font-size="10.00">+ port()</text>
<text text-anchor="start" x="16.5703" y="-407" font-family="Helvetica,sans-Serif" font-size="10.00"># _open()</text>
</a>
</g>
</g>
<!-- Node3&#45;&gt;Node2 -->
<g id="edge2" class="edge"><title>Node3&#45;&gt;Node2</title>
<path fill="none" stroke="midnightblue" d="M42,-390.556C42,-380.837 42,-371.551 42,-363.127"/>
<polygon fill="none" stroke="midnightblue" points="38.5001,-390.824 42,-400.824 45.5001,-390.824 38.5001,-390.824"/>
</g>
<!-- Node4 -->
<g id="node4" class="node"><title>Node4</title>
<g id="a_node4"><a xlink:href="class_phy.html" target="_top" xlink:title="Base Applib Class for Physical devices. ">
<polygon fill="none" stroke="black" points="17.4692,-679 17.4692,-787 66.5308,-787 66.5308,-679 17.4692,-679"/>
<text text-anchor="middle" x="42" y="-773" font-family="Helvetica,sans-Serif" font-size="10.00">Phy</text>
<polyline fill="none" stroke="black" points="17.4692,-767 66.5308,-767 "/>
<text text-anchor="middle" x="42" y="-753" font-family="Helvetica,sans-Serif" font-size="10.00"> </text>
<polyline fill="none" stroke="black" points="17.4692,-747 66.5308,-747 "/>
<text text-anchor="start" x="25.4692" y="-733" font-family="Helvetica,sans-Serif" font-size="10.00">+ Phy()</text>
<text text-anchor="start" x="25.4692" y="-721" font-family="Helvetica,sans-Serif" font-size="10.00">+ ioctl()</text>
<text text-anchor="start" x="25.4692" y="-709" font-family="Helvetica,sans-Serif" font-size="10.00">+ ioctl()</text>
<text text-anchor="start" x="25.4692" y="-697" font-family="Helvetica,sans-Serif" font-size="10.00">+ ioctl()</text>
<text text-anchor="start" x="25.4692" y="-685" font-family="Helvetica,sans-Serif" font-size="10.00">+ ioctl()</text>
</a>
</g>
</g>
<!-- Node4&#45;&gt;Node3 -->
<g id="edge3" class="edge"><title>Node4&#45;&gt;Node3</title>
<path fill="none" stroke="midnightblue" d="M42,-668.643C42,-659.847 42,-650.586 42,-641.17"/>
<polygon fill="none" stroke="midnightblue" points="38.5001,-668.737 42,-678.737 45.5001,-668.737 38.5001,-668.737"/>
</g>
</g>
</svg>
