<?xml version="1.0" encoding="UTF-8" standalone="no"?>
<!DOCTYPE svg PUBLIC "-//W3C//DTD SVG 1.1//EN"
 "http://www.w3.org/Graphics/SVG/1.1/DTD/svg11.dtd">
<!-- Generated by graphviz version 2.34.0 (20130907.0228)
 -->
<!-- Title: String Pages: 1 -->
<svg width="703pt" height="470pt"
 viewBox="0.00 0.00 703.00 470.00" xmlns="http://www.w3.org/2000/svg" xmlns:xlink="http://www.w3.org/1999/xlink">
<g id="graph0" class="graph" transform="scale(1 1) rotate(0) translate(4 466)">
<title>String</title>
<!-- Node1 -->
<g id="node1" class="node"><title>Node1</title>
<polygon fill="#bfbfbf" stroke="black" points="301.947,-281 301.947,-461 426.053,-461 426.053,-281 301.947,-281"/>
<text text-anchor="middle" x="364" y="-447" font-family="Helvetica,sans-Serif" font-size="10.00">String</text>
<polyline fill="none" stroke="black" points="301.947,-441 426.053,-441 "/>
<text text-anchor="middle" x="364" y="-427" font-family="Helvetica,sans-Serif" font-size="10.00"> </text>
<polyline fill="none" stroke="black" points="301.947,-421 426.053,-421 "/>
<text text-anchor="start" x="309.947" y="-407" font-family="Helvetica,sans-Serif" font-size="10.00">+ String()</text>
<text text-anchor="start" x="309.947" y="-395" font-family="Helvetica,sans-Serif" font-size="10.00">+ String()</text>
<text text-anchor="start" x="309.947" y="-383" font-family="Helvetica,sans-Serif" font-size="10.00">+ String()</text>
<text text-anchor="start" x="309.947" y="-371" font-family="Helvetica,sans-Serif" font-size="10.00">+ setformat()</text>
<text text-anchor="start" x="309.947" y="-359" font-family="Helvetica,sans-Serif" font-size="10.00">+ operator const char *()</text>
<text text-anchor="start" x="309.947" y="-347" font-family="Helvetica,sans-Serif" font-size="10.00">+ operator&lt;&lt;()</text>
<text text-anchor="start" x="309.947" y="-335" font-family="Helvetica,sans-Serif" font-size="10.00">+ operator&lt;&lt;()</text>
<text text-anchor="start" x="309.947" y="-323" font-family="Helvetica,sans-Serif" font-size="10.00">+ operator&lt;&lt;()</text>
<text text-anchor="start" x="309.947" y="-311" font-family="Helvetica,sans-Serif" font-size="10.00">+ operator&lt;&lt;()</text>
<text text-anchor="start" x="309.947" y="-299" font-family="Helvetica,sans-Serif" font-size="10.00">+ operator&lt;&lt;()</text>
<text text-anchor="start" x="309.947" y="-287" font-family="Helvetica,sans-Serif" font-size="10.00">and 33 more...</text>
</g>
<!-- Node2 -->
<g id="node2" class="node"><title>Node2</title>
<g id="a_node2"><a xlink:href="class_string_static.html" target="_top" xlink:title="Static String Template Class. ">
<polygon fill="none" stroke="black" points="-0.467773,-123 -0.467773,-243 124.468,-243 124.468,-123 -0.467773,-123"/>
<text text-anchor="middle" x="62" y="-229" font-family="Helvetica,sans-Serif" font-size="10.00">StringStatic&lt; arraysize &gt;</text>
<polyline fill="none" stroke="black" points="-0.467773,-223 124.468,-223 "/>
<text text-anchor="middle" x="62" y="-209" font-family="Helvetica,sans-Serif" font-size="10.00"> </text>
<polyline fill="none" stroke="black" points="-0.467773,-203 124.468,-203 "/>
<text text-anchor="start" x="7.53223" y="-189" font-family="Helvetica,sans-Serif" font-size="10.00">+ StringStatic()</text>
<text text-anchor="start" x="7.53223" y="-177" font-family="Helvetica,sans-Serif" font-size="10.00">+ StringStatic()</text>
<text text-anchor="start" x="7.53223" y="-165" font-family="Helvetica,sans-Serif" font-size="10.00">+ StringStatic()</text>
<text text-anchor="start" x="7.53223" y="-153" font-family="Helvetica,sans-Serif" font-size="10.00">+ c_str()</text>
<text text-anchor="start" x="7.53223" y="-141" font-family="Helvetica,sans-Serif" font-size="10.00">+ data()</text>
<text text-anchor="start" x="7.53223" y="-129" font-family="Helvetica,sans-Serif" font-size="10.00">+ capacity()</text>
</a>
</g>
</g>
<!-- Node1&#45;&gt;Node2 -->
<g id="edge1" class="edge"><title>Node1&#45;&gt;Node2</title>
<path fill="none" stroke="midnightblue" d="M292.553,-335.762C245.766,-312.211 184.059,-278.968 133,-244 130.204,-242.085 127.389,-240.08 124.576,-238.014"/>
<polygon fill="none" stroke="midnightblue" points="291.195,-338.996 301.704,-340.341 294.327,-332.736 291.195,-338.996"/>
</g>
<!-- Node3 -->
<g id="node3" class="node"><title>Node3</title>
<g id="a_node3"><a xlink:href="class_string_static.html" target="_top" xlink:title="{StringStatic\&lt; 12 \&gt;\n||+ StringStatic()\l+ StringStatic()\l+ StringStatic()\l+ c_str()\l+ data()\l+ capacity()\l}">
<polygon fill="none" stroke="black" points="142.254,-123 142.254,-243 237.746,-243 237.746,-123 142.254,-123"/>
<text text-anchor="middle" x="190" y="-229" font-family="Helvetica,sans-Serif" font-size="10.00">StringStatic&lt; 12 &gt;</text>
<polyline fill="none" stroke="black" points="142.254,-223 237.746,-223 "/>
<text text-anchor="middle" x="190" y="-209" font-family="Helvetica,sans-Serif" font-size="10.00"> </text>
<polyline fill="none" stroke="black" points="142.254,-203 237.746,-203 "/>
<text text-anchor="start" x="150.254" y="-189" font-family="Helvetica,sans-Serif" font-size="10.00">+ StringStatic()</text>
<text text-anchor="start" x="150.254" y="-177" font-family="Helvetica,sans-Serif" font-size="10.00">+ StringStatic()</text>
<text text-anchor="start" x="150.254" y="-165" font-family="Helvetica,sans-Serif" font-size="10.00">+ StringStatic()</text>
<text text-anchor="start" x="150.254" y="-153" font-family="Helvetica,sans-Serif" font-size="10.00">+ c_str()</text>
<text text-anchor="start" x="150.254" y="-141" font-family="Helvetica,sans-Serif" font-size="10.00">+ data()</text>
<text text-anchor="start" x="150.254" y="-129" font-family="Helvetica,sans-Serif" font-size="10.00">+ capacity()</text>
</a>
</g>
</g>
<!-- Node1&#45;&gt;Node3 -->
<g id="edge2" class="edge"><title>Node1&#45;&gt;Node3</title>
<path fill="none" stroke="midnightblue" d="M294.561,-295.896C278.603,-278.853 261.708,-260.802 246,-244 243.373,-241.19 240.677,-238.305 237.955,-235.392"/>
<polygon fill="none" stroke="midnightblue" points="292.43,-298.74 301.82,-303.647 297.539,-293.955 292.43,-298.74"/>
</g>
<!-- Node5 -->
<g id="node5" class="node"><title>Node5</title>
<g id="a_node5"><a xlink:href="class_string_static.html" target="_top" xlink:title="{StringStatic\&lt; 128 \&gt;\n||+ StringStatic()\l+ StringStatic()\l+ StringStatic()\l+ c_str()\l+ data()\l+ capacity()\l}">
<polygon fill="none" stroke="black" points="255.473,-123 255.473,-243 356.527,-243 356.527,-123 255.473,-123"/>
<text text-anchor="middle" x="306" y="-229" font-family="Helvetica,sans-Serif" font-size="10.00">StringStatic&lt; 128 &gt;</text>
<polyline fill="none" stroke="black" points="255.473,-223 356.527,-223 "/>
<text text-anchor="middle" x="306" y="-209" font-family="Helvetica,sans-Serif" font-size="10.00"> </text>
<polyline fill="none" stroke="black" points="255.473,-203 356.527,-203 "/>
<text text-anchor="start" x="263.473" y="-189" font-family="Helvetica,sans-Serif" font-size="10.00">+ StringStatic()</text>
<text text-anchor="start" x="263.473" y="-177" font-family="Helvetica,sans-Serif" font-size="10.00">+ StringStatic()</text>
<text text-anchor="start" x="263.473" y="-165" font-family="Helvetica,sans-Serif" font-size="10.00">+ StringStatic()</text>
<text text-anchor="start" x="263.473" y="-153" font-family="Helvetica,sans-Serif" font-size="10.00">+ c_str()</text>
<text text-anchor="start" x="263.473" y="-141" font-family="Helvetica,sans-Serif" font-size="10.00">+ data()</text>
<text text-anchor="start" x="263.473" y="-129" font-family="Helvetica,sans-Serif" font-size="10.00">+ capacity()</text>
</a>
</g>
</g>
<!-- Node1&#45;&gt;Node5 -->
<g id="edge4" class="edge"><title>Node1&#45;&gt;Node5</title>
<path fill="none" stroke="midnightblue" d="M333.201,-271.231C330.217,-261.66 327.258,-252.172 324.452,-243.172"/>
<polygon fill="none" stroke="midnightblue" points="329.871,-272.309 336.189,-280.814 336.554,-270.225 329.871,-272.309"/>
</g>
<!-- Node7 -->
<g id="node7" class="node"><title>Node7</title>
<g id="a_node7"><a xlink:href="class_string_static.html" target="_top" xlink:title="{StringStatic\&lt; 16 \&gt;\n||+ StringStatic()\l+ StringStatic()\l+ StringStatic()\l+ c_str()\l+ data()\l+ capacity()\l}">
<polygon fill="none" stroke="black" points="374.254,-123 374.254,-243 469.746,-243 469.746,-123 374.254,-123"/>
<text text-anchor="middle" x="422" y="-229" font-family="Helvetica,sans-Serif" font-size="10.00">StringStatic&lt; 16 &gt;</text>
<polyline fill="none" stroke="black" points="374.254,-223 469.746,-223 "/>
<text text-anchor="middle" x="422" y="-209" font-family="Helvetica,sans-Serif" font-size="10.00"> </text>
<polyline fill="none" stroke="black" points="374.254,-203 469.746,-203 "/>
<text text-anchor="start" x="382.254" y="-189" font-family="Helvetica,sans-Serif" font-size="10.00">+ StringStatic()</text>
<text text-anchor="start" x="382.254" y="-177" font-family="Helvetica,sans-Serif" font-size="10.00">+ StringStatic()</text>
<text text-anchor="start" x="382.254" y="-165" font-family="Helvetica,sans-Serif" font-size="10.00">+ StringStatic()</text>
<text text-anchor="start" x="382.254" y="-153" font-family="Helvetica,sans-Serif" font-size="10.00">+ c_str()</text>
<text text-anchor="start" x="382.254" y="-141" font-family="Helvetica,sans-Serif" font-size="10.00">+ data()</text>
<text text-anchor="start" x="382.254" y="-129" font-family="Helvetica,sans-Serif" font-size="10.00">+ capacity()</text>
</a>
</g>
</g>
<!-- Node1&#45;&gt;Node7 -->
<g id="edge6" class="edge"><title>Node1&#45;&gt;Node7</title>
<path fill="none" stroke="midnightblue" d="M394.799,-271.231C397.783,-261.66 400.742,-252.172 403.548,-243.172"/>
<polygon fill="none" stroke="midnightblue" points="391.446,-270.225 391.811,-280.814 398.129,-272.309 391.446,-270.225"/>
</g>
<!-- Node9 -->
<g id="node9" class="node"><title>Node9</title>
<g id="a_node9"><a xlink:href="class_string_static.html" target="_top" xlink:title="{StringStatic\&lt; 32 \&gt;\n||+ StringStatic()\l+ StringStatic()\l+ StringStatic()\l+ c_str()\l+ data()\l+ capacity()\l}">
<polygon fill="none" stroke="black" points="487.254,-123 487.254,-243 582.746,-243 582.746,-123 487.254,-123"/>
<text text-anchor="middle" x="535" y="-229" font-family="Helvetica,sans-Serif" font-size="10.00">StringStatic&lt; 32 &gt;</text>
<polyline fill="none" stroke="black" points="487.254,-223 582.746,-223 "/>
<text text-anchor="middle" x="535" y="-209" font-family="Helvetica,sans-Serif" font-size="10.00"> </text>
<polyline fill="none" stroke="black" points="487.254,-203 582.746,-203 "/>
<text text-anchor="start" x="495.254" y="-189" font-family="Helvetica,sans-Serif" font-size="10.00">+ StringStatic()</text>
<text text-anchor="start" x="495.254" y="-177" font-family="Helvetica,sans-Serif" font-size="10.00">+ StringStatic()</text>
<text text-anchor="start" x="495.254" y="-165" font-family="Helvetica,sans-Serif" font-size="10.00">+ StringStatic()</text>
<text text-anchor="start" x="495.254" y="-153" font-family="Helvetica,sans-Serif" font-size="10.00">+ c_str()</text>
<text text-anchor="start" x="495.254" y="-141" font-family="Helvetica,sans-Serif" font-size="10.00">+ data()</text>
<text text-anchor="start" x="495.254" y="-129" font-family="Helvetica,sans-Serif" font-size="10.00">+ capacity()</text>
</a>
</g>
</g>
<!-- Node1&#45;&gt;Node9 -->
<g id="edge8" class="edge"><title>Node1&#45;&gt;Node9</title>
<path fill="none" stroke="midnightblue" d="M433.098,-294.841C451.196,-275.155 470.313,-254.362 487.038,-236.169"/>
<polygon fill="none" stroke="midnightblue" points="430.41,-292.593 426.219,-302.324 435.563,-297.331 430.41,-292.593"/>
</g>
<!-- Node11 -->
<g id="node11" class="node"><title>Node11</title>
<g id="a_node11"><a xlink:href="class_string_static.html" target="_top" xlink:title="{StringStatic\&lt; 64 \&gt;\n||+ StringStatic()\l+ StringStatic()\l+ StringStatic()\l+ c_str()\l+ data()\l+ capacity()\l}">
<polygon fill="none" stroke="black" points="600.254,-123 600.254,-243 695.746,-243 695.746,-123 600.254,-123"/>
<text text-anchor="middle" x="648" y="-229" font-family="Helvetica,sans-Serif" font-size="10.00">StringStatic&lt; 64 &gt;</text>
<polyline fill="none" stroke="black" points="600.254,-223 695.746,-223 "/>
<text text-anchor="middle" x="648" y="-209" font-family="Helvetica,sans-Serif" font-size="10.00"> </text>
<polyline fill="none" stroke="black" points="600.254,-203 695.746,-203 "/>
<text text-anchor="start" x="608.254" y="-189" font-family="Helvetica,sans-Serif" font-size="10.00">+ StringStatic()</text>
<text text-anchor="start" x="608.254" y="-177" font-family="Helvetica,sans-Serif" font-size="10.00">+ StringStatic()</text>
<text text-anchor="start" x="608.254" y="-165" font-family="Helvetica,sans-Serif" font-size="10.00">+ StringStatic()</text>
<text text-anchor="start" x="608.254" y="-153" font-family="Helvetica,sans-Serif" font-size="10.00">+ c_str()</text>
<text text-anchor="start" x="608.254" y="-141" font-family="Helvetica,sans-Serif" font-size="10.00">+ data()</text>
<text text-anchor="start" x="608.254" y="-129" font-family="Helvetica,sans-Serif" font-size="10.00">+ capacity()</text>
</a>
</g>
</g>
<!-- Node1&#45;&gt;Node11 -->
<g id="edge10" class="edge"><title>Node1&#45;&gt;Node11</title>
<path fill="none" stroke="midnightblue" d="M435.47,-337.369C481.972,-314.485 542.72,-281.383 591,-244 594.067,-241.625 597.122,-239.083 600.132,-236.437"/>
<polygon fill="none" stroke="midnightblue" points="433.822,-334.279 426.368,-341.807 436.89,-340.57 433.822,-334.279"/>
</g>
<!-- Node4 -->
<g id="node4" class="node"><title>Node4</title>
<g id="a_node4"><a xlink:href="class_brsp_address.html" target="_top" xlink:title="BRSP Address class. ">
<polygon fill="none" stroke="black" points="145.738,-13 145.738,-73 234.262,-73 234.262,-13 145.738,-13"/>
<text text-anchor="middle" x="190" y="-59" font-family="Helvetica,sans-Serif" font-size="10.00">BrspAddress</text>
<polyline fill="none" stroke="black" points="145.738,-53 234.262,-53 "/>
<text text-anchor="middle" x="190" y="-39" font-family="Helvetica,sans-Serif" font-size="10.00"> </text>
<polyline fill="none" stroke="black" points="145.738,-33 234.262,-33 "/>
<text text-anchor="start" x="153.738" y="-19" font-family="Helvetica,sans-Serif" font-size="10.00">+ BrspAddress()</text>
</a>
</g>
</g>
<!-- Node3&#45;&gt;Node4 -->
<g id="edge3" class="edge"><title>Node3&#45;&gt;Node4</title>
<path fill="none" stroke="midnightblue" d="M190,-112.598C190,-98.7209 190,-84.8653 190,-73.2768"/>
<polygon fill="none" stroke="midnightblue" points="186.5,-112.675 190,-122.675 193.5,-112.675 186.5,-112.675"/>
</g>
<!-- Node6 -->
<g id="node6" class="node"><title>Node6</title>
<g id="a_node6"><a xlink:href="class_string_large.html" target="_top" xlink:title="Large String. ">
<polygon fill="none" stroke="black" points="264.511,-1 264.511,-85 347.489,-85 347.489,-1 264.511,-1"/>
<text text-anchor="middle" x="306" y="-71" font-family="Helvetica,sans-Serif" font-size="10.00">StringLarge</text>
<polyline fill="none" stroke="black" points="264.511,-65 347.489,-65 "/>
<text text-anchor="middle" x="306" y="-51" font-family="Helvetica,sans-Serif" font-size="10.00"> </text>
<polyline fill="none" stroke="black" points="264.511,-45 347.489,-45 "/>
<text text-anchor="start" x="272.511" y="-31" font-family="Helvetica,sans-Serif" font-size="10.00">+ StringLarge()</text>
<text text-anchor="start" x="272.511" y="-19" font-family="Helvetica,sans-Serif" font-size="10.00">+ StringLarge()</text>
<text text-anchor="start" x="272.511" y="-7" font-family="Helvetica,sans-Serif" font-size="10.00">+ StringLarge()</text>
</a>
</g>
</g>
<!-- Node5&#45;&gt;Node6 -->
<g id="edge5" class="edge"><title>Node5&#45;&gt;Node6</title>
<path fill="none" stroke="midnightblue" d="M306,-112.602C306,-103.293 306,-93.9931 306,-85.3812"/>
<polygon fill="none" stroke="midnightblue" points="302.5,-112.675 306,-122.675 309.5,-112.675 302.5,-112.675"/>
</g>
<!-- Node8 -->
<g id="node8" class="node"><title>Node8</title>
<g id="a_node8"><a xlink:href="class_string_tiny.html" target="_top" xlink:title="Tiny String. ">
<polygon fill="none" stroke="black" points="384.037,-1 384.037,-85 459.963,-85 459.963,-1 384.037,-1"/>
<text text-anchor="middle" x="422" y="-71" font-family="Helvetica,sans-Serif" font-size="10.00">StringTiny</text>
<polyline fill="none" stroke="black" points="384.037,-65 459.963,-65 "/>
<text text-anchor="middle" x="422" y="-51" font-family="Helvetica,sans-Serif" font-size="10.00"> </text>
<polyline fill="none" stroke="black" points="384.037,-45 459.963,-45 "/>
<text text-anchor="start" x="392.037" y="-31" font-family="Helvetica,sans-Serif" font-size="10.00">+ StringTiny()</text>
<text text-anchor="start" x="392.037" y="-19" font-family="Helvetica,sans-Serif" font-size="10.00">+ StringTiny()</text>
<text text-anchor="start" x="392.037" y="-7" font-family="Helvetica,sans-Serif" font-size="10.00">+ StringTiny()</text>
</a>
</g>
</g>
<!-- Node7&#45;&gt;Node8 -->
<g id="edge7" class="edge"><title>Node7&#45;&gt;Node8</title>
<path fill="none" stroke="midnightblue" d="M422,-112.602C422,-103.293 422,-93.9931 422,-85.3812"/>
<polygon fill="none" stroke="midnightblue" points="418.5,-112.675 422,-122.675 425.5,-112.675 418.5,-112.675"/>
</g>
<!-- Node10 -->
<g id="node10" class="node"><title>Node10</title>
<g id="a_node10"><a xlink:href="class_string_small.html" target="_top" xlink:title="Small String. ">
<polygon fill="none" stroke="black" points="493.797,-1 493.797,-85 576.203,-85 576.203,-1 493.797,-1"/>
<text text-anchor="middle" x="535" y="-71" font-family="Helvetica,sans-Serif" font-size="10.00">StringSmall</text>
<polyline fill="none" stroke="black" points="493.797,-65 576.203,-65 "/>
<text text-anchor="middle" x="535" y="-51" font-family="Helvetica,sans-Serif" font-size="10.00"> </text>
<polyline fill="none" stroke="black" points="493.797,-45 576.203,-45 "/>
<text text-anchor="start" x="501.797" y="-31" font-family="Helvetica,sans-Serif" font-size="10.00">+ StringSmall()</text>
<text text-anchor="start" x="501.797" y="-19" font-family="Helvetica,sans-Serif" font-size="10.00">+ StringSmall()</text>
<text text-anchor="start" x="501.797" y="-7" font-family="Helvetica,sans-Serif" font-size="10.00">+ StringSmall()</text>
</a>
</g>
</g>
<!-- Node9&#45;&gt;Node10 -->
<g id="edge9" class="edge"><title>Node9&#45;&gt;Node10</title>
<path fill="none" stroke="midnightblue" d="M535,-112.602C535,-103.293 535,-93.9931 535,-85.3812"/>
<polygon fill="none" stroke="midnightblue" points="531.5,-112.675 535,-122.675 538.5,-112.675 531.5,-112.675"/>
</g>
<!-- Node12 -->
<g id="node12" class="node"><title>Node12</title>
<g id="a_node12"><a xlink:href="class_string_medium.html" target="_top" xlink:title="Medium String. ">
<polygon fill="none" stroke="black" points="601.516,-1 601.516,-85 694.484,-85 694.484,-1 601.516,-1"/>
<text text-anchor="middle" x="648" y="-71" font-family="Helvetica,sans-Serif" font-size="10.00">StringMedium</text>
<polyline fill="none" stroke="black" points="601.516,-65 694.484,-65 "/>
<text text-anchor="middle" x="648" y="-51" font-family="Helvetica,sans-Serif" font-size="10.00"> </text>
<polyline fill="none" stroke="black" points="601.516,-45 694.484,-45 "/>
<text text-anchor="start" x="609.516" y="-31" font-family="Helvetica,sans-Serif" font-size="10.00">+ StringMedium()</text>
<text text-anchor="start" x="609.516" y="-19" font-family="Helvetica,sans-Serif" font-size="10.00">+ StringMedium()</text>
<text text-anchor="start" x="609.516" y="-7" font-family="Helvetica,sans-Serif" font-size="10.00">+ StringMedium()</text>
</a>
</g>
</g>
<!-- Node11&#45;&gt;Node12 -->
<g id="edge11" class="edge"><title>Node11&#45;&gt;Node12</title>
<path fill="none" stroke="midnightblue" d="M648,-112.602C648,-103.293 648,-93.9931 648,-85.3812"/>
<polygon fill="none" stroke="midnightblue" points="644.5,-112.675 648,-122.675 651.5,-112.675 644.5,-112.675"/>
</g>
</g>
</svg>
