<?xml version="1.0" encoding="UTF-8" standalone="no"?>
<!DOCTYPE svg PUBLIC "-//W3C//DTD SVG 1.1//EN"
 "http://www.w3.org/Graphics/SVG/1.1/DTD/svg11.dtd">
<!-- Generated by graphviz version 2.34.0 (20130907.0228)
 -->
<!-- Title: Phy Pages: 1 -->
<svg width="794pt" height="1158pt"
 viewBox="0.00 0.00 794.00 1158.00" xmlns="http://www.w3.org/2000/svg" xmlns:xlink="http://www.w3.org/1999/xlink">
<g id="graph0" class="graph" transform="scale(1 1) rotate(0) translate(4 1154)">
<title>Phy</title>
<!-- Node1 -->
<g id="node1" class="node"><title>Node1</title>
<polygon fill="#bfbfbf" stroke="black" points="211.469,-1041 211.469,-1149 260.531,-1149 260.531,-1041 211.469,-1041"/>
<text text-anchor="middle" x="236" y="-1135" font-family="Helvetica,sans-Serif" font-size="10.00">Phy</text>
<polyline fill="none" stroke="black" points="211.469,-1129 260.531,-1129 "/>
<text text-anchor="middle" x="236" y="-1115" font-family="Helvetica,sans-Serif" font-size="10.00"> </text>
<polyline fill="none" stroke="black" points="211.469,-1109 260.531,-1109 "/>
<text text-anchor="start" x="219.469" y="-1095" font-family="Helvetica,sans-Serif" font-size="10.00">+ Phy()</text>
<text text-anchor="start" x="219.469" y="-1083" font-family="Helvetica,sans-Serif" font-size="10.00">+ ioctl()</text>
<text text-anchor="start" x="219.469" y="-1071" font-family="Helvetica,sans-Serif" font-size="10.00">+ ioctl()</text>
<text text-anchor="start" x="219.469" y="-1059" font-family="Helvetica,sans-Serif" font-size="10.00">+ ioctl()</text>
<text text-anchor="start" x="219.469" y="-1047" font-family="Helvetica,sans-Serif" font-size="10.00">+ ioctl()</text>
</g>
<!-- Node2 -->
<g id="node2" class="node"><title>Node2</title>
<g id="a_node2"><a xlink:href="class_file.html" target="_top" xlink:title="File Class. ">
<polygon fill="none" stroke="black" points="110.688,-763 110.688,-1003 175.312,-1003 175.312,-763 110.688,-763"/>
<text text-anchor="middle" x="143" y="-989" font-family="Helvetica,sans-Serif" font-size="10.00">File</text>
<polyline fill="none" stroke="black" points="110.688,-983 175.312,-983 "/>
<text text-anchor="middle" x="143" y="-969" font-family="Helvetica,sans-Serif" font-size="10.00"> </text>
<polyline fill="none" stroke="black" points="110.688,-963 175.312,-963 "/>
<text text-anchor="start" x="118.688" y="-949" font-family="Helvetica,sans-Serif" font-size="10.00">+ File()</text>
<text text-anchor="start" x="118.688" y="-937" font-family="Helvetica,sans-Serif" font-size="10.00">+ open()</text>
<text text-anchor="start" x="118.688" y="-925" font-family="Helvetica,sans-Serif" font-size="10.00">+ create()</text>
<text text-anchor="start" x="118.688" y="-913" font-family="Helvetica,sans-Serif" font-size="10.00">+ read()</text>
<text text-anchor="start" x="118.688" y="-901" font-family="Helvetica,sans-Serif" font-size="10.00">+ read()</text>
<text text-anchor="start" x="118.688" y="-889" font-family="Helvetica,sans-Serif" font-size="10.00">+ write()</text>
<text text-anchor="start" x="118.688" y="-877" font-family="Helvetica,sans-Serif" font-size="10.00">+ write()</text>
<text text-anchor="start" x="118.688" y="-865" font-family="Helvetica,sans-Serif" font-size="10.00">+ seek()</text>
<text text-anchor="start" x="118.688" y="-853" font-family="Helvetica,sans-Serif" font-size="10.00">+ size()</text>
<text text-anchor="start" x="118.688" y="-841" font-family="Helvetica,sans-Serif" font-size="10.00">+ close()</text>
<text text-anchor="start" x="118.688" y="-829" font-family="Helvetica,sans-Serif" font-size="10.00">+ fileno()</text>
<text text-anchor="start" x="118.688" y="-817" font-family="Helvetica,sans-Serif" font-size="10.00">+ gets()</text>
<text text-anchor="start" x="118.688" y="-805" font-family="Helvetica,sans-Serif" font-size="10.00">+ gets()</text>
<text text-anchor="start" x="118.688" y="-793" font-family="Helvetica,sans-Serif" font-size="10.00">+ gets()</text>
<text text-anchor="start" x="118.688" y="-781" font-family="Helvetica,sans-Serif" font-size="10.00">+ ioctl()</text>
<text text-anchor="start" x="118.688" y="-769" font-family="Helvetica,sans-Serif" font-size="10.00">+ remove()</text>
</a>
</g>
</g>
<!-- Node1&#45;&gt;Node2 -->
<g id="edge1" class="edge"><title>Node1&#45;&gt;Node2</title>
<path fill="none" stroke="midnightblue" d="M208.228,-1031.29C197.885,-1007.93 186.057,-981.226 175.34,-957.025"/>
<polygon fill="none" stroke="midnightblue" points="205.162,-1033.01 212.412,-1040.74 211.563,-1030.18 205.162,-1033.01"/>
</g>
<!-- Node4 -->
<g id="node4" class="node"><title>Node4</title>
<g id="a_node4"><a xlink:href="class_periph.html" target="_top" xlink:title="Peripheral Class. ">
<polygon fill="none" stroke="black" points="295.57,-763 295.57,-1003 362.43,-1003 362.43,-763 295.57,-763"/>
<text text-anchor="middle" x="329" y="-989" font-family="Helvetica,sans-Serif" font-size="10.00">Periph</text>
<polyline fill="none" stroke="black" points="295.57,-983 362.43,-983 "/>
<text text-anchor="start" x="303.57" y="-969" font-family="Helvetica,sans-Serif" font-size="10.00"># port_</text>
<text text-anchor="start" x="303.57" y="-957" font-family="Helvetica,sans-Serif" font-size="10.00"># fd</text>
<polyline fill="none" stroke="black" points="295.57,-951 362.43,-951 "/>
<text text-anchor="start" x="303.57" y="-937" font-family="Helvetica,sans-Serif" font-size="10.00">+ Periph()</text>
<text text-anchor="start" x="303.57" y="-925" font-family="Helvetica,sans-Serif" font-size="10.00">+ open()</text>
<text text-anchor="start" x="303.57" y="-913" font-family="Helvetica,sans-Serif" font-size="10.00">+ open()</text>
<text text-anchor="start" x="303.57" y="-901" font-family="Helvetica,sans-Serif" font-size="10.00">+ setflags()</text>
<text text-anchor="start" x="303.57" y="-889" font-family="Helvetica,sans-Serif" font-size="10.00">+ read()</text>
<text text-anchor="start" x="303.57" y="-877" font-family="Helvetica,sans-Serif" font-size="10.00">+ readline()</text>
<text text-anchor="start" x="303.57" y="-865" font-family="Helvetica,sans-Serif" font-size="10.00">+ write()</text>
<text text-anchor="start" x="303.57" y="-853" font-family="Helvetica,sans-Serif" font-size="10.00">+ write()</text>
<text text-anchor="start" x="303.57" y="-841" font-family="Helvetica,sans-Serif" font-size="10.00">+ close()</text>
<text text-anchor="start" x="303.57" y="-829" font-family="Helvetica,sans-Serif" font-size="10.00">+ read()</text>
<text text-anchor="start" x="303.57" y="-817" font-family="Helvetica,sans-Serif" font-size="10.00">+ write()</text>
<text text-anchor="start" x="303.57" y="-805" font-family="Helvetica,sans-Serif" font-size="10.00">+ fileno()</text>
<text text-anchor="start" x="303.57" y="-793" font-family="Helvetica,sans-Serif" font-size="10.00">+ ioctl()</text>
<text text-anchor="start" x="303.57" y="-781" font-family="Helvetica,sans-Serif" font-size="10.00">+ port()</text>
<text text-anchor="start" x="303.57" y="-769" font-family="Helvetica,sans-Serif" font-size="10.00"># _open()</text>
</a>
</g>
</g>
<!-- Node1&#45;&gt;Node4 -->
<g id="edge3" class="edge"><title>Node1&#45;&gt;Node4</title>
<path fill="none" stroke="midnightblue" d="M263.762,-1031.31C273.713,-1008.84 285.04,-983.265 295.431,-959.802"/>
<polygon fill="none" stroke="midnightblue" points="260.437,-1030.18 259.588,-1040.74 266.838,-1033.01 260.437,-1030.18"/>
</g>
<!-- Node3 -->
<g id="node3" class="node"><title>Node3</title>
<g id="a_node3"><a xlink:href="class_rle_file.html" target="_top" xlink:title="Class for reading/writing compressed file data. ">
<polygon fill="none" stroke="black" points="13.8042,-575 13.8042,-647 66.1958,-647 66.1958,-575 13.8042,-575"/>
<text text-anchor="middle" x="40" y="-633" font-family="Helvetica,sans-Serif" font-size="10.00">RleFile</text>
<polyline fill="none" stroke="black" points="13.8042,-627 66.1958,-627 "/>
<text text-anchor="middle" x="40" y="-613" font-family="Helvetica,sans-Serif" font-size="10.00"> </text>
<polyline fill="none" stroke="black" points="13.8042,-607 66.1958,-607 "/>
<text text-anchor="start" x="21.8042" y="-593" font-family="Helvetica,sans-Serif" font-size="10.00">+ write()</text>
<text text-anchor="start" x="21.8042" y="-581" font-family="Helvetica,sans-Serif" font-size="10.00">+ read()</text>
</a>
</g>
</g>
<!-- Node2&#45;&gt;Node3 -->
<g id="edge2" class="edge"><title>Node2&#45;&gt;Node3</title>
<path fill="none" stroke="midnightblue" d="M106.571,-803.166C95.8142,-778.675 84.4114,-751.429 75,-726 65.3347,-699.885 56.1643,-669.743 49.6367,-647.014"/>
<polygon fill="none" stroke="midnightblue" points="103.412,-804.677 110.657,-812.409 109.815,-801.847 103.412,-804.677"/>
</g>
<!-- Node5 -->
<g id="node5" class="node"><title>Node5</title>
<g id="a_node5"><a xlink:href="class_core.html" target="_top" xlink:title="Core Class. ">
<polygon fill="none" stroke="black" points="84.2773,-521 84.2773,-701 191.723,-701 191.723,-521 84.2773,-521"/>
<text text-anchor="middle" x="138" y="-687" font-family="Helvetica,sans-Serif" font-size="10.00">Core</text>
<polyline fill="none" stroke="black" points="84.2773,-681 191.723,-681 "/>
<text text-anchor="middle" x="138" y="-667" font-family="Helvetica,sans-Serif" font-size="10.00"> </text>
<polyline fill="none" stroke="black" points="84.2773,-661 191.723,-661 "/>
<text text-anchor="start" x="92.2773" y="-647" font-family="Helvetica,sans-Serif" font-size="10.00">+ Core()</text>
<text text-anchor="start" x="92.2773" y="-635" font-family="Helvetica,sans-Serif" font-size="10.00">+ open()</text>
<text text-anchor="start" x="92.2773" y="-623" font-family="Helvetica,sans-Serif" font-size="10.00">+ getattr()</text>
<text text-anchor="start" x="92.2773" y="-611" font-family="Helvetica,sans-Serif" font-size="10.00">+ setattr()</text>
<text text-anchor="start" x="92.2773" y="-599" font-family="Helvetica,sans-Serif" font-size="10.00">+ setpinfunc()</text>
<text text-anchor="start" x="92.2773" y="-587" font-family="Helvetica,sans-Serif" font-size="10.00">+ sleep()</text>
<text text-anchor="start" x="92.2773" y="-575" font-family="Helvetica,sans-Serif" font-size="10.00">+ reset()</text>
<text text-anchor="start" x="92.2773" y="-563" font-family="Helvetica,sans-Serif" font-size="10.00">+ invokebootloader()</text>
<text text-anchor="start" x="92.2773" y="-551" font-family="Helvetica,sans-Serif" font-size="10.00">+ setirqprio()</text>
<text text-anchor="start" x="92.2773" y="-539" font-family="Helvetica,sans-Serif" font-size="10.00">+ setclkout()</text>
<text text-anchor="start" x="92.2773" y="-527" font-family="Helvetica,sans-Serif" font-size="10.00">+ getports()</text>
</a>
</g>
</g>
<!-- Node4&#45;&gt;Node5 -->
<g id="edge4" class="edge"><title>Node4&#45;&gt;Node5</title>
<path fill="none" stroke="midnightblue" d="M288.373,-837.615C261.668,-807.342 226.834,-765.687 200,-726 194.637,-718.068 189.346,-709.628 184.25,-701.066"/>
<polygon fill="none" stroke="midnightblue" points="286.07,-840.293 295.326,-845.449 291.306,-835.646 286.07,-840.293"/>
</g>
<!-- Node6 -->
<g id="node6" class="node"><title>Node6</title>
<g id="a_node6"><a xlink:href="class_eint.html" target="_top" xlink:title="External Interrupt Class. ">
<polygon fill="none" stroke="black" points="209.349,-521 209.349,-701 280.651,-701 280.651,-521 209.349,-521"/>
<text text-anchor="middle" x="245" y="-687" font-family="Helvetica,sans-Serif" font-size="10.00">Eint</text>
<polyline fill="none" stroke="black" points="209.349,-681 280.651,-681 "/>
<text text-anchor="middle" x="245" y="-667" font-family="Helvetica,sans-Serif" font-size="10.00"> </text>
<polyline fill="none" stroke="black" points="209.349,-661 280.651,-661 "/>
<text text-anchor="start" x="217.349" y="-647" font-family="Helvetica,sans-Serif" font-size="10.00">+ Eint()</text>
<text text-anchor="start" x="217.349" y="-635" font-family="Helvetica,sans-Serif" font-size="10.00">+ open()</text>
<text text-anchor="start" x="217.349" y="-623" font-family="Helvetica,sans-Serif" font-size="10.00">+ getattr()</text>
<text text-anchor="start" x="217.349" y="-611" font-family="Helvetica,sans-Serif" font-size="10.00">+ setattr()</text>
<text text-anchor="start" x="217.349" y="-599" font-family="Helvetica,sans-Serif" font-size="10.00">+ setaction()</text>
<text text-anchor="start" x="217.349" y="-587" font-family="Helvetica,sans-Serif" font-size="10.00">+ value()</text>
<text text-anchor="start" x="217.349" y="-575" font-family="Helvetica,sans-Serif" font-size="10.00">+ get()</text>
<text text-anchor="start" x="217.349" y="-563" font-family="Helvetica,sans-Serif" font-size="10.00">+ setaction()</text>
<text text-anchor="start" x="217.349" y="-551" font-family="Helvetica,sans-Serif" font-size="10.00">+ setattr()</text>
<text text-anchor="start" x="217.349" y="-539" font-family="Helvetica,sans-Serif" font-size="10.00">+ init()</text>
<text text-anchor="start" x="217.349" y="-527" font-family="Helvetica,sans-Serif" font-size="10.00">+ getports()</text>
</a>
</g>
</g>
<!-- Node4&#45;&gt;Node6 -->
<g id="edge5" class="edge"><title>Node4&#45;&gt;Node6</title>
<path fill="none" stroke="midnightblue" d="M292.534,-764.787C285.914,-743.511 279.108,-721.634 272.789,-701.322"/>
<polygon fill="none" stroke="midnightblue" points="289.247,-766.004 295.56,-774.513 295.931,-763.925 289.247,-766.004"/>
</g>
<!-- Node7 -->
<g id="node7" class="node"><title>Node7</title>
<g id="a_node7"><a xlink:href="class_pblock.html" target="_top" xlink:title="Peripheral Block Class. ">
<polygon fill="none" stroke="black" points="298.354,-569 298.354,-653 359.646,-653 359.646,-569 298.354,-569"/>
<text text-anchor="middle" x="329" y="-639" font-family="Helvetica,sans-Serif" font-size="10.00">Pblock</text>
<polyline fill="none" stroke="black" points="298.354,-633 359.646,-633 "/>
<text text-anchor="middle" x="329" y="-619" font-family="Helvetica,sans-Serif" font-size="10.00"> </text>
<polyline fill="none" stroke="black" points="298.354,-613 359.646,-613 "/>
<text text-anchor="start" x="306.354" y="-599" font-family="Helvetica,sans-Serif" font-size="10.00">+ Pblock()</text>
<text text-anchor="start" x="306.354" y="-587" font-family="Helvetica,sans-Serif" font-size="10.00">+ read()</text>
<text text-anchor="start" x="306.354" y="-575" font-family="Helvetica,sans-Serif" font-size="10.00">+ write()</text>
</a>
</g>
</g>
<!-- Node4&#45;&gt;Node7 -->
<g id="edge6" class="edge"><title>Node4&#45;&gt;Node7</title>
<path fill="none" stroke="midnightblue" d="M329,-752.632C329,-716.542 329,-679.914 329,-653.09"/>
<polygon fill="none" stroke="midnightblue" points="325.5,-752.788 329,-762.788 332.5,-752.788 325.5,-752.788"/>
</g>
<!-- Node14 -->
<g id="node14" class="node"><title>Node14</title>
<g id="a_node14"><a xlink:href="class_pchar.html" target="_top" xlink:title="Peripheral Character Class. ">
<polygon fill="none" stroke="black" points="442.627,-575 442.627,-647 503.373,-647 503.373,-575 442.627,-575"/>
<text text-anchor="middle" x="473" y="-633" font-family="Helvetica,sans-Serif" font-size="10.00">Pchar</text>
<polyline fill="none" stroke="black" points="442.627,-627 503.373,-627 "/>
<text text-anchor="middle" x="473" y="-613" font-family="Helvetica,sans-Serif" font-size="10.00"> </text>
<polyline fill="none" stroke="black" points="442.627,-607 503.373,-607 "/>
<text text-anchor="start" x="450.627" y="-593" font-family="Helvetica,sans-Serif" font-size="10.00">+ Pchar()</text>
<text text-anchor="start" x="450.627" y="-581" font-family="Helvetica,sans-Serif" font-size="10.00">+ getline()</text>
</a>
</g>
</g>
<!-- Node4&#45;&gt;Node14 -->
<g id="edge13" class="edge"><title>Node4&#45;&gt;Node14</title>
<path fill="none" stroke="midnightblue" d="M367.354,-810.086C395.396,-757.507 432.224,-688.456 454.168,-647.31"/>
<polygon fill="none" stroke="midnightblue" points="364.198,-808.567 362.58,-819.038 370.374,-811.861 364.198,-808.567"/>
</g>
<!-- Node20 -->
<g id="node20" class="node"><title>Node20</title>
<g id="a_node20"><a xlink:href="class_pio.html" target="_top" xlink:title="Pin Input/Output Class. ">
<polygon fill="none" stroke="black" points="521.79,-497 521.79,-725 594.21,-725 594.21,-497 521.79,-497"/>
<text text-anchor="middle" x="558" y="-711" font-family="Helvetica,sans-Serif" font-size="10.00">Pio</text>
<polyline fill="none" stroke="black" points="521.79,-705 594.21,-705 "/>
<text text-anchor="middle" x="558" y="-691" font-family="Helvetica,sans-Serif" font-size="10.00"> </text>
<polyline fill="none" stroke="black" points="521.79,-685 594.21,-685 "/>
<text text-anchor="start" x="529.79" y="-671" font-family="Helvetica,sans-Serif" font-size="10.00">+ Pio()</text>
<text text-anchor="start" x="529.79" y="-659" font-family="Helvetica,sans-Serif" font-size="10.00">+ open()</text>
<text text-anchor="start" x="529.79" y="-647" font-family="Helvetica,sans-Serif" font-size="10.00">+ getattr()</text>
<text text-anchor="start" x="529.79" y="-635" font-family="Helvetica,sans-Serif" font-size="10.00">+ setattr()</text>
<text text-anchor="start" x="529.79" y="-623" font-family="Helvetica,sans-Serif" font-size="10.00">+ setaction()</text>
<text text-anchor="start" x="529.79" y="-611" font-family="Helvetica,sans-Serif" font-size="10.00">+ setmask()</text>
<text text-anchor="start" x="529.79" y="-599" font-family="Helvetica,sans-Serif" font-size="10.00">+ clrmask()</text>
<text text-anchor="start" x="529.79" y="-587" font-family="Helvetica,sans-Serif" font-size="10.00">+ get()</text>
<text text-anchor="start" x="529.79" y="-575" font-family="Helvetica,sans-Serif" font-size="10.00">+ value()</text>
<text text-anchor="start" x="529.79" y="-563" font-family="Helvetica,sans-Serif" font-size="10.00">+ set()</text>
<text text-anchor="start" x="529.79" y="-551" font-family="Helvetica,sans-Serif" font-size="10.00">+ setattr()</text>
<text text-anchor="start" x="529.79" y="-539" font-family="Helvetica,sans-Serif" font-size="10.00">+ init()</text>
<text text-anchor="start" x="529.79" y="-527" font-family="Helvetica,sans-Serif" font-size="10.00">+ setoutput()</text>
<text text-anchor="start" x="529.79" y="-515" font-family="Helvetica,sans-Serif" font-size="10.00">+ setinput()</text>
<text text-anchor="start" x="529.79" y="-503" font-family="Helvetica,sans-Serif" font-size="10.00">+ getports()</text>
</a>
</g>
</g>
<!-- Node4&#45;&gt;Node20 -->
<g id="edge19" class="edge"><title>Node4&#45;&gt;Node20</title>
<path fill="none" stroke="midnightblue" d="M371.063,-855.075C411.87,-827.101 473.161,-779.922 512,-726 515.43,-721.238 518.654,-716.183 521.677,-710.954"/>
<polygon fill="none" stroke="midnightblue" points="369.001,-852.244 362.682,-860.748 372.925,-858.041 369.001,-852.244"/>
</g>
<!-- Node22 -->
<g id="node22" class="node"><title>Node22</title>
<g id="a_node22"><a xlink:href="class_rtc.html" target="_top" xlink:title="RTC Class. ">
<polygon fill="none" stroke="black" points="612.014,-521 612.014,-701 699.986,-701 699.986,-521 612.014,-521"/>
<text text-anchor="middle" x="656" y="-687" font-family="Helvetica,sans-Serif" font-size="10.00">Rtc</text>
<polyline fill="none" stroke="black" points="612.014,-681 699.986,-681 "/>
<text text-anchor="middle" x="656" y="-667" font-family="Helvetica,sans-Serif" font-size="10.00"> </text>
<polyline fill="none" stroke="black" points="612.014,-661 699.986,-661 "/>
<text text-anchor="start" x="620.014" y="-647" font-family="Helvetica,sans-Serif" font-size="10.00">+ Rtc()</text>
<text text-anchor="start" x="620.014" y="-635" font-family="Helvetica,sans-Serif" font-size="10.00">+ open()</text>
<text text-anchor="start" x="620.014" y="-623" font-family="Helvetica,sans-Serif" font-size="10.00">+ getattr()</text>
<text text-anchor="start" x="620.014" y="-611" font-family="Helvetica,sans-Serif" font-size="10.00">+ setattr()</text>
<text text-anchor="start" x="620.014" y="-599" font-family="Helvetica,sans-Serif" font-size="10.00">+ setaction()</text>
<text text-anchor="start" x="620.014" y="-587" font-family="Helvetica,sans-Serif" font-size="10.00">+ setalarm()</text>
<text text-anchor="start" x="620.014" y="-575" font-family="Helvetica,sans-Serif" font-size="10.00">+ getalarm()</text>
<text text-anchor="start" x="620.014" y="-563" font-family="Helvetica,sans-Serif" font-size="10.00">+ disablealarm()</text>
<text text-anchor="start" x="620.014" y="-551" font-family="Helvetica,sans-Serif" font-size="10.00">+ set()</text>
<text text-anchor="start" x="620.014" y="-539" font-family="Helvetica,sans-Serif" font-size="10.00">+ get()</text>
<text text-anchor="start" x="620.014" y="-527" font-family="Helvetica,sans-Serif" font-size="10.00">+ getports()</text>
</a>
</g>
</g>
<!-- Node4&#45;&gt;Node22 -->
<g id="edge21" class="edge"><title>Node4&#45;&gt;Node22</title>
<path fill="none" stroke="midnightblue" d="M372.286,-867.016C431.344,-844.638 537.318,-797.329 603,-726 609.875,-718.534 616.001,-710.019 621.423,-701.083"/>
<polygon fill="none" stroke="midnightblue" points="371.024,-863.751 362.874,-870.521 373.467,-870.311 371.024,-863.751"/>
</g>
<!-- Node8 -->
<g id="node8" class="node"><title>Node8</title>
<g id="a_node8"><a xlink:href="class_adc.html" target="_top" xlink:title="ADC Peripheral Class. ">
<polygon fill="none" stroke="black" points="-0.705566,-273 -0.705566,-405 66.7056,-405 66.7056,-273 -0.705566,-273"/>
<text text-anchor="middle" x="33" y="-391" font-family="Helvetica,sans-Serif" font-size="10.00">Adc</text>
<polyline fill="none" stroke="black" points="-0.705566,-385 66.7056,-385 "/>
<text text-anchor="middle" x="33" y="-371" font-family="Helvetica,sans-Serif" font-size="10.00"> </text>
<polyline fill="none" stroke="black" points="-0.705566,-365 66.7056,-365 "/>
<text text-anchor="start" x="7.29443" y="-351" font-family="Helvetica,sans-Serif" font-size="10.00">+ Adc()</text>
<text text-anchor="start" x="7.29443" y="-339" font-family="Helvetica,sans-Serif" font-size="10.00">+ open()</text>
<text text-anchor="start" x="7.29443" y="-327" font-family="Helvetica,sans-Serif" font-size="10.00">+ getattr()</text>
<text text-anchor="start" x="7.29443" y="-315" font-family="Helvetica,sans-Serif" font-size="10.00">+ setattr()</text>
<text text-anchor="start" x="7.29443" y="-303" font-family="Helvetica,sans-Serif" font-size="10.00">+ setattr()</text>
<text text-anchor="start" x="7.29443" y="-291" font-family="Helvetica,sans-Serif" font-size="10.00">+ init()</text>
<text text-anchor="start" x="7.29443" y="-279" font-family="Helvetica,sans-Serif" font-size="10.00">+ getports()</text>
</a>
</g>
</g>
<!-- Node7&#45;&gt;Node8 -->
<g id="edge7" class="edge"><title>Node7&#45;&gt;Node8</title>
<path fill="none" stroke="midnightblue" d="M322.867,-558.993C317.535,-536.496 307.58,-511.662 289,-496 215.592,-434.121 149.613,-521.636 76,-460 59.4562,-446.148 49.2769,-425.441 43.0137,-405.109"/>
<polygon fill="none" stroke="midnightblue" points="319.446,-559.733 324.943,-568.79 326.294,-558.281 319.446,-559.733"/>
</g>
<!-- Node9 -->
<g id="node9" class="node"><title>Node9</title>
<g id="a_node9"><a xlink:href="class_dac.html" target="_top" xlink:title="DAC Class. ">
<polygon fill="none" stroke="black" points="85.186,-273 85.186,-405 144.814,-405 144.814,-273 85.186,-273"/>
<text text-anchor="middle" x="115" y="-391" font-family="Helvetica,sans-Serif" font-size="10.00">Dac</text>
<polyline fill="none" stroke="black" points="85.186,-385 144.814,-385 "/>
<text text-anchor="middle" x="115" y="-371" font-family="Helvetica,sans-Serif" font-size="10.00"> </text>
<polyline fill="none" stroke="black" points="85.186,-365 144.814,-365 "/>
<text text-anchor="start" x="93.186" y="-351" font-family="Helvetica,sans-Serif" font-size="10.00">+ Dac()</text>
<text text-anchor="start" x="93.186" y="-339" font-family="Helvetica,sans-Serif" font-size="10.00">+ open()</text>
<text text-anchor="start" x="93.186" y="-327" font-family="Helvetica,sans-Serif" font-size="10.00">+ getattr()</text>
<text text-anchor="start" x="93.186" y="-315" font-family="Helvetica,sans-Serif" font-size="10.00">+ setattr()</text>
<text text-anchor="start" x="93.186" y="-303" font-family="Helvetica,sans-Serif" font-size="10.00">+ get()</text>
<text text-anchor="start" x="93.186" y="-291" font-family="Helvetica,sans-Serif" font-size="10.00">+ setattr()</text>
<text text-anchor="start" x="93.186" y="-279" font-family="Helvetica,sans-Serif" font-size="10.00">+ init()</text>
</a>
</g>
</g>
<!-- Node7&#45;&gt;Node9 -->
<g id="edge8" class="edge"><title>Node7&#45;&gt;Node9</title>
<path fill="none" stroke="midnightblue" d="M321.994,-558.953C316.477,-536.83 306.617,-512.312 289,-496 243.437,-453.81 199.07,-502.716 154,-460 138.736,-445.534 129.436,-425.042 123.773,-405.079"/>
<polygon fill="none" stroke="midnightblue" points="318.625,-559.924 324.236,-568.911 325.454,-558.387 318.625,-559.924"/>
</g>
<!-- Node10 -->
<g id="node10" class="node"><title>Node10</title>
<g id="a_node10"><a xlink:href="class_i2c.html" target="_top" xlink:title="I2C Peripheral Class. ">
<polygon fill="none" stroke="black" points="163.294,-255 163.294,-423 230.706,-423 230.706,-255 163.294,-255"/>
<text text-anchor="middle" x="197" y="-409" font-family="Helvetica,sans-Serif" font-size="10.00">I2c</text>
<polyline fill="none" stroke="black" points="163.294,-403 230.706,-403 "/>
<text text-anchor="middle" x="197" y="-389" font-family="Helvetica,sans-Serif" font-size="10.00"> </text>
<polyline fill="none" stroke="black" points="163.294,-383 230.706,-383 "/>
<text text-anchor="start" x="171.294" y="-369" font-family="Helvetica,sans-Serif" font-size="10.00">+ I2c()</text>
<text text-anchor="start" x="171.294" y="-357" font-family="Helvetica,sans-Serif" font-size="10.00">+ open()</text>
<text text-anchor="start" x="171.294" y="-345" font-family="Helvetica,sans-Serif" font-size="10.00">+ getattr()</text>
<text text-anchor="start" x="171.294" y="-333" font-family="Helvetica,sans-Serif" font-size="10.00">+ setattr()</text>
<text text-anchor="start" x="171.294" y="-321" font-family="Helvetica,sans-Serif" font-size="10.00">+ setup()</text>
<text text-anchor="start" x="171.294" y="-309" font-family="Helvetica,sans-Serif" font-size="10.00">+ geterr()</text>
<text text-anchor="start" x="171.294" y="-297" font-family="Helvetica,sans-Serif" font-size="10.00">+ setup()</text>
<text text-anchor="start" x="171.294" y="-285" font-family="Helvetica,sans-Serif" font-size="10.00">+ setattr()</text>
<text text-anchor="start" x="171.294" y="-273" font-family="Helvetica,sans-Serif" font-size="10.00">+ init()</text>
<text text-anchor="start" x="171.294" y="-261" font-family="Helvetica,sans-Serif" font-size="10.00">+ getports()</text>
</a>
</g>
</g>
<!-- Node7&#45;&gt;Node10 -->
<g id="edge9" class="edge"><title>Node7&#45;&gt;Node10</title>
<path fill="none" stroke="midnightblue" d="M318.303,-559.124C312.158,-538.153 302.826,-514.488 289,-496 272.601,-474.071 255.391,-481.936 239,-460 230.742,-448.949 224.013,-436.142 218.559,-423.094"/>
<polygon fill="none" stroke="midnightblue" points="314.954,-560.146 320.989,-568.854 321.702,-558.283 314.954,-560.146"/>
</g>
<!-- Node12 -->
<g id="node12" class="node"><title>Node12</title>
<g id="a_node12"><a xlink:href="class_pwm.html" target="_top" xlink:title="PWM Class. ">
<polygon fill="none" stroke="black" points="248.294,-261 248.294,-417 315.706,-417 315.706,-261 248.294,-261"/>
<text text-anchor="middle" x="282" y="-403" font-family="Helvetica,sans-Serif" font-size="10.00">Pwm</text>
<polyline fill="none" stroke="black" points="248.294,-397 315.706,-397 "/>
<text text-anchor="middle" x="282" y="-383" font-family="Helvetica,sans-Serif" font-size="10.00"> </text>
<polyline fill="none" stroke="black" points="248.294,-377 315.706,-377 "/>
<text text-anchor="start" x="256.294" y="-363" font-family="Helvetica,sans-Serif" font-size="10.00">+ Pwm()</text>
<text text-anchor="start" x="256.294" y="-351" font-family="Helvetica,sans-Serif" font-size="10.00">+ open()</text>
<text text-anchor="start" x="256.294" y="-339" font-family="Helvetica,sans-Serif" font-size="10.00">+ getattr()</text>
<text text-anchor="start" x="256.294" y="-327" font-family="Helvetica,sans-Serif" font-size="10.00">+ setattr()</text>
<text text-anchor="start" x="256.294" y="-315" font-family="Helvetica,sans-Serif" font-size="10.00">+ set()</text>
<text text-anchor="start" x="256.294" y="-303" font-family="Helvetica,sans-Serif" font-size="10.00">+ set()</text>
<text text-anchor="start" x="256.294" y="-291" font-family="Helvetica,sans-Serif" font-size="10.00">+ setattr()</text>
<text text-anchor="start" x="256.294" y="-279" font-family="Helvetica,sans-Serif" font-size="10.00">+ init()</text>
<text text-anchor="start" x="256.294" y="-267" font-family="Helvetica,sans-Serif" font-size="10.00">+ getports()</text>
</a>
</g>
</g>
<!-- Node7&#45;&gt;Node12 -->
<g id="edge11" class="edge"><title>Node7&#45;&gt;Node12</title>
<path fill="none" stroke="midnightblue" d="M320.11,-558.929C313.142,-518.901 303.334,-462.557 295.413,-417.054"/>
<polygon fill="none" stroke="midnightblue" points="316.699,-559.741 321.862,-568.993 323.595,-558.541 316.699,-559.741"/>
</g>
<!-- Node13 -->
<g id="node13" class="node"><title>Node13</title>
<g id="a_node13"><a xlink:href="class_usb.html" target="_top" xlink:title="USB Class. ">
<polygon fill="none" stroke="black" points="333.676,-219 333.676,-459 418.324,-459 418.324,-219 333.676,-219"/>
<text text-anchor="middle" x="376" y="-445" font-family="Helvetica,sans-Serif" font-size="10.00">Usb</text>
<polyline fill="none" stroke="black" points="333.676,-439 418.324,-439 "/>
<text text-anchor="middle" x="376" y="-425" font-family="Helvetica,sans-Serif" font-size="10.00"> </text>
<polyline fill="none" stroke="black" points="333.676,-419 418.324,-419 "/>
<text text-anchor="start" x="341.676" y="-405" font-family="Helvetica,sans-Serif" font-size="10.00">+ Usb()</text>
<text text-anchor="start" x="341.676" y="-393" font-family="Helvetica,sans-Serif" font-size="10.00">+ open()</text>
<text text-anchor="start" x="341.676" y="-381" font-family="Helvetica,sans-Serif" font-size="10.00">+ getattr()</text>
<text text-anchor="start" x="341.676" y="-369" font-family="Helvetica,sans-Serif" font-size="10.00">+ setattr()</text>
<text text-anchor="start" x="341.676" y="-357" font-family="Helvetica,sans-Serif" font-size="10.00">+ reset()</text>
<text text-anchor="start" x="341.676" y="-345" font-family="Helvetica,sans-Serif" font-size="10.00">+ attach()</text>
<text text-anchor="start" x="341.676" y="-333" font-family="Helvetica,sans-Serif" font-size="10.00">+ configure()</text>
<text text-anchor="start" x="341.676" y="-321" font-family="Helvetica,sans-Serif" font-size="10.00">+ detach()</text>
<text text-anchor="start" x="341.676" y="-309" font-family="Helvetica,sans-Serif" font-size="10.00">+ disableep()</text>
<text text-anchor="start" x="341.676" y="-297" font-family="Helvetica,sans-Serif" font-size="10.00">+ enableep()</text>
<text text-anchor="start" x="341.676" y="-285" font-family="Helvetica,sans-Serif" font-size="10.00">+ isconnected()</text>
<text text-anchor="start" x="341.676" y="-273" font-family="Helvetica,sans-Serif" font-size="10.00">+ resetep()</text>
<text text-anchor="start" x="341.676" y="-261" font-family="Helvetica,sans-Serif" font-size="10.00">+ setaddr()</text>
<text text-anchor="start" x="341.676" y="-249" font-family="Helvetica,sans-Serif" font-size="10.00">+ stallep()</text>
<text text-anchor="start" x="341.676" y="-237" font-family="Helvetica,sans-Serif" font-size="10.00">+ unstallep()</text>
<text text-anchor="start" x="341.676" y="-225" font-family="Helvetica,sans-Serif" font-size="10.00">+ getports()</text>
</a>
</g>
</g>
<!-- Node7&#45;&gt;Node13 -->
<g id="edge12" class="edge"><title>Node7&#45;&gt;Node13</title>
<path fill="none" stroke="midnightblue" d="M337.886,-558.955C342.811,-530.66 349.157,-494.206 355.252,-459.19"/>
<polygon fill="none" stroke="midnightblue" points="334.405,-558.541 336.138,-568.993 341.301,-559.741 334.405,-558.541"/>
</g>
<!-- Node11 -->
<g id="node11" class="node"><title>Node11</title>
<g id="a_node11"><a xlink:href="class_iic.html" target="_top" xlink:title="IIC Class (alternate class for I2c) ">
<polygon fill="none" stroke="black" points="176.361,-61 176.361,-121 217.639,-121 217.639,-61 176.361,-61"/>
<text text-anchor="middle" x="197" y="-107" font-family="Helvetica,sans-Serif" font-size="10.00">Iic</text>
<polyline fill="none" stroke="black" points="176.361,-101 217.639,-101 "/>
<text text-anchor="middle" x="197" y="-87" font-family="Helvetica,sans-Serif" font-size="10.00"> </text>
<polyline fill="none" stroke="black" points="176.361,-81 217.639,-81 "/>
<text text-anchor="start" x="184.361" y="-67" font-family="Helvetica,sans-Serif" font-size="10.00">+ Iic()</text>
</a>
</g>
</g>
<!-- Node10&#45;&gt;Node11 -->
<g id="edge10" class="edge"><title>Node10&#45;&gt;Node11</title>
<path fill="none" stroke="midnightblue" d="M197,-244.563C197,-200.651 197,-151.395 197,-121.034"/>
<polygon fill="none" stroke="midnightblue" points="193.5,-244.716 197,-254.716 200.5,-244.716 193.5,-244.716"/>
</g>
<!-- Node15 -->
<g id="node15" class="node"><title>Node15</title>
<g id="a_node15"><a xlink:href="class_spi.html" target="_top" xlink:title="SPI Class. ">
<polygon fill="none" stroke="black" points="435.957,-261 435.957,-417 510.043,-417 510.043,-261 435.957,-261"/>
<text text-anchor="middle" x="473" y="-403" font-family="Helvetica,sans-Serif" font-size="10.00">Spi</text>
<polyline fill="none" stroke="black" points="435.957,-397 510.043,-397 "/>
<text text-anchor="middle" x="473" y="-383" font-family="Helvetica,sans-Serif" font-size="10.00"> </text>
<polyline fill="none" stroke="black" points="435.957,-377 510.043,-377 "/>
<text text-anchor="start" x="443.957" y="-363" font-family="Helvetica,sans-Serif" font-size="10.00">+ Spi()</text>
<text text-anchor="start" x="443.957" y="-351" font-family="Helvetica,sans-Serif" font-size="10.00">+ open()</text>
<text text-anchor="start" x="443.957" y="-339" font-family="Helvetica,sans-Serif" font-size="10.00">+ getattr()</text>
<text text-anchor="start" x="443.957" y="-327" font-family="Helvetica,sans-Serif" font-size="10.00">+ setattr()</text>
<text text-anchor="start" x="443.957" y="-315" font-family="Helvetica,sans-Serif" font-size="10.00">+ swap()</text>
<text text-anchor="start" x="443.957" y="-303" font-family="Helvetica,sans-Serif" font-size="10.00">+ setduplex()</text>
<text text-anchor="start" x="443.957" y="-291" font-family="Helvetica,sans-Serif" font-size="10.00">+ setattr()</text>
<text text-anchor="start" x="443.957" y="-279" font-family="Helvetica,sans-Serif" font-size="10.00">+ init()</text>
<text text-anchor="start" x="443.957" y="-267" font-family="Helvetica,sans-Serif" font-size="10.00">+ getports()</text>
</a>
</g>
</g>
<!-- Node14&#45;&gt;Node15 -->
<g id="edge14" class="edge"><title>Node14&#45;&gt;Node15</title>
<path fill="none" stroke="midnightblue" d="M473,-564.947C473,-524.756 473,-465.048 473,-417.245"/>
<polygon fill="none" stroke="midnightblue" points="469.5,-564.979 473,-574.979 476.5,-564.979 469.5,-564.979"/>
</g>
<!-- Node16 -->
<g id="node16" class="node"><title>Node16</title>
<g id="a_node16"><a xlink:href="class_tmr.html" target="_top" xlink:title="Tmr (physcial timer) Class. ">
<polygon fill="none" stroke="black" points="528.127,-243 528.127,-435 607.873,-435 607.873,-243 528.127,-243"/>
<text text-anchor="middle" x="568" y="-421" font-family="Helvetica,sans-Serif" font-size="10.00">Tmr</text>
<polyline fill="none" stroke="black" points="528.127,-415 607.873,-415 "/>
<text text-anchor="middle" x="568" y="-401" font-family="Helvetica,sans-Serif" font-size="10.00"> </text>
<polyline fill="none" stroke="black" points="528.127,-395 607.873,-395 "/>
<text text-anchor="start" x="536.127" y="-381" font-family="Helvetica,sans-Serif" font-size="10.00">+ Tmr()</text>
<text text-anchor="start" x="536.127" y="-369" font-family="Helvetica,sans-Serif" font-size="10.00">+ open()</text>
<text text-anchor="start" x="536.127" y="-357" font-family="Helvetica,sans-Serif" font-size="10.00">+ getattr()</text>
<text text-anchor="start" x="536.127" y="-345" font-family="Helvetica,sans-Serif" font-size="10.00">+ setattr()</text>
<text text-anchor="start" x="536.127" y="-333" font-family="Helvetica,sans-Serif" font-size="10.00">+ setaction()</text>
<text text-anchor="start" x="536.127" y="-321" font-family="Helvetica,sans-Serif" font-size="10.00">+ setaction()</text>
<text text-anchor="start" x="536.127" y="-309" font-family="Helvetica,sans-Serif" font-size="10.00">+ on()</text>
<text text-anchor="start" x="536.127" y="-297" font-family="Helvetica,sans-Serif" font-size="10.00">+ off()</text>
<text text-anchor="start" x="536.127" y="-285" font-family="Helvetica,sans-Serif" font-size="10.00">+ setoc()</text>
<text text-anchor="start" x="536.127" y="-273" font-family="Helvetica,sans-Serif" font-size="10.00">+ setoc()</text>
<text text-anchor="start" x="536.127" y="-261" font-family="Helvetica,sans-Serif" font-size="10.00">and 11 more...</text>
<text text-anchor="start" x="536.127" y="-249" font-family="Helvetica,sans-Serif" font-size="10.00">+ getports()</text>
</a>
</g>
</g>
<!-- Node14&#45;&gt;Node16 -->
<g id="edge15" class="edge"><title>Node14&#45;&gt;Node16</title>
<path fill="none" stroke="midnightblue" d="M488.705,-565.19C496.074,-544.18 504.98,-518.803 513,-496 519.908,-476.359 527.314,-455.332 534.383,-435.277"/>
<polygon fill="none" stroke="midnightblue" points="485.336,-564.222 485.33,-574.817 491.942,-566.538 485.336,-564.222"/>
</g>
<!-- Node17 -->
<g id="node17" class="node"><title>Node17</title>
<g id="a_node17"><a xlink:href="class_uart.html" target="_top" xlink:title="UART Class. ">
<polygon fill="none" stroke="black" points="626.294,-261 626.294,-417 693.706,-417 693.706,-261 626.294,-261"/>
<text text-anchor="middle" x="660" y="-403" font-family="Helvetica,sans-Serif" font-size="10.00">Uart</text>
<polyline fill="none" stroke="black" points="626.294,-397 693.706,-397 "/>
<text text-anchor="middle" x="660" y="-383" font-family="Helvetica,sans-Serif" font-size="10.00"> </text>
<polyline fill="none" stroke="black" points="626.294,-377 693.706,-377 "/>
<text text-anchor="start" x="634.294" y="-363" font-family="Helvetica,sans-Serif" font-size="10.00">+ Uart()</text>
<text text-anchor="start" x="634.294" y="-351" font-family="Helvetica,sans-Serif" font-size="10.00">+ open()</text>
<text text-anchor="start" x="634.294" y="-339" font-family="Helvetica,sans-Serif" font-size="10.00">+ getattr()</text>
<text text-anchor="start" x="634.294" y="-327" font-family="Helvetica,sans-Serif" font-size="10.00">+ setattr()</text>
<text text-anchor="start" x="634.294" y="-315" font-family="Helvetica,sans-Serif" font-size="10.00">+ getbyte()</text>
<text text-anchor="start" x="634.294" y="-303" font-family="Helvetica,sans-Serif" font-size="10.00">+ flush()</text>
<text text-anchor="start" x="634.294" y="-291" font-family="Helvetica,sans-Serif" font-size="10.00">+ setattr()</text>
<text text-anchor="start" x="634.294" y="-279" font-family="Helvetica,sans-Serif" font-size="10.00">+ init()</text>
<text text-anchor="start" x="634.294" y="-267" font-family="Helvetica,sans-Serif" font-size="10.00">+ getports()</text>
</a>
</g>
</g>
<!-- Node14&#45;&gt;Node17 -->
<g id="edge16" class="edge"><title>Node14&#45;&gt;Node17</title>
<path fill="none" stroke="midnightblue" d="M479.299,-564.817C484.687,-541.566 494.643,-514.334 513,-496 547.311,-461.731 581.45,-494.028 616,-460 627.936,-448.244 636.659,-432.985 643.025,-417.311"/>
<polygon fill="none" stroke="midnightblue" points="475.825,-564.33 477.195,-574.836 482.676,-565.769 475.825,-564.33"/>
</g>
<!-- Node18 -->
<g id="node18" class="node"><title>Node18</title>
<g id="a_node18"><a xlink:href="class_brsp.html" target="_top" xlink:title="BRSP class (bluetooth low energy serial protocol) ">
<polygon fill="none" stroke="black" points="571.759,-1 571.759,-181 652.241,-181 652.241,-1 571.759,-1"/>
<text text-anchor="middle" x="612" y="-167" font-family="Helvetica,sans-Serif" font-size="10.00">Brsp</text>
<polyline fill="none" stroke="black" points="571.759,-161 652.241,-161 "/>
<text text-anchor="middle" x="612" y="-147" font-family="Helvetica,sans-Serif" font-size="10.00"> </text>
<polyline fill="none" stroke="black" points="571.759,-141 652.241,-141 "/>
<text text-anchor="start" x="579.759" y="-127" font-family="Helvetica,sans-Serif" font-size="10.00">+ Brsp()</text>
<text text-anchor="start" x="579.759" y="-115" font-family="Helvetica,sans-Serif" font-size="10.00">+ settimeout()</text>
<text text-anchor="start" x="579.759" y="-103" font-family="Helvetica,sans-Serif" font-size="10.00">+ setuart()</text>
<text text-anchor="start" x="579.759" y="-91" font-family="Helvetica,sans-Serif" font-size="10.00">+ setmode()</text>
<text text-anchor="start" x="579.759" y="-79" font-family="Helvetica,sans-Serif" font-size="10.00">+ discover()</text>
<text text-anchor="start" x="579.759" y="-67" font-family="Helvetica,sans-Serif" font-size="10.00">+ connect()</text>
<text text-anchor="start" x="579.759" y="-55" font-family="Helvetica,sans-Serif" font-size="10.00">+ disconnect()</text>
<text text-anchor="start" x="579.759" y="-43" font-family="Helvetica,sans-Serif" font-size="10.00">+ paired()</text>
<text text-anchor="start" x="579.759" y="-31" font-family="Helvetica,sans-Serif" font-size="10.00">+ name()</text>
<text text-anchor="start" x="579.759" y="-19" font-family="Helvetica,sans-Serif" font-size="10.00">+ version()</text>
<text text-anchor="start" x="579.759" y="-7" font-family="Helvetica,sans-Serif" font-size="10.00">and 15 more...</text>
</a>
</g>
</g>
<!-- Node17&#45;&gt;Node18 -->
<g id="edge17" class="edge"><title>Node17&#45;&gt;Node18</title>
<path fill="none" stroke="midnightblue" d="M643.014,-250.947C638.61,-228.377 633.861,-204.037 629.434,-181.351"/>
<polygon fill="none" stroke="midnightblue" points="639.594,-251.694 644.944,-260.839 646.464,-250.354 639.594,-251.694"/>
</g>
<!-- Node19 -->
<g id="node19" class="node"><title>Node19</title>
<g id="a_node19"><a xlink:href="class_dbug_uart.html" target="_top" xlink:title="Debug UART Class. ">
<polygon fill="none" stroke="black" points="669.962,-37 669.962,-145 744.038,-145 744.038,-37 669.962,-37"/>
<text text-anchor="middle" x="707" y="-131" font-family="Helvetica,sans-Serif" font-size="10.00">DbugUart</text>
<polyline fill="none" stroke="black" points="669.962,-125 744.038,-125 "/>
<text text-anchor="middle" x="707" y="-111" font-family="Helvetica,sans-Serif" font-size="10.00"> </text>
<polyline fill="none" stroke="black" points="669.962,-105 744.038,-105 "/>
<text text-anchor="start" x="677.962" y="-91" font-family="Helvetica,sans-Serif" font-size="10.00">+ DbugUart()</text>
<text text-anchor="start" x="677.962" y="-79" font-family="Helvetica,sans-Serif" font-size="10.00">+ open()</text>
<text text-anchor="start" x="677.962" y="-67" font-family="Helvetica,sans-Serif" font-size="10.00">+ close()</text>
<text text-anchor="start" x="677.962" y="-55" font-family="Helvetica,sans-Serif" font-size="10.00">+ read()</text>
<text text-anchor="start" x="677.962" y="-43" font-family="Helvetica,sans-Serif" font-size="10.00">+ write()</text>
</a>
</g>
</g>
<!-- Node17&#45;&gt;Node19 -->
<g id="edge18" class="edge"><title>Node17&#45;&gt;Node19</title>
<path fill="none" stroke="midnightblue" d="M676.621,-251.003C683.37,-215.681 690.948,-176.016 696.848,-145.138"/>
<polygon fill="none" stroke="midnightblue" points="673.181,-250.36 674.742,-260.839 680.057,-251.674 673.181,-250.36"/>
</g>
<!-- Node21 -->
<g id="node21" class="node"><title>Node21</title>
<g id="a_node21"><a xlink:href="class_pin.html" target="_top" xlink:title="Pin class. ">
<polygon fill="none" stroke="black" points="711.818,-225 711.818,-453 786.182,-453 786.182,-225 711.818,-225"/>
<text text-anchor="middle" x="749" y="-439" font-family="Helvetica,sans-Serif" font-size="10.00">Pin</text>
<polyline fill="none" stroke="black" points="711.818,-433 786.182,-433 "/>
<text text-anchor="middle" x="749" y="-419" font-family="Helvetica,sans-Serif" font-size="10.00"> </text>
<polyline fill="none" stroke="black" points="711.818,-413 786.182,-413 "/>
<text text-anchor="start" x="719.818" y="-399" font-family="Helvetica,sans-Serif" font-size="10.00">+ Pin()</text>
<text text-anchor="start" x="719.818" y="-387" font-family="Helvetica,sans-Serif" font-size="10.00">+ init()</text>
<text text-anchor="start" x="719.818" y="-375" font-family="Helvetica,sans-Serif" font-size="10.00">+ setattr()</text>
<text text-anchor="start" x="719.818" y="-363" font-family="Helvetica,sans-Serif" font-size="10.00">+ setinput()</text>
<text text-anchor="start" x="719.818" y="-351" font-family="Helvetica,sans-Serif" font-size="10.00">+ setoutput()</text>
<text text-anchor="start" x="719.818" y="-339" font-family="Helvetica,sans-Serif" font-size="10.00">+ operator=()</text>
<text text-anchor="start" x="719.818" y="-327" font-family="Helvetica,sans-Serif" font-size="10.00">+ get()</text>
<text text-anchor="start" x="719.818" y="-315" font-family="Helvetica,sans-Serif" font-size="10.00">+ value()</text>
<text text-anchor="start" x="719.818" y="-303" font-family="Helvetica,sans-Serif" font-size="10.00">+ isset()</text>
<text text-anchor="start" x="719.818" y="-291" font-family="Helvetica,sans-Serif" font-size="10.00">+ isclr()</text>
<text text-anchor="start" x="719.818" y="-279" font-family="Helvetica,sans-Serif" font-size="10.00">+ set()</text>
<text text-anchor="start" x="719.818" y="-267" font-family="Helvetica,sans-Serif" font-size="10.00">+ clr()</text>
<text text-anchor="start" x="719.818" y="-255" font-family="Helvetica,sans-Serif" font-size="10.00">+ on()</text>
<text text-anchor="start" x="719.818" y="-243" font-family="Helvetica,sans-Serif" font-size="10.00">+ off()</text>
<text text-anchor="start" x="719.818" y="-231" font-family="Helvetica,sans-Serif" font-size="10.00">+ pinmask()</text>
</a>
</g>
</g>
<!-- Node20&#45;&gt;Node21 -->
<g id="edge20" class="edge"><title>Node20&#45;&gt;Node21</title>
<path fill="none" stroke="midnightblue" d="M600.979,-498.031C601.643,-497.343 602.316,-496.665 603,-496 636.553,-463.347 668.491,-492.697 702,-460 705.523,-456.562 708.788,-452.829 711.812,-448.877"/>
<polygon fill="none" stroke="midnightblue" points="598.15,-495.951 594.244,-505.799 603.439,-500.536 598.15,-495.951"/>
</g>
</g>
</svg>
