<?xml version="1.0" encoding="UTF-8" standalone="no"?>
<!DOCTYPE svg PUBLIC "-//W3C//DTD SVG 1.1//EN"
 "http://www.w3.org/Graphics/SVG/1.1/DTD/svg11.dtd">
<!-- Generated by graphviz version 2.34.0 (20130907.0228)
 -->
<!-- Title: MFont Pages: 1 -->
<svg width="84pt" height="216pt"
 viewBox="0.00 0.00 84.00 216.00" xmlns="http://www.w3.org/2000/svg" xmlns:xlink="http://www.w3.org/1999/xlink">
<g id="graph0" class="graph" transform="scale(1 1) rotate(0) translate(4 212)">
<title>MFont</title>
<!-- Node1 -->
<g id="node1" class="node"><title>Node1</title>
<polygon fill="#bfbfbf" stroke="black" points="8.19092,-1 8.19092,-73 67.8091,-73 67.8091,-1 8.19092,-1"/>
<text text-anchor="middle" x="38" y="-59" font-family="Helvetica,sans-Serif" font-size="10.00">MFont</text>
<polyline fill="none" stroke="black" points="8.19092,-53 67.8091,-53 "/>
<text text-anchor="middle" x="38" y="-39" font-family="Helvetica,sans-Serif" font-size="10.00"> </text>
<polyline fill="none" stroke="black" points="8.19092,-33 67.8091,-33 "/>
<text text-anchor="start" x="16.1909" y="-19" font-family="Helvetica,sans-Serif" font-size="10.00">+ MFont()</text>
<text text-anchor="start" x="16.1909" y="-7" font-family="Helvetica,sans-Serif" font-size="10.00">+ len()</text>
</g>
<!-- Node2 -->
<g id="node2" class="node"><title>Node2</title>
<g id="a_node2"><a xlink:href="class_font.html" target="_top" xlink:title="Font class. ">
<polygon fill="none" stroke="black" points="-0.847168,-111 -0.847168,-207 76.8472,-207 76.8472,-111 -0.847168,-111"/>
<text text-anchor="middle" x="38" y="-193" font-family="Helvetica,sans-Serif" font-size="10.00">Font</text>
<polyline fill="none" stroke="black" points="-0.847168,-187 76.8472,-187 "/>
<text text-anchor="middle" x="38" y="-173" font-family="Helvetica,sans-Serif" font-size="10.00"> </text>
<polyline fill="none" stroke="black" points="-0.847168,-167 76.8472,-167 "/>
<text text-anchor="start" x="7.15283" y="-153" font-family="Helvetica,sans-Serif" font-size="10.00">+ Font()</text>
<text text-anchor="start" x="7.15283" y="-141" font-family="Helvetica,sans-Serif" font-size="10.00">+ len()</text>
<text text-anchor="start" x="7.15283" y="-129" font-family="Helvetica,sans-Serif" font-size="10.00">+ charset()</text>
<text text-anchor="start" x="7.15283" y="-117" font-family="Helvetica,sans-Serif" font-size="10.00"># to_charset()</text>
</a>
</g>
</g>
<!-- Node2&#45;&gt;Node1 -->
<g id="edge1" class="edge"><title>Node2&#45;&gt;Node1</title>
<path fill="none" stroke="midnightblue" d="M38,-100.746C38,-91.2994 38,-81.7615 38,-73.0719"/>
<polygon fill="none" stroke="midnightblue" points="34.5001,-100.917 38,-110.917 41.5001,-100.917 34.5001,-100.917"/>
</g>
</g>
</svg>
