<?xml version="1.0" encoding="UTF-8" standalone="no"?>
<!DOCTYPE svg PUBLIC "-//W3C//DTD SVG 1.1//EN"
 "http://www.w3.org/Graphics/SVG/1.1/DTD/svg11.dtd">
<!-- Generated by graphviz version 2.34.0 (20130907.0228)
 -->
<!-- Title: Pchar Pages: 1 -->
<svg width="74pt" height="506pt"
 viewBox="0.00 0.00 74.00 506.00" xmlns="http://www.w3.org/2000/svg" xmlns:xlink="http://www.w3.org/1999/xlink">
<g id="graph0" class="graph" transform="scale(1 1) rotate(0) translate(4 502)">
<title>Pchar</title>
<!-- Node1 -->
<g id="node1" class="node"><title>Node1</title>
<polygon fill="#bfbfbf" stroke="black" points="2.62695,-1 2.62695,-73 63.373,-73 63.373,-1 2.62695,-1"/>
<text text-anchor="middle" x="33" y="-59" font-family="Helvetica,sans-Serif" font-size="10.00">Pchar</text>
<polyline fill="none" stroke="black" points="2.62695,-53 63.373,-53 "/>
<text text-anchor="middle" x="33" y="-39" font-family="Helvetica,sans-Serif" font-size="10.00"> </text>
<polyline fill="none" stroke="black" points="2.62695,-33 63.373,-33 "/>
<text text-anchor="start" x="10.627" y="-19" font-family="Helvetica,sans-Serif" font-size="10.00">+ Pchar()</text>
<text text-anchor="start" x="10.627" y="-7" font-family="Helvetica,sans-Serif" font-size="10.00">+ getline()</text>
</g>
<!-- Node2 -->
<g id="node2" class="node"><title>Node2</title>
<g id="a_node2"><a xlink:href="class_periph.html" target="_top" xlink:title="Peripheral Class. ">
<polygon fill="none" stroke="black" points="-0.429688,-111 -0.429688,-351 66.4297,-351 66.4297,-111 -0.429688,-111"/>
<text text-anchor="middle" x="33" y="-337" font-family="Helvetica,sans-Serif" font-size="10.00">Periph</text>
<polyline fill="none" stroke="black" points="-0.429688,-331 66.4297,-331 "/>
<text text-anchor="start" x="7.57031" y="-317" font-family="Helvetica,sans-Serif" font-size="10.00"># port_</text>
<text text-anchor="start" x="7.57031" y="-305" font-family="Helvetica,sans-Serif" font-size="10.00"># fd</text>
<polyline fill="none" stroke="black" points="-0.429688,-299 66.4297,-299 "/>
<text text-anchor="start" x="7.57031" y="-285" font-family="Helvetica,sans-Serif" font-size="10.00">+ Periph()</text>
<text text-anchor="start" x="7.57031" y="-273" font-family="Helvetica,sans-Serif" font-size="10.00">+ open()</text>
<text text-anchor="start" x="7.57031" y="-261" font-family="Helvetica,sans-Serif" font-size="10.00">+ open()</text>
<text text-anchor="start" x="7.57031" y="-249" font-family="Helvetica,sans-Serif" font-size="10.00">+ setflags()</text>
<text text-anchor="start" x="7.57031" y="-237" font-family="Helvetica,sans-Serif" font-size="10.00">+ read()</text>
<text text-anchor="start" x="7.57031" y="-225" font-family="Helvetica,sans-Serif" font-size="10.00">+ readline()</text>
<text text-anchor="start" x="7.57031" y="-213" font-family="Helvetica,sans-Serif" font-size="10.00">+ write()</text>
<text text-anchor="start" x="7.57031" y="-201" font-family="Helvetica,sans-Serif" font-size="10.00">+ write()</text>
<text text-anchor="start" x="7.57031" y="-189" font-family="Helvetica,sans-Serif" font-size="10.00">+ close()</text>
<text text-anchor="start" x="7.57031" y="-177" font-family="Helvetica,sans-Serif" font-size="10.00">+ read()</text>
<text text-anchor="start" x="7.57031" y="-165" font-family="Helvetica,sans-Serif" font-size="10.00">+ write()</text>
<text text-anchor="start" x="7.57031" y="-153" font-family="Helvetica,sans-Serif" font-size="10.00">+ fileno()</text>
<text text-anchor="start" x="7.57031" y="-141" font-family="Helvetica,sans-Serif" font-size="10.00">+ ioctl()</text>
<text text-anchor="start" x="7.57031" y="-129" font-family="Helvetica,sans-Serif" font-size="10.00">+ port()</text>
<text text-anchor="start" x="7.57031" y="-117" font-family="Helvetica,sans-Serif" font-size="10.00"># _open()</text>
</a>
</g>
</g>
<!-- Node2&#45;&gt;Node1 -->
<g id="edge1" class="edge"><title>Node2&#45;&gt;Node1</title>
<path fill="none" stroke="midnightblue" d="M33,-100.792C33,-90.884 33,-81.5143 33,-73.1835"/>
<polygon fill="none" stroke="midnightblue" points="29.5001,-100.861 33,-110.861 36.5001,-100.861 29.5001,-100.861"/>
</g>
<!-- Node3 -->
<g id="node3" class="node"><title>Node3</title>
<g id="a_node3"><a xlink:href="class_phy.html" target="_top" xlink:title="Base Applib Class for Physical devices. ">
<polygon fill="none" stroke="black" points="8.46924,-389 8.46924,-497 57.5308,-497 57.5308,-389 8.46924,-389"/>
<text text-anchor="middle" x="33" y="-483" font-family="Helvetica,sans-Serif" font-size="10.00">Phy</text>
<polyline fill="none" stroke="black" points="8.46924,-477 57.5308,-477 "/>
<text text-anchor="middle" x="33" y="-463" font-family="Helvetica,sans-Serif" font-size="10.00"> </text>
<polyline fill="none" stroke="black" points="8.46924,-457 57.5308,-457 "/>
<text text-anchor="start" x="16.4692" y="-443" font-family="Helvetica,sans-Serif" font-size="10.00">+ Phy()</text>
<text text-anchor="start" x="16.4692" y="-431" font-family="Helvetica,sans-Serif" font-size="10.00">+ ioctl()</text>
<text text-anchor="start" x="16.4692" y="-419" font-family="Helvetica,sans-Serif" font-size="10.00">+ ioctl()</text>
<text text-anchor="start" x="16.4692" y="-407" font-family="Helvetica,sans-Serif" font-size="10.00">+ ioctl()</text>
<text text-anchor="start" x="16.4692" y="-395" font-family="Helvetica,sans-Serif" font-size="10.00">+ ioctl()</text>
</a>
</g>
</g>
<!-- Node3&#45;&gt;Node2 -->
<g id="edge2" class="edge"><title>Node3&#45;&gt;Node2</title>
<path fill="none" stroke="midnightblue" d="M33,-378.643C33,-369.847 33,-360.586 33,-351.17"/>
<polygon fill="none" stroke="midnightblue" points="29.5001,-378.737 33,-388.737 36.5001,-378.737 29.5001,-378.737"/>
</g>
</g>
</svg>
