<?xml version="1.0" encoding="UTF-8" standalone="no"?>
<!DOCTYPE svg PUBLIC "-//W3C//DTD SVG 1.1//EN"
 "http://www.w3.org/Graphics/SVG/1.1/DTD/svg11.dtd">
<!-- Generated by graphviz version 2.34.0 (20130907.0228)
 -->
<!-- Title: DbugNull Pages: 1 -->
<svg width="88pt" height="324pt"
 viewBox="0.00 0.00 88.00 324.00" xmlns="http://www.w3.org/2000/svg" xmlns:xlink="http://www.w3.org/1999/xlink">
<g id="graph0" class="graph" transform="scale(1 1) rotate(0) translate(4 320)">
<title>DbugNull</title>
<!-- Node1 -->
<g id="node1" class="node"><title>Node1</title>
<polygon fill="#bfbfbf" stroke="black" points="3.79443,-1 3.79443,-109 76.2056,-109 76.2056,-1 3.79443,-1"/>
<text text-anchor="middle" x="40" y="-95" font-family="Helvetica,sans-Serif" font-size="10.00">DbugNull</text>
<polyline fill="none" stroke="black" points="3.79443,-89 76.2056,-89 "/>
<text text-anchor="middle" x="40" y="-75" font-family="Helvetica,sans-Serif" font-size="10.00"> </text>
<polyline fill="none" stroke="black" points="3.79443,-69 76.2056,-69 "/>
<text text-anchor="start" x="11.7944" y="-55" font-family="Helvetica,sans-Serif" font-size="10.00">+ DbugNull()</text>
<text text-anchor="start" x="11.7944" y="-43" font-family="Helvetica,sans-Serif" font-size="10.00">+ open()</text>
<text text-anchor="start" x="11.7944" y="-31" font-family="Helvetica,sans-Serif" font-size="10.00">+ close()</text>
<text text-anchor="start" x="11.7944" y="-19" font-family="Helvetica,sans-Serif" font-size="10.00">+ read()</text>
<text text-anchor="start" x="11.7944" y="-7" font-family="Helvetica,sans-Serif" font-size="10.00">+ write()</text>
</g>
<!-- Node2 -->
<g id="node2" class="node"><title>Node2</title>
<g id="a_node2"><a xlink:href="class_dbug.html" target="_top" xlink:title="Debug Class. ">
<polygon fill="none" stroke="black" points="-0.102051,-147 -0.102051,-315 80.1021,-315 80.1021,-147 -0.102051,-147"/>
<text text-anchor="middle" x="40" y="-301" font-family="Helvetica,sans-Serif" font-size="10.00">Dbug</text>
<polyline fill="none" stroke="black" points="-0.102051,-295 80.1021,-295 "/>
<text text-anchor="middle" x="40" y="-281" font-family="Helvetica,sans-Serif" font-size="10.00"> </text>
<polyline fill="none" stroke="black" points="-0.102051,-275 80.1021,-275 "/>
<text text-anchor="start" x="7.89795" y="-261" font-family="Helvetica,sans-Serif" font-size="10.00">+ Dbug()</text>
<text text-anchor="start" x="7.89795" y="-249" font-family="Helvetica,sans-Serif" font-size="10.00">+ setmode()</text>
<text text-anchor="start" x="7.89795" y="-237" font-family="Helvetica,sans-Serif" font-size="10.00">+ puts()</text>
<text text-anchor="start" x="7.89795" y="-225" font-family="Helvetica,sans-Serif" font-size="10.00">+ operator&lt;&lt;()</text>
<text text-anchor="start" x="7.89795" y="-213" font-family="Helvetica,sans-Serif" font-size="10.00">+ operator&lt;&lt;()</text>
<text text-anchor="start" x="7.89795" y="-201" font-family="Helvetica,sans-Serif" font-size="10.00">+ operator&lt;&lt;()</text>
<text text-anchor="start" x="7.89795" y="-189" font-family="Helvetica,sans-Serif" font-size="10.00">+ operator&lt;&lt;()</text>
<text text-anchor="start" x="7.89795" y="-177" font-family="Helvetica,sans-Serif" font-size="10.00">+ operator&lt;&lt;()</text>
<text text-anchor="start" x="7.89795" y="-165" font-family="Helvetica,sans-Serif" font-size="10.00">+ operator&lt;&lt;()</text>
<text text-anchor="start" x="7.89795" y="-153" font-family="Helvetica,sans-Serif" font-size="10.00">+ write()</text>
</a>
</g>
</g>
<!-- Node2&#45;&gt;Node1 -->
<g id="edge1" class="edge"><title>Node2&#45;&gt;Node1</title>
<path fill="none" stroke="midnightblue" d="M40,-136.654C40,-127.3 40,-118.044 40,-109.322"/>
<polygon fill="none" stroke="midnightblue" points="36.5001,-136.822 40,-146.822 43.5001,-136.822 36.5001,-136.822"/>
</g>
</g>
</svg>
