<?xml version="1.0" encoding="UTF-8" standalone="no"?>
<!DOCTYPE svg PUBLIC "-//W3C//DTD SVG 1.1//EN"
 "http://www.w3.org/Graphics/SVG/1.1/DTD/svg11.dtd">
<!-- Generated by graphviz version 2.34.0 (20130907.0228)
 -->
<!-- Title: RleFile Pages: 1 -->
<svg width="154pt" height="506pt"
 viewBox="0.00 0.00 154.00 506.00" xmlns="http://www.w3.org/2000/svg" xmlns:xlink="http://www.w3.org/1999/xlink">
<g id="graph0" class="graph" transform="scale(1 1) rotate(0) translate(4 502)">
<title>RleFile</title>
<!-- Node1 -->
<g id="node1" class="node"><title>Node1</title>
<polygon fill="#bfbfbf" stroke="black" points="46.8042,-1 46.8042,-73 99.1958,-73 99.1958,-1 46.8042,-1"/>
<text text-anchor="middle" x="73" y="-59" font-family="Helvetica,sans-Serif" font-size="10.00">RleFile</text>
<polyline fill="none" stroke="black" points="46.8042,-53 99.1958,-53 "/>
<text text-anchor="middle" x="73" y="-39" font-family="Helvetica,sans-Serif" font-size="10.00"> </text>
<polyline fill="none" stroke="black" points="46.8042,-33 99.1958,-33 "/>
<text text-anchor="start" x="54.8042" y="-19" font-family="Helvetica,sans-Serif" font-size="10.00">+ write()</text>
<text text-anchor="start" x="54.8042" y="-7" font-family="Helvetica,sans-Serif" font-size="10.00">+ read()</text>
</g>
<!-- Node2 -->
<g id="node2" class="node"><title>Node2</title>
<g id="a_node2"><a xlink:href="class_rle.html" target="_top" xlink:title="Run Length Encoding Class. ">
<polygon fill="none" stroke="black" points="-0.0429688,-183 -0.0429688,-279 64.043,-279 64.043,-183 -0.0429688,-183"/>
<text text-anchor="middle" x="32" y="-265" font-family="Helvetica,sans-Serif" font-size="10.00">Rle</text>
<polyline fill="none" stroke="black" points="-0.0429688,-259 64.043,-259 "/>
<text text-anchor="middle" x="32" y="-245" font-family="Helvetica,sans-Serif" font-size="10.00"> </text>
<polyline fill="none" stroke="black" points="-0.0429688,-239 64.043,-239 "/>
<text text-anchor="start" x="7.95703" y="-225" font-family="Helvetica,sans-Serif" font-size="10.00">+ Rle()</text>
<text text-anchor="start" x="7.95703" y="-213" font-family="Helvetica,sans-Serif" font-size="10.00">+ encode()</text>
<text text-anchor="start" x="7.95703" y="-201" font-family="Helvetica,sans-Serif" font-size="10.00">+ decode()</text>
<text text-anchor="start" x="7.95703" y="-189" font-family="Helvetica,sans-Serif" font-size="10.00">+ size()</text>
</a>
</g>
</g>
<!-- Node2&#45;&gt;Node1 -->
<g id="edge1" class="edge"><title>Node2&#45;&gt;Node1</title>
<path fill="none" stroke="midnightblue" d="M44.2262,-172.746C51.135,-140.392 59.5505,-100.983 65.4908,-73.1651"/>
<polygon fill="none" stroke="midnightblue" points="40.8004,-172.029 42.1348,-182.539 47.6461,-173.491 40.8004,-172.029"/>
</g>
<!-- Node3 -->
<g id="node3" class="node"><title>Node3</title>
<g id="a_node3"><a xlink:href="class_file.html" target="_top" xlink:title="File Class. ">
<polygon fill="none" stroke="black" points="81.6885,-111 81.6885,-351 146.312,-351 146.312,-111 81.6885,-111"/>
<text text-anchor="middle" x="114" y="-337" font-family="Helvetica,sans-Serif" font-size="10.00">File</text>
<polyline fill="none" stroke="black" points="81.6885,-331 146.312,-331 "/>
<text text-anchor="middle" x="114" y="-317" font-family="Helvetica,sans-Serif" font-size="10.00"> </text>
<polyline fill="none" stroke="black" points="81.6885,-311 146.312,-311 "/>
<text text-anchor="start" x="89.6885" y="-297" font-family="Helvetica,sans-Serif" font-size="10.00">+ File()</text>
<text text-anchor="start" x="89.6885" y="-285" font-family="Helvetica,sans-Serif" font-size="10.00">+ open()</text>
<text text-anchor="start" x="89.6885" y="-273" font-family="Helvetica,sans-Serif" font-size="10.00">+ create()</text>
<text text-anchor="start" x="89.6885" y="-261" font-family="Helvetica,sans-Serif" font-size="10.00">+ read()</text>
<text text-anchor="start" x="89.6885" y="-249" font-family="Helvetica,sans-Serif" font-size="10.00">+ read()</text>
<text text-anchor="start" x="89.6885" y="-237" font-family="Helvetica,sans-Serif" font-size="10.00">+ write()</text>
<text text-anchor="start" x="89.6885" y="-225" font-family="Helvetica,sans-Serif" font-size="10.00">+ write()</text>
<text text-anchor="start" x="89.6885" y="-213" font-family="Helvetica,sans-Serif" font-size="10.00">+ seek()</text>
<text text-anchor="start" x="89.6885" y="-201" font-family="Helvetica,sans-Serif" font-size="10.00">+ size()</text>
<text text-anchor="start" x="89.6885" y="-189" font-family="Helvetica,sans-Serif" font-size="10.00">+ close()</text>
<text text-anchor="start" x="89.6885" y="-177" font-family="Helvetica,sans-Serif" font-size="10.00">+ fileno()</text>
<text text-anchor="start" x="89.6885" y="-165" font-family="Helvetica,sans-Serif" font-size="10.00">+ gets()</text>
<text text-anchor="start" x="89.6885" y="-153" font-family="Helvetica,sans-Serif" font-size="10.00">+ gets()</text>
<text text-anchor="start" x="89.6885" y="-141" font-family="Helvetica,sans-Serif" font-size="10.00">+ gets()</text>
<text text-anchor="start" x="89.6885" y="-129" font-family="Helvetica,sans-Serif" font-size="10.00">+ ioctl()</text>
<text text-anchor="start" x="89.6885" y="-117" font-family="Helvetica,sans-Serif" font-size="10.00">+ remove()</text>
</a>
</g>
</g>
<!-- Node3&#45;&gt;Node1 -->
<g id="edge2" class="edge"><title>Node3&#45;&gt;Node1</title>
<path fill="none" stroke="midnightblue" d="M86.4087,-100.792C84.2929,-90.884 82.2921,-81.5143 80.5131,-73.1835"/>
<polygon fill="none" stroke="midnightblue" points="83.0476,-101.812 88.5588,-110.861 89.8932,-100.35 83.0476,-101.812"/>
</g>
<!-- Node4 -->
<g id="node4" class="node"><title>Node4</title>
<g id="a_node4"><a xlink:href="class_phy.html" target="_top" xlink:title="Base Applib Class for Physical devices. ">
<polygon fill="none" stroke="black" points="89.4692,-389 89.4692,-497 138.531,-497 138.531,-389 89.4692,-389"/>
<text text-anchor="middle" x="114" y="-483" font-family="Helvetica,sans-Serif" font-size="10.00">Phy</text>
<polyline fill="none" stroke="black" points="89.4692,-477 138.531,-477 "/>
<text text-anchor="middle" x="114" y="-463" font-family="Helvetica,sans-Serif" font-size="10.00"> </text>
<polyline fill="none" stroke="black" points="89.4692,-457 138.531,-457 "/>
<text text-anchor="start" x="97.4692" y="-443" font-family="Helvetica,sans-Serif" font-size="10.00">+ Phy()</text>
<text text-anchor="start" x="97.4692" y="-431" font-family="Helvetica,sans-Serif" font-size="10.00">+ ioctl()</text>
<text text-anchor="start" x="97.4692" y="-419" font-family="Helvetica,sans-Serif" font-size="10.00">+ ioctl()</text>
<text text-anchor="start" x="97.4692" y="-407" font-family="Helvetica,sans-Serif" font-size="10.00">+ ioctl()</text>
<text text-anchor="start" x="97.4692" y="-395" font-family="Helvetica,sans-Serif" font-size="10.00">+ ioctl()</text>
</a>
</g>
</g>
<!-- Node4&#45;&gt;Node3 -->
<g id="edge3" class="edge"><title>Node4&#45;&gt;Node3</title>
<path fill="none" stroke="midnightblue" d="M114,-378.643C114,-369.847 114,-360.586 114,-351.17"/>
<polygon fill="none" stroke="midnightblue" points="110.5,-378.737 114,-388.737 117.5,-378.737 110.5,-378.737"/>
</g>
</g>
</svg>
