<?xml version="1.0" encoding="UTF-8" standalone="no"?>
<!DOCTYPE svg PUBLIC "-//W3C//DTD SVG 1.1//EN"
 "http://www.w3.org/Graphics/SVG/1.1/DTD/svg11.dtd">
<!-- Generated by graphviz version 2.34.0 (20130907.0228)
 -->
<!-- Title: Tmr Pages: 1 -->
<svg width="86pt" height="736pt"
 viewBox="0.00 0.00 86.00 736.00" xmlns="http://www.w3.org/2000/svg" xmlns:xlink="http://www.w3.org/1999/xlink">
<g id="graph0" class="graph" transform="scale(1 1) rotate(0) translate(4 732)">
<title>Tmr</title>
<!-- Node1 -->
<g id="node1" class="node"><title>Node1</title>
<polygon fill="#bfbfbf" stroke="black" points="-0.872559,-1 -0.872559,-193 78.8726,-193 78.8726,-1 -0.872559,-1"/>
<text text-anchor="middle" x="39" y="-179" font-family="Helvetica,sans-Serif" font-size="10.00">Tmr</text>
<polyline fill="none" stroke="black" points="-0.872559,-173 78.8726,-173 "/>
<text text-anchor="middle" x="39" y="-159" font-family="Helvetica,sans-Serif" font-size="10.00"> </text>
<polyline fill="none" stroke="black" points="-0.872559,-153 78.8726,-153 "/>
<text text-anchor="start" x="7.12744" y="-139" font-family="Helvetica,sans-Serif" font-size="10.00">+ Tmr()</text>
<text text-anchor="start" x="7.12744" y="-127" font-family="Helvetica,sans-Serif" font-size="10.00">+ open()</text>
<text text-anchor="start" x="7.12744" y="-115" font-family="Helvetica,sans-Serif" font-size="10.00">+ getattr()</text>
<text text-anchor="start" x="7.12744" y="-103" font-family="Helvetica,sans-Serif" font-size="10.00">+ setattr()</text>
<text text-anchor="start" x="7.12744" y="-91" font-family="Helvetica,sans-Serif" font-size="10.00">+ setaction()</text>
<text text-anchor="start" x="7.12744" y="-79" font-family="Helvetica,sans-Serif" font-size="10.00">+ setaction()</text>
<text text-anchor="start" x="7.12744" y="-67" font-family="Helvetica,sans-Serif" font-size="10.00">+ on()</text>
<text text-anchor="start" x="7.12744" y="-55" font-family="Helvetica,sans-Serif" font-size="10.00">+ off()</text>
<text text-anchor="start" x="7.12744" y="-43" font-family="Helvetica,sans-Serif" font-size="10.00">+ setoc()</text>
<text text-anchor="start" x="7.12744" y="-31" font-family="Helvetica,sans-Serif" font-size="10.00">+ setoc()</text>
<text text-anchor="start" x="7.12744" y="-19" font-family="Helvetica,sans-Serif" font-size="10.00">and 11 more...</text>
<text text-anchor="start" x="7.12744" y="-7" font-family="Helvetica,sans-Serif" font-size="10.00">+ getports()</text>
</g>
<!-- Node2 -->
<g id="node2" class="node"><title>Node2</title>
<g id="a_node2"><a xlink:href="class_pchar.html" target="_top" xlink:title="Peripheral Character Class. ">
<polygon fill="none" stroke="black" points="8.62695,-231 8.62695,-303 69.373,-303 69.373,-231 8.62695,-231"/>
<text text-anchor="middle" x="39" y="-289" font-family="Helvetica,sans-Serif" font-size="10.00">Pchar</text>
<polyline fill="none" stroke="black" points="8.62695,-283 69.373,-283 "/>
<text text-anchor="middle" x="39" y="-269" font-family="Helvetica,sans-Serif" font-size="10.00"> </text>
<polyline fill="none" stroke="black" points="8.62695,-263 69.373,-263 "/>
<text text-anchor="start" x="16.627" y="-249" font-family="Helvetica,sans-Serif" font-size="10.00">+ Pchar()</text>
<text text-anchor="start" x="16.627" y="-237" font-family="Helvetica,sans-Serif" font-size="10.00">+ getline()</text>
</a>
</g>
</g>
<!-- Node2&#45;&gt;Node1 -->
<g id="edge1" class="edge"><title>Node2&#45;&gt;Node1</title>
<path fill="none" stroke="midnightblue" d="M39,-220.605C39,-211.95 39,-202.596 39,-193.049"/>
<polygon fill="none" stroke="midnightblue" points="35.5001,-220.782 39,-230.782 42.5001,-220.782 35.5001,-220.782"/>
</g>
<!-- Node3 -->
<g id="node3" class="node"><title>Node3</title>
<g id="a_node3"><a xlink:href="class_periph.html" target="_top" xlink:title="Peripheral Class. ">
<polygon fill="none" stroke="black" points="5.57031,-341 5.57031,-581 72.4297,-581 72.4297,-341 5.57031,-341"/>
<text text-anchor="middle" x="39" y="-567" font-family="Helvetica,sans-Serif" font-size="10.00">Periph</text>
<polyline fill="none" stroke="black" points="5.57031,-561 72.4297,-561 "/>
<text text-anchor="start" x="13.5703" y="-547" font-family="Helvetica,sans-Serif" font-size="10.00"># port_</text>
<text text-anchor="start" x="13.5703" y="-535" font-family="Helvetica,sans-Serif" font-size="10.00"># fd</text>
<polyline fill="none" stroke="black" points="5.57031,-529 72.4297,-529 "/>
<text text-anchor="start" x="13.5703" y="-515" font-family="Helvetica,sans-Serif" font-size="10.00">+ Periph()</text>
<text text-anchor="start" x="13.5703" y="-503" font-family="Helvetica,sans-Serif" font-size="10.00">+ open()</text>
<text text-anchor="start" x="13.5703" y="-491" font-family="Helvetica,sans-Serif" font-size="10.00">+ open()</text>
<text text-anchor="start" x="13.5703" y="-479" font-family="Helvetica,sans-Serif" font-size="10.00">+ setflags()</text>
<text text-anchor="start" x="13.5703" y="-467" font-family="Helvetica,sans-Serif" font-size="10.00">+ read()</text>
<text text-anchor="start" x="13.5703" y="-455" font-family="Helvetica,sans-Serif" font-size="10.00">+ readline()</text>
<text text-anchor="start" x="13.5703" y="-443" font-family="Helvetica,sans-Serif" font-size="10.00">+ write()</text>
<text text-anchor="start" x="13.5703" y="-431" font-family="Helvetica,sans-Serif" font-size="10.00">+ write()</text>
<text text-anchor="start" x="13.5703" y="-419" font-family="Helvetica,sans-Serif" font-size="10.00">+ close()</text>
<text text-anchor="start" x="13.5703" y="-407" font-family="Helvetica,sans-Serif" font-size="10.00">+ read()</text>
<text text-anchor="start" x="13.5703" y="-395" font-family="Helvetica,sans-Serif" font-size="10.00">+ write()</text>
<text text-anchor="start" x="13.5703" y="-383" font-family="Helvetica,sans-Serif" font-size="10.00">+ fileno()</text>
<text text-anchor="start" x="13.5703" y="-371" font-family="Helvetica,sans-Serif" font-size="10.00">+ ioctl()</text>
<text text-anchor="start" x="13.5703" y="-359" font-family="Helvetica,sans-Serif" font-size="10.00">+ port()</text>
<text text-anchor="start" x="13.5703" y="-347" font-family="Helvetica,sans-Serif" font-size="10.00"># _open()</text>
</a>
</g>
</g>
<!-- Node3&#45;&gt;Node2 -->
<g id="edge2" class="edge"><title>Node3&#45;&gt;Node2</title>
<path fill="none" stroke="midnightblue" d="M39,-330.792C39,-320.884 39,-311.514 39,-303.183"/>
<polygon fill="none" stroke="midnightblue" points="35.5001,-330.861 39,-340.861 42.5001,-330.861 35.5001,-330.861"/>
</g>
<!-- Node4 -->
<g id="node4" class="node"><title>Node4</title>
<g id="a_node4"><a xlink:href="class_phy.html" target="_top" xlink:title="Base Applib Class for Physical devices. ">
<polygon fill="none" stroke="black" points="14.4692,-619 14.4692,-727 63.5308,-727 63.5308,-619 14.4692,-619"/>
<text text-anchor="middle" x="39" y="-713" font-family="Helvetica,sans-Serif" font-size="10.00">Phy</text>
<polyline fill="none" stroke="black" points="14.4692,-707 63.5308,-707 "/>
<text text-anchor="middle" x="39" y="-693" font-family="Helvetica,sans-Serif" font-size="10.00"> </text>
<polyline fill="none" stroke="black" points="14.4692,-687 63.5308,-687 "/>
<text text-anchor="start" x="22.4692" y="-673" font-family="Helvetica,sans-Serif" font-size="10.00">+ Phy()</text>
<text text-anchor="start" x="22.4692" y="-661" font-family="Helvetica,sans-Serif" font-size="10.00">+ ioctl()</text>
<text text-anchor="start" x="22.4692" y="-649" font-family="Helvetica,sans-Serif" font-size="10.00">+ ioctl()</text>
<text text-anchor="start" x="22.4692" y="-637" font-family="Helvetica,sans-Serif" font-size="10.00">+ ioctl()</text>
<text text-anchor="start" x="22.4692" y="-625" font-family="Helvetica,sans-Serif" font-size="10.00">+ ioctl()</text>
</a>
</g>
</g>
<!-- Node4&#45;&gt;Node3 -->
<g id="edge3" class="edge"><title>Node4&#45;&gt;Node3</title>
<path fill="none" stroke="midnightblue" d="M39,-608.643C39,-599.847 39,-590.586 39,-581.17"/>
<polygon fill="none" stroke="midnightblue" points="35.5001,-608.737 39,-618.737 42.5001,-608.737 35.5001,-608.737"/>
</g>
</g>
</svg>
