<?xml version="1.0" encoding="UTF-8" standalone="no"?>
<!DOCTYPE svg PUBLIC "-//W3C//DTD SVG 1.1//EN"
 "http://www.w3.org/Graphics/SVG/1.1/DTD/svg11.dtd">
<!-- Generated by graphviz version 2.34.0 (20130907.0228)
 -->
<!-- Title: Dsp::Ema_i32 Pages: 1 -->
<svg width="114pt" height="216pt"
 viewBox="0.00 0.00 114.00 216.00" xmlns="http://www.w3.org/2000/svg" xmlns:xlink="http://www.w3.org/1999/xlink">
<g id="graph0" class="graph" transform="scale(1 1) rotate(0) translate(4 212)">
<title>Dsp::Ema_i32</title>
<!-- Node1 -->
<g id="node1" class="node"><title>Node1</title>
<polygon fill="#bfbfbf" stroke="black" points="13.5962,-1 13.5962,-61 92.4038,-61 92.4038,-1 13.5962,-1"/>
<text text-anchor="middle" x="53" y="-47" font-family="Helvetica,sans-Serif" font-size="10.00">Dsp::Ema_i32</text>
<polyline fill="none" stroke="black" points="13.5962,-41 92.4038,-41 "/>
<text text-anchor="middle" x="53" y="-27" font-family="Helvetica,sans-Serif" font-size="10.00"> </text>
<polyline fill="none" stroke="black" points="13.5962,-21 92.4038,-21 "/>
<text text-anchor="start" x="21.5962" y="-7" font-family="Helvetica,sans-Serif" font-size="10.00">+ Ema_i32()</text>
</g>
<!-- Node2 -->
<g id="node2" class="node"><title>Node2</title>
<g id="a_node2"><a xlink:href="class_dsp_1_1_ema.html" target="_top" xlink:title="{Dsp::Ema\&lt; uint16_t,\l int32_t, int64_t \&gt;\n||+ Ema()\l+ small_max()\l+ calc()\l+ avg()\l}">
<polygon fill="none" stroke="black" points="-0.441895,-99 -0.441895,-207 106.442,-207 106.442,-99 -0.441895,-99"/>
<text text-anchor="start" x="7.55811" y="-193" font-family="Helvetica,sans-Serif" font-size="10.00">Dsp::Ema&lt; uint16_t,</text>
<text text-anchor="middle" x="53" y="-181" font-family="Helvetica,sans-Serif" font-size="10.00"> int32_t, int64_t &gt;</text>
<polyline fill="none" stroke="black" points="-0.441895,-175 106.442,-175 "/>
<text text-anchor="middle" x="53" y="-161" font-family="Helvetica,sans-Serif" font-size="10.00"> </text>
<polyline fill="none" stroke="black" points="-0.441895,-155 106.442,-155 "/>
<text text-anchor="start" x="7.55811" y="-141" font-family="Helvetica,sans-Serif" font-size="10.00">+ Ema()</text>
<text text-anchor="start" x="7.55811" y="-129" font-family="Helvetica,sans-Serif" font-size="10.00">+ small_max()</text>
<text text-anchor="start" x="7.55811" y="-117" font-family="Helvetica,sans-Serif" font-size="10.00">+ calc()</text>
<text text-anchor="start" x="7.55811" y="-105" font-family="Helvetica,sans-Serif" font-size="10.00">+ avg()</text>
</a>
</g>
</g>
<!-- Node2&#45;&gt;Node1 -->
<g id="edge1" class="edge"><title>Node2&#45;&gt;Node1</title>
<path fill="none" stroke="midnightblue" d="M53,-88.6527C53,-79.0427 53,-69.5476 53,-61.1575"/>
<polygon fill="none" stroke="midnightblue" points="49.5001,-88.6674 53,-98.6674 56.5001,-88.6675 49.5001,-88.6674"/>
</g>
</g>
</svg>
