<?xml version="1.0" encoding="UTF-8" standalone="no"?>
<!DOCTYPE svg PUBLIC "-//W3C//DTD SVG 1.1//EN"
 "http://www.w3.org/Graphics/SVG/1.1/DTD/svg11.dtd">
<!-- Generated by graphviz version 2.34.0 (20130907.0228)
 -->
<!-- Title: Brsp Pages: 1 -->
<svg width="88pt" height="918pt"
 viewBox="0.00 0.00 88.00 918.00" xmlns="http://www.w3.org/2000/svg" xmlns:xlink="http://www.w3.org/1999/xlink">
<g id="graph0" class="graph" transform="scale(1 1) rotate(0) translate(4 914)">
<title>Brsp</title>
<!-- Node1 -->
<g id="node1" class="node"><title>Node1</title>
<polygon fill="#bfbfbf" stroke="black" points="-0.241211,-1 -0.241211,-181 80.2412,-181 80.2412,-1 -0.241211,-1"/>
<text text-anchor="middle" x="40" y="-167" font-family="Helvetica,sans-Serif" font-size="10.00">Brsp</text>
<polyline fill="none" stroke="black" points="-0.241211,-161 80.2412,-161 "/>
<text text-anchor="middle" x="40" y="-147" font-family="Helvetica,sans-Serif" font-size="10.00"> </text>
<polyline fill="none" stroke="black" points="-0.241211,-141 80.2412,-141 "/>
<text text-anchor="start" x="7.75879" y="-127" font-family="Helvetica,sans-Serif" font-size="10.00">+ Brsp()</text>
<text text-anchor="start" x="7.75879" y="-115" font-family="Helvetica,sans-Serif" font-size="10.00">+ settimeout()</text>
<text text-anchor="start" x="7.75879" y="-103" font-family="Helvetica,sans-Serif" font-size="10.00">+ setuart()</text>
<text text-anchor="start" x="7.75879" y="-91" font-family="Helvetica,sans-Serif" font-size="10.00">+ setmode()</text>
<text text-anchor="start" x="7.75879" y="-79" font-family="Helvetica,sans-Serif" font-size="10.00">+ discover()</text>
<text text-anchor="start" x="7.75879" y="-67" font-family="Helvetica,sans-Serif" font-size="10.00">+ connect()</text>
<text text-anchor="start" x="7.75879" y="-55" font-family="Helvetica,sans-Serif" font-size="10.00">+ disconnect()</text>
<text text-anchor="start" x="7.75879" y="-43" font-family="Helvetica,sans-Serif" font-size="10.00">+ paired()</text>
<text text-anchor="start" x="7.75879" y="-31" font-family="Helvetica,sans-Serif" font-size="10.00">+ name()</text>
<text text-anchor="start" x="7.75879" y="-19" font-family="Helvetica,sans-Serif" font-size="10.00">+ version()</text>
<text text-anchor="start" x="7.75879" y="-7" font-family="Helvetica,sans-Serif" font-size="10.00">and 15 more...</text>
</g>
<!-- Node2 -->
<g id="node2" class="node"><title>Node2</title>
<g id="a_node2"><a xlink:href="class_uart.html" target="_top" xlink:title="UART Class. ">
<polygon fill="none" stroke="black" points="6.29443,-219 6.29443,-375 73.7056,-375 73.7056,-219 6.29443,-219"/>
<text text-anchor="middle" x="40" y="-361" font-family="Helvetica,sans-Serif" font-size="10.00">Uart</text>
<polyline fill="none" stroke="black" points="6.29443,-355 73.7056,-355 "/>
<text text-anchor="middle" x="40" y="-341" font-family="Helvetica,sans-Serif" font-size="10.00"> </text>
<polyline fill="none" stroke="black" points="6.29443,-335 73.7056,-335 "/>
<text text-anchor="start" x="14.2944" y="-321" font-family="Helvetica,sans-Serif" font-size="10.00">+ Uart()</text>
<text text-anchor="start" x="14.2944" y="-309" font-family="Helvetica,sans-Serif" font-size="10.00">+ open()</text>
<text text-anchor="start" x="14.2944" y="-297" font-family="Helvetica,sans-Serif" font-size="10.00">+ getattr()</text>
<text text-anchor="start" x="14.2944" y="-285" font-family="Helvetica,sans-Serif" font-size="10.00">+ setattr()</text>
<text text-anchor="start" x="14.2944" y="-273" font-family="Helvetica,sans-Serif" font-size="10.00">+ getbyte()</text>
<text text-anchor="start" x="14.2944" y="-261" font-family="Helvetica,sans-Serif" font-size="10.00">+ flush()</text>
<text text-anchor="start" x="14.2944" y="-249" font-family="Helvetica,sans-Serif" font-size="10.00">+ setattr()</text>
<text text-anchor="start" x="14.2944" y="-237" font-family="Helvetica,sans-Serif" font-size="10.00">+ init()</text>
<text text-anchor="start" x="14.2944" y="-225" font-family="Helvetica,sans-Serif" font-size="10.00">+ getports()</text>
</a>
</g>
</g>
<!-- Node2&#45;&gt;Node1 -->
<g id="edge1" class="edge"><title>Node2&#45;&gt;Node1</title>
<path fill="none" stroke="midnightblue" d="M40,-208.688C40,-199.591 40,-190.334 40,-181.215"/>
<polygon fill="none" stroke="midnightblue" points="36.5001,-208.876 40,-218.876 43.5001,-208.876 36.5001,-208.876"/>
</g>
<!-- Node3 -->
<g id="node3" class="node"><title>Node3</title>
<g id="a_node3"><a xlink:href="class_pchar.html" target="_top" xlink:title="Peripheral Character Class. ">
<polygon fill="none" stroke="black" points="9.62695,-413 9.62695,-485 70.373,-485 70.373,-413 9.62695,-413"/>
<text text-anchor="middle" x="40" y="-471" font-family="Helvetica,sans-Serif" font-size="10.00">Pchar</text>
<polyline fill="none" stroke="black" points="9.62695,-465 70.373,-465 "/>
<text text-anchor="middle" x="40" y="-451" font-family="Helvetica,sans-Serif" font-size="10.00"> </text>
<polyline fill="none" stroke="black" points="9.62695,-445 70.373,-445 "/>
<text text-anchor="start" x="17.627" y="-431" font-family="Helvetica,sans-Serif" font-size="10.00">+ Pchar()</text>
<text text-anchor="start" x="17.627" y="-419" font-family="Helvetica,sans-Serif" font-size="10.00">+ getline()</text>
</a>
</g>
</g>
<!-- Node3&#45;&gt;Node2 -->
<g id="edge2" class="edge"><title>Node3&#45;&gt;Node2</title>
<path fill="none" stroke="midnightblue" d="M40,-402.604C40,-393.932 40,-384.631 40,-375.282"/>
<polygon fill="none" stroke="midnightblue" points="36.5001,-402.832 40,-412.832 43.5001,-402.832 36.5001,-402.832"/>
</g>
<!-- Node4 -->
<g id="node4" class="node"><title>Node4</title>
<g id="a_node4"><a xlink:href="class_periph.html" target="_top" xlink:title="Peripheral Class. ">
<polygon fill="none" stroke="black" points="6.57031,-523 6.57031,-763 73.4297,-763 73.4297,-523 6.57031,-523"/>
<text text-anchor="middle" x="40" y="-749" font-family="Helvetica,sans-Serif" font-size="10.00">Periph</text>
<polyline fill="none" stroke="black" points="6.57031,-743 73.4297,-743 "/>
<text text-anchor="start" x="14.5703" y="-729" font-family="Helvetica,sans-Serif" font-size="10.00"># port_</text>
<text text-anchor="start" x="14.5703" y="-717" font-family="Helvetica,sans-Serif" font-size="10.00"># fd</text>
<polyline fill="none" stroke="black" points="6.57031,-711 73.4297,-711 "/>
<text text-anchor="start" x="14.5703" y="-697" font-family="Helvetica,sans-Serif" font-size="10.00">+ Periph()</text>
<text text-anchor="start" x="14.5703" y="-685" font-family="Helvetica,sans-Serif" font-size="10.00">+ open()</text>
<text text-anchor="start" x="14.5703" y="-673" font-family="Helvetica,sans-Serif" font-size="10.00">+ open()</text>
<text text-anchor="start" x="14.5703" y="-661" font-family="Helvetica,sans-Serif" font-size="10.00">+ setflags()</text>
<text text-anchor="start" x="14.5703" y="-649" font-family="Helvetica,sans-Serif" font-size="10.00">+ read()</text>
<text text-anchor="start" x="14.5703" y="-637" font-family="Helvetica,sans-Serif" font-size="10.00">+ readline()</text>
<text text-anchor="start" x="14.5703" y="-625" font-family="Helvetica,sans-Serif" font-size="10.00">+ write()</text>
<text text-anchor="start" x="14.5703" y="-613" font-family="Helvetica,sans-Serif" font-size="10.00">+ write()</text>
<text text-anchor="start" x="14.5703" y="-601" font-family="Helvetica,sans-Serif" font-size="10.00">+ close()</text>
<text text-anchor="start" x="14.5703" y="-589" font-family="Helvetica,sans-Serif" font-size="10.00">+ read()</text>
<text text-anchor="start" x="14.5703" y="-577" font-family="Helvetica,sans-Serif" font-size="10.00">+ write()</text>
<text text-anchor="start" x="14.5703" y="-565" font-family="Helvetica,sans-Serif" font-size="10.00">+ fileno()</text>
<text text-anchor="start" x="14.5703" y="-553" font-family="Helvetica,sans-Serif" font-size="10.00">+ ioctl()</text>
<text text-anchor="start" x="14.5703" y="-541" font-family="Helvetica,sans-Serif" font-size="10.00">+ port()</text>
<text text-anchor="start" x="14.5703" y="-529" font-family="Helvetica,sans-Serif" font-size="10.00"># _open()</text>
</a>
</g>
</g>
<!-- Node4&#45;&gt;Node3 -->
<g id="edge3" class="edge"><title>Node4&#45;&gt;Node3</title>
<path fill="none" stroke="midnightblue" d="M40,-512.792C40,-502.884 40,-493.514 40,-485.183"/>
<polygon fill="none" stroke="midnightblue" points="36.5001,-512.861 40,-522.861 43.5001,-512.861 36.5001,-512.861"/>
</g>
<!-- Node5 -->
<g id="node5" class="node"><title>Node5</title>
<g id="a_node5"><a xlink:href="class_phy.html" target="_top" xlink:title="Base Applib Class for Physical devices. ">
<polygon fill="none" stroke="black" points="15.4692,-801 15.4692,-909 64.5308,-909 64.5308,-801 15.4692,-801"/>
<text text-anchor="middle" x="40" y="-895" font-family="Helvetica,sans-Serif" font-size="10.00">Phy</text>
<polyline fill="none" stroke="black" points="15.4692,-889 64.5308,-889 "/>
<text text-anchor="middle" x="40" y="-875" font-family="Helvetica,sans-Serif" font-size="10.00"> </text>
<polyline fill="none" stroke="black" points="15.4692,-869 64.5308,-869 "/>
<text text-anchor="start" x="23.4692" y="-855" font-family="Helvetica,sans-Serif" font-size="10.00">+ Phy()</text>
<text text-anchor="start" x="23.4692" y="-843" font-family="Helvetica,sans-Serif" font-size="10.00">+ ioctl()</text>
<text text-anchor="start" x="23.4692" y="-831" font-family="Helvetica,sans-Serif" font-size="10.00">+ ioctl()</text>
<text text-anchor="start" x="23.4692" y="-819" font-family="Helvetica,sans-Serif" font-size="10.00">+ ioctl()</text>
<text text-anchor="start" x="23.4692" y="-807" font-family="Helvetica,sans-Serif" font-size="10.00">+ ioctl()</text>
</a>
</g>
</g>
<!-- Node5&#45;&gt;Node4 -->
<g id="edge4" class="edge"><title>Node5&#45;&gt;Node4</title>
<path fill="none" stroke="midnightblue" d="M40,-790.643C40,-781.847 40,-772.586 40,-763.17"/>
<polygon fill="none" stroke="midnightblue" points="36.5001,-790.737 40,-800.737 43.5001,-790.737 36.5001,-790.737"/>
</g>
</g>
</svg>
