<?xml version="1.0" encoding="UTF-8" standalone="no"?>
<!DOCTYPE svg PUBLIC "-//W3C//DTD SVG 1.1//EN"
 "http://www.w3.org/Graphics/SVG/1.1/DTD/svg11.dtd">
<!-- Generated by graphviz version 2.36.0 (20140111.2315)
 -->
<!-- Title: src/config.h Pages: 1 -->
<svg width="2675pt" height="94pt"
 viewBox="0.00 0.00 2675.00 94.00" xmlns="http://www.w3.org/2000/svg" xmlns:xlink="http://www.w3.org/1999/xlink">
<g id="graph0" class="graph" transform="scale(1 1) rotate(0) translate(4 90)">
<title>src/config.h</title>
<!-- Node1 -->
<g id="node1" class="node"><title>Node1</title>
<polygon fill="#bfbfbf" stroke="black" points="1327.43,-67 1327.43,-85 1394.57,-85 1394.57,-67 1327.43,-67"/>
<text text-anchor="middle" x="1361" y="-73" font-family="Helvetica,sans-Serif" font-size="10.00">src/config.h</text>
</g>
<!-- Node2 -->
<g id="node2" class="node"><title>Node2</title>
<g id="a_node2"><a xlink:href="dirent_8c.html" target="_top" xlink:title="src/sys/dirent/dirent.c">
<polygon fill="none" stroke="black" points="-0.236328,-6 -0.236328,-24 110.236,-24 110.236,-6 -0.236328,-6"/>
<text text-anchor="middle" x="55" y="-12" font-family="Helvetica,sans-Serif" font-size="10.00">src/sys/dirent/dirent.c</text>
</a>
</g>
</g>
<!-- Node1&#45;&gt;Node2 -->
<g id="edge1" class="edge"><title>Node1&#45;&gt;Node2</title>
<path fill="none" stroke="midnightblue" d="M1317.03,-74.4635C1124.88,-71.9568 357.977,-60.2198 119,-30 108.28,-28.6444 96.703,-26.367 86.3811,-24.0386"/>
<polygon fill="midnightblue" stroke="midnightblue" points="1317.26,-77.9667 1327.3,-74.5959 1317.35,-70.9673 1317.26,-77.9667"/>
</g>
<!-- Node3 -->
<g id="node3" class="node"><title>Node3</title>
<g id="a_node3"><a xlink:href="pthread__attr_8c.html" target="_top" xlink:title="src/sys/pthread/pthread\l_attr.c">
<polygon fill="none" stroke="black" points="127.751,-1 127.751,-29 248.249,-29 248.249,-1 127.751,-1"/>
<text text-anchor="start" x="135.751" y="-17" font-family="Helvetica,sans-Serif" font-size="10.00">src/sys/pthread/pthread</text>
<text text-anchor="middle" x="188" y="-7" font-family="Helvetica,sans-Serif" font-size="10.00">_attr.c</text>
</a>
</g>
</g>
<!-- Node1&#45;&gt;Node3 -->
<g id="edge2" class="edge"><title>Node1&#45;&gt;Node3</title>
<path fill="none" stroke="midnightblue" d="M1317.36,-74.1517C1139.37,-70.5477 467.756,-55.5111 257,-30 254.209,-29.6622 251.363,-29.272 248.493,-28.8417"/>
<polygon fill="midnightblue" stroke="midnightblue" points="1317.33,-77.6517 1327.4,-74.3534 1317.47,-70.6532 1317.33,-77.6517"/>
</g>
<!-- Node4 -->
<g id="node4" class="node"><title>Node4</title>
<g id="a_node4"><a xlink:href="pthread__attr__init_8c.html" target="_top" xlink:title="src/sys/pthread/pthread\l_attr_init.c">
<polygon fill="none" stroke="black" points="265.751,-1 265.751,-29 386.249,-29 386.249,-1 265.751,-1"/>
<text text-anchor="start" x="273.751" y="-17" font-family="Helvetica,sans-Serif" font-size="10.00">src/sys/pthread/pthread</text>
<text text-anchor="middle" x="326" y="-7" font-family="Helvetica,sans-Serif" font-size="10.00">_attr_init.c</text>
</a>
</g>
</g>
<!-- Node1&#45;&gt;Node4 -->
<g id="edge3" class="edge"><title>Node1&#45;&gt;Node4</title>
<path fill="none" stroke="midnightblue" d="M1316.93,-75.3486C1179.79,-75.9205 748.591,-73.8436 395,-30 392.21,-29.6541 389.364,-29.2573 386.496,-28.8216"/>
<polygon fill="midnightblue" stroke="midnightblue" points="1317.06,-78.8482 1327.05,-75.2993 1317.03,-71.8482 1317.06,-78.8482"/>
</g>
<!-- Node5 -->
<g id="node5" class="node"><title>Node5</title>
<g id="a_node5"><a xlink:href="pthread__cancel_8c.html" target="_top" xlink:title="src/sys/pthread/pthread\l_cancel.c">
<polygon fill="none" stroke="black" points="403.751,-1 403.751,-29 524.249,-29 524.249,-1 403.751,-1"/>
<text text-anchor="start" x="411.751" y="-17" font-family="Helvetica,sans-Serif" font-size="10.00">src/sys/pthread/pthread</text>
<text text-anchor="middle" x="464" y="-7" font-family="Helvetica,sans-Serif" font-size="10.00">_cancel.c</text>
</a>
</g>
</g>
<!-- Node1&#45;&gt;Node5 -->
<g id="edge4" class="edge"><title>Node1&#45;&gt;Node5</title>
<path fill="none" stroke="midnightblue" d="M1317.11,-74.8632C1193.31,-73.9941 830.975,-68.1196 533,-30 530.211,-29.6433 527.367,-29.2376 524.499,-28.7947"/>
<polygon fill="midnightblue" stroke="midnightblue" points="1317.3,-78.3644 1327.32,-74.9271 1317.34,-71.3645 1317.3,-78.3644"/>
</g>
<!-- Node6 -->
<g id="node6" class="node"><title>Node6</title>
<g id="a_node6"><a xlink:href="pthread__cleanup_8c.html" target="_top" xlink:title="src/sys/pthread/pthread\l_cleanup.c">
<polygon fill="none" stroke="black" points="541.751,-1 541.751,-29 662.249,-29 662.249,-1 541.751,-1"/>
<text text-anchor="start" x="549.751" y="-17" font-family="Helvetica,sans-Serif" font-size="10.00">src/sys/pthread/pthread</text>
<text text-anchor="middle" x="602" y="-7" font-family="Helvetica,sans-Serif" font-size="10.00">_cleanup.c</text>
</a>
</g>
</g>
<!-- Node1&#45;&gt;Node6 -->
<g id="edge5" class="edge"><title>Node1&#45;&gt;Node6</title>
<path fill="none" stroke="midnightblue" d="M1317.08,-74.1907C1207.55,-71.727 913.65,-62.3784 671,-30 668.213,-29.6282 665.37,-29.2101 662.504,-28.7572"/>
<polygon fill="midnightblue" stroke="midnightblue" points="1317.02,-77.6902 1327.1,-74.4082 1317.17,-70.6918 1317.02,-77.6902"/>
</g>
<!-- Node7 -->
<g id="node7" class="node"><title>Node7</title>
<g id="a_node7"><a xlink:href="pthread__cond_8c.html" target="_top" xlink:title="src/sys/pthread/pthread\l_cond.c">
<polygon fill="none" stroke="black" points="679.751,-1 679.751,-29 800.249,-29 800.249,-1 679.751,-1"/>
<text text-anchor="start" x="687.751" y="-17" font-family="Helvetica,sans-Serif" font-size="10.00">src/sys/pthread/pthread</text>
<text text-anchor="middle" x="740" y="-7" font-family="Helvetica,sans-Serif" font-size="10.00">_cond.c</text>
</a>
</g>
</g>
<!-- Node1&#45;&gt;Node7 -->
<g id="edge6" class="edge"><title>Node1&#45;&gt;Node7</title>
<path fill="none" stroke="midnightblue" d="M1317,-73.1911C1223.23,-68.9464 996.918,-56.6277 809,-30 806.216,-29.6056 803.376,-29.169 800.512,-28.7011"/>
<polygon fill="midnightblue" stroke="midnightblue" points="1317.1,-76.6988 1327.24,-73.6463 1317.41,-69.7057 1317.1,-76.6988"/>
</g>
<!-- Node8 -->
<g id="node8" class="node"><title>Node8</title>
<g id="a_node8"><a xlink:href="pthread__condattr_8c.html" target="_top" xlink:title="src/sys/pthread/pthread\l_condattr.c">
<polygon fill="none" stroke="black" points="817.751,-1 817.751,-29 938.249,-29 938.249,-1 817.751,-1"/>
<text text-anchor="start" x="825.751" y="-17" font-family="Helvetica,sans-Serif" font-size="10.00">src/sys/pthread/pthread</text>
<text text-anchor="middle" x="878" y="-7" font-family="Helvetica,sans-Serif" font-size="10.00">_condattr.c</text>
</a>
</g>
</g>
<!-- Node1&#45;&gt;Node8 -->
<g id="edge7" class="edge"><title>Node1&#45;&gt;Node8</title>
<path fill="none" stroke="midnightblue" d="M1317.21,-71.5724C1241.47,-65.3474 1081.24,-50.8697 947,-30 944.222,-29.5681 941.386,-29.1009 938.525,-28.608"/>
<polygon fill="midnightblue" stroke="midnightblue" points="1317.07,-75.0727 1327.32,-72.3958 1317.64,-68.0958 1317.07,-75.0727"/>
</g>
<!-- Node9 -->
<g id="node9" class="node"><title>Node9</title>
<g id="a_node9"><a xlink:href="pthread__create_8c.html" target="_top" xlink:title="src/sys/pthread/pthread\l_create.c">
<polygon fill="none" stroke="black" points="955.751,-1 955.751,-29 1076.25,-29 1076.25,-1 955.751,-1"/>
<text text-anchor="start" x="963.751" y="-17" font-family="Helvetica,sans-Serif" font-size="10.00">src/sys/pthread/pthread</text>
<text text-anchor="middle" x="1016" y="-7" font-family="Helvetica,sans-Serif" font-size="10.00">_create.c</text>
</a>
</g>
</g>
<!-- Node1&#45;&gt;Node9 -->
<g id="edge8" class="edge"><title>Node1&#45;&gt;Node9</title>
<path fill="none" stroke="midnightblue" d="M1317.36,-68.4173C1262.88,-60.0763 1166.88,-44.9759 1085,-30 1082.23,-29.4942 1079.41,-28.9663 1076.56,-28.4243"/>
<polygon fill="midnightblue" stroke="midnightblue" points="1316.95,-71.8948 1327.36,-69.9439 1318.01,-64.975 1316.95,-71.8948"/>
</g>
<!-- Node10 -->
<g id="node10" class="node"><title>Node10</title>
<g id="a_node10"><a xlink:href="pthread__mutex_8c.html" target="_top" xlink:title="src/sys/pthread/pthread\l_mutex.c">
<polygon fill="none" stroke="black" points="1093.75,-1 1093.75,-29 1214.25,-29 1214.25,-1 1093.75,-1"/>
<text text-anchor="start" x="1101.75" y="-17" font-family="Helvetica,sans-Serif" font-size="10.00">src/sys/pthread/pthread</text>
<text text-anchor="middle" x="1154" y="-7" font-family="Helvetica,sans-Serif" font-size="10.00">_mutex.c</text>
</a>
</g>
</g>
<!-- Node1&#45;&gt;Node10 -->
<g id="edge9" class="edge"><title>Node1&#45;&gt;Node10</title>
<path fill="none" stroke="midnightblue" d="M1322.88,-64.136C1288.16,-54.2382 1236.8,-39.6006 1199.85,-29.0674"/>
<polygon fill="midnightblue" stroke="midnightblue" points="1322.08,-67.5448 1332.65,-66.92 1323.99,-60.8129 1322.08,-67.5448"/>
</g>
<!-- Node11 -->
<g id="node11" class="node"><title>Node11</title>
<g id="a_node11"><a xlink:href="pthread__mutexattr_8c.html" target="_top" xlink:title="src/sys/pthread/pthread\l_mutexattr.c">
<polygon fill="none" stroke="black" points="1231.75,-1 1231.75,-29 1352.25,-29 1352.25,-1 1231.75,-1"/>
<text text-anchor="start" x="1239.75" y="-17" font-family="Helvetica,sans-Serif" font-size="10.00">src/sys/pthread/pthread</text>
<text text-anchor="middle" x="1292" y="-7" font-family="Helvetica,sans-Serif" font-size="10.00">_mutexattr.c</text>
</a>
</g>
</g>
<!-- Node1&#45;&gt;Node11 -->
<g id="edge10" class="edge"><title>Node1&#45;&gt;Node11</title>
<path fill="none" stroke="midnightblue" d="M1343.61,-60.1271C1332.44,-50.5824 1318.08,-38.3026 1307.35,-29.1215"/>
<polygon fill="midnightblue" stroke="midnightblue" points="1341.53,-62.9576 1351.41,-66.7963 1346.08,-57.6373 1341.53,-62.9576"/>
</g>
<!-- Node12 -->
<g id="node12" class="node"><title>Node12</title>
<g id="a_node12"><a xlink:href="pthread__mutexattr__init_8c.html" target="_top" xlink:title="src/sys/pthread/pthread\l_mutexattr_init.c">
<polygon fill="none" stroke="black" points="1369.75,-1 1369.75,-29 1490.25,-29 1490.25,-1 1369.75,-1"/>
<text text-anchor="start" x="1377.75" y="-17" font-family="Helvetica,sans-Serif" font-size="10.00">src/sys/pthread/pthread</text>
<text text-anchor="middle" x="1430" y="-7" font-family="Helvetica,sans-Serif" font-size="10.00">_mutexattr_init.c</text>
</a>
</g>
</g>
<!-- Node1&#45;&gt;Node12 -->
<g id="edge11" class="edge"><title>Node1&#45;&gt;Node12</title>
<path fill="none" stroke="midnightblue" d="M1378.39,-60.1271C1389.56,-50.5824 1403.92,-38.3026 1414.65,-29.1215"/>
<polygon fill="midnightblue" stroke="midnightblue" points="1375.92,-57.6373 1370.59,-66.7963 1380.47,-62.9576 1375.92,-57.6373"/>
</g>
<!-- Node13 -->
<g id="node13" class="node"><title>Node13</title>
<g id="a_node13"><a xlink:href="pthread__schedparam_8c.html" target="_top" xlink:title="src/sys/pthread/pthread\l_schedparam.c">
<polygon fill="none" stroke="black" points="1507.75,-1 1507.75,-29 1628.25,-29 1628.25,-1 1507.75,-1"/>
<text text-anchor="start" x="1515.75" y="-17" font-family="Helvetica,sans-Serif" font-size="10.00">src/sys/pthread/pthread</text>
<text text-anchor="middle" x="1568" y="-7" font-family="Helvetica,sans-Serif" font-size="10.00">_schedparam.c</text>
</a>
</g>
</g>
<!-- Node1&#45;&gt;Node13 -->
<g id="edge12" class="edge"><title>Node1&#45;&gt;Node13</title>
<path fill="none" stroke="midnightblue" d="M1399.12,-64.136C1433.84,-54.2382 1485.2,-39.6006 1522.15,-29.0674"/>
<polygon fill="midnightblue" stroke="midnightblue" points="1398.01,-60.8129 1389.35,-66.92 1399.92,-67.5448 1398.01,-60.8129"/>
</g>
<!-- Node14 -->
<g id="node14" class="node"><title>Node14</title>
<g id="a_node14"><a xlink:href="sched__posix_8c.html" target="_top" xlink:title="src/sys/sched/sched\l_posix.c">
<polygon fill="none" stroke="black" points="1645.98,-1 1645.98,-29 1752.02,-29 1752.02,-1 1645.98,-1"/>
<text text-anchor="start" x="1653.98" y="-17" font-family="Helvetica,sans-Serif" font-size="10.00">src/sys/sched/sched</text>
<text text-anchor="middle" x="1699" y="-7" font-family="Helvetica,sans-Serif" font-size="10.00">_posix.c</text>
</a>
</g>
</g>
<!-- Node1&#45;&gt;Node14 -->
<g id="edge13" class="edge"><title>Node1&#45;&gt;Node14</title>
<path fill="none" stroke="midnightblue" d="M1404.69,-68.7104C1459.23,-60.6679 1555.29,-45.8716 1637,-30 1639.92,-29.4319 1642.92,-28.8279 1645.94,-28.2019"/>
<polygon fill="midnightblue" stroke="midnightblue" points="1404.07,-65.2647 1394.68,-70.1797 1405.08,-72.1906 1404.07,-65.2647"/>
</g>
<!-- Node15 -->
<g id="node15" class="node"><title>Node15</title>
<g id="a_node15"><a xlink:href="pthread__kill_8c.html" target="_top" xlink:title="src/sys/signal/pthread\l_kill.c">
<polygon fill="none" stroke="black" points="1769.65,-1 1769.65,-29 1882.35,-29 1882.35,-1 1769.65,-1"/>
<text text-anchor="start" x="1777.65" y="-17" font-family="Helvetica,sans-Serif" font-size="10.00">src/sys/signal/pthread</text>
<text text-anchor="middle" x="1826" y="-7" font-family="Helvetica,sans-Serif" font-size="10.00">_kill.c</text>
</a>
</g>
</g>
<!-- Node1&#45;&gt;Node15 -->
<g id="edge14" class="edge"><title>Node1&#45;&gt;Node15</title>
<path fill="none" stroke="midnightblue" d="M1404.91,-71.5088C1478.75,-65.3144 1632.33,-51.0409 1761,-30 1763.73,-29.5529 1766.53,-29.0666 1769.34,-28.5524"/>
<polygon fill="midnightblue" stroke="midnightblue" points="1404.28,-68.0486 1394.61,-72.3639 1404.86,-75.0247 1404.28,-68.0486"/>
</g>
<!-- Node16 -->
<g id="node16" class="node"><title>Node16</title>
<g id="a_node16"><a xlink:href="clocks_8c.html" target="_top" xlink:title="src/sys/time/clocks.c">
<polygon fill="none" stroke="black" points="1900.44,-6 1900.44,-24 2007.56,-24 2007.56,-6 1900.44,-6"/>
<text text-anchor="middle" x="1954" y="-12" font-family="Helvetica,sans-Serif" font-size="10.00">src/sys/time/clocks.c</text>
</a>
</g>
</g>
<!-- Node1&#45;&gt;Node16 -->
<g id="edge15" class="edge"><title>Node1&#45;&gt;Node16</title>
<path fill="none" stroke="midnightblue" d="M1404.89,-73.2642C1495.95,-69.226 1711.87,-57.3815 1891,-30 1901.08,-28.4593 1911.95,-26.245 1921.78,-24.0306"/>
<polygon fill="midnightblue" stroke="midnightblue" points="1404.51,-69.7774 1394.67,-73.7077 1404.81,-76.7708 1404.51,-69.7774"/>
</g>
<!-- Node17 -->
<g id="node17" class="node"><title>Node17</title>
<g id="a_node17"><a xlink:href="hibernate_8c.html" target="_top" xlink:title="src/sys/time/hibernate.c">
<polygon fill="none" stroke="black" points="2025.48,-6 2025.48,-24 2146.52,-24 2146.52,-6 2025.48,-6"/>
<text text-anchor="middle" x="2086" y="-12" font-family="Helvetica,sans-Serif" font-size="10.00">src/sys/time/hibernate.c</text>
</a>
</g>
</g>
<!-- Node1&#45;&gt;Node17 -->
<g id="edge16" class="edge"><title>Node1&#45;&gt;Node17</title>
<path fill="none" stroke="midnightblue" d="M1405.2,-73.9269C1511.08,-70.9293 1787.45,-60.5771 2016,-30 2027.3,-28.4881 2039.52,-26.2547 2050.54,-24.0138"/>
<polygon fill="midnightblue" stroke="midnightblue" points="1404.8,-70.4364 1394.9,-74.2102 1404.99,-77.4337 1404.8,-70.4364"/>
</g>
<!-- Node18 -->
<g id="node18" class="node"><title>Node18</title>
<g id="a_node18"><a xlink:href="__exit_8c.html" target="_top" xlink:title="src/sys/unistd/_exit.c">
<polygon fill="none" stroke="black" points="2164.87,-6 2164.87,-24 2273.13,-24 2273.13,-6 2164.87,-6"/>
<text text-anchor="middle" x="2219" y="-12" font-family="Helvetica,sans-Serif" font-size="10.00">src/sys/unistd/_exit.c</text>
</a>
</g>
</g>
<!-- Node1&#45;&gt;Node18 -->
<g id="edge17" class="edge"><title>Node1&#45;&gt;Node18</title>
<path fill="none" stroke="midnightblue" d="M1405.15,-74.9485C1525.84,-74.2801 1871.17,-68.8367 2155,-30 2165.48,-28.566 2176.79,-26.3263 2186.95,-24.0555"/>
<polygon fill="midnightblue" stroke="midnightblue" points="1404.83,-71.4498 1394.85,-74.9967 1404.87,-78.4498 1404.83,-71.4498"/>
</g>
<!-- Node19 -->
<g id="node19" class="node"><title>Node19</title>
<g id="a_node19"><a xlink:href="__getpid_8c.html" target="_top" xlink:title="src/sys/unistd/_getpid.c">
<polygon fill="none" stroke="black" points="2291.03,-6 2291.03,-24 2410.97,-24 2410.97,-6 2291.03,-6"/>
<text text-anchor="middle" x="2351" y="-12" font-family="Helvetica,sans-Serif" font-size="10.00">src/sys/unistd/_getpid.c</text>
</a>
</g>
</g>
<!-- Node1&#45;&gt;Node19 -->
<g id="edge18" class="edge"><title>Node1&#45;&gt;Node19</title>
<path fill="none" stroke="midnightblue" d="M1404.77,-75.2053C1537.42,-75.3255 1946.39,-72.0011 2282,-30 2293.4,-28.5732 2305.73,-26.3066 2316.77,-24.0094"/>
<polygon fill="midnightblue" stroke="midnightblue" points="1404.62,-71.7051 1394.61,-75.1886 1404.61,-78.7051 1404.62,-71.7051"/>
</g>
<!-- Node20 -->
<g id="node20" class="node"><title>Node20</title>
<g id="a_node20"><a xlink:href="__lseek_8c.html" target="_top" xlink:title="src/sys/unistd/_lseek.c">
<polygon fill="none" stroke="black" points="2428.98,-6 2428.98,-24 2545.02,-24 2545.02,-6 2428.98,-6"/>
<text text-anchor="middle" x="2487" y="-12" font-family="Helvetica,sans-Serif" font-size="10.00">src/sys/unistd/_lseek.c</text>
</a>
</g>
</g>
<!-- Node1&#45;&gt;Node20 -->
<g id="edge19" class="edge"><title>Node1&#45;&gt;Node20</title>
<path fill="none" stroke="midnightblue" d="M1404.8,-74.0758C1578.32,-70.2688 2217.84,-54.8227 2419,-30 2430.24,-28.6124 2442.4,-26.3563 2453.28,-24.0565"/>
<polygon fill="midnightblue" stroke="midnightblue" points="1404.68,-70.5775 1394.76,-74.2945 1404.83,-77.5758 1404.68,-70.5775"/>
</g>
<!-- Node21 -->
<g id="node21" class="node"><title>Node21</title>
<g id="a_node21"><a xlink:href="ioctl_8c.html" target="_top" xlink:title="src/sys/unistd/ioctl.c">
<polygon fill="none" stroke="black" points="2562.54,-6 2562.54,-24 2667.46,-24 2667.46,-6 2562.54,-6"/>
<text text-anchor="middle" x="2615" y="-12" font-family="Helvetica,sans-Serif" font-size="10.00">src/sys/unistd/ioctl.c</text>
</a>
</g>
</g>
<!-- Node1&#45;&gt;Node21 -->
<g id="edge20" class="edge"><title>Node1&#45;&gt;Node21</title>
<path fill="none" stroke="midnightblue" d="M1404.78,-74.4505C1591.89,-71.9325 2325.24,-60.2915 2554,-30 2564.23,-28.645 2575.27,-26.3677 2585.11,-24.0392"/>
<polygon fill="midnightblue" stroke="midnightblue" points="1404.71,-70.951 1394.76,-74.5836 1404.81,-77.9504 1404.71,-70.951"/>
</g>
</g>
</svg>
