<?xml version="1.0" encoding="UTF-8" standalone="no"?>
<!DOCTYPE svg PUBLIC "-//W3C//DTD SVG 1.1//EN"
 "http://www.w3.org/Graphics/SVG/1.1/DTD/svg11.dtd">
<!-- Generated by graphviz version 2.36.0 (20140111.2315)
 -->
<!-- Title: include Pages: 1 -->
<svg width="238pt" height="220pt"
 viewBox="0.00 0.00 238.00 220.00" xmlns="http://www.w3.org/2000/svg" xmlns:xlink="http://www.w3.org/1999/xlink">
<g id="graph0" class="graph" transform="scale(1 1) rotate(0) translate(4 216)">
<title>include</title>
<g id="clust1" class="cluster"><title>clusterdir_d44c64559bbebec7f509842c48db8b23</title>
<g id="a_clust1"><a xlink:href="dir_d44c64559bbebec7f509842c48db8b23.html" target="_top">
<polygon fill="#eeeeff" stroke="black" points="8,-8 8,-204 222,-204 222,-8 8,-8"/>
</a>
</g>
</g>
<!-- dir_d44c64559bbebec7f509842c48db8b23 -->
<g id="node1" class="node"><title>dir_d44c64559bbebec7f509842c48db8b23</title>
<text text-anchor="middle" x="187" y="-175" font-family="Helvetica,sans-Serif" font-size="10.00">include</text>
</g>
<!-- dir_e4341c5bb6835a0197618859a3d9eb6f -->
<g id="node2" class="node"><title>dir_e4341c5bb6835a0197618859a3d9eb6f</title>
<g id="a_node2"><a xlink:href="dir_e4341c5bb6835a0197618859a3d9eb6f.html" target="_top" xlink:title="iface">
<polygon fill="white" stroke="red" points="86,-52 32,-52 32,-16 86,-16 86,-52"/>
<text text-anchor="middle" x="59" y="-31" font-family="Helvetica,sans-Serif" font-size="10.00">iface</text>
</a>
</g>
</g>
<!-- dir_2a8654b7e6ee26175be5f799c6740a02 -->
<g id="node3" class="node"><title>dir_2a8654b7e6ee26175be5f799c6740a02</title>
<g id="a_node3"><a xlink:href="dir_2a8654b7e6ee26175be5f799c6740a02.html" target="_top" xlink:title="mcu">
<polygon fill="white" stroke="black" points="142,-196 88,-196 88,-160 142,-160 142,-196"/>
<text text-anchor="middle" x="115" y="-175" font-family="Helvetica,sans-Serif" font-size="10.00">mcu</text>
</a>
</g>
</g>
<!-- dir_d3e581e741ee23262426234d3234c771 -->
<g id="node4" class="node"><title>dir_d3e581e741ee23262426234d3234c771</title>
<g id="a_node4"><a xlink:href="dir_d3e581e741ee23262426234d3234c771.html" target="_top" xlink:title="posix">
<polygon fill="white" stroke="red" points="103,-124 49,-124 49,-88 103,-88 103,-124"/>
<text text-anchor="middle" x="76" y="-103" font-family="Helvetica,sans-Serif" font-size="10.00">posix</text>
</a>
</g>
</g>
<!-- dir_d3e581e741ee23262426234d3234c771&#45;&gt;dir_e4341c5bb6835a0197618859a3d9eb6f -->
<g id="edge1" class="edge"><title>dir_d3e581e741ee23262426234d3234c771&#45;&gt;dir_e4341c5bb6835a0197618859a3d9eb6f</title>
<path fill="none" stroke="black" d="M71.7978,-87.6966C69.9038,-79.8979 67.6235,-70.5085 65.5157,-61.8292"/>
<polygon fill="black" stroke="black" points="68.9151,-60.9959 63.1539,-52.1043 62.1128,-62.6479 68.9151,-60.9959"/>
<g id="a_edge1&#45;headlabel"><a xlink:href="dir_000004_000001.html" target="_top" xlink:title="1">
<text text-anchor="middle" x="72.5224" y="-60.8189" font-family="Helvetica,sans-Serif" font-size="10.00">1</text>
</a>
</g>
</g>
<!-- dir_768508705275fab9fb6d917edd64b3e7 -->
<g id="node5" class="node"><title>dir_768508705275fab9fb6d917edd64b3e7</title>
<g id="a_node5"><a xlink:href="dir_768508705275fab9fb6d917edd64b3e7.html" target="_top" xlink:title="stratify">
<polygon fill="white" stroke="black" points="70,-196 16,-196 16,-160 70,-160 70,-196"/>
<text text-anchor="middle" x="43" y="-175" font-family="Helvetica,sans-Serif" font-size="10.00">stratify</text>
</a>
</g>
</g>
<!-- dir_768508705275fab9fb6d917edd64b3e7&#45;&gt;dir_e4341c5bb6835a0197618859a3d9eb6f -->
<g id="edge3" class="edge"><title>dir_768508705275fab9fb6d917edd64b3e7&#45;&gt;dir_e4341c5bb6835a0197618859a3d9eb6f</title>
<path fill="none" stroke="black" d="M40.3487,-159.794C38.0514,-141.761 35.7107,-112.675 40,-88 41.5234,-79.2364 44.3645,-70.0062 47.3941,-61.7484"/>
<polygon fill="black" stroke="black" points="50.7242,-62.8428 51.1071,-52.2548 44.2051,-60.2931 50.7242,-62.8428"/>
<g id="a_edge3&#45;headlabel"><a xlink:href="dir_000006_000001.html" target="_top" xlink:title="3">
<text text-anchor="middle" x="52.0592" y="-64.2246" font-family="Helvetica,sans-Serif" font-size="10.00">3</text>
</a>
</g>
</g>
<!-- dir_768508705275fab9fb6d917edd64b3e7&#45;&gt;dir_d3e581e741ee23262426234d3234c771 -->
<g id="edge2" class="edge"><title>dir_768508705275fab9fb6d917edd64b3e7&#45;&gt;dir_d3e581e741ee23262426234d3234c771</title>
<path fill="none" stroke="black" d="M51.1573,-159.697C54.9138,-151.728 59.4531,-142.1 63.6183,-133.264"/>
<polygon fill="black" stroke="black" points="66.8381,-134.642 67.9365,-124.104 60.5064,-131.657 66.8381,-134.642"/>
<g id="a_edge2&#45;headlabel"><a xlink:href="dir_000006_000004.html" target="_top" xlink:title="3">
<text text-anchor="middle" x="67.8736" y="-136.104" font-family="Helvetica,sans-Serif" font-size="10.00">3</text>
</a>
</g>
</g>
</g>
</svg>
