<?xml version="1.0" encoding="UTF-8" standalone="no"?>
<!DOCTYPE svg PUBLIC "-//W3C//DTD SVG 1.1//EN"
 "http://www.w3.org/Graphics/SVG/1.1/DTD/svg11.dtd">
<!-- Generated by graphviz version 2.36.0 (20140111.2315)
 -->
<!-- Title: include/stratify Pages: 1 -->
<svg width="125pt" height="294pt"
 viewBox="0.00 0.00 125.00 294.00" xmlns="http://www.w3.org/2000/svg" xmlns:xlink="http://www.w3.org/1999/xlink">
<g id="graph0" class="graph" transform="scale(1 1) rotate(0) translate(4 290)">
<title>include/stratify</title>
<g id="clust1" class="cluster"><title>clusterdir_d44c64559bbebec7f509842c48db8b23</title>
<g id="a_clust1"><a xlink:href="dir_d44c64559bbebec7f509842c48db8b23.html" target="_top" xlink:title="include">
<polygon fill="#ddddee" stroke="black" points="39,-208 39,-278 109,-278 109,-208 39,-208"/>
<text text-anchor="middle" x="74" y="-266" font-family="Helvetica,sans-Serif" font-size="10.00">include</text>
</a>
</g>
</g>
<!-- dir_768508705275fab9fb6d917edd64b3e7 -->
<g id="node1" class="node"><title>dir_768508705275fab9fb6d917edd64b3e7</title>
<g id="a_node1"><a xlink:href="dir_768508705275fab9fb6d917edd64b3e7.html" target="_top" xlink:title="stratify">
<polygon fill="#eeeeff" stroke="black" points="101,-252 47,-252 47,-216 101,-216 101,-252"/>
<text text-anchor="middle" x="74" y="-231" font-family="Helvetica,sans-Serif" font-size="10.00">stratify</text>
</a>
</g>
</g>
<!-- dir_68267d1309a1af8e8297ef4c3efbcdba -->
<g id="node2" class="node"><title>dir_68267d1309a1af8e8297ef4c3efbcdba</title>
<g id="a_node2"><a xlink:href="dir_68267d1309a1af8e8297ef4c3efbcdba.html" target="_top" xlink:title="src">
<polygon fill="none" stroke="red" points="101,-180 47,-180 47,-144 101,-144 101,-180"/>
<text text-anchor="middle" x="74" y="-159" font-family="Helvetica,sans-Serif" font-size="10.00">src</text>
</a>
</g>
</g>
<!-- dir_768508705275fab9fb6d917edd64b3e7&#45;&gt;dir_68267d1309a1af8e8297ef4c3efbcdba -->
<g id="edge4" class="edge"><title>dir_768508705275fab9fb6d917edd64b3e7&#45;&gt;dir_68267d1309a1af8e8297ef4c3efbcdba</title>
<path fill="none" stroke="black" d="M74,-215.697C74,-207.983 74,-198.712 74,-190.112"/>
<polygon fill="black" stroke="black" points="77.5001,-190.104 74,-180.104 70.5001,-190.104 77.5001,-190.104"/>
<g id="a_edge4&#45;headlabel"><a xlink:href="dir_000006_000007.html" target="_top" xlink:title="1">
<text text-anchor="middle" x="80.3393" y="-190.699" font-family="Helvetica,sans-Serif" font-size="10.00">1</text>
</a>
</g>
</g>
<!-- dir_d3e581e741ee23262426234d3234c771 -->
<g id="node3" class="node"><title>dir_d3e581e741ee23262426234d3234c771</title>
<g id="a_node3"><a xlink:href="dir_d3e581e741ee23262426234d3234c771.html" target="_top" xlink:title="posix">
<polygon fill="none" stroke="red" points="54,-108 0,-108 0,-72 54,-72 54,-108"/>
<text text-anchor="middle" x="27" y="-87" font-family="Helvetica,sans-Serif" font-size="10.00">posix</text>
</a>
</g>
</g>
<!-- dir_768508705275fab9fb6d917edd64b3e7&#45;&gt;dir_d3e581e741ee23262426234d3234c771 -->
<g id="edge5" class="edge"><title>dir_768508705275fab9fb6d917edd64b3e7&#45;&gt;dir_d3e581e741ee23262426234d3234c771</title>
<path fill="none" stroke="black" d="M59.0301,-215.555C51.4546,-205.748 42.8565,-192.91 38,-180 30.5654,-160.237 27.9209,-136.436 27.0777,-118.421"/>
<polygon fill="black" stroke="black" points="30.5721,-118.185 26.7626,-108.299 23.5755,-118.403 30.5721,-118.185"/>
<g id="a_edge5&#45;headlabel"><a xlink:href="dir_000006_000004.html" target="_top" xlink:title="3">
<text text-anchor="middle" x="33.5217" y="-118.69" font-family="Helvetica,sans-Serif" font-size="10.00">3</text>
</a>
</g>
</g>
<!-- dir_e4341c5bb6835a0197618859a3d9eb6f -->
<g id="node4" class="node"><title>dir_e4341c5bb6835a0197618859a3d9eb6f</title>
<g id="a_node4"><a xlink:href="dir_e4341c5bb6835a0197618859a3d9eb6f.html" target="_top" xlink:title="iface">
<polygon fill="none" stroke="red" points="109,-36 55,-36 55,-0 109,-0 109,-36"/>
<text text-anchor="middle" x="82" y="-15" font-family="Helvetica,sans-Serif" font-size="10.00">iface</text>
</a>
</g>
</g>
<!-- dir_768508705275fab9fb6d917edd64b3e7&#45;&gt;dir_e4341c5bb6835a0197618859a3d9eb6f -->
<g id="edge6" class="edge"><title>dir_768508705275fab9fb6d917edd64b3e7&#45;&gt;dir_e4341c5bb6835a0197618859a3d9eb6f</title>
<path fill="none" stroke="black" d="M89.6099,-215.774C97.3729,-206.03 105.946,-193.184 110,-180 124.207,-133.798 107.102,-77.7823 94.0701,-45.4794"/>
<polygon fill="black" stroke="black" points="97.2944,-44.1178 90.1956,-36.2528 90.8404,-46.828 97.2944,-44.1178"/>
<g id="a_edge6&#45;headlabel"><a xlink:href="dir_000006_000001.html" target="_top" xlink:title="3">
<text text-anchor="middle" x="101.304" y="-43.3328" font-family="Helvetica,sans-Serif" font-size="10.00">3</text>
</a>
</g>
</g>
<!-- dir_68267d1309a1af8e8297ef4c3efbcdba&#45;&gt;dir_d3e581e741ee23262426234d3234c771 -->
<g id="edge1" class="edge"><title>dir_68267d1309a1af8e8297ef4c3efbcdba&#45;&gt;dir_d3e581e741ee23262426234d3234c771</title>
<path fill="none" stroke="black" d="M62.382,-143.697C56.8612,-135.474 50.153,-125.483 44.0682,-116.421"/>
<polygon fill="black" stroke="black" points="46.9645,-114.456 38.4843,-108.104 41.1529,-118.358 46.9645,-114.456"/>
<g id="a_edge1&#45;headlabel"><a xlink:href="dir_000007_000004.html" target="_top" xlink:title="2">
<text text-anchor="middle" x="51.3254" y="-112.857" font-family="Helvetica,sans-Serif" font-size="10.00">2</text>
</a>
</g>
</g>
<!-- dir_68267d1309a1af8e8297ef4c3efbcdba&#45;&gt;dir_e4341c5bb6835a0197618859a3d9eb6f -->
<g id="edge2" class="edge"><title>dir_68267d1309a1af8e8297ef4c3efbcdba&#45;&gt;dir_e4341c5bb6835a0197618859a3d9eb6f</title>
<path fill="none" stroke="black" d="M74.965,-143.871C76.3284,-119.67 78.8332,-75.2108 80.4567,-46.3932"/>
<polygon fill="black" stroke="black" points="83.9635,-46.3703 81.0316,-36.1893 76.9746,-45.9765 83.9635,-46.3703"/>
<g id="a_edge2&#45;headlabel"><a xlink:href="dir_000007_000001.html" target="_top" xlink:title="5">
<text text-anchor="middle" x="86.5961" y="-47.1189" font-family="Helvetica,sans-Serif" font-size="10.00">5</text>
</a>
</g>
</g>
<!-- dir_d3e581e741ee23262426234d3234c771&#45;&gt;dir_e4341c5bb6835a0197618859a3d9eb6f -->
<g id="edge3" class="edge"><title>dir_d3e581e741ee23262426234d3234c771&#45;&gt;dir_e4341c5bb6835a0197618859a3d9eb6f</title>
<path fill="none" stroke="black" d="M40.5955,-71.6966C47.1227,-63.3893 55.068,-53.2771 62.2466,-44.1407"/>
<polygon fill="black" stroke="black" points="65.1347,-46.1299 68.5609,-36.1043 59.6305,-41.8051 65.1347,-46.1299"/>
<g id="a_edge3&#45;headlabel"><a xlink:href="dir_000004_000001.html" target="_top" xlink:title="1">
<text text-anchor="middle" x="65.1465" y="-47.7106" font-family="Helvetica,sans-Serif" font-size="10.00">1</text>
</a>
</g>
</g>
</g>
</svg>
