<?xml version="1.0" encoding="UTF-8" standalone="no"?>
<!DOCTYPE svg PUBLIC "-//W3C//DTD SVG 1.1//EN"
 "http://www.w3.org/Graphics/SVG/1.1/DTD/svg11.dtd">
<!-- Generated by graphviz version 2.36.0 (20140111.2315)
 -->
<!-- Title: /Users/tgil/git/CoActionOS/CoActionOS/include Pages: 1 -->
<svg width="236pt" height="182pt"
 viewBox="0.00 0.00 236.00 182.00" xmlns="http://www.w3.org/2000/svg" xmlns:xlink="http://www.w3.org/1999/xlink">
<g id="graph0" class="graph" transform="scale(1 1) rotate(0) translate(4 178)">
<title>/Users/tgil/git/CoActionOS/CoActionOS/include</title>
<g id="clust1" class="cluster"><title>clusterdir_8d3e5ddfcde5886d64dd7bc296b9276d</title>
<g id="a_clust1"><a xlink:href="dir_8d3e5ddfcde5886d64dd7bc296b9276d.html" target="_top" xlink:title="CoActionOS">
<polygon fill="#ddddee" stroke="black" points="8,-8 8,-166 166,-166 166,-8 8,-8"/>
<text text-anchor="middle" x="87" y="-154" font-family="Helvetica,sans-Serif" font-size="10.00">CoActionOS</text>
</a>
</g>
</g>
<g id="clust2" class="cluster"><title>clusterdir_016ff1d6fa7440ecc4fb8b2166afab69</title>
<g id="a_clust2"><a xlink:href="dir_016ff1d6fa7440ecc4fb8b2166afab69.html" target="_top">
<polygon fill="#eeeeff" stroke="black" points="16,-16 16,-140 158,-140 158,-16 16,-16"/>
</a>
</g>
</g>
<!-- dir_016ff1d6fa7440ecc4fb8b2166afab69 -->
<g id="node1" class="node"><title>dir_016ff1d6fa7440ecc4fb8b2166afab69</title>
<text text-anchor="middle" x="123" y="-111" font-family="Helvetica,sans-Serif" font-size="10.00">include</text>
</g>
<!-- dir_e3e0adbd5aada40e511ad6d6c793c31b -->
<g id="node2" class="node"><title>dir_e3e0adbd5aada40e511ad6d6c793c31b</title>
<g id="a_node2"><a xlink:href="dir_e3e0adbd5aada40e511ad6d6c793c31b.html" target="_top" xlink:title="dev">
<polygon fill="white" stroke="black" points="150,-60 96,-60 96,-24 150,-24 150,-60"/>
<text text-anchor="middle" x="123" y="-39" font-family="Helvetica,sans-Serif" font-size="10.00">dev</text>
</a>
</g>
</g>
<!-- dir_016ff1d6fa7440ecc4fb8b2166afab69&#45;&gt;dir_e3e0adbd5aada40e511ad6d6c793c31b -->
<g id="edge1" class="edge"><title>dir_016ff1d6fa7440ecc4fb8b2166afab69&#45;&gt;dir_e3e0adbd5aada40e511ad6d6c793c31b</title>
<path fill="none" stroke="black" d="M123,-95.6966C123,-87.9827 123,-78.7125 123,-70.1124"/>
<polygon fill="black" stroke="black" points="126.5,-70.1043 123,-60.1043 119.5,-70.1044 126.5,-70.1043"/>
<g id="a_edge1&#45;headlabel"><a xlink:href="dir_000003_000004.html" target="_top" xlink:title="20">
<text text-anchor="middle" x="129.339" y="-70.699" font-family="Helvetica,sans-Serif" font-size="10.00">20</text>
</a>
</g>
</g>
<!-- dir_89abb805bfaa5aa5fb5070eeca341ee5 -->
<g id="node4" class="node"><title>dir_89abb805bfaa5aa5fb5070eeca341ee5</title>
<g id="a_node4"><a xlink:href="dir_89abb805bfaa5aa5fb5070eeca341ee5.html" target="_top" xlink:title="src">
<polygon fill="none" stroke="red" points="228,-60 174,-60 174,-24 228,-24 228,-60"/>
<text text-anchor="middle" x="201" y="-39" font-family="Helvetica,sans-Serif" font-size="10.00">src</text>
</a>
</g>
</g>
<!-- dir_016ff1d6fa7440ecc4fb8b2166afab69&#45;&gt;dir_89abb805bfaa5aa5fb5070eeca341ee5 -->
<g id="edge2" class="edge"><title>dir_016ff1d6fa7440ecc4fb8b2166afab69&#45;&gt;dir_89abb805bfaa5aa5fb5070eeca341ee5</title>
<path fill="none" stroke="black" d="M142.281,-95.6966C151.915,-87.0503 163.729,-76.4486 174.227,-67.027"/>
<polygon fill="black" stroke="black" points="176.836,-69.3883 181.941,-60.1043 172.161,-64.1786 176.836,-69.3883"/>
<g id="a_edge2&#45;headlabel"><a xlink:href="dir_000003_000007.html" target="_top" xlink:title="1">
<text text-anchor="middle" x="176.057" y="-70.9023" font-family="Helvetica,sans-Serif" font-size="10.00">1</text>
</a>
</g>
</g>
<!-- dir_693584abd1530a739d459104b7498178 -->
<g id="node3" class="node"><title>dir_693584abd1530a739d459104b7498178</title>
<g id="a_node3"><a xlink:href="dir_693584abd1530a739d459104b7498178.html" target="_top" xlink:title="hwpl">
<polygon fill="white" stroke="red" points="78,-132 24,-132 24,-96 78,-96 78,-132"/>
<text text-anchor="middle" x="51" y="-111" font-family="Helvetica,sans-Serif" font-size="10.00">hwpl</text>
</a>
</g>
</g>
<!-- dir_89abb805bfaa5aa5fb5070eeca341ee5&#45;&gt;dir_e3e0adbd5aada40e511ad6d6c793c31b -->
<g id="edge3" class="edge"><title>dir_89abb805bfaa5aa5fb5070eeca341ee5&#45;&gt;dir_e3e0adbd5aada40e511ad6d6c793c31b</title>
<path fill="none" stroke="black" d="M173.969,-42C169.372,-42 164.776,-42 160.179,-42"/>
<polygon fill="black" stroke="black" points="160.117,-38.5001 150.117,-42 160.117,-45.5001 160.117,-38.5001"/>
<g id="a_edge3&#45;headlabel"><a xlink:href="dir_000007_000004.html" target="_top" xlink:title="4">
<text text-anchor="middle" x="163.712" y="-32.6607" font-family="Helvetica,sans-Serif" font-size="10.00">4</text>
</a>
</g>
</g>
</g>
</svg>
