<?xml version="1.0" encoding="UTF-8" standalone="no"?>
<!DOCTYPE svg PUBLIC "-//W3C//DTD SVG 1.1//EN"
 "http://www.w3.org/Graphics/SVG/1.1/DTD/svg11.dtd">
<!-- Generated by graphviz version 2.36.0 (20140111.2315)
 -->
<!-- Title: include Pages: 1 -->
<svg width="294pt" height="247pt"
 viewBox="0.00 0.00 294.00 246.63" xmlns="http://www.w3.org/2000/svg" xmlns:xlink="http://www.w3.org/1999/xlink">
<g id="graph0" class="graph" transform="scale(1 1) rotate(0) translate(4 242.631)">
<title>include</title>
<g id="clust1" class="cluster"><title>clusterdir_d44c64559bbebec7f509842c48db8b23</title>
<g id="a_clust1"><a xlink:href="dir_d44c64559bbebec7f509842c48db8b23.html" target="_top">
<polygon fill="#eeeeff" stroke="black" points="8,-8 8,-204 222,-204 222,-8 8,-8"/>
</a>
</g>
</g>
<!-- dir_d44c64559bbebec7f509842c48db8b23 -->
<g id="node1" class="node"><title>dir_d44c64559bbebec7f509842c48db8b23</title>
<text text-anchor="middle" x="187" y="-175" font-family="Helvetica,sans-Serif" font-size="10.00">include</text>
</g>
<!-- dir_e4341c5bb6835a0197618859a3d9eb6f -->
<g id="node2" class="node"><title>dir_e4341c5bb6835a0197618859a3d9eb6f</title>
<g id="a_node2"><a xlink:href="dir_e4341c5bb6835a0197618859a3d9eb6f.html" target="_top" xlink:title="iface">
<polygon fill="white" stroke="red" points="181,-52 127,-52 127,-16 181,-16 181,-52"/>
<text text-anchor="middle" x="154" y="-31" font-family="Helvetica,sans-Serif" font-size="10.00">iface</text>
</a>
</g>
</g>
<!-- dir_2a8654b7e6ee26175be5f799c6740a02 -->
<g id="node3" class="node"><title>dir_2a8654b7e6ee26175be5f799c6740a02</title>
<g id="a_node3"><a xlink:href="dir_2a8654b7e6ee26175be5f799c6740a02.html" target="_top" xlink:title="mcu">
<polygon fill="white" stroke="black" points="142,-196 88,-196 88,-160 142,-160 142,-196"/>
<text text-anchor="middle" x="115" y="-175" font-family="Helvetica,sans-Serif" font-size="10.00">mcu</text>
</a>
</g>
</g>
<!-- dir_d3e581e741ee23262426234d3234c771 -->
<g id="node4" class="node"><title>dir_d3e581e741ee23262426234d3234c771</title>
<g id="a_node4"><a xlink:href="dir_d3e581e741ee23262426234d3234c771.html" target="_top" xlink:title="posix">
<polygon fill="white" stroke="red" points="181,-124 127,-124 127,-88 181,-88 181,-124"/>
<text text-anchor="middle" x="154" y="-103" font-family="Helvetica,sans-Serif" font-size="10.00">posix</text>
</a>
</g>
</g>
<!-- dir_d3e581e741ee23262426234d3234c771&#45;&gt;dir_e4341c5bb6835a0197618859a3d9eb6f -->
<g id="edge4" class="edge"><title>dir_d3e581e741ee23262426234d3234c771&#45;&gt;dir_e4341c5bb6835a0197618859a3d9eb6f</title>
<path fill="none" stroke="black" d="M154,-87.6966C154,-79.9827 154,-70.7125 154,-62.1124"/>
<polygon fill="black" stroke="black" points="157.5,-62.1043 154,-52.1043 150.5,-62.1044 157.5,-62.1043"/>
<g id="a_edge4&#45;headlabel"><a xlink:href="dir_000004_000001.html" target="_top" xlink:title="1">
<text text-anchor="middle" x="160.339" y="-62.699" font-family="Helvetica,sans-Serif" font-size="10.00">1</text>
</a>
</g>
</g>
<!-- dir_768508705275fab9fb6d917edd64b3e7 -->
<g id="node5" class="node"><title>dir_768508705275fab9fb6d917edd64b3e7</title>
<g id="a_node5"><a xlink:href="dir_768508705275fab9fb6d917edd64b3e7.html" target="_top" xlink:title="stratify">
<polygon fill="white" stroke="black" points="70,-196 16,-196 16,-160 70,-160 70,-196"/>
<text text-anchor="middle" x="43" y="-175" font-family="Helvetica,sans-Serif" font-size="10.00">stratify</text>
</a>
</g>
</g>
<!-- dir_768508705275fab9fb6d917edd64b3e7&#45;&gt;dir_e4341c5bb6835a0197618859a3d9eb6f -->
<g id="edge7" class="edge"><title>dir_768508705275fab9fb6d917edd64b3e7&#45;&gt;dir_e4341c5bb6835a0197618859a3d9eb6f</title>
<path fill="none" stroke="black" d="M56.3892,-159.871C75.8071,-135.031 111.909,-88.8464 134.347,-60.1415"/>
<polygon fill="black" stroke="black" points="137.162,-62.2234 140.563,-52.1893 131.647,-57.9123 137.162,-62.2234"/>
<g id="a_edge7&#45;headlabel"><a xlink:href="dir_000006_000001.html" target="_top" xlink:title="3">
<text text-anchor="middle" x="137.185" y="-63.804" font-family="Helvetica,sans-Serif" font-size="10.00">3</text>
</a>
</g>
</g>
<!-- dir_768508705275fab9fb6d917edd64b3e7&#45;&gt;dir_d3e581e741ee23262426234d3234c771 -->
<g id="edge6" class="edge"><title>dir_768508705275fab9fb6d917edd64b3e7&#45;&gt;dir_d3e581e741ee23262426234d3234c771</title>
<path fill="none" stroke="black" d="M70.1537,-159.876C84.5325,-150.808 102.381,-139.552 117.91,-129.759"/>
<polygon fill="black" stroke="black" points="120.15,-132.484 126.742,-124.19 116.416,-126.564 120.15,-132.484"/>
<g id="a_edge6&#45;headlabel"><a xlink:href="dir_000006_000004.html" target="_top" xlink:title="3">
<text text-anchor="middle" x="118.624" y="-133.803" font-family="Helvetica,sans-Serif" font-size="10.00">3</text>
</a>
</g>
</g>
<!-- dir_68267d1309a1af8e8297ef4c3efbcdba -->
<g id="node6" class="node"><title>dir_68267d1309a1af8e8297ef4c3efbcdba</title>
<g id="a_node6"><a xlink:href="dir_68267d1309a1af8e8297ef4c3efbcdba.html" target="_top" xlink:title="src">
<polygon fill="none" stroke="red" points="286,-196 232,-196 232,-160 286,-160 286,-196"/>
<text text-anchor="middle" x="259" y="-175" font-family="Helvetica,sans-Serif" font-size="10.00">src</text>
</a>
</g>
</g>
<!-- dir_768508705275fab9fb6d917edd64b3e7&#45;&gt;dir_68267d1309a1af8e8297ef4c3efbcdba -->
<g id="edge5" class="edge"><title>dir_768508705275fab9fb6d917edd64b3e7&#45;&gt;dir_68267d1309a1af8e8297ef4c3efbcdba</title>
<path fill="none" stroke="black" d="M55.7866,-196.04C63.7989,-205.721 75.0489,-216.721 88,-222 141.092,-243.643 164.29,-244.555 217,-222 226.126,-218.095 234.213,-211.125 240.794,-203.868"/>
<polygon fill="black" stroke="black" points="243.622,-205.94 247.32,-196.012 238.238,-201.467 243.622,-205.94"/>
<g id="a_edge5&#45;headlabel"><a xlink:href="dir_000006_000007.html" target="_top" xlink:title="1">
<text text-anchor="middle" x="243.509" y="-207.519" font-family="Helvetica,sans-Serif" font-size="10.00">1</text>
</a>
</g>
</g>
<!-- dir_68267d1309a1af8e8297ef4c3efbcdba&#45;&gt;dir_e4341c5bb6835a0197618859a3d9eb6f -->
<g id="edge3" class="edge"><title>dir_68267d1309a1af8e8297ef4c3efbcdba&#45;&gt;dir_e4341c5bb6835a0197618859a3d9eb6f</title>
<path fill="none" stroke="black" d="M246.335,-159.871C228.045,-135.137 194.109,-89.2424 172.865,-60.5121"/>
<polygon fill="black" stroke="black" points="175.47,-58.1489 166.71,-52.1893 169.842,-62.3108 175.47,-58.1489"/>
<g id="a_edge3&#45;headlabel"><a xlink:href="dir_000007_000001.html" target="_top" xlink:title="5">
<text text-anchor="middle" x="179.89" y="-56.3511" font-family="Helvetica,sans-Serif" font-size="10.00">5</text>
</a>
</g>
</g>
<!-- dir_68267d1309a1af8e8297ef4c3efbcdba&#45;&gt;dir_d3e581e741ee23262426234d3234c771 -->
<g id="edge1" class="edge"><title>dir_68267d1309a1af8e8297ef4c3efbcdba&#45;&gt;dir_d3e581e741ee23262426234d3234c771</title>
<path fill="none" stroke="black" d="M233.314,-159.876C219.712,-150.808 202.828,-139.552 188.139,-129.759"/>
<polygon fill="black" stroke="black" points="190.047,-126.825 179.785,-124.19 186.164,-132.649 190.047,-126.825"/>
<g id="a_edge1&#45;headlabel"><a xlink:href="dir_000007_000004.html" target="_top" xlink:title="2">
<text text-anchor="middle" x="194.612" y="-123.456" font-family="Helvetica,sans-Serif" font-size="10.00">2</text>
</a>
</g>
</g>
<!-- dir_68267d1309a1af8e8297ef4c3efbcdba&#45;&gt;dir_768508705275fab9fb6d917edd64b3e7 -->
<g id="edge2" class="edge"><title>dir_68267d1309a1af8e8297ef4c3efbcdba&#45;&gt;dir_768508705275fab9fb6d917edd64b3e7</title>
<path fill="none" stroke="black" d="M247.32,-196.012C239.927,-205.682 229.427,-216.682 217,-222 164.29,-244.555 141.092,-243.643 88,-222 78.489,-218.123 69.8955,-211.161 62.8279,-203.902"/>
<polygon fill="black" stroke="black" points="65.0657,-201.154 55.7866,-196.04 59.8515,-205.824 65.0657,-201.154"/>
<g id="a_edge2&#45;headlabel"><a xlink:href="dir_000007_000006.html" target="_top" xlink:title="1">
<text text-anchor="middle" x="69.5789" y="-198.937" font-family="Helvetica,sans-Serif" font-size="10.00">1</text>
</a>
</g>
</g>
</g>
</svg>
