<?xml version="1.0" encoding="UTF-8" standalone="no"?>
<!DOCTYPE svg PUBLIC "-//W3C//DTD SVG 1.1//EN"
 "http://www.w3.org/Graphics/SVG/1.1/DTD/svg11.dtd">
<!-- Generated by graphviz version 2.36.0 (20140111.2315)
 -->
<!-- Title: include/stratify Pages: 1 -->
<svg width="105pt" height="222pt"
 viewBox="0.00 0.00 105.00 222.00" xmlns="http://www.w3.org/2000/svg" xmlns:xlink="http://www.w3.org/1999/xlink">
<g id="graph0" class="graph" transform="scale(1 1) rotate(0) translate(4 218)">
<title>include/stratify</title>
<g id="clust1" class="cluster"><title>clusterdir_d44c64559bbebec7f509842c48db8b23</title>
<g id="a_clust1"><a xlink:href="dir_d44c64559bbebec7f509842c48db8b23.html" target="_top" xlink:title="include">
<polygon fill="#ddddee" stroke="black" points="19,-136 19,-206 89,-206 89,-136 19,-136"/>
<text text-anchor="middle" x="54" y="-194" font-family="Helvetica,sans-Serif" font-size="10.00">include</text>
</a>
</g>
</g>
<!-- dir_768508705275fab9fb6d917edd64b3e7 -->
<g id="node1" class="node"><title>dir_768508705275fab9fb6d917edd64b3e7</title>
<g id="a_node1"><a xlink:href="dir_768508705275fab9fb6d917edd64b3e7.html" target="_top" xlink:title="stratify">
<polygon fill="#eeeeff" stroke="black" points="81,-180 27,-180 27,-144 81,-144 81,-180"/>
<text text-anchor="middle" x="54" y="-159" font-family="Helvetica,sans-Serif" font-size="10.00">stratify</text>
</a>
</g>
</g>
<!-- dir_d3e581e741ee23262426234d3234c771 -->
<g id="node2" class="node"><title>dir_d3e581e741ee23262426234d3234c771</title>
<g id="a_node2"><a xlink:href="dir_d3e581e741ee23262426234d3234c771.html" target="_top" xlink:title="posix">
<polygon fill="none" stroke="red" points="54,-108 0,-108 0,-72 54,-72 54,-108"/>
<text text-anchor="middle" x="27" y="-87" font-family="Helvetica,sans-Serif" font-size="10.00">posix</text>
</a>
</g>
</g>
<!-- dir_768508705275fab9fb6d917edd64b3e7&#45;&gt;dir_d3e581e741ee23262426234d3234c771 -->
<g id="edge2" class="edge"><title>dir_768508705275fab9fb6d917edd64b3e7&#45;&gt;dir_d3e581e741ee23262426234d3234c771</title>
<path fill="none" stroke="black" d="M47.3258,-143.697C44.2851,-135.813 40.6173,-126.304 37.2393,-117.546"/>
<polygon fill="black" stroke="black" points="40.4617,-116.175 33.5974,-108.104 33.9307,-118.694 40.4617,-116.175"/>
<g id="a_edge2&#45;headlabel"><a xlink:href="dir_000006_000004.html" target="_top" xlink:title="3">
<text text-anchor="middle" x="44.4043" y="-115.507" font-family="Helvetica,sans-Serif" font-size="10.00">3</text>
</a>
</g>
</g>
<!-- dir_e4341c5bb6835a0197618859a3d9eb6f -->
<g id="node3" class="node"><title>dir_e4341c5bb6835a0197618859a3d9eb6f</title>
<g id="a_node3"><a xlink:href="dir_e4341c5bb6835a0197618859a3d9eb6f.html" target="_top" xlink:title="iface">
<polygon fill="none" stroke="red" points="81,-36 27,-36 27,-0 81,-0 81,-36"/>
<text text-anchor="middle" x="54" y="-15" font-family="Helvetica,sans-Serif" font-size="10.00">iface</text>
</a>
</g>
</g>
<!-- dir_768508705275fab9fb6d917edd64b3e7&#45;&gt;dir_e4341c5bb6835a0197618859a3d9eb6f -->
<g id="edge3" class="edge"><title>dir_768508705275fab9fb6d917edd64b3e7&#45;&gt;dir_e4341c5bb6835a0197618859a3d9eb6f</title>
<path fill="none" stroke="black" d="M57.6538,-143.908C59.6758,-133.569 61.9808,-120.09 63,-108 64.3441,-92.0566 64.3441,-87.9434 63,-72 62.2834,-63.4991 60.9311,-54.3119 59.4884,-46.0122"/>
<polygon fill="black" stroke="black" points="62.9142,-45.2892 57.6538,-36.0925 56.0309,-46.5623 62.9142,-45.2892"/>
<g id="a_edge3&#45;headlabel"><a xlink:href="dir_000006_000001.html" target="_top" xlink:title="3">
<text text-anchor="middle" x="66.3597" y="-45.3075" font-family="Helvetica,sans-Serif" font-size="10.00">3</text>
</a>
</g>
</g>
<!-- dir_d3e581e741ee23262426234d3234c771&#45;&gt;dir_e4341c5bb6835a0197618859a3d9eb6f -->
<g id="edge1" class="edge"><title>dir_d3e581e741ee23262426234d3234c771&#45;&gt;dir_e4341c5bb6835a0197618859a3d9eb6f</title>
<path fill="none" stroke="black" d="M33.6742,-71.6966C36.7149,-63.8132 40.3827,-54.3042 43.7607,-45.5464"/>
<polygon fill="black" stroke="black" points="47.0693,-46.6939 47.4026,-36.1043 40.5383,-44.1748 47.0693,-46.6939"/>
<g id="a_edge1&#45;headlabel"><a xlink:href="dir_000004_000001.html" target="_top" xlink:title="1">
<text text-anchor="middle" x="48.4248" y="-48.0695" font-family="Helvetica,sans-Serif" font-size="10.00">1</text>
</a>
</g>
</g>
</g>
</svg>
