<?xml version="1.0" encoding="UTF-8" standalone="no"?>
<!DOCTYPE svg PUBLIC "-//W3C//DTD SVG 1.1//EN"
 "http://www.w3.org/Graphics/SVG/1.1/DTD/svg11.dtd">
<!-- Generated by graphviz version 2.36.0 (20140111.2315)
 -->
<!-- Title: /Users/tgil/git/CoActionOS/CoActionOS/src/sys Pages: 1 -->
<svg width="842pt" height="158pt"
 viewBox="0.00 0.00 842.00 158.00" xmlns="http://www.w3.org/2000/svg" xmlns:xlink="http://www.w3.org/1999/xlink">
<g id="graph0" class="graph" transform="scale(1 1) rotate(0) translate(4 154)">
<title>/Users/tgil/git/CoActionOS/CoActionOS/src/sys</title>
<g id="clust1" class="cluster"><title>clusterdir_89abb805bfaa5aa5fb5070eeca341ee5</title>
<g id="a_clust1"><a xlink:href="dir_89abb805bfaa5aa5fb5070eeca341ee5.html" target="_top" xlink:title="src">
<polygon fill="#ddddee" stroke="black" points="8,-56 8,-142 826,-142 826,-56 8,-56"/>
<text text-anchor="middle" x="417" y="-130" font-family="Helvetica,sans-Serif" font-size="10.00">src</text>
</a>
</g>
</g>
<g id="clust2" class="cluster"><title>clusterdir_4cb4dd0ceeef432129f4def47d758a44</title>
<g id="a_clust2"><a xlink:href="dir_4cb4dd0ceeef432129f4def47d758a44.html" target="_top">
<polygon fill="#eeeeff" stroke="black" points="16,-64 16,-116 818,-116 818,-64 16,-64"/>
</a>
</g>
</g>
<!-- dir_4cb4dd0ceeef432129f4def47d758a44 -->
<g id="node1" class="node"><title>dir_4cb4dd0ceeef432129f4def47d758a44</title>
<text text-anchor="middle" x="783" y="-87" font-family="Helvetica,sans-Serif" font-size="10.00">sys</text>
</g>
<!-- dir_8f5f16164928e601992683dea9c4cf20 -->
<g id="node2" class="node"><title>dir_8f5f16164928e601992683dea9c4cf20</title>
<g id="a_node2"><a xlink:href="dir_8f5f16164928e601992683dea9c4cf20.html" target="_top" xlink:title="dirent">
<polygon fill="white" stroke="black" points="738,-108 684,-108 684,-72 738,-72 738,-108"/>
<text text-anchor="middle" x="711" y="-87" font-family="Helvetica,sans-Serif" font-size="10.00">dirent</text>
</a>
</g>
</g>
<!-- dir_7665a98af214cba17e1a14b80a56630c -->
<g id="node3" class="node"><title>dir_7665a98af214cba17e1a14b80a56630c</title>
<g id="a_node3"><a xlink:href="dir_7665a98af214cba17e1a14b80a56630c.html" target="_top" xlink:title="grp">
<polygon fill="white" stroke="black" points="666,-108 612,-108 612,-72 666,-72 666,-108"/>
<text text-anchor="middle" x="639" y="-87" font-family="Helvetica,sans-Serif" font-size="10.00">grp</text>
</a>
</g>
</g>
<!-- dir_ae698d8d15e5162de5587eab88b7d263 -->
<g id="node4" class="node"><title>dir_ae698d8d15e5162de5587eab88b7d263</title>
<g id="a_node4"><a xlink:href="dir_ae698d8d15e5162de5587eab88b7d263.html" target="_top" xlink:title="mqueue">
<polygon fill="white" stroke="black" points="594,-108 540,-108 540,-72 594,-72 594,-108"/>
<text text-anchor="middle" x="567" y="-87" font-family="Helvetica,sans-Serif" font-size="10.00">mqueue</text>
</a>
</g>
</g>
<!-- dir_10ffd5c7fb3884d4467767ecd438af8b -->
<g id="node5" class="node"><title>dir_10ffd5c7fb3884d4467767ecd438af8b</title>
<g id="a_node5"><a xlink:href="dir_10ffd5c7fb3884d4467767ecd438af8b.html" target="_top" xlink:title="pthread">
<polygon fill="white" stroke="black" points="522,-108 468,-108 468,-72 522,-72 522,-108"/>
<text text-anchor="middle" x="495" y="-87" font-family="Helvetica,sans-Serif" font-size="10.00">pthread</text>
</a>
</g>
</g>
<!-- dir_016ff1d6fa7440ecc4fb8b2166afab69 -->
<g id="node12" class="node"><title>dir_016ff1d6fa7440ecc4fb8b2166afab69</title>
<g id="a_node12"><a xlink:href="dir_016ff1d6fa7440ecc4fb8b2166afab69.html" target="_top" xlink:title="include">
<polygon fill="none" stroke="red" points="222,-36 168,-36 168,-0 222,-0 222,-36"/>
<text text-anchor="middle" x="195" y="-15" font-family="Helvetica,sans-Serif" font-size="10.00">include</text>
</a>
</g>
</g>
<!-- dir_10ffd5c7fb3884d4467767ecd438af8b&#45;&gt;dir_016ff1d6fa7440ecc4fb8b2166afab69 -->
<g id="edge3" class="edge"><title>dir_10ffd5c7fb3884d4467767ecd438af8b&#45;&gt;dir_016ff1d6fa7440ecc4fb8b2166afab69</title>
<path fill="none" stroke="black" d="M480.432,-71.891C474.412,-65.912 466.976,-59.7606 459,-56 419.626,-37.4347 295.564,-26.175 232.538,-21.5089"/>
<polygon fill="black" stroke="black" points="232.467,-17.9948 222.241,-20.7652 231.963,-24.9766 232.467,-17.9948"/>
<g id="a_edge3&#45;headlabel"><a xlink:href="dir_000012_000003.html" target="_top" xlink:title="1">
<text text-anchor="middle" x="236.257" y="-12.4217" font-family="Helvetica,sans-Serif" font-size="10.00">1</text>
</a>
</g>
</g>
<!-- dir_62dc641eaa492813426a41da87add652 -->
<g id="node6" class="node"><title>dir_62dc641eaa492813426a41da87add652</title>
<g id="a_node6"><a xlink:href="dir_62dc641eaa492813426a41da87add652.html" target="_top" xlink:title="pwd">
<polygon fill="white" stroke="black" points="450,-108 396,-108 396,-72 450,-72 450,-108"/>
<text text-anchor="middle" x="423" y="-87" font-family="Helvetica,sans-Serif" font-size="10.00">pwd</text>
</a>
</g>
</g>
<!-- dir_a1ce66578206b95a603418c6054a8ae9 -->
<g id="node7" class="node"><title>dir_a1ce66578206b95a603418c6054a8ae9</title>
<g id="a_node7"><a xlink:href="dir_a1ce66578206b95a603418c6054a8ae9.html" target="_top" xlink:title="sched">
<polygon fill="white" stroke="black" points="378,-108 324,-108 324,-72 378,-72 378,-108"/>
<text text-anchor="middle" x="351" y="-87" font-family="Helvetica,sans-Serif" font-size="10.00">sched</text>
</a>
</g>
</g>
<!-- dir_a1ce66578206b95a603418c6054a8ae9&#45;&gt;dir_016ff1d6fa7440ecc4fb8b2166afab69 -->
<g id="edge4" class="edge"><title>dir_a1ce66578206b95a603418c6054a8ae9&#45;&gt;dir_016ff1d6fa7440ecc4fb8b2166afab69</title>
<path fill="none" stroke="black" d="M335.382,-71.8697C329.458,-66.1744 322.356,-60.2166 315,-56 289.183,-41.2002 256.78,-31.6637 232.155,-25.9854"/>
<polygon fill="black" stroke="black" points="232.638,-22.508 222.12,-23.7839 231.138,-29.3454 232.638,-22.508"/>
<g id="a_edge4&#45;headlabel"><a xlink:href="dir_000014_000003.html" target="_top" xlink:title="1">
<text text-anchor="middle" x="236.757" y="-17.5048" font-family="Helvetica,sans-Serif" font-size="10.00">1</text>
</a>
</g>
</g>
<!-- dir_0774983ec59f276fad5d753f1bf2ffe5 -->
<g id="node8" class="node"><title>dir_0774983ec59f276fad5d753f1bf2ffe5</title>
<g id="a_node8"><a xlink:href="dir_0774983ec59f276fad5d753f1bf2ffe5.html" target="_top" xlink:title="semaphore">
<polygon fill="white" stroke="black" points="306.022,-108 239.978,-108 239.978,-72 306.022,-72 306.022,-108"/>
<text text-anchor="middle" x="273" y="-87" font-family="Helvetica,sans-Serif" font-size="10.00">semaphore</text>
</a>
</g>
</g>
<!-- dir_dc992761663f67d9de03d69c9b9c457c -->
<g id="node9" class="node"><title>dir_dc992761663f67d9de03d69c9b9c457c</title>
<g id="a_node9"><a xlink:href="dir_dc992761663f67d9de03d69c9b9c457c.html" target="_top" xlink:title="signal">
<polygon fill="white" stroke="black" points="222,-108 168,-108 168,-72 222,-72 222,-108"/>
<text text-anchor="middle" x="195" y="-87" font-family="Helvetica,sans-Serif" font-size="10.00">signal</text>
</a>
</g>
</g>
<!-- dir_dc992761663f67d9de03d69c9b9c457c&#45;&gt;dir_016ff1d6fa7440ecc4fb8b2166afab69 -->
<g id="edge1" class="edge"><title>dir_dc992761663f67d9de03d69c9b9c457c&#45;&gt;dir_016ff1d6fa7440ecc4fb8b2166afab69</title>
<path fill="none" stroke="black" d="M195,-71.6966C195,-63.9827 195,-54.7125 195,-46.1124"/>
<polygon fill="black" stroke="black" points="198.5,-46.1043 195,-36.1043 191.5,-46.1044 198.5,-46.1043"/>
<g id="a_edge1&#45;headlabel"><a xlink:href="dir_000016_000003.html" target="_top" xlink:title="4">
<text text-anchor="middle" x="201.339" y="-46.699" font-family="Helvetica,sans-Serif" font-size="10.00">4</text>
</a>
</g>
</g>
<!-- dir_7afb6464ba18fe36b6ad8ef58161a0ca -->
<g id="node10" class="node"><title>dir_7afb6464ba18fe36b6ad8ef58161a0ca</title>
<g id="a_node10"><a xlink:href="dir_7afb6464ba18fe36b6ad8ef58161a0ca.html" target="_top" xlink:title="time">
<polygon fill="white" stroke="black" points="150,-108 96,-108 96,-72 150,-72 150,-108"/>
<text text-anchor="middle" x="123" y="-87" font-family="Helvetica,sans-Serif" font-size="10.00">time</text>
</a>
</g>
</g>
<!-- dir_7afb6464ba18fe36b6ad8ef58161a0ca&#45;&gt;dir_016ff1d6fa7440ecc4fb8b2166afab69 -->
<g id="edge5" class="edge"><title>dir_7afb6464ba18fe36b6ad8ef58161a0ca&#45;&gt;dir_016ff1d6fa7440ecc4fb8b2166afab69</title>
<path fill="none" stroke="black" d="M140.798,-71.6966C149.604,-63.135 160.382,-52.6562 170.001,-43.3045"/>
<polygon fill="black" stroke="black" points="172.677,-45.5846 177.407,-36.1043 167.797,-40.5657 172.677,-45.5846"/>
<g id="a_edge5&#45;headlabel"><a xlink:href="dir_000017_000003.html" target="_top" xlink:title="6">
<text text-anchor="middle" x="172.079" y="-47.1261" font-family="Helvetica,sans-Serif" font-size="10.00">6</text>
</a>
</g>
</g>
<!-- dir_f279741e54d27b82622822ad33dc09b4 -->
<g id="node11" class="node"><title>dir_f279741e54d27b82622822ad33dc09b4</title>
<g id="a_node11"><a xlink:href="dir_f279741e54d27b82622822ad33dc09b4.html" target="_top" xlink:title="unistd">
<polygon fill="white" stroke="black" points="78,-108 24,-108 24,-72 78,-72 78,-108"/>
<text text-anchor="middle" x="51" y="-87" font-family="Helvetica,sans-Serif" font-size="10.00">unistd</text>
</a>
</g>
</g>
<!-- dir_f279741e54d27b82622822ad33dc09b4&#45;&gt;dir_016ff1d6fa7440ecc4fb8b2166afab69 -->
<g id="edge2" class="edge"><title>dir_f279741e54d27b82622822ad33dc09b4&#45;&gt;dir_016ff1d6fa7440ecc4fb8b2166afab69</title>
<path fill="none" stroke="black" d="M66.6915,-71.996C72.6228,-66.3126 79.7105,-60.33 87,-56 109.066,-42.8927 136.442,-33.5786 158.11,-27.5739"/>
<polygon fill="black" stroke="black" points="159.164,-30.9155 167.932,-24.9681 157.368,-24.1496 159.164,-30.9155"/>
<g id="a_edge2&#45;headlabel"><a xlink:href="dir_000018_000003.html" target="_top" xlink:title="10">
<text text-anchor="middle" x="156.417" y="-31.5816" font-family="Helvetica,sans-Serif" font-size="10.00">10</text>
</a>
</g>
</g>
</g>
</svg>
