<?xml version="1.0" encoding="UTF-8" standalone="no"?>
<!DOCTYPE svg PUBLIC "-//W3C//DTD SVG 1.1//EN"
 "http://www.w3.org/Graphics/SVG/1.1/DTD/svg11.dtd">
<!-- Generated by graphviz version 2.36.0 (20140111.2315)
 -->
<!-- Title: src/sys Pages: 1 -->
<svg width="842pt" height="158pt"
 viewBox="0.00 0.00 842.00 158.00" xmlns="http://www.w3.org/2000/svg" xmlns:xlink="http://www.w3.org/1999/xlink">
<g id="graph0" class="graph" transform="scale(1 1) rotate(0) translate(4 154)">
<title>src/sys</title>
<g id="clust1" class="cluster"><title>clusterdir_68267d1309a1af8e8297ef4c3efbcdba</title>
<g id="a_clust1"><a xlink:href="dir_68267d1309a1af8e8297ef4c3efbcdba.html" target="_top" xlink:title="src">
<polygon fill="#ddddee" stroke="black" points="8,-56 8,-142 826,-142 826,-56 8,-56"/>
<text text-anchor="middle" x="417" y="-130" font-family="Helvetica,sans-Serif" font-size="10.00">src</text>
</a>
</g>
</g>
<g id="clust2" class="cluster"><title>clusterdir_220d2bd384b446346a1cdcf02b1b2295</title>
<g id="a_clust2"><a xlink:href="dir_220d2bd384b446346a1cdcf02b1b2295.html" target="_top">
<polygon fill="#eeeeff" stroke="black" points="16,-64 16,-116 818,-116 818,-64 16,-64"/>
</a>
</g>
</g>
<!-- dir_220d2bd384b446346a1cdcf02b1b2295 -->
<g id="node1" class="node"><title>dir_220d2bd384b446346a1cdcf02b1b2295</title>
<text text-anchor="middle" x="783" y="-87" font-family="Helvetica,sans-Serif" font-size="10.00">sys</text>
</g>
<!-- dir_f60c3b6b3af49cc2b0000d007545c519 -->
<g id="node2" class="node"><title>dir_f60c3b6b3af49cc2b0000d007545c519</title>
<g id="a_node2"><a xlink:href="dir_f60c3b6b3af49cc2b0000d007545c519.html" target="_top" xlink:title="dirent">
<polygon fill="white" stroke="black" points="738,-108 684,-108 684,-72 738,-72 738,-108"/>
<text text-anchor="middle" x="711" y="-87" font-family="Helvetica,sans-Serif" font-size="10.00">dirent</text>
</a>
</g>
</g>
<!-- dir_d44c64559bbebec7f509842c48db8b23 -->
<g id="node12" class="node"><title>dir_d44c64559bbebec7f509842c48db8b23</title>
<g id="a_node12"><a xlink:href="dir_d44c64559bbebec7f509842c48db8b23.html" target="_top" xlink:title="include">
<polygon fill="none" stroke="red" points="186,-36 132,-36 132,-0 186,-0 186,-36"/>
<text text-anchor="middle" x="159" y="-15" font-family="Helvetica,sans-Serif" font-size="10.00">include</text>
</a>
</g>
</g>
<!-- dir_f60c3b6b3af49cc2b0000d007545c519&#45;&gt;dir_d44c64559bbebec7f509842c48db8b23 -->
<g id="edge1" class="edge"><title>dir_f60c3b6b3af49cc2b0000d007545c519&#45;&gt;dir_d44c64559bbebec7f509842c48db8b23</title>
<path fill="none" stroke="black" d="M696.906,-71.9503C690.845,-65.8246 683.254,-59.5557 675,-56 588.861,-18.8923 299.817,-17.7057 196.285,-18.527"/>
<polygon fill="black" stroke="black" points="195.976,-15.0295 186.008,-18.6202 196.039,-22.0292 195.976,-15.0295"/>
<g id="a_edge1&#45;headlabel"><a xlink:href="dir_000009_000000.html" target="_top" xlink:title="1">
<text text-anchor="middle" x="199.544" y="-9.15786" font-family="Helvetica,sans-Serif" font-size="10.00">1</text>
</a>
</g>
</g>
<!-- dir_922397ba8152a44f10eab9d18e81cdab -->
<g id="node3" class="node"><title>dir_922397ba8152a44f10eab9d18e81cdab</title>
<g id="a_node3"><a xlink:href="dir_922397ba8152a44f10eab9d18e81cdab.html" target="_top" xlink:title="grp">
<polygon fill="white" stroke="black" points="666,-108 612,-108 612,-72 666,-72 666,-108"/>
<text text-anchor="middle" x="639" y="-87" font-family="Helvetica,sans-Serif" font-size="10.00">grp</text>
</a>
</g>
</g>
<!-- dir_9dfc3ae73723c56b56cb31ab9ec4f075 -->
<g id="node4" class="node"><title>dir_9dfc3ae73723c56b56cb31ab9ec4f075</title>
<g id="a_node4"><a xlink:href="dir_9dfc3ae73723c56b56cb31ab9ec4f075.html" target="_top" xlink:title="mqueue">
<polygon fill="white" stroke="black" points="594,-108 540,-108 540,-72 594,-72 594,-108"/>
<text text-anchor="middle" x="567" y="-87" font-family="Helvetica,sans-Serif" font-size="10.00">mqueue</text>
</a>
</g>
</g>
<!-- dir_6ecb67e67db565dcee3c8fe21f059706 -->
<g id="node5" class="node"><title>dir_6ecb67e67db565dcee3c8fe21f059706</title>
<g id="a_node5"><a xlink:href="dir_6ecb67e67db565dcee3c8fe21f059706.html" target="_top" xlink:title="pthread">
<polygon fill="white" stroke="black" points="522,-108 468,-108 468,-72 522,-72 522,-108"/>
<text text-anchor="middle" x="495" y="-87" font-family="Helvetica,sans-Serif" font-size="10.00">pthread</text>
</a>
</g>
</g>
<!-- dir_95540c7b09677354dea471bbab5dd207 -->
<g id="node6" class="node"><title>dir_95540c7b09677354dea471bbab5dd207</title>
<g id="a_node6"><a xlink:href="dir_95540c7b09677354dea471bbab5dd207.html" target="_top" xlink:title="pwd">
<polygon fill="white" stroke="black" points="450,-108 396,-108 396,-72 450,-72 450,-108"/>
<text text-anchor="middle" x="423" y="-87" font-family="Helvetica,sans-Serif" font-size="10.00">pwd</text>
</a>
</g>
</g>
<!-- dir_dc374d8d6fa4ef259f36c946a5b03f3d -->
<g id="node7" class="node"><title>dir_dc374d8d6fa4ef259f36c946a5b03f3d</title>
<g id="a_node7"><a xlink:href="dir_dc374d8d6fa4ef259f36c946a5b03f3d.html" target="_top" xlink:title="sched">
<polygon fill="white" stroke="black" points="378,-108 324,-108 324,-72 378,-72 378,-108"/>
<text text-anchor="middle" x="351" y="-87" font-family="Helvetica,sans-Serif" font-size="10.00">sched</text>
</a>
</g>
</g>
<!-- dir_884ff503f4a832268766ff70c5ee7595 -->
<g id="node8" class="node"><title>dir_884ff503f4a832268766ff70c5ee7595</title>
<g id="a_node8"><a xlink:href="dir_884ff503f4a832268766ff70c5ee7595.html" target="_top" xlink:title="semaphore">
<polygon fill="white" stroke="black" points="306.022,-108 239.978,-108 239.978,-72 306.022,-72 306.022,-108"/>
<text text-anchor="middle" x="273" y="-87" font-family="Helvetica,sans-Serif" font-size="10.00">semaphore</text>
</a>
</g>
</g>
<!-- dir_8c012ac2935182f41f85263bc6119137 -->
<g id="node9" class="node"><title>dir_8c012ac2935182f41f85263bc6119137</title>
<g id="a_node9"><a xlink:href="dir_8c012ac2935182f41f85263bc6119137.html" target="_top" xlink:title="signal">
<polygon fill="white" stroke="black" points="222,-108 168,-108 168,-72 222,-72 222,-108"/>
<text text-anchor="middle" x="195" y="-87" font-family="Helvetica,sans-Serif" font-size="10.00">signal</text>
</a>
</g>
</g>
<!-- dir_8c012ac2935182f41f85263bc6119137&#45;&gt;dir_d44c64559bbebec7f509842c48db8b23 -->
<g id="edge2" class="edge"><title>dir_8c012ac2935182f41f85263bc6119137&#45;&gt;dir_d44c64559bbebec7f509842c48db8b23</title>
<path fill="none" stroke="black" d="M186.101,-71.6966C182.003,-63.7284 177.051,-54.0995 172.507,-45.2641"/>
<polygon fill="black" stroke="black" points="175.483,-43.3965 167.797,-36.1043 169.258,-46.598 175.483,-43.3965"/>
<g id="a_edge2&#45;headlabel"><a xlink:href="dir_000016_000000.html" target="_top" xlink:title="1">
<text text-anchor="middle" x="179.651" y="-42.2946" font-family="Helvetica,sans-Serif" font-size="10.00">1</text>
</a>
</g>
</g>
<!-- dir_c9b498cb98c5ae025a921d7c27b2b88b -->
<g id="node10" class="node"><title>dir_c9b498cb98c5ae025a921d7c27b2b88b</title>
<g id="a_node10"><a xlink:href="dir_c9b498cb98c5ae025a921d7c27b2b88b.html" target="_top" xlink:title="time">
<polygon fill="white" stroke="black" points="150,-108 96,-108 96,-72 150,-72 150,-108"/>
<text text-anchor="middle" x="123" y="-87" font-family="Helvetica,sans-Serif" font-size="10.00">time</text>
</a>
</g>
</g>
<!-- dir_c9b498cb98c5ae025a921d7c27b2b88b&#45;&gt;dir_d44c64559bbebec7f509842c48db8b23 -->
<g id="edge4" class="edge"><title>dir_c9b498cb98c5ae025a921d7c27b2b88b&#45;&gt;dir_d44c64559bbebec7f509842c48db8b23</title>
<path fill="none" stroke="black" d="M131.899,-71.6966C135.997,-63.7284 140.949,-54.0995 145.493,-45.2641"/>
<polygon fill="black" stroke="black" points="148.742,-46.598 150.203,-36.1043 142.517,-43.3965 148.742,-46.598"/>
<g id="a_edge4&#45;headlabel"><a xlink:href="dir_000017_000000.html" target="_top" xlink:title="3">
<text text-anchor="middle" x="149.623" y="-48.0931" font-family="Helvetica,sans-Serif" font-size="10.00">3</text>
</a>
</g>
</g>
<!-- dir_e28ac8b15ec1c322d984d990f2581aa9 -->
<g id="node11" class="node"><title>dir_e28ac8b15ec1c322d984d990f2581aa9</title>
<g id="a_node11"><a xlink:href="dir_e28ac8b15ec1c322d984d990f2581aa9.html" target="_top" xlink:title="unistd">
<polygon fill="white" stroke="black" points="78,-108 24,-108 24,-72 78,-72 78,-108"/>
<text text-anchor="middle" x="51" y="-87" font-family="Helvetica,sans-Serif" font-size="10.00">unistd</text>
</a>
</g>
</g>
<!-- dir_e28ac8b15ec1c322d984d990f2581aa9&#45;&gt;dir_d44c64559bbebec7f509842c48db8b23 -->
<g id="edge3" class="edge"><title>dir_e28ac8b15ec1c322d984d990f2581aa9&#45;&gt;dir_d44c64559bbebec7f509842c48db8b23</title>
<path fill="none" stroke="black" d="M67.7821,-71.8925C73.5884,-66.4551 80.3207,-60.6516 87,-56 98.0111,-48.3316 110.824,-41.2366 122.563,-35.354"/>
<polygon fill="black" stroke="black" points="124.234,-38.4333 131.692,-30.9083 121.169,-32.1398 124.234,-38.4333"/>
<g id="a_edge3&#45;headlabel"><a xlink:href="dir_000018_000000.html" target="_top" xlink:title="3">
<text text-anchor="middle" x="122.245" y="-39.5597" font-family="Helvetica,sans-Serif" font-size="10.00">3</text>
</a>
</g>
</g>
</g>
</svg>
