<?xml version="1.0" encoding="UTF-8" standalone="no"?>
<!DOCTYPE svg PUBLIC "-//W3C//DTD SVG 1.1//EN"
 "http://www.w3.org/Graphics/SVG/1.1/DTD/svg11.dtd">
<!-- Generated by graphviz version 2.36.0 (20140111.2315)
 -->
<!-- Title: src/sys/dirent/dirent.c Pages: 1 -->
<svg width="450pt" height="140pt"
 viewBox="0.00 0.00 450.00 140.00" xmlns="http://www.w3.org/2000/svg" xmlns:xlink="http://www.w3.org/1999/xlink">
<g id="graph0" class="graph" transform="scale(1 1) rotate(0) translate(4 136)">
<title>src/sys/dirent/dirent.c</title>
<!-- Node1 -->
<g id="node1" class="node"><title>Node1</title>
<polygon fill="#bfbfbf" stroke="black" points="138.764,-113 138.764,-131 249.236,-131 249.236,-113 138.764,-113"/>
<text text-anchor="middle" x="194" y="-119" font-family="Helvetica,sans-Serif" font-size="10.00">src/sys/dirent/dirent.c</text>
</g>
<!-- Node2 -->
<g id="node2" class="node"><title>Node2</title>
<g id="a_node2"><a xlink:href="config_8h.html" target="_top" xlink:title="config.h">
<polygon fill="none" stroke="black" points="64.4878,-57 64.4878,-75 115.512,-75 115.512,-57 64.4878,-57"/>
<text text-anchor="middle" x="90" y="-63" font-family="Helvetica,sans-Serif" font-size="10.00">config.h</text>
</a>
</g>
</g>
<!-- Node1&#45;&gt;Node2 -->
<g id="edge1" class="edge"><title>Node1&#45;&gt;Node2</title>
<path fill="none" stroke="midnightblue" d="M178.205,-112.799C161.309,-104.026 134.288,-89.9959 114.602,-79.7741"/>
<polygon fill="midnightblue" stroke="midnightblue" points="116.091,-76.6037 105.603,-75.1017 112.865,-82.8161 116.091,-76.6037"/>
</g>
<!-- Node3 -->
<g id="node3" class="node"><title>Node3</title>
<polygon fill="none" stroke="#bfbfbf" points="-0.908691,-1 -0.908691,-19 72.9087,-19 72.9087,-1 -0.908691,-1"/>
<text text-anchor="middle" x="36" y="-7" font-family="Helvetica,sans-Serif" font-size="10.00">mcu/debug.h</text>
</g>
<!-- Node1&#45;&gt;Node3 -->
<g id="edge10" class="edge"><title>Node1&#45;&gt;Node3</title>
<path fill="none" stroke="midnightblue" d="M138.726,-115.438C110.216,-109.82 76.9189,-98.5573 55,-76 42.9751,-63.6249 38.4932,-44.0752 36.8577,-29.6447"/>
<polygon fill="midnightblue" stroke="midnightblue" points="40.3265,-29.1049 36.0666,-19.4042 33.3473,-29.6441 40.3265,-29.1049"/>
</g>
<!-- Node5 -->
<g id="node5" class="node"><title>Node5</title>
<polygon fill="none" stroke="#bfbfbf" points="133.488,-57 133.488,-75 184.512,-75 184.512,-57 133.488,-57"/>
<text text-anchor="middle" x="159" y="-63" font-family="Helvetica,sans-Serif" font-size="10.00">unistd.h</text>
</g>
<!-- Node1&#45;&gt;Node5 -->
<g id="edge4" class="edge"><title>Node1&#45;&gt;Node5</title>
<path fill="none" stroke="midnightblue" d="M188.531,-112.562C183.571,-104.909 176.111,-93.3999 169.93,-83.8638"/>
<polygon fill="midnightblue" stroke="midnightblue" points="172.692,-81.6893 164.316,-75.2014 166.818,-85.4966 172.692,-81.6893"/>
</g>
<!-- Node6 -->
<g id="node6" class="node"><title>Node6</title>
<polygon fill="none" stroke="#bfbfbf" points="202.382,-57 202.382,-75 255.618,-75 255.618,-57 202.382,-57"/>
<text text-anchor="middle" x="229" y="-63" font-family="Helvetica,sans-Serif" font-size="10.00">malloc.h</text>
</g>
<!-- Node1&#45;&gt;Node6 -->
<g id="edge5" class="edge"><title>Node1&#45;&gt;Node6</title>
<path fill="none" stroke="midnightblue" d="M199.469,-112.562C204.429,-104.909 211.889,-93.3999 218.07,-83.8638"/>
<polygon fill="midnightblue" stroke="midnightblue" points="221.182,-85.4966 223.684,-75.2014 215.308,-81.6893 221.182,-85.4966"/>
</g>
<!-- Node7 -->
<g id="node7" class="node"><title>Node7</title>
<polygon fill="none" stroke="#bfbfbf" points="273.158,-57 273.158,-75 320.842,-75 320.842,-57 273.158,-57"/>
<text text-anchor="middle" x="297" y="-63" font-family="Helvetica,sans-Serif" font-size="10.00">errno.h</text>
</g>
<!-- Node1&#45;&gt;Node7 -->
<g id="edge6" class="edge"><title>Node1&#45;&gt;Node7</title>
<path fill="none" stroke="midnightblue" d="M209.643,-112.799C226.377,-104.026 253.137,-89.9959 272.635,-79.7741"/>
<polygon fill="midnightblue" stroke="midnightblue" points="274.315,-82.8448 281.547,-75.1017 271.065,-76.6452 274.315,-82.8448"/>
</g>
<!-- Node8 -->
<g id="node8" class="node"><title>Node8</title>
<g id="a_node8"><a xlink:href="dirent_8h.html" target="_top" xlink:title="dirent.h">
<polygon fill="none" stroke="black" points="339.323,-57 339.323,-75 388.677,-75 388.677,-57 339.323,-57"/>
<text text-anchor="middle" x="364" y="-63" font-family="Helvetica,sans-Serif" font-size="10.00">dirent.h</text>
</a>
</g>
</g>
<!-- Node1&#45;&gt;Node8 -->
<g id="edge7" class="edge"><title>Node1&#45;&gt;Node8</title>
<path fill="none" stroke="midnightblue" d="M219.451,-112.916C248.746,-103.61 297.008,-88.2798 329.624,-77.9194"/>
<polygon fill="midnightblue" stroke="midnightblue" points="330.735,-81.239 339.206,-74.8758 328.616,-74.5675 330.735,-81.239"/>
</g>
<!-- Node2&#45;&gt;Node3 -->
<g id="edge2" class="edge"><title>Node2&#45;&gt;Node3</title>
<path fill="none" stroke="midnightblue" d="M81.5625,-56.5625C73.5108,-48.5108 61.1905,-36.1905 51.3907,-26.3907"/>
<polygon fill="midnightblue" stroke="midnightblue" points="53.7474,-23.7977 44.2014,-19.2014 48.7977,-28.7474 53.7474,-23.7977"/>
</g>
<!-- Node4 -->
<g id="node4" class="node"><title>Node4</title>
<polygon fill="none" stroke="#bfbfbf" points="90.8794,-1 90.8794,-19 139.121,-19 139.121,-1 90.8794,-1"/>
<text text-anchor="middle" x="115" y="-7" font-family="Helvetica,sans-Serif" font-size="10.00">stdint.h</text>
</g>
<!-- Node2&#45;&gt;Node4 -->
<g id="edge3" class="edge"><title>Node2&#45;&gt;Node4</title>
<path fill="none" stroke="midnightblue" d="M93.9062,-56.5625C97.3755,-49.0689 102.557,-37.8778 106.916,-28.4623"/>
<polygon fill="midnightblue" stroke="midnightblue" points="110.178,-29.7466 111.203,-19.2014 103.826,-26.8057 110.178,-29.7466"/>
</g>
<!-- Node9 -->
<g id="node9" class="node"><title>Node9</title>
<polygon fill="none" stroke="#bfbfbf" points="278.054,-1 278.054,-19 357.946,-19 357.946,-1 278.054,-1"/>
<text text-anchor="middle" x="318" y="-7" font-family="Helvetica,sans-Serif" font-size="10.00">sys/syslimits.h</text>
</g>
<!-- Node8&#45;&gt;Node9 -->
<g id="edge8" class="edge"><title>Node8&#45;&gt;Node9</title>
<path fill="none" stroke="midnightblue" d="M356.812,-56.5625C350.089,-48.6703 339.873,-36.6768 331.609,-26.9758"/>
<polygon fill="midnightblue" stroke="midnightblue" points="334.135,-24.5442 324.986,-19.2014 328.807,-29.0835 334.135,-24.5442"/>
</g>
<!-- Node10 -->
<g id="node10" class="node"><title>Node10</title>
<polygon fill="none" stroke="#bfbfbf" points="375.99,-1 375.99,-19 442.01,-19 442.01,-1 375.99,-1"/>
<text text-anchor="middle" x="409" y="-7" font-family="Helvetica,sans-Serif" font-size="10.00">sys/types.h</text>
</g>
<!-- Node8&#45;&gt;Node10 -->
<g id="edge9" class="edge"><title>Node8&#45;&gt;Node10</title>
<path fill="none" stroke="midnightblue" d="M371.031,-56.5625C377.608,-48.6703 387.603,-36.6768 395.687,-26.9758"/>
<polygon fill="midnightblue" stroke="midnightblue" points="398.452,-29.1243 402.165,-19.2014 393.075,-24.643 398.452,-29.1243"/>
</g>
</g>
</svg>
