<?xml version="1.0" encoding="UTF-8" standalone="no"?>
<!DOCTYPE svg PUBLIC "-//W3C//DTD SVG 1.1//EN"
 "http://www.w3.org/Graphics/SVG/1.1/DTD/svg11.dtd">
<!-- Generated by graphviz version 2.36.0 (20140111.2315)
 -->
<!-- Title: include/iface/dev/eint.h Pages: 1 -->
<svg width="216pt" height="84pt"
 viewBox="0.00 0.00 216.00 84.00" xmlns="http://www.w3.org/2000/svg" xmlns:xlink="http://www.w3.org/1999/xlink">
<g id="graph0" class="graph" transform="scale(1 1) rotate(0) translate(4 80)">
<title>include/iface/dev/eint.h</title>
<!-- Node1 -->
<g id="node1" class="node"><title>Node1</title>
<polygon fill="#bfbfbf" stroke="black" points="40.1333,-57 40.1333,-75 157.867,-75 157.867,-57 40.1333,-57"/>
<text text-anchor="middle" x="99" y="-63" font-family="Helvetica,sans-Serif" font-size="10.00">include/iface/dev/eint.h</text>
</g>
<!-- Node2 -->
<g id="node2" class="node"><title>Node2</title>
<polygon fill="none" stroke="#bfbfbf" points="-0.120605,-1 -0.120605,-19 48.1206,-19 48.1206,-1 -0.120605,-1"/>
<text text-anchor="middle" x="24" y="-7" font-family="Helvetica,sans-Serif" font-size="10.00">stdint.h</text>
</g>
<!-- Node1&#45;&gt;Node2 -->
<g id="edge1" class="edge"><title>Node1&#45;&gt;Node2</title>
<path fill="none" stroke="midnightblue" d="M87.6091,-56.7986C76.0455,-48.4727 57.9063,-35.4125 43.9523,-25.3656"/>
<polygon fill="midnightblue" stroke="midnightblue" points="45.6585,-22.2813 35.4981,-19.2786 41.5684,-27.9621 45.6585,-22.2813"/>
</g>
<!-- Node3 -->
<g id="node3" class="node"><title>Node3</title>
<polygon fill="none" stroke="#bfbfbf" points="66.2686,-1 66.2686,-19 131.731,-19 131.731,-1 66.2686,-1"/>
<text text-anchor="middle" x="99" y="-7" font-family="Helvetica,sans-Serif" font-size="10.00">mcu/arch.h</text>
</g>
<!-- Node1&#45;&gt;Node3 -->
<g id="edge2" class="edge"><title>Node1&#45;&gt;Node3</title>
<path fill="none" stroke="midnightblue" d="M99,-56.5625C99,-49.308 99,-38.5884 99,-29.3691"/>
<polygon fill="midnightblue" stroke="midnightblue" points="102.5,-29.2014 99,-19.2014 95.5001,-29.2015 102.5,-29.2014"/>
</g>
<!-- Node4 -->
<g id="node4" class="node"><title>Node4</title>
<polygon fill="none" stroke="#bfbfbf" points="149.323,-1 149.323,-19 208.677,-19 208.677,-1 149.323,-1"/>
<text text-anchor="middle" x="179" y="-7" font-family="Helvetica,sans-Serif" font-size="10.00">mcu/pio.h</text>
</g>
<!-- Node1&#45;&gt;Node4 -->
<g id="edge3" class="edge"><title>Node1&#45;&gt;Node4</title>
<path fill="none" stroke="midnightblue" d="M111.15,-56.7986C123.675,-48.3446 143.431,-35.0093 158.402,-24.9039"/>
<polygon fill="midnightblue" stroke="midnightblue" points="160.667,-27.5974 166.998,-19.1017 156.751,-21.7955 160.667,-27.5974"/>
</g>
</g>
</svg>
