<?xml version="1.0" encoding="UTF-8" standalone="no"?>
<!DOCTYPE svg PUBLIC "-//W3C//DTD SVG 1.1//EN"
 "http://www.w3.org/Graphics/SVG/1.1/DTD/svg11.dtd">
<!-- Generated by graphviz version 2.36.0 (20140111.2315)
 -->
<!-- Title: include/iface/dev/eint.h Pages: 1 -->
<svg width="250pt" height="196pt"
 viewBox="0.00 0.00 250.00 196.00" xmlns="http://www.w3.org/2000/svg" xmlns:xlink="http://www.w3.org/1999/xlink">
<g id="graph0" class="graph" transform="scale(1 1) rotate(0) translate(4 192)">
<title>include/iface/dev/eint.h</title>
<!-- Node1 -->
<g id="node1" class="node"><title>Node1</title>
<polygon fill="#bfbfbf" stroke="black" points="125.133,-169 125.133,-187 242.867,-187 242.867,-169 125.133,-169"/>
<text text-anchor="middle" x="184" y="-175" font-family="Helvetica,sans-Serif" font-size="10.00">include/iface/dev/eint.h</text>
</g>
<!-- Node2 -->
<g id="node2" class="node"><title>Node2</title>
<g id="a_node2"><a xlink:href="iface_2link_8h.html" target="_top" xlink:title="Link Layer Header. ">
<polygon fill="none" stroke="black" points="135.143,-113 135.143,-131 232.857,-131 232.857,-113 135.143,-113"/>
<text text-anchor="middle" x="184" y="-119" font-family="Helvetica,sans-Serif" font-size="10.00">include/iface/link.h</text>
</a>
</g>
</g>
<!-- Node1&#45;&gt;Node2 -->
<g id="edge1" class="edge"><title>Node1&#45;&gt;Node2</title>
<path fill="none" stroke="midnightblue" d="M184,-158.329C184,-149.077 184,-138.38 184,-131.201"/>
<polygon fill="midnightblue" stroke="midnightblue" points="180.5,-158.562 184,-168.562 187.5,-158.563 180.5,-158.562"/>
</g>
<!-- Node3 -->
<g id="node3" class="node"><title>Node3</title>
<g id="a_node3"><a xlink:href="__exit_8c.html" target="_top" xlink:title="src/sys/unistd/_exit.c">
<polygon fill="none" stroke="black" points="-0.125488,-57 -0.125488,-75 108.125,-75 108.125,-57 -0.125488,-57"/>
<text text-anchor="middle" x="54" y="-63" font-family="Helvetica,sans-Serif" font-size="10.00">src/sys/unistd/_exit.c</text>
</a>
</g>
</g>
<!-- Node2&#45;&gt;Node3 -->
<g id="edge2" class="edge"><title>Node2&#45;&gt;Node3</title>
<path fill="none" stroke="midnightblue" d="M155.262,-109.063C130.456,-98.7585 95.2863,-84.1497 73.5954,-75.1396"/>
<polygon fill="midnightblue" stroke="midnightblue" points="153.96,-112.312 164.538,-112.916 156.645,-105.847 153.96,-112.312"/>
</g>
<!-- Node4 -->
<g id="node4" class="node"><title>Node4</title>
<g id="a_node4"><a xlink:href="sys_8h.html" target="_top" xlink:title="include/iface/dev/sys.h">
<polygon fill="none" stroke="black" points="125.695,-57 125.695,-75 242.305,-75 242.305,-57 125.695,-57"/>
<text text-anchor="middle" x="184" y="-63" font-family="Helvetica,sans-Serif" font-size="10.00">include/iface/dev/sys.h</text>
</a>
</g>
</g>
<!-- Node2&#45;&gt;Node4 -->
<g id="edge3" class="edge"><title>Node2&#45;&gt;Node4</title>
<path fill="none" stroke="midnightblue" d="M177.567,-102.633C176.861,-93.3129 177.335,-82.4586 178.991,-75.2014"/>
<polygon fill="midnightblue" stroke="midnightblue" points="174.103,-103.135 178.938,-112.562 181.037,-102.178 174.103,-103.135"/>
</g>
<!-- Node4&#45;&gt;Node2 -->
<g id="edge5" class="edge"><title>Node4&#45;&gt;Node2</title>
<path fill="none" stroke="midnightblue" d="M190.434,-85.3691C191.132,-94.5884 190.675,-105.308 189.062,-112.562"/>
<polygon fill="midnightblue" stroke="midnightblue" points="193.863,-84.6192 189.009,-75.2014 186.931,-85.5903 193.863,-84.6192"/>
</g>
<!-- Node5 -->
<g id="node5" class="node"><title>Node5</title>
<g id="a_node5"><a xlink:href="__open_8c.html" target="_top" xlink:title="src/sys/unistd/_open.c">
<polygon fill="none" stroke="black" points="126.532,-1 126.532,-19 241.468,-19 241.468,-1 126.532,-1"/>
<text text-anchor="middle" x="184" y="-7" font-family="Helvetica,sans-Serif" font-size="10.00">src/sys/unistd/_open.c</text>
</a>
</g>
</g>
<!-- Node4&#45;&gt;Node5 -->
<g id="edge4" class="edge"><title>Node4&#45;&gt;Node5</title>
<path fill="none" stroke="midnightblue" d="M184,-46.3288C184,-37.0774 184,-26.3798 184,-19.2014"/>
<polygon fill="midnightblue" stroke="midnightblue" points="180.5,-46.5625 184,-56.5625 187.5,-46.5625 180.5,-46.5625"/>
</g>
</g>
</svg>
