<?xml version="1.0" encoding="UTF-8" standalone="no"?>
<!DOCTYPE svg PUBLIC "-//W3C//DTD SVG 1.1//EN"
 "http://www.w3.org/Graphics/SVG/1.1/DTD/svg11.dtd">
<!-- Generated by graphviz version 2.36.0 (20140111.2315)
 -->
<!-- Title: include/iface/dev/fifo.h Pages: 1 -->
<svg width="140pt" height="84pt"
 viewBox="0.00 0.00 140.00 84.00" xmlns="http://www.w3.org/2000/svg" xmlns:xlink="http://www.w3.org/1999/xlink">
<g id="graph0" class="graph" transform="scale(1 1) rotate(0) translate(4 80)">
<title>include/iface/dev/fifo.h</title>
<!-- Node1 -->
<g id="node1" class="node"><title>Node1</title>
<polygon fill="#bfbfbf" stroke="black" points="12.5249,-57 12.5249,-75 127.475,-75 127.475,-57 12.5249,-57"/>
<text text-anchor="middle" x="70" y="-63" font-family="Helvetica,sans-Serif" font-size="10.00">include/iface/dev/fifo.h</text>
</g>
<!-- Node2 -->
<g id="node2" class="node"><title>Node2</title>
<polygon fill="none" stroke="#bfbfbf" points="-0.00976562,-1 -0.00976562,-19 66.0098,-19 66.0098,-1 -0.00976562,-1"/>
<text text-anchor="middle" x="33" y="-7" font-family="Helvetica,sans-Serif" font-size="10.00">sys/types.h</text>
</g>
<!-- Node1&#45;&gt;Node2 -->
<g id="edge1" class="edge"><title>Node1&#45;&gt;Node2</title>
<path fill="none" stroke="midnightblue" d="M64.2188,-56.5625C58.9204,-48.8297 50.9242,-37.1597 44.3511,-27.5665"/>
<polygon fill="midnightblue" stroke="midnightblue" points="47.1591,-25.4725 38.6195,-19.2014 41.3846,-29.4291 47.1591,-25.4725"/>
</g>
<!-- Node3 -->
<g id="node3" class="node"><title>Node3</title>
<polygon fill="none" stroke="#bfbfbf" points="83.8794,-1 83.8794,-19 132.121,-19 132.121,-1 83.8794,-1"/>
<text text-anchor="middle" x="108" y="-7" font-family="Helvetica,sans-Serif" font-size="10.00">stdint.h</text>
</g>
<!-- Node1&#45;&gt;Node3 -->
<g id="edge2" class="edge"><title>Node1&#45;&gt;Node3</title>
<path fill="none" stroke="midnightblue" d="M75.9375,-56.5625C81.3791,-48.8297 89.5913,-37.1597 96.3421,-27.5665"/>
<polygon fill="midnightblue" stroke="midnightblue" points="99.336,-29.3938 102.229,-19.2014 93.6113,-25.3653 99.336,-29.3938"/>
</g>
</g>
</svg>
