<?xml version="1.0" encoding="UTF-8" standalone="no"?>
<!DOCTYPE svg PUBLIC "-//W3C//DTD SVG 1.1//EN"
 "http://www.w3.org/Graphics/SVG/1.1/DTD/svg11.dtd">
<!-- Generated by graphviz version 2.36.0 (20140111.2315)
 -->
<!-- Title: include/iface/dev/gpio.h Pages: 1 -->
<svg width="520pt" height="272pt"
 viewBox="0.00 0.00 520.00 272.00" xmlns="http://www.w3.org/2000/svg" xmlns:xlink="http://www.w3.org/1999/xlink">
<g id="graph0" class="graph" transform="scale(1 1) rotate(0) translate(4 268)">
<title>include/iface/dev/gpio.h</title>
<!-- Node1 -->
<g id="node1" class="node"><title>Node1</title>
<polygon fill="#bfbfbf" stroke="black" points="243.742,-245 243.742,-263 364.258,-263 364.258,-245 243.742,-245"/>
<text text-anchor="middle" x="304" y="-251" font-family="Helvetica,sans-Serif" font-size="10.00">include/iface/dev/gpio.h</text>
</g>
<!-- Node2 -->
<g id="node2" class="node"><title>Node2</title>
<g id="a_node2"><a xlink:href="iface_2link_8h.html" target="_top" xlink:title="Link Layer Header. ">
<polygon fill="none" stroke="black" points="255.143,-189 255.143,-207 352.857,-207 352.857,-189 255.143,-189"/>
<text text-anchor="middle" x="304" y="-195" font-family="Helvetica,sans-Serif" font-size="10.00">include/iface/link.h</text>
</a>
</g>
</g>
<!-- Node1&#45;&gt;Node2 -->
<g id="edge1" class="edge"><title>Node1&#45;&gt;Node2</title>
<path fill="none" stroke="midnightblue" d="M304,-234.329C304,-225.077 304,-214.38 304,-207.201"/>
<polygon fill="midnightblue" stroke="midnightblue" points="300.5,-234.562 304,-244.562 307.5,-234.563 300.5,-234.562"/>
</g>
<!-- Node3 -->
<g id="node3" class="node"><title>Node3</title>
<g id="a_node3"><a xlink:href="__exit_8c.html" target="_top" xlink:title="src/sys/unistd/_exit.c">
<polygon fill="none" stroke="black" points="-0.125488,-133 -0.125488,-151 108.125,-151 108.125,-133 -0.125488,-133"/>
<text text-anchor="middle" x="54" y="-139" font-family="Helvetica,sans-Serif" font-size="10.00">src/sys/unistd/_exit.c</text>
</a>
</g>
</g>
<!-- Node2&#45;&gt;Node3 -->
<g id="edge2" class="edge"><title>Node2&#45;&gt;Node3</title>
<path fill="none" stroke="midnightblue" d="M257.012,-186.851C209.036,-176.488 135.517,-160.608 91.3616,-151.07"/>
<polygon fill="midnightblue" stroke="midnightblue" points="256.329,-190.284 266.842,-188.974 257.807,-183.441 256.329,-190.284"/>
</g>
<!-- Node4 -->
<g id="node4" class="node"><title>Node4</title>
<g id="a_node4"><a xlink:href="stratify_2link_8h_source.html" target="_top" xlink:title="include/stratify/link.h">
<polygon fill="none" stroke="black" points="125.98,-133 125.98,-151 232.02,-151 232.02,-133 125.98,-133"/>
<text text-anchor="middle" x="179" y="-139" font-family="Helvetica,sans-Serif" font-size="10.00">include/stratify/link.h</text>
</a>
</g>
</g>
<!-- Node2&#45;&gt;Node4 -->
<g id="edge3" class="edge"><title>Node2&#45;&gt;Node4</title>
<path fill="none" stroke="midnightblue" d="M276.05,-184.926C252.216,-174.629 218.606,-160.11 197.842,-151.14"/>
<polygon fill="midnightblue" stroke="midnightblue" points="274.718,-188.163 285.286,-188.916 277.494,-181.737 274.718,-188.163"/>
</g>
<!-- Node5 -->
<g id="node5" class="node"><title>Node5</title>
<g id="a_node5"><a xlink:href="trace_8h_source.html" target="_top" xlink:title="include/posix/trace.h">
<polygon fill="none" stroke="black" points="250.419,-133 250.419,-151 357.581,-151 357.581,-133 250.419,-133"/>
<text text-anchor="middle" x="304" y="-139" font-family="Helvetica,sans-Serif" font-size="10.00">include/posix/trace.h</text>
</a>
</g>
</g>
<!-- Node2&#45;&gt;Node5 -->
<g id="edge4" class="edge"><title>Node2&#45;&gt;Node5</title>
<path fill="none" stroke="midnightblue" d="M304,-178.329C304,-169.077 304,-158.38 304,-151.201"/>
<polygon fill="midnightblue" stroke="midnightblue" points="300.5,-178.562 304,-188.562 307.5,-178.563 300.5,-178.562"/>
</g>
<!-- Node10 -->
<g id="node10" class="node"><title>Node10</title>
<g id="a_node10"><a xlink:href="sys_8h.html" target="_top" xlink:title="include/iface/dev/sys.h">
<polygon fill="none" stroke="black" points="375.695,-133 375.695,-151 492.305,-151 492.305,-133 375.695,-133"/>
<text text-anchor="middle" x="434" y="-139" font-family="Helvetica,sans-Serif" font-size="10.00">include/iface/dev/sys.h</text>
</a>
</g>
</g>
<!-- Node2&#45;&gt;Node10 -->
<g id="edge10" class="edge"><title>Node2&#45;&gt;Node10</title>
<path fill="none" stroke="midnightblue" d="M327.644,-184.788C350.867,-174.5 385.859,-160.07 409.409,-151.14"/>
<polygon fill="midnightblue" stroke="midnightblue" points="326.16,-181.618 318.48,-188.916 329.035,-188 326.16,-181.618"/>
</g>
<!-- Node6 -->
<g id="node6" class="node"><title>Node6</title>
<g id="a_node6"><a xlink:href="signal__handler_8c.html" target="_top" xlink:title="src/sys/signal/signal\l_handler.c">
<polygon fill="none" stroke="black" points="99.5396,-67 99.5396,-95 204.46,-95 204.46,-67 99.5396,-67"/>
<text text-anchor="start" x="107.54" y="-83" font-family="Helvetica,sans-Serif" font-size="10.00">src/sys/signal/signal</text>
<text text-anchor="middle" x="152" y="-73" font-family="Helvetica,sans-Serif" font-size="10.00">_handler.c</text>
</a>
</g>
</g>
<!-- Node5&#45;&gt;Node6 -->
<g id="edge5" class="edge"><title>Node5&#45;&gt;Node6</title>
<path fill="none" stroke="midnightblue" d="M273.681,-129.231C248.256,-119.362 211.986,-105.284 185.665,-95.0674"/>
<polygon fill="midnightblue" stroke="midnightblue" points="272.595,-132.564 283.184,-132.92 275.128,-126.039 272.595,-132.564"/>
</g>
<!-- Node7 -->
<g id="node7" class="node"><title>Node7</title>
<g id="a_node7"><a xlink:href="stratify_8h.html" target="_top" xlink:title="include/stratify/stratify.h">
<polygon fill="none" stroke="black" points="222.127,-72 222.127,-90 341.873,-90 341.873,-72 222.127,-72"/>
<text text-anchor="middle" x="282" y="-78" font-family="Helvetica,sans-Serif" font-size="10.00">include/stratify/stratify.h</text>
</a>
</g>
</g>
<!-- Node5&#45;&gt;Node7 -->
<g id="edge6" class="edge"><title>Node5&#45;&gt;Node7</title>
<path fill="none" stroke="midnightblue" d="M297.399,-123.296C293.293,-112.285 288.208,-98.6483 285.033,-90.134"/>
<polygon fill="midnightblue" stroke="midnightblue" points="294.168,-124.649 300.941,-132.796 300.727,-122.204 294.168,-124.649"/>
</g>
<!-- Node9 -->
<g id="node9" class="node"><title>Node9</title>
<g id="a_node9"><a xlink:href="symbols_8h_source.html" target="_top" xlink:title="include/stratify/symbols.h">
<polygon fill="none" stroke="black" points="306.146,-6 306.146,-24 433.854,-24 433.854,-6 306.146,-6"/>
<text text-anchor="middle" x="370" y="-12" font-family="Helvetica,sans-Serif" font-size="10.00">include/stratify/symbols.h</text>
</a>
</g>
</g>
<!-- Node5&#45;&gt;Node9 -->
<g id="edge9" class="edge"><title>Node5&#45;&gt;Node9</title>
<path fill="none" stroke="midnightblue" d="M322.996,-126.678C332.419,-118.634 343.208,-107.843 350,-96 363.674,-72.1553 368.087,-39.0776 369.439,-24.0291"/>
<polygon fill="midnightblue" stroke="midnightblue" points="320.765,-123.981 315.202,-132.997 325.174,-129.418 320.765,-123.981"/>
</g>
<!-- Node8 -->
<g id="node8" class="node"><title>Node8</title>
<g id="a_node8"><a xlink:href="pthread__kill_8c.html" target="_top" xlink:title="src/sys/signal/pthread\l_kill.c">
<polygon fill="none" stroke="black" points="175.646,-1 175.646,-29 288.354,-29 288.354,-1 175.646,-1"/>
<text text-anchor="start" x="183.646" y="-17" font-family="Helvetica,sans-Serif" font-size="10.00">src/sys/signal/pthread</text>
<text text-anchor="middle" x="232" y="-7" font-family="Helvetica,sans-Serif" font-size="10.00">_kill.c</text>
</a>
</g>
</g>
<!-- Node7&#45;&gt;Node8 -->
<g id="edge7" class="edge"><title>Node7&#45;&gt;Node8</title>
<path fill="none" stroke="midnightblue" d="M269.329,-63.7816C260.951,-53.0573 250.108,-39.1785 242.269,-29.1445"/>
<polygon fill="midnightblue" stroke="midnightblue" points="266.753,-66.1689 275.667,-71.8944 272.269,-61.8593 266.753,-66.1689"/>
</g>
<!-- Node7&#45;&gt;Node9 -->
<g id="edge8" class="edge"><title>Node7&#45;&gt;Node9</title>
<path fill="none" stroke="midnightblue" d="M301.581,-65.7595C319.239,-52.9171 344.577,-34.4898 358.945,-24.0398"/>
<polygon fill="midnightblue" stroke="midnightblue" points="299.174,-63.182 293.145,-71.8944 303.291,-68.8432 299.174,-63.182"/>
</g>
<!-- Node10&#45;&gt;Node2 -->
<g id="edge12" class="edge"><title>Node10&#45;&gt;Node2</title>
<path fill="none" stroke="midnightblue" d="M410.212,-155.276C386.941,-165.581 351.947,-180.008 328.445,-188.916"/>
<polygon fill="midnightblue" stroke="midnightblue" points="411.718,-158.436 419.4,-151.14 408.844,-152.053 411.718,-158.436"/>
</g>
<!-- Node11 -->
<g id="node11" class="node"><title>Node11</title>
<g id="a_node11"><a xlink:href="__open_8c.html" target="_top" xlink:title="src/sys/unistd/_open.c">
<polygon fill="none" stroke="black" points="397.532,-72 397.532,-90 512.468,-90 512.468,-72 397.532,-72"/>
<text text-anchor="middle" x="455" y="-78" font-family="Helvetica,sans-Serif" font-size="10.00">src/sys/unistd/_open.c</text>
</a>
</g>
</g>
<!-- Node10&#45;&gt;Node11 -->
<g id="edge11" class="edge"><title>Node10&#45;&gt;Node11</title>
<path fill="none" stroke="midnightblue" d="M440.301,-123.296C444.221,-112.285 449.074,-98.6483 452.105,-90.134"/>
<polygon fill="midnightblue" stroke="midnightblue" points="436.976,-122.202 436.92,-132.796 443.571,-124.549 436.976,-122.202"/>
</g>
</g>
</svg>
