<?xml version="1.0" encoding="UTF-8" standalone="no"?>
<!DOCTYPE svg PUBLIC "-//W3C//DTD SVG 1.1//EN"
 "http://www.w3.org/Graphics/SVG/1.1/DTD/svg11.dtd">
<!-- Generated by graphviz version 2.36.0 (20140111.2315)
 -->
<!-- Title: include/iface/dev/gpio.h Pages: 1 -->
<svg width="273pt" height="84pt"
 viewBox="0.00 0.00 273.00 84.00" xmlns="http://www.w3.org/2000/svg" xmlns:xlink="http://www.w3.org/1999/xlink">
<g id="graph0" class="graph" transform="scale(1 1) rotate(0) translate(4 80)">
<title>include/iface/dev/gpio.h</title>
<!-- Node1 -->
<g id="node1" class="node"><title>Node1</title>
<polygon fill="#bfbfbf" stroke="black" points="68.7417,-57 68.7417,-75 189.258,-75 189.258,-57 68.7417,-57"/>
<text text-anchor="middle" x="129" y="-63" font-family="Helvetica,sans-Serif" font-size="10.00">include/iface/dev/gpio.h</text>
</g>
<!-- Node2 -->
<g id="node2" class="node"><title>Node2</title>
<polygon fill="none" stroke="#bfbfbf" points="-0.292969,-1 -0.292969,-19 56.293,-19 56.293,-1 -0.292969,-1"/>
<text text-anchor="middle" x="28" y="-7" font-family="Helvetica,sans-Serif" font-size="10.00">stdbool.h</text>
</g>
<!-- Node1&#45;&gt;Node2 -->
<g id="edge1" class="edge"><title>Node1&#45;&gt;Node2</title>
<path fill="none" stroke="midnightblue" d="M113.66,-56.7986C97.3261,-48.0654 71.2492,-34.1234 52.1534,-23.9137"/>
<polygon fill="midnightblue" stroke="midnightblue" points="53.6221,-20.7301 43.1532,-19.1017 50.3216,-26.9032 53.6221,-20.7301"/>
</g>
<!-- Node3 -->
<g id="node3" class="node"><title>Node3</title>
<polygon fill="none" stroke="#bfbfbf" points="73.8794,-1 73.8794,-19 122.121,-19 122.121,-1 73.8794,-1"/>
<text text-anchor="middle" x="98" y="-7" font-family="Helvetica,sans-Serif" font-size="10.00">stdint.h</text>
</g>
<!-- Node1&#45;&gt;Node3 -->
<g id="edge2" class="edge"><title>Node1&#45;&gt;Node3</title>
<path fill="none" stroke="midnightblue" d="M124.156,-56.5625C119.809,-48.9891 113.293,-37.6393 107.853,-28.1625"/>
<polygon fill="midnightblue" stroke="midnightblue" points="110.722,-26.1314 102.708,-19.2014 104.652,-29.6165 110.722,-26.1314"/>
</g>
<!-- Node4 -->
<g id="node4" class="node"><title>Node4</title>
<g id="a_node4"><a xlink:href="ioctl_8h_source.html" target="_top" xlink:title="ioctl.h">
<polygon fill="none" stroke="black" points="139.938,-1 139.938,-19 182.062,-19 182.062,-1 139.938,-1"/>
<text text-anchor="middle" x="161" y="-7" font-family="Helvetica,sans-Serif" font-size="10.00">ioctl.h</text>
</a>
</g>
</g>
<!-- Node1&#45;&gt;Node4 -->
<g id="edge3" class="edge"><title>Node1&#45;&gt;Node4</title>
<path fill="none" stroke="midnightblue" d="M134,-56.5625C138.535,-48.9094 145.356,-37.3999 151.007,-27.8638"/>
<polygon fill="midnightblue" stroke="midnightblue" points="154.053,-29.5887 156.14,-19.2014 148.031,-26.02 154.053,-29.5887"/>
</g>
<!-- Node5 -->
<g id="node5" class="node"><title>Node5</title>
<polygon fill="none" stroke="#bfbfbf" points="200.269,-1 200.269,-19 265.731,-19 265.731,-1 200.269,-1"/>
<text text-anchor="middle" x="233" y="-7" font-family="Helvetica,sans-Serif" font-size="10.00">mcu/arch.h</text>
</g>
<!-- Node1&#45;&gt;Node5 -->
<g id="edge4" class="edge"><title>Node1&#45;&gt;Node5</title>
<path fill="none" stroke="midnightblue" d="M144.795,-56.7986C161.691,-48.0256 188.712,-33.9959 208.398,-23.7741"/>
<polygon fill="midnightblue" stroke="midnightblue" points="210.135,-26.8161 217.397,-19.1017 206.909,-20.6037 210.135,-26.8161"/>
</g>
</g>
</svg>
