<?xml version="1.0" encoding="UTF-8" standalone="no"?>
<!DOCTYPE svg PUBLIC "-//W3C//DTD SVG 1.1//EN"
 "http://www.w3.org/Graphics/SVG/1.1/DTD/svg11.dtd">
<!-- Generated by graphviz version 2.36.0 (20140111.2315)
 -->
<!-- Title: USB Device Pages: 1 -->
<svg width="338pt" height="268pt"
 viewBox="0.00 0.00 338.00 268.00" xmlns="http://www.w3.org/2000/svg" xmlns:xlink="http://www.w3.org/1999/xlink">
<g id="graph0" class="graph" transform="scale(1 1) rotate(0) translate(4 264)">
<title>USB Device</title>
<!-- Node3 -->
<g id="node1" class="node"><title>Node3</title>
<g id="a_node1"><a xlink:href="group___u_s_b___d_e_v___c_d_c.html" target="_top" xlink:title="Communications Device\l Class">
<polygon fill="none" stroke="black" points="206.091,-232 206.091,-260 329.909,-260 329.909,-232 206.091,-232"/>
<text text-anchor="start" x="214.091" y="-248" font-family="Helvetica,sans-Serif" font-size="10.00">Communications Device</text>
<text text-anchor="middle" x="268" y="-238" font-family="Helvetica,sans-Serif" font-size="10.00"> Class</text>
</a>
</g>
</g>
<!-- Node7 -->
<g id="node2" class="node"><title>Node7</title>
<g id="a_node2"><a xlink:href="group___u_s_b___d_e_v___s_t_d.html" target="_top" xlink:title="USB Standard Device">
<polygon fill="none" stroke="black" points="211.365,-195 211.365,-213 324.635,-213 324.635,-195 211.365,-195"/>
<text text-anchor="middle" x="268" y="-201" font-family="Helvetica,sans-Serif" font-size="10.00">USB Standard Device</text>
</a>
</g>
</g>
<!-- Node4 -->
<g id="node3" class="node"><title>Node4</title>
<g id="a_node3"><a xlink:href="group___u_s_b___d_e_v___h_i_d.html" target="_top" xlink:title="Human Interface Device">
<polygon fill="none" stroke="black" points="206.365,-158 206.365,-176 329.635,-176 329.635,-158 206.365,-158"/>
<text text-anchor="middle" x="268" y="-164" font-family="Helvetica,sans-Serif" font-size="10.00">Human Interface Device</text>
</a>
</g>
</g>
<!-- Node0 -->
<g id="node4" class="node"><title>Node0</title>
<polygon fill="#bfbfbf" stroke="black" points="100.047,-116 100.047,-134 169.953,-134 169.953,-116 100.047,-116"/>
<text text-anchor="middle" x="135" y="-122" font-family="Helvetica,sans-Serif" font-size="10.00">USB Device</text>
</g>
<!-- Node0&#45;&gt;Node3 -->
<g id="edge3" class="edge"><title>Node0&#45;&gt;Node3</title>
<path fill="none" stroke="black" d="M144.938,-143.129C156.38,-164.649 178.104,-200.338 206,-222 210.944,-225.839 216.579,-229.136 222.38,-231.947"/>
<polygon fill="black" stroke="black" points="147.974,-141.38 140.291,-134.083 141.747,-144.578 147.974,-141.38"/>
</g>
<!-- Node0&#45;&gt;Node7 -->
<g id="edge7" class="edge"><title>Node0&#45;&gt;Node7</title>
<path fill="none" stroke="black" d="M151.135,-141.239C164.442,-154.66 184.925,-173.342 206,-185 213.279,-189.027 221.529,-192.325 229.556,-194.976"/>
<polygon fill="black" stroke="black" points="153.644,-138.798 144.179,-134.037 148.609,-143.661 153.644,-138.798"/>
</g>
<!-- Node0&#45;&gt;Node4 -->
<g id="edge4" class="edge"><title>Node0&#45;&gt;Node4</title>
<path fill="none" stroke="black" d="M172.726,-137.186C183.442,-140.709 195.18,-144.537 206,-148 216.247,-151.279 227.487,-154.801 237.496,-157.911"/>
<polygon fill="black" stroke="black" points="173.82,-133.861 163.227,-134.055 171.629,-140.509 173.82,-133.861"/>
</g>
<!-- Node6 -->
<g id="node5" class="node"><title>Node6</title>
<g id="a_node5"><a xlink:href="group___u_s_b___d_e_v___r_u_n_t_i_m_e___d_f_u.html" target="_top" xlink:title="USB Runtime Device\l Firmware Upgrade">
<polygon fill="none" stroke="black" points="213.04,-111 213.04,-139 322.96,-139 322.96,-111 213.04,-111"/>
<text text-anchor="start" x="221.04" y="-127" font-family="Helvetica,sans-Serif" font-size="10.00">USB Runtime Device</text>
<text text-anchor="middle" x="268" y="-117" font-family="Helvetica,sans-Serif" font-size="10.00"> Firmware Upgrade</text>
</a>
</g>
</g>
<!-- Node0&#45;&gt;Node6 -->
<g id="edge6" class="edge"><title>Node0&#45;&gt;Node6</title>
<path fill="none" stroke="black" d="M180.219,-125C190.677,-125 201.948,-125 212.792,-125"/>
<polygon fill="black" stroke="black" points="180.077,-121.5 170.077,-125 180.077,-128.5 180.077,-121.5"/>
</g>
<!-- Node2 -->
<g id="node7" class="node"><title>Node2</title>
<g id="a_node7"><a xlink:href="group___u_s_b___d_e_v___a_d_c.html" target="_top" xlink:title="Audio Device Class">
<polygon fill="none" stroke="black" points="216.648,-74 216.648,-92 319.352,-92 319.352,-74 216.648,-74"/>
<text text-anchor="middle" x="268" y="-80" font-family="Helvetica,sans-Serif" font-size="10.00">Audio Device Class</text>
</a>
</g>
</g>
<!-- Node0&#45;&gt;Node2 -->
<g id="edge2" class="edge"><title>Node0&#45;&gt;Node2</title>
<path fill="none" stroke="black" d="M171.282,-112.57C182.361,-108.757 194.661,-104.615 206,-101 215.468,-97.9815 225.818,-94.8607 235.26,-92.0826"/>
<polygon fill="black" stroke="black" points="169.815,-109.374 161.512,-115.956 172.107,-115.988 169.815,-109.374"/>
</g>
<!-- Node5 -->
<g id="node8" class="node"><title>Node5</title>
<g id="a_node8"><a xlink:href="group___u_s_b___d_e_v___m_s_c.html" target="_top" xlink:title="Mass Storage Class">
<polygon fill="none" stroke="black" points="215.261,-37 215.261,-55 320.739,-55 320.739,-37 215.261,-37"/>
<text text-anchor="middle" x="268" y="-43" font-family="Helvetica,sans-Serif" font-size="10.00">Mass Storage Class</text>
</a>
</g>
</g>
<!-- Node0&#45;&gt;Node5 -->
<g id="edge5" class="edge"><title>Node0&#45;&gt;Node5</title>
<path fill="none" stroke="black" d="M151.038,-108.397C164.286,-94.6939 184.736,-75.6683 206,-64 212.582,-60.388 219.972,-57.4248 227.275,-55.0207"/>
<polygon fill="black" stroke="black" points="148.421,-106.072 144.119,-115.754 153.52,-110.867 148.421,-106.072"/>
</g>
<!-- Node8 -->
<g id="node9" class="node"><title>Node8</title>
<g id="a_node9"><a xlink:href="group___u_s_b_d_e_f_s.html" target="_top" xlink:title="USB Definitions">
<polygon fill="none" stroke="black" points="224.985,-0 224.985,-18 311.015,-18 311.015,-0 224.985,-0"/>
<text text-anchor="middle" x="268" y="-6" font-family="Helvetica,sans-Serif" font-size="10.00">USB Definitions</text>
</a>
</g>
</g>
<!-- Node0&#45;&gt;Node8 -->
<g id="edge8" class="edge"><title>Node0&#45;&gt;Node8</title>
<path fill="none" stroke="black" d="M144.408,-106.594C155.444,-84.4666 176.887,-47.7289 206,-27 211.667,-22.9653 218.239,-19.8263 224.927,-17.3865"/>
<polygon fill="black" stroke="black" points="141.12,-105.355 139.958,-115.886 147.434,-108.378 141.12,-105.355"/>
</g>
<!-- Node1 -->
<g id="node6" class="node"><title>Node1</title>
<g id="a_node6"><a xlink:href="group___s_t_f_y.html" target="_top" xlink:title="Stratify OS">
<polygon fill="none" stroke="black" points="-0.172363,-116 -0.172363,-134 64.1724,-134 64.1724,-116 -0.172363,-116"/>
<text text-anchor="middle" x="32" y="-122" font-family="Helvetica,sans-Serif" font-size="10.00">Stratify OS</text>
</a>
</g>
</g>
<!-- Node1&#45;&gt;Node0 -->
<g id="edge1" class="edge"><title>Node1&#45;&gt;Node0</title>
<path fill="none" stroke="black" d="M74.4501,-125C82.8822,-125 91.6623,-125 99.8082,-125"/>
<polygon fill="black" stroke="black" points="74.4034,-121.5 64.4034,-125 74.4034,-128.5 74.4034,-121.5"/>
</g>
</g>
</svg>
