<?xml version="1.0" encoding="UTF-8" standalone="no"?>
<!DOCTYPE svg PUBLIC "-//W3C//DTD SVG 1.1//EN"
 "http://www.w3.org/Graphics/SVG/1.1/DTD/svg11.dtd">
<!-- Generated by graphviz version 2.34.0 (20130907.0228)
 -->
<!-- Title: USB Link (link) Pages: 1 -->
<svg width="348pt" height="67pt"
 viewBox="0.00 0.00 348.00 67.00" xmlns="http://www.w3.org/2000/svg" xmlns:xlink="http://www.w3.org/1999/xlink">
<g id="graph0" class="graph" transform="scale(1 1) rotate(0) translate(4 63)">
<title>USB Link (link)</title>
<!-- Node3 -->
<g id="node1" class="node"><title>Node3</title>
<g id="a_node1"><a xlink:href="group___b_o_o_t_l_o_a_d_e_r.html" target="_top" xlink:title="Bootloader Functions">
<polygon fill="none" stroke="black" points="228.749,-39 228.749,-59 339.251,-59 339.251,-39 228.749,-39"/>
<text text-anchor="middle" x="284" y="-45" font-family="Helvetica,sans-Serif" font-size="10.00">Bootloader Functions</text>
</a>
</g>
</g>
<!-- Node1 -->
<g id="node2" class="node"><title>Node1</title>
<g id="a_node2"><a xlink:href="group___a_r_c_h_i_t_e_c_t_u_r_e_s.html" target="_top" xlink:title="Architectures">
<polygon fill="none" stroke="black" points="-0.177246,-19 -0.177246,-39 74.1772,-39 74.1772,-19 -0.177246,-19"/>
<text text-anchor="middle" x="37" y="-25" font-family="Helvetica,sans-Serif" font-size="10.00">Architectures</text>
</a>
</g>
</g>
<!-- Node0 -->
<g id="node3" class="node"><title>Node0</title>
<polygon fill="#bfbfbf" stroke="black" points="109.936,-19 109.936,-39 192.064,-39 192.064,-19 109.936,-19"/>
<text text-anchor="middle" x="151" y="-25" font-family="Helvetica,sans-Serif" font-size="10.00">USB Link (link)</text>
</g>
<!-- Node1&#45;&gt;Node0 -->
<g id="edge1" class="edge"><title>Node1&#45;&gt;Node0</title>
<path fill="none" stroke="midnightblue" d="M84.6385,-29C92.9137,-29 101.47,-29 109.556,-29"/>
<polygon fill="midnightblue" stroke="midnightblue" points="84.3632,-25.5001 74.3632,-29 84.3632,-32.5001 84.3632,-25.5001"/>
</g>
<!-- Node0&#45;&gt;Node3 -->
<g id="edge3" class="edge"><title>Node0&#45;&gt;Node3</title>
<path fill="none" stroke="midnightblue" d="M202.262,-36.6736C210.863,-37.9868 219.836,-39.3566 228.541,-40.6856"/>
<polygon fill="midnightblue" stroke="midnightblue" points="202.787,-33.2133 192.373,-35.1639 201.73,-40.1331 202.787,-33.2133"/>
</g>
<!-- Node2 -->
<g id="node4" class="node"><title>Node2</title>
<g id="a_node4"><a xlink:href="group___u_s_b___h_a_n_d_l_e.html" target="_top" xlink:title="Device Handling">
<polygon fill="none" stroke="black" points="239.591,-0 239.591,-20 328.409,-20 328.409,-0 239.591,-0"/>
<text text-anchor="middle" x="284" y="-6" font-family="Helvetica,sans-Serif" font-size="10.00">Device Handling</text>
</a>
</g>
</g>
<!-- Node0&#45;&gt;Node2 -->
<g id="edge2" class="edge"><title>Node0&#45;&gt;Node2</title>
<path fill="none" stroke="midnightblue" d="M202.395,-21.6908C214.579,-19.9237 227.501,-18.0495 239.346,-16.3315"/>
<polygon fill="midnightblue" stroke="midnightblue" points="201.767,-18.2451 192.373,-23.1443 202.772,-25.1726 201.767,-18.2451"/>
</g>
</g>
</svg>
