<?xml version="1.0" encoding="UTF-8" standalone="no"?>
<!DOCTYPE svg PUBLIC "-//W3C//DTD SVG 1.1//EN"
 "http://www.w3.org/Graphics/SVG/1.1/DTD/svg11.dtd">
<!-- Generated by graphviz version 2.36.0 (20140111.2315)
 -->
<!-- Title: Stratify OS Pages: 1 -->
<svg width="222pt" height="194pt"
 viewBox="0.00 0.00 222.00 194.00" xmlns="http://www.w3.org/2000/svg" xmlns:xlink="http://www.w3.org/1999/xlink">
<g id="graph0" class="graph" transform="scale(1 1) rotate(0) translate(4 190)">
<title>Stratify OS</title>
<!-- Node4 -->
<g id="node1" class="node"><title>Node4</title>
<g id="a_node1"><a xlink:href="group___p_o_s_i_x.html" target="_top" xlink:title="POSIX">
<polygon fill="none" stroke="black" points="133.717,-168 133.717,-186 180.283,-186 180.283,-168 133.717,-168"/>
<text text-anchor="middle" x="157" y="-174" font-family="Helvetica,sans-Serif" font-size="10.00">POSIX</text>
</a>
</g>
</g>
<!-- Node5 -->
<g id="node2" class="node"><title>Node5</title>
<g id="a_node2"><a xlink:href="group___u_s_b___d_e_v.html" target="_top" xlink:title="USB Device">
<polygon fill="none" stroke="black" points="122.047,-131 122.047,-149 191.953,-149 191.953,-131 122.047,-131"/>
<text text-anchor="middle" x="157" y="-137" font-family="Helvetica,sans-Serif" font-size="10.00">USB Device</text>
</a>
</g>
</g>
<!-- Node3 -->
<g id="node3" class="node"><title>Node3</title>
<g id="a_node3"><a xlink:href="group___s_t_d_c.html" target="_top" xlink:title="C Standard Library">
<polygon fill="none" stroke="black" points="107.035,-94 107.035,-112 206.965,-112 206.965,-94 107.035,-94"/>
<text text-anchor="middle" x="157" y="-100" font-family="Helvetica,sans-Serif" font-size="10.00">C Standard Library</text>
</a>
</g>
</g>
<!-- Node0 -->
<g id="node4" class="node"><title>Node0</title>
<polygon fill="#bfbfbf" stroke="black" points="-0.172363,-94 -0.172363,-112 64.1724,-112 64.1724,-94 -0.172363,-94"/>
<text text-anchor="middle" x="32" y="-100" font-family="Helvetica,sans-Serif" font-size="10.00">Stratify OS</text>
</g>
<!-- Node0&#45;&gt;Node4 -->
<g id="edge4" class="edge"><title>Node0&#45;&gt;Node4</title>
<path fill="none" stroke="black" d="M49.7146,-119.645C62.5572,-131.669 81.2241,-147.566 100,-158 110.5,-163.835 123.099,-168.305 133.686,-171.439"/>
<polygon fill="black" stroke="black" points="51.8094,-116.804 42.1737,-112.399 46.9593,-121.851 51.8094,-116.804"/>
</g>
<!-- Node0&#45;&gt;Node5 -->
<g id="edge5" class="edge"><title>Node0&#45;&gt;Node5</title>
<path fill="none" stroke="black" d="M72.8663,-114.992C90.0618,-120.165 109.843,-126.115 125.795,-130.914"/>
<polygon fill="black" stroke="black" points="73.6735,-111.58 63.0892,-112.051 71.6571,-118.284 73.6735,-111.58"/>
</g>
<!-- Node0&#45;&gt;Node3 -->
<g id="edge3" class="edge"><title>Node0&#45;&gt;Node3</title>
<path fill="none" stroke="black" d="M74.4644,-103C84.913,-103 96.2279,-103 107.007,-103"/>
<polygon fill="black" stroke="black" points="74.3564,-99.5001 64.3563,-103 74.3563,-106.5 74.3564,-99.5001"/>
</g>
<!-- Node1 -->
<g id="node5" class="node"><title>Node1</title>
<g id="a_node5"><a xlink:href="group___l_i_n_k___l_a_y_e_r.html" target="_top" xlink:title="Link Transport Layer\l (for remote access to\l system)">
<polygon fill="none" stroke="black" points="100.65,-37 100.65,-75 213.35,-75 213.35,-37 100.65,-37"/>
<text text-anchor="start" x="108.65" y="-63" font-family="Helvetica,sans-Serif" font-size="10.00">Link Transport Layer</text>
<text text-anchor="start" x="108.65" y="-53" font-family="Helvetica,sans-Serif" font-size="10.00"> (for remote access to</text>
<text text-anchor="middle" x="157" y="-43" font-family="Helvetica,sans-Serif" font-size="10.00"> system)</text>
</a>
</g>
</g>
<!-- Node0&#45;&gt;Node1 -->
<g id="edge1" class="edge"><title>Node0&#45;&gt;Node1</title>
<path fill="none" stroke="black" d="M66.1151,-90.3463C78.4191,-85.6447 92.6649,-80.2012 106.137,-75.0532"/>
<polygon fill="black" stroke="black" points="64.8076,-87.099 56.7156,-93.9379 67.3062,-93.6379 64.8076,-87.099"/>
</g>
<!-- Node2 -->
<g id="node6" class="node"><title>Node2</title>
<g id="a_node6"><a xlink:href="group___i_f_a_c_e___d_e_v.html" target="_top" xlink:title="Device Interface">
<polygon fill="none" stroke="black" points="112.872,-0 112.872,-18 201.128,-18 201.128,-0 112.872,-0"/>
<text text-anchor="middle" x="157" y="-6" font-family="Helvetica,sans-Serif" font-size="10.00">Device Interface</text>
</a>
</g>
</g>
<!-- Node0&#45;&gt;Node2 -->
<g id="edge2" class="edge"><title>Node0&#45;&gt;Node2</title>
<path fill="none" stroke="black" d="M44.6804,-85.3334C56.7032,-68.4191 76.9005,-43.2793 100,-28 106.165,-23.922 113.292,-20.6349 120.352,-18.0164"/>
<polygon fill="black" stroke="black" points="41.6611,-83.547 38.8756,-93.7691 47.4277,-87.5152 41.6611,-83.547"/>
</g>
</g>
</svg>
