<?xml version="1.0" encoding="UTF-8" standalone="no"?>
<!DOCTYPE svg PUBLIC "-//W3C//DTD SVG 1.1//EN"
 "http://www.w3.org/Graphics/SVG/1.1/DTD/svg11.dtd">
<!-- Generated by graphviz version 2.36.0 (20140111.2315)
 -->
<!-- Title: USB Device Pages: 1 -->
<svg width="338pt" height="221pt"
 viewBox="0.00 0.00 338.00 221.00" xmlns="http://www.w3.org/2000/svg" xmlns:xlink="http://www.w3.org/1999/xlink">
<g id="graph0" class="graph" transform="scale(1 1) rotate(0) translate(4 217)">
<title>USB Device</title>
<!-- Node3 -->
<g id="node1" class="node"><title>Node3</title>
<g id="a_node1"><a xlink:href="group___u_s_b___d_e_v___c_d_c.html" target="_top" xlink:title="Communications Device\l Class">
<polygon fill="none" stroke="black" points="206.091,-185 206.091,-213 329.909,-213 329.909,-185 206.091,-185"/>
<text text-anchor="start" x="214.091" y="-201" font-family="Helvetica,sans-Serif" font-size="10.00">Communications Device</text>
<text text-anchor="middle" x="268" y="-191" font-family="Helvetica,sans-Serif" font-size="10.00"> Class</text>
</a>
</g>
</g>
<!-- Node6 -->
<g id="node2" class="node"><title>Node6</title>
<g id="a_node2"><a xlink:href="group___u_s_b___d_e_v___s_t_d.html" target="_top" xlink:title="USB Standard Device">
<polygon fill="none" stroke="black" points="211.365,-148 211.365,-166 324.635,-166 324.635,-148 211.365,-148"/>
<text text-anchor="middle" x="268" y="-154" font-family="Helvetica,sans-Serif" font-size="10.00">USB Standard Device</text>
</a>
</g>
</g>
<!-- Node4 -->
<g id="node3" class="node"><title>Node4</title>
<g id="a_node3"><a xlink:href="group___u_s_b___d_e_v___h_i_d.html" target="_top" xlink:title="Human Interface Device">
<polygon fill="none" stroke="black" points="206.365,-111 206.365,-129 329.635,-129 329.635,-111 206.365,-111"/>
<text text-anchor="middle" x="268" y="-117" font-family="Helvetica,sans-Serif" font-size="10.00">Human Interface Device</text>
</a>
</g>
</g>
<!-- Node0 -->
<g id="node4" class="node"><title>Node0</title>
<polygon fill="#bfbfbf" stroke="black" points="100.047,-92 100.047,-110 169.953,-110 169.953,-92 100.047,-92"/>
<text text-anchor="middle" x="135" y="-98" font-family="Helvetica,sans-Serif" font-size="10.00">USB Device</text>
</g>
<!-- Node0&#45;&gt;Node3 -->
<g id="edge3" class="edge"><title>Node0&#45;&gt;Node3</title>
<path fill="none" stroke="black" d="M149.001,-118.689C161.893,-135.168 183,-159.467 206,-175 211.564,-178.758 217.804,-182.059 224.112,-184.913"/>
<polygon fill="black" stroke="black" points="151.567,-116.28 142.725,-110.443 145.997,-120.52 151.567,-116.28"/>
</g>
<!-- Node0&#45;&gt;Node6 -->
<g id="edge6" class="edge"><title>Node0&#45;&gt;Node6</title>
<path fill="none" stroke="black" d="M160.112,-115.161C173.368,-122.581 190.271,-131.459 206,-138 214.91,-141.705 224.81,-145.087 233.996,-147.936"/>
<polygon fill="black" stroke="black" points="161.595,-111.978 151.174,-110.07 158.131,-118.06 161.595,-111.978"/>
</g>
<!-- Node0&#45;&gt;Node4 -->
<g id="edge4" class="edge"><title>Node0&#45;&gt;Node4</title>
<path fill="none" stroke="black" d="M180.025,-107.385C188.432,-108.605 197.37,-109.901 206.193,-111.181"/>
<polygon fill="black" stroke="black" points="180.476,-103.914 170.077,-105.942 179.471,-110.842 180.476,-103.914"/>
</g>
<!-- Node2 -->
<g id="node6" class="node"><title>Node2</title>
<g id="a_node6"><a xlink:href="group___u_s_b___d_e_v___a_d_c.html" target="_top" xlink:title="Audio Device Class">
<polygon fill="none" stroke="black" points="216.648,-74 216.648,-92 319.352,-92 319.352,-74 216.648,-74"/>
<text text-anchor="middle" x="268" y="-80" font-family="Helvetica,sans-Serif" font-size="10.00">Audio Device Class</text>
</a>
</g>
</g>
<!-- Node0&#45;&gt;Node2 -->
<g id="edge2" class="edge"><title>Node0&#45;&gt;Node2</title>
<path fill="none" stroke="black" d="M180.01,-94.9529C191.661,-93.352 204.332,-91.6109 216.307,-89.9655"/>
<polygon fill="black" stroke="black" points="179.507,-91.4889 170.077,-96.3177 180.46,-98.4238 179.507,-91.4889"/>
</g>
<!-- Node5 -->
<g id="node7" class="node"><title>Node5</title>
<g id="a_node7"><a xlink:href="group___u_s_b___d_e_v___m_s_c.html" target="_top" xlink:title="Mass Storage Class">
<polygon fill="none" stroke="black" points="215.261,-37 215.261,-55 320.739,-55 320.739,-37 215.261,-37"/>
<text text-anchor="middle" x="268" y="-43" font-family="Helvetica,sans-Serif" font-size="10.00">Mass Storage Class</text>
</a>
</g>
</g>
<!-- Node0&#45;&gt;Node5 -->
<g id="edge5" class="edge"><title>Node0&#45;&gt;Node5</title>
<path fill="none" stroke="black" d="M160.073,-86.7449C173.318,-79.2971 190.223,-70.4225 206,-64 214.284,-60.6279 223.432,-57.5877 232.069,-55.0069"/>
<polygon fill="black" stroke="black" points="158.082,-83.8521 151.145,-91.8604 161.562,-89.9259 158.082,-83.8521"/>
</g>
<!-- Node7 -->
<g id="node8" class="node"><title>Node7</title>
<g id="a_node8"><a xlink:href="group___u_s_b_d_e_f_s.html" target="_top" xlink:title="USB Definitions">
<polygon fill="none" stroke="black" points="224.985,-0 224.985,-18 311.015,-18 311.015,-0 224.985,-0"/>
<text text-anchor="middle" x="268" y="-6" font-family="Helvetica,sans-Serif" font-size="10.00">USB Definitions</text>
</a>
</g>
</g>
<!-- Node0&#45;&gt;Node7 -->
<g id="edge7" class="edge"><title>Node0&#45;&gt;Node7</title>
<path fill="none" stroke="black" d="M148.299,-83.3902C160.932,-66.5669 182.086,-41.6637 206,-27 211.93,-23.3637 218.636,-20.4271 225.376,-18.0659"/>
<polygon fill="black" stroke="black" points="145.242,-81.6421 142.194,-91.7888 150.905,-85.758 145.242,-81.6421"/>
</g>
<!-- Node1 -->
<g id="node5" class="node"><title>Node1</title>
<g id="a_node5"><a xlink:href="group___s_t_f_y.html" target="_top" xlink:title="Stratify OS">
<polygon fill="none" stroke="black" points="-0.172363,-92 -0.172363,-110 64.1724,-110 64.1724,-92 -0.172363,-92"/>
<text text-anchor="middle" x="32" y="-98" font-family="Helvetica,sans-Serif" font-size="10.00">Stratify OS</text>
</a>
</g>
</g>
<!-- Node1&#45;&gt;Node0 -->
<g id="edge1" class="edge"><title>Node1&#45;&gt;Node0</title>
<path fill="none" stroke="black" d="M74.4501,-101C82.8822,-101 91.6623,-101 99.8082,-101"/>
<polygon fill="black" stroke="black" points="74.4034,-97.5001 64.4034,-101 74.4034,-104.5 74.4034,-97.5001"/>
</g>
</g>
</svg>
