<?xml version="1.0" encoding="UTF-8" standalone="no"?>
<!DOCTYPE svg PUBLIC "-//W3C//DTD SVG 1.1//EN"
 "http://www.w3.org/Graphics/SVG/1.1/DTD/svg11.dtd">
<!-- Generated by graphviz version 2.36.0 (20140111.2315)
 -->
<!-- Title: Filesystem Pages: 1 -->
<svg width="364pt" height="100pt"
 viewBox="0.00 0.00 364.00 100.00" xmlns="http://www.w3.org/2000/svg" xmlns:xlink="http://www.w3.org/1999/xlink">
<g id="graph0" class="graph" transform="scale(1 1) rotate(0) translate(4 96)">
<title>Filesystem</title>
<!-- Node3 -->
<g id="node1" class="node"><title>Node3</title>
<g id="a_node1"><a xlink:href="group___u_n_i___f_i_l_e___a_c_c_e_s_s.html" target="_top" xlink:title="Access">
<polygon fill="none" stroke="black" points="279.884,-74 279.884,-92 328.116,-92 328.116,-74 279.884,-74"/>
<text text-anchor="middle" x="304" y="-80" font-family="Helvetica,sans-Serif" font-size="10.00">Access</text>
</a>
</g>
</g>
<!-- Node2 -->
<g id="node2" class="node"><title>Node2</title>
<g id="a_node2"><a xlink:href="group___u_n_i___p_e_r_m_s.html" target="_top" xlink:title="Permissions">
<polygon fill="none" stroke="black" points="268.771,-37 268.771,-55 339.229,-55 339.229,-37 268.771,-37"/>
<text text-anchor="middle" x="304" y="-43" font-family="Helvetica,sans-Serif" font-size="10.00">Permissions</text>
</a>
</g>
</g>
<!-- Node4 -->
<g id="node3" class="node"><title>Node4</title>
<g id="a_node3"><a xlink:href="group___u_n_i___f_i_l_d_e_s.html" target="_top" xlink:title="Descriptor Handling">
<polygon fill="none" stroke="black" points="252.091,-0 252.091,-18 355.909,-18 355.909,-0 252.091,-0"/>
<text text-anchor="middle" x="304" y="-6" font-family="Helvetica,sans-Serif" font-size="10.00">Descriptor Handling</text>
</a>
</g>
</g>
<!-- Node0 -->
<g id="node4" class="node"><title>Node0</title>
<polygon fill="#bfbfbf" stroke="black" points="152.108,-37 152.108,-55 215.892,-55 215.892,-37 152.108,-37"/>
<text text-anchor="middle" x="184" y="-43" font-family="Helvetica,sans-Serif" font-size="10.00">Filesystem</text>
</g>
<!-- Node0&#45;&gt;Node3 -->
<g id="edge3" class="edge"><title>Node0&#45;&gt;Node3</title>
<path fill="none" stroke="black" d="M223.494,-58.0703C241.998,-63.8721 263.574,-70.6375 279.577,-75.6554"/>
<polygon fill="black" stroke="black" points="224.455,-54.7036 213.866,-55.0512 222.361,-61.3829 224.455,-54.7036"/>
</g>
<!-- Node0&#45;&gt;Node2 -->
<g id="edge2" class="edge"><title>Node0&#45;&gt;Node2</title>
<path fill="none" stroke="black" d="M226.215,-46C240.009,-46 255.233,-46 268.463,-46"/>
<polygon fill="black" stroke="black" points="226.003,-42.5001 216.003,-46 226.003,-49.5001 226.003,-42.5001"/>
</g>
<!-- Node0&#45;&gt;Node4 -->
<g id="edge4" class="edge"><title>Node0&#45;&gt;Node4</title>
<path fill="none" stroke="black" d="M223.709,-33.8625C240.097,-28.7239 258.863,-22.8397 274.023,-18.086"/>
<polygon fill="black" stroke="black" points="222.361,-30.6171 213.866,-36.9488 224.455,-37.2964 222.361,-30.6171"/>
</g>
<!-- Node1 -->
<g id="node5" class="node"><title>Node1</title>
<g id="a_node5"><a xlink:href="group___u_n_i_s_t_d.html" target="_top" xlink:title="Unix Standard (unistd)">
<polygon fill="none" stroke="black" points="0.253906,-37 0.253906,-55 115.746,-55 115.746,-37 0.253906,-37"/>
<text text-anchor="middle" x="58" y="-43" font-family="Helvetica,sans-Serif" font-size="10.00">Unix Standard (unistd)</text>
</a>
</g>
</g>
<!-- Node1&#45;&gt;Node0 -->
<g id="edge1" class="edge"><title>Node1&#45;&gt;Node0</title>
<path fill="none" stroke="black" d="M126.071,-46C135.046,-46 143.877,-46 151.807,-46"/>
<polygon fill="black" stroke="black" points="125.919,-42.5001 115.919,-46 125.919,-49.5001 125.919,-42.5001"/>
</g>
</g>
</svg>
