<?xml version="1.0" encoding="UTF-8" standalone="no"?>
<!DOCTYPE svg PUBLIC "-//W3C//DTD SVG 1.1//EN"
 "http://www.w3.org/Graphics/SVG/1.1/DTD/svg11.dtd">
<!-- Generated by graphviz version 2.36.0 (20140111.2315)
 -->
<!-- Title: Unix Standard (unistd) Pages: 1 -->
<svg width="330pt" height="100pt"
 viewBox="0.00 0.00 330.00 100.00" xmlns="http://www.w3.org/2000/svg" xmlns:xlink="http://www.w3.org/1999/xlink">
<g id="graph0" class="graph" transform="scale(1 1) rotate(0) translate(4 96)">
<title>Unix Standard (unistd)</title>
<!-- Node3 -->
<g id="node1" class="node"><title>Node3</title>
<g id="a_node1"><a xlink:href="group___u_n_i___p_r_o_c_e_s_s.html" target="_top" xlink:title="Processes">
<polygon fill="none" stroke="black" points="247.658,-74 247.658,-92 310.342,-92 310.342,-74 247.658,-74"/>
<text text-anchor="middle" x="279" y="-80" font-family="Helvetica,sans-Serif" font-size="10.00">Processes</text>
</a>
</g>
</g>
<!-- Node1 -->
<g id="node2" class="node"><title>Node1</title>
<g id="a_node2"><a xlink:href="group___p_o_s_i_x.html" target="_top" xlink:title="POSIX">
<polygon fill="none" stroke="black" points="0.716797,-37 0.716797,-55 47.2832,-55 47.2832,-37 0.716797,-37"/>
<text text-anchor="middle" x="24" y="-43" font-family="Helvetica,sans-Serif" font-size="10.00">POSIX</text>
</a>
</g>
</g>
<!-- Node0 -->
<g id="node5" class="node"><title>Node0</title>
<polygon fill="#bfbfbf" stroke="black" points="84.2539,-37 84.2539,-55 199.746,-55 199.746,-37 84.2539,-37"/>
<text text-anchor="middle" x="142" y="-43" font-family="Helvetica,sans-Serif" font-size="10.00">Unix Standard (unistd)</text>
</g>
<!-- Node1&#45;&gt;Node0 -->
<g id="edge1" class="edge"><title>Node1&#45;&gt;Node0</title>
<path fill="none" stroke="black" d="M57.6332,-46C65.8727,-46 74.9627,-46 84.0195,-46"/>
<polygon fill="black" stroke="black" points="57.366,-42.5001 47.366,-46 57.3659,-49.5001 57.366,-42.5001"/>
</g>
<!-- Node4 -->
<g id="node3" class="node"><title>Node4</title>
<g id="a_node3"><a xlink:href="group___u_n_i___s_l_e_e_p.html" target="_top" xlink:title="Sleep Funcions">
<polygon fill="none" stroke="black" points="236.535,-37 236.535,-55 321.465,-55 321.465,-37 236.535,-37"/>
<text text-anchor="middle" x="279" y="-43" font-family="Helvetica,sans-Serif" font-size="10.00">Sleep Funcions</text>
</a>
</g>
</g>
<!-- Node2 -->
<g id="node4" class="node"><title>Node2</title>
<g id="a_node4"><a xlink:href="group___u_n_i___f_s.html" target="_top" xlink:title="Filesystem">
<polygon fill="none" stroke="black" points="247.108,-0 247.108,-18 310.892,-18 310.892,-0 247.108,-0"/>
<text text-anchor="middle" x="279" y="-6" font-family="Helvetica,sans-Serif" font-size="10.00">Filesystem</text>
</a>
</g>
</g>
<!-- Node0&#45;&gt;Node3 -->
<g id="edge3" class="edge"><title>Node0&#45;&gt;Node3</title>
<path fill="none" stroke="black" d="M185.873,-57.7505C205.955,-63.2545 229.408,-69.6822 247.624,-74.6749"/>
<polygon fill="black" stroke="black" points="186.594,-54.319 176.025,-55.0512 184.744,-61.0701 186.594,-54.319"/>
</g>
<!-- Node0&#45;&gt;Node4 -->
<g id="edge4" class="edge"><title>Node0&#45;&gt;Node4</title>
<path fill="none" stroke="black" d="M209.983,-46C218.984,-46 227.996,-46 236.381,-46"/>
<polygon fill="black" stroke="black" points="209.861,-42.5001 199.861,-46 209.861,-49.5001 209.861,-42.5001"/>
</g>
<!-- Node0&#45;&gt;Node2 -->
<g id="edge2" class="edge"><title>Node0&#45;&gt;Node2</title>
<path fill="none" stroke="black" d="M185.728,-34.2894C205.507,-28.8684 228.581,-22.5444 246.708,-17.5764"/>
<polygon fill="black" stroke="black" points="184.744,-30.9299 176.025,-36.9488 186.594,-37.681 184.744,-30.9299"/>
</g>
</g>
</svg>
