<?xml version="1.0" encoding="UTF-8" standalone="no"?>
<!DOCTYPE svg PUBLIC "-//W3C//DTD SVG 1.1//EN"
 "http://www.w3.org/Graphics/SVG/1.1/DTD/svg11.dtd">
<!-- Generated by graphviz version 2.34.0 (20130907.0228)
 -->
<!-- Title: Hardware Peripheral Library Pages: 1 -->
<svg width="272pt" height="67pt"
 viewBox="0.00 0.00 272.00 67.00" xmlns="http://www.w3.org/2000/svg" xmlns:xlink="http://www.w3.org/1999/xlink">
<g id="graph0" class="graph" transform="scale(1 1) rotate(0) translate(4 63)">
<title>Hardware Peripheral Library</title>
<!-- Node1 -->
<g id="node1" class="node"><title>Node1</title>
<g id="a_node1"><a xlink:href="group___p_e_r_i_p_h_i_o.html" target="_top" xlink:title="Peripheral Input/Output">
<polygon fill="none" stroke="black" points="144.301,-39 144.301,-59 263.699,-59 263.699,-39 144.301,-39"/>
<text text-anchor="middle" x="204" y="-45" font-family="Helvetica,sans-Serif" font-size="10.00">Peripheral Input/Output</text>
</a>
</g>
</g>
<!-- Node2 -->
<g id="node2" class="node"><title>Node2</title>
<g id="a_node2"><a xlink:href="group___a_r_c_h_i_t_e_c_t_u_r_e_s.html" target="_top" xlink:title="Architectures">
<polygon fill="none" stroke="black" points="166.823,-0 166.823,-20 241.177,-20 241.177,-0 166.823,-0"/>
<text text-anchor="middle" x="204" y="-6" font-family="Helvetica,sans-Serif" font-size="10.00">Architectures</text>
</a>
</g>
</g>
<!-- Node0 -->
<g id="node3" class="node"><title>Node0</title>
<polygon fill="#bfbfbf" stroke="black" points="0.145508,-13 0.145508,-45 107.854,-45 107.854,-13 0.145508,-13"/>
<text text-anchor="start" x="8.14551" y="-31" font-family="Helvetica,sans-Serif" font-size="10.00">Hardware Peripheral</text>
<text text-anchor="middle" x="54" y="-19" font-family="Helvetica,sans-Serif" font-size="10.00"> Library</text>
</g>
<!-- Node0&#45;&gt;Node1 -->
<g id="edge1" class="edge"><title>Node0&#45;&gt;Node1</title>
<path fill="none" stroke="midnightblue" d="M118.033,-37.518C126.673,-38.6855 135.516,-39.8806 144.079,-41.0377"/>
<polygon fill="midnightblue" stroke="midnightblue" points="118.392,-34.0348 108.013,-36.164 117.455,-40.9717 118.392,-34.0348"/>
</g>
<!-- Node0&#45;&gt;Node2 -->
<g id="edge2" class="edge"><title>Node0&#45;&gt;Node2</title>
<path fill="none" stroke="midnightblue" d="M118.177,-20.8895C134.701,-18.7681 151.962,-16.5522 166.566,-14.6774"/>
<polygon fill="midnightblue" stroke="midnightblue" points="117.486,-17.4493 108.013,-22.1942 118.378,-24.3923 117.486,-17.4493"/>
</g>
</g>
</svg>
