<?xml version="1.0" encoding="UTF-8" standalone="no"?>
<!DOCTYPE svg PUBLIC "-//W3C//DTD SVG 1.1//EN"
 "http://www.w3.org/Graphics/SVG/1.1/DTD/svg11.dtd">
<!-- Generated by graphviz version 2.36.0 (20140111.2315)
 -->
<!-- Title: Peripheral Input/Output Pages: 1 -->
<svg width="446pt" height="933pt"
 viewBox="0.00 0.00 446.00 933.00" xmlns="http://www.w3.org/2000/svg" xmlns:xlink="http://www.w3.org/1999/xlink">
<g id="graph0" class="graph" transform="scale(1 1) rotate(0) translate(4 929)">
<title>Peripheral Input/Output</title>
<!-- Node0 -->
<g id="node1" class="node"><title>Node0</title>
<polygon fill="#bfbfbf" stroke="black" points="144.301,-471 144.301,-489 263.699,-489 263.699,-471 144.301,-471"/>
<text text-anchor="middle" x="204" y="-477" font-family="Helvetica,sans-Serif" font-size="10.00">Peripheral Input/Output</text>
</g>
<!-- Node18 -->
<g id="node2" class="node"><title>Node18</title>
<g id="a_node2"><a xlink:href="group___r_t_c.html" target="_top" xlink:title="Real Time Clock (RTC)">
<polygon fill="none" stroke="black" points="309.689,-907 309.689,-925 428.311,-925 428.311,-907 309.689,-907"/>
<text text-anchor="middle" x="369" y="-913" font-family="Helvetica,sans-Serif" font-size="10.00">Real Time Clock (RTC)</text>
</a>
</g>
</g>
<!-- Node0&#45;&gt;Node18 -->
<g id="edge18" class="edge"><title>Node0&#45;&gt;Node18</title>
<path fill="none" stroke="midnightblue" d="M206.791,-499.169C214.064,-573.02 243.728,-837.933 300,-897 303.889,-901.083 308.576,-904.311 313.649,-906.861"/>
<polygon fill="midnightblue" stroke="midnightblue" points="210.256,-498.636 205.815,-489.017 203.288,-499.306 210.256,-498.636"/>
</g>
<!-- Node9 -->
<g id="node3" class="node"><title>Node9</title>
<g id="a_node3"><a xlink:href="group___e_t_h___d_e_v.html" target="_top" xlink:title="Ethernet Device Access">
<polygon fill="none" stroke="black" points="308.195,-870 308.195,-888 429.805,-888 429.805,-870 308.195,-870"/>
<text text-anchor="middle" x="369" y="-876" font-family="Helvetica,sans-Serif" font-size="10.00">Ethernet Device Access</text>
</a>
</g>
</g>
<!-- Node0&#45;&gt;Node9 -->
<g id="edge9" class="edge"><title>Node0&#45;&gt;Node9</title>
<path fill="none" stroke="midnightblue" d="M207.257,-499.244C215.804,-568.949 248.343,-806.903 300,-860 304.017,-864.129 308.852,-867.383 314.068,-869.943"/>
<polygon fill="midnightblue" stroke="midnightblue" points="210.721,-498.739 206.053,-489.228 203.771,-499.574 210.721,-498.739"/>
</g>
<!-- Node4 -->
<g id="node4" class="node"><title>Node4</title>
<g id="a_node4"><a xlink:href="group___b_o_o_t_l_o_a_d_e_r___d_e_v.html" target="_top" xlink:title="Bootloader Access">
<polygon fill="none" stroke="black" points="319.584,-833 319.584,-851 418.416,-851 418.416,-833 319.584,-833"/>
<text text-anchor="middle" x="369" y="-839" font-family="Helvetica,sans-Serif" font-size="10.00">Bootloader Access</text>
</a>
</g>
</g>
<!-- Node0&#45;&gt;Node4 -->
<g id="edge4" class="edge"><title>Node0&#45;&gt;Node4</title>
<path fill="none" stroke="midnightblue" d="M204.238,-499.542C203.09,-557.596 207.928,-730.719 300,-823 305.368,-828.38 312.124,-832.268 319.281,-835.072"/>
<polygon fill="midnightblue" stroke="midnightblue" points="207.745,-499.342 204.533,-489.246 200.748,-499.141 207.745,-499.342"/>
</g>
<!-- Node6 -->
<g id="node5" class="node"><title>Node6</title>
<g id="a_node5"><a xlink:href="group___d_a_c.html" target="_top" xlink:title="Digital to Analog Converter\l (DAC)">
<polygon fill="none" stroke="black" points="301.52,-786 301.52,-814 436.48,-814 436.48,-786 301.52,-786"/>
<text text-anchor="start" x="309.52" y="-802" font-family="Helvetica,sans-Serif" font-size="10.00">Digital to Analog Converter</text>
<text text-anchor="middle" x="369" y="-792" font-family="Helvetica,sans-Serif" font-size="10.00"> (DAC)</text>
</a>
</g>
</g>
<!-- Node0&#45;&gt;Node6 -->
<g id="edge6" class="edge"><title>Node0&#45;&gt;Node6</title>
<path fill="none" stroke="midnightblue" d="M205.54,-499.334C208.04,-551.35 222.025,-695.752 300,-776 303.751,-779.861 308.161,-783.102 312.902,-785.822"/>
<polygon fill="midnightblue" stroke="midnightblue" points="209.032,-499.042 205.148,-489.185 202.037,-499.313 209.032,-499.042"/>
</g>
<!-- Node12 -->
<g id="node6" class="node"><title>Node12</title>
<g id="a_node6"><a xlink:href="group___i2_c.html" target="_top" xlink:title="Inter&#45;Integrated Circuit\l (I2C) Master">
<polygon fill="none" stroke="black" points="311.256,-739 311.256,-767 426.744,-767 426.744,-739 311.256,-739"/>
<text text-anchor="start" x="319.256" y="-755" font-family="Helvetica,sans-Serif" font-size="10.00">Inter&#45;Integrated Circuit</text>
<text text-anchor="middle" x="369" y="-745" font-family="Helvetica,sans-Serif" font-size="10.00"> (I2C) Master</text>
</a>
</g>
</g>
<!-- Node0&#45;&gt;Node12 -->
<g id="edge12" class="edge"><title>Node0&#45;&gt;Node12</title>
<path fill="none" stroke="midnightblue" d="M206.898,-499.295C212.457,-545.496 232.816,-663.487 300,-729 304.033,-732.933 308.75,-736.225 313.785,-738.98"/>
<polygon fill="midnightblue" stroke="midnightblue" points="210.357,-498.728 205.784,-489.171 203.399,-499.494 210.357,-498.728"/>
</g>
<!-- Node5 -->
<g id="node7" class="node"><title>Node5</title>
<g id="a_node7"><a xlink:href="group___c_o_r_e.html" target="_top" xlink:title="Core Microcontroller\l Access">
<polygon fill="none" stroke="black" points="315.988,-692 315.988,-720 422.012,-720 422.012,-692 315.988,-692"/>
<text text-anchor="start" x="323.988" y="-708" font-family="Helvetica,sans-Serif" font-size="10.00">Core Microcontroller</text>
<text text-anchor="middle" x="369" y="-698" font-family="Helvetica,sans-Serif" font-size="10.00"> Access</text>
</a>
</g>
</g>
<!-- Node0&#45;&gt;Node5 -->
<g id="edge5" class="edge"><title>Node0&#45;&gt;Node5</title>
<path fill="none" stroke="midnightblue" d="M208.787,-499.073C217.639,-538.761 243.372,-630.786 300,-682 304.643,-686.199 310.066,-689.673 315.787,-692.545"/>
<polygon fill="midnightblue" stroke="midnightblue" points="212.18,-498.2 206.686,-489.141 205.332,-499.649 212.18,-498.2"/>
</g>
<!-- Node19 -->
<g id="node8" class="node"><title>Node19</title>
<g id="a_node8"><a xlink:href="group___s_p_i.html" target="_top" xlink:title="Serial Peripheral Interface\l (SPI) Master">
<polygon fill="none" stroke="black" points="303.192,-645 303.192,-673 434.808,-673 434.808,-645 303.192,-645"/>
<text text-anchor="start" x="311.192" y="-661" font-family="Helvetica,sans-Serif" font-size="10.00">Serial Peripheral Interface</text>
<text text-anchor="middle" x="369" y="-651" font-family="Helvetica,sans-Serif" font-size="10.00"> (SPI) Master</text>
</a>
</g>
</g>
<!-- Node0&#45;&gt;Node19 -->
<g id="edge19" class="edge"><title>Node0&#45;&gt;Node19</title>
<path fill="none" stroke="midnightblue" d="M211.649,-498.753C224.046,-531.111 253.701,-597.551 300,-635 304.77,-638.858 310.204,-642.118 315.875,-644.868"/>
<polygon fill="midnightblue" stroke="midnightblue" points="214.86,-497.343 208.108,-489.178 208.294,-499.771 214.86,-497.343"/>
</g>
<!-- Node15 -->
<g id="node9" class="node"><title>Node15</title>
<g id="a_node9"><a xlink:href="group___p_i_o.html" target="_top" xlink:title="Pin Input/Output (PIO)">
<polygon fill="none" stroke="black" points="311.532,-608 311.532,-626 426.468,-626 426.468,-608 311.532,-608"/>
<text text-anchor="middle" x="369" y="-614" font-family="Helvetica,sans-Serif" font-size="10.00">Pin Input/Output (PIO)</text>
</a>
</g>
</g>
<!-- Node0&#45;&gt;Node15 -->
<g id="edge15" class="edge"><title>Node0&#45;&gt;Node15</title>
<path fill="none" stroke="midnightblue" d="M214.695,-498.135C229.562,-524.193 260.471,-571.948 300,-598 306.243,-602.115 313.372,-605.347 320.61,-607.884"/>
<polygon fill="midnightblue" stroke="midnightblue" points="217.707,-496.35 209.797,-489.301 211.585,-499.744 217.707,-496.35"/>
</g>
<!-- Node2 -->
<g id="node10" class="node"><title>Node2</title>
<g id="a_node10"><a xlink:href="group___d_e_v_i_c_e.html" target="_top" xlink:title="Device Configuration">
<polygon fill="none" stroke="black" points="314.586,-571 314.586,-589 423.414,-589 423.414,-571 314.586,-571"/>
<text text-anchor="middle" x="369" y="-577" font-family="Helvetica,sans-Serif" font-size="10.00">Device Configuration</text>
</a>
</g>
</g>
<!-- Node0&#45;&gt;Node2 -->
<g id="edge2" class="edge"><title>Node0&#45;&gt;Node2</title>
<path fill="none" stroke="midnightblue" d="M220.31,-496.847C237.86,-515.181 268.312,-544.129 300,-561 307.682,-565.09 316.333,-568.373 324.826,-570.982"/>
<polygon fill="midnightblue" stroke="midnightblue" points="222.586,-494.158 213.196,-489.251 217.477,-498.943 222.586,-494.158"/>
</g>
<!-- Node21 -->
<g id="node11" class="node"><title>Node21</title>
<g id="a_node11"><a xlink:href="group___t_m_r.html" target="_top" xlink:title="Timer (TMR)">
<polygon fill="none" stroke="black" points="332.858,-534 332.858,-552 405.142,-552 405.142,-534 332.858,-534"/>
<text text-anchor="middle" x="369" y="-540" font-family="Helvetica,sans-Serif" font-size="10.00">Timer (TMR)</text>
</a>
</g>
</g>
<!-- Node0&#45;&gt;Node21 -->
<g id="edge21" class="edge"><title>Node0&#45;&gt;Node21</title>
<path fill="none" stroke="midnightblue" d="M231.616,-493.736C250.397,-503.076 276.327,-515.275 300,-524 310.466,-527.857 322.084,-531.373 332.712,-534.303"/>
<polygon fill="midnightblue" stroke="midnightblue" points="233.003,-490.515 222.497,-489.145 229.855,-496.768 233.003,-490.515"/>
</g>
<!-- Node3 -->
<g id="node12" class="node"><title>Node3</title>
<g id="a_node12"><a xlink:href="group___a_d_c.html" target="_top" xlink:title="Analog to Digital Converter\l (ADC)">
<polygon fill="none" stroke="black" points="301.247,-487 301.247,-515 436.753,-515 436.753,-487 301.247,-487"/>
<text text-anchor="start" x="309.247" y="-503" font-family="Helvetica,sans-Serif" font-size="10.00">Analog to Digital Converter</text>
<text text-anchor="middle" x="369" y="-493" font-family="Helvetica,sans-Serif" font-size="10.00"> (ADC)</text>
</a>
</g>
</g>
<!-- Node0&#45;&gt;Node3 -->
<g id="edge3" class="edge"><title>Node0&#45;&gt;Node3</title>
<path fill="none" stroke="midnightblue" d="M273.934,-488.881C282.97,-490.045 292.217,-491.237 301.217,-492.396"/>
<polygon fill="midnightblue" stroke="midnightblue" points="274.212,-485.388 263.847,-487.581 273.318,-492.331 274.212,-485.388"/>
</g>
<!-- Node13 -->
<g id="node13" class="node"><title>Node13</title>
<g id="a_node13"><a xlink:href="group___m_c_i.html" target="_top" xlink:title="Multimedia Card Interface">
<polygon fill="none" stroke="black" points="303.754,-450 303.754,-468 434.246,-468 434.246,-450 303.754,-450"/>
<text text-anchor="middle" x="369" y="-456" font-family="Helvetica,sans-Serif" font-size="10.00">Multimedia Card Interface</text>
</a>
</g>
</g>
<!-- Node0&#45;&gt;Node13 -->
<g id="edge13" class="edge"><title>Node0&#45;&gt;Node13</title>
<path fill="none" stroke="midnightblue" d="M274.002,-471.11C283.858,-469.84 293.964,-468.538 303.724,-467.281"/>
<polygon fill="midnightblue" stroke="midnightblue" points="273.318,-467.669 263.847,-472.419 274.212,-474.612 273.318,-467.669"/>
</g>
<!-- Node20 -->
<g id="node14" class="node"><title>Node20</title>
<g id="a_node14"><a xlink:href="group___s_y_s___d_e_v.html" target="_top" xlink:title="System Devices">
<polygon fill="none" stroke="black" points="325.158,-413 325.158,-431 412.842,-431 412.842,-413 325.158,-413"/>
<text text-anchor="middle" x="369" y="-419" font-family="Helvetica,sans-Serif" font-size="10.00">System Devices</text>
</a>
</g>
</g>
<!-- Node0&#45;&gt;Node20 -->
<g id="edge20" class="edge"><title>Node0&#45;&gt;Node20</title>
<path fill="none" stroke="midnightblue" d="M233.471,-466.781C252.135,-458.423 277.211,-447.771 300,-440 309.594,-436.728 320.114,-433.686 329.953,-431.068"/>
<polygon fill="midnightblue" stroke="midnightblue" points="232.007,-463.601 224.341,-470.915 234.895,-469.978 232.007,-463.601"/>
</g>
<!-- Node14 -->
<g id="node16" class="node"><title>Node14</title>
<g id="a_node16"><a xlink:href="group___m_e_m.html" target="_top" xlink:title="Memory (RAM/Flash)">
<polygon fill="none" stroke="black" points="313.498,-376 313.498,-394 424.502,-394 424.502,-376 313.498,-376"/>
<text text-anchor="middle" x="369" y="-382" font-family="Helvetica,sans-Serif" font-size="10.00">Memory (RAM/Flash)</text>
</a>
</g>
</g>
<!-- Node0&#45;&gt;Node14 -->
<g id="edge14" class="edge"><title>Node0&#45;&gt;Node14</title>
<path fill="none" stroke="midnightblue" d="M220.714,-463.667C238.417,-446.187 268.812,-418.84 300,-403 307.077,-399.405 314.945,-396.476 322.744,-394.105"/>
<polygon fill="midnightblue" stroke="midnightblue" points="218.071,-461.362 213.516,-470.927 223.042,-466.29 218.071,-461.362"/>
</g>
<!-- Node17 -->
<g id="node17" class="node"><title>Node17</title>
<g id="a_node17"><a xlink:href="group___q_e_i.html" target="_top" xlink:title="Quadrature Encoder\l Interface (QEI)">
<polygon fill="none" stroke="black" points="315.695,-329 315.695,-357 422.305,-357 422.305,-329 315.695,-329"/>
<text text-anchor="start" x="323.695" y="-345" font-family="Helvetica,sans-Serif" font-size="10.00">Quadrature Encoder</text>
<text text-anchor="middle" x="369" y="-335" font-family="Helvetica,sans-Serif" font-size="10.00"> Interface (QEI)</text>
</a>
</g>
</g>
<!-- Node0&#45;&gt;Node17 -->
<g id="edge17" class="edge"><title>Node0&#45;&gt;Node17</title>
<path fill="none" stroke="midnightblue" d="M215.465,-462.061C230.91,-437.085 262.111,-391.983 300,-366 305.036,-362.546 310.636,-359.572 316.399,-357.02"/>
<polygon fill="midnightblue" stroke="midnightblue" points="212.332,-460.48 210.169,-470.851 218.327,-464.092 212.332,-460.48"/>
</g>
<!-- Node16 -->
<g id="node18" class="node"><title>Node16</title>
<g id="a_node18"><a xlink:href="group___p_w_m.html" target="_top" xlink:title="Pulse Width Modulation\l (PWM)">
<polygon fill="none" stroke="black" points="308.473,-282 308.473,-310 429.527,-310 429.527,-282 308.473,-282"/>
<text text-anchor="start" x="316.473" y="-298" font-family="Helvetica,sans-Serif" font-size="10.00">Pulse Width Modulation</text>
<text text-anchor="middle" x="369" y="-288" font-family="Helvetica,sans-Serif" font-size="10.00"> (PWM)</text>
</a>
</g>
</g>
<!-- Node0&#45;&gt;Node16 -->
<g id="edge16" class="edge"><title>Node0&#45;&gt;Node16</title>
<path fill="none" stroke="midnightblue" d="M211.222,-460.937C223.117,-427.41 252.235,-357.779 300,-319 304.257,-315.544 309.06,-312.596 314.094,-310.084"/>
<polygon fill="midnightblue" stroke="midnightblue" points="207.765,-460.231 207.846,-470.826 214.389,-462.493 207.765,-460.231"/>
</g>
<!-- Node11 -->
<g id="node19" class="node"><title>Node11</title>
<g id="a_node19"><a xlink:href="group___g_p_i_o.html" target="_top" xlink:title="General Purpose Input\l/Output (GPIO)">
<polygon fill="none" stroke="black" points="310.69,-235 310.69,-263 427.31,-263 427.31,-235 310.69,-235"/>
<text text-anchor="start" x="318.69" y="-251" font-family="Helvetica,sans-Serif" font-size="10.00">General Purpose Input</text>
<text text-anchor="middle" x="369" y="-241" font-family="Helvetica,sans-Serif" font-size="10.00">/Output (GPIO)</text>
</a>
</g>
</g>
<!-- Node0&#45;&gt;Node11 -->
<g id="edge11" class="edge"><title>Node0&#45;&gt;Node11</title>
<path fill="none" stroke="midnightblue" d="M208.505,-460.57C216.872,-419.749 241.815,-324.518 300,-272 303.793,-268.576 308.115,-265.659 312.7,-263.175"/>
<polygon fill="midnightblue" stroke="midnightblue" points="205.036,-460.078 206.571,-470.561 211.908,-461.408 205.036,-460.078"/>
</g>
<!-- Node8 -->
<g id="node20" class="node"><title>Node8</title>
<g id="a_node20"><a xlink:href="group___e_m_c.html" target="_top" xlink:title="External Memory Controller\l (EMC)">
<polygon fill="none" stroke="black" points="300.148,-188 300.148,-216 437.852,-216 437.852,-188 300.148,-188"/>
<text text-anchor="start" x="308.148" y="-204" font-family="Helvetica,sans-Serif" font-size="10.00">External Memory Controller</text>
<text text-anchor="middle" x="369" y="-194" font-family="Helvetica,sans-Serif" font-size="10.00"> (EMC)</text>
</a>
</g>
</g>
<!-- Node0&#45;&gt;Node8 -->
<g id="edge8" class="edge"><title>Node0&#45;&gt;Node8</title>
<path fill="none" stroke="midnightblue" d="M206.66,-460.491C211.714,-413.282 231.079,-291.853 300,-225 303.578,-221.529 307.698,-218.581 312.104,-216.078"/>
<polygon fill="midnightblue" stroke="midnightblue" points="203.163,-460.292 205.682,-470.583 210.13,-460.968 203.163,-460.292"/>
</g>
<!-- Node22 -->
<g id="node21" class="node"><title>Node22</title>
<g id="a_node21"><a xlink:href="group___u_a_r_t.html" target="_top" xlink:title="Universal Asynchronous\l Receiver/Transmitter\l (UART)">
<polygon fill="none" stroke="black" points="307.36,-131 307.36,-169 430.64,-169 430.64,-131 307.36,-131"/>
<text text-anchor="start" x="315.36" y="-157" font-family="Helvetica,sans-Serif" font-size="10.00">Universal Asynchronous</text>
<text text-anchor="start" x="315.36" y="-147" font-family="Helvetica,sans-Serif" font-size="10.00"> Receiver/Transmitter</text>
<text text-anchor="middle" x="369" y="-137" font-family="Helvetica,sans-Serif" font-size="10.00"> (UART)</text>
</a>
</g>
</g>
<!-- Node0&#45;&gt;Node22 -->
<g id="edge22" class="edge"><title>Node0&#45;&gt;Node22</title>
<path fill="none" stroke="midnightblue" d="M205.641,-460.5C208.394,-407.996 222.956,-261.958 300,-178 303.021,-174.708 306.487,-171.792 310.22,-169.212"/>
<polygon fill="midnightblue" stroke="midnightblue" points="202.134,-460.599 205.198,-470.741 209.127,-460.902 202.134,-460.599"/>
</g>
<!-- Node7 -->
<g id="node22" class="node"><title>Node7</title>
<g id="a_node22"><a xlink:href="group___e_i_n_t.html" target="_top" xlink:title="External Interrupts\l (EINT)">
<polygon fill="none" stroke="black" points="320.148,-84 320.148,-112 417.852,-112 417.852,-84 320.148,-84"/>
<text text-anchor="start" x="328.148" y="-100" font-family="Helvetica,sans-Serif" font-size="10.00">External Interrupts</text>
<text text-anchor="middle" x="369" y="-90" font-family="Helvetica,sans-Serif" font-size="10.00"> (EINT)</text>
</a>
</g>
</g>
<!-- Node0&#45;&gt;Node7 -->
<g id="edge7" class="edge"><title>Node0&#45;&gt;Node7</title>
<path fill="none" stroke="midnightblue" d="M207.624,-461.054C217.203,-394.416 252.244,-172.091 300,-121 305.447,-115.173 312.42,-110.822 319.816,-107.573"/>
<polygon fill="midnightblue" stroke="midnightblue" points="204.153,-460.602 206.219,-470.993 211.084,-461.581 204.153,-460.602"/>
</g>
<!-- Node23 -->
<g id="node23" class="node"><title>Node23</title>
<g id="a_node23"><a xlink:href="group___u_s_b.html" target="_top" xlink:title="Universal Serial Bus\l (USB)">
<polygon fill="none" stroke="black" points="315.983,-37 315.983,-65 422.017,-65 422.017,-37 315.983,-37"/>
<text text-anchor="start" x="323.983" y="-53" font-family="Helvetica,sans-Serif" font-size="10.00">Universal Serial Bus</text>
<text text-anchor="middle" x="369" y="-43" font-family="Helvetica,sans-Serif" font-size="10.00"> (USB)</text>
</a>
</g>
</g>
<!-- Node0&#45;&gt;Node23 -->
<g id="edge23" class="edge"><title>Node0&#45;&gt;Node23</title>
<path fill="none" stroke="midnightblue" d="M207.011,-460.953C214.995,-388.714 246.647,-132.755 300,-74 304.44,-69.1101 309.957,-65.259 315.913,-62.2263"/>
<polygon fill="midnightblue" stroke="midnightblue" points="203.529,-460.593 205.933,-470.911 210.489,-461.346 203.529,-460.593"/>
</g>
<!-- Node10 -->
<g id="node24" class="node"><title>Node10</title>
<g id="a_node24"><a xlink:href="group___f_l_a_s_h.html" target="_top" xlink:title="Flash Memory">
<polygon fill="none" stroke="black" points="329.328,-0 329.328,-18 408.672,-18 408.672,-0 329.328,-0"/>
<text text-anchor="middle" x="369" y="-6" font-family="Helvetica,sans-Serif" font-size="10.00">Flash Memory</text>
</a>
</g>
</g>
<!-- Node0&#45;&gt;Node10 -->
<g id="edge10" class="edge"><title>Node0&#45;&gt;Node10</title>
<path fill="none" stroke="midnightblue" d="M206.402,-460.681C212.45,-382.598 238.828,-91.4426 300,-27 307.651,-18.94 318.455,-14.3358 329.204,-11.7488"/>
<polygon fill="midnightblue" stroke="midnightblue" points="202.888,-460.728 205.629,-470.962 209.869,-461.252 202.888,-460.728"/>
</g>
<!-- Node1 -->
<g id="node15" class="node"><title>Node1</title>
<g id="a_node15"><a xlink:href="group___h_w_p_l.html" target="_top" xlink:title="Hardware Peripheral\l Library">
<polygon fill="none" stroke="black" points="0.145508,-466 0.145508,-494 107.854,-494 107.854,-466 0.145508,-466"/>
<text text-anchor="start" x="8.14551" y="-482" font-family="Helvetica,sans-Serif" font-size="10.00">Hardware Peripheral</text>
<text text-anchor="middle" x="54" y="-472" font-family="Helvetica,sans-Serif" font-size="10.00"> Library</text>
</a>
</g>
</g>
<!-- Node1&#45;&gt;Node0 -->
<g id="edge1" class="edge"><title>Node1&#45;&gt;Node0</title>
<path fill="none" stroke="midnightblue" d="M118.033,-480C126.673,-480 135.516,-480 144.079,-480"/>
<polygon fill="midnightblue" stroke="midnightblue" points="118.013,-476.5 108.013,-480 118.013,-483.5 118.013,-476.5"/>
</g>
</g>
</svg>
