<?xml version="1.0" encoding="UTF-8" standalone="no"?>
<!DOCTYPE svg PUBLIC "-//W3C//DTD SVG 1.1//EN"
 "http://www.w3.org/Graphics/SVG/1.1/DTD/svg11.dtd">
<!-- Generated by graphviz version 2.34.0 (20130907.0228)
 -->
<!-- Title: CoActionOS Pages: 1 -->
<svg width="216pt" height="106pt"
 viewBox="0.00 0.00 216.00 106.00" xmlns="http://www.w3.org/2000/svg" xmlns:xlink="http://www.w3.org/1999/xlink">
<g id="graph0" class="graph" transform="scale(1 1) rotate(0) translate(4 102)">
<title>CoActionOS</title>
<!-- Node3 -->
<g id="node1" class="node"><title>Node3</title>
<g id="a_node1"><a xlink:href="group___p_o_s_i_x.html" target="_top" xlink:title="POSIX">
<polygon fill="none" stroke="black" points="134.717,-78 134.717,-98 181.283,-98 181.283,-78 134.717,-78"/>
<text text-anchor="middle" x="158" y="-84" font-family="Helvetica,sans-Serif" font-size="10.00">POSIX</text>
</a>
</g>
</g>
<!-- Node1 -->
<g id="node2" class="node"><title>Node1</title>
<g id="a_node2"><a xlink:href="group___l_i_n_k.html" target="_top" xlink:title="USB Link">
<polygon fill="none" stroke="black" points="129.158,-39 129.158,-59 186.842,-59 186.842,-39 129.158,-39"/>
<text text-anchor="middle" x="158" y="-45" font-family="Helvetica,sans-Serif" font-size="10.00">USB Link</text>
</a>
</g>
</g>
<!-- Node2 -->
<g id="node3" class="node"><title>Node2</title>
<g id="a_node3"><a xlink:href="group___s_t_d_c.html" target="_top" xlink:title="C Standard Library">
<polygon fill="none" stroke="black" points="108.035,-0 108.035,-20 207.965,-20 207.965,-0 108.035,-0"/>
<text text-anchor="middle" x="158" y="-6" font-family="Helvetica,sans-Serif" font-size="10.00">C Standard Library</text>
</a>
</g>
</g>
<!-- Node0 -->
<g id="node4" class="node"><title>Node0</title>
<polygon fill="#bfbfbf" stroke="black" points="0.487793,-39 0.487793,-59 71.5122,-59 71.5122,-39 0.487793,-39"/>
<text text-anchor="middle" x="36" y="-45" font-family="Helvetica,sans-Serif" font-size="10.00">CoActionOS</text>
</g>
<!-- Node0&#45;&gt;Node3 -->
<g id="edge3" class="edge"><title>Node0&#45;&gt;Node3</title>
<path fill="none" stroke="midnightblue" d="M77.5413,-62.1759C96.5732,-68.3613 118.534,-75.4986 134.539,-80.7001"/>
<polygon fill="midnightblue" stroke="midnightblue" points="78.4952,-58.8058 67.903,-59.0435 76.3315,-65.463 78.4952,-58.8058"/>
</g>
<!-- Node0&#45;&gt;Node1 -->
<g id="edge1" class="edge"><title>Node0&#45;&gt;Node1</title>
<path fill="none" stroke="midnightblue" d="M81.8007,-49C97.5619,-49 114.821,-49 128.825,-49"/>
<polygon fill="midnightblue" stroke="midnightblue" points="81.709,-45.5001 71.709,-49 81.7089,-52.5001 81.709,-45.5001"/>
</g>
<!-- Node0&#45;&gt;Node2 -->
<g id="edge2" class="edge"><title>Node0&#45;&gt;Node2</title>
<path fill="none" stroke="midnightblue" d="M77.4994,-35.8377C93.4128,-30.6659 111.379,-24.8267 126.202,-20.0094"/>
<polygon fill="midnightblue" stroke="midnightblue" points="76.3315,-32.537 67.903,-38.9565 78.4952,-39.1942 76.3315,-32.537"/>
</g>
</g>
</svg>
