<?xml version="1.0" encoding="UTF-8" standalone="no"?>
<!DOCTYPE svg PUBLIC "-//W3C//DTD SVG 1.1//EN"
 "http://www.w3.org/Graphics/SVG/1.1/DTD/svg11.dtd">
<!-- Generated by graphviz version 2.36.0 (20140111.2315)
 -->
<!-- Title: Layer Pages: 1 -->
<svg width="198pt" height="63pt"
 viewBox="0.00 0.00 198.00 63.00" xmlns="http://www.w3.org/2000/svg" xmlns:xlink="http://www.w3.org/1999/xlink">
<g id="graph0" class="graph" transform="scale(1 1) rotate(0) translate(4 59)">
<title>Layer</title>
<!-- Node0 -->
<g id="node1" class="node"><title>Node0</title>
<polygon fill="#bfbfbf" stroke="black" points="0.492676,-18 0.492676,-36 41.5073,-36 41.5073,-18 0.492676,-18"/>
<text text-anchor="middle" x="21" y="-24" font-family="Helvetica,sans-Serif" font-size="10.00">Layer</text>
</g>
<!-- Node2 -->
<g id="node2" class="node"><title>Node2</title>
<g id="a_node2"><a xlink:href="group___b_o_o_t_l_o_a_d_e_r.html" target="_top" xlink:title="Bootloader Functions">
<polygon fill="none" stroke="black" points="78.749,-37 78.749,-55 189.251,-55 189.251,-37 78.749,-37"/>
<text text-anchor="middle" x="134" y="-43" font-family="Helvetica,sans-Serif" font-size="10.00">Bootloader Functions</text>
</a>
</g>
</g>
<!-- Node0&#45;&gt;Node2 -->
<g id="edge2" class="edge"><title>Node0&#45;&gt;Node2</title>
<path fill="none" stroke="black" d="M51.6989,-32.0836C60.5084,-33.5915 70.4336,-35.2904 80.2441,-36.9697"/>
<polygon fill="black" stroke="black" points="52.0362,-28.5905 41.5891,-30.3531 50.8552,-35.4902 52.0362,-28.5905"/>
</g>
<!-- Node1 -->
<g id="node3" class="node"><title>Node1</title>
<g id="a_node3"><a xlink:href="group___u_s_b___h_a_n_d_l_e.html" target="_top" xlink:title="Device Handling">
<polygon fill="none" stroke="black" points="89.5913,-0 89.5913,-18 178.409,-18 178.409,-0 89.5913,-0"/>
<text text-anchor="middle" x="134" y="-6" font-family="Helvetica,sans-Serif" font-size="10.00">Device Handling</text>
</a>
</g>
</g>
<!-- Node0&#45;&gt;Node1 -->
<g id="edge1" class="edge"><title>Node0&#45;&gt;Node1</title>
<path fill="none" stroke="black" d="M51.5687,-22.2051C63.1134,-20.333 76.5892,-18.1477 89.217,-16.0999"/>
<polygon fill="black" stroke="black" points="50.8998,-18.7677 41.5891,-23.8234 52.0204,-25.6775 50.8998,-18.7677"/>
</g>
</g>
</svg>
