<?xml version="1.0" encoding="UTF-8" standalone="no"?>
<!DOCTYPE svg PUBLIC "-//W3C//DTD SVG 1.1//EN"
 "http://www.w3.org/Graphics/SVG/1.1/DTD/svg11.dtd">
<!-- Generated by graphviz version 2.34.0 (20130907.0228)
 -->
<!-- Title: Hardware Device Library Pages: 1 -->
<svg width="272pt" height="496pt"
 viewBox="0.00 0.00 272.00 496.00" xmlns="http://www.w3.org/2000/svg" xmlns:xlink="http://www.w3.org/1999/xlink">
<g id="graph0" class="graph" transform="scale(1 1) rotate(0) translate(4 492)">
<title>Hardware Device Library</title>
<!-- Node5 -->
<g id="node1" class="node"><title>Node5</title>
<g id="a_node1"><a xlink:href="group___f_r_e_e_s_c_a_l_e.html" target="_top" xlink:title="Freescale">
<polygon fill="none" stroke="black" points="183.047,-468 183.047,-488 242.953,-488 242.953,-468 183.047,-468"/>
<text text-anchor="middle" x="213" y="-474" font-family="Helvetica,sans-Serif" font-size="10.00">Freescale</text>
</a>
</g>
</g>
<!-- Node1 -->
<g id="node2" class="node"><title>Node1</title>
<g id="a_node2"><a xlink:href="group___a_n_a_l_o_g.html" target="_top" xlink:title="Analog Devices">
<polygon fill="none" stroke="black" points="170.259,-429 170.259,-449 255.741,-449 255.741,-429 170.259,-429"/>
<text text-anchor="middle" x="213" y="-435" font-family="Helvetica,sans-Serif" font-size="10.00">Analog Devices</text>
</a>
</g>
</g>
<!-- Node9 -->
<g id="node3" class="node"><title>Node9</title>
<g id="a_node3"><a xlink:href="group___n_x_p.html" target="_top" xlink:title="NXP">
<polygon fill="none" stroke="black" points="194.719,-390 194.719,-410 231.281,-410 231.281,-390 194.719,-390"/>
<text text-anchor="middle" x="213" y="-396" font-family="Helvetica,sans-Serif" font-size="10.00">NXP</text>
</a>
</g>
</g>
<!-- Node6 -->
<g id="node4" class="node"><title>Node6</title>
<g id="a_node4"><a xlink:href="group___g_a_r_m_i_n.html" target="_top" xlink:title="Garmin">
<polygon fill="none" stroke="black" points="188.608,-351 188.608,-371 237.392,-371 237.392,-351 188.608,-351"/>
<text text-anchor="middle" x="213" y="-357" font-family="Helvetica,sans-Serif" font-size="10.00">Garmin</text>
</a>
</g>
</g>
<!-- Node11 -->
<g id="node5" class="node"><title>Node11</title>
<g id="a_node5"><a xlink:href="group___s_t.html" target="_top" xlink:title="STMicroelectronics">
<polygon fill="none" stroke="black" points="162.49,-312 162.49,-332 263.51,-332 263.51,-312 162.49,-312"/>
<text text-anchor="middle" x="213" y="-318" font-family="Helvetica,sans-Serif" font-size="10.00">STMicroelectronics</text>
</a>
</g>
</g>
<!-- Node12 -->
<g id="node6" class="node"><title>Node12</title>
<g id="a_node6"><a xlink:href="group___t_i.html" target="_top" xlink:title="Texas Instruments">
<polygon fill="none" stroke="black" points="164.429,-273 164.429,-293 261.571,-293 261.571,-273 164.429,-273"/>
<text text-anchor="middle" x="213" y="-279" font-family="Helvetica,sans-Serif" font-size="10.00">Texas Instruments</text>
</a>
</g>
</g>
<!-- Node8 -->
<g id="node7" class="node"><title>Node8</title>
<g id="a_node7"><a xlink:href="group___m_i_c_r_o_c_h_i_p.html" target="_top" xlink:title="Microchip">
<polygon fill="none" stroke="black" points="183.606,-234 183.606,-254 242.394,-254 242.394,-234 183.606,-234"/>
<text text-anchor="middle" x="213" y="-240" font-family="Helvetica,sans-Serif" font-size="10.00">Microchip</text>
</a>
</g>
</g>
<!-- Node0 -->
<g id="node8" class="node"><title>Node0</title>
<polygon fill="#bfbfbf" stroke="black" points="-0.0195312,-234 -0.0195312,-254 126.02,-254 126.02,-234 -0.0195312,-234"/>
<text text-anchor="middle" x="63" y="-240" font-family="Helvetica,sans-Serif" font-size="10.00">Hardware Device Library</text>
</g>
<!-- Node0&#45;&gt;Node5 -->
<g id="edge5" class="edge"><title>Node0&#45;&gt;Node5</title>
<path fill="none" stroke="midnightblue" d="M67.935,-264.051C77.1101,-305.742 103.719,-402.503 162,-458 167.823,-463.545 175.376,-467.621 182.84,-470.59"/>
<polygon fill="midnightblue" stroke="midnightblue" points="71.3154,-263.117 65.84,-254.047 64.4641,-264.552 71.3154,-263.117"/>
</g>
<!-- Node0&#45;&gt;Node1 -->
<g id="edge1" class="edge"><title>Node0&#45;&gt;Node1</title>
<path fill="none" stroke="midnightblue" d="M70.2084,-264.018C82.2811,-299.85 112.196,-375.283 162,-419 166.567,-423.009 172.038,-426.271 177.66,-428.908"/>
<polygon fill="midnightblue" stroke="midnightblue" points="73.4524,-262.676 67.0322,-254.248 66.7954,-264.84 73.4524,-262.676"/>
</g>
<!-- Node0&#45;&gt;Node9 -->
<g id="edge9" class="edge"><title>Node0&#45;&gt;Node9</title>
<path fill="none" stroke="midnightblue" d="M73.2518,-263.114C88.172,-292.111 120.158,-347.294 162,-380 171.576,-387.485 184.32,-392.525 194.545,-395.674"/>
<polygon fill="midnightblue" stroke="midnightblue" points="76.3081,-261.4 68.6979,-254.029 70.0502,-264.537 76.3081,-261.4"/>
</g>
<!-- Node0&#45;&gt;Node6 -->
<g id="edge6" class="edge"><title>Node0&#45;&gt;Node6</title>
<path fill="none" stroke="midnightblue" d="M78.3425,-262.07C96.0587,-283.386 128.042,-318.733 162,-341 170.053,-346.28 179.72,-350.549 188.398,-353.766"/>
<polygon fill="midnightblue" stroke="midnightblue" points="80.8977,-259.665 71.8644,-254.129 75.4737,-264.09 80.8977,-259.665"/>
</g>
<!-- Node0&#45;&gt;Node11 -->
<g id="edge11" class="edge"><title>Node0&#45;&gt;Node11</title>
<path fill="none" stroke="midnightblue" d="M88.0854,-259.67C107.577,-272.002 135.969,-289.185 162,-302 169.214,-305.551 177.223,-308.973 184.68,-311.953"/>
<polygon fill="midnightblue" stroke="midnightblue" points="89.8513,-256.645 79.5394,-254.213 86.0839,-262.545 89.8513,-256.645"/>
</g>
<!-- Node0&#45;&gt;Node12 -->
<g id="edge12" class="edge"><title>Node0&#45;&gt;Node12</title>
<path fill="none" stroke="midnightblue" d="M112.014,-256.652C132.108,-261.947 155.131,-268.014 174.015,-272.991"/>
<polygon fill="midnightblue" stroke="midnightblue" points="112.675,-253.207 102.114,-254.043 110.892,-259.976 112.675,-253.207"/>
</g>
<!-- Node0&#45;&gt;Node8 -->
<g id="edge8" class="edge"><title>Node0&#45;&gt;Node8</title>
<path fill="none" stroke="midnightblue" d="M136.673,-244C153.343,-244 170.101,-244 183.565,-244"/>
<polygon fill="midnightblue" stroke="midnightblue" points="136.336,-240.5 126.336,-244 136.336,-247.5 136.336,-240.5"/>
</g>
<!-- Node2 -->
<g id="node9" class="node"><title>Node2</title>
<g id="a_node9"><a xlink:href="group___a_t_m_e_l.html" target="_top" xlink:title="Atmel">
<polygon fill="none" stroke="black" points="192.219,-195 192.219,-215 233.781,-215 233.781,-195 192.219,-195"/>
<text text-anchor="middle" x="213" y="-201" font-family="Helvetica,sans-Serif" font-size="10.00">Atmel</text>
</a>
</g>
</g>
<!-- Node0&#45;&gt;Node2 -->
<g id="edge2" class="edge"><title>Node0&#45;&gt;Node2</title>
<path fill="none" stroke="midnightblue" d="M111.867,-231.387C139.092,-224.212 171.733,-215.611 192.174,-210.224"/>
<polygon fill="midnightblue" stroke="midnightblue" points="110.892,-228.024 102.114,-233.957 112.675,-234.793 110.892,-228.024"/>
</g>
<!-- Node10 -->
<g id="node10" class="node"><title>Node10</title>
<g id="a_node10"><a xlink:href="group___s_y_s.html" target="_top" xlink:title="System">
<polygon fill="none" stroke="black" points="188.33,-156 188.33,-176 237.67,-176 237.67,-156 188.33,-156"/>
<text text-anchor="middle" x="213" y="-162" font-family="Helvetica,sans-Serif" font-size="10.00">System</text>
</a>
</g>
</g>
<!-- Node0&#45;&gt;Node10 -->
<g id="edge10" class="edge"><title>Node0&#45;&gt;Node10</title>
<path fill="none" stroke="midnightblue" d="M88.0854,-228.33C107.577,-215.998 135.969,-198.815 162,-186 170.388,-181.871 179.852,-177.916 188.272,-174.629"/>
<polygon fill="midnightblue" stroke="midnightblue" points="86.0839,-225.455 79.5394,-233.787 89.8513,-231.355 86.0839,-225.455"/>
</g>
<!-- Node3 -->
<g id="node11" class="node"><title>Node3</title>
<g id="a_node11"><a xlink:href="group___b_o_s_c_h.html" target="_top" xlink:title="Bosch Sensortec">
<polygon fill="none" stroke="black" points="167.202,-117 167.202,-137 258.798,-137 258.798,-117 167.202,-117"/>
<text text-anchor="middle" x="213" y="-123" font-family="Helvetica,sans-Serif" font-size="10.00">Bosch Sensortec</text>
</a>
</g>
</g>
<!-- Node0&#45;&gt;Node3 -->
<g id="edge3" class="edge"><title>Node0&#45;&gt;Node3</title>
<path fill="none" stroke="midnightblue" d="M78.3425,-225.93C96.0587,-204.614 128.042,-169.267 162,-147 167.864,-143.155 174.583,-139.846 181.154,-137.09"/>
<polygon fill="midnightblue" stroke="midnightblue" points="75.4737,-223.91 71.8644,-233.871 80.8977,-228.335 75.4737,-223.91"/>
</g>
<!-- Node7 -->
<g id="node12" class="node"><title>Node7</title>
<g id="a_node12"><a xlink:href="group___m_a_x_i_m.html" target="_top" xlink:title="Maxim">
<polygon fill="none" stroke="black" points="190.278,-78 190.278,-98 235.722,-98 235.722,-78 190.278,-78"/>
<text text-anchor="middle" x="213" y="-84" font-family="Helvetica,sans-Serif" font-size="10.00">Maxim</text>
</a>
</g>
</g>
<!-- Node0&#45;&gt;Node7 -->
<g id="edge7" class="edge"><title>Node0&#45;&gt;Node7</title>
<path fill="none" stroke="midnightblue" d="M73.2518,-224.886C88.172,-195.889 120.158,-140.706 162,-108 170.25,-101.551 180.852,-96.9173 190.168,-93.7442"/>
<polygon fill="midnightblue" stroke="midnightblue" points="70.0502,-223.463 68.6979,-233.971 76.3081,-226.6 70.0502,-223.463"/>
</g>
<!-- Node4 -->
<g id="node13" class="node"><title>Node4</title>
<g id="a_node13"><a xlink:href="group___d_i_g_i.html" target="_top" xlink:title="Digi International">
<polygon fill="none" stroke="black" points="167.478,-39 167.478,-59 258.522,-59 258.522,-39 167.478,-39"/>
<text text-anchor="middle" x="213" y="-45" font-family="Helvetica,sans-Serif" font-size="10.00">Digi International</text>
</a>
</g>
</g>
<!-- Node0&#45;&gt;Node4 -->
<g id="edge4" class="edge"><title>Node0&#45;&gt;Node4</title>
<path fill="none" stroke="midnightblue" d="M70.2084,-223.982C82.2811,-188.15 112.196,-112.717 162,-69 166.567,-64.9911 172.038,-61.7285 177.66,-59.0918"/>
<polygon fill="midnightblue" stroke="midnightblue" points="66.7954,-223.16 67.0322,-233.752 73.4524,-225.324 66.7954,-223.16"/>
</g>
<!-- Node13 -->
<g id="node14" class="node"><title>Node13</title>
<g id="a_node14"><a xlink:href="group___v_i_s_h_a_y.html" target="_top" xlink:title="Vishay">
<polygon fill="none" stroke="black" points="190.081,-0 190.081,-20 235.919,-20 235.919,-0 190.081,-0"/>
<text text-anchor="middle" x="213" y="-6" font-family="Helvetica,sans-Serif" font-size="10.00">Vishay</text>
</a>
</g>
</g>
<!-- Node0&#45;&gt;Node13 -->
<g id="edge13" class="edge"><title>Node0&#45;&gt;Node13</title>
<path fill="none" stroke="midnightblue" d="M67.935,-223.949C77.1101,-182.258 103.719,-85.4969 162,-30 169.719,-22.6502 180.478,-17.8802 190.039,-14.85"/>
<polygon fill="midnightblue" stroke="midnightblue" points="64.4641,-223.448 65.84,-233.953 71.3154,-224.883 64.4641,-223.448"/>
</g>
</g>
</svg>
