<?xml version="1.0" encoding="UTF-8" standalone="no"?>
<!DOCTYPE svg PUBLIC "-//W3C//DTD SVG 1.1//EN"
 "http://www.w3.org/Graphics/SVG/1.1/DTD/svg11.dtd">
<!-- Generated by graphviz version 2.36.0 (20140111.2315)
 -->
<!-- Title: Architectures Pages: 1 -->
<svg width="326pt" height="26pt"
 viewBox="0.00 0.00 326.00 26.00" xmlns="http://www.w3.org/2000/svg" xmlns:xlink="http://www.w3.org/1999/xlink">
<g id="graph0" class="graph" transform="scale(1 1) rotate(0) translate(4 22)">
<title>Architectures</title>
<!-- Node0 -->
<g id="node1" class="node"><title>Node0</title>
<polygon fill="#bfbfbf" stroke="black" points="99.8228,-0 99.8228,-18 174.177,-18 174.177,-0 99.8228,-0"/>
<text text-anchor="middle" x="137" y="-6" font-family="Helvetica,sans-Serif" font-size="10.00">Architectures</text>
</g>
<!-- Node2 -->
<g id="node3" class="node"><title>Node2</title>
<g id="a_node3"><a xlink:href="group___l_i_n_k___l_a_y_e_r.html" target="_top" xlink:title="Link Transport Layer">
<polygon fill="none" stroke="black" points="210.417,-0 210.417,-18 317.583,-18 317.583,-0 210.417,-0"/>
<text text-anchor="middle" x="264" y="-6" font-family="Helvetica,sans-Serif" font-size="10.00">Link Transport Layer</text>
</a>
</g>
</g>
<!-- Node0&#45;&gt;Node2 -->
<g id="edge2" class="edge"><title>Node0&#45;&gt;Node2</title>
<path fill="none" stroke="black" d="M184.68,-9C192.927,-9 201.567,-9 209.973,-9"/>
<polygon fill="black" stroke="black" points="184.491,-5.5001 174.491,-9 184.491,-12.5001 184.491,-5.5001"/>
</g>
<!-- Node1 -->
<g id="node2" class="node"><title>Node1</title>
<g id="a_node2"><a xlink:href="group___s_t_f_y.html" target="_top" xlink:title="Stratify OS">
<polygon fill="none" stroke="black" points="-0.172363,-0 -0.172363,-18 64.1724,-18 64.1724,-0 -0.172363,-0"/>
<text text-anchor="middle" x="32" y="-6" font-family="Helvetica,sans-Serif" font-size="10.00">Stratify OS</text>
</a>
</g>
</g>
<!-- Node1&#45;&gt;Node0 -->
<g id="edge1" class="edge"><title>Node1&#45;&gt;Node0</title>
<path fill="none" stroke="black" d="M74.4274,-9C82.7222,-9 91.3798,-9 99.4935,-9"/>
<polygon fill="black" stroke="black" points="74.1829,-5.5001 64.1829,-9 74.1829,-12.5001 74.1829,-5.5001"/>
</g>
</g>
</svg>
