<?xml version="1.0" encoding="UTF-8" standalone="no"?>
<!DOCTYPE svg PUBLIC "-//W3C//DTD SVG 1.1//EN"
 "http://www.w3.org/Graphics/SVG/1.1/DTD/svg11.dtd">
<!-- Generated by graphviz version 2.36.0 (20140111.2315)
 -->
<!-- Title: src/sys/time/hibernate.c Pages: 1 -->
<svg width="849pt" height="140pt"
 viewBox="0.00 0.00 849.00 140.00" xmlns="http://www.w3.org/2000/svg" xmlns:xlink="http://www.w3.org/1999/xlink">
<g id="graph0" class="graph" transform="scale(1 1) rotate(0) translate(4 136)">
<title>src/sys/time/hibernate.c</title>
<!-- Node1 -->
<g id="node1" class="node"><title>Node1</title>
<polygon fill="#bfbfbf" stroke="black" points="360.483,-113 360.483,-131 481.517,-131 481.517,-113 360.483,-113"/>
<text text-anchor="middle" x="421" y="-119" font-family="Helvetica,sans-Serif" font-size="10.00">src/sys/time/hibernate.c</text>
</g>
<!-- Node2 -->
<g id="node2" class="node"><title>Node2</title>
<g id="a_node2"><a xlink:href="config_8h.html" target="_top" xlink:title="config.h">
<polygon fill="none" stroke="black" points="10.4878,-57 10.4878,-75 61.5122,-75 61.5122,-57 10.4878,-57"/>
<text text-anchor="middle" x="36" y="-63" font-family="Helvetica,sans-Serif" font-size="10.00">config.h</text>
</a>
</g>
</g>
<!-- Node1&#45;&gt;Node2 -->
<g id="edge1" class="edge"><title>Node1&#45;&gt;Node2</title>
<path fill="none" stroke="midnightblue" d="M360.368,-115.666C292.219,-109.125 178.159,-96.5434 71.5021,-76.0836"/>
<polygon fill="midnightblue" stroke="midnightblue" points="72.0208,-72.6189 61.5364,-74.1443 70.6837,-79.4901 72.0208,-72.6189"/>
</g>
<!-- Node5 -->
<g id="node5" class="node"><title>Node5</title>
<polygon fill="none" stroke="#bfbfbf" points="79.1577,-57 79.1577,-75 126.842,-75 126.842,-57 79.1577,-57"/>
<text text-anchor="middle" x="103" y="-63" font-family="Helvetica,sans-Serif" font-size="10.00">errno.h</text>
</g>
<!-- Node1&#45;&gt;Node5 -->
<g id="edge4" class="edge"><title>Node1&#45;&gt;Node5</title>
<path fill="none" stroke="midnightblue" d="M360.321,-113.383C304.586,-105.943 219.551,-93.473 136.882,-75.9935"/>
<polygon fill="midnightblue" stroke="midnightblue" points="137.587,-72.5652 127.076,-73.8937 136.121,-79.41 137.587,-72.5652"/>
</g>
<!-- Node6 -->
<g id="node6" class="node"><title>Node6</title>
<polygon fill="none" stroke="#bfbfbf" points="144.707,-57 144.707,-75 201.293,-75 201.293,-57 144.707,-57"/>
<text text-anchor="middle" x="173" y="-63" font-family="Helvetica,sans-Serif" font-size="10.00">stdbool.h</text>
</g>
<!-- Node1&#45;&gt;Node6 -->
<g id="edge5" class="edge"><title>Node1&#45;&gt;Node6</title>
<path fill="none" stroke="midnightblue" d="M381.649,-112.957C341.286,-104.629 276.429,-91.0348 211.638,-76.3304"/>
<polygon fill="midnightblue" stroke="midnightblue" points="212.192,-72.8669 201.664,-74.0577 210.637,-79.692 212.192,-72.8669"/>
</g>
<!-- Node7 -->
<g id="node7" class="node"><title>Node7</title>
<polygon fill="none" stroke="#bfbfbf" points="219.495,-57 219.495,-75 280.505,-75 280.505,-57 219.495,-57"/>
<text text-anchor="middle" x="250" y="-63" font-family="Helvetica,sans-Serif" font-size="10.00">sys/time.h</text>
</g>
<!-- Node1&#45;&gt;Node7 -->
<g id="edge6" class="edge"><title>Node1&#45;&gt;Node7</title>
<path fill="none" stroke="midnightblue" d="M395.4,-112.916C366.1,-103.663 317.942,-88.4553 285.144,-78.098"/>
<polygon fill="midnightblue" stroke="midnightblue" points="286.086,-74.7251 275.496,-75.0513 283.978,-81.4002 286.086,-74.7251"/>
</g>
<!-- Node8 -->
<g id="node8" class="node"><title>Node8</title>
<polygon fill="none" stroke="#bfbfbf" points="532.384,-1 532.384,-19 575.616,-19 575.616,-1 532.384,-1"/>
<text text-anchor="middle" x="554" y="-7" font-family="Helvetica,sans-Serif" font-size="10.00">time.h</text>
</g>
<!-- Node1&#45;&gt;Node8 -->
<g id="edge7" class="edge"><title>Node1&#45;&gt;Node8</title>
<path fill="none" stroke="midnightblue" d="M481.642,-119.079C549.571,-115.5 653.416,-105.263 678,-76 706.575,-41.9872 631.149,-23.4099 585.654,-15.5644"/>
<polygon fill="midnightblue" stroke="midnightblue" points="586.065,-12.0851 575.631,-13.9241 584.935,-18.9933 586.065,-12.0851"/>
</g>
<!-- Node9 -->
<g id="node9" class="node"><title>Node9</title>
<polygon fill="none" stroke="#bfbfbf" points="395.488,-57 395.488,-75 446.512,-75 446.512,-57 395.488,-57"/>
<text text-anchor="middle" x="421" y="-63" font-family="Helvetica,sans-Serif" font-size="10.00">unistd.h</text>
</g>
<!-- Node1&#45;&gt;Node9 -->
<g id="edge8" class="edge"><title>Node1&#45;&gt;Node9</title>
<path fill="none" stroke="midnightblue" d="M421,-112.562C421,-105.308 421,-94.5884 421,-85.3691"/>
<polygon fill="midnightblue" stroke="midnightblue" points="424.5,-85.2014 421,-75.2014 417.5,-85.2015 424.5,-85.2014"/>
</g>
<!-- Node10 -->
<g id="node10" class="node"><title>Node10</title>
<polygon fill="none" stroke="#bfbfbf" points="464.66,-57 464.66,-75 507.34,-75 507.34,-57 464.66,-57"/>
<text text-anchor="middle" x="486" y="-63" font-family="Helvetica,sans-Serif" font-size="10.00">fcntl.h</text>
</g>
<!-- Node1&#45;&gt;Node10 -->
<g id="edge9" class="edge"><title>Node1&#45;&gt;Node10</title>
<path fill="none" stroke="midnightblue" d="M430.872,-112.799C440.703,-104.631 456.018,-91.9083 468.013,-81.943"/>
<polygon fill="midnightblue" stroke="midnightblue" points="470.58,-84.361 476.035,-75.2786 466.106,-78.9767 470.58,-84.361"/>
</g>
<!-- Node11 -->
<g id="node11" class="node"><title>Node11</title>
<polygon fill="none" stroke="#bfbfbf" points="525.549,-57 525.549,-75 590.451,-75 590.451,-57 525.549,-57"/>
<text text-anchor="middle" x="558" y="-63" font-family="Helvetica,sans-Serif" font-size="10.00">mcu/mcu.h</text>
</g>
<!-- Node1&#45;&gt;Node11 -->
<g id="edge10" class="edge"><title>Node1&#45;&gt;Node11</title>
<path fill="none" stroke="midnightblue" d="M441.51,-112.916C464.412,-103.889 501.695,-89.1931 527.901,-78.8637"/>
<polygon fill="midnightblue" stroke="midnightblue" points="529.33,-82.0629 537.35,-75.1396 526.763,-75.5505 529.33,-82.0629"/>
</g>
<!-- Node12 -->
<g id="node12" class="node"><title>Node12</title>
<polygon fill="none" stroke="#bfbfbf" points="608.214,-57 608.214,-75 669.786,-75 669.786,-57 608.214,-57"/>
<text text-anchor="middle" x="639" y="-63" font-family="Helvetica,sans-Serif" font-size="10.00">mcu/wdt.h</text>
</g>
<!-- Node1&#45;&gt;Node12 -->
<g id="edge11" class="edge"><title>Node1&#45;&gt;Node12</title>
<path fill="none" stroke="midnightblue" d="M453.637,-112.916C492.152,-103.375 556.232,-87.5022 598.046,-77.1446"/>
<polygon fill="midnightblue" stroke="midnightblue" points="599.043,-80.5035 607.908,-74.7017 597.36,-73.7088 599.043,-80.5035"/>
</g>
<!-- Node13 -->
<g id="node13" class="node"><title>Node13</title>
<g id="a_node13"><a xlink:href="rtc_8h.html" target="_top" xlink:title="Real Time Clock Header File. ">
<polygon fill="none" stroke="black" points="298.875,-57 298.875,-75 377.125,-75 377.125,-57 298.875,-57"/>
<text text-anchor="middle" x="338" y="-63" font-family="Helvetica,sans-Serif" font-size="10.00">iface/dev/rtc.h</text>
</a>
</g>
</g>
<!-- Node1&#45;&gt;Node13 -->
<g id="edge12" class="edge"><title>Node1&#45;&gt;Node13</title>
<path fill="none" stroke="midnightblue" d="M408.394,-112.799C395.277,-104.265 374.516,-90.7573 358.932,-80.6187"/>
<polygon fill="midnightblue" stroke="midnightblue" points="360.743,-77.6214 350.453,-75.1017 356.926,-83.4889 360.743,-77.6214"/>
</g>
<!-- Node15 -->
<g id="node15" class="node"><title>Node15</title>
<polygon fill="none" stroke="#bfbfbf" points="726.247,-57 726.247,-75 841.753,-75 841.753,-57 726.247,-57"/>
<text text-anchor="middle" x="784" y="-63" font-family="Helvetica,sans-Serif" font-size="10.00">../sched/sched_flags.h</text>
</g>
<!-- Node1&#45;&gt;Node15 -->
<g id="edge16" class="edge"><title>Node1&#45;&gt;Node15</title>
<path fill="none" stroke="midnightblue" d="M474.953,-112.974C540.367,-103.243 650.478,-86.8628 720.082,-76.5084"/>
<polygon fill="midnightblue" stroke="midnightblue" points="720.671,-79.9594 730.048,-75.026 719.641,-73.0356 720.671,-79.9594"/>
</g>
<!-- Node3 -->
<g id="node3" class="node"><title>Node3</title>
<polygon fill="none" stroke="#bfbfbf" points="-0.908691,-1 -0.908691,-19 72.9087,-19 72.9087,-1 -0.908691,-1"/>
<text text-anchor="middle" x="36" y="-7" font-family="Helvetica,sans-Serif" font-size="10.00">mcu/debug.h</text>
</g>
<!-- Node2&#45;&gt;Node3 -->
<g id="edge2" class="edge"><title>Node2&#45;&gt;Node3</title>
<path fill="none" stroke="midnightblue" d="M36,-56.5625C36,-49.308 36,-38.5884 36,-29.3691"/>
<polygon fill="midnightblue" stroke="midnightblue" points="39.5001,-29.2014 36,-19.2014 32.5001,-29.2015 39.5001,-29.2014"/>
</g>
<!-- Node4 -->
<g id="node4" class="node"><title>Node4</title>
<polygon fill="none" stroke="#bfbfbf" points="164.879,-1 164.879,-19 213.121,-19 213.121,-1 164.879,-1"/>
<text text-anchor="middle" x="189" y="-7" font-family="Helvetica,sans-Serif" font-size="10.00">stdint.h</text>
</g>
<!-- Node2&#45;&gt;Node4 -->
<g id="edge3" class="edge"><title>Node2&#45;&gt;Node4</title>
<path fill="none" stroke="midnightblue" d="M58.9056,-56.9157C84.7072,-47.8092 126.855,-32.9337 156.157,-22.5917"/>
<polygon fill="midnightblue" stroke="midnightblue" points="157.673,-25.7683 165.938,-19.1396 155.343,-19.1674 157.673,-25.7683"/>
</g>
<!-- Node13&#45;&gt;Node4 -->
<g id="edge14" class="edge"><title>Node13&#45;&gt;Node4</title>
<path fill="none" stroke="midnightblue" d="M315.693,-56.9157C290.566,-47.8092 249.521,-32.9337 220.985,-22.5917"/>
<polygon fill="midnightblue" stroke="midnightblue" points="222.053,-19.2564 211.459,-19.1396 219.668,-25.8375 222.053,-19.2564"/>
</g>
<!-- Node13&#45;&gt;Node8 -->
<g id="edge13" class="edge"><title>Node13&#45;&gt;Node8</title>
<path fill="none" stroke="midnightblue" d="M370.337,-56.9157C411.37,-46.6576 481.684,-29.0789 522.375,-18.9063"/>
<polygon fill="midnightblue" stroke="midnightblue" points="523.436,-22.2488 532.288,-16.4279 521.738,-15.4578 523.436,-22.2488"/>
</g>
<!-- Node14 -->
<g id="node14" class="node"><title>Node14</title>
<polygon fill="none" stroke="#bfbfbf" points="305.269,-1 305.269,-19 370.731,-19 370.731,-1 305.269,-1"/>
<text text-anchor="middle" x="338" y="-7" font-family="Helvetica,sans-Serif" font-size="10.00">mcu/arch.h</text>
</g>
<!-- Node13&#45;&gt;Node14 -->
<g id="edge15" class="edge"><title>Node13&#45;&gt;Node14</title>
<path fill="none" stroke="midnightblue" d="M338,-56.5625C338,-49.308 338,-38.5884 338,-29.3691"/>
<polygon fill="midnightblue" stroke="midnightblue" points="341.5,-29.2014 338,-19.2014 334.5,-29.2015 341.5,-29.2014"/>
</g>
</g>
</svg>
