<?xml version="1.0" encoding="UTF-8" standalone="no"?>
<!DOCTYPE svg PUBLIC "-//W3C//DTD SVG 1.1//EN"
 "http://www.w3.org/Graphics/SVG/1.1/DTD/svg11.dtd">
<!-- Generated by graphviz version 2.34.0 (20130907.0228)
 -->
<!-- Title: /Users/tgil/git/CoActionOS/CoActionOS/include/hwdl.h Pages: 1 -->
<svg width="352pt" height="228pt"
 viewBox="0.00 0.00 352.49 228.00" xmlns="http://www.w3.org/2000/svg" xmlns:xlink="http://www.w3.org/1999/xlink">
<g id="graph0" class="graph" transform="scale(1 1) rotate(0) translate(4 224)">
<title>/Users/tgil/git/CoActionOS/CoActionOS/include/hwdl.h</title>
<!-- Node1 -->
<g id="node1" class="node"><title>Node1</title>
<polygon fill="#bfbfbf" stroke="black" points="9.12715,-175 9.12715,-219 131.846,-219 131.846,-175 9.12715,-175"/>
<text text-anchor="start" x="17.1272" y="-205" font-family="Helvetica,sans-Serif" font-size="10.00">/Users/tgil/git/CoAction</text>
<text text-anchor="start" x="17.1272" y="-193" font-family="Helvetica,sans-Serif" font-size="10.00">OS/CoActionOS/include</text>
<text text-anchor="middle" x="70.4865" y="-181" font-family="Helvetica,sans-Serif" font-size="10.00">/hwdl.h</text>
</g>
<!-- Node2 -->
<g id="node2" class="node"><title>Node2</title>
<polygon fill="none" stroke="#bfbfbf" points="23.3659,-1 23.3659,-21 71.6071,-21 71.6071,-1 23.3659,-1"/>
<text text-anchor="middle" x="47.4865" y="-7" font-family="Helvetica,sans-Serif" font-size="10.00">stdint.h</text>
</g>
<!-- Node1&#45;&gt;Node2 -->
<g id="edge1" class="edge"><title>Node1&#45;&gt;Node2</title>
<path fill="none" stroke="midnightblue" d="M53.412,-174.917C36.6908,-152.801 12.334,-116.271 2.48653,-80 -0.0753791,-70.5638 -1.20558,-67.0539 2.48653,-58 7.33128,-46.1195 16.8855,-35.6409 25.9487,-27.6974"/>
<polygon fill="midnightblue" stroke="midnightblue" points="28.4447,-30.1784 33.9849,-21.1475 24.0222,-24.7523 28.4447,-30.1784"/>
</g>
<!-- Node3 -->
<g id="node3" class="node"><title>Node3</title>
<g id="a_node3"><a xlink:href="device_8h_source.html" target="_top" xlink:title="device.h">
<polygon fill="none" stroke="black" points="131.863,-117 131.863,-137 185.11,-137 185.11,-117 131.863,-117"/>
<text text-anchor="middle" x="158.487" y="-123" font-family="Helvetica,sans-Serif" font-size="10.00">device.h</text>
</a>
</g>
</g>
<!-- Node1&#45;&gt;Node3 -->
<g id="edge2" class="edge"><title>Node1&#45;&gt;Node3</title>
<path fill="none" stroke="midnightblue" d="M97.8479,-174.857C111.002,-164.692 126.483,-152.73 138.511,-143.436"/>
<polygon fill="midnightblue" stroke="midnightblue" points="140.803,-146.088 146.576,-137.204 136.523,-140.549 140.803,-146.088"/>
</g>
<!-- Node4 -->
<g id="node4" class="node"><title>Node4</title>
<polygon fill="none" stroke="#bfbfbf" points="101.368,-59 101.368,-79 159.605,-79 159.605,-59 101.368,-59"/>
<text text-anchor="middle" x="130.487" y="-65" font-family="Helvetica,sans-Serif" font-size="10.00">sys/stat.h</text>
</g>
<!-- Node3&#45;&gt;Node4 -->
<g id="edge3" class="edge"><title>Node3&#45;&gt;Node4</title>
<path fill="none" stroke="midnightblue" d="M153.863,-116.753C149.989,-109.006 144.344,-97.7142 139.571,-88.1688"/>
<polygon fill="midnightblue" stroke="midnightblue" points="142.627,-86.4542 135.024,-79.0752 136.366,-89.5847 142.627,-86.4542"/>
</g>
<!-- Node5 -->
<g id="node5" class="node"><title>Node5</title>
<polygon fill="none" stroke="#bfbfbf" points="143.194,-1 143.194,-21 199.779,-21 199.779,-1 143.194,-1"/>
<text text-anchor="middle" x="171.487" y="-7" font-family="Helvetica,sans-Serif" font-size="10.00">stdbool.h</text>
</g>
<!-- Node3&#45;&gt;Node5 -->
<g id="edge4" class="edge"><title>Node3&#45;&gt;Node5</title>
<path fill="none" stroke="midnightblue" d="M160.941,-116.916C163.318,-107.694 166.803,-92.9674 168.487,-80 170.602,-63.7036 171.304,-45.0466 171.505,-31.4023"/>
<polygon fill="midnightblue" stroke="midnightblue" points="175.005,-31.3061 171.575,-21.282 168.005,-31.2574 175.005,-31.3061"/>
</g>
<!-- Node6 -->
<g id="node6" class="node"><title>Node6</title>
<g id="a_node6"><a xlink:href="types_8h_source.html" target="_top" xlink:title="hwpl/types.h">
<polygon fill="none" stroke="black" points="11.6936,-59 11.6936,-79 83.2795,-79 83.2795,-59 11.6936,-59"/>
<text text-anchor="middle" x="47.4865" y="-65" font-family="Helvetica,sans-Serif" font-size="10.00">hwpl/types.h</text>
</a>
</g>
</g>
<!-- Node3&#45;&gt;Node6 -->
<g id="edge5" class="edge"><title>Node3&#45;&gt;Node6</title>
<path fill="none" stroke="midnightblue" d="M140.157,-116.753C122.296,-107.742 94.9296,-93.9353 74.5605,-83.6589"/>
<polygon fill="midnightblue" stroke="midnightblue" points="75.9795,-80.4547 65.4749,-79.0752 72.8265,-86.7044 75.9795,-80.4547"/>
</g>
<!-- Node7 -->
<g id="node7" class="node"><title>Node7</title>
<polygon fill="none" stroke="#bfbfbf" points="277.918,-1 277.918,-21 345.055,-21 345.055,-1 277.918,-1"/>
<text text-anchor="middle" x="311.487" y="-7" font-family="Helvetica,sans-Serif" font-size="10.00">hwpl/arch.h</text>
</g>
<!-- Node3&#45;&gt;Node7 -->
<g id="edge8" class="edge"><title>Node3&#45;&gt;Node7</title>
<path fill="none" stroke="midnightblue" d="M185.17,-122.03C212.218,-116.74 253.783,-104.967 280.487,-80 294.519,-66.88 302.689,-46.1897 307.084,-31.0747"/>
<polygon fill="midnightblue" stroke="midnightblue" points="310.512,-31.8015 309.648,-21.242 303.738,-30.0358 310.512,-31.8015"/>
</g>
<!-- Node8 -->
<g id="node8" class="node"><title>Node8</title>
<g id="a_node8"><a xlink:href="pio_8h.html" target="_top" xlink:title="General Purpose Input/Output Header File. ">
<polygon fill="none" stroke="black" points="215.194,-59 215.194,-79 271.779,-79 271.779,-59 215.194,-59"/>
<text text-anchor="middle" x="243.487" y="-65" font-family="Helvetica,sans-Serif" font-size="10.00">dev/pio.h</text>
</a>
</g>
</g>
<!-- Node3&#45;&gt;Node8 -->
<g id="edge9" class="edge"><title>Node3&#45;&gt;Node8</title>
<path fill="none" stroke="midnightblue" d="M172.523,-116.753C185.767,-108.027 205.836,-94.8051 221.256,-84.6458"/>
<polygon fill="midnightblue" stroke="midnightblue" points="223.287,-87.4995 229.712,-79.0752 219.435,-81.6541 223.287,-87.4995"/>
</g>
<!-- Node6&#45;&gt;Node2 -->
<g id="edge6" class="edge"><title>Node6&#45;&gt;Node2</title>
<path fill="none" stroke="midnightblue" d="M47.4865,-58.7527C47.4865,-51.2504 47.4865,-40.4238 47.4865,-31.0781"/>
<polygon fill="midnightblue" stroke="midnightblue" points="50.9866,-31.0752 47.4865,-21.0752 43.9866,-31.0752 50.9866,-31.0752"/>
</g>
<!-- Node6&#45;&gt;Node5 -->
<g id="edge7" class="edge"><title>Node6&#45;&gt;Node5</title>
<path fill="none" stroke="midnightblue" d="M67.6852,-58.878C87.8615,-49.7661 119.093,-35.6617 142.03,-25.3028"/>
<polygon fill="midnightblue" stroke="midnightblue" points="143.623,-28.4238 151.296,-21.1181 140.742,-22.0442 143.623,-28.4238"/>
</g>
<!-- Node8&#45;&gt;Node2 -->
<g id="edge11" class="edge"><title>Node8&#45;&gt;Node2</title>
<path fill="none" stroke="midnightblue" d="M214.986,-59.8571C179.661,-49.7641 119.513,-32.5791 81.722,-21.7816"/>
<polygon fill="midnightblue" stroke="midnightblue" points="82.2718,-18.2987 71.695,-18.9167 80.3487,-25.0293 82.2718,-18.2987"/>
</g>
<!-- Node8&#45;&gt;Node5 -->
<g id="edge10" class="edge"><title>Node8&#45;&gt;Node5</title>
<path fill="none" stroke="midnightblue" d="M231.597,-58.7527C220.588,-50.1903 204.012,-37.2978 191.053,-27.2186"/>
<polygon fill="midnightblue" stroke="midnightblue" points="193.197,-24.4519 183.155,-21.0752 188.899,-29.9774 193.197,-24.4519"/>
</g>
<!-- Node8&#45;&gt;Node7 -->
<g id="edge13" class="edge"><title>Node8&#45;&gt;Node7</title>
<path fill="none" stroke="midnightblue" d="M254.715,-58.7527C265.014,-50.2718 280.47,-37.543 292.656,-27.5073"/>
<polygon fill="midnightblue" stroke="midnightblue" points="294.972,-30.1341 300.467,-21.0752 290.522,-24.7305 294.972,-30.1341"/>
</g>
<!-- Node9 -->
<g id="node9" class="node"><title>Node9</title>
<g id="a_node9"><a xlink:href="ioctl_8h_source.html" target="_top" xlink:title="ioctl.h">
<polygon fill="none" stroke="black" points="217.425,-1 217.425,-21 259.548,-21 259.548,-1 217.425,-1"/>
<text text-anchor="middle" x="238.487" y="-7" font-family="Helvetica,sans-Serif" font-size="10.00">ioctl.h</text>
</a>
</g>
</g>
<!-- Node8&#45;&gt;Node9 -->
<g id="edge12" class="edge"><title>Node8&#45;&gt;Node9</title>
<path fill="none" stroke="midnightblue" d="M242.661,-58.7527C241.991,-51.2504 241.024,-40.4238 240.19,-31.0781"/>
<polygon fill="midnightblue" stroke="midnightblue" points="243.672,-30.7243 239.297,-21.0752 236.7,-31.3469 243.672,-30.7243"/>
</g>
</g>
</svg>
