<?xml version="1.0" encoding="UTF-8" standalone="no"?>
<!DOCTYPE svg PUBLIC "-//W3C//DTD SVG 1.1//EN"
 "http://www.w3.org/Graphics/SVG/1.1/DTD/svg11.dtd">
<!-- Generated by graphviz version 2.36.0 (20140111.2315)
 -->
<!-- Title: include/iface/link.h Pages: 1 -->
<svg width="1282pt" height="196pt"
 viewBox="0.00 0.00 1281.56 196.00" xmlns="http://www.w3.org/2000/svg" xmlns:xlink="http://www.w3.org/1999/xlink">
<g id="graph0" class="graph" transform="scale(1 1) rotate(0) translate(4 192)">
<title>include/iface/link.h</title>
<!-- Node1 -->
<g id="node1" class="node"><title>Node1</title>
<polygon fill="#bfbfbf" stroke="black" points="644.143,-169 644.143,-187 741.857,-187 741.857,-169 644.143,-169"/>
<text text-anchor="middle" x="693" y="-175" font-family="Helvetica,sans-Serif" font-size="10.00">include/iface/link.h</text>
</g>
<!-- Node2 -->
<g id="node2" class="node"><title>Node2</title>
<polygon fill="none" stroke="#bfbfbf" points="233.882,-113 233.882,-131 292.118,-131 292.118,-113 233.882,-113"/>
<text text-anchor="middle" x="263" y="-119" font-family="Helvetica,sans-Serif" font-size="10.00">sys/stat.h</text>
</g>
<!-- Node1&#45;&gt;Node2 -->
<g id="edge1" class="edge"><title>Node1&#45;&gt;Node2</title>
<path fill="none" stroke="midnightblue" d="M643.93,-172.731C570.266,-165.998 426.845,-151.631 306,-132 304.908,-131.823 303.802,-131.637 302.687,-131.443"/>
<polygon fill="midnightblue" stroke="midnightblue" points="303.015,-127.944 292.542,-129.55 301.731,-134.825 303.015,-127.944"/>
</g>
<!-- Node3 -->
<g id="node3" class="node"><title>Node3</title>
<polygon fill="none" stroke="#bfbfbf" points="825.384,-57 825.384,-75 868.616,-75 868.616,-57 825.384,-57"/>
<text text-anchor="middle" x="847" y="-63" font-family="Helvetica,sans-Serif" font-size="10.00">time.h</text>
</g>
<!-- Node1&#45;&gt;Node3 -->
<g id="edge2" class="edge"><title>Node1&#45;&gt;Node3</title>
<path fill="none" stroke="midnightblue" d="M704.827,-168.751C717.696,-159.76 738.859,-144.928 757,-132 781.327,-114.664 809.185,-94.4951 827.382,-81.2773"/>
<polygon fill="midnightblue" stroke="midnightblue" points="829.917,-83.7616 835.948,-75.0506 825.801,-78.0995 829.917,-83.7616"/>
</g>
<!-- Node4 -->
<g id="node4" class="node"><title>Node4</title>
<g id="a_node4"><a xlink:href="adc_8h.html" target="_top" xlink:title="Analog to Digital Converter Header File. ">
<polygon fill="none" stroke="black" points="477.318,-57 477.318,-75 536.682,-75 536.682,-57 477.318,-57"/>
<text text-anchor="middle" x="507" y="-63" font-family="Helvetica,sans-Serif" font-size="10.00">dev/adc.h</text>
</a>
</g>
</g>
<!-- Node1&#45;&gt;Node4 -->
<g id="edge3" class="edge"><title>Node1&#45;&gt;Node4</title>
<path fill="none" stroke="midnightblue" d="M679.323,-168.911C647.613,-150.158 568.81,-103.554 529.725,-80.4397"/>
<polygon fill="midnightblue" stroke="midnightblue" points="531.086,-77.1783 520.697,-75.1004 527.523,-83.2035 531.086,-77.1783"/>
</g>
<!-- Node7 -->
<g id="node7" class="node"><title>Node7</title>
<g id="a_node7"><a xlink:href="bootloader_8h.html" target="_top" xlink:title="Analog to Digital Converter Header File. ">
<polygon fill="none" stroke="black" points="214.022,-57 214.022,-75 303.978,-75 303.978,-57 214.022,-57"/>
<text text-anchor="middle" x="259" y="-63" font-family="Helvetica,sans-Serif" font-size="10.00">dev/bootloader.h</text>
</a>
</g>
</g>
<!-- Node1&#45;&gt;Node7 -->
<g id="edge6" class="edge"><title>Node1&#45;&gt;Node7</title>
<path fill="none" stroke="midnightblue" d="M643.977,-169.897C602.203,-162.962 541.01,-150.696 490,-132 472.08,-125.432 469.883,-118.666 452,-112 426.116,-102.352 356.767,-87.1024 308.665,-77.0743"/>
<polygon fill="midnightblue" stroke="midnightblue" points="309.249,-73.6209 298.747,-75.0175 307.828,-80.4751 309.249,-73.6209"/>
</g>
<!-- Node8 -->
<g id="node8" class="node"><title>Node8</title>
<g id="a_node8"><a xlink:href="core_8h.html" target="_top" xlink:title="Analog to Digital Converter Header File. ">
<polygon fill="none" stroke="black" points="347.653,-113 347.653,-131 410.347,-131 410.347,-113 347.653,-113"/>
<text text-anchor="middle" x="379" y="-119" font-family="Helvetica,sans-Serif" font-size="10.00">dev/core.h</text>
</a>
</g>
</g>
<!-- Node1&#45;&gt;Node8 -->
<g id="edge9" class="edge"><title>Node1&#45;&gt;Node8</title>
<path fill="none" stroke="midnightblue" d="M643.832,-169.254C589.837,-160.635 500.611,-146.065 424,-132 422.903,-131.799 421.791,-131.592 420.67,-131.382"/>
<polygon fill="midnightblue" stroke="midnightblue" points="420.927,-127.868 410.447,-129.421 419.608,-134.743 420.927,-127.868"/>
</g>
<!-- Node9 -->
<g id="node9" class="node"><title>Node9</title>
<g id="a_node9"><a xlink:href="pio_8h.html" target="_top" xlink:title="General Purpose Input/Output Header File. ">
<polygon fill="none" stroke="black" points="-0.243652,-57 -0.243652,-75 80.2437,-75 80.2437,-57 -0.243652,-57"/>
<text text-anchor="middle" x="40" y="-63" font-family="Helvetica,sans-Serif" font-size="10.00">iface/dev/pio.h</text>
</a>
</g>
</g>
<!-- Node1&#45;&gt;Node9 -->
<g id="edge17" class="edge"><title>Node1&#45;&gt;Node9</title>
<path fill="none" stroke="midnightblue" d="M644.019,-176.259C574.599,-173.989 444.319,-165.21 339,-132 320.798,-126.26 319.07,-118.141 301,-112 262.878,-99.0441 154.767,-82.7546 90.2677,-73.7559"/>
<polygon fill="midnightblue" stroke="midnightblue" points="90.6936,-70.2816 80.3078,-72.3759 89.7328,-77.2153 90.6936,-70.2816"/>
</g>
<!-- Node11 -->
<g id="node11" class="node"><title>Node11</title>
<polygon fill="none" stroke="#bfbfbf" points="1069.93,-113 1069.93,-131 1132.07,-131 1132.07,-113 1069.93,-113"/>
<text text-anchor="middle" x="1101" y="-119" font-family="Helvetica,sans-Serif" font-size="10.00">dev/gpio.h</text>
</g>
<!-- Node1&#45;&gt;Node11 -->
<g id="edge16" class="edge"><title>Node1&#45;&gt;Node11</title>
<path fill="none" stroke="midnightblue" d="M742.04,-172.572C810.857,-166.013 940.159,-152.431 1059.57,-132.102"/>
<polygon fill="midnightblue" stroke="midnightblue" points="1060.36,-135.519 1069.62,-130.372 1059.17,-128.62 1060.36,-135.519"/>
</g>
<!-- Node12 -->
<g id="node12" class="node"><title>Node12</title>
<g id="a_node12"><a xlink:href="dac_8h.html" target="_top" xlink:title="DAC Header File. ">
<polygon fill="none" stroke="black" points="136.318,-57 136.318,-75 195.682,-75 195.682,-57 136.318,-57"/>
<text text-anchor="middle" x="166" y="-63" font-family="Helvetica,sans-Serif" font-size="10.00">dev/dac.h</text>
</a>
</g>
</g>
<!-- Node1&#45;&gt;Node12 -->
<g id="edge18" class="edge"><title>Node1&#45;&gt;Node12</title>
<path fill="none" stroke="midnightblue" d="M644.052,-173.058C594.346,-167.869 515.821,-156.368 452,-132 435.978,-125.883 435.076,-117.973 419,-112 331.594,-79.5221 301.581,-93.8152 205.869,-76.015"/>
<polygon fill="midnightblue" stroke="midnightblue" points="206.253,-72.5244 195.771,-74.0642 204.925,-79.3974 206.253,-72.5244"/>
</g>
<!-- Node13 -->
<g id="node13" class="node"><title>Node13</title>
<g id="a_node13"><a xlink:href="eint_8h.html" target="_top" xlink:title="External Interrupt Header File. ">
<polygon fill="none" stroke="black" points="1192.32,-57 1192.32,-75 1251.68,-75 1251.68,-57 1192.32,-57"/>
<text text-anchor="middle" x="1222" y="-63" font-family="Helvetica,sans-Serif" font-size="10.00">dev/eint.h</text>
</a>
</g>
</g>
<!-- Node1&#45;&gt;Node13 -->
<g id="edge21" class="edge"><title>Node1&#45;&gt;Node13</title>
<path fill="none" stroke="midnightblue" d="M741.859,-171.753C792.503,-165.48 873.551,-153.091 941,-132 961.502,-125.589 964.499,-118.415 985,-112 1067.36,-86.2301 1093.56,-93.4882 1182.27,-76.0329"/>
<polygon fill="midnightblue" stroke="midnightblue" points="1183.11,-79.4336 1192.22,-74.0236 1181.73,-72.5721 1183.11,-79.4336"/>
</g>
<!-- Node15 -->
<g id="node15" class="node"><title>Node15</title>
<g id="a_node15"><a xlink:href="flash_8h.html" target="_top" xlink:title="Flash Memory Header File. ">
<polygon fill="none" stroke="black" points="554.818,-57 554.818,-75 619.182,-75 619.182,-57 554.818,-57"/>
<text text-anchor="middle" x="587" y="-63" font-family="Helvetica,sans-Serif" font-size="10.00">dev/flash.h</text>
</a>
</g>
</g>
<!-- Node1&#45;&gt;Node15 -->
<g id="edge25" class="edge"><title>Node1&#45;&gt;Node15</title>
<path fill="none" stroke="midnightblue" d="M685.033,-168.732C667.374,-150.407 624.712,-106.135 601.928,-82.4912"/>
<polygon fill="midnightblue" stroke="midnightblue" points="604.231,-79.837 594.772,-75.0649 599.19,-84.6943 604.231,-79.837"/>
</g>
<!-- Node16 -->
<g id="node16" class="node"><title>Node16</title>
<g id="a_node16"><a xlink:href="i2c_8h.html" target="_top" xlink:title="I2C Header File. ">
<polygon fill="none" stroke="black" points="636.988,-57 636.988,-75 693.012,-75 693.012,-57 636.988,-57"/>
<text text-anchor="middle" x="665" y="-63" font-family="Helvetica,sans-Serif" font-size="10.00">dev/i2c.h</text>
</a>
</g>
</g>
<!-- Node1&#45;&gt;Node16 -->
<g id="edge28" class="edge"><title>Node1&#45;&gt;Node16</title>
<path fill="none" stroke="midnightblue" d="M690.895,-168.732C686.394,-151.047 675.741,-109.196 669.593,-85.0427"/>
<polygon fill="midnightblue" stroke="midnightblue" points="672.912,-83.8924 667.053,-75.0649 666.128,-85.6193 672.912,-83.8924"/>
</g>
<!-- Node17 -->
<g id="node17" class="node"><title>Node17</title>
<g id="a_node17"><a xlink:href="pwm_8h.html" target="_top" xlink:title="Pulse Width Modulation Header File. ">
<polygon fill="none" stroke="black" points="886.823,-57 886.823,-75 951.177,-75 951.177,-57 886.823,-57"/>
<text text-anchor="middle" x="919" y="-63" font-family="Helvetica,sans-Serif" font-size="10.00">dev/pwm.h</text>
</a>
</g>
</g>
<!-- Node1&#45;&gt;Node17 -->
<g id="edge31" class="edge"><title>Node1&#45;&gt;Node17</title>
<path fill="none" stroke="midnightblue" d="M709.618,-168.911C748.637,-149.92 846.341,-102.365 893.175,-79.5697"/>
<polygon fill="midnightblue" stroke="midnightblue" points="894.898,-82.6239 902.357,-75.1004 891.834,-76.3298 894.898,-82.6239"/>
</g>
<!-- Node18 -->
<g id="node18" class="node"><title>Node18</title>
<g id="a_node18"><a xlink:href="qei_8h.html" target="_top" xlink:title="Quadrature Encoder Interface Header File. ">
<polygon fill="none" stroke="black" points="968.707,-57 968.707,-75 1025.29,-75 1025.29,-57 968.707,-57"/>
<text text-anchor="middle" x="997" y="-63" font-family="Helvetica,sans-Serif" font-size="10.00">dev/qei.h</text>
</a>
</g>
</g>
<!-- Node1&#45;&gt;Node18 -->
<g id="edge34" class="edge"><title>Node1&#45;&gt;Node18</title>
<path fill="none" stroke="midnightblue" d="M715.971,-168.949C741.43,-160.006 783.694,-145.098 820,-132 871.008,-113.598 930.114,-91.7955 965.481,-78.698"/>
<polygon fill="midnightblue" stroke="midnightblue" points="967.069,-81.8421 975.23,-75.0855 964.637,-75.2783 967.069,-81.8421"/>
</g>
<!-- Node19 -->
<g id="node19" class="node"><title>Node19</title>
<g id="a_node19"><a xlink:href="rtc_8h.html" target="_top" xlink:title="Real Time Clock Header File. ">
<polygon fill="none" stroke="black" points="693.825,-113 693.825,-131 748.175,-131 748.175,-113 693.825,-113"/>
<text text-anchor="middle" x="721" y="-119" font-family="Helvetica,sans-Serif" font-size="10.00">dev/rtc.h</text>
</a>
</g>
</g>
<!-- Node1&#45;&gt;Node19 -->
<g id="edge37" class="edge"><title>Node1&#45;&gt;Node19</title>
<path fill="none" stroke="midnightblue" d="M697.375,-168.562C701.302,-160.989 707.187,-149.639 712.101,-140.162"/>
<polygon fill="midnightblue" stroke="midnightblue" points="715.251,-141.69 716.747,-131.201 709.037,-138.468 715.251,-141.69"/>
</g>
<!-- Node20 -->
<g id="node20" class="node"><title>Node20</title>
<g id="a_node20"><a xlink:href="spi_8h.html" target="_top" xlink:title="Serial Peripheral Interface Header File. ">
<polygon fill="none" stroke="black" points="1042.99,-57 1042.99,-75 1099.01,-75 1099.01,-57 1042.99,-57"/>
<text text-anchor="middle" x="1071" y="-63" font-family="Helvetica,sans-Serif" font-size="10.00">dev/spi.h</text>
</a>
</g>
</g>
<!-- Node1&#45;&gt;Node20 -->
<g id="edge41" class="edge"><title>Node1&#45;&gt;Node20</title>
<path fill="none" stroke="midnightblue" d="M727.075,-168.926C761.221,-160.589 815.154,-146.75 861,-132 884.967,-124.289 890.101,-119.92 914,-112 954.195,-98.6805 1000.92,-85.5874 1032.88,-76.9892"/>
<polygon fill="midnightblue" stroke="midnightblue" points="1033.95,-80.3252 1042.71,-74.361 1032.15,-73.5627 1033.95,-80.3252"/>
</g>
<!-- Node21 -->
<g id="node21" class="node"><title>Node21</title>
<g id="a_node21"><a xlink:href="tmr_8h.html" target="_top" xlink:title="Timer Header File. ">
<polygon fill="none" stroke="black" points="1117.43,-57 1117.43,-75 1174.57,-75 1174.57,-57 1117.43,-57"/>
<text text-anchor="middle" x="1146" y="-63" font-family="Helvetica,sans-Serif" font-size="10.00">dev/tmr.h</text>
</a>
</g>
</g>
<!-- Node1&#45;&gt;Node21 -->
<g id="edge44" class="edge"><title>Node1&#45;&gt;Node21</title>
<path fill="none" stroke="midnightblue" d="M741.317,-168.985C784.06,-161.332 847.864,-148.526 902,-132 924.891,-125.012 929.161,-119.156 952,-112 1016.98,-91.6382 1037.01,-92.1147 1107.55,-76.0645"/>
<polygon fill="midnightblue" stroke="midnightblue" points="1108.41,-79.4582 1117.37,-73.7993 1106.84,-72.6375 1108.41,-79.4582"/>
</g>
<!-- Node22 -->
<g id="node22" class="node"><title>Node22</title>
<g id="a_node22"><a xlink:href="uart_8h.html" target="_top" xlink:title="Universal Asynchronous Receiver/Transmitter Header File. ">
<polygon fill="none" stroke="black" points="321.764,-57 321.764,-75 382.236,-75 382.236,-57 321.764,-57"/>
<text text-anchor="middle" x="352" y="-63" font-family="Helvetica,sans-Serif" font-size="10.00">dev/uart.h</text>
</a>
</g>
</g>
<!-- Node1&#45;&gt;Node22 -->
<g id="edge47" class="edge"><title>Node1&#45;&gt;Node22</title>
<path fill="none" stroke="midnightblue" d="M656.682,-168.927C623.444,-161.068 573.169,-147.988 531,-132 512.042,-124.812 508.794,-119.605 490,-112 456.92,-98.6136 418.211,-86.2674 390.223,-77.9067"/>
<polygon fill="midnightblue" stroke="midnightblue" points="391.008,-74.4893 380.426,-75.0122 389.025,-81.2024 391.008,-74.4893"/>
</g>
<!-- Node23 -->
<g id="node23" class="node"><title>Node23</title>
<g id="a_node23"><a xlink:href="usb_8h.html" target="_top" xlink:title="Universal Serial Bus Header File. ">
<polygon fill="none" stroke="black" points="400.318,-57 400.318,-75 459.682,-75 459.682,-57 400.318,-57"/>
<text text-anchor="middle" x="430" y="-63" font-family="Helvetica,sans-Serif" font-size="10.00">dev/usb.h</text>
</a>
</g>
</g>
<!-- Node1&#45;&gt;Node23 -->
<g id="edge50" class="edge"><title>Node1&#45;&gt;Node23</title>
<path fill="none" stroke="midnightblue" d="M672.097,-168.892C649.36,-160.022 611.978,-145.292 580,-132 537.146,-114.187 487.84,-92.6108 457.807,-79.3461"/>
<polygon fill="midnightblue" stroke="midnightblue" points="458.959,-76.0287 448.398,-75.1837 456.127,-82.4302 458.959,-76.0287"/>
</g>
<!-- Node24 -->
<g id="node24" class="node"><title>Node24</title>
<g id="a_node24"><a xlink:href="sys_8h.html" target="_top" xlink:title="dev/sys.h">
<polygon fill="none" stroke="black" points="993.879,-113 993.879,-131 1052.12,-131 1052.12,-113 993.879,-113"/>
<text text-anchor="middle" x="1023" y="-119" font-family="Helvetica,sans-Serif" font-size="10.00">dev/sys.h</text>
</a>
</g>
</g>
<!-- Node1&#45;&gt;Node24 -->
<g id="edge53" class="edge"><title>Node1&#45;&gt;Node24</title>
<path fill="none" stroke="midnightblue" d="M741.957,-169.123C797.625,-160.73 890.877,-146.657 971,-132 975.051,-131.259 979.307,-130.43 983.585,-129.583"/>
<polygon fill="midnightblue" stroke="midnightblue" points="984.395,-132.991 993.52,-127.608 983.03,-126.125 984.395,-132.991"/>
</g>
<!-- Node5 -->
<g id="node5" class="node"><title>Node5</title>
<polygon fill="none" stroke="#bfbfbf" points="687.879,-1 687.879,-19 736.121,-19 736.121,-1 687.879,-1"/>
<text text-anchor="middle" x="712" y="-7" font-family="Helvetica,sans-Serif" font-size="10.00">stdint.h</text>
</g>
<!-- Node4&#45;&gt;Node5 -->
<g id="edge4" class="edge"><title>Node4&#45;&gt;Node5</title>
<path fill="none" stroke="midnightblue" d="M536.809,-57.1479C574.3,-47.2723 638.522,-30.3553 677.921,-19.977"/>
<polygon fill="midnightblue" stroke="midnightblue" points="678.833,-23.3562 687.611,-17.4243 677.05,-16.5871 678.833,-23.3562"/>
</g>
<!-- Node6 -->
<g id="node6" class="node"><title>Node6</title>
<polygon fill="none" stroke="#bfbfbf" points="554.269,-1 554.269,-19 619.731,-19 619.731,-1 554.269,-1"/>
<text text-anchor="middle" x="587" y="-7" font-family="Helvetica,sans-Serif" font-size="10.00">mcu/arch.h</text>
</g>
<!-- Node4&#45;&gt;Node6 -->
<g id="edge5" class="edge"><title>Node4&#45;&gt;Node6</title>
<path fill="none" stroke="midnightblue" d="M519.15,-56.7986C531.675,-48.3446 551.431,-35.0093 566.402,-24.9039"/>
<polygon fill="midnightblue" stroke="midnightblue" points="568.667,-27.5974 574.998,-19.1017 564.751,-21.7955 568.667,-27.5974"/>
</g>
<!-- Node7&#45;&gt;Node5 -->
<g id="edge7" class="edge"><title>Node7&#45;&gt;Node5</title>
<path fill="none" stroke="midnightblue" d="M304.054,-57.3081C307.079,-56.8482 310.082,-56.4074 313,-56 348.737,-51.0102 587.673,-24.655 677.737,-14.759"/>
<polygon fill="midnightblue" stroke="midnightblue" points="678.155,-18.2343 687.713,-13.6633 677.391,-11.2761 678.155,-18.2343"/>
</g>
<!-- Node7&#45;&gt;Node6 -->
<g id="edge8" class="edge"><title>Node7&#45;&gt;Node6</title>
<path fill="none" stroke="midnightblue" d="M304.08,-57.4785C307.099,-56.9774 310.093,-56.4809 313,-56 394.765,-42.4719 490.283,-26.8189 544.205,-17.9961"/>
<polygon fill="midnightblue" stroke="midnightblue" points="544.794,-21.4464 554.098,-16.3778 543.664,-14.5382 544.794,-21.4464"/>
</g>
<!-- Node8&#45;&gt;Node5 -->
<g id="edge10" class="edge"><title>Node8&#45;&gt;Node5</title>
<path fill="none" stroke="midnightblue" d="M410.617,-121.197C483.714,-120.955 661.278,-116.147 702,-76 714.061,-64.1091 715.502,-44.1731 714.581,-29.5085"/>
<polygon fill="midnightblue" stroke="midnightblue" points="718.017,-28.7131 713.494,-19.1323 711.055,-29.4427 718.017,-28.7131"/>
</g>
<!-- Node8&#45;&gt;Node6 -->
<g id="edge11" class="edge"><title>Node8&#45;&gt;Node6</title>
<path fill="none" stroke="midnightblue" d="M347.548,-114.605C343.006,-113.712 338.386,-112.82 334,-112 240.316,-94.488 62.9724,-126.597 127,-56 154.715,-25.4412 434.756,-14.9398 543.836,-11.9911"/>
<polygon fill="midnightblue" stroke="midnightblue" points="544.244,-15.4817 554.149,-11.7212 544.061,-8.48412 544.244,-15.4817"/>
</g>
<!-- Node8&#45;&gt;Node9 -->
<g id="edge12" class="edge"><title>Node8&#45;&gt;Node9</title>
<path fill="none" stroke="midnightblue" d="M347.565,-114.511C343.02,-113.632 338.395,-112.769 334,-112 227.753,-93.418 200.533,-92.8666 94,-76 92.897,-75.8254 91.7815,-75.6478 90.6569,-75.468"/>
<polygon fill="midnightblue" stroke="midnightblue" points="90.8166,-71.9483 80.3857,-73.8046 89.6975,-78.8583 90.8166,-71.9483"/>
</g>
<!-- Node9&#45;&gt;Node5 -->
<g id="edge14" class="edge"><title>Node9&#45;&gt;Node5</title>
<path fill="none" stroke="midnightblue" d="M80.2571,-60.5697C94.9572,-59.0221 111.722,-57.3388 127,-56 349.389,-36.512 405.647,-39.8943 628,-20 644.38,-18.5345 662.525,-16.6262 677.748,-14.9442"/>
<polygon fill="midnightblue" stroke="midnightblue" points="678.213,-18.4141 687.761,-13.8241 677.434,-11.4575 678.213,-18.4141"/>
</g>
<!-- Node9&#45;&gt;Node6 -->
<g id="edge15" class="edge"><title>Node9&#45;&gt;Node6</title>
<path fill="none" stroke="midnightblue" d="M80.349,-57.9396C84.9458,-57.2351 89.5696,-56.5706 94,-56 259.704,-34.6586 458.021,-19.781 543.876,-13.8562"/>
<polygon fill="midnightblue" stroke="midnightblue" points="544.284,-17.3366 554.022,-13.1618 543.806,-10.3529 544.284,-17.3366"/>
</g>
<!-- Node10 -->
<g id="node10" class="node"><title>Node10</title>
<polygon fill="none" stroke="#bfbfbf" points="11.707,-1 11.707,-19 68.293,-19 68.293,-1 11.707,-1"/>
<text text-anchor="middle" x="40" y="-7" font-family="Helvetica,sans-Serif" font-size="10.00">stdbool.h</text>
</g>
<!-- Node9&#45;&gt;Node10 -->
<g id="edge13" class="edge"><title>Node9&#45;&gt;Node10</title>
<path fill="none" stroke="midnightblue" d="M40,-56.5625C40,-49.308 40,-38.5884 40,-29.3691"/>
<polygon fill="midnightblue" stroke="midnightblue" points="43.5001,-29.2014 40,-19.2014 36.5001,-29.2015 43.5001,-29.2014"/>
</g>
<!-- Node12&#45;&gt;Node5 -->
<g id="edge19" class="edge"><title>Node12&#45;&gt;Node5</title>
<path fill="none" stroke="midnightblue" d="M195.726,-57.6826C198.845,-57.0519 201.98,-56.4746 205,-56 391.393,-26.7131 440.186,-38.0514 628,-20 644.37,-18.4267 662.514,-16.505 677.738,-14.842"/>
<polygon fill="midnightblue" stroke="midnightblue" points="678.197,-18.3128 687.754,-13.7395 677.431,-11.3548 678.197,-18.3128"/>
</g>
<!-- Node12&#45;&gt;Node6 -->
<g id="edge20" class="edge"><title>Node12&#45;&gt;Node6</title>
<path fill="none" stroke="midnightblue" d="M195.742,-57.783C198.859,-57.1327 201.988,-56.5234 205,-56 327.031,-34.7975 472.759,-20.6963 543.787,-14.5363"/>
<polygon fill="midnightblue" stroke="midnightblue" points="544.457,-17.9918 554.122,-13.6505 543.859,-11.0173 544.457,-17.9918"/>
</g>
<!-- Node13&#45;&gt;Node5 -->
<g id="edge22" class="edge"><title>Node13&#45;&gt;Node5</title>
<path fill="none" stroke="midnightblue" d="M1192.27,-57.7147C1189.15,-57.0778 1186.02,-56.4902 1183,-56 1020.77,-29.6482 824.405,-16.9991 746.371,-12.7309"/>
<polygon fill="midnightblue" stroke="midnightblue" points="746.334,-9.22404 736.161,-12.1837 745.959,-16.214 746.334,-9.22404"/>
</g>
<!-- Node13&#45;&gt;Node6 -->
<g id="edge23" class="edge"><title>Node13&#45;&gt;Node6</title>
<path fill="none" stroke="midnightblue" d="M1192.28,-57.6403C1189.16,-57.0179 1186.02,-56.454 1183,-56 960.919,-22.6508 902.771,-38.9339 679,-20 663.019,-18.6478 645.494,-16.9797 630.067,-15.4485"/>
<polygon fill="midnightblue" stroke="midnightblue" points="630.066,-11.931 619.767,-14.4159 629.368,-18.8961 630.066,-11.931"/>
</g>
<!-- Node14 -->
<g id="node14" class="node"><title>Node14</title>
<polygon fill="none" stroke="#bfbfbf" points="1192.32,-1 1192.32,-19 1251.68,-19 1251.68,-1 1192.32,-1"/>
<text text-anchor="middle" x="1222" y="-7" font-family="Helvetica,sans-Serif" font-size="10.00">mcu/pio.h</text>
</g>
<!-- Node13&#45;&gt;Node14 -->
<g id="edge24" class="edge"><title>Node13&#45;&gt;Node14</title>
<path fill="none" stroke="midnightblue" d="M1222,-56.5625C1222,-49.308 1222,-38.5884 1222,-29.3691"/>
<polygon fill="midnightblue" stroke="midnightblue" points="1225.5,-29.2014 1222,-19.2014 1218.5,-29.2015 1225.5,-29.2014"/>
</g>
<!-- Node15&#45;&gt;Node5 -->
<g id="edge26" class="edge"><title>Node15&#45;&gt;Node5</title>
<path fill="none" stroke="midnightblue" d="M605.714,-56.9157C626.425,-47.9683 660.029,-33.4516 683.903,-23.1378"/>
<polygon fill="midnightblue" stroke="midnightblue" points="685.366,-26.3184 693.158,-19.1396 682.59,-19.8924 685.366,-26.3184"/>
</g>
<!-- Node15&#45;&gt;Node6 -->
<g id="edge27" class="edge"><title>Node15&#45;&gt;Node6</title>
<path fill="none" stroke="midnightblue" d="M587,-56.5625C587,-49.308 587,-38.5884 587,-29.3691"/>
<polygon fill="midnightblue" stroke="midnightblue" points="590.5,-29.2014 587,-19.2014 583.5,-29.2015 590.5,-29.2014"/>
</g>
<!-- Node16&#45;&gt;Node5 -->
<g id="edge29" class="edge"><title>Node16&#45;&gt;Node5</title>
<path fill="none" stroke="midnightblue" d="M672.344,-56.5625C679.213,-48.6703 689.652,-36.6768 698.095,-26.9758"/>
<polygon fill="midnightblue" stroke="midnightblue" points="700.937,-29.0424 704.862,-19.2014 695.656,-24.4467 700.937,-29.0424"/>
</g>
<!-- Node16&#45;&gt;Node6 -->
<g id="edge30" class="edge"><title>Node16&#45;&gt;Node6</title>
<path fill="none" stroke="midnightblue" d="M653.153,-56.7986C640.942,-48.3446 621.68,-35.0093 607.083,-24.9039"/>
<polygon fill="midnightblue" stroke="midnightblue" points="608.917,-21.9161 598.702,-19.1017 604.932,-27.6715 608.917,-21.9161"/>
</g>
<!-- Node17&#45;&gt;Node5 -->
<g id="edge32" class="edge"><title>Node17&#45;&gt;Node5</title>
<path fill="none" stroke="midnightblue" d="M888.01,-56.9157C849.932,-46.9824 785.541,-30.1847 746.095,-19.8944"/>
<polygon fill="midnightblue" stroke="midnightblue" points="746.955,-16.5015 736.395,-17.3639 745.188,-23.2748 746.955,-16.5015"/>
</g>
<!-- Node17&#45;&gt;Node6 -->
<g id="edge33" class="edge"><title>Node17&#45;&gt;Node6</title>
<path fill="none" stroke="midnightblue" d="M886.477,-57.839C883.28,-57.1927 880.08,-56.5685 877,-56 789.74,-39.8941 686.989,-24.8751 630.21,-16.9184"/>
<polygon fill="midnightblue" stroke="midnightblue" points="630.545,-13.4314 620.157,-15.5163 629.578,-20.3642 630.545,-13.4314"/>
</g>
<!-- Node18&#45;&gt;Node5 -->
<g id="edge35" class="edge"><title>Node18&#45;&gt;Node5</title>
<path fill="none" stroke="midnightblue" d="M968.355,-57.8553C965.537,-57.2056 962.716,-56.5762 960,-56 884.188,-39.9163 794.577,-24.549 746.543,-16.6048"/>
<polygon fill="midnightblue" stroke="midnightblue" points="746.818,-13.103 736.383,-14.9326 745.681,-20.0101 746.818,-13.103"/>
</g>
<!-- Node18&#45;&gt;Node6 -->
<g id="edge36" class="edge"><title>Node18&#45;&gt;Node6</title>
<path fill="none" stroke="midnightblue" d="M968.388,-57.6855C965.564,-57.0703 962.732,-56.4953 960,-56 897.465,-44.6634 713.999,-24.5106 629.948,-15.5328"/>
<polygon fill="midnightblue" stroke="midnightblue" points="630.281,-12.0485 619.966,-14.4692 629.539,-19.0091 630.281,-12.0485"/>
</g>
<!-- Node19&#45;&gt;Node3 -->
<g id="edge38" class="edge"><title>Node19&#45;&gt;Node3</title>
<path fill="none" stroke="midnightblue" d="M739.863,-112.916C760.741,-103.968 794.613,-89.4516 818.679,-79.1378"/>
<polygon fill="midnightblue" stroke="midnightblue" points="820.195,-82.2959 828.008,-75.1396 817.437,-75.8619 820.195,-82.2959"/>
</g>
<!-- Node19&#45;&gt;Node5 -->
<g id="edge39" class="edge"><title>Node19&#45;&gt;Node5</title>
<path fill="none" stroke="midnightblue" d="M735.77,-112.969C754.926,-101.417 784.595,-78.9622 773,-56 765.983,-42.1041 752.427,-31.4421 739.873,-23.9923"/>
<polygon fill="midnightblue" stroke="midnightblue" points="741.467,-20.8751 731.016,-19.1351 738.101,-27.0126 741.467,-20.8751"/>
</g>
<!-- Node19&#45;&gt;Node6 -->
<g id="edge40" class="edge"><title>Node19&#45;&gt;Node6</title>
<path fill="none" stroke="midnightblue" d="M720.827,-112.697C720.103,-99.1356 716.763,-72.1326 702,-56 683.32,-35.5869 654.246,-24.3188 630.006,-18.1631"/>
<polygon fill="midnightblue" stroke="midnightblue" points="630.49,-14.6825 619.957,-15.8262 628.905,-21.5006 630.49,-14.6825"/>
</g>
<!-- Node20&#45;&gt;Node5 -->
<g id="edge42" class="edge"><title>Node20&#45;&gt;Node5</title>
<path fill="none" stroke="midnightblue" d="M1042.78,-57.829C1039.83,-57.1697 1036.86,-56.5457 1034,-56 930.132,-36.1608 805.845,-21.2594 746.648,-14.6933"/>
<polygon fill="midnightblue" stroke="midnightblue" points="746.694,-11.1774 736.372,-13.565 745.93,-18.1356 746.694,-11.1774"/>
</g>
<!-- Node20&#45;&gt;Node6 -->
<g id="edge43" class="edge"><title>Node20&#45;&gt;Node6</title>
<path fill="none" stroke="midnightblue" d="M1042.8,-57.7156C1039.84,-57.0784 1036.87,-56.4906 1034,-56 1024.1,-54.3055 740.412,-26.1722 630.198,-15.2693"/>
<polygon fill="midnightblue" stroke="midnightblue" points="630.385,-11.7708 620.089,-14.2695 629.696,-18.7368 630.385,-11.7708"/>
</g>
<!-- Node21&#45;&gt;Node5 -->
<g id="edge45" class="edge"><title>Node21&#45;&gt;Node5</title>
<path fill="none" stroke="midnightblue" d="M1117.03,-57.7618C1113.99,-57.1156 1110.94,-56.5131 1108,-56 975.365,-32.8424 815.566,-18.8898 746.533,-13.5284"/>
<polygon fill="midnightblue" stroke="midnightblue" points="746.488,-10.0148 736.25,-12.7415 745.954,-16.9944 746.488,-10.0148"/>
</g>
<!-- Node21&#45;&gt;Node6 -->
<g id="edge46" class="edge"><title>Node21&#45;&gt;Node6</title>
<path fill="none" stroke="midnightblue" d="M1117.04,-57.6727C1114,-57.0439 1110.95,-56.4698 1108,-56 919.051,-25.8682 869.552,-37.3148 679,-20 663.027,-18.5486 645.505,-16.8588 630.077,-15.338"/>
<polygon fill="midnightblue" stroke="midnightblue" points="630.072,-11.8204 619.776,-14.3171 629.382,-18.7863 630.072,-11.8204"/>
</g>
<!-- Node22&#45;&gt;Node5 -->
<g id="edge48" class="edge"><title>Node22&#45;&gt;Node5</title>
<path fill="none" stroke="midnightblue" d="M382.604,-57.671C385.436,-57.0735 388.267,-56.5059 391,-56 494.663,-36.8109 618.509,-21.6082 677.485,-14.8336"/>
<polygon fill="midnightblue" stroke="midnightblue" points="678.183,-18.2769 687.722,-13.6677 677.39,-11.3218 678.183,-18.2769"/>
</g>
<!-- Node22&#45;&gt;Node6 -->
<g id="edge49" class="edge"><title>Node22&#45;&gt;Node6</title>
<path fill="none" stroke="midnightblue" d="M382.656,-57.9221C385.477,-57.2719 388.291,-56.6235 391,-56 443.739,-43.8606 504.47,-29.9238 544.179,-20.8168"/>
<polygon fill="midnightblue" stroke="midnightblue" points="545.087,-24.1995 554.052,-18.5527 543.523,-17.3766 545.087,-24.1995"/>
</g>
<!-- Node23&#45;&gt;Node5 -->
<g id="edge51" class="edge"><title>Node23&#45;&gt;Node5</title>
<path fill="none" stroke="midnightblue" d="M459.839,-57.7835C462.594,-57.1624 465.346,-56.5586 468,-56 542.457,-40.3271 630.332,-24.8582 677.659,-16.7737"/>
<polygon fill="midnightblue" stroke="midnightblue" points="678.407,-20.1969 687.678,-15.0693 677.233,-13.2961 678.407,-20.1969"/>
</g>
<!-- Node23&#45;&gt;Node6 -->
<g id="edge52" class="edge"><title>Node23&#45;&gt;Node6</title>
<path fill="none" stroke="midnightblue" d="M453.504,-56.9157C480.173,-47.743 523.86,-32.7171 553.952,-22.3669"/>
<polygon fill="midnightblue" stroke="midnightblue" points="555.274,-25.6135 563.592,-19.0513 552.997,-18.9941 555.274,-25.6135"/>
</g>
<!-- Node24&#45;&gt;Node1 -->
<g id="edge55" class="edge"><title>Node24&#45;&gt;Node1</title>
<path fill="none" stroke="midnightblue" d="M994.03,-131.055C992.335,-131.382 990.651,-131.698 989,-132 907.396,-146.927 812.174,-161.25 752.135,-169.582"/>
<polygon fill="midnightblue" stroke="midnightblue" points="751.507,-166.136 742.078,-170.967 752.462,-173.07 751.507,-166.136"/>
</g>
<!-- Node24&#45;&gt;Node5 -->
<g id="edge54" class="edge"><title>Node24&#45;&gt;Node5</title>
<path fill="none" stroke="midnightblue" d="M1052.42,-113.867C1055.32,-113.215 1058.21,-112.582 1061,-112 1150.94,-93.2277 1322.25,-123.575 1260,-56 1225.19,-18.2099 861.31,-12.1551 746.502,-11.185"/>
<polygon fill="midnightblue" stroke="midnightblue" points="746.215,-7.68285 736.189,-11.1062 746.162,-14.6826 746.215,-7.68285"/>
</g>
</g>
</svg>
