<?xml version="1.0" encoding="UTF-8" standalone="no"?>
<!DOCTYPE svg PUBLIC "-//W3C//DTD SVG 1.1//EN"
 "http://www.w3.org/Graphics/SVG/1.1/DTD/svg11.dtd">
<!-- Generated by graphviz version 2.36.0 (20140111.2315)
 -->
<!-- Title: include/iface/link.h Pages: 1 -->
<svg width="1273pt" height="196pt"
 viewBox="0.00 0.00 1273.44 196.00" xmlns="http://www.w3.org/2000/svg" xmlns:xlink="http://www.w3.org/1999/xlink">
<g id="graph0" class="graph" transform="scale(1 1) rotate(0) translate(4 192)">
<title>include/iface/link.h</title>
<!-- Node1 -->
<g id="node1" class="node"><title>Node1</title>
<polygon fill="#bfbfbf" stroke="black" points="645.143,-169 645.143,-187 742.857,-187 742.857,-169 645.143,-169"/>
<text text-anchor="middle" x="694" y="-175" font-family="Helvetica,sans-Serif" font-size="10.00">include/iface/link.h</text>
</g>
<!-- Node2 -->
<g id="node2" class="node"><title>Node2</title>
<polygon fill="none" stroke="#bfbfbf" points="227.882,-113 227.882,-131 286.118,-131 286.118,-113 227.882,-113"/>
<text text-anchor="middle" x="257" y="-119" font-family="Helvetica,sans-Serif" font-size="10.00">sys/stat.h</text>
</g>
<!-- Node1&#45;&gt;Node2 -->
<g id="edge1" class="edge"><title>Node1&#45;&gt;Node2</title>
<path fill="none" stroke="midnightblue" d="M644.969,-172.871C570.252,-166.248 423.532,-151.938 300,-132 298.908,-131.824 297.802,-131.639 296.687,-131.446"/>
<polygon fill="midnightblue" stroke="midnightblue" points="297.013,-127.947 286.541,-129.558 295.732,-134.829 297.013,-127.947"/>
</g>
<!-- Node3 -->
<g id="node3" class="node"><title>Node3</title>
<polygon fill="none" stroke="#bfbfbf" points="667.384,-57 667.384,-75 710.616,-75 710.616,-57 667.384,-57"/>
<text text-anchor="middle" x="689" y="-63" font-family="Helvetica,sans-Serif" font-size="10.00">time.h</text>
</g>
<!-- Node1&#45;&gt;Node3 -->
<g id="edge2" class="edge"><title>Node1&#45;&gt;Node3</title>
<path fill="none" stroke="midnightblue" d="M693.624,-168.732C692.824,-151.127 690.935,-109.575 689.835,-85.3716"/>
<polygon fill="midnightblue" stroke="midnightblue" points="693.317,-84.8956 689.367,-75.0649 686.324,-85.2135 693.317,-84.8956"/>
</g>
<!-- Node4 -->
<g id="node4" class="node"><title>Node4</title>
<g id="a_node4"><a xlink:href="adc_8h.html" target="_top" xlink:title="Analog to Digital Converter Header File. ">
<polygon fill="none" stroke="black" points="475.318,-57 475.318,-75 534.682,-75 534.682,-57 475.318,-57"/>
<text text-anchor="middle" x="505" y="-63" font-family="Helvetica,sans-Serif" font-size="10.00">dev/adc.h</text>
</a>
</g>
</g>
<!-- Node1&#45;&gt;Node4 -->
<g id="edge3" class="edge"><title>Node1&#45;&gt;Node4</title>
<path fill="none" stroke="midnightblue" d="M675.865,-168.858C657.243,-160.308 627.591,-146.16 603,-132 574.896,-115.818 543.938,-94.6921 524.488,-80.9878"/>
<polygon fill="midnightblue" stroke="midnightblue" points="526.351,-78.0178 516.17,-75.0843 522.299,-83.7263 526.351,-78.0178"/>
</g>
<!-- Node7 -->
<g id="node7" class="node"><title>Node7</title>
<g id="a_node7"><a xlink:href="bootloader_8h.html" target="_top" xlink:title="Analog to Digital Converter Header File. ">
<polygon fill="none" stroke="black" points="212.022,-57 212.022,-75 301.978,-75 301.978,-57 212.022,-57"/>
<text text-anchor="middle" x="257" y="-63" font-family="Helvetica,sans-Serif" font-size="10.00">dev/bootloader.h</text>
</a>
</g>
</g>
<!-- Node1&#45;&gt;Node7 -->
<g id="edge6" class="edge"><title>Node1&#45;&gt;Node7</title>
<path fill="none" stroke="midnightblue" d="M644.992,-170.384C601.746,-163.639 537.457,-151.379 484,-132 466.057,-125.495 463.868,-118.707 446,-112 402.229,-95.5687 350.447,-83.7382 312.163,-76.3434"/>
<polygon fill="midnightblue" stroke="midnightblue" points="312.715,-72.8858 302.239,-74.4672 311.414,-79.7639 312.715,-72.8858"/>
</g>
<!-- Node8 -->
<g id="node8" class="node"><title>Node8</title>
<g id="a_node8"><a xlink:href="core_8h.html" target="_top" xlink:title="Analog to Digital Converter Header File. ">
<polygon fill="none" stroke="black" points="341.653,-113 341.653,-131 404.347,-131 404.347,-113 341.653,-113"/>
<text text-anchor="middle" x="373" y="-119" font-family="Helvetica,sans-Serif" font-size="10.00">dev/core.h</text>
</a>
</g>
</g>
<!-- Node1&#45;&gt;Node8 -->
<g id="edge9" class="edge"><title>Node1&#45;&gt;Node8</title>
<path fill="none" stroke="midnightblue" d="M645.05,-169.561C589.806,-161.039 497.297,-146.389 418,-132 416.903,-131.801 415.79,-131.597 414.669,-131.388"/>
<polygon fill="midnightblue" stroke="midnightblue" points="414.923,-127.874 404.444,-129.438 413.611,-134.75 414.923,-127.874"/>
</g>
<!-- Node9 -->
<g id="node9" class="node"><title>Node9</title>
<g id="a_node9"><a xlink:href="pio_8h.html" target="_top" xlink:title="General Purpose Input/Output Header File. ">
<polygon fill="none" stroke="black" points="-0.243652,-57 -0.243652,-75 80.2437,-75 80.2437,-57 -0.243652,-57"/>
<text text-anchor="middle" x="40" y="-63" font-family="Helvetica,sans-Serif" font-size="10.00">iface/dev/pio.h</text>
</a>
</g>
</g>
<!-- Node1&#45;&gt;Node9 -->
<g id="edge16" class="edge"><title>Node1&#45;&gt;Node9</title>
<path fill="none" stroke="midnightblue" d="M644.943,-176.428C574.381,-174.375 440.862,-165.868 333,-132 314.791,-126.283 313.058,-118.177 295,-112 258.032,-99.355 153.702,-83.1352 90.5306,-74.0249"/>
<polygon fill="midnightblue" stroke="midnightblue" points="90.777,-70.5246 80.3817,-72.5714 89.7845,-77.4539 90.777,-70.5246"/>
</g>
<!-- Node11 -->
<g id="node11" class="node"><title>Node11</title>
<g id="a_node11"><a xlink:href="dac_8h.html" target="_top" xlink:title="DAC Header File. ">
<polygon fill="none" stroke="black" points="1041.32,-57 1041.32,-75 1100.68,-75 1100.68,-57 1041.32,-57"/>
<text text-anchor="middle" x="1071" y="-63" font-family="Helvetica,sans-Serif" font-size="10.00">dev/dac.h</text>
</a>
</g>
</g>
<!-- Node1&#45;&gt;Node11 -->
<g id="edge17" class="edge"><title>Node1&#45;&gt;Node11</title>
<path fill="none" stroke="midnightblue" d="M728.176,-168.966C761.8,-160.761 814.43,-147.111 859,-132 881.276,-124.447 885.735,-119.588 908,-112 949.552,-97.8397 998.175,-84.8686 1031.43,-76.5286"/>
<polygon fill="midnightblue" stroke="midnightblue" points="1032.37,-79.901 1041.23,-74.0928 1030.69,-73.1076 1032.37,-79.901"/>
</g>
<!-- Node12 -->
<g id="node12" class="node"><title>Node12</title>
<g id="a_node12"><a xlink:href="eint_8h.html" target="_top" xlink:title="External Interrupt Header File. ">
<polygon fill="none" stroke="black" points="1193.32,-57 1193.32,-75 1252.68,-75 1252.68,-57 1193.32,-57"/>
<text text-anchor="middle" x="1223" y="-63" font-family="Helvetica,sans-Serif" font-size="10.00">dev/eint.h</text>
</a>
</g>
</g>
<!-- Node1&#45;&gt;Node12 -->
<g id="edge20" class="edge"><title>Node1&#45;&gt;Node12</title>
<path fill="none" stroke="midnightblue" d="M743.096,-171.55C792.626,-165.202 870.876,-152.832 936,-132 956.075,-125.578 958.893,-118.321 979,-112 1064.23,-85.2052 1091.49,-93.7572 1183.24,-76.0261"/>
<polygon fill="midnightblue" stroke="midnightblue" points="1184.1,-79.4233 1193.22,-74.0421 1182.73,-72.5575 1184.1,-79.4233"/>
</g>
<!-- Node14 -->
<g id="node14" class="node"><title>Node14</title>
<g id="a_node14"><a xlink:href="flash_8h.html" target="_top" xlink:title="Flash Memory Header File. ">
<polygon fill="none" stroke="black" points="728.818,-57 728.818,-75 793.182,-75 793.182,-57 728.818,-57"/>
<text text-anchor="middle" x="761" y="-63" font-family="Helvetica,sans-Serif" font-size="10.00">dev/flash.h</text>
</a>
</g>
</g>
<!-- Node1&#45;&gt;Node14 -->
<g id="edge24" class="edge"><title>Node1&#45;&gt;Node14</title>
<path fill="none" stroke="midnightblue" d="M699.036,-168.732C710.002,-150.727 736.226,-107.673 750.798,-83.7488"/>
<polygon fill="midnightblue" stroke="midnightblue" points="753.875,-85.4261 756.088,-75.0649 747.897,-81.7847 753.875,-85.4261"/>
</g>
<!-- Node15 -->
<g id="node15" class="node"><title>Node15</title>
<g id="a_node15"><a xlink:href="i2c_8h.html" target="_top" xlink:title="I2C Header File. ">
<polygon fill="none" stroke="black" points="810.988,-57 810.988,-75 867.012,-75 867.012,-57 810.988,-57"/>
<text text-anchor="middle" x="839" y="-63" font-family="Helvetica,sans-Serif" font-size="10.00">dev/i2c.h</text>
</a>
</g>
</g>
<!-- Node1&#45;&gt;Node15 -->
<g id="edge27" class="edge"><title>Node1&#45;&gt;Node15</title>
<path fill="none" stroke="midnightblue" d="M704.899,-168.732C729.476,-150.087 789.463,-104.58 820.188,-81.2714"/>
<polygon fill="midnightblue" stroke="midnightblue" points="822.517,-83.8972 828.369,-75.0649 818.287,-78.3204 822.517,-83.8972"/>
</g>
<!-- Node16 -->
<g id="node16" class="node"><title>Node16</title>
<g id="a_node16"><a xlink:href="pwm_8h.html" target="_top" xlink:title="Pulse Width Modulation Header File. ">
<polygon fill="none" stroke="black" points="884.823,-57 884.823,-75 949.177,-75 949.177,-57 884.823,-57"/>
<text text-anchor="middle" x="917" y="-63" font-family="Helvetica,sans-Serif" font-size="10.00">dev/pwm.h</text>
</a>
</g>
</g>
<!-- Node1&#45;&gt;Node16 -->
<g id="edge30" class="edge"><title>Node1&#45;&gt;Node16</title>
<path fill="none" stroke="midnightblue" d="M710.398,-168.911C748.899,-149.92 845.305,-102.365 891.518,-79.5697"/>
<polygon fill="midnightblue" stroke="midnightblue" points="893.158,-82.6632 900.578,-75.1004 890.062,-76.3854 893.158,-82.6632"/>
</g>
<!-- Node17 -->
<g id="node17" class="node"><title>Node17</title>
<g id="a_node17"><a xlink:href="qei_8h.html" target="_top" xlink:title="Quadrature Encoder Interface Header File. ">
<polygon fill="none" stroke="black" points="966.707,-57 966.707,-75 1023.29,-75 1023.29,-57 966.707,-57"/>
<text text-anchor="middle" x="995" y="-63" font-family="Helvetica,sans-Serif" font-size="10.00">dev/qei.h</text>
</a>
</g>
</g>
<!-- Node1&#45;&gt;Node17 -->
<g id="edge33" class="edge"><title>Node1&#45;&gt;Node17</title>
<path fill="none" stroke="midnightblue" d="M717.318,-168.966C742.682,-160.159 784.371,-145.483 820,-132 842.385,-123.529 847.626,-120.499 870,-112 901.217,-100.142 937.106,-87.3031 962.397,-78.386"/>
<polygon fill="midnightblue" stroke="midnightblue" points="963.6,-81.673 971.873,-75.0537 961.278,-75.0694 963.6,-81.673"/>
</g>
<!-- Node18 -->
<g id="node18" class="node"><title>Node18</title>
<g id="a_node18"><a xlink:href="rtc_8h.html" target="_top" xlink:title="Real Time Clock Header File. ">
<polygon fill="none" stroke="black" points="611.825,-113 611.825,-131 666.175,-131 666.175,-113 611.825,-113"/>
<text text-anchor="middle" x="639" y="-119" font-family="Helvetica,sans-Serif" font-size="10.00">dev/rtc.h</text>
</a>
</g>
</g>
<!-- Node1&#45;&gt;Node18 -->
<g id="edge36" class="edge"><title>Node1&#45;&gt;Node18</title>
<path fill="none" stroke="midnightblue" d="M685.406,-168.562C677.205,-160.511 664.657,-148.191 654.676,-138.391"/>
<polygon fill="midnightblue" stroke="midnightblue" points="656.941,-135.71 647.353,-131.201 652.037,-140.705 656.941,-135.71"/>
</g>
<!-- Node19 -->
<g id="node19" class="node"><title>Node19</title>
<g id="a_node19"><a xlink:href="spi_8h.html" target="_top" xlink:title="Serial Peripheral Interface Header File. ">
<polygon fill="none" stroke="black" points="1118.99,-57 1118.99,-75 1175.01,-75 1175.01,-57 1118.99,-57"/>
<text text-anchor="middle" x="1147" y="-63" font-family="Helvetica,sans-Serif" font-size="10.00">dev/spi.h</text>
</a>
</g>
</g>
<!-- Node1&#45;&gt;Node19 -->
<g id="edge40" class="edge"><title>Node1&#45;&gt;Node19</title>
<path fill="none" stroke="midnightblue" d="M741.622,-168.975C783.371,-161.355 845.433,-148.604 898,-132 920.038,-125.039 923.963,-118.964 946,-112 1016.74,-89.6447 1036.68,-92.5497 1109,-76 1109.1,-75.9773 1109.2,-75.9546 1109.3,-75.9318"/>
<polygon fill="midnightblue" stroke="midnightblue" points="1109.84,-79.3995 1118.79,-73.7317 1108.26,-72.5803 1109.84,-79.3995"/>
</g>
<!-- Node20 -->
<g id="node20" class="node"><title>Node20</title>
<g id="a_node20"><a xlink:href="tmr_8h.html" target="_top" xlink:title="Timer Header File. ">
<polygon fill="none" stroke="black" points="136.434,-57 136.434,-75 193.566,-75 193.566,-57 136.434,-57"/>
<text text-anchor="middle" x="165" y="-63" font-family="Helvetica,sans-Serif" font-size="10.00">dev/tmr.h</text>
</a>
</g>
</g>
<!-- Node1&#45;&gt;Node20 -->
<g id="edge43" class="edge"><title>Node1&#45;&gt;Node20</title>
<path fill="none" stroke="midnightblue" d="M645.057,-173.413C593.994,-168.466 512.29,-157.117 446,-132 429.963,-125.923 429.067,-117.998 413,-112 327.232,-79.9787 297.744,-93.9102 203.532,-75.942"/>
<polygon fill="midnightblue" stroke="midnightblue" points="204.081,-72.4827 193.591,-73.9747 202.722,-79.3496 204.081,-72.4827"/>
</g>
<!-- Node21 -->
<g id="node21" class="node"><title>Node21</title>
<g id="a_node21"><a xlink:href="uart_8h.html" target="_top" xlink:title="Universal Asynchronous Receiver/Transmitter Header File. ">
<polygon fill="none" stroke="black" points="319.764,-57 319.764,-75 380.236,-75 380.236,-57 319.764,-57"/>
<text text-anchor="middle" x="350" y="-63" font-family="Helvetica,sans-Serif" font-size="10.00">dev/uart.h</text>
</a>
</g>
</g>
<!-- Node1&#45;&gt;Node21 -->
<g id="edge46" class="edge"><title>Node1&#45;&gt;Node21</title>
<path fill="none" stroke="midnightblue" d="M652.507,-168.934C617.14,-161.405 565.307,-148.806 522,-132 504.208,-125.095 501.547,-119.506 484,-112 452.389,-98.4772 415.244,-86.2779 388.09,-78.0036"/>
<polygon fill="midnightblue" stroke="midnightblue" points="388.788,-74.5589 378.204,-75.03 386.772,-81.2623 388.788,-74.5589"/>
</g>
<!-- Node22 -->
<g id="node22" class="node"><title>Node22</title>
<g id="a_node22"><a xlink:href="usb_8h.html" target="_top" xlink:title="Universal Serial Bus Header File. ">
<polygon fill="none" stroke="black" points="398.318,-57 398.318,-75 457.682,-75 457.682,-57 398.318,-57"/>
<text text-anchor="middle" x="428" y="-63" font-family="Helvetica,sans-Serif" font-size="10.00">dev/usb.h</text>
</a>
</g>
</g>
<!-- Node1&#45;&gt;Node22 -->
<g id="edge49" class="edge"><title>Node1&#45;&gt;Node22</title>
<path fill="none" stroke="midnightblue" d="M669.802,-168.983C644.449,-160.421 603.577,-146.163 569,-132 527.944,-115.183 481.395,-93.1216 453.388,-79.5109"/>
<polygon fill="midnightblue" stroke="midnightblue" points="454.817,-76.3133 444.295,-75.0715 451.746,-82.6037 454.817,-76.3133"/>
</g>
<!-- Node23 -->
<g id="node23" class="node"><title>Node23</title>
<g id="a_node23"><a xlink:href="sys_8h.html" target="_top" xlink:title="dev/sys.h">
<polygon fill="none" stroke="black" points="987.879,-113 987.879,-131 1046.12,-131 1046.12,-113 987.879,-113"/>
<text text-anchor="middle" x="1017" y="-119" font-family="Helvetica,sans-Serif" font-size="10.00">dev/sys.h</text>
</a>
</g>
</g>
<!-- Node1&#45;&gt;Node23 -->
<g id="edge52" class="edge"><title>Node1&#45;&gt;Node23</title>
<path fill="none" stroke="midnightblue" d="M742.095,-168.963C796.402,-160.495 887.053,-146.413 965,-132 969.05,-131.251 973.305,-130.418 977.582,-129.569"/>
<polygon fill="midnightblue" stroke="midnightblue" points="978.393,-132.976 987.517,-127.592 977.027,-126.111 978.393,-132.976"/>
</g>
<!-- Node5 -->
<g id="node5" class="node"><title>Node5</title>
<polygon fill="none" stroke="#bfbfbf" points="675.879,-1 675.879,-19 724.121,-19 724.121,-1 675.879,-1"/>
<text text-anchor="middle" x="700" y="-7" font-family="Helvetica,sans-Serif" font-size="10.00">stdint.h</text>
</g>
<!-- Node4&#45;&gt;Node5 -->
<g id="edge4" class="edge"><title>Node4&#45;&gt;Node5</title>
<path fill="none" stroke="midnightblue" d="M534.193,-56.9157C569.447,-47.1532 628.643,-30.7605 665.943,-20.4311"/>
<polygon fill="midnightblue" stroke="midnightblue" points="667.142,-23.7309 675.845,-17.689 665.274,-16.9848 667.142,-23.7309"/>
</g>
<!-- Node6 -->
<g id="node6" class="node"><title>Node6</title>
<polygon fill="none" stroke="#bfbfbf" points="530.269,-1 530.269,-19 595.731,-19 595.731,-1 530.269,-1"/>
<text text-anchor="middle" x="563" y="-7" font-family="Helvetica,sans-Serif" font-size="10.00">mcu/arch.h</text>
</g>
<!-- Node4&#45;&gt;Node6 -->
<g id="edge5" class="edge"><title>Node4&#45;&gt;Node6</title>
<path fill="none" stroke="midnightblue" d="M514.062,-56.5625C522.796,-48.4311 536.206,-35.9462 546.781,-26.1003"/>
<polygon fill="midnightblue" stroke="midnightblue" points="549.257,-28.5773 554.191,-19.2014 544.487,-23.454 549.257,-28.5773"/>
</g>
<!-- Node7&#45;&gt;Node5 -->
<g id="edge7" class="edge"><title>Node7&#45;&gt;Node5</title>
<path fill="none" stroke="midnightblue" d="M302.055,-57.3178C305.08,-56.8555 308.083,-56.4116 311,-56 441.675,-37.5638 597.839,-21.2133 665.703,-14.3855"/>
<polygon fill="midnightblue" stroke="midnightblue" points="666.218,-17.8516 675.82,-13.3726 665.521,-10.8864 666.218,-17.8516"/>
</g>
<!-- Node7&#45;&gt;Node6 -->
<g id="edge8" class="edge"><title>Node7&#45;&gt;Node6</title>
<path fill="none" stroke="midnightblue" d="M302.151,-57.0321C360.806,-46.6812 462.488,-28.7374 520.045,-18.5803"/>
<polygon fill="midnightblue" stroke="midnightblue" points="520.677,-22.023 529.916,-16.8383 519.46,-15.1295 520.677,-22.023"/>
</g>
<!-- Node8&#45;&gt;Node5 -->
<g id="edge10" class="edge"><title>Node8&#45;&gt;Node5</title>
<path fill="none" stroke="midnightblue" d="M404.392,-114.021C438.791,-106.066 495.417,-92.0674 543,-76 589.658,-60.2449 642.225,-37.3982 673.155,-23.4078"/>
<polygon fill="midnightblue" stroke="midnightblue" points="674.751,-26.5266 682.402,-19.1969 671.85,-20.156 674.751,-26.5266"/>
</g>
<!-- Node8&#45;&gt;Node6 -->
<g id="edge11" class="edge"><title>Node8&#45;&gt;Node6</title>
<path fill="none" stroke="midnightblue" d="M341.544,-114.625C337.003,-113.729 332.384,-112.831 328,-112 236.886,-94.731 64.8832,-124.858 127,-56 153.025,-27.1501 415.03,-15.6913 519.922,-12.2369"/>
<polygon fill="midnightblue" stroke="midnightblue" points="520.275,-15.7275 530.157,-11.9089 520.05,-8.73108 520.275,-15.7275"/>
</g>
<!-- Node8&#45;&gt;Node9 -->
<g id="edge12" class="edge"><title>Node8&#45;&gt;Node9</title>
<path fill="none" stroke="midnightblue" d="M341.563,-114.526C337.018,-113.645 332.393,-112.777 328,-112 224.384,-93.6774 197.898,-92.6496 94,-76 92.8973,-75.8233 91.7821,-75.6438 90.6578,-75.4623"/>
<polygon fill="midnightblue" stroke="midnightblue" points="90.8212,-71.9428 80.3883,-73.788 89.6948,-78.8516 90.8212,-71.9428"/>
</g>
<!-- Node9&#45;&gt;Node5 -->
<g id="edge14" class="edge"><title>Node9&#45;&gt;Node5</title>
<path fill="none" stroke="midnightblue" d="M80.2597,-60.5999C94.9602,-59.0554 111.724,-57.3663 127,-56 338.758,-37.0598 392.154,-37.923 604,-20 624.358,-18.2777 647.124,-16.152 665.375,-14.399"/>
<polygon fill="midnightblue" stroke="midnightblue" points="665.93,-17.8618 675.547,-13.4158 665.257,-10.8942 665.93,-17.8618"/>
</g>
<!-- Node9&#45;&gt;Node6 -->
<g id="edge15" class="edge"><title>Node9&#45;&gt;Node6</title>
<path fill="none" stroke="midnightblue" d="M80.3516,-57.9602C84.9479,-57.2518 89.5709,-56.5809 94,-56 250.525,-35.4722 437.601,-20.3201 520.203,-14.1053"/>
<polygon fill="midnightblue" stroke="midnightblue" points="520.506,-17.5924 530.217,-13.3572 519.984,-10.6119 520.506,-17.5924"/>
</g>
<!-- Node10 -->
<g id="node10" class="node"><title>Node10</title>
<polygon fill="none" stroke="#bfbfbf" points="11.707,-1 11.707,-19 68.293,-19 68.293,-1 11.707,-1"/>
<text text-anchor="middle" x="40" y="-7" font-family="Helvetica,sans-Serif" font-size="10.00">stdbool.h</text>
</g>
<!-- Node9&#45;&gt;Node10 -->
<g id="edge13" class="edge"><title>Node9&#45;&gt;Node10</title>
<path fill="none" stroke="midnightblue" d="M40,-56.5625C40,-49.308 40,-38.5884 40,-29.3691"/>
<polygon fill="midnightblue" stroke="midnightblue" points="43.5001,-29.2014 40,-19.2014 36.5001,-29.2015 43.5001,-29.2014"/>
</g>
<!-- Node11&#45;&gt;Node5 -->
<g id="edge18" class="edge"><title>Node11&#45;&gt;Node5</title>
<path fill="none" stroke="midnightblue" d="M1041.25,-57.8371C1038.13,-57.1762 1035.01,-56.5497 1032,-56 924.045,-36.2707 794.884,-21.1798 734.412,-14.6066"/>
<polygon fill="midnightblue" stroke="midnightblue" points="734.599,-11.1066 724.282,-13.5156 733.849,-18.0664 734.599,-11.1066"/>
</g>
<!-- Node11&#45;&gt;Node6 -->
<g id="edge19" class="edge"><title>Node11&#45;&gt;Node6</title>
<path fill="none" stroke="midnightblue" d="M1041.27,-57.716C1038.15,-57.0788 1035.02,-56.4908 1032,-56 990.589,-49.2649 714.315,-24.4217 606.232,-14.8214"/>
<polygon fill="midnightblue" stroke="midnightblue" points="606.28,-11.312 596.009,-13.9143 605.661,-18.2846 606.28,-11.312"/>
</g>
<!-- Node12&#45;&gt;Node5 -->
<g id="edge21" class="edge"><title>Node12&#45;&gt;Node5</title>
<path fill="none" stroke="midnightblue" d="M1193.27,-57.7069C1190.15,-57.0714 1187.02,-56.4864 1184,-56 1016.9,-29.0752 814.546,-16.7179 734.748,-12.6288"/>
<polygon fill="midnightblue" stroke="midnightblue" points="734.481,-9.11107 724.318,-12.106 734.13,-16.1023 734.481,-9.11107"/>
</g>
<!-- Node12&#45;&gt;Node6 -->
<g id="edge22" class="edge"><title>Node12&#45;&gt;Node6</title>
<path fill="none" stroke="midnightblue" d="M1193.28,-57.6348C1190.16,-57.0134 1187.02,-56.4513 1184,-56 956.189,-21.9985 896.635,-37.9299 667,-20 646.877,-18.4288 624.578,-16.5212 605.806,-14.8674"/>
<polygon fill="midnightblue" stroke="midnightblue" points="606.046,-11.375 595.776,-13.9784 605.428,-18.3477 606.046,-11.375"/>
</g>
<!-- Node13 -->
<g id="node13" class="node"><title>Node13</title>
<polygon fill="none" stroke="#bfbfbf" points="1193.32,-1 1193.32,-19 1252.68,-19 1252.68,-1 1193.32,-1"/>
<text text-anchor="middle" x="1223" y="-7" font-family="Helvetica,sans-Serif" font-size="10.00">mcu/pio.h</text>
</g>
<!-- Node12&#45;&gt;Node13 -->
<g id="edge23" class="edge"><title>Node12&#45;&gt;Node13</title>
<path fill="none" stroke="midnightblue" d="M1223,-56.5625C1223,-49.308 1223,-38.5884 1223,-29.3691"/>
<polygon fill="midnightblue" stroke="midnightblue" points="1226.5,-29.2014 1223,-19.2014 1219.5,-29.2015 1226.5,-29.2014"/>
</g>
<!-- Node14&#45;&gt;Node5 -->
<g id="edge25" class="edge"><title>Node14&#45;&gt;Node5</title>
<path fill="none" stroke="midnightblue" d="M751.735,-56.7986C742.509,-48.6313 728.137,-35.9083 716.88,-25.943"/>
<polygon fill="midnightblue" stroke="midnightblue" points="719.159,-23.2864 709.352,-19.2786 714.519,-28.5277 719.159,-23.2864"/>
</g>
<!-- Node14&#45;&gt;Node6 -->
<g id="edge26" class="edge"><title>Node14&#45;&gt;Node6</title>
<path fill="none" stroke="midnightblue" d="M731.357,-56.9157C696.993,-47.5436 640.224,-32.061 602.228,-21.6986"/>
<polygon fill="midnightblue" stroke="midnightblue" points="603.09,-18.3059 592.521,-19.0513 601.248,-25.0592 603.09,-18.3059"/>
</g>
<!-- Node15&#45;&gt;Node5 -->
<g id="edge28" class="edge"><title>Node15&#45;&gt;Node5</title>
<path fill="none" stroke="midnightblue" d="M818.19,-56.9157C794.954,-47.8888 757.127,-33.1931 730.538,-22.8637"/>
<polygon fill="midnightblue" stroke="midnightblue" points="731.541,-19.4984 720.952,-19.1396 729.006,-26.0234 731.541,-19.4984"/>
</g>
<!-- Node15&#45;&gt;Node6 -->
<g id="edge29" class="edge"><title>Node15&#45;&gt;Node6</title>
<path fill="none" stroke="midnightblue" d="M810.753,-57.9675C807.802,-57.2813 804.843,-56.6131 802,-56 733.747,-41.2841 653.945,-26.8031 605.994,-18.3939"/>
<polygon fill="midnightblue" stroke="midnightblue" points="606.424,-14.916 595.97,-16.6432 605.219,-21.8116 606.424,-14.916"/>
</g>
<!-- Node16&#45;&gt;Node5 -->
<g id="edge31" class="edge"><title>Node16&#45;&gt;Node5</title>
<path fill="none" stroke="midnightblue" d="M884.513,-56.9157C844.075,-46.8528 775.328,-29.7453 734.137,-19.495"/>
<polygon fill="midnightblue" stroke="midnightblue" points="734.842,-16.0637 724.293,-17.0452 733.152,-22.8566 734.842,-16.0637"/>
</g>
<!-- Node16&#45;&gt;Node6 -->
<g id="edge32" class="edge"><title>Node16&#45;&gt;Node6</title>
<path fill="none" stroke="midnightblue" d="M884.816,-57.7017C881.841,-57.0977 878.868,-56.5203 876,-56 780.001,-38.5868 666.444,-23.6636 605.973,-16.1652"/>
<polygon fill="midnightblue" stroke="midnightblue" points="606.378,-12.6887 596.025,-14.9393 605.522,-19.6361 606.378,-12.6887"/>
</g>
<!-- Node17&#45;&gt;Node5 -->
<g id="edge34" class="edge"><title>Node17&#45;&gt;Node5</title>
<path fill="none" stroke="midnightblue" d="M966.359,-57.8359C963.54,-57.1902 960.718,-56.567 958,-56 878.383,-39.3924 784.066,-24.0232 734.462,-16.27"/>
<polygon fill="midnightblue" stroke="midnightblue" points="734.708,-12.7662 724.289,-14.6888 733.633,-19.6832 734.708,-12.7662"/>
</g>
<!-- Node17&#45;&gt;Node6 -->
<g id="edge35" class="edge"><title>Node17&#45;&gt;Node6</title>
<path fill="none" stroke="midnightblue" d="M966.392,-57.6666C963.566,-57.0551 960.734,-56.4862 958,-56 891.15,-44.1099 693.735,-23.9154 605.937,-15.2047"/>
<polygon fill="midnightblue" stroke="midnightblue" points="606.086,-11.7024 595.79,-14.2007 605.396,-18.6684 606.086,-11.7024"/>
</g>
<!-- Node18&#45;&gt;Node3 -->
<g id="edge37" class="edge"><title>Node18&#45;&gt;Node3</title>
<path fill="none" stroke="midnightblue" d="M646.812,-112.562C654.194,-104.591 665.45,-92.4341 674.479,-82.6825"/>
<polygon fill="midnightblue" stroke="midnightblue" points="677.18,-84.917 681.406,-75.2014 672.044,-80.1611 677.18,-84.917"/>
</g>
<!-- Node18&#45;&gt;Node5 -->
<g id="edge38" class="edge"><title>Node18&#45;&gt;Node5</title>
<path fill="none" stroke="midnightblue" d="M640.123,-112.928C642.163,-100.153 647.295,-74.7985 658,-56 664.332,-44.8809 673.928,-34.3189 682.351,-26.2253"/>
<polygon fill="midnightblue" stroke="midnightblue" points="684.916,-28.622 689.921,-19.2841 680.185,-23.4626 684.916,-28.622"/>
</g>
<!-- Node18&#45;&gt;Node6 -->
<g id="edge39" class="edge"><title>Node18&#45;&gt;Node6</title>
<path fill="none" stroke="midnightblue" d="M633.288,-112.732C620.793,-94.6474 590.837,-51.2902 574.352,-27.4309"/>
<polygon fill="midnightblue" stroke="midnightblue" points="577.136,-25.3027 568.572,-19.0649 571.377,-29.2817 577.136,-25.3027"/>
</g>
<!-- Node19&#45;&gt;Node5 -->
<g id="edge41" class="edge"><title>Node19&#45;&gt;Node5</title>
<path fill="none" stroke="midnightblue" d="M1118.86,-57.9277C1115.55,-57.2167 1112.21,-56.554 1109,-56 971.406,-32.2295 805.486,-18.5238 734.711,-13.3711"/>
<polygon fill="midnightblue" stroke="midnightblue" points="734.805,-9.86899 724.58,-12.645 734.305,-16.8511 734.805,-9.86899"/>
</g>
<!-- Node19&#45;&gt;Node6 -->
<g id="edge42" class="edge"><title>Node19&#45;&gt;Node6</title>
<path fill="none" stroke="midnightblue" d="M1118.87,-57.8377C1115.56,-57.1428 1112.21,-56.5085 1109,-56 914.326,-25.2 863.403,-36.4964 667,-20 646.886,-18.3106 624.589,-16.3877 605.815,-14.7542"/>
<polygon fill="midnightblue" stroke="midnightblue" points="606.051,-11.2615 595.784,-13.8798 605.443,-18.2351 606.051,-11.2615"/>
</g>
<!-- Node20&#45;&gt;Node5 -->
<g id="edge44" class="edge"><title>Node20&#45;&gt;Node5</title>
<path fill="none" stroke="midnightblue" d="M193.96,-57.6903C197.001,-57.0581 200.056,-56.4783 203,-56 379.624,-27.307 425.81,-36.3512 604,-20 624.345,-18.1331 647.111,-16.0007 665.365,-14.2803"/>
<polygon fill="midnightblue" stroke="midnightblue" points="665.912,-17.7443 675.539,-13.32 665.254,-10.7752 665.912,-17.7443"/>
</g>
<!-- Node20&#45;&gt;Node6 -->
<g id="edge45" class="edge"><title>Node20&#45;&gt;Node6</title>
<path fill="none" stroke="midnightblue" d="M193.978,-57.7957C197.015,-57.1429 200.064,-56.5295 203,-56 316.558,-35.517 451.948,-21.305 519.769,-14.8783"/>
<polygon fill="midnightblue" stroke="midnightblue" points="520.43,-18.3318 530.059,-13.914 519.777,-11.3623 520.43,-18.3318"/>
</g>
<!-- Node21&#45;&gt;Node5 -->
<g id="edge47" class="edge"><title>Node21&#45;&gt;Node5</title>
<path fill="none" stroke="midnightblue" d="M380.606,-57.6839C383.438,-57.0837 386.268,-56.512 389,-56 488.95,-37.2696 608.228,-21.9581 665.699,-15.0167"/>
<polygon fill="midnightblue" stroke="midnightblue" points="666.179,-18.4843 675.692,-13.8191 665.346,-11.534 666.179,-18.4843"/>
</g>
<!-- Node21&#45;&gt;Node6 -->
<g id="edge48" class="edge"><title>Node21&#45;&gt;Node6</title>
<path fill="none" stroke="midnightblue" d="M380.518,-57.2631C417.5,-47.8874 479.987,-32.0455 521.368,-21.5545"/>
<polygon fill="midnightblue" stroke="midnightblue" points="522.315,-24.9254 531.148,-19.0752 520.594,-18.1401 522.315,-24.9254"/>
</g>
<!-- Node22&#45;&gt;Node5 -->
<g id="edge50" class="edge"><title>Node22&#45;&gt;Node5</title>
<path fill="none" stroke="midnightblue" d="M457.844,-57.8051C460.598,-57.1794 463.348,-56.5687 466,-56 536.737,-40.8287 620.027,-25.3858 665.71,-17.122"/>
<polygon fill="midnightblue" stroke="midnightblue" points="666.456,-20.5438 675.677,-15.3251 665.214,-13.6549 666.456,-20.5438"/>
</g>
<!-- Node22&#45;&gt;Node6 -->
<g id="edge51" class="edge"><title>Node22&#45;&gt;Node6</title>
<path fill="none" stroke="midnightblue" d="M448.211,-56.9157C470.778,-47.8888 507.517,-33.1931 533.341,-22.8637"/>
<polygon fill="midnightblue" stroke="midnightblue" points="534.666,-26.1033 542.651,-19.1396 532.066,-19.6039 534.666,-26.1033"/>
</g>
<!-- Node23&#45;&gt;Node1 -->
<g id="edge54" class="edge"><title>Node23&#45;&gt;Node1</title>
<path fill="none" stroke="midnightblue" d="M988.028,-131.047C986.334,-131.376 984.65,-131.695 983,-132 903.987,-146.61 811.921,-160.88 753.225,-169.307"/>
<polygon fill="midnightblue" stroke="midnightblue" points="752.429,-165.885 743.023,-170.76 753.417,-172.815 752.429,-165.885"/>
</g>
<!-- Node23&#45;&gt;Node5 -->
<g id="edge53" class="edge"><title>Node23&#45;&gt;Node5</title>
<path fill="none" stroke="midnightblue" d="M1046.48,-120.09C1105.31,-117.586 1233.99,-108.444 1261,-76 1266.69,-69.1684 1267.03,-62.5318 1261,-56 1225.25,-17.2706 851.251,-11.8595 734.569,-11.1153"/>
<polygon fill="midnightblue" stroke="midnightblue" points="734.431,-7.61454 724.412,-11.0583 734.392,-14.6144 734.431,-7.61454"/>
</g>
</g>
</svg>
