<?xml version="1.0" encoding="UTF-8" standalone="no"?>
<!DOCTYPE svg PUBLIC "-//W3C//DTD SVG 1.1//EN"
 "http://www.w3.org/Graphics/SVG/1.1/DTD/svg11.dtd">
<!-- Generated by graphviz version 2.34.0 (20130907.0228)
 -->
<!-- Title: Graphical Class Hierarchy Pages: 1 -->
<svg width="326pt" height="223pt"
 viewBox="0.00 0.00 326.00 223.00" xmlns="http://www.w3.org/2000/svg" xmlns:xlink="http://www.w3.org/1999/xlink">
<g id="graph0" class="graph" transform="scale(1 1) rotate(0) translate(4 219)">
<title>Graphical Class Hierarchy</title>
<!-- Node1 -->
<g id="node1" class="node"><title>Node1</title>
<g id="a_node1"><a xlink:href="class_string.html" target="_top" xlink:title="String class. ">
<polygon fill="none" stroke="black" points="-0.0615234,-97 -0.0615234,-117 42.0615,-117 42.0615,-97 -0.0615234,-97"/>
<text text-anchor="middle" x="21" y="-103" font-family="Helvetica,sans-Serif" font-size="10.00">String</text>
</a>
</g>
</g>
<!-- Node2 -->
<g id="node2" class="node"><title>Node2</title>
<g id="a_node2"><a xlink:href="class_string_static.html" target="_top" xlink:title="Static String Template Class. ">
<polygon fill="none" stroke="black" points="78.5322,-195 78.5322,-215 203.468,-215 203.468,-195 78.5322,-195"/>
<text text-anchor="middle" x="141" y="-201" font-family="Helvetica,sans-Serif" font-size="10.00">StringStatic&lt; arraysize &gt;</text>
</a>
</g>
</g>
<!-- Node1&#45;&gt;Node2 -->
<g id="edge1" class="edge"><title>Node1&#45;&gt;Node2</title>
<path fill="none" stroke="midnightblue" d="M31.4344,-126.568C40.8966,-144.234 57.0575,-169.728 78,-185 83.5744,-189.065 90.0124,-192.328 96.5861,-194.941"/>
<polygon fill="midnightblue" stroke="midnightblue" points="34.3186,-124.521 26.6518,-117.208 28.0852,-127.706 34.3186,-124.521"/>
</g>
<!-- Node3 -->
<g id="node3" class="node"><title>Node3</title>
<g id="a_node3"><a xlink:href="class_string_static.html" target="_top" xlink:title="StringStatic\&lt; 12 \&gt;">
<polygon fill="none" stroke="black" points="93.2539,-156 93.2539,-176 188.746,-176 188.746,-156 93.2539,-156"/>
<text text-anchor="middle" x="141" y="-162" font-family="Helvetica,sans-Serif" font-size="10.00">StringStatic&lt; 12 &gt;</text>
</a>
</g>
</g>
<!-- Node1&#45;&gt;Node3 -->
<g id="edge2" class="edge"><title>Node1&#45;&gt;Node3</title>
<path fill="none" stroke="midnightblue" d="M42.16,-123.222C52.4339,-130.908 65.3946,-139.752 78,-146 85.7015,-149.817 94.2945,-153.131 102.571,-155.903"/>
<polygon fill="midnightblue" stroke="midnightblue" points="44.2886,-120.444 34.2286,-117.12 40.0202,-125.992 44.2886,-120.444"/>
</g>
<!-- Node5 -->
<g id="node5" class="node"><title>Node5</title>
<g id="a_node5"><a xlink:href="class_string_static.html" target="_top" xlink:title="StringStatic\&lt; 128 \&gt;">
<polygon fill="none" stroke="black" points="90.4731,-117 90.4731,-137 191.527,-137 191.527,-117 90.4731,-117"/>
<text text-anchor="middle" x="141" y="-123" font-family="Helvetica,sans-Serif" font-size="10.00">StringStatic&lt; 128 &gt;</text>
</a>
</g>
</g>
<!-- Node1&#45;&gt;Node5 -->
<g id="edge4" class="edge"><title>Node1&#45;&gt;Node5</title>
<path fill="none" stroke="midnightblue" d="M52.2923,-112.134C63.8656,-114.096 77.3876,-116.388 90.3,-118.576"/>
<polygon fill="midnightblue" stroke="midnightblue" points="52.7292,-108.659 42.2849,-110.438 51.5594,-115.56 52.7292,-108.659"/>
</g>
<!-- Node7 -->
<g id="node7" class="node"><title>Node7</title>
<g id="a_node7"><a xlink:href="class_string_static.html" target="_top" xlink:title="StringStatic\&lt; 16 \&gt;">
<polygon fill="none" stroke="black" points="93.2539,-78 93.2539,-98 188.746,-98 188.746,-78 93.2539,-78"/>
<text text-anchor="middle" x="141" y="-84" font-family="Helvetica,sans-Serif" font-size="10.00">StringStatic&lt; 16 &gt;</text>
</a>
</g>
</g>
<!-- Node1&#45;&gt;Node7 -->
<g id="edge6" class="edge"><title>Node1&#45;&gt;Node7</title>
<path fill="none" stroke="midnightblue" d="M52.5005,-102.089C64.8565,-100.099 79.4074,-97.7564 93.0587,-95.5583"/>
<polygon fill="midnightblue" stroke="midnightblue" points="51.6013,-98.6885 42.2849,-103.734 52.7142,-105.6 51.6013,-98.6885"/>
</g>
<!-- Node9 -->
<g id="node9" class="node"><title>Node9</title>
<g id="a_node9"><a xlink:href="class_string_static.html" target="_top" xlink:title="StringStatic\&lt; 32 \&gt;">
<polygon fill="none" stroke="black" points="93.2539,-39 93.2539,-59 188.746,-59 188.746,-39 93.2539,-39"/>
<text text-anchor="middle" x="141" y="-45" font-family="Helvetica,sans-Serif" font-size="10.00">StringStatic&lt; 32 &gt;</text>
</a>
</g>
</g>
<!-- Node1&#45;&gt;Node9 -->
<g id="edge8" class="edge"><title>Node1&#45;&gt;Node9</title>
<path fill="none" stroke="midnightblue" d="M42.9329,-90.7031C53.1025,-83.3437 65.7506,-74.9795 78,-69 85.8261,-65.1797 94.5534,-61.8482 102.932,-59.057"/>
<polygon fill="midnightblue" stroke="midnightblue" points="40.6382,-88.048 34.7063,-96.8266 44.8179,-93.6632 40.6382,-88.048"/>
</g>
<!-- Node11 -->
<g id="node11" class="node"><title>Node11</title>
<g id="a_node11"><a xlink:href="class_string_static.html" target="_top" xlink:title="StringStatic\&lt; 64 \&gt;">
<polygon fill="none" stroke="black" points="93.2539,-0 93.2539,-20 188.746,-20 188.746,-0 93.2539,-0"/>
<text text-anchor="middle" x="141" y="-6" font-family="Helvetica,sans-Serif" font-size="10.00">StringStatic&lt; 64 &gt;</text>
</a>
</g>
</g>
<!-- Node1&#45;&gt;Node11 -->
<g id="edge10" class="edge"><title>Node1&#45;&gt;Node11</title>
<path fill="none" stroke="midnightblue" d="M31.4948,-87.6839C40.9991,-70.246 57.188,-45.0796 78,-30 83.5868,-25.952 90.0313,-22.6976 96.6077,-20.0884"/>
<polygon fill="midnightblue" stroke="midnightblue" points="28.1983,-86.4368 26.6868,-96.9233 34.4078,-89.6681 28.1983,-86.4368"/>
</g>
<!-- Node4 -->
<g id="node4" class="node"><title>Node4</title>
<g id="a_node4"><a xlink:href="class_brsp_address.html" target="_top" xlink:title="BRSP Address class. ">
<polygon fill="none" stroke="black" points="242.377,-156 242.377,-176 315.623,-176 315.623,-156 242.377,-156"/>
<text text-anchor="middle" x="279" y="-162" font-family="Helvetica,sans-Serif" font-size="10.00">BrspAddress</text>
</a>
</g>
</g>
<!-- Node3&#45;&gt;Node4 -->
<g id="edge3" class="edge"><title>Node3&#45;&gt;Node4</title>
<path fill="none" stroke="midnightblue" d="M198.842,-166C213.559,-166 228.993,-166 242.284,-166"/>
<polygon fill="midnightblue" stroke="midnightblue" points="198.804,-162.5 188.803,-166 198.803,-169.5 198.804,-162.5"/>
</g>
<!-- Node6 -->
<g id="node6" class="node"><title>Node6</title>
<g id="a_node6"><a xlink:href="class_string_large.html" target="_top" xlink:title="Large String. ">
<polygon fill="none" stroke="black" points="245.15,-117 245.15,-137 312.85,-137 312.85,-117 245.15,-117"/>
<text text-anchor="middle" x="279" y="-123" font-family="Helvetica,sans-Serif" font-size="10.00">StringLarge</text>
</a>
</g>
</g>
<!-- Node5&#45;&gt;Node6 -->
<g id="edge5" class="edge"><title>Node5&#45;&gt;Node6</title>
<path fill="none" stroke="midnightblue" d="M202,-127C216.802,-127 232.117,-127 245.086,-127"/>
<polygon fill="midnightblue" stroke="midnightblue" points="201.869,-123.5 191.869,-127 201.869,-130.5 201.869,-123.5"/>
</g>
<!-- Node8 -->
<g id="node8" class="node"><title>Node8</title>
<g id="a_node8"><a xlink:href="class_string_tiny.html" target="_top" xlink:title="Tiny String. ">
<polygon fill="none" stroke="black" points="248.676,-78 248.676,-98 309.324,-98 309.324,-78 248.676,-78"/>
<text text-anchor="middle" x="279" y="-84" font-family="Helvetica,sans-Serif" font-size="10.00">StringTiny</text>
</a>
</g>
</g>
<!-- Node7&#45;&gt;Node8 -->
<g id="edge7" class="edge"><title>Node7&#45;&gt;Node8</title>
<path fill="none" stroke="midnightblue" d="M199.222,-88C216.21,-88 234.119,-88 248.561,-88"/>
<polygon fill="midnightblue" stroke="midnightblue" points="198.804,-84.5001 188.803,-88 198.803,-91.5001 198.804,-84.5001"/>
</g>
<!-- Node10 -->
<g id="node10" class="node"><title>Node10</title>
<g id="a_node10"><a xlink:href="class_string_small.html" target="_top" xlink:title="Small String. ">
<polygon fill="none" stroke="black" points="245.436,-39 245.436,-59 312.564,-59 312.564,-39 245.436,-39"/>
<text text-anchor="middle" x="279" y="-45" font-family="Helvetica,sans-Serif" font-size="10.00">StringSmall</text>
</a>
</g>
</g>
<!-- Node9&#45;&gt;Node10 -->
<g id="edge9" class="edge"><title>Node9&#45;&gt;Node10</title>
<path fill="none" stroke="midnightblue" d="M199.018,-49C214.794,-49 231.381,-49 245.26,-49"/>
<polygon fill="midnightblue" stroke="midnightblue" points="198.804,-45.5001 188.803,-49 198.803,-52.5001 198.804,-45.5001"/>
</g>
<!-- Node12 -->
<g id="node12" class="node"><title>Node12</title>
<g id="a_node12"><a xlink:href="class_string_medium.html" target="_top" xlink:title="Medium String. ">
<polygon fill="none" stroke="black" points="240.155,-0 240.155,-20 317.845,-20 317.845,-0 240.155,-0"/>
<text text-anchor="middle" x="279" y="-6" font-family="Helvetica,sans-Serif" font-size="10.00">StringMedium</text>
</a>
</g>
</g>
<!-- Node11&#45;&gt;Node12 -->
<g id="edge11" class="edge"><title>Node11&#45;&gt;Node12</title>
<path fill="none" stroke="midnightblue" d="M199.208,-10C213.019,-10 227.441,-10 240.114,-10"/>
<polygon fill="midnightblue" stroke="midnightblue" points="198.804,-6.5001 188.803,-10 198.803,-13.5001 198.804,-6.5001"/>
</g>
</g>
</svg>
