<?xml version="1.0" encoding="UTF-8" standalone="no"?>
<!DOCTYPE svg PUBLIC "-//W3C//DTD SVG 1.1//EN"
 "http://www.w3.org/Graphics/SVG/1.1/DTD/svg11.dtd">
<!-- Generated by graphviz version 2.36.0 (20140111.2315)
 -->
<!-- Title: /Users/tgil/git/CoActionOS/CoActionOS/include/link_protocol.h Pages: 1 -->
<svg width="552pt" height="200pt"
 viewBox="0.00 0.00 552.00 200.00" xmlns="http://www.w3.org/2000/svg" xmlns:xlink="http://www.w3.org/1999/xlink">
<g id="graph0" class="graph" transform="scale(1 1) rotate(0) translate(4 196)">
<title>/Users/tgil/git/CoActionOS/CoActionOS/include/link_protocol.h</title>
<!-- Node1 -->
<g id="node1" class="node"><title>Node1</title>
<polygon fill="#bfbfbf" stroke="black" points="140.641,-153 140.641,-191 263.359,-191 263.359,-153 140.641,-153"/>
<text text-anchor="start" x="148.641" y="-179" font-family="Helvetica,sans-Serif" font-size="10.00">/Users/tgil/git/CoAction</text>
<text text-anchor="start" x="148.641" y="-169" font-family="Helvetica,sans-Serif" font-size="10.00">OS/CoActionOS/include</text>
<text text-anchor="middle" x="202" y="-159" font-family="Helvetica,sans-Serif" font-size="10.00">/link_protocol.h</text>
</g>
<!-- Node2 -->
<g id="node2" class="node"><title>Node2</title>
<g id="a_node2"><a xlink:href="link_8h.html" target="_top" xlink:title="/Users/tgil/git/CoAction\lOS/CoActionOS/include\l/link.h">
<polygon fill="none" stroke="black" points="-0.359375,-77 -0.359375,-115 122.359,-115 122.359,-77 -0.359375,-77"/>
<text text-anchor="start" x="7.64062" y="-103" font-family="Helvetica,sans-Serif" font-size="10.00">/Users/tgil/git/CoAction</text>
<text text-anchor="start" x="7.64062" y="-93" font-family="Helvetica,sans-Serif" font-size="10.00">OS/CoActionOS/include</text>
<text text-anchor="middle" x="61" y="-83" font-family="Helvetica,sans-Serif" font-size="10.00">/link.h</text>
</a>
</g>
</g>
<!-- Node1&#45;&gt;Node2 -->
<g id="edge1" class="edge"><title>Node1&#45;&gt;Node2</title>
<path fill="none" stroke="midnightblue" d="M158.497,-148.169C138.289,-137.563 114.595,-125.128 95.6251,-115.172"/>
<polygon fill="midnightblue" stroke="midnightblue" points="157.026,-151.35 167.508,-152.898 160.279,-145.151 157.026,-151.35"/>
</g>
<!-- Node3 -->
<g id="node3" class="node"><title>Node3</title>
<g id="a_node3"><a xlink:href="sys_8h.html" target="_top" xlink:title="/Users/tgil/git/CoAction\lOS/CoActionOS/include\l/dev/sys.h">
<polygon fill="none" stroke="black" points="140.641,-77 140.641,-115 263.359,-115 263.359,-77 140.641,-77"/>
<text text-anchor="start" x="148.641" y="-103" font-family="Helvetica,sans-Serif" font-size="10.00">/Users/tgil/git/CoAction</text>
<text text-anchor="start" x="148.641" y="-93" font-family="Helvetica,sans-Serif" font-size="10.00">OS/CoActionOS/include</text>
<text text-anchor="middle" x="202" y="-83" font-family="Helvetica,sans-Serif" font-size="10.00">/dev/sys.h</text>
</a>
</g>
</g>
<!-- Node1&#45;&gt;Node3 -->
<g id="edge2" class="edge"><title>Node1&#45;&gt;Node3</title>
<path fill="none" stroke="midnightblue" d="M195.419,-142.702C195.053,-133.431 195.282,-123.387 196.105,-115.082"/>
<polygon fill="midnightblue" stroke="midnightblue" points="191.928,-142.962 196.084,-152.708 198.913,-142.498 191.928,-142.962"/>
</g>
<!-- Node5 -->
<g id="node5" class="node"><title>Node5</title>
<g id="a_node5"><a xlink:href="trace_8h_source.html" target="_top" xlink:title="/Users/tgil/git/CoAction\lOS/CoActionOS/include\l/trace.h">
<polygon fill="none" stroke="black" points="281.641,-77 281.641,-115 404.359,-115 404.359,-77 281.641,-77"/>
<text text-anchor="start" x="289.641" y="-103" font-family="Helvetica,sans-Serif" font-size="10.00">/Users/tgil/git/CoAction</text>
<text text-anchor="start" x="289.641" y="-93" font-family="Helvetica,sans-Serif" font-size="10.00">OS/CoActionOS/include</text>
<text text-anchor="middle" x="343" y="-83" font-family="Helvetica,sans-Serif" font-size="10.00">/trace.h</text>
</a>
</g>
</g>
<!-- Node1&#45;&gt;Node5 -->
<g id="edge5" class="edge"><title>Node1&#45;&gt;Node5</title>
<path fill="none" stroke="midnightblue" d="M245.503,-148.169C265.711,-137.563 289.405,-125.128 308.375,-115.172"/>
<polygon fill="midnightblue" stroke="midnightblue" points="243.721,-145.151 236.492,-152.898 246.974,-151.35 243.721,-145.151"/>
</g>
<!-- Node7 -->
<g id="node7" class="node"><title>Node7</title>
<g id="a_node7"><a xlink:href="__exit_8c.html" target="_top" xlink:title="/Users/tgil/git/CoAction\lOS/CoActionOS/src/sys\l/unistd/_exit.c">
<polygon fill="none" stroke="black" points="421.931,-77 421.931,-115 544.069,-115 544.069,-77 421.931,-77"/>
<text text-anchor="start" x="429.931" y="-103" font-family="Helvetica,sans-Serif" font-size="10.00">/Users/tgil/git/CoAction</text>
<text text-anchor="start" x="429.931" y="-93" font-family="Helvetica,sans-Serif" font-size="10.00">OS/CoActionOS/src/sys</text>
<text text-anchor="middle" x="483" y="-83" font-family="Helvetica,sans-Serif" font-size="10.00">/unistd/_exit.c</text>
</a>
</g>
</g>
<!-- Node1&#45;&gt;Node7 -->
<g id="edge7" class="edge"><title>Node1&#45;&gt;Node7</title>
<path fill="none" stroke="midnightblue" d="M273.318,-152.6C314.225,-141.999 366.529,-128.363 413,-116 415.921,-115.223 418.909,-114.425 421.926,-113.616"/>
<polygon fill="midnightblue" stroke="midnightblue" points="272.245,-149.263 263.442,-155.158 274,-156.039 272.245,-149.263"/>
</g>
<!-- Node3&#45;&gt;Node1 -->
<g id="edge3" class="edge"><title>Node3&#45;&gt;Node1</title>
<path fill="none" stroke="midnightblue" d="M208.572,-125.063C208.948,-134.322 208.729,-144.374 207.916,-152.708"/>
<polygon fill="midnightblue" stroke="midnightblue" points="212.064,-124.822 207.895,-115.082 205.08,-125.296 212.064,-124.822"/>
</g>
<!-- Node4 -->
<g id="node4" class="node"><title>Node4</title>
<g id="a_node4"><a xlink:href="__open_8c.html" target="_top" xlink:title="/Users/tgil/git/CoAction\lOS/CoActionOS/src/sys\l/unistd/_open.c">
<polygon fill="none" stroke="black" points="140.931,-1 140.931,-39 263.069,-39 263.069,-1 140.931,-1"/>
<text text-anchor="start" x="148.931" y="-27" font-family="Helvetica,sans-Serif" font-size="10.00">/Users/tgil/git/CoAction</text>
<text text-anchor="start" x="148.931" y="-17" font-family="Helvetica,sans-Serif" font-size="10.00">OS/CoActionOS/src/sys</text>
<text text-anchor="middle" x="202" y="-7" font-family="Helvetica,sans-Serif" font-size="10.00">/unistd/_open.c</text>
</a>
</g>
</g>
<!-- Node3&#45;&gt;Node4 -->
<g id="edge4" class="edge"><title>Node3&#45;&gt;Node4</title>
<path fill="none" stroke="midnightblue" d="M202,-66.7024C202,-57.4309 202,-47.3865 202,-39.0817"/>
<polygon fill="midnightblue" stroke="midnightblue" points="198.5,-66.7078 202,-76.7079 205.5,-66.7079 198.5,-66.7078"/>
</g>
<!-- Node6 -->
<g id="node6" class="node"><title>Node6</title>
<g id="a_node6"><a xlink:href="signal__handler_8c.html" target="_top" xlink:title="/Users/tgil/git/CoAction\lOS/CoActionOS/src/sys\l/signal/signal_handler.c">
<polygon fill="none" stroke="black" points="281.931,-1 281.931,-39 404.069,-39 404.069,-1 281.931,-1"/>
<text text-anchor="start" x="289.931" y="-27" font-family="Helvetica,sans-Serif" font-size="10.00">/Users/tgil/git/CoAction</text>
<text text-anchor="start" x="289.931" y="-17" font-family="Helvetica,sans-Serif" font-size="10.00">OS/CoActionOS/src/sys</text>
<text text-anchor="middle" x="343" y="-7" font-family="Helvetica,sans-Serif" font-size="10.00">/signal/signal_handler.c</text>
</a>
</g>
</g>
<!-- Node5&#45;&gt;Node6 -->
<g id="edge6" class="edge"><title>Node5&#45;&gt;Node6</title>
<path fill="none" stroke="midnightblue" d="M343,-66.7024C343,-57.4309 343,-47.3865 343,-39.0817"/>
<polygon fill="midnightblue" stroke="midnightblue" points="339.5,-66.7078 343,-76.7079 346.5,-66.7079 339.5,-66.7078"/>
</g>
</g>
</svg>
