<?xml version="1.0" encoding="UTF-8" standalone="no"?>
<!DOCTYPE svg PUBLIC "-//W3C//DTD SVG 1.1//EN"
 "http://www.w3.org/Graphics/SVG/1.1/DTD/svg11.dtd">
<!-- Generated by graphviz version 2.36.0 (20140111.2315)
 -->
<!-- Title: /Users/tgil/git/CoActionOS/CoActionOS/include/link.h Pages: 1 -->
<svg width="1662pt" height="272pt"
 viewBox="0.00 0.00 1662.03 272.00" xmlns="http://www.w3.org/2000/svg" xmlns:xlink="http://www.w3.org/1999/xlink">
<g id="graph0" class="graph" transform="scale(1 1) rotate(0) translate(4 268)">
<title>/Users/tgil/git/CoActionOS/CoActionOS/include/link.h</title>
<!-- Node1 -->
<g id="node1" class="node"><title>Node1</title>
<polygon fill="#bfbfbf" stroke="black" points="181.863,-225 181.863,-263 304.582,-263 304.582,-225 181.863,-225"/>
<text text-anchor="start" x="189.863" y="-251" font-family="Helvetica,sans-Serif" font-size="10.00">/Users/tgil/git/CoAction</text>
<text text-anchor="start" x="189.863" y="-241" font-family="Helvetica,sans-Serif" font-size="10.00">OS/CoActionOS/include</text>
<text text-anchor="middle" x="243.223" y="-231" font-family="Helvetica,sans-Serif" font-size="10.00">/link.h</text>
</g>
<!-- Node2 -->
<g id="node2" class="node"><title>Node2</title>
<polygon fill="none" stroke="#bfbfbf" points="773.102,-1 773.102,-19 821.343,-19 821.343,-1 773.102,-1"/>
<text text-anchor="middle" x="797.223" y="-7" font-family="Helvetica,sans-Serif" font-size="10.00">stdint.h</text>
</g>
<!-- Node1&#45;&gt;Node2 -->
<g id="edge1" class="edge"><title>Node1&#45;&gt;Node2</title>
<path fill="none" stroke="midnightblue" d="M189.046,-224.952C102.824,-193.57 -49.498,-125.616 16.2227,-56 42.2022,-28.4805 615.145,-14.7661 762.775,-11.6814"/>
<polygon fill="midnightblue" stroke="midnightblue" points="763.118,-15.1752 773.044,-11.4697 762.974,-8.17666 763.118,-15.1752"/>
</g>
<!-- Node3 -->
<g id="node3" class="node"><title>Node3</title>
<g id="a_node3"><a xlink:href="device_8h_source.html" target="_top" xlink:title="device.h">
<polygon fill="none" stroke="black" points="216.6,-113 216.6,-131 269.846,-131 269.846,-113 216.6,-113"/>
<text text-anchor="middle" x="243.223" y="-119" font-family="Helvetica,sans-Serif" font-size="10.00">device.h</text>
</a>
</g>
</g>
<!-- Node1&#45;&gt;Node3 -->
<g id="edge2" class="edge"><title>Node1&#45;&gt;Node3</title>
<path fill="none" stroke="midnightblue" d="M243.223,-224.775C243.223,-202.218 243.223,-164.024 243.223,-141.391"/>
<polygon fill="midnightblue" stroke="midnightblue" points="246.723,-141.139 243.223,-131.139 239.723,-141.139 246.723,-141.139"/>
</g>
<!-- Node10 -->
<g id="node10" class="node"><title>Node10</title>
<g id="a_node10"><a xlink:href="link__protocol_8h.html" target="_top" xlink:title="USB Link Protocol Header File. ">
<polygon fill="none" stroke="black" points="756.981,-169 756.981,-187 837.464,-187 837.464,-169 756.981,-169"/>
<text text-anchor="middle" x="797.223" y="-175" font-family="Helvetica,sans-Serif" font-size="10.00">link_protocol.h</text>
</a>
</g>
</g>
<!-- Node1&#45;&gt;Node10 -->
<g id="edge15" class="edge"><title>Node1&#45;&gt;Node10</title>
<path fill="none" stroke="midnightblue" d="M304.627,-235.906C415.072,-223.147 645.186,-196.564 746.957,-184.807"/>
<polygon fill="midnightblue" stroke="midnightblue" points="747.446,-188.274 756.978,-183.649 746.642,-181.32 747.446,-188.274"/>
</g>
<!-- Node4 -->
<g id="node4" class="node"><title>Node4</title>
<polygon fill="none" stroke="#bfbfbf" points="25.1045,-57 25.1045,-75 83.3409,-75 83.3409,-57 25.1045,-57"/>
<text text-anchor="middle" x="54.2227" y="-63" font-family="Helvetica,sans-Serif" font-size="10.00">sys/stat.h</text>
</g>
<!-- Node3&#45;&gt;Node4 -->
<g id="edge3" class="edge"><title>Node3&#45;&gt;Node4</title>
<path fill="none" stroke="midnightblue" d="M216.544,-113.378C184.084,-104.103 129.059,-88.3818 92.1891,-77.8475"/>
<polygon fill="midnightblue" stroke="midnightblue" points="92.8819,-74.4055 82.3051,-75.0235 90.9588,-81.1362 92.8819,-74.4055"/>
</g>
<!-- Node5 -->
<g id="node5" class="node"><title>Node5</title>
<polygon fill="none" stroke="#bfbfbf" points="255.93,-1 255.93,-19 312.516,-19 312.516,-1 255.93,-1"/>
<text text-anchor="middle" x="284.223" y="-7" font-family="Helvetica,sans-Serif" font-size="10.00">stdbool.h</text>
</g>
<!-- Node3&#45;&gt;Node5 -->
<g id="edge4" class="edge"><title>Node3&#45;&gt;Node5</title>
<path fill="none" stroke="midnightblue" d="M216.382,-116.07C177.152,-107.658 111.281,-88.2398 135.223,-56 160.408,-22.0854 210.396,-12.8106 245.504,-10.7295"/>
<polygon fill="midnightblue" stroke="midnightblue" points="246.033,-14.2105 255.878,-10.2952 245.74,-7.21661 246.033,-14.2105"/>
</g>
<!-- Node6 -->
<g id="node6" class="node"><title>Node6</title>
<g id="a_node6"><a xlink:href="types_8h_source.html" target="_top" xlink:title="hwpl/types.h">
<polygon fill="none" stroke="black" points="289.43,-57 289.43,-75 361.016,-75 361.016,-57 289.43,-57"/>
<text text-anchor="middle" x="325.223" y="-63" font-family="Helvetica,sans-Serif" font-size="10.00">hwpl/types.h</text>
</a>
</g>
</g>
<!-- Node3&#45;&gt;Node6 -->
<g id="edge5" class="edge"><title>Node3&#45;&gt;Node6</title>
<path fill="none" stroke="midnightblue" d="M255.677,-112.799C268.635,-104.265 289.147,-90.7573 304.542,-80.6187"/>
<polygon fill="midnightblue" stroke="midnightblue" points="306.493,-83.5247 312.92,-75.1017 302.643,-77.6785 306.493,-83.5247"/>
</g>
<!-- Node8 -->
<g id="node8" class="node"><title>Node8</title>
<polygon fill="none" stroke="#bfbfbf" points="1145.65,-1 1145.65,-19 1212.79,-19 1212.79,-1 1145.65,-1"/>
<text text-anchor="middle" x="1179.22" y="-7" font-family="Helvetica,sans-Serif" font-size="10.00">hwpl/arch.h</text>
</g>
<!-- Node3&#45;&gt;Node8 -->
<g id="edge9" class="edge"><title>Node3&#45;&gt;Node8</title>
<path fill="none" stroke="midnightblue" d="M269.91,-117.722C286.87,-115.759 309.305,-113.384 329.223,-112 387.062,-107.98 1331.94,-117.698 1372.22,-76 1418.25,-28.3525 1293.5,-15.6324 1223.31,-12.2366"/>
<polygon fill="midnightblue" stroke="midnightblue" points="1223.11,-8.72445 1212.96,-11.7839 1222.8,-15.7178 1223.11,-8.72445"/>
</g>
<!-- Node9 -->
<g id="node9" class="node"><title>Node9</title>
<g id="a_node9"><a xlink:href="pio_8h.html" target="_top" xlink:title="General Purpose Input/Output Header File. ">
<polygon fill="none" stroke="black" points="214.93,-57 214.93,-75 271.516,-75 271.516,-57 214.93,-57"/>
<text text-anchor="middle" x="243.223" y="-63" font-family="Helvetica,sans-Serif" font-size="10.00">dev/pio.h</text>
</a>
</g>
</g>
<!-- Node3&#45;&gt;Node9 -->
<g id="edge10" class="edge"><title>Node3&#45;&gt;Node9</title>
<path fill="none" stroke="midnightblue" d="M243.223,-112.562C243.223,-105.308 243.223,-94.5884 243.223,-85.3691"/>
<polygon fill="midnightblue" stroke="midnightblue" points="246.723,-85.2014 243.223,-75.2014 239.723,-85.2015 246.723,-85.2014"/>
</g>
<!-- Node6&#45;&gt;Node2 -->
<g id="edge6" class="edge"><title>Node6&#45;&gt;Node2</title>
<path fill="none" stroke="midnightblue" d="M361.223,-58.2011C365.924,-57.407 370.683,-56.6498 375.223,-56 518.481,-35.4956 690.331,-19.9648 762.565,-13.8461"/>
<polygon fill="midnightblue" stroke="midnightblue" points="763.213,-17.3041 772.884,-12.9788 762.626,-10.3287 763.213,-17.3041"/>
</g>
<!-- Node6&#45;&gt;Node5 -->
<g id="edge7" class="edge"><title>Node6&#45;&gt;Node5</title>
<path fill="none" stroke="midnightblue" d="M318.816,-56.5625C312.885,-48.75 303.902,-36.9187 296.576,-27.2704"/>
<polygon fill="midnightblue" stroke="midnightblue" points="299.284,-25.0494 290.45,-19.2014 293.709,-29.2824 299.284,-25.0494"/>
</g>
<!-- Node7 -->
<g id="node7" class="node"><title>Node7</title>
<g id="a_node7"><a xlink:href="ioctl_8h_source.html" target="_top" xlink:title="dev/ioctl.h">
<polygon fill="none" stroke="black" points="842.71,-1 842.71,-19 903.735,-19 903.735,-1 842.71,-1"/>
<text text-anchor="middle" x="873.223" y="-7" font-family="Helvetica,sans-Serif" font-size="10.00">dev/ioctl.h</text>
</a>
</g>
</g>
<!-- Node6&#45;&gt;Node7 -->
<g id="edge8" class="edge"><title>Node6&#45;&gt;Node7</title>
<path fill="none" stroke="midnightblue" d="M361.207,-58.083C365.91,-57.3082 370.674,-56.5878 375.223,-56 576.404,-30 629.429,-48.8371 830.223,-20 830.959,-19.8943 831.701,-19.7836 832.448,-19.6684"/>
<polygon fill="midnightblue" stroke="midnightblue" points="833.047,-23.117 842.303,-17.9628 831.853,-16.2195 833.047,-23.117"/>
</g>
<!-- Node9&#45;&gt;Node2 -->
<g id="edge12" class="edge"><title>Node9&#45;&gt;Node2</title>
<path fill="none" stroke="midnightblue" d="M271.818,-57.5902C274.646,-56.9943 277.483,-56.4498 280.223,-56 460.576,-26.3919 679.735,-15.4511 762.952,-12.1847"/>
<polygon fill="midnightblue" stroke="midnightblue" points="763.237,-15.6765 773.097,-11.7985 762.971,-8.68157 763.237,-15.6765"/>
</g>
<!-- Node9&#45;&gt;Node5 -->
<g id="edge11" class="edge"><title>Node9&#45;&gt;Node5</title>
<path fill="none" stroke="midnightblue" d="M249.629,-56.5625C255.561,-48.75 264.544,-36.9187 271.869,-27.2704"/>
<polygon fill="midnightblue" stroke="midnightblue" points="274.736,-29.2824 277.996,-19.2014 269.161,-25.0494 274.736,-29.2824"/>
</g>
<!-- Node9&#45;&gt;Node7 -->
<g id="edge13" class="edge"><title>Node9&#45;&gt;Node7</title>
<path fill="none" stroke="midnightblue" d="M271.808,-57.5285C274.638,-56.9451 277.478,-56.4204 280.223,-56 522.366,-18.9117 587.512,-53.1748 830.223,-20 830.959,-19.8993 831.703,-19.7932 832.45,-19.6823"/>
<polygon fill="midnightblue" stroke="midnightblue" points="833.035,-23.1333 842.31,-18.0136 831.866,-16.2314 833.035,-23.1333"/>
</g>
<!-- Node9&#45;&gt;Node8 -->
<g id="edge14" class="edge"><title>Node9&#45;&gt;Node8</title>
<path fill="none" stroke="midnightblue" d="M271.801,-57.4843C274.633,-56.9098 277.475,-56.3993 280.223,-56 365.191,-43.6522 966.839,-19.3401 1135.41,-12.7065"/>
<polygon fill="midnightblue" stroke="midnightblue" points="1135.57,-16.2032 1145.43,-12.3134 1135.3,-9.20863 1135.57,-16.2032"/>
</g>
<!-- Node10&#45;&gt;Node4 -->
<g id="edge16" class="edge"><title>Node10&#45;&gt;Node4</title>
<path fill="none" stroke="midnightblue" d="M756.659,-175.621C641.119,-171.422 311.898,-157.497 207.223,-132 159.357,-120.341 107.297,-95.3293 77.9187,-79.9564"/>
<polygon fill="midnightblue" stroke="midnightblue" points="79.3372,-76.7468 68.8641,-75.1458 76.0529,-82.9285 79.3372,-76.7468"/>
</g>
<!-- Node10&#45;&gt;Node9 -->
<g id="edge39" class="edge"><title>Node10&#45;&gt;Node9</title>
<path fill="none" stroke="midnightblue" d="M756.741,-175.926C657.923,-172.855 406.799,-162.226 329.223,-132 301.008,-121.007 274.105,-97.9452 258.126,-82.4614"/>
<polygon fill="midnightblue" stroke="midnightblue" points="260.365,-79.7508 250.817,-75.1592 255.418,-84.703 260.365,-79.7508"/>
</g>
<!-- Node11 -->
<g id="node11" class="node"><title>Node11</title>
<polygon fill="none" stroke="#bfbfbf" points="1606.61,-1 1606.61,-19 1649.84,-19 1649.84,-1 1606.61,-1"/>
<text text-anchor="middle" x="1628.22" y="-7" font-family="Helvetica,sans-Serif" font-size="10.00">time.h</text>
</g>
<!-- Node10&#45;&gt;Node11 -->
<g id="edge17" class="edge"><title>Node10&#45;&gt;Node11</title>
<path fill="none" stroke="midnightblue" d="M837.589,-175.348C999.358,-168.315 1594.64,-138.333 1648.22,-76 1659.97,-62.3395 1650.61,-41.8728 1641.13,-27.5657"/>
<polygon fill="midnightblue" stroke="midnightblue" points="1643.78,-25.2618 1635.1,-19.1867 1638.1,-29.3488 1643.78,-25.2618"/>
</g>
<!-- Node12 -->
<g id="node12" class="node"><title>Node12</title>
<g id="a_node12"><a xlink:href="adc_8h.html" target="_top" xlink:title="Analog to Digital Converter Header File. ">
<polygon fill="none" stroke="black" points="414.541,-113 414.541,-131 473.905,-131 473.905,-113 414.541,-113"/>
<text text-anchor="middle" x="444.223" y="-119" font-family="Helvetica,sans-Serif" font-size="10.00">dev/adc.h</text>
</a>
</g>
</g>
<!-- Node10&#45;&gt;Node12 -->
<g id="edge18" class="edge"><title>Node10&#45;&gt;Node12</title>
<path fill="none" stroke="midnightblue" d="M756.54,-172.187C696.669,-164.87 581.408,-149.891 484.223,-132 484.122,-131.981 484.021,-131.963 483.92,-131.944"/>
<polygon fill="midnightblue" stroke="midnightblue" points="484.802,-128.551 474.312,-130.036 483.438,-135.417 484.802,-128.551"/>
</g>
<!-- Node13 -->
<g id="node13" class="node"><title>Node13</title>
<g id="a_node13"><a xlink:href="bootloader_8h.html" target="_top" xlink:title="Analog to Digital Converter Header File. ">
<polygon fill="none" stroke="black" points="614.245,-113 614.245,-131 704.2,-131 704.2,-113 614.245,-113"/>
<text text-anchor="middle" x="659.223" y="-119" font-family="Helvetica,sans-Serif" font-size="10.00">dev/bootloader.h</text>
</a>
</g>
</g>
<!-- Node10&#45;&gt;Node13 -->
<g id="edge23" class="edge"><title>Node10&#45;&gt;Node13</title>
<path fill="none" stroke="midnightblue" d="M776.563,-168.916C753.494,-159.889 715.938,-145.193 689.541,-134.864"/>
<polygon fill="midnightblue" stroke="midnightblue" points="690.612,-131.524 680.024,-131.14 688.061,-138.043 690.612,-131.524"/>
</g>
<!-- Node14 -->
<g id="node14" class="node"><title>Node14</title>
<g id="a_node14"><a xlink:href="core_8h.html" target="_top" xlink:title="Analog to Digital Converter Header File. ">
<polygon fill="none" stroke="black" points="492.876,-113 492.876,-131 555.57,-131 555.57,-113 492.876,-113"/>
<text text-anchor="middle" x="524.223" y="-119" font-family="Helvetica,sans-Serif" font-size="10.00">dev/core.h</text>
</a>
</g>
</g>
<!-- Node10&#45;&gt;Node14 -->
<g id="edge28" class="edge"><title>Node10&#45;&gt;Node14</title>
<path fill="none" stroke="midnightblue" d="M756.941,-169.032C705.631,-158.883 617.418,-141.434 565.593,-131.183"/>
<polygon fill="midnightblue" stroke="midnightblue" points="566.224,-127.74 555.735,-129.233 564.866,-134.607 566.224,-127.74"/>
</g>
<!-- Node15 -->
<g id="node15" class="node"><title>Node15</title>
<g id="a_node15"><a xlink:href="gpio_8h.html" target="_top" xlink:title="General Purpose Input/Output Header File. ">
<polygon fill="none" stroke="black" points="493.149,-57 493.149,-75 555.296,-75 555.296,-57 493.149,-57"/>
<text text-anchor="middle" x="524.223" y="-63" font-family="Helvetica,sans-Serif" font-size="10.00">dev/gpio.h</text>
</a>
</g>
</g>
<!-- Node10&#45;&gt;Node15 -->
<g id="edge34" class="edge"><title>Node10&#45;&gt;Node15</title>
<path fill="none" stroke="midnightblue" d="M756.873,-172.831C716.767,-167.495 654.317,-155.911 605.223,-132 579.509,-119.476 554.562,-97.5167 539.304,-82.6229"/>
<polygon fill="midnightblue" stroke="midnightblue" points="541.421,-79.789 531.881,-75.1804 536.465,-84.7323 541.421,-79.789"/>
</g>
<!-- Node16 -->
<g id="node16" class="node"><title>Node16</title>
<g id="a_node16"><a xlink:href="dac_8h.html" target="_top" xlink:title="DAC Header File. ">
<polygon fill="none" stroke="black" points="1304.54,-57 1304.54,-75 1363.9,-75 1363.9,-57 1304.54,-57"/>
<text text-anchor="middle" x="1334.22" y="-63" font-family="Helvetica,sans-Serif" font-size="10.00">dev/dac.h</text>
</a>
</g>
</g>
<!-- Node10&#45;&gt;Node16 -->
<g id="edge40" class="edge"><title>Node10&#45;&gt;Node16</title>
<path fill="none" stroke="midnightblue" d="M837.797,-171.102C890.435,-163.24 985.027,-148.401 1065.22,-132 1147.3,-115.214 1242.37,-91.1377 1294.65,-77.4909"/>
<polygon fill="midnightblue" stroke="midnightblue" points="1295.74,-80.8255 1304.52,-74.9058 1293.96,-74.054 1295.74,-80.8255"/>
</g>
<!-- Node17 -->
<g id="node17" class="node"><title>Node17</title>
<g id="a_node17"><a xlink:href="eint_8h.html" target="_top" xlink:title="External Interrupt Header File. ">
<polygon fill="none" stroke="black" points="1458.54,-57 1458.54,-75 1517.9,-75 1517.9,-57 1458.54,-57"/>
<text text-anchor="middle" x="1488.22" y="-63" font-family="Helvetica,sans-Serif" font-size="10.00">dev/eint.h</text>
</a>
</g>
</g>
<!-- Node10&#45;&gt;Node17 -->
<g id="edge44" class="edge"><title>Node10&#45;&gt;Node17</title>
<path fill="none" stroke="midnightblue" d="M837.565,-171.93C899.373,-164.053 1021.18,-148.101 1124.22,-132 1266.88,-109.71 1302.37,-102.914 1444.22,-76 1445.66,-75.7275 1447.12,-75.4466 1448.6,-75.1601"/>
<polygon fill="midnightblue" stroke="midnightblue" points="1449.29,-78.5902 1458.42,-73.215 1447.93,-71.7235 1449.29,-78.5902"/>
</g>
<!-- Node19 -->
<g id="node19" class="node"><title>Node19</title>
<g id="a_node19"><a xlink:href="flash_8h.html" target="_top" xlink:title="Flash Memory Header File. ">
<polygon fill="none" stroke="black" points="687.041,-57 687.041,-75 751.405,-75 751.405,-57 687.041,-57"/>
<text text-anchor="middle" x="719.223" y="-63" font-family="Helvetica,sans-Serif" font-size="10.00">dev/flash.h</text>
</a>
</g>
</g>
<!-- Node10&#45;&gt;Node19 -->
<g id="edge49" class="edge"><title>Node10&#45;&gt;Node19</title>
<path fill="none" stroke="midnightblue" d="M791.36,-168.732C778.536,-150.647 747.792,-107.29 730.874,-83.4309"/>
<polygon fill="midnightblue" stroke="midnightblue" points="733.581,-81.1977 724.941,-75.0649 727.871,-85.2467 733.581,-81.1977"/>
</g>
<!-- Node20 -->
<g id="node20" class="node"><title>Node20</title>
<g id="a_node20"><a xlink:href="i2c_8h.html" target="_top" xlink:title="I2C Header File. ">
<polygon fill="none" stroke="black" points="769.21,-57 769.21,-75 825.235,-75 825.235,-57 769.21,-57"/>
<text text-anchor="middle" x="797.223" y="-63" font-family="Helvetica,sans-Serif" font-size="10.00">dev/i2c.h</text>
</a>
</g>
</g>
<!-- Node10&#45;&gt;Node20 -->
<g id="edge53" class="edge"><title>Node10&#45;&gt;Node20</title>
<path fill="none" stroke="midnightblue" d="M797.223,-168.732C797.223,-151.127 797.223,-109.575 797.223,-85.3716"/>
<polygon fill="midnightblue" stroke="midnightblue" points="800.723,-85.0648 797.223,-75.0649 793.723,-85.0649 800.723,-85.0648"/>
</g>
<!-- Node21 -->
<g id="node21" class="node"><title>Node21</title>
<g id="a_node21"><a xlink:href="pwm_8h.html" target="_top" xlink:title="Pulse Width Modulation Header File. ">
<polygon fill="none" stroke="black" points="843.045,-57 843.045,-75 907.4,-75 907.4,-57 843.045,-57"/>
<text text-anchor="middle" x="875.223" y="-63" font-family="Helvetica,sans-Serif" font-size="10.00">dev/pwm.h</text>
</a>
</g>
</g>
<!-- Node10&#45;&gt;Node21 -->
<g id="edge57" class="edge"><title>Node10&#45;&gt;Node21</title>
<path fill="none" stroke="midnightblue" d="M803.085,-168.732C815.909,-150.647 846.653,-107.29 863.572,-83.4309"/>
<polygon fill="midnightblue" stroke="midnightblue" points="866.575,-85.2467 869.504,-75.0649 860.865,-81.1977 866.575,-85.2467"/>
</g>
<!-- Node22 -->
<g id="node22" class="node"><title>Node22</title>
<g id="a_node22"><a xlink:href="qei_8h.html" target="_top" xlink:title="Quadrature Encoder Interface Header File. ">
<polygon fill="none" stroke="black" points="924.93,-57 924.93,-75 981.516,-75 981.516,-57 924.93,-57"/>
<text text-anchor="middle" x="953.223" y="-63" font-family="Helvetica,sans-Serif" font-size="10.00">dev/qei.h</text>
</a>
</g>
</g>
<!-- Node10&#45;&gt;Node22 -->
<g id="edge61" class="edge"><title>Node10&#45;&gt;Node22</title>
<path fill="none" stroke="midnightblue" d="M808.694,-168.911C835.064,-150.317 900.264,-104.342 933.322,-81.0324"/>
<polygon fill="midnightblue" stroke="midnightblue" points="935.579,-83.7236 941.735,-75.1004 931.545,-78.0028 935.579,-83.7236"/>
</g>
<!-- Node23 -->
<g id="node23" class="node"><title>Node23</title>
<g id="a_node23"><a xlink:href="rtc_8h.html" target="_top" xlink:title="Real Time Clock Header File. ">
<polygon fill="none" stroke="black" points="1536.05,-57 1536.05,-75 1590.4,-75 1590.4,-57 1536.05,-57"/>
<text text-anchor="middle" x="1563.22" y="-63" font-family="Helvetica,sans-Serif" font-size="10.00">dev/rtc.h</text>
</a>
</g>
</g>
<!-- Node10&#45;&gt;Node23 -->
<g id="edge65" class="edge"><title>Node10&#45;&gt;Node23</title>
<path fill="none" stroke="midnightblue" d="M837.648,-173.281C910.36,-166.416 1067.96,-150.728 1200.22,-132 1342.51,-111.852 1380.58,-106.092 1525.62,-76.0068"/>
<polygon fill="midnightblue" stroke="midnightblue" points="1526.71,-79.355 1535.79,-73.894 1525.29,-72.5013 1526.71,-79.355"/>
</g>
<!-- Node24 -->
<g id="node24" class="node"><title>Node24</title>
<g id="a_node24"><a xlink:href="spi_8h.html" target="_top" xlink:title="Serial Peripheral Interface Header File. ">
<polygon fill="none" stroke="black" points="999.21,-57 999.21,-75 1055.23,-75 1055.23,-57 999.21,-57"/>
<text text-anchor="middle" x="1027.22" y="-63" font-family="Helvetica,sans-Serif" font-size="10.00">dev/spi.h</text>
</a>
</g>
</g>
<!-- Node10&#45;&gt;Node24 -->
<g id="edge70" class="edge"><title>Node10&#45;&gt;Node24</title>
<path fill="none" stroke="midnightblue" d="M814.135,-168.911C853.928,-149.88 953.694,-102.166 1001.24,-79.427"/>
<polygon fill="midnightblue" stroke="midnightblue" points="1002.77,-82.5725 1010.29,-75.1004 999.754,-76.2576 1002.77,-82.5725"/>
</g>
<!-- Node25 -->
<g id="node25" class="node"><title>Node25</title>
<g id="a_node25"><a xlink:href="tmr_8h.html" target="_top" xlink:title="Timer Header File. ">
<polygon fill="none" stroke="black" points="1073.66,-57 1073.66,-75 1130.79,-75 1130.79,-57 1073.66,-57"/>
<text text-anchor="middle" x="1102.22" y="-63" font-family="Helvetica,sans-Serif" font-size="10.00">dev/tmr.h</text>
</a>
</g>
</g>
<!-- Node10&#45;&gt;Node25 -->
<g id="edge74" class="edge"><title>Node10&#45;&gt;Node25</title>
<path fill="none" stroke="midnightblue" d="M820.572,-168.997C846.446,-160.096 889.388,-145.225 926.223,-132 977.144,-113.717 1036.08,-91.7947 1071.19,-78.653"/>
<polygon fill="midnightblue" stroke="midnightblue" points="1072.73,-81.8157 1080.87,-75.0298 1070.27,-75.2606 1072.73,-81.8157"/>
</g>
<!-- Node26 -->
<g id="node26" class="node"><title>Node26</title>
<g id="a_node26"><a xlink:href="uart_8h.html" target="_top" xlink:title="Universal Asynchronous Receiver/Transmitter Header File. ">
<polygon fill="none" stroke="black" points="1148.99,-57 1148.99,-75 1209.46,-75 1209.46,-57 1148.99,-57"/>
<text text-anchor="middle" x="1179.22" y="-63" font-family="Helvetica,sans-Serif" font-size="10.00">dev/uart.h</text>
</a>
</g>
</g>
<!-- Node10&#45;&gt;Node26 -->
<g id="edge78" class="edge"><title>Node10&#45;&gt;Node26</title>
<path fill="none" stroke="midnightblue" d="M828.968,-168.988C863.193,-160.26 919.224,-145.706 967.223,-132 1029.98,-114.082 1102.58,-91.3915 1144.47,-78.1065"/>
<polygon fill="midnightblue" stroke="midnightblue" points="1145.72,-81.3841 1154.19,-75.0201 1143.6,-74.7128 1145.72,-81.3841"/>
</g>
<!-- Node27 -->
<g id="node27" class="node"><title>Node27</title>
<g id="a_node27"><a xlink:href="usb_8h.html" target="_top" xlink:title="Universal Serial Bus Header File. ">
<polygon fill="none" stroke="black" points="1227.54,-57 1227.54,-75 1286.9,-75 1286.9,-57 1227.54,-57"/>
<text text-anchor="middle" x="1257.22" y="-63" font-family="Helvetica,sans-Serif" font-size="10.00">dev/usb.h</text>
</a>
</g>
</g>
<!-- Node10&#45;&gt;Node27 -->
<g id="edge82" class="edge"><title>Node10&#45;&gt;Node27</title>
<path fill="none" stroke="midnightblue" d="M837.769,-169.308C881.476,-160.849 953.015,-146.52 1014.22,-132 1087.26,-114.673 1171.77,-91.3105 1219.42,-77.8285"/>
<polygon fill="midnightblue" stroke="midnightblue" points="1220.63,-81.1236 1229.29,-75.0267 1218.72,-74.3895 1220.63,-81.1236"/>
</g>
<!-- Node28 -->
<g id="node28" class="node"><title>Node28</title>
<g id="a_node28"><a xlink:href="sys_8h.html" target="_top" xlink:title="dev/sys.h">
<polygon fill="none" stroke="black" points="338.102,-113 338.102,-131 396.343,-131 396.343,-113 338.102,-113"/>
<text text-anchor="middle" x="367.223" y="-119" font-family="Helvetica,sans-Serif" font-size="10.00">dev/sys.h</text>
</a>
</g>
</g>
<!-- Node10&#45;&gt;Node28 -->
<g id="edge86" class="edge"><title>Node10&#45;&gt;Node28</title>
<path fill="none" stroke="midnightblue" d="M756.77,-174.353C685.712,-169.012 534.41,-155.552 400.918,-132.734"/>
<polygon fill="midnightblue" stroke="midnightblue" points="401.382,-129.263 390.931,-131.004 400.187,-136.16 401.382,-129.263"/>
</g>
<!-- Node12&#45;&gt;Node2 -->
<g id="edge19" class="edge"><title>Node12&#45;&gt;Node2</title>
<path fill="none" stroke="midnightblue" d="M414.444,-113.974C411.335,-113.286 408.217,-112.616 405.223,-112 315.228,-93.4867 143.769,-123.39 206.223,-56 244.16,-15.0645 642.255,-11.193 762.815,-10.9643"/>
<polygon fill="midnightblue" stroke="midnightblue" points="762.959,-14.4642 772.955,-10.9526 762.951,-7.46425 762.959,-14.4642"/>
</g>
<!-- Node12&#45;&gt;Node6 -->
<g id="edge22" class="edge"><title>Node12&#45;&gt;Node6</title>
<path fill="none" stroke="midnightblue" d="M426.407,-112.916C406.778,-104.008 374.983,-89.5805 352.274,-79.2755"/>
<polygon fill="midnightblue" stroke="midnightblue" points="353.713,-76.0847 343.16,-75.1396 350.82,-82.4591 353.713,-76.0847"/>
</g>
<!-- Node12&#45;&gt;Node7 -->
<g id="edge20" class="edge"><title>Node12&#45;&gt;Node7</title>
<path fill="none" stroke="midnightblue" d="M446.578,-112.939C451.2,-98.7156 462.911,-69.4029 484.223,-56 549.661,-14.8451 753.845,-31.9341 830.223,-20 830.957,-19.8852 831.699,-19.7661 832.445,-19.6432"/>
<polygon fill="midnightblue" stroke="midnightblue" points="833.068,-23.0873 842.289,-17.8704 831.827,-16.1981 833.068,-23.0873"/>
</g>
<!-- Node12&#45;&gt;Node8 -->
<g id="edge21" class="edge"><title>Node12&#45;&gt;Node8</title>
<path fill="none" stroke="midnightblue" d="M474.258,-113.625C477.605,-112.988 480.976,-112.425 484.223,-112 535.05,-105.346 1370.69,-112.948 1406.22,-76 1461.16,-18.8799 1303.67,-10.962 1223.26,-10.509"/>
<polygon fill="midnightblue" stroke="midnightblue" points="1222.93,-7.00849 1212.92,-10.4894 1222.92,-14.0085 1222.93,-7.00849"/>
</g>
<!-- Node13&#45;&gt;Node2 -->
<g id="edge24" class="edge"><title>Node13&#45;&gt;Node2</title>
<path fill="none" stroke="midnightblue" d="M653.773,-112.937C645.587,-99.7208 632.375,-73.2027 645.223,-56 672.202,-19.8757 726.901,-11.5578 762.791,-10.2511"/>
<polygon fill="midnightblue" stroke="midnightblue" points="762.898,-13.7498 772.825,-10.0491 762.757,-6.75117 762.898,-13.7498"/>
</g>
<!-- Node13&#45;&gt;Node6 -->
<g id="edge27" class="edge"><title>Node13&#45;&gt;Node6</title>
<path fill="none" stroke="midnightblue" d="M614.178,-113.717C550.757,-103.464 435.741,-84.8681 371.604,-74.4988"/>
<polygon fill="midnightblue" stroke="midnightblue" points="371.814,-70.9873 361.383,-72.8463 370.696,-77.8976 371.814,-70.9873"/>
</g>
<!-- Node13&#45;&gt;Node7 -->
<g id="edge25" class="edge"><title>Node13&#45;&gt;Node7</title>
<path fill="none" stroke="midnightblue" d="M659.13,-112.889C659.437,-99.1155 662.15,-71.1728 678.223,-56 681.062,-53.3197 776.113,-32.2045 832.44,-19.8733"/>
<polygon fill="midnightblue" stroke="midnightblue" points="833.454,-23.2343 842.476,-17.6794 831.959,-16.3958 833.454,-23.2343"/>
</g>
<!-- Node13&#45;&gt;Node8 -->
<g id="edge26" class="edge"><title>Node13&#45;&gt;Node8</title>
<path fill="none" stroke="midnightblue" d="M704.438,-120.626C891.905,-118.856 1599.82,-109.94 1632.22,-76 1638.36,-69.5711 1638.19,-62.5887 1632.22,-56 1605.08,-26.0231 1331.75,-15.2147 1223.26,-12.086"/>
<polygon fill="midnightblue" stroke="midnightblue" points="1223.08,-8.57972 1212.99,-11.7986 1222.88,-15.577 1223.08,-8.57972"/>
</g>
<!-- Node14&#45;&gt;Node2 -->
<g id="edge29" class="edge"><title>Node14&#45;&gt;Node2</title>
<path fill="none" stroke="midnightblue" d="M512.722,-112.84C495.906,-99.9435 468.257,-74.4255 484.223,-56 519.945,-14.7744 688.822,-10.4365 762.597,-10.5589"/>
<polygon fill="midnightblue" stroke="midnightblue" points="762.749,-14.0596 772.765,-10.6055 762.781,-7.05965 762.749,-14.0596"/>
</g>
<!-- Node14&#45;&gt;Node6 -->
<g id="edge32" class="edge"><title>Node14&#45;&gt;Node6</title>
<path fill="none" stroke="midnightblue" d="M494.43,-112.916C459.893,-103.544 402.837,-88.061 364.649,-77.6986"/>
<polygon fill="midnightblue" stroke="midnightblue" points="365.461,-74.2924 354.893,-75.0513 363.628,-81.0481 365.461,-74.2924"/>
</g>
<!-- Node14&#45;&gt;Node7 -->
<g id="edge30" class="edge"><title>Node14&#45;&gt;Node7</title>
<path fill="none" stroke="midnightblue" d="M538.667,-112.827C563.291,-99.2113 615.295,-71.8205 662.223,-56 666.28,-54.6321 772.264,-32.2445 832.445,-19.5737"/>
<polygon fill="midnightblue" stroke="midnightblue" points="833.337,-22.9629 842.401,-17.4782 831.895,-16.113 833.337,-22.9629"/>
</g>
<!-- Node14&#45;&gt;Node8 -->
<g id="edge31" class="edge"><title>Node14&#45;&gt;Node8</title>
<path fill="none" stroke="midnightblue" d="M555.715,-116.949C570.688,-115.165 588.854,-113.204 605.223,-112 660.332,-107.946 1560.86,-115.774 1599.22,-76 1652.55,-20.7088 1341.29,-12.3598 1223.23,-11.1694"/>
<polygon fill="midnightblue" stroke="midnightblue" points="1223.12,-7.66831 1213.09,-11.08 1223.06,-14.668 1223.12,-7.66831"/>
</g>
<!-- Node14&#45;&gt;Node9 -->
<g id="edge33" class="edge"><title>Node14&#45;&gt;Node9</title>
<path fill="none" stroke="midnightblue" d="M492.599,-114.101C489.101,-113.374 485.589,-112.66 482.223,-112 395.882,-95.0608 371.178,-94.7839 281.889,-76.2536"/>
<polygon fill="midnightblue" stroke="midnightblue" points="282.371,-72.7786 271.866,-74.1537 280.936,-79.6299 282.371,-72.7786"/>
</g>
<!-- Node15&#45;&gt;Node2 -->
<g id="edge36" class="edge"><title>Node15&#45;&gt;Node2</title>
<path fill="none" stroke="midnightblue" d="M555.692,-58.6956C560.232,-57.7892 564.847,-56.8695 569.223,-56 637.916,-42.3518 718.28,-26.5227 762.904,-17.7452"/>
<polygon fill="midnightblue" stroke="midnightblue" points="763.787,-21.1388 772.923,-15.7749 762.436,-14.2704 763.787,-21.1388"/>
</g>
<!-- Node15&#45;&gt;Node5 -->
<g id="edge35" class="edge"><title>Node15&#45;&gt;Node5</title>
<path fill="none" stroke="midnightblue" d="M492.847,-57.9404C449.048,-48.0858 369.661,-30.2237 322.459,-19.6031"/>
<polygon fill="midnightblue" stroke="midnightblue" points="323.139,-16.1688 312.615,-17.3882 321.603,-22.9981 323.139,-16.1688"/>
</g>
<!-- Node15&#45;&gt;Node7 -->
<g id="edge37" class="edge"><title>Node15&#45;&gt;Node7</title>
<path fill="none" stroke="midnightblue" d="M555.649,-58.4634C560.195,-57.5911 564.823,-56.7427 569.223,-56 684.687,-36.5087 714.846,-40.0066 830.223,-20 830.955,-19.8729 831.695,-19.7425 832.439,-19.6092"/>
<polygon fill="midnightblue" stroke="midnightblue" points="833.096,-23.0471 842.269,-17.746 831.792,-16.1695 833.096,-23.0471"/>
</g>
<!-- Node15&#45;&gt;Node8 -->
<g id="edge38" class="edge"><title>Node15&#45;&gt;Node8</title>
<path fill="none" stroke="midnightblue" d="M555.374,-62.4318C661.847,-53.6539 1011.53,-24.8253 1135.31,-14.62"/>
<polygon fill="midnightblue" stroke="midnightblue" points="1135.87,-18.086 1145.55,-13.7762 1135.3,-11.1097 1135.87,-18.086"/>
</g>
<!-- Node16&#45;&gt;Node2 -->
<g id="edge41" class="edge"><title>Node16&#45;&gt;Node2</title>
<path fill="none" stroke="midnightblue" d="M1304.5,-57.6604C1301.38,-57.034 1298.24,-56.4638 1295.22,-56 1091.65,-24.7577 1036.5,-53.0914 833.223,-20 832.627,-19.903 832.026,-19.801 831.422,-19.6945"/>
<polygon fill="midnightblue" stroke="midnightblue" points="832.008,-16.2419 821.508,-17.6564 830.598,-23.0985 832.008,-16.2419"/>
</g>
<!-- Node16&#45;&gt;Node7 -->
<g id="edge42" class="edge"><title>Node16&#45;&gt;Node7</title>
<path fill="none" stroke="midnightblue" d="M1304.49,-57.7488C1301.37,-57.1052 1298.24,-56.5068 1295.22,-56 1156.26,-32.6437 989.395,-19.0695 913.882,-13.6973"/>
<polygon fill="midnightblue" stroke="midnightblue" points="914.065,-10.2017 903.845,-12.9936 913.576,-17.1846 914.065,-10.2017"/>
</g>
<!-- Node16&#45;&gt;Node8 -->
<g id="edge43" class="edge"><title>Node16&#45;&gt;Node8</title>
<path fill="none" stroke="midnightblue" d="M1311.02,-56.9157C1284.69,-47.743 1241.56,-32.7171 1211.85,-22.3669"/>
<polygon fill="midnightblue" stroke="midnightblue" points="1212.93,-19.0361 1202.33,-19.0513 1210.62,-25.6465 1212.93,-19.0361"/>
</g>
<!-- Node17&#45;&gt;Node2 -->
<g id="edge45" class="edge"><title>Node17&#45;&gt;Node2</title>
<path fill="none" stroke="midnightblue" d="M1458.19,-62.5806C1434.77,-60.7161 1401.44,-58.1088 1372.22,-56 1132.76,-38.7138 1070.4,-57.2631 833.223,-20 832.626,-19.9063 832.025,-19.8073 831.42,-19.7037"/>
<polygon fill="midnightblue" stroke="midnightblue" points="831.998,-16.2497 821.502,-17.6936 830.607,-23.1102 831.998,-16.2497"/>
</g>
<!-- Node17&#45;&gt;Node7 -->
<g id="edge46" class="edge"><title>Node17&#45;&gt;Node7</title>
<path fill="none" stroke="midnightblue" d="M1458.14,-62.3589C1357.12,-53.4883 1029.83,-24.7508 914.171,-14.5954"/>
<polygon fill="midnightblue" stroke="midnightblue" points="914.238,-11.088 903.971,-13.6998 913.626,-18.0612 914.238,-11.088"/>
</g>
<!-- Node17&#45;&gt;Node8 -->
<g id="edge47" class="edge"><title>Node17&#45;&gt;Node8</title>
<path fill="none" stroke="midnightblue" d="M1458.43,-58.7646C1453.68,-57.812 1448.82,-56.8605 1444.22,-56 1366.6,-41.4755 1275.81,-26.4906 1223.17,-18.0003"/>
<polygon fill="midnightblue" stroke="midnightblue" points="1223.6,-14.5238 1213.17,-16.3908 1222.49,-21.435 1223.6,-14.5238"/>
</g>
<!-- Node18 -->
<g id="node18" class="node"><title>Node18</title>
<polygon fill="none" stroke="#bfbfbf" points="1457.71,-1 1457.71,-19 1518.74,-19 1518.74,-1 1457.71,-1"/>
<text text-anchor="middle" x="1488.22" y="-7" font-family="Helvetica,sans-Serif" font-size="10.00">hwpl/pio.h</text>
</g>
<!-- Node17&#45;&gt;Node18 -->
<g id="edge48" class="edge"><title>Node17&#45;&gt;Node18</title>
<path fill="none" stroke="midnightblue" d="M1488.22,-56.5625C1488.22,-49.308 1488.22,-38.5884 1488.22,-29.3691"/>
<polygon fill="midnightblue" stroke="midnightblue" points="1491.72,-29.2014 1488.22,-19.2014 1484.72,-29.2015 1491.72,-29.2014"/>
</g>
<!-- Node19&#45;&gt;Node2 -->
<g id="edge50" class="edge"><title>Node19&#45;&gt;Node2</title>
<path fill="none" stroke="midnightblue" d="M731.069,-56.7986C743.281,-48.3446 762.543,-35.0093 777.139,-24.9039"/>
<polygon fill="midnightblue" stroke="midnightblue" points="779.291,-27.6715 785.52,-19.1017 775.306,-21.9161 779.291,-27.6715"/>
</g>
<!-- Node19&#45;&gt;Node7 -->
<g id="edge51" class="edge"><title>Node19&#45;&gt;Node7</title>
<path fill="none" stroke="midnightblue" d="M742.278,-56.9157C768.437,-47.743 811.289,-32.7171 840.806,-22.3669"/>
<polygon fill="midnightblue" stroke="midnightblue" points="841.983,-25.6632 850.262,-19.0513 839.667,-19.0575 841.983,-25.6632"/>
</g>
<!-- Node19&#45;&gt;Node8 -->
<g id="edge52" class="edge"><title>Node19&#45;&gt;Node8</title>
<path fill="none" stroke="midnightblue" d="M751.835,-57.505C754.664,-56.9569 757.489,-56.4454 760.223,-56 896.256,-33.8324 1058.98,-19.9215 1135.45,-14.1198"/>
<polygon fill="midnightblue" stroke="midnightblue" points="1135.94,-17.5926 1145.65,-13.355 1135.42,-10.6122 1135.94,-17.5926"/>
</g>
<!-- Node20&#45;&gt;Node2 -->
<g id="edge54" class="edge"><title>Node20&#45;&gt;Node2</title>
<path fill="none" stroke="midnightblue" d="M797.223,-56.5625C797.223,-49.308 797.223,-38.5884 797.223,-29.3691"/>
<polygon fill="midnightblue" stroke="midnightblue" points="800.723,-29.2014 797.223,-19.2014 793.723,-29.2015 800.723,-29.2014"/>
</g>
<!-- Node20&#45;&gt;Node7 -->
<g id="edge55" class="edge"><title>Node20&#45;&gt;Node7</title>
<path fill="none" stroke="midnightblue" d="M808.765,-56.7986C820.595,-48.3935 839.215,-35.1633 853.407,-25.0794"/>
<polygon fill="midnightblue" stroke="midnightblue" points="855.447,-27.9239 861.571,-19.2786 851.392,-22.2176 855.447,-27.9239"/>
</g>
<!-- Node20&#45;&gt;Node8 -->
<g id="edge56" class="edge"><title>Node20&#45;&gt;Node8</title>
<path fill="none" stroke="midnightblue" d="M825.436,-57.8021C828.393,-57.1481 831.363,-56.5327 834.223,-56 941.601,-35.9991 1069.42,-21.8016 1135.22,-15.1881"/>
<polygon fill="midnightblue" stroke="midnightblue" points="1135.64,-18.6644 1145.24,-14.192 1134.94,-11.6988 1135.64,-18.6644"/>
</g>
<!-- Node21&#45;&gt;Node2 -->
<g id="edge58" class="edge"><title>Node21&#45;&gt;Node2</title>
<path fill="none" stroke="midnightblue" d="M863.376,-56.7986C851.165,-48.3446 831.903,-35.0093 817.306,-24.9039"/>
<polygon fill="midnightblue" stroke="midnightblue" points="819.139,-21.9161 808.925,-19.1017 815.155,-27.6715 819.139,-21.9161"/>
</g>
<!-- Node21&#45;&gt;Node7 -->
<g id="edge59" class="edge"><title>Node21&#45;&gt;Node7</title>
<path fill="none" stroke="midnightblue" d="M874.91,-56.5625C874.642,-49.308 874.244,-38.5884 873.903,-29.3691"/>
<polygon fill="midnightblue" stroke="midnightblue" points="877.394,-29.065 873.526,-19.2014 870.399,-29.3242 877.394,-29.065"/>
</g>
<!-- Node21&#45;&gt;Node8 -->
<g id="edge60" class="edge"><title>Node21&#45;&gt;Node8</title>
<path fill="none" stroke="midnightblue" d="M907.422,-57.7832C910.394,-57.1621 913.362,-56.5585 916.223,-56 993.158,-40.9824 1083.3,-26.1563 1135.57,-17.8303"/>
<polygon fill="midnightblue" stroke="midnightblue" points="1136.18,-21.2779 1145.5,-16.2536 1135.08,-14.3644 1136.18,-21.2779"/>
</g>
<!-- Node22&#45;&gt;Node2 -->
<g id="edge62" class="edge"><title>Node22&#45;&gt;Node2</title>
<path fill="none" stroke="midnightblue" d="M929.868,-56.9157C903.369,-47.743 859.961,-32.7171 830.06,-22.3669"/>
<polygon fill="midnightblue" stroke="midnightblue" points="831.077,-19.015 820.482,-19.0513 828.787,-25.6299 831.077,-19.015"/>
</g>
<!-- Node22&#45;&gt;Node7 -->
<g id="edge63" class="edge"><title>Node22&#45;&gt;Node7</title>
<path fill="none" stroke="midnightblue" d="M941.072,-56.7986C928.548,-48.3446 908.792,-35.0093 893.821,-24.9039"/>
<polygon fill="midnightblue" stroke="midnightblue" points="895.472,-21.7955 885.225,-19.1017 891.556,-27.5974 895.472,-21.7955"/>
</g>
<!-- Node22&#45;&gt;Node8 -->
<g id="edge64" class="edge"><title>Node22&#45;&gt;Node8</title>
<path fill="none" stroke="midnightblue" d="M981.903,-58.0092C984.714,-57.3284 987.523,-56.6497 990.223,-56 1040.04,-44.0097 1097.3,-30.4024 1135.61,-21.3201"/>
<polygon fill="midnightblue" stroke="midnightblue" points="1136.49,-24.7095 1145.41,-18.9981 1134.87,-17.8981 1136.49,-24.7095"/>
</g>
<!-- Node23&#45;&gt;Node2 -->
<g id="edge67" class="edge"><title>Node23&#45;&gt;Node2</title>
<path fill="none" stroke="midnightblue" d="M1535.86,-57.7402C1532.63,-57.0628 1529.36,-56.4593 1526.22,-56 1221.06,-11.3584 1138.25,-65.6132 833.223,-20 832.625,-19.9107 832.024,-19.8158 831.418,-19.716"/>
<polygon fill="midnightblue" stroke="midnightblue" points="831.985,-16.2602 821.494,-17.7433 830.62,-23.1259 831.985,-16.2602"/>
</g>
<!-- Node23&#45;&gt;Node7 -->
<g id="edge68" class="edge"><title>Node23&#45;&gt;Node7</title>
<path fill="none" stroke="midnightblue" d="M1535.85,-57.7927C1532.62,-57.1059 1529.36,-56.4858 1526.22,-56 1407.29,-37.5732 1038.09,-18.8307 914.218,-12.9112"/>
<polygon fill="midnightblue" stroke="midnightblue" points="914.179,-9.40555 904.024,-12.4267 913.847,-16.3977 914.179,-9.40555"/>
</g>
<!-- Node23&#45;&gt;Node8 -->
<g id="edge69" class="edge"><title>Node23&#45;&gt;Node8</title>
<path fill="none" stroke="midnightblue" d="M1535.82,-57.9791C1532.59,-57.2588 1529.34,-56.5799 1526.22,-56 1417.94,-35.8723 1288.99,-21.6837 1222.96,-15.1172"/>
<polygon fill="midnightblue" stroke="midnightblue" points="1223.21,-11.6249 1212.91,-14.129 1222.52,-18.5913 1223.21,-11.6249"/>
</g>
<!-- Node23&#45;&gt;Node11 -->
<g id="edge66" class="edge"><title>Node23&#45;&gt;Node11</title>
<path fill="none" stroke="midnightblue" d="M1573.09,-56.7986C1582.93,-48.6313 1598.24,-35.9083 1610.24,-25.943"/>
<polygon fill="midnightblue" stroke="midnightblue" points="1612.8,-28.361 1618.26,-19.2786 1608.33,-22.9767 1612.8,-28.361"/>
</g>
<!-- Node24&#45;&gt;Node2 -->
<g id="edge71" class="edge"><title>Node24&#45;&gt;Node2</title>
<path fill="none" stroke="midnightblue" d="M998.95,-58.0822C996.004,-57.3736 993.054,-56.6688 990.223,-56 920.552,-39.5396 902.841,-36.6822 833.223,-20 832.635,-19.8593 832.043,-19.7168 831.446,-19.5728"/>
<polygon fill="midnightblue" stroke="midnightblue" points="832.152,-16.1424 821.607,-17.1646 830.488,-22.9417 832.152,-16.1424"/>
</g>
<!-- Node24&#45;&gt;Node7 -->
<g id="edge72" class="edge"><title>Node24&#45;&gt;Node7</title>
<path fill="none" stroke="midnightblue" d="M1004.17,-56.9157C978.008,-47.743 935.157,-32.7171 905.639,-22.3669"/>
<polygon fill="midnightblue" stroke="midnightblue" points="906.779,-19.0575 896.184,-19.0513 904.462,-25.6632 906.779,-19.0575"/>
</g>
<!-- Node24&#45;&gt;Node8 -->
<g id="edge73" class="edge"><title>Node24&#45;&gt;Node8</title>
<path fill="none" stroke="midnightblue" d="M1049.98,-56.9157C1075.61,-47.8092 1117.48,-32.9337 1146.59,-22.5917"/>
<polygon fill="midnightblue" stroke="midnightblue" points="1148.06,-25.7854 1156.31,-19.1396 1145.72,-19.1893 1148.06,-25.7854"/>
</g>
<!-- Node25&#45;&gt;Node2 -->
<g id="edge75" class="edge"><title>Node25&#45;&gt;Node2</title>
<path fill="none" stroke="midnightblue" d="M1073.64,-57.9785C1070.47,-57.2749 1067.28,-56.5999 1064.22,-56 962.258,-36.0114 935.062,-40.6215 833.223,-20 832.631,-19.8801 832.034,-19.757 831.433,-19.6309"/>
<polygon fill="midnightblue" stroke="midnightblue" points="832.08,-16.189 821.555,-17.3995 830.538,-23.0169 832.08,-16.189"/>
</g>
<!-- Node25&#45;&gt;Node7 -->
<g id="edge76" class="edge"><title>Node25&#45;&gt;Node7</title>
<path fill="none" stroke="midnightblue" d="M1073.59,-58.2147C1070.43,-57.4669 1067.26,-56.717 1064.22,-56 1012.33,-43.7419 952.497,-29.6521 913.829,-20.5523"/>
<polygon fill="midnightblue" stroke="midnightblue" points="914.526,-17.1209 903.99,-18.2372 912.923,-23.9348 914.526,-17.1209"/>
</g>
<!-- Node25&#45;&gt;Node8 -->
<g id="edge77" class="edge"><title>Node25&#45;&gt;Node8</title>
<path fill="none" stroke="midnightblue" d="M1113.92,-56.7986C1125.97,-48.3446 1144.99,-35.0093 1159.4,-24.9039"/>
<polygon fill="midnightblue" stroke="midnightblue" points="1161.49,-27.7091 1167.67,-19.1017 1157.47,-21.9779 1161.49,-27.7091"/>
</g>
<!-- Node26&#45;&gt;Node2 -->
<g id="edge79" class="edge"><title>Node26&#45;&gt;Node2</title>
<path fill="none" stroke="midnightblue" d="M1148.71,-57.7913C1145.52,-57.1394 1142.31,-56.5274 1139.22,-56 1004.24,-32.9389 967.923,-44.6565 833.223,-20 832.629,-19.8913 832.03,-19.7784 831.427,-19.6619"/>
<polygon fill="midnightblue" stroke="midnightblue" points="832.044,-16.2145 821.531,-17.5247 830.566,-23.0568 832.044,-16.2145"/>
</g>
<!-- Node26&#45;&gt;Node7 -->
<g id="edge80" class="edge"><title>Node26&#45;&gt;Node7</title>
<path fill="none" stroke="midnightblue" d="M1148.68,-57.9513C1145.49,-57.2682 1142.3,-56.6052 1139.22,-56 1059.74,-40.3461 966.228,-25.3024 913.933,-17.1906"/>
<polygon fill="midnightblue" stroke="midnightblue" points="914.457,-13.7301 904.04,-15.6625 913.388,-20.6481 914.457,-13.7301"/>
</g>
<!-- Node26&#45;&gt;Node8 -->
<g id="edge81" class="edge"><title>Node26&#45;&gt;Node8</title>
<path fill="none" stroke="midnightblue" d="M1179.22,-56.5625C1179.22,-49.308 1179.22,-38.5884 1179.22,-29.3691"/>
<polygon fill="midnightblue" stroke="midnightblue" points="1182.72,-29.2014 1179.22,-19.2014 1175.72,-29.2015 1182.72,-29.2014"/>
</g>
<!-- Node27&#45;&gt;Node2 -->
<g id="edge83" class="edge"><title>Node27&#45;&gt;Node2</title>
<path fill="none" stroke="midnightblue" d="M1227.49,-57.7085C1224.37,-57.0727 1221.24,-56.4872 1218.22,-56 1048.56,-28.6171 1002.63,-48.924 833.223,-20 832.627,-19.8984 832.027,-19.7921 831.424,-19.6817"/>
<polygon fill="midnightblue" stroke="midnightblue" points="832.022,-16.231 821.517,-17.6046 830.586,-23.0821 832.022,-16.231"/>
</g>
<!-- Node27&#45;&gt;Node7 -->
<g id="edge84" class="edge"><title>Node27&#45;&gt;Node7</title>
<path fill="none" stroke="midnightblue" d="M1227.47,-57.8215C1224.36,-57.1637 1221.23,-56.5421 1218.22,-56 1108.98,-36.3183 978.795,-21.7047 914.029,-15.0251"/>
<polygon fill="midnightblue" stroke="midnightblue" points="914.139,-11.5183 903.835,-13.9838 913.428,-18.482 914.139,-11.5183"/>
</g>
<!-- Node27&#45;&gt;Node8 -->
<g id="edge85" class="edge"><title>Node27&#45;&gt;Node8</title>
<path fill="none" stroke="midnightblue" d="M1245.38,-56.7986C1233.16,-48.3446 1213.9,-35.0093 1199.31,-24.9039"/>
<polygon fill="midnightblue" stroke="midnightblue" points="1201.14,-21.9161 1190.93,-19.1017 1197.15,-27.6715 1201.14,-21.9161"/>
</g>
<!-- Node28&#45;&gt;Node2 -->
<g id="edge87" class="edge"><title>Node28&#45;&gt;Node2</title>
<path fill="none" stroke="midnightblue" d="M338.085,-117.879C292.644,-112.343 208.226,-99.153 190.223,-76 184.766,-68.9828 184.174,-62.5136 190.223,-56 229.31,-13.9075 639.901,-10.8549 762.713,-10.8903"/>
<polygon fill="midnightblue" stroke="midnightblue" points="763.025,-14.3905 773.028,-10.901 763.032,-7.39053 763.025,-14.3905"/>
</g>
<!-- Node28&#45;&gt;Node6 -->
<g id="edge90" class="edge"><title>Node28&#45;&gt;Node6</title>
<path fill="none" stroke="midnightblue" d="M360.66,-112.562C354.584,-104.75 345.382,-92.9187 337.877,-83.2704"/>
<polygon fill="midnightblue" stroke="midnightblue" points="340.504,-80.9462 331.602,-75.2014 334.978,-85.2438 340.504,-80.9462"/>
</g>
<!-- Node28&#45;&gt;Node7 -->
<g id="edge89" class="edge"><title>Node28&#45;&gt;Node7</title>
<path fill="none" stroke="midnightblue" d="M375.795,-112.854C391.493,-98.4957 426.539,-68.9764 462.223,-56 616.664,0.162645 667.779,-44.87 830.223,-20 830.958,-19.8875 831.699,-19.7704 832.446,-19.6494"/>
<polygon fill="midnightblue" stroke="midnightblue" points="833.063,-23.0947 842.293,-17.8934 831.834,-16.2034 833.063,-23.0947"/>
</g>
<!-- Node28&#45;&gt;Node10 -->
<g id="edge88" class="edge"><title>Node28&#45;&gt;Node10</title>
<path fill="none" stroke="midnightblue" d="M396.719,-128.398C402.594,-129.71 408.613,-131.017 414.223,-132 532.557,-152.731 672.727,-166.177 746.387,-172.59"/>
<polygon fill="midnightblue" stroke="midnightblue" points="746.498,-176.112 756.762,-173.485 747.1,-169.138 746.498,-176.112"/>
</g>
</g>
</svg>
