<?xml version="1.0" encoding="UTF-8" standalone="no"?>
<!DOCTYPE svg PUBLIC "-//W3C//DTD SVG 1.1//EN"
 "http://www.w3.org/Graphics/SVG/1.1/DTD/svg11.dtd">
<!-- Generated by graphviz version 2.36.0 (20140111.2315)
 -->
<!-- Title: src/sys/mqueue/mqueue.c Pages: 1 -->
<svg width="1924pt" height="104pt"
 viewBox="0.00 0.00 1924.00 104.00" xmlns="http://www.w3.org/2000/svg" xmlns:xlink="http://www.w3.org/1999/xlink">
<g id="graph0" class="graph" transform="scale(1 1) rotate(0) translate(4 100)">
<title>src/sys/mqueue/mqueue.c</title>
<!-- Node1 -->
<g id="node1" class="node"><title>Node1</title>
<polygon fill="#bfbfbf" stroke="black" points="772.641,-77 772.641,-95 905.359,-95 905.359,-77 772.641,-77"/>
<text text-anchor="middle" x="839" y="-83" font-family="Helvetica,sans-Serif" font-size="10.00">src/sys/mqueue/mqueue.c</text>
</g>
<!-- Node2 -->
<g id="node2" class="node"><title>Node2</title>
<polygon fill="none" stroke="#bfbfbf" points="-0.00976562,-11 -0.00976562,-29 66.0098,-29 66.0098,-11 -0.00976562,-11"/>
<text text-anchor="middle" x="33" y="-17" font-family="Helvetica,sans-Serif" font-size="10.00">sys/types.h</text>
</g>
<!-- Node1&#45;&gt;Node2 -->
<g id="edge1" class="edge"><title>Node1&#45;&gt;Node2</title>
<path fill="none" stroke="midnightblue" d="M772.345,-84.1835C611.609,-81.715 206.26,-72.3765 75,-40 68.8276,-38.4775 62.4417,-36.0704 56.5691,-33.4743"/>
<polygon fill="midnightblue" stroke="midnightblue" points="57.8314,-30.1986 47.2991,-29.0496 54.8161,-36.5159 57.8314,-30.1986"/>
</g>
<!-- Node3 -->
<g id="node3" class="node"><title>Node3</title>
<polygon fill="none" stroke="#bfbfbf" points="83.7661,-11 83.7661,-29 134.234,-29 134.234,-11 83.7661,-11"/>
<text text-anchor="middle" x="109" y="-17" font-family="Helvetica,sans-Serif" font-size="10.00">signal.h</text>
</g>
<!-- Node1&#45;&gt;Node3 -->
<g id="edge2" class="edge"><title>Node1&#45;&gt;Node3</title>
<path fill="none" stroke="midnightblue" d="M772.588,-84.4326C622.213,-82.5469 259.711,-74.457 143,-40 138.351,-38.6274 133.639,-36.5337 129.265,-34.2303"/>
<polygon fill="midnightblue" stroke="midnightblue" points="130.784,-31.0647 120.383,-29.0515 127.259,-37.1119 130.784,-31.0647"/>
</g>
<!-- Node4 -->
<g id="node4" class="node"><title>Node4</title>
<polygon fill="none" stroke="#bfbfbf" points="152.158,-11 152.158,-29 199.842,-29 199.842,-11 152.158,-11"/>
<text text-anchor="middle" x="176" y="-17" font-family="Helvetica,sans-Serif" font-size="10.00">errno.h</text>
</g>
<!-- Node1&#45;&gt;Node4 -->
<g id="edge3" class="edge"><title>Node1&#45;&gt;Node4</title>
<path fill="none" stroke="midnightblue" d="M772.624,-84.007C632.908,-81.308 312.809,-71.7545 209,-40 204.468,-38.6137 199.887,-36.5139 195.639,-34.2089"/>
<polygon fill="midnightblue" stroke="midnightblue" points="197.395,-31.1813 187.021,-29.0326 193.791,-37.1821 197.395,-31.1813"/>
</g>
<!-- Node5 -->
<g id="node5" class="node"><title>Node5</title>
<polygon fill="none" stroke="#bfbfbf" points="217.66,-11 217.66,-29 260.34,-29 260.34,-11 217.66,-11"/>
<text text-anchor="middle" x="239" y="-17" font-family="Helvetica,sans-Serif" font-size="10.00">fcntl.h</text>
</g>
<!-- Node1&#45;&gt;Node5 -->
<g id="edge4" class="edge"><title>Node1&#45;&gt;Node5</title>
<path fill="none" stroke="midnightblue" d="M772.474,-83.7528C642.756,-80.6662 360.702,-70.56 269,-40 265.034,-38.6783 261.064,-36.7236 257.37,-34.564"/>
<polygon fill="midnightblue" stroke="midnightblue" points="259.199,-31.5778 248.918,-29.0174 255.358,-37.4302 259.199,-31.5778"/>
</g>
<!-- Node6 -->
<g id="node6" class="node"><title>Node6</title>
<polygon fill="none" stroke="#bfbfbf" points="278.488,-11 278.488,-29 329.512,-29 329.512,-11 278.488,-11"/>
<text text-anchor="middle" x="304" y="-17" font-family="Helvetica,sans-Serif" font-size="10.00">unistd.h</text>
</g>
<!-- Node1&#45;&gt;Node6 -->
<g id="edge5" class="edge"><title>Node1&#45;&gt;Node6</title>
<path fill="none" stroke="midnightblue" d="M772.538,-82.4712C655.47,-77.4467 417.372,-64.5166 338,-40 333.443,-38.5925 328.816,-36.5183 324.504,-34.2516"/>
<polygon fill="midnightblue" stroke="midnightblue" points="326.124,-31.1453 315.716,-29.1663 322.618,-37.2041 326.124,-31.1453"/>
</g>
<!-- Node7 -->
<g id="node7" class="node"><title>Node7</title>
<polygon fill="none" stroke="#bfbfbf" points="347.054,-11 347.054,-29 426.946,-29 426.946,-11 347.054,-11"/>
<text text-anchor="middle" x="387" y="-17" font-family="Helvetica,sans-Serif" font-size="10.00">sys/syslimits.h</text>
</g>
<!-- Node1&#45;&gt;Node7 -->
<g id="edge6" class="edge"><title>Node1&#45;&gt;Node7</title>
<path fill="none" stroke="midnightblue" d="M772.469,-82.8301C691.809,-79.001 552.234,-68.5127 436,-40 428.856,-38.2474 421.351,-35.7142 414.422,-33.0659"/>
<polygon fill="midnightblue" stroke="midnightblue" points="415.374,-29.6759 404.791,-29.1809 412.755,-36.1677 415.374,-29.6759"/>
</g>
<!-- Node8 -->
<g id="node8" class="node"><title>Node8</title>
<polygon fill="none" stroke="#bfbfbf" points="444.879,-11 444.879,-29 493.121,-29 493.121,-11 444.879,-11"/>
<text text-anchor="middle" x="469" y="-17" font-family="Helvetica,sans-Serif" font-size="10.00">stdint.h</text>
</g>
<!-- Node1&#45;&gt;Node8 -->
<g id="edge7" class="edge"><title>Node1&#45;&gt;Node8</title>
<path fill="none" stroke="midnightblue" d="M772.358,-83.684C703.099,-80.5839 592.398,-70.7188 502,-40 497.704,-38.5403 493.341,-36.4979 489.254,-34.29"/>
<polygon fill="midnightblue" stroke="midnightblue" points="490.77,-31.1203 480.382,-29.0345 487.202,-37.1428 490.77,-31.1203"/>
</g>
<!-- Node9 -->
<g id="node9" class="node"><title>Node9</title>
<polygon fill="none" stroke="#bfbfbf" points="511.269,-11 511.269,-29 556.731,-29 556.731,-11 511.269,-11"/>
<text text-anchor="middle" x="534" y="-17" font-family="Helvetica,sans-Serif" font-size="10.00">stdio.h</text>
</g>
<!-- Node1&#45;&gt;Node9 -->
<g id="edge8" class="edge"><title>Node1&#45;&gt;Node9</title>
<path fill="none" stroke="midnightblue" d="M772.445,-80.9623C716.061,-75.9242 633.808,-64.7201 566,-40 562.016,-38.5477 557.972,-36.5915 554.161,-34.485"/>
<polygon fill="midnightblue" stroke="midnightblue" points="555.698,-31.3245 545.331,-29.141 552.074,-37.3131 555.698,-31.3245"/>
</g>
<!-- Node10 -->
<g id="node10" class="node"><title>Node10</title>
<polygon fill="none" stroke="#bfbfbf" points="575.158,-11 575.158,-29 622.842,-29 622.842,-11 575.158,-11"/>
<text text-anchor="middle" x="599" y="-17" font-family="Helvetica,sans-Serif" font-size="10.00">stdlib.h</text>
</g>
<!-- Node1&#45;&gt;Node10 -->
<g id="edge9" class="edge"><title>Node1&#45;&gt;Node10</title>
<path fill="none" stroke="midnightblue" d="M779.148,-76.9978C737.031,-70.1707 679.865,-58.4676 632,-40 627.906,-38.4205 623.717,-36.3827 619.757,-34.2306"/>
<polygon fill="midnightblue" stroke="midnightblue" points="621.485,-31.1867 611.085,-29.1631 617.953,-37.2304 621.485,-31.1867"/>
</g>
<!-- Node11 -->
<g id="node11" class="node"><title>Node11</title>
<polygon fill="none" stroke="#bfbfbf" points="640.604,-11 640.604,-29 689.396,-29 689.396,-11 640.604,-11"/>
<text text-anchor="middle" x="665" y="-17" font-family="Helvetica,sans-Serif" font-size="10.00">string.h</text>
</g>
<!-- Node1&#45;&gt;Node11 -->
<g id="edge10" class="edge"><title>Node1&#45;&gt;Node11</title>
<path fill="none" stroke="midnightblue" d="M807.209,-76.9476C778.157,-69.1023 734.319,-56.0308 698,-40 694.163,-38.3065 690.202,-36.2857 686.413,-34.2036"/>
<polygon fill="midnightblue" stroke="midnightblue" points="687.927,-31.0359 677.519,-29.0537 684.419,-37.0936 687.927,-31.0359"/>
</g>
<!-- Node12 -->
<g id="node12" class="node"><title>Node12</title>
<polygon fill="none" stroke="#bfbfbf" points="707.443,-11 707.443,-29 754.557,-29 754.557,-11 707.443,-11"/>
<text text-anchor="middle" x="731" y="-17" font-family="Helvetica,sans-Serif" font-size="10.00">limits.h</text>
</g>
<!-- Node1&#45;&gt;Node12 -->
<g id="edge11" class="edge"><title>Node1&#45;&gt;Node12</title>
<path fill="none" stroke="midnightblue" d="M825.322,-76.8944C807.225,-66.1706 775.093,-47.1291 753.421,-34.2868"/>
<polygon fill="midnightblue" stroke="midnightblue" points="754.954,-31.1269 744.567,-29.0398 751.386,-37.1489 754.954,-31.1269"/>
</g>
<!-- Node13 -->
<g id="node13" class="node"><title>Node13</title>
<polygon fill="none" stroke="#bfbfbf" points="772.934,-11 772.934,-29 825.066,-29 825.066,-11 772.934,-11"/>
<text text-anchor="middle" x="799" y="-17" font-family="Helvetica,sans-Serif" font-size="10.00">stdarg.h</text>
</g>
<!-- Node1&#45;&gt;Node13 -->
<g id="edge12" class="edge"><title>Node1&#45;&gt;Node13</title>
<path fill="none" stroke="midnightblue" d="M833.934,-76.8944C827.836,-67.1379 817.435,-50.4965 809.564,-37.9026"/>
<polygon fill="midnightblue" stroke="midnightblue" points="812.419,-35.867 804.151,-29.242 806.483,-39.577 812.419,-35.867"/>
</g>
<!-- Node14 -->
<g id="node14" class="node"><title>Node14</title>
<polygon fill="none" stroke="#bfbfbf" points="843.091,-11 843.091,-29 916.909,-29 916.909,-11 843.091,-11"/>
<text text-anchor="middle" x="880" y="-17" font-family="Helvetica,sans-Serif" font-size="10.00">mcu/debug.h</text>
</g>
<!-- Node1&#45;&gt;Node14 -->
<g id="edge13" class="edge"><title>Node1&#45;&gt;Node14</title>
<path fill="none" stroke="midnightblue" d="M844.193,-76.8944C850.443,-67.1379 861.104,-50.4965 869.172,-37.9026"/>
<polygon fill="midnightblue" stroke="midnightblue" points="872.273,-39.5503 874.72,-29.242 866.379,-35.7743 872.273,-39.5503"/>
</g>
<!-- Node15 -->
<g id="node15" class="node"><title>Node15</title>
<polygon fill="none" stroke="#bfbfbf" points="935.247,-11 935.247,-29 1050.75,-29 1050.75,-11 935.247,-11"/>
<text text-anchor="middle" x="993" y="-17" font-family="Helvetica,sans-Serif" font-size="10.00">../sched/sched_flags.h</text>
</g>
<!-- Node1&#45;&gt;Node15 -->
<g id="edge14" class="edge"><title>Node1&#45;&gt;Node15</title>
<path fill="none" stroke="midnightblue" d="M858.504,-76.8944C885.234,-65.7859 933.44,-45.7522 964.295,-32.9293"/>
<polygon fill="midnightblue" stroke="midnightblue" points="965.763,-36.1095 973.654,-29.0398 963.077,-29.6455 965.763,-36.1095"/>
</g>
<!-- Node16 -->
<g id="node16" class="node"><title>Node16</title>
<polygon fill="none" stroke="#bfbfbf" points="1068.87,-11 1068.87,-29 1127.13,-29 1127.13,-11 1068.87,-11"/>
<text text-anchor="middle" x="1098" y="-17" font-family="Helvetica,sans-Serif" font-size="10.00">pthread.h</text>
</g>
<!-- Node1&#45;&gt;Node16 -->
<g id="edge15" class="edge"><title>Node1&#45;&gt;Node16</title>
<path fill="none" stroke="midnightblue" d="M898.429,-76.9945C943.318,-69.9586 1006.03,-57.9985 1059,-40 1064.13,-38.2576 1069.45,-35.9951 1074.46,-33.642"/>
<polygon fill="midnightblue" stroke="midnightblue" points="1076.16,-36.7046 1083.56,-29.1184 1073.04,-30.4367 1076.16,-36.7046"/>
</g>
<!-- Node17 -->
<g id="node17" class="node"><title>Node17</title>
<polygon fill="none" stroke="#bfbfbf" points="1145.5,-11 1145.5,-29 1206.5,-29 1206.5,-11 1145.5,-11"/>
<text text-anchor="middle" x="1176" y="-17" font-family="Helvetica,sans-Serif" font-size="10.00">sys/time.h</text>
</g>
<!-- Node1&#45;&gt;Node17 -->
<g id="edge16" class="edge"><title>Node1&#45;&gt;Node17</title>
<path fill="none" stroke="midnightblue" d="M905.411,-80.5308C966.428,-75.1203 1058.83,-63.6112 1136,-40 1141.51,-38.313 1147.23,-35.9838 1152.56,-33.5333"/>
<polygon fill="midnightblue" stroke="midnightblue" points="1154.16,-36.647 1161.6,-29.1042 1151.08,-30.361 1154.16,-36.647"/>
</g>
<!-- Node18 -->
<g id="node18" class="node"><title>Node18</title>
<polygon fill="none" stroke="#bfbfbf" points="1224.71,-11 1224.71,-29 1281.29,-29 1281.29,-11 1224.71,-11"/>
<text text-anchor="middle" x="1253" y="-17" font-family="Helvetica,sans-Serif" font-size="10.00">stdbool.h</text>
</g>
<!-- Node1&#45;&gt;Node18 -->
<g id="edge17" class="edge"><title>Node1&#45;&gt;Node18</title>
<path fill="none" stroke="midnightblue" d="M905.605,-83.9014C981.871,-81.0803 1109.84,-71.5405 1215,-40 1220.25,-38.4247 1225.66,-36.162 1230.69,-33.744"/>
<polygon fill="midnightblue" stroke="midnightblue" points="1232.48,-36.7544 1239.75,-29.0426 1229.26,-30.5407 1232.48,-36.7544"/>
</g>
<!-- Node19 -->
<g id="node19" class="node"><title>Node19</title>
<polygon fill="none" stroke="#bfbfbf" points="1299.54,-11 1299.54,-29 1364.46,-29 1364.46,-11 1299.54,-11"/>
<text text-anchor="middle" x="1332" y="-17" font-family="Helvetica,sans-Serif" font-size="10.00">mcu/fault.h</text>
</g>
<!-- Node1&#45;&gt;Node19 -->
<g id="edge18" class="edge"><title>Node1&#45;&gt;Node19</title>
<path fill="none" stroke="midnightblue" d="M905.554,-85.0595C994.622,-83.6334 1156.81,-75.7365 1290,-40 1296.04,-38.379 1302.31,-35.9769 1308.1,-33.4217"/>
<polygon fill="midnightblue" stroke="midnightblue" points="1309.73,-36.5235 1317.28,-29.0877 1306.74,-30.1941 1309.73,-36.5235"/>
</g>
<!-- Node20 -->
<g id="node20" class="node"><title>Node20</title>
<polygon fill="none" stroke="#bfbfbf" points="1382.83,-11 1382.83,-29 1447.17,-29 1447.17,-11 1382.83,-11"/>
<text text-anchor="middle" x="1415" y="-17" font-family="Helvetica,sans-Serif" font-size="10.00">mcu/task.h</text>
</g>
<!-- Node1&#45;&gt;Node20 -->
<g id="edge19" class="edge"><title>Node1&#45;&gt;Node20</title>
<path fill="none" stroke="midnightblue" d="M905.75,-82.2061C1028.74,-76.5901 1286.45,-62.5113 1373,-40 1379.05,-38.4255 1385.33,-36.0415 1391.12,-33.489"/>
<polygon fill="midnightblue" stroke="midnightblue" points="1392.75,-36.5889 1400.29,-29.1474 1389.76,-30.2618 1392.75,-36.5889"/>
</g>
<!-- Node21 -->
<g id="node21" class="node"><title>Node21</title>
<polygon fill="none" stroke="#bfbfbf" points="1465.27,-11 1465.27,-29 1530.73,-29 1530.73,-11 1465.27,-11"/>
<text text-anchor="middle" x="1498" y="-17" font-family="Helvetica,sans-Serif" font-size="10.00">mcu/core.h</text>
</g>
<!-- Node1&#45;&gt;Node21 -->
<g id="edge20" class="edge"><title>Node1&#45;&gt;Node21</title>
<path fill="none" stroke="midnightblue" d="M905.611,-83.0909C1042.97,-78.6724 1353.4,-66.0686 1456,-40 1462.06,-38.4597 1468.34,-36.0889 1474.13,-33.5384"/>
<polygon fill="midnightblue" stroke="midnightblue" points="1475.77,-36.637 1483.3,-29.1911 1472.77,-30.3115 1475.77,-36.637"/>
</g>
<!-- Node22 -->
<g id="node22" class="node"><title>Node22</title>
<polygon fill="none" stroke="#bfbfbf" points="1548.36,-11 1548.36,-29 1633.64,-29 1633.64,-11 1548.36,-11"/>
<text text-anchor="middle" x="1591" y="-17" font-family="Helvetica,sans-Serif" font-size="10.00">stratify/stratify.h</text>
</g>
<!-- Node1&#45;&gt;Node22 -->
<g id="edge21" class="edge"><title>Node1&#45;&gt;Node22</title>
<path fill="none" stroke="midnightblue" d="M905.463,-83.1486C1056.01,-78.5626 1419.23,-65.1843 1539,-40 1546.98,-38.3223 1555.38,-35.6702 1563.05,-32.8737"/>
<polygon fill="midnightblue" stroke="midnightblue" points="1564.54,-36.0503 1572.61,-29.1841 1562.02,-29.5199 1564.54,-36.0503"/>
</g>
<!-- Node23 -->
<g id="node23" class="node"><title>Node23</title>
<polygon fill="none" stroke="#bfbfbf" points="1651.71,-11 1651.71,-29 1698.29,-29 1698.29,-11 1651.71,-11"/>
<text text-anchor="middle" x="1675" y="-17" font-family="Helvetica,sans-Serif" font-size="10.00">trace.h</text>
</g>
<!-- Node1&#45;&gt;Node23 -->
<g id="edge22" class="edge"><title>Node1&#45;&gt;Node23</title>
<path fill="none" stroke="midnightblue" d="M905.578,-85.2132C1072.42,-85.1183 1504.82,-80.8145 1642,-40 1646.54,-38.6485 1651.13,-36.564 1655.38,-34.263"/>
<polygon fill="midnightblue" stroke="midnightblue" points="1657.23,-37.2342 1663.99,-29.0806 1653.62,-31.2357 1657.23,-37.2342"/>
</g>
<!-- Node24 -->
<g id="node24" class="node"><title>Node24</title>
<polygon fill="none" stroke="#bfbfbf" points="1716.42,-1 1716.42,-39 1833.58,-39 1833.58,-1 1716.42,-1"/>
<text text-anchor="start" x="1724.42" y="-27" font-family="Helvetica,sans-Serif" font-size="10.00">/Users/tgil/stratify</text>
<text text-anchor="start" x="1724.42" y="-17" font-family="Helvetica,sans-Serif" font-size="10.00">&#45;workspace/StratifyOS</text>
<text text-anchor="middle" x="1775" y="-7" font-family="Helvetica,sans-Serif" font-size="10.00">/src/sys/sched/sched.h</text>
</g>
<!-- Node1&#45;&gt;Node24 -->
<g id="edge23" class="edge"><title>Node1&#45;&gt;Node24</title>
<path fill="none" stroke="midnightblue" d="M905.605,-83.4481C1077.62,-79.142 1534.64,-65.733 1706.29,-39.8454"/>
<polygon fill="midnightblue" stroke="midnightblue" points="1706.87,-43.2973 1716.21,-38.2835 1705.78,-36.3826 1706.87,-43.2973"/>
</g>
<!-- Node25 -->
<g id="node25" class="node"><title>Node25</title>
<polygon fill="none" stroke="#bfbfbf" points="1851.55,-11 1851.55,-29 1916.45,-29 1916.45,-11 1851.55,-11"/>
<text text-anchor="middle" x="1884" y="-17" font-family="Helvetica,sans-Serif" font-size="10.00">mcu/mcu.h</text>
</g>
<!-- Node1&#45;&gt;Node25 -->
<g id="edge24" class="edge"><title>Node1&#45;&gt;Node25</title>
<path fill="none" stroke="midnightblue" d="M905.535,-85.2856C1099.76,-85.6029 1663.47,-82.7126 1842,-40 1848.18,-38.5207 1854.57,-36.1301 1860.45,-33.536"/>
<polygon fill="midnightblue" stroke="midnightblue" points="1862.2,-36.5755 1869.71,-29.1034 1859.18,-30.2605 1862.2,-36.5755"/>
</g>
</g>
</svg>
