<?xml version="1.0" encoding="UTF-8" standalone="no"?>
<!DOCTYPE svg PUBLIC "-//W3C//DTD SVG 1.1//EN"
 "http://www.w3.org/Graphics/SVG/1.1/DTD/svg11.dtd">
<!-- Generated by graphviz version 2.36.0 (20140111.2315)
 -->
<!-- Title: include/iface/dev/pio.h Pages: 1 -->
<svg width="213pt" height="84pt"
 viewBox="0.00 0.00 213.00 84.00" xmlns="http://www.w3.org/2000/svg" xmlns:xlink="http://www.w3.org/1999/xlink">
<g id="graph0" class="graph" transform="scale(1 1) rotate(0) translate(4 80)">
<title>include/iface/dev/pio.h</title>
<!-- Node1 -->
<g id="node1" class="node"><title>Node1</title>
<polygon fill="#bfbfbf" stroke="black" points="40.5225,-57 40.5225,-75 155.478,-75 155.478,-57 40.5225,-57"/>
<text text-anchor="middle" x="98" y="-63" font-family="Helvetica,sans-Serif" font-size="10.00">include/iface/dev/pio.h</text>
</g>
<!-- Node2 -->
<g id="node2" class="node"><title>Node2</title>
<polygon fill="none" stroke="#bfbfbf" points="-0.292969,-1 -0.292969,-19 56.293,-19 56.293,-1 -0.292969,-1"/>
<text text-anchor="middle" x="28" y="-7" font-family="Helvetica,sans-Serif" font-size="10.00">stdbool.h</text>
</g>
<!-- Node1&#45;&gt;Node2 -->
<g id="edge1" class="edge"><title>Node1&#45;&gt;Node2</title>
<path fill="none" stroke="midnightblue" d="M87.3685,-56.7986C76.6786,-48.552 59.9678,-35.6608 46.9953,-25.6535"/>
<polygon fill="midnightblue" stroke="midnightblue" points="48.7872,-22.6154 38.7315,-19.2786 44.5116,-28.1579 48.7872,-22.6154"/>
</g>
<!-- Node3 -->
<g id="node3" class="node"><title>Node3</title>
<polygon fill="none" stroke="#bfbfbf" points="73.8794,-1 73.8794,-19 122.121,-19 122.121,-1 73.8794,-1"/>
<text text-anchor="middle" x="98" y="-7" font-family="Helvetica,sans-Serif" font-size="10.00">stdint.h</text>
</g>
<!-- Node1&#45;&gt;Node3 -->
<g id="edge2" class="edge"><title>Node1&#45;&gt;Node3</title>
<path fill="none" stroke="midnightblue" d="M98,-56.5625C98,-49.308 98,-38.5884 98,-29.3691"/>
<polygon fill="midnightblue" stroke="midnightblue" points="101.5,-29.2014 98,-19.2014 94.5001,-29.2015 101.5,-29.2014"/>
</g>
<!-- Node4 -->
<g id="node4" class="node"><title>Node4</title>
<polygon fill="none" stroke="#bfbfbf" points="140.269,-1 140.269,-19 205.731,-19 205.731,-1 140.269,-1"/>
<text text-anchor="middle" x="173" y="-7" font-family="Helvetica,sans-Serif" font-size="10.00">mcu/arch.h</text>
</g>
<!-- Node1&#45;&gt;Node4 -->
<g id="edge3" class="edge"><title>Node1&#45;&gt;Node4</title>
<path fill="none" stroke="midnightblue" d="M109.391,-56.7986C120.955,-48.4727 139.094,-35.4125 153.048,-25.3656"/>
<polygon fill="midnightblue" stroke="midnightblue" points="155.432,-27.9621 161.502,-19.2786 151.341,-22.2813 155.432,-27.9621"/>
</g>
</g>
</svg>
