<?xml version="1.0" encoding="UTF-8" standalone="no"?>
<!DOCTYPE svg PUBLIC "-//W3C//DTD SVG 1.1//EN"
 "http://www.w3.org/Graphics/SVG/1.1/DTD/svg11.dtd">
<!-- Generated by graphviz version 2.36.0 (20140111.2315)
 -->
<!-- Title: src/sys/pthread/pthread_schedparam.c Pages: 1 -->
<svg width="452pt" height="150pt"
 viewBox="0.00 0.00 452.00 150.00" xmlns="http://www.w3.org/2000/svg" xmlns:xlink="http://www.w3.org/1999/xlink">
<g id="graph0" class="graph" transform="scale(1 1) rotate(0) translate(4 146)">
<title>src/sys/pthread/pthread_schedparam.c</title>
<!-- Node1 -->
<g id="node1" class="node"><title>Node1</title>
<polygon fill="#bfbfbf" stroke="black" points="158.751,-113 158.751,-141 279.249,-141 279.249,-113 158.751,-113"/>
<text text-anchor="start" x="166.751" y="-129" font-family="Helvetica,sans-Serif" font-size="10.00">src/sys/pthread/pthread</text>
<text text-anchor="middle" x="219" y="-119" font-family="Helvetica,sans-Serif" font-size="10.00">_schedparam.c</text>
</g>
<!-- Node2 -->
<g id="node2" class="node"><title>Node2</title>
<g id="a_node2"><a xlink:href="config_8h.html" target="_top" xlink:title="config.h">
<polygon fill="none" stroke="black" points="49.4878,-57 49.4878,-75 100.512,-75 100.512,-57 49.4878,-57"/>
<text text-anchor="middle" x="75" y="-63" font-family="Helvetica,sans-Serif" font-size="10.00">config.h</text>
</a>
</g>
</g>
<!-- Node1&#45;&gt;Node2 -->
<g id="edge1" class="edge"><title>Node1&#45;&gt;Node2</title>
<path fill="none" stroke="midnightblue" d="M187.042,-112.906C162.281,-102.761 128.257,-88.8206 104.217,-78.971"/>
<polygon fill="midnightblue" stroke="midnightblue" points="105.48,-75.706 94.8997,-75.1534 102.826,-82.1834 105.48,-75.706"/>
</g>
<!-- Node5 -->
<g id="node5" class="node"><title>Node5</title>
<polygon fill="none" stroke="#bfbfbf" points="118.872,-57 118.872,-75 177.128,-75 177.128,-57 118.872,-57"/>
<text text-anchor="middle" x="148" y="-63" font-family="Helvetica,sans-Serif" font-size="10.00">pthread.h</text>
</g>
<!-- Node1&#45;&gt;Node5 -->
<g id="edge4" class="edge"><title>Node1&#45;&gt;Node5</title>
<path fill="none" stroke="midnightblue" d="M203.243,-112.906C192.065,-103.618 177.059,-91.1479 165.508,-81.549"/>
<polygon fill="midnightblue" stroke="midnightblue" points="167.74,-78.8527 157.812,-75.1534 163.266,-84.2365 167.74,-78.8527"/>
</g>
<!-- Node6 -->
<g id="node6" class="node"><title>Node6</title>
<polygon fill="none" stroke="#bfbfbf" points="195.158,-57 195.158,-75 242.842,-75 242.842,-57 195.158,-57"/>
<text text-anchor="middle" x="219" y="-63" font-family="Helvetica,sans-Serif" font-size="10.00">errno.h</text>
</g>
<!-- Node1&#45;&gt;Node6 -->
<g id="edge5" class="edge"><title>Node1&#45;&gt;Node6</title>
<path fill="none" stroke="midnightblue" d="M219,-112.906C219,-104.79 219,-94.245 219,-85.3086"/>
<polygon fill="midnightblue" stroke="midnightblue" points="222.5,-85.1533 219,-75.1534 215.5,-85.1534 222.5,-85.1533"/>
</g>
<!-- Node7 -->
<g id="node7" class="node"><title>Node7</title>
<polygon fill="none" stroke="#bfbfbf" points="260.488,-57 260.488,-75 311.512,-75 311.512,-57 260.488,-57"/>
<text text-anchor="middle" x="286" y="-63" font-family="Helvetica,sans-Serif" font-size="10.00">sched.h</text>
</g>
<!-- Node1&#45;&gt;Node7 -->
<g id="edge6" class="edge"><title>Node1&#45;&gt;Node7</title>
<path fill="none" stroke="midnightblue" d="M233.869,-112.906C244.315,-103.708 258.303,-91.3898 269.16,-81.8294"/>
<polygon fill="midnightblue" stroke="midnightblue" points="271.549,-84.3889 276.741,-75.1534 266.923,-79.1355 271.549,-84.3889"/>
</g>
<!-- Node8 -->
<g id="node8" class="node"><title>Node8</title>
<polygon fill="none" stroke="#bfbfbf" points="329.247,-57 329.247,-75 444.753,-75 444.753,-57 329.247,-57"/>
<text text-anchor="middle" x="387" y="-63" font-family="Helvetica,sans-Serif" font-size="10.00">../sched/sched_flags.h</text>
</g>
<!-- Node1&#45;&gt;Node8 -->
<g id="edge7" class="edge"><title>Node1&#45;&gt;Node8</title>
<path fill="none" stroke="midnightblue" d="M256.285,-112.906C285.557,-102.626 325.927,-88.4482 354.029,-78.5792"/>
<polygon fill="midnightblue" stroke="midnightblue" points="355.508,-81.7692 363.784,-75.1534 353.189,-75.1646 355.508,-81.7692"/>
</g>
<!-- Node3 -->
<g id="node3" class="node"><title>Node3</title>
<polygon fill="none" stroke="#bfbfbf" points="-0.908691,-1 -0.908691,-19 72.9087,-19 72.9087,-1 -0.908691,-1"/>
<text text-anchor="middle" x="36" y="-7" font-family="Helvetica,sans-Serif" font-size="10.00">mcu/debug.h</text>
</g>
<!-- Node2&#45;&gt;Node3 -->
<g id="edge2" class="edge"><title>Node2&#45;&gt;Node3</title>
<path fill="none" stroke="midnightblue" d="M68.9062,-56.5625C63.3215,-48.8297 54.8931,-37.1597 47.9647,-27.5665"/>
<polygon fill="midnightblue" stroke="midnightblue" points="50.6156,-25.259 41.9233,-19.2014 44.9408,-29.3575 50.6156,-25.259"/>
</g>
<!-- Node4 -->
<g id="node4" class="node"><title>Node4</title>
<polygon fill="none" stroke="#bfbfbf" points="90.8794,-1 90.8794,-19 139.121,-19 139.121,-1 90.8794,-1"/>
<text text-anchor="middle" x="115" y="-7" font-family="Helvetica,sans-Serif" font-size="10.00">stdint.h</text>
</g>
<!-- Node2&#45;&gt;Node4 -->
<g id="edge3" class="edge"><title>Node2&#45;&gt;Node4</title>
<path fill="none" stroke="midnightblue" d="M81.25,-56.5625C87.037,-48.75 95.801,-36.9187 102.948,-27.2704"/>
<polygon fill="midnightblue" stroke="midnightblue" points="105.785,-29.3203 108.925,-19.2014 100.16,-25.1537 105.785,-29.3203"/>
</g>
</g>
</svg>
