<?xml version="1.0" encoding="UTF-8" standalone="no"?>
<!DOCTYPE svg PUBLIC "-//W3C//DTD SVG 1.1//EN"
 "http://www.w3.org/Graphics/SVG/1.1/DTD/svg11.dtd">
<!-- Generated by graphviz version 2.36.0 (20140111.2315)
 -->
<!-- Title: src/sys/unistd/rmdir.c Pages: 1 -->
<svg width="903pt" height="318pt"
 viewBox="0.00 0.00 903.00 318.00" xmlns="http://www.w3.org/2000/svg" xmlns:xlink="http://www.w3.org/1999/xlink">
<g id="graph0" class="graph" transform="scale(1 1) rotate(0) translate(4 314)">
<title>src/sys/unistd/rmdir.c</title>
<!-- Node1 -->
<g id="node1" class="node"><title>Node1</title>
<polygon fill="#bfbfbf" stroke="black" points="438.323,-291 438.323,-309 547.677,-309 547.677,-291 438.323,-291"/>
<text text-anchor="middle" x="493" y="-297" font-family="Helvetica,sans-Serif" font-size="10.00">src/sys/unistd/rmdir.c</text>
</g>
<!-- Node2 -->
<g id="node2" class="node"><title>Node2</title>
<g id="a_node2"><a xlink:href="unistd__fs_8h_source.html" target="_top" xlink:title="unistd_fs.h">
<polygon fill="none" stroke="black" points="234.818,-235 234.818,-253 299.182,-253 299.182,-235 234.818,-235"/>
<text text-anchor="middle" x="267" y="-241" font-family="Helvetica,sans-Serif" font-size="10.00">unistd_fs.h</text>
</a>
</g>
</g>
<!-- Node1&#45;&gt;Node2 -->
<g id="edge1" class="edge"><title>Node1&#45;&gt;Node2</title>
<path fill="none" stroke="midnightblue" d="M459.166,-290.916C419.152,-281.355 352.524,-265.435 309.182,-255.079"/>
<polygon fill="midnightblue" stroke="midnightblue" points="309.773,-251.622 299.233,-252.702 308.146,-258.43 309.773,-251.622"/>
</g>
<!-- Node19 -->
<g id="node19" class="node"><title>Node19</title>
<g id="a_node19"><a xlink:href="unistd__flags_8h_source.html" target="_top" xlink:title="unistd_flags.h">
<polygon fill="none" stroke="black" points="648.146,-235 648.146,-253 725.854,-253 725.854,-235 648.146,-235"/>
<text text-anchor="middle" x="687" y="-241" font-family="Helvetica,sans-Serif" font-size="10.00">unistd_flags.h</text>
</a>
</g>
</g>
<!-- Node1&#45;&gt;Node19 -->
<g id="edge26" class="edge"><title>Node1&#45;&gt;Node19</title>
<path fill="none" stroke="midnightblue" d="M522.044,-290.916C555.57,-281.584 610.863,-266.193 648.088,-255.831"/>
<polygon fill="midnightblue" stroke="midnightblue" points="649.38,-259.105 658.075,-253.051 647.503,-252.361 649.38,-259.105"/>
</g>
<!-- Node3 -->
<g id="node3" class="node"><title>Node3</title>
<g id="a_node3"><a xlink:href="config_8h.html" target="_top" xlink:title="config.h">
<polygon fill="none" stroke="black" points="275.488,-174 275.488,-192 326.512,-192 326.512,-174 275.488,-174"/>
<text text-anchor="middle" x="301" y="-180" font-family="Helvetica,sans-Serif" font-size="10.00">config.h</text>
</a>
</g>
</g>
<!-- Node2&#45;&gt;Node3 -->
<g id="edge2" class="edge"><title>Node2&#45;&gt;Node3</title>
<path fill="none" stroke="midnightblue" d="M271.728,-234.796C276.752,-226.078 284.838,-212.046 291.24,-200.937"/>
<polygon fill="midnightblue" stroke="midnightblue" points="294.352,-202.546 296.313,-192.134 288.287,-199.051 294.352,-202.546"/>
</g>
<!-- Node6 -->
<g id="node6" class="node"><title>Node6</title>
<polygon fill="none" stroke="#bfbfbf" points="-0.229004,-174 -0.229004,-192 60.229,-192 60.229,-174 -0.229004,-174"/>
<text text-anchor="middle" x="30" y="-180" font-family="Helvetica,sans-Serif" font-size="10.00">sys/fcntl.h</text>
</g>
<!-- Node2&#45;&gt;Node6 -->
<g id="edge5" class="edge"><title>Node2&#45;&gt;Node6</title>
<path fill="none" stroke="midnightblue" d="M234.802,-236.931C195.367,-229.213 126.695,-214.845 69,-198 66.2162,-197.187 63.342,-196.283 60.475,-195.337"/>
<polygon fill="midnightblue" stroke="midnightblue" points="61.4913,-191.985 50.8966,-192.028 59.2055,-198.602 61.4913,-191.985"/>
</g>
<!-- Node7 -->
<g id="node7" class="node"><title>Node7</title>
<polygon fill="none" stroke="#bfbfbf" points="460.882,-57 460.882,-75 519.118,-75 519.118,-57 460.882,-57"/>
<text text-anchor="middle" x="490" y="-63" font-family="Helvetica,sans-Serif" font-size="10.00">sys/stat.h</text>
</g>
<!-- Node2&#45;&gt;Node7 -->
<g id="edge6" class="edge"><title>Node2&#45;&gt;Node7</title>
<path fill="none" stroke="midnightblue" d="M284.638,-234.861C299.685,-227.169 321.04,-214.375 335,-198 362.228,-166.063 343.509,-140.839 374,-112 395.173,-91.9748 426.246,-80.5584 450.904,-74.2386"/>
<polygon fill="midnightblue" stroke="midnightblue" points="451.772,-77.63 460.688,-71.9075 450.15,-70.8206 451.772,-77.63"/>
</g>
<!-- Node8 -->
<g id="node8" class="node"><title>Node8</title>
<polygon fill="none" stroke="#bfbfbf" points="78.2686,-174 78.2686,-192 123.731,-192 123.731,-174 78.2686,-174"/>
<text text-anchor="middle" x="101" y="-180" font-family="Helvetica,sans-Serif" font-size="10.00">stdio.h</text>
</g>
<!-- Node2&#45;&gt;Node8 -->
<g id="edge7" class="edge"><title>Node2&#45;&gt;Node8</title>
<path fill="none" stroke="midnightblue" d="M240.328,-234.996C212.887,-226.556 169.041,-212.494 132,-198 130.412,-197.379 128.788,-196.719 127.156,-196.039"/>
<polygon fill="midnightblue" stroke="midnightblue" points="128.487,-192.801 117.922,-192.019 125.694,-199.219 128.487,-192.801"/>
</g>
<!-- Node9 -->
<g id="node9" class="node"><title>Node9</title>
<polygon fill="none" stroke="#bfbfbf" points="141.488,-174 141.488,-192 192.512,-192 192.512,-174 141.488,-174"/>
<text text-anchor="middle" x="167" y="-180" font-family="Helvetica,sans-Serif" font-size="10.00">unistd.h</text>
</g>
<!-- Node2&#45;&gt;Node9 -->
<g id="edge8" class="edge"><title>Node2&#45;&gt;Node9</title>
<path fill="none" stroke="midnightblue" d="M253.095,-234.796C236.677,-225.109 209.139,-208.862 189.633,-197.354"/>
<polygon fill="midnightblue" stroke="midnightblue" points="191.178,-194.201 180.786,-192.134 187.621,-200.23 191.178,-194.201"/>
</g>
<!-- Node10 -->
<g id="node10" class="node"><title>Node10</title>
<polygon fill="none" stroke="#bfbfbf" points="210.158,-174 210.158,-192 257.842,-192 257.842,-174 210.158,-174"/>
<text text-anchor="middle" x="234" y="-180" font-family="Helvetica,sans-Serif" font-size="10.00">errno.h</text>
</g>
<!-- Node2&#45;&gt;Node10 -->
<g id="edge9" class="edge"><title>Node2&#45;&gt;Node10</title>
<path fill="none" stroke="midnightblue" d="M262.411,-234.796C257.535,-226.078 249.687,-212.046 243.473,-200.937"/>
<polygon fill="midnightblue" stroke="midnightblue" points="246.486,-199.153 238.55,-192.134 240.376,-202.57 246.486,-199.153"/>
</g>
<!-- Node11 -->
<g id="node11" class="node"><title>Node11</title>
<g id="a_node11"><a xlink:href="sysfs_8h_source.html" target="_top" xlink:title="../../../include/stratify\l/sysfs.h">
<polygon fill="none" stroke="black" points="440.54,-169 440.54,-197 545.46,-197 545.46,-169 440.54,-169"/>
<text text-anchor="start" x="448.54" y="-185" font-family="Helvetica,sans-Serif" font-size="10.00">../../../include/stratify</text>
<text text-anchor="middle" x="493" y="-175" font-family="Helvetica,sans-Serif" font-size="10.00">/sysfs.h</text>
</a>
</g>
</g>
<!-- Node2&#45;&gt;Node11 -->
<g id="edge10" class="edge"><title>Node2&#45;&gt;Node11</title>
<path fill="none" stroke="midnightblue" d="M297.95,-234.92C332.606,-225.873 389.6,-210.994 433.054,-199.65"/>
<polygon fill="midnightblue" stroke="midnightblue" points="434.154,-202.98 442.945,-197.067 432.385,-196.207 434.154,-202.98"/>
</g>
<!-- Node4 -->
<g id="node4" class="node"><title>Node4</title>
<polygon fill="none" stroke="#bfbfbf" points="31.0913,-113 31.0913,-131 104.909,-131 104.909,-113 31.0913,-113"/>
<text text-anchor="middle" x="68" y="-119" font-family="Helvetica,sans-Serif" font-size="10.00">mcu/debug.h</text>
</g>
<!-- Node3&#45;&gt;Node4 -->
<g id="edge3" class="edge"><title>Node3&#45;&gt;Node4</title>
<path fill="none" stroke="midnightblue" d="M282.305,-173.893C277.087,-171.803 271.374,-169.674 266,-168 215.116,-152.149 155.275,-139.325 114.804,-131.482"/>
<polygon fill="midnightblue" stroke="midnightblue" points="115.429,-128.038 104.95,-129.596 114.114,-134.913 115.429,-128.038"/>
</g>
<!-- Node5 -->
<g id="node5" class="node"><title>Node5</title>
<polygon fill="none" stroke="#bfbfbf" points="370.879,-1 370.879,-19 419.121,-19 419.121,-1 370.879,-1"/>
<text text-anchor="middle" x="395" y="-7" font-family="Helvetica,sans-Serif" font-size="10.00">stdint.h</text>
</g>
<!-- Node3&#45;&gt;Node5 -->
<g id="edge4" class="edge"><title>Node3&#45;&gt;Node5</title>
<path fill="none" stroke="midnightblue" d="M304.825,-173.827C311.322,-160.328 325.343,-132.8 341,-112 354.42,-94.1709 364.76,-95.2781 376,-76 384.512,-61.3997 389.456,-42.7012 392.154,-29.1105"/>
<polygon fill="midnightblue" stroke="midnightblue" points="395.63,-29.5541 393.922,-19.0978 388.737,-28.3369 395.63,-29.5541"/>
</g>
<!-- Node11&#45;&gt;Node5 -->
<g id="edge13" class="edge"><title>Node11&#45;&gt;Node5</title>
<path fill="none" stroke="midnightblue" d="M511.213,-168.949C522.113,-159.957 534.982,-146.959 541,-132 549.541,-110.77 533.208,-61.7458 528,-56 502.74,-28.1301 459.61,-17.5086 429.33,-13.4678"/>
<polygon fill="midnightblue" stroke="midnightblue" points="429.542,-9.96907 419.206,-12.2955 428.737,-16.9226 429.542,-9.96907"/>
</g>
<!-- Node11&#45;&gt;Node7 -->
<g id="edge15" class="edge"><title>Node11&#45;&gt;Node7</title>
<path fill="none" stroke="midnightblue" d="M506.372,-168.951C518.807,-155.163 534.383,-132.604 527,-112 522.957,-100.717 514.729,-90.2376 507.057,-82.2354"/>
<polygon fill="midnightblue" stroke="midnightblue" points="509.353,-79.5863 499.745,-75.1209 504.471,-84.6032 509.353,-79.5863"/>
</g>
<!-- Node12 -->
<g id="node12" class="node"><title>Node12</title>
<polygon fill="none" stroke="#bfbfbf" points="173.707,-1 173.707,-19 230.293,-19 230.293,-1 173.707,-1"/>
<text text-anchor="middle" x="202" y="-7" font-family="Helvetica,sans-Serif" font-size="10.00">stdbool.h</text>
</g>
<!-- Node11&#45;&gt;Node12 -->
<g id="edge11" class="edge"><title>Node11&#45;&gt;Node12</title>
<path fill="none" stroke="midnightblue" d="M440.411,-177.577C353.416,-169.723 187.356,-152.25 170,-132 144.056,-101.731 171.735,-52.6996 189.502,-27.3459"/>
<polygon fill="midnightblue" stroke="midnightblue" points="192.412,-29.2954 195.481,-19.1549 186.758,-25.168 192.412,-29.2954"/>
</g>
<!-- Node13 -->
<g id="node13" class="node"><title>Node13</title>
<polygon fill="none" stroke="#bfbfbf" points="382.99,-113 382.99,-131 449.01,-131 449.01,-113 382.99,-113"/>
<text text-anchor="middle" x="416" y="-119" font-family="Helvetica,sans-Serif" font-size="10.00">sys/types.h</text>
</g>
<!-- Node11&#45;&gt;Node13 -->
<g id="edge12" class="edge"><title>Node11&#45;&gt;Node13</title>
<path fill="none" stroke="midnightblue" d="M475.911,-168.906C463.672,-159.528 447.199,-146.906 434.624,-137.27"/>
<polygon fill="midnightblue" stroke="midnightblue" points="436.707,-134.457 426.641,-131.153 432.45,-140.014 436.707,-134.457"/>
</g>
<!-- Node14 -->
<g id="node14" class="node"><title>Node14</title>
<polygon fill="none" stroke="#bfbfbf" points="467.209,-113 467.209,-131 518.791,-131 518.791,-113 467.209,-113"/>
<text text-anchor="middle" x="493" y="-119" font-family="Helvetica,sans-Serif" font-size="10.00">stddef.h</text>
</g>
<!-- Node11&#45;&gt;Node14 -->
<g id="edge14" class="edge"><title>Node11&#45;&gt;Node14</title>
<path fill="none" stroke="midnightblue" d="M493,-168.906C493,-160.79 493,-150.245 493,-141.309"/>
<polygon fill="midnightblue" stroke="midnightblue" points="496.5,-141.153 493,-131.153 489.5,-141.153 496.5,-141.153"/>
</g>
<!-- Node15 -->
<g id="node15" class="node"><title>Node15</title>
<polygon fill="none" stroke="#bfbfbf" points="613.323,-113 613.323,-131 662.677,-131 662.677,-113 613.323,-113"/>
<text text-anchor="middle" x="638" y="-119" font-family="Helvetica,sans-Serif" font-size="10.00">dirent.h</text>
</g>
<!-- Node11&#45;&gt;Node15 -->
<g id="edge16" class="edge"><title>Node11&#45;&gt;Node15</title>
<path fill="none" stroke="midnightblue" d="M525.18,-168.906C550.113,-158.761 584.373,-144.821 608.58,-134.971"/>
<polygon fill="midnightblue" stroke="midnightblue" points="610.019,-138.164 617.962,-131.153 607.38,-131.68 610.019,-138.164"/>
</g>
<!-- Node16 -->
<g id="node16" class="node"><title>Node16</title>
<g id="a_node16"><a xlink:href="device__config_8h_source.html" target="_top" xlink:title="iface/device_config.h">
<polygon fill="none" stroke="black" points="179.303,-113 179.303,-131 288.697,-131 288.697,-113 179.303,-113"/>
<text text-anchor="middle" x="234" y="-119" font-family="Helvetica,sans-Serif" font-size="10.00">iface/device_config.h</text>
</a>
</g>
</g>
<!-- Node11&#45;&gt;Node16 -->
<g id="edge17" class="edge"><title>Node11&#45;&gt;Node16</title>
<path fill="none" stroke="midnightblue" d="M440.275,-169.989C392.836,-159.183 323.883,-143.475 278.987,-133.248"/>
<polygon fill="midnightblue" stroke="midnightblue" points="279.761,-129.835 269.234,-131.026 278.207,-136.66 279.761,-129.835"/>
</g>
<!-- Node16&#45;&gt;Node7 -->
<g id="edge18" class="edge"><title>Node16&#45;&gt;Node7</title>
<path fill="none" stroke="midnightblue" d="M272.049,-112.974C320.032,-102.853 402.116,-85.5381 450.688,-75.2924"/>
<polygon fill="midnightblue" stroke="midnightblue" points="451.458,-78.7071 460.52,-73.2185 450.013,-71.8579 451.458,-78.7071"/>
</g>
<!-- Node16&#45;&gt;Node12 -->
<g id="edge19" class="edge"><title>Node16&#45;&gt;Node12</title>
<path fill="none" stroke="midnightblue" d="M222.049,-112.99C211.366,-105.042 196.434,-91.7842 190,-76 183.779,-60.7395 188.314,-42.1455 193.495,-28.7604"/>
<polygon fill="midnightblue" stroke="midnightblue" points="196.828,-29.8727 197.595,-19.3057 190.405,-27.0875 196.828,-29.8727"/>
</g>
<!-- Node17 -->
<g id="node17" class="node"><title>Node17</title>
<g id="a_node17"><a xlink:href="types_8h_source.html" target="_top" xlink:title="mcu/types.h">
<polygon fill="none" stroke="red" points="199.044,-57 199.044,-75 268.956,-75 268.956,-57 199.044,-57"/>
<text text-anchor="middle" x="234" y="-63" font-family="Helvetica,sans-Serif" font-size="10.00">mcu/types.h</text>
</a>
</g>
</g>
<!-- Node16&#45;&gt;Node17 -->
<g id="edge20" class="edge"><title>Node16&#45;&gt;Node17</title>
<path fill="none" stroke="midnightblue" d="M234,-112.562C234,-105.308 234,-94.5884 234,-85.3691"/>
<polygon fill="midnightblue" stroke="midnightblue" points="237.5,-85.2014 234,-75.2014 230.5,-85.2015 237.5,-85.2014"/>
</g>
<!-- Node18 -->
<g id="node18" class="node"><title>Node18</title>
<g id="a_node18"><a xlink:href="pio_8h.html" target="_top" xlink:title="General Purpose Input/Output Header File. ">
<polygon fill="none" stroke="red" points="286.756,-57 286.756,-75 367.244,-75 367.244,-57 286.756,-57"/>
<text text-anchor="middle" x="327" y="-63" font-family="Helvetica,sans-Serif" font-size="10.00">iface/dev/pio.h</text>
</a>
</g>
</g>
<!-- Node16&#45;&gt;Node18 -->
<g id="edge23" class="edge"><title>Node16&#45;&gt;Node18</title>
<path fill="none" stroke="midnightblue" d="M248.125,-112.799C262.959,-104.185 286.52,-90.5043 304.034,-80.3354"/>
<polygon fill="midnightblue" stroke="midnightblue" points="306.157,-83.1499 313.047,-75.1017 302.642,-77.0963 306.157,-83.1499"/>
</g>
<!-- Node17&#45;&gt;Node5 -->
<g id="edge21" class="edge"><title>Node17&#45;&gt;Node5</title>
<path fill="none" stroke="midnightblue" d="M258.103,-56.9157C285.57,-47.7032 330.641,-32.5863 361.511,-22.2322"/>
<polygon fill="midnightblue" stroke="midnightblue" points="362.627,-25.5496 370.995,-19.0513 360.401,-18.913 362.627,-25.5496"/>
</g>
<!-- Node17&#45;&gt;Node12 -->
<g id="edge22" class="edge"><title>Node17&#45;&gt;Node12</title>
<path fill="none" stroke="midnightblue" d="M229,-56.5625C224.465,-48.9094 217.644,-37.3999 211.993,-27.8638"/>
<polygon fill="midnightblue" stroke="midnightblue" points="214.969,-26.02 206.86,-19.2014 208.947,-29.5887 214.969,-26.02"/>
</g>
<!-- Node18&#45;&gt;Node5 -->
<g id="edge25" class="edge"><title>Node18&#45;&gt;Node5</title>
<path fill="none" stroke="midnightblue" d="M337.328,-56.7986C347.712,-48.552 363.946,-35.6608 376.547,-25.6535"/>
<polygon fill="midnightblue" stroke="midnightblue" points="378.921,-28.2384 384.575,-19.2786 374.567,-22.7566 378.921,-28.2384"/>
</g>
<!-- Node18&#45;&gt;Node12 -->
<g id="edge24" class="edge"><title>Node18&#45;&gt;Node12</title>
<path fill="none" stroke="midnightblue" d="M308.286,-56.9157C287.575,-47.9683 253.971,-33.4516 230.097,-23.1378"/>
<polygon fill="midnightblue" stroke="midnightblue" points="231.41,-19.8924 220.842,-19.1396 228.634,-26.3184 231.41,-19.8924"/>
</g>
<!-- Node19&#45;&gt;Node5 -->
<g id="edge27" class="edge"><title>Node19&#45;&gt;Node5</title>
<path fill="none" stroke="midnightblue" d="M726.01,-235.265C746.735,-228.957 770.459,-217.728 783,-198 790.153,-186.748 789.532,-179.624 783,-168 710.939,-39.7753 510.268,-16.1675 429.414,-11.9025"/>
<polygon fill="midnightblue" stroke="midnightblue" points="429.42,-8.39923 419.27,-11.4373 429.099,-15.3919 429.42,-8.39923"/>
</g>
<!-- Node19&#45;&gt;Node7 -->
<g id="edge29" class="edge"><title>Node19&#45;&gt;Node7</title>
<path fill="none" stroke="midnightblue" d="M688.854,-234.675C693.405,-211.865 702.579,-147.693 671,-112 652.51,-91.1013 576.874,-77.9456 529.422,-71.5797"/>
<polygon fill="midnightblue" stroke="midnightblue" points="529.832,-68.1038 519.465,-70.2877 528.931,-75.0456 529.832,-68.1038"/>
</g>
<!-- Node19&#45;&gt;Node11 -->
<g id="edge32" class="edge"><title>Node19&#45;&gt;Node11</title>
<path fill="none" stroke="midnightblue" d="M660.432,-234.92C630.996,-225.968 582.787,-211.306 545.64,-200.009"/>
<polygon fill="midnightblue" stroke="midnightblue" points="546.553,-196.629 535.967,-197.067 544.516,-203.326 546.553,-196.629"/>
</g>
<!-- Node19&#45;&gt;Node15 -->
<g id="edge30" class="edge"><title>Node19&#45;&gt;Node15</title>
<path fill="none" stroke="midnightblue" d="M683.632,-234.752C675.764,-215.484 656.032,-167.161 645.273,-140.812"/>
<polygon fill="midnightblue" stroke="midnightblue" points="648.412,-139.241 641.392,-131.306 641.932,-141.887 648.412,-139.241"/>
</g>
<!-- Node20 -->
<g id="node20" class="node"><title>Node20</title>
<polygon fill="none" stroke="#bfbfbf" points="715.049,-174 715.049,-192 774.951,-192 774.951,-174 715.049,-174"/>
<text text-anchor="middle" x="745" y="-180" font-family="Helvetica,sans-Serif" font-size="10.00">sys/lock.h</text>
</g>
<!-- Node19&#45;&gt;Node20 -->
<g id="edge28" class="edge"><title>Node19&#45;&gt;Node20</title>
<path fill="none" stroke="midnightblue" d="M695.065,-234.796C704.068,-225.638 718.836,-210.615 729.982,-199.277"/>
<polygon fill="midnightblue" stroke="midnightblue" points="732.489,-201.719 737.004,-192.134 727.497,-196.812 732.489,-201.719"/>
</g>
<!-- Node21 -->
<g id="node21" class="node"><title>Node21</title>
<polygon fill="none" stroke="#bfbfbf" points="830.549,-174 830.549,-192 895.451,-192 895.451,-174 830.549,-174"/>
<text text-anchor="middle" x="863" y="-180" font-family="Helvetica,sans-Serif" font-size="10.00">mcu/mcu.h</text>
</g>
<!-- Node19&#45;&gt;Node21 -->
<g id="edge31" class="edge"><title>Node19&#45;&gt;Node21</title>
<path fill="none" stroke="midnightblue" d="M711.103,-234.92C741.693,-224.665 794.632,-206.919 829.235,-195.319"/>
<polygon fill="midnightblue" stroke="midnightblue" points="830.537,-198.574 838.906,-192.077 828.312,-191.937 830.537,-198.574"/>
</g>
</g>
</svg>
