<?xml version="1.0" encoding="UTF-8" standalone="no"?>
<!DOCTYPE svg PUBLIC "-//W3C//DTD SVG 1.1//EN"
 "http://www.w3.org/Graphics/SVG/1.1/DTD/svg11.dtd">
<!-- Generated by graphviz version 2.36.0 (20140111.2315)
 -->
<!-- Title: include/iface/dev/rtc.h Pages: 1 -->
<svg width="571pt" height="196pt"
 viewBox="0.00 0.00 571.00 196.00" xmlns="http://www.w3.org/2000/svg" xmlns:xlink="http://www.w3.org/1999/xlink">
<g id="graph0" class="graph" transform="scale(1 1) rotate(0) translate(4 192)">
<title>include/iface/dev/rtc.h</title>
<!-- Node1 -->
<g id="node1" class="node"><title>Node1</title>
<polygon fill="#bfbfbf" stroke="black" points="246.641,-169 246.641,-187 359.359,-187 359.359,-169 246.641,-169"/>
<text text-anchor="middle" x="303" y="-175" font-family="Helvetica,sans-Serif" font-size="10.00">include/iface/dev/rtc.h</text>
</g>
<!-- Node2 -->
<g id="node2" class="node"><title>Node2</title>
<g id="a_node2"><a xlink:href="__gettimeofday_8c.html" target="_top" xlink:title="src/sys/time/_gettimeofday.c">
<polygon fill="none" stroke="black" points="-0.70752,-113 -0.70752,-131 140.708,-131 140.708,-113 -0.70752,-113"/>
<text text-anchor="middle" x="70" y="-119" font-family="Helvetica,sans-Serif" font-size="10.00">src/sys/time/_gettimeofday.c</text>
</a>
</g>
</g>
<!-- Node1&#45;&gt;Node2 -->
<g id="edge1" class="edge"><title>Node1&#45;&gt;Node2</title>
<path fill="none" stroke="midnightblue" d="M258.363,-166.655C213.635,-156.289 145.715,-140.548 104.821,-131.07"/>
<polygon fill="midnightblue" stroke="midnightblue" points="257.837,-170.126 268.369,-168.974 259.418,-163.307 257.837,-170.126"/>
</g>
<!-- Node3 -->
<g id="node3" class="node"><title>Node3</title>
<g id="a_node3"><a xlink:href="__settimeofday_8c.html" target="_top" xlink:title="src/sys/time/_settimeofday.c">
<polygon fill="none" stroke="black" points="158.573,-113 158.573,-131 299.427,-131 299.427,-113 158.573,-113"/>
<text text-anchor="middle" x="229" y="-119" font-family="Helvetica,sans-Serif" font-size="10.00">src/sys/time/_settimeofday.c</text>
</a>
</g>
</g>
<!-- Node1&#45;&gt;Node3 -->
<g id="edge2" class="edge"><title>Node1&#45;&gt;Node3</title>
<path fill="none" stroke="midnightblue" d="M283.441,-162.727C269.699,-152.699 251.794,-139.634 240.345,-131.279"/>
<polygon fill="midnightblue" stroke="midnightblue" points="281.62,-165.731 291.761,-168.799 285.746,-160.077 281.62,-165.731"/>
</g>
<!-- Node4 -->
<g id="node4" class="node"><title>Node4</title>
<g id="a_node4"><a xlink:href="hibernate_8c.html" target="_top" xlink:title="src/sys/time/hibernate.c">
<polygon fill="none" stroke="black" points="317.483,-113 317.483,-131 438.517,-131 438.517,-113 317.483,-113"/>
<text text-anchor="middle" x="378" y="-119" font-family="Helvetica,sans-Serif" font-size="10.00">src/sys/time/hibernate.c</text>
</a>
</g>
</g>
<!-- Node1&#45;&gt;Node4 -->
<g id="edge3" class="edge"><title>Node1&#45;&gt;Node4</title>
<path fill="none" stroke="midnightblue" d="M322.823,-162.727C336.751,-152.699 354.898,-139.634 366.502,-131.279"/>
<polygon fill="midnightblue" stroke="midnightblue" points="320.461,-160.115 314.391,-168.799 324.551,-165.796 320.461,-160.115"/>
</g>
<!-- Node5 -->
<g id="node5" class="node"><title>Node5</title>
<g id="a_node5"><a xlink:href="iface_2link_8h.html" target="_top" xlink:title="Link Layer Header. ">
<polygon fill="none" stroke="black" points="456.143,-113 456.143,-131 553.857,-131 553.857,-113 456.143,-113"/>
<text text-anchor="middle" x="505" y="-119" font-family="Helvetica,sans-Serif" font-size="10.00">include/iface/link.h</text>
</a>
</g>
</g>
<!-- Node1&#45;&gt;Node5 -->
<g id="edge4" class="edge"><title>Node1&#45;&gt;Node5</title>
<path fill="none" stroke="midnightblue" d="M343.158,-166.265C381.966,-155.89 439.878,-140.409 474.882,-131.051"/>
<polygon fill="midnightblue" stroke="midnightblue" points="341.998,-162.952 333.241,-168.916 343.806,-169.714 341.998,-162.952"/>
</g>
<!-- Node6 -->
<g id="node6" class="node"><title>Node6</title>
<g id="a_node6"><a xlink:href="__exit_8c.html" target="_top" xlink:title="src/sys/unistd/_exit.c">
<polygon fill="none" stroke="black" points="320.875,-57 320.875,-75 429.125,-75 429.125,-57 320.875,-57"/>
<text text-anchor="middle" x="375" y="-63" font-family="Helvetica,sans-Serif" font-size="10.00">src/sys/unistd/_exit.c</text>
</a>
</g>
</g>
<!-- Node5&#45;&gt;Node6 -->
<g id="edge5" class="edge"><title>Node5&#45;&gt;Node6</title>
<path fill="none" stroke="midnightblue" d="M476.262,-109.063C451.456,-98.7585 416.286,-84.1497 394.595,-75.1396"/>
<polygon fill="midnightblue" stroke="midnightblue" points="474.96,-112.312 485.538,-112.916 477.645,-105.847 474.96,-112.312"/>
</g>
<!-- Node7 -->
<g id="node7" class="node"><title>Node7</title>
<g id="a_node7"><a xlink:href="sys_8h.html" target="_top" xlink:title="include/iface/dev/sys.h">
<polygon fill="none" stroke="black" points="446.695,-57 446.695,-75 563.305,-75 563.305,-57 446.695,-57"/>
<text text-anchor="middle" x="505" y="-63" font-family="Helvetica,sans-Serif" font-size="10.00">include/iface/dev/sys.h</text>
</a>
</g>
</g>
<!-- Node5&#45;&gt;Node7 -->
<g id="edge6" class="edge"><title>Node5&#45;&gt;Node7</title>
<path fill="none" stroke="midnightblue" d="M498.567,-102.633C497.861,-93.3129 498.335,-82.4586 499.991,-75.2014"/>
<polygon fill="midnightblue" stroke="midnightblue" points="495.103,-103.135 499.938,-112.562 502.037,-102.178 495.103,-103.135"/>
</g>
<!-- Node7&#45;&gt;Node5 -->
<g id="edge8" class="edge"><title>Node7&#45;&gt;Node5</title>
<path fill="none" stroke="midnightblue" d="M511.434,-85.3691C512.132,-94.5884 511.675,-105.308 510.062,-112.562"/>
<polygon fill="midnightblue" stroke="midnightblue" points="514.863,-84.6192 510.009,-75.2014 507.931,-85.5903 514.863,-84.6192"/>
</g>
<!-- Node8 -->
<g id="node8" class="node"><title>Node8</title>
<g id="a_node8"><a xlink:href="__open_8c.html" target="_top" xlink:title="src/sys/unistd/_open.c">
<polygon fill="none" stroke="black" points="447.532,-1 447.532,-19 562.468,-19 562.468,-1 447.532,-1"/>
<text text-anchor="middle" x="505" y="-7" font-family="Helvetica,sans-Serif" font-size="10.00">src/sys/unistd/_open.c</text>
</a>
</g>
</g>
<!-- Node7&#45;&gt;Node8 -->
<g id="edge7" class="edge"><title>Node7&#45;&gt;Node8</title>
<path fill="none" stroke="midnightblue" d="M505,-46.3288C505,-37.0774 505,-26.3798 505,-19.2014"/>
<polygon fill="midnightblue" stroke="midnightblue" points="501.5,-46.5625 505,-56.5625 508.5,-46.5625 501.5,-46.5625"/>
</g>
</g>
</svg>
