<?xml version="1.0" encoding="UTF-8" standalone="no"?>
<!DOCTYPE svg PUBLIC "-//W3C//DTD SVG 1.1//EN"
 "http://www.w3.org/Graphics/SVG/1.1/DTD/svg11.dtd">
<!-- Generated by graphviz version 2.36.0 (20140111.2315)
 -->
<!-- Title: src/sys/sched/sched_posix.c Pages: 1 -->
<svg width="420pt" height="150pt"
 viewBox="0.00 0.00 420.00 150.00" xmlns="http://www.w3.org/2000/svg" xmlns:xlink="http://www.w3.org/1999/xlink">
<g id="graph0" class="graph" transform="scale(1 1) rotate(0) translate(4 146)">
<title>src/sys/sched/sched_posix.c</title>
<!-- Node1 -->
<g id="node1" class="node"><title>Node1</title>
<polygon fill="#bfbfbf" stroke="black" points="157.983,-113 157.983,-141 264.017,-141 264.017,-113 157.983,-113"/>
<text text-anchor="start" x="165.983" y="-129" font-family="Helvetica,sans-Serif" font-size="10.00">src/sys/sched/sched</text>
<text text-anchor="middle" x="211" y="-119" font-family="Helvetica,sans-Serif" font-size="10.00">_posix.c</text>
</g>
<!-- Node2 -->
<g id="node2" class="node"><title>Node2</title>
<g id="a_node2"><a xlink:href="config_8h.html" target="_top" xlink:title="config.h">
<polygon fill="none" stroke="black" points="49.4878,-57 49.4878,-75 100.512,-75 100.512,-57 49.4878,-57"/>
<text text-anchor="middle" x="75" y="-63" font-family="Helvetica,sans-Serif" font-size="10.00">config.h</text>
</a>
</g>
</g>
<!-- Node1&#45;&gt;Node2 -->
<g id="edge1" class="edge"><title>Node1&#45;&gt;Node2</title>
<path fill="none" stroke="midnightblue" d="M180.817,-112.906C157.64,-102.851 125.869,-89.0681 103.202,-79.2346"/>
<polygon fill="midnightblue" stroke="midnightblue" points="104.361,-75.9224 93.7942,-75.1534 101.575,-82.3441 104.361,-75.9224"/>
</g>
<!-- Node5 -->
<g id="node5" class="node"><title>Node5</title>
<polygon fill="none" stroke="#bfbfbf" points="118.488,-57 118.488,-75 169.512,-75 169.512,-57 118.488,-57"/>
<text text-anchor="middle" x="144" y="-63" font-family="Helvetica,sans-Serif" font-size="10.00">sched.h</text>
</g>
<!-- Node1&#45;&gt;Node5 -->
<g id="edge4" class="edge"><title>Node1&#45;&gt;Node5</title>
<path fill="none" stroke="midnightblue" d="M196.131,-112.906C185.685,-103.708 171.697,-91.3898 160.84,-81.8294"/>
<polygon fill="midnightblue" stroke="midnightblue" points="163.077,-79.1355 153.259,-75.1534 158.451,-84.3889 163.077,-79.1355"/>
</g>
<!-- Node6 -->
<g id="node6" class="node"><title>Node6</title>
<polygon fill="none" stroke="#bfbfbf" points="187.158,-57 187.158,-75 234.842,-75 234.842,-57 187.158,-57"/>
<text text-anchor="middle" x="211" y="-63" font-family="Helvetica,sans-Serif" font-size="10.00">errno.h</text>
</g>
<!-- Node1&#45;&gt;Node6 -->
<g id="edge5" class="edge"><title>Node1&#45;&gt;Node6</title>
<path fill="none" stroke="midnightblue" d="M211,-112.906C211,-104.79 211,-94.245 211,-85.3086"/>
<polygon fill="midnightblue" stroke="midnightblue" points="214.5,-85.1533 211,-75.1534 207.5,-85.1534 214.5,-85.1533"/>
</g>
<!-- Node7 -->
<g id="node7" class="node"><title>Node7</title>
<polygon fill="none" stroke="#bfbfbf" points="252.549,-57 252.549,-75 317.451,-75 317.451,-57 252.549,-57"/>
<text text-anchor="middle" x="285" y="-63" font-family="Helvetica,sans-Serif" font-size="10.00">mcu/mcu.h</text>
</g>
<!-- Node1&#45;&gt;Node7 -->
<g id="edge6" class="edge"><title>Node1&#45;&gt;Node7</title>
<path fill="none" stroke="midnightblue" d="M227.423,-112.906C239.073,-103.618 254.713,-91.1479 266.752,-81.549"/>
<polygon fill="midnightblue" stroke="midnightblue" points="269.137,-84.1241 274.774,-75.1534 264.773,-78.6508 269.137,-84.1241"/>
</g>
<!-- Node8 -->
<g id="node8" class="node"><title>Node8</title>
<polygon fill="none" stroke="#bfbfbf" points="335.146,-57 335.146,-75 412.854,-75 412.854,-57 335.146,-57"/>
<text text-anchor="middle" x="374" y="-63" font-family="Helvetica,sans-Serif" font-size="10.00">sched_flags.h</text>
</g>
<!-- Node1&#45;&gt;Node8 -->
<g id="edge7" class="edge"><title>Node1&#45;&gt;Node8</title>
<path fill="none" stroke="midnightblue" d="M247.175,-112.906C275.576,-102.626 314.745,-88.4482 342.01,-78.5792"/>
<polygon fill="midnightblue" stroke="midnightblue" points="343.263,-81.848 351.475,-75.1534 340.88,-75.2659 343.263,-81.848"/>
</g>
<!-- Node3 -->
<g id="node3" class="node"><title>Node3</title>
<polygon fill="none" stroke="#bfbfbf" points="-0.908691,-1 -0.908691,-19 72.9087,-19 72.9087,-1 -0.908691,-1"/>
<text text-anchor="middle" x="36" y="-7" font-family="Helvetica,sans-Serif" font-size="10.00">mcu/debug.h</text>
</g>
<!-- Node2&#45;&gt;Node3 -->
<g id="edge2" class="edge"><title>Node2&#45;&gt;Node3</title>
<path fill="none" stroke="midnightblue" d="M68.9062,-56.5625C63.3215,-48.8297 54.8931,-37.1597 47.9647,-27.5665"/>
<polygon fill="midnightblue" stroke="midnightblue" points="50.6156,-25.259 41.9233,-19.2014 44.9408,-29.3575 50.6156,-25.259"/>
</g>
<!-- Node4 -->
<g id="node4" class="node"><title>Node4</title>
<polygon fill="none" stroke="#bfbfbf" points="90.8794,-1 90.8794,-19 139.121,-19 139.121,-1 90.8794,-1"/>
<text text-anchor="middle" x="115" y="-7" font-family="Helvetica,sans-Serif" font-size="10.00">stdint.h</text>
</g>
<!-- Node2&#45;&gt;Node4 -->
<g id="edge3" class="edge"><title>Node2&#45;&gt;Node4</title>
<path fill="none" stroke="midnightblue" d="M81.25,-56.5625C87.037,-48.75 95.801,-36.9187 102.948,-27.2704"/>
<polygon fill="midnightblue" stroke="midnightblue" points="105.785,-29.3203 108.925,-19.2014 100.16,-25.1537 105.785,-29.3203"/>
</g>
</g>
</svg>
