<?xml version="1.0" encoding="UTF-8" standalone="no"?>
<!DOCTYPE svg PUBLIC "-//W3C//DTD SVG 1.1//EN"
 "http://www.w3.org/Graphics/SVG/1.1/DTD/svg11.dtd">
<!-- Generated by graphviz version 2.36.0 (20140111.2315)
 -->
<!-- Title: src/sys/semaphore/sem.c Pages: 1 -->
<svg width="612pt" height="84pt"
 viewBox="0.00 0.00 612.00 84.00" xmlns="http://www.w3.org/2000/svg" xmlns:xlink="http://www.w3.org/1999/xlink">
<g id="graph0" class="graph" transform="scale(1 1) rotate(0) translate(4 80)">
<title>src/sys/semaphore/sem.c</title>
<!-- Node1 -->
<g id="node1" class="node"><title>Node1</title>
<polygon fill="#bfbfbf" stroke="black" points="187.318,-57 187.318,-75 316.682,-75 316.682,-57 187.318,-57"/>
<text text-anchor="middle" x="252" y="-63" font-family="Helvetica,sans-Serif" font-size="10.00">src/sys/semaphore/sem.c</text>
</g>
<!-- Node2 -->
<g id="node2" class="node"><title>Node2</title>
<polygon fill="none" stroke="#bfbfbf" points="-0.842285,-1 -0.842285,-19 46.8423,-19 46.8423,-1 -0.842285,-1"/>
<text text-anchor="middle" x="23" y="-7" font-family="Helvetica,sans-Serif" font-size="10.00">errno.h</text>
</g>
<!-- Node1&#45;&gt;Node2 -->
<g id="edge1" class="edge"><title>Node1&#45;&gt;Node2</title>
<path fill="none" stroke="midnightblue" d="M215.047,-56.9847C177.569,-48.7518 117.669,-35.31 56.8813,-20.1474"/>
<polygon fill="midnightblue" stroke="midnightblue" points="57.6719,-16.7374 47.1209,-17.6997 55.9691,-23.5272 57.6719,-16.7374"/>
</g>
<!-- Node3 -->
<g id="node3" class="node"><title>Node3</title>
<polygon fill="none" stroke="#bfbfbf" points="64.6602,-1 64.6602,-19 107.34,-19 107.34,-1 64.6602,-1"/>
<text text-anchor="middle" x="86" y="-7" font-family="Helvetica,sans-Serif" font-size="10.00">fcntl.h</text>
</g>
<!-- Node1&#45;&gt;Node3 -->
<g id="edge2" class="edge"><title>Node1&#45;&gt;Node3</title>
<path fill="none" stroke="midnightblue" d="M227.148,-56.9157C197.849,-47.3846 149.122,-31.5337 117.28,-21.1755"/>
<polygon fill="midnightblue" stroke="midnightblue" points="118.173,-17.7856 107.581,-18.0204 116.008,-24.4422 118.173,-17.7856"/>
</g>
<!-- Node4 -->
<g id="node4" class="node"><title>Node4</title>
<polygon fill="none" stroke="#bfbfbf" points="125.488,-1 125.488,-19 176.512,-19 176.512,-1 125.488,-1"/>
<text text-anchor="middle" x="151" y="-7" font-family="Helvetica,sans-Serif" font-size="10.00">unistd.h</text>
</g>
<!-- Node1&#45;&gt;Node4 -->
<g id="edge3" class="edge"><title>Node1&#45;&gt;Node4</title>
<path fill="none" stroke="midnightblue" d="M236.66,-56.7986C220.326,-48.0654 194.249,-34.1234 175.153,-23.9137"/>
<polygon fill="midnightblue" stroke="midnightblue" points="176.622,-20.7301 166.153,-19.1017 173.322,-26.9032 176.622,-20.7301"/>
</g>
<!-- Node5 -->
<g id="node5" class="node"><title>Node5</title>
<polygon fill="none" stroke="#bfbfbf" points="194.604,-1 194.604,-19 243.396,-19 243.396,-1 194.604,-1"/>
<text text-anchor="middle" x="219" y="-7" font-family="Helvetica,sans-Serif" font-size="10.00">string.h</text>
</g>
<!-- Node1&#45;&gt;Node5 -->
<g id="edge4" class="edge"><title>Node1&#45;&gt;Node5</title>
<path fill="none" stroke="midnightblue" d="M246.844,-56.5625C242.167,-48.9094 235.133,-37.3999 229.306,-27.8638"/>
<polygon fill="midnightblue" stroke="midnightblue" points="232.213,-25.9092 224.012,-19.2014 226.24,-29.5594 232.213,-25.9092"/>
</g>
<!-- Node6 -->
<g id="node6" class="node"><title>Node6</title>
<polygon fill="none" stroke="#bfbfbf" points="261.158,-1 261.158,-19 308.842,-19 308.842,-1 261.158,-1"/>
<text text-anchor="middle" x="285" y="-7" font-family="Helvetica,sans-Serif" font-size="10.00">stdlib.h</text>
</g>
<!-- Node1&#45;&gt;Node6 -->
<g id="edge5" class="edge"><title>Node1&#45;&gt;Node6</title>
<path fill="none" stroke="midnightblue" d="M257.156,-56.5625C261.833,-48.9094 268.867,-37.3999 274.694,-27.8638"/>
<polygon fill="midnightblue" stroke="midnightblue" points="277.76,-29.5594 279.988,-19.2014 271.787,-25.9092 277.76,-29.5594"/>
</g>
<!-- Node7 -->
<g id="node7" class="node"><title>Node7</title>
<polygon fill="none" stroke="#bfbfbf" points="326.934,-1 326.934,-19 379.066,-19 379.066,-1 326.934,-1"/>
<text text-anchor="middle" x="353" y="-7" font-family="Helvetica,sans-Serif" font-size="10.00">stdarg.h</text>
</g>
<!-- Node1&#45;&gt;Node7 -->
<g id="edge6" class="edge"><title>Node1&#45;&gt;Node7</title>
<path fill="none" stroke="midnightblue" d="M267.34,-56.7986C283.674,-48.0654 309.751,-34.1234 328.847,-23.9137"/>
<polygon fill="midnightblue" stroke="midnightblue" points="330.678,-26.9032 337.847,-19.1017 327.378,-20.7301 330.678,-26.9032"/>
</g>
<!-- Node8 -->
<g id="node8" class="node"><title>Node8</title>
<polygon fill="none" stroke="#bfbfbf" points="397.247,-1 397.247,-19 512.753,-19 512.753,-1 397.247,-1"/>
<text text-anchor="middle" x="455" y="-7" font-family="Helvetica,sans-Serif" font-size="10.00">../sched/sched_flags.h</text>
</g>
<!-- Node1&#45;&gt;Node8 -->
<g id="edge7" class="edge"><title>Node1&#45;&gt;Node8</title>
<path fill="none" stroke="midnightblue" d="M282.391,-56.9157C317.623,-47.5436 375.826,-32.061 414.781,-21.6986"/>
<polygon fill="midnightblue" stroke="midnightblue" points="415.969,-25.0044 424.733,-19.0513 414.169,-18.2397 415.969,-25.0044"/>
</g>
<!-- Node9 -->
<g id="node9" class="node"><title>Node9</title>
<polygon fill="none" stroke="#bfbfbf" points="531.091,-1 531.091,-19 604.909,-19 604.909,-1 531.091,-1"/>
<text text-anchor="middle" x="568" y="-7" font-family="Helvetica,sans-Serif" font-size="10.00">mcu/debug.h</text>
</g>
<!-- Node1&#45;&gt;Node9 -->
<g id="edge8" class="edge"><title>Node1&#45;&gt;Node9</title>
<path fill="none" stroke="midnightblue" d="M302.134,-56.9736C356.207,-48.2326 444.798,-33.6677 521,-20 521.102,-19.9817 521.205,-19.9633 521.307,-19.9449"/>
<polygon fill="midnightblue" stroke="midnightblue" points="521.864,-23.4012 531.07,-18.1565 520.603,-16.5157 521.864,-23.4012"/>
</g>
</g>
</svg>
