<?xml version="1.0" encoding="UTF-8" standalone="no"?>
<!DOCTYPE svg PUBLIC "-//W3C//DTD SVG 1.1//EN"
 "http://www.w3.org/Graphics/SVG/1.1/DTD/svg11.dtd">
<!-- Generated by graphviz version 2.36.0 (20140111.2315)
 -->
<!-- Title: src/sys/signal/sig_realtime.c Pages: 1 -->
<svg width="487pt" height="94pt"
 viewBox="0.00 0.00 487.00 94.00" xmlns="http://www.w3.org/2000/svg" xmlns:xlink="http://www.w3.org/1999/xlink">
<g id="graph0" class="graph" transform="scale(1 1) rotate(0) translate(4 90)">
<title>src/sys/signal/sig_realtime.c</title>
<!-- Node1 -->
<g id="node1" class="node"><title>Node1</title>
<polygon fill="#bfbfbf" stroke="black" points="148.212,-57 148.212,-85 239.788,-85 239.788,-57 148.212,-57"/>
<text text-anchor="start" x="156.212" y="-73" font-family="Helvetica,sans-Serif" font-size="10.00">src/sys/signal/sig</text>
<text text-anchor="middle" x="194" y="-63" font-family="Helvetica,sans-Serif" font-size="10.00">_realtime.c</text>
</g>
<!-- Node2 -->
<g id="node2" class="node"><title>Node2</title>
<polygon fill="none" stroke="#bfbfbf" points="-0.842285,-1 -0.842285,-19 46.8423,-19 46.8423,-1 -0.842285,-1"/>
<text text-anchor="middle" x="23" y="-7" font-family="Helvetica,sans-Serif" font-size="10.00">errno.h</text>
</g>
<!-- Node1&#45;&gt;Node2 -->
<g id="edge1" class="edge"><title>Node1&#45;&gt;Node2</title>
<path fill="none" stroke="midnightblue" d="M156.05,-56.906C126.124,-46.5807 84.8027,-32.3238 56.1843,-22.4496"/>
<polygon fill="midnightblue" stroke="midnightblue" points="57.2256,-19.1064 46.6309,-19.1534 54.9425,-25.7236 57.2256,-19.1064"/>
</g>
<!-- Node3 -->
<g id="node3" class="node"><title>Node3</title>
<polygon fill="none" stroke="#bfbfbf" points="64.7661,-1 64.7661,-19 115.234,-19 115.234,-1 64.7661,-1"/>
<text text-anchor="middle" x="90" y="-7" font-family="Helvetica,sans-Serif" font-size="10.00">signal.h</text>
</g>
<!-- Node1&#45;&gt;Node3 -->
<g id="edge2" class="edge"><title>Node1&#45;&gt;Node3</title>
<path fill="none" stroke="midnightblue" d="M170.919,-56.906C153.752,-47.1669 130.419,-33.9298 113.219,-24.172"/>
<polygon fill="midnightblue" stroke="midnightblue" points="114.797,-21.0435 104.372,-19.1534 111.343,-27.132 114.797,-21.0435"/>
</g>
<!-- Node4 -->
<g id="node4" class="node"><title>Node4</title>
<polygon fill="none" stroke="#bfbfbf" points="133.158,-1 133.158,-19 180.842,-19 180.842,-1 133.158,-1"/>
<text text-anchor="middle" x="157" y="-7" font-family="Helvetica,sans-Serif" font-size="10.00">stdlib.h</text>
</g>
<!-- Node1&#45;&gt;Node4 -->
<g id="edge3" class="edge"><title>Node1&#45;&gt;Node4</title>
<path fill="none" stroke="midnightblue" d="M185.789,-56.906C180.416,-48.3392 173.346,-37.0658 167.557,-27.8347"/>
<polygon fill="midnightblue" stroke="midnightblue" points="170.391,-25.7657 162.113,-19.1534 164.461,-29.4848 170.391,-25.7657"/>
</g>
<!-- Node5 -->
<g id="node5" class="node"><title>Node5</title>
<polygon fill="none" stroke="#bfbfbf" points="198.549,-1 198.549,-19 263.451,-19 263.451,-1 198.549,-1"/>
<text text-anchor="middle" x="231" y="-7" font-family="Helvetica,sans-Serif" font-size="10.00">mcu/mcu.h</text>
</g>
<!-- Node1&#45;&gt;Node5 -->
<g id="edge4" class="edge"><title>Node1&#45;&gt;Node5</title>
<path fill="none" stroke="midnightblue" d="M202.211,-56.906C207.584,-48.3392 214.654,-37.0658 220.443,-27.8347"/>
<polygon fill="midnightblue" stroke="midnightblue" points="223.539,-29.4848 225.887,-19.1534 217.609,-25.7657 223.539,-29.4848"/>
</g>
<!-- Node6 -->
<g id="node6" class="node"><title>Node6</title>
<polygon fill="none" stroke="#bfbfbf" points="281.825,-1 281.825,-19 346.175,-19 346.175,-1 281.825,-1"/>
<text text-anchor="middle" x="314" y="-7" font-family="Helvetica,sans-Serif" font-size="10.00">mcu/task.h</text>
</g>
<!-- Node1&#45;&gt;Node6 -->
<g id="edge5" class="edge"><title>Node1&#45;&gt;Node6</title>
<path fill="none" stroke="midnightblue" d="M220.632,-56.906C240.807,-46.9865 268.363,-33.4383 288.305,-23.6336"/>
<polygon fill="midnightblue" stroke="midnightblue" points="289.987,-26.7065 297.417,-19.1534 286.899,-20.4247 289.987,-26.7065"/>
</g>
<!-- Node7 -->
<g id="node7" class="node"><title>Node7</title>
<polygon fill="none" stroke="#bfbfbf" points="364.247,-1 364.247,-19 479.753,-19 479.753,-1 364.247,-1"/>
<text text-anchor="middle" x="422" y="-7" font-family="Helvetica,sans-Serif" font-size="10.00">../sched/sched_flags.h</text>
</g>
<!-- Node1&#45;&gt;Node7 -->
<g id="edge6" class="edge"><title>Node1&#45;&gt;Node7</title>
<path fill="none" stroke="midnightblue" d="M239.865,-58.1314C281.136,-47.4517 341.225,-31.9024 380.944,-21.624"/>
<polygon fill="midnightblue" stroke="midnightblue" points="382.024,-24.96 390.828,-19.0664 380.27,-18.1833 382.024,-24.96"/>
</g>
</g>
</svg>
