<?xml version="1.0" encoding="UTF-8" standalone="no"?>
<!DOCTYPE svg PUBLIC "-//W3C//DTD SVG 1.1//EN"
 "http://www.w3.org/Graphics/SVG/1.1/DTD/svg11.dtd">
<!-- Generated by graphviz version 2.36.0 (20140111.2315)
 -->
<!-- Title: src/sys/signal/signal_handler.c Pages: 1 -->
<svg width="348pt" height="94pt"
 viewBox="0.00 0.00 348.00 94.00" xmlns="http://www.w3.org/2000/svg" xmlns:xlink="http://www.w3.org/1999/xlink">
<g id="graph0" class="graph" transform="scale(1 1) rotate(0) translate(4 90)">
<title>src/sys/signal/signal_handler.c</title>
<!-- Node1 -->
<g id="node1" class="node"><title>Node1</title>
<polygon fill="#bfbfbf" stroke="black" points="95.5396,-57 95.5396,-85 200.46,-85 200.46,-57 95.5396,-57"/>
<text text-anchor="start" x="103.54" y="-73" font-family="Helvetica,sans-Serif" font-size="10.00">src/sys/signal/signal</text>
<text text-anchor="middle" x="148" y="-63" font-family="Helvetica,sans-Serif" font-size="10.00">_handler.c</text>
</g>
<!-- Node2 -->
<g id="node2" class="node"><title>Node2</title>
<polygon fill="none" stroke="#bfbfbf" points="-0.908691,-1 -0.908691,-19 72.9087,-19 72.9087,-1 -0.908691,-1"/>
<text text-anchor="middle" x="36" y="-7" font-family="Helvetica,sans-Serif" font-size="10.00">mcu/debug.h</text>
</g>
<!-- Node1&#45;&gt;Node2 -->
<g id="edge1" class="edge"><title>Node1&#45;&gt;Node2</title>
<path fill="none" stroke="midnightblue" d="M123.144,-56.906C104.485,-47.0767 79.0618,-33.6843 60.4917,-23.9019"/>
<polygon fill="midnightblue" stroke="midnightblue" points="61.9563,-20.7175 51.4776,-19.1534 58.6938,-26.9107 61.9563,-20.7175"/>
</g>
<!-- Node3 -->
<g id="node3" class="node"><title>Node3</title>
<polygon fill="none" stroke="#bfbfbf" points="91.1577,-1 91.1577,-19 138.842,-19 138.842,-1 91.1577,-1"/>
<text text-anchor="middle" x="115" y="-7" font-family="Helvetica,sans-Serif" font-size="10.00">stdlib.h</text>
</g>
<!-- Node1&#45;&gt;Node3 -->
<g id="edge2" class="edge"><title>Node1&#45;&gt;Node3</title>
<path fill="none" stroke="midnightblue" d="M140.676,-56.906C135.935,-48.4294 129.712,-37.3028 124.579,-28.1269"/>
<polygon fill="midnightblue" stroke="midnightblue" points="127.497,-26.1724 119.56,-19.1534 121.387,-29.5895 127.497,-26.1724"/>
</g>
<!-- Node4 -->
<g id="node4" class="node"><title>Node4</title>
<polygon fill="none" stroke="#bfbfbf" points="156.766,-1 156.766,-19 207.234,-19 207.234,-1 156.766,-1"/>
<text text-anchor="middle" x="182" y="-7" font-family="Helvetica,sans-Serif" font-size="10.00">signal.h</text>
</g>
<!-- Node1&#45;&gt;Node4 -->
<g id="edge3" class="edge"><title>Node1&#45;&gt;Node4</title>
<path fill="none" stroke="midnightblue" d="M155.546,-56.906C160.483,-48.3392 166.979,-37.0658 172.299,-27.8347"/>
<polygon fill="midnightblue" stroke="midnightblue" points="175.341,-29.5652 177.301,-19.1534 169.276,-26.0701 175.341,-29.5652"/>
</g>
<!-- Node5 -->
<g id="node5" class="node"><title>Node5</title>
<polygon fill="none" stroke="#bfbfbf" points="225.247,-1 225.247,-19 340.753,-19 340.753,-1 225.247,-1"/>
<text text-anchor="middle" x="283" y="-7" font-family="Helvetica,sans-Serif" font-size="10.00">../sched/sched_flags.h</text>
</g>
<!-- Node1&#45;&gt;Node5 -->
<g id="edge4" class="edge"><title>Node1&#45;&gt;Node5</title>
<path fill="none" stroke="midnightblue" d="M177.961,-56.906C200.967,-46.8513 232.505,-33.0681 255.006,-23.2346"/>
<polygon fill="midnightblue" stroke="midnightblue" points="256.583,-26.3651 264.344,-19.1534 253.779,-19.9509 256.583,-26.3651"/>
</g>
</g>
</svg>
