<?xml version="1.0" encoding="UTF-8" standalone="no"?>
<!DOCTYPE svg PUBLIC "-//W3C//DTD SVG 1.1//EN"
 "http://www.w3.org/Graphics/SVG/1.1/DTD/svg11.dtd">
<!-- Generated by graphviz version 2.36.0 (20140111.2315)
 -->
<!-- Title: device_cfg_t Pages: 1 -->
<svg width="710pt" height="348pt"
 viewBox="0.00 0.00 710.00 348.00" xmlns="http://www.w3.org/2000/svg" xmlns:xlink="http://www.w3.org/1999/xlink">
<g id="graph0" class="graph" transform="scale(1 1) rotate(0) translate(4 344)">
<title>device_cfg_t</title>
<!-- Node1 -->
<g id="node1" class="node"><title>Node1</title>
<polygon fill="#bfbfbf" stroke="black" points="283.785,-1 283.785,-95 356.215,-95 356.215,-1 283.785,-1"/>
<text text-anchor="middle" x="320" y="-83" font-family="Helvetica,sans-Serif" font-size="10.00">device_cfg_t</text>
<polyline fill="none" stroke="black" points="283.785,-77 356.215,-77 "/>
<text text-anchor="start" x="291.785" y="-65" font-family="Helvetica,sans-Serif" font-size="10.00">+ pin_assign</text>
<text text-anchor="start" x="291.785" y="-55" font-family="Helvetica,sans-Serif" font-size="10.00">+ bitrate</text>
<text text-anchor="start" x="291.785" y="-45" font-family="Helvetica,sans-Serif" font-size="10.00">+ pcfg</text>
<text text-anchor="start" x="291.785" y="-35" font-family="Helvetica,sans-Serif" font-size="10.00">+ dcfg</text>
<text text-anchor="start" x="291.785" y="-25" font-family="Helvetica,sans-Serif" font-size="10.00">+ state</text>
<polyline fill="none" stroke="black" points="283.785,-19 356.215,-19 "/>
<text text-anchor="middle" x="320" y="-7" font-family="Helvetica,sans-Serif" font-size="10.00"> </text>
</g>
<!-- Node2 -->
<g id="node2" class="node"><title>Node2</title>
<g id="a_node2"><a xlink:href="structdevice__uart__cfg__t.html" target="_top" xlink:title="Data structure for a UART device (RX and TX lines) ">
<polygon fill="none" stroke="black" points="-0.470215,-148 -0.470215,-222 94.4702,-222 94.4702,-148 -0.470215,-148"/>
<text text-anchor="middle" x="47" y="-210" font-family="Helvetica,sans-Serif" font-size="10.00">device_uart_cfg_t</text>
<polyline fill="none" stroke="black" points="-0.470215,-204 94.4702,-204 "/>
<text text-anchor="start" x="7.52979" y="-192" font-family="Helvetica,sans-Serif" font-size="10.00">+ stop_bits</text>
<text text-anchor="start" x="7.52979" y="-182" font-family="Helvetica,sans-Serif" font-size="10.00">+ parity</text>
<text text-anchor="start" x="7.52979" y="-172" font-family="Helvetica,sans-Serif" font-size="10.00">+ width</text>
<polyline fill="none" stroke="black" points="-0.470215,-166 94.4702,-166 "/>
<text text-anchor="middle" x="47" y="-154" font-family="Helvetica,sans-Serif" font-size="10.00"> </text>
</a>
</g>
</g>
<!-- Node2&#45;&gt;Node1 -->
<g id="edge1" class="edge"><title>Node2&#45;&gt;Node1</title>
<path fill="none" stroke="#404040" d="M94.7196,-148.464C97.8439,-146.254 100.957,-144.083 104,-142 123.176,-128.878 127.365,-124.386 148.15,-114 188.479,-93.8484 236.658,-76.1355 271.727,-64.3108"/>
<polygon fill="none" stroke="#404040" points="272.163,-64.1658 276.595,-58.477 283.55,-60.3795 279.119,-66.0683 272.163,-64.1658"/>
<text text-anchor="middle" x="161.925" y="-116" font-family="Helvetica,sans-Serif" font-size="10.00"> +uart</text>
</g>
<!-- Node3 -->
<g id="node3" class="node"><title>Node3</title>
<g id="a_node3"><a xlink:href="structdevice__periph__t.html" target="_top" xlink:title="Data structure for on&#45;chip MCU peripherals. ">
<polygon fill="none" stroke="black" points="112.697,-158 112.697,-212 199.303,-212 199.303,-158 112.697,-158"/>
<text text-anchor="middle" x="156" y="-200" font-family="Helvetica,sans-Serif" font-size="10.00">device_periph_t</text>
<polyline fill="none" stroke="black" points="112.697,-194 199.303,-194 "/>
<text text-anchor="start" x="120.697" y="-182" font-family="Helvetica,sans-Serif" font-size="10.00">+ port</text>
<polyline fill="none" stroke="black" points="112.697,-176 199.303,-176 "/>
<text text-anchor="middle" x="156" y="-164" font-family="Helvetica,sans-Serif" font-size="10.00"> </text>
</a>
</g>
</g>
<!-- Node3&#45;&gt;Node1 -->
<g id="edge2" class="edge"><title>Node3&#45;&gt;Node1</title>
<path fill="none" stroke="#404040" d="M161.752,-157.834C166.03,-143.458 173.154,-126.136 184.584,-114 208.235,-88.8899 243.598,-72.3749 272.256,-62.2768"/>
<polygon fill="none" stroke="#404040" points="272.29,-62.2655 276.713,-56.5702 283.671,-58.4626 279.248,-64.1579 272.29,-62.2655"/>
<text text-anchor="middle" x="203.208" y="-116" font-family="Helvetica,sans-Serif" font-size="10.00"> +periph</text>
</g>
<!-- Node4 -->
<g id="node4" class="node"><title>Node4</title>
<g id="a_node4"><a xlink:href="structpio__t.html" target="_top" xlink:title="IO port and pin. ">
<polygon fill="none" stroke="black" points="243.075,-275 243.075,-339 284.925,-339 284.925,-275 243.075,-275"/>
<text text-anchor="middle" x="264" y="-327" font-family="Helvetica,sans-Serif" font-size="10.00">pio_t</text>
<polyline fill="none" stroke="black" points="243.075,-321 284.925,-321 "/>
<text text-anchor="start" x="251.075" y="-309" font-family="Helvetica,sans-Serif" font-size="10.00">+ port</text>
<text text-anchor="start" x="251.075" y="-299" font-family="Helvetica,sans-Serif" font-size="10.00">+ pin</text>
<polyline fill="none" stroke="black" points="243.075,-293 284.925,-293 "/>
<text text-anchor="middle" x="264" y="-281" font-family="Helvetica,sans-Serif" font-size="10.00"> </text>
</a>
</g>
</g>
<!-- Node4&#45;&gt;Node1 -->
<g id="edge3" class="edge"><title>Node4&#45;&gt;Node1</title>
<path fill="none" stroke="#404040" d="M251.998,-274.849C240.877,-241.152 228.241,-186.308 244.037,-142 250.641,-123.475 262.693,-105.975 275.281,-91.2589"/>
<polygon fill="none" stroke="#404040" points="275.566,-90.941 276.595,-83.8036 283.579,-82.0079 282.55,-89.1453 275.566,-90.941"/>
<text text-anchor="middle" x="255.981" y="-182" font-family="Helvetica,sans-Serif" font-size="10.00"> +pio</text>
</g>
<!-- Node8 -->
<g id="node8" class="node"><title>Node8</title>
<g id="a_node8"><a xlink:href="structdevice__spi__cfg__t.html" target="_top" xlink:title="Data structure for a SPI device with a CS pin. ">
<polygon fill="none" stroke="black" points="274.754,-143 274.754,-227 365.246,-227 365.246,-143 274.754,-143"/>
<text text-anchor="middle" x="320" y="-215" font-family="Helvetica,sans-Serif" font-size="10.00">device_spi_cfg_t</text>
<polyline fill="none" stroke="black" points="274.754,-209 365.246,-209 "/>
<text text-anchor="start" x="282.754" y="-197" font-family="Helvetica,sans-Serif" font-size="10.00">+ width</text>
<text text-anchor="start" x="282.754" y="-187" font-family="Helvetica,sans-Serif" font-size="10.00">+ format</text>
<text text-anchor="start" x="282.754" y="-177" font-family="Helvetica,sans-Serif" font-size="10.00">+ mode</text>
<text text-anchor="start" x="282.754" y="-167" font-family="Helvetica,sans-Serif" font-size="10.00">+ reserved0</text>
<polyline fill="none" stroke="black" points="274.754,-161 365.246,-161 "/>
<text text-anchor="middle" x="320" y="-149" font-family="Helvetica,sans-Serif" font-size="10.00"> </text>
</a>
</g>
</g>
<!-- Node4&#45;&gt;Node8 -->
<g id="edge8" class="edge"><title>Node4&#45;&gt;Node8</title>
<path fill="none" stroke="#404040" d="M278.567,-274.785C283.778,-263.619 289.801,-250.711 295.614,-238.256"/>
<polygon fill="none" stroke="#404040" points="295.789,-237.882 294.701,-230.753 300.863,-227.007 301.951,-234.136 295.789,-237.882"/>
<text text-anchor="middle" x="301.309" y="-248" font-family="Helvetica,sans-Serif" font-size="10.00"> +cs</text>
</g>
<!-- Node5 -->
<g id="node5" class="node"><title>Node5</title>
<g id="a_node5"><a xlink:href="structdevice__adc__cfg__t.html" target="_top" xlink:title="Data structure for an analog input device (up to 16 channels) ">
<polygon fill="none" stroke="black" points="383.084,-153 383.084,-217 476.916,-217 476.916,-153 383.084,-153"/>
<text text-anchor="middle" x="430" y="-205" font-family="Helvetica,sans-Serif" font-size="10.00">device_adc_cfg_t</text>
<polyline fill="none" stroke="black" points="383.084,-199 476.916,-199 "/>
<text text-anchor="start" x="391.084" y="-187" font-family="Helvetica,sans-Serif" font-size="10.00">+ reference</text>
<text text-anchor="start" x="391.084" y="-177" font-family="Helvetica,sans-Serif" font-size="10.00">+ channels</text>
<polyline fill="none" stroke="black" points="383.084,-171 476.916,-171 "/>
<text text-anchor="middle" x="430" y="-159" font-family="Helvetica,sans-Serif" font-size="10.00"> </text>
</a>
</g>
</g>
<!-- Node5&#45;&gt;Node1 -->
<g id="edge4" class="edge"><title>Node5&#45;&gt;Node1</title>
<path fill="none" stroke="#404040" d="M404.487,-152.689C392.55,-138.039 377.982,-120.159 364.326,-103.4"/>
<polygon fill="none" stroke="#404040" points="363.998,-102.998 357.107,-100.873 356.418,-93.6953 363.309,-95.82 363.998,-102.998"/>
<text text-anchor="middle" x="391.371" y="-116" font-family="Helvetica,sans-Serif" font-size="10.00"> +adc</text>
</g>
<!-- Node6 -->
<g id="node6" class="node"><title>Node6</title>
<g id="a_node6"><a xlink:href="structdevice__i2c__cfg__t.html" target="_top" xlink:title="Data structure for an I2C device (SCL and SDA lines) ">
<polygon fill="none" stroke="black" points="494.754,-158 494.754,-212 585.246,-212 585.246,-158 494.754,-158"/>
<text text-anchor="middle" x="540" y="-200" font-family="Helvetica,sans-Serif" font-size="10.00">device_i2c_cfg_t</text>
<polyline fill="none" stroke="black" points="494.754,-194 585.246,-194 "/>
<text text-anchor="start" x="502.754" y="-182" font-family="Helvetica,sans-Serif" font-size="10.00">+ slave_addr</text>
<polyline fill="none" stroke="black" points="494.754,-176 585.246,-176 "/>
<text text-anchor="middle" x="540" y="-164" font-family="Helvetica,sans-Serif" font-size="10.00"> </text>
</a>
</g>
</g>
<!-- Node6&#45;&gt;Node1 -->
<g id="edge5" class="edge"><title>Node6&#45;&gt;Node1</title>
<path fill="none" stroke="#404040" d="M507.386,-157.918C500.151,-152.466 492.423,-146.892 485,-142 446.518,-116.639 400.716,-91.1714 367.143,-73.316"/>
<polygon fill="none" stroke="#404040" points="366.865,-73.1692 359.691,-73.9032 356.255,-67.5637 363.428,-66.8296 366.865,-73.1692"/>
<text text-anchor="middle" x="465.701" y="-116" font-family="Helvetica,sans-Serif" font-size="10.00"> +i2c</text>
</g>
<!-- Node7 -->
<g id="node7" class="node"><title>Node7</title>
<g id="a_node7"><a xlink:href="structdevice__pwm__cfg__t.html" target="_top" xlink:title="Data structure for a PWM device (up to 8 channels) ">
<polygon fill="none" stroke="black" points="603.589,-148 603.589,-222 702.411,-222 702.411,-148 603.589,-148"/>
<text text-anchor="middle" x="653" y="-210" font-family="Helvetica,sans-Serif" font-size="10.00">device_pwm_cfg_t</text>
<polyline fill="none" stroke="black" points="603.589,-204 702.411,-204 "/>
<text text-anchor="start" x="611.589" y="-192" font-family="Helvetica,sans-Serif" font-size="10.00">+ top</text>
<text text-anchor="start" x="611.589" y="-182" font-family="Helvetica,sans-Serif" font-size="10.00">+ freq</text>
<text text-anchor="start" x="611.589" y="-172" font-family="Helvetica,sans-Serif" font-size="10.00">+ channels</text>
<polyline fill="none" stroke="black" points="603.589,-166 702.411,-166 "/>
<text text-anchor="middle" x="653" y="-154" font-family="Helvetica,sans-Serif" font-size="10.00"> </text>
</a>
</g>
</g>
<!-- Node7&#45;&gt;Node1 -->
<g id="edge6" class="edge"><title>Node7&#45;&gt;Node1</title>
<path fill="none" stroke="#404040" d="M604.427,-147.813C600.965,-145.737 597.47,-143.775 594,-142 518.797,-103.522 424.164,-75.466 368.077,-60.7431"/>
<polygon fill="none" stroke="#404040" points="367.994,-60.7219 361.184,-63.093 356.376,-57.7187 363.186,-55.3476 367.994,-60.7219"/>
<text text-anchor="middle" x="566.866" y="-116" font-family="Helvetica,sans-Serif" font-size="10.00"> +pwm</text>
</g>
<!-- Node8&#45;&gt;Node1 -->
<g id="edge7" class="edge"><title>Node8&#45;&gt;Node1</title>
<path fill="none" stroke="#404040" d="M320,-142.762C320,-131.597 320,-119.297 320,-107.383"/>
<polygon fill="none" stroke="#404040" points="320,-107.17 316,-101.17 320,-95.1702 324,-101.17 320,-107.17"/>
<text text-anchor="middle" x="330.701" y="-116" font-family="Helvetica,sans-Serif" font-size="10.00"> +spi</text>
</g>
</g>
</svg>
