<?xml version="1.0" encoding="UTF-8" standalone="no"?>
<!DOCTYPE svg PUBLIC "-//W3C//DTD SVG 1.1//EN"
 "http://www.w3.org/Graphics/SVG/1.1/DTD/svg11.dtd">
<!-- Generated by graphviz version 2.36.0 (20140111.2315)
 -->
<!-- Title: rtc_alarm_t Pages: 1 -->
<svg width="80pt" height="196pt"
 viewBox="0.00 0.00 80.00 196.00" xmlns="http://www.w3.org/2000/svg" xmlns:xlink="http://www.w3.org/1999/xlink">
<g id="graph0" class="graph" transform="scale(1 1) rotate(0) translate(4 192)">
<title>rtc_alarm_t</title>
<!-- Node1 -->
<g id="node1" class="node"><title>Node1</title>
<polygon fill="#bfbfbf" stroke="black" points="2.99268,-1 2.99268,-55 69.0073,-55 69.0073,-1 2.99268,-1"/>
<text text-anchor="middle" x="36" y="-43" font-family="Helvetica,sans-Serif" font-size="10.00">rtc_alarm_t</text>
<polyline fill="none" stroke="black" points="2.99268,-37 69.0073,-37 "/>
<text text-anchor="start" x="10.9927" y="-25" font-family="Helvetica,sans-Serif" font-size="10.00">+ type</text>
<polyline fill="none" stroke="black" points="2.99268,-19 69.0073,-19 "/>
<text text-anchor="middle" x="36" y="-7" font-family="Helvetica,sans-Serif" font-size="10.00"> </text>
</g>
<!-- Node2 -->
<g id="node2" class="node"><title>Node2</title>
<g id="a_node2"><a xlink:href="structrtc__time__t.html" target="_top" xlink:title="RTC Time Structure (compatible with struct tm from time.h) ">
<polygon fill="none" stroke="black" points="-0.76709,-103 -0.76709,-187 72.7671,-187 72.7671,-103 -0.76709,-103"/>
<text text-anchor="middle" x="36" y="-175" font-family="Helvetica,sans-Serif" font-size="10.00">rtc_time_t</text>
<polyline fill="none" stroke="black" points="-0.76709,-169 72.7671,-169 "/>
<text text-anchor="start" x="7.23291" y="-157" font-family="Helvetica,sans-Serif" font-size="10.00">+ time</text>
<text text-anchor="start" x="7.23291" y="-147" font-family="Helvetica,sans-Serif" font-size="10.00">+ useconds</text>
<text text-anchor="start" x="7.23291" y="-137" font-family="Helvetica,sans-Serif" font-size="10.00">+ time_t</text>
<text text-anchor="start" x="7.23291" y="-127" font-family="Helvetica,sans-Serif" font-size="10.00">+ use_time_t</text>
<polyline fill="none" stroke="black" points="-0.76709,-121 72.7671,-121 "/>
<text text-anchor="middle" x="36" y="-109" font-family="Helvetica,sans-Serif" font-size="10.00"> </text>
</a>
</g>
</g>
<!-- Node2&#45;&gt;Node1 -->
<g id="edge1" class="edge"><title>Node2&#45;&gt;Node1</title>
<path fill="none" stroke="#404040" d="M36,-102.807C36,-91.2879 36,-78.8167 36,-67.462"/>
<polygon fill="none" stroke="#404040" points="36.0001,-67.2268 32,-61.2268 36,-55.2268 40,-61.2268 36.0001,-67.2268"/>
<text text-anchor="middle" x="49.7549" y="-76" font-family="Helvetica,sans-Serif" font-size="10.00"> +time</text>
</g>
</g>
</svg>
