<?xml version="1.0" encoding="UTF-8" standalone="no"?>
<!DOCTYPE svg PUBLIC "-//W3C//DTD SVG 1.1//EN"
 "http://www.w3.org/Graphics/SVG/1.1/DTD/svg11.dtd">
<!-- Generated by graphviz version 2.36.0 (20140111.2315)
 -->
<!-- Title: MCU_PACK Pages: 1 -->
<svg width="160pt" height="286pt"
 viewBox="0.00 0.00 159.51 286.00" xmlns="http://www.w3.org/2000/svg" xmlns:xlink="http://www.w3.org/1999/xlink">
<g id="graph0" class="graph" transform="scale(1 1) rotate(0) translate(4 282)">
<title>MCU_PACK</title>
<!-- Node1 -->
<g id="node1" class="node"><title>Node1</title>
<polygon fill="#bfbfbf" stroke="black" points="40.8955,-1 40.8955,-155 141.104,-155 141.104,-1 40.8955,-1"/>
<text text-anchor="middle" x="91" y="-143" font-family="Helvetica,sans-Serif" font-size="10.00">MCU_PACK</text>
<polyline fill="none" stroke="black" points="40.8955,-137 141.104,-137 "/>
<text text-anchor="start" x="48.8955" y="-125" font-family="Helvetica,sans-Serif" font-size="10.00">+ clk_usecond_tmr</text>
<text text-anchor="start" x="48.8955" y="-115" font-family="Helvetica,sans-Serif" font-size="10.00">+ task_total</text>
<text text-anchor="start" x="48.8955" y="-105" font-family="Helvetica,sans-Serif" font-size="10.00">+ resd</text>
<text text-anchor="start" x="48.8955" y="-95" font-family="Helvetica,sans-Serif" font-size="10.00">+ clk_usec_mult</text>
<text text-anchor="start" x="48.8955" y="-85" font-family="Helvetica,sans-Serif" font-size="10.00">+ clk_nsec_div</text>
<text text-anchor="start" x="48.8955" y="-75" font-family="Helvetica,sans-Serif" font-size="10.00">+ stdin_dev</text>
<text text-anchor="start" x="48.8955" y="-65" font-family="Helvetica,sans-Serif" font-size="10.00">+ stdout_dev</text>
<text text-anchor="start" x="48.8955" y="-55" font-family="Helvetica,sans-Serif" font-size="10.00">+ stderr_dev</text>
<text text-anchor="start" x="48.8955" y="-45" font-family="Helvetica,sans-Serif" font-size="10.00">+ sys_name</text>
<text text-anchor="start" x="48.8955" y="-35" font-family="Helvetica,sans-Serif" font-size="10.00">+ sys_version</text>
<text text-anchor="start" x="48.8955" y="-25" font-family="Helvetica,sans-Serif" font-size="10.00">and 354 more...</text>
<polyline fill="none" stroke="black" points="40.8955,-19 141.104,-19 "/>
<text text-anchor="middle" x="91" y="-7" font-family="Helvetica,sans-Serif" font-size="10.00"> </text>
</g>
<!-- Node2 -->
<g id="node2" class="node"><title>Node2</title>
<g id="a_node2"><a xlink:href="structdevice__pwm__cfg__t.html" target="_top" xlink:title="Data structure for a PWM device (up to 8 channels) ">
<polygon fill="none" stroke="black" points="-0.411133,-203 -0.411133,-277 98.4111,-277 98.4111,-203 -0.411133,-203"/>
<text text-anchor="middle" x="49" y="-265" font-family="Helvetica,sans-Serif" font-size="10.00">device_pwm_cfg_t</text>
<polyline fill="none" stroke="black" points="-0.411133,-259 98.4111,-259 "/>
<text text-anchor="start" x="7.58887" y="-247" font-family="Helvetica,sans-Serif" font-size="10.00">+ top</text>
<text text-anchor="start" x="7.58887" y="-237" font-family="Helvetica,sans-Serif" font-size="10.00">+ freq</text>
<text text-anchor="start" x="7.58887" y="-227" font-family="Helvetica,sans-Serif" font-size="10.00">+ channels</text>
<polyline fill="none" stroke="black" points="-0.411133,-221 98.4111,-221 "/>
<text text-anchor="middle" x="49" y="-209" font-family="Helvetica,sans-Serif" font-size="10.00"> </text>
</a>
</g>
</g>
<!-- Node2&#45;&gt;Node1 -->
<g id="edge1" class="edge"><title>Node2&#45;&gt;Node1</title>
<path fill="none" stroke="#404040" d="M58.5305,-202.694C61.3841,-191.822 64.6453,-179.399 67.9751,-166.714"/>
<polygon fill="none" stroke="#404040" points="67.9958,-166.635 65.6503,-159.816 71.0426,-155.028 73.3881,-161.847 67.9958,-166.635"/>
<text text-anchor="middle" x="80.8657" y="-176" font-family="Helvetica,sans-Serif" font-size="10.00"> +pwm</text>
</g>
<!-- Node3 -->
<g id="node3" class="node"><title>Node3</title>
<g id="a_node3"><a xlink:href="structsn__t.html" target="_top" xlink:title="Serial number. ">
<polygon fill="none" stroke="black" points="116.41,-213 116.41,-267 151.59,-267 151.59,-213 116.41,-213"/>
<text text-anchor="middle" x="134" y="-255" font-family="Helvetica,sans-Serif" font-size="10.00">sn_t</text>
<polyline fill="none" stroke="black" points="116.41,-249 151.59,-249 "/>
<text text-anchor="start" x="124.41" y="-237" font-family="Helvetica,sans-Serif" font-size="10.00">+ sn</text>
<polyline fill="none" stroke="black" points="116.41,-231 151.59,-231 "/>
<text text-anchor="middle" x="134" y="-219" font-family="Helvetica,sans-Serif" font-size="10.00"> </text>
</a>
</g>
</g>
<!-- Node3&#45;&gt;Node1 -->
<g id="edge2" class="edge"><title>Node3&#45;&gt;Node1</title>
<path fill="none" stroke="#404040" d="M126.996,-212.937C123.534,-200.059 119.135,-183.689 114.61,-166.852"/>
<polygon fill="none" stroke="#404040" points="114.582,-166.746 109.162,-161.99 111.467,-155.157 116.887,-159.913 114.582,-166.746"/>
<text text-anchor="middle" x="135.257" y="-176" font-family="Helvetica,sans-Serif" font-size="10.00"> +serial</text>
</g>
</g>
</svg>
