<?xml version="1.0" encoding="UTF-8" standalone="no"?>
<!DOCTYPE svg PUBLIC "-//W3C//DTD SVG 1.1//EN"
 "http://www.w3.org/Graphics/SVG/1.1/DTD/svg11.dtd">
<!-- Generated by graphviz version 2.36.0 (20140111.2315)
 -->
<!-- Title: device_driver_t Pages: 1 -->
<svg width="710pt" height="490pt"
 viewBox="0.00 0.00 710.00 490.00" xmlns="http://www.w3.org/2000/svg" xmlns:xlink="http://www.w3.org/1999/xlink">
<g id="graph0" class="graph" transform="scale(1 1) rotate(0) translate(4 486)">
<title>device_driver_t</title>
<!-- Node1 -->
<g id="node1" class="node"><title>Node1</title>
<polygon fill="#bfbfbf" stroke="black" points="278.094,-1 278.094,-55 361.906,-55 361.906,-1 278.094,-1"/>
<text text-anchor="middle" x="320" y="-43" font-family="Helvetica,sans-Serif" font-size="10.00">device_driver_t</text>
<polyline fill="none" stroke="black" points="278.094,-37 361.906,-37 "/>
<text text-anchor="middle" x="320" y="-25" font-family="Helvetica,sans-Serif" font-size="10.00"> </text>
<polyline fill="none" stroke="black" points="278.094,-19 361.906,-19 "/>
<text text-anchor="middle" x="320" y="-7" font-family="Helvetica,sans-Serif" font-size="10.00"> </text>
</g>
<!-- Node2 -->
<g id="node2" class="node"><title>Node2</title>
<g id="a_node2"><a xlink:href="structdevice__cfg__t.html" target="_top" xlink:title="Data structure for device configuration. ">
<polygon fill="none" stroke="black" points="283.785,-143 283.785,-237 356.215,-237 356.215,-143 283.785,-143"/>
<text text-anchor="middle" x="320" y="-225" font-family="Helvetica,sans-Serif" font-size="10.00">device_cfg_t</text>
<polyline fill="none" stroke="black" points="283.785,-219 356.215,-219 "/>
<text text-anchor="start" x="291.785" y="-207" font-family="Helvetica,sans-Serif" font-size="10.00">+ pin_assign</text>
<text text-anchor="start" x="291.785" y="-197" font-family="Helvetica,sans-Serif" font-size="10.00">+ bitrate</text>
<text text-anchor="start" x="291.785" y="-187" font-family="Helvetica,sans-Serif" font-size="10.00">+ pcfg</text>
<text text-anchor="start" x="291.785" y="-177" font-family="Helvetica,sans-Serif" font-size="10.00">+ dcfg</text>
<text text-anchor="start" x="291.785" y="-167" font-family="Helvetica,sans-Serif" font-size="10.00">+ state</text>
<polyline fill="none" stroke="black" points="283.785,-161 356.215,-161 "/>
<text text-anchor="middle" x="320" y="-149" font-family="Helvetica,sans-Serif" font-size="10.00"> </text>
</a>
</g>
</g>
<!-- Node2&#45;&gt;Node1 -->
<g id="edge1" class="edge"><title>Node2&#45;&gt;Node1</title>
<path fill="none" stroke="#404040" d="M320,-142.721C320,-118.848 320,-90.07 320,-67.4371"/>
<polygon fill="none" stroke="#404040" points="320,-67.236 316,-61.236 320,-55.236 324,-61.236 320,-67.236"/>
<text text-anchor="middle" x="334.866" y="-116" font-family="Helvetica,sans-Serif" font-size="10.00"> +write</text>
<text text-anchor="middle" x="334.866" y="-106" font-family="Helvetica,sans-Serif" font-size="10.00">+open</text>
<text text-anchor="middle" x="334.866" y="-96" font-family="Helvetica,sans-Serif" font-size="10.00">+ioctl</text>
<text text-anchor="middle" x="334.866" y="-86" font-family="Helvetica,sans-Serif" font-size="10.00">+close</text>
<text text-anchor="middle" x="334.866" y="-76" font-family="Helvetica,sans-Serif" font-size="10.00">+read</text>
</g>
<!-- Node3 -->
<g id="node3" class="node"><title>Node3</title>
<g id="a_node3"><a xlink:href="structdevice__uart__cfg__t.html" target="_top" xlink:title="Data structure for a UART device (RX and TX lines) ">
<polygon fill="none" stroke="black" points="-0.470215,-290 -0.470215,-364 94.4702,-364 94.4702,-290 -0.470215,-290"/>
<text text-anchor="middle" x="47" y="-352" font-family="Helvetica,sans-Serif" font-size="10.00">device_uart_cfg_t</text>
<polyline fill="none" stroke="black" points="-0.470215,-346 94.4702,-346 "/>
<text text-anchor="start" x="7.52979" y="-334" font-family="Helvetica,sans-Serif" font-size="10.00">+ stop_bits</text>
<text text-anchor="start" x="7.52979" y="-324" font-family="Helvetica,sans-Serif" font-size="10.00">+ parity</text>
<text text-anchor="start" x="7.52979" y="-314" font-family="Helvetica,sans-Serif" font-size="10.00">+ width</text>
<polyline fill="none" stroke="black" points="-0.470215,-308 94.4702,-308 "/>
<text text-anchor="middle" x="47" y="-296" font-family="Helvetica,sans-Serif" font-size="10.00"> </text>
</a>
</g>
</g>
<!-- Node3&#45;&gt;Node2 -->
<g id="edge2" class="edge"><title>Node3&#45;&gt;Node2</title>
<path fill="none" stroke="#404040" d="M94.7196,-290.464C97.8439,-288.254 100.957,-286.083 104,-284 123.176,-270.878 127.365,-266.386 148.15,-256 188.479,-235.848 236.658,-218.135 271.727,-206.311"/>
<polygon fill="none" stroke="#404040" points="272.163,-206.166 276.595,-200.477 283.55,-202.379 279.119,-208.068 272.163,-206.166"/>
<text text-anchor="middle" x="161.925" y="-258" font-family="Helvetica,sans-Serif" font-size="10.00"> +uart</text>
</g>
<!-- Node4 -->
<g id="node4" class="node"><title>Node4</title>
<g id="a_node4"><a xlink:href="structdevice__periph__t.html" target="_top" xlink:title="Data structure for on&#45;chip MCU peripherals. ">
<polygon fill="none" stroke="black" points="112.697,-300 112.697,-354 199.303,-354 199.303,-300 112.697,-300"/>
<text text-anchor="middle" x="156" y="-342" font-family="Helvetica,sans-Serif" font-size="10.00">device_periph_t</text>
<polyline fill="none" stroke="black" points="112.697,-336 199.303,-336 "/>
<text text-anchor="start" x="120.697" y="-324" font-family="Helvetica,sans-Serif" font-size="10.00">+ port</text>
<polyline fill="none" stroke="black" points="112.697,-318 199.303,-318 "/>
<text text-anchor="middle" x="156" y="-306" font-family="Helvetica,sans-Serif" font-size="10.00"> </text>
</a>
</g>
</g>
<!-- Node4&#45;&gt;Node2 -->
<g id="edge3" class="edge"><title>Node4&#45;&gt;Node2</title>
<path fill="none" stroke="#404040" d="M161.752,-299.834C166.03,-285.458 173.154,-268.136 184.584,-256 208.235,-230.89 243.598,-214.375 272.256,-204.277"/>
<polygon fill="none" stroke="#404040" points="272.29,-204.266 276.713,-198.57 283.671,-200.463 279.248,-206.158 272.29,-204.266"/>
<text text-anchor="middle" x="203.208" y="-258" font-family="Helvetica,sans-Serif" font-size="10.00"> +periph</text>
</g>
<!-- Node5 -->
<g id="node5" class="node"><title>Node5</title>
<g id="a_node5"><a xlink:href="structpio__t.html" target="_top" xlink:title="IO port and pin. ">
<polygon fill="none" stroke="black" points="243.075,-417 243.075,-481 284.925,-481 284.925,-417 243.075,-417"/>
<text text-anchor="middle" x="264" y="-469" font-family="Helvetica,sans-Serif" font-size="10.00">pio_t</text>
<polyline fill="none" stroke="black" points="243.075,-463 284.925,-463 "/>
<text text-anchor="start" x="251.075" y="-451" font-family="Helvetica,sans-Serif" font-size="10.00">+ port</text>
<text text-anchor="start" x="251.075" y="-441" font-family="Helvetica,sans-Serif" font-size="10.00">+ pin</text>
<polyline fill="none" stroke="black" points="243.075,-435 284.925,-435 "/>
<text text-anchor="middle" x="264" y="-423" font-family="Helvetica,sans-Serif" font-size="10.00"> </text>
</a>
</g>
</g>
<!-- Node5&#45;&gt;Node2 -->
<g id="edge4" class="edge"><title>Node5&#45;&gt;Node2</title>
<path fill="none" stroke="#404040" d="M251.998,-416.849C240.877,-383.152 228.241,-328.308 244.037,-284 250.641,-265.475 262.693,-247.975 275.281,-233.259"/>
<polygon fill="none" stroke="#404040" points="275.566,-232.941 276.595,-225.804 283.579,-224.008 282.55,-231.145 275.566,-232.941"/>
<text text-anchor="middle" x="255.981" y="-324" font-family="Helvetica,sans-Serif" font-size="10.00"> +pio</text>
</g>
<!-- Node9 -->
<g id="node9" class="node"><title>Node9</title>
<g id="a_node9"><a xlink:href="structdevice__spi__cfg__t.html" target="_top" xlink:title="Data structure for a SPI device with a CS pin. ">
<polygon fill="none" stroke="black" points="274.754,-285 274.754,-369 365.246,-369 365.246,-285 274.754,-285"/>
<text text-anchor="middle" x="320" y="-357" font-family="Helvetica,sans-Serif" font-size="10.00">device_spi_cfg_t</text>
<polyline fill="none" stroke="black" points="274.754,-351 365.246,-351 "/>
<text text-anchor="start" x="282.754" y="-339" font-family="Helvetica,sans-Serif" font-size="10.00">+ width</text>
<text text-anchor="start" x="282.754" y="-329" font-family="Helvetica,sans-Serif" font-size="10.00">+ format</text>
<text text-anchor="start" x="282.754" y="-319" font-family="Helvetica,sans-Serif" font-size="10.00">+ mode</text>
<text text-anchor="start" x="282.754" y="-309" font-family="Helvetica,sans-Serif" font-size="10.00">+ reserved0</text>
<polyline fill="none" stroke="black" points="274.754,-303 365.246,-303 "/>
<text text-anchor="middle" x="320" y="-291" font-family="Helvetica,sans-Serif" font-size="10.00"> </text>
</a>
</g>
</g>
<!-- Node5&#45;&gt;Node9 -->
<g id="edge9" class="edge"><title>Node5&#45;&gt;Node9</title>
<path fill="none" stroke="#404040" d="M278.567,-416.785C283.778,-405.619 289.801,-392.711 295.614,-380.256"/>
<polygon fill="none" stroke="#404040" points="295.789,-379.882 294.701,-372.753 300.863,-369.007 301.951,-376.136 295.789,-379.882"/>
<text text-anchor="middle" x="301.309" y="-390" font-family="Helvetica,sans-Serif" font-size="10.00"> +cs</text>
</g>
<!-- Node6 -->
<g id="node6" class="node"><title>Node6</title>
<g id="a_node6"><a xlink:href="structdevice__adc__cfg__t.html" target="_top" xlink:title="Data structure for an analog input device (up to 16 channels) ">
<polygon fill="none" stroke="black" points="383.084,-295 383.084,-359 476.916,-359 476.916,-295 383.084,-295"/>
<text text-anchor="middle" x="430" y="-347" font-family="Helvetica,sans-Serif" font-size="10.00">device_adc_cfg_t</text>
<polyline fill="none" stroke="black" points="383.084,-341 476.916,-341 "/>
<text text-anchor="start" x="391.084" y="-329" font-family="Helvetica,sans-Serif" font-size="10.00">+ reference</text>
<text text-anchor="start" x="391.084" y="-319" font-family="Helvetica,sans-Serif" font-size="10.00">+ channels</text>
<polyline fill="none" stroke="black" points="383.084,-313 476.916,-313 "/>
<text text-anchor="middle" x="430" y="-301" font-family="Helvetica,sans-Serif" font-size="10.00"> </text>
</a>
</g>
</g>
<!-- Node6&#45;&gt;Node2 -->
<g id="edge5" class="edge"><title>Node6&#45;&gt;Node2</title>
<path fill="none" stroke="#404040" d="M404.487,-294.689C392.55,-280.039 377.982,-262.159 364.326,-245.4"/>
<polygon fill="none" stroke="#404040" points="363.998,-244.998 357.107,-242.873 356.418,-235.695 363.309,-237.82 363.998,-244.998"/>
<text text-anchor="middle" x="391.371" y="-258" font-family="Helvetica,sans-Serif" font-size="10.00"> +adc</text>
</g>
<!-- Node7 -->
<g id="node7" class="node"><title>Node7</title>
<g id="a_node7"><a xlink:href="structdevice__i2c__cfg__t.html" target="_top" xlink:title="Data structure for an I2C device (SCL and SDA lines) ">
<polygon fill="none" stroke="black" points="494.754,-300 494.754,-354 585.246,-354 585.246,-300 494.754,-300"/>
<text text-anchor="middle" x="540" y="-342" font-family="Helvetica,sans-Serif" font-size="10.00">device_i2c_cfg_t</text>
<polyline fill="none" stroke="black" points="494.754,-336 585.246,-336 "/>
<text text-anchor="start" x="502.754" y="-324" font-family="Helvetica,sans-Serif" font-size="10.00">+ slave_addr</text>
<polyline fill="none" stroke="black" points="494.754,-318 585.246,-318 "/>
<text text-anchor="middle" x="540" y="-306" font-family="Helvetica,sans-Serif" font-size="10.00"> </text>
</a>
</g>
</g>
<!-- Node7&#45;&gt;Node2 -->
<g id="edge6" class="edge"><title>Node7&#45;&gt;Node2</title>
<path fill="none" stroke="#404040" d="M507.386,-299.918C500.151,-294.466 492.423,-288.892 485,-284 446.518,-258.639 400.716,-233.171 367.143,-215.316"/>
<polygon fill="none" stroke="#404040" points="366.865,-215.169 359.691,-215.903 356.255,-209.564 363.428,-208.83 366.865,-215.169"/>
<text text-anchor="middle" x="465.701" y="-258" font-family="Helvetica,sans-Serif" font-size="10.00"> +i2c</text>
</g>
<!-- Node8 -->
<g id="node8" class="node"><title>Node8</title>
<g id="a_node8"><a xlink:href="structdevice__pwm__cfg__t.html" target="_top" xlink:title="Data structure for a PWM device (up to 8 channels) ">
<polygon fill="none" stroke="black" points="603.589,-290 603.589,-364 702.411,-364 702.411,-290 603.589,-290"/>
<text text-anchor="middle" x="653" y="-352" font-family="Helvetica,sans-Serif" font-size="10.00">device_pwm_cfg_t</text>
<polyline fill="none" stroke="black" points="603.589,-346 702.411,-346 "/>
<text text-anchor="start" x="611.589" y="-334" font-family="Helvetica,sans-Serif" font-size="10.00">+ top</text>
<text text-anchor="start" x="611.589" y="-324" font-family="Helvetica,sans-Serif" font-size="10.00">+ freq</text>
<text text-anchor="start" x="611.589" y="-314" font-family="Helvetica,sans-Serif" font-size="10.00">+ channels</text>
<polyline fill="none" stroke="black" points="603.589,-308 702.411,-308 "/>
<text text-anchor="middle" x="653" y="-296" font-family="Helvetica,sans-Serif" font-size="10.00"> </text>
</a>
</g>
</g>
<!-- Node8&#45;&gt;Node2 -->
<g id="edge7" class="edge"><title>Node8&#45;&gt;Node2</title>
<path fill="none" stroke="#404040" d="M604.427,-289.813C600.965,-287.737 597.47,-285.775 594,-284 518.797,-245.522 424.164,-217.466 368.077,-202.743"/>
<polygon fill="none" stroke="#404040" points="367.994,-202.722 361.184,-205.093 356.376,-199.719 363.186,-197.348 367.994,-202.722"/>
<text text-anchor="middle" x="566.866" y="-258" font-family="Helvetica,sans-Serif" font-size="10.00"> +pwm</text>
</g>
<!-- Node9&#45;&gt;Node2 -->
<g id="edge8" class="edge"><title>Node9&#45;&gt;Node2</title>
<path fill="none" stroke="#404040" d="M320,-284.762C320,-273.597 320,-261.297 320,-249.383"/>
<polygon fill="none" stroke="#404040" points="320,-249.17 316,-243.17 320,-237.17 324,-243.17 320,-249.17"/>
<text text-anchor="middle" x="330.701" y="-258" font-family="Helvetica,sans-Serif" font-size="10.00"> +spi</text>
</g>
</g>
</svg>
