<?xml version="1.0" encoding="UTF-8" standalone="no"?>
<!DOCTYPE svg PUBLIC "-//W3C//DTD SVG 1.1//EN"
 "http://www.w3.org/Graphics/SVG/1.1/DTD/svg11.dtd">
<!-- Generated by graphviz version 2.36.0 (20140111.2315)
 -->
<!-- Title: include/iface/dev/sys.h Pages: 1 -->
<svg width="247pt" height="140pt"
 viewBox="0.00 0.00 247.00 140.00" xmlns="http://www.w3.org/2000/svg" xmlns:xlink="http://www.w3.org/1999/xlink">
<g id="graph0" class="graph" transform="scale(1 1) rotate(0) translate(4 136)">
<title>include/iface/dev/sys.h</title>
<!-- Node1 -->
<g id="node1" class="node"><title>Node1</title>
<polygon fill="#bfbfbf" stroke="black" points="122.695,-113 122.695,-131 239.305,-131 239.305,-113 122.695,-113"/>
<text text-anchor="middle" x="181" y="-119" font-family="Helvetica,sans-Serif" font-size="10.00">include/iface/dev/sys.h</text>
</g>
<!-- Node2 -->
<g id="node2" class="node"><title>Node2</title>
<g id="a_node2"><a xlink:href="__open_8c.html" target="_top" xlink:title="src/sys/unistd/_open.c">
<polygon fill="none" stroke="black" points="-0.467773,-57 -0.467773,-75 114.468,-75 114.468,-57 -0.467773,-57"/>
<text text-anchor="middle" x="57" y="-63" font-family="Helvetica,sans-Serif" font-size="10.00">src/sys/unistd/_open.c</text>
</a>
</g>
</g>
<!-- Node1&#45;&gt;Node2 -->
<g id="edge1" class="edge"><title>Node1&#45;&gt;Node2</title>
<path fill="none" stroke="midnightblue" d="M152.958,-108.788C129.334,-98.5003 96.1977,-84.07 75.691,-75.1396"/>
<polygon fill="midnightblue" stroke="midnightblue" points="151.87,-112.132 162.436,-112.916 154.665,-105.714 151.87,-112.132"/>
</g>
<!-- Node3 -->
<g id="node3" class="node"><title>Node3</title>
<g id="a_node3"><a xlink:href="iface_2link_8h.html" target="_top" xlink:title="Link Layer Header. ">
<polygon fill="none" stroke="black" points="132.143,-57 132.143,-75 229.857,-75 229.857,-57 132.143,-57"/>
<text text-anchor="middle" x="181" y="-63" font-family="Helvetica,sans-Serif" font-size="10.00">include/iface/link.h</text>
</a>
</g>
</g>
<!-- Node1&#45;&gt;Node3 -->
<g id="edge2" class="edge"><title>Node1&#45;&gt;Node3</title>
<path fill="none" stroke="midnightblue" d="M174.567,-102.633C173.861,-93.3129 174.335,-82.4586 175.991,-75.2014"/>
<polygon fill="midnightblue" stroke="midnightblue" points="171.103,-103.135 175.938,-112.562 178.037,-102.178 171.103,-103.135"/>
</g>
<!-- Node3&#45;&gt;Node1 -->
<g id="edge4" class="edge"><title>Node3&#45;&gt;Node1</title>
<path fill="none" stroke="midnightblue" d="M187.434,-85.3691C188.132,-94.5884 187.675,-105.308 186.062,-112.562"/>
<polygon fill="midnightblue" stroke="midnightblue" points="190.863,-84.6192 186.009,-75.2014 183.931,-85.5903 190.863,-84.6192"/>
</g>
<!-- Node4 -->
<g id="node4" class="node"><title>Node4</title>
<g id="a_node4"><a xlink:href="__exit_8c.html" target="_top" xlink:title="src/sys/unistd/_exit.c">
<polygon fill="none" stroke="black" points="126.875,-1 126.875,-19 235.125,-19 235.125,-1 126.875,-1"/>
<text text-anchor="middle" x="181" y="-7" font-family="Helvetica,sans-Serif" font-size="10.00">src/sys/unistd/_exit.c</text>
</a>
</g>
</g>
<!-- Node3&#45;&gt;Node4 -->
<g id="edge3" class="edge"><title>Node3&#45;&gt;Node4</title>
<path fill="none" stroke="midnightblue" d="M181,-46.3288C181,-37.0774 181,-26.3798 181,-19.2014"/>
<polygon fill="midnightblue" stroke="midnightblue" points="177.5,-46.5625 181,-56.5625 184.5,-46.5625 177.5,-46.5625"/>
</g>
</g>
</svg>
