<?xml version="1.0" encoding="UTF-8" standalone="no"?>
<!DOCTYPE svg PUBLIC "-//W3C//DTD SVG 1.1//EN"
 "http://www.w3.org/Graphics/SVG/1.1/DTD/svg11.dtd">
<!-- Generated by graphviz version 2.36.0 (20140111.2315)
 -->
<!-- Title: include/iface/dev/sys.h Pages: 1 -->
<svg width="1274pt" height="252pt"
 viewBox="0.00 0.00 1274.04 252.00" xmlns="http://www.w3.org/2000/svg" xmlns:xlink="http://www.w3.org/1999/xlink">
<g id="graph0" class="graph" transform="scale(1 1) rotate(0) translate(4 248)">
<title>include/iface/dev/sys.h</title>
<!-- Node1 -->
<g id="node1" class="node"><title>Node1</title>
<polygon fill="#bfbfbf" stroke="black" points="563.735,-225 563.735,-243 680.345,-243 680.345,-225 563.735,-225"/>
<text text-anchor="middle" x="622.04" y="-231" font-family="Helvetica,sans-Serif" font-size="10.00">include/iface/dev/sys.h</text>
</g>
<!-- Node2 -->
<g id="node2" class="node"><title>Node2</title>
<polygon fill="none" stroke="#bfbfbf" points="536.919,-1 536.919,-19 585.16,-19 585.16,-1 536.919,-1"/>
<text text-anchor="middle" x="561.04" y="-7" font-family="Helvetica,sans-Serif" font-size="10.00">stdint.h</text>
</g>
<!-- Node1&#45;&gt;Node2 -->
<g id="edge1" class="edge"><title>Node1&#45;&gt;Node2</title>
<path fill="none" stroke="midnightblue" d="M563.681,-228.706C419.877,-216.629 56.3443,-176.459 4.03975,-76 -0.0652314,-68.1157 -1.98726,-62.5336 4.03975,-56 39.5226,-17.5348 410.864,-11.9425 526.716,-11.1349"/>
<polygon fill="midnightblue" stroke="midnightblue" points="526.823,-14.6344 536.801,-11.0723 526.78,-7.63449 526.823,-14.6344"/>
</g>
<!-- Node3 -->
<g id="node3" class="node"><title>Node3</title>
<g id="a_node3"><a xlink:href="iface_2link_8h.html" target="_top" xlink:title="Link Layer Header. ">
<polygon fill="none" stroke="black" points="590.417,-169 590.417,-187 653.663,-187 653.663,-169 590.417,-169"/>
<text text-anchor="middle" x="622.04" y="-175" font-family="Helvetica,sans-Serif" font-size="10.00">iface/link.h</text>
</a>
</g>
</g>
<!-- Node1&#45;&gt;Node3 -->
<g id="edge2" class="edge"><title>Node1&#45;&gt;Node3</title>
<path fill="none" stroke="midnightblue" d="M616.977,-224.562C615.365,-217.308 614.908,-206.588 615.606,-197.369"/>
<polygon fill="midnightblue" stroke="midnightblue" points="619.109,-197.59 617.03,-187.201 612.177,-196.619 619.109,-197.59"/>
</g>
<!-- Node3&#45;&gt;Node1 -->
<g id="edge55" class="edge"><title>Node3&#45;&gt;Node1</title>
<path fill="none" stroke="midnightblue" d="M627.049,-187.201C628.704,-194.459 629.179,-205.313 628.473,-214.633"/>
<polygon fill="midnightblue" stroke="midnightblue" points="625.003,-214.178 627.102,-224.562 631.937,-215.135 625.003,-214.178"/>
</g>
<!-- Node4 -->
<g id="node4" class="node"><title>Node4</title>
<polygon fill="none" stroke="#bfbfbf" points="877.922,-113 877.922,-131 936.158,-131 936.158,-113 877.922,-113"/>
<text text-anchor="middle" x="907.04" y="-119" font-family="Helvetica,sans-Serif" font-size="10.00">sys/stat.h</text>
</g>
<!-- Node3&#45;&gt;Node4 -->
<g id="edge3" class="edge"><title>Node3&#45;&gt;Node4</title>
<path fill="none" stroke="midnightblue" d="M653.795,-171.33C700.087,-163.011 788.787,-146.87 864.04,-132 865.302,-131.751 866.585,-131.495 867.881,-131.235"/>
<polygon fill="midnightblue" stroke="midnightblue" points="868.815,-134.616 877.914,-129.189 867.416,-127.758 868.815,-134.616"/>
</g>
<!-- Node5 -->
<g id="node5" class="node"><title>Node5</title>
<polygon fill="none" stroke="#bfbfbf" points="595.424,-57 595.424,-75 638.655,-75 638.655,-57 595.424,-57"/>
<text text-anchor="middle" x="617.04" y="-63" font-family="Helvetica,sans-Serif" font-size="10.00">time.h</text>
</g>
<!-- Node3&#45;&gt;Node5 -->
<g id="edge4" class="edge"><title>Node3&#45;&gt;Node5</title>
<path fill="none" stroke="midnightblue" d="M621.664,-168.732C620.864,-151.127 618.975,-109.575 617.875,-85.3716"/>
<polygon fill="midnightblue" stroke="midnightblue" points="621.357,-84.8956 617.406,-75.0649 614.364,-85.2135 621.357,-84.8956"/>
</g>
<!-- Node6 -->
<g id="node6" class="node"><title>Node6</title>
<g id="a_node6"><a xlink:href="adc_8h.html" target="_top" xlink:title="Analog to Digital Converter Header File. ">
<polygon fill="none" stroke="black" points="972.358,-57 972.358,-75 1031.72,-75 1031.72,-57 972.358,-57"/>
<text text-anchor="middle" x="1002.04" y="-63" font-family="Helvetica,sans-Serif" font-size="10.00">dev/adc.h</text>
</a>
</g>
</g>
<!-- Node3&#45;&gt;Node6 -->
<g id="edge5" class="edge"><title>Node3&#45;&gt;Node6</title>
<path fill="none" stroke="midnightblue" d="M653.798,-169.416C687.07,-161.208 740.701,-147.234 786.04,-132 808.727,-124.377 813.34,-119.588 836.04,-112 878.642,-97.7582 928.499,-84.7149 962.372,-76.3796"/>
<polygon fill="midnightblue" stroke="midnightblue" points="963.459,-79.7172 972.346,-73.9479 961.801,-72.9164 963.459,-79.7172"/>
</g>
<!-- Node8 -->
<g id="node8" class="node"><title>Node8</title>
<g id="a_node8"><a xlink:href="bootloader_8h.html" target="_top" xlink:title="Analog to Digital Converter Header File. ">
<polygon fill="none" stroke="black" points="373.062,-57 373.062,-75 463.017,-75 463.017,-57 373.062,-57"/>
<text text-anchor="middle" x="418.04" y="-63" font-family="Helvetica,sans-Serif" font-size="10.00">dev/bootloader.h</text>
</a>
</g>
</g>
<!-- Node3&#45;&gt;Node8 -->
<g id="edge8" class="edge"><title>Node3&#45;&gt;Node8</title>
<path fill="none" stroke="midnightblue" d="M599.561,-168.845C577.716,-160.599 543.858,-146.965 516.04,-132 487.325,-116.553 456.297,-95.0813 437.017,-81.1143"/>
<polygon fill="midnightblue" stroke="midnightblue" points="438.934,-78.1796 428.797,-75.0968 434.799,-83.8279 438.934,-78.1796"/>
</g>
<!-- Node9 -->
<g id="node9" class="node"><title>Node9</title>
<g id="a_node9"><a xlink:href="core_8h.html" target="_top" xlink:title="Analog to Digital Converter Header File. ">
<polygon fill="none" stroke="black" points="123.693,-113 123.693,-131 186.387,-131 186.387,-113 123.693,-113"/>
<text text-anchor="middle" x="155.04" y="-119" font-family="Helvetica,sans-Serif" font-size="10.00">dev/core.h</text>
</a>
</g>
</g>
<!-- Node3&#45;&gt;Node9 -->
<g id="edge11" class="edge"><title>Node3&#45;&gt;Node9</title>
<path fill="none" stroke="midnightblue" d="M590.308,-173.331C508.175,-163.834 288.626,-138.447 196.568,-127.802"/>
<polygon fill="midnightblue" stroke="midnightblue" points="196.843,-124.311 186.508,-126.639 196.039,-131.264 196.843,-124.311"/>
</g>
<!-- Node10 -->
<g id="node10" class="node"><title>Node10</title>
<g id="a_node10"><a xlink:href="pio_8h.html" target="_top" xlink:title="General Purpose Input/Output Header File. ">
<polygon fill="none" stroke="black" points="12.7961,-57 12.7961,-75 93.2834,-75 93.2834,-57 12.7961,-57"/>
<text text-anchor="middle" x="53.0397" y="-63" font-family="Helvetica,sans-Serif" font-size="10.00">iface/dev/pio.h</text>
</a>
</g>
</g>
<!-- Node3&#45;&gt;Node10 -->
<g id="edge19" class="edge"><title>Node3&#45;&gt;Node10</title>
<path fill="none" stroke="midnightblue" d="M590.081,-177.071C492.436,-176.84 199.533,-172.687 115.04,-132 92.9316,-121.354 74.5786,-99.24 63.7163,-83.7767"/>
<polygon fill="midnightblue" stroke="midnightblue" points="66.426,-81.5327 57.9544,-75.17 60.6091,-85.4269 66.426,-81.5327"/>
</g>
<!-- Node12 -->
<g id="node12" class="node"><title>Node12</title>
<polygon fill="none" stroke="#bfbfbf" points="345.966,-113 345.966,-131 408.113,-131 408.113,-113 345.966,-113"/>
<text text-anchor="middle" x="377.04" y="-119" font-family="Helvetica,sans-Serif" font-size="10.00">dev/gpio.h</text>
</g>
<!-- Node3&#45;&gt;Node12 -->
<g id="edge18" class="edge"><title>Node3&#45;&gt;Node12</title>
<path fill="none" stroke="midnightblue" d="M590.01,-169.94C545.932,-160.225 466.545,-142.728 418.138,-132.058"/>
<polygon fill="midnightblue" stroke="midnightblue" points="418.821,-128.625 408.302,-129.891 417.315,-135.461 418.821,-128.625"/>
</g>
<!-- Node13 -->
<g id="node13" class="node"><title>Node13</title>
<g id="a_node13"><a xlink:href="dac_8h.html" target="_top" xlink:title="DAC Header File. ">
<polygon fill="none" stroke="black" points="812.358,-57 812.358,-75 871.722,-75 871.722,-57 812.358,-57"/>
<text text-anchor="middle" x="842.04" y="-63" font-family="Helvetica,sans-Serif" font-size="10.00">dev/dac.h</text>
</a>
</g>
</g>
<!-- Node3&#45;&gt;Node13 -->
<g id="edge20" class="edge"><title>Node3&#45;&gt;Node13</title>
<path fill="none" stroke="midnightblue" d="M638.217,-168.911C676.12,-149.96 770.912,-102.564 816.614,-79.7131"/>
<polygon fill="midnightblue" stroke="midnightblue" points="818.46,-82.7031 825.839,-75.1004 815.329,-76.4421 818.46,-82.7031"/>
</g>
<!-- Node14 -->
<g id="node14" class="node"><title>Node14</title>
<g id="a_node14"><a xlink:href="eint_8h.html" target="_top" xlink:title="External Interrupt Header File. ">
<polygon fill="none" stroke="black" points="1206.36,-57 1206.36,-75 1265.72,-75 1265.72,-57 1206.36,-57"/>
<text text-anchor="middle" x="1236.04" y="-63" font-family="Helvetica,sans-Serif" font-size="10.00">dev/eint.h</text>
</a>
</g>
</g>
<!-- Node3&#45;&gt;Node14 -->
<g id="edge23" class="edge"><title>Node3&#45;&gt;Node14</title>
<path fill="none" stroke="midnightblue" d="M653.728,-174.794C718.744,-169.921 871.733,-156.666 998.04,-132 1071.52,-117.651 1155.6,-92.5967 1201.56,-78.1434"/>
<polygon fill="midnightblue" stroke="midnightblue" points="1202.84,-81.4109 1211.31,-75.0552 1200.72,-74.7375 1202.84,-81.4109"/>
</g>
<!-- Node16 -->
<g id="node16" class="node"><title>Node16</title>
<g id="a_node16"><a xlink:href="flash_8h.html" target="_top" xlink:title="Flash Memory Header File. ">
<polygon fill="none" stroke="black" points="889.858,-57 889.858,-75 954.222,-75 954.222,-57 889.858,-57"/>
<text text-anchor="middle" x="922.04" y="-63" font-family="Helvetica,sans-Serif" font-size="10.00">dev/flash.h</text>
</a>
</g>
</g>
<!-- Node3&#45;&gt;Node16 -->
<g id="edge27" class="edge"><title>Node3&#45;&gt;Node16</title>
<path fill="none" stroke="midnightblue" d="M644.488,-168.999C669.363,-160.098 710.643,-145.228 746.04,-132 769.234,-123.332 774.845,-120.668 798.04,-112 829.15,-100.373 864.805,-87.4788 889.873,-78.4837"/>
<polygon fill="midnightblue" stroke="midnightblue" points="891.358,-81.6694 899.592,-75.0013 888.997,-75.0797 891.358,-81.6694"/>
</g>
<!-- Node17 -->
<g id="node17" class="node"><title>Node17</title>
<g id="a_node17"><a xlink:href="i2c_8h.html" target="_top" xlink:title="I2C Header File. ">
<polygon fill="none" stroke="black" points="1050.03,-57 1050.03,-75 1106.05,-75 1106.05,-57 1050.03,-57"/>
<text text-anchor="middle" x="1078.04" y="-63" font-family="Helvetica,sans-Serif" font-size="10.00">dev/i2c.h</text>
</a>
</g>
</g>
<!-- Node3&#45;&gt;Node17 -->
<g id="edge30" class="edge"><title>Node3&#45;&gt;Node17</title>
<path fill="none" stroke="midnightblue" d="M653.891,-172.058C694.34,-165.302 765.978,-151.729 825.04,-132 845.414,-125.194 848.629,-118.697 869.04,-112 942.834,-87.7856 964.246,-92.951 1040.04,-76 1040.14,-75.9778 1040.24,-75.9556 1040.34,-75.9333"/>
<polygon fill="midnightblue" stroke="midnightblue" points="1040.87,-79.4026 1049.84,-73.7628 1039.31,-72.5785 1040.87,-79.4026"/>
</g>
<!-- Node18 -->
<g id="node18" class="node"><title>Node18</title>
<g id="a_node18"><a xlink:href="pwm_8h.html" target="_top" xlink:title="Pulse Width Modulation Header File. ">
<polygon fill="none" stroke="black" points="1123.86,-57 1123.86,-75 1188.22,-75 1188.22,-57 1123.86,-57"/>
<text text-anchor="middle" x="1156.04" y="-63" font-family="Helvetica,sans-Serif" font-size="10.00">dev/pwm.h</text>
</a>
</g>
</g>
<!-- Node3&#45;&gt;Node18 -->
<g id="edge33" class="edge"><title>Node3&#45;&gt;Node18</title>
<path fill="none" stroke="midnightblue" d="M653.976,-174.264C712.301,-168.889 839.75,-155.393 945.04,-132 1009.89,-117.591 1083.64,-92.9006 1124.52,-78.4536"/>
<polygon fill="midnightblue" stroke="midnightblue" points="1125.93,-81.6659 1134.18,-75.0138 1123.58,-75.0716 1125.93,-81.6659"/>
</g>
<!-- Node19 -->
<g id="node19" class="node"><title>Node19</title>
<g id="a_node19"><a xlink:href="qei_8h.html" target="_top" xlink:title="Quadrature Encoder Interface Header File. ">
<polygon fill="none" stroke="black" points="148.747,-57 148.747,-75 205.333,-75 205.333,-57 148.747,-57"/>
<text text-anchor="middle" x="177.04" y="-63" font-family="Helvetica,sans-Serif" font-size="10.00">dev/qei.h</text>
</a>
</g>
</g>
<!-- Node3&#45;&gt;Node19 -->
<g id="edge36" class="edge"><title>Node3&#45;&gt;Node19</title>
<path fill="none" stroke="midnightblue" d="M590.33,-174.385C537.17,-169.474 427.046,-157.03 337.04,-132 288.037,-118.372 233.72,-94.2632 202.649,-79.5478"/>
<polygon fill="midnightblue" stroke="midnightblue" points="203.945,-76.288 193.415,-75.1254 200.922,-82.6014 203.945,-76.288"/>
</g>
<!-- Node20 -->
<g id="node20" class="node"><title>Node20</title>
<g id="a_node20"><a xlink:href="rtc_8h.html" target="_top" xlink:title="Real Time Clock Header File. ">
<polygon fill="none" stroke="black" points="539.865,-113 539.865,-131 594.215,-131 594.215,-113 539.865,-113"/>
<text text-anchor="middle" x="567.04" y="-119" font-family="Helvetica,sans-Serif" font-size="10.00">dev/rtc.h</text>
</a>
</g>
</g>
<!-- Node3&#45;&gt;Node20 -->
<g id="edge39" class="edge"><title>Node3&#45;&gt;Node20</title>
<path fill="none" stroke="midnightblue" d="M613.446,-168.562C605.245,-160.511 592.697,-148.191 582.715,-138.391"/>
<polygon fill="midnightblue" stroke="midnightblue" points="584.981,-135.71 575.393,-131.201 580.077,-140.705 584.981,-135.71"/>
</g>
<!-- Node21 -->
<g id="node21" class="node"><title>Node21</title>
<g id="a_node21"><a xlink:href="spi_8h.html" target="_top" xlink:title="Serial Peripheral Interface Header File. ">
<polygon fill="none" stroke="black" points="223.028,-57 223.028,-75 279.052,-75 279.052,-57 223.028,-57"/>
<text text-anchor="middle" x="251.04" y="-63" font-family="Helvetica,sans-Serif" font-size="10.00">dev/spi.h</text>
</a>
</g>
</g>
<!-- Node3&#45;&gt;Node21 -->
<g id="edge43" class="edge"><title>Node3&#45;&gt;Node21</title>
<path fill="none" stroke="midnightblue" d="M596.189,-168.926C567.534,-159.963 519.957,-145.037 479.04,-132 451.453,-123.21 444.798,-120.234 417.04,-112 373.326,-99.0323 322.698,-85.5236 288.959,-76.7333"/>
<polygon fill="midnightblue" stroke="midnightblue" points="289.615,-73.2877 279.056,-74.1626 287.856,-80.0632 289.615,-73.2877"/>
</g>
<!-- Node22 -->
<g id="node22" class="node"><title>Node22</title>
<g id="a_node22"><a xlink:href="tmr_8h.html" target="_top" xlink:title="Timer Header File. ">
<polygon fill="none" stroke="black" points="481.473,-57 481.473,-75 538.606,-75 538.606,-57 481.473,-57"/>
<text text-anchor="middle" x="510.04" y="-63" font-family="Helvetica,sans-Serif" font-size="10.00">dev/tmr.h</text>
</a>
</g>
</g>
<!-- Node3&#45;&gt;Node22 -->
<g id="edge46" class="edge"><title>Node3&#45;&gt;Node22</title>
<path fill="none" stroke="midnightblue" d="M591.99,-168.868C572.133,-162.051 546.931,-150.413 531.04,-132 519.668,-118.824 514.433,-99.3914 512.036,-85.2071"/>
<polygon fill="midnightblue" stroke="midnightblue" points="515.486,-84.6075 510.659,-75.1764 508.551,-85.5595 515.486,-84.6075"/>
</g>
<!-- Node23 -->
<g id="node23" class="node"><title>Node23</title>
<g id="a_node23"><a xlink:href="uart_8h.html" target="_top" xlink:title="Universal Asynchronous Receiver/Transmitter Header File. ">
<polygon fill="none" stroke="black" points="656.803,-57 656.803,-75 717.276,-75 717.276,-57 656.803,-57"/>
<text text-anchor="middle" x="687.04" y="-63" font-family="Helvetica,sans-Serif" font-size="10.00">dev/uart.h</text>
</a>
</g>
</g>
<!-- Node3&#45;&gt;Node23 -->
<g id="edge49" class="edge"><title>Node3&#45;&gt;Node23</title>
<path fill="none" stroke="midnightblue" d="M626.925,-168.732C637.564,-150.727 663.005,-107.673 677.143,-83.7488"/>
<polygon fill="midnightblue" stroke="midnightblue" points="680.2,-85.4547 682.274,-75.0649 674.174,-81.8936 680.2,-85.4547"/>
</g>
<!-- Node24 -->
<g id="node24" class="node"><title>Node24</title>
<g id="a_node24"><a xlink:href="usb_8h.html" target="_top" xlink:title="Universal Serial Bus Header File. ">
<polygon fill="none" stroke="black" points="735.358,-57 735.358,-75 794.722,-75 794.722,-57 735.358,-57"/>
<text text-anchor="middle" x="765.04" y="-63" font-family="Helvetica,sans-Serif" font-size="10.00">dev/usb.h</text>
</a>
</g>
</g>
<!-- Node3&#45;&gt;Node24 -->
<g id="edge52" class="edge"><title>Node3&#45;&gt;Node24</title>
<path fill="none" stroke="midnightblue" d="M632.788,-168.732C657.026,-150.087 716.186,-104.58 746.487,-81.2714"/>
<polygon fill="midnightblue" stroke="midnightblue" points="748.763,-83.9362 754.555,-75.0649 744.495,-78.3878 748.763,-83.9362"/>
</g>
<!-- Node6&#45;&gt;Node2 -->
<g id="edge6" class="edge"><title>Node6&#45;&gt;Node2</title>
<path fill="none" stroke="midnightblue" d="M972.301,-57.7651C969.184,-57.1183 966.054,-56.5147 963.04,-56 944.98,-52.916 689.178,-24.9513 595.281,-14.7242"/>
<polygon fill="midnightblue" stroke="midnightblue" points="595.489,-11.2262 585.169,-13.6232 594.731,-18.1851 595.489,-11.2262"/>
</g>
<!-- Node7 -->
<g id="node7" class="node"><title>Node7</title>
<polygon fill="none" stroke="#bfbfbf" points="654.308,-1 654.308,-19 719.771,-19 719.771,-1 654.308,-1"/>
<text text-anchor="middle" x="687.04" y="-7" font-family="Helvetica,sans-Serif" font-size="10.00">mcu/arch.h</text>
</g>
<!-- Node6&#45;&gt;Node7 -->
<g id="edge7" class="edge"><title>Node6&#45;&gt;Node7</title>
<path fill="none" stroke="midnightblue" d="M972.272,-57.9202C969.161,-57.2432 966.04,-56.5901 963.04,-56 880.919,-39.8477 784.242,-25.0434 729.852,-17.0961"/>
<polygon fill="midnightblue" stroke="midnightblue" points="730.277,-13.6212 719.878,-15.6464 729.27,-20.5484 730.277,-13.6212"/>
</g>
<!-- Node8&#45;&gt;Node2 -->
<g id="edge9" class="edge"><title>Node8&#45;&gt;Node2</title>
<path fill="none" stroke="midnightblue" d="M439.448,-56.9157C463.458,-47.849 502.612,-33.0635 529.984,-22.7275"/>
<polygon fill="midnightblue" stroke="midnightblue" points="531.366,-25.9467 539.485,-19.1396 528.893,-19.3981 531.366,-25.9467"/>
</g>
<!-- Node8&#45;&gt;Node7 -->
<g id="edge10" class="edge"><title>Node8&#45;&gt;Node7</title>
<path fill="none" stroke="midnightblue" d="M458.021,-56.974C507.862,-46.9688 592.716,-29.9349 643.959,-19.6482"/>
<polygon fill="midnightblue" stroke="midnightblue" points="644.933,-23.0225 654.049,-17.6227 643.555,-16.1594 644.933,-23.0225"/>
</g>
<!-- Node9&#45;&gt;Node2 -->
<g id="edge12" class="edge"><title>Node9&#45;&gt;Node2</title>
<path fill="none" stroke="midnightblue" d="M149.059,-112.672C140.083,-99.0745 125.64,-72.021 140.04,-56 165.763,-27.3805 431.085,-15.4724 526.826,-12.0855"/>
<polygon fill="midnightblue" stroke="midnightblue" points="526.983,-15.5822 536.856,-11.7401 526.742,-8.58638 526.983,-15.5822"/>
</g>
<!-- Node9&#45;&gt;Node7 -->
<g id="edge13" class="edge"><title>Node9&#45;&gt;Node7</title>
<path fill="none" stroke="midnightblue" d="M176.688,-112.977C214.288,-99.3362 294.323,-71.5882 364.04,-56 416.547,-44.2596 569.125,-25.1482 644.241,-16.0819"/>
<polygon fill="midnightblue" stroke="midnightblue" points="644.798,-19.5403 654.308,-14.871 643.962,-12.5904 644.798,-19.5403"/>
</g>
<!-- Node9&#45;&gt;Node10 -->
<g id="edge14" class="edge"><title>Node9&#45;&gt;Node10</title>
<path fill="none" stroke="midnightblue" d="M139.548,-112.799C123.052,-104.065 96.7172,-90.1234 77.4323,-79.9137"/>
<polygon fill="midnightblue" stroke="midnightblue" points="78.8185,-76.6874 68.3429,-75.1017 75.5432,-82.8739 78.8185,-76.6874"/>
</g>
<!-- Node10&#45;&gt;Node2 -->
<g id="edge16" class="edge"><title>Node10&#45;&gt;Node2</title>
<path fill="none" stroke="midnightblue" d="M93.3932,-57.9741C97.9892,-57.2632 102.612,-56.5878 107.04,-56 263.074,-35.2874 450.439,-19.615 526.466,-13.6391"/>
<polygon fill="midnightblue" stroke="midnightblue" points="527.16,-17.0957 536.858,-12.8284 526.616,-10.1169 527.16,-17.0957"/>
</g>
<!-- Node10&#45;&gt;Node7 -->
<g id="edge17" class="edge"><title>Node10&#45;&gt;Node7</title>
<path fill="none" stroke="midnightblue" d="M93.3024,-60.6318C108.003,-59.0905 124.767,-57.3953 140.04,-56 341.611,-37.5847 392.408,-37.7492 594.04,-20 610.344,-18.5648 628.243,-16.8628 643.946,-15.3274"/>
<polygon fill="midnightblue" stroke="midnightblue" points="644.301,-18.8094 653.91,-14.3468 643.616,-11.8431 644.301,-18.8094"/>
</g>
<!-- Node11 -->
<g id="node11" class="node"><title>Node11</title>
<polygon fill="none" stroke="#bfbfbf" points="24.7468,-1 24.7468,-19 81.3327,-19 81.3327,-1 24.7468,-1"/>
<text text-anchor="middle" x="53.0397" y="-7" font-family="Helvetica,sans-Serif" font-size="10.00">stdbool.h</text>
</g>
<!-- Node10&#45;&gt;Node11 -->
<g id="edge15" class="edge"><title>Node10&#45;&gt;Node11</title>
<path fill="none" stroke="midnightblue" d="M53.0397,-56.5625C53.0397,-49.308 53.0397,-38.5884 53.0397,-29.3691"/>
<polygon fill="midnightblue" stroke="midnightblue" points="56.5398,-29.2014 53.0397,-19.2014 49.5398,-29.2015 56.5398,-29.2014"/>
</g>
<!-- Node13&#45;&gt;Node2 -->
<g id="edge21" class="edge"><title>Node13&#45;&gt;Node2</title>
<path fill="none" stroke="midnightblue" d="M812.258,-57.9887C809.149,-57.2983 806.033,-56.6234 803.04,-56 729.334,-40.6501 642.464,-25.1153 595.455,-16.9199"/>
<polygon fill="midnightblue" stroke="midnightblue" points="595.948,-13.4531 585.496,-15.1896 594.749,-20.3498 595.948,-13.4531"/>
</g>
<!-- Node13&#45;&gt;Node7 -->
<g id="edge22" class="edge"><title>Node13&#45;&gt;Node7</title>
<path fill="none" stroke="midnightblue" d="M818.835,-56.9157C792.506,-47.743 749.376,-32.7171 719.667,-22.3669"/>
<polygon fill="midnightblue" stroke="midnightblue" points="720.745,-19.0361 710.15,-19.0513 718.442,-25.6465 720.745,-19.0361"/>
</g>
<!-- Node14&#45;&gt;Node2 -->
<g id="edge24" class="edge"><title>Node14&#45;&gt;Node2</title>
<path fill="none" stroke="midnightblue" d="M1206.32,-57.6211C1203.2,-57.0024 1200.06,-56.4447 1197.04,-56 953.8,-20.2419 889.987,-41.1004 645.04,-20 628.655,-18.5886 610.509,-16.687 595.288,-14.9955"/>
<polygon fill="midnightblue" stroke="midnightblue" points="595.604,-11.509 585.275,-13.8665 594.819,-18.4649 595.604,-11.509"/>
</g>
<!-- Node14&#45;&gt;Node7 -->
<g id="edge25" class="edge"><title>Node14&#45;&gt;Node7</title>
<path fill="none" stroke="midnightblue" d="M1206.31,-57.6923C1203.19,-57.0597 1200.06,-56.4793 1197.04,-56 1025.37,-28.7536 818.384,-16.8752 730.204,-12.7847"/>
<polygon fill="midnightblue" stroke="midnightblue" points="730.198,-9.28096 720.05,-12.324 729.881,-16.2738 730.198,-9.28096"/>
</g>
<!-- Node15 -->
<g id="node15" class="node"><title>Node15</title>
<polygon fill="none" stroke="#bfbfbf" points="1206.36,-1 1206.36,-19 1265.72,-19 1265.72,-1 1206.36,-1"/>
<text text-anchor="middle" x="1236.04" y="-7" font-family="Helvetica,sans-Serif" font-size="10.00">mcu/pio.h</text>
</g>
<!-- Node14&#45;&gt;Node15 -->
<g id="edge26" class="edge"><title>Node14&#45;&gt;Node15</title>
<path fill="none" stroke="midnightblue" d="M1236.04,-56.5625C1236.04,-49.308 1236.04,-38.5884 1236.04,-29.3691"/>
<polygon fill="midnightblue" stroke="midnightblue" points="1239.54,-29.2014 1236.04,-19.2014 1232.54,-29.2015 1239.54,-29.2014"/>
</g>
<!-- Node16&#45;&gt;Node2 -->
<g id="edge28" class="edge"><title>Node16&#45;&gt;Node2</title>
<path fill="none" stroke="midnightblue" d="M889.525,-57.7944C886.326,-57.1571 883.124,-56.5472 880.04,-56 777.131,-37.7393 654.485,-22.16 595.75,-15.0774"/>
<polygon fill="midnightblue" stroke="midnightblue" points="595.891,-11.5694 585.546,-13.8551 595.059,-18.5197 595.891,-11.5694"/>
</g>
<!-- Node16&#45;&gt;Node7 -->
<g id="edge29" class="edge"><title>Node16&#45;&gt;Node7</title>
<path fill="none" stroke="midnightblue" d="M889.857,-57.6048C848.369,-48.0715 776.094,-31.4635 729.962,-20.8629"/>
<polygon fill="midnightblue" stroke="midnightblue" points="730.498,-17.3949 719.968,-18.5664 728.93,-24.2171 730.498,-17.3949"/>
</g>
<!-- Node17&#45;&gt;Node2 -->
<g id="edge31" class="edge"><title>Node17&#45;&gt;Node2</title>
<path fill="none" stroke="midnightblue" d="M1049.91,-57.8683C1046.59,-57.1679 1043.25,-56.524 1040.04,-56 866.057,-27.6151 820.463,-37.3905 645.04,-20 628.675,-18.3777 610.531,-16.45 595.306,-14.7956"/>
<polygon fill="midnightblue" stroke="midnightblue" points="595.611,-11.3081 585.29,-13.701 594.851,-18.2667 595.611,-11.3081"/>
</g>
<!-- Node17&#45;&gt;Node7 -->
<g id="edge32" class="edge"><title>Node17&#45;&gt;Node7</title>
<path fill="none" stroke="midnightblue" d="M1049.89,-57.9824C1046.58,-57.2615 1043.24,-56.5816 1040.04,-56 928.969,-35.8256 796.614,-21.525 729.946,-14.9912"/>
<polygon fill="midnightblue" stroke="midnightblue" points="730.115,-11.4913 719.824,-14.0096 729.439,-18.4586 730.115,-11.4913"/>
</g>
<!-- Node18&#45;&gt;Node2 -->
<g id="edge34" class="edge"><title>Node18&#45;&gt;Node2</title>
<path fill="none" stroke="midnightblue" d="M1123.44,-57.4141C1120.61,-56.8857 1117.78,-56.4036 1115.04,-56 907.776,-25.4664 853.662,-39.1616 645.04,-20 628.664,-18.4959 610.518,-16.5828 595.296,-14.9076"/>
<polygon fill="midnightblue" stroke="midnightblue" points="595.607,-11.4207 585.281,-13.7938 594.833,-18.3778 595.607,-11.4207"/>
</g>
<!-- Node18&#45;&gt;Node7 -->
<g id="edge35" class="edge"><title>Node18&#45;&gt;Node7</title>
<path fill="none" stroke="midnightblue" d="M1123.43,-57.4983C1120.6,-56.9517 1117.77,-56.4423 1115.04,-56 975.211,-33.3743 807.758,-19.5807 730.282,-13.9464"/>
<polygon fill="midnightblue" stroke="midnightblue" points="730.184,-10.4304 719.959,-13.2054 729.683,-17.4125 730.184,-10.4304"/>
</g>
<!-- Node19&#45;&gt;Node2 -->
<g id="edge37" class="edge"><title>Node19&#45;&gt;Node2</title>
<path fill="none" stroke="midnightblue" d="M205.656,-57.711C208.48,-57.0906 211.31,-56.5074 214.04,-56 327.803,-34.8532 464.382,-20.2621 526.841,-14.1786"/>
<polygon fill="midnightblue" stroke="midnightblue" points="527.3,-17.6507 536.918,-13.2085 526.629,-10.6829 527.3,-17.6507"/>
</g>
<!-- Node19&#45;&gt;Node7 -->
<g id="edge38" class="edge"><title>Node19&#45;&gt;Node7</title>
<path fill="none" stroke="midnightblue" d="M205.639,-57.6121C208.466,-57.0117 211.302,-56.4603 214.04,-56 381.338,-27.879 425.167,-36.1705 594.04,-20 610.332,-18.4399 628.229,-16.7115 643.934,-15.1898"/>
<polygon fill="midnightblue" stroke="midnightblue" points="644.283,-18.6724 653.899,-14.2236 643.608,-11.7051 644.283,-18.6724"/>
</g>
<!-- Node20&#45;&gt;Node2 -->
<g id="edge41" class="edge"><title>Node20&#45;&gt;Node2</title>
<path fill="none" stroke="midnightblue" d="M539.78,-119.069C489.612,-114.887 385.788,-103.097 364.04,-76 319.853,-20.945 458.826,-12.0917 526.381,-10.9656"/>
<polygon fill="midnightblue" stroke="midnightblue" points="526.613,-14.4632 536.571,-10.8453 526.53,-7.46368 526.613,-14.4632"/>
</g>
<!-- Node20&#45;&gt;Node5 -->
<g id="edge40" class="edge"><title>Node20&#45;&gt;Node5</title>
<path fill="none" stroke="midnightblue" d="M574.852,-112.562C582.234,-104.591 593.49,-92.4341 602.519,-82.6825"/>
<polygon fill="midnightblue" stroke="midnightblue" points="605.22,-84.917 609.446,-75.2014 600.084,-80.1611 605.22,-84.917"/>
</g>
<!-- Node20&#45;&gt;Node7 -->
<g id="edge42" class="edge"><title>Node20&#45;&gt;Node7</title>
<path fill="none" stroke="midnightblue" d="M567.298,-112.772C568.142,-99.3195 571.653,-72.469 586.04,-56 601.126,-38.7307 624.124,-27.7798 644.365,-21.0108"/>
<polygon fill="midnightblue" stroke="midnightblue" points="645.518,-24.3178 654.034,-18.0144 643.446,-17.6315 645.518,-24.3178"/>
</g>
<!-- Node21&#45;&gt;Node2 -->
<g id="edge44" class="edge"><title>Node21&#45;&gt;Node2</title>
<path fill="none" stroke="midnightblue" d="M279.471,-58.7276C284.003,-57.7797 288.645,-56.8394 293.04,-56 376.539,-40.0517 475.263,-24.2608 526.416,-16.3065"/>
<polygon fill="midnightblue" stroke="midnightblue" points="527.24,-19.7206 536.586,-14.7308 526.168,-12.8031 527.24,-19.7206"/>
</g>
<!-- Node21&#45;&gt;Node7 -->
<g id="edge45" class="edge"><title>Node21&#45;&gt;Node7</title>
<path fill="none" stroke="midnightblue" d="M279.311,-61.4985C353.732,-52.2812 555.423,-27.3012 644.159,-16.3109"/>
<polygon fill="midnightblue" stroke="midnightblue" points="644.659,-19.7758 654.153,-15.0731 643.799,-12.8289 644.659,-19.7758"/>
</g>
<!-- Node22&#45;&gt;Node2 -->
<g id="edge47" class="edge"><title>Node22&#45;&gt;Node2</title>
<path fill="none" stroke="midnightblue" d="M518.008,-56.5625C525.538,-48.5905 537.019,-36.4341 546.228,-26.6825"/>
<polygon fill="midnightblue" stroke="midnightblue" points="548.972,-28.8748 553.294,-19.2014 543.883,-24.0684 548.972,-28.8748"/>
</g>
<!-- Node22&#45;&gt;Node7 -->
<g id="edge48" class="edge"><title>Node22&#45;&gt;Node7</title>
<path fill="none" stroke="midnightblue" d="M536.538,-56.9157C566.866,-47.6633 616.714,-32.4553 650.663,-22.098"/>
<polygon fill="midnightblue" stroke="midnightblue" points="652.106,-25.3171 660.649,-19.0513 650.063,-18.6218 652.106,-25.3171"/>
</g>
<!-- Node23&#45;&gt;Node2 -->
<g id="edge50" class="edge"><title>Node23&#45;&gt;Node2</title>
<path fill="none" stroke="midnightblue" d="M668.176,-56.9157C647.299,-47.9683 613.427,-33.4516 589.361,-23.1378"/>
<polygon fill="midnightblue" stroke="midnightblue" points="590.602,-19.8619 580.032,-19.1396 587.845,-26.2959 590.602,-19.8619"/>
</g>
<!-- Node23&#45;&gt;Node7 -->
<g id="edge51" class="edge"><title>Node23&#45;&gt;Node7</title>
<path fill="none" stroke="midnightblue" d="M687.04,-56.5625C687.04,-49.308 687.04,-38.5884 687.04,-29.3691"/>
<polygon fill="midnightblue" stroke="midnightblue" points="690.54,-29.2014 687.04,-19.2014 683.54,-29.2015 690.54,-29.2014"/>
</g>
<!-- Node24&#45;&gt;Node2 -->
<g id="edge53" class="edge"><title>Node24&#45;&gt;Node2</title>
<path fill="none" stroke="midnightblue" d="M734.939,-57.0321C697.6,-47.1483 634.108,-30.3415 595.046,-20.0016"/>
<polygon fill="midnightblue" stroke="midnightblue" points="595.758,-16.5696 585.195,-17.3941 593.966,-23.3365 595.758,-16.5696"/>
</g>
<!-- Node24&#45;&gt;Node7 -->
<g id="edge54" class="edge"><title>Node24&#45;&gt;Node7</title>
<path fill="none" stroke="midnightblue" d="M753.193,-56.7986C740.982,-48.3446 721.72,-35.0093 707.123,-24.9039"/>
<polygon fill="midnightblue" stroke="midnightblue" points="708.956,-21.9161 698.742,-19.1017 704.972,-27.6715 708.956,-21.9161"/>
</g>
</g>
</svg>
