<?xml version="1.0" encoding="UTF-8" standalone="no"?>
<!DOCTYPE svg PUBLIC "-//W3C//DTD SVG 1.1//EN"
 "http://www.w3.org/Graphics/SVG/1.1/DTD/svg11.dtd">
<!-- Generated by graphviz version 2.36.0 (20140111.2315)
 -->
<!-- Title: include/iface/dev/uartfifo.h Pages: 1 -->
<svg width="228pt" height="140pt"
 viewBox="0.00 0.00 228.00 140.00" xmlns="http://www.w3.org/2000/svg" xmlns:xlink="http://www.w3.org/1999/xlink">
<g id="graph0" class="graph" transform="scale(1 1) rotate(0) translate(4 136)">
<title>include/iface/dev/uartfifo.h</title>
<!-- Node1 -->
<g id="node1" class="node"><title>Node1</title>
<polygon fill="#bfbfbf" stroke="black" points="45.9092,-113 45.9092,-131 178.091,-131 178.091,-113 45.9092,-113"/>
<text text-anchor="middle" x="112" y="-119" font-family="Helvetica,sans-Serif" font-size="10.00">include/iface/dev/uartfifo.h</text>
</g>
<!-- Node2 -->
<g id="node2" class="node"><title>Node2</title>
<polygon fill="none" stroke="#bfbfbf" points="87.8794,-1 87.8794,-19 136.121,-19 136.121,-1 87.8794,-1"/>
<text text-anchor="middle" x="112" y="-7" font-family="Helvetica,sans-Serif" font-size="10.00">stdint.h</text>
</g>
<!-- Node1&#45;&gt;Node2 -->
<g id="edge1" class="edge"><title>Node1&#45;&gt;Node2</title>
<path fill="none" stroke="midnightblue" d="M112,-112.732C112,-95.1275 112,-53.5746 112,-29.3716"/>
<polygon fill="midnightblue" stroke="midnightblue" points="115.5,-29.0648 112,-19.0649 108.5,-29.0649 115.5,-29.0648"/>
</g>
<!-- Node3 -->
<g id="node3" class="node"><title>Node3</title>
<g id="a_node3"><a xlink:href="uart_8h.html" target="_top" xlink:title="Universal Asynchronous Receiver/Transmitter Header File. ">
<polygon fill="none" stroke="black" points="-0.187012,-57 -0.187012,-75 84.187,-75 84.187,-57 -0.187012,-57"/>
<text text-anchor="middle" x="42" y="-63" font-family="Helvetica,sans-Serif" font-size="10.00">iface/dev/uart.h</text>
</a>
</g>
</g>
<!-- Node1&#45;&gt;Node3 -->
<g id="edge2" class="edge"><title>Node1&#45;&gt;Node3</title>
<path fill="none" stroke="midnightblue" d="M101.369,-112.799C90.6786,-104.552 73.9678,-91.6608 60.9953,-81.6535"/>
<polygon fill="midnightblue" stroke="midnightblue" points="62.7872,-78.6154 52.7315,-75.2786 58.5116,-84.1579 62.7872,-78.6154"/>
</g>
<!-- Node5 -->
<g id="node5" class="node"><title>Node5</title>
<g id="a_node5"><a xlink:href="fifo_8h.html" target="_top" xlink:title="fifo.h">
<polygon fill="none" stroke="black" points="140.16,-57 140.16,-75 177.84,-75 177.84,-57 140.16,-57"/>
<text text-anchor="middle" x="159" y="-63" font-family="Helvetica,sans-Serif" font-size="10.00">fifo.h</text>
</a>
</g>
</g>
<!-- Node1&#45;&gt;Node5 -->
<g id="edge5" class="edge"><title>Node1&#45;&gt;Node5</title>
<path fill="none" stroke="midnightblue" d="M119.344,-112.562C126.213,-104.67 136.652,-92.6768 145.095,-82.9758"/>
<polygon fill="midnightblue" stroke="midnightblue" points="147.937,-85.0424 151.862,-75.2014 142.656,-80.4467 147.937,-85.0424"/>
</g>
<!-- Node3&#45;&gt;Node2 -->
<g id="edge3" class="edge"><title>Node3&#45;&gt;Node2</title>
<path fill="none" stroke="midnightblue" d="M52.6315,-56.7986C63.3214,-48.552 80.0322,-35.6608 93.0047,-25.6535"/>
<polygon fill="midnightblue" stroke="midnightblue" points="95.4884,-28.1579 101.268,-19.2786 91.2128,-22.6154 95.4884,-28.1579"/>
</g>
<!-- Node4 -->
<g id="node4" class="node"><title>Node4</title>
<polygon fill="none" stroke="#bfbfbf" points="4.26855,-1 4.26855,-19 69.7314,-19 69.7314,-1 4.26855,-1"/>
<text text-anchor="middle" x="37" y="-7" font-family="Helvetica,sans-Serif" font-size="10.00">mcu/arch.h</text>
</g>
<!-- Node3&#45;&gt;Node4 -->
<g id="edge4" class="edge"><title>Node3&#45;&gt;Node4</title>
<path fill="none" stroke="midnightblue" d="M41.2188,-56.5625C40.547,-49.308 39.5545,-38.5884 38.7008,-29.3691"/>
<polygon fill="midnightblue" stroke="midnightblue" points="42.1666,-28.8361 37.7594,-19.2014 35.1964,-29.4816 42.1666,-28.8361"/>
</g>
<!-- Node5&#45;&gt;Node2 -->
<g id="edge7" class="edge"><title>Node5&#45;&gt;Node2</title>
<path fill="none" stroke="midnightblue" d="M151.656,-56.5625C144.787,-48.6703 134.348,-36.6768 125.905,-26.9758"/>
<polygon fill="midnightblue" stroke="midnightblue" points="128.344,-24.4467 119.138,-19.2014 123.063,-29.0424 128.344,-24.4467"/>
</g>
<!-- Node6 -->
<g id="node6" class="node"><title>Node6</title>
<polygon fill="none" stroke="#bfbfbf" points="153.99,-1 153.99,-19 220.01,-19 220.01,-1 153.99,-1"/>
<text text-anchor="middle" x="187" y="-7" font-family="Helvetica,sans-Serif" font-size="10.00">sys/types.h</text>
</g>
<!-- Node5&#45;&gt;Node6 -->
<g id="edge6" class="edge"><title>Node5&#45;&gt;Node6</title>
<path fill="none" stroke="midnightblue" d="M163.375,-56.5625C167.302,-48.9891 173.187,-37.6393 178.101,-28.1625"/>
<polygon fill="midnightblue" stroke="midnightblue" points="181.251,-29.6901 182.747,-19.2014 175.037,-26.4679 181.251,-29.6901"/>
</g>
</g>
</svg>
