<?xml version="1.0" encoding="UTF-8" standalone="no"?>
<!DOCTYPE svg PUBLIC "-//W3C//DTD SVG 1.1//EN"
 "http://www.w3.org/Graphics/SVG/1.1/DTD/svg11.dtd">
<!-- Generated by graphviz version 2.36.0 (20140111.2315)
 -->
<!-- Title: src/sys/unistd/usleep.c Pages: 1 -->
<svg width="410pt" height="84pt"
 viewBox="0.00 0.00 410.00 84.00" xmlns="http://www.w3.org/2000/svg" xmlns:xlink="http://www.w3.org/1999/xlink">
<g id="graph0" class="graph" transform="scale(1 1) rotate(0) translate(4 80)">
<title>src/sys/unistd/usleep.c</title>
<!-- Node1 -->
<g id="node1" class="node"><title>Node1</title>
<polygon fill="#bfbfbf" stroke="black" points="94.7021,-57 94.7021,-75 211.298,-75 211.298,-57 94.7021,-57"/>
<text text-anchor="middle" x="153" y="-63" font-family="Helvetica,sans-Serif" font-size="10.00">src/sys/unistd/usleep.c</text>
</g>
<!-- Node2 -->
<g id="node2" class="node"><title>Node2</title>
<polygon fill="none" stroke="#bfbfbf" points="-0.512207,-1 -0.512207,-19 50.5122,-19 50.5122,-1 -0.512207,-1"/>
<text text-anchor="middle" x="25" y="-7" font-family="Helvetica,sans-Serif" font-size="10.00">unistd.h</text>
</g>
<!-- Node1&#45;&gt;Node2 -->
<g id="edge1" class="edge"><title>Node1&#45;&gt;Node2</title>
<path fill="none" stroke="midnightblue" d="M133.837,-56.9157C112.629,-47.9683 78.2186,-33.4516 53.771,-23.1378"/>
<polygon fill="midnightblue" stroke="midnightblue" points="54.868,-19.8019 44.2939,-19.1396 52.1471,-26.2515 54.868,-19.8019"/>
</g>
<!-- Node3 -->
<g id="node3" class="node"><title>Node3</title>
<polygon fill="none" stroke="#bfbfbf" points="68.3843,-1 68.3843,-19 111.616,-19 111.616,-1 68.3843,-1"/>
<text text-anchor="middle" x="90" y="-7" font-family="Helvetica,sans-Serif" font-size="10.00">time.h</text>
</g>
<!-- Node1&#45;&gt;Node3 -->
<g id="edge2" class="edge"><title>Node1&#45;&gt;Node3</title>
<path fill="none" stroke="midnightblue" d="M143.432,-56.7986C133.903,-48.6313 119.06,-35.9083 107.433,-25.943"/>
<polygon fill="midnightblue" stroke="midnightblue" points="109.529,-23.1292 99.6584,-19.2786 104.973,-28.444 109.529,-23.1292"/>
</g>
<!-- Node4 -->
<g id="node4" class="node"><title>Node4</title>
<polygon fill="none" stroke="#bfbfbf" points="129.158,-1 129.158,-19 176.842,-19 176.842,-1 129.158,-1"/>
<text text-anchor="middle" x="153" y="-7" font-family="Helvetica,sans-Serif" font-size="10.00">errno.h</text>
</g>
<!-- Node1&#45;&gt;Node4 -->
<g id="edge3" class="edge"><title>Node1&#45;&gt;Node4</title>
<path fill="none" stroke="midnightblue" d="M153,-56.5625C153,-49.308 153,-38.5884 153,-29.3691"/>
<polygon fill="midnightblue" stroke="midnightblue" points="156.5,-29.2014 153,-19.2014 149.5,-29.2015 156.5,-29.2014"/>
</g>
<!-- Node5 -->
<g id="node5" class="node"><title>Node5</title>
<polygon fill="none" stroke="#bfbfbf" points="195.091,-1 195.091,-19 268.909,-19 268.909,-1 195.091,-1"/>
<text text-anchor="middle" x="232" y="-7" font-family="Helvetica,sans-Serif" font-size="10.00">mcu/debug.h</text>
</g>
<!-- Node1&#45;&gt;Node5 -->
<g id="edge4" class="edge"><title>Node1&#45;&gt;Node5</title>
<path fill="none" stroke="midnightblue" d="M164.998,-56.7986C177.366,-48.3446 196.875,-35.0093 211.659,-24.9039"/>
<polygon fill="midnightblue" stroke="midnightblue" points="213.867,-27.6343 220.148,-19.1017 209.917,-21.8553 213.867,-27.6343"/>
</g>
<!-- Node6 -->
<g id="node6" class="node"><title>Node6</title>
<polygon fill="none" stroke="#bfbfbf" points="287.247,-1 287.247,-19 402.753,-19 402.753,-1 287.247,-1"/>
<text text-anchor="middle" x="345" y="-7" font-family="Helvetica,sans-Serif" font-size="10.00">../sched/sched_flags.h</text>
</g>
<!-- Node1&#45;&gt;Node6 -->
<g id="edge5" class="edge"><title>Node1&#45;&gt;Node6</title>
<path fill="none" stroke="midnightblue" d="M181.744,-56.9157C214.925,-47.5835 269.648,-32.1927 306.489,-21.8312"/>
<polygon fill="midnightblue" stroke="midnightblue" points="307.694,-25.1281 316.373,-19.0513 305.799,-18.3895 307.694,-25.1281"/>
</g>
</g>
</svg>
