<?xml version="1.0" encoding="UTF-8"?>
<!DOCTYPE svg PUBLIC "-//W3C//DTD SVG 1.1//EN" "http://www.w3.org/Graphics/SVG/1.1/DTD/svg11.dtd">
<svg version="1.2" width="222.25mm" height="120.65mm" viewBox="0 0 22225 12065" preserveAspectRatio="xMidYMid" fill-rule="evenodd" clip-path="url(#presentation_clip_path)" stroke-width="28.222" stroke-linejoin="round" xmlns="http://www.w3.org/2000/svg" xmlns:ooo="http://xml.openoffice.org/svg/export" xmlns:xlink="http://www.w3.org/1999/xlink" xml:space="preserve">
 <defs class="ClipPathGroup">
  <clipPath id="presentation_clip_path" clipPathUnits="userSpaceOnUse">
   <rect x="0" y="0" width="22225" height="12065"/>
  </clipPath>
 </defs>
 <defs class="TextShapeIndex">
  <g ooo:slide="id1" ooo:id-list="id3 id4 id5 id6 id7 id8 id9 id10 id11 id12 id13 id14 id15 id16 id17 id18 id19 id20 id21 id22 id23 id24 id25 id26 id27 id28 id29 id30 id31 id32 id33 id34 id35 id36 id37 id38 id39 id40"/>
 </defs>
 <defs class="EmbeddedBulletChars">
  <g id="bullet-char-template(57356)" transform="scale(0.00048828125,-0.00048828125)">
   <path d="M 580,1141 L 1163,571 580,0 -4,571 580,1141 Z"/>
  </g>
  <g id="bullet-char-template(57354)" transform="scale(0.00048828125,-0.00048828125)">
   <path d="M 8,1128 L 1137,1128 1137,0 8,0 8,1128 Z"/>
  </g>
  <g id="bullet-char-template(10146)" transform="scale(0.00048828125,-0.00048828125)">
   <path d="M 174,0 L 602,739 174,1481 1456,739 174,0 Z M 1358,739 L 309,1346 659,739 1358,739 Z"/>
  </g>
  <g id="bullet-char-template(10132)" transform="scale(0.00048828125,-0.00048828125)">
   <path d="M 2015,739 L 1276,0 717,0 1260,543 174,543 174,936 1260,936 717,1481 1274,1481 2015,739 Z"/>
  </g>
  <g id="bullet-char-template(10007)" transform="scale(0.00048828125,-0.00048828125)">
   <path d="M 0,-2 C -7,14 -16,27 -25,37 L 356,567 C 262,823 215,952 215,954 215,979 228,992 255,992 264,992 276,990 289,987 310,991 331,999 354,1012 L 381,999 492,748 772,1049 836,1024 860,1049 C 881,1039 901,1025 922,1006 886,937 835,863 770,784 769,783 710,716 594,584 L 774,223 C 774,196 753,168 711,139 L 727,119 C 717,90 699,76 672,76 641,76 570,178 457,381 L 164,-76 C 142,-110 111,-127 72,-127 30,-127 9,-110 8,-76 1,-67 -2,-52 -2,-32 -2,-23 -1,-13 0,-2 Z"/>
  </g>
  <g id="bullet-char-template(10004)" transform="scale(0.00048828125,-0.00048828125)">
   <path d="M 285,-33 C 182,-33 111,30 74,156 52,228 41,333 41,471 41,549 55,616 82,672 116,743 169,778 240,778 293,778 328,747 346,684 L 369,508 C 377,444 397,411 428,410 L 1163,1116 C 1174,1127 1196,1133 1229,1133 1271,1133 1292,1118 1292,1087 L 1292,965 C 1292,929 1282,901 1262,881 L 442,47 C 390,-6 338,-33 285,-33 Z"/>
  </g>
  <g id="bullet-char-template(9679)" transform="scale(0.00048828125,-0.00048828125)">
   <path d="M 813,0 C 632,0 489,54 383,161 276,268 223,411 223,592 223,773 276,916 383,1023 489,1130 632,1184 813,1184 992,1184 1136,1130 1245,1023 1353,916 1407,772 1407,592 1407,412 1353,268 1245,161 1136,54 992,0 813,0 Z"/>
  </g>
  <g id="bullet-char-template(8226)" transform="scale(0.00048828125,-0.00048828125)">
   <path d="M 346,457 C 273,457 209,483 155,535 101,586 74,649 74,723 74,796 101,859 155,911 209,963 273,989 346,989 419,989 480,963 531,910 582,859 608,796 608,723 608,648 583,586 532,535 482,483 420,457 346,457 Z"/>
  </g>
  <g id="bullet-char-template(8211)" transform="scale(0.00048828125,-0.00048828125)">
   <path d="M -4,459 L 1135,459 1135,606 -4,606 -4,459 Z"/>
  </g>
 </defs>
 <defs class="TextEmbeddedBitmaps"/>
 <g>
  <g id="id2" class="Master_Slide">
   <g id="bg-id2" class="Background"/>
   <g id="bo-id2" class="BackgroundObjects"/>
  </g>
 </g>
 <g class="SlideGroup">
  <g>
   <g id="id1" class="Slide" clip-path="url(#presentation_clip_path)">
    <g class="Page">
     <g class="com.sun.star.drawing.CustomShape">
      <g id="id3">
       <path fill="none" stroke="rgb(0,0,0)" d="M 13652,9091 L 14204,9091"/>
       <path fill="none" stroke="rgb(0,0,0)" d="M 13652,10058 L 14204,10058"/>
       <path fill="none" stroke="rgb(0,0,0)" d="M 13652,8626 L 13652,8626 Z"/>
       <path fill="none" stroke="rgb(0,0,0)" d="M 16653,10524 L 16653,10524 Z"/>
       <path fill="none" stroke="rgb(0,0,0)" d="M 14055,8626 C 14309,9109 14309,10040 14055,10524"/>
       <path fill="none" stroke="rgb(0,0,0)" d="M 13652,8626 L 13652,8626 Z"/>
       <path fill="none" stroke="rgb(0,0,0)" d="M 16653,10524 L 16653,10524 Z"/>
       <path fill="none" stroke="rgb(0,0,0)" d="M 14055,8626 L 14995,8626"/>
       <path fill="none" stroke="rgb(0,0,0)" d="M 13652,8626 L 13652,8626 Z"/>
       <path fill="none" stroke="rgb(0,0,0)" d="M 16653,10524 L 16653,10524 Z"/>
       <path fill="none" stroke="rgb(0,0,0)" d="M 14995,8626 C 15742,8626 16115,9306 16205,9574"/>
       <path fill="none" stroke="rgb(0,0,0)" d="M 13652,8626 L 13652,8626 Z"/>
       <path fill="none" stroke="rgb(0,0,0)" d="M 16653,10524 L 16653,10524 Z"/>
       <path fill="none" stroke="rgb(0,0,0)" d="M 14055,10524 L 14995,10524"/>
       <path fill="none" stroke="rgb(0,0,0)" d="M 13652,8626 L 13652,8626 Z"/>
       <path fill="none" stroke="rgb(0,0,0)" d="M 16653,10524 L 16653,10524 Z"/>
       <path fill="none" stroke="rgb(0,0,0)" d="M 14995,10524 C 15742,10524 16115,9843 16205,9574"/>
       <path fill="none" stroke="rgb(0,0,0)" d="M 13652,8626 L 13652,8626 Z"/>
       <path fill="none" stroke="rgb(0,0,0)" d="M 16653,10524 L 16653,10524 Z"/>
       <path fill="none" stroke="rgb(0,0,0)" d="M 16205,9574 L 16653,9574"/>
       <path fill="none" stroke="rgb(0,0,0)" d="M 13652,8626 L 13652,8626 Z"/>
       <path fill="none" stroke="rgb(0,0,0)" d="M 16653,10524 L 16653,10524 Z"/>
      </g>
     </g>
     <g class="com.sun.star.drawing.CustomShape">
      <g id="id4">
       <path fill="none" stroke="rgb(0,0,0)" d="M 4937,1148 L 5489,1148"/>
       <path fill="none" stroke="rgb(0,0,0)" d="M 4937,2119 L 5489,2119"/>
       <path fill="none" stroke="rgb(0,0,0)" d="M 4937,681 L 4937,681 Z"/>
       <path fill="none" stroke="rgb(0,0,0)" d="M 7938,2587 L 7938,2587 Z"/>
       <path fill="none" stroke="rgb(0,0,0)" d="M 5340,681 C 5594,1166 5594,2101 5340,2587"/>
       <path fill="none" stroke="rgb(0,0,0)" d="M 4937,681 L 4937,681 Z"/>
       <path fill="none" stroke="rgb(0,0,0)" d="M 7938,2587 L 7938,2587 Z"/>
       <path fill="none" stroke="rgb(0,0,0)" d="M 5220,681 C 5474,1166 5474,2101 5220,2587"/>
       <path fill="none" stroke="rgb(0,0,0)" d="M 4937,681 L 4937,681 Z"/>
       <path fill="none" stroke="rgb(0,0,0)" d="M 7938,2587 L 7938,2587 Z"/>
       <path fill="none" stroke="rgb(0,0,0)" d="M 5340,681 L 6280,681"/>
       <path fill="none" stroke="rgb(0,0,0)" d="M 4937,681 L 4937,681 Z"/>
       <path fill="none" stroke="rgb(0,0,0)" d="M 7938,2587 L 7938,2587 Z"/>
       <path fill="none" stroke="rgb(0,0,0)" d="M 6280,681 C 7027,681 7400,1364 7490,1633"/>
       <path fill="none" stroke="rgb(0,0,0)" d="M 4937,681 L 4937,681 Z"/>
       <path fill="none" stroke="rgb(0,0,0)" d="M 7938,2587 L 7938,2587 Z"/>
       <path fill="none" stroke="rgb(0,0,0)" d="M 5340,2587 L 6280,2587"/>
       <path fill="none" stroke="rgb(0,0,0)" d="M 4937,681 L 4937,681 Z"/>
       <path fill="none" stroke="rgb(0,0,0)" d="M 7938,2587 L 7938,2587 Z"/>
       <path fill="none" stroke="rgb(0,0,0)" d="M 6280,2587 C 7027,2587 7400,1903 7490,1633"/>
       <path fill="none" stroke="rgb(0,0,0)" d="M 4937,681 L 4937,681 Z"/>
       <path fill="none" stroke="rgb(0,0,0)" d="M 7938,2587 L 7938,2587 Z"/>
       <path fill="none" stroke="rgb(0,0,0)" d="M 7490,1633 L 7938,1633"/>
       <path fill="none" stroke="rgb(0,0,0)" d="M 4937,681 L 4937,681 Z"/>
       <path fill="none" stroke="rgb(0,0,0)" d="M 7938,2587 L 7938,2587 Z"/>
      </g>
     </g>
     <g class="com.sun.star.drawing.CustomShape">
      <g id="id5">
       <path fill="none" stroke="rgb(0,0,0)" d="M 13652,3370 L 14204,3370"/>
       <path fill="none" stroke="rgb(0,0,0)" d="M 13652,4341 L 14204,4341"/>
       <path fill="none" stroke="rgb(0,0,0)" d="M 13652,2903 L 13652,2903 Z"/>
       <path fill="none" stroke="rgb(0,0,0)" d="M 16653,4809 L 16653,4809 Z"/>
       <path fill="none" stroke="rgb(0,0,0)" d="M 14055,2903 C 14309,3388 14309,4323 14055,4809"/>
       <path fill="none" stroke="rgb(0,0,0)" d="M 13652,2903 L 13652,2903 Z"/>
       <path fill="none" stroke="rgb(0,0,0)" d="M 16653,4809 L 16653,4809 Z"/>
       <path fill="none" stroke="rgb(0,0,0)" d="M 13935,2903 C 14189,3388 14189,4323 13935,4809"/>
       <path fill="none" stroke="rgb(0,0,0)" d="M 13652,2903 L 13652,2903 Z"/>
       <path fill="none" stroke="rgb(0,0,0)" d="M 16653,4809 L 16653,4809 Z"/>
       <path fill="none" stroke="rgb(0,0,0)" d="M 14055,2903 L 14995,2903"/>
       <path fill="none" stroke="rgb(0,0,0)" d="M 13652,2903 L 13652,2903 Z"/>
       <path fill="none" stroke="rgb(0,0,0)" d="M 16653,4809 L 16653,4809 Z"/>
       <path fill="none" stroke="rgb(0,0,0)" d="M 14995,2903 C 15742,2903 16115,3586 16205,3855"/>
       <path fill="none" stroke="rgb(0,0,0)" d="M 13652,2903 L 13652,2903 Z"/>
       <path fill="none" stroke="rgb(0,0,0)" d="M 16653,4809 L 16653,4809 Z"/>
       <path fill="none" stroke="rgb(0,0,0)" d="M 14055,4809 L 14995,4809"/>
       <path fill="none" stroke="rgb(0,0,0)" d="M 13652,2903 L 13652,2903 Z"/>
       <path fill="none" stroke="rgb(0,0,0)" d="M 16653,4809 L 16653,4809 Z"/>
       <path fill="none" stroke="rgb(0,0,0)" d="M 14995,4809 C 15742,4809 16115,4125 16205,3855"/>
       <path fill="none" stroke="rgb(0,0,0)" d="M 13652,2903 L 13652,2903 Z"/>
       <path fill="none" stroke="rgb(0,0,0)" d="M 16653,4809 L 16653,4809 Z"/>
       <path fill="none" stroke="rgb(0,0,0)" d="M 16205,3855 L 16653,3855"/>
       <path fill="none" stroke="rgb(0,0,0)" d="M 13652,2903 L 13652,2903 Z"/>
       <path fill="none" stroke="rgb(0,0,0)" d="M 16653,4809 L 16653,4809 Z"/>
      </g>
     </g>
     <g class="com.sun.star.drawing.CustomShape">
      <g id="id6">
       <text class="TextShape"><tspan class="TextParagraph" font-family="Arial, sans-serif" font-size="635px" font-weight="400"><tspan class="TextPosition" x="618" y="1379"><tspan fill="rgb(0,0,0)" stroke="none">a</tspan></tspan></tspan></text>
      </g>
     </g>
     <g class="com.sun.star.drawing.ConnectorShape">
      <g id="id7">
       <path fill="none" stroke="rgb(0,0,0)" d="M 4937,1149 L 3103,1149 3103,1158 1269,1158"/>
      </g>
     </g>
     <g class="com.sun.star.drawing.CustomShape">
      <g id="id8">
       <text class="TextShape"><tspan class="TextParagraph" font-family="Arial, sans-serif" font-size="635px" font-weight="400"><tspan class="TextPosition" x="618" y="2331"><tspan fill="rgb(0,0,0)" stroke="none">b</tspan></tspan></tspan></text>
      </g>
     </g>
     <g class="com.sun.star.drawing.ConnectorShape">
      <g id="id9">
       <path fill="none" stroke="rgb(0,0,0)" d="M 4937,2119 L 3103,2119 3103,2110 1269,2110"/>
      </g>
     </g>
     <g class="com.sun.star.drawing.CustomShape">
      <g id="id10">
       <text class="TextShape"><tspan class="TextParagraph" font-family="Arial, sans-serif" font-size="635px" font-weight="400"><tspan class="TextPosition" x="386" y="4554"><tspan fill="rgb(0,0,0)" stroke="none">cin</tspan></tspan></tspan></text>
      </g>
     </g>
     <g class="com.sun.star.drawing.ConnectorShape">
      <g id="id11">
       <path fill="none" stroke="rgb(0,0,0)" d="M 1269,4333 L 7460,4333 7460,4341 13652,4341"/>
      </g>
     </g>
     <g class="com.sun.star.drawing.ConnectorShape">
      <g id="id12">
       <path fill="none" stroke="rgb(0,0,0)" d="M 7937,1634 L 10795,1634 10795,3371 13652,3371"/>
      </g>
     </g>
     <g class="com.sun.star.drawing.CustomShape">
      <g id="id13">
       <path fill="rgb(0,0,0)" stroke="none" d="M 4285,999 C 4375,999 4444,1068 4444,1158 4444,1248 4375,1317 4285,1317 4195,1317 4126,1248 4126,1158 4126,1068 4195,999 4285,999 Z M 4126,999 L 4126,999 Z M 4445,1318 L 4445,1318 Z"/>
       <path fill="none" stroke="rgb(0,0,0)" d="M 4285,999 C 4375,999 4444,1068 4444,1158 4444,1248 4375,1317 4285,1317 4195,1317 4126,1248 4126,1158 4126,1068 4195,999 4285,999 Z"/>
       <path fill="none" stroke="rgb(0,0,0)" d="M 4126,999 L 4126,999 Z"/>
       <path fill="none" stroke="rgb(0,0,0)" d="M 4445,1318 L 4445,1318 Z"/>
      </g>
     </g>
     <g class="com.sun.star.drawing.CustomShape">
      <g id="id14">
       <path fill="rgb(0,0,0)" stroke="none" d="M 3333,1951 C 3423,1951 3492,2020 3492,2110 3492,2200 3423,2269 3333,2269 3243,2269 3174,2200 3174,2110 3174,2020 3243,1951 3333,1951 Z M 3174,1951 L 3174,1951 Z M 3493,2270 L 3493,2270 Z"/>
       <path fill="none" stroke="rgb(0,0,0)" d="M 3333,1951 C 3423,1951 3492,2020 3492,2110 3492,2200 3423,2269 3333,2269 3243,2269 3174,2200 3174,2110 3174,2020 3243,1951 3333,1951 Z"/>
       <path fill="none" stroke="rgb(0,0,0)" d="M 3174,1951 L 3174,1951 Z"/>
       <path fill="none" stroke="rgb(0,0,0)" d="M 3493,2270 L 3493,2270 Z"/>
      </g>
     </g>
     <g class="com.sun.star.drawing.CustomShape">
      <g id="id15">
       <path fill="rgb(0,0,0)" stroke="none" d="M 7461,4174 C 7551,4174 7620,4243 7620,4333 7620,4423 7551,4492 7461,4492 7371,4492 7302,4423 7302,4333 7302,4243 7371,4174 7461,4174 Z M 7302,4174 L 7302,4174 Z M 7621,4493 L 7621,4493 Z"/>
       <path fill="none" stroke="rgb(0,0,0)" d="M 7461,4174 C 7551,4174 7620,4243 7620,4333 7620,4423 7551,4492 7461,4492 7371,4492 7302,4423 7302,4333 7302,4243 7371,4174 7461,4174 Z"/>
       <path fill="none" stroke="rgb(0,0,0)" d="M 7302,4174 L 7302,4174 Z"/>
       <path fill="none" stroke="rgb(0,0,0)" d="M 7621,4493 L 7621,4493 Z"/>
      </g>
     </g>
     <g class="com.sun.star.drawing.ConnectorShape">
      <g id="id16">
       <path fill="none" stroke="rgb(0,0,0)" d="M 9001,11428 L 3333,11428 3333,2269"/>
      </g>
     </g>
     <g class="com.sun.star.drawing.ConnectorShape">
      <g id="id17">
       <path fill="none" stroke="rgb(0,0,0)" d="M 9001,10637 L 4285,10637 4285,1317"/>
      </g>
     </g>
     <g class="com.sun.star.drawing.ConnectorShape">
      <g id="id18">
       <path fill="none" stroke="rgb(0,0,0)" d="M 9001,8570 L 7461,8570 7461,4492"/>
      </g>
     </g>
     <g class="com.sun.star.drawing.CustomShape">
      <g id="id19">
       <path fill="rgb(0,0,0)" stroke="none" d="M 8296,1474 C 8386,1474 8455,1543 8455,1633 8455,1723 8386,1792 8296,1792 8206,1792 8137,1723 8137,1633 8137,1543 8206,1474 8296,1474 Z M 8137,1474 L 8137,1474 Z M 8456,1793 L 8456,1793 Z"/>
       <path fill="none" stroke="rgb(0,0,0)" d="M 8296,1474 C 8386,1474 8455,1543 8455,1633 8455,1723 8386,1792 8296,1792 8206,1792 8137,1723 8137,1633 8137,1543 8206,1474 8296,1474 Z"/>
       <path fill="none" stroke="rgb(0,0,0)" d="M 8137,1474 L 8137,1474 Z"/>
       <path fill="none" stroke="rgb(0,0,0)" d="M 8456,1793 L 8456,1793 Z"/>
      </g>
     </g>
     <g class="com.sun.star.drawing.ConnectorShape">
      <g id="id20">
       <path fill="none" stroke="rgb(0,0,0)" d="M 9001,7779 L 8296,7779 8296,1792"/>
      </g>
     </g>
     <g class="com.sun.star.drawing.ConnectorShape">
      <g id="id21">
       <path fill="none" stroke="rgb(0,0,0)" d="M 12017,8095 L 12835,8095 12835,9093 13652,9093"/>
      </g>
     </g>
     <g class="com.sun.star.drawing.ConnectorShape">
      <g id="id22">
       <path fill="none" stroke="rgb(0,0,0)" d="M 12017,10953 L 12835,10953 12835,10058 13652,10058"/>
      </g>
     </g>
     <g class="com.sun.star.drawing.CustomShape">
      <g id="id23">
       <text class="TextShape"><tspan class="TextParagraph" font-family="Arial, sans-serif" font-size="635px" font-weight="400"><tspan class="TextPosition" x="20511" y="9791"><tspan fill="rgb(0,0,0)" stroke="none">cout</tspan></tspan></tspan></text>
      </g>
     </g>
     <g class="com.sun.star.drawing.CustomShape">
      <g id="id24">
       <text class="TextShape"><tspan class="TextParagraph" font-family="Arial, sans-serif" font-size="635px" font-weight="400"><tspan class="TextPosition" x="20954" y="4076"><tspan fill="rgb(0,0,0)" stroke="none">s</tspan></tspan></tspan></text>
      </g>
     </g>
     <g class="com.sun.star.drawing.ConnectorShape">
      <g id="id25">
       <path fill="none" stroke="rgb(0,0,0)" d="M 16652,3856 L 20637,3856"/>
      </g>
     </g>
     <g class="com.sun.star.drawing.ConnectorShape">
      <g id="id26">
       <path fill="none" stroke="rgb(0,0,0)" d="M 16652,9575 L 18487,9575 18487,9571 20320,9571"/>
      </g>
     </g>
     <g class="Group">
      <g class="com.sun.star.drawing.LineShape">
       <g id="id27">
        <path fill="none" stroke="rgb(0,0,0)" d="M 9477,7301 L 9477,8888"/>
       </g>
      </g>
      <g class="com.sun.star.drawing.LineShape">
       <g id="id28">
        <path fill="none" stroke="rgb(0,0,0)" d="M 10747,8889 L 9477,8889"/>
       </g>
      </g>
      <g class="com.sun.star.drawing.LineShape">
       <g id="id29">
        <path fill="none" stroke="rgb(0,0,0)" d="M 10747,7301 L 9477,7301"/>
       </g>
      </g>
      <g class="com.sun.star.drawing.LineShape">
       <g id="id30">
        <path fill="none" stroke="rgb(0,0,0)" d="M 12017,8095 L 11541,8095"/>
       </g>
      </g>
      <g class="com.sun.star.drawing.LineShape">
       <g id="id31">
        <path fill="none" stroke="rgb(0,0,0)" d="M 9001,8571 L 9477,8571"/>
       </g>
      </g>
      <g class="com.sun.star.drawing.LineShape">
       <g id="id32">
        <path fill="none" stroke="rgb(0,0,0)" d="M 9001,7778 L 9477,7778"/>
       </g>
      </g>
      <g class="com.sun.star.drawing.OpenBezierShape">
       <g id="id33">
        <path fill="none" stroke="rgb(0,0,0)" d="M 10747,7301 C 12533,8095 10747,8889 10747,8889"/>
       </g>
      </g>
     </g>
     <g class="Group">
      <g class="com.sun.star.drawing.LineShape">
       <g id="id34">
        <path fill="none" stroke="rgb(0,0,0)" d="M 9477,10159 L 9477,11746"/>
       </g>
      </g>
      <g class="com.sun.star.drawing.LineShape">
       <g id="id35">
        <path fill="none" stroke="rgb(0,0,0)" d="M 10747,11747 L 9477,11747"/>
       </g>
      </g>
      <g class="com.sun.star.drawing.LineShape">
       <g id="id36">
        <path fill="none" stroke="rgb(0,0,0)" d="M 10747,10159 L 9477,10159"/>
       </g>
      </g>
      <g class="com.sun.star.drawing.LineShape">
       <g id="id37">
        <path fill="none" stroke="rgb(0,0,0)" d="M 12017,10953 L 11541,10953"/>
       </g>
      </g>
      <g class="com.sun.star.drawing.LineShape">
       <g id="id38">
        <path fill="none" stroke="rgb(0,0,0)" d="M 9001,11429 L 9477,11429"/>
       </g>
      </g>
      <g class="com.sun.star.drawing.LineShape">
       <g id="id39">
        <path fill="none" stroke="rgb(0,0,0)" d="M 9001,10636 L 9477,10636"/>
       </g>
      </g>
      <g class="com.sun.star.drawing.OpenBezierShape">
       <g id="id40">
        <path fill="none" stroke="rgb(0,0,0)" d="M 10747,10159 C 12533,10953 10747,11747 10747,11747"/>
       </g>
      </g>
     </g>
    </g>
   </g>
  </g>
 </g>
</svg>