<?xml version="1.0" encoding="UTF-8"?>
<!DOCTYPE svg PUBLIC "-//W3C//DTD SVG 1.1//EN" "http://www.w3.org/Graphics/SVG/1.1/DTD/svg11.dtd">
<svg version="1.2" width="146.05mm" height="165.1mm" viewBox="0 0 14605 16510" preserveAspectRatio="xMidYMid" fill-rule="evenodd" clip-path="url(#presentation_clip_path)" stroke-width="28.222" stroke-linejoin="round" xmlns="http://www.w3.org/2000/svg" xmlns:ooo="http://xml.openoffice.org/svg/export" xmlns:xlink="http://www.w3.org/1999/xlink" xml:space="preserve">
 <defs class="ClipPathGroup">
  <clipPath id="presentation_clip_path" clipPathUnits="userSpaceOnUse">
   <rect x="0" y="0" width="14605" height="16510"/>
  </clipPath>
 </defs>
 <defs class="TextShapeIndex">
  <g ooo:slide="id1" ooo:id-list="id3 id4 id5 id6 id7 id8 id9 id10 id11 id12 id13 id14 id15 id16 id17 id18 id19 id20 id21 id22 id23 id24 id25 id26 id27 id28 id29 id30 id31 id32 id33 id34 id35 id36 id37 id38 id39 id40 id41 id42 id43 id44 id45 id46 id47 id48 id49 id50 id51 id52 id53 id54 id55 id56 id57 id58 id59 id60 id61 id62 id63 id64 id65 id66 id67 id68 id69 id70 id71 id72 id73 id74"/>
 </defs>
 <defs class="EmbeddedBulletChars">
  <g id="bullet-char-template(57356)" transform="scale(0.00048828125,-0.00048828125)">
   <path d="M 580,1141 L 1163,571 580,0 -4,571 580,1141 Z"/>
  </g>
  <g id="bullet-char-template(57354)" transform="scale(0.00048828125,-0.00048828125)">
   <path d="M 8,1128 L 1137,1128 1137,0 8,0 8,1128 Z"/>
  </g>
  <g id="bullet-char-template(10146)" transform="scale(0.00048828125,-0.00048828125)">
   <path d="M 174,0 L 602,739 174,1481 1456,739 174,0 Z M 1358,739 L 309,1346 659,739 1358,739 Z"/>
  </g>
  <g id="bullet-char-template(10132)" transform="scale(0.00048828125,-0.00048828125)">
   <path d="M 2015,739 L 1276,0 717,0 1260,543 174,543 174,936 1260,936 717,1481 1274,1481 2015,739 Z"/>
  </g>
  <g id="bullet-char-template(10007)" transform="scale(0.00048828125,-0.00048828125)">
   <path d="M 0,-2 C -7,14 -16,27 -25,37 L 356,567 C 262,823 215,952 215,954 215,979 228,992 255,992 264,992 276,990 289,987 310,991 331,999 354,1012 L 381,999 492,748 772,1049 836,1024 860,1049 C 881,1039 901,1025 922,1006 886,937 835,863 770,784 769,783 710,716 594,584 L 774,223 C 774,196 753,168 711,139 L 727,119 C 717,90 699,76 672,76 641,76 570,178 457,381 L 164,-76 C 142,-110 111,-127 72,-127 30,-127 9,-110 8,-76 1,-67 -2,-52 -2,-32 -2,-23 -1,-13 0,-2 Z"/>
  </g>
  <g id="bullet-char-template(10004)" transform="scale(0.00048828125,-0.00048828125)">
   <path d="M 285,-33 C 182,-33 111,30 74,156 52,228 41,333 41,471 41,549 55,616 82,672 116,743 169,778 240,778 293,778 328,747 346,684 L 369,508 C 377,444 397,411 428,410 L 1163,1116 C 1174,1127 1196,1133 1229,1133 1271,1133 1292,1118 1292,1087 L 1292,965 C 1292,929 1282,901 1262,881 L 442,47 C 390,-6 338,-33 285,-33 Z"/>
  </g>
  <g id="bullet-char-template(9679)" transform="scale(0.00048828125,-0.00048828125)">
   <path d="M 813,0 C 632,0 489,54 383,161 276,268 223,411 223,592 223,773 276,916 383,1023 489,1130 632,1184 813,1184 992,1184 1136,1130 1245,1023 1353,916 1407,772 1407,592 1407,412 1353,268 1245,161 1136,54 992,0 813,0 Z"/>
  </g>
  <g id="bullet-char-template(8226)" transform="scale(0.00048828125,-0.00048828125)">
   <path d="M 346,457 C 273,457 209,483 155,535 101,586 74,649 74,723 74,796 101,859 155,911 209,963 273,989 346,989 419,989 480,963 531,910 582,859 608,796 608,723 608,648 583,586 532,535 482,483 420,457 346,457 Z"/>
  </g>
  <g id="bullet-char-template(8211)" transform="scale(0.00048828125,-0.00048828125)">
   <path d="M -4,459 L 1135,459 1135,606 -4,606 -4,459 Z"/>
  </g>
 </defs>
 <defs class="TextEmbeddedBitmaps"/>
 <g>
  <g id="id2" class="Master_Slide">
   <g id="bg-id2" class="Background"/>
   <g id="bo-id2" class="BackgroundObjects"/>
  </g>
 </g>
 <g class="SlideGroup">
  <g>
   <g id="id1" class="Slide" clip-path="url(#presentation_clip_path)">
    <g class="Page">
     <g class="Group">
      <g class="com.sun.star.drawing.LineShape">
       <g id="id3">
        <path fill="none" stroke="rgb(0,0,0)" stroke-width="51" d="M 5553,7214 L 5553,8484"/>
       </g>
      </g>
      <g class="com.sun.star.drawing.LineShape">
       <g id="id4">
        <path fill="none" stroke="rgb(0,0,0)" stroke-width="51" d="M 4283,8484 L 5553,8484"/>
       </g>
      </g>
      <g class="com.sun.star.drawing.LineShape">
       <g id="id5">
        <path fill="none" stroke="rgb(0,0,0)" stroke-width="51" d="M 4283,9754 L 4283,8484"/>
       </g>
      </g>
      <g class="com.sun.star.drawing.LineShape">
       <g id="id6">
        <path fill="none" stroke="rgb(0,0,0)" stroke-width="51" d="M 5553,9754 L 4283,9754"/>
       </g>
      </g>
      <g class="com.sun.star.drawing.LineShape">
       <g id="id7">
        <path fill="none" stroke="rgb(0,0,0)" stroke-width="51" d="M 5553,11024 L 5553,9754"/>
       </g>
      </g>
      <g class="com.sun.star.drawing.LineShape">
       <g id="id8">
        <path fill="none" stroke="rgb(0,0,0)" stroke-width="51" d="M 4283,8484 L 4283,9436"/>
       </g>
      </g>
      <g class="com.sun.star.drawing.LineShape">
       <g id="id9">
        <path fill="none" stroke="rgb(0,0,0)" stroke-width="51" d="M 4080,8489 L 4080,9759"/>
       </g>
      </g>
      <g class="com.sun.star.drawing.LineShape">
       <g id="id10">
        <path fill="none" stroke="rgb(0,0,0)" stroke-width="51" d="M 3023,9121 L 4080,9121"/>
       </g>
      </g>
     </g>
     <g class="Group">
      <g class="com.sun.star.drawing.LineShape">
       <g id="id11">
        <path fill="none" stroke="rgb(0,0,0)" stroke-width="51" d="M 5543,1817 L 5543,3087"/>
       </g>
      </g>
      <g class="com.sun.star.drawing.LineShape">
       <g id="id12">
        <path fill="none" stroke="rgb(0,0,0)" stroke-width="51" d="M 4273,3087 L 5543,3087"/>
       </g>
      </g>
      <g class="com.sun.star.drawing.LineShape">
       <g id="id13">
        <path fill="none" stroke="rgb(0,0,0)" stroke-width="51" d="M 4273,4357 L 4273,3087"/>
       </g>
      </g>
      <g class="com.sun.star.drawing.LineShape">
       <g id="id14">
        <path fill="none" stroke="rgb(0,0,0)" stroke-width="51" d="M 5543,4357 L 4273,4357"/>
       </g>
      </g>
      <g class="com.sun.star.drawing.LineShape">
       <g id="id15">
        <path fill="none" stroke="rgb(0,0,0)" stroke-width="51" d="M 5543,5627 L 5543,4357"/>
       </g>
      </g>
      <g class="com.sun.star.drawing.LineShape">
       <g id="id16">
        <path fill="none" stroke="rgb(0,0,0)" stroke-width="51" d="M 4273,3087 L 4273,4039"/>
       </g>
      </g>
      <g class="com.sun.star.drawing.LineShape">
       <g id="id17">
        <path fill="none" stroke="rgb(0,0,0)" stroke-width="51" d="M 4070,3092 L 4070,4362"/>
       </g>
      </g>
      <g class="com.sun.star.drawing.LineShape">
       <g id="id18">
        <path fill="none" stroke="rgb(0,0,0)" stroke-width="51" d="M 3013,3724 L 3638,3724"/>
       </g>
      </g>
      <g class="com.sun.star.drawing.CustomShape">
       <g id="id19">
        <path fill="none" stroke="rgb(0,0,0)" stroke-width="51" d="M 3846,3531 C 3954,3531 4037,3613 4037,3721 4037,3829 3954,3912 3846,3912 3738,3912 3656,3829 3656,3721 3656,3613 3738,3531 3846,3531 Z"/>
       </g>
      </g>
     </g>
     <g class="com.sun.star.drawing.ConnectorShape">
      <g id="id20">
       <path fill="none" stroke="rgb(0,0,0)" d="M 5543,5627 L 5543,6421 5553,6421 5553,7214"/>
      </g>
     </g>
     <g class="com.sun.star.drawing.ConnectorShape">
      <g id="id21">
       <path fill="none" stroke="rgb(0,0,0)" d="M 3023,9119 L 2378,9119 2378,3722 3013,3722"/>
      </g>
     </g>
     <g class="Group">
      <g class="com.sun.star.drawing.LineShape">
       <g id="id22">
        <path fill="none" stroke="rgb(0,0,0)" stroke-width="51" d="M 4919,864 L 6188,864"/>
       </g>
      </g>
      <g class="com.sun.star.drawing.CustomShape">
       <g id="id23">
        <text class="TextShape"><tspan class="TextParagraph" font-family="Arial, sans-serif" font-size="494px" font-weight="400"><tspan class="TextPosition" x="5032" y="717"><tspan fill="rgb(0,0,0)" stroke="none">VDD</tspan></tspan></tspan></text>
       </g>
      </g>
     </g>
     <g class="com.sun.star.drawing.ConnectorShape">
      <g id="id24">
       <path fill="none" stroke="rgb(0,0,0)" d="M 5553,864 L 5553,1816 5553,1816 5553,1817 5543,1817"/>
      </g>
     </g>
     <g class="com.sun.star.drawing.LineShape">
      <g id="id25">
       <path fill="none" stroke="rgb(0,0,0)" d="M 5553,6579 L 13808,6579"/>
      </g>
     </g>
     <g class="com.sun.star.drawing.LineShape">
      <g id="id26">
       <path fill="none" stroke="rgb(0,0,0)" d="M 155,6579 L 2378,6579"/>
      </g>
     </g>
     <g class="com.sun.star.drawing.CustomShape">
      <g id="id27">
       <text class="TextShape"><tspan class="TextParagraph" font-family="Arial, sans-serif" font-size="494px" font-weight="400"><tspan class="TextPosition" x="624" y="6432"><tspan fill="rgb(0,0,0)" stroke="none">A</tspan></tspan></tspan></text>
      </g>
     </g>
     <g class="com.sun.star.drawing.CustomShape">
      <g id="id28">
       <text class="TextShape"><tspan class="TextParagraph" font-family="Arial, sans-serif" font-size="494px" font-weight="400"><tspan class="TextPosition" x="11952" y="6432"><tspan fill="rgb(0,0,0)" stroke="none">Output</tspan></tspan></tspan></text>
      </g>
     </g>
     <g class="com.sun.star.drawing.CustomShape">
      <g id="id29">
       <text class="TextShape"><tspan class="TextParagraph" font-family="Arial, sans-serif" font-size="494px" font-weight="400"><tspan class="TextPosition" x="654" y="5797"><tspan fill="rgb(0,128,0)" stroke="none">1</tspan></tspan></tspan></text>
      </g>
     </g>
     <g class="com.sun.star.drawing.CustomShape">
      <g id="id30">
       <text class="TextShape"><tspan class="TextParagraph" font-family="Arial, sans-serif" font-size="494px" font-weight="400"><tspan class="TextPosition" x="653" y="7067"><tspan fill="rgb(0,0,255)" stroke="none">0</tspan></tspan></tspan></text>
      </g>
     </g>
     <g class="com.sun.star.drawing.CustomShape">
      <g id="id31">
       <text class="TextShape"><tspan class="TextParagraph" font-family="Arial, sans-serif" font-size="494px" font-weight="400"><tspan class="TextPosition" x="5378" y="9607"><tspan fill="rgb(0,0,255)" stroke="none">OFF</tspan></tspan></tspan></text>
      </g>
     </g>
     <g class="com.sun.star.drawing.CustomShape">
      <g id="id32">
       <text class="TextShape"><tspan class="TextParagraph" font-family="Arial, sans-serif" font-size="494px" font-weight="400"><tspan class="TextPosition" x="5501" y="8972"><tspan fill="rgb(0,128,0)" stroke="none">ON</tspan></tspan></tspan></text>
      </g>
     </g>
     <g class="com.sun.star.drawing.CustomShape">
      <g id="id33">
       <text class="TextShape"><tspan class="TextParagraph" font-family="Arial, sans-serif" font-size="494px" font-weight="400"><tspan class="TextPosition" x="5060" y="3574"><tspan fill="rgb(0,128,0)" stroke="none">OFF</tspan></tspan></tspan></text>
      </g>
     </g>
     <g class="com.sun.star.drawing.CustomShape">
      <g id="id34">
       <text class="TextShape"><tspan class="TextParagraph" font-family="Arial, sans-serif" font-size="494px" font-weight="400"><tspan class="TextPosition" x="5182" y="4209"><tspan fill="rgb(0,0,255)" stroke="none">ON</tspan></tspan></tspan></text>
      </g>
     </g>
     <g class="com.sun.star.drawing.CustomShape">
      <g id="id35">
       <text class="TextShape"><tspan class="TextParagraph" font-family="Arial, sans-serif" font-size="494px" font-weight="400"><tspan class="TextPosition" x="11845" y="7067"><tspan fill="rgb(0,0,255)" stroke="none">0</tspan><tspan fill="rgb(102,102,102)" stroke="none">0 </tspan><tspan fill="rgb(0,0,0)" stroke="none">= 1</tspan></tspan></tspan></text>
      </g>
     </g>
     <g class="Group">
      <g class="com.sun.star.drawing.LineShape">
       <g id="id36">
        <path fill="none" stroke="rgb(0,0,0)" stroke-width="51" d="M 5553,11659 L 5553,12929"/>
       </g>
      </g>
      <g class="com.sun.star.drawing.LineShape">
       <g id="id37">
        <path fill="none" stroke="rgb(0,0,0)" stroke-width="51" d="M 4283,12929 L 5553,12929"/>
       </g>
      </g>
      <g class="com.sun.star.drawing.LineShape">
       <g id="id38">
        <path fill="none" stroke="rgb(0,0,0)" stroke-width="51" d="M 4283,14199 L 4283,12929"/>
       </g>
      </g>
      <g class="com.sun.star.drawing.LineShape">
       <g id="id39">
        <path fill="none" stroke="rgb(0,0,0)" stroke-width="51" d="M 5553,14199 L 4283,14199"/>
       </g>
      </g>
      <g class="com.sun.star.drawing.LineShape">
       <g id="id40">
        <path fill="none" stroke="rgb(0,0,0)" stroke-width="51" d="M 5553,15469 L 5553,14199"/>
       </g>
      </g>
      <g class="com.sun.star.drawing.LineShape">
       <g id="id41">
        <path fill="none" stroke="rgb(0,0,0)" stroke-width="51" d="M 4283,12929 L 4283,13881"/>
       </g>
      </g>
      <g class="com.sun.star.drawing.LineShape">
       <g id="id42">
        <path fill="none" stroke="rgb(0,0,0)" stroke-width="51" d="M 4080,12934 L 4080,14204"/>
       </g>
      </g>
      <g class="com.sun.star.drawing.LineShape">
       <g id="id43">
        <path fill="none" stroke="rgb(0,0,0)" stroke-width="51" d="M 3023,13566 L 4080,13566"/>
       </g>
      </g>
     </g>
     <g class="com.sun.star.drawing.CustomShape">
      <g id="id44">
       <text class="TextShape"><tspan class="TextParagraph" font-family="Arial, sans-serif" font-size="494px" font-weight="400"><tspan class="TextPosition" x="5377" y="14052"><tspan fill="rgb(102,102,102)" stroke="none">OFF</tspan></tspan></tspan></text>
      </g>
     </g>
     <g class="com.sun.star.drawing.CustomShape">
      <g id="id45">
       <text class="TextShape"><tspan class="TextParagraph" font-family="Arial, sans-serif" font-size="494px" font-weight="400"><tspan class="TextPosition" x="5500" y="13417"><tspan fill="rgb(255,0,0)" stroke="none">ON</tspan></tspan></tspan></text>
      </g>
     </g>
     <g class="com.sun.star.drawing.ConnectorShape">
      <g id="id46">
       <path fill="none" stroke="rgb(0,0,0)" d="M 5553,11024 L 5553,11024 5553,11659 5553,11659"/>
      </g>
     </g>
     <g class="Group">
      <g class="com.sun.star.drawing.LineShape">
       <g id="id47">
        <path fill="none" stroke="rgb(0,0,0)" stroke-width="51" d="M 5235,16104 L 5869,16104"/>
       </g>
      </g>
      <g class="com.sun.star.drawing.LineShape">
       <g id="id48">
        <path fill="none" stroke="rgb(0,0,0)" stroke-width="51" d="M 5341,16262 L 5764,16262"/>
       </g>
      </g>
      <g class="com.sun.star.drawing.LineShape">
       <g id="id49">
        <path fill="none" stroke="rgb(0,0,0)" stroke-width="51" d="M 5446,16421 L 5657,16421"/>
       </g>
      </g>
     </g>
     <g class="Group">
      <g class="com.sun.star.drawing.LineShape">
       <g id="id50">
        <path fill="none" stroke="rgb(0,0,0)" stroke-width="51" d="M 11585,1816 L 11585,3086"/>
       </g>
      </g>
      <g class="com.sun.star.drawing.LineShape">
       <g id="id51">
        <path fill="none" stroke="rgb(0,0,0)" stroke-width="51" d="M 10315,3086 L 11585,3086"/>
       </g>
      </g>
      <g class="com.sun.star.drawing.LineShape">
       <g id="id52">
        <path fill="none" stroke="rgb(0,0,0)" stroke-width="51" d="M 10315,4356 L 10315,3086"/>
       </g>
      </g>
      <g class="com.sun.star.drawing.LineShape">
       <g id="id53">
        <path fill="none" stroke="rgb(0,0,0)" stroke-width="51" d="M 11585,4356 L 10315,4356"/>
       </g>
      </g>
      <g class="com.sun.star.drawing.LineShape">
       <g id="id54">
        <path fill="none" stroke="rgb(0,0,0)" stroke-width="51" d="M 11585,5626 L 11585,4356"/>
       </g>
      </g>
      <g class="com.sun.star.drawing.LineShape">
       <g id="id55">
        <path fill="none" stroke="rgb(0,0,0)" stroke-width="51" d="M 10315,3086 L 10315,4038"/>
       </g>
      </g>
      <g class="com.sun.star.drawing.LineShape">
       <g id="id56">
        <path fill="none" stroke="rgb(0,0,0)" stroke-width="51" d="M 10112,3091 L 10112,4361"/>
       </g>
      </g>
      <g class="com.sun.star.drawing.LineShape">
       <g id="id57">
        <path fill="none" stroke="rgb(0,0,0)" stroke-width="51" d="M 9055,3723 L 9680,3723"/>
       </g>
      </g>
      <g class="com.sun.star.drawing.CustomShape">
       <g id="id58">
        <path fill="none" stroke="rgb(0,0,0)" stroke-width="51" d="M 9888,3530 C 9996,3530 10079,3612 10079,3720 10079,3828 9996,3911 9888,3911 9780,3911 9698,3828 9698,3720 9698,3612 9780,3530 9888,3530 Z"/>
       </g>
      </g>
     </g>
     <g class="com.sun.star.drawing.ConnectorShape">
      <g id="id59">
       <path fill="none" stroke="rgb(0,0,0)" d="M 5553,1816 L 7292,1816 7292,1816 11585,1816 11585,1816"/>
      </g>
     </g>
     <g class="com.sun.star.drawing.ConnectorShape">
      <g id="id60">
       <path fill="none" stroke="rgb(0,0,0)" d="M 5543,5627 L 5543,5626 11585,5626 11585,5626"/>
      </g>
     </g>
     <g class="com.sun.star.drawing.LineShape">
      <g id="id61">
       <path fill="none" stroke="rgb(0,0,0)" d="M 157,13564 L 3013,13564"/>
      </g>
     </g>
     <g class="com.sun.star.drawing.CustomShape">
      <g id="id62">
       <text class="TextShape"><tspan class="TextParagraph" font-family="Arial, sans-serif" font-size="494px" font-weight="400"><tspan class="TextPosition" x="626" y="13417"><tspan fill="rgb(0,0,0)" stroke="none">B</tspan></tspan></tspan></text>
      </g>
     </g>
     <g class="com.sun.star.drawing.CustomShape">
      <g id="id63">
       <text class="TextShape"><tspan class="TextParagraph" font-family="Arial, sans-serif" font-size="494px" font-weight="400"><tspan class="TextPosition" x="656" y="12782"><tspan fill="rgb(255,0,0)" stroke="none">1</tspan></tspan></tspan></text>
      </g>
     </g>
     <g class="com.sun.star.drawing.CustomShape">
      <g id="id64">
       <text class="TextShape"><tspan class="TextParagraph" font-family="Arial, sans-serif" font-size="494px" font-weight="400"><tspan class="TextPosition" x="655" y="14052"><tspan fill="rgb(102,102,102)" stroke="none">0</tspan></tspan></tspan></text>
      </g>
     </g>
     <g class="com.sun.star.drawing.LineShape">
      <g id="id65">
       <path fill="none" stroke="rgb(0,0,0)" d="M 6824,3721 L 9680,3721"/>
      </g>
     </g>
     <g class="com.sun.star.drawing.CustomShape">
      <g id="id66">
       <text class="TextShape"><tspan class="TextParagraph" font-family="Arial, sans-serif" font-size="494px" font-weight="400"><tspan class="TextPosition" x="7293" y="3574"><tspan fill="rgb(0,0,0)" stroke="none">B</tspan></tspan></tspan></text>
      </g>
     </g>
     <g class="com.sun.star.drawing.CustomShape">
      <g id="id67">
       <text class="TextShape"><tspan class="TextParagraph" font-family="Arial, sans-serif" font-size="494px" font-weight="400"><tspan class="TextPosition" x="7323" y="2939"><tspan fill="rgb(255,0,0)" stroke="none">1</tspan></tspan></tspan></text>
      </g>
     </g>
     <g class="com.sun.star.drawing.CustomShape">
      <g id="id68">
       <text class="TextShape"><tspan class="TextParagraph" font-family="Arial, sans-serif" font-size="494px" font-weight="400"><tspan class="TextPosition" x="7322" y="4209"><tspan fill="rgb(102,102,102)" stroke="none">0</tspan></tspan></tspan></text>
      </g>
     </g>
     <g class="com.sun.star.drawing.CustomShape">
      <g id="id69">
       <text class="TextShape"><tspan class="TextParagraph" font-family="Arial, sans-serif" font-size="494px" font-weight="400"><tspan class="TextPosition" x="11094" y="3574"><tspan fill="rgb(255,0,0)" stroke="none">OFF</tspan></tspan></tspan></text>
      </g>
     </g>
     <g class="com.sun.star.drawing.CustomShape">
      <g id="id70">
       <text class="TextShape"><tspan class="TextParagraph" font-family="Arial, sans-serif" font-size="494px" font-weight="400"><tspan class="TextPosition" x="11216" y="4209"><tspan fill="rgb(102,102,102)" stroke="none">ON</tspan></tspan></tspan></text>
      </g>
     </g>
     <g class="com.sun.star.drawing.ConnectorShape">
      <g id="id71">
       <path fill="none" stroke="rgb(0,0,0)" d="M 5552,16104 L 5552,15469 5553,15469 5553,15469 5553,15469"/>
      </g>
     </g>
     <g class="com.sun.star.drawing.CustomShape">
      <g id="id72">
       <text class="TextShape"><tspan class="TextParagraph" font-family="Arial, sans-serif" font-size="494px" font-weight="400"><tspan class="TextPosition" x="11844" y="7702"><tspan fill="rgb(0,0,255)" stroke="none">0</tspan><tspan fill="rgb(255,0,0)" stroke="none">1</tspan><tspan fill="rgb(102,102,102)" stroke="none"> </tspan><tspan fill="rgb(0,0,0)" stroke="none">= 1</tspan></tspan></tspan></text>
      </g>
     </g>
     <g class="com.sun.star.drawing.CustomShape">
      <g id="id73">
       <text class="TextShape"><tspan class="TextParagraph" font-family="Arial, sans-serif" font-size="494px" font-weight="400"><tspan class="TextPosition" x="11845" y="8337"><tspan fill="rgb(0,128,0)" stroke="none">1</tspan><tspan fill="rgb(102,102,102)" stroke="none">0 </tspan><tspan fill="rgb(0,0,0)" stroke="none">= 1</tspan></tspan></tspan></text>
      </g>
     </g>
     <g class="com.sun.star.drawing.CustomShape">
      <g id="id74">
       <text class="TextShape"><tspan class="TextParagraph" font-family="Arial, sans-serif" font-size="494px" font-weight="400"><tspan class="TextPosition" x="11845" y="8972"><tspan fill="rgb(0,128,0)" stroke="none">1</tspan><tspan fill="rgb(255,0,0)" stroke="none">1</tspan><tspan fill="rgb(102,102,102)" stroke="none"> </tspan><tspan fill="rgb(0,0,0)" stroke="none">= 0</tspan></tspan></tspan></text>
      </g>
     </g>
    </g>
   </g>
  </g>
 </g>
</svg>