<?xml version="1.0" encoding="UTF-8"?>
<!DOCTYPE svg PUBLIC "-//W3C//DTD SVG 1.1//EN" "http://www.w3.org/Graphics/SVG/1.1/DTD/svg11.dtd">
<svg version="1.2" width="279.4mm" height="165.1mm" viewBox="0 0 27940 16510" preserveAspectRatio="xMidYMid" fill-rule="evenodd" clip-path="url(#presentation_clip_path)" stroke-width="28.222" stroke-linejoin="round" xmlns="http://www.w3.org/2000/svg" xmlns:ooo="http://xml.openoffice.org/svg/export" xmlns:xlink="http://www.w3.org/1999/xlink" xml:space="preserve">
 <defs class="ClipPathGroup">
  <clipPath id="presentation_clip_path" clipPathUnits="userSpaceOnUse">
   <rect x="0" y="0" width="27940" height="16510"/>
  </clipPath>
 </defs>
 <defs class="TextShapeIndex">
  <g ooo:slide="id1" ooo:id-list="id3 id4 id5 id6 id7 id8 id9 id10 id11 id12 id13 id14 id15 id16 id17 id18 id19 id20 id21 id22 id23 id24 id25 id26 id27 id28 id29 id30 id31 id32 id33 id34 id35 id36 id37 id38 id39 id40 id41"/>
 </defs>
 <defs class="EmbeddedBulletChars">
  <g id="bullet-char-template(57356)" transform="scale(0.00048828125,-0.00048828125)">
   <path d="M 580,1141 L 1163,571 580,0 -4,571 580,1141 Z"/>
  </g>
  <g id="bullet-char-template(57354)" transform="scale(0.00048828125,-0.00048828125)">
   <path d="M 8,1128 L 1137,1128 1137,0 8,0 8,1128 Z"/>
  </g>
  <g id="bullet-char-template(10146)" transform="scale(0.00048828125,-0.00048828125)">
   <path d="M 174,0 L 602,739 174,1481 1456,739 174,0 Z M 1358,739 L 309,1346 659,739 1358,739 Z"/>
  </g>
  <g id="bullet-char-template(10132)" transform="scale(0.00048828125,-0.00048828125)">
   <path d="M 2015,739 L 1276,0 717,0 1260,543 174,543 174,936 1260,936 717,1481 1274,1481 2015,739 Z"/>
  </g>
  <g id="bullet-char-template(10007)" transform="scale(0.00048828125,-0.00048828125)">
   <path d="M 0,-2 C -7,14 -16,27 -25,37 L 356,567 C 262,823 215,952 215,954 215,979 228,992 255,992 264,992 276,990 289,987 310,991 331,999 354,1012 L 381,999 492,748 772,1049 836,1024 860,1049 C 881,1039 901,1025 922,1006 886,937 835,863 770,784 769,783 710,716 594,584 L 774,223 C 774,196 753,168 711,139 L 727,119 C 717,90 699,76 672,76 641,76 570,178 457,381 L 164,-76 C 142,-110 111,-127 72,-127 30,-127 9,-110 8,-76 1,-67 -2,-52 -2,-32 -2,-23 -1,-13 0,-2 Z"/>
  </g>
  <g id="bullet-char-template(10004)" transform="scale(0.00048828125,-0.00048828125)">
   <path d="M 285,-33 C 182,-33 111,30 74,156 52,228 41,333 41,471 41,549 55,616 82,672 116,743 169,778 240,778 293,778 328,747 346,684 L 369,508 C 377,444 397,411 428,410 L 1163,1116 C 1174,1127 1196,1133 1229,1133 1271,1133 1292,1118 1292,1087 L 1292,965 C 1292,929 1282,901 1262,881 L 442,47 C 390,-6 338,-33 285,-33 Z"/>
  </g>
  <g id="bullet-char-template(9679)" transform="scale(0.00048828125,-0.00048828125)">
   <path d="M 813,0 C 632,0 489,54 383,161 276,268 223,411 223,592 223,773 276,916 383,1023 489,1130 632,1184 813,1184 992,1184 1136,1130 1245,1023 1353,916 1407,772 1407,592 1407,412 1353,268 1245,161 1136,54 992,0 813,0 Z"/>
  </g>
  <g id="bullet-char-template(8226)" transform="scale(0.00048828125,-0.00048828125)">
   <path d="M 346,457 C 273,457 209,483 155,535 101,586 74,649 74,723 74,796 101,859 155,911 209,963 273,989 346,989 419,989 480,963 531,910 582,859 608,796 608,723 608,648 583,586 532,535 482,483 420,457 346,457 Z"/>
  </g>
  <g id="bullet-char-template(8211)" transform="scale(0.00048828125,-0.00048828125)">
   <path d="M -4,459 L 1135,459 1135,606 -4,606 -4,459 Z"/>
  </g>
 </defs>
 <defs class="TextEmbeddedBitmaps"/>
 <g>
  <g id="id2" class="Master_Slide">
   <g id="bg-id2" class="Background"/>
   <g id="bo-id2" class="BackgroundObjects"/>
  </g>
 </g>
 <g class="SlideGroup">
  <g>
   <g id="id1" class="Slide" clip-path="url(#presentation_clip_path)">
    <g class="Page">
     <g class="com.sun.star.drawing.CustomShape">
      <g id="id3">
       <g>
        <defs>
         <linearGradient id="gradient1" x1="25991" y1="9172" x2="25991" y2="10602" gradientUnits="userSpaceOnUse">
          <stop offset="0" style="stop-color:rgb(13,112,210)"/>
          <stop offset="1" style="stop-color:rgb(13,46,210)"/>
         </linearGradient>
        </defs>
        <path style="fill:url(#gradient1)" d="M 17815,9173 L 17793,9174 17771,9178 17749,9185 17728,9193 17707,9204 17687,9217 17669,9231 17651,9247 17635,9265 17621,9283 17608,9303 17597,9324 17589,9345 17582,9367 17578,9389 17577,9411 17577,10363 17578,10385 17582,10407 17589,10429 17597,10450 17608,10471 17621,10491 17635,10509 17651,10527 17669,10543 17687,10557 17707,10570 17728,10581 17749,10589 17771,10596 17793,10600 17815,10601 34167,10601 34189,10600 34211,10596 34233,10589 34255,10581 34275,10570 34295,10557 34314,10543 34331,10527 34347,10509 34362,10491 34375,10471 34385,10450 34394,10429 34401,10407 34405,10385 34406,10363 34406,9411 34405,9389 34401,9367 34394,9345 34385,9324 34375,9303 34362,9283 34347,9265 34331,9247 34314,9231 34295,9217 34275,9204 34255,9193 34233,9185 34211,9178 34189,9174 34167,9173 17815,9173 Z"/>
       </g>
       <path fill="none" stroke="rgb(13,46,210)" d="M 9027,4587 C 8908,4587 8789,4706 8789,4825 L 8789,5777 C 8789,5896 8908,6015 9027,6015 L 25379,6015 C 25498,6015 25618,5896 25618,5777 L 25618,4825 C 25618,4706 25498,4587 25379,4587 L 9027,4587 Z"/>
       <path fill="none" stroke="rgb(13,46,210)" d="M 8789,4587 L 8789,4587 Z"/>
       <path fill="none" stroke="rgb(13,46,210)" d="M 25618,6016 L 25618,6016 Z"/>
       <text class="TextShape"><tspan class="TextParagraph" font-family="Arial, sans-serif" font-size="459px" font-weight="400"><tspan class="TextPosition" x="13186" y="5460"><tspan fill="rgb(255,255,255)" stroke="none">Filesystem (Access with unistd or stdio)</tspan></tspan></tspan></text>
      </g>
     </g>
     <g class="com.sun.star.drawing.CustomShape">
      <g id="id4">
       <g>
        <defs>
         <linearGradient id="gradient2" x1="7418" y1="12982" x2="7418" y2="15525" gradientUnits="userSpaceOnUse">
          <stop offset="0" style="stop-color:rgb(255,255,255)"/>
          <stop offset="1" style="stop-color:rgb(230,230,230)"/>
         </linearGradient>
        </defs>
        <path style="fill:url(#gradient2)" d="M 4666,12983 L 4626,12985 4587,12992 4548,13004 4510,13019 4474,13038 4439,13061 4406,13087 4375,13115 4347,13146 4321,13179 4298,13214 4279,13250 4264,13288 4252,13327 4245,13366 4243,13406 4243,15100 4245,15140 4252,15179 4264,15218 4279,15256 4298,15292 4321,15327 4347,15360 4375,15392 4406,15420 4439,15446 4474,15468 4510,15488 4548,15503 4587,15514 4626,15522 4666,15524 10170,15524 10210,15522 10249,15514 10287,15503 10325,15488 10362,15468 10397,15446 10430,15420 10461,15392 10489,15360 10515,15327 10537,15292 10557,15256 10572,15218 10583,15179 10591,15140 10593,15100 10593,13406 10591,13366 10583,13327 10572,13288 10557,13250 10537,13214 10515,13179 10489,13146 10461,13115 10430,13087 10397,13061 10362,13038 10325,13019 10287,13004 10249,12992 10210,12985 10170,12983 4666,12983 Z"/>
       </g>
       <path fill="none" stroke="rgb(230,230,230)" d="M 2545,6492 C 2333,6492 2122,6703 2122,6915 L 2122,8609 C 2122,8821 2333,9033 2545,9033 L 8049,9033 C 8260,9033 8472,8821 8472,8609 L 8472,6915 C 8472,6703 8260,6492 8049,6492 L 2545,6492 Z"/>
       <path fill="none" stroke="rgb(230,230,230)" d="M 2122,6492 L 2122,6492 Z"/>
       <path fill="none" stroke="rgb(230,230,230)" d="M 8473,9033 L 8473,9033 Z"/>
       <text class="TextShape"><tspan class="TextParagraph" font-family="Arial, sans-serif" font-size="459px" font-weight="400"><tspan class="TextPosition" x="3678" y="7921"><tspan fill="rgb(0,0,0)" stroke="none">Scheduler/WDT</tspan></tspan></tspan></text>
      </g>
     </g>
     <g class="com.sun.star.drawing.CustomShape">
      <g id="id5">
       <g>
        <defs>
         <linearGradient id="gradient3" x1="15354" y1="5044" x2="15354" y2="6317" gradientUnits="userSpaceOnUse">
          <stop offset="0" style="stop-color:rgb(91,192,222)"/>
          <stop offset="1" style="stop-color:rgb(47,150,180)"/>
         </linearGradient>
        </defs>
        <path style="fill:url(#gradient3)" d="M 3182,5045 L 3162,5046 3143,5050 3123,5055 3104,5063 3086,5073 3069,5084 3052,5097 3037,5111 3023,5126 3010,5143 2999,5160 2989,5178 2981,5197 2976,5217 2972,5236 2971,5256 2971,6104 2972,6124 2976,6144 2981,6163 2989,6182 2999,6200 3010,6218 3023,6234 3037,6250 3052,6264 3069,6277 3086,6288 3104,6298 3123,6306 3143,6311 3162,6315 3182,6316 27525,6316 27545,6315 27565,6311 27584,6306 27603,6298 27621,6288 27639,6277 27655,6264 27671,6250 27685,6234 27698,6218 27709,6200 27719,6182 27727,6163 27732,6144 27736,6124 27737,6104 27737,5256 27736,5236 27732,5217 27727,5197 27719,5178 27709,5160 27698,5143 27685,5126 27671,5111 27655,5097 27639,5084 27621,5073 27603,5063 27584,5055 27565,5050 27545,5046 27525,5045 3182,5045 Z"/>
       </g>
       <path fill="none" stroke="rgb(42,133,160)" d="M 1697,2523 C 1591,2523 1486,2628 1486,2734 L 1486,3582 C 1486,3688 1591,3794 1697,3794 L 26040,3794 C 26146,3794 26252,3688 26252,3582 L 26252,2734 C 26252,2628 26146,2523 26040,2523 L 1697,2523 Z"/>
       <path fill="none" stroke="rgb(42,133,160)" d="M 1486,2523 L 1486,2523 Z"/>
       <path fill="none" stroke="rgb(42,133,160)" d="M 26252,3794 L 26252,3794 Z"/>
       <text class="TextShape"><tspan class="TextParagraph" font-family="Arial, sans-serif" font-size="459px" font-weight="400"><tspan class="TextPosition" x="7150" y="3317"><tspan fill="rgb(255,255,255)" stroke="none">Applib (C/C++ easy access to UART, SPI, Files, Multi-tasking, etc)</tspan></tspan></tspan></text>
      </g>
     </g>
     <g class="com.sun.star.drawing.CustomShape">
      <g id="id6">
       <g>
        <defs>
         <linearGradient id="gradient4" x1="15354" y1="26316" x2="15354" y2="27589" gradientUnits="userSpaceOnUse">
          <stop offset="0" style="stop-color:rgb(68,68,68)"/>
          <stop offset="1" style="stop-color:rgb(34,34,34)"/>
         </linearGradient>
        </defs>
        <path style="fill:url(#gradient4)" d="M 3182,26317 L 3162,26318 3143,26322 3123,26327 3104,26335 3086,26345 3069,26356 3052,26369 3037,26383 3023,26398 3010,26415 2999,26432 2989,26450 2981,26469 2976,26489 2972,26508 2971,26528 2971,27376 2972,27396 2976,27416 2981,27435 2989,27454 2999,27472 3010,27490 3023,27506 3037,27522 3052,27536 3069,27549 3086,27560 3104,27570 3123,27578 3143,27583 3162,27587 3182,27588 27525,27588 27545,27587 27565,27583 27584,27578 27603,27570 27621,27560 27639,27549 27655,27536 27671,27522 27685,27506 27698,27490 27709,27472 27719,27454 27727,27435 27732,27416 27736,27396 27737,27376 27737,26528 27736,26508 27732,26489 27727,26469 27719,26450 27709,26432 27698,26415 27685,26398 27671,26383 27655,26369 27639,26356 27621,26345 27603,26335 27584,26327 27565,26322 27545,26318 27525,26317 3182,26317 Z"/>
       </g>
       <path fill="none" stroke="rgb(21,21,21)" d="M 1697,13159 C 1591,13159 1486,13264 1486,13370 L 1486,14218 C 1486,14324 1591,14430 1697,14430 L 26040,14430 C 26146,14430 26252,14324 26252,14218 L 26252,13370 C 26252,13264 26146,13159 26040,13159 L 1697,13159 Z"/>
       <path fill="none" stroke="rgb(21,21,21)" d="M 1486,13159 L 1486,13159 Z"/>
       <path fill="none" stroke="rgb(21,21,21)" d="M 26252,14430 L 26252,14430 Z"/>
       <text class="TextShape"><tspan class="TextParagraph" font-family="Arial, sans-serif" font-size="459px" font-weight="400"><tspan class="TextPosition" x="9877" y="13953"><tspan fill="rgb(255,255,255)" stroke="none">CoAction Hero (or other lpc17xx board)</tspan></tspan></tspan></text>
      </g>
     </g>
     <g class="com.sun.star.drawing.CustomShape">
      <g id="id7">
       <g>
        <defs>
         <linearGradient id="gradient5" x1="9004" y1="1552" x2="9004" y2="2825" gradientUnits="userSpaceOnUse">
          <stop offset="0" style="stop-color:rgb(98,196,98)"/>
          <stop offset="1" style="stop-color:rgb(81,163,81)"/>
         </linearGradient>
        </defs>
        <path style="fill:url(#gradient5)" d="M 3182,1553 L 3162,1554 3143,1558 3123,1563 3104,1571 3086,1581 3069,1592 3052,1605 3037,1619 3023,1634 3010,1651 2999,1668 2989,1686 2981,1705 2976,1725 2972,1744 2971,1764 2971,2612 2972,2632 2976,2652 2981,2671 2989,2690 2999,2708 3010,2726 3023,2742 3037,2758 3052,2772 3069,2785 3086,2796 3104,2806 3123,2814 3143,2819 3162,2823 3182,2824 14825,2824 14845,2823 14865,2819 14884,2814 14903,2806 14921,2796 14939,2785 14955,2772 14971,2758 14985,2742 14998,2726 15009,2708 15019,2690 15027,2671 15032,2652 15036,2632 15037,2612 15037,1764 15036,1744 15032,1725 15027,1705 15019,1686 15009,1668 14998,1651 14985,1634 14971,1619 14955,1605 14939,1592 14921,1581 14903,1571 14884,1563 14865,1558 14845,1554 14825,1553 3182,1553 Z"/>
       </g>
       <path fill="none" stroke="rgb(64,129,64)" d="M 1697,777 C 1591,777 1486,882 1486,988 L 1486,1836 C 1486,1942 1591,2048 1697,2048 L 13340,2048 C 13446,2048 13552,1942 13552,1836 L 13552,988 C 13552,882 13446,777 13340,777 L 1697,777 Z"/>
       <path fill="none" stroke="rgb(64,129,64)" d="M 1486,777 L 1486,777 Z"/>
       <path fill="none" stroke="rgb(64,129,64)" d="M 13552,2048 L 13552,2048 Z"/>
       <text class="TextShape"><tspan class="TextParagraph" font-family="Arial, sans-serif" font-size="459px" font-weight="400"><tspan class="TextPosition" x="5783" y="1571"><tspan fill="rgb(255,255,255)" stroke="none">Flash Application</tspan></tspan></tspan></text>
      </g>
     </g>
     <g class="com.sun.star.drawing.CustomShape">
      <g id="id8">
       <g>
        <defs>
         <linearGradient id="gradient6" x1="34405" y1="1552" x2="34405" y2="2825" gradientUnits="userSpaceOnUse">
          <stop offset="0" style="stop-color:rgb(98,196,98)"/>
          <stop offset="1" style="stop-color:rgb(81,163,81)"/>
         </linearGradient>
        </defs>
        <path style="fill:url(#gradient6)" d="M 28584,1553 L 28564,1554 28545,1558 28525,1563 28506,1571 28488,1581 28471,1592 28454,1605 28439,1619 28425,1634 28412,1651 28401,1668 28391,1686 28383,1705 28378,1725 28374,1744 28373,1764 28373,2612 28374,2632 28378,2652 28383,2671 28391,2690 28401,2708 28412,2726 28425,2742 28439,2758 28454,2772 28471,2785 28488,2796 28506,2806 28525,2814 28545,2819 28564,2823 28584,2824 40226,2824 40246,2823 40266,2819 40285,2814 40304,2806 40322,2796 40340,2785 40356,2772 40372,2758 40386,2742 40399,2726 40410,2708 40420,2690 40428,2671 40433,2652 40437,2632 40438,2612 40438,1764 40437,1744 40433,1725 40428,1705 40420,1686 40410,1668 40399,1651 40386,1634 40372,1619 40356,1605 40340,1592 40322,1581 40304,1571 40285,1563 40266,1558 40246,1554 40226,1553 28584,1553 Z"/>
       </g>
       <path fill="none" stroke="rgb(64,129,64)" d="M 14398,777 C 14292,777 14187,882 14187,988 L 14187,1836 C 14187,1942 14292,2048 14398,2048 L 26040,2048 C 26146,2048 26252,1942 26252,1836 L 26252,988 C 26252,882 26146,777 26040,777 L 14398,777 Z"/>
       <path fill="none" stroke="rgb(64,129,64)" d="M 14187,777 L 14187,777 Z"/>
       <path fill="none" stroke="rgb(64,129,64)" d="M 26252,2048 L 26252,2048 Z"/>
       <text class="TextShape"><tspan class="TextParagraph" font-family="Arial, sans-serif" font-size="459px" font-weight="400"><tspan class="TextPosition" x="18534" y="1571"><tspan fill="rgb(255,255,255)" stroke="none">RAM Application</tspan></tspan></tspan></text>
      </g>
     </g>
     <g class="com.sun.star.drawing.CustomShape">
      <g id="id9">
       <g>
        <defs>
         <linearGradient id="gradient7" x1="48693" y1="30760" x2="48693" y2="31556" gradientUnits="userSpaceOnUse">
          <stop offset="0" style="stop-color:rgb(98,196,98)"/>
          <stop offset="1" style="stop-color:rgb(81,163,81)"/>
         </linearGradient>
        </defs>
        <path style="fill:url(#gradient7)" d="M 47555,30761 L 47543,30762 47530,30764 47518,30768 47507,30772 47495,30778 47484,30785 47474,30793 47464,30802 47455,30812 47447,30822 47440,30833 47434,30845 47430,30856 47426,30868 47424,30881 47423,30893 47423,31422 47424,31434 47426,31447 47430,31459 47434,31471 47440,31482 47447,31493 47455,31504 47464,31513 47474,31522 47484,31530 47495,31537 47507,31544 47518,31548 47530,31552 47543,31554 47555,31555 49831,31555 49843,31554 49856,31552 49868,31548 49880,31544 49891,31537 49902,31530 49913,31522 49922,31513 49931,31504 49939,31493 49946,31482 49953,31471 49957,31459 49961,31447 49963,31434 49964,31422 49964,30893 49963,30881 49961,30868 49957,30856 49953,30845 49946,30833 49939,30822 49931,30812 49922,30802 49913,30793 49902,30785 49891,30778 49880,30772 49868,30768 49856,30764 49843,30762 49831,30761 47555,30761 Z"/>
       </g>
       <path fill="none" stroke="rgb(64,129,64)" d="M 23844,15381 C 23778,15381 23712,15447 23712,15513 L 23712,16042 C 23712,16108 23778,16175 23844,16175 L 26120,16175 C 26186,16175 26253,16108 26253,16042 L 26253,15513 C 26253,15447 26186,15381 26120,15381 L 23844,15381 Z"/>
       <path fill="none" stroke="rgb(64,129,64)" d="M 23712,15381 L 23712,15381 Z"/>
       <path fill="none" stroke="rgb(64,129,64)" d="M 26253,16175 L 26253,16175 Z"/>
       <text class="TextShape"><tspan class="TextParagraph" font-family="Arial, sans-serif" font-size="459px" font-weight="400"><tspan class="TextPosition" x="23860" y="15937"><tspan fill="rgb(255,255,255)" stroke="none">Application</tspan></tspan></tspan></text>
      </g>
     </g>
     <g class="com.sun.star.drawing.CustomShape">
      <g id="id10">
       <g>
        <defs>
         <linearGradient id="gradient8" x1="4243" y1="30760" x2="4243" y2="31556" gradientUnits="userSpaceOnUse">
          <stop offset="0" style="stop-color:rgb(68,68,68)"/>
          <stop offset="1" style="stop-color:rgb(34,34,34)"/>
         </linearGradient>
        </defs>
        <path style="fill:url(#gradient8)" d="M 3105,30761 L 3093,30762 3080,30764 3068,30768 3057,30772 3045,30778 3034,30785 3024,30793 3014,30802 3005,30812 2997,30822 2990,30833 2984,30845 2980,30856 2976,30868 2974,30881 2973,30893 2973,31422 2974,31434 2976,31447 2980,31459 2984,31471 2990,31482 2997,31493 3005,31504 3014,31513 3024,31522 3034,31530 3045,31537 3057,31544 3068,31548 3080,31552 3093,31554 3105,31555 5381,31555 5393,31554 5406,31552 5418,31548 5430,31544 5441,31537 5452,31530 5463,31522 5472,31513 5481,31504 5489,31493 5496,31482 5503,31471 5507,31459 5511,31447 5513,31434 5514,31422 5514,30893 5513,30881 5511,30868 5507,30856 5503,30845 5496,30833 5489,30822 5481,30812 5472,30802 5463,30793 5452,30785 5441,30778 5430,30772 5418,30768 5406,30764 5393,30762 5381,30761 3105,30761 Z"/>
       </g>
       <path fill="none" stroke="rgb(21,21,21)" d="M 1619,15381 C 1553,15381 1487,15447 1487,15513 L 1487,16042 C 1487,16108 1553,16175 1619,16175 L 3895,16175 C 3961,16175 4028,16108 4028,16042 L 4028,15513 C 4028,15447 3961,15381 3895,15381 L 1619,15381 Z"/>
       <path fill="none" stroke="rgb(21,21,21)" d="M 1487,15381 L 1487,15381 Z"/>
       <path fill="none" stroke="rgb(21,21,21)" d="M 4028,16175 L 4028,16175 Z"/>
       <text class="TextShape"><tspan class="TextParagraph" font-family="Arial, sans-serif" font-size="459px" font-weight="400"><tspan class="TextPosition" x="1762" y="15937"><tspan fill="rgb(255,255,255)" stroke="none">Hardware</tspan></tspan></tspan></text>
      </g>
     </g>
     <g class="com.sun.star.drawing.CustomShape">
      <g id="id11">
       <g>
        <defs>
         <linearGradient id="gradient9" x1="15988" y1="18694" x2="15988" y2="19808" gradientUnits="userSpaceOnUse">
          <stop offset="0" style="stop-color:rgb(255,255,255)"/>
          <stop offset="1" style="stop-color:rgb(230,230,230)"/>
         </linearGradient>
        </defs>
        <path style="fill:url(#gradient9)" d="M 4426,18695 L 4409,18696 4391,18699 4374,18704 4358,18711 4342,18719 4327,18729 4312,18740 4299,18753 4286,18766 4275,18781 4265,18796 4257,18812 4250,18828 4245,18845 4242,18863 4241,18880 4241,19621 4242,19638 4245,19656 4250,19673 4257,19689 4265,19705 4275,19721 4286,19735 4299,19749 4312,19761 4327,19773 4342,19783 4358,19791 4374,19798 4391,19803 4409,19806 4426,19807 27551,19807 27568,19806 27585,19803 27602,19798 27619,19791 27635,19783 27650,19773 27664,19761 27678,19749 27690,19735 27702,19721 27712,19705 27720,19689 27727,19673 27732,19656 27735,19638 27736,19621 27736,18880 27735,18863 27732,18845 27727,18828 27720,18812 27712,18796 27702,18781 27690,18766 27678,18753 27664,18740 27650,18729 27635,18719 27619,18711 27602,18704 27585,18699 27568,18696 27551,18695 4426,18695 Z"/>
       </g>
       <path fill="none" stroke="rgb(230,230,230)" d="M 2306,9348 C 2213,9348 2121,9440 2121,9533 L 2121,10274 C 2121,10367 2213,10460 2306,10460 L 25431,10460 C 25523,10460 25616,10367 25616,10274 L 25616,9533 C 25616,9440 25523,9348 25431,9348 L 2306,9348 Z"/>
       <path fill="none" stroke="rgb(230,230,230)" d="M 2121,9348 L 2121,9348 Z"/>
       <path fill="none" stroke="rgb(230,230,230)" d="M 25617,10460 L 25617,10460 Z"/>
       <text class="TextShape"><tspan class="TextParagraph" font-family="Arial, sans-serif" font-size="459px" font-weight="400"><tspan class="TextPosition" x="12427" y="10063"><tspan fill="rgb(0,0,0)" stroke="none">Task Manager</tspan></tspan></tspan></text>
      </g>
     </g>
     <g class="com.sun.star.drawing.CustomShape">
      <g id="id12">
       <g>
        <defs>
         <linearGradient id="gradient10" x1="39803" y1="30760" x2="39803" y2="31556" gradientUnits="userSpaceOnUse">
          <stop offset="0" style="stop-color:rgb(91,192,222)"/>
          <stop offset="1" style="stop-color:rgb(47,150,180)"/>
         </linearGradient>
        </defs>
        <path style="fill:url(#gradient10)" d="M 38665,30761 L 38653,30762 38640,30764 38628,30768 38617,30772 38605,30778 38594,30785 38584,30793 38574,30802 38565,30812 38557,30822 38550,30833 38544,30845 38540,30856 38536,30868 38534,30881 38533,30893 38533,31422 38534,31434 38536,31447 38540,31459 38544,31471 38550,31482 38557,31493 38565,31504 38574,31513 38584,31522 38594,31530 38605,31537 38617,31544 38628,31548 38640,31552 38653,31554 38665,31555 40941,31555 40953,31554 40966,31552 40978,31548 40990,31544 41001,31537 41012,31530 41023,31522 41032,31513 41041,31504 41049,31493 41056,31482 41062,31471 41067,31459 41071,31447 41073,31434 41074,31422 41074,30893 41073,30881 41071,30868 41067,30856 41062,30845 41056,30833 41049,30822 41041,30812 41032,30802 41023,30793 41012,30785 41001,30778 40990,30772 40978,30768 40966,30764 40953,30762 40941,30761 38665,30761 Z"/>
       </g>
       <path fill="none" stroke="rgb(42,133,160)" d="M 19399,15381 C 19333,15381 19267,15447 19267,15513 L 19267,16042 C 19267,16108 19333,16175 19399,16175 L 21675,16175 C 21741,16175 21808,16108 21808,16042 L 21808,15513 C 21808,15447 21741,15381 21675,15381 L 19399,15381 Z"/>
       <path fill="none" stroke="rgb(42,133,160)" d="M 19267,15381 L 19267,15381 Z"/>
       <path fill="none" stroke="rgb(42,133,160)" d="M 21808,16175 L 21808,16175 Z"/>
       <text class="TextShape"><tspan class="TextParagraph" font-family="Arial, sans-serif" font-size="459px" font-weight="400"><tspan class="TextPosition" x="19631" y="15937"><tspan fill="rgb(255,255,255)" stroke="none">User API</tspan></tspan></tspan></text>
      </g>
     </g>
     <g class="com.sun.star.drawing.CustomShape">
      <g id="id13">
       <g>
        <defs>
         <linearGradient id="gradient11" x1="22973" y1="12980" x2="22973" y2="13618" gradientUnits="userSpaceOnUse">
          <stop offset="0" style="stop-color:rgb(249,148,62)"/>
          <stop offset="1" style="stop-color:rgb(228,108,7)"/>
         </linearGradient>
        </defs>
        <path style="fill:url(#gradient11)" d="M 17681,12981 L 17671,12982 17661,12983 17652,12986 17642,12990 17633,12995 17624,13001 17616,13007 17608,13014 17601,13022 17595,13030 17589,13039 17584,13048 17580,13058 17577,13067 17576,13077 17575,13087 17575,13511 17576,13521 17577,13531 17580,13540 17584,13550 17589,13559 17595,13568 17601,13576 17608,13584 17616,13591 17624,13597 17633,13603 17642,13608 17652,13612 17661,13615 17671,13616 17681,13617 28265,13617 28275,13616 28285,13615 28294,13612 28304,13608 28313,13603 28322,13597 28330,13591 28338,13584 28345,13576 28351,13568 28357,13559 28362,13550 28366,13540 28369,13531 28370,13521 28371,13511 28371,13087 28370,13077 28369,13067 28366,13058 28362,13048 28357,13039 28351,13030 28345,13022 28338,13014 28330,13007 28322,13001 28313,12995 28304,12990 28294,12986 28285,12983 28275,12982 28265,12981 17681,12981 Z"/>
       </g>
       <path fill="none" stroke="rgb(228,108,7)" d="M 8894,6491 C 8841,6491 8788,6544 8788,6597 L 8788,7021 C 8788,7074 8841,7127 8894,7127 L 19478,7127 C 19531,7127 19584,7074 19584,7021 L 19584,6597 C 19584,6544 19531,6491 19478,6491 L 8894,6491 Z"/>
       <path fill="none" stroke="rgb(228,108,7)" d="M 8788,6491 L 8788,6491 Z"/>
       <path fill="none" stroke="rgb(228,108,7)" d="M 19584,7127 L 19584,7127 Z"/>
       <text class="TextShape"><tspan class="TextParagraph" font-family="Arial, sans-serif" font-size="459px" font-weight="400"><tspan class="TextPosition" x="13369" y="6968"><tspan fill="rgb(255,255,255)" stroke="none">Devices</tspan></tspan></tspan></text>
      </g>
     </g>
     <g class="com.sun.star.drawing.CustomShape">
      <g id="id14">
       <g>
        <defs>
         <linearGradient id="gradient12" x1="9638" y1="9170" x2="9638" y2="9808" gradientUnits="userSpaceOnUse">
          <stop offset="0" style="stop-color:rgb(13,112,210)"/>
          <stop offset="1" style="stop-color:rgb(13,46,210)"/>
         </linearGradient>
        </defs>
        <path style="fill:url(#gradient12)" d="M 8791,9171 L 8781,9172 8771,9173 8762,9176 8752,9180 8743,9185 8734,9191 8726,9197 8718,9204 8711,9212 8705,9220 8699,9229 8694,9238 8690,9248 8687,9257 8686,9267 8685,9277 8685,9701 8686,9711 8687,9721 8690,9730 8694,9740 8699,9749 8705,9758 8711,9766 8718,9774 8726,9781 8734,9787 8743,9793 8752,9798 8762,9802 8771,9805 8781,9806 8791,9807 10485,9807 10495,9806 10505,9805 10514,9802 10524,9798 10533,9793 10542,9787 10550,9781 10558,9774 10565,9766 10571,9758 10577,9749 10582,9740 10586,9730 10589,9721 10590,9711 10591,9701 10591,9277 10590,9267 10589,9257 10586,9248 10582,9238 10577,9229 10571,9220 10565,9212 10558,9204 10550,9197 10542,9191 10533,9185 10524,9180 10514,9176 10505,9173 10495,9172 10485,9171 8791,9171 Z"/>
       </g>
       <path fill="none" stroke="rgb(13,46,210)" d="M 4449,4586 C 4396,4586 4343,4639 4343,4692 L 4343,5116 C 4343,5169 4396,5222 4449,5222 L 6143,5222 C 6196,5222 6249,5169 6249,5116 L 6249,4692 C 6249,4639 6196,4586 6143,4586 L 4449,4586 Z"/>
       <path fill="none" stroke="rgb(13,46,210)" d="M 4343,4586 L 4343,4586 Z"/>
       <path fill="none" stroke="rgb(13,46,210)" d="M 6249,5222 L 6249,5222 Z"/>
       <text class="TextShape"><tspan class="TextParagraph" font-family="Arial, sans-serif" font-size="459px" font-weight="400"><tspan class="TextPosition" x="4697" y="5063"><tspan fill="rgb(255,255,255)" stroke="none">signal</tspan></tspan></tspan></text>
      </g>
     </g>
     <g class="com.sun.star.drawing.CustomShape">
      <g id="id15">
       <g>
        <defs>
         <linearGradient id="gradient13" x1="14085" y1="9172" x2="14085" y2="9809" gradientUnits="userSpaceOnUse">
          <stop offset="0" style="stop-color:rgb(13,112,210)"/>
          <stop offset="1" style="stop-color:rgb(13,46,210)"/>
         </linearGradient>
        </defs>
        <path style="fill:url(#gradient13)" d="M 13238,9173 L 13228,9174 13218,9175 13209,9178 13199,9182 13190,9187 13181,9192 13173,9199 13166,9206 13159,9213 13152,9221 13147,9230 13142,9239 13138,9249 13135,9258 13134,9268 13133,9278 13133,9702 13134,9712 13135,9722 13138,9731 13142,9741 13147,9750 13152,9759 13159,9767 13166,9775 13173,9782 13181,9788 13190,9794 13199,9799 13209,9803 13218,9806 13228,9807 13238,9808 14932,9808 14942,9807 14952,9806 14961,9803 14971,9799 14980,9794 14989,9788 14997,9782 15005,9775 15012,9767 15018,9759 15024,9750 15029,9741 15033,9731 15036,9722 15037,9712 15038,9702 15038,9278 15037,9268 15036,9258 15033,9249 15029,9239 15024,9230 15018,9221 15012,9213 15005,9206 14997,9199 14989,9192 14980,9187 14971,9182 14961,9178 14952,9175 14942,9174 14932,9173 13238,9173 Z"/>
       </g>
       <path fill="none" stroke="rgb(13,46,210)" d="M 6672,4587 C 6619,4587 6567,4639 6567,4692 L 6567,5116 C 6567,5169 6619,5222 6672,5222 L 8366,5222 C 8419,5222 8472,5169 8472,5116 L 8472,4692 C 8472,4639 8419,4587 8366,4587 L 6672,4587 Z"/>
       <path fill="none" stroke="rgb(13,46,210)" d="M 6567,4587 L 6567,4587 Z"/>
       <path fill="none" stroke="rgb(13,46,210)" d="M 8472,5222 L 8472,5222 Z"/>
       <text class="TextShape"><tspan class="TextParagraph" font-family="Arial, sans-serif" font-size="459px" font-weight="400"><tspan class="TextPosition" x="6740" y="5063"><tspan fill="rgb(255,255,255)" stroke="none">pthread</tspan></tspan></tspan></text>
      </g>
     </g>
     <g class="com.sun.star.drawing.CustomShape">
      <g id="id16">
       <g>
        <defs>
         <linearGradient id="gradient14" x1="9641" y1="10756" x2="9641" y2="11394" gradientUnits="userSpaceOnUse">
          <stop offset="0" style="stop-color:rgb(13,112,210)"/>
          <stop offset="1" style="stop-color:rgb(13,46,210)"/>
         </linearGradient>
        </defs>
        <path style="fill:url(#gradient14)" d="M 8795,10757 L 8785,10758 8775,10759 8766,10762 8756,10766 8747,10771 8738,10777 8730,10783 8722,10790 8715,10798 8709,10806 8703,10815 8698,10824 8694,10834 8691,10843 8690,10853 8689,10863 8689,11287 8690,11297 8691,11307 8694,11316 8698,11326 8703,11335 8709,11344 8715,11352 8722,11360 8730,11367 8738,11373 8747,11379 8756,11384 8766,11388 8775,11391 8785,11392 8795,11393 10488,11393 10498,11392 10508,11391 10517,11388 10527,11384 10536,11379 10545,11373 10553,11367 10561,11360 10568,11352 10574,11344 10580,11335 10585,11326 10589,11316 10592,11307 10593,11297 10594,11287 10594,10863 10593,10853 10592,10843 10589,10834 10585,10824 10580,10815 10574,10806 10568,10798 10561,10790 10553,10783 10545,10777 10536,10771 10527,10766 10517,10762 10508,10759 10498,10758 10488,10757 8795,10757 Z"/>
       </g>
       <path fill="none" stroke="rgb(13,46,210)" d="M 4451,5379 C 4398,5379 4345,5432 4345,5485 L 4345,5909 C 4345,5962 4398,6015 4451,6015 L 6144,6015 C 6197,6015 6250,5962 6250,5909 L 6250,5485 C 6250,5432 6197,5379 6144,5379 L 4451,5379 Z"/>
       <path fill="none" stroke="rgb(13,46,210)" d="M 4345,5379 L 4345,5379 Z"/>
       <path fill="none" stroke="rgb(13,46,210)" d="M 6250,6015 L 6250,6015 Z"/>
       <text class="TextShape"><tspan class="TextParagraph" font-family="Arial, sans-serif" font-size="459px" font-weight="400"><tspan class="TextPosition" x="4863" y="5856"><tspan fill="rgb(255,255,255)" stroke="none">time</tspan></tspan></tspan></text>
      </g>
     </g>
     <g class="com.sun.star.drawing.CustomShape">
      <g id="id17">
       <g>
        <defs>
         <linearGradient id="gradient15" x1="5194" y1="9170" x2="5194" y2="9808" gradientUnits="userSpaceOnUse">
          <stop offset="0" style="stop-color:rgb(13,112,210)"/>
          <stop offset="1" style="stop-color:rgb(13,46,210)"/>
         </linearGradient>
        </defs>
        <path style="fill:url(#gradient15)" d="M 4347,9171 L 4337,9172 4327,9173 4318,9176 4308,9180 4299,9185 4290,9191 4282,9197 4274,9204 4267,9212 4261,9220 4255,9229 4250,9238 4246,9248 4243,9257 4242,9267 4241,9277 4241,9701 4242,9711 4243,9721 4246,9730 4250,9740 4255,9749 4261,9758 4267,9766 4274,9774 4282,9781 4290,9787 4299,9793 4308,9798 4318,9802 4327,9805 4337,9806 4347,9807 6041,9807 6051,9806 6061,9805 6070,9802 6080,9798 6089,9793 6098,9787 6106,9781 6114,9774 6121,9766 6127,9758 6133,9749 6138,9740 6142,9730 6145,9721 6146,9711 6147,9701 6147,9277 6146,9267 6145,9257 6142,9248 6138,9238 6133,9229 6127,9220 6121,9212 6114,9204 6106,9197 6098,9191 6089,9185 6080,9180 6070,9176 6061,9173 6051,9172 6041,9171 4347,9171 Z"/>
       </g>
       <path fill="none" stroke="rgb(13,46,210)" d="M 2227,4586 C 2174,4586 2121,4639 2121,4692 L 2121,5116 C 2121,5169 2174,5222 2227,5222 L 3921,5222 C 3974,5222 4027,5169 4027,5116 L 4027,4692 C 4027,4639 3974,4586 3921,4586 L 2227,4586 Z"/>
       <path fill="none" stroke="rgb(13,46,210)" d="M 2121,4586 L 2121,4586 Z"/>
       <path fill="none" stroke="rgb(13,46,210)" d="M 4027,5222 L 4027,5222 Z"/>
       <text class="TextShape"><tspan class="TextParagraph" font-family="Arial, sans-serif" font-size="459px" font-weight="400"><tspan class="TextPosition" x="2244" y="5063"><tspan fill="rgb(255,255,255)" stroke="none">mqueue</tspan></tspan></tspan></text>
      </g>
     </g>
     <g class="com.sun.star.drawing.CustomShape">
      <g id="id18">
       <g>
        <defs>
         <linearGradient id="gradient16" x1="5194" y1="10756" x2="5194" y2="11394" gradientUnits="userSpaceOnUse">
          <stop offset="0" style="stop-color:rgb(13,112,210)"/>
          <stop offset="1" style="stop-color:rgb(13,46,210)"/>
         </linearGradient>
        </defs>
        <path style="fill:url(#gradient16)" d="M 4347,10757 L 4337,10758 4327,10759 4318,10762 4308,10766 4299,10771 4290,10777 4282,10783 4274,10790 4267,10798 4261,10806 4255,10815 4250,10824 4246,10834 4243,10843 4242,10853 4241,10863 4241,11287 4242,11297 4243,11307 4246,11316 4250,11326 4255,11335 4261,11344 4267,11352 4274,11360 4282,11367 4290,11373 4299,11379 4308,11384 4318,11388 4327,11391 4337,11392 4347,11393 6041,11393 6051,11392 6061,11391 6070,11388 6080,11384 6089,11379 6098,11373 6106,11367 6114,11360 6121,11352 6127,11344 6133,11335 6138,11326 6142,11316 6145,11307 6146,11297 6147,11287 6147,10863 6146,10853 6145,10843 6142,10834 6138,10824 6133,10815 6127,10806 6121,10798 6114,10790 6106,10783 6098,10777 6089,10771 6080,10766 6070,10762 6061,10759 6051,10758 6041,10757 4347,10757 Z"/>
       </g>
       <path fill="none" stroke="rgb(13,46,210)" d="M 2227,5379 C 2174,5379 2121,5432 2121,5485 L 2121,5909 C 2121,5962 2174,6015 2227,6015 L 3921,6015 C 3974,6015 4027,5962 4027,5909 L 4027,5485 C 4027,5432 3974,5379 3921,5379 L 2227,5379 Z"/>
       <path fill="none" stroke="rgb(13,46,210)" d="M 2121,5379 L 2121,5379 Z"/>
       <path fill="none" stroke="rgb(13,46,210)" d="M 4027,6015 L 4027,6015 Z"/>
       <text class="TextShape"><tspan class="TextParagraph" font-family="Arial, sans-serif" font-size="459px" font-weight="400"><tspan class="TextPosition" x="2640" y="5856"><tspan fill="rgb(255,255,255)" stroke="none">sem</tspan></tspan></tspan></text>
      </g>
     </g>
     <g class="com.sun.star.drawing.CustomShape">
      <g id="id19">
       <g>
        <defs>
         <linearGradient id="gradient17" x1="14084" y1="10756" x2="14084" y2="11394" gradientUnits="userSpaceOnUse">
          <stop offset="0" style="stop-color:rgb(13,112,210)"/>
          <stop offset="1" style="stop-color:rgb(13,46,210)"/>
         </linearGradient>
        </defs>
        <path style="fill:url(#gradient17)" d="M 13237,10757 L 13227,10758 13217,10759 13208,10762 13198,10766 13189,10771 13180,10777 13172,10783 13164,10790 13157,10798 13151,10806 13145,10815 13140,10824 13136,10834 13133,10843 13132,10853 13131,10863 13131,11287 13132,11297 13133,11307 13136,11316 13140,11326 13145,11335 13151,11344 13157,11352 13164,11360 13172,11367 13180,11373 13189,11379 13198,11384 13208,11388 13217,11391 13227,11392 13237,11393 14931,11393 14941,11392 14951,11391 14960,11388 14970,11384 14979,11379 14988,11373 14996,11367 15004,11360 15011,11352 15017,11344 15023,11335 15028,11326 15032,11316 15035,11307 15036,11297 15037,11287 15037,10863 15036,10853 15035,10843 15032,10834 15028,10824 15023,10815 15017,10806 15011,10798 15004,10790 14996,10783 14988,10777 14979,10771 14970,10766 14960,10762 14951,10759 14941,10758 14931,10757 13237,10757 Z"/>
       </g>
       <path fill="none" stroke="rgb(13,46,210)" d="M 6672,5379 C 6619,5379 6566,5432 6566,5485 L 6566,5909 C 6566,5962 6619,6015 6672,6015 L 8366,6015 C 8419,6015 8472,5962 8472,5909 L 8472,5485 C 8472,5432 8419,5379 8366,5379 L 6672,5379 Z"/>
       <path fill="none" stroke="rgb(13,46,210)" d="M 6566,5379 L 6566,5379 Z"/>
       <path fill="none" stroke="rgb(13,46,210)" d="M 8472,6015 L 8472,6015 Z"/>
       <text class="TextShape"><tspan class="TextParagraph" font-family="Arial, sans-serif" font-size="459px" font-weight="400"><tspan class="TextPosition" x="6907" y="5856"><tspan fill="rgb(255,255,255)" stroke="none">sched</tspan></tspan></tspan></text>
      </g>
     </g>
     <g class="com.sun.star.drawing.CustomShape">
      <g id="id20">
       <g>
        <defs>
         <linearGradient id="gradient18" x1="30913" y1="30760" x2="30913" y2="31556" gradientUnits="userSpaceOnUse">
          <stop offset="0" style="stop-color:rgb(13,112,210)"/>
          <stop offset="1" style="stop-color:rgb(13,46,210)"/>
         </linearGradient>
        </defs>
        <path style="fill:url(#gradient18)" d="M 29775,30761 L 29763,30762 29750,30764 29738,30768 29727,30772 29715,30778 29704,30785 29694,30793 29684,30802 29675,30812 29667,30822 29660,30833 29654,30845 29650,30856 29646,30868 29644,30881 29643,30893 29643,31422 29644,31434 29646,31447 29650,31459 29654,31471 29660,31482 29667,31493 29675,31504 29684,31513 29694,31522 29704,31530 29715,31537 29727,31544 29738,31548 29750,31552 29763,31554 29775,31555 32051,31555 32063,31554 32076,31552 32088,31548 32100,31544 32111,31537 32122,31530 32133,31522 32142,31513 32151,31504 32159,31493 32166,31482 32173,31471 32177,31459 32181,31447 32183,31434 32184,31422 32184,30893 32183,30881 32181,30868 32177,30856 32173,30845 32166,30833 32159,30822 32151,30812 32142,30802 32133,30793 32122,30785 32111,30778 32100,30772 32088,30768 32076,30764 32063,30762 32051,30761 29775,30761 Z"/>
       </g>
       <path fill="none" stroke="rgb(13,46,210)" d="M 14954,15381 C 14888,15381 14822,15447 14822,15513 L 14822,16042 C 14822,16108 14888,16175 14954,16175 L 17230,16175 C 17296,16175 17363,16108 17363,16042 L 17363,15513 C 17363,15447 17296,15381 17230,15381 L 14954,15381 Z"/>
       <path fill="none" stroke="rgb(13,46,210)" d="M 14822,15381 L 14822,15381 Z"/>
       <path fill="none" stroke="rgb(13,46,210)" d="M 17363,16175 L 17363,16175 Z"/>
       <text class="TextShape"><tspan class="TextParagraph" font-family="Arial, sans-serif" font-size="459px" font-weight="400"><tspan class="TextPosition" x="15288" y="15937"><tspan fill="rgb(255,255,255)" stroke="none">Sys API</tspan></tspan></tspan></text>
      </g>
     </g>
     <g class="com.sun.star.drawing.CustomShape">
      <g id="id21">
       <g>
        <defs>
         <linearGradient id="gradient19" x1="18212" y1="14884" x2="18212" y2="15522" gradientUnits="userSpaceOnUse">
          <stop offset="0" style="stop-color:rgb(255,95,91)"/>
          <stop offset="1" style="stop-color:rgb(189,54,47)"/>
         </linearGradient>
        </defs>
        <path style="fill:url(#gradient19)" d="M 17683,14885 L 17673,14886 17663,14887 17654,14890 17644,14894 17635,14899 17626,14905 17618,14911 17610,14918 17603,14926 17597,14934 17591,14943 17586,14952 17582,14962 17579,14971 17578,14981 17577,14991 17577,15415 17578,15425 17579,15435 17582,15444 17586,15454 17591,15463 17597,15472 17603,15480 17610,15488 17618,15495 17626,15501 17635,15507 17644,15512 17654,15516 17663,15519 17673,15520 17683,15521 18742,15521 18752,15520 18762,15519 18771,15516 18781,15512 18790,15507 18799,15501 18807,15495 18815,15488 18822,15480 18828,15472 18834,15463 18839,15454 18843,15444 18846,15435 18847,15425 18848,15415 18848,14991 18847,14981 18846,14971 18843,14962 18839,14952 18834,14943 18828,14934 18822,14926 18815,14918 18807,14911 18799,14905 18790,14899 18781,14894 18771,14890 18762,14887 18752,14886 18742,14885 17683,14885 Z"/>
       </g>
       <path fill="none" stroke="rgb(189,54,47)" d="M 8895,7443 C 8842,7443 8789,7496 8789,7549 L 8789,7973 C 8789,8026 8842,8079 8895,8079 L 9954,8079 C 10007,8079 10060,8026 10060,7973 L 10060,7549 C 10060,7496 10007,7443 9954,7443 L 8895,7443 Z"/>
       <path fill="none" stroke="rgb(189,54,47)" d="M 8789,7443 L 8789,7443 Z"/>
       <path fill="none" stroke="rgb(189,54,47)" d="M 10060,8079 L 10060,8079 Z"/>
       <text class="TextShape"><tspan class="TextParagraph" font-family="Arial, sans-serif" font-size="459px" font-weight="400"><tspan class="TextPosition" x="8952" y="7920"><tspan fill="rgb(255,255,255)" stroke="none">USB</tspan></tspan></tspan></text>
      </g>
     </g>
     <g class="com.sun.star.drawing.CustomShape">
      <g id="id22">
       <g>
        <defs>
         <linearGradient id="gradient20" x1="41706" y1="12982" x2="41706" y2="15525" gradientUnits="userSpaceOnUse">
          <stop offset="0" style="stop-color:rgb(249,148,62)"/>
          <stop offset="1" style="stop-color:rgb(228,108,7)"/>
         </linearGradient>
        </defs>
        <path style="fill:url(#gradient20)" d="M 40858,12983 L 40818,12985 40779,12992 40740,13004 40702,13019 40666,13038 40631,13061 40598,13087 40567,13115 40539,13146 40513,13179 40490,13214 40471,13250 40456,13288 40444,13327 40437,13366 40435,13406 40435,15100 40437,15140 40444,15179 40456,15218 40471,15256 40490,15292 40513,15327 40539,15360 40567,15392 40598,15420 40631,15446 40666,15468 40702,15488 40740,15503 40779,15514 40818,15522 40858,15524 42553,15524 42593,15522 42632,15514 42671,15503 42709,15488 42745,15468 42780,15446 42813,15420 42845,15392 42873,15360 42899,15327 42921,15292 42941,15256 42956,15218 42967,15179 42975,15140 42977,15100 42977,13406 42975,13366 42967,13327 42956,13288 42941,13250 42921,13214 42899,13179 42873,13146 42845,13115 42813,13087 42780,13061 42745,13038 42709,13019 42671,13004 42632,12992 42593,12985 42553,12983 40858,12983 Z"/>
       </g>
       <path fill="none" stroke="rgb(228,108,7)" d="M 20641,6492 C 20429,6492 20218,6703 20218,6915 L 20218,8609 C 20218,8821 20429,9033 20641,9033 L 22336,9033 C 22548,9033 22760,8821 22760,8609 L 22760,6915 C 22760,6703 22548,6492 22336,6492 L 20641,6492 Z"/>
       <path fill="none" stroke="rgb(228,108,7)" d="M 20218,6492 L 20218,6492 Z"/>
       <path fill="none" stroke="rgb(228,108,7)" d="M 22760,9033 L 22760,9033 Z"/>
       <text class="TextShape"><tspan class="TextParagraph" font-family="Arial, sans-serif" font-size="459px" font-weight="400"><tspan class="TextPosition" x="20354" y="7665"><tspan fill="rgb(255,255,255)" stroke="none">RAM/Flash</tspan></tspan></tspan><tspan class="TextParagraph" font-family="Arial, sans-serif" font-size="459px" font-weight="400"><tspan class="TextPosition" x="20418" y="8177"><tspan fill="rgb(255,255,255)" stroke="none">App Install</tspan></tspan></tspan></text>
      </g>
     </g>
     <g class="com.sun.star.drawing.CustomShape">
      <g id="id23">
       <g>
        <defs>
         <linearGradient id="gradient21" x1="47420" y1="12982" x2="47420" y2="15525" gradientUnits="userSpaceOnUse">
          <stop offset="0" style="stop-color:rgb(249,148,62)"/>
          <stop offset="1" style="stop-color:rgb(228,108,7)"/>
         </linearGradient>
        </defs>
        <path style="fill:url(#gradient21)" d="M 46572,12983 L 46532,12985 46493,12992 46454,13004 46416,13019 46380,13038 46345,13061 46312,13087 46281,13115 46253,13146 46227,13179 46204,13214 46185,13250 46170,13288 46158,13327 46151,13366 46149,13406 46149,15100 46151,15140 46158,15179 46170,15218 46185,15256 46204,15292 46227,15327 46253,15360 46281,15392 46312,15420 46345,15446 46380,15468 46416,15488 46454,15503 46493,15514 46532,15522 46572,15524 48267,15524 48307,15522 48346,15514 48385,15503 48423,15488 48459,15468 48494,15446 48527,15420 48559,15392 48587,15360 48613,15327 48635,15292 48655,15256 48670,15218 48681,15179 48689,15140 48691,15100 48691,13406 48689,13366 48681,13327 48670,13288 48655,13250 48635,13214 48613,13179 48587,13146 48559,13115 48527,13087 48494,13061 48459,13038 48423,13019 48385,13004 48346,12992 48307,12985 48267,12983 46572,12983 Z"/>
       </g>
       <path fill="none" stroke="rgb(228,108,7)" d="M 23498,6492 C 23286,6492 23075,6703 23075,6915 L 23075,8609 C 23075,8821 23286,9033 23498,9033 L 25193,9033 C 25405,9033 25617,8821 25617,8609 L 25617,6915 C 25617,6703 25405,6492 25193,6492 L 23498,6492 Z"/>
       <path fill="none" stroke="rgb(228,108,7)" d="M 23075,6492 L 23075,6492 Z"/>
       <path fill="none" stroke="rgb(228,108,7)" d="M 25617,9033 L 25617,9033 Z"/>
       <text class="TextShape"><tspan class="TextParagraph" font-family="Arial, sans-serif" font-size="459px" font-weight="400"><tspan class="TextPosition" x="23861" y="7665"><tspan fill="rgb(255,255,255)" stroke="none">User</tspan></tspan></tspan><tspan class="TextParagraph" font-family="Arial, sans-serif" font-size="459px" font-weight="400"><tspan class="TextPosition" x="23861" y="8177"><tspan fill="rgb(255,255,255)" stroke="none">Files</tspan></tspan></tspan></text>
      </g>
     </g>
     <g class="com.sun.star.drawing.CustomShape">
      <g id="id24">
       <g>
        <defs>
         <linearGradient id="gradient22" x1="21388" y1="14884" x2="21388" y2="15522" gradientUnits="userSpaceOnUse">
          <stop offset="0" style="stop-color:rgb(255,95,91)"/>
          <stop offset="1" style="stop-color:rgb(189,54,47)"/>
         </linearGradient>
        </defs>
        <path style="fill:url(#gradient22)" d="M 20859,14885 L 20849,14886 20839,14887 20830,14890 20820,14894 20811,14899 20802,14905 20794,14911 20786,14918 20779,14926 20773,14934 20767,14943 20762,14952 20758,14962 20755,14971 20754,14981 20753,14991 20753,15415 20754,15425 20755,15435 20758,15444 20762,15454 20767,15463 20773,15472 20779,15480 20786,15488 20794,15495 20802,15501 20811,15507 20820,15512 20830,15516 20839,15519 20849,15520 20859,15521 21918,15521 21928,15520 21938,15519 21947,15516 21957,15512 21966,15507 21975,15501 21983,15495 21991,15488 21998,15480 22004,15472 22010,15463 22015,15454 22019,15444 22022,15435 22023,15425 22024,15415 22024,14991 22023,14981 22022,14971 22019,14962 22015,14952 22010,14943 22004,14934 21998,14926 21991,14918 21983,14911 21975,14905 21966,14899 21957,14894 21947,14890 21938,14887 21928,14886 21918,14885 20859,14885 Z"/>
       </g>
       <path fill="none" stroke="rgb(189,54,47)" d="M 10483,7443 C 10430,7443 10377,7496 10377,7549 L 10377,7973 C 10377,8026 10430,8079 10483,8079 L 11542,8079 C 11595,8079 11648,8026 11648,7973 L 11648,7549 C 11648,7496 11595,7443 11542,7443 L 10483,7443 Z"/>
       <path fill="none" stroke="rgb(189,54,47)" d="M 10377,7443 L 10377,7443 Z"/>
       <path fill="none" stroke="rgb(189,54,47)" d="M 11648,8079 L 11648,8079 Z"/>
       <text class="TextShape"><tspan class="TextParagraph" font-family="Arial, sans-serif" font-size="459px" font-weight="400"><tspan class="TextPosition" x="10392" y="7920"><tspan fill="rgb(255,255,255)" stroke="none">UART</tspan></tspan></tspan></text>
      </g>
     </g>
     <g class="com.sun.star.drawing.CustomShape">
      <g id="id25">
       <g>
        <defs>
         <linearGradient id="gradient23" x1="24562" y1="14884" x2="24562" y2="15522" gradientUnits="userSpaceOnUse">
          <stop offset="0" style="stop-color:rgb(255,95,91)"/>
          <stop offset="1" style="stop-color:rgb(189,54,47)"/>
         </linearGradient>
        </defs>
        <path style="fill:url(#gradient23)" d="M 24033,14885 L 24023,14886 24013,14887 24004,14890 23994,14894 23985,14899 23976,14905 23968,14911 23960,14918 23953,14926 23947,14934 23941,14943 23936,14952 23932,14962 23929,14971 23928,14981 23927,14991 23927,15415 23928,15425 23929,15435 23932,15444 23936,15454 23941,15463 23947,15472 23953,15480 23960,15488 23968,15495 23976,15501 23985,15507 23994,15512 24004,15516 24013,15519 24023,15520 24033,15521 25092,15521 25102,15520 25112,15519 25121,15516 25131,15512 25140,15507 25149,15501 25157,15495 25165,15488 25172,15480 25178,15472 25184,15463 25189,15454 25193,15444 25196,15435 25197,15425 25198,15415 25198,14991 25197,14981 25196,14971 25193,14962 25189,14952 25184,14943 25178,14934 25172,14926 25165,14918 25157,14911 25149,14905 25140,14899 25131,14894 25121,14890 25112,14887 25102,14886 25092,14885 24033,14885 Z"/>
       </g>
       <path fill="none" stroke="rgb(189,54,47)" d="M 12070,7443 C 12017,7443 11964,7496 11964,7549 L 11964,7973 C 11964,8026 12017,8079 12070,8079 L 13129,8079 C 13182,8079 13235,8026 13235,7973 L 13235,7549 C 13235,7496 13182,7443 13129,7443 L 12070,7443 Z"/>
       <path fill="none" stroke="rgb(189,54,47)" d="M 11964,7443 L 11964,7443 Z"/>
       <path fill="none" stroke="rgb(189,54,47)" d="M 13235,8079 L 13235,8079 Z"/>
       <text class="TextShape"><tspan class="TextParagraph" font-family="Arial, sans-serif" font-size="459px" font-weight="400"><tspan class="TextPosition" x="12228" y="7920"><tspan fill="rgb(255,255,255)" stroke="none">SPI</tspan></tspan></tspan></text>
      </g>
     </g>
     <g class="com.sun.star.drawing.CustomShape">
      <g id="id26">
       <g>
        <defs>
         <linearGradient id="gradient24" x1="27736" y1="14884" x2="27736" y2="15522" gradientUnits="userSpaceOnUse">
          <stop offset="0" style="stop-color:rgb(255,95,91)"/>
          <stop offset="1" style="stop-color:rgb(189,54,47)"/>
         </linearGradient>
        </defs>
        <path style="fill:url(#gradient24)" d="M 27207,14885 L 27197,14886 27187,14887 27178,14890 27168,14894 27159,14899 27150,14905 27142,14911 27134,14918 27127,14926 27121,14934 27115,14943 27110,14952 27106,14962 27103,14971 27102,14981 27101,14991 27101,15415 27102,15425 27103,15435 27106,15444 27110,15454 27115,15463 27121,15472 27127,15480 27134,15488 27142,15495 27150,15501 27159,15507 27168,15512 27178,15516 27187,15519 27197,15520 27207,15521 28266,15521 28276,15520 28286,15519 28295,15516 28305,15512 28314,15507 28323,15501 28331,15495 28339,15488 28346,15480 28352,15472 28358,15463 28363,15454 28367,15444 28370,15435 28371,15425 28372,15415 28372,14991 28371,14981 28370,14971 28367,14962 28363,14952 28358,14943 28352,14934 28346,14926 28339,14918 28331,14911 28323,14905 28314,14899 28305,14894 28295,14890 28286,14887 28276,14886 28266,14885 27207,14885 Z"/>
       </g>
       <path fill="none" stroke="rgb(189,54,47)" d="M 13657,7443 C 13604,7443 13551,7496 13551,7549 L 13551,7973 C 13551,8026 13604,8079 13657,8079 L 14716,8079 C 14769,8079 14822,8026 14822,7973 L 14822,7549 C 14822,7496 14769,7443 14716,7443 L 13657,7443 Z"/>
       <path fill="none" stroke="rgb(189,54,47)" d="M 13551,7443 L 13551,7443 Z"/>
       <path fill="none" stroke="rgb(189,54,47)" d="M 14822,8079 L 14822,8079 Z"/>
       <text class="TextShape"><tspan class="TextParagraph" font-family="Arial, sans-serif" font-size="459px" font-weight="400"><tspan class="TextPosition" x="13828" y="7920"><tspan fill="rgb(255,255,255)" stroke="none">I2C</tspan></tspan></tspan></text>
      </g>
     </g>
     <g class="com.sun.star.drawing.CustomShape">
      <g id="id27">
       <g>
        <defs>
         <linearGradient id="gradient25" x1="30912" y1="14884" x2="30912" y2="15522" gradientUnits="userSpaceOnUse">
          <stop offset="0" style="stop-color:rgb(255,95,91)"/>
          <stop offset="1" style="stop-color:rgb(189,54,47)"/>
         </linearGradient>
        </defs>
        <path style="fill:url(#gradient25)" d="M 30383,14885 L 30373,14886 30363,14887 30354,14890 30344,14894 30335,14899 30326,14905 30318,14911 30310,14918 30303,14926 30297,14934 30291,14943 30286,14952 30282,14962 30279,14971 30278,14981 30277,14991 30277,15415 30278,15425 30279,15435 30282,15444 30286,15454 30291,15463 30297,15472 30303,15480 30310,15488 30318,15495 30326,15501 30335,15507 30344,15512 30354,15516 30363,15519 30373,15520 30383,15521 31442,15521 31452,15520 31462,15519 31471,15516 31481,15512 31490,15507 31499,15501 31507,15495 31515,15488 31522,15480 31528,15472 31534,15463 31539,15454 31543,15444 31546,15435 31547,15425 31548,15415 31548,14991 31547,14981 31546,14971 31543,14962 31539,14952 31534,14943 31528,14934 31522,14926 31515,14918 31507,14911 31499,14905 31490,14899 31481,14894 31471,14890 31462,14887 31452,14886 31442,14885 30383,14885 Z"/>
       </g>
       <path fill="none" stroke="rgb(189,54,47)" d="M 15245,7443 C 15192,7443 15139,7496 15139,7549 L 15139,7973 C 15139,8026 15192,8079 15245,8079 L 16304,8079 C 16357,8079 16410,8026 16410,7973 L 16410,7549 C 16410,7496 16357,7443 16304,7443 L 15245,7443 Z"/>
       <path fill="none" stroke="rgb(189,54,47)" d="M 15139,7443 L 15139,7443 Z"/>
       <path fill="none" stroke="rgb(189,54,47)" d="M 16410,8079 L 16410,8079 Z"/>
       <text class="TextShape"><tspan class="TextParagraph" font-family="Arial, sans-serif" font-size="459px" font-weight="400"><tspan class="TextPosition" x="15276" y="7920"><tspan fill="rgb(255,255,255)" stroke="none">TMR</tspan></tspan></tspan></text>
      </g>
     </g>
     <g class="com.sun.star.drawing.CustomShape">
      <g id="id28">
       <g>
        <defs>
         <linearGradient id="gradient26" x1="34086" y1="14884" x2="34086" y2="15522" gradientUnits="userSpaceOnUse">
          <stop offset="0" style="stop-color:rgb(255,95,91)"/>
          <stop offset="1" style="stop-color:rgb(189,54,47)"/>
         </linearGradient>
        </defs>
        <path style="fill:url(#gradient26)" d="M 33557,14885 L 33547,14886 33537,14887 33528,14890 33518,14894 33509,14899 33500,14905 33492,14911 33484,14918 33477,14926 33471,14934 33465,14943 33460,14952 33456,14962 33453,14971 33452,14981 33451,14991 33451,15415 33452,15425 33453,15435 33456,15444 33460,15454 33465,15463 33471,15472 33477,15480 33484,15488 33492,15495 33500,15501 33509,15507 33518,15512 33528,15516 33537,15519 33547,15520 33557,15521 34616,15521 34626,15520 34636,15519 34645,15516 34655,15512 34664,15507 34673,15501 34681,15495 34689,15488 34696,15480 34702,15472 34708,15463 34713,15454 34717,15444 34720,15435 34721,15425 34722,15415 34722,14991 34721,14981 34720,14971 34717,14962 34713,14952 34708,14943 34702,14934 34696,14926 34689,14918 34681,14911 34673,14905 34664,14899 34655,14894 34645,14890 34636,14887 34626,14886 34616,14885 33557,14885 Z"/>
       </g>
       <path fill="none" stroke="rgb(189,54,47)" d="M 16832,7443 C 16779,7443 16726,7496 16726,7549 L 16726,7973 C 16726,8026 16779,8079 16832,8079 L 17891,8079 C 17944,8079 17997,8026 17997,7973 L 17997,7549 C 17997,7496 17944,7443 17891,7443 L 16832,7443 Z"/>
       <path fill="none" stroke="rgb(189,54,47)" d="M 16726,7443 L 16726,7443 Z"/>
       <path fill="none" stroke="rgb(189,54,47)" d="M 17997,8079 L 17997,8079 Z"/>
       <text class="TextShape"><tspan class="TextParagraph" font-family="Arial, sans-serif" font-size="459px" font-weight="400"><tspan class="TextPosition" x="16800" y="7920"><tspan fill="rgb(255,255,255)" stroke="none">PWM</tspan></tspan></tspan></text>
      </g>
     </g>
     <g class="com.sun.star.drawing.CustomShape">
      <g id="id29">
       <g>
        <defs>
         <linearGradient id="gradient27" x1="18212" y1="16790" x2="18212" y2="17428" gradientUnits="userSpaceOnUse">
          <stop offset="0" style="stop-color:rgb(255,95,91)"/>
          <stop offset="1" style="stop-color:rgb(189,54,47)"/>
         </linearGradient>
        </defs>
        <path style="fill:url(#gradient27)" d="M 17683,16791 L 17673,16792 17663,16793 17654,16796 17644,16800 17635,16805 17626,16811 17618,16817 17610,16824 17603,16832 17597,16840 17591,16849 17586,16858 17582,16868 17579,16877 17578,16887 17577,16897 17577,17321 17578,17331 17579,17341 17582,17350 17586,17360 17591,17369 17597,17378 17603,17386 17610,17394 17618,17401 17626,17407 17635,17413 17644,17418 17654,17422 17663,17425 17673,17426 17683,17427 18742,17427 18752,17426 18762,17425 18771,17422 18781,17418 18790,17413 18799,17407 18807,17401 18815,17394 18822,17386 18828,17378 18834,17369 18839,17360 18843,17350 18846,17341 18847,17331 18848,17321 18848,16897 18847,16887 18846,16877 18843,16868 18839,16858 18834,16849 18828,16840 18822,16832 18815,16824 18807,16817 18799,16811 18790,16805 18781,16800 18771,16796 18762,16793 18752,16792 18742,16791 17683,16791 Z"/>
       </g>
       <path fill="none" stroke="rgb(189,54,47)" d="M 8895,8396 C 8842,8396 8789,8449 8789,8502 L 8789,8926 C 8789,8979 8842,9032 8895,9032 L 9954,9032 C 10007,9032 10060,8979 10060,8926 L 10060,8502 C 10060,8449 10007,8396 9954,8396 L 8895,8396 Z"/>
       <path fill="none" stroke="rgb(189,54,47)" d="M 8789,8396 L 8789,8396 Z"/>
       <path fill="none" stroke="rgb(189,54,47)" d="M 10060,9032 L 10060,9032 Z"/>
       <text class="TextShape"><tspan class="TextParagraph" font-family="Arial, sans-serif" font-size="459px" font-weight="400"><tspan class="TextPosition" x="8939" y="8873"><tspan fill="rgb(255,255,255)" stroke="none">DAC</tspan></tspan></tspan></text>
      </g>
     </g>
     <g class="com.sun.star.drawing.CustomShape">
      <g id="id30">
       <g>
        <defs>
         <linearGradient id="gradient28" x1="21388" y1="16790" x2="21388" y2="17428" gradientUnits="userSpaceOnUse">
          <stop offset="0" style="stop-color:rgb(255,95,91)"/>
          <stop offset="1" style="stop-color:rgb(189,54,47)"/>
         </linearGradient>
        </defs>
        <path style="fill:url(#gradient28)" d="M 20859,16791 L 20849,16792 20839,16793 20830,16796 20820,16800 20811,16805 20802,16811 20794,16817 20786,16824 20779,16832 20773,16840 20767,16849 20762,16858 20758,16868 20755,16877 20754,16887 20753,16897 20753,17321 20754,17331 20755,17341 20758,17350 20762,17360 20767,17369 20773,17378 20779,17386 20786,17394 20794,17401 20802,17407 20811,17413 20820,17418 20830,17422 20839,17425 20849,17426 20859,17427 21918,17427 21928,17426 21938,17425 21947,17422 21957,17418 21966,17413 21975,17407 21983,17401 21991,17394 21998,17386 22004,17378 22010,17369 22015,17360 22019,17350 22022,17341 22023,17331 22024,17321 22024,16897 22023,16887 22022,16877 22019,16868 22015,16858 22010,16849 22004,16840 21998,16832 21991,16824 21983,16817 21975,16811 21966,16805 21957,16800 21947,16796 21938,16793 21928,16792 21918,16791 20859,16791 Z"/>
       </g>
       <path fill="none" stroke="rgb(189,54,47)" d="M 10483,8396 C 10430,8396 10377,8449 10377,8502 L 10377,8926 C 10377,8979 10430,9032 10483,9032 L 11542,9032 C 11595,9032 11648,8979 11648,8926 L 11648,8502 C 11648,8449 11595,8396 11542,8396 L 10483,8396 Z"/>
       <path fill="none" stroke="rgb(189,54,47)" d="M 10377,8396 L 10377,8396 Z"/>
       <path fill="none" stroke="rgb(189,54,47)" d="M 11648,9032 L 11648,9032 Z"/>
       <text class="TextShape"><tspan class="TextParagraph" font-family="Arial, sans-serif" font-size="459px" font-weight="400"><tspan class="TextPosition" x="10527" y="8873"><tspan fill="rgb(255,255,255)" stroke="none">ADC</tspan></tspan></tspan></text>
      </g>
     </g>
     <g class="com.sun.star.drawing.CustomShape">
      <g id="id31">
       <g>
        <defs>
         <linearGradient id="gradient29" x1="24562" y1="16790" x2="24562" y2="17428" gradientUnits="userSpaceOnUse">
          <stop offset="0" style="stop-color:rgb(255,95,91)"/>
          <stop offset="1" style="stop-color:rgb(189,54,47)"/>
         </linearGradient>
        </defs>
        <path style="fill:url(#gradient29)" d="M 24033,16791 L 24023,16792 24013,16793 24004,16796 23994,16800 23985,16805 23976,16811 23968,16817 23960,16824 23953,16832 23947,16840 23941,16849 23936,16858 23932,16868 23929,16877 23928,16887 23927,16897 23927,17321 23928,17331 23929,17341 23932,17350 23936,17360 23941,17369 23947,17378 23953,17386 23960,17394 23968,17401 23976,17407 23985,17413 23994,17418 24004,17422 24013,17425 24023,17426 24033,17427 25092,17427 25102,17426 25112,17425 25121,17422 25131,17418 25140,17413 25149,17407 25157,17401 25165,17394 25172,17386 25178,17378 25184,17369 25189,17360 25193,17350 25196,17341 25197,17331 25198,17321 25198,16897 25197,16887 25196,16877 25193,16868 25189,16858 25184,16849 25178,16840 25172,16832 25165,16824 25157,16817 25149,16811 25140,16805 25131,16800 25121,16796 25112,16793 25102,16792 25092,16791 24033,16791 Z"/>
       </g>
       <path fill="none" stroke="rgb(189,54,47)" d="M 12070,8396 C 12017,8396 11964,8449 11964,8502 L 11964,8926 C 11964,8979 12017,9032 12070,9032 L 13129,9032 C 13182,9032 13235,8979 13235,8926 L 13235,8502 C 13235,8449 13182,8396 13129,8396 L 12070,8396 Z"/>
       <path fill="none" stroke="rgb(189,54,47)" d="M 11964,8396 L 11964,8396 Z"/>
       <path fill="none" stroke="rgb(189,54,47)" d="M 13235,9032 L 13235,9032 Z"/>
       <text class="TextShape"><tspan class="TextParagraph" font-family="Arial, sans-serif" font-size="459px" font-weight="400"><tspan class="TextPosition" x="12131" y="8873"><tspan fill="rgb(255,255,255)" stroke="none">RTC</tspan></tspan></tspan></text>
      </g>
     </g>
     <g class="com.sun.star.drawing.CustomShape">
      <g id="id32">
       <g>
        <defs>
         <linearGradient id="gradient30" x1="27736" y1="16790" x2="27736" y2="17428" gradientUnits="userSpaceOnUse">
          <stop offset="0" style="stop-color:rgb(255,95,91)"/>
          <stop offset="1" style="stop-color:rgb(189,54,47)"/>
         </linearGradient>
        </defs>
        <path style="fill:url(#gradient30)" d="M 27207,16791 L 27197,16792 27187,16793 27178,16796 27168,16800 27159,16805 27150,16811 27142,16817 27134,16824 27127,16832 27121,16840 27115,16849 27110,16858 27106,16868 27103,16877 27102,16887 27101,16897 27101,17321 27102,17331 27103,17341 27106,17350 27110,17360 27115,17369 27121,17378 27127,17386 27134,17394 27142,17401 27150,17407 27159,17413 27168,17418 27178,17422 27187,17425 27197,17426 27207,17427 28266,17427 28276,17426 28286,17425 28295,17422 28305,17418 28314,17413 28323,17407 28331,17401 28339,17394 28346,17386 28352,17378 28358,17369 28363,17360 28367,17350 28370,17341 28371,17331 28372,17321 28372,16897 28371,16887 28370,16877 28367,16868 28363,16858 28358,16849 28352,16840 28346,16832 28339,16824 28331,16817 28323,16811 28314,16805 28305,16800 28295,16796 28286,16793 28276,16792 28266,16791 27207,16791 Z"/>
       </g>
       <path fill="none" stroke="rgb(189,54,47)" d="M 13657,8396 C 13604,8396 13551,8449 13551,8502 L 13551,8926 C 13551,8979 13604,9032 13657,9032 L 14716,9032 C 14769,9032 14822,8979 14822,8926 L 14822,8502 C 14822,8449 14769,8396 14716,8396 L 13657,8396 Z"/>
       <path fill="none" stroke="rgb(189,54,47)" d="M 13551,8396 L 13551,8396 Z"/>
       <path fill="none" stroke="rgb(189,54,47)" d="M 14822,9032 L 14822,9032 Z"/>
       <text class="TextShape"><tspan class="TextParagraph" font-family="Arial, sans-serif" font-size="459px" font-weight="400"><tspan class="TextPosition" x="13663" y="8873"><tspan fill="rgb(255,255,255)" stroke="none">EINT</tspan></tspan></tspan></text>
      </g>
     </g>
     <g class="com.sun.star.drawing.CustomShape">
      <g id="id33">
       <g>
        <defs>
         <linearGradient id="gradient31" x1="30912" y1="16790" x2="30912" y2="17428" gradientUnits="userSpaceOnUse">
          <stop offset="0" style="stop-color:rgb(255,95,91)"/>
          <stop offset="1" style="stop-color:rgb(189,54,47)"/>
         </linearGradient>
        </defs>
        <path style="fill:url(#gradient31)" d="M 30383,16791 L 30373,16792 30363,16793 30354,16796 30344,16800 30335,16805 30326,16811 30318,16817 30310,16824 30303,16832 30297,16840 30291,16849 30286,16858 30282,16868 30279,16877 30278,16887 30277,16897 30277,17321 30278,17331 30279,17341 30282,17350 30286,17360 30291,17369 30297,17378 30303,17386 30310,17394 30318,17401 30326,17407 30335,17413 30344,17418 30354,17422 30363,17425 30373,17426 30383,17427 31442,17427 31452,17426 31462,17425 31471,17422 31481,17418 31490,17413 31499,17407 31507,17401 31515,17394 31522,17386 31528,17378 31534,17369 31539,17360 31543,17350 31546,17341 31547,17331 31548,17321 31548,16897 31547,16887 31546,16877 31543,16868 31539,16858 31534,16849 31528,16840 31522,16832 31515,16824 31507,16817 31499,16811 31490,16805 31481,16800 31471,16796 31462,16793 31452,16792 31442,16791 30383,16791 Z"/>
       </g>
       <path fill="none" stroke="rgb(189,54,47)" d="M 15245,8396 C 15192,8396 15139,8449 15139,8502 L 15139,8926 C 15139,8979 15192,9032 15245,9032 L 16304,9032 C 16357,9032 16410,8979 16410,8926 L 16410,8502 C 16410,8449 16357,8396 16304,8396 L 15245,8396 Z"/>
       <path fill="none" stroke="rgb(189,54,47)" d="M 15139,8396 L 15139,8396 Z"/>
       <path fill="none" stroke="rgb(189,54,47)" d="M 16410,9032 L 16410,9032 Z"/>
       <text class="TextShape"><tspan class="TextParagraph" font-family="Arial, sans-serif" font-size="459px" font-weight="400"><tspan class="TextPosition" x="15378" y="8873"><tspan fill="rgb(255,255,255)" stroke="none">QEI</tspan></tspan></tspan></text>
      </g>
     </g>
     <g class="com.sun.star.drawing.CustomShape">
      <g id="id34">
       <g>
        <defs>
         <linearGradient id="gradient32" x1="34082" y1="16790" x2="34082" y2="17428" gradientUnits="userSpaceOnUse">
          <stop offset="0" style="stop-color:rgb(255,95,91)"/>
          <stop offset="1" style="stop-color:rgb(189,54,47)"/>
         </linearGradient>
        </defs>
        <path style="fill:url(#gradient32)" d="M 33553,16791 L 33543,16792 33533,16793 33524,16796 33514,16800 33505,16805 33496,16811 33488,16817 33480,16824 33473,16832 33467,16840 33461,16849 33456,16858 33452,16868 33449,16877 33448,16887 33447,16897 33447,17321 33448,17331 33449,17341 33452,17350 33456,17360 33461,17369 33467,17378 33473,17386 33480,17394 33488,17401 33496,17407 33505,17413 33514,17418 33524,17422 33533,17425 33543,17426 33553,17427 34612,17427 34622,17426 34632,17425 34641,17422 34651,17418 34660,17413 34669,17407 34677,17401 34685,17394 34692,17386 34698,17378 34704,17369 34709,17360 34713,17350 34716,17341 34717,17331 34718,17321 34718,16897 34717,16887 34716,16877 34713,16868 34709,16858 34704,16849 34698,16840 34692,16832 34685,16824 34677,16817 34669,16811 34660,16805 34651,16800 34641,16796 34632,16793 34622,16792 34612,16791 33553,16791 Z"/>
       </g>
       <path fill="none" stroke="rgb(189,54,47)" d="M 16832,8396 C 16779,8396 16726,8449 16726,8502 L 16726,8926 C 16726,8979 16779,9032 16832,9032 L 17891,9032 C 17944,9032 17997,8979 17997,8926 L 17997,8502 C 17997,8449 17944,8396 17891,8396 L 16832,8396 Z"/>
       <path fill="none" stroke="rgb(189,54,47)" d="M 16726,8396 L 16726,8396 Z"/>
       <path fill="none" stroke="rgb(189,54,47)" d="M 17997,9032 L 17997,9032 Z"/>
       <text class="TextShape"><tspan class="TextParagraph" font-family="Arial, sans-serif" font-size="459px" font-weight="400"><tspan class="TextPosition" x="16698" y="8873"><tspan fill="rgb(255,255,255)" stroke="none">CORE</tspan></tspan></tspan></text>
      </g>
     </g>
     <g class="com.sun.star.drawing.CustomShape">
      <g id="id35">
       <g>
        <defs>
         <linearGradient id="gradient33" x1="37262" y1="14884" x2="37262" y2="15522" gradientUnits="userSpaceOnUse">
          <stop offset="0" style="stop-color:rgb(255,95,91)"/>
          <stop offset="1" style="stop-color:rgb(189,54,47)"/>
         </linearGradient>
        </defs>
        <path style="fill:url(#gradient33)" d="M 36733,14885 L 36723,14886 36713,14887 36704,14890 36694,14894 36685,14899 36676,14905 36668,14911 36660,14918 36653,14926 36647,14934 36641,14943 36636,14952 36632,14962 36629,14971 36628,14981 36627,14991 36627,15415 36628,15425 36629,15435 36632,15444 36636,15454 36641,15463 36647,15472 36653,15480 36660,15488 36668,15495 36676,15501 36685,15507 36694,15512 36704,15516 36713,15519 36723,15520 36733,15521 37792,15521 37802,15520 37812,15519 37821,15516 37831,15512 37840,15507 37849,15501 37857,15495 37865,15488 37872,15480 37878,15472 37884,15463 37889,15454 37893,15444 37896,15435 37897,15425 37898,15415 37898,14991 37897,14981 37896,14971 37893,14962 37889,14952 37884,14943 37878,14934 37872,14926 37865,14918 37857,14911 37849,14905 37840,14899 37831,14894 37821,14890 37812,14887 37802,14886 37792,14885 36733,14885 Z"/>
       </g>
       <path fill="none" stroke="rgb(189,54,47)" d="M 18420,7443 C 18367,7443 18314,7496 18314,7549 L 18314,7973 C 18314,8026 18367,8079 18420,8079 L 19479,8079 C 19532,8079 19585,8026 19585,7973 L 19585,7549 C 19585,7496 19532,7443 19479,7443 L 18420,7443 Z"/>
       <path fill="none" stroke="rgb(189,54,47)" d="M 18314,7443 L 18314,7443 Z"/>
       <path fill="none" stroke="rgb(189,54,47)" d="M 19585,8079 L 19585,8079 Z"/>
       <text class="TextShape"><tspan class="TextParagraph" font-family="Arial, sans-serif" font-size="459px" font-weight="400"><tspan class="TextPosition" x="18553" y="7920"><tspan fill="rgb(255,255,255)" stroke="none">PIO</tspan></tspan></tspan></text>
      </g>
     </g>
     <g class="com.sun.star.drawing.CustomShape">
      <g id="id36">
       <path fill="none" stroke="rgb(21,21,21)" d="M 13869,11572 L 1804,11572 1804,6332 25934,6332 25934,11572 13869,11572 Z"/>
      </g>
     </g>
     <g class="com.sun.star.drawing.CustomShape">
      <g id="id37">
       <text class="TextShape"><tspan class="TextParagraph" font-family="Arial, sans-serif" font-size="635px" font-weight="400"><tspan class="TextPosition" x="12950" y="11316"><tspan fill="rgb(0,0,0)" stroke="none">Kernel</tspan></tspan></tspan></text>
      </g>
     </g>
     <g class="com.sun.star.drawing.CustomShape">
      <g id="id38">
       <path fill="none" stroke="rgb(21,21,21)" d="M 13869,12841 L 1486,12841 1486,4268 26251,4268 26251,12841 13869,12841 Z"/>
      </g>
     </g>
     <g class="com.sun.star.drawing.CustomShape">
      <g id="id39">
       <text class="TextShape"><tspan class="TextParagraph" font-family="Arial, sans-serif" font-size="635px" font-weight="400"><tspan class="TextPosition" x="12122" y="12586"><tspan fill="rgb(0,0,0)" stroke="none">CoActionOS</tspan></tspan></tspan></text>
      </g>
     </g>
     <g class="com.sun.star.drawing.CustomShape">
      <g id="id40">
       <g>
        <defs>
         <linearGradient id="gradient34" x1="13133" y1="30760" x2="13133" y2="31556" gradientUnits="userSpaceOnUse">
          <stop offset="0" style="stop-color:rgb(255,255,255)"/>
          <stop offset="1" style="stop-color:rgb(230,230,230)"/>
         </linearGradient>
        </defs>
        <path style="fill:url(#gradient34)" d="M 11995,30761 L 11983,30762 11970,30764 11958,30768 11947,30772 11935,30778 11924,30785 11914,30793 11904,30802 11895,30812 11887,30822 11880,30833 11874,30845 11870,30856 11866,30868 11864,30881 11863,30893 11863,31422 11864,31434 11866,31447 11870,31459 11874,31471 11880,31482 11887,31493 11895,31504 11904,31513 11914,31522 11924,31530 11935,31537 11947,31544 11958,31548 11970,31552 11983,31554 11995,31555 14271,31555 14283,31554 14296,31552 14308,31548 14320,31544 14331,31537 14342,31530 14353,31522 14362,31513 14371,31504 14379,31493 14386,31482 14393,31471 14397,31459 14401,31447 14403,31434 14404,31422 14404,30893 14403,30881 14401,30868 14397,30856 14393,30845 14386,30833 14379,30822 14371,30812 14362,30802 14353,30793 14342,30785 14331,30778 14320,30772 14308,30768 14296,30764 14283,30762 14271,30761 11995,30761 Z"/>
       </g>
       <path fill="none" stroke="rgb(230,230,230)" d="M 6064,15381 C 5998,15381 5932,15447 5932,15513 L 5932,16042 C 5932,16108 5998,16175 6064,16175 L 8340,16175 C 8406,16175 8473,16108 8473,16042 L 8473,15513 C 8473,15447 8406,15381 8340,15381 L 6064,15381 Z"/>
       <path fill="none" stroke="rgb(230,230,230)" d="M 5932,15381 L 5932,15381 Z"/>
       <path fill="none" stroke="rgb(230,230,230)" d="M 8473,16175 L 8473,16175 Z"/>
       <text class="TextShape"><tspan class="TextParagraph" font-family="Arial, sans-serif" font-size="459px" font-weight="400"><tspan class="TextPosition" x="6540" y="15937"><tspan fill="rgb(0,0,0)" stroke="none">Kernel</tspan></tspan></tspan></text>
      </g>
     </g>
     <g class="com.sun.star.drawing.CustomShape">
      <g id="id41">
       <g>
        <defs>
         <linearGradient id="gradient35" x1="22023" y1="30760" x2="22023" y2="31556" gradientUnits="userSpaceOnUse">
          <stop offset="0" style="stop-color:rgb(249,148,62)"/>
          <stop offset="1" style="stop-color:rgb(228,108,7)"/>
         </linearGradient>
        </defs>
        <path style="fill:url(#gradient35)" d="M 20885,30761 L 20873,30762 20860,30764 20848,30768 20837,30772 20825,30778 20814,30785 20804,30793 20794,30802 20785,30812 20777,30822 20770,30833 20764,30845 20760,30856 20756,30868 20754,30881 20753,30893 20753,31422 20754,31434 20756,31447 20760,31459 20764,31471 20770,31482 20777,31493 20785,31504 20794,31513 20804,31522 20814,31530 20825,31537 20837,31544 20848,31548 20860,31552 20873,31554 20885,31555 23161,31555 23173,31554 23186,31552 23198,31548 23210,31544 23221,31537 23232,31530 23243,31522 23252,31513 23261,31504 23269,31493 23276,31482 23283,31471 23287,31459 23291,31447 23293,31434 23294,31422 23294,30893 23293,30881 23291,30868 23287,30856 23283,30845 23276,30833 23269,30822 23261,30812 23252,30802 23243,30793 23232,30785 23221,30778 23210,30772 23198,30768 23186,30764 23173,30762 23161,30761 20885,30761 Z"/>
       </g>
       <path fill="none" stroke="rgb(228,108,7)" d="M 10509,15381 C 10443,15381 10377,15447 10377,15513 L 10377,16042 C 10377,16108 10443,16175 10509,16175 L 12785,16175 C 12851,16175 12918,16108 12918,16042 L 12918,15513 C 12918,15447 12851,15381 12785,15381 L 10509,15381 Z"/>
       <path fill="none" stroke="rgb(228,108,7)" d="M 10377,15381 L 10377,15381 Z"/>
       <path fill="none" stroke="rgb(228,108,7)" d="M 12918,16175 L 12918,16175 Z"/>
       <text class="TextShape"><tspan class="TextParagraph" font-family="Arial, sans-serif" font-size="459px" font-weight="400"><tspan class="TextPosition" x="10550" y="15937"><tspan fill="rgb(255,255,255)" stroke="none">Filesystem</tspan></tspan></tspan></text>
      </g>
     </g>
    </g>
   </g>
  </g>
 </g>
</svg>