<?xml version="1.0" encoding="UTF-8"?>
<svg xmlns="http://www.w3.org/2000/svg" xmlns:xlink="http://www.w3.org/1999/xlink" width="396pt" height="144pt" viewBox="0 0 396 144" version="1.1">
<g id="surface1">
<path style="fill:none;stroke-width:0.12;stroke-linecap:butt;stroke-linejoin:round;stroke:rgb(0%,0%,0%);stroke-opacity:1;stroke-miterlimit:10;" d="M 0.0273438 54.023438 L 72.011719 54.023438 L 72.011719 0.0546875 L 0.0273438 0.0546875 Z M 0.0273438 54.023438 Z M 0.0273438 54.023438 " transform="matrix(1,0,0,-1,0,144)"/>
<path style=" stroke:none;fill-rule:evenodd;fill:rgb(0%,0%,0%);fill-opacity:1;" d="M 16.238281 118.304688 L 17.570312 118.644531 C 17.285156 119.722656 16.804688 120.570312 16.070312 121.136719 C 15.359375 121.703125 14.480469 121.988281 13.433594 121.988281 C 12.355469 121.988281 11.476562 121.761719 10.796875 121.335938 C 10.117188 120.882812 9.605469 120.257812 9.238281 119.410156 C 8.898438 118.589844 8.730469 117.679688 8.730469 116.746094 C 8.730469 115.699219 8.925781 114.792969 9.324219 114 C 9.722656 113.234375 10.285156 112.640625 11.023438 112.242188 C 11.761719 111.816406 12.554688 111.617188 13.460938 111.617188 C 14.453125 111.617188 15.304688 111.875 15.984375 112.382812 C 16.664062 112.894531 17.144531 113.628906 17.402344 114.535156 L 16.097656 114.847656 C 15.871094 114.113281 15.53125 113.601562 15.078125 113.261719 C 14.652344 112.921875 14.085938 112.753906 13.433594 112.753906 C 12.640625 112.753906 12.015625 112.949219 11.476562 113.320312 C 10.96875 113.6875 10.597656 114.167969 10.402344 114.792969 C 10.203125 115.414062 10.089844 116.066406 10.089844 116.71875 C 10.089844 117.566406 10.203125 118.332031 10.457031 118.957031 C 10.714844 119.578125 11.082031 120.0625 11.617188 120.371094 C 12.128906 120.683594 12.695312 120.855469 13.320312 120.855469 C 14.058594 120.855469 14.679688 120.628906 15.21875 120.203125 C 15.730469 119.777344 16.070312 119.15625 16.238281 118.304688 "/>
<path style=" stroke:none;fill-rule:evenodd;fill:rgb(0%,0%,0%);fill-opacity:1;" d="M 18.5625 118.191406 C 18.5625 116.832031 18.960938 115.839844 19.695312 115.21875 C 20.320312 114.679688 21.085938 114.394531 21.992188 114.394531 C 22.984375 114.394531 23.804688 114.734375 24.429688 115.386719 C 25.054688 116.039062 25.363281 116.945312 25.363281 118.078125 C 25.363281 119.011719 25.222656 119.75 24.96875 120.289062 C 24.683594 120.824219 24.257812 121.25 23.722656 121.535156 C 23.210938 121.847656 22.613281 121.988281 21.992188 121.988281 C 20.972656 121.988281 20.148438 121.648438 19.527344 120.996094 C 18.875 120.34375 18.5625 119.410156 18.5625 118.191406 Z M 19.839844 118.191406 C 19.839844 119.125 20.035156 119.804688 20.433594 120.289062 C 20.859375 120.742188 21.367188 120.96875 21.992188 120.96875 C 22.585938 120.96875 23.097656 120.742188 23.492188 120.257812 C 23.917969 119.804688 24.117188 119.097656 24.117188 118.136719 C 24.117188 117.257812 23.917969 116.578125 23.492188 116.09375 C 23.097656 115.640625 22.585938 115.414062 21.992188 115.414062 C 21.367188 115.414062 20.859375 115.640625 20.433594 116.09375 C 20.035156 116.578125 19.839844 117.257812 19.839844 118.191406 "/>
<path style=" stroke:none;fill-rule:evenodd;fill:rgb(0%,0%,0%);fill-opacity:1;" d="M 26.839844 121.816406 L 26.839844 114.566406 L 27.914062 114.566406 L 27.914062 115.585938 C 28.140625 115.21875 28.453125 114.933594 28.820312 114.734375 C 29.21875 114.507812 29.644531 114.394531 30.125 114.394531 C 30.664062 114.394531 31.117188 114.507812 31.457031 114.734375 C 31.796875 114.960938 32.023438 115.273438 32.164062 115.671875 C 32.761719 114.820312 33.496094 114.394531 34.433594 114.394531 C 35.140625 114.394531 35.679688 114.59375 36.078125 114.988281 C 36.472656 115.386719 36.671875 116.011719 36.671875 116.832031 L 36.671875 121.816406 L 35.425781 121.816406 L 35.425781 117.257812 C 35.425781 116.746094 35.398438 116.40625 35.3125 116.179688 C 35.226562 115.953125 35.085938 115.78125 34.886719 115.671875 C 34.6875 115.527344 34.433594 115.472656 34.148438 115.472656 C 33.640625 115.472656 33.214844 115.640625 32.875 115.980469 C 32.535156 116.320312 32.363281 116.859375 32.363281 117.597656 L 32.363281 121.816406 L 31.144531 121.816406 L 31.144531 117.113281 C 31.144531 116.546875 31.03125 116.152344 30.835938 115.867188 C 30.636719 115.585938 30.324219 115.472656 29.84375 115.472656 C 29.503906 115.472656 29.191406 115.558594 28.90625 115.726562 C 28.59375 115.925781 28.398438 116.179688 28.253906 116.546875 C 28.113281 116.886719 28.058594 117.398438 28.058594 118.050781 L 28.058594 121.816406 "/>
<path style=" stroke:none;fill-rule:evenodd;fill:rgb(0%,0%,0%);fill-opacity:1;" d="M 38.484375 124.59375 L 38.484375 114.566406 L 39.589844 114.566406 L 39.589844 115.5 C 39.847656 115.132812 40.15625 114.847656 40.496094 114.679688 C 40.808594 114.480469 41.234375 114.394531 41.6875 114.394531 C 42.3125 114.394531 42.878906 114.566406 43.332031 114.878906 C 43.8125 115.1875 44.183594 115.640625 44.410156 116.238281 C 44.664062 116.804688 44.777344 117.453125 44.777344 118.136719 C 44.777344 118.871094 44.636719 119.550781 44.378906 120.144531 C 44.097656 120.742188 43.730469 121.195312 43.21875 121.507812 C 42.707031 121.816406 42.171875 121.988281 41.601562 121.988281 C 41.207031 121.988281 40.839844 121.902344 40.496094 121.734375 C 40.1875 121.5625 39.902344 121.335938 39.703125 121.054688 L 39.703125 124.59375 Z M 39.589844 118.21875 C 39.589844 119.15625 39.789062 119.863281 40.15625 120.289062 C 40.527344 120.742188 40.980469 120.96875 41.519531 120.96875 C 42.085938 120.96875 42.539062 120.742188 42.933594 120.289062 C 43.332031 119.804688 43.53125 119.097656 43.53125 118.136719 C 43.53125 117.199219 43.332031 116.519531 42.933594 116.039062 C 42.566406 115.585938 42.113281 115.359375 41.574219 115.359375 C 41.066406 115.359375 40.582031 115.613281 40.1875 116.09375 C 39.789062 116.578125 39.589844 117.285156 39.589844 118.21875 "/>
<path style=" stroke:none;fill-rule:evenodd;fill:rgb(0%,0%,0%);fill-opacity:1;" d="M 46.277344 111.789062 L 47.496094 111.789062 L 47.496094 113.203125 L 46.277344 113.203125 Z M 46.277344 114.566406 L 47.496094 114.566406 L 47.496094 121.816406 L 46.277344 121.816406 Z M 46.277344 114.566406 "/>
<path style=" stroke:none;fill-rule:nonzero;fill:rgb(0%,0%,0%);fill-opacity:1;" d="M 49.367188 111.789062 L 50.585938 111.789062 L 50.585938 121.816406 L 49.367188 121.816406 Z M 49.367188 111.789062 "/>
<path style=" stroke:none;fill-rule:evenodd;fill:rgb(0%,0%,0%);fill-opacity:1;" d="M 57.472656 119.496094 L 58.75 119.636719 C 58.550781 120.371094 58.183594 120.96875 57.613281 121.363281 C 57.078125 121.789062 56.398438 121.988281 55.546875 121.988281 C 54.496094 121.988281 53.648438 121.648438 53.023438 120.996094 C 52.402344 120.34375 52.089844 119.4375 52.089844 118.246094 C 52.089844 117.03125 52.402344 116.09375 53.023438 115.414062 C 53.675781 114.734375 54.46875 114.394531 55.488281 114.394531 C 56.453125 114.394531 57.246094 114.734375 57.871094 115.386719 C 58.464844 116.039062 58.777344 116.972656 58.777344 118.164062 C 58.777344 118.246094 58.777344 118.359375 58.777344 118.503906 L 53.363281 118.503906 C 53.421875 119.296875 53.648438 119.921875 54.042969 120.34375 C 54.441406 120.769531 54.949219 120.96875 55.546875 120.96875 C 56 120.96875 56.398438 120.855469 56.707031 120.628906 C 57.019531 120.371094 57.273438 120.003906 57.472656 119.496094 Z M 53.421875 117.484375 L 57.472656 117.484375 C 57.417969 116.886719 57.273438 116.433594 57.019531 116.121094 C 56.621094 115.640625 56.113281 115.414062 55.488281 115.414062 C 54.921875 115.414062 54.46875 115.585938 54.074219 115.980469 C 53.675781 116.351562 53.476562 116.859375 53.421875 117.484375 "/>
<path style=" stroke:none;fill-rule:evenodd;fill:rgb(0%,0%,0%);fill-opacity:1;" d="M 60.25 121.816406 L 60.25 114.566406 L 61.355469 114.566406 L 61.355469 115.671875 C 61.640625 115.132812 61.894531 114.820312 62.148438 114.648438 C 62.375 114.480469 62.660156 114.394531 62.941406 114.394531 C 63.339844 114.394531 63.765625 114.535156 64.191406 114.792969 L 63.765625 115.925781 C 63.480469 115.753906 63.171875 115.671875 62.859375 115.671875 C 62.601562 115.671875 62.347656 115.753906 62.148438 115.898438 C 61.921875 116.066406 61.78125 116.292969 61.695312 116.578125 C 61.554688 117.03125 61.46875 117.511719 61.46875 118.019531 L 61.46875 121.816406 "/>
<path style="fill:none;stroke-width:0.028;stroke-linecap:butt;stroke-linejoin:round;stroke:rgb(0%,0%,0%);stroke-opacity:1;stroke-miterlimit:10;" d="M 36.019531 94.195312 L 36.019531 66.179688 " transform="matrix(1,0,0,-1,0,144)"/>
<path style=" stroke:none;fill-rule:evenodd;fill:rgb(0%,0%,0%);fill-opacity:1;" d="M 35.992188 90.003906 L 40.242188 77.253906 L 31.742188 77.253906 L 35.992188 90.003906 "/>
<path style="fill:none;stroke-width:0.12;stroke-linecap:butt;stroke-linejoin:round;stroke:rgb(0%,0%,0%);stroke-opacity:1;stroke-miterlimit:10;" d="M 215.921875 54.023438 L 287.90625 54.023438 L 287.90625 0.0546875 L 215.921875 0.0546875 Z M 215.921875 54.023438 Z M 215.921875 54.023438 " transform="matrix(1,0,0,-1,0,144)"/>
<path style=" stroke:none;fill-rule:evenodd;fill:rgb(0%,0%,0%);fill-opacity:1;" d="M 226.210938 121.816406 L 230.0625 111.789062 L 231.480469 111.789062 L 235.589844 121.816406 L 234.089844 121.816406 L 232.925781 118.785156 L 228.730469 118.785156 L 227.628906 121.816406 Z M 229.101562 117.710938 L 232.5 117.710938 L 231.453125 114.933594 C 231.140625 114.085938 230.914062 113.402344 230.742188 112.863281 C 230.632812 113.488281 230.433594 114.140625 230.207031 114.761719 "/>
<path style=" stroke:none;fill-rule:evenodd;fill:rgb(0%,0%,0%);fill-opacity:1;" d="M 236.46875 121.816406 L 236.46875 114.566406 L 237.574219 114.566406 L 237.574219 115.671875 C 237.859375 115.132812 238.113281 114.820312 238.367188 114.648438 C 238.59375 114.480469 238.878906 114.394531 239.160156 114.394531 C 239.558594 114.394531 239.984375 114.535156 240.40625 114.792969 L 239.984375 115.925781 C 239.699219 115.753906 239.386719 115.671875 239.074219 115.671875 C 238.820312 115.671875 238.566406 115.753906 238.367188 115.898438 C 238.140625 116.066406 238 116.292969 237.914062 116.578125 C 237.773438 117.03125 237.6875 117.511719 237.6875 118.019531 L 237.6875 121.816406 "/>
<path style=" stroke:none;fill-rule:evenodd;fill:rgb(0%,0%,0%);fill-opacity:1;" d="M 245.90625 119.15625 L 247.097656 119.324219 C 246.984375 120.144531 246.644531 120.796875 246.105469 121.277344 C 245.539062 121.734375 244.886719 121.988281 244.09375 121.988281 C 243.101562 121.988281 242.308594 121.648438 241.683594 120.996094 C 241.089844 120.371094 240.777344 119.4375 240.777344 118.21875 C 240.777344 117.425781 240.917969 116.746094 241.171875 116.152344 C 241.429688 115.585938 241.824219 115.132812 242.363281 114.847656 C 242.902344 114.535156 243.46875 114.394531 244.09375 114.394531 C 244.886719 114.394531 245.539062 114.59375 246.019531 114.988281 C 246.53125 115.386719 246.839844 115.953125 246.984375 116.691406 L 245.792969 116.886719 C 245.679688 116.378906 245.480469 116.011719 245.199219 115.78125 C 244.914062 115.527344 244.546875 115.414062 244.148438 115.414062 C 243.527344 115.414062 243.015625 115.640625 242.617188 116.066406 C 242.25 116.519531 242.050781 117.226562 242.050781 118.191406 C 242.050781 119.15625 242.25 119.863281 242.617188 120.316406 C 242.988281 120.742188 243.46875 120.96875 244.0625 120.96875 C 244.546875 120.96875 244.972656 120.824219 245.28125 120.515625 C 245.59375 120.230469 245.820312 119.777344 245.90625 119.15625 "/>
<path style=" stroke:none;fill-rule:evenodd;fill:rgb(0%,0%,0%);fill-opacity:1;" d="M 248.171875 121.816406 L 248.171875 111.789062 L 249.390625 111.789062 L 249.390625 115.386719 C 249.960938 114.734375 250.695312 114.394531 251.574219 114.394531 C 252.113281 114.394531 252.566406 114.507812 252.964844 114.707031 C 253.359375 114.933594 253.644531 115.21875 253.8125 115.585938 C 253.984375 115.953125 254.066406 116.519531 254.066406 117.226562 L 254.066406 121.816406 L 252.847656 121.816406 L 252.847656 117.226562 C 252.847656 116.605469 252.707031 116.152344 252.453125 115.867188 C 252.167969 115.585938 251.800781 115.441406 251.320312 115.441406 C 250.949219 115.441406 250.609375 115.558594 250.269531 115.726562 C 249.960938 115.925781 249.730469 116.179688 249.589844 116.519531 C 249.449219 116.832031 249.390625 117.285156 249.390625 117.851562 L 249.390625 121.816406 "/>
<path style=" stroke:none;fill-rule:evenodd;fill:rgb(0%,0%,0%);fill-opacity:1;" d="M 255.9375 111.789062 L 257.15625 111.789062 L 257.15625 113.203125 L 255.9375 113.203125 Z M 255.9375 114.566406 L 257.15625 114.566406 L 257.15625 121.816406 L 255.9375 121.816406 Z M 255.9375 114.566406 "/>
<path style=" stroke:none;fill-rule:evenodd;fill:rgb(0%,0%,0%);fill-opacity:1;" d="M 261.066406 121.816406 L 258.289062 114.566406 L 259.59375 114.566406 L 261.152344 118.898438 C 261.324219 119.382812 261.492188 119.863281 261.636719 120.371094 C 261.71875 119.976562 261.890625 119.523438 262.089844 118.984375 L 263.703125 114.566406 L 264.949219 114.566406 L 262.203125 121.816406 "/>
<path style=" stroke:none;fill-rule:evenodd;fill:rgb(0%,0%,0%);fill-opacity:1;" d="M 271.015625 119.496094 L 272.289062 119.636719 C 272.09375 120.371094 271.722656 120.96875 271.15625 121.363281 C 270.617188 121.789062 269.9375 121.988281 269.089844 121.988281 C 268.039062 121.988281 267.191406 121.648438 266.566406 120.996094 C 265.941406 120.34375 265.632812 119.4375 265.632812 118.246094 C 265.632812 117.03125 265.941406 116.09375 266.566406 115.414062 C 267.21875 114.734375 268.011719 114.394531 269.03125 114.394531 C 269.996094 114.394531 270.789062 114.734375 271.410156 115.386719 C 272.007812 116.039062 272.320312 116.972656 272.320312 118.164062 C 272.320312 118.246094 272.320312 118.359375 272.320312 118.503906 L 266.90625 118.503906 C 266.964844 119.296875 267.191406 119.921875 267.585938 120.34375 C 267.984375 120.769531 268.492188 120.96875 269.089844 120.96875 C 269.542969 120.96875 269.9375 120.855469 270.25 120.628906 C 270.5625 120.371094 270.816406 120.003906 271.015625 119.496094 Z M 266.964844 117.484375 L 271.015625 117.484375 C 270.960938 116.886719 270.816406 116.433594 270.5625 116.121094 C 270.164062 115.640625 269.65625 115.414062 269.03125 115.414062 C 268.464844 115.414062 268.011719 115.585938 267.613281 115.980469 C 267.21875 116.351562 267.019531 116.859375 266.964844 117.484375 "/>
<path style=" stroke:none;fill-rule:evenodd;fill:rgb(0%,0%,0%);fill-opacity:1;" d="M 273.820312 121.816406 L 273.820312 114.566406 L 274.925781 114.566406 L 274.925781 115.671875 C 275.210938 115.132812 275.464844 114.820312 275.71875 114.648438 C 275.945312 114.480469 276.230469 114.394531 276.511719 114.394531 C 276.910156 114.394531 277.335938 114.535156 277.761719 114.792969 L 277.335938 115.925781 C 277.050781 115.753906 276.738281 115.671875 276.429688 115.671875 C 276.171875 115.671875 275.917969 115.753906 275.71875 115.898438 C 275.492188 116.066406 275.351562 116.292969 275.265625 116.578125 C 275.125 117.03125 275.039062 117.511719 275.039062 118.019531 L 275.039062 121.816406 "/>
<path style="fill:none;stroke-width:0.12;stroke-linecap:butt;stroke-linejoin:round;stroke:rgb(0%,0%,0%);stroke-opacity:1;stroke-miterlimit:10;" d="M 0.0273438 134.964844 L 5.015625 134.964844 L 5.015625 139.46875 L 10.003906 139.46875 L 10.003906 143.945312 L 72.011719 143.945312 L 72.011719 107.964844 L 66.996094 107.964844 L 66.996094 103.460938 L 62.007812 103.460938 L 62.007812 98.957031 C 38.683594 99.269531 38.230469 91.902344 16.125 90.175781 C 8.191406 91.195312 5.328125 92.042969 0.0273438 93.234375 Z M 0.0273438 143.945312 Z M 72.011719 89.976562 Z M 5.015625 134.964844 L 62.007812 134.964844 L 62.007812 103.460938 M 0.0273438 143.945312 Z M 72.011719 89.976562 Z M 10.003906 139.46875 L 66.996094 139.46875 L 66.996094 107.964844 M 0.0273438 143.945312 Z M 72.011719 89.976562 Z M 72.011719 89.976562 " transform="matrix(1,0,0,-1,0,144)"/>
<path style=" stroke:none;fill-rule:evenodd;fill:rgb(0%,0%,0%);fill-opacity:1;" d="M 17.484375 28.414062 L 18.816406 28.753906 C 18.535156 29.828125 18.054688 30.679688 17.316406 31.246094 C 16.605469 31.8125 15.730469 32.097656 14.679688 32.097656 C 13.601562 32.097656 12.726562 31.871094 12.046875 31.445312 C 11.363281 30.992188 10.855469 30.367188 10.484375 29.519531 C 10.144531 28.695312 9.976562 27.789062 9.976562 26.855469 C 9.976562 25.808594 10.175781 24.902344 10.570312 24.105469 C 10.96875 23.34375 11.535156 22.746094 12.269531 22.351562 C 13.007812 21.925781 13.800781 21.726562 14.707031 21.726562 C 15.699219 21.726562 16.550781 21.984375 17.230469 22.492188 C 17.910156 23.003906 18.394531 23.738281 18.648438 24.644531 L 17.34375 24.957031 C 17.117188 24.222656 16.777344 23.710938 16.324219 23.371094 C 15.898438 23.03125 15.332031 22.859375 14.679688 22.859375 C 13.886719 22.859375 13.261719 23.058594 12.726562 23.429688 C 12.214844 23.796875 11.847656 24.277344 11.648438 24.902344 C 11.449219 25.523438 11.335938 26.175781 11.335938 26.828125 C 11.335938 27.675781 11.449219 28.441406 11.703125 29.066406 C 11.960938 29.6875 12.328125 30.171875 12.867188 30.480469 C 13.375 30.792969 13.941406 30.964844 14.566406 30.964844 C 15.304688 30.964844 15.925781 30.738281 16.464844 30.3125 C 16.976562 29.886719 17.316406 29.265625 17.484375 28.414062 "/>
<path style=" stroke:none;fill-rule:evenodd;fill:rgb(0%,0%,0%);fill-opacity:1;" d="M 24.285156 31.925781 L 24.285156 21.898438 L 31.03125 21.898438 L 31.03125 23.089844 L 25.589844 23.089844 L 25.589844 26.203125 L 30.296875 26.203125 L 30.296875 27.363281 L 25.589844 27.363281 L 25.589844 31.925781 "/>
<path style=" stroke:none;fill-rule:evenodd;fill:rgb(0%,0%,0%);fill-opacity:1;" d="M 32.589844 21.898438 L 33.808594 21.898438 L 33.808594 23.316406 L 32.589844 23.316406 Z M 32.589844 24.675781 L 33.808594 24.675781 L 33.808594 31.925781 L 32.589844 31.925781 Z M 32.589844 24.675781 "/>
<path style=" stroke:none;fill-rule:nonzero;fill:rgb(0%,0%,0%);fill-opacity:1;" d="M 35.679688 21.898438 L 36.898438 21.898438 L 36.898438 31.925781 L 35.679688 31.925781 Z M 35.679688 21.898438 "/>
<path style=" stroke:none;fill-rule:evenodd;fill:rgb(0%,0%,0%);fill-opacity:1;" d="M 43.785156 29.601562 L 45.0625 29.746094 C 44.863281 30.480469 44.492188 31.078125 43.925781 31.472656 C 43.390625 31.898438 42.707031 32.097656 41.859375 32.097656 C 40.808594 32.097656 39.960938 31.757812 39.335938 31.105469 C 38.710938 30.453125 38.402344 29.546875 38.402344 28.355469 C 38.402344 27.140625 38.710938 26.203125 39.335938 25.523438 C 39.988281 24.84375 40.78125 24.503906 41.800781 24.503906 C 42.765625 24.503906 43.558594 24.84375 44.183594 25.496094 C 44.777344 26.148438 45.089844 27.082031 45.089844 28.273438 C 45.089844 28.355469 45.089844 28.46875 45.089844 28.613281 L 39.675781 28.613281 C 39.734375 29.40625 39.960938 30.027344 40.355469 30.453125 C 40.753906 30.878906 41.261719 31.078125 41.859375 31.078125 C 42.3125 31.078125 42.707031 30.964844 43.019531 30.738281 C 43.332031 30.480469 43.585938 30.113281 43.785156 29.601562 Z M 39.734375 27.59375 L 43.785156 27.59375 C 43.730469 26.996094 43.585938 26.542969 43.332031 26.230469 C 42.933594 25.75 42.425781 25.523438 41.800781 25.523438 C 41.234375 25.523438 40.78125 25.695312 40.386719 26.089844 C 39.988281 26.460938 39.789062 26.96875 39.734375 27.59375 "/>
<path style=" stroke:none;fill-rule:evenodd;fill:rgb(0%,0%,0%);fill-opacity:1;" d="M 46.109375 29.773438 L 47.328125 29.574219 C 47.414062 30.058594 47.582031 30.425781 47.894531 30.679688 C 48.207031 30.964844 48.660156 31.078125 49.199219 31.078125 C 49.765625 31.078125 50.191406 30.964844 50.472656 30.738281 C 50.730469 30.511719 50.871094 30.226562 50.871094 29.914062 C 50.871094 29.660156 50.757812 29.433594 50.53125 29.265625 C 50.359375 29.148438 49.933594 29.007812 49.253906 28.839844 C 48.347656 28.613281 47.726562 28.414062 47.382812 28.273438 C 47.042969 28.101562 46.761719 27.875 46.589844 27.5625 C 46.421875 27.28125 46.308594 26.941406 46.308594 26.601562 C 46.308594 26.261719 46.394531 25.976562 46.535156 25.695312 C 46.675781 25.410156 46.902344 25.183594 47.15625 25.015625 C 47.328125 24.871094 47.609375 24.757812 47.921875 24.644531 C 48.261719 24.5625 48.601562 24.503906 49 24.503906 C 49.566406 24.503906 50.046875 24.589844 50.503906 24.757812 C 50.925781 24.929688 51.238281 25.128906 51.4375 25.410156 C 51.664062 25.695312 51.804688 26.0625 51.863281 26.542969 L 50.671875 26.714844 C 50.613281 26.347656 50.445312 26.035156 50.191406 25.835938 C 49.933594 25.609375 49.566406 25.523438 49.085938 25.523438 C 48.519531 25.523438 48.121094 25.609375 47.867188 25.808594 C 47.640625 25.976562 47.496094 26.203125 47.496094 26.460938 C 47.496094 26.601562 47.554688 26.742188 47.667969 26.882812 C 47.753906 27.023438 47.921875 27.140625 48.121094 27.222656 C 48.261719 27.253906 48.601562 27.363281 49.226562 27.535156 C 50.078125 27.761719 50.699219 27.960938 51.039062 28.101562 C 51.378906 28.242188 51.664062 28.46875 51.863281 28.753906 C 52.03125 29.035156 52.144531 29.378906 52.144531 29.800781 C 52.144531 30.199219 52.03125 30.59375 51.777344 30.964844 C 51.550781 31.304688 51.210938 31.585938 50.757812 31.785156 C 50.304688 31.984375 49.792969 32.097656 49.226562 32.097656 C 48.261719 32.097656 47.554688 31.898438 47.074219 31.503906 C 46.5625 31.105469 46.25 30.539062 46.109375 29.773438 "/>
<path style="fill:none;stroke-width:0.12;stroke-linecap:butt;stroke-linejoin:round;stroke:rgb(0%,0%,0%);stroke-opacity:1;stroke-miterlimit:10;" d="M 107.976562 45.074219 L 112.964844 45.074219 L 112.964844 49.550781 L 117.949219 49.550781 L 117.949219 54.023438 L 179.960938 54.023438 L 179.960938 18.046875 L 174.941406 18.046875 L 174.941406 13.542969 L 169.953125 13.542969 L 169.953125 9.035156 C 146.660156 9.347656 146.207031 1.984375 124.074219 0.253906 C 116.136719 1.273438 113.273438 2.125 107.976562 3.316406 Z M 107.976562 54.023438 Z M 112.964844 45.074219 L 169.953125 45.074219 L 169.953125 13.542969 M 107.976562 54.023438 Z M 117.949219 49.550781 L 174.941406 49.550781 L 174.941406 18.046875 M 107.976562 54.023438 Z M 107.976562 54.023438 " transform="matrix(1,0,0,-1,0,144)"/>
<path style=" stroke:none;fill-rule:evenodd;fill:rgb(0%,0%,0%);fill-opacity:1;" d="M 119.453125 109.097656 C 119.453125 107.425781 119.90625 106.121094 120.785156 105.1875 C 121.691406 104.253906 122.824219 103.769531 124.242188 103.769531 C 125.179688 103.769531 126 103.996094 126.734375 104.449219 C 127.503906 104.875 128.066406 105.5 128.4375 106.292969 C 128.835938 107.085938 129.03125 107.964844 129.03125 108.984375 C 129.03125 110.003906 128.835938 110.910156 128.410156 111.703125 C 128.011719 112.496094 127.417969 113.121094 126.679688 113.515625 C 125.914062 113.941406 125.121094 114.140625 124.242188 114.140625 C 123.308594 114.140625 122.457031 113.914062 121.71875 113.460938 C 120.984375 113.007812 120.417969 112.382812 120.019531 111.589844 C 119.652344 110.796875 119.453125 109.976562 119.453125 109.097656 Z M 120.8125 109.097656 C 120.8125 110.316406 121.152344 111.277344 121.777344 111.960938 C 122.429688 112.667969 123.25 113.007812 124.242188 113.007812 C 125.234375 113.007812 126.054688 112.667969 126.707031 111.960938 C 127.332031 111.25 127.671875 110.257812 127.671875 108.957031 C 127.671875 108.164062 127.53125 107.453125 127.246094 106.832031 C 126.964844 106.234375 126.566406 105.753906 126.054688 105.414062 C 125.519531 105.074219 124.921875 104.90625 124.242188 104.90625 C 123.308594 104.90625 122.515625 105.246094 121.835938 105.894531 C 121.152344 106.519531 120.8125 107.597656 120.8125 109.097656 "/>
<path style=" stroke:none;fill-rule:evenodd;fill:rgb(0%,0%,0%);fill-opacity:1;" d="M 131.722656 113.96875 L 130.5625 113.96875 L 130.5625 103.941406 L 131.808594 103.941406 L 131.808594 107.539062 C 132.320312 106.886719 132.972656 106.546875 133.792969 106.546875 C 134.246094 106.546875 134.671875 106.632812 135.066406 106.832031 C 135.464844 107 135.777344 107.257812 136.03125 107.566406 C 136.285156 107.90625 136.515625 108.304688 136.65625 108.757812 C 136.796875 109.210938 136.855469 109.722656 136.855469 110.230469 C 136.855469 111.476562 136.570312 112.441406 135.945312 113.121094 C 135.324219 113.800781 134.585938 114.140625 133.734375 114.140625 C 132.886719 114.140625 132.207031 113.773438 131.722656 113.0625 Z M 131.695312 110.285156 C 131.695312 111.164062 131.808594 111.789062 132.0625 112.183594 C 132.433594 112.808594 132.972656 113.121094 133.621094 113.121094 C 134.160156 113.121094 134.644531 112.894531 135.011719 112.410156 C 135.410156 111.960938 135.605469 111.25 135.605469 110.34375 C 135.605469 109.382812 135.410156 108.699219 135.039062 108.246094 C 134.671875 107.792969 134.21875 107.566406 133.679688 107.566406 C 133.140625 107.566406 132.6875 107.792969 132.289062 108.246094 C 131.894531 108.730469 131.695312 109.410156 131.695312 110.285156 "/>
<path style=" stroke:none;fill-rule:evenodd;fill:rgb(0%,0%,0%);fill-opacity:1;" d="M 138.328125 103.941406 L 139.574219 103.941406 L 139.574219 105.386719 L 138.328125 105.386719 Z M 136.769531 116.773438 L 137.023438 115.726562 C 137.25 115.8125 137.449219 115.839844 137.589844 115.839844 C 137.847656 115.839844 138.015625 115.753906 138.15625 115.585938 C 138.269531 115.414062 138.328125 115.019531 138.328125 114.339844 L 138.328125 106.71875 L 139.574219 106.71875 L 139.574219 114.367188 C 139.574219 115.273438 139.460938 115.867188 139.207031 116.238281 C 138.921875 116.691406 138.441406 116.917969 137.730469 116.917969 C 137.421875 116.917969 137.082031 116.859375 136.769531 116.773438 "/>
<path style=" stroke:none;fill-rule:evenodd;fill:rgb(0%,0%,0%);fill-opacity:1;" d="M 146.433594 111.648438 L 147.707031 111.789062 C 147.511719 112.523438 147.140625 113.121094 146.574219 113.515625 C 146.035156 113.941406 145.355469 114.140625 144.507812 114.140625 C 143.457031 114.140625 142.605469 113.800781 141.984375 113.148438 C 141.359375 112.496094 141.046875 111.589844 141.046875 110.402344 C 141.046875 109.183594 141.359375 108.246094 141.984375 107.566406 C 142.636719 106.886719 143.429688 106.546875 144.449219 106.546875 C 145.414062 106.546875 146.207031 106.886719 146.828125 107.539062 C 147.425781 108.191406 147.734375 109.125 147.734375 110.316406 C 147.734375 110.402344 147.734375 110.515625 147.734375 110.65625 L 142.324219 110.65625 C 142.378906 111.449219 142.605469 112.070312 143.003906 112.496094 C 143.398438 112.921875 143.910156 113.121094 144.507812 113.121094 C 144.960938 113.121094 145.355469 113.007812 145.667969 112.78125 C 145.980469 112.523438 146.234375 112.15625 146.433594 111.648438 Z M 142.378906 109.636719 L 146.433594 109.636719 C 146.375 109.039062 146.234375 108.589844 145.980469 108.277344 C 145.582031 107.792969 145.070312 107.566406 144.449219 107.566406 C 143.882812 107.566406 143.429688 107.738281 143.03125 108.132812 C 142.636719 108.503906 142.4375 109.011719 142.378906 109.636719 "/>
<path style=" stroke:none;fill-rule:evenodd;fill:rgb(0%,0%,0%);fill-opacity:1;" d="M 154 111.308594 L 155.191406 111.476562 C 155.074219 112.300781 154.734375 112.949219 154.199219 113.433594 C 153.632812 113.886719 152.980469 114.140625 152.1875 114.140625 C 151.195312 114.140625 150.398438 113.800781 149.777344 113.148438 C 149.183594 112.523438 148.871094 111.589844 148.871094 110.371094 C 148.871094 109.578125 149.011719 108.898438 149.265625 108.304688 C 149.523438 107.738281 149.917969 107.285156 150.457031 107 C 150.996094 106.6875 151.5625 106.546875 152.1875 106.546875 C 152.980469 106.546875 153.632812 106.746094 154.113281 107.144531 C 154.621094 107.539062 154.933594 108.105469 155.074219 108.84375 L 153.886719 109.039062 C 153.773438 108.53125 153.574219 108.164062 153.289062 107.9375 C 153.007812 107.679688 152.640625 107.566406 152.242188 107.566406 C 151.617188 107.566406 151.109375 107.792969 150.710938 108.21875 C 150.34375 108.671875 150.144531 109.382812 150.144531 110.34375 C 150.144531 111.308594 150.34375 112.015625 150.710938 112.46875 C 151.082031 112.894531 151.5625 113.121094 152.15625 113.121094 C 152.640625 113.121094 153.0625 112.980469 153.375 112.667969 C 153.6875 112.382812 153.914062 111.929688 154 111.308594 "/>
<path style=" stroke:none;fill-rule:evenodd;fill:rgb(0%,0%,0%);fill-opacity:1;" d="M 158.929688 112.863281 L 159.128906 113.96875 C 158.761719 114.027344 158.449219 114.054688 158.195312 114.054688 C 157.738281 114.054688 157.398438 114 157.144531 113.855469 C 156.890625 113.714844 156.71875 113.515625 156.636719 113.289062 C 156.523438 113.0625 156.492188 112.582031 156.492188 111.84375 L 156.492188 107.679688 L 155.585938 107.679688 L 155.585938 106.71875 L 156.492188 106.71875 L 156.492188 104.90625 L 157.710938 104.167969 L 157.710938 106.71875 L 158.929688 106.71875 L 158.929688 107.679688 L 157.710938 107.679688 L 157.710938 111.902344 C 157.710938 112.269531 157.710938 112.496094 157.769531 112.582031 C 157.824219 112.695312 157.882812 112.78125 157.96875 112.835938 C 158.082031 112.894531 158.222656 112.921875 158.390625 112.921875 C 158.535156 112.921875 158.703125 112.894531 158.929688 112.863281 "/>
<path style=" stroke:none;fill-rule:evenodd;fill:rgb(0%,0%,0%);fill-opacity:1;" d="M 125.402344 129.691406 L 125.402344 119.664062 L 132.148438 119.664062 L 132.148438 120.855469 L 126.707031 120.855469 L 126.707031 123.972656 L 131.414062 123.972656 L 131.414062 125.132812 L 126.707031 125.132812 L 126.707031 129.691406 "/>
<path style=" stroke:none;fill-rule:evenodd;fill:rgb(0%,0%,0%);fill-opacity:1;" d="M 133.707031 119.664062 L 134.925781 119.664062 L 134.925781 121.082031 L 133.707031 121.082031 Z M 133.707031 122.441406 L 134.925781 122.441406 L 134.925781 129.691406 L 133.707031 129.691406 Z M 133.707031 122.441406 "/>
<path style=" stroke:none;fill-rule:nonzero;fill:rgb(0%,0%,0%);fill-opacity:1;" d="M 136.769531 119.664062 L 137.988281 119.664062 L 137.988281 129.695312 L 136.769531 129.695312 Z M 136.769531 119.664062 "/>
<path style=" stroke:none;fill-rule:evenodd;fill:rgb(0%,0%,0%);fill-opacity:1;" d="M 144.847656 127.371094 L 146.121094 127.511719 C 145.921875 128.25 145.554688 128.84375 144.988281 129.238281 C 144.449219 129.664062 143.769531 129.863281 142.917969 129.863281 C 141.871094 129.863281 141.019531 129.523438 140.394531 128.871094 C 139.773438 128.21875 139.460938 127.3125 139.460938 126.125 C 139.460938 124.90625 139.773438 123.972656 140.394531 123.289062 C 141.046875 122.609375 141.84375 122.269531 142.863281 122.269531 C 143.824219 122.269531 144.617188 122.609375 145.242188 123.261719 C 145.839844 123.914062 146.148438 124.847656 146.148438 126.039062 C 146.148438 126.125 146.148438 126.238281 146.148438 126.378906 L 140.734375 126.378906 C 140.792969 127.171875 141.019531 127.796875 141.417969 128.21875 C 141.8125 128.644531 142.324219 128.84375 142.917969 128.84375 C 143.371094 128.84375 143.769531 128.730469 144.082031 128.503906 C 144.390625 128.25 144.648438 127.878906 144.847656 127.371094 Z M 140.792969 125.359375 L 144.847656 125.359375 C 144.789062 124.765625 144.648438 124.3125 144.390625 124 C 143.996094 123.515625 143.484375 123.289062 142.863281 123.289062 C 142.296875 123.289062 141.84375 123.460938 141.445312 123.855469 C 141.046875 124.226562 140.851562 124.734375 140.792969 125.359375 "/>
<path style=" stroke:none;fill-rule:evenodd;fill:rgb(0%,0%,0%);fill-opacity:1;" d="M 147.171875 127.539062 L 148.386719 127.34375 C 148.472656 127.824219 148.644531 128.191406 148.953125 128.445312 C 149.265625 128.730469 149.71875 128.84375 150.257812 128.84375 C 150.824219 128.84375 151.25 128.730469 151.535156 128.503906 C 151.789062 128.277344 151.929688 127.992188 151.929688 127.683594 C 151.929688 127.425781 151.816406 127.199219 151.589844 127.03125 C 151.421875 126.917969 150.996094 126.773438 150.316406 126.605469 C 149.40625 126.378906 148.785156 126.179688 148.445312 126.039062 C 148.105469 125.867188 147.820312 125.640625 147.652344 125.332031 C 147.480469 125.046875 147.367188 124.707031 147.367188 124.367188 C 147.367188 124.027344 147.453125 123.742188 147.59375 123.460938 C 147.734375 123.175781 147.964844 122.949219 148.21875 122.78125 C 148.386719 122.640625 148.671875 122.527344 148.984375 122.414062 C 149.324219 122.328125 149.664062 122.269531 150.058594 122.269531 C 150.628906 122.269531 151.109375 122.355469 151.5625 122.527344 C 151.988281 122.695312 152.300781 122.894531 152.496094 123.175781 C 152.722656 123.460938 152.867188 123.828125 152.921875 124.3125 L 151.730469 124.480469 C 151.675781 124.113281 151.507812 123.800781 151.25 123.601562 C 150.996094 123.375 150.628906 123.289062 150.144531 123.289062 C 149.578125 123.289062 149.183594 123.375 148.925781 123.574219 C 148.699219 123.742188 148.558594 123.972656 148.558594 124.226562 C 148.558594 124.367188 148.613281 124.507812 148.726562 124.652344 C 148.8125 124.792969 148.984375 124.90625 149.183594 124.992188 C 149.324219 125.019531 149.664062 125.132812 150.285156 125.300781 C 151.136719 125.527344 151.761719 125.726562 152.101562 125.867188 C 152.441406 126.011719 152.722656 126.238281 152.921875 126.519531 C 153.09375 126.804688 153.207031 127.144531 153.207031 127.570312 C 153.207031 127.964844 153.09375 128.363281 152.839844 128.730469 C 152.609375 129.070312 152.269531 129.351562 151.816406 129.550781 C 151.363281 129.75 150.855469 129.863281 150.285156 129.863281 C 149.324219 129.863281 148.613281 129.664062 148.132812 129.269531 C 147.621094 128.871094 147.3125 128.304688 147.171875 127.539062 "/>
<path style="fill:none;stroke-width:0.028;stroke-linecap:butt;stroke-linejoin:round;stroke:rgb(0%,0%,0%);stroke-opacity:1;stroke-miterlimit:10;" d="M 72.011719 26.996094 L 95.789062 26.996094 " transform="matrix(1,0,0,-1,0,144)"/>
<path style=" stroke:none;fill-rule:evenodd;fill:rgb(0%,0%,0%);fill-opacity:1;" d="M 107.976562 116.972656 L 95.222656 112.722656 L 95.222656 121.222656 L 107.976562 116.972656 "/>
<path style="fill:none;stroke-width:0.12;stroke-linecap:butt;stroke-linejoin:round;stroke:rgb(0%,0%,0%);stroke-opacity:1;stroke-miterlimit:10;" d="M 323.871094 54.023438 L 395.882812 54.023438 L 395.882812 10.679688 C 367.371094 11.019531 368.335938 2.152344 342.601562 0.0585938 C 333.390625 1.332031 330.019531 2.324219 323.871094 3.769531 Z M 323.871094 54.023438 Z M 323.871094 54.023438 " transform="matrix(1,0,0,-1,0,144)"/>
<path style=" stroke:none;fill-rule:evenodd;fill:rgb(0%,0%,0%);fill-opacity:1;" d="M 339.511719 116.519531 L 339.511719 106.492188 L 340.84375 106.492188 L 340.84375 115.328125 L 345.777344 115.328125 L 345.777344 116.519531 "/>
<path style=" stroke:none;fill-rule:evenodd;fill:rgb(0%,0%,0%);fill-opacity:1;" d="M 347.191406 106.492188 L 348.410156 106.492188 L 348.410156 107.90625 L 347.191406 107.90625 Z M 347.191406 109.265625 L 348.410156 109.265625 L 348.410156 116.519531 L 347.191406 116.519531 Z M 347.191406 109.265625 "/>
<path style=" stroke:none;fill-rule:evenodd;fill:rgb(0%,0%,0%);fill-opacity:1;" d="M 351.445312 116.519531 L 350.28125 116.519531 L 350.28125 106.492188 L 351.527344 106.492188 L 351.527344 110.089844 C 352.039062 109.4375 352.691406 109.097656 353.511719 109.097656 C 353.96875 109.097656 354.390625 109.183594 354.789062 109.382812 C 355.183594 109.550781 355.496094 109.804688 355.753906 110.117188 C 356.007812 110.457031 356.234375 110.855469 356.375 111.308594 C 356.515625 111.761719 356.574219 112.269531 356.574219 112.78125 C 356.574219 114.027344 356.289062 114.988281 355.667969 115.671875 C 355.042969 116.351562 354.308594 116.691406 353.457031 116.691406 C 352.605469 116.691406 351.925781 116.320312 351.445312 115.613281 Z M 351.414062 112.835938 C 351.414062 113.714844 351.527344 114.339844 351.785156 114.734375 C 352.152344 115.359375 352.691406 115.671875 353.34375 115.671875 C 353.882812 115.671875 354.363281 115.441406 354.730469 114.960938 C 355.128906 114.507812 355.328125 113.800781 355.328125 112.894531 C 355.328125 111.929688 355.128906 111.25 354.761719 110.796875 C 354.390625 110.34375 353.9375 110.117188 353.398438 110.117188 C 352.859375 110.117188 352.40625 110.34375 352.011719 110.796875 C 351.613281 111.277344 351.414062 111.960938 351.414062 112.835938 "/>
<path style=" stroke:none;fill-rule:evenodd;fill:rgb(0%,0%,0%);fill-opacity:1;" d="M 358.074219 116.519531 L 358.074219 109.265625 L 359.179688 109.265625 L 359.179688 110.371094 C 359.464844 109.835938 359.71875 109.523438 359.976562 109.351562 C 360.199219 109.183594 360.484375 109.097656 360.769531 109.097656 C 361.164062 109.097656 361.589844 109.238281 362.015625 109.492188 L 361.589844 110.628906 C 361.308594 110.457031 360.996094 110.371094 360.683594 110.371094 C 360.429688 110.371094 360.171875 110.457031 359.976562 110.597656 C 359.746094 110.769531 359.605469 110.996094 359.519531 111.277344 C 359.378906 111.730469 359.296875 112.214844 359.296875 112.722656 L 359.296875 116.519531 "/>
<path style=" stroke:none;fill-rule:evenodd;fill:rgb(0%,0%,0%);fill-opacity:1;" d="M 367.484375 115.613281 C 367.03125 116.011719 366.578125 116.292969 366.152344 116.433594 C 365.726562 116.605469 365.273438 116.691406 364.792969 116.691406 C 364 116.691406 363.402344 116.492188 362.980469 116.09375 C 362.523438 115.699219 362.328125 115.21875 362.328125 114.59375 C 362.328125 114.253906 362.410156 113.914062 362.554688 113.628906 C 362.722656 113.347656 362.949219 113.09375 363.203125 112.921875 C 363.460938 112.753906 363.773438 112.609375 364.085938 112.523438 C 364.339844 112.46875 364.679688 112.382812 365.1875 112.328125 C 366.179688 112.214844 366.917969 112.070312 367.371094 111.902344 C 367.371094 111.730469 367.371094 111.648438 367.371094 111.589844 C 367.371094 111.082031 367.257812 110.742188 367.03125 110.542969 C 366.71875 110.257812 366.238281 110.117188 365.644531 110.117188 C 365.046875 110.117188 364.621094 110.230469 364.339844 110.429688 C 364.085938 110.628906 363.855469 110.996094 363.742188 111.507812 L 362.523438 111.335938 C 362.640625 110.824219 362.835938 110.402344 363.0625 110.089844 C 363.320312 109.777344 363.6875 109.523438 364.167969 109.351562 C 364.621094 109.183594 365.1875 109.097656 365.8125 109.097656 C 366.4375 109.097656 366.945312 109.183594 367.316406 109.324219 C 367.710938 109.464844 367.996094 109.636719 368.164062 109.863281 C 368.363281 110.089844 368.476562 110.371094 368.5625 110.710938 C 368.589844 110.910156 368.617188 111.277344 368.617188 111.84375 L 368.617188 113.488281 C 368.617188 114.621094 368.648438 115.359375 368.703125 115.640625 C 368.761719 115.953125 368.84375 116.238281 369.015625 116.519531 L 367.710938 116.519531 C 367.597656 116.265625 367.511719 115.953125 367.484375 115.613281 Z M 367.371094 112.863281 C 366.917969 113.0625 366.265625 113.203125 365.359375 113.347656 C 364.847656 113.402344 364.507812 113.488281 364.28125 113.601562 C 364.085938 113.6875 363.914062 113.800781 363.800781 114 C 363.6875 114.167969 363.632812 114.367188 363.632812 114.566406 C 363.632812 114.90625 363.773438 115.160156 364 115.386719 C 364.253906 115.613281 364.621094 115.726562 365.105469 115.726562 C 365.585938 115.726562 365.984375 115.613281 366.351562 115.414062 C 366.71875 115.1875 367.003906 114.90625 367.171875 114.566406 C 367.316406 114.28125 367.371094 113.855469 367.371094 113.320312 "/>
<path style=" stroke:none;fill-rule:evenodd;fill:rgb(0%,0%,0%);fill-opacity:1;" d="M 370.515625 116.519531 L 370.515625 109.265625 L 371.621094 109.265625 L 371.621094 110.371094 C 371.90625 109.835938 372.160156 109.523438 372.414062 109.351562 C 372.644531 109.183594 372.925781 109.097656 373.210938 109.097656 C 373.605469 109.097656 374.03125 109.238281 374.457031 109.492188 L 374.03125 110.628906 C 373.746094 110.457031 373.4375 110.371094 373.125 110.371094 C 372.867188 110.371094 372.613281 110.457031 372.414062 110.597656 C 372.1875 110.769531 372.046875 110.996094 371.964844 111.277344 C 371.820312 111.730469 371.734375 112.214844 371.734375 112.722656 L 371.734375 116.519531 "/>
<path style=" stroke:none;fill-rule:evenodd;fill:rgb(0%,0%,0%);fill-opacity:1;" d="M 375.136719 119.324219 L 374.996094 118.164062 C 375.25 118.21875 375.503906 118.277344 375.703125 118.277344 C 375.957031 118.277344 376.183594 118.21875 376.355469 118.136719 C 376.523438 118.050781 376.640625 117.90625 376.753906 117.738281 C 376.835938 117.625 376.949219 117.3125 377.121094 116.832031 C 377.148438 116.773438 377.175781 116.660156 377.234375 116.519531 L 374.484375 109.265625 L 375.816406 109.265625 L 377.320312 113.460938 C 377.515625 114 377.6875 114.566406 377.855469 115.160156 C 378 114.59375 378.167969 114.027344 378.339844 113.488281 L 379.898438 109.265625 L 381.144531 109.265625 L 378.367188 116.632812 C 378.085938 117.425781 377.855469 117.992188 377.6875 118.277344 C 377.460938 118.699219 377.203125 118.984375 376.921875 119.183594 C 376.640625 119.382812 376.300781 119.464844 375.929688 119.464844 C 375.675781 119.464844 375.421875 119.410156 375.136719 119.324219 "/>
<path style="fill:none;stroke-width:0.028;stroke-linecap:butt;stroke-linejoin:round;stroke:rgb(0%,0%,0%);stroke-opacity:1;stroke-miterlimit:10;" d="M 179.960938 26.996094 L 203.765625 26.996094 " transform="matrix(1,0,0,-1,0,144)"/>
<path style=" stroke:none;fill-rule:evenodd;fill:rgb(0%,0%,0%);fill-opacity:1;" d="M 215.921875 116.972656 L 203.167969 112.722656 L 203.167969 121.222656 L 215.921875 116.972656 "/>
<path style="fill:none;stroke-width:0.028;stroke-linecap:butt;stroke-linejoin:round;stroke:rgb(0%,0%,0%);stroke-opacity:1;stroke-miterlimit:10;" d="M 287.90625 26.996094 L 311.710938 26.996094 " transform="matrix(1,0,0,-1,0,144)"/>
<path style=" stroke:none;fill-rule:evenodd;fill:rgb(0%,0%,0%);fill-opacity:1;" d="M 323.871094 116.972656 L 311.117188 112.722656 L 311.117188 121.222656 L 323.871094 116.972656 "/>
</g>
</svg>
