<?xml version="1.0" encoding="UTF-8"?>
<!DOCTYPE svg PUBLIC "-//W3C//DTD SVG 1.1//EN" "http://www.w3.org/Graphics/SVG/1.1/DTD/svg11.dtd">
<svg version="1.2" width="76.2mm" height="38.1mm" viewBox="0 0 7620 3810" preserveAspectRatio="xMidYMid" fill-rule="evenodd" clip-path="url(#presentation_clip_path)" stroke-width="28.222" stroke-linejoin="round" xmlns="http://www.w3.org/2000/svg" xmlns:ooo="http://xml.openoffice.org/svg/export" xmlns:xlink="http://www.w3.org/1999/xlink" xml:space="preserve">
 <defs class="ClipPathGroup">
  <clipPath id="presentation_clip_path" clipPathUnits="userSpaceOnUse">
   <rect x="0" y="0" width="7620" height="3810"/>
  </clipPath>
 </defs>
 <defs class="TextShapeIndex">
  <g ooo:slide="id1" ooo:id-list="id3 id4 id5 id6 id7 id8 id9 id10 id11 id12 id13 id14 id15 id16 id17 id18 id19 id20 id21 id22 id23 id24 id25 id26 id27 id28 id29 id30 id31 id32 id33 id34 id35 id36 id37 id38 id39 id40 id41 id42 id43 id44 id45 id46 id47 id48 id49 id50 id51 id52 id53 id54"/>
 </defs>
 <defs class="EmbeddedBulletChars">
  <g id="bullet-char-template(57356)" transform="scale(0.00048828125,-0.00048828125)">
   <path d="M 580,1141 L 1163,571 580,0 -4,571 580,1141 Z"/>
  </g>
  <g id="bullet-char-template(57354)" transform="scale(0.00048828125,-0.00048828125)">
   <path d="M 8,1128 L 1137,1128 1137,0 8,0 8,1128 Z"/>
  </g>
  <g id="bullet-char-template(10146)" transform="scale(0.00048828125,-0.00048828125)">
   <path d="M 174,0 L 602,739 174,1481 1456,739 174,0 Z M 1358,739 L 309,1346 659,739 1358,739 Z"/>
  </g>
  <g id="bullet-char-template(10132)" transform="scale(0.00048828125,-0.00048828125)">
   <path d="M 2015,739 L 1276,0 717,0 1260,543 174,543 174,936 1260,936 717,1481 1274,1481 2015,739 Z"/>
  </g>
  <g id="bullet-char-template(10007)" transform="scale(0.00048828125,-0.00048828125)">
   <path d="M 0,-2 C -7,14 -16,27 -25,37 L 356,567 C 262,823 215,952 215,954 215,979 228,992 255,992 264,992 276,990 289,987 310,991 331,999 354,1012 L 381,999 492,748 772,1049 836,1024 860,1049 C 881,1039 901,1025 922,1006 886,937 835,863 770,784 769,783 710,716 594,584 L 774,223 C 774,196 753,168 711,139 L 727,119 C 717,90 699,76 672,76 641,76 570,178 457,381 L 164,-76 C 142,-110 111,-127 72,-127 30,-127 9,-110 8,-76 1,-67 -2,-52 -2,-32 -2,-23 -1,-13 0,-2 Z"/>
  </g>
  <g id="bullet-char-template(10004)" transform="scale(0.00048828125,-0.00048828125)">
   <path d="M 285,-33 C 182,-33 111,30 74,156 52,228 41,333 41,471 41,549 55,616 82,672 116,743 169,778 240,778 293,778 328,747 346,684 L 369,508 C 377,444 397,411 428,410 L 1163,1116 C 1174,1127 1196,1133 1229,1133 1271,1133 1292,1118 1292,1087 L 1292,965 C 1292,929 1282,901 1262,881 L 442,47 C 390,-6 338,-33 285,-33 Z"/>
  </g>
  <g id="bullet-char-template(9679)" transform="scale(0.00048828125,-0.00048828125)">
   <path d="M 813,0 C 632,0 489,54 383,161 276,268 223,411 223,592 223,773 276,916 383,1023 489,1130 632,1184 813,1184 992,1184 1136,1130 1245,1023 1353,916 1407,772 1407,592 1407,412 1353,268 1245,161 1136,54 992,0 813,0 Z"/>
  </g>
  <g id="bullet-char-template(8226)" transform="scale(0.00048828125,-0.00048828125)">
   <path d="M 346,457 C 273,457 209,483 155,535 101,586 74,649 74,723 74,796 101,859 155,911 209,963 273,989 346,989 419,989 480,963 531,910 582,859 608,796 608,723 608,648 583,586 532,535 482,483 420,457 346,457 Z"/>
  </g>
  <g id="bullet-char-template(8211)" transform="scale(0.00048828125,-0.00048828125)">
   <path d="M -4,459 L 1135,459 1135,606 -4,606 -4,459 Z"/>
  </g>
 </defs>
 <defs class="TextEmbeddedBitmaps"/>
 <g>
  <g id="id2" class="Master_Slide">
   <g id="bg-id2" class="Background"/>
   <g id="bo-id2" class="BackgroundObjects"/>
  </g>
 </g>
 <g class="SlideGroup">
  <g>
   <g id="id1" class="Slide" clip-path="url(#presentation_clip_path)">
    <g class="Page">
     <g class="Group">
      <g class="com.sun.star.drawing.RectangleShape">
       <g id="id3">
        <path fill="none" stroke="rgb(0,0,0)" d="M 4716,758 L 4341,758 4341,508 5091,508 5091,758 4716,758 Z"/>
       </g>
      </g>
      <g class="com.sun.star.drawing.LineShape">
       <g id="id4">
        <path fill="none" stroke="rgb(0,0,0)" d="M 4091,633 L 4341,633"/>
       </g>
      </g>
      <g class="com.sun.star.drawing.LineShape">
       <g id="id5">
        <path fill="none" stroke="rgb(0,0,0)" d="M 5091,633 L 5341,633"/>
       </g>
      </g>
     </g>
     <g class="Group">
      <g class="com.sun.star.drawing.RectangleShape">
       <g id="id6">
        <path fill="none" stroke="rgb(0,0,0)" d="M 1922,2028 L 1547,2028 1547,1778 2297,1778 2297,2028 1922,2028 Z"/>
       </g>
      </g>
      <g class="com.sun.star.drawing.LineShape">
       <g id="id7">
        <path fill="none" stroke="rgb(0,0,0)" d="M 1297,1903 L 1547,1903"/>
       </g>
      </g>
      <g class="com.sun.star.drawing.LineShape">
       <g id="id8">
        <path fill="none" stroke="rgb(0,0,0)" d="M 2297,1903 L 2547,1903"/>
       </g>
      </g>
     </g>
     <g class="Group">
      <g class="com.sun.star.drawing.LineShape">
       <g id="id9">
        <path fill="none" stroke="rgb(0,0,0)" d="M 633,3304 L 633,3054"/>
       </g>
      </g>
      <g class="com.sun.star.drawing.LineShape">
       <g id="id10">
        <path fill="none" stroke="rgb(0,0,0)" d="M 758,3304 L 508,3304"/>
       </g>
      </g>
      <g class="com.sun.star.drawing.LineShape">
       <g id="id11">
        <path fill="none" stroke="rgb(0,0,0)" d="M 633,3429 L 758,3304"/>
       </g>
      </g>
      <g class="com.sun.star.drawing.LineShape">
       <g id="id12">
        <path fill="none" stroke="rgb(0,0,0)" d="M 633,3429 L 508,3304"/>
       </g>
      </g>
     </g>
     <g class="com.sun.star.drawing.ConnectorShape">
      <g id="id13">
       <path fill="none" stroke="rgb(52,101,175)" d="M 5840,2036 L 5840,1397 5842,1397 5842,633 5341,633"/>
      </g>
     </g>
     <g class="Group">
      <g class="com.sun.star.drawing.CustomShape">
       <g id="id14">
        <path fill="rgb(255,255,255)" stroke="none" d="M 3300,1778 L 3425,1778 3425,2028 3175,2028 3175,1778 3300,1778 Z"/>
       </g>
      </g>
      <g class="com.sun.star.drawing.LineShape">
       <g id="id15">
        <path fill="none" stroke="rgb(0,0,0)" d="M 3300,1778 L 3300,1903"/>
       </g>
      </g>
      <g class="com.sun.star.drawing.LineShape">
       <g id="id16">
        <path fill="none" stroke="rgb(0,0,0)" d="M 3175,1903 L 3425,1903"/>
       </g>
      </g>
      <g class="com.sun.star.drawing.CustomShape">
       <g id="id17">
        <path fill="rgb(0,0,0)" stroke="none" d="M 3300,1953 C 3328,1953 3350,1931 3350,1903 3350,1875 3328,1853 3300,1853 3272,1853 3250,1875 3250,1903 3250,1931 3272,1953 3300,1953 Z M 3250,1953 L 3250,1953 Z M 3351,1852 L 3351,1852 Z"/>
        <path fill="none" stroke="rgb(0,0,0)" d="M 3300,1953 C 3328,1953 3350,1931 3350,1903 3350,1875 3328,1853 3300,1853 3272,1853 3250,1875 3250,1903 3250,1931 3272,1953 3300,1953 Z"/>
        <path fill="none" stroke="rgb(0,0,0)" d="M 3250,1953 L 3250,1953 Z"/>
        <path fill="none" stroke="rgb(0,0,0)" d="M 3351,1852 L 3351,1852 Z"/>
       </g>
      </g>
     </g>
     <g class="Group">
      <g class="com.sun.star.drawing.LineShape">
       <g id="id18">
        <path fill="none" stroke="rgb(0,0,0)" d="M 3937,2667 L 3937,1651"/>
       </g>
      </g>
      <g class="com.sun.star.drawing.LineShape">
       <g id="id19">
        <path fill="none" stroke="rgb(0,0,0)" d="M 3937,2667 L 4826,2159"/>
       </g>
      </g>
      <g class="com.sun.star.drawing.LineShape">
       <g id="id20">
        <path fill="none" stroke="rgb(0,0,0)" d="M 3937,1651 L 4826,2159"/>
       </g>
      </g>
      <g class="com.sun.star.drawing.PolyPolygonShape">
       <g id="id21">
        <path fill="rgb(0,0,0)" stroke="none" d="M 4133,2421 L 4133,2363 4191,2363 4191,2345 4133,2345 4133,2286 4115,2286 4115,2345 4056,2345 4056,2363 4115,2363 4115,2421 4133,2421 Z"/>
       </g>
      </g>
      <g class="com.sun.star.drawing.PolyPolygonShape">
       <g id="id22">
        <path fill="rgb(0,0,0)" stroke="none" d="M 4064,1905 L 4139,1905 4139,1882 4064,1882 4064,1905 Z"/>
       </g>
      </g>
      <g class="com.sun.star.drawing.LineShape">
       <g id="id23">
        <path fill="none" stroke="rgb(0,0,0)" d="M 3937,1905 L 3683,1905"/>
       </g>
      </g>
      <g class="com.sun.star.drawing.LineShape">
       <g id="id24">
        <path fill="none" stroke="rgb(0,0,0)" d="M 3937,2413 L 3683,2413"/>
       </g>
      </g>
      <g class="com.sun.star.drawing.LineShape">
       <g id="id25">
        <path fill="none" stroke="rgb(0,0,0)" d="M 4826,2159 L 5080,2159"/>
       </g>
      </g>
     </g>
     <g class="com.sun.star.drawing.ConnectorShape">
      <g id="id26">
       <path fill="none" stroke="rgb(52,101,175)" d="M 3300,1778 L 3300,633 4091,633"/>
      </g>
     </g>
     <g class="com.sun.star.drawing.ConnectorShape">
      <g id="id27">
       <path fill="none" stroke="rgb(52,101,175)" d="M 2547,1903 L 3175,1903"/>
      </g>
     </g>
     <g class="com.sun.star.drawing.ConnectorShape">
      <g id="id28">
       <path fill="none" stroke="rgb(52,101,175)" d="M 3685,1905 L 3554,1905 3554,1903 3425,1903"/>
      </g>
     </g>
     <g class="Group">
      <g class="com.sun.star.drawing.EllipseShape">
       <g id="id29">
        <path fill="none" stroke="rgb(0,0,0)" d="M 809,2587 C 777,2620 742,2640 697,2652 653,2664 612,2664 567,2652 523,2640 488,2620 455,2587 423,2555 402,2519 390,2475 378,2430 378,2390 390,2345 402,2301 423,2265 455,2233 488,2200 523,2180 567,2168 612,2156 653,2156 697,2168 742,2180 777,2200 809,2233 842,2265 862,2301 874,2345 886,2390 886,2430 874,2475 862,2519 842,2555 809,2587 Z"/>
       </g>
      </g>
      <g class="com.sun.star.drawing.LineShape">
       <g id="id30">
        <path fill="none" stroke="rgb(0,0,0)" d="M 455,2233 L 810,2588"/>
       </g>
      </g>
      <g class="com.sun.star.drawing.LineShape">
       <g id="id31">
        <path fill="none" stroke="rgb(0,0,0)" d="M 455,2588 L 810,2233"/>
       </g>
      </g>
     </g>
     <g class="Group">
      <g class="com.sun.star.drawing.LineShape">
       <g id="id32">
        <path fill="none" stroke="rgb(0,0,0)" d="M 2157,3298 L 2157,3048"/>
       </g>
      </g>
      <g class="com.sun.star.drawing.LineShape">
       <g id="id33">
        <path fill="none" stroke="rgb(0,0,0)" d="M 2282,3298 L 2032,3298"/>
       </g>
      </g>
      <g class="com.sun.star.drawing.LineShape">
       <g id="id34">
        <path fill="none" stroke="rgb(0,0,0)" d="M 2157,3423 L 2282,3298"/>
       </g>
      </g>
      <g class="com.sun.star.drawing.LineShape">
       <g id="id35">
        <path fill="none" stroke="rgb(0,0,0)" d="M 2157,3423 L 2032,3298"/>
       </g>
      </g>
     </g>
     <g class="com.sun.star.drawing.EllipseShape">
      <g id="id36">
       <path fill="none" stroke="rgb(0,0,0)" d="M 6858,2413 C 6811,2413 6771,2402 6731,2379 6691,2356 6661,2326 6638,2286 6615,2246 6604,2206 6604,2159 6604,2112 6615,2072 6638,2032 6661,1992 6691,1962 6731,1939 6771,1916 6811,1905 6858,1905 6905,1905 6945,1916 6985,1939 7025,1962 7055,1992 7078,2032 7101,2072 7112,2112 7112,2159 7112,2206 7101,2246 7078,2286 7055,2326 7025,2356 6985,2379 6945,2402 6905,2413 6858,2413 Z"/>
       <text class="TextShape"><tspan class="TextParagraph" font-family="Arial, sans-serif" font-size="353px" font-weight="400"><tspan class="TextPosition" x="6652" y="2280"><tspan fill="rgb(0,0,0)" stroke="none">Vo</tspan></tspan></tspan></text>
      </g>
     </g>
     <g class="com.sun.star.drawing.TextShape">
      <g id="id37">
       <text class="TextShape"><tspan class="TextParagraph" font-family="Arial, sans-serif" font-size="423px" font-weight="400"><tspan class="TextPosition" x="1012" y="2665"><tspan fill="rgb(0,0,0)" stroke="none">Vi</tspan></tspan></tspan></text>
      </g>
     </g>
     <g class="Group">
      <g class="com.sun.star.drawing.CustomShape">
       <g id="id38">
        <path fill="rgb(255,255,255)" stroke="none" d="M 5840,2036 L 5965,2036 5965,2286 5715,2286 5715,2036 5840,2036 Z"/>
       </g>
      </g>
      <g class="com.sun.star.drawing.LineShape">
       <g id="id39">
        <path fill="none" stroke="rgb(0,0,0)" d="M 5840,2036 L 5840,2161"/>
       </g>
      </g>
      <g class="com.sun.star.drawing.LineShape">
       <g id="id40">
        <path fill="none" stroke="rgb(0,0,0)" d="M 5715,2161 L 5965,2161"/>
       </g>
      </g>
      <g class="com.sun.star.drawing.CustomShape">
       <g id="id41">
        <path fill="rgb(0,0,0)" stroke="none" d="M 5840,2211 C 5868,2211 5890,2189 5890,2161 5890,2133 5868,2111 5840,2111 5812,2111 5790,2133 5790,2161 5790,2189 5812,2211 5840,2211 Z M 5790,2211 L 5790,2211 Z M 5891,2110 L 5891,2110 Z"/>
        <path fill="none" stroke="rgb(0,0,0)" d="M 5840,2211 C 5868,2211 5890,2189 5890,2161 5890,2133 5868,2111 5840,2111 5812,2111 5790,2133 5790,2161 5790,2189 5812,2211 5840,2211 Z"/>
        <path fill="none" stroke="rgb(0,0,0)" d="M 5790,2211 L 5790,2211 Z"/>
        <path fill="none" stroke="rgb(0,0,0)" d="M 5891,2110 L 5891,2110 Z"/>
       </g>
      </g>
     </g>
     <g class="com.sun.star.drawing.ConnectorShape">
      <g id="id42">
       <path fill="none" stroke="rgb(52,101,175)" d="M 5965,2161 L 6285,2161 6285,2159 6604,2159"/>
      </g>
     </g>
     <g class="com.sun.star.drawing.ConnectorShape">
      <g id="id43">
       <path fill="none" stroke="rgb(52,101,175)" d="M 5080,2159 L 5398,2159 5398,2161 5715,2161"/>
      </g>
     </g>
     <g class="com.sun.star.drawing.TextShape">
      <g id="id44">
       <text class="TextShape"><tspan class="TextParagraph" font-family="Arial, sans-serif" font-size="353px" font-weight="400"><tspan class="TextPosition" x="1774" y="1713"><tspan fill="rgb(0,0,0)" stroke="none">Ri</tspan></tspan></tspan></text>
      </g>
     </g>
     <g class="com.sun.star.drawing.TextShape">
      <g id="id45">
       <text class="TextShape"><tspan class="TextParagraph" font-family="Arial, sans-serif" font-size="353px" font-weight="400"><tspan class="TextPosition" x="4568" y="443"><tspan fill="rgb(0,0,0)" stroke="none">Rf</tspan></tspan></tspan></text>
      </g>
     </g>
     <g class="com.sun.star.drawing.ConnectorShape">
      <g id="id46">
       <path fill="none" stroke="rgb(52,101,175)" d="M 632,2159 L 632,1903 1297,1903"/>
      </g>
     </g>
     <g class="com.sun.star.drawing.ConnectorShape">
      <g id="id47">
       <path fill="none" stroke="rgb(52,101,175)" d="M 2157,3048 L 2157,2413 3685,2413"/>
      </g>
     </g>
     <g class="com.sun.star.drawing.ConnectorShape">
      <g id="id48">
       <path fill="none" stroke="rgb(52,101,175)" d="M 633,3054 L 633,2858 632,2858 632,2661"/>
      </g>
     </g>
     <g class="com.sun.star.drawing.LineShape">
      <g id="id49">
       <path fill="none" stroke="rgb(0,0,0)" d="M 2540,1651 L 3029,1651"/>
       <path fill="rgb(0,0,0)" stroke="none" d="M 3175,1651 L 3022,1600 3022,1702 3175,1651 Z"/>
      </g>
     </g>
     <g class="com.sun.star.drawing.TextShape">
      <g id="id50">
       <text class="TextShape"><tspan class="TextParagraph" font-family="Arial, sans-serif" font-size="247px" font-weight="400"><tspan class="TextPosition" x="2663" y="1619"><tspan fill="rgb(0,0,0)" stroke="none">i1</tspan></tspan></tspan></text>
      </g>
     </g>
     <g class="com.sun.star.drawing.LineShape">
      <g id="id51">
       <path fill="none" stroke="rgb(0,0,0)" d="M 3810,1651 L 3575,1651"/>
       <path fill="rgb(0,0,0)" stroke="none" d="M 3429,1651 L 3582,1702 3582,1600 3429,1651 Z"/>
      </g>
     </g>
     <g class="com.sun.star.drawing.TextShape">
      <g id="id52">
       <text class="TextShape"><tspan class="TextParagraph" font-family="Arial, sans-serif" font-size="247px" font-weight="400"><tspan class="TextPosition" x="3679" y="1601"><tspan fill="rgb(0,0,0)" stroke="none">i3</tspan></tspan></tspan></text>
      </g>
     </g>
     <g class="com.sun.star.drawing.LineShape">
      <g id="id53">
       <path fill="none" stroke="rgb(0,0,0)" d="M 3429,762 L 3429,1251"/>
       <path fill="rgb(0,0,0)" stroke="none" d="M 3429,1397 L 3480,1244 3378,1244 3429,1397 Z"/>
      </g>
     </g>
     <g class="com.sun.star.drawing.TextShape">
      <g id="id54">
       <text class="TextShape"><tspan class="TextParagraph" font-family="Arial, sans-serif" font-size="247px" font-weight="400"><tspan class="TextPosition" x="3552" y="1111"><tspan fill="rgb(0,0,0)" stroke="none">i2</tspan></tspan></tspan></text>
      </g>
     </g>
    </g>
   </g>
  </g>
 </g>
</svg>