<?xml version="1.0" encoding="UTF-8"?>
<!DOCTYPE svg PUBLIC "-//W3C//DTD SVG 1.1//EN" "http://www.w3.org/Graphics/SVG/1.1/DTD/svg11.dtd">
<svg version="1.2" width="95.25mm" height="137.16mm" viewBox="0 0 9525 13716" preserveAspectRatio="xMidYMid" fill-rule="evenodd" clip-path="url(#presentation_clip_path)" stroke-width="28.222" stroke-linejoin="round" xmlns="http://www.w3.org/2000/svg" xmlns:ooo="http://xml.openoffice.org/svg/export" xmlns:xlink="http://www.w3.org/1999/xlink" xml:space="preserve">
 <defs class="ClipPathGroup">
  <clipPath id="presentation_clip_path" clipPathUnits="userSpaceOnUse">
   <rect x="0" y="0" width="9525" height="13716"/>
  </clipPath>
 </defs>
 <defs class="TextShapeIndex">
  <g ooo:slide="id1" ooo:id-list="id3 id4 id5 id6 id7 id8 id9 id10 id11 id12 id13 id14 id15 id16 id17 id18 id19 id20 id21"/>
 </defs>
 <defs class="EmbeddedBulletChars">
  <g id="bullet-char-template(57356)" transform="scale(0.00048828125,-0.00048828125)">
   <path d="M 580,1141 L 1163,571 580,0 -4,571 580,1141 Z"/>
  </g>
  <g id="bullet-char-template(57354)" transform="scale(0.00048828125,-0.00048828125)">
   <path d="M 8,1128 L 1137,1128 1137,0 8,0 8,1128 Z"/>
  </g>
  <g id="bullet-char-template(10146)" transform="scale(0.00048828125,-0.00048828125)">
   <path d="M 174,0 L 602,739 174,1481 1456,739 174,0 Z M 1358,739 L 309,1346 659,739 1358,739 Z"/>
  </g>
  <g id="bullet-char-template(10132)" transform="scale(0.00048828125,-0.00048828125)">
   <path d="M 2015,739 L 1276,0 717,0 1260,543 174,543 174,936 1260,936 717,1481 1274,1481 2015,739 Z"/>
  </g>
  <g id="bullet-char-template(10007)" transform="scale(0.00048828125,-0.00048828125)">
   <path d="M 0,-2 C -7,14 -16,27 -25,37 L 356,567 C 262,823 215,952 215,954 215,979 228,992 255,992 264,992 276,990 289,987 310,991 331,999 354,1012 L 381,999 492,748 772,1049 836,1024 860,1049 C 881,1039 901,1025 922,1006 886,937 835,863 770,784 769,783 710,716 594,584 L 774,223 C 774,196 753,168 711,139 L 727,119 C 717,90 699,76 672,76 641,76 570,178 457,381 L 164,-76 C 142,-110 111,-127 72,-127 30,-127 9,-110 8,-76 1,-67 -2,-52 -2,-32 -2,-23 -1,-13 0,-2 Z"/>
  </g>
  <g id="bullet-char-template(10004)" transform="scale(0.00048828125,-0.00048828125)">
   <path d="M 285,-33 C 182,-33 111,30 74,156 52,228 41,333 41,471 41,549 55,616 82,672 116,743 169,778 240,778 293,778 328,747 346,684 L 369,508 C 377,444 397,411 428,410 L 1163,1116 C 1174,1127 1196,1133 1229,1133 1271,1133 1292,1118 1292,1087 L 1292,965 C 1292,929 1282,901 1262,881 L 442,47 C 390,-6 338,-33 285,-33 Z"/>
  </g>
  <g id="bullet-char-template(9679)" transform="scale(0.00048828125,-0.00048828125)">
   <path d="M 813,0 C 632,0 489,54 383,161 276,268 223,411 223,592 223,773 276,916 383,1023 489,1130 632,1184 813,1184 992,1184 1136,1130 1245,1023 1353,916 1407,772 1407,592 1407,412 1353,268 1245,161 1136,54 992,0 813,0 Z"/>
  </g>
  <g id="bullet-char-template(8226)" transform="scale(0.00048828125,-0.00048828125)">
   <path d="M 346,457 C 273,457 209,483 155,535 101,586 74,649 74,723 74,796 101,859 155,911 209,963 273,989 346,989 419,989 480,963 531,910 582,859 608,796 608,723 608,648 583,586 532,535 482,483 420,457 346,457 Z"/>
  </g>
  <g id="bullet-char-template(8211)" transform="scale(0.00048828125,-0.00048828125)">
   <path d="M -4,459 L 1135,459 1135,606 -4,606 -4,459 Z"/>
  </g>
 </defs>
 <defs class="TextEmbeddedBitmaps"/>
 <g>
  <g id="id2" class="Master_Slide">
   <g id="bg-id2" class="Background"/>
   <g id="bo-id2" class="BackgroundObjects"/>
  </g>
 </g>
 <g class="SlideGroup">
  <g>
   <g id="id1" class="Slide" clip-path="url(#presentation_clip_path)">
    <g class="Page">
     <g class="com.sun.star.drawing.CustomShape">
      <g id="id3">
       <path fill="none" stroke="rgb(0,0,0)" d="M 6667,9048 L 4127,9048 4127,158 9207,158 9207,9048 6667,9048 Z"/>
      </g>
     </g>
     <g class="com.sun.star.drawing.CustomShape">
      <g id="id4">
       <path fill="none" stroke="rgb(0,0,0)" d="M 6667,3968 L 5397,3968 5397,1428 7937,1428 7937,3968 6667,3968 Z"/>
       <text class="TextShape"><tspan class="TextParagraph" font-family="Arial, sans-serif" font-size="494px" font-weight="400"><tspan class="TextPosition" x="5568" y="2037"><tspan fill="rgb(0,0,0)" stroke="none">Arithmetic</tspan></tspan></tspan><tspan class="TextParagraph" font-family="Arial, sans-serif" font-size="494px" font-weight="400"><tspan class="TextPosition" x="6076" y="2592"><tspan fill="rgb(0,0,0)" stroke="none">Logic</tspan></tspan></tspan><tspan class="TextParagraph" font-family="Arial, sans-serif" font-size="494px" font-weight="400"><tspan class="TextPosition" x="6226" y="3147"><tspan fill="rgb(0,0,0)" stroke="none">Unit</tspan></tspan></tspan><tspan class="TextParagraph" font-family="Arial, sans-serif" font-size="494px" font-weight="400"><tspan class="TextPosition" x="6021" y="3702"><tspan fill="rgb(0,0,0)" stroke="none">(ALU)</tspan></tspan></tspan></text>
      </g>
     </g>
     <g class="com.sun.star.drawing.CustomShape">
      <g id="id5">
       <path fill="none" stroke="rgb(0,0,0)" d="M 1587,11587 L 317,11587 317,4602 2857,4602 2857,11587 1587,11587 Z"/>
       <text class="TextShape"><tspan class="TextParagraph" font-family="Arial, sans-serif" font-size="494px" font-weight="400"><tspan class="TextPosition" x="1039" y="8266"><tspan fill="rgb(0,0,0)" stroke="none">RAM</tspan></tspan></tspan></text>
      </g>
     </g>
     <g class="com.sun.star.drawing.CustomShape">
      <g id="id6">
       <path fill="none" stroke="rgb(0,0,0)" d="M 1587,3968 L 317,3968 317,158 2857,158 2857,3968 1587,3968 Z"/>
       <text class="TextShape"><tspan class="TextParagraph" font-family="Arial, sans-serif" font-size="494px" font-weight="400"><tspan class="TextPosition" x="791" y="2235"><tspan fill="rgb(0,0,0)" stroke="none">FLASH</tspan></tspan></tspan></text>
      </g>
     </g>
     <g class="com.sun.star.drawing.CustomShape">
      <g id="id7">
       <path fill="none" stroke="rgb(0,0,0)" d="M 6667,8412 L 5397,8412 5397,5237 7937,5237 7937,8412 6667,8412 Z"/>
       <text class="TextShape"><tspan class="TextParagraph" font-family="Arial, sans-serif" font-size="494px" font-weight="400"><tspan class="TextPosition" x="6146" y="6719"><tspan fill="rgb(0,0,0)" stroke="none">CPU</tspan></tspan></tspan><tspan class="TextParagraph" font-family="Arial, sans-serif" font-size="494px" font-weight="400"><tspan class="TextPosition" x="5623" y="7274"><tspan fill="rgb(0,0,0)" stroke="none">Registers</tspan></tspan></tspan></text>
      </g>
     </g>
     <g class="com.sun.star.drawing.CustomShape">
      <g id="id8">
       <text class="TextShape"><tspan class="TextParagraph" font-family="Arial, sans-serif" font-size="494px" font-weight="400"><tspan class="TextPosition" x="6147" y="646"><tspan fill="rgb(0,0,0)" stroke="none">CPU</tspan></tspan></tspan></text>
      </g>
     </g>
     <g class="com.sun.star.drawing.CustomShape">
      <g id="id9">
       <path fill="none" stroke="rgb(0,0,0)" d="M 6667,11587 L 4127,11587 4127,9682 9207,9682 9207,11587 6667,11587 Z"/>
       <text class="TextShape"><tspan class="TextParagraph" font-family="Arial, sans-serif" font-size="494px" font-weight="400"><tspan class="TextPosition" x="4430" y="10806"><tspan fill="rgb(0,0,0)" stroke="none">Peripheral Registers</tspan></tspan></tspan></text>
      </g>
     </g>
     <g class="com.sun.star.drawing.ConnectorShape">
      <g id="id10">
       <path fill="none" stroke="rgb(0,0,0)" d="M 7937,2698 L 8438,2698 8438,6825 8367,6825"/>
       <path fill="rgb(0,0,0)" stroke="none" d="M 7937,6825 L 8387,6975 8387,6675 7937,6825 Z"/>
      </g>
     </g>
     <g class="com.sun.star.drawing.ConnectorShape">
      <g id="id11">
       <path fill="none" stroke="rgb(0,0,0)" d="M 4967,6825 L 4127,6825 4127,6826 3287,6826"/>
       <path fill="rgb(0,0,0)" stroke="none" d="M 5397,6825 L 4947,6675 4947,6975 5397,6825 Z"/>
       <path fill="rgb(0,0,0)" stroke="none" d="M 2857,6826 L 3307,6976 3307,6676 2857,6826 Z"/>
      </g>
     </g>
     <g class="com.sun.star.drawing.ConnectorShape">
      <g id="id12">
       <path fill="none" stroke="rgb(0,0,0)" d="M 2857,2063 L 3492,2063 3492,2064 3697,2064"/>
       <path fill="rgb(0,0,0)" stroke="none" d="M 4127,2064 L 3677,1914 3677,2214 4127,2064 Z"/>
      </g>
     </g>
     <g class="com.sun.star.drawing.ConnectorShape">
      <g id="id13">
       <path fill="none" stroke="rgb(0,0,0)" d="M 6667,8843 L 6667,9253"/>
       <path fill="rgb(0,0,0)" stroke="none" d="M 6667,8413 L 6517,8863 6817,8863 6667,8413 Z"/>
       <path fill="rgb(0,0,0)" stroke="none" d="M 6667,9683 L 6817,9233 6517,9233 6667,9683 Z"/>
      </g>
     </g>
     <g class="com.sun.star.drawing.ConnectorShape">
      <g id="id14">
       <path fill="none" stroke="rgb(0,0,0)" d="M 6032,5239 L 6032,4398"/>
       <path fill="rgb(0,0,0)" stroke="none" d="M 6032,3968 L 5882,4418 6182,4418 6032,3968 Z"/>
      </g>
     </g>
     <g class="com.sun.star.drawing.ConnectorShape">
      <g id="id15">
       <path fill="none" stroke="rgb(0,0,0)" d="M 7302,5239 L 7302,4398"/>
       <path fill="rgb(0,0,0)" stroke="none" d="M 7302,3968 L 7152,4418 7452,4418 7302,3968 Z"/>
      </g>
     </g>
     <g class="com.sun.star.drawing.CustomShape">
      <g id="id16">
       <path fill="rgb(204,204,204)" stroke="none" d="M 3095,2221 C 3320,2221 3492,2392 3492,2617 3492,2842 3320,3014 3095,3014 2870,3014 2698,2842 2698,2617 2698,2392 2870,2221 3095,2221 Z M 2698,2221 L 2698,2221 Z M 3493,3015 L 3493,3015 Z"/>
       <path fill="none" stroke="rgb(0,0,0)" d="M 3095,2221 C 3320,2221 3492,2392 3492,2617 3492,2842 3320,3014 3095,3014 2870,3014 2698,2842 2698,2617 2698,2392 2870,2221 3095,2221 Z"/>
       <path fill="none" stroke="rgb(0,0,0)" d="M 2698,2221 L 2698,2221 Z"/>
       <path fill="none" stroke="rgb(0,0,0)" d="M 3493,3015 L 3493,3015 Z"/>
       <text class="TextShape"><tspan class="TextParagraph" font-family="Arial, sans-serif" font-size="494px" font-weight="400"><tspan class="TextPosition" x="2957" y="2789"><tspan fill="rgb(0,0,0)" stroke="none">1</tspan></tspan></tspan></text>
      </g>
     </g>
     <g class="com.sun.star.drawing.CustomShape">
      <g id="id17">
       <path fill="rgb(204,204,204)" stroke="none" d="M 3888,6983 C 4113,6983 4285,7154 4285,7379 4285,7604 4113,7776 3888,7776 3663,7776 3491,7604 3491,7379 3491,7154 3663,6983 3888,6983 Z M 3491,6983 L 3491,6983 Z M 4286,7777 L 4286,7777 Z"/>
       <path fill="none" stroke="rgb(0,0,0)" d="M 3888,6983 C 4113,6983 4285,7154 4285,7379 4285,7604 4113,7776 3888,7776 3663,7776 3491,7604 3491,7379 3491,7154 3663,6983 3888,6983 Z"/>
       <path fill="none" stroke="rgb(0,0,0)" d="M 3491,6983 L 3491,6983 Z"/>
       <path fill="none" stroke="rgb(0,0,0)" d="M 4286,7777 L 4286,7777 Z"/>
       <text class="TextShape"><tspan class="TextParagraph" font-family="Arial, sans-serif" font-size="494px" font-weight="400"><tspan class="TextPosition" x="3750" y="7551"><tspan fill="rgb(0,0,0)" stroke="none">2</tspan></tspan></tspan></text>
      </g>
     </g>
     <g class="com.sun.star.drawing.CustomShape">
      <g id="id18">
       <path fill="rgb(204,204,204)" stroke="none" d="M 7381,8730 C 7606,8730 7778,8901 7778,9126 7778,9351 7606,9523 7381,9523 7156,9523 6984,9351 6984,9126 6984,8901 7156,8730 7381,8730 Z M 6984,8730 L 6984,8730 Z M 7779,9524 L 7779,9524 Z"/>
       <path fill="none" stroke="rgb(0,0,0)" d="M 7381,8730 C 7606,8730 7778,8901 7778,9126 7778,9351 7606,9523 7381,9523 7156,9523 6984,9351 6984,9126 6984,8901 7156,8730 7381,8730 Z"/>
       <path fill="none" stroke="rgb(0,0,0)" d="M 6984,8730 L 6984,8730 Z"/>
       <path fill="none" stroke="rgb(0,0,0)" d="M 7779,9524 L 7779,9524 Z"/>
       <text class="TextShape"><tspan class="TextParagraph" font-family="Arial, sans-serif" font-size="494px" font-weight="400"><tspan class="TextPosition" x="7243" y="9298"><tspan fill="rgb(0,0,0)" stroke="none">2</tspan></tspan></tspan></text>
      </g>
     </g>
     <g class="com.sun.star.drawing.CustomShape">
      <g id="id19">
       <path fill="rgb(204,204,204)" stroke="none" d="M 5476,4443 C 5701,4443 5873,4614 5873,4839 5873,5064 5701,5236 5476,5236 5251,5236 5079,5064 5079,4839 5079,4614 5251,4443 5476,4443 Z M 5079,4443 L 5079,4443 Z M 5874,5237 L 5874,5237 Z"/>
       <path fill="none" stroke="rgb(0,0,0)" d="M 5476,4443 C 5701,4443 5873,4614 5873,4839 5873,5064 5701,5236 5476,5236 5251,5236 5079,5064 5079,4839 5079,4614 5251,4443 5476,4443 Z"/>
       <path fill="none" stroke="rgb(0,0,0)" d="M 5079,4443 L 5079,4443 Z"/>
       <path fill="none" stroke="rgb(0,0,0)" d="M 5874,5237 L 5874,5237 Z"/>
       <text class="TextShape"><tspan class="TextParagraph" font-family="Arial, sans-serif" font-size="494px" font-weight="400"><tspan class="TextPosition" x="5338" y="5011"><tspan fill="rgb(0,0,0)" stroke="none">3</tspan></tspan></tspan></text>
      </g>
     </g>
     <g class="com.sun.star.drawing.CustomShape">
      <g id="id20">
       <path fill="rgb(204,204,204)" stroke="none" d="M 8969,4602 C 9194,4602 9366,4773 9366,4998 9366,5223 9194,5395 8969,5395 8744,5395 8572,5223 8572,4998 8572,4773 8744,4602 8969,4602 Z M 8572,4602 L 8572,4602 Z M 9367,5396 L 9367,5396 Z"/>
       <path fill="none" stroke="rgb(0,0,0)" d="M 8969,4602 C 9194,4602 9366,4773 9366,4998 9366,5223 9194,5395 8969,5395 8744,5395 8572,5223 8572,4998 8572,4773 8744,4602 8969,4602 Z"/>
       <path fill="none" stroke="rgb(0,0,0)" d="M 8572,4602 L 8572,4602 Z"/>
       <path fill="none" stroke="rgb(0,0,0)" d="M 9367,5396 L 9367,5396 Z"/>
       <text class="TextShape"><tspan class="TextParagraph" font-family="Arial, sans-serif" font-size="494px" font-weight="400"><tspan class="TextPosition" x="8831" y="5170"><tspan fill="rgb(0,0,0)" stroke="none">4</tspan></tspan></tspan></text>
      </g>
     </g>
     <g class="com.sun.star.drawing.CustomShape">
      <g id="id21">
       <path fill="none" stroke="rgb(0,0,0)" d="M 6667,13492 L 4127,13492 4127,11587 9207,11587 9207,13492 6667,13492 Z"/>
       <text class="TextShape"><tspan class="TextParagraph" font-family="Arial, sans-serif" font-size="494px" font-weight="400"><tspan class="TextPosition" x="4568" y="12434"><tspan fill="rgb(0,0,0)" stroke="none">Peripheral Circuitry</tspan></tspan></tspan><tspan class="TextParagraph" font-family="Arial, sans-serif" font-size="494px" font-weight="400"><tspan class="TextPosition" x="4106" y="12989"><tspan fill="rgb(0,0,0)" stroke="none">(UART, SPI, GPIO, etc)</tspan></tspan></tspan></text>
      </g>
     </g>
    </g>
   </g>
  </g>
 </g>
</svg>