<?xml version="1.0" encoding="UTF-8"?>
<!DOCTYPE svg PUBLIC "-//W3C//DTD SVG 1.1//EN" "http://www.w3.org/Graphics/SVG/1.1/DTD/svg11.dtd">
<svg version="1.2" width="170.18mm" height="158.75mm" viewBox="0 0 17018 15875" preserveAspectRatio="xMidYMid" fill-rule="evenodd" clip-path="url(#presentation_clip_path)" stroke-width="28.222" stroke-linejoin="round" xmlns="http://www.w3.org/2000/svg" xmlns:ooo="http://xml.openoffice.org/svg/export" xmlns:xlink="http://www.w3.org/1999/xlink" xml:space="preserve">
 <defs class="ClipPathGroup">
  <clipPath id="presentation_clip_path" clipPathUnits="userSpaceOnUse">
   <rect x="0" y="0" width="17018" height="15875"/>
  </clipPath>
 </defs>
 <defs class="TextShapeIndex">
  <g ooo:slide="id1" ooo:id-list="id3 id4 id5 id6 id7 id8 id9 id10 id11 id12 id13 id14 id15 id16 id17 id18 id19 id20 id21 id22"/>
 </defs>
 <defs class="EmbeddedBulletChars">
  <g id="bullet-char-template(57356)" transform="scale(0.00048828125,-0.00048828125)">
   <path d="M 580,1141 L 1163,571 580,0 -4,571 580,1141 Z"/>
  </g>
  <g id="bullet-char-template(57354)" transform="scale(0.00048828125,-0.00048828125)">
   <path d="M 8,1128 L 1137,1128 1137,0 8,0 8,1128 Z"/>
  </g>
  <g id="bullet-char-template(10146)" transform="scale(0.00048828125,-0.00048828125)">
   <path d="M 174,0 L 602,739 174,1481 1456,739 174,0 Z M 1358,739 L 309,1346 659,739 1358,739 Z"/>
  </g>
  <g id="bullet-char-template(10132)" transform="scale(0.00048828125,-0.00048828125)">
   <path d="M 2015,739 L 1276,0 717,0 1260,543 174,543 174,936 1260,936 717,1481 1274,1481 2015,739 Z"/>
  </g>
  <g id="bullet-char-template(10007)" transform="scale(0.00048828125,-0.00048828125)">
   <path d="M 0,-2 C -7,14 -16,27 -25,37 L 356,567 C 262,823 215,952 215,954 215,979 228,992 255,992 264,992 276,990 289,987 310,991 331,999 354,1012 L 381,999 492,748 772,1049 836,1024 860,1049 C 881,1039 901,1025 922,1006 886,937 835,863 770,784 769,783 710,716 594,584 L 774,223 C 774,196 753,168 711,139 L 727,119 C 717,90 699,76 672,76 641,76 570,178 457,381 L 164,-76 C 142,-110 111,-127 72,-127 30,-127 9,-110 8,-76 1,-67 -2,-52 -2,-32 -2,-23 -1,-13 0,-2 Z"/>
  </g>
  <g id="bullet-char-template(10004)" transform="scale(0.00048828125,-0.00048828125)">
   <path d="M 285,-33 C 182,-33 111,30 74,156 52,228 41,333 41,471 41,549 55,616 82,672 116,743 169,778 240,778 293,778 328,747 346,684 L 369,508 C 377,444 397,411 428,410 L 1163,1116 C 1174,1127 1196,1133 1229,1133 1271,1133 1292,1118 1292,1087 L 1292,965 C 1292,929 1282,901 1262,881 L 442,47 C 390,-6 338,-33 285,-33 Z"/>
  </g>
  <g id="bullet-char-template(9679)" transform="scale(0.00048828125,-0.00048828125)">
   <path d="M 813,0 C 632,0 489,54 383,161 276,268 223,411 223,592 223,773 276,916 383,1023 489,1130 632,1184 813,1184 992,1184 1136,1130 1245,1023 1353,916 1407,772 1407,592 1407,412 1353,268 1245,161 1136,54 992,0 813,0 Z"/>
  </g>
  <g id="bullet-char-template(8226)" transform="scale(0.00048828125,-0.00048828125)">
   <path d="M 346,457 C 273,457 209,483 155,535 101,586 74,649 74,723 74,796 101,859 155,911 209,963 273,989 346,989 419,989 480,963 531,910 582,859 608,796 608,723 608,648 583,586 532,535 482,483 420,457 346,457 Z"/>
  </g>
  <g id="bullet-char-template(8211)" transform="scale(0.00048828125,-0.00048828125)">
   <path d="M -4,459 L 1135,459 1135,606 -4,606 -4,459 Z"/>
  </g>
 </defs>
 <defs class="TextEmbeddedBitmaps"/>
 <g>
  <g id="id2" class="Master_Slide">
   <g id="bg-id2" class="Background"/>
   <g id="bo-id2" class="BackgroundObjects"/>
  </g>
 </g>
 <g class="SlideGroup">
  <g>
   <g id="id1" class="Slide" clip-path="url(#presentation_clip_path)">
    <g class="Page">
     <g class="com.sun.star.drawing.CustomShape">
      <g id="id3">
       <path fill="none" stroke="rgb(0,0,0)" d="M 3381,13694 L 7192,13694 7192,14965 3381,14965 3381,13694 3381,13694 Z"/>
       <path fill="none" stroke="rgb(0,0,0)" d="M 3381,13694 L 3381,13694 Z"/>
       <path fill="none" stroke="rgb(0,0,0)" d="M 7192,14965 L 7192,14965 Z"/>
       <text class="TextShape"><tspan class="TextParagraph" font-family="Arial, sans-serif" font-size="494px" font-weight="400"><tspan class="TextPosition" x="5149" y="14501"><tspan fill="rgb(0,0,0)" stroke="none">0</tspan></tspan></tspan></text>
      </g>
     </g>
     <g class="com.sun.star.drawing.CustomShape">
      <g id="id4">
       <path fill="none" stroke="rgb(0,0,0)" d="M 3381,12424 L 7192,12424 7192,13695 3381,13695 3381,12424 3381,12424 Z"/>
       <path fill="none" stroke="rgb(0,0,0)" d="M 3381,12424 L 3381,12424 Z"/>
       <path fill="none" stroke="rgb(0,0,0)" d="M 7192,13695 L 7192,13695 Z"/>
       <text class="TextShape"><tspan class="TextParagraph" font-family="Arial, sans-serif" font-size="494px" font-weight="400"><tspan class="TextPosition" x="5149" y="13231"><tspan fill="rgb(0,0,0)" stroke="none">1</tspan></tspan></tspan></text>
      </g>
     </g>
     <g class="com.sun.star.drawing.CustomShape">
      <g id="id5">
       <path fill="none" stroke="rgb(0,0,0)" d="M 3381,11154 L 7192,11154 7192,12425 3381,12425 3381,11154 3381,11154 Z"/>
       <path fill="none" stroke="rgb(0,0,0)" d="M 3381,11154 L 3381,11154 Z"/>
       <path fill="none" stroke="rgb(0,0,0)" d="M 7192,12425 L 7192,12425 Z"/>
       <text class="TextShape"><tspan class="TextParagraph" font-family="Arial, sans-serif" font-size="494px" font-weight="400"><tspan class="TextPosition" x="5149" y="11961"><tspan fill="rgb(0,0,0)" stroke="none">2</tspan></tspan></tspan></text>
      </g>
     </g>
     <g class="com.sun.star.drawing.CustomShape">
      <g id="id6">
       <path fill="none" stroke="rgb(0,0,0)" d="M 3381,4804 L 7192,4804 7192,11155 3381,11155 3381,4804 3381,4804 Z"/>
       <path fill="none" stroke="rgb(0,0,0)" d="M 3381,4804 L 3381,4804 Z"/>
       <path fill="none" stroke="rgb(0,0,0)" d="M 7192,11155 L 7192,11155 Z"/>
       <text class="TextShape"><tspan class="TextParagraph" font-family="Arial, sans-serif" font-size="494px" font-weight="400"><tspan class="TextPosition" x="5081" y="8151"><tspan fill="rgb(0,0,0)" stroke="none">...</tspan></tspan></tspan></text>
      </g>
     </g>
     <g class="com.sun.star.drawing.CustomShape">
      <g id="id7">
       <path fill="none" stroke="rgb(0,0,0)" d="M 3381,2264 L 7192,2264 7192,3535 3381,3535 3381,2264 3381,2264 Z"/>
       <path fill="none" stroke="rgb(0,0,0)" d="M 3381,2264 L 3381,2264 Z"/>
       <path fill="none" stroke="rgb(0,0,0)" d="M 7192,3535 L 7192,3535 Z"/>
       <text class="TextShape"><tspan class="TextParagraph" font-family="Arial, sans-serif" font-size="494px" font-weight="400"><tspan class="TextPosition" x="4873" y="3071"><tspan fill="rgb(0,0,0)" stroke="none">254</tspan></tspan></tspan></text>
      </g>
     </g>
     <g class="com.sun.star.drawing.CustomShape">
      <g id="id8">
       <path fill="none" stroke="rgb(0,0,0)" d="M 3381,994 L 7192,994 7192,2265 3381,2265 3381,994 3381,994 Z"/>
       <path fill="none" stroke="rgb(0,0,0)" d="M 3381,994 L 3381,994 Z"/>
       <path fill="none" stroke="rgb(0,0,0)" d="M 7192,2265 L 7192,2265 Z"/>
       <text class="TextShape"><tspan class="TextParagraph" font-family="Arial, sans-serif" font-size="494px" font-weight="400"><tspan class="TextPosition" x="4873" y="1801"><tspan fill="rgb(0,0,0)" stroke="none">255</tspan></tspan></tspan></text>
      </g>
     </g>
     <g class="com.sun.star.drawing.CustomShape">
      <g id="id9">
       <path fill="none" stroke="rgb(0,0,0)" d="M 3381,3534 L 7192,3534 7192,4805 3381,4805 3381,3534 3381,3534 Z"/>
       <path fill="none" stroke="rgb(0,0,0)" d="M 3381,3534 L 3381,3534 Z"/>
       <path fill="none" stroke="rgb(0,0,0)" d="M 7192,4805 L 7192,4805 Z"/>
       <text class="TextShape"><tspan class="TextParagraph" font-family="Arial, sans-serif" font-size="494px" font-weight="400"><tspan class="TextPosition" x="4873" y="4341"><tspan fill="rgb(0,0,0)" stroke="none">253</tspan></tspan></tspan></text>
      </g>
     </g>
     <g class="com.sun.star.drawing.CustomShape">
      <g id="id10">
       <path fill="none" stroke="rgb(0,0,0)" d="M 10366,13694 L 14177,13694 14177,14965 10366,14965 10366,13694 10366,13694 Z"/>
       <path fill="none" stroke="rgb(0,0,0)" d="M 10366,13694 L 10366,13694 Z"/>
       <path fill="none" stroke="rgb(0,0,0)" d="M 14177,14965 L 14177,14965 Z"/>
       <text class="TextShape"><tspan class="TextParagraph" font-family="Arial, sans-serif" font-size="494px" font-weight="400"><tspan class="TextPosition" x="11776" y="14501"><tspan fill="rgb(0,0,0)" stroke="none">-128</tspan></tspan></tspan></text>
      </g>
     </g>
     <g class="com.sun.star.drawing.CustomShape">
      <g id="id11">
       <path fill="none" stroke="rgb(0,0,0)" d="M 10366,12424 L 14177,12424 14177,13695 10366,13695 10366,12424 10366,12424 Z"/>
       <path fill="none" stroke="rgb(0,0,0)" d="M 10366,12424 L 10366,12424 Z"/>
       <path fill="none" stroke="rgb(0,0,0)" d="M 14177,13695 L 14177,13695 Z"/>
       <text class="TextShape"><tspan class="TextParagraph" font-family="Arial, sans-serif" font-size="494px" font-weight="400"><tspan class="TextPosition" x="11776" y="13231"><tspan fill="rgb(0,0,0)" stroke="none">-127</tspan></tspan></tspan></text>
      </g>
     </g>
     <g class="com.sun.star.drawing.CustomShape">
      <g id="id12">
       <path fill="none" stroke="rgb(0,0,0)" d="M 10366,11154 L 14177,11154 14177,12425 10366,12425 10366,11154 10366,11154 Z"/>
       <path fill="none" stroke="rgb(0,0,0)" d="M 10366,11154 L 10366,11154 Z"/>
       <path fill="none" stroke="rgb(0,0,0)" d="M 14177,12425 L 14177,12425 Z"/>
       <text class="TextShape"><tspan class="TextParagraph" font-family="Arial, sans-serif" font-size="494px" font-weight="400"><tspan class="TextPosition" x="11776" y="11961"><tspan fill="rgb(0,0,0)" stroke="none">-126</tspan></tspan></tspan></text>
      </g>
     </g>
     <g class="com.sun.star.drawing.CustomShape">
      <g id="id13">
       <path fill="none" stroke="rgb(0,0,0)" d="M 10366,4804 L 14177,4804 14177,6075 10366,6075 10366,4804 10366,4804 Z"/>
       <path fill="none" stroke="rgb(0,0,0)" d="M 10366,4804 L 10366,4804 Z"/>
       <path fill="none" stroke="rgb(0,0,0)" d="M 14177,6075 L 14177,6075 Z"/>
       <text class="TextShape"><tspan class="TextParagraph" font-family="Arial, sans-serif" font-size="494px" font-weight="400"><tspan class="TextPosition" x="12066" y="5611"><tspan fill="rgb(0,0,0)" stroke="none">...</tspan></tspan></tspan></text>
      </g>
     </g>
     <g class="com.sun.star.drawing.CustomShape">
      <g id="id14">
       <path fill="none" stroke="rgb(0,0,0)" d="M 10366,2264 L 14177,2264 14177,3535 10366,3535 10366,2264 10366,2264 Z"/>
       <path fill="none" stroke="rgb(0,0,0)" d="M 10366,2264 L 10366,2264 Z"/>
       <path fill="none" stroke="rgb(0,0,0)" d="M 14177,3535 L 14177,3535 Z"/>
       <text class="TextShape"><tspan class="TextParagraph" font-family="Arial, sans-serif" font-size="494px" font-weight="400"><tspan class="TextPosition" x="11858" y="3071"><tspan fill="rgb(0,0,0)" stroke="none">126</tspan></tspan></tspan></text>
      </g>
     </g>
     <g class="com.sun.star.drawing.CustomShape">
      <g id="id15">
       <path fill="none" stroke="rgb(0,0,0)" d="M 10366,994 L 14177,994 14177,2265 10366,2265 10366,994 10366,994 Z"/>
       <path fill="none" stroke="rgb(0,0,0)" d="M 10366,994 L 10366,994 Z"/>
       <path fill="none" stroke="rgb(0,0,0)" d="M 14177,2265 L 14177,2265 Z"/>
       <text class="TextShape"><tspan class="TextParagraph" font-family="Arial, sans-serif" font-size="494px" font-weight="400"><tspan class="TextPosition" x="11858" y="1801"><tspan fill="rgb(0,0,0)" stroke="none">127</tspan></tspan></tspan></text>
      </g>
     </g>
     <g class="com.sun.star.drawing.CustomShape">
      <g id="id16">
       <path fill="none" stroke="rgb(0,0,0)" d="M 10366,3534 L 14177,3534 14177,4805 10366,4805 10366,3534 10366,3534 Z"/>
       <path fill="none" stroke="rgb(0,0,0)" d="M 10366,3534 L 10366,3534 Z"/>
       <path fill="none" stroke="rgb(0,0,0)" d="M 14177,4805 L 14177,4805 Z"/>
       <text class="TextShape"><tspan class="TextParagraph" font-family="Arial, sans-serif" font-size="494px" font-weight="400"><tspan class="TextPosition" x="11858" y="4341"><tspan fill="rgb(0,0,0)" stroke="none">125</tspan></tspan></tspan></text>
      </g>
     </g>
     <g class="com.sun.star.drawing.CustomShape">
      <g id="id17">
       <path fill="none" stroke="rgb(0,0,0)" d="M 10366,8614 L 14177,8614 14177,9885 10366,9885 10366,8614 10366,8614 Z"/>
       <path fill="none" stroke="rgb(0,0,0)" d="M 10366,8614 L 10366,8614 Z"/>
       <path fill="none" stroke="rgb(0,0,0)" d="M 14177,9885 L 14177,9885 Z"/>
       <text class="TextShape"><tspan class="TextParagraph" font-family="Arial, sans-serif" font-size="494px" font-weight="400"><tspan class="TextPosition" x="12051" y="9421"><tspan fill="rgb(0,0,0)" stroke="none">-1</tspan></tspan></tspan></text>
      </g>
     </g>
     <g class="com.sun.star.drawing.CustomShape">
      <g id="id18">
       <path fill="none" stroke="rgb(0,0,0)" d="M 10366,7344 L 14177,7344 14177,8615 10366,8615 10366,7344 10366,7344 Z"/>
       <path fill="none" stroke="rgb(0,0,0)" d="M 10366,7344 L 10366,7344 Z"/>
       <path fill="none" stroke="rgb(0,0,0)" d="M 14177,8615 L 14177,8615 Z"/>
       <text class="TextShape"><tspan class="TextParagraph" font-family="Arial, sans-serif" font-size="494px" font-weight="400"><tspan class="TextPosition" x="12134" y="8151"><tspan fill="rgb(0,0,0)" stroke="none">0</tspan></tspan></tspan></text>
      </g>
     </g>
     <g class="com.sun.star.drawing.CustomShape">
      <g id="id19">
       <path fill="none" stroke="rgb(0,0,0)" d="M 10366,6074 L 14177,6074 14177,7345 10366,7345 10366,6074 10366,6074 Z"/>
       <path fill="none" stroke="rgb(0,0,0)" d="M 10366,6074 L 10366,6074 Z"/>
       <path fill="none" stroke="rgb(0,0,0)" d="M 14177,7345 L 14177,7345 Z"/>
       <text class="TextShape"><tspan class="TextParagraph" font-family="Arial, sans-serif" font-size="494px" font-weight="400"><tspan class="TextPosition" x="12134" y="6881"><tspan fill="rgb(0,0,0)" stroke="none">1</tspan></tspan></tspan></text>
      </g>
     </g>
     <g class="com.sun.star.drawing.CustomShape">
      <g id="id20">
       <path fill="none" stroke="rgb(0,0,0)" d="M 10366,9884 L 14177,9884 14177,11155 10366,11155 10366,9884 10366,9884 Z"/>
       <path fill="none" stroke="rgb(0,0,0)" d="M 10366,9884 L 10366,9884 Z"/>
       <path fill="none" stroke="rgb(0,0,0)" d="M 14177,11155 L 14177,11155 Z"/>
       <text class="TextShape"><tspan class="TextParagraph" font-family="Arial, sans-serif" font-size="494px" font-weight="400"><tspan class="TextPosition" x="12066" y="10691"><tspan fill="rgb(0,0,0)" stroke="none">...</tspan></tspan></tspan></text>
      </g>
     </g>
     <g class="com.sun.star.drawing.ConnectorShape">
      <g id="id21">
       <path fill="none" stroke="rgb(0,0,0)" d="M 5163,579 C 4387,-552 206,-151 206,7979 206,16109 4457,16529 5182,15350"/>
       <path fill="rgb(0,0,0)" stroke="none" d="M 5286,994 L 5295,520 5009,609 5286,994 Z"/>
       <path fill="rgb(0,0,0)" stroke="none" d="M 5286,14964 L 5018,15356 5307,15438 5286,14964 Z"/>
      </g>
     </g>
     <g class="com.sun.star.drawing.ConnectorShape">
      <g id="id22">
       <path fill="none" stroke="rgb(0,0,0)" d="M 12381,576 C 13066,-549 16716,-151 16716,7979 16716,16109 13009,16525 12366,15356"/>
       <path fill="rgb(0,0,0)" stroke="none" d="M 12271,994 L 12535,600 12246,520 12271,994 Z"/>
       <path fill="rgb(0,0,0)" stroke="none" d="M 12271,14964 L 12237,15437 12527,15363 12271,14964 Z"/>
      </g>
     </g>
    </g>
   </g>
  </g>
 </g>
</svg>