<?xml version="1.0" encoding="UTF-8"?>
<!DOCTYPE svg PUBLIC "-//W3C//DTD SVG 1.1//EN" "http://www.w3.org/Graphics/SVG/1.1/DTD/svg11.dtd">
<svg version="1.2" width="63.5mm" height="63.5mm" viewBox="0 0 6350 6350" preserveAspectRatio="xMidYMid" fill-rule="evenodd" clip-path="url(#presentation_clip_path)" stroke-width="28.222" stroke-linejoin="round" xmlns="http://www.w3.org/2000/svg" xmlns:ooo="http://xml.openoffice.org/svg/export" xmlns:xlink="http://www.w3.org/1999/xlink" xml:space="preserve">
 <defs class="ClipPathGroup">
  <clipPath id="presentation_clip_path" clipPathUnits="userSpaceOnUse">
   <rect x="0" y="0" width="6350" height="6350"/>
  </clipPath>
 </defs>
 <defs class="TextShapeIndex">
  <g ooo:slide="id1" ooo:id-list="id3 id4 id5 id6 id7"/>
 </defs>
 <defs class="EmbeddedBulletChars">
  <g id="bullet-char-template(57356)" transform="scale(0.00048828125,-0.00048828125)">
   <path d="M 580,1141 L 1163,571 580,0 -4,571 580,1141 Z"/>
  </g>
  <g id="bullet-char-template(57354)" transform="scale(0.00048828125,-0.00048828125)">
   <path d="M 8,1128 L 1137,1128 1137,0 8,0 8,1128 Z"/>
  </g>
  <g id="bullet-char-template(10146)" transform="scale(0.00048828125,-0.00048828125)">
   <path d="M 174,0 L 602,739 174,1481 1456,739 174,0 Z M 1358,739 L 309,1346 659,739 1358,739 Z"/>
  </g>
  <g id="bullet-char-template(10132)" transform="scale(0.00048828125,-0.00048828125)">
   <path d="M 2015,739 L 1276,0 717,0 1260,543 174,543 174,936 1260,936 717,1481 1274,1481 2015,739 Z"/>
  </g>
  <g id="bullet-char-template(10007)" transform="scale(0.00048828125,-0.00048828125)">
   <path d="M 0,-2 C -7,14 -16,27 -25,37 L 356,567 C 262,823 215,952 215,954 215,979 228,992 255,992 264,992 276,990 289,987 310,991 331,999 354,1012 L 381,999 492,748 772,1049 836,1024 860,1049 C 881,1039 901,1025 922,1006 886,937 835,863 770,784 769,783 710,716 594,584 L 774,223 C 774,196 753,168 711,139 L 727,119 C 717,90 699,76 672,76 641,76 570,178 457,381 L 164,-76 C 142,-110 111,-127 72,-127 30,-127 9,-110 8,-76 1,-67 -2,-52 -2,-32 -2,-23 -1,-13 0,-2 Z"/>
  </g>
  <g id="bullet-char-template(10004)" transform="scale(0.00048828125,-0.00048828125)">
   <path d="M 285,-33 C 182,-33 111,30 74,156 52,228 41,333 41,471 41,549 55,616 82,672 116,743 169,778 240,778 293,778 328,747 346,684 L 369,508 C 377,444 397,411 428,410 L 1163,1116 C 1174,1127 1196,1133 1229,1133 1271,1133 1292,1118 1292,1087 L 1292,965 C 1292,929 1282,901 1262,881 L 442,47 C 390,-6 338,-33 285,-33 Z"/>
  </g>
  <g id="bullet-char-template(9679)" transform="scale(0.00048828125,-0.00048828125)">
   <path d="M 813,0 C 632,0 489,54 383,161 276,268 223,411 223,592 223,773 276,916 383,1023 489,1130 632,1184 813,1184 992,1184 1136,1130 1245,1023 1353,916 1407,772 1407,592 1407,412 1353,268 1245,161 1136,54 992,0 813,0 Z"/>
  </g>
  <g id="bullet-char-template(8226)" transform="scale(0.00048828125,-0.00048828125)">
   <path d="M 346,457 C 273,457 209,483 155,535 101,586 74,649 74,723 74,796 101,859 155,911 209,963 273,989 346,989 419,989 480,963 531,910 582,859 608,796 608,723 608,648 583,586 532,535 482,483 420,457 346,457 Z"/>
  </g>
  <g id="bullet-char-template(8211)" transform="scale(0.00048828125,-0.00048828125)">
   <path d="M -4,459 L 1135,459 1135,606 -4,606 -4,459 Z"/>
  </g>
 </defs>
 <defs class="TextEmbeddedBitmaps"/>
 <g>
  <g id="id2" class="Master_Slide">
   <g id="bg-id2" class="Background"/>
   <g id="bo-id2" class="BackgroundObjects"/>
  </g>
 </g>
 <g class="SlideGroup">
  <g>
   <g id="id1" class="Slide" clip-path="url(#presentation_clip_path)">
    <g class="Page">
     <g class="com.sun.star.drawing.CustomShape">
      <g id="id3">
       <path fill="none" stroke="rgb(0,0,0)" d="M 3173,1586 C 4073,1586 4761,2273 4761,3173 4761,4073 4073,4761 3173,4761 2273,4761 1586,4073 1586,3173 1586,2273 2273,1586 3173,1586 Z"/>
       <path fill="none" stroke="rgb(0,0,0)" d="M 1586,1586 L 1586,1586 Z"/>
       <path fill="none" stroke="rgb(0,0,0)" d="M 4762,4762 L 4762,4762 Z"/>
       <text class="TextShape"><tspan class="TextParagraph" font-family="Arial, sans-serif" font-size="2540px" font-weight="400"><tspan class="TextPosition" x="2327" y="4054"><tspan fill="rgb(0,0,0)" stroke="none">S</tspan></tspan></tspan></text>
      </g>
     </g>
     <g class="com.sun.star.drawing.CustomShape">
      <g id="id4">
       <path fill="rgb(0,0,0)" stroke="none" d="M 3808,5396 C 3988,5396 4126,5533 4126,5713 4126,5893 3988,6031 3808,6031 3628,6031 3491,5893 3491,5713 3491,5533 3628,5396 3808,5396 Z M 3491,5396 L 3491,5396 Z M 4127,6032 L 4127,6032 Z"/>
       <path fill="none" stroke="rgb(0,0,0)" d="M 3808,5396 C 3988,5396 4126,5533 4126,5713 4126,5893 3988,6031 3808,6031 3628,6031 3491,5893 3491,5713 3491,5533 3628,5396 3808,5396 Z"/>
       <path fill="none" stroke="rgb(0,0,0)" d="M 3491,5396 L 3491,5396 Z"/>
       <path fill="none" stroke="rgb(0,0,0)" d="M 4127,6032 L 4127,6032 Z"/>
      </g>
     </g>
     <g class="com.sun.star.drawing.CustomShape">
      <g id="id5">
       <path fill="rgb(0,0,0)" stroke="none" d="M 5713,2221 C 5893,2221 6031,2358 6031,2538 6031,2718 5893,2856 5713,2856 5533,2856 5396,2718 5396,2538 5396,2358 5533,2221 5713,2221 Z M 5396,2221 L 5396,2221 Z M 6032,2857 L 6032,2857 Z"/>
       <path fill="none" stroke="rgb(0,0,0)" d="M 5713,2221 C 5893,2221 6031,2358 6031,2538 6031,2718 5893,2856 5713,2856 5533,2856 5396,2718 5396,2538 5396,2358 5533,2221 5713,2221 Z"/>
       <path fill="none" stroke="rgb(0,0,0)" d="M 5396,2221 L 5396,2221 Z"/>
       <path fill="none" stroke="rgb(0,0,0)" d="M 6032,2857 L 6032,2857 Z"/>
      </g>
     </g>
     <g class="com.sun.star.drawing.CustomShape">
      <g id="id6">
       <path fill="rgb(0,0,0)" stroke="none" d="M 2538,316 C 2718,316 2856,453 2856,633 2856,813 2718,951 2538,951 2358,951 2221,813 2221,633 2221,453 2358,316 2538,316 Z M 2221,316 L 2221,316 Z M 2857,952 L 2857,952 Z"/>
       <path fill="none" stroke="rgb(0,0,0)" d="M 2538,316 C 2718,316 2856,453 2856,633 2856,813 2718,951 2538,951 2358,951 2221,813 2221,633 2221,453 2358,316 2538,316 Z"/>
       <path fill="none" stroke="rgb(0,0,0)" d="M 2221,316 L 2221,316 Z"/>
       <path fill="none" stroke="rgb(0,0,0)" d="M 2857,952 L 2857,952 Z"/>
      </g>
     </g>
     <g class="com.sun.star.drawing.CustomShape">
      <g id="id7">
       <path fill="rgb(0,0,0)" stroke="none" d="M 633,3491 C 813,3491 951,3628 951,3808 951,3988 813,4126 633,4126 453,4126 316,3988 316,3808 316,3628 453,3491 633,3491 Z M 316,3491 L 316,3491 Z M 952,4127 L 952,4127 Z"/>
       <path fill="none" stroke="rgb(0,0,0)" d="M 633,3491 C 813,3491 951,3628 951,3808 951,3988 813,4126 633,4126 453,4126 316,3988 316,3808 316,3628 453,3491 633,3491 Z"/>
       <path fill="none" stroke="rgb(0,0,0)" d="M 316,3491 L 316,3491 Z"/>
       <path fill="none" stroke="rgb(0,0,0)" d="M 952,4127 L 952,4127 Z"/>
      </g>
     </g>
    </g>
   </g>
  </g>
 </g>
</svg>