<?xml version="1.0" encoding="UTF-8"?>
<!DOCTYPE svg PUBLIC "-//W3C//DTD SVG 1.1//EN" "http://www.w3.org/Graphics/SVG/1.1/DTD/svg11.dtd">
<svg version="1.2" width="279.4mm" height="171.45mm" viewBox="0 0 27940 17145" preserveAspectRatio="xMidYMid" fill-rule="evenodd" clip-path="url(#presentation_clip_path)" stroke-width="28.222" stroke-linejoin="round" xmlns="http://www.w3.org/2000/svg" xmlns:ooo="http://xml.openoffice.org/svg/export" xmlns:xlink="http://www.w3.org/1999/xlink" xml:space="preserve">
 <defs class="ClipPathGroup">
  <clipPath id="presentation_clip_path" clipPathUnits="userSpaceOnUse">
   <rect x="0" y="0" width="27940" height="17145"/>
  </clipPath>
 </defs>
 <defs class="TextShapeIndex">
  <g ooo:slide="id1" ooo:id-list="id3 id4 id5 id6 id7 id8 id9 id10 id11 id12 id13 id14 id15 id16 id17 id18 id19 id20 id21 id22 id23 id24 id25 id26 id27 id28 id29 id30 id31 id32 id33 id34 id35 id36 id37 id38 id39 id40 id41 id42 id43 id44 id45 id46 id47 id48 id49 id50 id51 id52 id53 id54 id55 id56 id57 id58 id59 id60 id61 id62 id63 id64 id65 id66"/>
 </defs>
 <defs class="EmbeddedBulletChars">
  <g id="bullet-char-template(57356)" transform="scale(0.00048828125,-0.00048828125)">
   <path d="M 580,1141 L 1163,571 580,0 -4,571 580,1141 Z"/>
  </g>
  <g id="bullet-char-template(57354)" transform="scale(0.00048828125,-0.00048828125)">
   <path d="M 8,1128 L 1137,1128 1137,0 8,0 8,1128 Z"/>
  </g>
  <g id="bullet-char-template(10146)" transform="scale(0.00048828125,-0.00048828125)">
   <path d="M 174,0 L 602,739 174,1481 1456,739 174,0 Z M 1358,739 L 309,1346 659,739 1358,739 Z"/>
  </g>
  <g id="bullet-char-template(10132)" transform="scale(0.00048828125,-0.00048828125)">
   <path d="M 2015,739 L 1276,0 717,0 1260,543 174,543 174,936 1260,936 717,1481 1274,1481 2015,739 Z"/>
  </g>
  <g id="bullet-char-template(10007)" transform="scale(0.00048828125,-0.00048828125)">
   <path d="M 0,-2 C -7,14 -16,27 -25,37 L 356,567 C 262,823 215,952 215,954 215,979 228,992 255,992 264,992 276,990 289,987 310,991 331,999 354,1012 L 381,999 492,748 772,1049 836,1024 860,1049 C 881,1039 901,1025 922,1006 886,937 835,863 770,784 769,783 710,716 594,584 L 774,223 C 774,196 753,168 711,139 L 727,119 C 717,90 699,76 672,76 641,76 570,178 457,381 L 164,-76 C 142,-110 111,-127 72,-127 30,-127 9,-110 8,-76 1,-67 -2,-52 -2,-32 -2,-23 -1,-13 0,-2 Z"/>
  </g>
  <g id="bullet-char-template(10004)" transform="scale(0.00048828125,-0.00048828125)">
   <path d="M 285,-33 C 182,-33 111,30 74,156 52,228 41,333 41,471 41,549 55,616 82,672 116,743 169,778 240,778 293,778 328,747 346,684 L 369,508 C 377,444 397,411 428,410 L 1163,1116 C 1174,1127 1196,1133 1229,1133 1271,1133 1292,1118 1292,1087 L 1292,965 C 1292,929 1282,901 1262,881 L 442,47 C 390,-6 338,-33 285,-33 Z"/>
  </g>
  <g id="bullet-char-template(9679)" transform="scale(0.00048828125,-0.00048828125)">
   <path d="M 813,0 C 632,0 489,54 383,161 276,268 223,411 223,592 223,773 276,916 383,1023 489,1130 632,1184 813,1184 992,1184 1136,1130 1245,1023 1353,916 1407,772 1407,592 1407,412 1353,268 1245,161 1136,54 992,0 813,0 Z"/>
  </g>
  <g id="bullet-char-template(8226)" transform="scale(0.00048828125,-0.00048828125)">
   <path d="M 346,457 C 273,457 209,483 155,535 101,586 74,649 74,723 74,796 101,859 155,911 209,963 273,989 346,989 419,989 480,963 531,910 582,859 608,796 608,723 608,648 583,586 532,535 482,483 420,457 346,457 Z"/>
  </g>
  <g id="bullet-char-template(8211)" transform="scale(0.00048828125,-0.00048828125)">
   <path d="M -4,459 L 1135,459 1135,606 -4,606 -4,459 Z"/>
  </g>
 </defs>
 <defs class="TextEmbeddedBitmaps"/>
 <g>
  <g id="id2" class="Master_Slide">
   <g id="bg-id2" class="Background"/>
   <g id="bo-id2" class="BackgroundObjects"/>
  </g>
 </g>
 <g class="SlideGroup">
  <g>
   <g id="id1" class="Slide" clip-path="url(#presentation_clip_path)">
    <g class="Page">
     <g class="com.sun.star.drawing.CustomShape">
      <g id="id3">
       <path fill="none" stroke="rgb(0,0,0)" d="M 5795,1952 C 6695,1952 7383,2639 7383,3539 7383,4439 6695,5127 5795,5127 4895,5127 4208,4439 4208,3539 4208,2639 4895,1952 5795,1952 Z"/>
       <path fill="none" stroke="rgb(0,0,0)" d="M 4208,1952 L 4208,1952 Z"/>
       <path fill="none" stroke="rgb(0,0,0)" d="M 7384,5128 L 7384,5128 Z"/>
       <text class="TextShape"><tspan class="TextParagraph" font-family="Arial, sans-serif" font-size="2540px" font-weight="400"><tspan class="TextPosition" x="4949" y="4420"><tspan fill="rgb(0,0,0)" stroke="none">S</tspan></tspan></tspan></text>
      </g>
     </g>
     <g class="com.sun.star.drawing.CustomShape">
      <g id="id4">
       <path fill="rgb(0,0,0)" stroke="none" d="M 6430,5762 C 6610,5762 6748,5899 6748,6079 6748,6259 6610,6397 6430,6397 6250,6397 6113,6259 6113,6079 6113,5899 6250,5762 6430,5762 Z M 6113,5762 L 6113,5762 Z M 6749,6398 L 6749,6398 Z"/>
       <path fill="none" stroke="rgb(0,0,0)" d="M 6430,5762 C 6610,5762 6748,5899 6748,6079 6748,6259 6610,6397 6430,6397 6250,6397 6113,6259 6113,6079 6113,5899 6250,5762 6430,5762 Z"/>
       <path fill="none" stroke="rgb(0,0,0)" d="M 6113,5762 L 6113,5762 Z"/>
       <path fill="none" stroke="rgb(0,0,0)" d="M 6749,6398 L 6749,6398 Z"/>
      </g>
     </g>
     <g class="com.sun.star.drawing.CustomShape">
      <g id="id5">
       <path fill="rgb(0,0,0)" stroke="none" d="M 8335,2587 C 8515,2587 8653,2724 8653,2904 8653,3084 8515,3222 8335,3222 8155,3222 8018,3084 8018,2904 8018,2724 8155,2587 8335,2587 Z M 8018,2587 L 8018,2587 Z M 8654,3223 L 8654,3223 Z"/>
       <path fill="none" stroke="rgb(0,0,0)" d="M 8335,2587 C 8515,2587 8653,2724 8653,2904 8653,3084 8515,3222 8335,3222 8155,3222 8018,3084 8018,2904 8018,2724 8155,2587 8335,2587 Z"/>
       <path fill="none" stroke="rgb(0,0,0)" d="M 8018,2587 L 8018,2587 Z"/>
       <path fill="none" stroke="rgb(0,0,0)" d="M 8654,3223 L 8654,3223 Z"/>
      </g>
     </g>
     <g class="com.sun.star.drawing.CustomShape">
      <g id="id6">
       <path fill="rgb(0,0,0)" stroke="none" d="M 5160,682 C 5340,682 5478,819 5478,999 5478,1179 5340,1317 5160,1317 4980,1317 4843,1179 4843,999 4843,819 4980,682 5160,682 Z M 4843,682 L 4843,682 Z M 5479,1318 L 5479,1318 Z"/>
       <path fill="none" stroke="rgb(0,0,0)" d="M 5160,682 C 5340,682 5478,819 5478,999 5478,1179 5340,1317 5160,1317 4980,1317 4843,1179 4843,999 4843,819 4980,682 5160,682 Z"/>
       <path fill="none" stroke="rgb(0,0,0)" d="M 4843,682 L 4843,682 Z"/>
       <path fill="none" stroke="rgb(0,0,0)" d="M 5479,1318 L 5479,1318 Z"/>
      </g>
     </g>
     <g class="com.sun.star.drawing.CustomShape">
      <g id="id7">
       <path fill="rgb(0,0,0)" stroke="none" d="M 3255,3857 C 3435,3857 3573,3994 3573,4174 3573,4354 3435,4492 3255,4492 3075,4492 2938,4354 2938,4174 2938,3994 3075,3857 3255,3857 Z M 2938,3857 L 2938,3857 Z M 3574,4493 L 3574,4493 Z"/>
       <path fill="none" stroke="rgb(0,0,0)" d="M 3255,3857 C 3435,3857 3573,3994 3573,4174 3573,4354 3435,4492 3255,4492 3075,4492 2938,4354 2938,4174 2938,3994 3075,3857 3255,3857 Z"/>
       <path fill="none" stroke="rgb(0,0,0)" d="M 2938,3857 L 2938,3857 Z"/>
       <path fill="none" stroke="rgb(0,0,0)" d="M 3574,4493 L 3574,4493 Z"/>
      </g>
     </g>
     <g class="com.sun.star.drawing.CustomShape">
      <g id="id8">
       <path fill="none" stroke="rgb(0,0,0)" d="M 10875,1952 C 11775,1952 12463,2639 12463,3539 12463,4439 11775,5127 10875,5127 9975,5127 9288,4439 9288,3539 9288,2639 9975,1952 10875,1952 Z"/>
       <path fill="none" stroke="rgb(0,0,0)" d="M 9288,1952 L 9288,1952 Z"/>
       <path fill="none" stroke="rgb(0,0,0)" d="M 12464,5128 L 12464,5128 Z"/>
       <text class="TextShape"><tspan class="TextParagraph" font-family="Arial, sans-serif" font-size="2540px" font-weight="400"><tspan class="TextPosition" x="10029" y="4420"><tspan fill="rgb(0,0,0)" stroke="none">S</tspan></tspan></tspan></text>
      </g>
     </g>
     <g class="com.sun.star.drawing.CustomShape">
      <g id="id9">
       <path fill="rgb(0,0,0)" stroke="none" d="M 11510,5762 C 11690,5762 11828,5899 11828,6079 11828,6259 11690,6397 11510,6397 11330,6397 11193,6259 11193,6079 11193,5899 11330,5762 11510,5762 Z M 11193,5762 L 11193,5762 Z M 11829,6398 L 11829,6398 Z"/>
       <path fill="none" stroke="rgb(0,0,0)" d="M 11510,5762 C 11690,5762 11828,5899 11828,6079 11828,6259 11690,6397 11510,6397 11330,6397 11193,6259 11193,6079 11193,5899 11330,5762 11510,5762 Z"/>
       <path fill="none" stroke="rgb(0,0,0)" d="M 11193,5762 L 11193,5762 Z"/>
       <path fill="none" stroke="rgb(0,0,0)" d="M 11829,6398 L 11829,6398 Z"/>
      </g>
     </g>
     <g class="com.sun.star.drawing.CustomShape">
      <g id="id10">
       <path fill="rgb(0,0,0)" stroke="none" d="M 13415,2587 C 13595,2587 13733,2724 13733,2904 13733,3084 13595,3222 13415,3222 13235,3222 13098,3084 13098,2904 13098,2724 13235,2587 13415,2587 Z M 13098,2587 L 13098,2587 Z M 13734,3223 L 13734,3223 Z"/>
       <path fill="none" stroke="rgb(0,0,0)" d="M 13415,2587 C 13595,2587 13733,2724 13733,2904 13733,3084 13595,3222 13415,3222 13235,3222 13098,3084 13098,2904 13098,2724 13235,2587 13415,2587 Z"/>
       <path fill="none" stroke="rgb(0,0,0)" d="M 13098,2587 L 13098,2587 Z"/>
       <path fill="none" stroke="rgb(0,0,0)" d="M 13734,3223 L 13734,3223 Z"/>
      </g>
     </g>
     <g class="com.sun.star.drawing.CustomShape">
      <g id="id11">
       <path fill="rgb(0,0,0)" stroke="none" d="M 10240,682 C 10420,682 10558,819 10558,999 10558,1179 10420,1317 10240,1317 10060,1317 9923,1179 9923,999 9923,819 10060,682 10240,682 Z M 9923,682 L 9923,682 Z M 10559,1318 L 10559,1318 Z"/>
       <path fill="none" stroke="rgb(0,0,0)" d="M 10240,682 C 10420,682 10558,819 10558,999 10558,1179 10420,1317 10240,1317 10060,1317 9923,1179 9923,999 9923,819 10060,682 10240,682 Z"/>
       <path fill="none" stroke="rgb(0,0,0)" d="M 9923,682 L 9923,682 Z"/>
       <path fill="none" stroke="rgb(0,0,0)" d="M 10559,1318 L 10559,1318 Z"/>
      </g>
     </g>
     <g class="com.sun.star.drawing.CustomShape">
      <g id="id12">
       <path fill="rgb(0,0,0)" stroke="none" d="M 8335,3857 C 8515,3857 8653,3994 8653,4174 8653,4354 8515,4492 8335,4492 8155,4492 8018,4354 8018,4174 8018,3994 8155,3857 8335,3857 Z M 8018,3857 L 8018,3857 Z M 8654,4493 L 8654,4493 Z"/>
       <path fill="none" stroke="rgb(0,0,0)" d="M 8335,3857 C 8515,3857 8653,3994 8653,4174 8653,4354 8515,4492 8335,4492 8155,4492 8018,4354 8018,4174 8018,3994 8155,3857 8335,3857 Z"/>
       <path fill="none" stroke="rgb(0,0,0)" d="M 8018,3857 L 8018,3857 Z"/>
       <path fill="none" stroke="rgb(0,0,0)" d="M 8654,4493 L 8654,4493 Z"/>
      </g>
     </g>
     <g class="com.sun.star.drawing.CustomShape">
      <g id="id13">
       <path fill="none" stroke="rgb(0,0,0)" d="M 15955,1952 C 16855,1952 17543,2639 17543,3539 17543,4439 16855,5127 15955,5127 15055,5127 14368,4439 14368,3539 14368,2639 15055,1952 15955,1952 Z"/>
       <path fill="none" stroke="rgb(0,0,0)" d="M 14368,1952 L 14368,1952 Z"/>
       <path fill="none" stroke="rgb(0,0,0)" d="M 17544,5128 L 17544,5128 Z"/>
       <text class="TextShape"><tspan class="TextParagraph" font-family="Arial, sans-serif" font-size="2540px" font-weight="400"><tspan class="TextPosition" x="15109" y="4420"><tspan fill="rgb(0,0,0)" stroke="none">S</tspan></tspan></tspan></text>
      </g>
     </g>
     <g class="com.sun.star.drawing.CustomShape">
      <g id="id14">
       <path fill="rgb(0,0,0)" stroke="none" d="M 16590,5762 C 16770,5762 16908,5899 16908,6079 16908,6259 16770,6397 16590,6397 16410,6397 16273,6259 16273,6079 16273,5899 16410,5762 16590,5762 Z M 16273,5762 L 16273,5762 Z M 16909,6398 L 16909,6398 Z"/>
       <path fill="none" stroke="rgb(0,0,0)" d="M 16590,5762 C 16770,5762 16908,5899 16908,6079 16908,6259 16770,6397 16590,6397 16410,6397 16273,6259 16273,6079 16273,5899 16410,5762 16590,5762 Z"/>
       <path fill="none" stroke="rgb(0,0,0)" d="M 16273,5762 L 16273,5762 Z"/>
       <path fill="none" stroke="rgb(0,0,0)" d="M 16909,6398 L 16909,6398 Z"/>
      </g>
     </g>
     <g class="com.sun.star.drawing.CustomShape">
      <g id="id15">
       <path fill="rgb(0,0,0)" stroke="none" d="M 18495,2587 C 18675,2587 18813,2724 18813,2904 18813,3084 18675,3222 18495,3222 18315,3222 18178,3084 18178,2904 18178,2724 18315,2587 18495,2587 Z M 18178,2587 L 18178,2587 Z M 18814,3223 L 18814,3223 Z"/>
       <path fill="none" stroke="rgb(0,0,0)" d="M 18495,2587 C 18675,2587 18813,2724 18813,2904 18813,3084 18675,3222 18495,3222 18315,3222 18178,3084 18178,2904 18178,2724 18315,2587 18495,2587 Z"/>
       <path fill="none" stroke="rgb(0,0,0)" d="M 18178,2587 L 18178,2587 Z"/>
       <path fill="none" stroke="rgb(0,0,0)" d="M 18814,3223 L 18814,3223 Z"/>
      </g>
     </g>
     <g class="com.sun.star.drawing.CustomShape">
      <g id="id16">
       <path fill="rgb(0,0,0)" stroke="none" d="M 15320,682 C 15500,682 15638,819 15638,999 15638,1179 15500,1317 15320,1317 15140,1317 15003,1179 15003,999 15003,819 15140,682 15320,682 Z M 15003,682 L 15003,682 Z M 15639,1318 L 15639,1318 Z"/>
       <path fill="none" stroke="rgb(0,0,0)" d="M 15320,682 C 15500,682 15638,819 15638,999 15638,1179 15500,1317 15320,1317 15140,1317 15003,1179 15003,999 15003,819 15140,682 15320,682 Z"/>
       <path fill="none" stroke="rgb(0,0,0)" d="M 15003,682 L 15003,682 Z"/>
       <path fill="none" stroke="rgb(0,0,0)" d="M 15639,1318 L 15639,1318 Z"/>
      </g>
     </g>
     <g class="com.sun.star.drawing.CustomShape">
      <g id="id17">
       <path fill="rgb(0,0,0)" stroke="none" d="M 13415,3857 C 13595,3857 13733,3994 13733,4174 13733,4354 13595,4492 13415,4492 13235,4492 13098,4354 13098,4174 13098,3994 13235,3857 13415,3857 Z M 13098,3857 L 13098,3857 Z M 13734,4493 L 13734,4493 Z"/>
       <path fill="none" stroke="rgb(0,0,0)" d="M 13415,3857 C 13595,3857 13733,3994 13733,4174 13733,4354 13595,4492 13415,4492 13235,4492 13098,4354 13098,4174 13098,3994 13235,3857 13415,3857 Z"/>
       <path fill="none" stroke="rgb(0,0,0)" d="M 13098,3857 L 13098,3857 Z"/>
       <path fill="none" stroke="rgb(0,0,0)" d="M 13734,4493 L 13734,4493 Z"/>
      </g>
     </g>
     <g class="com.sun.star.drawing.CustomShape">
      <g id="id18">
       <path fill="none" stroke="rgb(0,0,0)" d="M 21035,1952 C 21935,1952 22623,2639 22623,3539 22623,4439 21935,5127 21035,5127 20135,5127 19448,4439 19448,3539 19448,2639 20135,1952 21035,1952 Z"/>
       <path fill="none" stroke="rgb(0,0,0)" d="M 19448,1952 L 19448,1952 Z"/>
       <path fill="none" stroke="rgb(0,0,0)" d="M 22624,5128 L 22624,5128 Z"/>
       <text class="TextShape"><tspan class="TextParagraph" font-family="Arial, sans-serif" font-size="2540px" font-weight="400"><tspan class="TextPosition" x="20189" y="4420"><tspan fill="rgb(0,0,0)" stroke="none">S</tspan></tspan></tspan></text>
      </g>
     </g>
     <g class="com.sun.star.drawing.CustomShape">
      <g id="id19">
       <path fill="rgb(0,0,0)" stroke="none" d="M 21670,5762 C 21850,5762 21988,5899 21988,6079 21988,6259 21850,6397 21670,6397 21490,6397 21353,6259 21353,6079 21353,5899 21490,5762 21670,5762 Z M 21353,5762 L 21353,5762 Z M 21989,6398 L 21989,6398 Z"/>
       <path fill="none" stroke="rgb(0,0,0)" d="M 21670,5762 C 21850,5762 21988,5899 21988,6079 21988,6259 21850,6397 21670,6397 21490,6397 21353,6259 21353,6079 21353,5899 21490,5762 21670,5762 Z"/>
       <path fill="none" stroke="rgb(0,0,0)" d="M 21353,5762 L 21353,5762 Z"/>
       <path fill="none" stroke="rgb(0,0,0)" d="M 21989,6398 L 21989,6398 Z"/>
      </g>
     </g>
     <g class="com.sun.star.drawing.CustomShape">
      <g id="id20">
       <path fill="rgb(0,0,0)" stroke="none" d="M 23575,2587 C 23755,2587 23893,2724 23893,2904 23893,3084 23755,3222 23575,3222 23395,3222 23258,3084 23258,2904 23258,2724 23395,2587 23575,2587 Z M 23258,2587 L 23258,2587 Z M 23894,3223 L 23894,3223 Z"/>
       <path fill="none" stroke="rgb(0,0,0)" d="M 23575,2587 C 23755,2587 23893,2724 23893,2904 23893,3084 23755,3222 23575,3222 23395,3222 23258,3084 23258,2904 23258,2724 23395,2587 23575,2587 Z"/>
       <path fill="none" stroke="rgb(0,0,0)" d="M 23258,2587 L 23258,2587 Z"/>
       <path fill="none" stroke="rgb(0,0,0)" d="M 23894,3223 L 23894,3223 Z"/>
      </g>
     </g>
     <g class="com.sun.star.drawing.CustomShape">
      <g id="id21">
       <path fill="rgb(0,0,0)" stroke="none" d="M 20400,682 C 20580,682 20718,819 20718,999 20718,1179 20580,1317 20400,1317 20220,1317 20083,1179 20083,999 20083,819 20220,682 20400,682 Z M 20083,682 L 20083,682 Z M 20719,1318 L 20719,1318 Z"/>
       <path fill="none" stroke="rgb(0,0,0)" d="M 20400,682 C 20580,682 20718,819 20718,999 20718,1179 20580,1317 20400,1317 20220,1317 20083,1179 20083,999 20083,819 20220,682 20400,682 Z"/>
       <path fill="none" stroke="rgb(0,0,0)" d="M 20083,682 L 20083,682 Z"/>
       <path fill="none" stroke="rgb(0,0,0)" d="M 20719,1318 L 20719,1318 Z"/>
      </g>
     </g>
     <g class="com.sun.star.drawing.CustomShape">
      <g id="id22">
       <path fill="rgb(0,0,0)" stroke="none" d="M 18495,3857 C 18675,3857 18813,3994 18813,4174 18813,4354 18675,4492 18495,4492 18315,4492 18178,4354 18178,4174 18178,3994 18315,3857 18495,3857 Z M 18178,3857 L 18178,3857 Z M 18814,4493 L 18814,4493 Z"/>
       <path fill="none" stroke="rgb(0,0,0)" d="M 18495,3857 C 18675,3857 18813,3994 18813,4174 18813,4354 18675,4492 18495,4492 18315,4492 18178,4354 18178,4174 18178,3994 18315,3857 18495,3857 Z"/>
       <path fill="none" stroke="rgb(0,0,0)" d="M 18178,3857 L 18178,3857 Z"/>
       <path fill="none" stroke="rgb(0,0,0)" d="M 18814,4493 L 18814,4493 Z"/>
      </g>
     </g>
     <g class="com.sun.star.drawing.CustomShape">
      <g id="id23">
       <path fill="none" stroke="rgb(0,0,0)" d="M 5795,7032 C 6695,7032 7383,7719 7383,8619 7383,9519 6695,10207 5795,10207 4895,10207 4208,9519 4208,8619 4208,7719 4895,7032 5795,7032 Z"/>
       <path fill="none" stroke="rgb(0,0,0)" d="M 4208,7032 L 4208,7032 Z"/>
       <path fill="none" stroke="rgb(0,0,0)" d="M 7384,10208 L 7384,10208 Z"/>
       <text class="TextShape"><tspan class="TextParagraph" font-family="Arial, sans-serif" font-size="2540px" font-weight="400"><tspan class="TextPosition" x="4949" y="9500"><tspan fill="rgb(0,0,0)" stroke="none">S</tspan></tspan></tspan></text>
      </g>
     </g>
     <g class="com.sun.star.drawing.CustomShape">
      <g id="id24">
       <path fill="rgb(0,0,0)" stroke="none" d="M 6430,10842 C 6610,10842 6748,10979 6748,11159 6748,11339 6610,11477 6430,11477 6250,11477 6113,11339 6113,11159 6113,10979 6250,10842 6430,10842 Z M 6113,10842 L 6113,10842 Z M 6749,11478 L 6749,11478 Z"/>
       <path fill="none" stroke="rgb(0,0,0)" d="M 6430,10842 C 6610,10842 6748,10979 6748,11159 6748,11339 6610,11477 6430,11477 6250,11477 6113,11339 6113,11159 6113,10979 6250,10842 6430,10842 Z"/>
       <path fill="none" stroke="rgb(0,0,0)" d="M 6113,10842 L 6113,10842 Z"/>
       <path fill="none" stroke="rgb(0,0,0)" d="M 6749,11478 L 6749,11478 Z"/>
      </g>
     </g>
     <g class="com.sun.star.drawing.CustomShape">
      <g id="id25">
       <path fill="rgb(0,0,0)" stroke="none" d="M 8335,7667 C 8515,7667 8653,7804 8653,7984 8653,8164 8515,8302 8335,8302 8155,8302 8018,8164 8018,7984 8018,7804 8155,7667 8335,7667 Z M 8018,7667 L 8018,7667 Z M 8654,8303 L 8654,8303 Z"/>
       <path fill="none" stroke="rgb(0,0,0)" d="M 8335,7667 C 8515,7667 8653,7804 8653,7984 8653,8164 8515,8302 8335,8302 8155,8302 8018,8164 8018,7984 8018,7804 8155,7667 8335,7667 Z"/>
       <path fill="none" stroke="rgb(0,0,0)" d="M 8018,7667 L 8018,7667 Z"/>
       <path fill="none" stroke="rgb(0,0,0)" d="M 8654,8303 L 8654,8303 Z"/>
      </g>
     </g>
     <g class="com.sun.star.drawing.CustomShape">
      <g id="id26">
       <path fill="rgb(0,0,0)" stroke="none" d="M 5160,5762 C 5340,5762 5478,5899 5478,6079 5478,6259 5340,6397 5160,6397 4980,6397 4843,6259 4843,6079 4843,5899 4980,5762 5160,5762 Z M 4843,5762 L 4843,5762 Z M 5479,6398 L 5479,6398 Z"/>
       <path fill="none" stroke="rgb(0,0,0)" d="M 5160,5762 C 5340,5762 5478,5899 5478,6079 5478,6259 5340,6397 5160,6397 4980,6397 4843,6259 4843,6079 4843,5899 4980,5762 5160,5762 Z"/>
       <path fill="none" stroke="rgb(0,0,0)" d="M 4843,5762 L 4843,5762 Z"/>
       <path fill="none" stroke="rgb(0,0,0)" d="M 5479,6398 L 5479,6398 Z"/>
      </g>
     </g>
     <g class="com.sun.star.drawing.CustomShape">
      <g id="id27">
       <path fill="rgb(0,0,0)" stroke="none" d="M 3255,8937 C 3435,8937 3573,9074 3573,9254 3573,9434 3435,9572 3255,9572 3075,9572 2938,9434 2938,9254 2938,9074 3075,8937 3255,8937 Z M 2938,8937 L 2938,8937 Z M 3574,9573 L 3574,9573 Z"/>
       <path fill="none" stroke="rgb(0,0,0)" d="M 3255,8937 C 3435,8937 3573,9074 3573,9254 3573,9434 3435,9572 3255,9572 3075,9572 2938,9434 2938,9254 2938,9074 3075,8937 3255,8937 Z"/>
       <path fill="none" stroke="rgb(0,0,0)" d="M 2938,8937 L 2938,8937 Z"/>
       <path fill="none" stroke="rgb(0,0,0)" d="M 3574,9573 L 3574,9573 Z"/>
      </g>
     </g>
     <g class="com.sun.star.drawing.CustomShape">
      <g id="id28">
       <path fill="none" stroke="rgb(0,0,0)" d="M 10875,7032 C 11775,7032 12463,7719 12463,8619 12463,9519 11775,10207 10875,10207 9975,10207 9288,9519 9288,8619 9288,7719 9975,7032 10875,7032 Z"/>
       <path fill="none" stroke="rgb(0,0,0)" d="M 9288,7032 L 9288,7032 Z"/>
       <path fill="none" stroke="rgb(0,0,0)" d="M 12464,10208 L 12464,10208 Z"/>
       <text class="TextShape"><tspan class="TextParagraph" font-family="Arial, sans-serif" font-size="2540px" font-weight="400"><tspan class="TextPosition" x="10029" y="9500"><tspan fill="rgb(0,0,0)" stroke="none">S</tspan></tspan></tspan></text>
      </g>
     </g>
     <g class="com.sun.star.drawing.CustomShape">
      <g id="id29">
       <path fill="rgb(0,0,0)" stroke="none" d="M 11510,10842 C 11690,10842 11828,10979 11828,11159 11828,11339 11690,11477 11510,11477 11330,11477 11193,11339 11193,11159 11193,10979 11330,10842 11510,10842 Z M 11193,10842 L 11193,10842 Z M 11829,11478 L 11829,11478 Z"/>
       <path fill="none" stroke="rgb(0,0,0)" d="M 11510,10842 C 11690,10842 11828,10979 11828,11159 11828,11339 11690,11477 11510,11477 11330,11477 11193,11339 11193,11159 11193,10979 11330,10842 11510,10842 Z"/>
       <path fill="none" stroke="rgb(0,0,0)" d="M 11193,10842 L 11193,10842 Z"/>
       <path fill="none" stroke="rgb(0,0,0)" d="M 11829,11478 L 11829,11478 Z"/>
      </g>
     </g>
     <g class="com.sun.star.drawing.CustomShape">
      <g id="id30">
       <path fill="rgb(0,0,0)" stroke="none" d="M 13415,7667 C 13595,7667 13733,7804 13733,7984 13733,8164 13595,8302 13415,8302 13235,8302 13098,8164 13098,7984 13098,7804 13235,7667 13415,7667 Z M 13098,7667 L 13098,7667 Z M 13734,8303 L 13734,8303 Z"/>
       <path fill="none" stroke="rgb(0,0,0)" d="M 13415,7667 C 13595,7667 13733,7804 13733,7984 13733,8164 13595,8302 13415,8302 13235,8302 13098,8164 13098,7984 13098,7804 13235,7667 13415,7667 Z"/>
       <path fill="none" stroke="rgb(0,0,0)" d="M 13098,7667 L 13098,7667 Z"/>
       <path fill="none" stroke="rgb(0,0,0)" d="M 13734,8303 L 13734,8303 Z"/>
      </g>
     </g>
     <g class="com.sun.star.drawing.CustomShape">
      <g id="id31">
       <path fill="rgb(0,0,0)" stroke="none" d="M 10240,5762 C 10420,5762 10558,5899 10558,6079 10558,6259 10420,6397 10240,6397 10060,6397 9923,6259 9923,6079 9923,5899 10060,5762 10240,5762 Z M 9923,5762 L 9923,5762 Z M 10559,6398 L 10559,6398 Z"/>
       <path fill="none" stroke="rgb(0,0,0)" d="M 10240,5762 C 10420,5762 10558,5899 10558,6079 10558,6259 10420,6397 10240,6397 10060,6397 9923,6259 9923,6079 9923,5899 10060,5762 10240,5762 Z"/>
       <path fill="none" stroke="rgb(0,0,0)" d="M 9923,5762 L 9923,5762 Z"/>
       <path fill="none" stroke="rgb(0,0,0)" d="M 10559,6398 L 10559,6398 Z"/>
      </g>
     </g>
     <g class="com.sun.star.drawing.CustomShape">
      <g id="id32">
       <path fill="rgb(0,0,0)" stroke="none" d="M 8335,8937 C 8515,8937 8653,9074 8653,9254 8653,9434 8515,9572 8335,9572 8155,9572 8018,9434 8018,9254 8018,9074 8155,8937 8335,8937 Z M 8018,8937 L 8018,8937 Z M 8654,9573 L 8654,9573 Z"/>
       <path fill="none" stroke="rgb(0,0,0)" d="M 8335,8937 C 8515,8937 8653,9074 8653,9254 8653,9434 8515,9572 8335,9572 8155,9572 8018,9434 8018,9254 8018,9074 8155,8937 8335,8937 Z"/>
       <path fill="none" stroke="rgb(0,0,0)" d="M 8018,8937 L 8018,8937 Z"/>
       <path fill="none" stroke="rgb(0,0,0)" d="M 8654,9573 L 8654,9573 Z"/>
      </g>
     </g>
     <g class="com.sun.star.drawing.CustomShape">
      <g id="id33">
       <path fill="none" stroke="rgb(0,0,0)" d="M 15955,7032 C 16855,7032 17543,7719 17543,8619 17543,9519 16855,10207 15955,10207 15055,10207 14368,9519 14368,8619 14368,7719 15055,7032 15955,7032 Z"/>
       <path fill="none" stroke="rgb(0,0,0)" d="M 14368,7032 L 14368,7032 Z"/>
       <path fill="none" stroke="rgb(0,0,0)" d="M 17544,10208 L 17544,10208 Z"/>
       <text class="TextShape"><tspan class="TextParagraph" font-family="Arial, sans-serif" font-size="2540px" font-weight="400"><tspan class="TextPosition" x="15039" y="9500"><tspan fill="rgb(0,0,0)" stroke="none">N</tspan></tspan></tspan></text>
      </g>
     </g>
     <g class="com.sun.star.drawing.CustomShape">
      <g id="id34">
       <path fill="rgb(0,0,0)" stroke="none" d="M 16590,10842 C 16770,10842 16908,10979 16908,11159 16908,11339 16770,11477 16590,11477 16410,11477 16273,11339 16273,11159 16273,10979 16410,10842 16590,10842 Z M 16273,10842 L 16273,10842 Z M 16909,11478 L 16909,11478 Z"/>
       <path fill="none" stroke="rgb(0,0,0)" d="M 16590,10842 C 16770,10842 16908,10979 16908,11159 16908,11339 16770,11477 16590,11477 16410,11477 16273,11339 16273,11159 16273,10979 16410,10842 16590,10842 Z"/>
       <path fill="none" stroke="rgb(0,0,0)" d="M 16273,10842 L 16273,10842 Z"/>
       <path fill="none" stroke="rgb(0,0,0)" d="M 16909,11478 L 16909,11478 Z"/>
      </g>
     </g>
     <g class="com.sun.star.drawing.CustomShape">
      <g id="id35">
       <path fill="rgb(0,0,0)" stroke="none" d="M 18495,7667 C 18675,7667 18813,7804 18813,7984 18813,8164 18675,8302 18495,8302 18315,8302 18178,8164 18178,7984 18178,7804 18315,7667 18495,7667 Z M 18178,7667 L 18178,7667 Z M 18814,8303 L 18814,8303 Z"/>
       <path fill="none" stroke="rgb(0,0,0)" d="M 18495,7667 C 18675,7667 18813,7804 18813,7984 18813,8164 18675,8302 18495,8302 18315,8302 18178,8164 18178,7984 18178,7804 18315,7667 18495,7667 Z"/>
       <path fill="none" stroke="rgb(0,0,0)" d="M 18178,7667 L 18178,7667 Z"/>
       <path fill="none" stroke="rgb(0,0,0)" d="M 18814,8303 L 18814,8303 Z"/>
      </g>
     </g>
     <g class="com.sun.star.drawing.CustomShape">
      <g id="id36">
       <path fill="rgb(0,0,0)" stroke="none" d="M 15320,5762 C 15500,5762 15638,5899 15638,6079 15638,6259 15500,6397 15320,6397 15140,6397 15003,6259 15003,6079 15003,5899 15140,5762 15320,5762 Z M 15003,5762 L 15003,5762 Z M 15639,6398 L 15639,6398 Z"/>
       <path fill="none" stroke="rgb(0,0,0)" d="M 15320,5762 C 15500,5762 15638,5899 15638,6079 15638,6259 15500,6397 15320,6397 15140,6397 15003,6259 15003,6079 15003,5899 15140,5762 15320,5762 Z"/>
       <path fill="none" stroke="rgb(0,0,0)" d="M 15003,5762 L 15003,5762 Z"/>
       <path fill="none" stroke="rgb(0,0,0)" d="M 15639,6398 L 15639,6398 Z"/>
      </g>
     </g>
     <g class="com.sun.star.drawing.CustomShape">
      <g id="id37">
       <path fill="rgb(0,0,0)" stroke="none" d="M 13415,8937 C 13595,8937 13733,9074 13733,9254 13733,9434 13595,9572 13415,9572 13235,9572 13098,9434 13098,9254 13098,9074 13235,8937 13415,8937 Z M 13098,8937 L 13098,8937 Z M 13734,9573 L 13734,9573 Z"/>
       <path fill="none" stroke="rgb(0,0,0)" d="M 13415,8937 C 13595,8937 13733,9074 13733,9254 13733,9434 13595,9572 13415,9572 13235,9572 13098,9434 13098,9254 13098,9074 13235,8937 13415,8937 Z"/>
       <path fill="none" stroke="rgb(0,0,0)" d="M 13098,8937 L 13098,8937 Z"/>
       <path fill="none" stroke="rgb(0,0,0)" d="M 13734,9573 L 13734,9573 Z"/>
      </g>
     </g>
     <g class="com.sun.star.drawing.CustomShape">
      <g id="id38">
       <path fill="none" stroke="rgb(0,0,0)" d="M 21035,7032 C 21935,7032 22623,7719 22623,8619 22623,9519 21935,10207 21035,10207 20135,10207 19448,9519 19448,8619 19448,7719 20135,7032 21035,7032 Z"/>
       <path fill="none" stroke="rgb(0,0,0)" d="M 19448,7032 L 19448,7032 Z"/>
       <path fill="none" stroke="rgb(0,0,0)" d="M 22624,10208 L 22624,10208 Z"/>
       <text class="TextShape"><tspan class="TextParagraph" font-family="Arial, sans-serif" font-size="2540px" font-weight="400"><tspan class="TextPosition" x="20189" y="9500"><tspan fill="rgb(0,0,0)" stroke="none">S</tspan></tspan></tspan></text>
      </g>
     </g>
     <g class="com.sun.star.drawing.CustomShape">
      <g id="id39">
       <path fill="rgb(0,0,0)" stroke="none" d="M 21670,10842 C 21850,10842 21988,10979 21988,11159 21988,11339 21850,11477 21670,11477 21490,11477 21353,11339 21353,11159 21353,10979 21490,10842 21670,10842 Z M 21353,10842 L 21353,10842 Z M 21989,11478 L 21989,11478 Z"/>
       <path fill="none" stroke="rgb(0,0,0)" d="M 21670,10842 C 21850,10842 21988,10979 21988,11159 21988,11339 21850,11477 21670,11477 21490,11477 21353,11339 21353,11159 21353,10979 21490,10842 21670,10842 Z"/>
       <path fill="none" stroke="rgb(0,0,0)" d="M 21353,10842 L 21353,10842 Z"/>
       <path fill="none" stroke="rgb(0,0,0)" d="M 21989,11478 L 21989,11478 Z"/>
      </g>
     </g>
     <g class="com.sun.star.drawing.CustomShape">
      <g id="id40">
       <path fill="rgb(0,0,0)" stroke="none" d="M 23575,7667 C 23755,7667 23893,7804 23893,7984 23893,8164 23755,8302 23575,8302 23395,8302 23258,8164 23258,7984 23258,7804 23395,7667 23575,7667 Z M 23258,7667 L 23258,7667 Z M 23894,8303 L 23894,8303 Z"/>
       <path fill="none" stroke="rgb(0,0,0)" d="M 23575,7667 C 23755,7667 23893,7804 23893,7984 23893,8164 23755,8302 23575,8302 23395,8302 23258,8164 23258,7984 23258,7804 23395,7667 23575,7667 Z"/>
       <path fill="none" stroke="rgb(0,0,0)" d="M 23258,7667 L 23258,7667 Z"/>
       <path fill="none" stroke="rgb(0,0,0)" d="M 23894,8303 L 23894,8303 Z"/>
      </g>
     </g>
     <g class="com.sun.star.drawing.CustomShape">
      <g id="id41">
       <path fill="rgb(0,0,0)" stroke="none" d="M 20400,5762 C 20580,5762 20718,5899 20718,6079 20718,6259 20580,6397 20400,6397 20220,6397 20083,6259 20083,6079 20083,5899 20220,5762 20400,5762 Z M 20083,5762 L 20083,5762 Z M 20719,6398 L 20719,6398 Z"/>
       <path fill="none" stroke="rgb(0,0,0)" d="M 20400,5762 C 20580,5762 20718,5899 20718,6079 20718,6259 20580,6397 20400,6397 20220,6397 20083,6259 20083,6079 20083,5899 20220,5762 20400,5762 Z"/>
       <path fill="none" stroke="rgb(0,0,0)" d="M 20083,5762 L 20083,5762 Z"/>
       <path fill="none" stroke="rgb(0,0,0)" d="M 20719,6398 L 20719,6398 Z"/>
      </g>
     </g>
     <g class="com.sun.star.drawing.CustomShape">
      <g id="id42">
       <path fill="rgb(0,0,0)" stroke="none" d="M 18495,8937 C 18675,8937 18813,9074 18813,9254 18813,9434 18675,9572 18495,9572 18315,9572 18178,9434 18178,9254 18178,9074 18315,8937 18495,8937 Z M 18178,8937 L 18178,8937 Z M 18814,9573 L 18814,9573 Z"/>
       <path fill="none" stroke="rgb(0,0,0)" d="M 18495,8937 C 18675,8937 18813,9074 18813,9254 18813,9434 18675,9572 18495,9572 18315,9572 18178,9434 18178,9254 18178,9074 18315,8937 18495,8937 Z"/>
       <path fill="none" stroke="rgb(0,0,0)" d="M 18178,8937 L 18178,8937 Z"/>
       <path fill="none" stroke="rgb(0,0,0)" d="M 18814,9573 L 18814,9573 Z"/>
      </g>
     </g>
     <g class="com.sun.star.drawing.CustomShape">
      <g id="id43">
       <path fill="none" stroke="rgb(0,0,0)" d="M 5795,12112 C 6695,12112 7383,12799 7383,13699 7383,14599 6695,15287 5795,15287 4895,15287 4208,14599 4208,13699 4208,12799 4895,12112 5795,12112 Z"/>
       <path fill="none" stroke="rgb(0,0,0)" d="M 4208,12112 L 4208,12112 Z"/>
       <path fill="none" stroke="rgb(0,0,0)" d="M 7384,15288 L 7384,15288 Z"/>
       <text class="TextShape"><tspan class="TextParagraph" font-family="Arial, sans-serif" font-size="2540px" font-weight="400"><tspan class="TextPosition" x="4879" y="14580"><tspan fill="rgb(0,0,0)" stroke="none">N</tspan></tspan></tspan></text>
      </g>
     </g>
     <g class="com.sun.star.drawing.CustomShape">
      <g id="id44">
       <path fill="rgb(0,0,0)" stroke="none" d="M 6430,15922 C 6610,15922 6748,16059 6748,16239 6748,16419 6610,16557 6430,16557 6250,16557 6113,16419 6113,16239 6113,16059 6250,15922 6430,15922 Z M 6113,15922 L 6113,15922 Z M 6749,16558 L 6749,16558 Z"/>
       <path fill="none" stroke="rgb(0,0,0)" d="M 6430,15922 C 6610,15922 6748,16059 6748,16239 6748,16419 6610,16557 6430,16557 6250,16557 6113,16419 6113,16239 6113,16059 6250,15922 6430,15922 Z"/>
       <path fill="none" stroke="rgb(0,0,0)" d="M 6113,15922 L 6113,15922 Z"/>
       <path fill="none" stroke="rgb(0,0,0)" d="M 6749,16558 L 6749,16558 Z"/>
      </g>
     </g>
     <g class="com.sun.star.drawing.CustomShape">
      <g id="id45">
       <path fill="rgb(0,0,0)" stroke="none" d="M 8335,12747 C 8515,12747 8653,12884 8653,13064 8653,13244 8515,13382 8335,13382 8155,13382 8018,13244 8018,13064 8018,12884 8155,12747 8335,12747 Z M 8018,12747 L 8018,12747 Z M 8654,13383 L 8654,13383 Z"/>
       <path fill="none" stroke="rgb(0,0,0)" d="M 8335,12747 C 8515,12747 8653,12884 8653,13064 8653,13244 8515,13382 8335,13382 8155,13382 8018,13244 8018,13064 8018,12884 8155,12747 8335,12747 Z"/>
       <path fill="none" stroke="rgb(0,0,0)" d="M 8018,12747 L 8018,12747 Z"/>
       <path fill="none" stroke="rgb(0,0,0)" d="M 8654,13383 L 8654,13383 Z"/>
      </g>
     </g>
     <g class="com.sun.star.drawing.CustomShape">
      <g id="id46">
       <path fill="rgb(0,0,0)" stroke="none" d="M 5160,10842 C 5340,10842 5478,10979 5478,11159 5478,11339 5340,11477 5160,11477 4980,11477 4843,11339 4843,11159 4843,10979 4980,10842 5160,10842 Z M 4843,10842 L 4843,10842 Z M 5479,11478 L 5479,11478 Z"/>
       <path fill="none" stroke="rgb(0,0,0)" d="M 5160,10842 C 5340,10842 5478,10979 5478,11159 5478,11339 5340,11477 5160,11477 4980,11477 4843,11339 4843,11159 4843,10979 4980,10842 5160,10842 Z"/>
       <path fill="none" stroke="rgb(0,0,0)" d="M 4843,10842 L 4843,10842 Z"/>
       <path fill="none" stroke="rgb(0,0,0)" d="M 5479,11478 L 5479,11478 Z"/>
      </g>
     </g>
     <g class="com.sun.star.drawing.CustomShape">
      <g id="id47">
       <path fill="rgb(0,0,0)" stroke="none" d="M 3255,14017 C 3435,14017 3573,14154 3573,14334 3573,14514 3435,14652 3255,14652 3075,14652 2938,14514 2938,14334 2938,14154 3075,14017 3255,14017 Z M 2938,14017 L 2938,14017 Z M 3574,14653 L 3574,14653 Z"/>
       <path fill="none" stroke="rgb(0,0,0)" d="M 3255,14017 C 3435,14017 3573,14154 3573,14334 3573,14514 3435,14652 3255,14652 3075,14652 2938,14514 2938,14334 2938,14154 3075,14017 3255,14017 Z"/>
       <path fill="none" stroke="rgb(0,0,0)" d="M 2938,14017 L 2938,14017 Z"/>
       <path fill="none" stroke="rgb(0,0,0)" d="M 3574,14653 L 3574,14653 Z"/>
      </g>
     </g>
     <g class="com.sun.star.drawing.CustomShape">
      <g id="id48">
       <path fill="none" stroke="rgb(0,0,0)" d="M 10875,12112 C 11775,12112 12463,12799 12463,13699 12463,14599 11775,15287 10875,15287 9975,15287 9288,14599 9288,13699 9288,12799 9975,12112 10875,12112 Z"/>
       <path fill="none" stroke="rgb(0,0,0)" d="M 9288,12112 L 9288,12112 Z"/>
       <path fill="none" stroke="rgb(0,0,0)" d="M 12464,15288 L 12464,15288 Z"/>
       <text class="TextShape"><tspan class="TextParagraph" font-family="Arial, sans-serif" font-size="2540px" font-weight="400"><tspan class="TextPosition" x="10029" y="14580"><tspan fill="rgb(0,0,0)" stroke="none">S</tspan></tspan></tspan></text>
      </g>
     </g>
     <g class="com.sun.star.drawing.CustomShape">
      <g id="id49">
       <path fill="rgb(0,0,0)" stroke="none" d="M 11510,15922 C 11690,15922 11828,16059 11828,16239 11828,16419 11690,16557 11510,16557 11330,16557 11193,16419 11193,16239 11193,16059 11330,15922 11510,15922 Z M 11193,15922 L 11193,15922 Z M 11829,16558 L 11829,16558 Z"/>
       <path fill="none" stroke="rgb(0,0,0)" d="M 11510,15922 C 11690,15922 11828,16059 11828,16239 11828,16419 11690,16557 11510,16557 11330,16557 11193,16419 11193,16239 11193,16059 11330,15922 11510,15922 Z"/>
       <path fill="none" stroke="rgb(0,0,0)" d="M 11193,15922 L 11193,15922 Z"/>
       <path fill="none" stroke="rgb(0,0,0)" d="M 11829,16558 L 11829,16558 Z"/>
      </g>
     </g>
     <g class="com.sun.star.drawing.CustomShape">
      <g id="id50">
       <path fill="rgb(0,0,0)" stroke="none" d="M 13415,12747 C 13595,12747 13733,12884 13733,13064 13733,13244 13595,13382 13415,13382 13235,13382 13098,13244 13098,13064 13098,12884 13235,12747 13415,12747 Z M 13098,12747 L 13098,12747 Z M 13734,13383 L 13734,13383 Z"/>
       <path fill="none" stroke="rgb(0,0,0)" d="M 13415,12747 C 13595,12747 13733,12884 13733,13064 13733,13244 13595,13382 13415,13382 13235,13382 13098,13244 13098,13064 13098,12884 13235,12747 13415,12747 Z"/>
       <path fill="none" stroke="rgb(0,0,0)" d="M 13098,12747 L 13098,12747 Z"/>
       <path fill="none" stroke="rgb(0,0,0)" d="M 13734,13383 L 13734,13383 Z"/>
      </g>
     </g>
     <g class="com.sun.star.drawing.CustomShape">
      <g id="id51">
       <path fill="rgb(0,0,0)" stroke="none" d="M 10240,10842 C 10420,10842 10558,10979 10558,11159 10558,11339 10420,11477 10240,11477 10060,11477 9923,11339 9923,11159 9923,10979 10060,10842 10240,10842 Z M 9923,10842 L 9923,10842 Z M 10559,11478 L 10559,11478 Z"/>
       <path fill="none" stroke="rgb(0,0,0)" d="M 10240,10842 C 10420,10842 10558,10979 10558,11159 10558,11339 10420,11477 10240,11477 10060,11477 9923,11339 9923,11159 9923,10979 10060,10842 10240,10842 Z"/>
       <path fill="none" stroke="rgb(0,0,0)" d="M 9923,10842 L 9923,10842 Z"/>
       <path fill="none" stroke="rgb(0,0,0)" d="M 10559,11478 L 10559,11478 Z"/>
      </g>
     </g>
     <g class="com.sun.star.drawing.CustomShape">
      <g id="id52">
       <path fill="rgb(0,0,0)" stroke="none" d="M 8335,14017 C 8515,14017 8653,14154 8653,14334 8653,14514 8515,14652 8335,14652 8155,14652 8018,14514 8018,14334 8018,14154 8155,14017 8335,14017 Z M 8018,14017 L 8018,14017 Z M 8654,14653 L 8654,14653 Z"/>
       <path fill="none" stroke="rgb(0,0,0)" d="M 8335,14017 C 8515,14017 8653,14154 8653,14334 8653,14514 8515,14652 8335,14652 8155,14652 8018,14514 8018,14334 8018,14154 8155,14017 8335,14017 Z"/>
       <path fill="none" stroke="rgb(0,0,0)" d="M 8018,14017 L 8018,14017 Z"/>
       <path fill="none" stroke="rgb(0,0,0)" d="M 8654,14653 L 8654,14653 Z"/>
      </g>
     </g>
     <g class="com.sun.star.drawing.CustomShape">
      <g id="id53">
       <path fill="none" stroke="rgb(0,0,0)" d="M 15955,12112 C 16855,12112 17543,12799 17543,13699 17543,14599 16855,15287 15955,15287 15055,15287 14368,14599 14368,13699 14368,12799 15055,12112 15955,12112 Z"/>
       <path fill="none" stroke="rgb(0,0,0)" d="M 14368,12112 L 14368,12112 Z"/>
       <path fill="none" stroke="rgb(0,0,0)" d="M 17544,15288 L 17544,15288 Z"/>
       <text class="TextShape"><tspan class="TextParagraph" font-family="Arial, sans-serif" font-size="2540px" font-weight="400"><tspan class="TextPosition" x="15109" y="14580"><tspan fill="rgb(0,0,0)" stroke="none">S</tspan></tspan></tspan></text>
      </g>
     </g>
     <g class="com.sun.star.drawing.CustomShape">
      <g id="id54">
       <path fill="rgb(0,0,0)" stroke="none" d="M 16590,15922 C 16770,15922 16908,16059 16908,16239 16908,16419 16770,16557 16590,16557 16410,16557 16273,16419 16273,16239 16273,16059 16410,15922 16590,15922 Z M 16273,15922 L 16273,15922 Z M 16909,16558 L 16909,16558 Z"/>
       <path fill="none" stroke="rgb(0,0,0)" d="M 16590,15922 C 16770,15922 16908,16059 16908,16239 16908,16419 16770,16557 16590,16557 16410,16557 16273,16419 16273,16239 16273,16059 16410,15922 16590,15922 Z"/>
       <path fill="none" stroke="rgb(0,0,0)" d="M 16273,15922 L 16273,15922 Z"/>
       <path fill="none" stroke="rgb(0,0,0)" d="M 16909,16558 L 16909,16558 Z"/>
      </g>
     </g>
     <g class="com.sun.star.drawing.CustomShape">
      <g id="id55">
       <path fill="rgb(0,0,0)" stroke="none" d="M 18495,12747 C 18675,12747 18813,12884 18813,13064 18813,13244 18675,13382 18495,13382 18315,13382 18178,13244 18178,13064 18178,12884 18315,12747 18495,12747 Z M 18178,12747 L 18178,12747 Z M 18814,13383 L 18814,13383 Z"/>
       <path fill="none" stroke="rgb(0,0,0)" d="M 18495,12747 C 18675,12747 18813,12884 18813,13064 18813,13244 18675,13382 18495,13382 18315,13382 18178,13244 18178,13064 18178,12884 18315,12747 18495,12747 Z"/>
       <path fill="none" stroke="rgb(0,0,0)" d="M 18178,12747 L 18178,12747 Z"/>
       <path fill="none" stroke="rgb(0,0,0)" d="M 18814,13383 L 18814,13383 Z"/>
      </g>
     </g>
     <g class="com.sun.star.drawing.CustomShape">
      <g id="id56">
       <path fill="rgb(0,0,0)" stroke="none" d="M 15320,10842 C 15500,10842 15638,10979 15638,11159 15638,11339 15500,11477 15320,11477 15140,11477 15003,11339 15003,11159 15003,10979 15140,10842 15320,10842 Z M 15003,10842 L 15003,10842 Z M 15639,11478 L 15639,11478 Z"/>
       <path fill="none" stroke="rgb(0,0,0)" d="M 15320,10842 C 15500,10842 15638,10979 15638,11159 15638,11339 15500,11477 15320,11477 15140,11477 15003,11339 15003,11159 15003,10979 15140,10842 15320,10842 Z"/>
       <path fill="none" stroke="rgb(0,0,0)" d="M 15003,10842 L 15003,10842 Z"/>
       <path fill="none" stroke="rgb(0,0,0)" d="M 15639,11478 L 15639,11478 Z"/>
      </g>
     </g>
     <g class="com.sun.star.drawing.CustomShape">
      <g id="id57">
       <path fill="rgb(0,0,0)" stroke="none" d="M 13415,14017 C 13595,14017 13733,14154 13733,14334 13733,14514 13595,14652 13415,14652 13235,14652 13098,14514 13098,14334 13098,14154 13235,14017 13415,14017 Z M 13098,14017 L 13098,14017 Z M 13734,14653 L 13734,14653 Z"/>
       <path fill="none" stroke="rgb(0,0,0)" d="M 13415,14017 C 13595,14017 13733,14154 13733,14334 13733,14514 13595,14652 13415,14652 13235,14652 13098,14514 13098,14334 13098,14154 13235,14017 13415,14017 Z"/>
       <path fill="none" stroke="rgb(0,0,0)" d="M 13098,14017 L 13098,14017 Z"/>
       <path fill="none" stroke="rgb(0,0,0)" d="M 13734,14653 L 13734,14653 Z"/>
      </g>
     </g>
     <g class="com.sun.star.drawing.CustomShape">
      <g id="id58">
       <path fill="none" stroke="rgb(0,0,0)" d="M 21035,12112 C 21935,12112 22623,12799 22623,13699 22623,14599 21935,15287 21035,15287 20135,15287 19448,14599 19448,13699 19448,12799 20135,12112 21035,12112 Z"/>
       <path fill="none" stroke="rgb(0,0,0)" d="M 19448,12112 L 19448,12112 Z"/>
       <path fill="none" stroke="rgb(0,0,0)" d="M 22624,15288 L 22624,15288 Z"/>
       <text class="TextShape"><tspan class="TextParagraph" font-family="Arial, sans-serif" font-size="2540px" font-weight="400"><tspan class="TextPosition" x="20189" y="14580"><tspan fill="rgb(0,0,0)" stroke="none">S</tspan></tspan></tspan></text>
      </g>
     </g>
     <g class="com.sun.star.drawing.CustomShape">
      <g id="id59">
       <path fill="rgb(0,0,0)" stroke="none" d="M 21670,15922 C 21850,15922 21988,16059 21988,16239 21988,16419 21850,16557 21670,16557 21490,16557 21353,16419 21353,16239 21353,16059 21490,15922 21670,15922 Z M 21353,15922 L 21353,15922 Z M 21989,16558 L 21989,16558 Z"/>
       <path fill="none" stroke="rgb(0,0,0)" d="M 21670,15922 C 21850,15922 21988,16059 21988,16239 21988,16419 21850,16557 21670,16557 21490,16557 21353,16419 21353,16239 21353,16059 21490,15922 21670,15922 Z"/>
       <path fill="none" stroke="rgb(0,0,0)" d="M 21353,15922 L 21353,15922 Z"/>
       <path fill="none" stroke="rgb(0,0,0)" d="M 21989,16558 L 21989,16558 Z"/>
      </g>
     </g>
     <g class="com.sun.star.drawing.CustomShape">
      <g id="id60">
       <path fill="rgb(0,0,0)" stroke="none" d="M 23575,12747 C 23755,12747 23893,12884 23893,13064 23893,13244 23755,13382 23575,13382 23395,13382 23258,13244 23258,13064 23258,12884 23395,12747 23575,12747 Z M 23258,12747 L 23258,12747 Z M 23894,13383 L 23894,13383 Z"/>
       <path fill="none" stroke="rgb(0,0,0)" d="M 23575,12747 C 23755,12747 23893,12884 23893,13064 23893,13244 23755,13382 23575,13382 23395,13382 23258,13244 23258,13064 23258,12884 23395,12747 23575,12747 Z"/>
       <path fill="none" stroke="rgb(0,0,0)" d="M 23258,12747 L 23258,12747 Z"/>
       <path fill="none" stroke="rgb(0,0,0)" d="M 23894,13383 L 23894,13383 Z"/>
      </g>
     </g>
     <g class="com.sun.star.drawing.CustomShape">
      <g id="id61">
       <path fill="rgb(0,0,0)" stroke="none" d="M 20400,10842 C 20580,10842 20718,10979 20718,11159 20718,11339 20580,11477 20400,11477 20220,11477 20083,11339 20083,11159 20083,10979 20220,10842 20400,10842 Z M 20083,10842 L 20083,10842 Z M 20719,11478 L 20719,11478 Z"/>
       <path fill="none" stroke="rgb(0,0,0)" d="M 20400,10842 C 20580,10842 20718,10979 20718,11159 20718,11339 20580,11477 20400,11477 20220,11477 20083,11339 20083,11159 20083,10979 20220,10842 20400,10842 Z"/>
       <path fill="none" stroke="rgb(0,0,0)" d="M 20083,10842 L 20083,10842 Z"/>
       <path fill="none" stroke="rgb(0,0,0)" d="M 20719,11478 L 20719,11478 Z"/>
      </g>
     </g>
     <g class="com.sun.star.drawing.CustomShape">
      <g id="id62">
       <path fill="rgb(0,0,0)" stroke="none" d="M 18495,14017 C 18675,14017 18813,14154 18813,14334 18813,14514 18675,14652 18495,14652 18315,14652 18178,14514 18178,14334 18178,14154 18315,14017 18495,14017 Z M 18178,14017 L 18178,14017 Z M 18814,14653 L 18814,14653 Z"/>
       <path fill="none" stroke="rgb(0,0,0)" d="M 18495,14017 C 18675,14017 18813,14154 18813,14334 18813,14514 18675,14652 18495,14652 18315,14652 18178,14514 18178,14334 18178,14154 18315,14017 18495,14017 Z"/>
       <path fill="none" stroke="rgb(0,0,0)" d="M 18178,14017 L 18178,14017 Z"/>
       <path fill="none" stroke="rgb(0,0,0)" d="M 18814,14653 L 18814,14653 Z"/>
      </g>
     </g>
     <g class="com.sun.star.drawing.CustomShape">
      <g id="id63">
       <path fill="rgb(255,0,0)" stroke="none" d="M 14050,6397 C 14230,6397 14368,6534 14368,6714 14368,6894 14230,7032 14050,7032 13870,7032 13733,6894 13733,6714 13733,6534 13870,6397 14050,6397 Z M 13733,6397 L 13733,6397 Z M 14369,7033 L 14369,7033 Z"/>
       <path fill="none" stroke="rgb(0,0,0)" d="M 14050,6397 C 14230,6397 14368,6534 14368,6714 14368,6894 14230,7032 14050,7032 13870,7032 13733,6894 13733,6714 13733,6534 13870,6397 14050,6397 Z"/>
       <path fill="none" stroke="rgb(0,0,0)" d="M 13733,6397 L 13733,6397 Z"/>
       <path fill="none" stroke="rgb(0,0,0)" d="M 14369,7033 L 14369,7033 Z"/>
      </g>
     </g>
     <g class="com.sun.star.drawing.CustomShape">
      <g id="id64">
       <path fill="rgb(255,0,0)" stroke="none" d="M 8335,10842 C 8515,10842 8653,10979 8653,11159 8653,11339 8515,11477 8335,11477 8155,11477 8018,11339 8018,11159 8018,10979 8155,10842 8335,10842 Z M 8018,10842 L 8018,10842 Z M 8654,11478 L 8654,11478 Z"/>
       <path fill="none" stroke="rgb(0,0,0)" d="M 8335,10842 C 8515,10842 8653,10979 8653,11159 8653,11339 8515,11477 8335,11477 8155,11477 8018,11339 8018,11159 8018,10979 8155,10842 8335,10842 Z"/>
       <path fill="none" stroke="rgb(0,0,0)" d="M 8018,10842 L 8018,10842 Z"/>
       <path fill="none" stroke="rgb(0,0,0)" d="M 8654,11478 L 8654,11478 Z"/>
      </g>
     </g>
     <g class="com.sun.star.drawing.CustomShape">
      <g id="id65">
       <text class="TextShape"><tspan class="TextParagraph" font-family="Arial, sans-serif" font-size="2540px" font-weight="400"><tspan class="TextPosition" x="562" y="8230"><tspan fill="rgb(0,0,0)" stroke="none">-</tspan></tspan></tspan></text>
      </g>
     </g>
     <g class="com.sun.star.drawing.CustomShape">
      <g id="id66">
       <text class="TextShape"><tspan class="TextParagraph" font-family="Arial, sans-serif" font-size="2540px" font-weight="400"><tspan class="TextPosition" x="24740" y="8230"><tspan fill="rgb(0,0,0)" stroke="none">+</tspan></tspan></tspan></text>
      </g>
     </g>
    </g>
   </g>
  </g>
 </g>
</svg>