<?xml version="1.0" encoding="UTF-8"?>
<!DOCTYPE svg PUBLIC "-//W3C//DTD SVG 1.1//EN" "http://www.w3.org/Graphics/SVG/1.1/DTD/svg11.dtd">
<svg version="1.2" width="167.64mm" height="167.64mm" viewBox="0 0 16764 16764" preserveAspectRatio="xMidYMid" fill-rule="evenodd" clip-path="url(#presentation_clip_path)" stroke-width="28.222" stroke-linejoin="round" xmlns="http://www.w3.org/2000/svg" xmlns:ooo="http://xml.openoffice.org/svg/export" xmlns:xlink="http://www.w3.org/1999/xlink" xml:space="preserve">
 <defs class="ClipPathGroup">
  <clipPath id="presentation_clip_path" clipPathUnits="userSpaceOnUse">
   <rect x="0" y="0" width="16764" height="16764"/>
  </clipPath>
 </defs>
 <defs class="TextShapeIndex">
  <g ooo:slide="id1" ooo:id-list="id3 id4 id5 id6 id7 id8 id9 id10 id11 id12 id13 id14 id15 id16 id17 id18 id19 id20 id21 id22 id23 id24 id25 id26 id27 id28 id29 id30 id31 id32"/>
 </defs>
 <defs class="EmbeddedBulletChars">
  <g id="bullet-char-template(57356)" transform="scale(0.00048828125,-0.00048828125)">
   <path d="M 580,1141 L 1163,571 580,0 -4,571 580,1141 Z"/>
  </g>
  <g id="bullet-char-template(57354)" transform="scale(0.00048828125,-0.00048828125)">
   <path d="M 8,1128 L 1137,1128 1137,0 8,0 8,1128 Z"/>
  </g>
  <g id="bullet-char-template(10146)" transform="scale(0.00048828125,-0.00048828125)">
   <path d="M 174,0 L 602,739 174,1481 1456,739 174,0 Z M 1358,739 L 309,1346 659,739 1358,739 Z"/>
  </g>
  <g id="bullet-char-template(10132)" transform="scale(0.00048828125,-0.00048828125)">
   <path d="M 2015,739 L 1276,0 717,0 1260,543 174,543 174,936 1260,936 717,1481 1274,1481 2015,739 Z"/>
  </g>
  <g id="bullet-char-template(10007)" transform="scale(0.00048828125,-0.00048828125)">
   <path d="M 0,-2 C -7,14 -16,27 -25,37 L 356,567 C 262,823 215,952 215,954 215,979 228,992 255,992 264,992 276,990 289,987 310,991 331,999 354,1012 L 381,999 492,748 772,1049 836,1024 860,1049 C 881,1039 901,1025 922,1006 886,937 835,863 770,784 769,783 710,716 594,584 L 774,223 C 774,196 753,168 711,139 L 727,119 C 717,90 699,76 672,76 641,76 570,178 457,381 L 164,-76 C 142,-110 111,-127 72,-127 30,-127 9,-110 8,-76 1,-67 -2,-52 -2,-32 -2,-23 -1,-13 0,-2 Z"/>
  </g>
  <g id="bullet-char-template(10004)" transform="scale(0.00048828125,-0.00048828125)">
   <path d="M 285,-33 C 182,-33 111,30 74,156 52,228 41,333 41,471 41,549 55,616 82,672 116,743 169,778 240,778 293,778 328,747 346,684 L 369,508 C 377,444 397,411 428,410 L 1163,1116 C 1174,1127 1196,1133 1229,1133 1271,1133 1292,1118 1292,1087 L 1292,965 C 1292,929 1282,901 1262,881 L 442,47 C 390,-6 338,-33 285,-33 Z"/>
  </g>
  <g id="bullet-char-template(9679)" transform="scale(0.00048828125,-0.00048828125)">
   <path d="M 813,0 C 632,0 489,54 383,161 276,268 223,411 223,592 223,773 276,916 383,1023 489,1130 632,1184 813,1184 992,1184 1136,1130 1245,1023 1353,916 1407,772 1407,592 1407,412 1353,268 1245,161 1136,54 992,0 813,0 Z"/>
  </g>
  <g id="bullet-char-template(8226)" transform="scale(0.00048828125,-0.00048828125)">
   <path d="M 346,457 C 273,457 209,483 155,535 101,586 74,649 74,723 74,796 101,859 155,911 209,963 273,989 346,989 419,989 480,963 531,910 582,859 608,796 608,723 608,648 583,586 532,535 482,483 420,457 346,457 Z"/>
  </g>
  <g id="bullet-char-template(8211)" transform="scale(0.00048828125,-0.00048828125)">
   <path d="M -4,459 L 1135,459 1135,606 -4,606 -4,459 Z"/>
  </g>
 </defs>
 <defs class="TextEmbeddedBitmaps"/>
 <g>
  <g id="id2" class="Master_Slide">
   <g id="bg-id2" class="Background"/>
   <g id="bo-id2" class="BackgroundObjects"/>
  </g>
 </g>
 <g class="SlideGroup">
  <g>
   <g id="id1" class="Slide" clip-path="url(#presentation_clip_path)">
    <g class="Page">
     <g class="com.sun.star.drawing.CustomShape">
      <g id="id3">
       <path fill="none" stroke="rgb(0,0,0)" d="M 8253,6666 C 9153,6666 9841,7353 9841,8253 9841,9153 9153,9841 8253,9841 7353,9841 6666,9153 6666,8253 6666,7353 7353,6666 8253,6666 Z"/>
       <path fill="none" stroke="rgb(0,0,0)" d="M 6666,6666 L 6666,6666 Z"/>
       <path fill="none" stroke="rgb(0,0,0)" d="M 9842,9842 L 9842,9842 Z"/>
       <text class="TextShape"><tspan class="TextParagraph" font-family="Arial, sans-serif" font-size="2540px" font-weight="400"><tspan class="TextPosition" x="7407" y="9134"><tspan fill="rgb(0,0,0)" stroke="none">S</tspan></tspan></tspan></text>
      </g>
     </g>
     <g class="com.sun.star.drawing.CustomShape">
      <g id="id4">
       <path fill="rgb(0,0,0)" stroke="none" d="M 8888,10476 C 9068,10476 9206,10613 9206,10793 9206,10973 9068,11111 8888,11111 8708,11111 8571,10973 8571,10793 8571,10613 8708,10476 8888,10476 Z M 8571,10476 L 8571,10476 Z M 9207,11112 L 9207,11112 Z"/>
       <path fill="none" stroke="rgb(0,0,0)" d="M 8888,10476 C 9068,10476 9206,10613 9206,10793 9206,10973 9068,11111 8888,11111 8708,11111 8571,10973 8571,10793 8571,10613 8708,10476 8888,10476 Z"/>
       <path fill="none" stroke="rgb(0,0,0)" d="M 8571,10476 L 8571,10476 Z"/>
       <path fill="none" stroke="rgb(0,0,0)" d="M 9207,11112 L 9207,11112 Z"/>
      </g>
     </g>
     <g class="com.sun.star.drawing.CustomShape">
      <g id="id5">
       <path fill="rgb(0,0,0)" stroke="none" d="M 10793,7301 C 10973,7301 11111,7438 11111,7618 11111,7798 10973,7936 10793,7936 10613,7936 10476,7798 10476,7618 10476,7438 10613,7301 10793,7301 Z M 10476,7301 L 10476,7301 Z M 11112,7937 L 11112,7937 Z"/>
       <path fill="none" stroke="rgb(0,0,0)" d="M 10793,7301 C 10973,7301 11111,7438 11111,7618 11111,7798 10973,7936 10793,7936 10613,7936 10476,7798 10476,7618 10476,7438 10613,7301 10793,7301 Z"/>
       <path fill="none" stroke="rgb(0,0,0)" d="M 10476,7301 L 10476,7301 Z"/>
       <path fill="none" stroke="rgb(0,0,0)" d="M 11112,7937 L 11112,7937 Z"/>
      </g>
     </g>
     <g class="com.sun.star.drawing.CustomShape">
      <g id="id6">
       <path fill="rgb(0,0,0)" stroke="none" d="M 7618,5396 C 7798,5396 7936,5533 7936,5713 7936,5893 7798,6031 7618,6031 7438,6031 7301,5893 7301,5713 7301,5533 7438,5396 7618,5396 Z M 7301,5396 L 7301,5396 Z M 7937,6032 L 7937,6032 Z"/>
       <path fill="none" stroke="rgb(0,0,0)" d="M 7618,5396 C 7798,5396 7936,5533 7936,5713 7936,5893 7798,6031 7618,6031 7438,6031 7301,5893 7301,5713 7301,5533 7438,5396 7618,5396 Z"/>
       <path fill="none" stroke="rgb(0,0,0)" d="M 7301,5396 L 7301,5396 Z"/>
       <path fill="none" stroke="rgb(0,0,0)" d="M 7937,6032 L 7937,6032 Z"/>
      </g>
     </g>
     <g class="com.sun.star.drawing.CustomShape">
      <g id="id7">
       <path fill="rgb(0,0,0)" stroke="none" d="M 5713,8571 C 5893,8571 6031,8708 6031,8888 6031,9068 5893,9206 5713,9206 5533,9206 5396,9068 5396,8888 5396,8708 5533,8571 5713,8571 Z M 5396,8571 L 5396,8571 Z M 6032,9207 L 6032,9207 Z"/>
       <path fill="none" stroke="rgb(0,0,0)" d="M 5713,8571 C 5893,8571 6031,8708 6031,8888 6031,9068 5893,9206 5713,9206 5533,9206 5396,9068 5396,8888 5396,8708 5533,8571 5713,8571 Z"/>
       <path fill="none" stroke="rgb(0,0,0)" d="M 5396,8571 L 5396,8571 Z"/>
       <path fill="none" stroke="rgb(0,0,0)" d="M 6032,9207 L 6032,9207 Z"/>
      </g>
     </g>
     <g class="com.sun.star.drawing.CustomShape">
      <g id="id8">
       <path fill="rgb(0,0,255)" stroke="none" d="M 13333,6666 C 14233,6666 14921,7353 14921,8253 14921,9153 14233,9841 13333,9841 12433,9841 11746,9153 11746,8253 11746,7353 12433,6666 13333,6666 Z M 11746,6666 L 11746,6666 Z M 14922,9842 L 14922,9842 Z"/>
       <path fill="none" stroke="rgb(0,0,0)" d="M 13333,6666 C 14233,6666 14921,7353 14921,8253 14921,9153 14233,9841 13333,9841 12433,9841 11746,9153 11746,8253 11746,7353 12433,6666 13333,6666 Z"/>
       <path fill="none" stroke="rgb(0,0,0)" d="M 11746,6666 L 11746,6666 Z"/>
       <path fill="none" stroke="rgb(0,0,0)" d="M 14922,9842 L 14922,9842 Z"/>
       <text class="TextShape"><tspan class="TextParagraph" font-family="Arial, sans-serif" font-size="2540px" font-weight="400"><tspan class="TextPosition" x="12487" y="9134"><tspan fill="rgb(0,0,0)" stroke="none">S</tspan></tspan></tspan></text>
      </g>
     </g>
     <g class="com.sun.star.drawing.CustomShape">
      <g id="id9">
       <path fill="rgb(0,0,255)" stroke="none" d="M 13968,10476 C 14148,10476 14286,10613 14286,10793 14286,10973 14148,11111 13968,11111 13788,11111 13651,10973 13651,10793 13651,10613 13788,10476 13968,10476 Z M 13651,10476 L 13651,10476 Z M 14287,11112 L 14287,11112 Z"/>
       <path fill="none" stroke="rgb(0,0,0)" d="M 13968,10476 C 14148,10476 14286,10613 14286,10793 14286,10973 14148,11111 13968,11111 13788,11111 13651,10973 13651,10793 13651,10613 13788,10476 13968,10476 Z"/>
       <path fill="none" stroke="rgb(0,0,0)" d="M 13651,10476 L 13651,10476 Z"/>
       <path fill="none" stroke="rgb(0,0,0)" d="M 14287,11112 L 14287,11112 Z"/>
      </g>
     </g>
     <g class="com.sun.star.drawing.CustomShape">
      <g id="id10">
       <path fill="rgb(0,0,255)" stroke="none" d="M 15873,7301 C 16053,7301 16191,7438 16191,7618 16191,7798 16053,7936 15873,7936 15693,7936 15556,7798 15556,7618 15556,7438 15693,7301 15873,7301 Z M 15556,7301 L 15556,7301 Z M 16192,7937 L 16192,7937 Z"/>
       <path fill="none" stroke="rgb(0,0,0)" d="M 15873,7301 C 16053,7301 16191,7438 16191,7618 16191,7798 16053,7936 15873,7936 15693,7936 15556,7798 15556,7618 15556,7438 15693,7301 15873,7301 Z"/>
       <path fill="none" stroke="rgb(0,0,0)" d="M 15556,7301 L 15556,7301 Z"/>
       <path fill="none" stroke="rgb(0,0,0)" d="M 16192,7937 L 16192,7937 Z"/>
      </g>
     </g>
     <g class="com.sun.star.drawing.CustomShape">
      <g id="id11">
       <path fill="rgb(0,0,255)" stroke="none" d="M 12698,5396 C 12878,5396 13016,5533 13016,5713 13016,5893 12878,6031 12698,6031 12518,6031 12381,5893 12381,5713 12381,5533 12518,5396 12698,5396 Z M 12381,5396 L 12381,5396 Z M 13017,6032 L 13017,6032 Z"/>
       <path fill="none" stroke="rgb(0,0,0)" d="M 12698,5396 C 12878,5396 13016,5533 13016,5713 13016,5893 12878,6031 12698,6031 12518,6031 12381,5893 12381,5713 12381,5533 12518,5396 12698,5396 Z"/>
       <path fill="none" stroke="rgb(0,0,0)" d="M 12381,5396 L 12381,5396 Z"/>
       <path fill="none" stroke="rgb(0,0,0)" d="M 13017,6032 L 13017,6032 Z"/>
      </g>
     </g>
     <g class="com.sun.star.drawing.CustomShape">
      <g id="id12">
       <path fill="rgb(0,0,255)" stroke="none" d="M 10793,8571 C 10973,8571 11111,8708 11111,8888 11111,9068 10973,9206 10793,9206 10613,9206 10476,9068 10476,8888 10476,8708 10613,8571 10793,8571 Z M 10476,8571 L 10476,8571 Z M 11112,9207 L 11112,9207 Z"/>
       <path fill="none" stroke="rgb(0,0,0)" d="M 10793,8571 C 10973,8571 11111,8708 11111,8888 11111,9068 10973,9206 10793,9206 10613,9206 10476,9068 10476,8888 10476,8708 10613,8571 10793,8571 Z"/>
       <path fill="none" stroke="rgb(0,0,0)" d="M 10476,8571 L 10476,8571 Z"/>
       <path fill="none" stroke="rgb(0,0,0)" d="M 11112,9207 L 11112,9207 Z"/>
      </g>
     </g>
     <g class="com.sun.star.drawing.CustomShape">
      <g id="id13">
       <path fill="rgb(255,0,0)" stroke="none" d="M 8253,1586 C 9153,1586 9841,2273 9841,3173 9841,4073 9153,4761 8253,4761 7353,4761 6666,4073 6666,3173 6666,2273 7353,1586 8253,1586 Z M 6666,1586 L 6666,1586 Z M 9842,4762 L 9842,4762 Z"/>
       <path fill="none" stroke="rgb(0,0,0)" d="M 8253,1586 C 9153,1586 9841,2273 9841,3173 9841,4073 9153,4761 8253,4761 7353,4761 6666,4073 6666,3173 6666,2273 7353,1586 8253,1586 Z"/>
       <path fill="none" stroke="rgb(0,0,0)" d="M 6666,1586 L 6666,1586 Z"/>
       <path fill="none" stroke="rgb(0,0,0)" d="M 9842,4762 L 9842,4762 Z"/>
       <text class="TextShape"><tspan class="TextParagraph" font-family="Arial, sans-serif" font-size="2540px" font-weight="400"><tspan class="TextPosition" x="7407" y="4054"><tspan fill="rgb(0,0,0)" stroke="none">S</tspan></tspan></tspan></text>
      </g>
     </g>
     <g class="com.sun.star.drawing.CustomShape">
      <g id="id14">
       <path fill="rgb(255,0,0)" stroke="none" d="M 8888,5396 C 9068,5396 9206,5533 9206,5713 9206,5893 9068,6031 8888,6031 8708,6031 8571,5893 8571,5713 8571,5533 8708,5396 8888,5396 Z M 8571,5396 L 8571,5396 Z M 9207,6032 L 9207,6032 Z"/>
       <path fill="none" stroke="rgb(0,0,0)" d="M 8888,5396 C 9068,5396 9206,5533 9206,5713 9206,5893 9068,6031 8888,6031 8708,6031 8571,5893 8571,5713 8571,5533 8708,5396 8888,5396 Z"/>
       <path fill="none" stroke="rgb(0,0,0)" d="M 8571,5396 L 8571,5396 Z"/>
       <path fill="none" stroke="rgb(0,0,0)" d="M 9207,6032 L 9207,6032 Z"/>
      </g>
     </g>
     <g class="com.sun.star.drawing.CustomShape">
      <g id="id15">
       <path fill="rgb(255,0,0)" stroke="none" d="M 10793,2221 C 10973,2221 11111,2358 11111,2538 11111,2718 10973,2856 10793,2856 10613,2856 10476,2718 10476,2538 10476,2358 10613,2221 10793,2221 Z M 10476,2221 L 10476,2221 Z M 11112,2857 L 11112,2857 Z"/>
       <path fill="none" stroke="rgb(0,0,0)" d="M 10793,2221 C 10973,2221 11111,2358 11111,2538 11111,2718 10973,2856 10793,2856 10613,2856 10476,2718 10476,2538 10476,2358 10613,2221 10793,2221 Z"/>
       <path fill="none" stroke="rgb(0,0,0)" d="M 10476,2221 L 10476,2221 Z"/>
       <path fill="none" stroke="rgb(0,0,0)" d="M 11112,2857 L 11112,2857 Z"/>
      </g>
     </g>
     <g class="com.sun.star.drawing.CustomShape">
      <g id="id16">
       <path fill="rgb(255,0,0)" stroke="none" d="M 7618,316 C 7798,316 7936,453 7936,633 7936,813 7798,951 7618,951 7438,951 7301,813 7301,633 7301,453 7438,316 7618,316 Z M 7301,316 L 7301,316 Z M 7937,952 L 7937,952 Z"/>
       <path fill="none" stroke="rgb(0,0,0)" d="M 7618,316 C 7798,316 7936,453 7936,633 7936,813 7798,951 7618,951 7438,951 7301,813 7301,633 7301,453 7438,316 7618,316 Z"/>
       <path fill="none" stroke="rgb(0,0,0)" d="M 7301,316 L 7301,316 Z"/>
       <path fill="none" stroke="rgb(0,0,0)" d="M 7937,952 L 7937,952 Z"/>
      </g>
     </g>
     <g class="com.sun.star.drawing.CustomShape">
      <g id="id17">
       <path fill="rgb(255,0,0)" stroke="none" d="M 5713,3491 C 5893,3491 6031,3628 6031,3808 6031,3988 5893,4126 5713,4126 5533,4126 5396,3988 5396,3808 5396,3628 5533,3491 5713,3491 Z M 5396,3491 L 5396,3491 Z M 6032,4127 L 6032,4127 Z"/>
       <path fill="none" stroke="rgb(0,0,0)" d="M 5713,3491 C 5893,3491 6031,3628 6031,3808 6031,3988 5893,4126 5713,4126 5533,4126 5396,3988 5396,3808 5396,3628 5533,3491 5713,3491 Z"/>
       <path fill="none" stroke="rgb(0,0,0)" d="M 5396,3491 L 5396,3491 Z"/>
       <path fill="none" stroke="rgb(0,0,0)" d="M 6032,4127 L 6032,4127 Z"/>
      </g>
     </g>
     <g class="com.sun.star.drawing.CustomShape">
      <g id="id18">
       <path fill="rgb(179,179,179)" stroke="none" d="M 3173,6666 C 4073,6666 4761,7353 4761,8253 4761,9153 4073,9841 3173,9841 2273,9841 1586,9153 1586,8253 1586,7353 2273,6666 3173,6666 Z M 1586,6666 L 1586,6666 Z M 4762,9842 L 4762,9842 Z"/>
       <path fill="none" stroke="rgb(0,0,0)" d="M 3173,6666 C 4073,6666 4761,7353 4761,8253 4761,9153 4073,9841 3173,9841 2273,9841 1586,9153 1586,8253 1586,7353 2273,6666 3173,6666 Z"/>
       <path fill="none" stroke="rgb(0,0,0)" d="M 1586,6666 L 1586,6666 Z"/>
       <path fill="none" stroke="rgb(0,0,0)" d="M 4762,9842 L 4762,9842 Z"/>
       <text class="TextShape"><tspan class="TextParagraph" font-family="Arial, sans-serif" font-size="2540px" font-weight="400"><tspan class="TextPosition" x="2327" y="9134"><tspan fill="rgb(0,0,0)" stroke="none">S</tspan></tspan></tspan></text>
      </g>
     </g>
     <g class="com.sun.star.drawing.CustomShape">
      <g id="id19">
       <path fill="rgb(179,179,179)" stroke="none" d="M 3808,10476 C 3988,10476 4126,10613 4126,10793 4126,10973 3988,11111 3808,11111 3628,11111 3491,10973 3491,10793 3491,10613 3628,10476 3808,10476 Z M 3491,10476 L 3491,10476 Z M 4127,11112 L 4127,11112 Z"/>
       <path fill="none" stroke="rgb(0,0,0)" d="M 3808,10476 C 3988,10476 4126,10613 4126,10793 4126,10973 3988,11111 3808,11111 3628,11111 3491,10973 3491,10793 3491,10613 3628,10476 3808,10476 Z"/>
       <path fill="none" stroke="rgb(0,0,0)" d="M 3491,10476 L 3491,10476 Z"/>
       <path fill="none" stroke="rgb(0,0,0)" d="M 4127,11112 L 4127,11112 Z"/>
      </g>
     </g>
     <g class="com.sun.star.drawing.CustomShape">
      <g id="id20">
       <path fill="rgb(179,179,179)" stroke="none" d="M 5713,7301 C 5893,7301 6031,7438 6031,7618 6031,7798 5893,7936 5713,7936 5533,7936 5396,7798 5396,7618 5396,7438 5533,7301 5713,7301 Z M 5396,7301 L 5396,7301 Z M 6032,7937 L 6032,7937 Z"/>
       <path fill="none" stroke="rgb(0,0,0)" d="M 5713,7301 C 5893,7301 6031,7438 6031,7618 6031,7798 5893,7936 5713,7936 5533,7936 5396,7798 5396,7618 5396,7438 5533,7301 5713,7301 Z"/>
       <path fill="none" stroke="rgb(0,0,0)" d="M 5396,7301 L 5396,7301 Z"/>
       <path fill="none" stroke="rgb(0,0,0)" d="M 6032,7937 L 6032,7937 Z"/>
      </g>
     </g>
     <g class="com.sun.star.drawing.CustomShape">
      <g id="id21">
       <path fill="rgb(179,179,179)" stroke="none" d="M 2538,5396 C 2718,5396 2856,5533 2856,5713 2856,5893 2718,6031 2538,6031 2358,6031 2221,5893 2221,5713 2221,5533 2358,5396 2538,5396 Z M 2221,5396 L 2221,5396 Z M 2857,6032 L 2857,6032 Z"/>
       <path fill="none" stroke="rgb(0,0,0)" d="M 2538,5396 C 2718,5396 2856,5533 2856,5713 2856,5893 2718,6031 2538,6031 2358,6031 2221,5893 2221,5713 2221,5533 2358,5396 2538,5396 Z"/>
       <path fill="none" stroke="rgb(0,0,0)" d="M 2221,5396 L 2221,5396 Z"/>
       <path fill="none" stroke="rgb(0,0,0)" d="M 2857,6032 L 2857,6032 Z"/>
      </g>
     </g>
     <g class="com.sun.star.drawing.CustomShape">
      <g id="id22">
       <path fill="rgb(179,179,179)" stroke="none" d="M 633,8571 C 813,8571 951,8708 951,8888 951,9068 813,9206 633,9206 453,9206 316,9068 316,8888 316,8708 453,8571 633,8571 Z M 316,8571 L 316,8571 Z M 952,9207 L 952,9207 Z"/>
       <path fill="none" stroke="rgb(0,0,0)" d="M 633,8571 C 813,8571 951,8708 951,8888 951,9068 813,9206 633,9206 453,9206 316,9068 316,8888 316,8708 453,8571 633,8571 Z"/>
       <path fill="none" stroke="rgb(0,0,0)" d="M 316,8571 L 316,8571 Z"/>
       <path fill="none" stroke="rgb(0,0,0)" d="M 952,9207 L 952,9207 Z"/>
      </g>
     </g>
     <g class="com.sun.star.drawing.CustomShape">
      <g id="id23">
       <path fill="rgb(255,255,0)" stroke="none" d="M 8253,11746 C 9153,11746 9841,12433 9841,13333 9841,14233 9153,14921 8253,14921 7353,14921 6666,14233 6666,13333 6666,12433 7353,11746 8253,11746 Z M 6666,11746 L 6666,11746 Z M 9842,14922 L 9842,14922 Z"/>
       <path fill="none" stroke="rgb(0,0,0)" d="M 8253,11746 C 9153,11746 9841,12433 9841,13333 9841,14233 9153,14921 8253,14921 7353,14921 6666,14233 6666,13333 6666,12433 7353,11746 8253,11746 Z"/>
       <path fill="none" stroke="rgb(0,0,0)" d="M 6666,11746 L 6666,11746 Z"/>
       <path fill="none" stroke="rgb(0,0,0)" d="M 9842,14922 L 9842,14922 Z"/>
       <text class="TextShape"><tspan class="TextParagraph" font-family="Arial, sans-serif" font-size="2540px" font-weight="400"><tspan class="TextPosition" x="7407" y="14214"><tspan fill="rgb(0,0,0)" stroke="none">S</tspan></tspan></tspan></text>
      </g>
     </g>
     <g class="com.sun.star.drawing.CustomShape">
      <g id="id24">
       <path fill="rgb(255,255,0)" stroke="none" d="M 8888,15556 C 9068,15556 9206,15693 9206,15873 9206,16053 9068,16191 8888,16191 8708,16191 8571,16053 8571,15873 8571,15693 8708,15556 8888,15556 Z M 8571,15556 L 8571,15556 Z M 9207,16192 L 9207,16192 Z"/>
       <path fill="none" stroke="rgb(0,0,0)" d="M 8888,15556 C 9068,15556 9206,15693 9206,15873 9206,16053 9068,16191 8888,16191 8708,16191 8571,16053 8571,15873 8571,15693 8708,15556 8888,15556 Z"/>
       <path fill="none" stroke="rgb(0,0,0)" d="M 8571,15556 L 8571,15556 Z"/>
       <path fill="none" stroke="rgb(0,0,0)" d="M 9207,16192 L 9207,16192 Z"/>
      </g>
     </g>
     <g class="com.sun.star.drawing.CustomShape">
      <g id="id25">
       <path fill="rgb(255,255,0)" stroke="none" d="M 10793,12381 C 10973,12381 11111,12518 11111,12698 11111,12878 10973,13016 10793,13016 10613,13016 10476,12878 10476,12698 10476,12518 10613,12381 10793,12381 Z M 10476,12381 L 10476,12381 Z M 11112,13017 L 11112,13017 Z"/>
       <path fill="none" stroke="rgb(0,0,0)" d="M 10793,12381 C 10973,12381 11111,12518 11111,12698 11111,12878 10973,13016 10793,13016 10613,13016 10476,12878 10476,12698 10476,12518 10613,12381 10793,12381 Z"/>
       <path fill="none" stroke="rgb(0,0,0)" d="M 10476,12381 L 10476,12381 Z"/>
       <path fill="none" stroke="rgb(0,0,0)" d="M 11112,13017 L 11112,13017 Z"/>
      </g>
     </g>
     <g class="com.sun.star.drawing.CustomShape">
      <g id="id26">
       <path fill="rgb(255,255,0)" stroke="none" d="M 7618,10476 C 7798,10476 7936,10613 7936,10793 7936,10973 7798,11111 7618,11111 7438,11111 7301,10973 7301,10793 7301,10613 7438,10476 7618,10476 Z M 7301,10476 L 7301,10476 Z M 7937,11112 L 7937,11112 Z"/>
       <path fill="none" stroke="rgb(0,0,0)" d="M 7618,10476 C 7798,10476 7936,10613 7936,10793 7936,10973 7798,11111 7618,11111 7438,11111 7301,10973 7301,10793 7301,10613 7438,10476 7618,10476 Z"/>
       <path fill="none" stroke="rgb(0,0,0)" d="M 7301,10476 L 7301,10476 Z"/>
       <path fill="none" stroke="rgb(0,0,0)" d="M 7937,11112 L 7937,11112 Z"/>
      </g>
     </g>
     <g class="com.sun.star.drawing.CustomShape">
      <g id="id27">
       <path fill="rgb(255,255,0)" stroke="none" d="M 5713,13651 C 5893,13651 6031,13788 6031,13968 6031,14148 5893,14286 5713,14286 5533,14286 5396,14148 5396,13968 5396,13788 5533,13651 5713,13651 Z M 5396,13651 L 5396,13651 Z M 6032,14287 L 6032,14287 Z"/>
       <path fill="none" stroke="rgb(0,0,0)" d="M 5713,13651 C 5893,13651 6031,13788 6031,13968 6031,14148 5893,14286 5713,14286 5533,14286 5396,14148 5396,13968 5396,13788 5533,13651 5713,13651 Z"/>
       <path fill="none" stroke="rgb(0,0,0)" d="M 5396,13651 L 5396,13651 Z"/>
       <path fill="none" stroke="rgb(0,0,0)" d="M 6032,14287 L 6032,14287 Z"/>
      </g>
     </g>
     <g class="com.sun.star.drawing.CustomShape">
      <g id="id28">
       <path fill="rgb(0,0,255)" stroke="none" d="M 13332,6665 C 14232,6665 14920,7352 14920,8252 14920,9152 14232,9840 13332,9840 12432,9840 11745,9152 11745,8252 11745,7352 12432,6665 13332,6665 Z M 11745,6665 L 11745,6665 Z M 14921,9841 L 14921,9841 Z"/>
       <path fill="none" stroke="rgb(0,0,0)" d="M 13332,6665 C 14232,6665 14920,7352 14920,8252 14920,9152 14232,9840 13332,9840 12432,9840 11745,9152 11745,8252 11745,7352 12432,6665 13332,6665 Z"/>
       <path fill="none" stroke="rgb(0,0,0)" d="M 11745,6665 L 11745,6665 Z"/>
       <path fill="none" stroke="rgb(0,0,0)" d="M 14921,9841 L 14921,9841 Z"/>
       <text class="TextShape"><tspan class="TextParagraph" font-family="Arial, sans-serif" font-size="2540px" font-weight="400"><tspan class="TextPosition" x="12486" y="9133"><tspan fill="rgb(0,0,0)" stroke="none">S</tspan></tspan></tspan></text>
      </g>
     </g>
     <g class="com.sun.star.drawing.CustomShape">
      <g id="id29">
       <path fill="rgb(0,0,255)" stroke="none" d="M 13967,10475 C 14147,10475 14285,10612 14285,10792 14285,10972 14147,11110 13967,11110 13787,11110 13650,10972 13650,10792 13650,10612 13787,10475 13967,10475 Z M 13650,10475 L 13650,10475 Z M 14286,11111 L 14286,11111 Z"/>
       <path fill="none" stroke="rgb(0,0,0)" d="M 13967,10475 C 14147,10475 14285,10612 14285,10792 14285,10972 14147,11110 13967,11110 13787,11110 13650,10972 13650,10792 13650,10612 13787,10475 13967,10475 Z"/>
       <path fill="none" stroke="rgb(0,0,0)" d="M 13650,10475 L 13650,10475 Z"/>
       <path fill="none" stroke="rgb(0,0,0)" d="M 14286,11111 L 14286,11111 Z"/>
      </g>
     </g>
     <g class="com.sun.star.drawing.CustomShape">
      <g id="id30">
       <path fill="rgb(0,0,255)" stroke="none" d="M 15872,7300 C 16052,7300 16190,7437 16190,7617 16190,7797 16052,7935 15872,7935 15692,7935 15555,7797 15555,7617 15555,7437 15692,7300 15872,7300 Z M 15555,7300 L 15555,7300 Z M 16191,7936 L 16191,7936 Z"/>
       <path fill="none" stroke="rgb(0,0,0)" d="M 15872,7300 C 16052,7300 16190,7437 16190,7617 16190,7797 16052,7935 15872,7935 15692,7935 15555,7797 15555,7617 15555,7437 15692,7300 15872,7300 Z"/>
       <path fill="none" stroke="rgb(0,0,0)" d="M 15555,7300 L 15555,7300 Z"/>
       <path fill="none" stroke="rgb(0,0,0)" d="M 16191,7936 L 16191,7936 Z"/>
      </g>
     </g>
     <g class="com.sun.star.drawing.CustomShape">
      <g id="id31">
       <path fill="rgb(0,0,255)" stroke="none" d="M 12697,5395 C 12877,5395 13015,5532 13015,5712 13015,5892 12877,6030 12697,6030 12517,6030 12380,5892 12380,5712 12380,5532 12517,5395 12697,5395 Z M 12380,5395 L 12380,5395 Z M 13016,6031 L 13016,6031 Z"/>
       <path fill="none" stroke="rgb(0,0,0)" d="M 12697,5395 C 12877,5395 13015,5532 13015,5712 13015,5892 12877,6030 12697,6030 12517,6030 12380,5892 12380,5712 12380,5532 12517,5395 12697,5395 Z"/>
       <path fill="none" stroke="rgb(0,0,0)" d="M 12380,5395 L 12380,5395 Z"/>
       <path fill="none" stroke="rgb(0,0,0)" d="M 13016,6031 L 13016,6031 Z"/>
      </g>
     </g>
     <g class="com.sun.star.drawing.CustomShape">
      <g id="id32">
       <path fill="rgb(0,0,255)" stroke="none" d="M 10792,8570 C 10972,8570 11110,8707 11110,8887 11110,9067 10972,9205 10792,9205 10612,9205 10475,9067 10475,8887 10475,8707 10612,8570 10792,8570 Z M 10475,8570 L 10475,8570 Z M 11111,9206 L 11111,9206 Z"/>
       <path fill="none" stroke="rgb(0,0,0)" d="M 10792,8570 C 10972,8570 11110,8707 11110,8887 11110,9067 10972,9205 10792,9205 10612,9205 10475,9067 10475,8887 10475,8707 10612,8570 10792,8570 Z"/>
       <path fill="none" stroke="rgb(0,0,0)" d="M 10475,8570 L 10475,8570 Z"/>
       <path fill="none" stroke="rgb(0,0,0)" d="M 11111,9206 L 11111,9206 Z"/>
      </g>
     </g>
    </g>
   </g>
  </g>
 </g>
</svg>