<?xml version="1.0" encoding="UTF-8"?>
<!DOCTYPE svg PUBLIC "-//W3C//DTD SVG 1.1//EN" "http://www.w3.org/Graphics/SVG/1.1/DTD/svg11.dtd">
<svg version="1.2" width="133.35mm" height="63.5mm" viewBox="0 0 13335 6350" preserveAspectRatio="xMidYMid" fill-rule="evenodd" clip-path="url(#presentation_clip_path)" stroke-width="28.222" stroke-linejoin="round" xmlns="http://www.w3.org/2000/svg" xmlns:ooo="http://xml.openoffice.org/svg/export" xmlns:xlink="http://www.w3.org/1999/xlink" xml:space="preserve">
 <defs class="ClipPathGroup">
  <clipPath id="presentation_clip_path" clipPathUnits="userSpaceOnUse">
   <rect x="0" y="0" width="13335" height="6350"/>
  </clipPath>
 </defs>
 <defs class="TextShapeIndex">
  <g ooo:slide="id1" ooo:id-list="id3 id4 id5 id6 id7 id8 id9 id10 id11 id12 id13 id14 id15 id16 id17"/>
 </defs>
 <defs class="EmbeddedBulletChars">
  <g id="bullet-char-template(57356)" transform="scale(0.00048828125,-0.00048828125)">
   <path d="M 580,1141 L 1163,571 580,0 -4,571 580,1141 Z"/>
  </g>
  <g id="bullet-char-template(57354)" transform="scale(0.00048828125,-0.00048828125)">
   <path d="M 8,1128 L 1137,1128 1137,0 8,0 8,1128 Z"/>
  </g>
  <g id="bullet-char-template(10146)" transform="scale(0.00048828125,-0.00048828125)">
   <path d="M 174,0 L 602,739 174,1481 1456,739 174,0 Z M 1358,739 L 309,1346 659,739 1358,739 Z"/>
  </g>
  <g id="bullet-char-template(10132)" transform="scale(0.00048828125,-0.00048828125)">
   <path d="M 2015,739 L 1276,0 717,0 1260,543 174,543 174,936 1260,936 717,1481 1274,1481 2015,739 Z"/>
  </g>
  <g id="bullet-char-template(10007)" transform="scale(0.00048828125,-0.00048828125)">
   <path d="M 0,-2 C -7,14 -16,27 -25,37 L 356,567 C 262,823 215,952 215,954 215,979 228,992 255,992 264,992 276,990 289,987 310,991 331,999 354,1012 L 381,999 492,748 772,1049 836,1024 860,1049 C 881,1039 901,1025 922,1006 886,937 835,863 770,784 769,783 710,716 594,584 L 774,223 C 774,196 753,168 711,139 L 727,119 C 717,90 699,76 672,76 641,76 570,178 457,381 L 164,-76 C 142,-110 111,-127 72,-127 30,-127 9,-110 8,-76 1,-67 -2,-52 -2,-32 -2,-23 -1,-13 0,-2 Z"/>
  </g>
  <g id="bullet-char-template(10004)" transform="scale(0.00048828125,-0.00048828125)">
   <path d="M 285,-33 C 182,-33 111,30 74,156 52,228 41,333 41,471 41,549 55,616 82,672 116,743 169,778 240,778 293,778 328,747 346,684 L 369,508 C 377,444 397,411 428,410 L 1163,1116 C 1174,1127 1196,1133 1229,1133 1271,1133 1292,1118 1292,1087 L 1292,965 C 1292,929 1282,901 1262,881 L 442,47 C 390,-6 338,-33 285,-33 Z"/>
  </g>
  <g id="bullet-char-template(9679)" transform="scale(0.00048828125,-0.00048828125)">
   <path d="M 813,0 C 632,0 489,54 383,161 276,268 223,411 223,592 223,773 276,916 383,1023 489,1130 632,1184 813,1184 992,1184 1136,1130 1245,1023 1353,916 1407,772 1407,592 1407,412 1353,268 1245,161 1136,54 992,0 813,0 Z"/>
  </g>
  <g id="bullet-char-template(8226)" transform="scale(0.00048828125,-0.00048828125)">
   <path d="M 346,457 C 273,457 209,483 155,535 101,586 74,649 74,723 74,796 101,859 155,911 209,963 273,989 346,989 419,989 480,963 531,910 582,859 608,796 608,723 608,648 583,586 532,535 482,483 420,457 346,457 Z"/>
  </g>
  <g id="bullet-char-template(8211)" transform="scale(0.00048828125,-0.00048828125)">
   <path d="M -4,459 L 1135,459 1135,606 -4,606 -4,459 Z"/>
  </g>
 </defs>
 <defs class="TextEmbeddedBitmaps"/>
 <g>
  <g id="id2" class="Master_Slide">
   <g id="bg-id2" class="Background"/>
   <g id="bo-id2" class="BackgroundObjects"/>
  </g>
 </g>
 <g class="SlideGroup">
  <g>
   <g id="id1" class="Slide" clip-path="url(#presentation_clip_path)">
    <g class="Page">
     <g class="com.sun.star.drawing.CustomShape">
      <g id="id3">
       <path fill="none" stroke="rgb(0,0,0)" d="M 6377,1035 C 6410,1035 6436,1066 6436,1106 6436,1146 6410,1177 6377,1177 6344,1177 6318,1146 6318,1106 6318,1066 6344,1035 6377,1035 Z"/>
       <path fill="none" stroke="rgb(0,0,0)" d="M 3706,158 L 3706,158 Z"/>
       <path fill="none" stroke="rgb(0,0,0)" d="M 6827,2057 L 6827,2057 Z"/>
       <path fill="none" stroke="rgb(0,0,0)" d="M 3706,623 L 4258,623"/>
       <path fill="none" stroke="rgb(0,0,0)" d="M 3706,1591 L 4258,1591"/>
       <path fill="none" stroke="rgb(0,0,0)" d="M 3706,158 L 3706,158 Z"/>
       <path fill="none" stroke="rgb(0,0,0)" d="M 6827,2057 L 6827,2057 Z"/>
       <path fill="none" stroke="rgb(0,0,0)" d="M 4109,158 C 4363,641 4363,1573 4109,2057"/>
       <path fill="none" stroke="rgb(0,0,0)" d="M 3706,158 L 3706,158 Z"/>
       <path fill="none" stroke="rgb(0,0,0)" d="M 6827,2057 L 6827,2057 Z"/>
       <path fill="none" stroke="rgb(0,0,0)" d="M 4109,158 L 5049,158"/>
       <path fill="none" stroke="rgb(0,0,0)" d="M 3706,158 L 3706,158 Z"/>
       <path fill="none" stroke="rgb(0,0,0)" d="M 6827,2057 L 6827,2057 Z"/>
       <path fill="none" stroke="rgb(0,0,0)" d="M 5049,158 C 5796,158 6169,838 6259,1107"/>
       <path fill="none" stroke="rgb(0,0,0)" d="M 3706,158 L 3706,158 Z"/>
       <path fill="none" stroke="rgb(0,0,0)" d="M 6827,2057 L 6827,2057 Z"/>
       <path fill="none" stroke="rgb(0,0,0)" d="M 4109,2057 L 5049,2057"/>
       <path fill="none" stroke="rgb(0,0,0)" d="M 3706,158 L 3706,158 Z"/>
       <path fill="none" stroke="rgb(0,0,0)" d="M 6827,2057 L 6827,2057 Z"/>
       <path fill="none" stroke="rgb(0,0,0)" d="M 5049,2057 C 5796,2057 6169,1376 6259,1107"/>
       <path fill="none" stroke="rgb(0,0,0)" d="M 3706,158 L 3706,158 Z"/>
       <path fill="none" stroke="rgb(0,0,0)" d="M 6827,2057 L 6827,2057 Z"/>
       <path fill="none" stroke="rgb(0,0,0)" d="M 6498,1107 L 6827,1107"/>
       <path fill="none" stroke="rgb(0,0,0)" d="M 3706,158 L 3706,158 Z"/>
       <path fill="none" stroke="rgb(0,0,0)" d="M 6827,2057 L 6827,2057 Z"/>
      </g>
     </g>
     <g class="com.sun.star.drawing.CustomShape">
      <g id="id4">
       <path fill="none" stroke="rgb(0,0,0)" d="M 6377,5165 C 6410,5165 6436,5196 6436,5236 6436,5276 6410,5307 6377,5307 6344,5307 6318,5276 6318,5236 6318,5196 6344,5165 6377,5165 Z"/>
       <path fill="none" stroke="rgb(0,0,0)" d="M 3706,4284 L 3706,4284 Z"/>
       <path fill="none" stroke="rgb(0,0,0)" d="M 6827,6190 L 6827,6190 Z"/>
       <path fill="none" stroke="rgb(0,0,0)" d="M 3706,4751 L 4258,4751"/>
       <path fill="none" stroke="rgb(0,0,0)" d="M 3706,5722 L 4258,5722"/>
       <path fill="none" stroke="rgb(0,0,0)" d="M 3706,4284 L 3706,4284 Z"/>
       <path fill="none" stroke="rgb(0,0,0)" d="M 6827,6190 L 6827,6190 Z"/>
       <path fill="none" stroke="rgb(0,0,0)" d="M 4109,4284 C 4363,4769 4363,5704 4109,6190"/>
       <path fill="none" stroke="rgb(0,0,0)" d="M 3706,4284 L 3706,4284 Z"/>
       <path fill="none" stroke="rgb(0,0,0)" d="M 6827,6190 L 6827,6190 Z"/>
       <path fill="none" stroke="rgb(0,0,0)" d="M 4109,4284 L 5049,4284"/>
       <path fill="none" stroke="rgb(0,0,0)" d="M 3706,4284 L 3706,4284 Z"/>
       <path fill="none" stroke="rgb(0,0,0)" d="M 6827,6190 L 6827,6190 Z"/>
       <path fill="none" stroke="rgb(0,0,0)" d="M 5049,4284 C 5796,4284 6169,4967 6259,5237"/>
       <path fill="none" stroke="rgb(0,0,0)" d="M 3706,4284 L 3706,4284 Z"/>
       <path fill="none" stroke="rgb(0,0,0)" d="M 6827,6190 L 6827,6190 Z"/>
       <path fill="none" stroke="rgb(0,0,0)" d="M 4109,6190 L 5049,6190"/>
       <path fill="none" stroke="rgb(0,0,0)" d="M 3706,4284 L 3706,4284 Z"/>
       <path fill="none" stroke="rgb(0,0,0)" d="M 6827,6190 L 6827,6190 Z"/>
       <path fill="none" stroke="rgb(0,0,0)" d="M 5049,6190 C 5796,6190 6169,5506 6259,5237"/>
       <path fill="none" stroke="rgb(0,0,0)" d="M 3706,4284 L 3706,4284 Z"/>
       <path fill="none" stroke="rgb(0,0,0)" d="M 6827,6190 L 6827,6190 Z"/>
       <path fill="none" stroke="rgb(0,0,0)" d="M 6498,5237 L 6827,5237"/>
       <path fill="none" stroke="rgb(0,0,0)" d="M 3706,4284 L 3706,4284 Z"/>
       <path fill="none" stroke="rgb(0,0,0)" d="M 6827,6190 L 6827,6190 Z"/>
      </g>
     </g>
     <g class="com.sun.star.drawing.CustomShape">
      <g id="id5">
       <text class="TextShape"><tspan class="TextParagraph" font-family="Arial, sans-serif" font-size="494px" font-weight="400"><tspan class="TextPosition" x="310" y="5886"><tspan fill="rgb(0,0,0)" stroke="none">S</tspan></tspan></tspan></text>
      </g>
     </g>
     <g class="com.sun.star.drawing.ConnectorShape">
      <g id="id6">
       <path fill="none" stroke="rgb(0,0,0)" d="M 794,5714 L 2249,5714 2249,5722 3706,5722"/>
      </g>
     </g>
     <g class="com.sun.star.drawing.CustomShape">
      <g id="id7">
       <text class="TextShape"><tspan class="TextParagraph" font-family="Arial, sans-serif" font-size="494px" font-weight="400"><tspan class="TextPosition" x="297" y="805"><tspan fill="rgb(0,0,0)" stroke="none">R</tspan></tspan></tspan></text>
      </g>
     </g>
     <g class="com.sun.star.drawing.ConnectorShape">
      <g id="id8">
       <path fill="none" stroke="rgb(0,0,0)" d="M 794,634 L 2249,634 2249,624 3706,624"/>
      </g>
     </g>
     <g class="com.sun.star.drawing.CustomShape">
      <g id="id9"/>
     </g>
     <g class="com.sun.star.drawing.CustomShape">
      <g id="id10">
       <text class="TextShape"><tspan class="TextParagraph" font-family="Arial, sans-serif" font-size="494px" font-weight="400"><tspan class="TextPosition" x="12665" y="1282"><tspan fill="rgb(0,0,0)" stroke="none">Q</tspan></tspan></tspan></text>
      </g>
     </g>
     <g class="com.sun.star.drawing.ConnectorShape">
      <g id="id11">
       <path fill="none" stroke="rgb(0,0,0)" d="M 6826,1107 L 9684,1107 9684,1110 12541,1110"/>
      </g>
     </g>
     <g class="com.sun.star.drawing.CustomShape">
      <g id="id12">
       <path fill="rgb(0,0,0)" stroke="none" d="M 7779,951 C 7869,951 7938,1020 7938,1110 7938,1200 7869,1269 7779,1269 7689,1269 7620,1200 7620,1110 7620,1020 7689,951 7779,951 Z M 7620,951 L 7620,951 Z M 7939,1270 L 7939,1270 Z"/>
       <path fill="none" stroke="rgb(0,0,0)" d="M 7779,951 C 7869,951 7938,1020 7938,1110 7938,1200 7869,1269 7779,1269 7689,1269 7620,1200 7620,1110 7620,1020 7689,951 7779,951 Z"/>
       <path fill="none" stroke="rgb(0,0,0)" d="M 7620,951 L 7620,951 Z"/>
       <path fill="none" stroke="rgb(0,0,0)" d="M 7939,1270 L 7939,1270 Z"/>
      </g>
     </g>
     <g class="com.sun.star.drawing.ConnectorShape">
      <g id="id13">
       <path fill="none" stroke="rgb(0,0,0)" d="M 6826,5237 L 7779,5237 7779,3333 3205,3333 3205,1590 3706,1590"/>
      </g>
     </g>
     <g class="com.sun.star.drawing.ConnectorShape">
      <g id="id14">
       <path fill="none" stroke="rgb(0,0,0)" d="M 7779,1269 L 7779,2777 2699,2777 2699,4752 3706,4752"/>
      </g>
     </g>
     <g class="com.sun.star.drawing.CustomShape">
      <g id="id15">
       <path fill="rgb(0,0,0)" stroke="none" d="M 7778,5078 C 7868,5078 7937,5147 7937,5237 7937,5327 7868,5396 7778,5396 7688,5396 7619,5327 7619,5237 7619,5147 7688,5078 7778,5078 Z M 7619,5078 L 7619,5078 Z M 7938,5397 L 7938,5397 Z"/>
       <path fill="none" stroke="rgb(0,0,0)" d="M 7778,5078 C 7868,5078 7937,5147 7937,5237 7937,5327 7868,5396 7778,5396 7688,5396 7619,5327 7619,5237 7619,5147 7688,5078 7778,5078 Z"/>
       <path fill="none" stroke="rgb(0,0,0)" d="M 7619,5078 L 7619,5078 Z"/>
       <path fill="none" stroke="rgb(0,0,0)" d="M 7938,5397 L 7938,5397 Z"/>
      </g>
     </g>
     <g class="com.sun.star.drawing.CustomShape">
      <g id="id16">
       <text class="TextShape"><tspan class="TextParagraph" font-family="Arial, sans-serif" font-size="494px" font-weight="400"><tspan class="TextPosition" x="12459" y="5410"><tspan fill="rgb(0,0,0)" stroke="none">Q&apos;</tspan></tspan></tspan></text>
      </g>
     </g>
     <g class="com.sun.star.drawing.ConnectorShape">
      <g id="id17">
       <path fill="none" stroke="rgb(0,0,0)" d="M 7937,5237 L 10160,5237 10160,5238 12382,5238"/>
      </g>
     </g>
    </g>
   </g>
  </g>
 </g>
</svg>