<?xml version="1.0" encoding="UTF-8"?>
<!DOCTYPE svg PUBLIC "-//W3C//DTD SVG 1.1//EN" "http://www.w3.org/Graphics/SVG/1.1/DTD/svg11.dtd">
<svg version="1.2" width="260.35mm" height="69.85mm" viewBox="0 0 26035 6985" preserveAspectRatio="xMidYMid" fill-rule="evenodd" clip-path="url(#presentation_clip_path)" stroke-width="28.222" stroke-linejoin="round" xmlns="http://www.w3.org/2000/svg" xmlns:ooo="http://xml.openoffice.org/svg/export" xmlns:xlink="http://www.w3.org/1999/xlink" xml:space="preserve">
 <defs class="ClipPathGroup">
  <clipPath id="presentation_clip_path" clipPathUnits="userSpaceOnUse">
   <rect x="0" y="0" width="26035" height="6985"/>
  </clipPath>
 </defs>
 <defs class="TextShapeIndex">
  <g ooo:slide="id1" ooo:id-list="id3 id4 id5 id6 id7 id8 id9 id10 id11 id12 id13 id14 id15 id16 id17 id18 id19 id20"/>
 </defs>
 <defs class="EmbeddedBulletChars">
  <g id="bullet-char-template(57356)" transform="scale(0.00048828125,-0.00048828125)">
   <path d="M 580,1141 L 1163,571 580,0 -4,571 580,1141 Z"/>
  </g>
  <g id="bullet-char-template(57354)" transform="scale(0.00048828125,-0.00048828125)">
   <path d="M 8,1128 L 1137,1128 1137,0 8,0 8,1128 Z"/>
  </g>
  <g id="bullet-char-template(10146)" transform="scale(0.00048828125,-0.00048828125)">
   <path d="M 174,0 L 602,739 174,1481 1456,739 174,0 Z M 1358,739 L 309,1346 659,739 1358,739 Z"/>
  </g>
  <g id="bullet-char-template(10132)" transform="scale(0.00048828125,-0.00048828125)">
   <path d="M 2015,739 L 1276,0 717,0 1260,543 174,543 174,936 1260,936 717,1481 1274,1481 2015,739 Z"/>
  </g>
  <g id="bullet-char-template(10007)" transform="scale(0.00048828125,-0.00048828125)">
   <path d="M 0,-2 C -7,14 -16,27 -25,37 L 356,567 C 262,823 215,952 215,954 215,979 228,992 255,992 264,992 276,990 289,987 310,991 331,999 354,1012 L 381,999 492,748 772,1049 836,1024 860,1049 C 881,1039 901,1025 922,1006 886,937 835,863 770,784 769,783 710,716 594,584 L 774,223 C 774,196 753,168 711,139 L 727,119 C 717,90 699,76 672,76 641,76 570,178 457,381 L 164,-76 C 142,-110 111,-127 72,-127 30,-127 9,-110 8,-76 1,-67 -2,-52 -2,-32 -2,-23 -1,-13 0,-2 Z"/>
  </g>
  <g id="bullet-char-template(10004)" transform="scale(0.00048828125,-0.00048828125)">
   <path d="M 285,-33 C 182,-33 111,30 74,156 52,228 41,333 41,471 41,549 55,616 82,672 116,743 169,778 240,778 293,778 328,747 346,684 L 369,508 C 377,444 397,411 428,410 L 1163,1116 C 1174,1127 1196,1133 1229,1133 1271,1133 1292,1118 1292,1087 L 1292,965 C 1292,929 1282,901 1262,881 L 442,47 C 390,-6 338,-33 285,-33 Z"/>
  </g>
  <g id="bullet-char-template(9679)" transform="scale(0.00048828125,-0.00048828125)">
   <path d="M 813,0 C 632,0 489,54 383,161 276,268 223,411 223,592 223,773 276,916 383,1023 489,1130 632,1184 813,1184 992,1184 1136,1130 1245,1023 1353,916 1407,772 1407,592 1407,412 1353,268 1245,161 1136,54 992,0 813,0 Z"/>
  </g>
  <g id="bullet-char-template(8226)" transform="scale(0.00048828125,-0.00048828125)">
   <path d="M 346,457 C 273,457 209,483 155,535 101,586 74,649 74,723 74,796 101,859 155,911 209,963 273,989 346,989 419,989 480,963 531,910 582,859 608,796 608,723 608,648 583,586 532,535 482,483 420,457 346,457 Z"/>
  </g>
  <g id="bullet-char-template(8211)" transform="scale(0.00048828125,-0.00048828125)">
   <path d="M -4,459 L 1135,459 1135,606 -4,606 -4,459 Z"/>
  </g>
 </defs>
 <defs class="TextEmbeddedBitmaps"/>
 <g>
  <g id="id2" class="Master_Slide">
   <g id="bg-id2" class="Background"/>
   <g id="bo-id2" class="BackgroundObjects"/>
  </g>
 </g>
 <g class="SlideGroup">
  <g>
   <g id="id1" class="Slide" clip-path="url(#presentation_clip_path)">
    <g class="Page">
     <g class="com.sun.star.drawing.CustomShape">
      <g id="id3">
       <path fill="none" stroke="rgb(0,0,0)" d="M 316,2698 L 4762,2698 4762,3969 316,3969 316,2698 316,2698 Z"/>
       <path fill="none" stroke="rgb(0,0,0)" d="M 316,2698 L 316,2698 Z"/>
       <path fill="none" stroke="rgb(0,0,0)" d="M 4762,3969 L 4762,3969 Z"/>
       <text class="TextShape"><tspan class="TextParagraph" font-family="Arial, sans-serif" font-size="494px" font-weight="400"><tspan class="TextPosition" x="1061" y="3505"><tspan fill="rgb(255,0,0)" stroke="none">Bulk In Buffer</tspan></tspan></tspan></text>
      </g>
     </g>
     <g class="com.sun.star.drawing.CustomShape">
      <g id="id4">
       <path fill="none" stroke="rgb(0,0,0)" d="M 316,1428 L 4762,1428 4762,2699 316,2699 316,1428 316,1428 Z"/>
       <path fill="none" stroke="rgb(0,0,0)" d="M 316,1428 L 316,1428 Z"/>
       <path fill="none" stroke="rgb(0,0,0)" d="M 4762,2699 L 4762,2699 Z"/>
       <text class="TextShape"><tspan class="TextParagraph" font-family="Arial, sans-serif" font-size="494px" font-weight="400"><tspan class="TextPosition" x="869" y="2235"><tspan fill="rgb(0,0,0)" stroke="none">Bulk Out Buffer</tspan></tspan></tspan></text>
      </g>
     </g>
     <g class="com.sun.star.drawing.CustomShape">
      <g id="id5">
       <path fill="none" stroke="rgb(0,0,0)" d="M 316,3968 L 4762,3968 4762,5239 316,5239 316,3968 316,3968 Z"/>
       <path fill="none" stroke="rgb(0,0,0)" d="M 316,3968 L 316,3968 Z"/>
       <path fill="none" stroke="rgb(0,0,0)" d="M 4762,5239 L 4762,5239 Z"/>
       <text class="TextShape"><tspan class="TextParagraph" font-family="Arial, sans-serif" font-size="494px" font-weight="400"><tspan class="TextPosition" x="428" y="4775"><tspan fill="rgb(0,0,0)" stroke="none">Interrupt Out Buffer</tspan></tspan></tspan></text>
      </g>
     </g>
     <g class="com.sun.star.drawing.CustomShape">
      <g id="id6">
       <path fill="none" stroke="rgb(0,0,0)" d="M 20636,5238 L 25082,5238 25082,6509 20636,6509 20636,5238 20636,5238 Z"/>
       <path fill="none" stroke="rgb(0,0,0)" d="M 20636,5238 L 20636,5238 Z"/>
       <path fill="none" stroke="rgb(0,0,0)" d="M 25082,6509 L 25082,6509 Z"/>
       <text class="TextShape"><tspan class="TextParagraph" font-family="Arial, sans-serif" font-size="494px" font-weight="400"><tspan class="TextPosition" x="20941" y="6045"><tspan fill="rgb(0,0,0)" stroke="none">Interrupt In Buffer</tspan></tspan></tspan></text>
      </g>
     </g>
     <g class="com.sun.star.drawing.CustomShape">
      <g id="id7">
       <path fill="none" stroke="rgb(0,0,0)" d="M 20636,2698 L 25082,2698 25082,3969 20636,3969 20636,2698 20636,2698 Z"/>
       <path fill="none" stroke="rgb(0,0,0)" d="M 20636,2698 L 20636,2698 Z"/>
       <path fill="none" stroke="rgb(0,0,0)" d="M 25082,3969 L 25082,3969 Z"/>
       <text class="TextShape"><tspan class="TextParagraph" font-family="Arial, sans-serif" font-size="494px" font-weight="400"><tspan class="TextPosition" x="21381" y="3505"><tspan fill="rgb(255,0,0)" stroke="none">Bulk In Buffer</tspan></tspan></tspan></text>
      </g>
     </g>
     <g class="com.sun.star.drawing.CustomShape">
      <g id="id8">
       <path fill="none" stroke="rgb(0,0,0)" d="M 20636,1428 L 25082,1428 25082,2699 20636,2699 20636,1428 20636,1428 Z"/>
       <path fill="none" stroke="rgb(0,0,0)" d="M 20636,1428 L 20636,1428 Z"/>
       <path fill="none" stroke="rgb(0,0,0)" d="M 25082,2699 L 25082,2699 Z"/>
       <text class="TextShape"><tspan class="TextParagraph" font-family="Arial, sans-serif" font-size="494px" font-weight="400"><tspan class="TextPosition" x="21189" y="2235"><tspan fill="rgb(0,0,0)" stroke="none">Bulk Out Buffer</tspan></tspan></tspan></text>
      </g>
     </g>
     <g class="com.sun.star.drawing.CustomShape">
      <g id="id9">
       <path fill="none" stroke="rgb(0,0,0)" d="M 20636,3968 L 25082,3968 25082,5239 20636,5239 20636,3968 20636,3968 Z"/>
       <path fill="none" stroke="rgb(0,0,0)" d="M 20636,3968 L 20636,3968 Z"/>
       <path fill="none" stroke="rgb(0,0,0)" d="M 25082,5239 L 25082,5239 Z"/>
       <text class="TextShape"><tspan class="TextParagraph" font-family="Arial, sans-serif" font-size="494px" font-weight="400"><tspan class="TextPosition" x="20748" y="4775"><tspan fill="rgb(0,0,0)" stroke="none">Interrupt Out Buffer</tspan></tspan></tspan></text>
      </g>
     </g>
     <g class="com.sun.star.drawing.CustomShape">
      <g id="id10">
       <path fill="none" stroke="rgb(0,0,0)" d="M 316,5238 L 4762,5238 4762,6509 316,6509 316,5238 316,5238 Z"/>
       <path fill="none" stroke="rgb(0,0,0)" d="M 316,5238 L 316,5238 Z"/>
       <path fill="none" stroke="rgb(0,0,0)" d="M 4762,6509 L 4762,6509 Z"/>
       <text class="TextShape"><tspan class="TextParagraph" font-family="Arial, sans-serif" font-size="494px" font-weight="400"><tspan class="TextPosition" x="621" y="6045"><tspan fill="rgb(0,0,0)" stroke="none">Interrupt In Buffer</tspan></tspan></tspan></text>
      </g>
     </g>
     <g class="com.sun.star.drawing.CustomShape">
      <g id="id11">
       <text class="TextShape"><tspan class="TextParagraph" font-family="Arial, sans-serif" font-size="494px" font-weight="400"><tspan class="TextPosition" x="2031" y="965"><tspan fill="rgb(0,0,0)" stroke="none">Host</tspan></tspan></tspan></text>
      </g>
     </g>
     <g class="com.sun.star.drawing.CustomShape">
      <g id="id12">
       <text class="TextShape"><tspan class="TextParagraph" font-family="Arial, sans-serif" font-size="494px" font-weight="400"><tspan class="TextPosition" x="22103" y="965"><tspan fill="rgb(0,0,0)" stroke="none">Device</tspan></tspan></tspan></text>
      </g>
     </g>
     <g class="com.sun.star.drawing.ConnectorShape">
      <g id="id13">
       <path fill="none" stroke="rgb(0,0,0)" d="M 18732,4603 L 19233,4603 20135,2063 20207,2063"/>
       <path fill="rgb(0,0,0)" stroke="none" d="M 20637,2063 L 20187,1913 20187,2213 20637,2063 Z"/>
      </g>
     </g>
     <g class="com.sun.star.drawing.ConnectorShape">
      <g id="id14">
       <path fill="none" stroke="rgb(255,0,0)" d="M 20637,3333 L 20135,3333 19233,4603 19162,4603"/>
       <path fill="rgb(255,0,0)" stroke="none" d="M 18732,4603 L 19182,4753 19182,4453 18732,4603 Z"/>
      </g>
     </g>
     <g class="com.sun.star.drawing.ConnectorShape">
      <g id="id15">
       <path fill="none" stroke="rgb(255,0,0)" d="M 6667,4603 L 6165,4603 5263,3333 5192,3333"/>
       <path fill="rgb(255,0,0)" stroke="none" d="M 4762,3333 L 5212,3483 5212,3183 4762,3333 Z"/>
      </g>
     </g>
     <g class="com.sun.star.drawing.ConnectorShape">
      <g id="id16">
       <path fill="none" stroke="rgb(0,0,0)" d="M 4762,2063 L 5263,2063 6165,4603 6237,4603"/>
       <path fill="rgb(0,0,0)" stroke="none" d="M 6667,4603 L 6217,4453 6217,4753 6667,4603 Z"/>
      </g>
     </g>
     <g class="com.sun.star.drawing.CustomShape">
      <g id="id17">
       <path fill="none" stroke="rgb(0,0,0)" d="M 6666,3333 L 9842,3333 9842,5874 6666,5874 6666,3333 6666,3333 Z"/>
       <path fill="none" stroke="rgb(0,0,0)" d="M 6666,3333 L 6666,3333 Z"/>
       <path fill="none" stroke="rgb(0,0,0)" d="M 9842,5874 L 9842,5874 Z"/>
       <text class="TextShape"><tspan class="TextParagraph" font-family="Arial, sans-serif" font-size="494px" font-weight="400"><tspan class="TextPosition" x="7170" y="4497"><tspan fill="rgb(0,0,0)" stroke="none">USB Host</tspan></tspan><tspan class="TextPosition" x="7183" y="5052"><tspan fill="rgb(0,0,0)" stroke="none">Controller</tspan></tspan></tspan></text>
      </g>
     </g>
     <g class="com.sun.star.drawing.CustomShape">
      <g id="id18">
       <path fill="none" stroke="rgb(0,0,0)" d="M 15556,3333 L 18732,3333 18732,5874 15556,5874 15556,3333 15556,3333 Z"/>
       <path fill="none" stroke="rgb(0,0,0)" d="M 15556,3333 L 15556,3333 Z"/>
       <path fill="none" stroke="rgb(0,0,0)" d="M 18732,5874 L 18732,5874 Z"/>
       <text class="TextShape"><tspan class="TextParagraph" font-family="Arial, sans-serif" font-size="494px" font-weight="400"><tspan class="TextPosition" x="15812" y="4497"><tspan fill="rgb(0,0,0)" stroke="none">USB Device</tspan></tspan><tspan class="TextPosition" x="16073" y="5052"><tspan fill="rgb(0,0,0)" stroke="none">Controller</tspan></tspan></tspan></text>
      </g>
     </g>
     <g class="com.sun.star.drawing.ConnectorShape">
      <g id="id19">
       <path fill="none" stroke="rgb(0,0,0)" d="M 10272,4603 L 10343,4603 15055,4603 15127,4603"/>
       <path fill="rgb(0,0,0)" stroke="none" d="M 9842,4603 L 10292,4753 10292,4453 9842,4603 Z"/>
       <path fill="rgb(0,0,0)" stroke="none" d="M 15557,4603 L 15107,4453 15107,4753 15557,4603 Z"/>
      </g>
     </g>
     <g class="com.sun.star.drawing.CustomShape">
      <g id="id20">
       <text class="TextShape"><tspan class="TextParagraph" font-family="Arial, sans-serif" font-size="494px" font-weight="400"><tspan class="TextPosition" x="10324" y="4297"><tspan fill="rgb(0,0,0)" stroke="none">USB Packetized Data</tspan></tspan></tspan></text>
      </g>
     </g>
    </g>
   </g>
  </g>
 </g>
</svg>