<?xml version="1.0" encoding="UTF-8"?>
<!DOCTYPE svg PUBLIC "-//W3C//DTD SVG 1.1//EN" "http://www.w3.org/Graphics/SVG/1.1/DTD/svg11.dtd">
<svg version="1.2" width="184.15mm" height="158.75mm" viewBox="0 0 18415 15875" preserveAspectRatio="xMidYMid" fill-rule="evenodd" clip-path="url(#presentation_clip_path)" stroke-width="28.222" stroke-linejoin="round" xmlns="http://www.w3.org/2000/svg" xmlns:ooo="http://xml.openoffice.org/svg/export" xmlns:xlink="http://www.w3.org/1999/xlink" xml:space="preserve">
 <defs class="ClipPathGroup">
  <clipPath id="presentation_clip_path" clipPathUnits="userSpaceOnUse">
   <rect x="0" y="0" width="18415" height="15875"/>
  </clipPath>
 </defs>
 <defs class="TextShapeIndex">
  <g ooo:slide="id1" ooo:id-list="id3 id4 id5 id6 id7 id8 id9 id10 id11 id12 id13 id14 id15 id16 id17 id18 id19 id20 id21"/>
 </defs>
 <defs class="EmbeddedBulletChars">
  <g id="bullet-char-template(57356)" transform="scale(0.00048828125,-0.00048828125)">
   <path d="M 580,1141 L 1163,571 580,0 -4,571 580,1141 Z"/>
  </g>
  <g id="bullet-char-template(57354)" transform="scale(0.00048828125,-0.00048828125)">
   <path d="M 8,1128 L 1137,1128 1137,0 8,0 8,1128 Z"/>
  </g>
  <g id="bullet-char-template(10146)" transform="scale(0.00048828125,-0.00048828125)">
   <path d="M 174,0 L 602,739 174,1481 1456,739 174,0 Z M 1358,739 L 309,1346 659,739 1358,739 Z"/>
  </g>
  <g id="bullet-char-template(10132)" transform="scale(0.00048828125,-0.00048828125)">
   <path d="M 2015,739 L 1276,0 717,0 1260,543 174,543 174,936 1260,936 717,1481 1274,1481 2015,739 Z"/>
  </g>
  <g id="bullet-char-template(10007)" transform="scale(0.00048828125,-0.00048828125)">
   <path d="M 0,-2 C -7,14 -16,27 -25,37 L 356,567 C 262,823 215,952 215,954 215,979 228,992 255,992 264,992 276,990 289,987 310,991 331,999 354,1012 L 381,999 492,748 772,1049 836,1024 860,1049 C 881,1039 901,1025 922,1006 886,937 835,863 770,784 769,783 710,716 594,584 L 774,223 C 774,196 753,168 711,139 L 727,119 C 717,90 699,76 672,76 641,76 570,178 457,381 L 164,-76 C 142,-110 111,-127 72,-127 30,-127 9,-110 8,-76 1,-67 -2,-52 -2,-32 -2,-23 -1,-13 0,-2 Z"/>
  </g>
  <g id="bullet-char-template(10004)" transform="scale(0.00048828125,-0.00048828125)">
   <path d="M 285,-33 C 182,-33 111,30 74,156 52,228 41,333 41,471 41,549 55,616 82,672 116,743 169,778 240,778 293,778 328,747 346,684 L 369,508 C 377,444 397,411 428,410 L 1163,1116 C 1174,1127 1196,1133 1229,1133 1271,1133 1292,1118 1292,1087 L 1292,965 C 1292,929 1282,901 1262,881 L 442,47 C 390,-6 338,-33 285,-33 Z"/>
  </g>
  <g id="bullet-char-template(9679)" transform="scale(0.00048828125,-0.00048828125)">
   <path d="M 813,0 C 632,0 489,54 383,161 276,268 223,411 223,592 223,773 276,916 383,1023 489,1130 632,1184 813,1184 992,1184 1136,1130 1245,1023 1353,916 1407,772 1407,592 1407,412 1353,268 1245,161 1136,54 992,0 813,0 Z"/>
  </g>
  <g id="bullet-char-template(8226)" transform="scale(0.00048828125,-0.00048828125)">
   <path d="M 346,457 C 273,457 209,483 155,535 101,586 74,649 74,723 74,796 101,859 155,911 209,963 273,989 346,989 419,989 480,963 531,910 582,859 608,796 608,723 608,648 583,586 532,535 482,483 420,457 346,457 Z"/>
  </g>
  <g id="bullet-char-template(8211)" transform="scale(0.00048828125,-0.00048828125)">
   <path d="M -4,459 L 1135,459 1135,606 -4,606 -4,459 Z"/>
  </g>
 </defs>
 <defs class="TextEmbeddedBitmaps"/>
 <g>
  <g id="id2" class="Master_Slide">
   <g id="bg-id2" class="Background"/>
   <g id="bo-id2" class="BackgroundObjects"/>
  </g>
 </g>
 <g class="SlideGroup">
  <g>
   <g id="id1" class="Slide" clip-path="url(#presentation_clip_path)">
    <g class="Page">
     <g class="com.sun.star.drawing.CustomShape">
      <g id="id3">
       <path fill="none" stroke="rgb(0,0,0)" d="M 5715,635 L 9526,635 9526,1906 5715,1906 5715,635 5715,635 Z"/>
       <path fill="none" stroke="rgb(0,0,0)" d="M 5715,635 L 5715,635 Z"/>
       <path fill="none" stroke="rgb(0,0,0)" d="M 9526,1906 L 9526,1906 Z"/>
       <text class="TextShape"><tspan class="TextParagraph" font-family="Arial, sans-serif" font-size="494px" font-weight="400"><tspan class="TextPosition" x="6151" y="1442"><tspan fill="rgb(0,0,0)" stroke="none">Configuration</tspan></tspan></tspan></text>
      </g>
     </g>
     <g class="com.sun.star.drawing.CustomShape">
      <g id="id4">
       <path fill="none" stroke="rgb(0,0,0)" d="M 635,3175 L 4446,3175 4446,4446 635,4446 635,3175 635,3175 Z"/>
       <path fill="none" stroke="rgb(0,0,0)" d="M 635,3175 L 635,3175 Z"/>
       <path fill="none" stroke="rgb(0,0,0)" d="M 4446,4446 L 4446,4446 Z"/>
       <text class="TextShape"><tspan class="TextParagraph" font-family="Arial, sans-serif" font-size="494px" font-weight="400"><tspan class="TextPosition" x="1141" y="3704"><tspan fill="rgb(0,0,0)" stroke="none">Comm. ACM</tspan></tspan></tspan><tspan class="TextParagraph" font-family="Arial, sans-serif" font-size="494px" font-weight="400"><tspan class="TextPosition" x="893" y="4259"><tspan fill="rgb(0,0,0)" stroke="none">Class Interface</tspan></tspan></tspan></text>
      </g>
     </g>
     <g class="com.sun.star.drawing.CustomShape">
      <g id="id5">
       <path fill="none" stroke="rgb(0,0,0)" d="M 10795,3175 L 14606,3175 14606,4446 10795,4446 10795,3175 10795,3175 Z"/>
       <path fill="none" stroke="rgb(0,0,0)" d="M 10795,3175 L 10795,3175 Z"/>
       <path fill="none" stroke="rgb(0,0,0)" d="M 14606,4446 L 14606,4446 Z"/>
       <text class="TextShape"><tspan class="TextParagraph" font-family="Arial, sans-serif" font-size="494px" font-weight="400"><tspan class="TextPosition" x="11246" y="3704"><tspan fill="rgb(0,0,0)" stroke="none">Comm. Data </tspan></tspan></tspan><tspan class="TextParagraph" font-family="Arial, sans-serif" font-size="494px" font-weight="400"><tspan class="TextPosition" x="11053" y="4259"><tspan fill="rgb(0,0,0)" stroke="none">Class Interface</tspan></tspan></tspan></text>
      </g>
     </g>
     <g class="com.sun.star.drawing.CustomShape">
      <g id="id6">
       <path fill="none" stroke="rgb(0,0,0)" d="M 3175,13970 L 6986,13970 6986,15241 3175,15241 3175,13970 3175,13970 Z"/>
       <path fill="none" stroke="rgb(0,0,0)" d="M 3175,13970 L 3175,13970 Z"/>
       <path fill="none" stroke="rgb(0,0,0)" d="M 6986,15241 L 6986,15241 Z"/>
       <text class="TextShape"><tspan class="TextParagraph" font-family="Arial, sans-serif" font-size="494px" font-weight="400"><tspan class="TextPosition" x="3886" y="14499"><tspan fill="rgb(0,0,0)" stroke="none">Interrupt In</tspan></tspan><tspan class="TextPosition" x="4104" y="15054"><tspan fill="rgb(0,0,0)" stroke="none">Endpoint</tspan></tspan></tspan></text>
      </g>
     </g>
     <g class="com.sun.star.drawing.CustomShape">
      <g id="id7">
       <path fill="none" stroke="rgb(0,0,0)" d="M 13335,5715 L 17146,5715 17146,6986 13335,6986 13335,5715 13335,5715 Z"/>
       <path fill="none" stroke="rgb(0,0,0)" d="M 13335,5715 L 13335,5715 Z"/>
       <path fill="none" stroke="rgb(0,0,0)" d="M 17146,6986 L 17146,6986 Z"/>
       <text class="TextShape"><tspan class="TextParagraph" font-family="Arial, sans-serif" font-size="494px" font-weight="400"><tspan class="TextPosition" x="14485" y="6244"><tspan fill="rgb(0,0,0)" stroke="none">Bulk In</tspan></tspan></tspan><tspan class="TextParagraph" font-family="Arial, sans-serif" font-size="494px" font-weight="400"><tspan class="TextPosition" x="14264" y="6799"><tspan fill="rgb(0,0,0)" stroke="none">Endpoint</tspan></tspan></tspan></text>
      </g>
     </g>
     <g class="com.sun.star.drawing.CustomShape">
      <g id="id8">
       <path fill="none" stroke="rgb(0,0,0)" d="M 13335,8255 L 17146,8255 17146,9526 13335,9526 13335,8255 13335,8255 Z"/>
       <path fill="none" stroke="rgb(0,0,0)" d="M 13335,8255 L 13335,8255 Z"/>
       <path fill="none" stroke="rgb(0,0,0)" d="M 17146,9526 L 17146,9526 Z"/>
       <text class="TextShape"><tspan class="TextParagraph" font-family="Arial, sans-serif" font-size="494px" font-weight="400"><tspan class="TextPosition" x="14292" y="8784"><tspan fill="rgb(0,0,0)" stroke="none">Bulk Out</tspan></tspan></tspan><tspan class="TextParagraph" font-family="Arial, sans-serif" font-size="494px" font-weight="400"><tspan class="TextPosition" x="14264" y="9339"><tspan fill="rgb(0,0,0)" stroke="none">Endpoint</tspan></tspan></tspan></text>
      </g>
     </g>
     <g class="com.sun.star.drawing.CustomShape">
      <g id="id9">
       <path fill="none" stroke="rgb(0,0,0)" d="M 3175,5715 L 6986,5715 6986,6986 3175,6986 3175,5715 3175,5715 Z"/>
       <path fill="none" stroke="rgb(0,0,0)" d="M 3175,5715 L 3175,5715 Z"/>
       <path fill="none" stroke="rgb(0,0,0)" d="M 6986,6986 L 6986,6986 Z"/>
       <text class="TextShape"><tspan class="TextParagraph" font-family="Arial, sans-serif" font-size="494px" font-weight="400"><tspan class="TextPosition" x="3666" y="6522"><tspan fill="rgb(0,0,0)" stroke="none">CDC Header</tspan></tspan></tspan></text>
      </g>
     </g>
     <g class="com.sun.star.drawing.CustomShape">
      <g id="id10">
       <path fill="none" stroke="rgb(0,0,0)" d="M 6350,7620 L 10161,7620 10161,8891 6350,8891 6350,7620 6350,7620 Z"/>
       <path fill="none" stroke="rgb(0,0,0)" d="M 6350,7620 L 6350,7620 Z"/>
       <path fill="none" stroke="rgb(0,0,0)" d="M 10161,8891 L 10161,8891 Z"/>
       <text class="TextShape"><tspan class="TextParagraph" font-family="Arial, sans-serif" font-size="494px" font-weight="400"><tspan class="TextPosition" x="7637" y="8427"><tspan fill="rgb(0,0,0)" stroke="none">ACM </tspan></tspan></tspan></text>
      </g>
     </g>
     <g class="com.sun.star.drawing.CustomShape">
      <g id="id11">
       <path fill="none" stroke="rgb(0,0,0)" d="M 6350,9525 L 10161,9525 10161,10796 6350,10796 6350,9525 6350,9525 Z"/>
       <path fill="none" stroke="rgb(0,0,0)" d="M 6350,9525 L 6350,9525 Z"/>
       <path fill="none" stroke="rgb(0,0,0)" d="M 10161,10796 L 10161,10796 Z"/>
       <text class="TextShape"><tspan class="TextParagraph" font-family="Arial, sans-serif" font-size="494px" font-weight="400"><tspan class="TextPosition" x="7542" y="10332"><tspan fill="rgb(0,0,0)" stroke="none">Union </tspan></tspan></tspan></text>
      </g>
     </g>
     <g class="com.sun.star.drawing.CustomShape">
      <g id="id12">
       <path fill="none" stroke="rgb(0,0,0)" d="M 6350,11430 L 10161,11430 10161,12701 6350,12701 6350,11430 6350,11430 Z"/>
       <path fill="none" stroke="rgb(0,0,0)" d="M 6350,11430 L 6350,11430 Z"/>
       <path fill="none" stroke="rgb(0,0,0)" d="M 10161,12701 L 10161,12701 Z"/>
       <text class="TextShape"><tspan class="TextParagraph" font-family="Arial, sans-serif" font-size="494px" font-weight="400"><tspan class="TextPosition" x="7830" y="11959"><tspan fill="rgb(0,0,0)" stroke="none">Call</tspan></tspan></tspan><tspan class="TextParagraph" font-family="Arial, sans-serif" font-size="494px" font-weight="400"><tspan class="TextPosition" x="6814" y="12514"><tspan fill="rgb(0,0,0)" stroke="none">Management</tspan></tspan></tspan></text>
      </g>
     </g>
     <g class="com.sun.star.drawing.ConnectorShape">
      <g id="id13">
       <path fill="none" stroke="rgb(0,0,0)" d="M 2540,4445 L 2540,6350 3175,6350"/>
      </g>
     </g>
     <g class="com.sun.star.drawing.ConnectorShape">
      <g id="id14">
       <path fill="none" stroke="rgb(0,0,0)" d="M 5080,6985 L 5080,8255 6350,8255"/>
      </g>
     </g>
     <g class="com.sun.star.drawing.ConnectorShape">
      <g id="id15">
       <path fill="none" stroke="rgb(0,0,0)" d="M 5080,6985 L 5080,10160 6350,10160"/>
      </g>
     </g>
     <g class="com.sun.star.drawing.ConnectorShape">
      <g id="id16">
       <path fill="none" stroke="rgb(0,0,0)" d="M 5080,6985 L 5080,12065 6350,12065"/>
      </g>
     </g>
     <g class="com.sun.star.drawing.ConnectorShape">
      <g id="id17">
       <path fill="none" stroke="rgb(0,0,0)" d="M 2540,4445 L 2540,14605 3175,14605"/>
      </g>
     </g>
     <g class="com.sun.star.drawing.ConnectorShape">
      <g id="id18">
       <path fill="none" stroke="rgb(0,0,0)" d="M 2540,3175 L 2540,2541 7620,2541 7620,1905"/>
      </g>
     </g>
     <g class="com.sun.star.drawing.ConnectorShape">
      <g id="id19">
       <path fill="none" stroke="rgb(0,0,0)" d="M 7620,1905 L 7620,2541 12700,2541 12700,3175"/>
      </g>
     </g>
     <g class="com.sun.star.drawing.ConnectorShape">
      <g id="id20">
       <path fill="none" stroke="rgb(0,0,0)" d="M 12700,4445 L 12700,6350 13335,6350"/>
      </g>
     </g>
     <g class="com.sun.star.drawing.ConnectorShape">
      <g id="id21">
       <path fill="none" stroke="rgb(0,0,0)" d="M 13335,8890 L 12700,8890 12700,4445"/>
      </g>
     </g>
    </g>
   </g>
  </g>
 </g>
</svg>