<?xml version="1.0" encoding="UTF-8" standalone="no"?>
<!DOCTYPE svg PUBLIC "-//W3C//DTD SVG 1.1//EN"
 "http://www.w3.org/Graphics/SVG/1.1/DTD/svg11.dtd">
<!-- Generated by graphviz version 2.36.0 (20140111.2315)
 -->
<!-- Title: /Users/tgil/git/CoActionOS/CoActionOS/include/caos.h Pages: 1 -->
<svg width="699pt" height="216pt"
 viewBox="0.00 0.00 699.00 216.00" xmlns="http://www.w3.org/2000/svg" xmlns:xlink="http://www.w3.org/1999/xlink">
<g id="graph0" class="graph" transform="scale(1 1) rotate(0) translate(4 212)">
<title>/Users/tgil/git/CoActionOS/CoActionOS/include/caos.h</title>
<!-- Node1 -->
<g id="node1" class="node"><title>Node1</title>
<polygon fill="#bfbfbf" stroke="black" points="162.641,-169 162.641,-207 285.359,-207 285.359,-169 162.641,-169"/>
<text text-anchor="start" x="170.641" y="-195" font-family="Helvetica,sans-Serif" font-size="10.00">/Users/tgil/git/CoAction</text>
<text text-anchor="start" x="170.641" y="-185" font-family="Helvetica,sans-Serif" font-size="10.00">OS/CoActionOS/include</text>
<text text-anchor="middle" x="224" y="-175" font-family="Helvetica,sans-Serif" font-size="10.00">/caos.h</text>
</g>
<!-- Node2 -->
<g id="node2" class="node"><title>Node2</title>
<polygon fill="none" stroke="#bfbfbf" points="-0.731445,-57 -0.731445,-75 44.7314,-75 44.7314,-57 -0.731445,-57"/>
<text text-anchor="middle" x="22" y="-63" font-family="Helvetica,sans-Serif" font-size="10.00">stdio.h</text>
</g>
<!-- Node1&#45;&gt;Node2 -->
<g id="edge1" class="edge"><title>Node1&#45;&gt;Node2</title>
<path fill="none" stroke="midnightblue" d="M193.321,-168.775C152.389,-144.459 80.8687,-101.971 44.5476,-80.3946"/>
<polygon fill="midnightblue" stroke="midnightblue" points="46.0857,-77.2374 35.7007,-75.139 42.5105,-83.2555 46.0857,-77.2374"/>
</g>
<!-- Node3 -->
<g id="node3" class="node"><title>Node3</title>
<polygon fill="none" stroke="#bfbfbf" points="62.6035,-57 62.6035,-75 111.396,-75 111.396,-57 62.6035,-57"/>
<text text-anchor="middle" x="87" y="-63" font-family="Helvetica,sans-Serif" font-size="10.00">string.h</text>
</g>
<!-- Node1&#45;&gt;Node3 -->
<g id="edge2" class="edge"><title>Node1&#45;&gt;Node3</title>
<path fill="none" stroke="midnightblue" d="M203.193,-168.775C176.023,-144.976 128.981,-103.771 103.897,-81.7999"/>
<polygon fill="midnightblue" stroke="midnightblue" points="106.121,-79.0952 96.2921,-75.139 101.508,-84.3608 106.121,-79.0952"/>
</g>
<!-- Node4 -->
<g id="node4" class="node"><title>Node4</title>
<polygon fill="none" stroke="#bfbfbf" points="129.158,-57 129.158,-75 176.842,-75 176.842,-57 129.158,-57"/>
<text text-anchor="middle" x="153" y="-63" font-family="Helvetica,sans-Serif" font-size="10.00">stdlib.h</text>
</g>
<!-- Node1&#45;&gt;Node4 -->
<g id="edge3" class="edge"><title>Node1&#45;&gt;Node4</title>
<path fill="none" stroke="midnightblue" d="M213.217,-168.775C199.565,-145.701 176.231,-106.263 162.975,-83.8584"/>
<polygon fill="midnightblue" stroke="midnightblue" points="165.92,-81.9632 157.816,-75.139 159.896,-85.5277 165.92,-81.9632"/>
</g>
<!-- Node5 -->
<g id="node5" class="node"><title>Node5</title>
<polygon fill="none" stroke="#bfbfbf" points="467.384,-113 467.384,-131 510.616,-131 510.616,-113 467.384,-113"/>
<text text-anchor="middle" x="489" y="-119" font-family="Helvetica,sans-Serif" font-size="10.00">time.h</text>
</g>
<!-- Node1&#45;&gt;Node5 -->
<g id="edge4" class="edge"><title>Node1&#45;&gt;Node5</title>
<path fill="none" stroke="midnightblue" d="M285.8,-173.391C330.792,-163.272 393.401,-148.759 457.481,-132.031"/>
<polygon fill="midnightblue" stroke="midnightblue" points="458.576,-135.362 467.359,-129.437 456.798,-128.592 458.576,-135.362"/>
</g>
<!-- Node6 -->
<g id="node6" class="node"><title>Node6</title>
<g id="a_node6"><a xlink:href="hwpl_8h.html" target="_top" xlink:title="HWPL Header file (includes all other header files) ">
<polygon fill="none" stroke="black" points="201.547,-113 201.547,-131 246.453,-131 246.453,-113 201.547,-113"/>
<text text-anchor="middle" x="224" y="-119" font-family="Helvetica,sans-Serif" font-size="10.00">hwpl.h</text>
</a>
</g>
</g>
<!-- Node1&#45;&gt;Node6 -->
<g id="edge5" class="edge"><title>Node1&#45;&gt;Node6</title>
<path fill="none" stroke="midnightblue" d="M224,-168.831C224,-160.198 224,-149.901 224,-141.256"/>
<polygon fill="midnightblue" stroke="midnightblue" points="227.5,-141.122 224,-131.122 220.5,-141.122 227.5,-141.122"/>
</g>
<!-- Node13 -->
<g id="node13" class="node"><title>Node13</title>
<polygon fill="none" stroke="#bfbfbf" points="528.207,-113 528.207,-131 599.793,-131 599.793,-113 528.207,-113"/>
<text text-anchor="middle" x="564" y="-119" font-family="Helvetica,sans-Serif" font-size="10.00">hwpl/types.h</text>
</g>
<!-- Node1&#45;&gt;Node13 -->
<g id="edge17" class="edge"><title>Node1&#45;&gt;Node13</title>
<path fill="none" stroke="midnightblue" d="M285.63,-175.752C343.126,-165.203 431.573,-148.836 518.147,-132.145"/>
<polygon fill="midnightblue" stroke="midnightblue" points="518.992,-135.547 528.147,-130.215 517.665,-128.674 518.992,-135.547"/>
</g>
<!-- Node14 -->
<g id="node14" class="node"><title>Node14</title>
<g id="a_node14"><a xlink:href="device_8h_source.html" target="_top" xlink:title="device.h">
<polygon fill="none" stroke="black" points="396.377,-113 396.377,-131 449.623,-131 449.623,-113 396.377,-113"/>
<text text-anchor="middle" x="423" y="-119" font-family="Helvetica,sans-Serif" font-size="10.00">device.h</text>
</a>
</g>
</g>
<!-- Node1&#45;&gt;Node14 -->
<g id="edge18" class="edge"><title>Node1&#45;&gt;Node14</title>
<path fill="none" stroke="midnightblue" d="M280.227,-168.917C315.027,-157.725 358.596,-143.713 388.394,-134.13"/>
<polygon fill="midnightblue" stroke="midnightblue" points="389.49,-137.454 397.939,-131.06 387.347,-130.79 389.49,-137.454"/>
</g>
<!-- Node6&#45;&gt;Node2 -->
<g id="edge9" class="edge"><title>Node6&#45;&gt;Node2</title>
<path fill="none" stroke="midnightblue" d="M201.421,-115.141C170.548,-107.105 113.189,-92.0847 54.8145,-76.1926"/>
<polygon fill="midnightblue" stroke="midnightblue" points="55.6289,-72.7869 45.0603,-73.5314 53.7864,-79.5401 55.6289,-72.7869"/>
</g>
<!-- Node6&#45;&gt;Node3 -->
<g id="edge8" class="edge"><title>Node6&#45;&gt;Node3</title>
<path fill="none" stroke="midnightblue" d="M203.49,-112.916C180.588,-103.889 143.305,-89.1931 117.099,-78.8637"/>
<polygon fill="midnightblue" stroke="midnightblue" points="118.237,-75.5505 107.65,-75.1396 115.67,-82.0629 118.237,-75.5505"/>
</g>
<!-- Node6&#45;&gt;Node4 -->
<g id="edge7" class="edge"><title>Node6&#45;&gt;Node4</title>
<path fill="none" stroke="midnightblue" d="M213.217,-112.799C202.27,-104.473 185.098,-91.4125 171.888,-81.3656"/>
<polygon fill="midnightblue" stroke="midnightblue" points="173.963,-78.5465 163.885,-75.2786 169.726,-84.1182 173.963,-78.5465"/>
</g>
<!-- Node7 -->
<g id="node7" class="node"><title>Node7</title>
<polygon fill="none" stroke="#bfbfbf" points="326.879,-1 326.879,-19 375.121,-19 375.121,-1 326.879,-1"/>
<text text-anchor="middle" x="351" y="-7" font-family="Helvetica,sans-Serif" font-size="10.00">stdint.h</text>
</g>
<!-- Node6&#45;&gt;Node7 -->
<g id="edge6" class="edge"><title>Node6&#45;&gt;Node7</title>
<path fill="none" stroke="midnightblue" d="M222.07,-112.845C219.42,-99.4982 216.309,-72.7957 229,-56 249.516,-28.8491 288.172,-18.0703 316.491,-13.7966"/>
<polygon fill="midnightblue" stroke="midnightblue" points="317.315,-17.2189 326.779,-12.4566 316.411,-10.2775 317.315,-17.2189"/>
</g>
<!-- Node8 -->
<g id="node8" class="node"><title>Node8</title>
<polygon fill="none" stroke="#bfbfbf" points="392.707,-1 392.707,-19 449.293,-19 449.293,-1 392.707,-1"/>
<text text-anchor="middle" x="421" y="-7" font-family="Helvetica,sans-Serif" font-size="10.00">stdbool.h</text>
</g>
<!-- Node6&#45;&gt;Node8 -->
<g id="edge10" class="edge"><title>Node6&#45;&gt;Node8</title>
<path fill="none" stroke="midnightblue" d="M226.506,-112.862C231.183,-99.0468 242.568,-71.0436 262,-56 266.89,-52.2142 337.349,-33.1073 382.815,-21.0397"/>
<polygon fill="midnightblue" stroke="midnightblue" points="383.892,-24.3753 392.663,-18.4322 382.1,-17.6085 383.892,-24.3753"/>
</g>
<!-- Node9 -->
<g id="node9" class="node"><title>Node9</title>
<polygon fill="none" stroke="#bfbfbf" points="270.707,-57 270.707,-75 337.293,-75 337.293,-57 270.707,-57"/>
<text text-anchor="middle" x="304" y="-63" font-family="Helvetica,sans-Serif" font-size="10.00">hwpl/fault.h</text>
</g>
<!-- Node6&#45;&gt;Node9 -->
<g id="edge11" class="edge"><title>Node6&#45;&gt;Node9</title>
<path fill="none" stroke="midnightblue" d="M236.15,-112.799C248.675,-104.345 268.431,-91.0093 283.402,-80.9039"/>
<polygon fill="midnightblue" stroke="midnightblue" points="285.667,-83.5974 291.998,-75.1017 281.751,-77.7955 285.667,-83.5974"/>
</g>
<!-- Node10 -->
<g id="node10" class="node"><title>Node10</title>
<polygon fill="none" stroke="#bfbfbf" points="546.431,-1 546.431,-19 613.569,-19 613.569,-1 546.431,-1"/>
<text text-anchor="middle" x="580" y="-7" font-family="Helvetica,sans-Serif" font-size="10.00">hwpl/arch.h</text>
</g>
<!-- Node6&#45;&gt;Node10 -->
<g id="edge12" class="edge"><title>Node6&#45;&gt;Node10</title>
<path fill="none" stroke="midnightblue" d="M246.767,-119.074C316.444,-113.011 523.545,-93.6684 548,-76 563.424,-64.8563 571.793,-44.1844 576.06,-29.1369"/>
<polygon fill="midnightblue" stroke="midnightblue" points="579.466,-29.9399 578.483,-19.3908 572.673,-28.2506 579.466,-29.9399"/>
</g>
<!-- Node11 -->
<g id="node11" class="node"><title>Node11</title>
<g id="a_node11"><a xlink:href="types_8h_source.html" target="_top" xlink:title="hwpl/types.h">
<polygon fill="none" stroke="black" points="355.207,-57 355.207,-75 426.793,-75 426.793,-57 355.207,-57"/>
<text text-anchor="middle" x="391" y="-63" font-family="Helvetica,sans-Serif" font-size="10.00">hwpl/types.h</text>
</a>
</g>
</g>
<!-- Node6&#45;&gt;Node11 -->
<g id="edge13" class="edge"><title>Node6&#45;&gt;Node11</title>
<path fill="none" stroke="midnightblue" d="M246.522,-113.717C274.762,-104.586 323.461,-88.8389 356.432,-78.1776"/>
<polygon fill="midnightblue" stroke="midnightblue" points="357.682,-81.4521 366.12,-75.0452 355.528,-74.7917 357.682,-81.4521"/>
</g>
<!-- Node11&#45;&gt;Node7 -->
<g id="edge14" class="edge"><title>Node11&#45;&gt;Node7</title>
<path fill="none" stroke="midnightblue" d="M384.75,-56.5625C378.963,-48.75 370.199,-36.9187 363.052,-27.2704"/>
<polygon fill="midnightblue" stroke="midnightblue" points="365.84,-25.1537 357.075,-19.2014 360.215,-29.3203 365.84,-25.1537"/>
</g>
<!-- Node11&#45;&gt;Node8 -->
<g id="edge15" class="edge"><title>Node11&#45;&gt;Node8</title>
<path fill="none" stroke="midnightblue" d="M395.688,-56.5625C399.895,-48.9891 406.2,-37.6393 411.465,-28.1625"/>
<polygon fill="midnightblue" stroke="midnightblue" points="414.647,-29.6428 416.444,-19.2014 408.528,-26.2433 414.647,-29.6428"/>
</g>
<!-- Node12 -->
<g id="node12" class="node"><title>Node12</title>
<g id="a_node12"><a xlink:href="ioctl_8h_source.html" target="_top" xlink:title="dev/ioctl.h">
<polygon fill="none" stroke="black" points="467.488,-1 467.488,-19 528.512,-19 528.512,-1 467.488,-1"/>
<text text-anchor="middle" x="498" y="-7" font-family="Helvetica,sans-Serif" font-size="10.00">dev/ioctl.h</text>
</a>
</g>
</g>
<!-- Node11&#45;&gt;Node12 -->
<g id="edge16" class="edge"><title>Node11&#45;&gt;Node12</title>
<path fill="none" stroke="midnightblue" d="M407.251,-56.7986C424.714,-47.9857 452.687,-33.8683 472.964,-23.6349"/>
<polygon fill="midnightblue" stroke="midnightblue" points="474.596,-26.7319 481.947,-19.1017 471.442,-20.4826 474.596,-26.7319"/>
</g>
<!-- Node14&#45;&gt;Node8 -->
<g id="edge20" class="edge"><title>Node14&#45;&gt;Node8</title>
<path fill="none" stroke="midnightblue" d="M426.365,-112.615C430.91,-100.26 438.103,-76.4213 435,-56 433.598,-46.776 430.668,-36.8409 427.848,-28.6582"/>
<polygon fill="midnightblue" stroke="midnightblue" points="431.077,-27.2981 424.344,-19.1182 424.506,-29.7118 431.077,-27.2981"/>
</g>
<!-- Node14&#45;&gt;Node10 -->
<g id="edge22" class="edge"><title>Node14&#45;&gt;Node10</title>
<path fill="none" stroke="midnightblue" d="M449.739,-113.824C494.268,-101.812 578.975,-78.6817 581,-76 590.98,-62.7803 589.188,-43.3544 585.842,-29.1834"/>
<polygon fill="midnightblue" stroke="midnightblue" points="589.1,-27.8408 583.02,-19.1641 582.362,-29.7385 589.1,-27.8408"/>
</g>
<!-- Node14&#45;&gt;Node11 -->
<g id="edge21" class="edge"><title>Node14&#45;&gt;Node11</title>
<path fill="none" stroke="midnightblue" d="M418,-112.562C413.465,-104.909 406.644,-93.3999 400.993,-83.8638"/>
<polygon fill="midnightblue" stroke="midnightblue" points="403.969,-82.02 395.86,-75.2014 397.947,-85.5887 403.969,-82.02"/>
</g>
<!-- Node15 -->
<g id="node15" class="node"><title>Node15</title>
<polygon fill="none" stroke="#bfbfbf" points="632.882,-57 632.882,-75 691.118,-75 691.118,-57 632.882,-57"/>
<text text-anchor="middle" x="662" y="-63" font-family="Helvetica,sans-Serif" font-size="10.00">sys/stat.h</text>
</g>
<!-- Node14&#45;&gt;Node15 -->
<g id="edge19" class="edge"><title>Node14&#45;&gt;Node15</title>
<path fill="none" stroke="midnightblue" d="M449.729,-114.025C452.519,-113.328 455.315,-112.641 458,-112 515.236,-98.3327 581.865,-83.9138 622.99,-75.186"/>
<polygon fill="midnightblue" stroke="midnightblue" points="623.817,-78.5887 632.875,-73.0936 622.367,-71.7404 623.817,-78.5887"/>
</g>
<!-- Node16 -->
<g id="node16" class="node"><title>Node16</title>
<g id="a_node16"><a xlink:href="pio_8h.html" target="_top" xlink:title="General Purpose Input/Output Header File. ">
<polygon fill="none" stroke="black" points="482.707,-57 482.707,-75 539.293,-75 539.293,-57 482.707,-57"/>
<text text-anchor="middle" x="511" y="-63" font-family="Helvetica,sans-Serif" font-size="10.00">dev/pio.h</text>
</a>
</g>
</g>
<!-- Node14&#45;&gt;Node16 -->
<g id="edge23" class="edge"><title>Node14&#45;&gt;Node16</title>
<path fill="none" stroke="midnightblue" d="M436.365,-112.799C450.402,-104.185 472.697,-90.5043 489.268,-80.3354"/>
<polygon fill="midnightblue" stroke="midnightblue" points="491.105,-83.315 497.797,-75.1017 487.443,-77.3488 491.105,-83.315"/>
</g>
<!-- Node16&#45;&gt;Node7 -->
<g id="edge25" class="edge"><title>Node16&#45;&gt;Node7</title>
<path fill="none" stroke="midnightblue" d="M487.046,-56.9157C459.868,-47.743 415.347,-32.7171 384.68,-22.3669"/>
<polygon fill="midnightblue" stroke="midnightblue" points="385.45,-18.9329 374.856,-19.0513 383.211,-25.5654 385.45,-18.9329"/>
</g>
<!-- Node16&#45;&gt;Node8 -->
<g id="edge24" class="edge"><title>Node16&#45;&gt;Node8</title>
<path fill="none" stroke="midnightblue" d="M497.331,-56.7986C482.975,-48.1851 460.174,-34.5043 443.226,-24.3354"/>
<polygon fill="midnightblue" stroke="midnightblue" points="444.879,-21.2455 434.503,-19.1017 441.277,-27.2479 444.879,-21.2455"/>
</g>
<!-- Node16&#45;&gt;Node10 -->
<g id="edge27" class="edge"><title>Node16&#45;&gt;Node10</title>
<path fill="none" stroke="midnightblue" d="M521.48,-56.7986C532.017,-48.552 548.489,-35.6608 561.276,-25.6535"/>
<polygon fill="midnightblue" stroke="midnightblue" points="563.704,-28.198 569.422,-19.2786 559.39,-22.6855 563.704,-28.198"/>
</g>
<!-- Node16&#45;&gt;Node12 -->
<g id="edge26" class="edge"><title>Node16&#45;&gt;Node12</title>
<path fill="none" stroke="midnightblue" d="M508.969,-56.5625C507.203,-49.2283 504.585,-38.3523 502.349,-29.0657"/>
<polygon fill="midnightblue" stroke="midnightblue" points="505.718,-28.1045 499.974,-19.2014 498.912,-29.7429 505.718,-28.1045"/>
</g>
</g>
</svg>
