<?xml version="1.0" encoding="UTF-8" standalone="no"?>
<!DOCTYPE svg PUBLIC "-//W3C//DTD SVG 1.1//EN"
 "http://www.w3.org/Graphics/SVG/1.1/DTD/svg11.dtd">
<!-- Generated by graphviz version 2.34.0 (20130907.0228)
 -->
<!-- Title: /Users/tgil/git/CoActionOS/CoActionOS/src/sys/unistd/chown.c Pages: 1 -->
<svg width="616pt" height="344pt"
 viewBox="0.00 0.00 615.77 344.00" xmlns="http://www.w3.org/2000/svg" xmlns:xlink="http://www.w3.org/1999/xlink">
<g id="graph0" class="graph" transform="scale(1 1) rotate(0) translate(4 340)">
<title>/Users/tgil/git/CoActionOS/CoActionOS/src/sys/unistd/chown.c</title>
<!-- Node1 -->
<g id="node1" class="node"><title>Node1</title>
<polygon fill="#bfbfbf" stroke="black" points="301.697,-291 301.697,-335 423.834,-335 423.834,-291 301.697,-291"/>
<text text-anchor="start" x="309.697" y="-321" font-family="Helvetica,sans-Serif" font-size="10.00">/Users/tgil/git/CoAction</text>
<text text-anchor="start" x="309.697" y="-309" font-family="Helvetica,sans-Serif" font-size="10.00">OS/CoActionOS/src/sys</text>
<text text-anchor="middle" x="362.765" y="-297" font-family="Helvetica,sans-Serif" font-size="10.00">/unistd/chown.c</text>
</g>
<!-- Node2 -->
<g id="node2" class="node"><title>Node2</title>
<polygon fill="none" stroke="#bfbfbf" points="301.369,-233 301.369,-253 350.162,-253 350.162,-233 301.369,-233"/>
<text text-anchor="middle" x="325.765" y="-239" font-family="Helvetica,sans-Serif" font-size="10.00">string.h</text>
</g>
<!-- Node1&#45;&gt;Node2 -->
<g id="edge1" class="edge"><title>Node1&#45;&gt;Node2</title>
<path fill="none" stroke="midnightblue" d="M351.261,-290.857C346.267,-281.679 340.476,-271.036 335.676,-262.214"/>
<polygon fill="midnightblue" stroke="midnightblue" points="338.627,-260.315 330.774,-253.204 332.479,-263.661 338.627,-260.315"/>
</g>
<!-- Node3 -->
<g id="node3" class="node"><title>Node3</title>
<g id="a_node3"><a xlink:href="unistd__fs_8h_source.html" target="_top" xlink:title="unistd_fs.h">
<polygon fill="none" stroke="black" points="368.583,-233 368.583,-253 432.948,-253 432.948,-233 368.583,-233"/>
<text text-anchor="middle" x="400.765" y="-239" font-family="Helvetica,sans-Serif" font-size="10.00">unistd_fs.h</text>
</a>
</g>
</g>
<!-- Node1&#45;&gt;Node3 -->
<g id="edge2" class="edge"><title>Node1&#45;&gt;Node3</title>
<path fill="none" stroke="midnightblue" d="M374.581,-290.857C379.709,-281.679 385.657,-271.036 390.587,-262.214"/>
<polygon fill="midnightblue" stroke="midnightblue" points="393.799,-263.641 395.622,-253.204 387.689,-260.226 393.799,-263.641"/>
</g>
<!-- Node4 -->
<g id="node4" class="node"><title>Node4</title>
<g id="a_node4"><a xlink:href="config_8h.html" target="_top" xlink:title="config.h">
<polygon fill="none" stroke="black" points="127.253,-175 127.253,-195 178.278,-195 178.278,-175 127.253,-175"/>
<text text-anchor="middle" x="152.765" y="-181" font-family="Helvetica,sans-Serif" font-size="10.00">config.h</text>
</a>
</g>
</g>
<!-- Node3&#45;&gt;Node4 -->
<g id="edge3" class="edge"><title>Node3&#45;&gt;Node4</title>
<path fill="none" stroke="midnightblue" d="M368.226,-234.163C365.032,-233.421 361.837,-232.689 358.765,-232 286.09,-215.701 264.872,-214.735 188.442,-196.028"/>
<polygon fill="midnightblue" stroke="midnightblue" points="188.871,-192.529 178.324,-193.528 187.192,-199.325 188.871,-192.529"/>
</g>
<!-- Node5 -->
<g id="node5" class="node"><title>Node5</title>
<polygon fill="none" stroke="#bfbfbf" points="196.536,-175 196.536,-195 256.994,-195 256.994,-175 196.536,-175"/>
<text text-anchor="middle" x="226.765" y="-181" font-family="Helvetica,sans-Serif" font-size="10.00">sys/fcntl.h</text>
</g>
<!-- Node3&#45;&gt;Node5 -->
<g id="edge4" class="edge"><title>Node3&#45;&gt;Node5</title>
<path fill="none" stroke="midnightblue" d="M372.422,-232.878C343.012,-223.413 296.862,-208.56 264.407,-198.115"/>
<polygon fill="midnightblue" stroke="midnightblue" points="265.4,-194.757 254.808,-195.025 263.255,-201.421 265.4,-194.757"/>
</g>
<!-- Node6 -->
<g id="node6" class="node"><title>Node6</title>
<polygon fill="none" stroke="#bfbfbf" points="352.647,-59 352.647,-79 410.884,-79 410.884,-59 352.647,-59"/>
<text text-anchor="middle" x="381.765" y="-65" font-family="Helvetica,sans-Serif" font-size="10.00">sys/stat.h</text>
</g>
<!-- Node3&#45;&gt;Node6 -->
<g id="edge5" class="edge"><title>Node3&#45;&gt;Node6</title>
<path fill="none" stroke="midnightblue" d="M399.744,-232.753C396.754,-205.688 387.976,-126.224 383.896,-89.2864"/>
<polygon fill="midnightblue" stroke="midnightblue" points="387.369,-88.8484 382.792,-79.2932 380.411,-89.6171 387.369,-88.8484"/>
</g>
<!-- Node7 -->
<g id="node7" class="node"><title>Node7</title>
<polygon fill="none" stroke="#bfbfbf" points="429.034,-175 429.034,-195 474.497,-195 474.497,-175 429.034,-175"/>
<text text-anchor="middle" x="451.765" y="-181" font-family="Helvetica,sans-Serif" font-size="10.00">stdio.h</text>
</g>
<!-- Node3&#45;&gt;Node7 -->
<g id="edge6" class="edge"><title>Node3&#45;&gt;Node7</title>
<path fill="none" stroke="midnightblue" d="M409.187,-232.753C416.614,-224.598 427.617,-212.516 436.578,-202.677"/>
<polygon fill="midnightblue" stroke="midnightblue" points="439.355,-204.825 443.501,-195.075 434.18,-200.112 439.355,-204.825"/>
</g>
<!-- Node8 -->
<g id="node8" class="node"><title>Node8</title>
<polygon fill="none" stroke="#bfbfbf" points="492.253,-175 492.253,-195 543.278,-195 543.278,-175 492.253,-175"/>
<text text-anchor="middle" x="517.765" y="-181" font-family="Helvetica,sans-Serif" font-size="10.00">unistd.h</text>
</g>
<!-- Node3&#45;&gt;Node8 -->
<g id="edge7" class="edge"><title>Node3&#45;&gt;Node8</title>
<path fill="none" stroke="midnightblue" d="M419.824,-232.878C438.776,-223.807 468.066,-209.788 489.682,-199.442"/>
<polygon fill="midnightblue" stroke="midnightblue" points="491.206,-202.592 498.715,-195.118 488.184,-196.278 491.206,-202.592"/>
</g>
<!-- Node9 -->
<g id="node9" class="node"><title>Node9</title>
<polygon fill="none" stroke="#bfbfbf" points="560.923,-175 560.923,-195 608.608,-195 608.608,-175 560.923,-175"/>
<text text-anchor="middle" x="584.765" y="-181" font-family="Helvetica,sans-Serif" font-size="10.00">errno.h</text>
</g>
<!-- Node3&#45;&gt;Node9 -->
<g id="edge8" class="edge"><title>Node3&#45;&gt;Node9</title>
<path fill="none" stroke="midnightblue" d="M430.738,-232.878C463.733,-222.836 516.653,-206.73 551.066,-196.257"/>
<polygon fill="midnightblue" stroke="midnightblue" points="552.131,-199.591 560.678,-193.331 550.092,-192.894 552.131,-199.591"/>
</g>
<!-- Node10 -->
<g id="node10" class="node"><title>Node10</title>
<g id="a_node10"><a xlink:href="sysfs_8h_source.html" target="_top" xlink:title="sysfs.h">
<polygon fill="none" stroke="black" points="275.206,-175 275.206,-195 322.325,-195 322.325,-175 275.206,-175"/>
<text text-anchor="middle" x="298.765" y="-181" font-family="Helvetica,sans-Serif" font-size="10.00">sysfs.h</text>
</a>
</g>
</g>
<!-- Node3&#45;&gt;Node10 -->
<g id="edge9" class="edge"><title>Node3&#45;&gt;Node10</title>
<path fill="none" stroke="midnightblue" d="M383.922,-232.753C367.658,-223.823 342.816,-210.185 324.154,-199.939"/>
<polygon fill="midnightblue" stroke="midnightblue" points="325.746,-196.82 315.295,-195.075 322.377,-202.956 325.746,-196.82"/>
</g>
<!-- Node10&#45;&gt;Node6 -->
<g id="edge14" class="edge"><title>Node10&#45;&gt;Node6</title>
<path fill="none" stroke="midnightblue" d="M307.474,-174.835C315.885,-165.793 328.782,-151.414 338.765,-138 350.962,-121.612 363.257,-101.756 371.557,-87.742"/>
<polygon fill="midnightblue" stroke="midnightblue" points="374.591,-89.4878 376.615,-79.0882 368.547,-85.9556 374.591,-89.4878"/>
</g>
<!-- Node11 -->
<g id="node11" class="node"><title>Node11</title>
<polygon fill="none" stroke="#bfbfbf" points="8.47251,-1 8.47251,-21 65.0585,-21 65.0585,-1 8.47251,-1"/>
<text text-anchor="middle" x="36.7655" y="-7" font-family="Helvetica,sans-Serif" font-size="10.00">stdbool.h</text>
</g>
<!-- Node10&#45;&gt;Node11 -->
<g id="edge10" class="edge"><title>Node10&#45;&gt;Node11</title>
<path fill="none" stroke="midnightblue" d="M275.087,-176.352C271.971,-175.485 268.805,-174.673 265.765,-174 210.318,-161.73 49.9853,-180.891 12.7655,-138 -13.7516,-107.443 9.45931,-56.7935 25.1692,-29.9632"/>
<polygon fill="midnightblue" stroke="midnightblue" points="28.275,-31.5934 30.5117,-21.2373 22.3051,-27.9382 28.275,-31.5934"/>
</g>
<!-- Node12 -->
<g id="node12" class="node"><title>Node12</title>
<polygon fill="none" stroke="#bfbfbf" points="93.7557,-117 93.7557,-137 159.775,-137 159.775,-117 93.7557,-117"/>
<text text-anchor="middle" x="126.765" y="-123" font-family="Helvetica,sans-Serif" font-size="10.00">sys/types.h</text>
</g>
<!-- Node10&#45;&gt;Node12 -->
<g id="edge11" class="edge"><title>Node10&#45;&gt;Node12</title>
<path fill="none" stroke="midnightblue" d="M274.85,-176.213C246.24,-166.899 198.004,-151.194 164.386,-140.248"/>
<polygon fill="midnightblue" stroke="midnightblue" points="165.052,-136.785 154.46,-137.017 162.885,-143.441 165.052,-136.785"/>
</g>
<!-- Node13 -->
<g id="node13" class="node"><title>Node13</title>
<polygon fill="none" stroke="#bfbfbf" points="110.645,-1 110.645,-21 158.886,-21 158.886,-1 110.645,-1"/>
<text text-anchor="middle" x="134.765" y="-7" font-family="Helvetica,sans-Serif" font-size="10.00">stdint.h</text>
</g>
<!-- Node10&#45;&gt;Node13 -->
<g id="edge12" class="edge"><title>Node10&#45;&gt;Node13</title>
<path fill="none" stroke="midnightblue" d="M302.623,-174.956C307.83,-161.247 315.312,-134.815 304.765,-116 289.202,-88.2337 208.19,-46.6553 163.851,-25.4635"/>
<polygon fill="midnightblue" stroke="midnightblue" points="165.259,-22.2579 154.723,-21.1414 162.263,-28.5844 165.259,-22.2579"/>
</g>
<!-- Node14 -->
<g id="node14" class="node"><title>Node14</title>
<polygon fill="none" stroke="#bfbfbf" points="177.975,-117 177.975,-137 229.556,-137 229.556,-117 177.975,-117"/>
<text text-anchor="middle" x="203.765" y="-123" font-family="Helvetica,sans-Serif" font-size="10.00">stddef.h</text>
</g>
<!-- Node10&#45;&gt;Node14 -->
<g id="edge13" class="edge"><title>Node10&#45;&gt;Node14</title>
<path fill="none" stroke="midnightblue" d="M283.078,-174.753C268.138,-165.946 245.426,-152.558 228.129,-142.362"/>
<polygon fill="midnightblue" stroke="midnightblue" points="229.553,-139.138 219.161,-137.075 225.998,-145.169 229.553,-139.138"/>
</g>
<!-- Node15 -->
<g id="node15" class="node"><title>Node15</title>
<polygon fill="none" stroke="#bfbfbf" points="247.088,-117 247.088,-137 296.443,-137 296.443,-117 247.088,-117"/>
<text text-anchor="middle" x="271.765" y="-123" font-family="Helvetica,sans-Serif" font-size="10.00">dirent.h</text>
</g>
<!-- Node10&#45;&gt;Node15 -->
<g id="edge15" class="edge"><title>Node10&#45;&gt;Node15</title>
<path fill="none" stroke="midnightblue" d="M294.307,-174.753C290.572,-167.006 285.128,-155.714 280.525,-146.169"/>
<polygon fill="midnightblue" stroke="midnightblue" points="283.637,-144.563 276.141,-137.075 277.331,-147.603 283.637,-144.563"/>
</g>
<!-- Node16 -->
<g id="node16" class="node"><title>Node16</title>
<g id="a_node16"><a xlink:href="device_8h_source.html" target="_top" xlink:title="device.h">
<polygon fill="none" stroke="black" points="22.1424,-117 22.1424,-137 75.3885,-137 75.3885,-117 22.1424,-117"/>
<text text-anchor="middle" x="48.7655" y="-123" font-family="Helvetica,sans-Serif" font-size="10.00">device.h</text>
</a>
</g>
</g>
<!-- Node10&#45;&gt;Node16 -->
<g id="edge16" class="edge"><title>Node10&#45;&gt;Node16</title>
<path fill="none" stroke="midnightblue" d="M275.05,-176.51C271.94,-175.617 268.785,-174.756 265.765,-174 189.308,-154.861 166.336,-156.797 85.5859,-138.042"/>
<polygon fill="midnightblue" stroke="midnightblue" points="85.9809,-134.539 75.4444,-135.65 84.3735,-141.352 85.9809,-134.539"/>
</g>
<!-- Node16&#45;&gt;Node6 -->
<g id="edge17" class="edge"><title>Node16&#45;&gt;Node6</title>
<path fill="none" stroke="midnightblue" d="M75.4153,-118.222C78.5539,-117.418 81.7218,-116.656 84.7655,-116 176.238,-96.2828 285.305,-81.6162 342.424,-74.6003"/>
<polygon fill="midnightblue" stroke="midnightblue" points="342.964,-78.0605 352.469,-73.3798 342.12,-71.1116 342.964,-78.0605"/>
</g>
<!-- Node16&#45;&gt;Node11 -->
<g id="edge18" class="edge"><title>Node16&#45;&gt;Node11</title>
<path fill="none" stroke="midnightblue" d="M43.1851,-116.897C38.0215,-107.9 30.713,-93.554 27.7655,-80 24.2112,-63.6561 27.2661,-44.7775 30.7479,-31.0651"/>
<polygon fill="midnightblue" stroke="midnightblue" points="34.1495,-31.8985 33.5136,-21.3228 27.4156,-29.9868 34.1495,-31.8985"/>
</g>
<!-- Node17 -->
<g id="node17" class="node"><title>Node17</title>
<g id="a_node17"><a xlink:href="types_8h_source.html" target="_top" xlink:title="hwpl/types.h">
<polygon fill="none" stroke="black" points="36.9725,-59 36.9725,-79 108.558,-79 108.558,-59 36.9725,-59"/>
<text text-anchor="middle" x="72.7655" y="-65" font-family="Helvetica,sans-Serif" font-size="10.00">hwpl/types.h</text>
</a>
</g>
</g>
<!-- Node16&#45;&gt;Node17 -->
<g id="edge19" class="edge"><title>Node16&#45;&gt;Node17</title>
<path fill="none" stroke="midnightblue" d="M52.7286,-116.753C56.0138,-109.087 60.7862,-97.9515 64.8494,-88.4708"/>
<polygon fill="midnightblue" stroke="midnightblue" points="68.1539,-89.6454 68.8761,-79.0752 61.7199,-86.8879 68.1539,-89.6454"/>
</g>
<!-- Node18 -->
<g id="node18" class="node"><title>Node18</title>
<polygon fill="none" stroke="#bfbfbf" points="177.197,-1 177.197,-21 244.334,-21 244.334,-1 177.197,-1"/>
<text text-anchor="middle" x="210.765" y="-7" font-family="Helvetica,sans-Serif" font-size="10.00">hwpl/arch.h</text>
</g>
<!-- Node16&#45;&gt;Node18 -->
<g id="edge22" class="edge"><title>Node16&#45;&gt;Node18</title>
<path fill="none" stroke="midnightblue" d="M75.6789,-118.059C115.943,-106.076 187.618,-84.311 191.765,-80 204.226,-67.0473 208.645,-46.6249 210.148,-31.5384"/>
<polygon fill="midnightblue" stroke="midnightblue" points="213.66,-31.4589 210.813,-21.2539 206.675,-31.0072 213.66,-31.4589"/>
</g>
<!-- Node19 -->
<g id="node19" class="node"><title>Node19</title>
<g id="a_node19"><a xlink:href="pio_8h.html" target="_top" xlink:title="General Purpose Input/Output Header File. ">
<polygon fill="none" stroke="red" points="126.473,-59 126.473,-79 183.058,-79 183.058,-59 126.473,-59"/>
<text text-anchor="middle" x="154.765" y="-65" font-family="Helvetica,sans-Serif" font-size="10.00">dev/pio.h</text>
</a>
</g>
</g>
<!-- Node16&#45;&gt;Node19 -->
<g id="edge23" class="edge"><title>Node16&#45;&gt;Node19</title>
<path fill="none" stroke="midnightblue" d="M66.2692,-116.753C83.2485,-107.783 109.223,-94.0601 128.647,-83.7986"/>
<polygon fill="midnightblue" stroke="midnightblue" points="130.38,-86.8411 137.587,-79.0752 127.111,-80.6518 130.38,-86.8411"/>
</g>
<!-- Node17&#45;&gt;Node11 -->
<g id="edge21" class="edge"><title>Node17&#45;&gt;Node11</title>
<path fill="none" stroke="midnightblue" d="M66.8208,-58.7527C61.7358,-50.8427 54.2751,-39.2372 48.0594,-29.5683"/>
<polygon fill="midnightblue" stroke="midnightblue" points="50.9513,-27.5943 42.5995,-21.0752 45.063,-31.3797 50.9513,-27.5943"/>
</g>
<!-- Node17&#45;&gt;Node13 -->
<g id="edge20" class="edge"><title>Node17&#45;&gt;Node13</title>
<path fill="none" stroke="midnightblue" d="M83.0035,-58.7527C92.3028,-50.3534 106.215,-37.7874 117.275,-27.7976"/>
<polygon fill="midnightblue" stroke="midnightblue" points="119.643,-30.3755 124.718,-21.0752 114.951,-25.1807 119.643,-30.3755"/>
</g>
<!-- Node19&#45;&gt;Node11 -->
<g id="edge24" class="edge"><title>Node19&#45;&gt;Node11</title>
<path fill="none" stroke="midnightblue" d="M135.544,-58.878C116.43,-49.8068 86.8893,-35.7876 65.0893,-25.4418"/>
<polygon fill="midnightblue" stroke="midnightblue" points="66.5135,-22.2436 55.9786,-21.1181 63.5123,-28.5676 66.5135,-22.2436"/>
</g>
<!-- Node19&#45;&gt;Node13 -->
<g id="edge25" class="edge"><title>Node19&#45;&gt;Node13</title>
<path fill="none" stroke="midnightblue" d="M151.463,-58.7527C148.754,-51.1689 144.833,-40.1881 141.47,-30.7739"/>
<polygon fill="midnightblue" stroke="midnightblue" points="144.666,-29.3154 138.007,-21.0752 138.074,-31.6698 144.666,-29.3154"/>
</g>
<!-- Node19&#45;&gt;Node18 -->
<g id="edge26" class="edge"><title>Node19&#45;&gt;Node18</title>
<path fill="none" stroke="midnightblue" d="M164.013,-58.7527C172.249,-50.5165 184.492,-38.2738 194.383,-28.3824"/>
<polygon fill="midnightblue" stroke="midnightblue" points="197.094,-30.6212 201.69,-21.0752 192.144,-25.6714 197.094,-30.6212"/>
</g>
</g>
</svg>
