<?xml version="1.0" encoding="UTF-8" standalone="no"?>
<!DOCTYPE svg PUBLIC "-//W3C//DTD SVG 1.1//EN"
 "http://www.w3.org/Graphics/SVG/1.1/DTD/svg11.dtd">
<!-- Generated by graphviz version 2.34.0 (20130907.0228)
 -->
<!-- Title: Appfs Pages: 1 -->
<svg width="78pt" height="228pt"
 viewBox="0.00 0.00 78.00 228.00" xmlns="http://www.w3.org/2000/svg" xmlns:xlink="http://www.w3.org/1999/xlink">
<g id="graph0" class="graph" transform="scale(1 1) rotate(0) translate(4 224)">
<title>Appfs</title>
<!-- Node1 -->
<g id="node1" class="node"><title>Node1</title>
<polygon fill="#bfbfbf" stroke="black" points="-0.653809,-123 -0.653809,-219 70.6538,-219 70.6538,-123 -0.653809,-123"/>
<text text-anchor="middle" x="35" y="-205" font-family="Helvetica,sans-Serif" font-size="10.00">Appfs</text>
<polyline fill="none" stroke="black" points="-0.653809,-199 70.6538,-199 "/>
<text text-anchor="middle" x="35" y="-185" font-family="Helvetica,sans-Serif" font-size="10.00"> </text>
<polyline fill="none" stroke="black" points="-0.653809,-179 70.6538,-179 "/>
<text text-anchor="start" x="7.34619" y="-165" font-family="Helvetica,sans-Serif" font-size="10.00">+ Appfs()</text>
<text text-anchor="start" x="7.34619" y="-153" font-family="Helvetica,sans-Serif" font-size="10.00">+ create()</text>
<text text-anchor="start" x="7.34619" y="-141" font-family="Helvetica,sans-Serif" font-size="10.00">+ offset()</text>
<text text-anchor="start" x="7.34619" y="-129" font-family="Helvetica,sans-Serif" font-size="10.00">+ pagesize()</text>
</g>
<!-- Node2 -->
<g id="node2" class="node"><title>Node2</title>
<g id="a_node2"><a xlink:href="class_rle_appfs.html" target="_top" xlink:title="Class for reading/writing compressed file data using Appfs. ">
<polygon fill="none" stroke="black" points="-0.927246,-1 -0.927246,-85 70.9272,-85 70.9272,-1 -0.927246,-1"/>
<text text-anchor="middle" x="35" y="-71" font-family="Helvetica,sans-Serif" font-size="10.00">RleAppfs</text>
<polyline fill="none" stroke="black" points="-0.927246,-65 70.9272,-65 "/>
<text text-anchor="middle" x="35" y="-51" font-family="Helvetica,sans-Serif" font-size="10.00"> </text>
<polyline fill="none" stroke="black" points="-0.927246,-45 70.9272,-45 "/>
<text text-anchor="start" x="7.07275" y="-31" font-family="Helvetica,sans-Serif" font-size="10.00">+ RleAppfs()</text>
<text text-anchor="start" x="7.07275" y="-19" font-family="Helvetica,sans-Serif" font-size="10.00">+ write()</text>
<text text-anchor="start" x="7.07275" y="-7" font-family="Helvetica,sans-Serif" font-size="10.00">+ read()</text>
</a>
</g>
</g>
<!-- Node1&#45;&gt;Node2 -->
<g id="edge1" class="edge"><title>Node1&#45;&gt;Node2</title>
<path fill="none" stroke="midnightblue" d="M35,-112.492C35,-103.335 35,-94.0211 35,-85.3334"/>
<polygon fill="none" stroke="midnightblue" points="31.5001,-112.724 35,-122.724 38.5001,-112.724 31.5001,-112.724"/>
</g>
</g>
</svg>
