<?xml version="1.0" encoding="UTF-8" standalone="no"?>
<!DOCTYPE svg PUBLIC "-//W3C//DTD SVG 1.1//EN"
 "http://www.w3.org/Graphics/SVG/1.1/DTD/svg11.dtd">
<!-- Generated by graphviz version 2.34.0 (20130907.0228)
 -->
<!-- Title: Signal::Event Pages: 1 -->
<svg width="100pt" height="240pt"
 viewBox="0.00 0.00 100.00 240.00" xmlns="http://www.w3.org/2000/svg" xmlns:xlink="http://www.w3.org/1999/xlink">
<g id="graph0" class="graph" transform="scale(1 1) rotate(0) translate(4 236)">
<title>Signal::Event</title>
<!-- Node1 -->
<g id="node1" class="node"><title>Node1</title>
<polygon fill="#bfbfbf" stroke="black" points="4.23047,-123 4.23047,-231 87.7695,-231 87.7695,-123 4.23047,-123"/>
<text text-anchor="middle" x="46" y="-217" font-family="Helvetica,sans-Serif" font-size="10.00">Signal::Event</text>
<polyline fill="none" stroke="black" points="4.23047,-211 87.7695,-211 "/>
<text text-anchor="middle" x="46" y="-197" font-family="Helvetica,sans-Serif" font-size="10.00"> </text>
<polyline fill="none" stroke="black" points="4.23047,-191 87.7695,-191 "/>
<text text-anchor="start" x="12.2305" y="-177" font-family="Helvetica,sans-Serif" font-size="10.00">+ Event()</text>
<text text-anchor="start" x="12.2305" y="-165" font-family="Helvetica,sans-Serif" font-size="10.00">+ trigger()</text>
<text text-anchor="start" x="12.2305" y="-153" font-family="Helvetica,sans-Serif" font-size="10.00">+ trigger()</text>
<text text-anchor="start" x="12.2305" y="-141" font-family="Helvetica,sans-Serif" font-size="10.00">+ trigger()</text>
<text text-anchor="start" x="12.2305" y="-129" font-family="Helvetica,sans-Serif" font-size="10.00">+ set_handler()</text>
</g>
<!-- Node2 -->
<g id="node2" class="node"><title>Node2</title>
<g id="a_node2"><a xlink:href="class_signal_1_1_event_phy.html" target="_top" xlink:title="Class for bridging physical events with Signal events. ">
<polygon fill="none" stroke="black" points="-0.0786133,-1 -0.0786133,-85 92.0786,-85 92.0786,-1 -0.0786133,-1"/>
<text text-anchor="middle" x="46" y="-71" font-family="Helvetica,sans-Serif" font-size="10.00">Signal::EventPhy</text>
<polyline fill="none" stroke="black" points="-0.0786133,-65 92.0786,-65 "/>
<text text-anchor="middle" x="46" y="-51" font-family="Helvetica,sans-Serif" font-size="10.00"> </text>
<polyline fill="none" stroke="black" points="-0.0786133,-45 92.0786,-45 "/>
<text text-anchor="start" x="7.92139" y="-31" font-family="Helvetica,sans-Serif" font-size="10.00">+ EventPhy()</text>
<text text-anchor="start" x="7.92139" y="-19" font-family="Helvetica,sans-Serif" font-size="10.00">+ EventPhy()</text>
<text text-anchor="start" x="7.92139" y="-7" font-family="Helvetica,sans-Serif" font-size="10.00">+ action()</text>
</a>
</g>
</g>
<!-- Node1&#45;&gt;Node2 -->
<g id="edge1" class="edge"><title>Node1&#45;&gt;Node2</title>
<path fill="none" stroke="midnightblue" d="M46,-112.672C46,-103.381 46,-94.0199 46,-85.3257"/>
<polygon fill="none" stroke="midnightblue" points="42.5001,-112.691 46,-122.691 49.5001,-112.691 42.5001,-112.691"/>
</g>
</g>
</svg>
