<?xml version="1.0" encoding="UTF-8" standalone="no"?>
<!DOCTYPE svg PUBLIC "-//W3C//DTD SVG 1.1//EN"
 "http://www.w3.org/Graphics/SVG/1.1/DTD/svg11.dtd">
<!-- Generated by graphviz version 2.34.0 (20130907.0228)
 -->
<!-- Title: MLcd Pages: 1 -->
<svg width="116pt" height="542pt"
 viewBox="0.00 0.00 116.00 542.00" xmlns="http://www.w3.org/2000/svg" xmlns:xlink="http://www.w3.org/1999/xlink">
<g id="graph0" class="graph" transform="scale(1 1) rotate(0) translate(4 538)">
<title>MLcd</title>
<!-- Node1 -->
<g id="node1" class="node"><title>Node1</title>
<polygon fill="#bfbfbf" stroke="black" points="13.7588,-305 13.7588,-533 94.2412,-533 94.2412,-305 13.7588,-305"/>
<text text-anchor="middle" x="54" y="-519" font-family="Helvetica,sans-Serif" font-size="10.00">MLcd</text>
<polyline fill="none" stroke="black" points="13.7588,-513 94.2412,-513 "/>
<text text-anchor="start" x="21.7588" y="-499" font-family="Helvetica,sans-Serif" font-size="10.00">+ mask</text>
<text text-anchor="start" x="21.7588" y="-487" font-family="Helvetica,sans-Serif" font-size="10.00">+ rot_sin</text>
<text text-anchor="start" x="21.7588" y="-475" font-family="Helvetica,sans-Serif" font-size="10.00">+ rot_cos</text>
<text text-anchor="start" x="21.7588" y="-463" font-family="Helvetica,sans-Serif" font-size="10.00"># width_var</text>
<text text-anchor="start" x="21.7588" y="-451" font-family="Helvetica,sans-Serif" font-size="10.00"># height_var</text>
<polyline fill="none" stroke="black" points="13.7588,-445 94.2412,-445 "/>
<text text-anchor="start" x="21.7588" y="-431" font-family="Helvetica,sans-Serif" font-size="10.00">+ MLcd()</text>
<text text-anchor="start" x="21.7588" y="-419" font-family="Helvetica,sans-Serif" font-size="10.00">+ setfont()</text>
<text text-anchor="start" x="21.7588" y="-407" font-family="Helvetica,sans-Serif" font-size="10.00">+ setchar()</text>
<text text-anchor="start" x="21.7588" y="-395" font-family="Helvetica,sans-Serif" font-size="10.00">+ clrchar()</text>
<text text-anchor="start" x="21.7588" y="-383" font-family="Helvetica,sans-Serif" font-size="10.00">+ setstr()</text>
<text text-anchor="start" x="21.7588" y="-371" font-family="Helvetica,sans-Serif" font-size="10.00">+ clrstr()</text>
<text text-anchor="start" x="21.7588" y="-359" font-family="Helvetica,sans-Serif" font-size="10.00">+ sethfill()</text>
<text text-anchor="start" x="21.7588" y="-347" font-family="Helvetica,sans-Serif" font-size="10.00">+ setvfill()</text>
<text text-anchor="start" x="21.7588" y="-335" font-family="Helvetica,sans-Serif" font-size="10.00">+ setbitmap()</text>
<text text-anchor="start" x="21.7588" y="-323" font-family="Helvetica,sans-Serif" font-size="10.00">+ clrbitmap()</text>
<text text-anchor="start" x="21.7588" y="-311" font-family="Helvetica,sans-Serif" font-size="10.00">and 26 more...</text>
</g>
<!-- Node2 -->
<g id="node2" class="node"><title>Node2</title>
<g id="a_node2"><a xlink:href="class_nhdc12832.html" target="_top" xlink:title="Class for the New Haven Display 128x32 LCD. ">
<polygon fill="none" stroke="black" points="-0.838379,-99 -0.838379,-267 108.838,-267 108.838,-99 -0.838379,-99"/>
<text text-anchor="middle" x="54" y="-253" font-family="Helvetica,sans-Serif" font-size="10.00">Nhdc12832</text>
<polyline fill="none" stroke="black" points="-0.838379,-247 108.838,-247 "/>
<text text-anchor="middle" x="54" y="-233" font-family="Helvetica,sans-Serif" font-size="10.00"> </text>
<polyline fill="none" stroke="black" points="-0.838379,-227 108.838,-227 "/>
<text text-anchor="start" x="7.16162" y="-213" font-family="Helvetica,sans-Serif" font-size="10.00">+ Nhdc12832()</text>
<text text-anchor="start" x="7.16162" y="-201" font-family="Helvetica,sans-Serif" font-size="10.00">+ init()</text>
<text text-anchor="start" x="7.16162" y="-189" font-family="Helvetica,sans-Serif" font-size="10.00">+ refresh()</text>
<text text-anchor="start" x="7.16162" y="-177" font-family="Helvetica,sans-Serif" font-size="10.00">+ clear()</text>
<text text-anchor="start" x="7.16162" y="-165" font-family="Helvetica,sans-Serif" font-size="10.00">+ setpixel()</text>
<text text-anchor="start" x="7.16162" y="-153" font-family="Helvetica,sans-Serif" font-size="10.00">+ clrpixel()</text>
<text text-anchor="start" x="7.16162" y="-141" font-family="Helvetica,sans-Serif" font-size="10.00">+ tstpixel()</text>
<text text-anchor="start" x="7.16162" y="-129" font-family="Helvetica,sans-Serif" font-size="10.00">+ tstpixel_bounded()</text>
<text text-anchor="start" x="7.16162" y="-117" font-family="Helvetica,sans-Serif" font-size="10.00">+ setpixel_bounded()</text>
<text text-anchor="start" x="7.16162" y="-105" font-family="Helvetica,sans-Serif" font-size="10.00">+ clrpixel_bounded()</text>
</a>
</g>
</g>
<!-- Node1&#45;&gt;Node2 -->
<g id="edge1" class="edge"><title>Node1&#45;&gt;Node2</title>
<path fill="none" stroke="midnightblue" d="M54,-294.636C54,-285.306 54,-276.029 54,-267.046"/>
<polygon fill="none" stroke="midnightblue" points="50.5001,-294.77 54,-304.77 57.5001,-294.77 50.5001,-294.77"/>
</g>
<!-- Node3 -->
<g id="node3" class="node"><title>Node3</title>
<g id="a_node3"><a xlink:href="class_exp_lcd_device.html" target="_top" xlink:title="CoAction Hero LCD Expansion board class. ">
<polygon fill="none" stroke="black" points="6.40039,-1 6.40039,-61 101.6,-61 101.6,-1 6.40039,-1"/>
<text text-anchor="middle" x="54" y="-47" font-family="Helvetica,sans-Serif" font-size="10.00">ExpLcdDevice</text>
<polyline fill="none" stroke="black" points="6.40039,-41 101.6,-41 "/>
<text text-anchor="middle" x="54" y="-27" font-family="Helvetica,sans-Serif" font-size="10.00"> </text>
<polyline fill="none" stroke="black" points="6.40039,-21 101.6,-21 "/>
<text text-anchor="start" x="14.4004" y="-7" font-family="Helvetica,sans-Serif" font-size="10.00">+ ExpLcdDevice()</text>
</a>
</g>
</g>
<!-- Node2&#45;&gt;Node3 -->
<g id="edge2" class="edge"><title>Node2&#45;&gt;Node3</title>
<path fill="none" stroke="midnightblue" d="M54,-88.6468C54,-78.7515 54,-69.3103 54,-61.0716"/>
<polygon fill="none" stroke="midnightblue" points="50.5001,-88.6657 54,-98.6657 57.5001,-88.6658 50.5001,-88.6657"/>
</g>
</g>
</svg>
