<?xml version="1.0" encoding="UTF-8" standalone="no"?>
<!DOCTYPE svg PUBLIC "-//W3C//DTD SVG 1.1//EN"
 "http://www.w3.org/Graphics/SVG/1.1/DTD/svg11.dtd">
<!-- Generated by graphviz version 2.34.0 (20130907.0228)
 -->
<!-- Title: Rle Pages: 1 -->
<svg width="149pt" height="228pt"
 viewBox="0.00 0.00 149.00 228.00" xmlns="http://www.w3.org/2000/svg" xmlns:xlink="http://www.w3.org/1999/xlink">
<g id="graph0" class="graph" transform="scale(1 1) rotate(0) translate(4 224)">
<title>Rle</title>
<!-- Node1 -->
<g id="node1" class="node"><title>Node1</title>
<polygon fill="#bfbfbf" stroke="black" points="42.957,-123 42.957,-219 107.043,-219 107.043,-123 42.957,-123"/>
<text text-anchor="middle" x="75" y="-205" font-family="Helvetica,sans-Serif" font-size="10.00">Rle</text>
<polyline fill="none" stroke="black" points="42.957,-199 107.043,-199 "/>
<text text-anchor="middle" x="75" y="-185" font-family="Helvetica,sans-Serif" font-size="10.00"> </text>
<polyline fill="none" stroke="black" points="42.957,-179 107.043,-179 "/>
<text text-anchor="start" x="50.957" y="-165" font-family="Helvetica,sans-Serif" font-size="10.00">+ Rle()</text>
<text text-anchor="start" x="50.957" y="-153" font-family="Helvetica,sans-Serif" font-size="10.00">+ encode()</text>
<text text-anchor="start" x="50.957" y="-141" font-family="Helvetica,sans-Serif" font-size="10.00">+ decode()</text>
<text text-anchor="start" x="50.957" y="-129" font-family="Helvetica,sans-Serif" font-size="10.00">+ size()</text>
</g>
<!-- Node2 -->
<g id="node2" class="node"><title>Node2</title>
<g id="a_node2"><a xlink:href="class_rle_appfs.html" target="_top" xlink:title="Class for reading/writing compressed file data using Appfs. ">
<polygon fill="none" stroke="black" points="-0.927246,-1 -0.927246,-85 70.9272,-85 70.9272,-1 -0.927246,-1"/>
<text text-anchor="middle" x="35" y="-71" font-family="Helvetica,sans-Serif" font-size="10.00">RleAppfs</text>
<polyline fill="none" stroke="black" points="-0.927246,-65 70.9272,-65 "/>
<text text-anchor="middle" x="35" y="-51" font-family="Helvetica,sans-Serif" font-size="10.00"> </text>
<polyline fill="none" stroke="black" points="-0.927246,-45 70.9272,-45 "/>
<text text-anchor="start" x="7.07275" y="-31" font-family="Helvetica,sans-Serif" font-size="10.00">+ RleAppfs()</text>
<text text-anchor="start" x="7.07275" y="-19" font-family="Helvetica,sans-Serif" font-size="10.00">+ write()</text>
<text text-anchor="start" x="7.07275" y="-7" font-family="Helvetica,sans-Serif" font-size="10.00">+ read()</text>
</a>
</g>
</g>
<!-- Node1&#45;&gt;Node2 -->
<g id="edge1" class="edge"><title>Node1&#45;&gt;Node2</title>
<path fill="none" stroke="midnightblue" d="M56.9311,-113.083C53.9637,-103.736 50.939,-94.208 48.1217,-85.3334"/>
<polygon fill="none" stroke="midnightblue" points="53.6299,-114.252 59.9917,-122.724 60.3017,-112.133 53.6299,-114.252"/>
</g>
<!-- Node3 -->
<g id="node3" class="node"><title>Node3</title>
<g id="a_node3"><a xlink:href="class_rle_file.html" target="_top" xlink:title="Class for reading/writing compressed file data. ">
<polygon fill="none" stroke="black" points="88.8042,-7 88.8042,-79 141.196,-79 141.196,-7 88.8042,-7"/>
<text text-anchor="middle" x="115" y="-65" font-family="Helvetica,sans-Serif" font-size="10.00">RleFile</text>
<polyline fill="none" stroke="black" points="88.8042,-59 141.196,-59 "/>
<text text-anchor="middle" x="115" y="-45" font-family="Helvetica,sans-Serif" font-size="10.00"> </text>
<polyline fill="none" stroke="black" points="88.8042,-39 141.196,-39 "/>
<text text-anchor="start" x="96.8042" y="-25" font-family="Helvetica,sans-Serif" font-size="10.00">+ write()</text>
<text text-anchor="start" x="96.8042" y="-13" font-family="Helvetica,sans-Serif" font-size="10.00">+ read()</text>
</a>
</g>
</g>
<!-- Node1&#45;&gt;Node3 -->
<g id="edge2" class="edge"><title>Node1&#45;&gt;Node3</title>
<path fill="none" stroke="midnightblue" d="M93.0476,-113.15C96.7033,-101.635 100.447,-89.8425 103.783,-79.3324"/>
<polygon fill="none" stroke="midnightblue" points="89.6983,-112.133 90.0083,-122.724 96.3701,-114.252 89.6983,-112.133"/>
</g>
</g>
</svg>
