<?xml version="1.0" encoding="UTF-8" standalone="no"?>
<!DOCTYPE svg PUBLIC "-//W3C//DTD SVG 1.1//EN"
 "http://www.w3.org/Graphics/SVG/1.1/DTD/svg11.dtd">
<!-- Generated by graphviz version 2.34.0 (20130907.0228)
 -->
<!-- Title: RleAppfs Pages: 1 -->
<svg width="161pt" height="228pt"
 viewBox="0.00 0.00 161.00 228.00" xmlns="http://www.w3.org/2000/svg" xmlns:xlink="http://www.w3.org/1999/xlink">
<g id="graph0" class="graph" transform="scale(1 1) rotate(0) translate(4 224)">
<title>RleAppfs</title>
<!-- Node1 -->
<g id="node1" class="node"><title>Node1</title>
<polygon fill="#bfbfbf" stroke="black" points="39.0728,-1 39.0728,-85 110.927,-85 110.927,-1 39.0728,-1"/>
<text text-anchor="middle" x="75" y="-71" font-family="Helvetica,sans-Serif" font-size="10.00">RleAppfs</text>
<polyline fill="none" stroke="black" points="39.0728,-65 110.927,-65 "/>
<text text-anchor="middle" x="75" y="-51" font-family="Helvetica,sans-Serif" font-size="10.00"> </text>
<polyline fill="none" stroke="black" points="39.0728,-45 110.927,-45 "/>
<text text-anchor="start" x="47.0728" y="-31" font-family="Helvetica,sans-Serif" font-size="10.00">+ RleAppfs()</text>
<text text-anchor="start" x="47.0728" y="-19" font-family="Helvetica,sans-Serif" font-size="10.00">+ write()</text>
<text text-anchor="start" x="47.0728" y="-7" font-family="Helvetica,sans-Serif" font-size="10.00">+ read()</text>
</g>
<!-- Node2 -->
<g id="node2" class="node"><title>Node2</title>
<g id="a_node2"><a xlink:href="class_rle.html" target="_top" xlink:title="Run Length Encoding Class. ">
<polygon fill="none" stroke="black" points="-0.0429688,-123 -0.0429688,-219 64.043,-219 64.043,-123 -0.0429688,-123"/>
<text text-anchor="middle" x="32" y="-205" font-family="Helvetica,sans-Serif" font-size="10.00">Rle</text>
<polyline fill="none" stroke="black" points="-0.0429688,-199 64.043,-199 "/>
<text text-anchor="middle" x="32" y="-185" font-family="Helvetica,sans-Serif" font-size="10.00"> </text>
<polyline fill="none" stroke="black" points="-0.0429688,-179 64.043,-179 "/>
<text text-anchor="start" x="7.95703" y="-165" font-family="Helvetica,sans-Serif" font-size="10.00">+ Rle()</text>
<text text-anchor="start" x="7.95703" y="-153" font-family="Helvetica,sans-Serif" font-size="10.00">+ encode()</text>
<text text-anchor="start" x="7.95703" y="-141" font-family="Helvetica,sans-Serif" font-size="10.00">+ decode()</text>
<text text-anchor="start" x="7.95703" y="-129" font-family="Helvetica,sans-Serif" font-size="10.00">+ size()</text>
</a>
</g>
</g>
<!-- Node2&#45;&gt;Node1 -->
<g id="edge1" class="edge"><title>Node2&#45;&gt;Node1</title>
<path fill="none" stroke="midnightblue" d="M51.4241,-113.083C54.614,-103.736 57.8655,-94.208 60.8941,-85.3334"/>
<polygon fill="none" stroke="midnightblue" points="48.0514,-112.129 48.134,-122.724 54.6762,-114.39 48.0514,-112.129"/>
</g>
<!-- Node3 -->
<g id="node3" class="node"><title>Node3</title>
<g id="a_node3"><a xlink:href="class_appfs.html" target="_top" xlink:title="Class for accessing Application file system (Flash/RAM) ">
<polygon fill="none" stroke="black" points="82.3462,-123 82.3462,-219 153.654,-219 153.654,-123 82.3462,-123"/>
<text text-anchor="middle" x="118" y="-205" font-family="Helvetica,sans-Serif" font-size="10.00">Appfs</text>
<polyline fill="none" stroke="black" points="82.3462,-199 153.654,-199 "/>
<text text-anchor="middle" x="118" y="-185" font-family="Helvetica,sans-Serif" font-size="10.00"> </text>
<polyline fill="none" stroke="black" points="82.3462,-179 153.654,-179 "/>
<text text-anchor="start" x="90.3462" y="-165" font-family="Helvetica,sans-Serif" font-size="10.00">+ Appfs()</text>
<text text-anchor="start" x="90.3462" y="-153" font-family="Helvetica,sans-Serif" font-size="10.00">+ create()</text>
<text text-anchor="start" x="90.3462" y="-141" font-family="Helvetica,sans-Serif" font-size="10.00">+ offset()</text>
<text text-anchor="start" x="90.3462" y="-129" font-family="Helvetica,sans-Serif" font-size="10.00">+ pagesize()</text>
</a>
</g>
</g>
<!-- Node3&#45;&gt;Node1 -->
<g id="edge2" class="edge"><title>Node3&#45;&gt;Node1</title>
<path fill="none" stroke="midnightblue" d="M98.5759,-113.083C95.386,-103.736 92.1345,-94.208 89.1059,-85.3334"/>
<polygon fill="none" stroke="midnightblue" points="95.3238,-114.39 101.866,-122.724 101.949,-112.129 95.3238,-114.39"/>
</g>
</g>
</svg>
