<?xml version="1.0" encoding="UTF-8" standalone="no"?>
<!DOCTYPE svg PUBLIC "-//W3C//DTD SVG 1.1//EN"
 "http://www.w3.org/Graphics/SVG/1.1/DTD/svg11.dtd">
<!-- Generated by graphviz version 2.34.0 (20130907.0228)
 -->
<!-- Title: Pblock Pages: 1 -->
<svg width="74pt" height="518pt"
 viewBox="0.00 0.00 74.00 518.00" xmlns="http://www.w3.org/2000/svg" xmlns:xlink="http://www.w3.org/1999/xlink">
<g id="graph0" class="graph" transform="scale(1 1) rotate(0) translate(4 514)">
<title>Pblock</title>
<!-- Node1 -->
<g id="node1" class="node"><title>Node1</title>
<polygon fill="#bfbfbf" stroke="black" points="2.35352,-1 2.35352,-85 63.6465,-85 63.6465,-1 2.35352,-1"/>
<text text-anchor="middle" x="33" y="-71" font-family="Helvetica,sans-Serif" font-size="10.00">Pblock</text>
<polyline fill="none" stroke="black" points="2.35352,-65 63.6465,-65 "/>
<text text-anchor="middle" x="33" y="-51" font-family="Helvetica,sans-Serif" font-size="10.00"> </text>
<polyline fill="none" stroke="black" points="2.35352,-45 63.6465,-45 "/>
<text text-anchor="start" x="10.3535" y="-31" font-family="Helvetica,sans-Serif" font-size="10.00">+ Pblock()</text>
<text text-anchor="start" x="10.3535" y="-19" font-family="Helvetica,sans-Serif" font-size="10.00">+ read()</text>
<text text-anchor="start" x="10.3535" y="-7" font-family="Helvetica,sans-Serif" font-size="10.00">+ write()</text>
</g>
<!-- Node2 -->
<g id="node2" class="node"><title>Node2</title>
<g id="a_node2"><a xlink:href="class_periph.html" target="_top" xlink:title="Peripheral Class. ">
<polygon fill="none" stroke="black" points="-0.429688,-123 -0.429688,-363 66.4297,-363 66.4297,-123 -0.429688,-123"/>
<text text-anchor="middle" x="33" y="-349" font-family="Helvetica,sans-Serif" font-size="10.00">Periph</text>
<polyline fill="none" stroke="black" points="-0.429688,-343 66.4297,-343 "/>
<text text-anchor="start" x="7.57031" y="-329" font-family="Helvetica,sans-Serif" font-size="10.00"># port_</text>
<text text-anchor="start" x="7.57031" y="-317" font-family="Helvetica,sans-Serif" font-size="10.00"># fd</text>
<polyline fill="none" stroke="black" points="-0.429688,-311 66.4297,-311 "/>
<text text-anchor="start" x="7.57031" y="-297" font-family="Helvetica,sans-Serif" font-size="10.00">+ Periph()</text>
<text text-anchor="start" x="7.57031" y="-285" font-family="Helvetica,sans-Serif" font-size="10.00">+ open()</text>
<text text-anchor="start" x="7.57031" y="-273" font-family="Helvetica,sans-Serif" font-size="10.00">+ open()</text>
<text text-anchor="start" x="7.57031" y="-261" font-family="Helvetica,sans-Serif" font-size="10.00">+ setflags()</text>
<text text-anchor="start" x="7.57031" y="-249" font-family="Helvetica,sans-Serif" font-size="10.00">+ read()</text>
<text text-anchor="start" x="7.57031" y="-237" font-family="Helvetica,sans-Serif" font-size="10.00">+ readline()</text>
<text text-anchor="start" x="7.57031" y="-225" font-family="Helvetica,sans-Serif" font-size="10.00">+ write()</text>
<text text-anchor="start" x="7.57031" y="-213" font-family="Helvetica,sans-Serif" font-size="10.00">+ write()</text>
<text text-anchor="start" x="7.57031" y="-201" font-family="Helvetica,sans-Serif" font-size="10.00">+ close()</text>
<text text-anchor="start" x="7.57031" y="-189" font-family="Helvetica,sans-Serif" font-size="10.00">+ read()</text>
<text text-anchor="start" x="7.57031" y="-177" font-family="Helvetica,sans-Serif" font-size="10.00">+ write()</text>
<text text-anchor="start" x="7.57031" y="-165" font-family="Helvetica,sans-Serif" font-size="10.00">+ fileno()</text>
<text text-anchor="start" x="7.57031" y="-153" font-family="Helvetica,sans-Serif" font-size="10.00">+ ioctl()</text>
<text text-anchor="start" x="7.57031" y="-141" font-family="Helvetica,sans-Serif" font-size="10.00">+ port()</text>
<text text-anchor="start" x="7.57031" y="-129" font-family="Helvetica,sans-Serif" font-size="10.00"># _open()</text>
</a>
</g>
</g>
<!-- Node2&#45;&gt;Node1 -->
<g id="edge1" class="edge"><title>Node2&#45;&gt;Node1</title>
<path fill="none" stroke="midnightblue" d="M33,-112.556C33,-102.837 33,-93.5512 33,-85.1272"/>
<polygon fill="none" stroke="midnightblue" points="29.5001,-112.824 33,-122.824 36.5001,-112.824 29.5001,-112.824"/>
</g>
<!-- Node3 -->
<g id="node3" class="node"><title>Node3</title>
<g id="a_node3"><a xlink:href="class_phy.html" target="_top" xlink:title="Base Applib Class for Physical devices. ">
<polygon fill="none" stroke="black" points="8.46924,-401 8.46924,-509 57.5308,-509 57.5308,-401 8.46924,-401"/>
<text text-anchor="middle" x="33" y="-495" font-family="Helvetica,sans-Serif" font-size="10.00">Phy</text>
<polyline fill="none" stroke="black" points="8.46924,-489 57.5308,-489 "/>
<text text-anchor="middle" x="33" y="-475" font-family="Helvetica,sans-Serif" font-size="10.00"> </text>
<polyline fill="none" stroke="black" points="8.46924,-469 57.5308,-469 "/>
<text text-anchor="start" x="16.4692" y="-455" font-family="Helvetica,sans-Serif" font-size="10.00">+ Phy()</text>
<text text-anchor="start" x="16.4692" y="-443" font-family="Helvetica,sans-Serif" font-size="10.00">+ ioctl()</text>
<text text-anchor="start" x="16.4692" y="-431" font-family="Helvetica,sans-Serif" font-size="10.00">+ ioctl()</text>
<text text-anchor="start" x="16.4692" y="-419" font-family="Helvetica,sans-Serif" font-size="10.00">+ ioctl()</text>
<text text-anchor="start" x="16.4692" y="-407" font-family="Helvetica,sans-Serif" font-size="10.00">+ ioctl()</text>
</a>
</g>
</g>
<!-- Node3&#45;&gt;Node2 -->
<g id="edge2" class="edge"><title>Node3&#45;&gt;Node2</title>
<path fill="none" stroke="midnightblue" d="M33,-390.643C33,-381.847 33,-372.586 33,-363.17"/>
<polygon fill="none" stroke="midnightblue" points="29.5001,-390.737 33,-400.737 36.5001,-390.737 29.5001,-390.737"/>
</g>
</g>
</svg>
