<?xml version="1.0" encoding="UTF-8" standalone="no"?>
<!DOCTYPE svg PUBLIC "-//W3C//DTD SVG 1.1//EN"
 "http://www.w3.org/Graphics/SVG/1.1/DTD/svg11.dtd">
<!-- Generated by graphviz version 2.34.0 (20130907.0228)
 -->
<!-- Title: /Users/tgil/git/CoActionOS/CoActionOS/src/sys/time/clocks.c Pages: 1 -->
<svg width="412pt" height="112pt"
 viewBox="0.00 0.00 412.00 112.00" xmlns="http://www.w3.org/2000/svg" xmlns:xlink="http://www.w3.org/1999/xlink">
<g id="graph0" class="graph" transform="scale(1 1) rotate(0) translate(4 108)">
<title>/Users/tgil/git/CoActionOS/CoActionOS/src/sys/time/clocks.c</title>
<!-- Node1 -->
<g id="node1" class="node"><title>Node1</title>
<polygon fill="#bfbfbf" stroke="black" points="115.931,-59 115.931,-103 238.069,-103 238.069,-59 115.931,-59"/>
<text text-anchor="start" x="123.931" y="-89" font-family="Helvetica,sans-Serif" font-size="10.00">/Users/tgil/git/CoAction</text>
<text text-anchor="start" x="123.931" y="-77" font-family="Helvetica,sans-Serif" font-size="10.00">OS/CoActionOS/src/sys</text>
<text text-anchor="middle" x="177" y="-65" font-family="Helvetica,sans-Serif" font-size="10.00">/time/clocks.c</text>
</g>
<!-- Node2 -->
<g id="node2" class="node"><title>Node2</title>
<polygon fill="none" stroke="#bfbfbf" points="-0.842285,-1 -0.842285,-21 46.8423,-21 46.8423,-1 -0.842285,-1"/>
<text text-anchor="middle" x="23" y="-7" font-family="Helvetica,sans-Serif" font-size="10.00">errno.h</text>
</g>
<!-- Node1&#45;&gt;Node2 -->
<g id="edge1" class="edge"><title>Node1&#45;&gt;Node2</title>
<path fill="none" stroke="midnightblue" d="M129.118,-58.8571C104.156,-47.8353 74.4074,-34.6994 52.768,-25.1443"/>
<polygon fill="midnightblue" stroke="midnightblue" points="54.0042,-21.8642 43.4426,-21.0266 51.1767,-28.2677 54.0042,-21.8642"/>
</g>
<!-- Node3 -->
<g id="node3" class="node"><title>Node3</title>
<polygon fill="none" stroke="#bfbfbf" points="64.4951,-1 64.4951,-21 125.505,-21 125.505,-1 64.4951,-1"/>
<text text-anchor="middle" x="95" y="-7" font-family="Helvetica,sans-Serif" font-size="10.00">sys/time.h</text>
</g>
<!-- Node1&#45;&gt;Node3 -->
<g id="edge2" class="edge"><title>Node1&#45;&gt;Node3</title>
<path fill="none" stroke="midnightblue" d="M151.504,-58.8571C139.366,-48.7911 125.101,-36.9617 113.941,-27.7072"/>
<polygon fill="midnightblue" stroke="midnightblue" points="116.031,-24.8932 106.099,-21.2039 111.562,-30.2815 116.031,-24.8932"/>
</g>
<!-- Node4 -->
<g id="node4" class="node"><title>Node4</title>
<polygon fill="none" stroke="#bfbfbf" points="143.995,-1 143.995,-21 210.005,-21 210.005,-1 143.995,-1"/>
<text text-anchor="middle" x="177" y="-7" font-family="Helvetica,sans-Serif" font-size="10.00">sys/times.h</text>
</g>
<!-- Node1&#45;&gt;Node4 -->
<g id="edge3" class="edge"><title>Node1&#45;&gt;Node4</title>
<path fill="none" stroke="midnightblue" d="M177,-58.8571C177,-50.074 177,-39.9484 177,-31.3622"/>
<polygon fill="midnightblue" stroke="midnightblue" points="180.5,-31.2039 177,-21.2039 173.5,-31.204 180.5,-31.2039"/>
</g>
<!-- Node5 -->
<g id="node5" class="node"><title>Node5</title>
<polygon fill="none" stroke="#bfbfbf" points="228.384,-1 228.384,-21 271.616,-21 271.616,-1 228.384,-1"/>
<text text-anchor="middle" x="250" y="-7" font-family="Helvetica,sans-Serif" font-size="10.00">time.h</text>
</g>
<!-- Node1&#45;&gt;Node5 -->
<g id="edge4" class="edge"><title>Node1&#45;&gt;Node5</title>
<path fill="none" stroke="midnightblue" d="M199.697,-58.8571C210.292,-48.9884 222.706,-37.425 232.55,-28.2545"/>
<polygon fill="midnightblue" stroke="midnightblue" points="235.188,-30.581 240.119,-21.2039 230.416,-25.459 235.188,-30.581"/>
</g>
<!-- Node6 -->
<g id="node6" class="node"><title>Node6</title>
<polygon fill="none" stroke="#bfbfbf" points="289.247,-1 289.247,-21 404.753,-21 404.753,-1 289.247,-1"/>
<text text-anchor="middle" x="347" y="-7" font-family="Helvetica,sans-Serif" font-size="10.00">../sched/sched_flags.h</text>
</g>
<!-- Node1&#45;&gt;Node6 -->
<g id="edge5" class="edge"><title>Node1&#45;&gt;Node6</title>
<path fill="none" stroke="midnightblue" d="M229.857,-58.8571C257.784,-47.6863 291.14,-34.344 315.103,-24.7589"/>
<polygon fill="midnightblue" stroke="midnightblue" points="316.449,-27.9902 324.434,-21.0266 313.849,-21.4909 316.449,-27.9902"/>
</g>
</g>
</svg>
