<?xml version="1.0" encoding="UTF-8" standalone="no"?>
<!DOCTYPE svg PUBLIC "-//W3C//DTD SVG 1.1//EN"
 "http://www.w3.org/Graphics/SVG/1.1/DTD/svg11.dtd">
<!-- Generated by graphviz version 2.34.0 (20130907.0228)
 -->
<!-- Title: /Users/tgil/git/CoActionOS/CoActionOS/src/config.h Pages: 1 -->
<svg width="3935pt" height="206pt"
 viewBox="0.00 0.00 3935.00 206.00" xmlns="http://www.w3.org/2000/svg" xmlns:xlink="http://www.w3.org/1999/xlink">
<g id="graph0" class="graph" transform="scale(1 1) rotate(0) translate(4 202)">
<title>/Users/tgil/git/CoActionOS/CoActionOS/src/config.h</title>
<!-- Node1 -->
<g id="node1" class="node"><title>Node1</title>
<polygon fill="#bfbfbf" stroke="black" points="1475.92,-165 1475.92,-197 1618.08,-197 1618.08,-165 1475.92,-165"/>
<text text-anchor="start" x="1483.92" y="-183" font-family="Helvetica,sans-Serif" font-size="10.00">/Users/tgil/git/CoAction</text>
<text text-anchor="middle" x="1547" y="-171" font-family="Helvetica,sans-Serif" font-size="10.00">OS/CoActionOS/src/config.h</text>
</g>
<!-- Node2 -->
<g id="node2" class="node"><title>Node2</title>
<g id="a_node2"><a xlink:href="usb__dev__runtime__dfu_8h_source.html" target="_top" xlink:title="/Users/tgil/git/CoAction\lOS/CoActionOS/include\l/usb_dev_runtime_dfu.h">
<polygon fill="none" stroke="black" points="-0.647461,-83 -0.647461,-127 122.647,-127 122.647,-83 -0.647461,-83"/>
<text text-anchor="start" x="7.35254" y="-113" font-family="Helvetica,sans-Serif" font-size="10.00">/Users/tgil/git/CoAction</text>
<text text-anchor="start" x="7.35254" y="-101" font-family="Helvetica,sans-Serif" font-size="10.00">OS/CoActionOS/include</text>
<text text-anchor="middle" x="61" y="-89" font-family="Helvetica,sans-Serif" font-size="10.00">/usb_dev_runtime_dfu.h</text>
</a>
</g>
</g>
<!-- Node1&#45;&gt;Node2 -->
<g id="edge1" class="edge"><title>Node1&#45;&gt;Node2</title>
<path fill="none" stroke="midnightblue" d="M1465.33,-179.821C1204.12,-178.806 391.024,-172.091 132,-128 128.947,-127.48 125.842,-126.865 122.722,-126.176"/>
<polygon fill="midnightblue" stroke="midnightblue" points="1465.49,-183.322 1475.5,-179.859 1465.52,-176.322 1465.49,-183.322"/>
</g>
<!-- Node3 -->
<g id="node3" class="node"><title>Node3</title>
<g id="a_node3"><a xlink:href="dirent_8c.html" target="_top" xlink:title="/Users/tgil/git/CoAction\lOS/CoActionOS/src/sys\l/dirent/dirent.c">
<polygon fill="none" stroke="black" points="140.931,-83 140.931,-127 263.069,-127 263.069,-83 140.931,-83"/>
<text text-anchor="start" x="148.931" y="-113" font-family="Helvetica,sans-Serif" font-size="10.00">/Users/tgil/git/CoAction</text>
<text text-anchor="start" x="148.931" y="-101" font-family="Helvetica,sans-Serif" font-size="10.00">OS/CoActionOS/src/sys</text>
<text text-anchor="middle" x="202" y="-89" font-family="Helvetica,sans-Serif" font-size="10.00">/dirent/dirent.c</text>
</a>
</g>
</g>
<!-- Node1&#45;&gt;Node3 -->
<g id="edge2" class="edge"><title>Node1&#45;&gt;Node3</title>
<path fill="none" stroke="midnightblue" d="M1465.61,-179.48C1222.25,-177.481 502.753,-168.237 272,-128 269.114,-127.497 266.181,-126.906 263.233,-126.248"/>
<polygon fill="midnightblue" stroke="midnightblue" points="1465.77,-182.981 1475.8,-179.561 1465.83,-175.981 1465.77,-182.981"/>
</g>
<!-- Node4 -->
<g id="node4" class="node"><title>Node4</title>
<g id="a_node4"><a xlink:href="pthread__attr_8c.html" target="_top" xlink:title="/Users/tgil/git/CoAction\lOS/CoActionOS/src/sys\l/pthread/pthread_attr.c">
<polygon fill="none" stroke="black" points="280.931,-83 280.931,-127 403.069,-127 403.069,-83 280.931,-83"/>
<text text-anchor="start" x="288.931" y="-113" font-family="Helvetica,sans-Serif" font-size="10.00">/Users/tgil/git/CoAction</text>
<text text-anchor="start" x="288.931" y="-101" font-family="Helvetica,sans-Serif" font-size="10.00">OS/CoActionOS/src/sys</text>
<text text-anchor="middle" x="342" y="-89" font-family="Helvetica,sans-Serif" font-size="10.00">/pthread/pthread_attr.c</text>
</a>
</g>
</g>
<!-- Node1&#45;&gt;Node4 -->
<g id="edge3" class="edge"><title>Node1&#45;&gt;Node4</title>
<path fill="none" stroke="midnightblue" d="M1465.73,-179.002C1241.04,-175.81 614.656,-163.862 412,-128 409.115,-127.489 406.183,-126.893 403.236,-126.23"/>
<polygon fill="midnightblue" stroke="midnightblue" points="1465.76,-182.503 1475.8,-179.143 1465.85,-175.504 1465.76,-182.503"/>
</g>
<!-- Node5 -->
<g id="node5" class="node"><title>Node5</title>
<g id="a_node5"><a xlink:href="pthread__attr__init_8c.html" target="_top" xlink:title="/Users/tgil/git/CoAction\lOS/CoActionOS/src/sys\l/pthread/pthread_attr_init.c">
<polygon fill="none" stroke="black" points="421.239,-83 421.239,-127 556.761,-127 556.761,-83 421.239,-83"/>
<text text-anchor="start" x="429.239" y="-113" font-family="Helvetica,sans-Serif" font-size="10.00">/Users/tgil/git/CoAction</text>
<text text-anchor="start" x="429.239" y="-101" font-family="Helvetica,sans-Serif" font-size="10.00">OS/CoActionOS/src/sys</text>
<text text-anchor="middle" x="489" y="-89" font-family="Helvetica,sans-Serif" font-size="10.00">/pthread/pthread_attr_init.c</text>
</a>
</g>
</g>
<!-- Node1&#45;&gt;Node5 -->
<g id="edge4" class="edge"><title>Node1&#45;&gt;Node5</title>
<path fill="none" stroke="midnightblue" d="M1465.62,-178.047C1262.7,-172.797 738.249,-156.793 566,-128 562.983,-127.496 559.916,-126.916 556.83,-126.276"/>
<polygon fill="midnightblue" stroke="midnightblue" points="1465.54,-181.546 1475.62,-178.303 1465.72,-174.548 1465.54,-181.546"/>
</g>
<!-- Node6 -->
<g id="node6" class="node"><title>Node6</title>
<g id="a_node6"><a xlink:href="pthread__cancel_8c.html" target="_top" xlink:title="/Users/tgil/git/CoAction\lOS/CoActionOS/src/sys\l/pthread/pthread_cancel.c">
<polygon fill="none" stroke="black" points="575.183,-83 575.183,-127 706.817,-127 706.817,-83 575.183,-83"/>
<text text-anchor="start" x="583.183" y="-113" font-family="Helvetica,sans-Serif" font-size="10.00">/Users/tgil/git/CoAction</text>
<text text-anchor="start" x="583.183" y="-101" font-family="Helvetica,sans-Serif" font-size="10.00">OS/CoActionOS/src/sys</text>
<text text-anchor="middle" x="641" y="-89" font-family="Helvetica,sans-Serif" font-size="10.00">/pthread/pthread_cancel.c</text>
</a>
</g>
</g>
<!-- Node1&#45;&gt;Node6 -->
<g id="edge5" class="edge"><title>Node1&#45;&gt;Node6</title>
<path fill="none" stroke="midnightblue" d="M1465.76,-180.886C1316.2,-181.199 987.739,-175.741 716,-128 713.06,-127.483 710.071,-126.893 707.064,-126.246"/>
<polygon fill="midnightblue" stroke="midnightblue" points="1465.79,-184.386 1475.78,-180.856 1465.77,-177.386 1465.79,-184.386"/>
</g>
<!-- Node7 -->
<g id="node7" class="node"><title>Node7</title>
<g id="a_node7"><a xlink:href="pthread__cleanup_8c.html" target="_top" xlink:title="/Users/tgil/git/CoAction\lOS/CoActionOS/src/sys\l/pthread/pthread_cleanup.c">
<polygon fill="none" stroke="black" points="725.121,-83 725.121,-127 862.879,-127 862.879,-83 725.121,-83"/>
<text text-anchor="start" x="733.121" y="-113" font-family="Helvetica,sans-Serif" font-size="10.00">/Users/tgil/git/CoAction</text>
<text text-anchor="start" x="733.121" y="-101" font-family="Helvetica,sans-Serif" font-size="10.00">OS/CoActionOS/src/sys</text>
<text text-anchor="middle" x="794" y="-89" font-family="Helvetica,sans-Serif" font-size="10.00">/pthread/pthread_cleanup.c</text>
</a>
</g>
</g>
<!-- Node1&#45;&gt;Node7 -->
<g id="edge6" class="edge"><title>Node1&#45;&gt;Node7</title>
<path fill="none" stroke="midnightblue" d="M1465.39,-178.91C1337.82,-176.043 1083.82,-165.648 872,-128 869.091,-127.483 866.134,-126.903 863.157,-126.273"/>
<polygon fill="midnightblue" stroke="midnightblue" points="1465.4,-182.411 1475.47,-179.127 1465.55,-175.413 1465.4,-182.411"/>
</g>
<!-- Node8 -->
<g id="node8" class="node"><title>Node8</title>
<g id="a_node8"><a xlink:href="pthread__cond_8c.html" target="_top" xlink:title="/Users/tgil/git/CoAction\lOS/CoActionOS/src/sys\l/pthread/pthread_cond.c">
<polygon fill="none" stroke="black" points="880.793,-83 880.793,-127 1005.21,-127 1005.21,-83 880.793,-83"/>
<text text-anchor="start" x="888.793" y="-113" font-family="Helvetica,sans-Serif" font-size="10.00">/Users/tgil/git/CoAction</text>
<text text-anchor="start" x="888.793" y="-101" font-family="Helvetica,sans-Serif" font-size="10.00">OS/CoActionOS/src/sys</text>
<text text-anchor="middle" x="943" y="-89" font-family="Helvetica,sans-Serif" font-size="10.00">/pthread/pthread_cond.c</text>
</a>
</g>
</g>
<!-- Node1&#45;&gt;Node8 -->
<g id="edge7" class="edge"><title>Node1&#45;&gt;Node8</title>
<path fill="none" stroke="midnightblue" d="M1465.39,-177.186C1360.16,-172.386 1171.89,-159.819 1014,-128 1011.22,-127.439 1008.39,-126.812 1005.54,-126.135"/>
<polygon fill="midnightblue" stroke="midnightblue" points="1465.48,-180.693 1475.63,-177.64 1465.79,-173.7 1465.48,-180.693"/>
</g>
<!-- Node9 -->
<g id="node9" class="node"><title>Node9</title>
<g id="a_node9"><a xlink:href="pthread__condattr_8c.html" target="_top" xlink:title="/Users/tgil/git/CoAction\lOS/CoActionOS/src/sys\l/pthread/pthread_condattr.c">
<polygon fill="none" stroke="black" points="1022.84,-83 1022.84,-127 1161.16,-127 1161.16,-83 1022.84,-83"/>
<text text-anchor="start" x="1030.84" y="-113" font-family="Helvetica,sans-Serif" font-size="10.00">/Users/tgil/git/CoAction</text>
<text text-anchor="start" x="1030.84" y="-101" font-family="Helvetica,sans-Serif" font-size="10.00">OS/CoActionOS/src/sys</text>
<text text-anchor="middle" x="1092" y="-89" font-family="Helvetica,sans-Serif" font-size="10.00">/pthread/pthread_condattr.c</text>
</a>
</g>
</g>
<!-- Node1&#45;&gt;Node9 -->
<g id="edge8" class="edge"><title>Node1&#45;&gt;Node9</title>
<path fill="none" stroke="midnightblue" d="M1465.54,-172.045C1388.81,-163.779 1270.89,-149.081 1170,-128 1167.11,-127.396 1164.17,-126.742 1161.2,-126.052"/>
<polygon fill="midnightblue" stroke="midnightblue" points="1465.31,-175.54 1475.63,-173.119 1466.05,-168.579 1465.31,-175.54"/>
</g>
<!-- Node10 -->
<g id="node10" class="node"><title>Node10</title>
<g id="a_node10"><a xlink:href="pthread__create_8c.html" target="_top" xlink:title="/Users/tgil/git/CoAction\lOS/CoActionOS/src/sys\l/pthread/pthread_create.c">
<polygon fill="none" stroke="black" points="1178.74,-83 1178.74,-127 1309.26,-127 1309.26,-83 1178.74,-83"/>
<text text-anchor="start" x="1186.74" y="-113" font-family="Helvetica,sans-Serif" font-size="10.00">/Users/tgil/git/CoAction</text>
<text text-anchor="start" x="1186.74" y="-101" font-family="Helvetica,sans-Serif" font-size="10.00">OS/CoActionOS/src/sys</text>
<text text-anchor="middle" x="1244" y="-89" font-family="Helvetica,sans-Serif" font-size="10.00">/pthread/pthread_create.c</text>
</a>
</g>
</g>
<!-- Node1&#45;&gt;Node10 -->
<g id="edge9" class="edge"><title>Node1&#45;&gt;Node10</title>
<path fill="none" stroke="midnightblue" d="M1466.01,-162.969C1422.05,-153.383 1366.86,-140.795 1318,-128 1315.15,-127.253 1312.24,-126.472 1309.3,-125.668"/>
<polygon fill="midnightblue" stroke="midnightblue" points="1465.27,-166.39 1475.79,-165.091 1466.76,-159.549 1465.27,-166.39"/>
</g>
<!-- Node11 -->
<g id="node11" class="node"><title>Node11</title>
<g id="a_node11"><a xlink:href="pthread__mutex_8c.html" target="_top" xlink:title="/Users/tgil/git/CoAction\lOS/CoActionOS/src/sys\l/pthread/pthread_mutex.c">
<polygon fill="none" stroke="black" points="1327.02,-83 1327.02,-127 1456.98,-127 1456.98,-83 1327.02,-83"/>
<text text-anchor="start" x="1335.02" y="-113" font-family="Helvetica,sans-Serif" font-size="10.00">/Users/tgil/git/CoAction</text>
<text text-anchor="start" x="1335.02" y="-101" font-family="Helvetica,sans-Serif" font-size="10.00">OS/CoActionOS/src/sys</text>
<text text-anchor="middle" x="1392" y="-89" font-family="Helvetica,sans-Serif" font-size="10.00">/pthread/pthread_mutex.c</text>
</a>
</g>
</g>
<!-- Node1&#45;&gt;Node11 -->
<g id="edge10" class="edge"><title>Node1&#45;&gt;Node11</title>
<path fill="none" stroke="midnightblue" d="M1506.04,-160.445C1484.48,-150.153 1458.03,-137.526 1436.04,-127.024"/>
<polygon fill="midnightblue" stroke="midnightblue" points="1504.73,-163.697 1515.26,-164.846 1507.74,-157.379 1504.73,-163.697"/>
</g>
<!-- Node12 -->
<g id="node12" class="node"><title>Node12</title>
<g id="a_node12"><a xlink:href="pthread__mutexattr_8c.html" target="_top" xlink:title="/Users/tgil/git/CoAction\lOS/CoActionOS/src/sys\l/pthread/pthread_mutexattr.c">
<polygon fill="none" stroke="black" points="1475.07,-83 1475.07,-127 1618.93,-127 1618.93,-83 1475.07,-83"/>
<text text-anchor="start" x="1483.07" y="-113" font-family="Helvetica,sans-Serif" font-size="10.00">/Users/tgil/git/CoAction</text>
<text text-anchor="start" x="1483.07" y="-101" font-family="Helvetica,sans-Serif" font-size="10.00">OS/CoActionOS/src/sys</text>
<text text-anchor="middle" x="1547" y="-89" font-family="Helvetica,sans-Serif" font-size="10.00">/pthread/pthread_mutexattr.c</text>
</a>
</g>
</g>
<!-- Node1&#45;&gt;Node12 -->
<g id="edge11" class="edge"><title>Node1&#45;&gt;Node12</title>
<path fill="none" stroke="midnightblue" d="M1547,-154.467C1547,-145.577 1547,-135.706 1547,-127.205"/>
<polygon fill="midnightblue" stroke="midnightblue" points="1543.5,-154.667 1547,-164.667 1550.5,-154.667 1543.5,-154.667"/>
</g>
<!-- Node13 -->
<g id="node13" class="node"><title>Node13</title>
<g id="a_node13"><a xlink:href="pthread__mutexattr__init_8c.html" target="_top" xlink:title="/Users/tgil/git/CoAction\lOS/CoActionOS/src/sys\l/pthread/pthread_mutexattr_init.c">
<polygon fill="none" stroke="black" points="1636.62,-83 1636.62,-127 1799.38,-127 1799.38,-83 1636.62,-83"/>
<text text-anchor="start" x="1644.62" y="-113" font-family="Helvetica,sans-Serif" font-size="10.00">/Users/tgil/git/CoAction</text>
<text text-anchor="start" x="1644.62" y="-101" font-family="Helvetica,sans-Serif" font-size="10.00">OS/CoActionOS/src/sys</text>
<text text-anchor="middle" x="1718" y="-89" font-family="Helvetica,sans-Serif" font-size="10.00">/pthread/pthread_mutexattr_init.c</text>
</a>
</g>
</g>
<!-- Node1&#45;&gt;Node13 -->
<g id="edge12" class="edge"><title>Node1&#45;&gt;Node13</title>
<path fill="none" stroke="midnightblue" d="M1591.23,-160.859C1615.18,-150.493 1644.82,-137.667 1669.42,-127.024"/>
<polygon fill="midnightblue" stroke="midnightblue" points="1589.8,-157.663 1582.02,-164.846 1592.58,-164.087 1589.8,-157.663"/>
</g>
<!-- Node14 -->
<g id="node14" class="node"><title>Node14</title>
<g id="a_node14"><a xlink:href="pthread__schedparam_8c.html" target="_top" xlink:title="/Users/tgil/git/CoAction\lOS/CoActionOS/src/sys\l/pthread/pthread_schedparam.c">
<polygon fill="none" stroke="black" points="1817.12,-83 1817.12,-127 1974.88,-127 1974.88,-83 1817.12,-83"/>
<text text-anchor="start" x="1825.12" y="-113" font-family="Helvetica,sans-Serif" font-size="10.00">/Users/tgil/git/CoAction</text>
<text text-anchor="start" x="1825.12" y="-101" font-family="Helvetica,sans-Serif" font-size="10.00">OS/CoActionOS/src/sys</text>
<text text-anchor="middle" x="1896" y="-89" font-family="Helvetica,sans-Serif" font-size="10.00">/pthread/pthread_schedparam.c</text>
</a>
</g>
</g>
<!-- Node1&#45;&gt;Node14 -->
<g id="edge13" class="edge"><title>Node1&#45;&gt;Node14</title>
<path fill="none" stroke="midnightblue" d="M1628.19,-164.872C1679.81,-154.994 1747.99,-141.472 1808,-128 1810.92,-127.345 1813.89,-126.665 1816.89,-125.969"/>
<polygon fill="midnightblue" stroke="midnightblue" points="1627.26,-161.486 1618.09,-166.798 1628.57,-168.362 1627.26,-161.486"/>
</g>
<!-- Node15 -->
<g id="node15" class="node"><title>Node15</title>
<g id="a_node15"><a xlink:href="sched__posix_8c.html" target="_top" xlink:title="/Users/tgil/git/CoAction\lOS/CoActionOS/src/sys\l/sched/sched_posix.c">
<polygon fill="none" stroke="black" points="1992.93,-83 1992.93,-127 2115.07,-127 2115.07,-83 1992.93,-83"/>
<text text-anchor="start" x="2000.93" y="-113" font-family="Helvetica,sans-Serif" font-size="10.00">/Users/tgil/git/CoAction</text>
<text text-anchor="start" x="2000.93" y="-101" font-family="Helvetica,sans-Serif" font-size="10.00">OS/CoActionOS/src/sys</text>
<text text-anchor="middle" x="2054" y="-89" font-family="Helvetica,sans-Serif" font-size="10.00">/sched/sched_posix.c</text>
</a>
</g>
</g>
<!-- Node1&#45;&gt;Node15 -->
<g id="edge14" class="edge"><title>Node1&#45;&gt;Node15</title>
<path fill="none" stroke="midnightblue" d="M1628.46,-174.729C1716.59,-167.996 1860.89,-153.974 1983,-128 1986.16,-127.329 1989.37,-126.579 1992.61,-125.772"/>
<polygon fill="midnightblue" stroke="midnightblue" points="1627.97,-171.256 1618.26,-175.495 1628.49,-178.236 1627.97,-171.256"/>
</g>
<!-- Node16 -->
<g id="node16" class="node"><title>Node16</title>
<g id="a_node16"><a xlink:href="pthread__kill_8c.html" target="_top" xlink:title="/Users/tgil/git/CoAction\lOS/CoActionOS/src/sys\l/signal/pthread_kill.c">
<polygon fill="none" stroke="black" points="2132.93,-83 2132.93,-127 2255.07,-127 2255.07,-83 2132.93,-83"/>
<text text-anchor="start" x="2140.93" y="-113" font-family="Helvetica,sans-Serif" font-size="10.00">/Users/tgil/git/CoAction</text>
<text text-anchor="start" x="2140.93" y="-101" font-family="Helvetica,sans-Serif" font-size="10.00">OS/CoActionOS/src/sys</text>
<text text-anchor="middle" x="2194" y="-89" font-family="Helvetica,sans-Serif" font-size="10.00">/signal/pthread_kill.c</text>
</a>
</g>
</g>
<!-- Node1&#45;&gt;Node16 -->
<g id="edge15" class="edge"><title>Node1&#45;&gt;Node16</title>
<path fill="none" stroke="midnightblue" d="M1628.57,-178.148C1741.05,-174.35 1949.69,-162.826 2124,-128 2126.87,-127.426 2129.8,-126.778 2132.73,-126.073"/>
<polygon fill="midnightblue" stroke="midnightblue" points="1628.2,-174.658 1618.32,-178.481 1628.42,-181.654 1628.2,-174.658"/>
</g>
<!-- Node17 -->
<g id="node17" class="node"><title>Node17</title>
<g id="a_node17"><a xlink:href="hibernate_8c.html" target="_top" xlink:title="/Users/tgil/git/CoAction\lOS/CoActionOS/src/sys\l/time/hibernate.c">
<polygon fill="none" stroke="black" points="2272.93,-83 2272.93,-127 2395.07,-127 2395.07,-83 2272.93,-83"/>
<text text-anchor="start" x="2280.93" y="-113" font-family="Helvetica,sans-Serif" font-size="10.00">/Users/tgil/git/CoAction</text>
<text text-anchor="start" x="2280.93" y="-101" font-family="Helvetica,sans-Serif" font-size="10.00">OS/CoActionOS/src/sys</text>
<text text-anchor="middle" x="2334" y="-89" font-family="Helvetica,sans-Serif" font-size="10.00">/time/hibernate.c</text>
</a>
</g>
</g>
<!-- Node1&#45;&gt;Node17 -->
<g id="edge16" class="edge"><title>Node1&#45;&gt;Node17</title>
<path fill="none" stroke="midnightblue" d="M1628.35,-180.21C1762.15,-179.195 2036.53,-171.382 2264,-128 2266.88,-127.451 2269.8,-126.823 2272.75,-126.135"/>
<polygon fill="midnightblue" stroke="midnightblue" points="1628.16,-176.711 1618.18,-180.276 1628.21,-183.711 1628.16,-176.711"/>
</g>
<!-- Node18 -->
<g id="node18" class="node"><title>Node18</title>
<g id="a_node18"><a xlink:href="unistd__fs_8h_source.html" target="_top" xlink:title="/Users/tgil/git/CoAction\lOS/CoActionOS/src/sys\l/unistd/unistd_fs.h">
<polygon fill="none" stroke="black" points="2450.93,-83 2450.93,-127 2573.07,-127 2573.07,-83 2450.93,-83"/>
<text text-anchor="start" x="2458.93" y="-113" font-family="Helvetica,sans-Serif" font-size="10.00">/Users/tgil/git/CoAction</text>
<text text-anchor="start" x="2458.93" y="-101" font-family="Helvetica,sans-Serif" font-size="10.00">OS/CoActionOS/src/sys</text>
<text text-anchor="middle" x="2512" y="-89" font-family="Helvetica,sans-Serif" font-size="10.00">/unistd/unistd_fs.h</text>
</a>
</g>
</g>
<!-- Node1&#45;&gt;Node18 -->
<g id="edge17" class="edge"><title>Node1&#45;&gt;Node18</title>
<path fill="none" stroke="midnightblue" d="M1628.44,-177.606C1817.74,-171.659 2282.95,-154.736 2437,-128 2441.55,-127.211 2446.21,-126.244 2450.87,-125.159"/>
<polygon fill="midnightblue" stroke="midnightblue" points="1628.16,-174.113 1618.28,-177.923 1628.38,-181.11 1628.16,-174.113"/>
</g>
<!-- Node24 -->
<g id="node24" class="node"><title>Node24</title>
<g id="a_node24"><a xlink:href="__lseek_8c.html" target="_top" xlink:title="/Users/tgil/git/CoAction\lOS/CoActionOS/src/sys\l/unistd/_lseek.c">
<polygon fill="none" stroke="black" points="1260.93,-1 1260.93,-45 1383.07,-45 1383.07,-1 1260.93,-1"/>
<text text-anchor="start" x="1268.93" y="-31" font-family="Helvetica,sans-Serif" font-size="10.00">/Users/tgil/git/CoAction</text>
<text text-anchor="start" x="1268.93" y="-19" font-family="Helvetica,sans-Serif" font-size="10.00">OS/CoActionOS/src/sys</text>
<text text-anchor="middle" x="1322" y="-7" font-family="Helvetica,sans-Serif" font-size="10.00">/unistd/_lseek.c</text>
</a>
</g>
</g>
<!-- Node1&#45;&gt;Node24 -->
<g id="edge39" class="edge"><title>Node1&#45;&gt;Node24</title>
<path fill="none" stroke="midnightblue" d="M1628.48,-178.044C1837.4,-172.632 2377.66,-155.987 2404,-128 2418.01,-113.112 2418.2,-96.7111 2404,-82 2364.93,-41.5188 1447.45,-55.5197 1392,-46 1389.11,-45.5042 1386.18,-44.9199 1383.23,-44.267"/>
<polygon fill="midnightblue" stroke="midnightblue" points="1628.09,-174.552 1618.19,-178.308 1628.27,-181.55 1628.09,-174.552"/>
</g>
<!-- Node38 -->
<g id="node38" class="node"><title>Node38</title>
<g id="a_node38"><a xlink:href="__exit_8c.html" target="_top" xlink:title="/Users/tgil/git/CoAction\lOS/CoActionOS/src/sys\l/unistd/_exit.c">
<polygon fill="none" stroke="black" points="2590.93,-83 2590.93,-127 2713.07,-127 2713.07,-83 2590.93,-83"/>
<text text-anchor="start" x="2598.93" y="-113" font-family="Helvetica,sans-Serif" font-size="10.00">/Users/tgil/git/CoAction</text>
<text text-anchor="start" x="2598.93" y="-101" font-family="Helvetica,sans-Serif" font-size="10.00">OS/CoActionOS/src/sys</text>
<text text-anchor="middle" x="2652" y="-89" font-family="Helvetica,sans-Serif" font-size="10.00">/unistd/_exit.c</text>
</a>
</g>
</g>
<!-- Node1&#45;&gt;Node38 -->
<g id="edge37" class="edge"><title>Node1&#45;&gt;Node38</title>
<path fill="none" stroke="midnightblue" d="M1628.39,-178.58C1839.22,-174.475 2399.38,-160.733 2582,-128 2584.88,-127.483 2587.81,-126.881 2590.76,-126.215"/>
<polygon fill="midnightblue" stroke="midnightblue" points="1628.25,-175.082 1618.32,-178.774 1628.38,-182.081 1628.25,-175.082"/>
</g>
<!-- Node39 -->
<g id="node39" class="node"><title>Node39</title>
<g id="a_node39"><a xlink:href="__getpid_8c.html" target="_top" xlink:title="/Users/tgil/git/CoAction\lOS/CoActionOS/src/sys\l/unistd/_getpid.c">
<polygon fill="none" stroke="black" points="2730.93,-83 2730.93,-127 2853.07,-127 2853.07,-83 2730.93,-83"/>
<text text-anchor="start" x="2738.93" y="-113" font-family="Helvetica,sans-Serif" font-size="10.00">/Users/tgil/git/CoAction</text>
<text text-anchor="start" x="2738.93" y="-101" font-family="Helvetica,sans-Serif" font-size="10.00">OS/CoActionOS/src/sys</text>
<text text-anchor="middle" x="2792" y="-89" font-family="Helvetica,sans-Serif" font-size="10.00">/unistd/_getpid.c</text>
</a>
</g>
</g>
<!-- Node1&#45;&gt;Node39 -->
<g id="edge38" class="edge"><title>Node1&#45;&gt;Node39</title>
<path fill="none" stroke="midnightblue" d="M1628.68,-179.145C1859.15,-176.295 2511.45,-165.091 2722,-128 2724.89,-127.492 2727.82,-126.897 2730.76,-126.236"/>
<polygon fill="midnightblue" stroke="midnightblue" points="1628.31,-175.649 1618.35,-179.271 1628.39,-182.649 1628.31,-175.649"/>
</g>
<!-- Node40 -->
<g id="node40" class="node"><title>Node40</title>
<g id="a_node40"><a xlink:href="ioctl_8c.html" target="_top" xlink:title="/Users/tgil/git/CoAction\lOS/CoActionOS/src/sys\l/unistd/ioctl.c">
<polygon fill="none" stroke="black" points="2870.93,-83 2870.93,-127 2993.07,-127 2993.07,-83 2870.93,-83"/>
<text text-anchor="start" x="2878.93" y="-113" font-family="Helvetica,sans-Serif" font-size="10.00">/Users/tgil/git/CoAction</text>
<text text-anchor="start" x="2878.93" y="-101" font-family="Helvetica,sans-Serif" font-size="10.00">OS/CoActionOS/src/sys</text>
<text text-anchor="middle" x="2932" y="-89" font-family="Helvetica,sans-Serif" font-size="10.00">/unistd/ioctl.c</text>
</a>
</g>
</g>
<!-- Node1&#45;&gt;Node40 -->
<g id="edge40" class="edge"><title>Node1&#45;&gt;Node40</title>
<path fill="none" stroke="midnightblue" d="M1628.39,-179.598C1876.87,-177.926 2623.18,-169.491 2862,-128 2864.89,-127.498 2867.82,-126.91 2870.77,-126.253"/>
<polygon fill="midnightblue" stroke="midnightblue" points="1628.33,-176.098 1618.35,-179.664 1628.37,-183.098 1628.33,-176.098"/>
</g>
<!-- Node19 -->
<g id="node19" class="node"><title>Node19</title>
<g id="a_node19"><a xlink:href="__close_8c.html" target="_top" xlink:title="/Users/tgil/git/CoAction\lOS/CoActionOS/src/sys\l/unistd/_close.c">
<polygon fill="none" stroke="black" points="1400.93,-1 1400.93,-45 1523.07,-45 1523.07,-1 1400.93,-1"/>
<text text-anchor="start" x="1408.93" y="-31" font-family="Helvetica,sans-Serif" font-size="10.00">/Users/tgil/git/CoAction</text>
<text text-anchor="start" x="1408.93" y="-19" font-family="Helvetica,sans-Serif" font-size="10.00">OS/CoActionOS/src/sys</text>
<text text-anchor="middle" x="1462" y="-7" font-family="Helvetica,sans-Serif" font-size="10.00">/unistd/_close.c</text>
</a>
</g>
</g>
<!-- Node18&#45;&gt;Node19 -->
<g id="edge18" class="edge"><title>Node18&#45;&gt;Node19</title>
<path fill="none" stroke="midnightblue" d="M2440.87,-82.6736C2439.57,-82.435 2438.28,-82.21 2437,-82 2039.77,-16.8573 1928.59,-114.949 1532,-46 1529.11,-45.4981 1526.18,-44.9089 1523.23,-44.252"/>
<polygon fill="midnightblue" stroke="midnightblue" points="2440.39,-86.1485 2450.89,-84.7455 2441.8,-79.2935 2440.39,-86.1485"/>
</g>
<!-- Node20 -->
<g id="node20" class="node"><title>Node20</title>
<g id="a_node20"><a xlink:href="__fcntl_8c.html" target="_top" xlink:title="/Users/tgil/git/CoAction\lOS/CoActionOS/src/sys\l/unistd/_fcntl.c">
<polygon fill="none" stroke="black" points="1540.93,-1 1540.93,-45 1663.07,-45 1663.07,-1 1540.93,-1"/>
<text text-anchor="start" x="1548.93" y="-31" font-family="Helvetica,sans-Serif" font-size="10.00">/Users/tgil/git/CoAction</text>
<text text-anchor="start" x="1548.93" y="-19" font-family="Helvetica,sans-Serif" font-size="10.00">OS/CoActionOS/src/sys</text>
<text text-anchor="middle" x="1602" y="-7" font-family="Helvetica,sans-Serif" font-size="10.00">/unistd/_fcntl.c</text>
</a>
</g>
</g>
<!-- Node18&#45;&gt;Node20 -->
<g id="edge19" class="edge"><title>Node18&#45;&gt;Node20</title>
<path fill="none" stroke="midnightblue" d="M2440.86,-82.6865C2439.57,-82.4439 2438.28,-82.2146 2437,-82 2101.31,-25.6973 2007.13,-105.52 1672,-46 1669.12,-45.4877 1666.18,-44.8898 1663.24,-44.2259"/>
<polygon fill="midnightblue" stroke="midnightblue" points="2440.38,-86.1605 2450.88,-84.7828 2441.81,-79.3089 2440.38,-86.1605"/>
</g>
<!-- Node21 -->
<g id="node21" class="node"><title>Node21</title>
<g id="a_node21"><a xlink:href="__fstat_8c.html" target="_top" xlink:title="/Users/tgil/git/CoAction\lOS/CoActionOS/src/sys\l/unistd/_fstat.c">
<polygon fill="none" stroke="black" points="1680.93,-1 1680.93,-45 1803.07,-45 1803.07,-1 1680.93,-1"/>
<text text-anchor="start" x="1688.93" y="-31" font-family="Helvetica,sans-Serif" font-size="10.00">/Users/tgil/git/CoAction</text>
<text text-anchor="start" x="1688.93" y="-19" font-family="Helvetica,sans-Serif" font-size="10.00">OS/CoActionOS/src/sys</text>
<text text-anchor="middle" x="1742" y="-7" font-family="Helvetica,sans-Serif" font-size="10.00">/unistd/_fstat.c</text>
</a>
</g>
</g>
<!-- Node18&#45;&gt;Node21 -->
<g id="edge20" class="edge"><title>Node18&#45;&gt;Node21</title>
<path fill="none" stroke="midnightblue" d="M2440.86,-82.7052C2439.57,-82.4569 2438.28,-82.2214 2437,-82 2162.84,-34.5341 2085.69,-96.0931 1812,-46 1809.12,-45.4725 1806.19,-44.8622 1803.24,-44.1883"/>
<polygon fill="midnightblue" stroke="midnightblue" points="2440.36,-86.1778 2450.87,-84.8367 2441.82,-79.3312 2440.36,-86.1778"/>
</g>
<!-- Node22 -->
<g id="node22" class="node"><title>Node22</title>
<g id="a_node22"><a xlink:href="__isatty_8c.html" target="_top" xlink:title="/Users/tgil/git/CoAction\lOS/CoActionOS/src/sys\l/unistd/_isatty.c">
<polygon fill="none" stroke="black" points="1820.93,-1 1820.93,-45 1943.07,-45 1943.07,-1 1820.93,-1"/>
<text text-anchor="start" x="1828.93" y="-31" font-family="Helvetica,sans-Serif" font-size="10.00">/Users/tgil/git/CoAction</text>
<text text-anchor="start" x="1828.93" y="-19" font-family="Helvetica,sans-Serif" font-size="10.00">OS/CoActionOS/src/sys</text>
<text text-anchor="middle" x="1882" y="-7" font-family="Helvetica,sans-Serif" font-size="10.00">/unistd/_isatty.c</text>
</a>
</g>
</g>
<!-- Node18&#45;&gt;Node22 -->
<g id="edge21" class="edge"><title>Node18&#45;&gt;Node22</title>
<path fill="none" stroke="midnightblue" d="M2440.86,-82.7346C2439.56,-82.4772 2438.28,-82.2319 2437,-82 2224.33,-43.3647 2164.29,-86.6732 1952,-46 1949.12,-45.4487 1946.2,-44.8188 1943.26,-44.129"/>
<polygon fill="midnightblue" stroke="midnightblue" points="2440.34,-86.2048 2450.86,-84.9216 2441.84,-79.3664 2440.34,-86.2048"/>
</g>
<!-- Node23 -->
<g id="node23" class="node"><title>Node23</title>
<g id="a_node23"><a xlink:href="__link_8c.html" target="_top" xlink:title="/Users/tgil/git/CoAction\lOS/CoActionOS/src/sys\l/unistd/_link.c">
<polygon fill="none" stroke="black" points="1960.93,-1 1960.93,-45 2083.07,-45 2083.07,-1 1960.93,-1"/>
<text text-anchor="start" x="1968.93" y="-31" font-family="Helvetica,sans-Serif" font-size="10.00">/Users/tgil/git/CoAction</text>
<text text-anchor="start" x="1968.93" y="-19" font-family="Helvetica,sans-Serif" font-size="10.00">OS/CoActionOS/src/sys</text>
<text text-anchor="middle" x="2022" y="-7" font-family="Helvetica,sans-Serif" font-size="10.00">/unistd/_link.c</text>
</a>
</g>
</g>
<!-- Node18&#45;&gt;Node23 -->
<g id="edge22" class="edge"><title>Node18&#45;&gt;Node23</title>
<path fill="none" stroke="midnightblue" d="M2440.85,-82.7875C2439.56,-82.5139 2438.27,-82.251 2437,-82 2285.75,-52.1807 2242.96,-77.2686 2092,-46 2089.13,-45.4057 2086.21,-44.7407 2083.28,-44.0223"/>
<polygon fill="midnightblue" stroke="midnightblue" points="2440.3,-86.2533 2450.83,-85.0744 2441.86,-79.43 2440.3,-86.2533"/>
</g>
<!-- Node18&#45;&gt;Node24 -->
<g id="edge23" class="edge"><title>Node18&#45;&gt;Node24</title>
<path fill="none" stroke="midnightblue" d="M2440.87,-82.6641C2439.57,-82.4284 2438.28,-82.2066 2437,-82 1978.21,-8.01543 1850.06,-124.381 1392,-46 1389.11,-45.5058 1386.18,-44.9229 1383.23,-44.2711"/>
<polygon fill="midnightblue" stroke="midnightblue" points="2440.39,-86.1398 2450.89,-84.7182 2441.8,-79.2822 2440.39,-86.1398"/>
</g>
<!-- Node25 -->
<g id="node25" class="node"><title>Node25</title>
<g id="a_node25"><a xlink:href="__open_8c.html" target="_top" xlink:title="/Users/tgil/git/CoAction\lOS/CoActionOS/src/sys\l/unistd/_open.c">
<polygon fill="none" stroke="black" points="2100.93,-1 2100.93,-45 2223.07,-45 2223.07,-1 2100.93,-1"/>
<text text-anchor="start" x="2108.93" y="-31" font-family="Helvetica,sans-Serif" font-size="10.00">/Users/tgil/git/CoAction</text>
<text text-anchor="start" x="2108.93" y="-19" font-family="Helvetica,sans-Serif" font-size="10.00">OS/CoActionOS/src/sys</text>
<text text-anchor="middle" x="2162" y="-7" font-family="Helvetica,sans-Serif" font-size="10.00">/unistd/_open.c</text>
</a>
</g>
</g>
<!-- Node18&#45;&gt;Node25 -->
<g id="edge24" class="edge"><title>Node18&#45;&gt;Node25</title>
<path fill="none" stroke="midnightblue" d="M2440.82,-82.9107C2439.54,-82.5992 2438.26,-82.2953 2437,-82 2346.92,-60.9484 2321.87,-67.9145 2232,-46 2229.15,-45.3059 2226.25,-44.5589 2223.33,-43.7742"/>
<polygon fill="midnightblue" stroke="midnightblue" points="2440.2,-86.3643 2450.75,-85.4298 2441.92,-79.5791 2440.2,-86.3643"/>
</g>
<!-- Node26 -->
<g id="node26" class="node"><title>Node26</title>
<g id="a_node26"><a xlink:href="__read_8c.html" target="_top" xlink:title="/Users/tgil/git/CoAction\lOS/CoActionOS/src/sys\l/unistd/_read.c">
<polygon fill="none" stroke="black" points="2240.93,-1 2240.93,-45 2363.07,-45 2363.07,-1 2240.93,-1"/>
<text text-anchor="start" x="2248.93" y="-31" font-family="Helvetica,sans-Serif" font-size="10.00">/Users/tgil/git/CoAction</text>
<text text-anchor="start" x="2248.93" y="-19" font-family="Helvetica,sans-Serif" font-size="10.00">OS/CoActionOS/src/sys</text>
<text text-anchor="middle" x="2302" y="-7" font-family="Helvetica,sans-Serif" font-size="10.00">/unistd/_read.c</text>
</a>
</g>
</g>
<!-- Node18&#45;&gt;Node26 -->
<g id="edge25" class="edge"><title>Node18&#45;&gt;Node26</title>
<path fill="none" stroke="midnightblue" d="M2447.24,-79.3308C2418.4,-68.3445 2384.79,-55.5401 2357.17,-45.0174"/>
<polygon fill="midnightblue" stroke="midnightblue" points="2446.23,-82.6916 2456.82,-82.9809 2448.73,-76.1502 2446.23,-82.6916"/>
</g>
<!-- Node27 -->
<g id="node27" class="node"><title>Node27</title>
<g id="a_node27"><a xlink:href="__rename_8c.html" target="_top" xlink:title="/Users/tgil/git/CoAction\lOS/CoActionOS/src/sys\l/unistd/_rename.c">
<polygon fill="none" stroke="black" points="2380.93,-1 2380.93,-45 2503.07,-45 2503.07,-1 2380.93,-1"/>
<text text-anchor="start" x="2388.93" y="-31" font-family="Helvetica,sans-Serif" font-size="10.00">/Users/tgil/git/CoAction</text>
<text text-anchor="start" x="2388.93" y="-19" font-family="Helvetica,sans-Serif" font-size="10.00">OS/CoActionOS/src/sys</text>
<text text-anchor="middle" x="2442" y="-7" font-family="Helvetica,sans-Serif" font-size="10.00">/unistd/_rename.c</text>
</a>
</g>
</g>
<!-- Node18&#45;&gt;Node27 -->
<g id="edge26" class="edge"><title>Node18&#45;&gt;Node27</title>
<path fill="none" stroke="midnightblue" d="M2486.87,-75.2766C2478.17,-65.3339 2468.58,-54.379 2460.51,-45.1564"/>
<polygon fill="midnightblue" stroke="midnightblue" points="2484.39,-77.7599 2493.61,-82.9809 2489.66,-73.1504 2484.39,-77.7599"/>
</g>
<!-- Node28 -->
<g id="node28" class="node"><title>Node28</title>
<g id="a_node28"><a xlink:href="__stat_8c.html" target="_top" xlink:title="/Users/tgil/git/CoAction\lOS/CoActionOS/src/sys\l/unistd/_stat.c">
<polygon fill="none" stroke="black" points="2520.93,-1 2520.93,-45 2643.07,-45 2643.07,-1 2520.93,-1"/>
<text text-anchor="start" x="2528.93" y="-31" font-family="Helvetica,sans-Serif" font-size="10.00">/Users/tgil/git/CoAction</text>
<text text-anchor="start" x="2528.93" y="-19" font-family="Helvetica,sans-Serif" font-size="10.00">OS/CoActionOS/src/sys</text>
<text text-anchor="middle" x="2582" y="-7" font-family="Helvetica,sans-Serif" font-size="10.00">/unistd/_stat.c</text>
</a>
</g>
</g>
<!-- Node18&#45;&gt;Node28 -->
<g id="edge27" class="edge"><title>Node18&#45;&gt;Node28</title>
<path fill="none" stroke="midnightblue" d="M2537.13,-75.2766C2545.83,-65.3339 2555.42,-54.379 2563.49,-45.1564"/>
<polygon fill="midnightblue" stroke="midnightblue" points="2534.34,-73.1504 2530.39,-82.9809 2539.61,-77.7599 2534.34,-73.1504"/>
</g>
<!-- Node29 -->
<g id="node29" class="node"><title>Node29</title>
<g id="a_node29"><a xlink:href="__symlink_8c.html" target="_top" xlink:title="/Users/tgil/git/CoAction\lOS/CoActionOS/src/sys\l/unistd/_symlink.c">
<polygon fill="none" stroke="black" points="2660.93,-1 2660.93,-45 2783.07,-45 2783.07,-1 2660.93,-1"/>
<text text-anchor="start" x="2668.93" y="-31" font-family="Helvetica,sans-Serif" font-size="10.00">/Users/tgil/git/CoAction</text>
<text text-anchor="start" x="2668.93" y="-19" font-family="Helvetica,sans-Serif" font-size="10.00">OS/CoActionOS/src/sys</text>
<text text-anchor="middle" x="2722" y="-7" font-family="Helvetica,sans-Serif" font-size="10.00">/unistd/_symlink.c</text>
</a>
</g>
</g>
<!-- Node18&#45;&gt;Node29 -->
<g id="edge28" class="edge"><title>Node18&#45;&gt;Node29</title>
<path fill="none" stroke="midnightblue" d="M2576.76,-79.3308C2605.6,-68.3445 2639.21,-55.5401 2666.83,-45.0174"/>
<polygon fill="midnightblue" stroke="midnightblue" points="2575.27,-76.1502 2567.18,-82.9809 2577.77,-82.6916 2575.27,-76.1502"/>
</g>
<!-- Node30 -->
<g id="node30" class="node"><title>Node30</title>
<g id="a_node30"><a xlink:href="__unlink_8c.html" target="_top" xlink:title="/Users/tgil/git/CoAction\lOS/CoActionOS/src/sys\l/unistd/_unlink.c">
<polygon fill="none" stroke="black" points="2800.93,-1 2800.93,-45 2923.07,-45 2923.07,-1 2800.93,-1"/>
<text text-anchor="start" x="2808.93" y="-31" font-family="Helvetica,sans-Serif" font-size="10.00">/Users/tgil/git/CoAction</text>
<text text-anchor="start" x="2808.93" y="-19" font-family="Helvetica,sans-Serif" font-size="10.00">OS/CoActionOS/src/sys</text>
<text text-anchor="middle" x="2862" y="-7" font-family="Helvetica,sans-Serif" font-size="10.00">/unistd/_unlink.c</text>
</a>
</g>
</g>
<!-- Node18&#45;&gt;Node30 -->
<g id="edge29" class="edge"><title>Node18&#45;&gt;Node30</title>
<path fill="none" stroke="midnightblue" d="M2583.12,-81.8818C2675.84,-60.2836 2703.01,-67.5078 2792,-46 2794.85,-45.3117 2797.75,-44.5695 2800.67,-43.7886"/>
<polygon fill="midnightblue" stroke="midnightblue" points="2582.25,-78.4915 2573.33,-84.2114 2583.87,-85.3014 2582.25,-78.4915"/>
</g>
<!-- Node31 -->
<g id="node31" class="node"><title>Node31</title>
<g id="a_node31"><a xlink:href="__write_8c.html" target="_top" xlink:title="/Users/tgil/git/CoAction\lOS/CoActionOS/src/sys\l/unistd/_write.c">
<polygon fill="none" stroke="black" points="2940.93,-1 2940.93,-45 3063.07,-45 3063.07,-1 2940.93,-1"/>
<text text-anchor="start" x="2948.93" y="-31" font-family="Helvetica,sans-Serif" font-size="10.00">/Users/tgil/git/CoAction</text>
<text text-anchor="start" x="2948.93" y="-19" font-family="Helvetica,sans-Serif" font-size="10.00">OS/CoActionOS/src/sys</text>
<text text-anchor="middle" x="3002" y="-7" font-family="Helvetica,sans-Serif" font-size="10.00">/unistd/_write.c</text>
</a>
</g>
</g>
<!-- Node18&#45;&gt;Node31 -->
<g id="edge30" class="edge"><title>Node18&#45;&gt;Node31</title>
<path fill="none" stroke="midnightblue" d="M2583.09,-81.9823C2736.99,-51.4873 2781.99,-76.9558 2932,-46 2934.87,-45.4079 2937.79,-44.7445 2940.72,-44.0276"/>
<polygon fill="midnightblue" stroke="midnightblue" points="2582.38,-78.5544 2573.28,-83.9724 2583.77,-85.4147 2582.38,-78.5544"/>
</g>
<!-- Node32 -->
<g id="node32" class="node"><title>Node32</title>
<g id="a_node32"><a xlink:href="chmod_8c.html" target="_top" xlink:title="/Users/tgil/git/CoAction\lOS/CoActionOS/src/sys\l/unistd/chmod.c">
<polygon fill="none" stroke="black" points="3080.93,-1 3080.93,-45 3203.07,-45 3203.07,-1 3080.93,-1"/>
<text text-anchor="start" x="3088.93" y="-31" font-family="Helvetica,sans-Serif" font-size="10.00">/Users/tgil/git/CoAction</text>
<text text-anchor="start" x="3088.93" y="-19" font-family="Helvetica,sans-Serif" font-size="10.00">OS/CoActionOS/src/sys</text>
<text text-anchor="middle" x="3142" y="-7" font-family="Helvetica,sans-Serif" font-size="10.00">/unistd/chmod.c</text>
</a>
</g>
</g>
<!-- Node18&#45;&gt;Node32 -->
<g id="edge31" class="edge"><title>Node18&#45;&gt;Node32</title>
<path fill="none" stroke="midnightblue" d="M2583.28,-81.9817C2798.36,-42.3638 2860.77,-86.3887 3072,-46 3074.88,-45.4498 3077.8,-44.8208 3080.75,-44.1317"/>
<polygon fill="midnightblue" stroke="midnightblue" points="2582.43,-78.5794 2573.25,-83.8683 2583.73,-85.4587 2582.43,-78.5794"/>
</g>
<!-- Node33 -->
<g id="node33" class="node"><title>Node33</title>
<g id="a_node33"><a xlink:href="chown_8c.html" target="_top" xlink:title="/Users/tgil/git/CoAction\lOS/CoActionOS/src/sys\l/unistd/chown.c">
<polygon fill="none" stroke="black" points="3220.93,-1 3220.93,-45 3343.07,-45 3343.07,-1 3220.93,-1"/>
<text text-anchor="start" x="3228.93" y="-31" font-family="Helvetica,sans-Serif" font-size="10.00">/Users/tgil/git/CoAction</text>
<text text-anchor="start" x="3228.93" y="-19" font-family="Helvetica,sans-Serif" font-size="10.00">OS/CoActionOS/src/sys</text>
<text text-anchor="middle" x="3282" y="-7" font-family="Helvetica,sans-Serif" font-size="10.00">/unistd/chown.c</text>
</a>
</g>
</g>
<!-- Node18&#45;&gt;Node33 -->
<g id="edge32" class="edge"><title>Node18&#45;&gt;Node33</title>
<path fill="none" stroke="midnightblue" d="M2583.17,-82.0214C2859.75,-33.0747 2939.35,-95.8387 3212,-46 3214.88,-45.4732 3217.81,-44.8634 3220.76,-44.1899"/>
<polygon fill="midnightblue" stroke="midnightblue" points="2582.46,-78.5915 2573.24,-83.8101 2583.71,-85.4805 2582.46,-78.5915"/>
</g>
<!-- Node34 -->
<g id="node34" class="node"><title>Node34</title>
<g id="a_node34"><a xlink:href="lstat_8c.html" target="_top" xlink:title="/Users/tgil/git/CoAction\lOS/CoActionOS/src/sys\l/unistd/lstat.c">
<polygon fill="none" stroke="black" points="3360.93,-1 3360.93,-45 3483.07,-45 3483.07,-1 3360.93,-1"/>
<text text-anchor="start" x="3368.93" y="-31" font-family="Helvetica,sans-Serif" font-size="10.00">/Users/tgil/git/CoAction</text>
<text text-anchor="start" x="3368.93" y="-19" font-family="Helvetica,sans-Serif" font-size="10.00">OS/CoActionOS/src/sys</text>
<text text-anchor="middle" x="3422" y="-7" font-family="Helvetica,sans-Serif" font-size="10.00">/unistd/lstat.c</text>
</a>
</g>
</g>
<!-- Node18&#45;&gt;Node34 -->
<g id="edge33" class="edge"><title>Node18&#45;&gt;Node34</title>
<path fill="none" stroke="midnightblue" d="M2583.31,-82.0088C2921.21,-23.7651 3017.97,-105.272 3352,-46 3354.88,-45.4881 3357.82,-44.8906 3360.76,-44.227"/>
<polygon fill="midnightblue" stroke="midnightblue" points="2582.48,-78.5994 2573.24,-83.773 2583.69,-85.4944 2582.48,-78.5994"/>
</g>
<!-- Node35 -->
<g id="node35" class="node"><title>Node35</title>
<g id="a_node35"><a xlink:href="mkdir_8c.html" target="_top" xlink:title="/Users/tgil/git/CoAction\lOS/CoActionOS/src/sys\l/unistd/mkdir.c">
<polygon fill="none" stroke="black" points="3500.93,-1 3500.93,-45 3623.07,-45 3623.07,-1 3500.93,-1"/>
<text text-anchor="start" x="3508.93" y="-31" font-family="Helvetica,sans-Serif" font-size="10.00">/Users/tgil/git/CoAction</text>
<text text-anchor="start" x="3508.93" y="-19" font-family="Helvetica,sans-Serif" font-size="10.00">OS/CoActionOS/src/sys</text>
<text text-anchor="middle" x="3562" y="-7" font-family="Helvetica,sans-Serif" font-size="10.00">/unistd/mkdir.c</text>
</a>
</g>
</g>
<!-- Node18&#45;&gt;Node35 -->
<g id="edge34" class="edge"><title>Node18&#45;&gt;Node35</title>
<path fill="none" stroke="midnightblue" d="M2583.32,-82.014C2982.67,-14.4048 3096.52,-114.711 3492,-46 3494.89,-45.4985 3497.82,-44.9095 3500.77,-44.2528"/>
<polygon fill="midnightblue" stroke="midnightblue" points="2582.5,-78.6045 2573.23,-83.7472 2583.68,-85.5034 2582.5,-78.6045"/>
</g>
<!-- Node36 -->
<g id="node36" class="node"><title>Node36</title>
<g id="a_node36"><a xlink:href="rmdir_8c.html" target="_top" xlink:title="/Users/tgil/git/CoAction\lOS/CoActionOS/src/sys\l/unistd/rmdir.c">
<polygon fill="none" stroke="black" points="3640.93,-1 3640.93,-45 3763.07,-45 3763.07,-1 3640.93,-1"/>
<text text-anchor="start" x="3648.93" y="-31" font-family="Helvetica,sans-Serif" font-size="10.00">/Users/tgil/git/CoAction</text>
<text text-anchor="start" x="3648.93" y="-19" font-family="Helvetica,sans-Serif" font-size="10.00">OS/CoActionOS/src/sys</text>
<text text-anchor="middle" x="3702" y="-7" font-family="Helvetica,sans-Serif" font-size="10.00">/unistd/rmdir.c</text>
</a>
</g>
</g>
<!-- Node18&#45;&gt;Node36 -->
<g id="edge35" class="edge"><title>Node18&#45;&gt;Node36</title>
<path fill="none" stroke="midnightblue" d="M2583.14,-82.0499C3044.11,-4.99138 3175,-124.161 3632,-46 3634.89,-45.5061 3637.82,-44.9233 3640.77,-44.2717"/>
<polygon fill="midnightblue" stroke="midnightblue" points="2582.5,-78.6077 2573.23,-83.7283 2583.67,-85.5094 2582.5,-78.6077"/>
</g>
<!-- Node37 -->
<g id="node37" class="node"><title>Node37</title>
<g id="a_node37"><a xlink:href="unistd__data__transfer_8c.html" target="_top" xlink:title="/Users/tgil/git/CoAction\lOS/CoActionOS/src/sys\l/unistd/unistd_data_transfer.c">
<polygon fill="none" stroke="black" points="3780.68,-1 3780.68,-45 3927.32,-45 3927.32,-1 3780.68,-1"/>
<text text-anchor="start" x="3788.68" y="-31" font-family="Helvetica,sans-Serif" font-size="10.00">/Users/tgil/git/CoAction</text>
<text text-anchor="start" x="3788.68" y="-19" font-family="Helvetica,sans-Serif" font-size="10.00">OS/CoActionOS/src/sys</text>
<text text-anchor="middle" x="3854" y="-7" font-family="Helvetica,sans-Serif" font-size="10.00">/unistd/unistd_data_transfer.c</text>
</a>
</g>
</g>
<!-- Node18&#45;&gt;Node37 -->
<g id="edge36" class="edge"><title>Node18&#45;&gt;Node37</title>
<path fill="none" stroke="midnightblue" d="M2583.28,-82.029C3105.59,4.51909 3251.84,-122.585 3772,-46 3774.77,-45.5921 3777.58,-45.1235 3780.41,-44.6056"/>
<polygon fill="midnightblue" stroke="midnightblue" points="2582.51,-78.6094 2573.23,-83.7139 2583.67,-85.5132 2582.51,-78.6094"/>
</g>
</g>
</svg>
