<?xml version="1.0" encoding="UTF-8" standalone="no"?>
<!DOCTYPE svg PUBLIC "-//W3C//DTD SVG 1.1//EN"
 "http://www.w3.org/Graphics/SVG/1.1/DTD/svg11.dtd">
<!-- Generated by graphviz version 2.34.0 (20130907.0228)
 -->
<!-- Title: /Users/tgil/git/CoActionOS/CoActionOS/include/dev/core.h Pages: 1 -->
<svg width="275pt" height="170pt"
 viewBox="0.00 0.00 275.00 170.00" xmlns="http://www.w3.org/2000/svg" xmlns:xlink="http://www.w3.org/1999/xlink">
<g id="graph0" class="graph" transform="scale(1 1) rotate(0) translate(4 166)">
<title>/Users/tgil/git/CoActionOS/CoActionOS/include/dev/core.h</title>
<!-- Node1 -->
<g id="node1" class="node"><title>Node1</title>
<polygon fill="#bfbfbf" stroke="black" points="78.6406,-117 78.6406,-161 201.359,-161 201.359,-117 78.6406,-117"/>
<text text-anchor="start" x="86.6406" y="-147" font-family="Helvetica,sans-Serif" font-size="10.00">/Users/tgil/git/CoAction</text>
<text text-anchor="start" x="86.6406" y="-135" font-family="Helvetica,sans-Serif" font-size="10.00">OS/CoActionOS/include</text>
<text text-anchor="middle" x="140" y="-123" font-family="Helvetica,sans-Serif" font-size="10.00">/dev/core.h</text>
</g>
<!-- Node2 -->
<g id="node2" class="node"><title>Node2</title>
<polygon fill="none" stroke="#bfbfbf" points="-0.120605,-1 -0.120605,-21 48.1206,-21 48.1206,-1 -0.120605,-1"/>
<text text-anchor="middle" x="24" y="-7" font-family="Helvetica,sans-Serif" font-size="10.00">stdint.h</text>
</g>
<!-- Node1&#45;&gt;Node2 -->
<g id="edge1" class="edge"><title>Node1&#45;&gt;Node2</title>
<path fill="none" stroke="midnightblue" d="M78.5876,-125.269C53.8204,-116.795 27.6771,-102.838 13,-80 3.53107,-65.266 8.49622,-45.1352 14.4795,-30.6045"/>
<polygon fill="midnightblue" stroke="midnightblue" points="17.8199,-31.7181 18.8243,-21.171 11.4619,-28.7897 17.8199,-31.7181"/>
</g>
<!-- Node3 -->
<g id="node3" class="node"><title>Node3</title>
<g id="a_node3"><a xlink:href="ioctl_8h_source.html" target="_top" target="_top" target="_top" target="_top" xlink:title="ioctl.h">
<polygon fill="none" stroke="black" points="139.938,-1 139.938,-21 182.062,-21 182.062,-1 139.938,-1"/>
<text text-anchor="middle" x="161" y="-7" font-family="Helvetica,sans-Serif" font-size="10.00">ioctl.h</text>
</a>
</g>
</g>
<!-- Node1&#45;&gt;Node3 -->
<g id="edge2" class="edge"><title>Node1&#45;&gt;Node3</title>
<path fill="none" stroke="midnightblue" d="M157.612,-116.867C165.158,-106.456 173.119,-93.3002 177,-80 181.819,-63.486 176.386,-44.3959 170.582,-30.6543"/>
<polygon fill="midnightblue" stroke="midnightblue" points="173.629,-28.9076 166.235,-21.3198 167.284,-31.8627 173.629,-28.9076"/>
</g>
<!-- Node4 -->
<g id="node4" class="node"><title>Node4</title>
<polygon fill="none" stroke="#bfbfbf" points="200.431,-1 200.431,-21 267.569,-21 267.569,-1 200.431,-1"/>
<text text-anchor="middle" x="234" y="-7" font-family="Helvetica,sans-Serif" font-size="10.00">hwpl/arch.h</text>
</g>
<!-- Node1&#45;&gt;Node4 -->
<g id="edge3" class="edge"><title>Node1&#45;&gt;Node4</title>
<path fill="none" stroke="midnightblue" d="M160.709,-116.75C170.648,-106.101 182.443,-92.7799 192,-80 204.036,-63.9045 215.898,-44.254 223.929,-30.2239"/>
<polygon fill="midnightblue" stroke="midnightblue" points="227.192,-31.5633 229.048,-21.1324 221.092,-28.129 227.192,-31.5633"/>
</g>
<!-- Node5 -->
<g id="node5" class="node"><title>Node5</title>
<g id="a_node5"><a xlink:href="types_8h_source.html" target="_top" target="_top" target="_top" target="_top" xlink:title="hwpl/types.h">
<polygon fill="none" stroke="black" points="22.207,-59 22.207,-79 93.793,-79 93.793,-59 22.207,-59"/>
<text text-anchor="middle" x="58" y="-65" font-family="Helvetica,sans-Serif" font-size="10.00">hwpl/types.h</text>
</a>
</g>
</g>
<!-- Node1&#45;&gt;Node5 -->
<g id="edge4" class="edge"><title>Node1&#45;&gt;Node5</title>
<path fill="none" stroke="midnightblue" d="M114.504,-116.857C102.366,-106.791 88.1009,-94.9617 76.941,-85.7072"/>
<polygon fill="midnightblue" stroke="midnightblue" points="79.0306,-82.8932 69.0989,-79.2039 74.5623,-88.2815 79.0306,-82.8932"/>
</g>
<!-- Node7 -->
<g id="node7" class="node"><title>Node7</title>
<g id="a_node7"><a xlink:href="pio_8h.html" target="_top" target="_top" target="_top" target="_top" xlink:title="General Purpose Input/Output Header File. ">
<polygon fill="none" stroke="black" points="111.707,-59 111.707,-79 168.293,-79 168.293,-59 111.707,-59"/>
<text text-anchor="middle" x="140" y="-65" font-family="Helvetica,sans-Serif" font-size="10.00">dev/pio.h</text>
</a>
</g>
</g>
<!-- Node1&#45;&gt;Node7 -->
<g id="edge7" class="edge"><title>Node1&#45;&gt;Node7</title>
<path fill="none" stroke="midnightblue" d="M140,-116.857C140,-108.074 140,-97.9484 140,-89.3622"/>
<polygon fill="midnightblue" stroke="midnightblue" points="143.5,-89.2039 140,-79.2039 136.5,-89.204 143.5,-89.2039"/>
</g>
<!-- Node5&#45;&gt;Node2 -->
<g id="edge5" class="edge"><title>Node5&#45;&gt;Node2</title>
<path fill="none" stroke="midnightblue" d="M52.3856,-58.7527C47.6326,-50.9242 40.6819,-39.4761 34.8484,-29.8679"/>
<polygon fill="midnightblue" stroke="midnightblue" points="37.6915,-27.8066 29.5099,-21.0752 31.708,-31.4395 37.6915,-27.8066"/>
</g>
<!-- Node6 -->
<g id="node6" class="node"><title>Node6</title>
<polygon fill="none" stroke="#bfbfbf" points="65.707,-1 65.707,-21 122.293,-21 122.293,-1 65.707,-1"/>
<text text-anchor="middle" x="94" y="-7" font-family="Helvetica,sans-Serif" font-size="10.00">stdbool.h</text>
</g>
<!-- Node5&#45;&gt;Node6 -->
<g id="edge6" class="edge"><title>Node5&#45;&gt;Node6</title>
<path fill="none" stroke="midnightblue" d="M63.9447,-58.7527C69.0297,-50.8427 76.4904,-39.2372 82.7061,-29.5683"/>
<polygon fill="midnightblue" stroke="midnightblue" points="85.7025,-31.3797 88.1659,-21.0752 79.8142,-27.5943 85.7025,-31.3797"/>
</g>
<!-- Node7&#45;&gt;Node2 -->
<g id="edge9" class="edge"><title>Node7&#45;&gt;Node2</title>
<path fill="none" stroke="midnightblue" d="M121.104,-58.878C102.398,-49.8475 73.5345,-35.9132 52.1325,-25.5812"/>
<polygon fill="midnightblue" stroke="midnightblue" points="53.4147,-22.3137 42.8875,-21.1181 50.3714,-28.6176 53.4147,-22.3137"/>
</g>
<!-- Node7&#45;&gt;Node3 -->
<g id="edge10" class="edge"><title>Node7&#45;&gt;Node3</title>
<path fill="none" stroke="midnightblue" d="M143.468,-58.7527C146.342,-51.0873 150.518,-39.9515 154.073,-30.4708"/>
<polygon fill="midnightblue" stroke="midnightblue" points="157.363,-31.6674 157.597,-21.0752 150.808,-29.2095 157.363,-31.6674"/>
</g>
<!-- Node7&#45;&gt;Node4 -->
<g id="edge11" class="edge"><title>Node7&#45;&gt;Node4</title>
<path fill="none" stroke="midnightblue" d="M155.522,-58.7527C170.306,-49.9457 192.778,-36.5575 209.893,-26.3617"/>
<polygon fill="midnightblue" stroke="midnightblue" points="211.967,-29.2002 218.767,-21.0752 208.384,-23.1864 211.967,-29.2002"/>
</g>
<!-- Node7&#45;&gt;Node6 -->
<g id="edge8" class="edge"><title>Node7&#45;&gt;Node6</title>
<path fill="none" stroke="midnightblue" d="M132.404,-58.7527C125.773,-50.6796 115.979,-38.7571 107.942,-28.9727"/>
<polygon fill="midnightblue" stroke="midnightblue" points="110.507,-26.5809 101.455,-21.0752 105.098,-31.0241 110.507,-26.5809"/>
</g>
</g>
</svg>
