<?xml version="1.0" encoding="UTF-8" standalone="no"?>
<!DOCTYPE svg PUBLIC "-//W3C//DTD SVG 1.1//EN"
 "http://www.w3.org/Graphics/SVG/1.1/DTD/svg11.dtd">
<!-- Generated by graphviz version 2.36.0 (20140111.2315)
 -->
<!-- Title: /Users/tgil/git/CoActionOS/CoActionOS/include/dev/disk.h Pages: 1 -->
<svg width="549pt" height="216pt"
 viewBox="0.00 0.00 548.89 216.00" xmlns="http://www.w3.org/2000/svg" xmlns:xlink="http://www.w3.org/1999/xlink">
<g id="graph0" class="graph" transform="scale(1 1) rotate(0) translate(4 212)">
<title>/Users/tgil/git/CoActionOS/CoActionOS/include/dev/disk.h</title>
<!-- Node1 -->
<g id="node1" class="node"><title>Node1</title>
<polygon fill="#bfbfbf" stroke="black" points="202.641,-169 202.641,-207 325.359,-207 325.359,-169 202.641,-169"/>
<text text-anchor="start" x="210.641" y="-195" font-family="Helvetica,sans-Serif" font-size="10.00">/Users/tgil/git/CoAction</text>
<text text-anchor="start" x="210.641" y="-185" font-family="Helvetica,sans-Serif" font-size="10.00">OS/CoActionOS/include</text>
<text text-anchor="middle" x="264" y="-175" font-family="Helvetica,sans-Serif" font-size="10.00">/dev/disk.h</text>
</g>
<!-- Node2 -->
<g id="node2" class="node"><title>Node2</title>
<polygon fill="none" stroke="#bfbfbf" points="-0.120605,-1 -0.120605,-19 48.1206,-19 48.1206,-1 -0.120605,-1"/>
<text text-anchor="middle" x="24" y="-7" font-family="Helvetica,sans-Serif" font-size="10.00">stdint.h</text>
</g>
<!-- Node1&#45;&gt;Node2 -->
<g id="edge1" class="edge"><title>Node1&#45;&gt;Node2</title>
<path fill="none" stroke="midnightblue" d="M202.606,-176.579C146.554,-163.52 66.5913,-135.201 27,-76 17.7832,-62.2182 18.1484,-42.8747 20.1382,-28.8764"/>
<polygon fill="midnightblue" stroke="midnightblue" points="23.5878,-29.4686 21.9302,-19.0043 16.7004,-28.2184 23.5878,-29.4686"/>
</g>
<!-- Node3 -->
<g id="node3" class="node"><title>Node3</title>
<g id="a_node3"><a xlink:href="hwpl_8h.html" target="_top" xlink:title="HWPL Header file (includes all other header files) ">
<polygon fill="none" stroke="black" points="241.547,-113 241.547,-131 286.453,-131 286.453,-113 241.547,-113"/>
<text text-anchor="middle" x="264" y="-119" font-family="Helvetica,sans-Serif" font-size="10.00">hwpl.h</text>
</a>
</g>
</g>
<!-- Node1&#45;&gt;Node3 -->
<g id="edge2" class="edge"><title>Node1&#45;&gt;Node3</title>
<path fill="none" stroke="midnightblue" d="M264,-168.831C264,-160.198 264,-149.901 264,-141.256"/>
<polygon fill="midnightblue" stroke="midnightblue" points="267.5,-141.122 264,-131.122 260.5,-141.122 267.5,-141.122"/>
</g>
<!-- Node11 -->
<g id="node11" class="node"><title>Node11</title>
<g id="a_node11"><a xlink:href="ioctl_8h_source.html" target="_top" xlink:title="dev/ioctl.h">
<polygon fill="none" stroke="black" points="396.488,-1 396.488,-19 457.512,-19 457.512,-1 396.488,-1"/>
<text text-anchor="middle" x="427" y="-7" font-family="Helvetica,sans-Serif" font-size="10.00">dev/ioctl.h</text>
</a>
</g>
</g>
<!-- Node1&#45;&gt;Node11 -->
<g id="edge14" class="edge"><title>Node1&#45;&gt;Node11</title>
<path fill="none" stroke="midnightblue" d="M325.471,-181.285C390.238,-171.613 489.205,-145.638 536,-76 556.023,-46.2024 506.401,-28.0039 467.677,-18.7106"/>
<polygon fill="midnightblue" stroke="midnightblue" points="468.141,-15.2271 457.615,-16.4307 466.594,-22.054 468.141,-15.2271"/>
</g>
<!-- Node3&#45;&gt;Node2 -->
<g id="edge3" class="edge"><title>Node3&#45;&gt;Node2</title>
<path fill="none" stroke="midnightblue" d="M241.416,-119.319C191.09,-115.125 71.8907,-102.573 43,-76 30.1635,-64.1931 25.8238,-44.2438 24.4439,-29.5531"/>
<polygon fill="midnightblue" stroke="midnightblue" points="27.9157,-28.9452 23.8661,-19.1549 20.9264,-29.3337 27.9157,-28.9452"/>
</g>
<!-- Node4 -->
<g id="node4" class="node"><title>Node4</title>
<polygon fill="none" stroke="#bfbfbf" points="142.158,-57 142.158,-75 189.842,-75 189.842,-57 142.158,-57"/>
<text text-anchor="middle" x="166" y="-63" font-family="Helvetica,sans-Serif" font-size="10.00">stdlib.h</text>
</g>
<!-- Node3&#45;&gt;Node4 -->
<g id="edge4" class="edge"><title>Node3&#45;&gt;Node4</title>
<path fill="none" stroke="midnightblue" d="M249.116,-112.799C233.339,-104.105 208.195,-90.2506 189.69,-80.0538"/>
<polygon fill="midnightblue" stroke="midnightblue" points="191.151,-76.8623 180.703,-75.1017 187.772,-82.9932 191.151,-76.8623"/>
</g>
<!-- Node5 -->
<g id="node5" class="node"><title>Node5</title>
<polygon fill="none" stroke="#bfbfbf" points="207.604,-57 207.604,-75 256.396,-75 256.396,-57 207.604,-57"/>
<text text-anchor="middle" x="232" y="-63" font-family="Helvetica,sans-Serif" font-size="10.00">string.h</text>
</g>
<!-- Node3&#45;&gt;Node5 -->
<g id="edge5" class="edge"><title>Node3&#45;&gt;Node5</title>
<path fill="none" stroke="midnightblue" d="M259,-112.562C254.465,-104.909 247.644,-93.3999 241.993,-83.8638"/>
<polygon fill="midnightblue" stroke="midnightblue" points="244.969,-82.02 236.86,-75.2014 238.947,-85.5887 244.969,-82.02"/>
</g>
<!-- Node6 -->
<g id="node6" class="node"><title>Node6</title>
<polygon fill="none" stroke="#bfbfbf" points="274.269,-57 274.269,-75 319.731,-75 319.731,-57 274.269,-57"/>
<text text-anchor="middle" x="297" y="-63" font-family="Helvetica,sans-Serif" font-size="10.00">stdio.h</text>
</g>
<!-- Node3&#45;&gt;Node6 -->
<g id="edge6" class="edge"><title>Node3&#45;&gt;Node6</title>
<path fill="none" stroke="midnightblue" d="M269.156,-112.562C273.833,-104.909 280.867,-93.3999 286.694,-83.8638"/>
<polygon fill="midnightblue" stroke="midnightblue" points="289.76,-85.5594 291.988,-75.2014 283.787,-81.9092 289.76,-85.5594"/>
</g>
<!-- Node7 -->
<g id="node7" class="node"><title>Node7</title>
<polygon fill="none" stroke="#bfbfbf" points="192.707,-1 192.707,-19 249.293,-19 249.293,-1 192.707,-1"/>
<text text-anchor="middle" x="221" y="-7" font-family="Helvetica,sans-Serif" font-size="10.00">stdbool.h</text>
</g>
<!-- Node3&#45;&gt;Node7 -->
<g id="edge7" class="edge"><title>Node3&#45;&gt;Node7</title>
<path fill="none" stroke="midnightblue" d="M282.954,-112.921C306.978,-101.483 343.51,-79.3489 328,-56 312.877,-33.2336 283.746,-21.9596 259.694,-16.3908"/>
<polygon fill="midnightblue" stroke="midnightblue" points="260.254,-12.9327 249.752,-14.3366 258.837,-19.7878 260.254,-12.9327"/>
</g>
<!-- Node8 -->
<g id="node8" class="node"><title>Node8</title>
<polygon fill="none" stroke="#bfbfbf" points="375.707,-57 375.707,-75 442.293,-75 442.293,-57 375.707,-57"/>
<text text-anchor="middle" x="409" y="-63" font-family="Helvetica,sans-Serif" font-size="10.00">hwpl/fault.h</text>
</g>
<!-- Node3&#45;&gt;Node8 -->
<g id="edge8" class="edge"><title>Node3&#45;&gt;Node8</title>
<path fill="none" stroke="midnightblue" d="M285.708,-112.916C310.054,-103.849 349.755,-89.0635 377.51,-78.7275"/>
<polygon fill="midnightblue" stroke="midnightblue" points="378.994,-81.9096 387.144,-75.1396 376.551,-75.3497 378.994,-81.9096"/>
</g>
<!-- Node9 -->
<g id="node9" class="node"><title>Node9</title>
<polygon fill="none" stroke="#bfbfbf" points="460.431,-57 460.431,-75 527.569,-75 527.569,-57 460.431,-57"/>
<text text-anchor="middle" x="494" y="-63" font-family="Helvetica,sans-Serif" font-size="10.00">hwpl/arch.h</text>
</g>
<!-- Node3&#45;&gt;Node9 -->
<g id="edge9" class="edge"><title>Node3&#45;&gt;Node9</title>
<path fill="none" stroke="midnightblue" d="M286.472,-115.724C324.357,-106.829 401.571,-88.7008 450.389,-77.2391"/>
<polygon fill="midnightblue" stroke="midnightblue" points="451.416,-80.5933 460.351,-74.9002 449.816,-73.7786 451.416,-80.5933"/>
</g>
<!-- Node10 -->
<g id="node10" class="node"><title>Node10</title>
<g id="a_node10"><a xlink:href="types_8h_source.html" target="_top" xlink:title="hwpl/types.h">
<polygon fill="none" stroke="black" points="52.207,-57 52.207,-75 123.793,-75 123.793,-57 52.207,-57"/>
<text text-anchor="middle" x="88" y="-63" font-family="Helvetica,sans-Serif" font-size="10.00">hwpl/types.h</text>
</a>
</g>
</g>
<!-- Node3&#45;&gt;Node10 -->
<g id="edge10" class="edge"><title>Node3&#45;&gt;Node10</title>
<path fill="none" stroke="midnightblue" d="M241.351,-114.051C211.692,-104.951 159.342,-88.889 124.164,-78.0959"/>
<polygon fill="midnightblue" stroke="midnightblue" points="124.874,-74.6527 114.287,-75.0654 122.821,-81.3448 124.874,-74.6527"/>
</g>
<!-- Node10&#45;&gt;Node2 -->
<g id="edge11" class="edge"><title>Node10&#45;&gt;Node2</title>
<path fill="none" stroke="midnightblue" d="M78.2798,-56.7986C68.6001,-48.6313 53.521,-35.9083 41.7102,-25.943"/>
<polygon fill="midnightblue" stroke="midnightblue" points="43.7117,-23.0523 33.8117,-19.2786 39.1976,-28.4024 43.7117,-23.0523"/>
</g>
<!-- Node10&#45;&gt;Node7 -->
<g id="edge12" class="edge"><title>Node10&#45;&gt;Node7</title>
<path fill="none" stroke="midnightblue" d="M107.911,-56.9157C130.046,-47.9285 166.021,-33.3225 191.443,-23.0005"/>
<polygon fill="midnightblue" stroke="midnightblue" points="193.004,-26.1445 200.952,-19.1396 190.37,-19.6587 193.004,-26.1445"/>
</g>
<!-- Node10&#45;&gt;Node11 -->
<g id="edge13" class="edge"><title>Node10&#45;&gt;Node11</title>
<path fill="none" stroke="midnightblue" d="M123.834,-57.6804C126.931,-57.0942 130.019,-56.526 133,-56 223.237,-40.0789 329.641,-24.6076 386.439,-16.6127"/>
<polygon fill="midnightblue" stroke="midnightblue" points="387.035,-20.0634 396.452,-15.2085 386.062,-13.1313 387.035,-20.0634"/>
</g>
</g>
</svg>
