<?xml version="1.0" encoding="UTF-8" standalone="no"?>
<!DOCTYPE svg PUBLIC "-//W3C//DTD SVG 1.1//EN"
 "http://www.w3.org/Graphics/SVG/1.1/DTD/svg11.dtd">
<!-- Generated by graphviz version 2.34.0 (20130907.0228)
 -->
<!-- Title: /Users/tgil/git/CoActionOS/CoActionOS/include/dev/eth.h Pages: 1 -->
<svg width="236pt" height="170pt"
 viewBox="0.00 0.00 235.79 170.00" xmlns="http://www.w3.org/2000/svg" xmlns:xlink="http://www.w3.org/1999/xlink">
<g id="graph0" class="graph" transform="scale(1 1) rotate(0) translate(4 166)">
<title>/Users/tgil/git/CoActionOS/CoActionOS/include/dev/eth.h</title>
<!-- Node1 -->
<g id="node1" class="node"><title>Node1</title>
<polygon fill="#bfbfbf" stroke="black" points="7.42769,-117 7.42769,-161 130.146,-161 130.146,-117 7.42769,-117"/>
<text text-anchor="start" x="15.4277" y="-147" font-family="Helvetica,sans-Serif" font-size="10.00">/Users/tgil/git/CoAction</text>
<text text-anchor="start" x="15.4277" y="-135" font-family="Helvetica,sans-Serif" font-size="10.00">OS/CoActionOS/include</text>
<text text-anchor="middle" x="68.7871" y="-123" font-family="Helvetica,sans-Serif" font-size="10.00">/dev/eth.h</text>
</g>
<!-- Node2 -->
<g id="node2" class="node"><title>Node2</title>
<polygon fill="none" stroke="#bfbfbf" points="28.6665,-1 28.6665,-21 76.9077,-21 76.9077,-1 28.6665,-1"/>
<text text-anchor="middle" x="52.7871" y="-7" font-family="Helvetica,sans-Serif" font-size="10.00">stdint.h</text>
</g>
<!-- Node1&#45;&gt;Node2 -->
<g id="edge1" class="edge"><title>Node1&#45;&gt;Node2</title>
<path fill="none" stroke="midnightblue" d="M34.2284,-116.77C21.9139,-107.207 9.45272,-94.7315 2.78706,-80 -6.21507,-60.1048 12.2068,-40.3296 29.175,-27.2764"/>
<polygon fill="midnightblue" stroke="midnightblue" points="31.6892,-29.7793 37.7628,-21.0982 27.6012,-24.097 31.6892,-29.7793"/>
</g>
<!-- Node3 -->
<g id="node3" class="node"><title>Node3</title>
<g id="a_node3"><a xlink:href="ioctl_8h_source.html" target="_top" target="_top" xlink:title="ioctl.h">
<polygon fill="none" stroke="black" points="11.7255,-59 11.7255,-79 53.8486,-79 53.8486,-59 11.7255,-59"/>
<text text-anchor="middle" x="32.7871" y="-65" font-family="Helvetica,sans-Serif" font-size="10.00">ioctl.h</text>
</a>
</g>
</g>
<!-- Node1&#45;&gt;Node3 -->
<g id="edge2" class="edge"><title>Node1&#45;&gt;Node3</title>
<path fill="none" stroke="midnightblue" d="M57.5938,-116.857C52.7349,-107.679 47.1,-97.0355 42.4298,-88.2141"/>
<polygon fill="midnightblue" stroke="midnightblue" points="45.4319,-86.4042 37.6597,-79.2039 39.2454,-89.6794 45.4319,-86.4042"/>
</g>
<!-- Node4 -->
<g id="node4" class="node"><title>Node4</title>
<polygon fill="none" stroke="#bfbfbf" points="72.2182,-59 72.2182,-79 139.356,-79 139.356,-59 72.2182,-59"/>
<text text-anchor="middle" x="105.787" y="-65" font-family="Helvetica,sans-Serif" font-size="10.00">hwpl/arch.h</text>
</g>
<!-- Node1&#45;&gt;Node4 -->
<g id="edge3" class="edge"><title>Node1&#45;&gt;Node4</title>
<path fill="none" stroke="midnightblue" d="M80.2913,-116.857C85.2851,-107.679 91.0765,-97.0355 95.8765,-88.2141"/>
<polygon fill="midnightblue" stroke="midnightblue" points="99.0739,-89.6607 100.779,-79.2039 92.9252,-86.315 99.0739,-89.6607"/>
</g>
<!-- Node5 -->
<g id="node5" class="node"><title>Node5</title>
<g id="a_node5"><a xlink:href="types_8h_source.html" target="_top" target="_top" xlink:title="hwpl/types.h">
<polygon fill="none" stroke="black" points="156.994,-59 156.994,-79 228.58,-79 228.58,-59 156.994,-59"/>
<text text-anchor="middle" x="192.787" y="-65" font-family="Helvetica,sans-Serif" font-size="10.00">hwpl/types.h</text>
</a>
</g>
</g>
<!-- Node1&#45;&gt;Node5 -->
<g id="edge4" class="edge"><title>Node1&#45;&gt;Node5</title>
<path fill="none" stroke="midnightblue" d="M107.342,-116.857C126.897,-106.133 150.102,-93.4079 167.391,-83.9268"/>
<polygon fill="midnightblue" stroke="midnightblue" points="169.242,-86.9038 176.327,-79.0266 165.876,-80.7661 169.242,-86.9038"/>
</g>
<!-- Node5&#45;&gt;Node2 -->
<g id="edge5" class="edge"><title>Node5&#45;&gt;Node2</title>
<path fill="none" stroke="midnightblue" d="M169.982,-58.878C146.897,-49.6441 110.995,-35.283 85.0087,-24.8887"/>
<polygon fill="midnightblue" stroke="midnightblue" points="86.167,-21.5824 75.5823,-21.1181 83.5672,-28.0817 86.167,-21.5824"/>
</g>
<!-- Node6 -->
<g id="node6" class="node"><title>Node6</title>
<polygon fill="none" stroke="#bfbfbf" points="164.494,-1 164.494,-21 221.08,-21 221.08,-1 164.494,-1"/>
<text text-anchor="middle" x="192.787" y="-7" font-family="Helvetica,sans-Serif" font-size="10.00">stdbool.h</text>
</g>
<!-- Node5&#45;&gt;Node6 -->
<g id="edge6" class="edge"><title>Node5&#45;&gt;Node6</title>
<path fill="none" stroke="midnightblue" d="M192.787,-58.7527C192.787,-51.2504 192.787,-40.4238 192.787,-31.0781"/>
<polygon fill="midnightblue" stroke="midnightblue" points="196.287,-31.0752 192.787,-21.0752 189.287,-31.0752 196.287,-31.0752"/>
</g>
</g>
</svg>
