<?xml version="1.0" encoding="UTF-8" standalone="no"?>
<!DOCTYPE svg PUBLIC "-//W3C//DTD SVG 1.1//EN"
 "http://www.w3.org/Graphics/SVG/1.1/DTD/svg11.dtd">
<!-- Generated by graphviz version 2.34.0 (20130907.0228)
 -->
<!-- Title: Peripherals Pages: 1 -->
<svg width="184pt" height="418pt"
 viewBox="0.00 0.00 184.00 418.00" xmlns="http://www.w3.org/2000/svg" xmlns:xlink="http://www.w3.org/1999/xlink">
<g id="graph0" class="graph" transform="scale(1 1) rotate(0) translate(4 414)">
<title>Peripherals</title>
<!-- Node8 -->
<g id="node1" class="node"><title>Node8</title>
<g id="a_node1"><a xlink:href="group___r_t_c.html" target="_top" xlink:title="Real Time Clock. ">
<polygon fill="none" stroke="black" points="121.812,-390 121.812,-410 158.188,-410 158.188,-390 121.812,-390"/>
<text text-anchor="middle" x="140" y="-396" font-family="Helvetica,sans-Serif" font-size="10.00">RTC</text>
</a>
</g>
</g>
<!-- Node0 -->
<g id="node2" class="node"><title>Node0</title>
<polygon fill="#bfbfbf" stroke="black" points="0.709473,-195 0.709473,-215 67.2905,-215 67.2905,-195 0.709473,-195"/>
<text text-anchor="middle" x="34" y="-201" font-family="Helvetica,sans-Serif" font-size="10.00">Peripherals</text>
</g>
<!-- Node0&#45;&gt;Node8 -->
<g id="edge8" class="edge"><title>Node0&#45;&gt;Node8</title>
<path fill="none" stroke="midnightblue" d="M38.4473,-225.326C45.3224,-260.506 63.6851,-333.438 104,-380 108.764,-385.503 115.434,-389.835 121.675,-393.04"/>
<polygon fill="midnightblue" stroke="midnightblue" points="41.8566,-224.514 36.6054,-215.312 34.9721,-225.78 41.8566,-224.514"/>
</g>
<!-- Node4 -->
<g id="node3" class="node"><title>Node4</title>
<g id="a_node3"><a xlink:href="group___i2_c.html" target="_top" xlink:title="Inter&#45;IC Communications. ">
<polygon fill="none" stroke="black" points="124.219,-351 124.219,-371 155.781,-371 155.781,-351 124.219,-351"/>
<text text-anchor="middle" x="140" y="-357" font-family="Helvetica,sans-Serif" font-size="10.00">I2C</text>
</a>
</g>
</g>
<!-- Node0&#45;&gt;Node4 -->
<g id="edge4" class="edge"><title>Node0&#45;&gt;Node4</title>
<path fill="none" stroke="midnightblue" d="M40.9463,-224.712C50.3807,-253.262 71.1473,-306.475 104,-341 109.596,-346.881 117.307,-351.539 124.067,-354.875"/>
<polygon fill="midnightblue" stroke="midnightblue" points="44.2462,-223.539 37.8838,-215.067 37.5745,-225.658 44.2462,-223.539"/>
</g>
<!-- Node2 -->
<g id="node4" class="node"><title>Node2</title>
<g id="a_node4"><a xlink:href="group___c_o_r_e.html" target="_top" xlink:title="Core MCU Access. ">
<polygon fill="none" stroke="black" points="117.554,-312 117.554,-332 162.446,-332 162.446,-312 117.554,-312"/>
<text text-anchor="middle" x="140" y="-318" font-family="Helvetica,sans-Serif" font-size="10.00">CORE</text>
</a>
</g>
</g>
<!-- Node0&#45;&gt;Node2 -->
<g id="edge2" class="edge"><title>Node0&#45;&gt;Node2</title>
<path fill="none" stroke="midnightblue" d="M45.2128,-224.094C57.1714,-245.126 78.608,-279.009 104,-302 108.15,-305.758 113.125,-309.12 118.003,-311.967"/>
<polygon fill="midnightblue" stroke="midnightblue" points="48.173,-222.215 40.2662,-215.163 42.0495,-225.606 48.173,-222.215"/>
</g>
<!-- Node9 -->
<g id="node5" class="node"><title>Node9</title>
<g id="a_node5"><a xlink:href="group___s_p_i.html" target="_top" xlink:title="Serial Peripheral Interface. ">
<polygon fill="none" stroke="black" points="123.941,-273 123.941,-293 156.059,-293 156.059,-273 123.941,-273"/>
<text text-anchor="middle" x="140" y="-279" font-family="Helvetica,sans-Serif" font-size="10.00">SPI</text>
</a>
</g>
</g>
<!-- Node0&#45;&gt;Node9 -->
<g id="edge9" class="edge"><title>Node0&#45;&gt;Node9</title>
<path fill="none" stroke="midnightblue" d="M53.3691,-222.011C66.868,-234.114 85.9306,-250.396 104,-263 110.199,-267.324 117.397,-271.559 123.648,-275.011"/>
<polygon fill="midnightblue" stroke="midnightblue" points="55.498,-219.217 45.7417,-215.086 50.7924,-224.399 55.498,-219.217"/>
</g>
<!-- Node5 -->
<g id="node6" class="node"><title>Node5</title>
<g id="a_node6"><a xlink:href="group___p_i_o.html" target="_top" xlink:title="Pin Input/Output. ">
<polygon fill="none" stroke="black" points="123.387,-234 123.387,-254 156.613,-254 156.613,-234 123.387,-234"/>
<text text-anchor="middle" x="140" y="-240" font-family="Helvetica,sans-Serif" font-size="10.00">PIO</text>
</a>
</g>
</g>
<!-- Node0&#45;&gt;Node5 -->
<g id="edge5" class="edge"><title>Node0&#45;&gt;Node5</title>
<path fill="none" stroke="midnightblue" d="M71.3204,-218.62C89.0957,-225.286 109.568,-232.963 123.3,-238.112"/>
<polygon fill="midnightblue" stroke="midnightblue" points="72.3748,-215.278 61.7826,-215.043 69.9169,-221.832 72.3748,-215.278"/>
</g>
<!-- Node10 -->
<g id="node7" class="node"><title>Node10</title>
<g id="a_node7"><a xlink:href="group___t_m_r.html" target="_top" xlink:title="Timer. ">
<polygon fill="none" stroke="black" points="103.858,-195 103.858,-215 176.142,-215 176.142,-195 103.858,-195"/>
<text text-anchor="middle" x="140" y="-201" font-family="Helvetica,sans-Serif" font-size="10.00">Timer (TMR)</text>
</a>
</g>
</g>
<!-- Node0&#45;&gt;Node10 -->
<g id="edge10" class="edge"><title>Node0&#45;&gt;Node10</title>
<path fill="none" stroke="midnightblue" d="M77.3952,-205C86.1651,-205 95.3126,-205 103.793,-205"/>
<polygon fill="midnightblue" stroke="midnightblue" points="77.3362,-201.5 67.3362,-205 77.3361,-208.5 77.3362,-201.5"/>
</g>
<!-- Node1 -->
<g id="node8" class="node"><title>Node1</title>
<g id="a_node8"><a xlink:href="group___a_d_c.html" target="_top" xlink:title="Analog to Digital Converter. ">
<polygon fill="none" stroke="black" points="121.443,-156 121.443,-176 158.557,-176 158.557,-156 121.443,-156"/>
<text text-anchor="middle" x="140" y="-162" font-family="Helvetica,sans-Serif" font-size="10.00">ADC</text>
</a>
</g>
</g>
<!-- Node0&#45;&gt;Node1 -->
<g id="edge1" class="edge"><title>Node0&#45;&gt;Node1</title>
<path fill="none" stroke="midnightblue" d="M71.3661,-191.363C88.2202,-185.042 107.49,-177.816 121.138,-172.698"/>
<polygon fill="midnightblue" stroke="midnightblue" points="69.9169,-188.168 61.7826,-194.957 72.3748,-194.722 69.9169,-188.168"/>
</g>
<!-- Node7 -->
<g id="node9" class="node"><title>Node7</title>
<g id="a_node9"><a xlink:href="group___q_e_i.html" target="_top" xlink:title="Quadrature Encoder Interface. ">
<polygon fill="none" stroke="black" points="123.387,-117 123.387,-137 156.613,-137 156.613,-117 123.387,-117"/>
<text text-anchor="middle" x="140" y="-123" font-family="Helvetica,sans-Serif" font-size="10.00">QEI</text>
</a>
</g>
</g>
<!-- Node0&#45;&gt;Node7 -->
<g id="edge7" class="edge"><title>Node0&#45;&gt;Node7</title>
<path fill="none" stroke="midnightblue" d="M53.3691,-187.989C66.868,-175.886 85.9306,-159.604 104,-147 110.084,-142.756 117.131,-138.597 123.299,-135.181"/>
<polygon fill="midnightblue" stroke="midnightblue" points="50.7924,-185.601 45.7417,-194.914 55.498,-190.783 50.7924,-185.601"/>
</g>
<!-- Node6 -->
<g id="node10" class="node"><title>Node6</title>
<g id="a_node10"><a xlink:href="group___p_w_m.html" target="_top" xlink:title="Pulse Width Modulation. ">
<polygon fill="none" stroke="black" points="119.781,-78 119.781,-98 160.219,-98 160.219,-78 119.781,-78"/>
<text text-anchor="middle" x="140" y="-84" font-family="Helvetica,sans-Serif" font-size="10.00">PWM</text>
</a>
</g>
</g>
<!-- Node0&#45;&gt;Node6 -->
<g id="edge6" class="edge"><title>Node0&#45;&gt;Node6</title>
<path fill="none" stroke="midnightblue" d="M45.2128,-185.906C57.1714,-164.874 78.608,-130.991 104,-108 108.565,-103.866 114.128,-100.211 119.462,-97.1942"/>
<polygon fill="midnightblue" stroke="midnightblue" points="42.0495,-184.394 40.2662,-194.837 48.173,-187.785 42.0495,-184.394"/>
</g>
<!-- Node11 -->
<g id="node11" class="node"><title>Node11</title>
<g id="a_node11"><a xlink:href="group___u_a_r_t.html" target="_top" xlink:title="UART. ">
<polygon fill="none" stroke="black" points="118.477,-39 118.477,-59 161.523,-59 161.523,-39 118.477,-39"/>
<text text-anchor="middle" x="140" y="-45" font-family="Helvetica,sans-Serif" font-size="10.00">UART</text>
</a>
</g>
</g>
<!-- Node0&#45;&gt;Node11 -->
<g id="edge11" class="edge"><title>Node0&#45;&gt;Node11</title>
<path fill="none" stroke="midnightblue" d="M40.9463,-185.288C50.3807,-156.738 71.1473,-103.525 104,-69 108.052,-64.7412 113.214,-61.124 118.32,-58.1857"/>
<polygon fill="midnightblue" stroke="midnightblue" points="37.5745,-184.342 37.8838,-194.933 44.2462,-186.461 37.5745,-184.342"/>
</g>
<!-- Node3 -->
<g id="node12" class="node"><title>Node3</title>
<g id="a_node12"><a xlink:href="group___e_i_n_t.html" target="_top" xlink:title="External Interrupts. ">
<polygon fill="none" stroke="black" points="120.611,-0 120.611,-20 159.389,-20 159.389,-0 120.611,-0"/>
<text text-anchor="middle" x="140" y="-6" font-family="Helvetica,sans-Serif" font-size="10.00">EINT</text>
</a>
</g>
</g>
<!-- Node0&#45;&gt;Node3 -->
<g id="edge3" class="edge"><title>Node0&#45;&gt;Node3</title>
<path fill="none" stroke="midnightblue" d="M38.4473,-184.674C45.3224,-149.494 63.6851,-76.5624 104,-30 108.489,-24.8149 114.671,-20.6688 120.591,-17.526"/>
<polygon fill="midnightblue" stroke="midnightblue" points="34.9721,-184.22 36.6054,-194.688 41.8566,-185.486 34.9721,-184.22"/>
</g>
</g>
</svg>
