<?xml version="1.0" encoding="UTF-8" standalone="no"?>
<!DOCTYPE svg PUBLIC "-//W3C//DTD SVG 1.1//EN"
 "http://www.w3.org/Graphics/SVG/1.1/DTD/svg11.dtd">
<!-- Generated by graphviz version 2.34.0 (20130907.0228)
 -->
<!-- Title: USB Device Pages: 1 -->
<svg width="238pt" height="286pt"
 viewBox="0.00 0.00 238.00 286.00" xmlns="http://www.w3.org/2000/svg" xmlns:xlink="http://www.w3.org/1999/xlink">
<g id="graph0" class="graph" transform="scale(1 1) rotate(0) translate(4 282)">
<title>USB Device</title>
<!-- Node2 -->
<g id="node1" class="node"><title>Node2</title>
<g id="a_node1"><a xlink:href="group___u_s_b___d_e_v___c_d_c.html" target="_top" xlink:title="Communications Device\l Class">
<polygon fill="none" stroke="black" points="106.091,-246 106.091,-278 229.909,-278 229.909,-246 106.091,-246"/>
<text text-anchor="start" x="114.091" y="-264" font-family="Helvetica,sans-Serif" font-size="10.00">Communications Device</text>
<text text-anchor="middle" x="168" y="-252" font-family="Helvetica,sans-Serif" font-size="10.00"> Class</text>
</a>
</g>
</g>
<!-- Node6 -->
<g id="node2" class="node"><title>Node6</title>
<g id="a_node2"><a xlink:href="group___u_s_b___d_e_v___s_t_d.html" target="_top" xlink:title="USB Standard Device">
<polygon fill="none" stroke="black" points="111.365,-207 111.365,-227 224.635,-227 224.635,-207 111.365,-207"/>
<text text-anchor="middle" x="168" y="-213" font-family="Helvetica,sans-Serif" font-size="10.00">USB Standard Device</text>
</a>
</g>
</g>
<!-- Node3 -->
<g id="node3" class="node"><title>Node3</title>
<g id="a_node3"><a xlink:href="group___u_s_b___d_e_v___h_i_d.html" target="_top" xlink:title="Human Interface Device">
<polygon fill="none" stroke="black" points="106.365,-168 106.365,-188 229.635,-188 229.635,-168 106.365,-168"/>
<text text-anchor="middle" x="168" y="-174" font-family="Helvetica,sans-Serif" font-size="10.00">Human Interface Device</text>
</a>
</g>
</g>
<!-- Node0 -->
<g id="node4" class="node"><title>Node0</title>
<polygon fill="#bfbfbf" stroke="black" points="0.046875,-123 0.046875,-143 69.9531,-143 69.9531,-123 0.046875,-123"/>
<text text-anchor="middle" x="35" y="-129" font-family="Helvetica,sans-Serif" font-size="10.00">USB Device</text>
</g>
<!-- Node0&#45;&gt;Node2 -->
<g id="edge2" class="edge"><title>Node0&#45;&gt;Node2</title>
<path fill="none" stroke="midnightblue" d="M44.8089,-152.211C56.0952,-174.951 77.6381,-212.668 106,-236 110.534,-239.73 115.683,-243.006 121.021,-245.86"/>
<polygon fill="midnightblue" stroke="midnightblue" points="47.9646,-150.697 40.4834,-143.195 41.6533,-153.725 47.9646,-150.697"/>
</g>
<!-- Node0&#45;&gt;Node6 -->
<g id="edge6" class="edge"><title>Node0&#45;&gt;Node6</title>
<path fill="none" stroke="midnightblue" d="M51.4153,-150.768C64.6328,-165.027 84.8442,-184.64 106,-197 112.736,-200.935 120.349,-204.214 127.856,-206.901"/>
<polygon fill="midnightblue" stroke="midnightblue" points="53.7836,-148.167 44.4869,-143.086 48.5855,-152.856 53.7836,-148.167"/>
</g>
<!-- Node0&#45;&gt;Node3 -->
<g id="edge3" class="edge"><title>Node0&#45;&gt;Node3</title>
<path fill="none" stroke="midnightblue" d="M72.9746,-146.409C83.6152,-150.213 95.2507,-154.319 106,-158 115.7,-161.322 126.307,-164.839 135.915,-167.982"/>
<polygon fill="midnightblue" stroke="midnightblue" points="74.1308,-143.106 63.5363,-143.022 71.7664,-149.694 74.1308,-143.106"/>
</g>
<!-- Node5 -->
<g id="node5" class="node"><title>Node5</title>
<g id="a_node5"><a xlink:href="group___u_s_b___d_e_v___r_u_n_t_i_m_e___d_f_u.html" target="_top" xlink:title="USB Runtime Device\l Firmware Upgrade">
<polygon fill="none" stroke="black" points="113.04,-117 113.04,-149 222.96,-149 222.96,-117 113.04,-117"/>
<text text-anchor="start" x="121.04" y="-135" font-family="Helvetica,sans-Serif" font-size="10.00">USB Runtime Device</text>
<text text-anchor="middle" x="168" y="-123" font-family="Helvetica,sans-Serif" font-size="10.00"> Firmware Upgrade</text>
</a>
</g>
</g>
<!-- Node0&#45;&gt;Node5 -->
<g id="edge5" class="edge"><title>Node0&#45;&gt;Node5</title>
<path fill="none" stroke="midnightblue" d="M80.2186,-133C90.6771,-133 101.948,-133 112.792,-133"/>
<polygon fill="midnightblue" stroke="midnightblue" points="80.0768,-129.5 70.0767,-133 80.0767,-136.5 80.0768,-129.5"/>
</g>
<!-- Node1 -->
<g id="node6" class="node"><title>Node1</title>
<g id="a_node6"><a xlink:href="group___u_s_b___d_e_v___a_d_c.html" target="_top" xlink:title="Audio Device Class">
<polygon fill="none" stroke="black" points="116.648,-78 116.648,-98 219.352,-98 219.352,-78 116.648,-78"/>
<text text-anchor="middle" x="168" y="-84" font-family="Helvetica,sans-Serif" font-size="10.00">Audio Device Class</text>
</a>
</g>
</g>
<!-- Node0&#45;&gt;Node1 -->
<g id="edge1" class="edge"><title>Node0&#45;&gt;Node1</title>
<path fill="none" stroke="midnightblue" d="M72.9746,-119.591C83.6152,-115.787 95.2507,-111.681 106,-108 115.7,-104.678 126.307,-101.161 135.915,-98.0177"/>
<polygon fill="midnightblue" stroke="midnightblue" points="71.7664,-116.306 63.5363,-122.978 74.1308,-122.894 71.7664,-116.306"/>
</g>
<!-- Node4 -->
<g id="node7" class="node"><title>Node4</title>
<g id="a_node7"><a xlink:href="group___u_s_b___d_e_v___m_s_c.html" target="_top" xlink:title="Mass Storage Class">
<polygon fill="none" stroke="black" points="115.261,-39 115.261,-59 220.739,-59 220.739,-39 115.261,-39"/>
<text text-anchor="middle" x="168" y="-45" font-family="Helvetica,sans-Serif" font-size="10.00">Mass Storage Class</text>
</a>
</g>
</g>
<!-- Node0&#45;&gt;Node4 -->
<g id="edge4" class="edge"><title>Node0&#45;&gt;Node4</title>
<path fill="none" stroke="midnightblue" d="M51.4153,-115.232C64.6328,-100.973 84.8442,-81.3597 106,-69 112.736,-65.0646 120.349,-61.786 127.856,-59.0993"/>
<polygon fill="midnightblue" stroke="midnightblue" points="48.5855,-113.144 44.4869,-122.914 53.7836,-117.833 48.5855,-113.144"/>
</g>
<!-- Node7 -->
<g id="node8" class="node"><title>Node7</title>
<g id="a_node8"><a xlink:href="group___u_s_b_d_e_f_s.html" target="_top" xlink:title="USB Definitions">
<polygon fill="none" stroke="black" points="124.985,-0 124.985,-20 211.015,-20 211.015,-0 124.985,-0"/>
<text text-anchor="middle" x="168" y="-6" font-family="Helvetica,sans-Serif" font-size="10.00">USB Definitions</text>
</a>
</g>
</g>
<!-- Node0&#45;&gt;Node7 -->
<g id="edge7" class="edge"><title>Node0&#45;&gt;Node7</title>
<path fill="none" stroke="midnightblue" d="M44.309,-113.722C55.2198,-90.6044 76.51,-52.2031 106,-30 111.609,-25.7768 118.152,-22.421 124.829,-19.7613"/>
<polygon fill="midnightblue" stroke="midnightblue" points="41.099,-112.326 40.1542,-122.879 47.4735,-115.218 41.099,-112.326"/>
</g>
</g>
</svg>
