<?xml version="1.0" encoding="UTF-8" standalone="no"?>
<!DOCTYPE svg PUBLIC "-//W3C//DTD SVG 1.1//EN"
 "http://www.w3.org/Graphics/SVG/1.1/DTD/svg11.dtd">
<!-- Generated by graphviz version 2.34.0 (20130907.0228)
 -->
<!-- Title: Architectures Pages: 1 -->
<svg width="358pt" height="106pt"
 viewBox="0.00 0.00 358.00 106.00" xmlns="http://www.w3.org/2000/svg" xmlns:xlink="http://www.w3.org/1999/xlink">
<g id="graph0" class="graph" transform="scale(1 1) rotate(0) translate(4 102)">
<title>Architectures</title>
<!-- Node0 -->
<g id="node1" class="node"><title>Node0</title>
<polygon fill="#bfbfbf" stroke="black" points="143.823,-39 143.823,-59 218.177,-59 218.177,-39 143.823,-39"/>
<text text-anchor="middle" x="181" y="-45" font-family="Helvetica,sans-Serif" font-size="10.00">Architectures</text>
</g>
<!-- Node3 -->
<g id="node2" class="node"><title>Node3</title>
<g id="a_node2"><a xlink:href="group___l_p_c17_x_x_d_e_v.html" target="_top" xlink:title="LPC17xx Devices">
<polygon fill="none" stroke="black" points="254.54,-78 254.54,-98 349.46,-98 349.46,-78 254.54,-78"/>
<text text-anchor="middle" x="302" y="-84" font-family="Helvetica,sans-Serif" font-size="10.00">LPC17xx Devices</text>
</a>
</g>
</g>
<!-- Node0&#45;&gt;Node3 -->
<g id="edge3" class="edge"><title>Node0&#45;&gt;Node3</title>
<path fill="none" stroke="midnightblue" d="M222.162,-62.1623C237.943,-67.3341 255.76,-73.1733 270.458,-77.9906"/>
<polygon fill="midnightblue" stroke="midnightblue" points="223.238,-58.8319 212.645,-59.0435 221.058,-65.4838 223.238,-58.8319"/>
</g>
<!-- Node2 -->
<g id="node3" class="node"><title>Node2</title>
<g id="a_node3"><a xlink:href="group___u_s_b_l_i_n_k.html" target="_top" xlink:title="USB Link (link)">
<polygon fill="none" stroke="black" points="260.936,-39 260.936,-59 343.064,-59 343.064,-39 260.936,-39"/>
<text text-anchor="middle" x="302" y="-45" font-family="Helvetica,sans-Serif" font-size="10.00">USB Link (link)</text>
</a>
</g>
</g>
<!-- Node0&#45;&gt;Node2 -->
<g id="edge2" class="edge"><title>Node0&#45;&gt;Node2</title>
<path fill="none" stroke="midnightblue" d="M228.362,-49C239.045,-49 250.323,-49 260.722,-49"/>
<polygon fill="midnightblue" stroke="midnightblue" points="228.351,-45.5001 218.351,-49 228.35,-52.5001 228.351,-45.5001"/>
</g>
<!-- Node4 -->
<g id="node4" class="node"><title>Node4</title>
<g id="a_node4"><a xlink:href="group___l_p_c13_x_x_d_e_v.html" target="_top" xlink:title="LPC13xx Devices">
<polygon fill="none" stroke="black" points="254.54,-0 254.54,-20 349.46,-20 349.46,-0 254.54,-0"/>
<text text-anchor="middle" x="302" y="-6" font-family="Helvetica,sans-Serif" font-size="10.00">LPC13xx Devices</text>
</a>
</g>
</g>
<!-- Node0&#45;&gt;Node4 -->
<g id="edge4" class="edge"><title>Node0&#45;&gt;Node4</title>
<path fill="none" stroke="midnightblue" d="M222.162,-35.8377C237.943,-30.6659 255.76,-24.8267 270.458,-20.0094"/>
<polygon fill="midnightblue" stroke="midnightblue" points="221.058,-32.5162 212.645,-38.9565 223.238,-39.1681 221.058,-32.5162"/>
</g>
<!-- Node1 -->
<g id="node5" class="node"><title>Node1</title>
<g id="a_node5"><a xlink:href="group___h_w_p_l.html" target="_top" xlink:title="Hardware Peripheral\l Library">
<polygon fill="none" stroke="black" points="0.145508,-33 0.145508,-65 107.854,-65 107.854,-33 0.145508,-33"/>
<text text-anchor="start" x="8.14551" y="-51" font-family="Helvetica,sans-Serif" font-size="10.00">Hardware Peripheral</text>
<text text-anchor="middle" x="54" y="-39" font-family="Helvetica,sans-Serif" font-size="10.00"> Library</text>
</a>
</g>
</g>
<!-- Node1&#45;&gt;Node0 -->
<g id="edge1" class="edge"><title>Node1&#45;&gt;Node0</title>
<path fill="none" stroke="midnightblue" d="M118.19,-49C126.888,-49 135.568,-49 143.556,-49"/>
<polygon fill="midnightblue" stroke="midnightblue" points="118.011,-45.5001 108.011,-49 118.011,-52.5001 118.011,-45.5001"/>
</g>
</g>
</svg>
