<?xml version="1.0" encoding="UTF-8" standalone="no"?>
<!DOCTYPE svg PUBLIC "-//W3C//DTD SVG 1.1//EN"
 "http://www.w3.org/Graphics/SVG/1.1/DTD/svg11.dtd">
<!-- Generated by graphviz version 2.34.0 (20130907.0228)
 -->
<!-- Title: Posix Threads (pthread) Pages: 1 -->
<svg width="362pt" height="106pt"
 viewBox="0.00 0.00 362.00 106.00" xmlns="http://www.w3.org/2000/svg" xmlns:xlink="http://www.w3.org/1999/xlink">
<g id="graph0" class="graph" transform="scale(1 1) rotate(0) translate(4 102)">
<title>Posix Threads (pthread)</title>
<!-- Node1 -->
<g id="node1" class="node"><title>Node1</title>
<g id="a_node1"><a xlink:href="group___p_o_s_i_x.html" target="_top" xlink:title="POSIX">
<polygon fill="none" stroke="black" points="0.716797,-39 0.716797,-59 47.2832,-59 47.2832,-39 0.716797,-39"/>
<text text-anchor="middle" x="24" y="-45" font-family="Helvetica,sans-Serif" font-size="10.00">POSIX</text>
</a>
</g>
</g>
<!-- Node0 -->
<g id="node3" class="node"><title>Node0</title>
<polygon fill="#bfbfbf" stroke="black" points="84.4526,-39 84.4526,-59 207.547,-59 207.547,-39 84.4526,-39"/>
<text text-anchor="middle" x="146" y="-45" font-family="Helvetica,sans-Serif" font-size="10.00">Posix Threads (pthread)</text>
</g>
<!-- Node1&#45;&gt;Node0 -->
<g id="edge1" class="edge"><title>Node1&#45;&gt;Node0</title>
<path fill="none" stroke="midnightblue" d="M57.3341,-49C65.7056,-49 74.997,-49 84.3106,-49"/>
<polygon fill="midnightblue" stroke="midnightblue" points="57.2899,-45.5001 47.2898,-49 57.2898,-52.5001 57.2899,-45.5001"/>
</g>
<!-- Node4 -->
<g id="node2" class="node"><title>Node4</title>
<g id="a_node2"><a xlink:href="group___p_t_h_r_e_a_d___m_u_t_e_x.html" target="_top" xlink:title="Mutexes">
<polygon fill="none" stroke="black" points="272.104,-78 272.104,-98 325.896,-98 325.896,-78 272.104,-78"/>
<text text-anchor="middle" x="299" y="-84" font-family="Helvetica,sans-Serif" font-size="10.00">Mutexes</text>
</a>
</g>
</g>
<!-- Node0&#45;&gt;Node4 -->
<g id="edge4" class="edge"><title>Node0&#45;&gt;Node4</title>
<path fill="none" stroke="midnightblue" d="M195.719,-61.5831C221.108,-68.1405 251.139,-75.8968 272.066,-81.3019"/>
<polygon fill="midnightblue" stroke="midnightblue" points="196.444,-58.1555 185.886,-59.0435 194.693,-64.9331 196.444,-58.1555"/>
</g>
<!-- Node3 -->
<g id="node4" class="node"><title>Node3</title>
<g id="a_node4"><a xlink:href="group___p_t_h_r_e_a_d___c_o_n_d.html" target="_top" xlink:title="Conditional Variables">
<polygon fill="none" stroke="black" points="244.118,-39 244.118,-59 353.882,-59 353.882,-39 244.118,-39"/>
<text text-anchor="middle" x="299" y="-45" font-family="Helvetica,sans-Serif" font-size="10.00">Conditional Variables</text>
</a>
</g>
</g>
<!-- Node0&#45;&gt;Node3 -->
<g id="edge3" class="edge"><title>Node0&#45;&gt;Node3</title>
<path fill="none" stroke="midnightblue" d="M217.751,-49C226.5,-49 235.335,-49 243.782,-49"/>
<polygon fill="midnightblue" stroke="midnightblue" points="217.547,-45.5001 207.547,-49 217.547,-52.5001 217.547,-45.5001"/>
</g>
<!-- Node2 -->
<g id="node5" class="node"><title>Node2</title>
<g id="a_node5"><a xlink:href="group___p_t_h_r_e_a_d___a_t_t_r.html" target="_top" xlink:title="Attributes">
<polygon fill="none" stroke="black" points="269.879,-0 269.879,-20 328.121,-20 328.121,-0 269.879,-0"/>
<text text-anchor="middle" x="299" y="-6" font-family="Helvetica,sans-Serif" font-size="10.00">Attributes</text>
</a>
</g>
</g>
<!-- Node0&#45;&gt;Node2 -->
<g id="edge2" class="edge"><title>Node0&#45;&gt;Node2</title>
<path fill="none" stroke="midnightblue" d="M195.719,-36.4169C220.181,-30.0991 248.951,-22.6684 269.736,-17.2999"/>
<polygon fill="midnightblue" stroke="midnightblue" points="194.693,-33.0669 185.886,-38.9565 196.444,-39.8445 194.693,-33.0669"/>
</g>
</g>
</svg>
