<?xml version="1.0" encoding="UTF-8" standalone="no"?>
<!DOCTYPE svg PUBLIC "-//W3C//DTD SVG 1.1//EN"
 "http://www.w3.org/Graphics/SVG/1.1/DTD/svg11.dtd">
<!-- Generated by graphviz version 2.34.0 (20130907.0228)
 -->
<!-- Title: /Users/tgil/git/CoActionOS/CoActionOS/src/sys/time/hibernate.c Pages: 1 -->
<svg width="882pt" height="228pt"
 viewBox="0.00 0.00 882.00 228.00" xmlns="http://www.w3.org/2000/svg" xmlns:xlink="http://www.w3.org/1999/xlink">
<g id="graph0" class="graph" transform="scale(1 1) rotate(0) translate(4 224)">
<title>/Users/tgil/git/CoActionOS/CoActionOS/src/sys/time/hibernate.c</title>
<!-- Node1 -->
<g id="node1" class="node"><title>Node1</title>
<polygon fill="#bfbfbf" stroke="black" points="390.931,-175 390.931,-219 513.069,-219 513.069,-175 390.931,-175"/>
<text text-anchor="start" x="398.931" y="-205" font-family="Helvetica,sans-Serif" font-size="10.00">/Users/tgil/git/CoAction</text>
<text text-anchor="start" x="398.931" y="-193" font-family="Helvetica,sans-Serif" font-size="10.00">OS/CoActionOS/src/sys</text>
<text text-anchor="middle" x="452" y="-181" font-family="Helvetica,sans-Serif" font-size="10.00">/time/hibernate.c</text>
</g>
<!-- Node2 -->
<g id="node2" class="node"><title>Node2</title>
<g id="a_node2"><a xlink:href="config_8h.html" target="_top" xlink:title="config.h">
<polygon fill="none" stroke="black" points="-0.512207,-117 -0.512207,-137 50.5122,-137 50.5122,-117 -0.512207,-117"/>
<text text-anchor="middle" x="25" y="-123" font-family="Helvetica,sans-Serif" font-size="10.00">config.h</text>
</a>
</g>
</g>
<!-- Node1&#45;&gt;Node2 -->
<g id="edge1" class="edge"><title>Node1&#45;&gt;Node2</title>
<path fill="none" stroke="midnightblue" d="M390.93,-189.663C315.289,-181.219 182.436,-164.446 60.4094,-138.084"/>
<polygon fill="midnightblue" stroke="midnightblue" points="61.0376,-134.639 50.5207,-135.921 59.5419,-141.477 61.0376,-134.639"/>
</g>
<!-- Node3 -->
<g id="node3" class="node"><title>Node3</title>
<polygon fill="none" stroke="#bfbfbf" points="68.1577,-117 68.1577,-137 115.842,-137 115.842,-117 68.1577,-117"/>
<text text-anchor="middle" x="92" y="-123" font-family="Helvetica,sans-Serif" font-size="10.00">errno.h</text>
</g>
<!-- Node1&#45;&gt;Node3 -->
<g id="edge2" class="edge"><title>Node1&#45;&gt;Node3</title>
<path fill="none" stroke="midnightblue" d="M390.882,-186.47C325.9,-175.992 220.263,-157.973 130,-138 128.726,-137.718 127.431,-137.423 126.124,-137.117"/>
<polygon fill="midnightblue" stroke="midnightblue" points="126.6,-133.63 116.053,-134.637 124.926,-140.427 126.6,-133.63"/>
</g>
<!-- Node4 -->
<g id="node4" class="node"><title>Node4</title>
<polygon fill="none" stroke="#bfbfbf" points="153.707,-1 153.707,-21 210.293,-21 210.293,-1 153.707,-1"/>
<text text-anchor="middle" x="182" y="-7" font-family="Helvetica,sans-Serif" font-size="10.00">stdbool.h</text>
</g>
<!-- Node1&#45;&gt;Node4 -->
<g id="edge3" class="edge"><title>Node1&#45;&gt;Node4</title>
<path fill="none" stroke="midnightblue" d="M390.808,-189.908C325.737,-179.685 226.586,-152.427 185,-80 176.55,-65.283 176.636,-45.6787 178.341,-31.3017"/>
<polygon fill="midnightblue" stroke="midnightblue" points="181.851,-31.5033 179.923,-21.0855 174.934,-30.4322 181.851,-31.5033"/>
</g>
<!-- Node5 -->
<g id="node5" class="node"><title>Node5</title>
<polygon fill="none" stroke="#bfbfbf" points="284.495,-117 284.495,-137 345.505,-137 345.505,-117 284.495,-117"/>
<text text-anchor="middle" x="315" y="-123" font-family="Helvetica,sans-Serif" font-size="10.00">sys/time.h</text>
</g>
<!-- Node1&#45;&gt;Node5 -->
<g id="edge4" class="edge"><title>Node1&#45;&gt;Node5</title>
<path fill="none" stroke="midnightblue" d="M409.403,-174.857C387.498,-163.984 361.447,-151.054 342.266,-141.534"/>
<polygon fill="midnightblue" stroke="midnightblue" points="343.699,-138.338 333.186,-137.027 340.587,-144.608 343.699,-138.338"/>
</g>
<!-- Node6 -->
<g id="node6" class="node"><title>Node6</title>
<polygon fill="none" stroke="#bfbfbf" points="703.384,-59 703.384,-79 746.616,-79 746.616,-59 703.384,-59"/>
<text text-anchor="middle" x="725" y="-65" font-family="Helvetica,sans-Serif" font-size="10.00">time.h</text>
</g>
<!-- Node1&#45;&gt;Node6 -->
<g id="edge5" class="edge"><title>Node1&#45;&gt;Node6</title>
<path fill="none" stroke="midnightblue" d="M486.519,-174.975C524.185,-152.073 579.855,-118.356 585,-116 590.095,-113.666 653.82,-92.9716 693.517,-80.1476"/>
<polygon fill="midnightblue" stroke="midnightblue" points="694.842,-83.3978 703.283,-76.9949 692.691,-76.7364 694.842,-83.3978"/>
</g>
<!-- Node7 -->
<g id="node7" class="node"><title>Node7</title>
<polygon fill="none" stroke="#bfbfbf" points="426.488,-117 426.488,-137 477.512,-137 477.512,-117 426.488,-117"/>
<text text-anchor="middle" x="452" y="-123" font-family="Helvetica,sans-Serif" font-size="10.00">unistd.h</text>
</g>
<!-- Node1&#45;&gt;Node7 -->
<g id="edge6" class="edge"><title>Node1&#45;&gt;Node7</title>
<path fill="none" stroke="midnightblue" d="M452,-174.857C452,-166.074 452,-155.948 452,-147.362"/>
<polygon fill="midnightblue" stroke="midnightblue" points="455.5,-147.204 452,-137.204 448.5,-147.204 455.5,-147.204"/>
</g>
<!-- Node8 -->
<g id="node8" class="node"><title>Node8</title>
<polygon fill="none" stroke="#bfbfbf" points="495.66,-117 495.66,-137 538.34,-137 538.34,-117 495.66,-117"/>
<text text-anchor="middle" x="517" y="-123" font-family="Helvetica,sans-Serif" font-size="10.00">fcntl.h</text>
</g>
<!-- Node1&#45;&gt;Node8 -->
<g id="edge7" class="edge"><title>Node1&#45;&gt;Node8</title>
<path fill="none" stroke="midnightblue" d="M472.21,-174.857C481.549,-165.087 492.476,-153.656 501.199,-144.53"/>
<polygon fill="midnightblue" stroke="midnightblue" points="503.822,-146.851 508.202,-137.204 498.762,-142.014 503.822,-146.851"/>
</g>
<!-- Node9 -->
<g id="node9" class="node"><title>Node9</title>
<g id="a_node9"><a xlink:href="hwpl_8h.html" target="_top" xlink:title="HWPL Header file (includes all other header files) ">
<polygon fill="none" stroke="black" points="363.547,-117 363.547,-137 408.453,-137 408.453,-117 363.547,-117"/>
<text text-anchor="middle" x="386" y="-123" font-family="Helvetica,sans-Serif" font-size="10.00">hwpl.h</text>
</a>
</g>
</g>
<!-- Node1&#45;&gt;Node9 -->
<g id="edge8" class="edge"><title>Node1&#45;&gt;Node9</title>
<path fill="none" stroke="midnightblue" d="M431.479,-174.857C421.996,-165.087 410.901,-153.656 402.044,-144.53"/>
<polygon fill="midnightblue" stroke="midnightblue" points="404.41,-141.942 394.933,-137.204 399.386,-146.817 404.41,-141.942"/>
</g>
<!-- Node17 -->
<g id="node17" class="node"><title>Node17</title>
<polygon fill="none" stroke="#bfbfbf" points="594.377,-117 594.377,-137 657.623,-137 657.623,-117 594.377,-117"/>
<text text-anchor="middle" x="626" y="-123" font-family="Helvetica,sans-Serif" font-size="10.00">hwpl/wdt.h</text>
</g>
<!-- Node1&#45;&gt;Node17 -->
<g id="edge19" class="edge"><title>Node1&#45;&gt;Node17</title>
<path fill="none" stroke="midnightblue" d="M506.101,-174.857C534.685,-163.686 568.826,-150.344 593.352,-140.759"/>
<polygon fill="midnightblue" stroke="midnightblue" points="594.863,-143.927 602.903,-137.027 592.315,-137.407 594.863,-143.927"/>
</g>
<!-- Node18 -->
<g id="node18" class="node"><title>Node18</title>
<g id="a_node18"><a xlink:href="rtc_8h.html" target="_top" xlink:title="Real Time Clock Header File. ">
<polygon fill="none" stroke="black" points="686.825,-117 686.825,-137 741.175,-137 741.175,-117 686.825,-117"/>
<text text-anchor="middle" x="714" y="-123" font-family="Helvetica,sans-Serif" font-size="10.00">dev/rtc.h</text>
</a>
</g>
</g>
<!-- Node1&#45;&gt;Node18 -->
<g id="edge20" class="edge"><title>Node1&#45;&gt;Node18</title>
<path fill="none" stroke="midnightblue" d="M513.097,-180.143C563.805,-166.982 634.274,-148.692 676.865,-137.638"/>
<polygon fill="midnightblue" stroke="midnightblue" points="678.005,-140.958 686.805,-135.058 676.246,-134.183 678.005,-140.958"/>
</g>
<!-- Node20 -->
<g id="node20" class="node"><title>Node20</title>
<polygon fill="none" stroke="#bfbfbf" points="759.247,-117 759.247,-137 874.753,-137 874.753,-117 759.247,-117"/>
<text text-anchor="middle" x="817" y="-123" font-family="Helvetica,sans-Serif" font-size="10.00">../sched/sched_flags.h</text>
</g>
<!-- Node1&#45;&gt;Node20 -->
<g id="edge25" class="edge"><title>Node1&#45;&gt;Node20</title>
<path fill="none" stroke="midnightblue" d="M513.093,-184.618C581.427,-171.888 691.321,-151.414 758.557,-138.888"/>
<polygon fill="midnightblue" stroke="midnightblue" points="759.373,-142.296 768.563,-137.024 758.091,-135.415 759.373,-142.296"/>
</g>
<!-- Node9&#45;&gt;Node4 -->
<g id="edge13" class="edge"><title>Node9&#45;&gt;Node4</title>
<path fill="none" stroke="midnightblue" d="M363.334,-118.696C360.208,-117.754 357.032,-116.829 354,-116 286.618,-97.5698 251.408,-128.364 201,-80 188.031,-67.5568 183.685,-47.0602 182.339,-31.8174"/>
<polygon fill="midnightblue" stroke="midnightblue" points="185.813,-31.2117 181.801,-21.4056 178.822,-31.5729 185.813,-31.2117"/>
</g>
<!-- Node10 -->
<g id="node10" class="node"><title>Node10</title>
<polygon fill="none" stroke="#bfbfbf" points="565.879,-1 565.879,-21 614.121,-21 614.121,-1 565.879,-1"/>
<text text-anchor="middle" x="590" y="-7" font-family="Helvetica,sans-Serif" font-size="10.00">stdint.h</text>
</g>
<!-- Node9&#45;&gt;Node10 -->
<g id="edge9" class="edge"><title>Node9&#45;&gt;Node10</title>
<path fill="none" stroke="midnightblue" d="M408.623,-118.469C411.434,-117.602 414.276,-116.758 417,-116 484.297,-97.2615 519.265,-128.02 570,-80 583.104,-67.597 587.758,-47.0945 589.343,-31.8394"/>
<polygon fill="midnightblue" stroke="midnightblue" points="592.865,-31.6304 590.046,-21.4175 585.881,-31.1593 592.865,-31.6304"/>
</g>
<!-- Node11 -->
<g id="node11" class="node"><title>Node11</title>
<polygon fill="none" stroke="#bfbfbf" points="210.158,-59 210.158,-79 257.842,-79 257.842,-59 210.158,-59"/>
<text text-anchor="middle" x="234" y="-65" font-family="Helvetica,sans-Serif" font-size="10.00">stdlib.h</text>
</g>
<!-- Node9&#45;&gt;Node11 -->
<g id="edge10" class="edge"><title>Node9&#45;&gt;Node11</title>
<path fill="none" stroke="midnightblue" d="M363.244,-117.616C337.908,-108.282 296.705,-93.1019 267.643,-82.3949"/>
<polygon fill="midnightblue" stroke="midnightblue" points="268.509,-78.984 257.916,-78.8111 266.089,-85.5524 268.509,-78.984"/>
</g>
<!-- Node12 -->
<g id="node12" class="node"><title>Node12</title>
<polygon fill="none" stroke="#bfbfbf" points="275.604,-59 275.604,-79 324.396,-79 324.396,-59 275.604,-59"/>
<text text-anchor="middle" x="300" y="-65" font-family="Helvetica,sans-Serif" font-size="10.00">string.h</text>
</g>
<!-- Node9&#45;&gt;Node12 -->
<g id="edge11" class="edge"><title>Node9&#45;&gt;Node12</title>
<path fill="none" stroke="midnightblue" d="M371.799,-116.753C358.399,-108.027 338.093,-94.8051 322.492,-84.6458"/>
<polygon fill="midnightblue" stroke="midnightblue" points="324.227,-81.599 313.937,-79.0752 320.407,-87.465 324.227,-81.599"/>
</g>
<!-- Node13 -->
<g id="node13" class="node"><title>Node13</title>
<polygon fill="none" stroke="#bfbfbf" points="342.269,-59 342.269,-79 387.731,-79 387.731,-59 342.269,-59"/>
<text text-anchor="middle" x="365" y="-65" font-family="Helvetica,sans-Serif" font-size="10.00">stdio.h</text>
</g>
<!-- Node9&#45;&gt;Node13 -->
<g id="edge12" class="edge"><title>Node9&#45;&gt;Node13</title>
<path fill="none" stroke="midnightblue" d="M382.532,-116.753C379.658,-109.087 375.482,-97.9515 371.927,-88.4708"/>
<polygon fill="midnightblue" stroke="midnightblue" points="375.192,-87.2095 368.403,-79.0752 368.637,-89.6674 375.192,-87.2095"/>
</g>
<!-- Node14 -->
<g id="node14" class="node"><title>Node14</title>
<polygon fill="none" stroke="#bfbfbf" points="405.707,-59 405.707,-79 472.293,-79 472.293,-59 405.707,-59"/>
<text text-anchor="middle" x="439" y="-65" font-family="Helvetica,sans-Serif" font-size="10.00">hwpl/fault.h</text>
</g>
<!-- Node9&#45;&gt;Node14 -->
<g id="edge14" class="edge"><title>Node9&#45;&gt;Node14</title>
<path fill="none" stroke="midnightblue" d="M394.752,-116.753C402.547,-108.516 414.134,-96.2738 423.495,-86.3824"/>
<polygon fill="midnightblue" stroke="midnightblue" points="426.079,-88.744 430.411,-79.0752 420.995,-83.9323 426.079,-88.744"/>
</g>
<!-- Node15 -->
<g id="node15" class="node"><title>Node15</title>
<polygon fill="none" stroke="#bfbfbf" points="618.431,-59 618.431,-79 685.569,-79 685.569,-59 618.431,-59"/>
<text text-anchor="middle" x="652" y="-65" font-family="Helvetica,sans-Serif" font-size="10.00">hwpl/arch.h</text>
</g>
<!-- Node9&#45;&gt;Node15 -->
<g id="edge15" class="edge"><title>Node9&#45;&gt;Node15</title>
<path fill="none" stroke="midnightblue" d="M408.594,-118.36C411.41,-117.512 414.261,-116.703 417,-116 498.983,-94.969 521.013,-96.6315 604,-80 605.435,-79.7125 606.893,-79.4185 608.365,-79.1203"/>
<polygon fill="midnightblue" stroke="midnightblue" points="609.088,-82.5449 618.184,-77.1122 607.686,-75.6868 609.088,-82.5449"/>
</g>
<!-- Node16 -->
<g id="node16" class="node"><title>Node16</title>
<g id="a_node16"><a xlink:href="types_8h_source.html" target="_top" xlink:title="hwpl/types.h">
<polygon fill="none" stroke="black" points="490.207,-59 490.207,-79 561.793,-79 561.793,-59 490.207,-59"/>
<text text-anchor="middle" x="526" y="-65" font-family="Helvetica,sans-Serif" font-size="10.00">hwpl/types.h</text>
</a>
</g>
</g>
<!-- Node9&#45;&gt;Node16 -->
<g id="edge16" class="edge"><title>Node9&#45;&gt;Node16</title>
<path fill="none" stroke="midnightblue" d="M408.493,-117.003C431.522,-107.791 467.54,-93.3841 493.631,-82.9475"/>
<polygon fill="midnightblue" stroke="midnightblue" points="495.112,-86.1247 503.097,-79.1611 492.513,-79.6254 495.112,-86.1247"/>
</g>
<!-- Node16&#45;&gt;Node4 -->
<g id="edge18" class="edge"><title>Node16&#45;&gt;Node4</title>
<path fill="none" stroke="midnightblue" d="M490.182,-59.8169C487.082,-59.1764 483.989,-58.5614 481,-58 387.944,-40.522 277.671,-24.8482 220.578,-17.1053"/>
<polygon fill="midnightblue" stroke="midnightblue" points="220.931,-13.6212 210.553,-15.7531 219.995,-20.5584 220.931,-13.6212"/>
</g>
<!-- Node16&#45;&gt;Node10 -->
<g id="edge17" class="edge"><title>Node16&#45;&gt;Node10</title>
<path fill="none" stroke="midnightblue" d="M536.568,-58.7527C546.168,-50.3534 560.529,-37.7874 571.946,-27.7976"/>
<polygon fill="midnightblue" stroke="midnightblue" points="574.407,-30.2943 579.628,-21.0752 569.798,-25.0262 574.407,-30.2943"/>
</g>
<!-- Node18&#45;&gt;Node6 -->
<g id="edge21" class="edge"><title>Node18&#45;&gt;Node6</title>
<path fill="none" stroke="midnightblue" d="M715.816,-116.753C717.29,-109.25 719.417,-98.4238 721.253,-89.0781"/>
<polygon fill="midnightblue" stroke="midnightblue" points="724.724,-89.5623 723.217,-79.0752 717.855,-88.213 724.724,-89.5623"/>
</g>
<!-- Node18&#45;&gt;Node10 -->
<g id="edge22" class="edge"><title>Node18&#45;&gt;Node10</title>
<path fill="none" stroke="midnightblue" d="M726.663,-116.804C743.64,-103.352 770.006,-77.762 755,-58 739.258,-37.2688 667.884,-23.3798 624.328,-16.6698"/>
<polygon fill="midnightblue" stroke="midnightblue" points="624.574,-13.168 614.168,-15.1566 623.543,-20.0916 624.574,-13.168"/>
</g>
<!-- Node18&#45;&gt;Node15 -->
<g id="edge24" class="edge"><title>Node18&#45;&gt;Node15</title>
<path fill="none" stroke="midnightblue" d="M703.762,-116.753C694.463,-108.353 680.55,-95.7874 669.49,-85.7976"/>
<polygon fill="midnightblue" stroke="midnightblue" points="671.815,-83.1807 662.048,-79.0752 667.123,-88.3755 671.815,-83.1807"/>
</g>
<!-- Node19 -->
<g id="node19" class="node"><title>Node19</title>
<g id="a_node19"><a xlink:href="ioctl_8h_source.html" target="_top" xlink:title="ioctl.h">
<polygon fill="none" stroke="black" points="802.938,-59 802.938,-79 845.062,-79 845.062,-59 802.938,-59"/>
<text text-anchor="middle" x="824" y="-65" font-family="Helvetica,sans-Serif" font-size="10.00">ioctl.h</text>
</a>
</g>
</g>
<!-- Node18&#45;&gt;Node19 -->
<g id="edge23" class="edge"><title>Node18&#45;&gt;Node19</title>
<path fill="none" stroke="midnightblue" d="M732.164,-116.753C749.864,-107.742 776.984,-93.9353 797.17,-83.6589"/>
<polygon fill="midnightblue" stroke="midnightblue" points="798.85,-86.7312 806.174,-79.0752 795.674,-80.493 798.85,-86.7312"/>
</g>
</g>
</svg>
