<?xml version="1.0" encoding="UTF-8" standalone="no"?>
<!DOCTYPE svg PUBLIC "-//W3C//DTD SVG 1.1//EN"
 "http://www.w3.org/Graphics/SVG/1.1/DTD/svg11.dtd">
<!-- Generated by graphviz version 2.36.0 (20140111.2315)
 -->
<!-- Title: /Users/tgil/git/CoActionOS/CoActionOS/include/dev/hio.h Pages: 1 -->
<svg width="261pt" height="160pt"
 viewBox="0.00 0.00 261.00 160.00" xmlns="http://www.w3.org/2000/svg" xmlns:xlink="http://www.w3.org/1999/xlink">
<g id="graph0" class="graph" transform="scale(1 1) rotate(0) translate(4 156)">
<title>/Users/tgil/git/CoActionOS/CoActionOS/include/dev/hio.h</title>
<!-- Node1 -->
<g id="node1" class="node"><title>Node1</title>
<polygon fill="#bfbfbf" stroke="black" points="64.6406,-113 64.6406,-151 187.359,-151 187.359,-113 64.6406,-113"/>
<text text-anchor="start" x="72.6406" y="-139" font-family="Helvetica,sans-Serif" font-size="10.00">/Users/tgil/git/CoAction</text>
<text text-anchor="start" x="72.6406" y="-129" font-family="Helvetica,sans-Serif" font-size="10.00">OS/CoActionOS/include</text>
<text text-anchor="middle" x="126" y="-119" font-family="Helvetica,sans-Serif" font-size="10.00">/dev/hio.h</text>
</g>
<!-- Node2 -->
<g id="node2" class="node"><title>Node2</title>
<polygon fill="none" stroke="#bfbfbf" points="-0.120605,-1 -0.120605,-19 48.1206,-19 48.1206,-1 -0.120605,-1"/>
<text text-anchor="middle" x="24" y="-7" font-family="Helvetica,sans-Serif" font-size="10.00">stdint.h</text>
</g>
<!-- Node1&#45;&gt;Node2 -->
<g id="edge1" class="edge"><title>Node1&#45;&gt;Node2</title>
<path fill="none" stroke="midnightblue" d="M92.181,-112.92C77.2792,-103.554 60.5661,-90.9379 49,-76 38.2531,-62.1202 31.655,-43.0769 27.9565,-29.1914"/>
<polygon fill="midnightblue" stroke="midnightblue" points="31.3326,-28.2608 25.5882,-19.3584 24.5272,-29.9 31.3326,-28.2608"/>
</g>
<!-- Node3 -->
<g id="node3" class="node"><title>Node3</title>
<g id="a_node3"><a xlink:href="types_8h_source.html" target="_top" xlink:title="hwpl/types.h">
<polygon fill="none" stroke="black" points="58.207,-57 58.207,-75 129.793,-75 129.793,-57 58.207,-57"/>
<text text-anchor="middle" x="94" y="-63" font-family="Helvetica,sans-Serif" font-size="10.00">hwpl/types.h</text>
</a>
</g>
</g>
<!-- Node1&#45;&gt;Node3 -->
<g id="edge2" class="edge"><title>Node1&#45;&gt;Node3</title>
<path fill="none" stroke="midnightblue" d="M116.916,-112.831C112.405,-103.81 106.986,-92.9716 102.55,-84.1004"/>
<polygon fill="midnightblue" stroke="midnightblue" points="105.664,-82.5009 98.0609,-75.1219 99.4026,-85.6314 105.664,-82.5009"/>
</g>
<!-- Node5 -->
<g id="node5" class="node"><title>Node5</title>
<g id="a_node5"><a xlink:href="ioctl_8h_source.html" target="_top" xlink:title="dev/ioctl.h">
<polygon fill="none" stroke="black" points="140.488,-1 140.488,-19 201.512,-19 201.512,-1 140.488,-1"/>
<text text-anchor="middle" x="171" y="-7" font-family="Helvetica,sans-Serif" font-size="10.00">dev/ioctl.h</text>
</a>
</g>
</g>
<!-- Node1&#45;&gt;Node5 -->
<g id="edge6" class="edge"><title>Node1&#45;&gt;Node5</title>
<path fill="none" stroke="midnightblue" d="M132.835,-112.775C141.371,-90.011 155.879,-51.3214 164.336,-28.7718"/>
<polygon fill="midnightblue" stroke="midnightblue" points="167.714,-29.7313 167.948,-19.139 161.159,-27.2734 167.714,-29.7313"/>
</g>
<!-- Node6 -->
<g id="node6" class="node"><title>Node6</title>
<polygon fill="none" stroke="#bfbfbf" points="186.431,-57 186.431,-75 253.569,-75 253.569,-57 186.431,-57"/>
<text text-anchor="middle" x="220" y="-63" font-family="Helvetica,sans-Serif" font-size="10.00">hwpl/arch.h</text>
</g>
<!-- Node1&#45;&gt;Node6 -->
<g id="edge7" class="edge"><title>Node1&#45;&gt;Node6</title>
<path fill="none" stroke="midnightblue" d="M152.685,-112.831C167.646,-102.646 186.007,-90.1445 199.771,-80.7728"/>
<polygon fill="midnightblue" stroke="midnightblue" points="201.775,-83.6429 208.071,-75.1219 197.835,-77.8567 201.775,-83.6429"/>
</g>
<!-- Node3&#45;&gt;Node2 -->
<g id="edge3" class="edge"><title>Node3&#45;&gt;Node2</title>
<path fill="none" stroke="midnightblue" d="M83.3685,-56.7986C72.6786,-48.552 55.9678,-35.6608 42.9953,-25.6535"/>
<polygon fill="midnightblue" stroke="midnightblue" points="44.7872,-22.6154 34.7315,-19.2786 40.5116,-28.1579 44.7872,-22.6154"/>
</g>
<!-- Node4 -->
<g id="node4" class="node"><title>Node4</title>
<polygon fill="none" stroke="#bfbfbf" points="65.707,-1 65.707,-19 122.293,-19 122.293,-1 65.707,-1"/>
<text text-anchor="middle" x="94" y="-7" font-family="Helvetica,sans-Serif" font-size="10.00">stdbool.h</text>
</g>
<!-- Node3&#45;&gt;Node4 -->
<g id="edge4" class="edge"><title>Node3&#45;&gt;Node4</title>
<path fill="none" stroke="midnightblue" d="M94,-56.5625C94,-49.308 94,-38.5884 94,-29.3691"/>
<polygon fill="midnightblue" stroke="midnightblue" points="97.5001,-29.2014 94,-19.2014 90.5001,-29.2015 97.5001,-29.2014"/>
</g>
<!-- Node3&#45;&gt;Node5 -->
<g id="edge5" class="edge"><title>Node3&#45;&gt;Node5</title>
<path fill="none" stroke="midnightblue" d="M105.695,-56.7986C117.749,-48.3446 136.765,-35.0093 151.174,-24.9039"/>
<polygon fill="midnightblue" stroke="midnightblue" points="153.27,-27.7091 159.448,-19.1017 149.251,-21.9779 153.27,-27.7091"/>
</g>
</g>
</svg>
