<?xml version="1.0" encoding="UTF-8" standalone="no"?>
<!DOCTYPE svg PUBLIC "-//W3C//DTD SVG 1.1//EN"
 "http://www.w3.org/Graphics/SVG/1.1/DTD/svg11.dtd">
<!-- Generated by graphviz version 2.34.0 (20130907.0228)
 -->
<!-- Title: Graphical Class Hierarchy Pages: 1 -->
<svg width="268pt" height="28pt"
 viewBox="0.00 0.00 268.00 28.00" xmlns="http://www.w3.org/2000/svg" xmlns:xlink="http://www.w3.org/1999/xlink">
<g id="graph0" class="graph" transform="scale(1 1) rotate(0) translate(4 24)">
<title>Graphical Class Hierarchy</title>
<!-- Node1 -->
<g id="node1" class="node"><title>Node1</title>
<g id="a_node1"><a xlink:href="class_m_lcd.html" target="_top" xlink:title="Monochrome LCD. ">
<polygon fill="none" stroke="black" points="-0.226562,-0 -0.226562,-20 40.2266,-20 40.2266,-0 -0.226562,-0"/>
<text text-anchor="middle" x="20" y="-6" font-family="Helvetica,sans-Serif" font-size="10.00">MLcd</text>
</a>
</g>
</g>
<!-- Node2 -->
<g id="node2" class="node"><title>Node2</title>
<g id="a_node2"><a xlink:href="class_nhdc12832.html" target="_top" xlink:title="Class for the New Haven Display 128x32 LCD. ">
<polygon fill="none" stroke="black" points="76.4238,-0 76.4238,-20 143.576,-20 143.576,-0 76.4238,-0"/>
<text text-anchor="middle" x="110" y="-6" font-family="Helvetica,sans-Serif" font-size="10.00">Nhdc12832</text>
</a>
</g>
</g>
<!-- Node1&#45;&gt;Node2 -->
<g id="edge1" class="edge"><title>Node1&#45;&gt;Node2</title>
<path fill="none" stroke="midnightblue" d="M50.5317,-10C58.8365,-10 67.915,-10 76.3884,-10"/>
<polygon fill="midnightblue" stroke="midnightblue" points="50.5301,-6.5001 40.5301,-10 50.53,-13.5001 50.5301,-6.5001"/>
</g>
<!-- Node3 -->
<g id="node3" class="node"><title>Node3</title>
<g id="a_node3"><a xlink:href="class_exp_lcd_device.html" target="_top" xlink:title="CoAction Hero LCD Expansion board class. ">
<polygon fill="none" stroke="black" points="180.04,-0 180.04,-20 259.96,-20 259.96,-0 180.04,-0"/>
<text text-anchor="middle" x="220" y="-6" font-family="Helvetica,sans-Serif" font-size="10.00">ExpLcdDevice</text>
</a>
</g>
</g>
<!-- Node2&#45;&gt;Node3 -->
<g id="edge2" class="edge"><title>Node2&#45;&gt;Node3</title>
<path fill="none" stroke="midnightblue" d="M153.921,-10C162.512,-10 171.495,-10 179.948,-10"/>
<polygon fill="midnightblue" stroke="midnightblue" points="153.697,-6.5001 143.697,-10 153.697,-13.5001 153.697,-6.5001"/>
</g>
</g>
</svg>
