<?xml version="1.0" encoding="UTF-8" standalone="no"?>
<!DOCTYPE svg PUBLIC "-//W3C//DTD SVG 1.1//EN"
 "http://www.w3.org/Graphics/SVG/1.1/DTD/svg11.dtd">
<!-- Generated by graphviz version 2.34.0 (20130907.0228)
 -->
<!-- Title: Graphical Class Hierarchy Pages: 1 -->
<svg width="400pt" height="437pt"
 viewBox="0.00 0.00 400.00 437.00" xmlns="http://www.w3.org/2000/svg" xmlns:xlink="http://www.w3.org/1999/xlink">
<g id="graph0" class="graph" transform="scale(1 1) rotate(0) translate(4 433)">
<title>Graphical Class Hierarchy</title>
<!-- Node1 -->
<g id="node1" class="node"><title>Node1</title>
<g id="a_node1"><a xlink:href="class_appfs.html" target="_top" xlink:title="Class for accessing Application file system (Flash/RAM) ">
<polygon fill="none" stroke="black" points="72.2144,-409 72.2144,-429 113.786,-429 113.786,-409 72.2144,-409"/>
<text text-anchor="middle" x="93" y="-415" font-family="Helvetica,sans-Serif" font-size="10.00">Appfs</text>
</a>
</g>
</g>
<!-- Node2 -->
<g id="node2" class="node"><title>Node2</title>
<g id="a_node2"><a xlink:href="class_rle_appfs.html" target="_top" xlink:title="Class for reading/writing compressed file data using Appfs. ">
<polygon fill="none" stroke="black" points="152.712,-409 152.712,-429 209.288,-429 209.288,-409 152.712,-409"/>
<text text-anchor="middle" x="181" y="-415" font-family="Helvetica,sans-Serif" font-size="10.00">RleAppfs</text>
</a>
</g>
</g>
<!-- Node1&#45;&gt;Node2 -->
<g id="edge1" class="edge"><title>Node1&#45;&gt;Node2</title>
<path fill="none" stroke="midnightblue" d="M123.985,-419C133.31,-419 143.537,-419 152.671,-419"/>
<polygon fill="midnightblue" stroke="midnightblue" points="123.946,-415.5 113.946,-419 123.946,-422.5 123.946,-415.5"/>
</g>
<!-- Node3 -->
<g id="node3" class="node"><title>Node3</title>
<g id="a_node3"><a xlink:href="class_dbug.html" target="_top" xlink:title="Debug Class. ">
<polygon fill="none" stroke="black" points="246.047,-39 246.047,-59 285.953,-59 285.953,-39 246.047,-39"/>
<text text-anchor="middle" x="266" y="-45" font-family="Helvetica,sans-Serif" font-size="10.00">Dbug</text>
</a>
</g>
</g>
<!-- Node4 -->
<g id="node4" class="node"><title>Node4</title>
<g id="a_node4"><a xlink:href="class_dbug_null.html" target="_top" xlink:title="Debug Null Class. ">
<polygon fill="none" stroke="black" points="328.434,-39 328.434,-59 385.566,-59 385.566,-39 328.434,-39"/>
<text text-anchor="middle" x="357" y="-45" font-family="Helvetica,sans-Serif" font-size="10.00">DbugNull</text>
</a>
</g>
</g>
<!-- Node3&#45;&gt;Node4 -->
<g id="edge2" class="edge"><title>Node3&#45;&gt;Node4</title>
<path fill="none" stroke="midnightblue" d="M296.454,-49C306.709,-49 318.172,-49 328.282,-49"/>
<polygon fill="midnightblue" stroke="midnightblue" points="296.312,-45.5001 286.312,-49 296.312,-52.5001 296.312,-45.5001"/>
</g>
<!-- Node5 -->
<g id="node5" class="node"><title>Node5</title>
<g id="a_node5"><a xlink:href="class_dbug_stdout.html" target="_top" xlink:title="Debug Stdout Class. ">
<polygon fill="none" stroke="black" points="322.591,-0 322.591,-20 391.409,-20 391.409,-0 322.591,-0"/>
<text text-anchor="middle" x="357" y="-6" font-family="Helvetica,sans-Serif" font-size="10.00">DbugStdout</text>
</a>
</g>
</g>
<!-- Node3&#45;&gt;Node5 -->
<g id="edge3" class="edge"><title>Node3&#45;&gt;Node5</title>
<path fill="none" stroke="midnightblue" d="M295.534,-36.4963C307.62,-31.2001 321.518,-25.1102 332.939,-20.1053"/>
<polygon fill="midnightblue" stroke="midnightblue" points="294.066,-33.3182 286.312,-40.5376 296.876,-39.7297 294.066,-33.3182"/>
</g>
<!-- Node6 -->
<g id="node6" class="node"><title>Node6</title>
<g id="a_node6"><a xlink:href="class_dbug_uart.html" target="_top" xlink:title="Debug UART Class. ">
<polygon fill="none" stroke="black" points="327.601,-78 327.601,-98 386.399,-98 386.399,-78 327.601,-78"/>
<text text-anchor="middle" x="357" y="-84" font-family="Helvetica,sans-Serif" font-size="10.00">DbugUart</text>
</a>
</g>
</g>
<!-- Node3&#45;&gt;Node6 -->
<g id="edge4" class="edge"><title>Node3&#45;&gt;Node6</title>
<path fill="none" stroke="midnightblue" d="M295.534,-61.5037C307.62,-66.7999 321.518,-72.8898 332.939,-77.8947"/>
<polygon fill="midnightblue" stroke="midnightblue" points="296.876,-58.2703 286.312,-57.4624 294.066,-64.6818 296.876,-58.2703"/>
</g>
<!-- Node7 -->
<g id="node7" class="node"><title>Node7</title>
<g id="a_node7"><a xlink:href="class_phy.html" target="_top" xlink:title="Base Applib Class for Physical devices. ">
<polygon fill="none" stroke="black" points="0.384277,-282 0.384277,-302 33.6157,-302 33.6157,-282 0.384277,-282"/>
<text text-anchor="middle" x="17" y="-288" font-family="Helvetica,sans-Serif" font-size="10.00">Phy</text>
</a>
</g>
</g>
<!-- Node8 -->
<g id="node8" class="node"><title>Node8</title>
<g id="a_node8"><a xlink:href="class_file.html" target="_top" xlink:title="File Class. ">
<polygon fill="none" stroke="black" points="76.9434,-312 76.9434,-332 109.057,-332 109.057,-312 76.9434,-312"/>
<text text-anchor="middle" x="93" y="-318" font-family="Helvetica,sans-Serif" font-size="10.00">File</text>
</a>
</g>
</g>
<!-- Node7&#45;&gt;Node8 -->
<g id="edge5" class="edge"><title>Node7&#45;&gt;Node8</title>
<path fill="none" stroke="midnightblue" d="M43.0098,-302.139C54.2313,-306.688 67.1026,-311.906 76.8352,-315.852"/>
<polygon fill="midnightblue" stroke="midnightblue" points="44.2759,-298.876 33.6935,-298.362 41.6459,-305.363 44.2759,-298.876"/>
</g>
<!-- Node10 -->
<g id="node10" class="node"><title>Node10</title>
<g id="a_node10"><a xlink:href="class_periph.html" target="_top" xlink:title="Peripheral Class. ">
<polygon fill="none" stroke="black" points="70.5469,-253 70.5469,-273 115.453,-273 115.453,-253 70.5469,-253"/>
<text text-anchor="middle" x="93" y="-259" font-family="Helvetica,sans-Serif" font-size="10.00">Periph</text>
</a>
</g>
</g>
<!-- Node7&#45;&gt;Node10 -->
<g id="edge7" class="edge"><title>Node7&#45;&gt;Node10</title>
<path fill="none" stroke="midnightblue" d="M43.1459,-282.146C52.0112,-278.671 61.8916,-274.799 70.4345,-271.451"/>
<polygon fill="midnightblue" stroke="midnightblue" points="41.727,-278.942 33.6935,-285.85 44.2812,-285.46 41.727,-278.942"/>
</g>
<!-- Node9 -->
<g id="node9" class="node"><title>Node9</title>
<g id="a_node9"><a xlink:href="class_rle_file.html" target="_top" xlink:title="Class for reading/writing compressed file data. ">
<polygon fill="none" stroke="black" points="157.441,-370 157.441,-390 204.559,-390 204.559,-370 157.441,-370"/>
<text text-anchor="middle" x="181" y="-376" font-family="Helvetica,sans-Serif" font-size="10.00">RleFile</text>
</a>
</g>
</g>
<!-- Node8&#45;&gt;Node9 -->
<g id="edge6" class="edge"><title>Node8&#45;&gt;Node9</title>
<path fill="none" stroke="midnightblue" d="M117.336,-337.738C132.472,-347.946 151.752,-360.949 164.903,-369.818"/>
<polygon fill="midnightblue" stroke="midnightblue" points="119.228,-334.793 108.98,-332.103 115.314,-340.596 119.228,-334.793"/>
</g>
<!-- Node11 -->
<g id="node11" class="node"><title>Node11</title>
<g id="a_node11"><a xlink:href="class_core.html" target="_top" xlink:title="Core Class. ">
<polygon fill="none" stroke="black" points="162.163,-331 162.163,-351 199.837,-351 199.837,-331 162.163,-331"/>
<text text-anchor="middle" x="181" y="-337" font-family="Helvetica,sans-Serif" font-size="10.00">Core</text>
</a>
</g>
</g>
<!-- Node10&#45;&gt;Node11 -->
<g id="edge8" class="edge"><title>Node10&#45;&gt;Node11</title>
<path fill="none" stroke="midnightblue" d="M110.42,-280.902C121.664,-292.78 137.168,-308.436 152,-321 156.011,-324.398 160.573,-327.823 164.834,-330.855"/>
<polygon fill="midnightblue" stroke="midnightblue" points="112.763,-278.283 103.378,-273.367 107.649,-283.063 112.763,-278.283"/>
</g>
<!-- Node12 -->
<g id="node12" class="node"><title>Node12</title>
<g id="a_node12"><a xlink:href="class_eint.html" target="_top" xlink:title="External Interrupt Class. ">
<polygon fill="none" stroke="black" points="164.384,-292 164.384,-312 197.616,-312 197.616,-292 164.384,-292"/>
<text text-anchor="middle" x="181" y="-298" font-family="Helvetica,sans-Serif" font-size="10.00">Eint</text>
</a>
</g>
</g>
<!-- Node10&#45;&gt;Node12 -->
<g id="edge9" class="edge"><title>Node10&#45;&gt;Node12</title>
<path fill="none" stroke="midnightblue" d="M125.022,-277.068C138.338,-283.107 153.319,-289.901 164.276,-294.869"/>
<polygon fill="midnightblue" stroke="midnightblue" points="126.254,-273.784 115.701,-272.841 123.363,-280.159 126.254,-273.784"/>
</g>
<!-- Node13 -->
<g id="node13" class="node"><title>Node13</title>
<g id="a_node13"><a xlink:href="class_pblock.html" target="_top" xlink:title="Peripheral Block Class. ">
<polygon fill="none" stroke="black" points="157.993,-253 157.993,-273 204.007,-273 204.007,-253 157.993,-253"/>
<text text-anchor="middle" x="181" y="-259" font-family="Helvetica,sans-Serif" font-size="10.00">Pblock</text>
</a>
</g>
</g>
<!-- Node10&#45;&gt;Node13 -->
<g id="edge10" class="edge"><title>Node10&#45;&gt;Node13</title>
<path fill="none" stroke="midnightblue" d="M125.861,-263C136.447,-263 148.001,-263 157.706,-263"/>
<polygon fill="midnightblue" stroke="midnightblue" points="125.701,-259.5 115.701,-263 125.701,-266.5 125.701,-259.5"/>
</g>
<!-- Node20 -->
<g id="node20" class="node"><title>Node20</title>
<g id="a_node20"><a xlink:href="class_pchar.html" target="_top" xlink:title="Peripheral Character Class. ">
<polygon fill="none" stroke="black" points="159.938,-195 159.938,-215 202.062,-215 202.062,-195 159.938,-195"/>
<text text-anchor="middle" x="181" y="-201" font-family="Helvetica,sans-Serif" font-size="10.00">Pchar</text>
</a>
</g>
</g>
<!-- Node10&#45;&gt;Node20 -->
<g id="edge17" class="edge"><title>Node10&#45;&gt;Node20</title>
<path fill="none" stroke="midnightblue" d="M117.336,-247.262C132.472,-237.054 151.752,-224.051 164.903,-215.182"/>
<polygon fill="midnightblue" stroke="midnightblue" points="115.314,-244.404 108.98,-252.897 119.228,-250.207 115.314,-244.404"/>
</g>
<!-- Node25 -->
<g id="node25" class="node"><title>Node25</title>
<g id="a_node25"><a xlink:href="class_pio.html" target="_top" xlink:title="Pin Input/Output Class. ">
<polygon fill="none" stroke="black" points="165.773,-156 165.773,-176 196.227,-176 196.227,-156 165.773,-156"/>
<text text-anchor="middle" x="181" y="-162" font-family="Helvetica,sans-Serif" font-size="10.00">Pio</text>
</a>
</g>
</g>
<!-- Node10&#45;&gt;Node25 -->
<g id="edge23" class="edge"><title>Node10&#45;&gt;Node25</title>
<path fill="none" stroke="midnightblue" d="M105.891,-244.039C116.722,-227.619 133.769,-203.775 152,-186 156.106,-181.997 161.07,-178.183 165.671,-174.98"/>
<polygon fill="midnightblue" stroke="midnightblue" points="102.752,-242.448 100.27,-252.748 108.634,-246.244 102.752,-242.448"/>
</g>
<!-- Node27 -->
<g id="node27" class="node"><title>Node27</title>
<g id="a_node27"><a xlink:href="class_rtc.html" target="_top" xlink:title="RTC Class. ">
<polygon fill="none" stroke="black" points="165.5,-117 165.5,-137 196.5,-137 196.5,-117 165.5,-117"/>
<text text-anchor="middle" x="181" y="-123" font-family="Helvetica,sans-Serif" font-size="10.00">Rtc</text>
</a>
</g>
</g>
<!-- Node10&#45;&gt;Node27 -->
<g id="edge25" class="edge"><title>Node10&#45;&gt;Node27</title>
<path fill="none" stroke="midnightblue" d="M100.57,-243.069C109.388,-218.492 126.899,-176.375 152,-147 155.726,-142.64 160.594,-138.738 165.225,-135.563"/>
<polygon fill="midnightblue" stroke="midnightblue" points="97.1902,-242.134 97.2305,-252.729 103.806,-244.422 97.1902,-242.134"/>
</g>
<!-- Node14 -->
<g id="node14" class="node"><title>Node14</title>
<g id="a_node14"><a xlink:href="class_adc.html" target="_top" xlink:title="ADC Peripheral Class. ">
<polygon fill="none" stroke="black" points="249.384,-390 249.384,-410 282.616,-410 282.616,-390 249.384,-390"/>
<text text-anchor="middle" x="266" y="-396" font-family="Helvetica,sans-Serif" font-size="10.00">Adc</text>
</a>
</g>
</g>
<!-- Node13&#45;&gt;Node14 -->
<g id="edge11" class="edge"><title>Node13&#45;&gt;Node14</title>
<path fill="none" stroke="midnightblue" d="M207.422,-279.974C208.338,-280.95 209.204,-281.959 210,-283 237.937,-319.525 221.668,-340.98 246,-380 248.129,-383.414 250.906,-386.74 253.677,-389.67"/>
<polygon fill="midnightblue" stroke="midnightblue" points="209.509,-277.149 199.68,-273.193 204.897,-282.415 209.509,-277.149"/>
</g>
<!-- Node15 -->
<g id="node15" class="node"><title>Node15</title>
<g id="a_node15"><a xlink:href="class_dac.html" target="_top" xlink:title="DAC Class. ">
<polygon fill="none" stroke="black" points="249.108,-351 249.108,-371 282.892,-371 282.892,-351 249.108,-351"/>
<text text-anchor="middle" x="266" y="-357" font-family="Helvetica,sans-Serif" font-size="10.00">Dac</text>
</a>
</g>
</g>
<!-- Node13&#45;&gt;Node15 -->
<g id="edge12" class="edge"><title>Node13&#45;&gt;Node15</title>
<path fill="none" stroke="midnightblue" d="M206.671,-279.725C207.835,-280.789 208.953,-281.883 210,-283 230.748,-305.137 227.455,-316.988 246,-341 248.576,-344.336 251.626,-347.741 254.52,-350.775"/>
<polygon fill="midnightblue" stroke="midnightblue" points="208.562,-276.754 198.579,-273.205 204.17,-282.205 208.562,-276.754"/>
</g>
<!-- Node16 -->
<g id="node16" class="node"><title>Node16</title>
<g id="a_node16"><a xlink:href="class_i2c.html" target="_top" xlink:title="I2C Peripheral Class. ">
<polygon fill="none" stroke="black" points="251.33,-312 251.33,-332 280.67,-332 280.67,-312 251.33,-312"/>
<text text-anchor="middle" x="266" y="-318" font-family="Helvetica,sans-Serif" font-size="10.00">I2c</text>
</a>
</g>
</g>
<!-- Node13&#45;&gt;Node16 -->
<g id="edge13" class="edge"><title>Node13&#45;&gt;Node16</title>
<path fill="none" stroke="midnightblue" d="M204.289,-278.844C219.202,-289.445 238.361,-303.064 251.128,-312.139"/>
<polygon fill="midnightblue" stroke="midnightblue" points="206.258,-275.95 196.08,-273.009 202.203,-281.655 206.258,-275.95"/>
</g>
<!-- Node18 -->
<g id="node18" class="node"><title>Node18</title>
<g id="a_node18"><a xlink:href="class_pwm.html" target="_top" xlink:title="PWM Class. ">
<polygon fill="none" stroke="black" points="246.889,-273 246.889,-293 285.111,-293 285.111,-273 246.889,-273"/>
<text text-anchor="middle" x="266" y="-279" font-family="Helvetica,sans-Serif" font-size="10.00">Pwm</text>
</a>
</g>
</g>
<!-- Node13&#45;&gt;Node18 -->
<g id="edge15" class="edge"><title>Node13&#45;&gt;Node18</title>
<path fill="none" stroke="midnightblue" d="M214.02,-270.716C225.06,-273.376 237.047,-276.264 246.621,-278.571"/>
<polygon fill="midnightblue" stroke="midnightblue" points="214.784,-267.3 204.242,-268.36 213.144,-274.105 214.784,-267.3"/>
</g>
<!-- Node19 -->
<g id="node19" class="node"><title>Node19</title>
<g id="a_node19"><a xlink:href="class_usb.html" target="_top" xlink:title="USB Class. ">
<polygon fill="none" stroke="black" points="249.108,-234 249.108,-254 282.892,-254 282.892,-234 249.108,-234"/>
<text text-anchor="middle" x="266" y="-240" font-family="Helvetica,sans-Serif" font-size="10.00">Usb</text>
</a>
</g>
</g>
<!-- Node13&#45;&gt;Node19 -->
<g id="edge16" class="edge"><title>Node13&#45;&gt;Node19</title>
<path fill="none" stroke="midnightblue" d="M214.321,-255.601C226.22,-252.877 239.179,-249.911 249.014,-247.66"/>
<polygon fill="midnightblue" stroke="midnightblue" points="213.209,-252.265 204.242,-257.908 214.771,-259.089 213.209,-252.265"/>
</g>
<!-- Node17 -->
<g id="node17" class="node"><title>Node17</title>
<g id="a_node17"><a xlink:href="class_iic.html" target="_top" xlink:title="IIC Class (alternate class for I2c) ">
<polygon fill="none" stroke="black" points="342.5,-312 342.5,-332 371.5,-332 371.5,-312 342.5,-312"/>
<text text-anchor="middle" x="357" y="-318" font-family="Helvetica,sans-Serif" font-size="10.00">Iic</text>
</a>
</g>
</g>
<!-- Node16&#45;&gt;Node17 -->
<g id="edge14" class="edge"><title>Node16&#45;&gt;Node17</title>
<path fill="none" stroke="midnightblue" d="M290.934,-322C307.458,-322 328.832,-322 342.483,-322"/>
<polygon fill="midnightblue" stroke="midnightblue" points="290.906,-318.5 280.906,-322 290.906,-325.5 290.906,-318.5"/>
</g>
<!-- Node21 -->
<g id="node21" class="node"><title>Node21</title>
<g id="a_node21"><a xlink:href="class_spi.html" target="_top" xlink:title="SPI Class. ">
<polygon fill="none" stroke="black" points="250.773,-195 250.773,-215 281.227,-215 281.227,-195 250.773,-195"/>
<text text-anchor="middle" x="266" y="-201" font-family="Helvetica,sans-Serif" font-size="10.00">Spi</text>
</a>
</g>
</g>
<!-- Node20&#45;&gt;Node21 -->
<g id="edge18" class="edge"><title>Node20&#45;&gt;Node21</title>
<path fill="none" stroke="midnightblue" d="M212.137,-205C225.237,-205 239.975,-205 250.554,-205"/>
<polygon fill="midnightblue" stroke="midnightblue" points="212.092,-201.5 202.092,-205 212.092,-208.5 212.092,-201.5"/>
</g>
<!-- Node22 -->
<g id="node22" class="node"><title>Node22</title>
<g id="a_node22"><a xlink:href="class_tmr.html" target="_top" xlink:title="Tmr (physcial timer) Class. ">
<polygon fill="none" stroke="black" points="249.116,-156 249.116,-176 282.884,-176 282.884,-156 249.116,-156"/>
<text text-anchor="middle" x="266" y="-162" font-family="Helvetica,sans-Serif" font-size="10.00">Tmr</text>
</a>
</g>
</g>
<!-- Node20&#45;&gt;Node22 -->
<g id="edge19" class="edge"><title>Node20&#45;&gt;Node22</title>
<path fill="none" stroke="midnightblue" d="M211.36,-191.204C224.017,-185.257 238.325,-178.534 248.978,-173.528"/>
<polygon fill="midnightblue" stroke="midnightblue" points="209.654,-188.139 202.092,-195.559 212.631,-194.474 209.654,-188.139"/>
</g>
<!-- Node23 -->
<g id="node23" class="node"><title>Node23</title>
<g id="a_node23"><a xlink:href="class_uart.html" target="_top" xlink:title="UART Class. ">
<polygon fill="none" stroke="black" points="248.554,-117 248.554,-137 283.446,-137 283.446,-117 248.554,-117"/>
<text text-anchor="middle" x="266" y="-123" font-family="Helvetica,sans-Serif" font-size="10.00">Uart</text>
</a>
</g>
</g>
<!-- Node20&#45;&gt;Node23 -->
<g id="edge20" class="edge"><title>Node20&#45;&gt;Node23</title>
<path fill="none" stroke="midnightblue" d="M205.339,-188.858C206.944,-187.588 208.513,-186.294 210,-185 227.546,-169.724 229.988,-163.878 246,-147 249.033,-143.803 252.339,-140.321 255.331,-137.172"/>
<polygon fill="midnightblue" stroke="midnightblue" points="203.139,-186.133 197.226,-194.925 207.331,-191.739 203.139,-186.133"/>
</g>
<!-- Node23&#45;&gt;Node6 -->
<g id="edge22" class="edge"><title>Node23&#45;&gt;Node6</title>
<path fill="none" stroke="midnightblue" d="M293.239,-115.502C305.838,-109.981 320.799,-103.425 332.954,-98.0989"/>
<polygon fill="midnightblue" stroke="midnightblue" points="291.495,-112.445 283.74,-119.664 294.304,-118.856 291.495,-112.445"/>
</g>
<!-- Node24 -->
<g id="node24" class="node"><title>Node24</title>
<g id="a_node24"><a xlink:href="class_brsp.html" target="_top" xlink:title="BRSP class (bluetooth low energy serial protocol) ">
<polygon fill="none" stroke="black" points="338.719,-117 338.719,-137 375.281,-137 375.281,-117 338.719,-117"/>
<text text-anchor="middle" x="357" y="-123" font-family="Helvetica,sans-Serif" font-size="10.00">Brsp</text>
</a>
</g>
</g>
<!-- Node23&#45;&gt;Node24 -->
<g id="edge21" class="edge"><title>Node23&#45;&gt;Node24</title>
<path fill="none" stroke="midnightblue" d="M294.067,-127C308.472,-127 325.772,-127 338.421,-127"/>
<polygon fill="midnightblue" stroke="midnightblue" points="293.74,-123.5 283.74,-127 293.74,-130.5 293.74,-123.5"/>
</g>
<!-- Node26 -->
<g id="node26" class="node"><title>Node26</title>
<g id="a_node26"><a xlink:href="class_pin.html" target="_top" xlink:title="Pin class. ">
<polygon fill="none" stroke="black" points="250.773,-78 250.773,-98 281.227,-98 281.227,-78 250.773,-78"/>
<text text-anchor="middle" x="266" y="-84" font-family="Helvetica,sans-Serif" font-size="10.00">Pin</text>
</a>
</g>
</g>
<!-- Node25&#45;&gt;Node26 -->
<g id="edge24" class="edge"><title>Node25&#45;&gt;Node26</title>
<path fill="none" stroke="midnightblue" d="M204.58,-150.455C206.449,-148.994 208.279,-147.498 210,-146 227.546,-130.724 229.988,-124.878 246,-108 249.033,-104.803 252.339,-101.321 255.331,-98.1719"/>
<polygon fill="midnightblue" stroke="midnightblue" points="202.315,-147.777 196.359,-156.539 206.479,-153.404 202.315,-147.777"/>
</g>
<!-- Node28 -->
<g id="node28" class="node"><title>Node28</title>
<g id="a_node28"><a xlink:href="class_rle.html" target="_top" xlink:title="Run Length Encoding Class. ">
<polygon fill="none" stroke="black" points="77.4976,-370 77.4976,-390 108.502,-390 108.502,-370 77.4976,-370"/>
<text text-anchor="middle" x="93" y="-376" font-family="Helvetica,sans-Serif" font-size="10.00">Rle</text>
</a>
</g>
</g>
<!-- Node28&#45;&gt;Node2 -->
<g id="edge26" class="edge"><title>Node28&#45;&gt;Node2</title>
<path fill="none" stroke="midnightblue" d="M117.937,-390.855C130.45,-396.53 145.664,-403.429 157.897,-408.976"/>
<polygon fill="midnightblue" stroke="midnightblue" points="119.142,-387.558 108.589,-386.616 116.25,-393.933 119.142,-387.558"/>
</g>
<!-- Node28&#45;&gt;Node9 -->
<g id="edge27" class="edge"><title>Node28&#45;&gt;Node9</title>
<path fill="none" stroke="midnightblue" d="M118.899,-380C130.996,-380 145.432,-380 157.234,-380"/>
<polygon fill="midnightblue" stroke="midnightblue" points="118.589,-376.5 108.589,-380 118.589,-383.5 118.589,-376.5"/>
</g>
</g>
</svg>
