<?xml version="1.0" encoding="UTF-8" standalone="no"?>
<!DOCTYPE svg PUBLIC "-//W3C//DTD SVG 1.1//EN"
 "http://www.w3.org/Graphics/SVG/1.1/DTD/svg11.dtd">
<!-- Generated by graphviz version 2.36.0 (20140111.2315)
 -->
<!-- Title: /Users/tgil/git/CoActionOS/CoActionOS/include/link_protocol.h Pages: 1 -->
<svg width="1588pt" height="216pt"
 viewBox="0.00 0.00 1588.08 216.00" xmlns="http://www.w3.org/2000/svg" xmlns:xlink="http://www.w3.org/1999/xlink">
<g id="graph0" class="graph" transform="scale(1 1) rotate(0) translate(4 212)">
<title>/Users/tgil/git/CoActionOS/CoActionOS/include/link_protocol.h</title>
<!-- Node1 -->
<g id="node1" class="node"><title>Node1</title>
<polygon fill="#bfbfbf" stroke="black" points="673.641,-169 673.641,-207 796.359,-207 796.359,-169 673.641,-169"/>
<text text-anchor="start" x="681.641" y="-195" font-family="Helvetica,sans-Serif" font-size="10.00">/Users/tgil/git/CoAction</text>
<text text-anchor="start" x="681.641" y="-185" font-family="Helvetica,sans-Serif" font-size="10.00">OS/CoActionOS/include</text>
<text text-anchor="middle" x="735" y="-175" font-family="Helvetica,sans-Serif" font-size="10.00">/link_protocol.h</text>
</g>
<!-- Node2 -->
<g id="node2" class="node"><title>Node2</title>
<polygon fill="none" stroke="#bfbfbf" points="-0.118164,-113 -0.118164,-131 58.1182,-131 58.1182,-113 -0.118164,-113"/>
<text text-anchor="middle" x="29" y="-119" font-family="Helvetica,sans-Serif" font-size="10.00">sys/stat.h</text>
</g>
<!-- Node1&#45;&gt;Node2 -->
<g id="edge1" class="edge"><title>Node1&#45;&gt;Node2</title>
<path fill="none" stroke="midnightblue" d="M673.471,-184.438C556.032,-178.987 292.018,-164.026 72,-132 70.9056,-131.841 69.7972,-131.671 68.68,-131.491"/>
<polygon fill="midnightblue" stroke="midnightblue" points="68.9817,-127.99 58.5225,-129.68 67.7526,-134.881 68.9817,-127.99"/>
</g>
<!-- Node3 -->
<g id="node3" class="node"><title>Node3</title>
<polygon fill="none" stroke="#bfbfbf" points="111.384,-1 111.384,-19 154.616,-19 154.616,-1 111.384,-1"/>
<text text-anchor="middle" x="133" y="-7" font-family="Helvetica,sans-Serif" font-size="10.00">time.h</text>
</g>
<!-- Node1&#45;&gt;Node3 -->
<g id="edge2" class="edge"><title>Node1&#45;&gt;Node3</title>
<path fill="none" stroke="midnightblue" d="M673.327,-185.533C582.304,-182.09 407.295,-170.565 264,-132 203.645,-115.757 170.085,-127.726 135,-76 125.699,-62.2869 126.405,-42.9334 128.701,-28.9139"/>
<polygon fill="midnightblue" stroke="midnightblue" points="132.149,-29.5222 130.723,-19.0238 125.291,-28.1203 132.149,-29.5222"/>
</g>
<!-- Node4 -->
<g id="node4" class="node"><title>Node4</title>
<g id="a_node4"><a xlink:href="adc_8h.html" target="_top" xlink:title="Analog to Digital Converter Header File. ">
<polygon fill="none" stroke="black" points="676.318,-113 676.318,-131 735.682,-131 735.682,-113 676.318,-113"/>
<text text-anchor="middle" x="706" y="-119" font-family="Helvetica,sans-Serif" font-size="10.00">dev/adc.h</text>
</a>
</g>
</g>
<!-- Node1&#45;&gt;Node4 -->
<g id="edge3" class="edge"><title>Node1&#45;&gt;Node4</title>
<path fill="none" stroke="midnightblue" d="M726.767,-168.831C722.723,-159.907 717.874,-149.204 713.879,-140.387"/>
<polygon fill="midnightblue" stroke="midnightblue" points="716.996,-138.786 709.68,-131.122 710.62,-141.675 716.996,-138.786"/>
</g>
<!-- Node10 -->
<g id="node10" class="node"><title>Node10</title>
<g id="a_node10"><a xlink:href="bootloader_8h.html" target="_top" xlink:title="Analog to Digital Converter Header File. ">
<polygon fill="none" stroke="black" points="568.022,-113 568.022,-131 657.978,-131 657.978,-113 568.022,-113"/>
<text text-anchor="middle" x="613" y="-119" font-family="Helvetica,sans-Serif" font-size="10.00">dev/bootloader.h</text>
</a>
</g>
</g>
<!-- Node1&#45;&gt;Node10 -->
<g id="edge11" class="edge"><title>Node1&#45;&gt;Node10</title>
<path fill="none" stroke="midnightblue" d="M700.366,-168.831C680.394,-158.354 655.754,-145.428 637.738,-135.977"/>
<polygon fill="midnightblue" stroke="midnightblue" points="638.964,-132.668 628.482,-131.122 635.712,-138.867 638.964,-132.668"/>
</g>
<!-- Node11 -->
<g id="node11" class="node"><title>Node11</title>
<g id="a_node11"><a xlink:href="core_8h.html" target="_top" xlink:title="Analog to Digital Converter Header File. ">
<polygon fill="none" stroke="black" points="449.653,-113 449.653,-131 512.347,-131 512.347,-113 449.653,-113"/>
<text text-anchor="middle" x="481" y="-119" font-family="Helvetica,sans-Serif" font-size="10.00">dev/core.h</text>
</a>
</g>
</g>
<!-- Node1&#45;&gt;Node11 -->
<g id="edge16" class="edge"><title>Node1&#45;&gt;Node11</title>
<path fill="none" stroke="midnightblue" d="M673.514,-171.507C626.683,-159.707 563.485,-143.784 522.489,-133.454"/>
<polygon fill="midnightblue" stroke="midnightblue" points="523.12,-130.004 512.568,-130.954 521.409,-136.791 523.12,-130.004"/>
</g>
<!-- Node12 -->
<g id="node12" class="node"><title>Node12</title>
<g id="a_node12"><a xlink:href="pio_8h.html" target="_top" xlink:title="General Purpose Input/Output Header File. ">
<polygon fill="none" stroke="black" points="223.707,-57 223.707,-75 280.293,-75 280.293,-57 223.707,-57"/>
<text text-anchor="middle" x="252" y="-63" font-family="Helvetica,sans-Serif" font-size="10.00">dev/pio.h</text>
</a>
</g>
</g>
<!-- Node1&#45;&gt;Node12 -->
<g id="edge31" class="edge"><title>Node1&#45;&gt;Node12</title>
<path fill="none" stroke="midnightblue" d="M673.419,-184.849C598.599,-180.662 469.425,-168.327 365,-132 329.65,-119.702 292.816,-96.1681 271.167,-81.0466"/>
<polygon fill="midnightblue" stroke="midnightblue" points="273.044,-78.0863 262.867,-75.1383 268.984,-83.789 273.044,-78.0863"/>
</g>
<!-- Node13 -->
<g id="node13" class="node"><title>Node13</title>
<g id="a_node13"><a xlink:href="gpio_8h.html" target="_top" xlink:title="General Purpose Input/Output Header File. ">
<polygon fill="none" stroke="black" points="463.926,-57 463.926,-75 526.074,-75 526.074,-57 463.926,-57"/>
<text text-anchor="middle" x="495" y="-63" font-family="Helvetica,sans-Serif" font-size="10.00">dev/gpio.h</text>
</a>
</g>
</g>
<!-- Node1&#45;&gt;Node13 -->
<g id="edge26" class="edge"><title>Node1&#45;&gt;Node13</title>
<path fill="none" stroke="midnightblue" d="M673.232,-175.511C637.976,-167.099 593.976,-153.349 559,-132 537.955,-119.154 518.837,-97.8927 507.085,-83.2024"/>
<polygon fill="midnightblue" stroke="midnightblue" points="509.656,-80.8061 500.769,-75.0388 504.12,-85.0897 509.656,-80.8061"/>
</g>
<!-- Node14 -->
<g id="node14" class="node"><title>Node14</title>
<g id="a_node14"><a xlink:href="dac_8h.html" target="_top" xlink:title="DAC Header File. ">
<polygon fill="none" stroke="black" points="1269.32,-57 1269.32,-75 1328.68,-75 1328.68,-57 1269.32,-57"/>
<text text-anchor="middle" x="1299" y="-63" font-family="Helvetica,sans-Serif" font-size="10.00">dev/dac.h</text>
</a>
</g>
</g>
<!-- Node1&#45;&gt;Node14 -->
<g id="edge32" class="edge"><title>Node1&#45;&gt;Node14</title>
<path fill="none" stroke="midnightblue" d="M796.56,-176.432C856.171,-165.974 949.022,-149.096 1029,-132 1111.22,-114.425 1206.7,-90.6348 1259.23,-77.2504"/>
<polygon fill="midnightblue" stroke="midnightblue" points="1260.33,-80.5833 1269.15,-74.7171 1258.59,-73.8011 1260.33,-80.5833"/>
</g>
<!-- Node15 -->
<g id="node15" class="node"><title>Node15</title>
<g id="a_node15"><a xlink:href="eint_8h.html" target="_top" xlink:title="External Interrupt Header File. ">
<polygon fill="none" stroke="black" points="1505.32,-57 1505.32,-75 1564.68,-75 1564.68,-57 1505.32,-57"/>
<text text-anchor="middle" x="1535" y="-63" font-family="Helvetica,sans-Serif" font-size="10.00">dev/eint.h</text>
</a>
</g>
</g>
<!-- Node1&#45;&gt;Node15 -->
<g id="edge36" class="edge"><title>Node1&#45;&gt;Node15</title>
<path fill="none" stroke="midnightblue" d="M796.516,-179.437C877.123,-169.377 1022.84,-150.683 1147,-132 1274.2,-112.861 1424.24,-86.703 1494.67,-74.2119"/>
<polygon fill="midnightblue" stroke="midnightblue" points="1495.64,-77.5945 1504.87,-72.399 1494.41,-70.7024 1495.64,-77.5945"/>
</g>
<!-- Node17 -->
<g id="node17" class="node"><title>Node17</title>
<g id="a_node17"><a xlink:href="flash_8h.html" target="_top" xlink:title="Flash Memory Header File. ">
<polygon fill="none" stroke="black" points="1346.82,-57 1346.82,-75 1411.18,-75 1411.18,-57 1346.82,-57"/>
<text text-anchor="middle" x="1379" y="-63" font-family="Helvetica,sans-Serif" font-size="10.00">dev/flash.h</text>
</a>
</g>
</g>
<!-- Node1&#45;&gt;Node17 -->
<g id="edge41" class="edge"><title>Node1&#45;&gt;Node17</title>
<path fill="none" stroke="midnightblue" d="M796.661,-178.435C866.553,-168.46 983.796,-150.917 1084,-132 1174.42,-114.929 1279.48,-90.7233 1336.63,-77.1828"/>
<polygon fill="midnightblue" stroke="midnightblue" points="1337.47,-80.5802 1346.39,-74.8631 1335.85,-73.7698 1337.47,-80.5802"/>
</g>
<!-- Node18 -->
<g id="node18" class="node"><title>Node18</title>
<g id="a_node18"><a xlink:href="i2c_8h.html" target="_top" xlink:title="I2C Header File. ">
<polygon fill="none" stroke="black" points="733.988,-57 733.988,-75 790.012,-75 790.012,-57 733.988,-57"/>
<text text-anchor="middle" x="762" y="-63" font-family="Helvetica,sans-Serif" font-size="10.00">dev/i2c.h</text>
</a>
</g>
</g>
<!-- Node1&#45;&gt;Node18 -->
<g id="edge45" class="edge"><title>Node1&#45;&gt;Node18</title>
<path fill="none" stroke="midnightblue" d="M739.101,-168.775C744.199,-146.114 752.849,-107.673 757.932,-85.0803"/>
<polygon fill="midnightblue" stroke="midnightblue" points="761.388,-85.6635 760.169,-75.139 754.559,-84.1268 761.388,-85.6635"/>
</g>
<!-- Node19 -->
<g id="node19" class="node"><title>Node19</title>
<g id="a_node19"><a xlink:href="pwm_8h.html" target="_top" xlink:title="Pulse Width Modulation Header File. ">
<polygon fill="none" stroke="black" points="807.823,-57 807.823,-75 872.177,-75 872.177,-57 807.823,-57"/>
<text text-anchor="middle" x="840" y="-63" font-family="Helvetica,sans-Serif" font-size="10.00">dev/pwm.h</text>
</a>
</g>
</g>
<!-- Node1&#45;&gt;Node19 -->
<g id="edge49" class="edge"><title>Node1&#45;&gt;Node19</title>
<path fill="none" stroke="midnightblue" d="M750.947,-168.775C771.499,-145.287 806.887,-104.843 826.289,-82.6694"/>
<polygon fill="midnightblue" stroke="midnightblue" points="828.927,-84.9696 832.878,-75.139 823.659,-80.3601 828.927,-84.9696"/>
</g>
<!-- Node20 -->
<g id="node20" class="node"><title>Node20</title>
<g id="a_node20"><a xlink:href="qei_8h.html" target="_top" xlink:title="Quadrature Encoder Interface Header File. ">
<polygon fill="none" stroke="black" points="889.707,-57 889.707,-75 946.293,-75 946.293,-57 889.707,-57"/>
<text text-anchor="middle" x="918" y="-63" font-family="Helvetica,sans-Serif" font-size="10.00">dev/qei.h</text>
</a>
</g>
</g>
<!-- Node1&#45;&gt;Node20 -->
<g id="edge53" class="edge"><title>Node1&#45;&gt;Node20</title>
<path fill="none" stroke="midnightblue" d="M762.794,-168.775C799.717,-144.562 864.118,-102.333 897.151,-80.6712"/>
<polygon fill="midnightblue" stroke="midnightblue" points="899.145,-83.5495 905.588,-75.139 895.306,-77.6958 899.145,-83.5495"/>
</g>
<!-- Node21 -->
<g id="node21" class="node"><title>Node21</title>
<g id="a_node21"><a xlink:href="rtc_8h.html" target="_top" xlink:title="Real Time Clock Header File. ">
<polygon fill="none" stroke="black" points="151.825,-57 151.825,-75 206.175,-75 206.175,-57 151.825,-57"/>
<text text-anchor="middle" x="179" y="-63" font-family="Helvetica,sans-Serif" font-size="10.00">dev/rtc.h</text>
</a>
</g>
</g>
<!-- Node1&#45;&gt;Node21 -->
<g id="edge57" class="edge"><title>Node1&#45;&gt;Node21</title>
<path fill="none" stroke="midnightblue" d="M673.532,-184.679C591.29,-180.27 441.59,-167.658 319,-132 275.687,-119.402 228.805,-95.2683 201.773,-80.2161"/>
<polygon fill="midnightblue" stroke="midnightblue" points="203.184,-76.9929 192.756,-75.1196 199.739,-83.087 203.184,-76.9929"/>
</g>
<!-- Node22 -->
<g id="node22" class="node"><title>Node22</title>
<g id="a_node22"><a xlink:href="spi_8h.html" target="_top" xlink:title="Serial Peripheral Interface Header File. ">
<polygon fill="none" stroke="black" points="963.988,-57 963.988,-75 1020.01,-75 1020.01,-57 963.988,-57"/>
<text text-anchor="middle" x="992" y="-63" font-family="Helvetica,sans-Serif" font-size="10.00">dev/spi.h</text>
</a>
</g>
</g>
<!-- Node1&#45;&gt;Node22 -->
<g id="edge62" class="edge"><title>Node1&#45;&gt;Node22</title>
<path fill="none" stroke="midnightblue" d="M773.754,-168.905C826.663,-144.2 920.116,-100.565 965.622,-79.3166"/>
<polygon fill="midnightblue" stroke="midnightblue" points="967.249,-82.4195 974.83,-75.0173 964.288,-76.0768 967.249,-82.4195"/>
</g>
<!-- Node23 -->
<g id="node23" class="node"><title>Node23</title>
<g id="a_node23"><a xlink:href="tmr_8h.html" target="_top" xlink:title="Timer Header File. ">
<polygon fill="none" stroke="black" points="1038.43,-57 1038.43,-75 1095.57,-75 1095.57,-57 1038.43,-57"/>
<text text-anchor="middle" x="1067" y="-63" font-family="Helvetica,sans-Serif" font-size="10.00">dev/tmr.h</text>
</a>
</g>
</g>
<!-- Node1&#45;&gt;Node23 -->
<g id="edge66" class="edge"><title>Node1&#45;&gt;Node23</title>
<path fill="none" stroke="midnightblue" d="M786.015,-168.883C816.021,-158.201 854.688,-144.392 889,-132 940.256,-113.489 999.707,-91.7185 1035.29,-78.6573"/>
<polygon fill="midnightblue" stroke="midnightblue" points="1036.92,-81.7882 1045.1,-75.0555 1034.5,-75.2173 1036.92,-81.7882"/>
</g>
<!-- Node24 -->
<g id="node24" class="node"><title>Node24</title>
<g id="a_node24"><a xlink:href="uart_8h.html" target="_top" xlink:title="Universal Asynchronous Receiver/Transmitter Header File. ">
<polygon fill="none" stroke="black" points="1113.76,-57 1113.76,-75 1174.24,-75 1174.24,-57 1113.76,-57"/>
<text text-anchor="middle" x="1144" y="-63" font-family="Helvetica,sans-Serif" font-size="10.00">dev/uart.h</text>
</a>
</g>
</g>
<!-- Node1&#45;&gt;Node24 -->
<g id="edge70" class="edge"><title>Node1&#45;&gt;Node24</title>
<path fill="none" stroke="midnightblue" d="M796.568,-169.974C834.989,-159.265 885.441,-145.05 930,-132 992.959,-113.562 1066.03,-91.1489 1108.44,-78.039"/>
<polygon fill="midnightblue" stroke="midnightblue" points="1109.51,-81.3719 1118.03,-75.0722 1107.44,-74.6848 1109.51,-81.3719"/>
</g>
<!-- Node25 -->
<g id="node25" class="node"><title>Node25</title>
<g id="a_node25"><a xlink:href="usb_8h.html" target="_top" xlink:title="Universal Serial Bus Header File. ">
<polygon fill="none" stroke="black" points="1192.32,-57 1192.32,-75 1251.68,-75 1251.68,-57 1192.32,-57"/>
<text text-anchor="middle" x="1222" y="-63" font-family="Helvetica,sans-Serif" font-size="10.00">dev/usb.h</text>
</a>
</g>
</g>
<!-- Node1&#45;&gt;Node25 -->
<g id="edge74" class="edge"><title>Node1&#45;&gt;Node25</title>
<path fill="none" stroke="midnightblue" d="M796.561,-173.648C845.557,-162.867 915.815,-147.064 977,-132 1050.2,-113.977 1135.15,-90.9673 1183.34,-77.7162"/>
<polygon fill="midnightblue" stroke="midnightblue" points="1184.33,-81.0721 1193.05,-75.042 1182.48,-74.3235 1184.33,-81.0721"/>
</g>
<!-- Node26 -->
<g id="node26" class="node"><title>Node26</title>
<g id="a_node26"><a xlink:href="sys_8h.html" target="_top" xlink:title="dev/sys.h">
<polygon fill="none" stroke="black" points="373.879,-113 373.879,-131 432.121,-131 432.121,-113 373.879,-113"/>
<text text-anchor="middle" x="403" y="-119" font-family="Helvetica,sans-Serif" font-size="10.00">dev/sys.h</text>
</a>
</g>
</g>
<!-- Node1&#45;&gt;Node26 -->
<g id="edge78" class="edge"><title>Node1&#45;&gt;Node26</title>
<path fill="none" stroke="midnightblue" d="M673.463,-177.538C614.288,-167.545 522.387,-150.921 437.591,-133.153"/>
<polygon fill="midnightblue" stroke="midnightblue" points="438.062,-129.675 427.555,-131.037 436.618,-136.525 438.062,-129.675"/>
</g>
<!-- Node5 -->
<g id="node5" class="node"><title>Node5</title>
<polygon fill="none" stroke="#bfbfbf" points="741.879,-1 741.879,-19 790.121,-19 790.121,-1 741.879,-1"/>
<text text-anchor="middle" x="766" y="-7" font-family="Helvetica,sans-Serif" font-size="10.00">stdint.h</text>
</g>
<!-- Node4&#45;&gt;Node5 -->
<g id="edge4" class="edge"><title>Node4&#45;&gt;Node5</title>
<path fill="none" stroke="midnightblue" d="M700.83,-112.861C693.377,-99.9933 681.59,-74.5141 692,-56 700.727,-40.4791 717.215,-29.6884 732.416,-22.5728"/>
<polygon fill="midnightblue" stroke="midnightblue" points="733.831,-25.7745 741.634,-18.6079 731.065,-19.3441 733.831,-25.7745"/>
</g>
<!-- Node6 -->
<g id="node6" class="node"><title>Node6</title>
<g id="a_node6"><a xlink:href="ioctl_8h_source.html" target="_top" xlink:title="ioctl.h">
<polygon fill="none" stroke="black" points="811.938,-1 811.938,-19 854.062,-19 854.062,-1 811.938,-1"/>
<text text-anchor="middle" x="833" y="-7" font-family="Helvetica,sans-Serif" font-size="10.00">ioctl.h</text>
</a>
</g>
</g>
<!-- Node4&#45;&gt;Node6 -->
<g id="edge5" class="edge"><title>Node4&#45;&gt;Node6</title>
<path fill="none" stroke="midnightblue" d="M706.213,-112.732C706.993,-99.223 710.414,-72.2926 725,-56 735.679,-44.0716 774.159,-29.7703 802.151,-20.5416"/>
<polygon fill="midnightblue" stroke="midnightblue" points="803.48,-23.7905 811.919,-17.3849 801.327,-17.1298 803.48,-23.7905"/>
</g>
<!-- Node7 -->
<g id="node7" class="node"><title>Node7</title>
<polygon fill="none" stroke="#bfbfbf" points="1071.43,-1 1071.43,-19 1138.57,-19 1138.57,-1 1071.43,-1"/>
<text text-anchor="middle" x="1105" y="-7" font-family="Helvetica,sans-Serif" font-size="10.00">hwpl/arch.h</text>
</g>
<!-- Node4&#45;&gt;Node7 -->
<g id="edge6" class="edge"><title>Node4&#45;&gt;Node7</title>
<path fill="none" stroke="midnightblue" d="M735.723,-120.592C884.632,-118.409 1543.55,-107.015 1573,-76 1632.54,-13.2925 1276.62,-9.78489 1149.14,-10.4997"/>
<polygon fill="midnightblue" stroke="midnightblue" points="1148.92,-7.00104 1138.95,-10.5688 1148.97,-14.0009 1148.92,-7.00104"/>
</g>
<!-- Node8 -->
<g id="node8" class="node"><title>Node8</title>
<g id="a_node8"><a xlink:href="types_8h_source.html" target="_top" xlink:title="hwpl/types.h">
<polygon fill="none" stroke="black" points="374.207,-57 374.207,-75 445.793,-75 445.793,-57 374.207,-57"/>
<text text-anchor="middle" x="410" y="-63" font-family="Helvetica,sans-Serif" font-size="10.00">hwpl/types.h</text>
</a>
</g>
</g>
<!-- Node4&#45;&gt;Node8 -->
<g id="edge7" class="edge"><title>Node4&#45;&gt;Node8</title>
<path fill="none" stroke="midnightblue" d="M675.895,-114.049C672.561,-113.332 669.212,-112.635 666,-112 575.772,-94.1648 550.22,-93.3651 455.819,-76.1023"/>
<polygon fill="midnightblue" stroke="midnightblue" points="456.312,-72.6344 445.844,-74.2641 455.044,-79.5185 456.312,-72.6344"/>
</g>
<!-- Node8&#45;&gt;Node5 -->
<g id="edge8" class="edge"><title>Node8&#45;&gt;Node5</title>
<path fill="none" stroke="midnightblue" d="M445.829,-57.6539C448.927,-57.0734 452.016,-56.5138 455,-56 555.215,-38.741 674.372,-22.7582 731.757,-15.343"/>
<polygon fill="midnightblue" stroke="midnightblue" points="732.263,-18.8069 741.735,-14.0598 731.37,-11.8641 732.263,-18.8069"/>
</g>
<!-- Node8&#45;&gt;Node6 -->
<g id="edge10" class="edge"><title>Node8&#45;&gt;Node6</title>
<path fill="none" stroke="midnightblue" d="M445.808,-57.5257C448.911,-56.9731 452.007,-56.4549 455,-56 606.978,-32.9011 647.802,-47.7512 799,-20 799.92,-19.8312 800.851,-19.6504 801.789,-19.4596"/>
<polygon fill="midnightblue" stroke="midnightblue" points="802.937,-22.7867 811.894,-17.1273 801.363,-15.9661 802.937,-22.7867"/>
</g>
<!-- Node9 -->
<g id="node9" class="node"><title>Node9</title>
<polygon fill="none" stroke="#bfbfbf" points="381.707,-1 381.707,-19 438.293,-19 438.293,-1 381.707,-1"/>
<text text-anchor="middle" x="410" y="-7" font-family="Helvetica,sans-Serif" font-size="10.00">stdbool.h</text>
</g>
<!-- Node8&#45;&gt;Node9 -->
<g id="edge9" class="edge"><title>Node8&#45;&gt;Node9</title>
<path fill="none" stroke="midnightblue" d="M410,-56.5625C410,-49.308 410,-38.5884 410,-29.3691"/>
<polygon fill="midnightblue" stroke="midnightblue" points="413.5,-29.2014 410,-19.2014 406.5,-29.2015 413.5,-29.2014"/>
</g>
<!-- Node10&#45;&gt;Node5 -->
<g id="edge12" class="edge"><title>Node10&#45;&gt;Node5</title>
<path fill="none" stroke="midnightblue" d="M620.757,-112.717C633.26,-99.6517 659.002,-73.9069 684,-56 701.546,-43.4308 722.977,-31.783 739.529,-23.488"/>
<polygon fill="midnightblue" stroke="midnightblue" points="741.212,-26.5607 748.644,-19.0098 738.125,-20.2779 741.212,-26.5607"/>
</g>
<!-- Node10&#45;&gt;Node6 -->
<g id="edge13" class="edge"><title>Node10&#45;&gt;Node6</title>
<path fill="none" stroke="midnightblue" d="M623.253,-112.912C640.415,-99.6618 676.393,-73.0948 710,-56 740.104,-40.6873 776.682,-27.9947 802.087,-20.0368"/>
<polygon fill="midnightblue" stroke="midnightblue" points="803.373,-23.3033 811.906,-17.0226 801.319,-16.6115 803.373,-23.3033"/>
</g>
<!-- Node10&#45;&gt;Node7 -->
<g id="edge14" class="edge"><title>Node10&#45;&gt;Node7</title>
<path fill="none" stroke="midnightblue" d="M658.026,-113.083C661.058,-112.677 664.07,-112.31 667,-112 710.47,-107.399 1422.81,-107.609 1453,-76 1459.14,-69.5724 1458.87,-62.6763 1453,-56 1433.2,-33.4709 1237.89,-18.972 1148.84,-13.4821"/>
<polygon fill="midnightblue" stroke="midnightblue" points="1148.98,-9.98386 1138.78,-12.8724 1148.55,-16.971 1148.98,-9.98386"/>
</g>
<!-- Node10&#45;&gt;Node8 -->
<g id="edge15" class="edge"><title>Node10&#45;&gt;Node8</title>
<path fill="none" stroke="midnightblue" d="M582.609,-112.916C547.377,-103.544 489.174,-88.061 450.219,-77.6986"/>
<polygon fill="midnightblue" stroke="midnightblue" points="450.831,-74.2397 440.267,-75.0513 449.031,-81.0044 450.831,-74.2397"/>
</g>
<!-- Node11&#45;&gt;Node5 -->
<g id="edge17" class="edge"><title>Node11&#45;&gt;Node5</title>
<path fill="none" stroke="midnightblue" d="M449.564,-113.094C418.712,-104.623 374.885,-90.4372 365,-76 359.978,-68.6655 359.075,-62.6266 365,-56 389.282,-28.8409 638.861,-16.1073 731.573,-12.2878"/>
<polygon fill="midnightblue" stroke="midnightblue" points="731.973,-15.7747 741.824,-11.8757 731.692,-8.78032 731.973,-15.7747"/>
</g>
<!-- Node11&#45;&gt;Node6 -->
<g id="edge18" class="edge"><title>Node11&#45;&gt;Node6</title>
<path fill="none" stroke="midnightblue" d="M503.633,-112.909C539.411,-100.216 611.313,-75.1022 673,-56 717.646,-42.1748 769.846,-27.8301 802.169,-19.1577"/>
<polygon fill="midnightblue" stroke="midnightblue" points="803.173,-22.5123 811.931,-16.5491 801.366,-15.7496 803.173,-22.5123"/>
</g>
<!-- Node11&#45;&gt;Node7 -->
<g id="edge19" class="edge"><title>Node11&#45;&gt;Node7</title>
<path fill="none" stroke="midnightblue" d="M512.449,-116.841C526.647,-115.1 543.644,-113.205 559,-112 606.728,-108.254 1386.86,-110.553 1420,-76 1426.15,-69.5847 1425.82,-62.7151 1420,-56 1385.4,-16.1098 1226.82,-10.702 1148.72,-10.5213"/>
<polygon fill="midnightblue" stroke="midnightblue" points="1148.7,-7.02122 1138.71,-10.5259 1148.71,-14.0212 1148.7,-7.02122"/>
</g>
<!-- Node11&#45;&gt;Node8 -->
<g id="edge20" class="edge"><title>Node11&#45;&gt;Node8</title>
<path fill="none" stroke="midnightblue" d="M470.217,-112.799C459.27,-104.473 442.098,-91.4125 428.888,-81.3656"/>
<polygon fill="midnightblue" stroke="midnightblue" points="430.963,-78.5465 420.885,-75.2786 426.726,-84.1182 430.963,-78.5465"/>
</g>
<!-- Node11&#45;&gt;Node12 -->
<g id="edge21" class="edge"><title>Node11&#45;&gt;Node12</title>
<path fill="none" stroke="midnightblue" d="M449.639,-113.605C408.159,-103.824 335.096,-86.5948 290.371,-76.0482"/>
<polygon fill="midnightblue" stroke="midnightblue" points="291,-72.6005 280.463,-73.7119 289.393,-79.4137 291,-72.6005"/>
</g>
<!-- Node12&#45;&gt;Node5 -->
<g id="edge23" class="edge"><title>Node12&#45;&gt;Node5</title>
<path fill="none" stroke="midnightblue" d="M280.384,-58.4511C284.922,-57.539 289.578,-56.6822 294,-56 456.779,-30.8865 653.445,-17.54 731.585,-12.9081"/>
<polygon fill="midnightblue" stroke="midnightblue" points="732.029,-16.3883 741.808,-12.3121 731.622,-9.40016 732.029,-16.3883"/>
</g>
<!-- Node12&#45;&gt;Node6 -->
<g id="edge24" class="edge"><title>Node12&#45;&gt;Node6</title>
<path fill="none" stroke="midnightblue" d="M280.484,-61.5497C295.749,-59.7628 314.886,-57.6218 332,-56 539.243,-36.3607 593.754,-54.7784 799,-20 799.922,-19.8438 800.855,-19.6741 801.795,-19.493"/>
<polygon fill="midnightblue" stroke="midnightblue" points="802.922,-22.8272 811.91,-17.2184 801.386,-15.9977 802.922,-22.8272"/>
</g>
<!-- Node12&#45;&gt;Node7 -->
<g id="edge25" class="edge"><title>Node12&#45;&gt;Node7</title>
<path fill="none" stroke="midnightblue" d="M280.317,-62.5968C303.166,-60.6933 336.141,-58.0265 365,-56 629.265,-37.4427 946.941,-19.6368 1061.32,-13.3698"/>
<polygon fill="midnightblue" stroke="midnightblue" points="1061.63,-16.8578 1071.43,-12.8169 1061.25,-9.86827 1061.63,-16.8578"/>
</g>
<!-- Node12&#45;&gt;Node9 -->
<g id="edge22" class="edge"><title>Node12&#45;&gt;Node9</title>
<path fill="none" stroke="midnightblue" d="M275.654,-56.9157C302.493,-47.743 346.457,-32.7171 376.741,-22.3669"/>
<polygon fill="midnightblue" stroke="midnightblue" points="378.112,-25.5973 386.442,-19.0513 375.848,-18.9735 378.112,-25.5973"/>
</g>
<!-- Node13&#45;&gt;Node5 -->
<g id="edge28" class="edge"><title>Node13&#45;&gt;Node5</title>
<path fill="none" stroke="midnightblue" d="M526.471,-58.7023C531.01,-57.7949 535.625,-56.8731 540,-56 607.92,-42.446 687.332,-26.6445 731.632,-17.8338"/>
<polygon fill="midnightblue" stroke="midnightblue" points="732.46,-21.2377 741.585,-15.8543 731.094,-14.3722 732.46,-21.2377"/>
</g>
<!-- Node13&#45;&gt;Node6 -->
<g id="edge29" class="edge"><title>Node13&#45;&gt;Node6</title>
<path fill="none" stroke="midnightblue" d="M526.427,-58.4676C530.973,-57.5946 535.601,-56.745 540,-56 654.586,-36.5954 685.063,-42.9113 799,-20 799.917,-19.8157 800.845,-19.6212 801.781,-19.4184"/>
<polygon fill="midnightblue" stroke="midnightblue" points="802.955,-22.7367 811.872,-17.0148 801.333,-15.9272 802.955,-22.7367"/>
</g>
<!-- Node13&#45;&gt;Node7 -->
<g id="edge30" class="edge"><title>Node13&#45;&gt;Node7</title>
<path fill="none" stroke="midnightblue" d="M526.089,-62.2479C626.839,-53.329 944.565,-25.2024 1061.37,-14.8627"/>
<polygon fill="midnightblue" stroke="midnightblue" points="1061.73,-18.3444 1071.38,-13.9761 1061.11,-11.3716 1061.73,-18.3444"/>
</g>
<!-- Node13&#45;&gt;Node9 -->
<g id="edge27" class="edge"><title>Node13&#45;&gt;Node9</title>
<path fill="none" stroke="midnightblue" d="M482.09,-56.7986C468.658,-48.2648 447.396,-34.7573 431.437,-24.6187"/>
<polygon fill="midnightblue" stroke="midnightblue" points="433.07,-21.5098 422.753,-19.1017 429.317,-27.4183 433.07,-21.5098"/>
</g>
<!-- Node14&#45;&gt;Node5 -->
<g id="edge33" class="edge"><title>Node14&#45;&gt;Node5</title>
<path fill="none" stroke="midnightblue" d="M1269.28,-57.6631C1266.16,-57.0362 1263.02,-56.4651 1260,-56 1058.63,-25.0085 1004.18,-52.1801 803,-20 802.086,-19.8538 801.161,-19.6967 800.23,-19.5303"/>
<polygon fill="midnightblue" stroke="midnightblue" points="800.668,-16.0473 790.169,-17.466 799.261,-22.9045 800.668,-16.0473"/>
</g>
<!-- Node14&#45;&gt;Node6 -->
<g id="edge34" class="edge"><title>Node14&#45;&gt;Node6</title>
<path fill="none" stroke="midnightblue" d="M1269.26,-57.745C1266.15,-57.1021 1263.02,-56.5049 1260,-56 1113.15,-31.4115 935.502,-17.7976 864.521,-13.0019"/>
<polygon fill="midnightblue" stroke="midnightblue" points="864.661,-9.50356 854.451,-12.3327 864.197,-16.4882 864.661,-9.50356"/>
</g>
<!-- Node14&#45;&gt;Node7 -->
<g id="edge35" class="edge"><title>Node14&#45;&gt;Node7</title>
<path fill="none" stroke="midnightblue" d="M1269.96,-56.9157C1236.43,-47.5835 1181.14,-32.1927 1143.91,-21.8312"/>
<polygon fill="midnightblue" stroke="midnightblue" points="1144.5,-18.3611 1133.93,-19.0513 1142.62,-25.1047 1144.5,-18.3611"/>
</g>
<!-- Node15&#45;&gt;Node5 -->
<g id="edge37" class="edge"><title>Node15&#45;&gt;Node5</title>
<path fill="none" stroke="midnightblue" d="M1505.23,-62.5072C1482.02,-60.6032 1448.97,-57.9786 1420,-56 1145.95,-37.2832 1074.67,-60.6266 803,-20 802.085,-19.8631 801.159,-19.7143 800.226,-19.5552"/>
<polygon fill="midnightblue" stroke="midnightblue" points="800.65,-16.0707 790.157,-17.5378 799.275,-22.9343 800.65,-16.0707"/>
</g>
<!-- Node15&#45;&gt;Node6 -->
<g id="edge38" class="edge"><title>Node15&#45;&gt;Node6</title>
<path fill="none" stroke="midnightblue" d="M1505.22,-62.6561C1482,-60.8321 1448.95,-58.2426 1420,-56 1207.72,-39.5569 952.24,-20.0778 864.421,-13.3911"/>
<polygon fill="midnightblue" stroke="midnightblue" points="864.56,-9.89163 854.323,-12.6223 864.029,-16.8714 864.56,-9.89163"/>
</g>
<!-- Node15&#45;&gt;Node7 -->
<g id="edge39" class="edge"><title>Node15&#45;&gt;Node7</title>
<path fill="none" stroke="midnightblue" d="M1505.24,-58.5532C1500.49,-57.628 1495.62,-56.7403 1491,-56 1367.5,-36.2082 1220.45,-21.4831 1148.72,-14.8654"/>
<polygon fill="midnightblue" stroke="midnightblue" points="1148.97,-11.3739 1138.69,-13.9481 1148.33,-18.3448 1148.97,-11.3739"/>
</g>
<!-- Node16 -->
<g id="node16" class="node"><title>Node16</title>
<polygon fill="none" stroke="#bfbfbf" points="1504.49,-1 1504.49,-19 1565.51,-19 1565.51,-1 1504.49,-1"/>
<text text-anchor="middle" x="1535" y="-7" font-family="Helvetica,sans-Serif" font-size="10.00">hwpl/pio.h</text>
</g>
<!-- Node15&#45;&gt;Node16 -->
<g id="edge40" class="edge"><title>Node15&#45;&gt;Node16</title>
<path fill="none" stroke="midnightblue" d="M1535,-56.5625C1535,-49.308 1535,-38.5884 1535,-29.3691"/>
<polygon fill="midnightblue" stroke="midnightblue" points="1538.5,-29.2014 1535,-19.2014 1531.5,-29.2015 1538.5,-29.2014"/>
</g>
<!-- Node17&#45;&gt;Node5 -->
<g id="edge42" class="edge"><title>Node17&#45;&gt;Node5</title>
<path fill="none" stroke="midnightblue" d="M1346.52,-57.5583C1343.32,-56.9688 1340.1,-56.4346 1337,-56 1101.43,-22.9942 1038.09,-56.2436 803,-20 802.085,-19.859 801.16,-19.7065 800.228,-19.5441"/>
<polygon fill="midnightblue" stroke="midnightblue" points="800.658,-16.0603 790.162,-17.5059 799.269,-22.921 800.658,-16.0603"/>
</g>
<!-- Node17&#45;&gt;Node6 -->
<g id="edge43" class="edge"><title>Node17&#45;&gt;Node6</title>
<path fill="none" stroke="midnightblue" d="M1346.51,-57.6289C1343.31,-57.0251 1340.1,-56.4683 1337,-56 1159.47,-29.1557 944.155,-16.4917 864.55,-12.4764"/>
<polygon fill="midnightblue" stroke="midnightblue" points="864.397,-8.96467 854.237,-11.9667 864.052,-15.9561 864.397,-8.96467"/>
</g>
<!-- Node17&#45;&gt;Node7 -->
<g id="edge44" class="edge"><title>Node17&#45;&gt;Node7</title>
<path fill="none" stroke="midnightblue" d="M1346.45,-57.9603C1343.26,-57.2894 1340.07,-56.6263 1337,-56 1271.6,-42.6509 1195.62,-28.0939 1148.93,-19.256"/>
<polygon fill="midnightblue" stroke="midnightblue" points="1149.33,-15.77 1138.85,-17.3519 1148.03,-22.6482 1149.33,-15.77"/>
</g>
<!-- Node18&#45;&gt;Node5 -->
<g id="edge46" class="edge"><title>Node18&#45;&gt;Node5</title>
<path fill="none" stroke="midnightblue" d="M762.625,-56.5625C763.162,-49.308 763.956,-38.5884 764.639,-29.3691"/>
<polygon fill="midnightblue" stroke="midnightblue" points="768.144,-29.4327 765.392,-19.2014 761.163,-28.9155 768.144,-29.4327"/>
</g>
<!-- Node18&#45;&gt;Node6 -->
<g id="edge47" class="edge"><title>Node18&#45;&gt;Node6</title>
<path fill="none" stroke="midnightblue" d="M772.783,-56.7986C783.73,-48.4727 800.902,-35.4125 814.112,-25.3656"/>
<polygon fill="midnightblue" stroke="midnightblue" points="816.274,-28.1182 822.115,-19.2786 812.037,-22.5465 816.274,-28.1182"/>
</g>
<!-- Node18&#45;&gt;Node7 -->
<g id="edge48" class="edge"><title>Node18&#45;&gt;Node7</title>
<path fill="none" stroke="midnightblue" d="M790.223,-57.85C793.178,-57.1867 796.145,-56.556 799,-56 891.73,-37.9439 1001.53,-23.4518 1061.14,-16.1531"/>
<polygon fill="midnightblue" stroke="midnightblue" points="1061.82,-19.597 1071.32,-14.917 1060.97,-12.648 1061.82,-19.597"/>
</g>
<!-- Node19&#45;&gt;Node5 -->
<g id="edge50" class="edge"><title>Node19&#45;&gt;Node5</title>
<path fill="none" stroke="midnightblue" d="M828.761,-56.7986C817.352,-48.4727 799.454,-35.4125 785.686,-25.3656"/>
<polygon fill="midnightblue" stroke="midnightblue" points="787.486,-22.3461 777.345,-19.2786 783.36,-28.0006 787.486,-22.3461"/>
</g>
<!-- Node19&#45;&gt;Node6 -->
<g id="edge51" class="edge"><title>Node19&#45;&gt;Node6</title>
<path fill="none" stroke="midnightblue" d="M838.906,-56.5625C837.966,-49.308 836.576,-38.5884 835.381,-29.3691"/>
<polygon fill="midnightblue" stroke="midnightblue" points="838.82,-28.6685 834.063,-19.2014 831.878,-29.5684 838.82,-28.6685"/>
</g>
<!-- Node19&#45;&gt;Node7 -->
<g id="edge52" class="edge"><title>Node19&#45;&gt;Node7</title>
<path fill="none" stroke="midnightblue" d="M872.217,-57.8711C875.185,-57.2315 878.147,-56.5996 881,-56 943.482,-42.8673 1015.95,-28.459 1061.14,-19.5711"/>
<polygon fill="midnightblue" stroke="midnightblue" points="1062.05,-22.9595 1071.19,-17.5978 1060.7,-16.0908 1062.05,-22.9595"/>
</g>
<!-- Node20&#45;&gt;Node5 -->
<g id="edge54" class="edge"><title>Node20&#45;&gt;Node5</title>
<path fill="none" stroke="midnightblue" d="M895.244,-56.9157C869.611,-47.8092 827.739,-32.9337 798.629,-22.5917"/>
<polygon fill="midnightblue" stroke="midnightblue" points="799.506,-19.1893 788.911,-19.1396 797.163,-25.7854 799.506,-19.1893"/>
</g>
<!-- Node20&#45;&gt;Node6 -->
<g id="edge55" class="edge"><title>Node20&#45;&gt;Node6</title>
<path fill="none" stroke="midnightblue" d="M905.09,-56.7986C891.658,-48.2648 870.396,-34.7573 854.437,-24.6187"/>
<polygon fill="midnightblue" stroke="midnightblue" points="856.07,-21.5098 845.753,-19.1017 852.317,-27.4183 856.07,-21.5098"/>
</g>
<!-- Node20&#45;&gt;Node7 -->
<g id="edge56" class="edge"><title>Node20&#45;&gt;Node7</title>
<path fill="none" stroke="midnightblue" d="M945.996,-56.9157C978.313,-47.5835 1031.61,-32.1927 1067.49,-21.8312"/>
<polygon fill="midnightblue" stroke="midnightblue" points="1068.48,-25.1883 1077.12,-19.0513 1066.54,-18.4631 1068.48,-25.1883"/>
</g>
<!-- Node21&#45;&gt;Node3 -->
<g id="edge58" class="edge"><title>Node21&#45;&gt;Node3</title>
<path fill="none" stroke="midnightblue" d="M171.812,-56.5625C165.089,-48.6703 154.873,-36.6768 146.609,-26.9758"/>
<polygon fill="midnightblue" stroke="midnightblue" points="149.135,-24.5442 139.986,-19.2014 143.807,-29.0835 149.135,-24.5442"/>
</g>
<!-- Node21&#45;&gt;Node5 -->
<g id="edge59" class="edge"><title>Node21&#45;&gt;Node5</title>
<path fill="none" stroke="midnightblue" d="M206.421,-57.654C209.304,-57.0288 212.203,-56.4607 215,-56 408.64,-24.1077 644.463,-14.4536 731.552,-11.8592"/>
<polygon fill="midnightblue" stroke="midnightblue" points="731.763,-15.3547 741.659,-11.5703 731.563,-8.35757 731.763,-15.3547"/>
</g>
<!-- Node21&#45;&gt;Node6 -->
<g id="edge60" class="edge"><title>Node21&#45;&gt;Node6</title>
<path fill="none" stroke="midnightblue" d="M206.412,-57.5966C209.297,-56.9826 212.199,-56.4328 215,-56 472,-16.2977 542.28,-61.4737 799,-20 799.923,-19.8509 800.857,-19.6874 801.798,-19.5118"/>
<polygon fill="midnightblue" stroke="midnightblue" points="802.912,-22.8499 811.919,-17.2697 801.398,-16.0156 802.912,-22.8499"/>
</g>
<!-- Node21&#45;&gt;Node7 -->
<g id="edge61" class="edge"><title>Node21&#45;&gt;Node7</title>
<path fill="none" stroke="midnightblue" d="M206.407,-57.5647C209.293,-56.957 212.196,-56.4173 215,-56 298.989,-43.4997 893.474,-19.3442 1061.1,-12.7175"/>
<polygon fill="midnightblue" stroke="midnightblue" points="1061.43,-16.2072 1071.29,-12.3156 1061.15,-9.21268 1061.43,-16.2072"/>
</g>
<!-- Node22&#45;&gt;Node5 -->
<g id="edge63" class="edge"><title>Node22&#45;&gt;Node5</title>
<path fill="none" stroke="midnightblue" d="M963.723,-58.1031C960.778,-57.3904 957.828,-56.6789 955,-56 887.493,-39.7956 870.507,-36.2044 803,-20 802.1,-19.784 801.188,-19.5647 800.267,-19.3431"/>
<polygon fill="midnightblue" stroke="midnightblue" points="800.819,-15.8755 790.276,-16.9273 799.173,-22.6795 800.819,-15.8755"/>
</g>
<!-- Node22&#45;&gt;Node6 -->
<g id="edge64" class="edge"><title>Node22&#45;&gt;Node6</title>
<path fill="none" stroke="midnightblue" d="M968.196,-56.9157C940.487,-47.5051 894.638,-31.9337 864.126,-21.5712"/>
<polygon fill="midnightblue" stroke="midnightblue" points="865.009,-18.1748 854.415,-18.273 862.758,-24.803 865.009,-18.1748"/>
</g>
<!-- Node22&#45;&gt;Node7 -->
<g id="edge65" class="edge"><title>Node22&#45;&gt;Node7</title>
<path fill="none" stroke="midnightblue" d="M1009.16,-56.7986C1027.69,-47.9458 1057.41,-33.7404 1078.85,-23.4963"/>
<polygon fill="midnightblue" stroke="midnightblue" points="1080.53,-26.5714 1088.05,-19.1017 1077.51,-20.2555 1080.53,-26.5714"/>
</g>
<!-- Node23&#45;&gt;Node5 -->
<g id="edge67" class="edge"><title>Node23&#45;&gt;Node5</title>
<path fill="none" stroke="midnightblue" d="M1038.42,-57.9889C1035.25,-57.2833 1032.06,-56.6051 1029,-56 929.222,-36.2658 902.718,-40.036 803,-20 802.093,-19.8177 801.174,-19.6284 800.248,-19.4334"/>
<polygon fill="midnightblue" stroke="midnightblue" points="800.742,-15.9575 790.219,-17.1873 799.212,-22.7883 800.742,-15.9575"/>
</g>
<!-- Node23&#45;&gt;Node6 -->
<g id="edge68" class="edge"><title>Node23&#45;&gt;Node6</title>
<path fill="none" stroke="midnightblue" d="M1038.37,-58.1972C1035.21,-57.4527 1032.04,-56.7083 1029,-56 970.883,-42.4462 902.995,-26.9303 864.293,-18.115"/>
<polygon fill="midnightblue" stroke="midnightblue" points="864.711,-14.6206 854.184,-15.8135 863.157,-21.446 864.711,-14.6206"/>
</g>
<!-- Node23&#45;&gt;Node7 -->
<g id="edge69" class="edge"><title>Node23&#45;&gt;Node7</title>
<path fill="none" stroke="midnightblue" d="M1072.94,-56.5625C1078.38,-48.8297 1086.59,-37.1597 1093.34,-27.5665"/>
<polygon fill="midnightblue" stroke="midnightblue" points="1096.34,-29.3938 1099.23,-19.2014 1090.61,-25.3653 1096.34,-29.3938"/>
</g>
<!-- Node24&#45;&gt;Node5 -->
<g id="edge71" class="edge"><title>Node24&#45;&gt;Node5</title>
<path fill="none" stroke="midnightblue" d="M1113.49,-57.7975C1110.29,-57.1444 1107.09,-56.5304 1104,-56 971.215,-33.1826 935.583,-43.9648 803,-20 802.089,-19.8354 801.167,-19.6618 800.238,-19.4809"/>
<polygon fill="midnightblue" stroke="midnightblue" points="800.705,-16.0013 790.193,-17.3238 799.235,-22.8453 800.705,-16.0013"/>
</g>
<!-- Node24&#45;&gt;Node6 -->
<g id="edge72" class="edge"><title>Node24&#45;&gt;Node6</title>
<path fill="none" stroke="midnightblue" d="M1113.46,-57.9417C1110.27,-57.2605 1107.07,-56.6005 1104,-56 1017.47,-39.0962 914.607,-23.1413 864.112,-15.5785"/>
<polygon fill="midnightblue" stroke="midnightblue" points="864.563,-12.1072 854.157,-14.0948 863.531,-19.0307 864.563,-12.1072"/>
</g>
<!-- Node24&#45;&gt;Node7 -->
<g id="edge73" class="edge"><title>Node24&#45;&gt;Node7</title>
<path fill="none" stroke="midnightblue" d="M1137.91,-56.5625C1132.32,-48.8297 1123.89,-37.1597 1116.96,-27.5665"/>
<polygon fill="midnightblue" stroke="midnightblue" points="1119.62,-25.259 1110.92,-19.2014 1113.94,-29.3575 1119.62,-25.259"/>
</g>
<!-- Node25&#45;&gt;Node5 -->
<g id="edge75" class="edge"><title>Node25&#45;&gt;Node5</title>
<path fill="none" stroke="midnightblue" d="M1192.27,-57.7123C1189.15,-57.0758 1186.02,-56.489 1183,-56 1015.54,-28.8675 970.298,-48.121 803,-20 802.087,-19.8466 801.164,-19.683 800.233,-19.5109"/>
<polygon fill="midnightblue" stroke="midnightblue" points="800.682,-16.0292 790.178,-17.4102 799.251,-22.8813 800.682,-16.0292"/>
</g>
<!-- Node25&#45;&gt;Node6 -->
<g id="edge76" class="edge"><title>Node25&#45;&gt;Node6</title>
<path fill="none" stroke="midnightblue" d="M1192.25,-57.8159C1189.14,-57.1592 1186.01,-56.5394 1183,-56 1066.38,-35.0998 926.222,-20.0967 864.64,-14.0081"/>
<polygon fill="midnightblue" stroke="midnightblue" points="864.712,-10.4985 854.419,-13.0084 864.031,-17.4653 864.712,-10.4985"/>
</g>
<!-- Node25&#45;&gt;Node7 -->
<g id="edge77" class="edge"><title>Node25&#45;&gt;Node7</title>
<path fill="none" stroke="midnightblue" d="M1204.48,-56.9157C1185.27,-48.0478 1154.2,-33.7092 1131.9,-23.4138"/>
<polygon fill="midnightblue" stroke="midnightblue" points="1133.18,-20.1524 1122.64,-19.1396 1130.25,-26.5081 1133.18,-20.1524"/>
</g>
<!-- Node26&#45;&gt;Node1 -->
<g id="edge80" class="edge"><title>Node26&#45;&gt;Node1</title>
<path fill="none" stroke="midnightblue" d="M432.129,-128.037C438.136,-129.38 444.296,-130.792 450,-132 522.603,-147.38 605.772,-162.729 663.516,-173.289"/>
<polygon fill="midnightblue" stroke="midnightblue" points="663.168,-176.783 673.635,-175.138 664.427,-169.897 663.168,-176.783"/>
</g>
<!-- Node26&#45;&gt;Node5 -->
<g id="edge79" class="edge"><title>Node26&#45;&gt;Node5</title>
<path fill="none" stroke="midnightblue" d="M373.507,-120.46C311.768,-118.641 172.206,-110.696 143,-76 137.276,-69.1997 136.945,-62.5079 143,-56 163.207,-34.2811 604.159,-16.8096 731.721,-12.1959"/>
<polygon fill="midnightblue" stroke="midnightblue" points="731.852,-15.6936 741.72,-11.8375 731.601,-8.69807 731.852,-15.6936"/>
</g>
<!-- Node26&#45;&gt;Node6 -->
<g id="edge81" class="edge"><title>Node26&#45;&gt;Node6</title>
<path fill="none" stroke="midnightblue" d="M392.073,-112.88C375.76,-99.8143 348.622,-73.7924 365,-56 397.771,-20.3985 751.316,-28.2229 799,-20 799.921,-19.8411 800.854,-19.669 801.794,-19.4859"/>
<polygon fill="midnightblue" stroke="midnightblue" points="802.925,-22.8185 811.907,-17.199 801.381,-15.9909 802.925,-22.8185"/>
</g>
<!-- Node26&#45;&gt;Node8 -->
<g id="edge82" class="edge"><title>Node26&#45;&gt;Node8</title>
<path fill="none" stroke="midnightblue" d="M404.094,-112.562C405.034,-105.308 406.424,-94.5884 407.619,-85.3691"/>
<polygon fill="midnightblue" stroke="midnightblue" points="411.122,-85.5684 408.937,-75.2014 404.18,-84.6685 411.122,-85.5684"/>
</g>
</g>
</svg>
