<?xml version="1.0" encoding="UTF-8" standalone="no"?>
<!DOCTYPE svg PUBLIC "-//W3C//DTD SVG 1.1//EN"
 "http://www.w3.org/Graphics/SVG/1.1/DTD/svg11.dtd">
<!-- Generated by graphviz version 2.34.0 (20130907.0228)
 -->
<!-- Title: /Users/tgil/git/CoActionOS/CoActionOS/include/hwpl/arch/lpc17xx.h Pages: 1 -->
<svg width="999pt" height="194pt"
 viewBox="0.00 0.00 999.00 194.00" xmlns="http://www.w3.org/2000/svg" xmlns:xlink="http://www.w3.org/1999/xlink">
<g id="graph0" class="graph" transform="scale(1 1) rotate(0) translate(4 190)">
<title>/Users/tgil/git/CoActionOS/CoActionOS/include/hwpl/arch/lpc17xx.h</title>
<!-- Node1 -->
<g id="node1" class="node"><title>Node1</title>
<polygon fill="#bfbfbf" stroke="black" points="416.641,-141 416.641,-185 539.359,-185 539.359,-141 416.641,-141"/>
<text text-anchor="start" x="424.641" y="-171" font-family="Helvetica,sans-Serif" font-size="10.00">/Users/tgil/git/CoAction</text>
<text text-anchor="start" x="424.641" y="-159" font-family="Helvetica,sans-Serif" font-size="10.00">OS/CoActionOS/include</text>
<text text-anchor="middle" x="478" y="-147" font-family="Helvetica,sans-Serif" font-size="10.00">/hwpl/arch/lpc17xx.h</text>
</g>
<!-- Node2 -->
<g id="node2" class="node"><title>Node2</title>
<polygon fill="none" stroke="#bfbfbf" points="-0.396484,-71 -0.396484,-91 48.3965,-91 48.3965,-71 -0.396484,-71"/>
<text text-anchor="middle" x="24" y="-77" font-family="Helvetica,sans-Serif" font-size="10.00">string.h</text>
</g>
<!-- Node1&#45;&gt;Node2 -->
<g id="edge1" class="edge"><title>Node1&#45;&gt;Node2</title>
<path fill="none" stroke="midnightblue" d="M416.361,-160.763C333.608,-157.466 183.002,-145.671 62,-104 56.4141,-102.076 50.7276,-99.3011 45.5135,-96.3662"/>
<polygon fill="midnightblue" stroke="midnightblue" points="47.1275,-93.2518 36.7617,-91.0605 43.4985,-99.2377 47.1275,-93.2518"/>
</g>
<!-- Node3 -->
<g id="node3" class="node"><title>Node3</title>
<g id="a_node3"><a xlink:href="types_8h_source.html" target="_top" xlink:title="hwpl/types.h">
<polygon fill="none" stroke="black" points="104.207,-71 104.207,-91 175.793,-91 175.793,-71 104.207,-71"/>
<text text-anchor="middle" x="140" y="-77" font-family="Helvetica,sans-Serif" font-size="10.00">hwpl/types.h</text>
</a>
</g>
</g>
<!-- Node1&#45;&gt;Node3 -->
<g id="edge2" class="edge"><title>Node1&#45;&gt;Node3</title>
<path fill="none" stroke="midnightblue" d="M416.503,-154.77C356.139,-146.54 262.032,-130.659 184,-104 177.529,-101.789 170.803,-98.8097 164.613,-95.7581"/>
<polygon fill="midnightblue" stroke="midnightblue" points="165.93,-92.4989 155.441,-91.004 162.709,-98.7136 165.93,-92.4989"/>
</g>
<!-- Node4 -->
<g id="node4" class="node"><title>Node4</title>
<polygon fill="none" stroke="#bfbfbf" points="51.8794,-1 51.8794,-21 100.121,-21 100.121,-1 51.8794,-1"/>
<text text-anchor="middle" x="76" y="-7" font-family="Helvetica,sans-Serif" font-size="10.00">stdint.h</text>
</g>
<!-- Node1&#45;&gt;Node4 -->
<g id="edge7" class="edge"><title>Node1&#45;&gt;Node4</title>
<path fill="none" stroke="midnightblue" d="M416.378,-160.967C320.056,-158.029 140.145,-146.798 95,-104 75.3356,-85.358 73.1926,-52.1639 74.111,-31.1577"/>
<polygon fill="midnightblue" stroke="midnightblue" points="77.6032,-31.3904 74.8189,-21.168 70.6207,-30.8955 77.6032,-31.3904"/>
</g>
<!-- Node6 -->
<g id="node6" class="node"><title>Node6</title>
<polygon fill="none" stroke="#bfbfbf" points="193.315,-71 193.315,-91 282.685,-91 282.685,-71 193.315,-71"/>
<text text-anchor="middle" x="238" y="-77" font-family="Helvetica,sans-Serif" font-size="10.00">LPC17xx_cm3.h</text>
</g>
<!-- Node1&#45;&gt;Node6 -->
<g id="edge5" class="edge"><title>Node1&#45;&gt;Node6</title>
<path fill="none" stroke="midnightblue" d="M416.413,-144.222C379.978,-133.352 333.07,-118.74 292,-104 284.296,-101.235 276.071,-98.0218 268.423,-94.9194"/>
<polygon fill="midnightblue" stroke="midnightblue" points="269.706,-91.6628 259.127,-91.0911 267.041,-98.1355 269.706,-91.6628"/>
</g>
<!-- Node7 -->
<g id="node7" class="node"><title>Node7</title>
<polygon fill="none" stroke="#bfbfbf" points="300.641,-59 300.641,-103 423.359,-103 423.359,-59 300.641,-59"/>
<text text-anchor="start" x="308.641" y="-89" font-family="Helvetica,sans-Serif" font-size="10.00">/Users/tgil/git/CoAction</text>
<text text-anchor="start" x="308.641" y="-77" font-family="Helvetica,sans-Serif" font-size="10.00">OS/CoActionOS/include</text>
<text text-anchor="middle" x="362" y="-65" font-family="Helvetica,sans-Serif" font-size="10.00">/hwpl/arch/core_cm3.h</text>
</g>
<!-- Node1&#45;&gt;Node7 -->
<g id="edge6" class="edge"><title>Node1&#45;&gt;Node7</title>
<path fill="none" stroke="midnightblue" d="M447.522,-140.981C433.382,-131.229 416.4,-119.517 401.308,-109.109"/>
<polygon fill="midnightblue" stroke="midnightblue" points="402.896,-105.953 392.677,-103.156 398.922,-111.715 402.896,-105.953"/>
</g>
<!-- Node8 -->
<g id="node8" class="node"><title>Node8</title>
<polygon fill="none" stroke="#bfbfbf" points="441.65,-71 441.65,-91 514.35,-91 514.35,-71 441.65,-71"/>
<text text-anchor="middle" x="478" y="-77" font-family="Helvetica,sans-Serif" font-size="10.00">delay_cm3.h</text>
</g>
<!-- Node1&#45;&gt;Node8 -->
<g id="edge8" class="edge"><title>Node1&#45;&gt;Node8</title>
<path fill="none" stroke="midnightblue" d="M478,-140.981C478,-128.772 478,-113.493 478,-101.544"/>
<polygon fill="midnightblue" stroke="midnightblue" points="481.5,-101.319 478,-91.3189 474.5,-101.319 481.5,-101.319"/>
</g>
<!-- Node9 -->
<g id="node9" class="node"><title>Node9</title>
<polygon fill="none" stroke="#bfbfbf" points="532.37,-71 532.37,-91 615.63,-91 615.63,-71 532.37,-71"/>
<text text-anchor="middle" x="574" y="-77" font-family="Helvetica,sans-Serif" font-size="10.00">lpc17xx_dma.h</text>
</g>
<!-- Node1&#45;&gt;Node9 -->
<g id="edge9" class="edge"><title>Node1&#45;&gt;Node9</title>
<path fill="none" stroke="midnightblue" d="M503.223,-140.981C519.476,-127.436 540.266,-110.112 555.1,-97.75"/>
<polygon fill="midnightblue" stroke="midnightblue" points="557.625,-100.202 563.066,-91.1113 553.144,-94.8244 557.625,-100.202"/>
</g>
<!-- Node10 -->
<g id="node10" class="node"><title>Node10</title>
<polygon fill="none" stroke="#bfbfbf" points="633.431,-71 633.431,-91 700.569,-91 700.569,-71 633.431,-71"/>
<text text-anchor="middle" x="667" y="-77" font-family="Helvetica,sans-Serif" font-size="10.00">hwpl/dma.h</text>
</g>
<!-- Node1&#45;&gt;Node10 -->
<g id="edge10" class="edge"><title>Node1&#45;&gt;Node10</title>
<path fill="none" stroke="midnightblue" d="M534.681,-140.921C561.941,-130.42 594.935,-117.173 624,-104 629.578,-101.472 635.473,-98.5959 641.05,-95.7761"/>
<polygon fill="midnightblue" stroke="midnightblue" points="642.736,-98.8449 650.024,-91.155 639.531,-92.6216 642.736,-98.8449"/>
</g>
<!-- Node11 -->
<g id="node11" class="node"><title>Node11</title>
<polygon fill="none" stroke="#bfbfbf" points="718.37,-71 718.37,-91 801.63,-91 801.63,-71 718.37,-71"/>
<text text-anchor="middle" x="760" y="-77" font-family="Helvetica,sans-Serif" font-size="10.00">lpc17xx_core.h</text>
</g>
<!-- Node1&#45;&gt;Node11 -->
<g id="edge11" class="edge"><title>Node1&#45;&gt;Node11</title>
<path fill="none" stroke="midnightblue" d="M539.574,-149.379C586.565,-139.068 652.605,-123.104 709,-104 716.409,-101.49 724.244,-98.3616 731.491,-95.2587"/>
<polygon fill="midnightblue" stroke="midnightblue" points="733.175,-98.3412 740.913,-91.1038 730.351,-91.9363 733.175,-98.3412"/>
</g>
<!-- Node12 -->
<g id="node12" class="node"><title>Node12</title>
<polygon fill="none" stroke="#bfbfbf" points="819.431,-71 819.431,-91 906.569,-91 906.569,-71 819.431,-71"/>
<text text-anchor="middle" x="863" y="-77" font-family="Helvetica,sans-Serif" font-size="10.00">common_cm3.h</text>
</g>
<!-- Node1&#45;&gt;Node12 -->
<g id="edge12" class="edge"><title>Node1&#45;&gt;Node12</title>
<path fill="none" stroke="midnightblue" d="M539.501,-155.376C606.851,-147.175 717.582,-130.896 810,-104 818.071,-101.651 826.579,-98.4607 834.36,-95.2387"/>
<polygon fill="midnightblue" stroke="midnightblue" points="835.937,-98.3704 843.738,-91.2015 833.169,-91.9408 835.937,-98.3704"/>
</g>
<!-- Node13 -->
<g id="node13" class="node"><title>Node13</title>
<polygon fill="none" stroke="#bfbfbf" points="924.431,-71 924.431,-91 991.569,-91 991.569,-71 924.431,-71"/>
<text text-anchor="middle" x="958" y="-77" font-family="Helvetica,sans-Serif" font-size="10.00">hwpl/arch.h</text>
</g>
<!-- Node1&#45;&gt;Node13 -->
<g id="edge13" class="edge"><title>Node1&#45;&gt;Node13</title>
<path fill="none" stroke="midnightblue" d="M539.49,-160.397C625.382,-156.697 785.319,-144.461 915,-104 921.514,-101.968 928.232,-99.0044 934.365,-95.9074"/>
<polygon fill="midnightblue" stroke="midnightblue" points="936.259,-98.8631 943.41,-91.0453 932.945,-92.6975 936.259,-98.8631"/>
</g>
<!-- Node3&#45;&gt;Node4 -->
<g id="edge3" class="edge"><title>Node3&#45;&gt;Node4</title>
<path fill="none" stroke="midnightblue" d="M131.369,-70.8292C121.197,-60.0216 104.098,-41.8542 91.588,-28.5622"/>
<polygon fill="midnightblue" stroke="midnightblue" points="93.897,-25.9087 84.4946,-21.0255 88.7995,-30.7063 93.897,-25.9087"/>
</g>
<!-- Node5 -->
<g id="node5" class="node"><title>Node5</title>
<polygon fill="none" stroke="#bfbfbf" points="117.707,-1 117.707,-21 174.293,-21 174.293,-1 117.707,-1"/>
<text text-anchor="middle" x="146" y="-7" font-family="Helvetica,sans-Serif" font-size="10.00">stdbool.h</text>
</g>
<!-- Node3&#45;&gt;Node5 -->
<g id="edge4" class="edge"><title>Node3&#45;&gt;Node5</title>
<path fill="none" stroke="midnightblue" d="M140.809,-70.8292C141.7,-60.7353 143.157,-44.2216 144.301,-31.2558"/>
<polygon fill="midnightblue" stroke="midnightblue" points="147.811,-31.2944 145.204,-21.0255 140.838,-30.6791 147.811,-31.2944"/>
</g>
</g>
</svg>
