<?xml version="1.0" encoding="UTF-8" standalone="no"?>
<!DOCTYPE svg PUBLIC "-//W3C//DTD SVG 1.1//EN"
 "http://www.w3.org/Graphics/SVG/1.1/DTD/svg11.dtd">
<!-- Generated by graphviz version 2.36.0 (20140111.2315)
 -->
<!-- Title: /Users/tgil/git/CoActionOS/CoActionOS/include/dev/mlcd.h Pages: 1 -->
<svg width="220pt" height="104pt"
 viewBox="0.00 0.00 220.00 104.00" xmlns="http://www.w3.org/2000/svg" xmlns:xlink="http://www.w3.org/1999/xlink">
<g id="graph0" class="graph" transform="scale(1 1) rotate(0) translate(4 100)">
<title>/Users/tgil/git/CoActionOS/CoActionOS/include/dev/mlcd.h</title>
<!-- Node1 -->
<g id="node1" class="node"><title>Node1</title>
<polygon fill="#bfbfbf" stroke="black" points="35.6406,-57 35.6406,-95 158.359,-95 158.359,-57 35.6406,-57"/>
<text text-anchor="start" x="43.6406" y="-83" font-family="Helvetica,sans-Serif" font-size="10.00">/Users/tgil/git/CoAction</text>
<text text-anchor="start" x="43.6406" y="-73" font-family="Helvetica,sans-Serif" font-size="10.00">OS/CoActionOS/include</text>
<text text-anchor="middle" x="97" y="-63" font-family="Helvetica,sans-Serif" font-size="10.00">/dev/mlcd.h</text>
</g>
<!-- Node2 -->
<g id="node2" class="node"><title>Node2</title>
<polygon fill="none" stroke="#bfbfbf" points="-0.120605,-1 -0.120605,-19 48.1206,-19 48.1206,-1 -0.120605,-1"/>
<text text-anchor="middle" x="24" y="-7" font-family="Helvetica,sans-Serif" font-size="10.00">stdint.h</text>
</g>
<!-- Node1&#45;&gt;Node2 -->
<g id="edge1" class="edge"><title>Node1&#45;&gt;Node2</title>
<path fill="none" stroke="midnightblue" d="M76.2764,-56.8314C65.1008,-47.0335 51.4817,-35.0936 40.9464,-25.8571"/>
<polygon fill="midnightblue" stroke="midnightblue" points="43.0908,-23.0825 33.264,-19.1219 38.4761,-28.346 43.0908,-23.0825"/>
</g>
<!-- Node3 -->
<g id="node3" class="node"><title>Node3</title>
<g id="a_node3"><a xlink:href="ioctl_8h_source.html" target="_top" xlink:title="dev/ioctl.h">
<polygon fill="none" stroke="black" points="66.4878,-1 66.4878,-19 127.512,-19 127.512,-1 66.4878,-1"/>
<text text-anchor="middle" x="97" y="-7" font-family="Helvetica,sans-Serif" font-size="10.00">dev/ioctl.h</text>
</a>
</g>
</g>
<!-- Node1&#45;&gt;Node3 -->
<g id="edge2" class="edge"><title>Node1&#45;&gt;Node3</title>
<path fill="none" stroke="midnightblue" d="M97,-56.8314C97,-48.1976 97,-37.9005 97,-29.2557"/>
<polygon fill="midnightblue" stroke="midnightblue" points="100.5,-29.1218 97,-19.1219 93.5001,-29.1219 100.5,-29.1218"/>
</g>
<!-- Node4 -->
<g id="node4" class="node"><title>Node4</title>
<polygon fill="none" stroke="#bfbfbf" points="145.431,-1 145.431,-19 212.569,-19 212.569,-1 145.431,-1"/>
<text text-anchor="middle" x="179" y="-7" font-family="Helvetica,sans-Serif" font-size="10.00">hwpl/arch.h</text>
</g>
<!-- Node1&#45;&gt;Node4 -->
<g id="edge3" class="edge"><title>Node1&#45;&gt;Node4</title>
<path fill="none" stroke="midnightblue" d="M120.279,-56.8314C133.081,-46.8395 148.737,-34.6199 160.663,-25.3116"/>
<polygon fill="midnightblue" stroke="midnightblue" points="162.864,-28.0337 168.594,-19.1219 158.557,-22.5155 162.864,-28.0337"/>
</g>
</g>
</svg>
