<?xml version="1.0" encoding="UTF-8" standalone="no"?>
<!DOCTYPE svg PUBLIC "-//W3C//DTD SVG 1.1//EN"
 "http://www.w3.org/Graphics/SVG/1.1/DTD/svg11.dtd">
<!-- Generated by graphviz version 2.36.0 (20140111.2315)
 -->
<!-- Title: /Users/tgil/git/CoActionOS/CoActionOS/src/sys/mqueue/mqueue.c Pages: 1 -->
<svg width="1835pt" height="292pt"
 viewBox="0.00 0.00 1835.00 292.00" xmlns="http://www.w3.org/2000/svg" xmlns:xlink="http://www.w3.org/1999/xlink">
<g id="graph0" class="graph" transform="scale(1 1) rotate(0) translate(4 288)">
<title>/Users/tgil/git/CoActionOS/CoActionOS/src/sys/mqueue/mqueue.c</title>
<!-- Node1 -->
<g id="node1" class="node"><title>Node1</title>
<polygon fill="#bfbfbf" stroke="black" points="710.931,-245 710.931,-283 833.069,-283 833.069,-245 710.931,-245"/>
<text text-anchor="start" x="718.931" y="-271" font-family="Helvetica,sans-Serif" font-size="10.00">/Users/tgil/git/CoAction</text>
<text text-anchor="start" x="718.931" y="-261" font-family="Helvetica,sans-Serif" font-size="10.00">OS/CoActionOS/src/sys</text>
<text text-anchor="middle" x="772" y="-251" font-family="Helvetica,sans-Serif" font-size="10.00">/mqueue/mqueue.c</text>
</g>
<!-- Node2 -->
<g id="node2" class="node"><title>Node2</title>
<polygon fill="none" stroke="#bfbfbf" points="554.99,-113 554.99,-131 621.01,-131 621.01,-113 554.99,-113"/>
<text text-anchor="middle" x="588" y="-119" font-family="Helvetica,sans-Serif" font-size="10.00">sys/types.h</text>
</g>
<!-- Node1&#45;&gt;Node2 -->
<g id="edge1" class="edge"><title>Node1&#45;&gt;Node2</title>
<path fill="none" stroke="midnightblue" d="M722.253,-244.935C700.912,-235.789 676.467,-223.344 657,-208 643.808,-197.602 615.94,-161.043 599.951,-139.405"/>
<polygon fill="midnightblue" stroke="midnightblue" points="602.641,-137.155 593.903,-131.164 596.998,-141.297 602.641,-137.155"/>
</g>
<!-- Node3 -->
<g id="node3" class="node"><title>Node3</title>
<polygon fill="none" stroke="#bfbfbf" points="-0.233887,-113 -0.233887,-131 50.2339,-131 50.2339,-113 -0.233887,-113"/>
<text text-anchor="middle" x="25" y="-119" font-family="Helvetica,sans-Serif" font-size="10.00">signal.h</text>
</g>
<!-- Node1&#45;&gt;Node3 -->
<g id="edge2" class="edge"><title>Node1&#45;&gt;Node3</title>
<path fill="none" stroke="midnightblue" d="M710.642,-261.792C548.117,-258.098 115.319,-244.872 63,-208 40.9174,-192.437 31.4719,-160.967 27.5752,-140.992"/>
<polygon fill="midnightblue" stroke="midnightblue" points="31.007,-140.293 25.9021,-131.009 24.1032,-141.45 31.007,-140.293"/>
</g>
<!-- Node4 -->
<g id="node4" class="node"><title>Node4</title>
<polygon fill="none" stroke="#bfbfbf" points="83.1577,-179 83.1577,-197 130.842,-197 130.842,-179 83.1577,-179"/>
<text text-anchor="middle" x="107" y="-185" font-family="Helvetica,sans-Serif" font-size="10.00">errno.h</text>
</g>
<!-- Node1&#45;&gt;Node4 -->
<g id="edge3" class="edge"><title>Node1&#45;&gt;Node4</title>
<path fill="none" stroke="midnightblue" d="M710.874,-261.044C573.753,-256.114 245.395,-241.135 140,-208 135.672,-206.639 131.293,-204.643 127.202,-202.449"/>
<polygon fill="midnightblue" stroke="midnightblue" points="128.72,-199.28 118.335,-197.179 125.143,-205.297 128.72,-199.28"/>
</g>
<!-- Node5 -->
<g id="node5" class="node"><title>Node5</title>
<polygon fill="none" stroke="#bfbfbf" points="85.6602,-113 85.6602,-131 128.34,-131 128.34,-113 85.6602,-113"/>
<text text-anchor="middle" x="107" y="-119" font-family="Helvetica,sans-Serif" font-size="10.00">fcntl.h</text>
</g>
<!-- Node1&#45;&gt;Node5 -->
<g id="edge4" class="edge"><title>Node1&#45;&gt;Node5</title>
<path fill="none" stroke="midnightblue" d="M710.649,-262.81C548.274,-261.671 116.775,-254.278 74,-208 55.737,-188.241 76.2721,-157.25 92.1366,-138.652"/>
<polygon fill="midnightblue" stroke="midnightblue" points="94.8706,-140.846 98.9409,-131.064 89.659,-136.173 94.8706,-140.846"/>
</g>
<!-- Node6 -->
<g id="node6" class="node"><title>Node6</title>
<polygon fill="none" stroke="#bfbfbf" points="227.488,-179 227.488,-197 278.512,-197 278.512,-179 227.488,-179"/>
<text text-anchor="middle" x="253" y="-185" font-family="Helvetica,sans-Serif" font-size="10.00">unistd.h</text>
</g>
<!-- Node1&#45;&gt;Node6 -->
<g id="edge5" class="edge"><title>Node1&#45;&gt;Node6</title>
<path fill="none" stroke="midnightblue" d="M710.656,-263.71C617.014,-263.105 433.818,-255.233 287,-208 282.46,-206.539 277.841,-204.441 273.531,-202.168"/>
<polygon fill="midnightblue" stroke="midnightblue" points="275.149,-199.061 264.739,-197.091 271.649,-205.123 275.149,-199.061"/>
</g>
<!-- Node7 -->
<g id="node7" class="node"><title>Node7</title>
<polygon fill="none" stroke="#bfbfbf" points="296.054,-179 296.054,-197 375.946,-197 375.946,-179 296.054,-179"/>
<text text-anchor="middle" x="336" y="-185" font-family="Helvetica,sans-Serif" font-size="10.00">sys/syslimits.h</text>
</g>
<!-- Node1&#45;&gt;Node7 -->
<g id="edge6" class="edge"><title>Node1&#45;&gt;Node7</title>
<path fill="none" stroke="midnightblue" d="M710.761,-257.899C634.723,-250.719 501.436,-235.348 390,-208 381.924,-206.018 373.359,-203.302 365.486,-200.543"/>
<polygon fill="midnightblue" stroke="midnightblue" points="366.569,-197.213 355.975,-197.078 364.173,-203.79 366.569,-197.213"/>
</g>
<!-- Node8 -->
<g id="node8" class="node"><title>Node8</title>
<polygon fill="none" stroke="#bfbfbf" points="697.879,-1 697.879,-19 746.121,-19 746.121,-1 697.879,-1"/>
<text text-anchor="middle" x="722" y="-7" font-family="Helvetica,sans-Serif" font-size="10.00">stdint.h</text>
</g>
<!-- Node1&#45;&gt;Node8 -->
<g id="edge7" class="edge"><title>Node1&#45;&gt;Node8</title>
<path fill="none" stroke="midnightblue" d="M762.387,-244.821C745.711,-212.139 712.047,-140.814 700,-76 698.376,-67.2608 697.996,-64.6601 700,-56 702.258,-46.2422 706.937,-36.1562 711.401,-28.0124"/>
<polygon fill="midnightblue" stroke="midnightblue" points="714.532,-29.5926 716.564,-19.1944 708.491,-26.0558 714.532,-29.5926"/>
</g>
<!-- Node9 -->
<g id="node9" class="node"><title>Node9</title>
<polygon fill="none" stroke="#bfbfbf" points="432.269,-179 432.269,-197 477.731,-197 477.731,-179 432.269,-179"/>
<text text-anchor="middle" x="455" y="-185" font-family="Helvetica,sans-Serif" font-size="10.00">stdio.h</text>
</g>
<!-- Node1&#45;&gt;Node9 -->
<g id="edge8" class="edge"><title>Node1&#45;&gt;Node9</title>
<path fill="none" stroke="midnightblue" d="M710.84,-257.362C651.967,-250.518 561.189,-236.199 487,-208 483.037,-206.494 479.002,-204.511 475.194,-202.395"/>
<polygon fill="midnightblue" stroke="midnightblue" points="476.731,-199.234 466.362,-197.057 473.11,-205.225 476.731,-199.234"/>
</g>
<!-- Node10 -->
<g id="node10" class="node"><title>Node10</title>
<polygon fill="none" stroke="#bfbfbf" points="496.158,-179 496.158,-197 543.842,-197 543.842,-179 496.158,-179"/>
<text text-anchor="middle" x="520" y="-185" font-family="Helvetica,sans-Serif" font-size="10.00">stdlib.h</text>
</g>
<!-- Node1&#45;&gt;Node10 -->
<g id="edge9" class="edge"><title>Node1&#45;&gt;Node10</title>
<path fill="none" stroke="midnightblue" d="M710.622,-252.313C665.91,-243.403 604.426,-228.793 553,-208 548.932,-206.355 544.755,-204.286 540.799,-202.123"/>
<polygon fill="midnightblue" stroke="midnightblue" points="542.526,-199.079 532.125,-197.062 538.998,-205.125 542.526,-199.079"/>
</g>
<!-- Node11 -->
<g id="node11" class="node"><title>Node11</title>
<polygon fill="none" stroke="#bfbfbf" points="561.604,-179 561.604,-197 610.396,-197 610.396,-179 561.604,-179"/>
<text text-anchor="middle" x="586" y="-185" font-family="Helvetica,sans-Serif" font-size="10.00">string.h</text>
</g>
<!-- Node1&#45;&gt;Node11 -->
<g id="edge10" class="edge"><title>Node1&#45;&gt;Node11</title>
<path fill="none" stroke="midnightblue" d="M719.054,-244.888C690.587,-234.76 655.051,-221.486 624,-208 619.619,-206.097 615.024,-203.942 610.602,-201.783"/>
<polygon fill="midnightblue" stroke="midnightblue" points="611.86,-198.498 601.351,-197.148 608.724,-204.757 611.86,-198.498"/>
</g>
<!-- Node12 -->
<g id="node12" class="node"><title>Node12</title>
<polygon fill="none" stroke="#bfbfbf" points="267.443,-113 267.443,-131 314.557,-131 314.557,-113 267.443,-113"/>
<text text-anchor="middle" x="291" y="-119" font-family="Helvetica,sans-Serif" font-size="10.00">limits.h</text>
</g>
<!-- Node1&#45;&gt;Node12 -->
<g id="edge11" class="edge"><title>Node1&#45;&gt;Node12</title>
<path fill="none" stroke="midnightblue" d="M710.592,-258.007C624.233,-250.198 471.969,-233.319 423,-208 400.944,-196.596 404.145,-182.515 384,-168 364.916,-154.249 340.979,-142.778 322.169,-134.859"/>
<polygon fill="midnightblue" stroke="midnightblue" points="323.434,-131.595 312.853,-131.048 320.784,-138.074 323.434,-131.595"/>
</g>
<!-- Node13 -->
<g id="node13" class="node"><title>Node13</title>
<polygon fill="none" stroke="#bfbfbf" points="665.934,-179 665.934,-197 718.066,-197 718.066,-179 665.934,-179"/>
<text text-anchor="middle" x="692" y="-185" font-family="Helvetica,sans-Serif" font-size="10.00">stdarg.h</text>
</g>
<!-- Node1&#45;&gt;Node13 -->
<g id="edge12" class="edge"><title>Node1&#45;&gt;Node13</title>
<path fill="none" stroke="midnightblue" d="M752.225,-244.708C738.712,-232.209 721.022,-215.845 708.315,-204.091"/>
<polygon fill="midnightblue" stroke="midnightblue" points="710.496,-201.341 700.778,-197.12 705.743,-206.48 710.496,-201.341"/>
</g>
<!-- Node14 -->
<g id="node14" class="node"><title>Node14</title>
<g id="a_node14"><a xlink:href="sysfs_8h_source.html" target="_top" xlink:title="sysfs.h">
<polygon fill="none" stroke="black" points="774.441,-179 774.441,-197 821.559,-197 821.559,-179 774.441,-179"/>
<text text-anchor="middle" x="798" y="-185" font-family="Helvetica,sans-Serif" font-size="10.00">sysfs.h</text>
</a>
</g>
</g>
<!-- Node1&#45;&gt;Node14 -->
<g id="edge13" class="edge"><title>Node1&#45;&gt;Node14</title>
<path fill="none" stroke="midnightblue" d="M778.427,-244.708C782.484,-233.161 787.7,-218.316 791.727,-206.854"/>
<polygon fill="midnightblue" stroke="midnightblue" points="795.134,-207.715 795.147,-197.12 788.53,-205.394 795.134,-207.715"/>
</g>
<!-- Node15 -->
<g id="node15" class="node"><title>Node15</title>
<polygon fill="none" stroke="#bfbfbf" points="974.707,-1 974.707,-19 1031.29,-19 1031.29,-1 974.707,-1"/>
<text text-anchor="middle" x="1003" y="-7" font-family="Helvetica,sans-Serif" font-size="10.00">stdbool.h</text>
</g>
<!-- Node1&#45;&gt;Node15 -->
<g id="edge41" class="edge"><title>Node1&#45;&gt;Node15</title>
<path fill="none" stroke="midnightblue" d="M791.515,-244.854C802.853,-234.222 817.353,-220.472 830,-208 847.678,-190.565 847.736,-180.819 869,-168 917.417,-138.813 949.317,-170.191 991,-132 1016.93,-108.245 1016.84,-90.9545 1013,-56 1012.02,-47.0304 1009.96,-37.2327 1007.96,-29.0763"/>
<polygon fill="midnightblue" stroke="midnightblue" points="1011.3,-27.9972 1005.39,-19.2031 1004.53,-29.7626 1011.3,-27.9972"/>
</g>
<!-- Node24 -->
<g id="node24" class="node"><title>Node24</title>
<g id="a_node24"><a xlink:href="mqueue_8h_source.html" target="_top" xlink:title="mqueue.h">
<polygon fill="none" stroke="black" points="148.761,-179 148.761,-197 209.239,-197 209.239,-179 148.761,-179"/>
<text text-anchor="middle" x="179" y="-185" font-family="Helvetica,sans-Serif" font-size="10.00">mqueue.h</text>
</a>
</g>
</g>
<!-- Node1&#45;&gt;Node24 -->
<g id="edge33" class="edge"><title>Node1&#45;&gt;Node24</title>
<path fill="none" stroke="midnightblue" d="M710.855,-263.907C607.346,-263.912 391.894,-257.279 218,-208 212.613,-206.473 207.066,-204.231 201.905,-201.817"/>
<polygon fill="midnightblue" stroke="midnightblue" points="203.106,-198.502 192.604,-197.108 199.945,-204.748 203.106,-198.502"/>
</g>
<!-- Node25 -->
<g id="node25" class="node"><title>Node25</title>
<polygon fill="none" stroke="#bfbfbf" points="878.247,-179 878.247,-197 993.753,-197 993.753,-179 878.247,-179"/>
<text text-anchor="middle" x="936" y="-185" font-family="Helvetica,sans-Serif" font-size="10.00">../sched/sched_flags.h</text>
</g>
<!-- Node1&#45;&gt;Node25 -->
<g id="edge38" class="edge"><title>Node1&#45;&gt;Node25</title>
<path fill="none" stroke="midnightblue" d="M812.119,-244.898C842.053,-231.391 882.167,-213.291 908.529,-201.396"/>
<polygon fill="midnightblue" stroke="midnightblue" points="910.233,-204.466 917.909,-197.163 907.354,-198.086 910.233,-204.466"/>
</g>
<!-- Node26 -->
<g id="node26" class="node"><title>Node26</title>
<polygon fill="none" stroke="#bfbfbf" points="1011.87,-179 1011.87,-197 1070.13,-197 1070.13,-179 1011.87,-179"/>
<text text-anchor="middle" x="1041" y="-185" font-family="Helvetica,sans-Serif" font-size="10.00">pthread.h</text>
</g>
<!-- Node1&#45;&gt;Node26 -->
<g id="edge39" class="edge"><title>Node1&#45;&gt;Node26</title>
<path fill="none" stroke="midnightblue" d="M833.102,-252.176C880.07,-242.954 946.15,-228.01 1002,-208 1007.01,-206.204 1012.23,-203.952 1017.16,-201.631"/>
<polygon fill="midnightblue" stroke="midnightblue" points="1018.73,-204.757 1026.15,-197.188 1015.63,-198.482 1018.73,-204.757"/>
</g>
<!-- Node27 -->
<g id="node27" class="node"><title>Node27</title>
<polygon fill="none" stroke="#bfbfbf" points="1088.5,-179 1088.5,-197 1149.5,-197 1149.5,-179 1088.5,-179"/>
<text text-anchor="middle" x="1119" y="-185" font-family="Helvetica,sans-Serif" font-size="10.00">sys/time.h</text>
</g>
<!-- Node1&#45;&gt;Node27 -->
<g id="edge40" class="edge"><title>Node1&#45;&gt;Node27</title>
<path fill="none" stroke="midnightblue" d="M833.159,-256.898C895.964,-249.514 995.988,-234.624 1079,-208 1084.49,-206.239 1090.2,-203.879 1095.52,-201.422"/>
<polygon fill="midnightblue" stroke="midnightblue" points="1097.12,-204.539 1104.57,-197.004 1094.04,-198.249 1097.12,-204.539"/>
</g>
<!-- Node28 -->
<g id="node28" class="node"><title>Node28</title>
<polygon fill="none" stroke="#bfbfbf" points="1167.71,-179 1167.71,-197 1234.29,-197 1234.29,-179 1167.71,-179"/>
<text text-anchor="middle" x="1201" y="-185" font-family="Helvetica,sans-Serif" font-size="10.00">hwpl/fault.h</text>
</g>
<!-- Node1&#45;&gt;Node28 -->
<g id="edge42" class="edge"><title>Node1&#45;&gt;Node28</title>
<path fill="none" stroke="midnightblue" d="M833.25,-259.47C910.298,-253.855 1046.07,-240.041 1158,-208 1164.03,-206.273 1170.32,-203.87 1176.16,-201.353"/>
<polygon fill="midnightblue" stroke="midnightblue" points="1177.82,-204.446 1185.46,-197.107 1174.91,-198.078 1177.82,-204.446"/>
</g>
<!-- Node29 -->
<g id="node29" class="node"><title>Node29</title>
<polygon fill="none" stroke="#bfbfbf" points="1251.99,-179 1251.99,-197 1318.01,-197 1318.01,-179 1251.99,-179"/>
<text text-anchor="middle" x="1285" y="-185" font-family="Helvetica,sans-Serif" font-size="10.00">hwpl/task.h</text>
</g>
<!-- Node1&#45;&gt;Node29 -->
<g id="edge43" class="edge"><title>Node1&#45;&gt;Node29</title>
<path fill="none" stroke="midnightblue" d="M833.372,-261.833C924.387,-258.767 1099.81,-247.713 1243,-208 1249.03,-206.328 1255.29,-203.907 1261.08,-201.348"/>
<polygon fill="midnightblue" stroke="midnightblue" points="1262.7,-204.452 1270.26,-197.023 1259.72,-198.12 1262.7,-204.452"/>
</g>
<!-- Node30 -->
<g id="node30" class="node"><title>Node30</title>
<polygon fill="none" stroke="#bfbfbf" points="1336.25,-179 1336.25,-197 1411.75,-197 1411.75,-179 1336.25,-179"/>
<text text-anchor="middle" x="1374" y="-185" font-family="Helvetica,sans-Serif" font-size="10.00">hwpl/debug.h</text>
</g>
<!-- Node1&#45;&gt;Node30 -->
<g id="edge44" class="edge"><title>Node1&#45;&gt;Node30</title>
<path fill="none" stroke="midnightblue" d="M833.321,-262.596C936.662,-260.663 1151.42,-251.241 1327,-208 1334,-206.275 1341.34,-203.707 1348.08,-201.012"/>
<polygon fill="midnightblue" stroke="midnightblue" points="1349.58,-204.18 1357.42,-197.057 1346.85,-197.735 1349.58,-204.18"/>
</g>
<!-- Node31 -->
<g id="node31" class="node"><title>Node31</title>
<polygon fill="none" stroke="#bfbfbf" points="1429.43,-179 1429.43,-197 1496.57,-197 1496.57,-179 1429.43,-179"/>
<text text-anchor="middle" x="1463" y="-185" font-family="Helvetica,sans-Serif" font-size="10.00">hwpl/core.h</text>
</g>
<!-- Node1&#45;&gt;Node31 -->
<g id="edge45" class="edge"><title>Node1&#45;&gt;Node31</title>
<path fill="none" stroke="midnightblue" d="M833.136,-260.391C972.453,-254.03 1309.93,-236.148 1420,-208 1426.18,-206.42 1432.59,-204.033 1438.52,-201.48"/>
<polygon fill="midnightblue" stroke="midnightblue" points="1440.31,-204.511 1447.92,-197.14 1437.37,-198.157 1440.31,-204.511"/>
</g>
<!-- Node32 -->
<g id="node32" class="node"><title>Node32</title>
<polygon fill="none" stroke="#bfbfbf" points="1514.27,-179 1514.27,-197 1559.73,-197 1559.73,-179 1514.27,-179"/>
<text text-anchor="middle" x="1537" y="-185" font-family="Helvetica,sans-Serif" font-size="10.00">caos.h</text>
</g>
<!-- Node1&#45;&gt;Node32 -->
<g id="edge46" class="edge"><title>Node1&#45;&gt;Node32</title>
<path fill="none" stroke="midnightblue" d="M833.108,-261.998C985.738,-258.923 1380.32,-247.3 1505,-208 1509.3,-206.645 1513.63,-204.618 1517.66,-202.386"/>
<polygon fill="midnightblue" stroke="midnightblue" points="1519.67,-205.255 1526.34,-197.024 1516,-199.298 1519.67,-205.255"/>
</g>
<!-- Node33 -->
<g id="node33" class="node"><title>Node33</title>
<polygon fill="none" stroke="#bfbfbf" points="1577.71,-179 1577.71,-197 1624.29,-197 1624.29,-179 1577.71,-179"/>
<text text-anchor="middle" x="1601" y="-185" font-family="Helvetica,sans-Serif" font-size="10.00">trace.h</text>
</g>
<!-- Node1&#45;&gt;Node33 -->
<g id="edge47" class="edge"><title>Node1&#45;&gt;Node33</title>
<path fill="none" stroke="midnightblue" d="M833.25,-262.318C995.054,-259.954 1430.85,-249.779 1568,-208 1572.53,-206.619 1577.12,-204.521 1581.36,-202.217"/>
<polygon fill="midnightblue" stroke="midnightblue" points="1583.21,-205.19 1589.98,-197.04 1579.61,-199.19 1583.21,-205.19"/>
</g>
<!-- Node34 -->
<g id="node34" class="node"><title>Node34</title>
<polygon fill="none" stroke="#bfbfbf" points="1641.93,-169 1641.93,-207 1764.07,-207 1764.07,-169 1641.93,-169"/>
<text text-anchor="start" x="1649.93" y="-195" font-family="Helvetica,sans-Serif" font-size="10.00">/Users/tgil/git/CoAction</text>
<text text-anchor="start" x="1649.93" y="-185" font-family="Helvetica,sans-Serif" font-size="10.00">OS/CoActionOS/src/sys</text>
<text text-anchor="middle" x="1703" y="-175" font-family="Helvetica,sans-Serif" font-size="10.00">/sched/sched.h</text>
</g>
<!-- Node1&#45;&gt;Node34 -->
<g id="edge48" class="edge"><title>Node1&#45;&gt;Node34</title>
<path fill="none" stroke="midnightblue" d="M833.286,-263.298C973.457,-263.075 1328.1,-257.377 1631.38,-208.086"/>
<polygon fill="midnightblue" stroke="midnightblue" points="1632.39,-211.466 1641.69,-206.389 1631.26,-204.559 1632.39,-211.466"/>
</g>
<!-- Node35 -->
<g id="node35" class="node"><title>Node35</title>
<polygon fill="none" stroke="#bfbfbf" points="1782.55,-179 1782.55,-197 1827.45,-197 1827.45,-179 1782.55,-179"/>
<text text-anchor="middle" x="1805" y="-185" font-family="Helvetica,sans-Serif" font-size="10.00">hwpl.h</text>
</g>
<!-- Node1&#45;&gt;Node35 -->
<g id="edge49" class="edge"><title>Node1&#45;&gt;Node35</title>
<path fill="none" stroke="midnightblue" d="M833.226,-263.437C1022.48,-264.192 1595.98,-261.859 1773,-208 1777.31,-206.688 1781.65,-204.681 1785.68,-202.454"/>
<polygon fill="midnightblue" stroke="midnightblue" points="1787.7,-205.32 1794.36,-197.085 1784.02,-199.366 1787.7,-205.32"/>
</g>
<!-- Node14&#45;&gt;Node2 -->
<g id="edge15" class="edge"><title>Node14&#45;&gt;Node2</title>
<path fill="none" stroke="midnightblue" d="M774.319,-179.783C737.774,-168.645 667.368,-147.188 624.345,-134.076"/>
<polygon fill="midnightblue" stroke="midnightblue" points="625.143,-130.661 614.557,-131.093 623.102,-137.357 625.143,-130.661"/>
</g>
<!-- Node14&#45;&gt;Node8 -->
<g id="edge16" class="edge"><title>Node14&#45;&gt;Node8</title>
<path fill="none" stroke="midnightblue" d="M787.621,-178.923C767.221,-162.302 722.453,-121.951 706,-76 700.318,-60.1316 706.209,-41.381 712.384,-28.1069"/>
<polygon fill="midnightblue" stroke="midnightblue" points="715.523,-29.6569 716.975,-19.162 709.295,-26.4609 715.523,-29.6569"/>
</g>
<!-- Node14&#45;&gt;Node15 -->
<g id="edge14" class="edge"><title>Node14&#45;&gt;Node15</title>
<path fill="none" stroke="midnightblue" d="M812.488,-178.894C819.45,-175.225 828.002,-171.039 836,-168 893.648,-146.1 926.312,-175.523 970,-132 997.815,-104.29 1002.82,-55.5846 1003.35,-29.2081"/>
<polygon fill="midnightblue" stroke="midnightblue" points="1006.85,-29.1055 1003.35,-19.1057 999.846,-29.1059 1006.85,-29.1055"/>
</g>
<!-- Node16 -->
<g id="node16" class="node"><title>Node16</title>
<polygon fill="none" stroke="#bfbfbf" points="772.209,-113 772.209,-131 823.791,-131 823.791,-113 772.209,-113"/>
<text text-anchor="middle" x="798" y="-119" font-family="Helvetica,sans-Serif" font-size="10.00">stddef.h</text>
</g>
<!-- Node14&#45;&gt;Node16 -->
<g id="edge17" class="edge"><title>Node14&#45;&gt;Node16</title>
<path fill="none" stroke="midnightblue" d="M798,-178.894C798,-169.52 798,-153.791 798,-141.402"/>
<polygon fill="midnightblue" stroke="midnightblue" points="801.5,-141.242 798,-131.242 794.5,-141.242 801.5,-141.242"/>
</g>
<!-- Node17 -->
<g id="node17" class="node"><title>Node17</title>
<polygon fill="none" stroke="#bfbfbf" points="714.882,-57 714.882,-75 773.118,-75 773.118,-57 714.882,-57"/>
<text text-anchor="middle" x="744" y="-63" font-family="Helvetica,sans-Serif" font-size="10.00">sys/stat.h</text>
</g>
<!-- Node14&#45;&gt;Node17 -->
<g id="edge18" class="edge"><title>Node14&#45;&gt;Node17</title>
<path fill="none" stroke="midnightblue" d="M791.764,-178.848C784.074,-168.464 771.037,-149.731 763,-132 756.099,-116.774 751.002,-98.4098 747.835,-85.0904"/>
<polygon fill="midnightblue" stroke="midnightblue" points="751.235,-84.2592 745.631,-75.2683 744.405,-85.7921 751.235,-84.2592"/>
</g>
<!-- Node18 -->
<g id="node18" class="node"><title>Node18</title>
<polygon fill="none" stroke="#bfbfbf" points="912.323,-113 912.323,-131 961.677,-131 961.677,-113 912.323,-113"/>
<text text-anchor="middle" x="937" y="-119" font-family="Helvetica,sans-Serif" font-size="10.00">dirent.h</text>
</g>
<!-- Node14&#45;&gt;Node18 -->
<g id="edge19" class="edge"><title>Node14&#45;&gt;Node18</title>
<path fill="none" stroke="midnightblue" d="M813.823,-178.891C820.617,-175.462 828.664,-171.466 836,-168 860.462,-156.442 888.602,-143.971 908.955,-135.096"/>
<polygon fill="midnightblue" stroke="midnightblue" points="910.495,-138.243 918.272,-131.047 907.705,-131.823 910.495,-138.243"/>
</g>
<!-- Node19 -->
<g id="node19" class="node"><title>Node19</title>
<g id="a_node19"><a xlink:href="device_8h_source.html" target="_top" xlink:title="device.h">
<polygon fill="none" stroke="black" points="841.377,-113 841.377,-131 894.623,-131 894.623,-113 841.377,-113"/>
<text text-anchor="middle" x="868" y="-119" font-family="Helvetica,sans-Serif" font-size="10.00">device.h</text>
</a>
</g>
</g>
<!-- Node14&#45;&gt;Node19 -->
<g id="edge20" class="edge"><title>Node14&#45;&gt;Node19</title>
<path fill="none" stroke="midnightblue" d="M806.866,-178.894C818.06,-168.66 837.541,-150.848 851.505,-138.081"/>
<polygon fill="midnightblue" stroke="midnightblue" points="853.967,-140.573 858.985,-131.242 849.243,-135.407 853.967,-140.573"/>
</g>
<!-- Node19&#45;&gt;Node15 -->
<g id="edge22" class="edge"><title>Node19&#45;&gt;Node15</title>
<path fill="none" stroke="midnightblue" d="M893.478,-112.971C913.513,-105.709 941.245,-93.463 961,-76 976.066,-62.6815 987.872,-42.718 995.08,-28.4322"/>
<polygon fill="midnightblue" stroke="midnightblue" points="998.334,-29.7404 999.496,-19.2095 992.02,-26.717 998.334,-29.7404"/>
</g>
<!-- Node19&#45;&gt;Node17 -->
<g id="edge21" class="edge"><title>Node19&#45;&gt;Node17</title>
<path fill="none" stroke="midnightblue" d="M849.436,-112.916C828.89,-103.968 795.556,-89.4516 771.872,-79.1378"/>
<polygon fill="midnightblue" stroke="midnightblue" points="773.257,-75.9234 762.691,-75.1396 770.462,-82.3413 773.257,-75.9234"/>
</g>
<!-- Node20 -->
<g id="node20" class="node"><title>Node20</title>
<g id="a_node20"><a xlink:href="types_8h_source.html" target="_top" xlink:title="hwpl/types.h">
<polygon fill="none" stroke="black" points="791.207,-57 791.207,-75 862.793,-75 862.793,-57 791.207,-57"/>
<text text-anchor="middle" x="827" y="-63" font-family="Helvetica,sans-Serif" font-size="10.00">hwpl/types.h</text>
</a>
</g>
</g>
<!-- Node19&#45;&gt;Node20 -->
<g id="edge23" class="edge"><title>Node19&#45;&gt;Node20</title>
<path fill="none" stroke="midnightblue" d="M861.594,-112.562C855.662,-104.75 846.679,-92.9187 839.353,-83.2704"/>
<polygon fill="midnightblue" stroke="midnightblue" points="842.062,-81.0494 833.227,-75.2014 836.487,-85.2824 842.062,-81.0494"/>
</g>
<!-- Node22 -->
<g id="node22" class="node"><title>Node22</title>
<polygon fill="none" stroke="#bfbfbf" points="882.431,-1 882.431,-19 949.569,-19 949.569,-1 882.431,-1"/>
<text text-anchor="middle" x="916" y="-7" font-family="Helvetica,sans-Serif" font-size="10.00">hwpl/arch.h</text>
</g>
<!-- Node19&#45;&gt;Node22 -->
<g id="edge27" class="edge"><title>Node19&#45;&gt;Node22</title>
<path fill="none" stroke="midnightblue" d="M894.789,-113.329C912.752,-106.634 935.053,-94.9531 946,-76 955.369,-59.7788 943.307,-40.1276 931.802,-26.7077"/>
<polygon fill="midnightblue" stroke="midnightblue" points="934.263,-24.2141 924.907,-19.2436 929.122,-28.9641 934.263,-24.2141"/>
</g>
<!-- Node23 -->
<g id="node23" class="node"><title>Node23</title>
<g id="a_node23"><a xlink:href="pio_8h.html" target="_top" xlink:title="General Purpose Input/Output Header File. ">
<polygon fill="none" stroke="black" points="880.707,-57 880.707,-75 937.293,-75 937.293,-57 880.707,-57"/>
<text text-anchor="middle" x="909" y="-63" font-family="Helvetica,sans-Serif" font-size="10.00">dev/pio.h</text>
</a>
</g>
</g>
<!-- Node19&#45;&gt;Node23 -->
<g id="edge28" class="edge"><title>Node19&#45;&gt;Node23</title>
<path fill="none" stroke="midnightblue" d="M874.406,-112.562C880.338,-104.75 889.321,-92.9187 896.647,-83.2704"/>
<polygon fill="midnightblue" stroke="midnightblue" points="899.513,-85.2824 902.773,-75.2014 893.938,-81.0494 899.513,-85.2824"/>
</g>
<!-- Node20&#45;&gt;Node8 -->
<g id="edge24" class="edge"><title>Node20&#45;&gt;Node8</title>
<path fill="none" stroke="midnightblue" d="M811.053,-56.7986C793.994,-48.0256 766.714,-33.9959 746.838,-23.7741"/>
<polygon fill="midnightblue" stroke="midnightblue" points="748.247,-20.5627 737.753,-19.1017 745.045,-26.7877 748.247,-20.5627"/>
</g>
<!-- Node20&#45;&gt;Node15 -->
<g id="edge25" class="edge"><title>Node20&#45;&gt;Node15</title>
<path fill="none" stroke="midnightblue" d="M853.349,-56.9157C883.505,-47.6633 933.071,-32.4553 966.829,-22.098"/>
<polygon fill="midnightblue" stroke="midnightblue" points="968.225,-25.3306 976.759,-19.0513 966.172,-18.6385 968.225,-25.3306"/>
</g>
<!-- Node21 -->
<g id="node21" class="node"><title>Node21</title>
<g id="a_node21"><a xlink:href="ioctl_8h_source.html" target="_top" xlink:title="dev/ioctl.h">
<polygon fill="none" stroke="black" points="799.488,-1 799.488,-19 860.512,-19 860.512,-1 799.488,-1"/>
<text text-anchor="middle" x="830" y="-7" font-family="Helvetica,sans-Serif" font-size="10.00">dev/ioctl.h</text>
</a>
</g>
</g>
<!-- Node20&#45;&gt;Node21 -->
<g id="edge26" class="edge"><title>Node20&#45;&gt;Node21</title>
<path fill="none" stroke="midnightblue" d="M827.469,-56.5625C827.872,-49.308 828.467,-38.5884 828.979,-29.3691"/>
<polygon fill="midnightblue" stroke="midnightblue" points="832.484,-29.3802 829.544,-19.2014 825.495,-28.9919 832.484,-29.3802"/>
</g>
<!-- Node23&#45;&gt;Node8 -->
<g id="edge30" class="edge"><title>Node23&#45;&gt;Node8</title>
<path fill="none" stroke="midnightblue" d="M881.004,-56.9157C847.713,-47.302 792.155,-31.2588 756.31,-20.9077"/>
<polygon fill="midnightblue" stroke="midnightblue" points="756.89,-17.4322 746.311,-18.0204 754.948,-24.1574 756.89,-17.4322"/>
</g>
<!-- Node23&#45;&gt;Node15 -->
<g id="edge29" class="edge"><title>Node23&#45;&gt;Node15</title>
<path fill="none" stroke="midnightblue" d="M923.277,-56.7986C938.27,-48.1851 962.085,-34.5043 979.787,-24.3354"/>
<polygon fill="midnightblue" stroke="midnightblue" points="981.969,-27.1179 988.897,-19.1017 978.483,-21.0481 981.969,-27.1179"/>
</g>
<!-- Node23&#45;&gt;Node21 -->
<g id="edge31" class="edge"><title>Node23&#45;&gt;Node21</title>
<path fill="none" stroke="midnightblue" d="M897.002,-56.7986C884.634,-48.3446 865.125,-35.0093 850.341,-24.9039"/>
<polygon fill="midnightblue" stroke="midnightblue" points="852.083,-21.8553 841.852,-19.1017 848.133,-27.6343 852.083,-21.8553"/>
</g>
<!-- Node23&#45;&gt;Node22 -->
<g id="edge32" class="edge"><title>Node23&#45;&gt;Node22</title>
<path fill="none" stroke="midnightblue" d="M910.094,-56.5625C911.034,-49.308 912.424,-38.5884 913.619,-29.3691"/>
<polygon fill="midnightblue" stroke="midnightblue" points="917.122,-29.5684 914.937,-19.2014 910.18,-28.6685 917.122,-29.5684"/>
</g>
<!-- Node24&#45;&gt;Node2 -->
<g id="edge34" class="edge"><title>Node24&#45;&gt;Node2</title>
<path fill="none" stroke="midnightblue" d="M192.627,-178.972C199.917,-175.04 209.188,-170.603 218,-168 332.664,-134.134 474.549,-125.712 544.632,-123.647"/>
<polygon fill="midnightblue" stroke="midnightblue" points="544.941,-127.14 554.844,-123.377 544.755,-120.143 544.941,-127.14"/>
</g>
<!-- Node24&#45;&gt;Node3 -->
<g id="edge35" class="edge"><title>Node24&#45;&gt;Node3</title>
<path fill="none" stroke="midnightblue" d="M162.766,-178.984C155.541,-175.495 146.898,-171.43 139,-168 111.288,-155.965 79.2473,-143.437 56.2042,-134.665"/>
<polygon fill="midnightblue" stroke="midnightblue" points="57.2,-131.3 46.6086,-131.032 54.721,-137.846 57.2,-131.3"/>
</g>
<!-- Node24&#45;&gt;Node5 -->
<g id="edge37" class="edge"><title>Node24&#45;&gt;Node5</title>
<path fill="none" stroke="midnightblue" d="M169.881,-178.894C158.367,-168.66 138.33,-150.848 123.966,-138.081"/>
<polygon fill="midnightblue" stroke="midnightblue" points="126.072,-135.27 116.272,-131.242 121.421,-140.502 126.072,-135.27"/>
</g>
<!-- Node24&#45;&gt;Node12 -->
<g id="edge36" class="edge"><title>Node24&#45;&gt;Node12</title>
<path fill="none" stroke="midnightblue" d="M193.185,-178.894C212.036,-168.123 245.573,-148.958 268.05,-136.114"/>
<polygon fill="midnightblue" stroke="midnightblue" points="269.984,-139.04 276.93,-131.04 266.511,-132.962 269.984,-139.04"/>
</g>
</g>
</svg>
