<?xml version="1.0" encoding="UTF-8" standalone="no"?>
<!DOCTYPE svg PUBLIC "-//W3C//DTD SVG 1.1//EN"
 "http://www.w3.org/Graphics/SVG/1.1/DTD/svg11.dtd">
<!-- Generated by graphviz version 2.34.0 (20130907.0228)
 -->
<!-- Title: /Users/tgil/git/CoActionOS/CoActionOS&#45;Applib/include/periph.h Pages: 1 -->
<svg width="2624pt" height="136pt"
 viewBox="0.00 0.00 2624.00 136.00" xmlns="http://www.w3.org/2000/svg" xmlns:xlink="http://www.w3.org/1999/xlink">
<g id="graph0" class="graph" transform="scale(1 1) rotate(0) translate(4 132)">
<title>/Users/tgil/git/CoActionOS/CoActionOS&#45;Applib/include/periph.h</title>
<!-- Node1 -->
<g id="node1" class="node"><title>Node1</title>
<polygon fill="#bfbfbf" stroke="black" points="1194.08,-83 1194.08,-127 1347.92,-127 1347.92,-83 1194.08,-83"/>
<text text-anchor="start" x="1202.08" y="-113" font-family="Helvetica,sans-Serif" font-size="10.00">/Users/tgil/git/CoAction</text>
<text text-anchor="start" x="1202.08" y="-101" font-family="Helvetica,sans-Serif" font-size="10.00">OS/CoActionOS&#45;Applib/include</text>
<text text-anchor="middle" x="1271" y="-89" font-family="Helvetica,sans-Serif" font-size="10.00">/periph.h</text>
</g>
<!-- Node2 -->
<g id="node2" class="node"><title>Node2</title>
<g id="a_node2"><a xlink:href="adc_8h.html" target="_top" xlink:title="/Users/tgil/git/CoAction\lOS/CoActionOS&#45;Applib/include/adc.h">
<polygon fill="none" stroke="black" points="-0.543945,-7 -0.543945,-39 180.544,-39 180.544,-7 -0.543945,-7"/>
<text text-anchor="start" x="7.45605" y="-25" font-family="Helvetica,sans-Serif" font-size="10.00">/Users/tgil/git/CoAction</text>
<text text-anchor="middle" x="90" y="-13" font-family="Helvetica,sans-Serif" font-size="10.00">OS/CoActionOS&#45;Applib/include/adc.h</text>
</a>
</g>
</g>
<!-- Node1&#45;&gt;Node2 -->
<g id="edge1" class="edge"><title>Node1&#45;&gt;Node2</title>
<path fill="none" stroke="midnightblue" d="M1183.65,-104.191C999.089,-103.527 556.21,-96.2923 189,-46 176.353,-44.2679 162.929,-41.7524 150.183,-39.0361"/>
<polygon fill="midnightblue" stroke="midnightblue" points="1183.83,-107.691 1193.84,-104.222 1183.85,-100.692 1183.83,-107.691"/>
</g>
<!-- Node3 -->
<g id="node3" class="node"><title>Node3</title>
<g id="a_node3"><a xlink:href="core_8h.html" target="_top" xlink:title="/Users/tgil/git/CoAction\lOS/CoActionOS&#45;Applib/include\l/core.h">
<polygon fill="none" stroke="black" points="198.077,-1 198.077,-45 351.923,-45 351.923,-1 198.077,-1"/>
<text text-anchor="start" x="206.077" y="-31" font-family="Helvetica,sans-Serif" font-size="10.00">/Users/tgil/git/CoAction</text>
<text text-anchor="start" x="206.077" y="-19" font-family="Helvetica,sans-Serif" font-size="10.00">OS/CoActionOS&#45;Applib/include</text>
<text text-anchor="middle" x="275" y="-7" font-family="Helvetica,sans-Serif" font-size="10.00">/core.h</text>
</a>
</g>
</g>
<!-- Node1&#45;&gt;Node3 -->
<g id="edge2" class="edge"><title>Node1&#45;&gt;Node3</title>
<path fill="none" stroke="midnightblue" d="M1183.63,-103.838C1020.8,-102.34 660.305,-93.3951 361,-46 358.108,-45.542 355.171,-45.0309 352.213,-44.4769"/>
<polygon fill="midnightblue" stroke="midnightblue" points="1184.04,-107.341 1194.07,-103.926 1184.1,-100.341 1184.04,-107.341"/>
</g>
<!-- Node4 -->
<g id="node4" class="node"><title>Node4</title>
<g id="a_node4"><a xlink:href="eint_8h.html" target="_top" xlink:title="/Users/tgil/git/CoAction\lOS/CoActionOS&#45;Applib/include\l/eint.h">
<polygon fill="none" stroke="black" points="370.077,-1 370.077,-45 523.923,-45 523.923,-1 370.077,-1"/>
<text text-anchor="start" x="378.077" y="-31" font-family="Helvetica,sans-Serif" font-size="10.00">/Users/tgil/git/CoAction</text>
<text text-anchor="start" x="378.077" y="-19" font-family="Helvetica,sans-Serif" font-size="10.00">OS/CoActionOS&#45;Applib/include</text>
<text text-anchor="middle" x="447" y="-7" font-family="Helvetica,sans-Serif" font-size="10.00">/eint.h</text>
</a>
</g>
</g>
<!-- Node1&#45;&gt;Node4 -->
<g id="edge3" class="edge"><title>Node1&#45;&gt;Node4</title>
<path fill="none" stroke="midnightblue" d="M1183.84,-101.996C1045.17,-97.723 766.158,-84.6889 533,-46 530.111,-45.5207 527.178,-44.9913 524.222,-44.422"/>
<polygon fill="midnightblue" stroke="midnightblue" points="1183.88,-105.499 1193.98,-102.301 1184.09,-98.502 1183.88,-105.499"/>
</g>
<!-- Node5 -->
<g id="node5" class="node"><title>Node5</title>
<g id="a_node5"><a xlink:href="flash_8h_source.html" target="_top" xlink:title="/Users/tgil/git/CoAction\lOS/CoActionOS&#45;Applib/include\l/flash.h">
<polygon fill="none" stroke="black" points="542.077,-1 542.077,-45 695.923,-45 695.923,-1 542.077,-1"/>
<text text-anchor="start" x="550.077" y="-31" font-family="Helvetica,sans-Serif" font-size="10.00">/Users/tgil/git/CoAction</text>
<text text-anchor="start" x="550.077" y="-19" font-family="Helvetica,sans-Serif" font-size="10.00">OS/CoActionOS&#45;Applib/include</text>
<text text-anchor="middle" x="619" y="-7" font-family="Helvetica,sans-Serif" font-size="10.00">/flash.h</text>
</a>
</g>
</g>
<!-- Node1&#45;&gt;Node5 -->
<g id="edge4" class="edge"><title>Node1&#45;&gt;Node5</title>
<path fill="none" stroke="midnightblue" d="M1183.86,-99.0952C1072.24,-91.893 873.096,-75.9428 705,-46 702.117,-45.4865 699.189,-44.928 696.237,-44.3341"/>
<polygon fill="midnightblue" stroke="midnightblue" points="1183.85,-102.602 1194.06,-99.7443 1184.3,-95.6159 1183.85,-102.602"/>
</g>
<!-- Node6 -->
<g id="node6" class="node"><title>Node6</title>
<g id="a_node6"><a xlink:href="gpio_8h_source.html" target="_top" xlink:title="/Users/tgil/git/CoAction\lOS/CoActionOS&#45;Applib/include\l/gpio.h">
<polygon fill="none" stroke="black" points="714.077,-1 714.077,-45 867.923,-45 867.923,-1 714.077,-1"/>
<text text-anchor="start" x="722.077" y="-31" font-family="Helvetica,sans-Serif" font-size="10.00">/Users/tgil/git/CoAction</text>
<text text-anchor="start" x="722.077" y="-19" font-family="Helvetica,sans-Serif" font-size="10.00">OS/CoActionOS&#45;Applib/include</text>
<text text-anchor="middle" x="791" y="-7" font-family="Helvetica,sans-Serif" font-size="10.00">/gpio.h</text>
</a>
</g>
</g>
<!-- Node1&#45;&gt;Node6 -->
<g id="edge5" class="edge"><title>Node1&#45;&gt;Node6</title>
<path fill="none" stroke="midnightblue" d="M1183.91,-93.828C1103.77,-83.8423 981.82,-67.0627 877,-46 874.129,-45.4231 871.211,-44.8107 868.268,-44.1712"/>
<polygon fill="midnightblue" stroke="midnightblue" points="1183.6,-97.3168 1193.95,-95.0718 1184.46,-90.3698 1183.6,-97.3168"/>
</g>
<!-- Node7 -->
<g id="node7" class="node"><title>Node7</title>
<g id="a_node7"><a xlink:href="i2c_8h.html" target="_top" xlink:title="/Users/tgil/git/CoAction\lOS/CoActionOS&#45;Applib/include/i2c.h">
<polygon fill="none" stroke="black" points="886.126,-7 886.126,-39 1063.87,-39 1063.87,-7 886.126,-7"/>
<text text-anchor="start" x="894.126" y="-25" font-family="Helvetica,sans-Serif" font-size="10.00">/Users/tgil/git/CoAction</text>
<text text-anchor="middle" x="975" y="-13" font-family="Helvetica,sans-Serif" font-size="10.00">OS/CoActionOS&#45;Applib/include/i2c.h</text>
</a>
</g>
</g>
<!-- Node1&#45;&gt;Node7 -->
<g id="edge6" class="edge"><title>Node1&#45;&gt;Node7</title>
<path fill="none" stroke="midnightblue" d="M1184.23,-80.5495C1134.6,-67.1357 1073.82,-50.7073 1030.58,-39.0213"/>
<polygon fill="midnightblue" stroke="midnightblue" points="1183.44,-83.9594 1194,-83.1898 1185.26,-77.2018 1183.44,-83.9594"/>
</g>
<!-- Node8 -->
<g id="node8" class="node"><title>Node8</title>
<g id="a_node8"><a xlink:href="pio_8h_source.html" target="_top" xlink:title="/Users/tgil/git/CoAction\lOS/CoActionOS&#45;Applib/include/pio.h">
<polygon fill="none" stroke="black" points="1081.85,-7 1081.85,-39 1260.15,-39 1260.15,-7 1081.85,-7"/>
<text text-anchor="start" x="1089.85" y="-25" font-family="Helvetica,sans-Serif" font-size="10.00">/Users/tgil/git/CoAction</text>
<text text-anchor="middle" x="1171" y="-13" font-family="Helvetica,sans-Serif" font-size="10.00">OS/CoActionOS&#45;Applib/include/pio.h</text>
</a>
</g>
</g>
<!-- Node1&#45;&gt;Node8 -->
<g id="edge7" class="edge"><title>Node1&#45;&gt;Node8</title>
<path fill="none" stroke="midnightblue" d="M1236.76,-76.6086C1221.05,-64.0427 1203.03,-49.6276 1189.83,-39.0679"/>
<polygon fill="midnightblue" stroke="midnightblue" points="1234.73,-79.467 1244.73,-82.9809 1239.1,-74.0009 1234.73,-79.467"/>
</g>
<!-- Node9 -->
<g id="node9" class="node"><title>Node9</title>
<g id="a_node9"><a xlink:href="pwm_8h_source.html" target="_top" xlink:title="/Users/tgil/git/CoAction\lOS/CoActionOS&#45;Applib/include/pwm.h">
<polygon fill="none" stroke="black" points="1277.96,-7 1277.96,-39 1464.04,-39 1464.04,-7 1277.96,-7"/>
<text text-anchor="start" x="1285.96" y="-25" font-family="Helvetica,sans-Serif" font-size="10.00">/Users/tgil/git/CoAction</text>
<text text-anchor="middle" x="1371" y="-13" font-family="Helvetica,sans-Serif" font-size="10.00">OS/CoActionOS&#45;Applib/include/pwm.h</text>
</a>
</g>
</g>
<!-- Node1&#45;&gt;Node9 -->
<g id="edge8" class="edge"><title>Node1&#45;&gt;Node9</title>
<path fill="none" stroke="midnightblue" d="M1305.24,-76.6086C1320.95,-64.0427 1338.97,-49.6276 1352.17,-39.0679"/>
<polygon fill="midnightblue" stroke="midnightblue" points="1302.9,-74.0009 1297.27,-82.9809 1307.27,-79.467 1302.9,-74.0009"/>
</g>
<!-- Node10 -->
<g id="node10" class="node"><title>Node10</title>
<g id="a_node10"><a xlink:href="qei_8h.html" target="_top" xlink:title="/Users/tgil/git/CoAction\lOS/CoActionOS&#45;Applib/include/qei.h">
<polygon fill="none" stroke="black" points="1481.85,-7 1481.85,-39 1660.15,-39 1660.15,-7 1481.85,-7"/>
<text text-anchor="start" x="1489.85" y="-25" font-family="Helvetica,sans-Serif" font-size="10.00">/Users/tgil/git/CoAction</text>
<text text-anchor="middle" x="1571" y="-13" font-family="Helvetica,sans-Serif" font-size="10.00">OS/CoActionOS&#45;Applib/include/qei.h</text>
</a>
</g>
</g>
<!-- Node1&#45;&gt;Node10 -->
<g id="edge9" class="edge"><title>Node1&#45;&gt;Node10</title>
<path fill="none" stroke="midnightblue" d="M1358.16,-80.757C1408.49,-67.3352 1470.35,-50.8409 1514.38,-39.0995"/>
<polygon fill="midnightblue" stroke="midnightblue" points="1357.02,-77.4395 1348.26,-83.398 1358.82,-84.2031 1357.02,-77.4395"/>
</g>
<!-- Node11 -->
<g id="node11" class="node"><title>Node11</title>
<g id="a_node11"><a xlink:href="rtc_8h_source.html" target="_top" xlink:title="/Users/tgil/git/CoAction\lOS/CoActionOS&#45;Applib/include/rtc.h">
<polygon fill="none" stroke="black" points="1677.96,-7 1677.96,-39 1854.04,-39 1854.04,-7 1677.96,-7"/>
<text text-anchor="start" x="1685.96" y="-25" font-family="Helvetica,sans-Serif" font-size="10.00">/Users/tgil/git/CoAction</text>
<text text-anchor="middle" x="1766" y="-13" font-family="Helvetica,sans-Serif" font-size="10.00">OS/CoActionOS&#45;Applib/include/rtc.h</text>
</a>
</g>
</g>
<!-- Node1&#45;&gt;Node11 -->
<g id="edge10" class="edge"><title>Node1&#45;&gt;Node11</title>
<path fill="none" stroke="midnightblue" d="M1358.1,-93.3036C1438.95,-82.9024 1562.51,-65.8035 1669,-46 1680.03,-43.9478 1691.72,-41.5194 1703.01,-39.0382"/>
<polygon fill="midnightblue" stroke="midnightblue" points="1357.44,-89.8595 1347.96,-94.6011 1358.33,-96.8028 1357.44,-89.8595"/>
</g>
<!-- Node12 -->
<g id="node12" class="node"><title>Node12</title>
<g id="a_node12"><a xlink:href="spi_8h.html" target="_top" xlink:title="/Users/tgil/git/CoAction\lOS/CoActionOS&#45;Applib/include/spi.h">
<polygon fill="none" stroke="black" points="1872.13,-7 1872.13,-39 2049.87,-39 2049.87,-7 1872.13,-7"/>
<text text-anchor="start" x="1880.13" y="-25" font-family="Helvetica,sans-Serif" font-size="10.00">/Users/tgil/git/CoAction</text>
<text text-anchor="middle" x="1961" y="-13" font-family="Helvetica,sans-Serif" font-size="10.00">OS/CoActionOS&#45;Applib/include/spi.h</text>
</a>
</g>
</g>
<!-- Node1&#45;&gt;Node12 -->
<g id="edge11" class="edge"><title>Node1&#45;&gt;Node12</title>
<path fill="none" stroke="midnightblue" d="M1358.25,-98.826C1474.1,-91.1865 1684.84,-74.6129 1863,-46 1874.88,-44.0921 1887.47,-41.6144 1899.54,-39.0127"/>
<polygon fill="midnightblue" stroke="midnightblue" points="1357.77,-95.3495 1348.02,-99.4934 1358.23,-102.335 1357.77,-95.3495"/>
</g>
<!-- Node13 -->
<g id="node13" class="node"><title>Node13</title>
<g id="a_node13"><a xlink:href="tmr_8h_source.html" target="_top" xlink:title="/Users/tgil/git/CoAction\lOS/CoActionOS&#45;Applib/include/tmr.h">
<polygon fill="none" stroke="black" points="2067.57,-7 2067.57,-39 2246.43,-39 2246.43,-7 2067.57,-7"/>
<text text-anchor="start" x="2075.57" y="-25" font-family="Helvetica,sans-Serif" font-size="10.00">/Users/tgil/git/CoAction</text>
<text text-anchor="middle" x="2157" y="-13" font-family="Helvetica,sans-Serif" font-size="10.00">OS/CoActionOS&#45;Applib/include/tmr.h</text>
</a>
</g>
</g>
<!-- Node1&#45;&gt;Node13 -->
<g id="edge12" class="edge"><title>Node1&#45;&gt;Node13</title>
<path fill="none" stroke="midnightblue" d="M1358.14,-101.705C1503.77,-96.9493 1805.51,-83.1575 2058,-46 2070.37,-44.1799 2083.49,-41.6772 2096,-39.0104"/>
<polygon fill="midnightblue" stroke="midnightblue" points="1357.81,-98.2141 1347.93,-102.032 1358.04,-105.211 1357.81,-98.2141"/>
</g>
<!-- Node14 -->
<g id="node14" class="node"><title>Node14</title>
<g id="a_node14"><a xlink:href="uart_8h.html" target="_top" xlink:title="/Users/tgil/git/CoAction\lOS/CoActionOS&#45;Applib/include\l/uart.h">
<polygon fill="none" stroke="black" points="2264.08,-1 2264.08,-45 2417.92,-45 2417.92,-1 2264.08,-1"/>
<text text-anchor="start" x="2272.08" y="-31" font-family="Helvetica,sans-Serif" font-size="10.00">/Users/tgil/git/CoAction</text>
<text text-anchor="start" x="2272.08" y="-19" font-family="Helvetica,sans-Serif" font-size="10.00">OS/CoActionOS&#45;Applib/include</text>
<text text-anchor="middle" x="2341" y="-7" font-family="Helvetica,sans-Serif" font-size="10.00">/uart.h</text>
</a>
</g>
</g>
<!-- Node1&#45;&gt;Node14 -->
<g id="edge13" class="edge"><title>Node1&#45;&gt;Node14</title>
<path fill="none" stroke="midnightblue" d="M1358.12,-104.442C1530.48,-104.089 1926.75,-97.1761 2255,-46 2257.89,-45.5489 2260.83,-45.0436 2263.79,-44.4947"/>
<polygon fill="midnightblue" stroke="midnightblue" points="1358.08,-100.942 1348.09,-104.455 1358.09,-107.942 1358.08,-100.942"/>
</g>
<!-- Node15 -->
<g id="node15" class="node"><title>Node15</title>
<g id="a_node15"><a xlink:href="usb_8h_source.html" target="_top" xlink:title="/Users/tgil/git/CoAction\lOS/CoActionOS&#45;Applib/include/usb.h">
<polygon fill="none" stroke="black" points="2435.46,-7 2435.46,-39 2616.54,-39 2616.54,-7 2435.46,-7"/>
<text text-anchor="start" x="2443.46" y="-25" font-family="Helvetica,sans-Serif" font-size="10.00">/Users/tgil/git/CoAction</text>
<text text-anchor="middle" x="2526" y="-13" font-family="Helvetica,sans-Serif" font-size="10.00">OS/CoActionOS&#45;Applib/include/usb.h</text>
</a>
</g>
</g>
<!-- Node1&#45;&gt;Node15 -->
<g id="edge14" class="edge"><title>Node1&#45;&gt;Node15</title>
<path fill="none" stroke="midnightblue" d="M1358.2,-104.555C1551.43,-104.708 2029.88,-99.1426 2426,-46 2438.86,-44.2745 2452.52,-41.7442 2465.47,-39.0083"/>
<polygon fill="midnightblue" stroke="midnightblue" points="1358.11,-101.055 1348.11,-104.542 1358.1,-108.055 1358.11,-101.055"/>
</g>
</g>
</svg>
