<?xml version="1.0" encoding="UTF-8" standalone="no"?>
<!DOCTYPE svg PUBLIC "-//W3C//DTD SVG 1.1//EN"
 "http://www.w3.org/Graphics/SVG/1.1/DTD/svg11.dtd">
<!-- Generated by graphviz version 2.34.0 (20130907.0228)
 -->
<!-- Title: /Users/tgil/git/CoActionOS/CoActionOS/src/sys/pthread/pthread_mutex.c Pages: 1 -->
<svg width="571pt" height="112pt"
 viewBox="0.00 0.00 571.00 112.00" xmlns="http://www.w3.org/2000/svg" xmlns:xlink="http://www.w3.org/1999/xlink">
<g id="graph0" class="graph" transform="scale(1 1) rotate(0) translate(4 108)">
<title>/Users/tgil/git/CoActionOS/CoActionOS/src/sys/pthread/pthread_mutex.c</title>
<!-- Node1 -->
<g id="node1" class="node"><title>Node1</title>
<polygon fill="#bfbfbf" stroke="black" points="177.02,-59 177.02,-103 306.98,-103 306.98,-59 177.02,-59"/>
<text text-anchor="start" x="185.02" y="-89" font-family="Helvetica,sans-Serif" font-size="10.00">/Users/tgil/git/CoAction</text>
<text text-anchor="start" x="185.02" y="-77" font-family="Helvetica,sans-Serif" font-size="10.00">OS/CoActionOS/src/sys</text>
<text text-anchor="middle" x="242" y="-65" font-family="Helvetica,sans-Serif" font-size="10.00">/pthread/pthread_mutex.c</text>
</g>
<!-- Node2 -->
<g id="node2" class="node"><title>Node2</title>
<g id="a_node2"><a xlink:href="config_8h.html" target="_top" xlink:title="config.h">
<polygon fill="none" stroke="black" points="-0.512207,-1 -0.512207,-21 50.5122,-21 50.5122,-1 -0.512207,-1"/>
<text text-anchor="middle" x="25" y="-7" font-family="Helvetica,sans-Serif" font-size="10.00">config.h</text>
</a>
</g>
</g>
<!-- Node1&#45;&gt;Node2 -->
<g id="edge1" class="edge"><title>Node1&#45;&gt;Node2</title>
<path fill="none" stroke="midnightblue" d="M176.893,-59.5978C138.592,-47.5956 91.6538,-32.8869 60.1817,-23.0247"/>
<polygon fill="midnightblue" stroke="midnightblue" points="61.1265,-19.653 50.5374,-20.0025 59.0333,-26.3327 61.1265,-19.653"/>
</g>
<!-- Node3 -->
<g id="node3" class="node"><title>Node3</title>
<polygon fill="none" stroke="#bfbfbf" points="68.707,-1 68.707,-21 125.293,-21 125.293,-1 68.707,-1"/>
<text text-anchor="middle" x="97" y="-7" font-family="Helvetica,sans-Serif" font-size="10.00">stdbool.h</text>
</g>
<!-- Node1&#45;&gt;Node3 -->
<g id="edge2" class="edge"><title>Node1&#45;&gt;Node3</title>
<path fill="none" stroke="midnightblue" d="M196.916,-58.8571C173.519,-47.8849 145.655,-34.8177 125.304,-25.2737"/>
<polygon fill="midnightblue" stroke="midnightblue" points="126.788,-22.1037 116.248,-21.0266 123.816,-28.4414 126.788,-22.1037"/>
</g>
<!-- Node4 -->
<g id="node4" class="node"><title>Node4</title>
<polygon fill="none" stroke="#bfbfbf" points="143.488,-1 143.488,-21 194.512,-21 194.512,-1 143.488,-1"/>
<text text-anchor="middle" x="169" y="-7" font-family="Helvetica,sans-Serif" font-size="10.00">unistd.h</text>
</g>
<!-- Node1&#45;&gt;Node4 -->
<g id="edge3" class="edge"><title>Node1&#45;&gt;Node4</title>
<path fill="none" stroke="midnightblue" d="M219.303,-58.8571C208.708,-48.9884 196.294,-37.425 186.45,-28.2545"/>
<polygon fill="midnightblue" stroke="midnightblue" points="188.584,-25.459 178.881,-21.2039 183.812,-30.581 188.584,-25.459"/>
</g>
<!-- Node5 -->
<g id="node5" class="node"><title>Node5</title>
<polygon fill="none" stroke="#bfbfbf" points="212.872,-1 212.872,-21 271.128,-21 271.128,-1 212.872,-1"/>
<text text-anchor="middle" x="242" y="-7" font-family="Helvetica,sans-Serif" font-size="10.00">pthread.h</text>
</g>
<!-- Node1&#45;&gt;Node5 -->
<g id="edge4" class="edge"><title>Node1&#45;&gt;Node5</title>
<path fill="none" stroke="midnightblue" d="M242,-58.8571C242,-50.074 242,-39.9484 242,-31.3622"/>
<polygon fill="midnightblue" stroke="midnightblue" points="245.5,-31.2039 242,-21.2039 238.5,-31.204 245.5,-31.2039"/>
</g>
<!-- Node6 -->
<g id="node6" class="node"><title>Node6</title>
<polygon fill="none" stroke="#bfbfbf" points="289.158,-1 289.158,-21 336.842,-21 336.842,-1 289.158,-1"/>
<text text-anchor="middle" x="313" y="-7" font-family="Helvetica,sans-Serif" font-size="10.00">errno.h</text>
</g>
<!-- Node1&#45;&gt;Node6 -->
<g id="edge5" class="edge"><title>Node1&#45;&gt;Node6</title>
<path fill="none" stroke="midnightblue" d="M264.076,-58.8571C274.38,-48.9884 286.453,-37.425 296.028,-28.2545"/>
<polygon fill="midnightblue" stroke="midnightblue" points="298.589,-30.6485 303.39,-21.2039 293.747,-25.5931 298.589,-30.6485"/>
</g>
<!-- Node7 -->
<g id="node7" class="node"><title>Node7</title>
<polygon fill="none" stroke="#bfbfbf" points="355.254,-1 355.254,-21 430.746,-21 430.746,-1 355.254,-1"/>
<text text-anchor="middle" x="393" y="-7" font-family="Helvetica,sans-Serif" font-size="10.00">hwpl/debug.h</text>
</g>
<!-- Node1&#45;&gt;Node7 -->
<g id="edge6" class="edge"><title>Node1&#45;&gt;Node7</title>
<path fill="none" stroke="midnightblue" d="M288.95,-58.8571C313.425,-47.8353 342.594,-34.6994 363.812,-25.1443"/>
<polygon fill="midnightblue" stroke="midnightblue" points="365.275,-28.3241 372.956,-21.0266 362.4,-21.9415 365.275,-28.3241"/>
</g>
<!-- Node8 -->
<g id="node8" class="node"><title>Node8</title>
<polygon fill="none" stroke="#bfbfbf" points="448.247,-1 448.247,-21 563.753,-21 563.753,-1 448.247,-1"/>
<text text-anchor="middle" x="506" y="-7" font-family="Helvetica,sans-Serif" font-size="10.00">../sched/sched_flags.h</text>
</g>
<!-- Node1&#45;&gt;Node8 -->
<g id="edge7" class="edge"><title>Node1&#45;&gt;Node8</title>
<path fill="none" stroke="midnightblue" d="M307.258,-63.191C355.179,-50.8478 419.025,-34.4026 461.268,-23.5219"/>
<polygon fill="midnightblue" stroke="midnightblue" points="462.181,-26.901 470.992,-21.0173 460.435,-20.1223 462.181,-26.901"/>
</g>
</g>
</svg>
