<?xml version="1.0" encoding="UTF-8" standalone="no"?>
<!DOCTYPE svg PUBLIC "-//W3C//DTD SVG 1.1//EN"
 "http://www.w3.org/Graphics/SVG/1.1/DTD/svg11.dtd">
<!-- Generated by graphviz version 2.34.0 (20130907.0228)
 -->
<!-- Title: /Users/tgil/git/CoActionOS/CoActionOS/src/sys/pthread/pthread_create.c Pages: 1 -->
<svg width="334pt" height="112pt"
 viewBox="0.00 0.00 334.00 112.00" xmlns="http://www.w3.org/2000/svg" xmlns:xlink="http://www.w3.org/1999/xlink">
<g id="graph0" class="graph" transform="scale(1 1) rotate(0) translate(4 108)">
<title>/Users/tgil/git/CoActionOS/CoActionOS/src/sys/pthread/pthread_create.c</title>
<!-- Node1 -->
<g id="node1" class="node"><title>Node1</title>
<polygon fill="#bfbfbf" stroke="black" points="67.7393,-59 67.7393,-103 198.261,-103 198.261,-59 67.7393,-59"/>
<text text-anchor="start" x="75.7393" y="-89" font-family="Helvetica,sans-Serif" font-size="10.00">/Users/tgil/git/CoAction</text>
<text text-anchor="start" x="75.7393" y="-77" font-family="Helvetica,sans-Serif" font-size="10.00">OS/CoActionOS/src/sys</text>
<text text-anchor="middle" x="133" y="-65" font-family="Helvetica,sans-Serif" font-size="10.00">/pthread/pthread_create.c</text>
</g>
<!-- Node2 -->
<g id="node2" class="node"><title>Node2</title>
<g id="a_node2"><a xlink:href="config_8h.html" target="_top" xlink:title="config.h">
<polygon fill="none" stroke="black" points="-0.512207,-1 -0.512207,-21 50.5122,-21 50.5122,-1 -0.512207,-1"/>
<text text-anchor="middle" x="25" y="-7" font-family="Helvetica,sans-Serif" font-size="10.00">config.h</text>
</a>
</g>
</g>
<!-- Node1&#45;&gt;Node2 -->
<g id="edge1" class="edge"><title>Node1&#45;&gt;Node2</title>
<path fill="none" stroke="midnightblue" d="M99.4201,-58.8571C82.7034,-48.3317 62.9247,-35.8785 47.9608,-26.4568"/>
<polygon fill="midnightblue" stroke="midnightblue" points="49.6635,-23.3929 39.3363,-21.0266 45.9338,-29.3166 49.6635,-23.3929"/>
</g>
<!-- Node3 -->
<g id="node3" class="node"><title>Node3</title>
<polygon fill="none" stroke="#bfbfbf" points="68.8721,-1 68.8721,-21 127.128,-21 127.128,-1 68.8721,-1"/>
<text text-anchor="middle" x="98" y="-7" font-family="Helvetica,sans-Serif" font-size="10.00">pthread.h</text>
</g>
<!-- Node1&#45;&gt;Node3 -->
<g id="edge2" class="edge"><title>Node1&#45;&gt;Node3</title>
<path fill="none" stroke="midnightblue" d="M122.118,-58.8571C117.394,-49.6792 111.915,-39.0355 107.375,-30.2141"/>
<polygon fill="midnightblue" stroke="midnightblue" points="110.426,-28.4935 102.737,-21.2039 104.202,-31.6971 110.426,-28.4935"/>
</g>
<!-- Node4 -->
<g id="node4" class="node"><title>Node4</title>
<polygon fill="none" stroke="#bfbfbf" points="145.158,-1 145.158,-21 192.842,-21 192.842,-1 145.158,-1"/>
<text text-anchor="middle" x="169" y="-7" font-family="Helvetica,sans-Serif" font-size="10.00">errno.h</text>
</g>
<!-- Node1&#45;&gt;Node4 -->
<g id="edge3" class="edge"><title>Node1&#45;&gt;Node4</title>
<path fill="none" stroke="midnightblue" d="M144.193,-58.8571C149.052,-49.6792 154.687,-39.0355 159.357,-30.2141"/>
<polygon fill="midnightblue" stroke="midnightblue" points="162.542,-31.6794 164.127,-21.2039 156.355,-28.4042 162.542,-31.6794"/>
</g>
<!-- Node5 -->
<g id="node5" class="node"><title>Node5</title>
<polygon fill="none" stroke="#bfbfbf" points="211.247,-1 211.247,-21 326.753,-21 326.753,-1 211.247,-1"/>
<text text-anchor="middle" x="269" y="-7" font-family="Helvetica,sans-Serif" font-size="10.00">../sched/sched_flags.h</text>
</g>
<!-- Node1&#45;&gt;Node5 -->
<g id="edge4" class="edge"><title>Node1&#45;&gt;Node5</title>
<path fill="none" stroke="midnightblue" d="M175.286,-58.8571C197.032,-47.9842 222.892,-35.054 241.933,-25.5336"/>
<polygon fill="midnightblue" stroke="midnightblue" points="243.568,-28.6293 250.947,-21.0266 240.437,-22.3683 243.568,-28.6293"/>
</g>
</g>
</svg>
