<?xml version="1.0" encoding="UTF-8" standalone="no"?>
<!DOCTYPE svg PUBLIC "-//W3C//DTD SVG 1.1//EN"
 "http://www.w3.org/Graphics/SVG/1.1/DTD/svg11.dtd">
<!-- Generated by graphviz version 2.34.0 (20130907.0228)
 -->
<!-- Title: /Users/tgil/git/CoActionOS/CoActionOS/src/sys/pthread/pthread_self.c Pages: 1 -->
<svg width="474pt" height="228pt"
 viewBox="0.00 0.00 474.03 228.00" xmlns="http://www.w3.org/2000/svg" xmlns:xlink="http://www.w3.org/1999/xlink">
<g id="graph0" class="graph" transform="scale(1 1) rotate(0) translate(4 224)">
<title>/Users/tgil/git/CoActionOS/CoActionOS/src/sys/pthread/pthread_self.c</title>
<!-- Node1 -->
<g id="node1" class="node"><title>Node1</title>
<polygon fill="#bfbfbf" stroke="black" points="146.043,-175 146.043,-219 268.181,-219 268.181,-175 146.043,-175"/>
<text text-anchor="start" x="154.043" y="-205" font-family="Helvetica,sans-Serif" font-size="10.00">/Users/tgil/git/CoAction</text>
<text text-anchor="start" x="154.043" y="-193" font-family="Helvetica,sans-Serif" font-size="10.00">OS/CoActionOS/src/sys</text>
<text text-anchor="middle" x="207.112" y="-181" font-family="Helvetica,sans-Serif" font-size="10.00">/pthread/pthread_self.c</text>
</g>
<!-- Node2 -->
<g id="node2" class="node"><title>Node2</title>
<polygon fill="none" stroke="#bfbfbf" points="107.984,-117 107.984,-137 166.24,-137 166.24,-117 107.984,-117"/>
<text text-anchor="middle" x="137.112" y="-123" font-family="Helvetica,sans-Serif" font-size="10.00">pthread.h</text>
</g>
<!-- Node1&#45;&gt;Node2 -->
<g id="edge1" class="edge"><title>Node1&#45;&gt;Node2</title>
<path fill="none" stroke="midnightblue" d="M185.347,-174.857C175.189,-164.988 163.285,-153.425 153.845,-144.255"/>
<polygon fill="midnightblue" stroke="midnightblue" points="156.198,-141.661 146.587,-137.204 151.321,-146.682 156.198,-141.661"/>
</g>
<!-- Node3 -->
<g id="node3" class="node"><title>Node3</title>
<g id="a_node3"><a xlink:href="hwpl_8h.html" target="_top" xlink:title="HWPL Header file (includes all other header files) ">
<polygon fill="none" stroke="black" points="184.659,-117 184.659,-137 229.565,-137 229.565,-117 184.659,-117"/>
<text text-anchor="middle" x="207.112" y="-123" font-family="Helvetica,sans-Serif" font-size="10.00">hwpl.h</text>
</a>
</g>
</g>
<!-- Node1&#45;&gt;Node3 -->
<g id="edge2" class="edge"><title>Node1&#45;&gt;Node3</title>
<path fill="none" stroke="midnightblue" d="M207.112,-174.857C207.112,-166.074 207.112,-155.948 207.112,-147.362"/>
<polygon fill="midnightblue" stroke="midnightblue" points="210.612,-147.204 207.112,-137.204 203.612,-147.204 210.612,-147.204"/>
</g>
<!-- Node12 -->
<g id="node12" class="node"><title>Node12</title>
<polygon fill="none" stroke="#bfbfbf" points="247.1,-117 247.1,-137 313.124,-137 313.124,-117 247.1,-117"/>
<text text-anchor="middle" x="280.112" y="-123" font-family="Helvetica,sans-Serif" font-size="10.00">hwpl/task.h</text>
</g>
<!-- Node1&#45;&gt;Node12 -->
<g id="edge13" class="edge"><title>Node1&#45;&gt;Node12</title>
<path fill="none" stroke="midnightblue" d="M229.81,-174.857C240.404,-164.988 252.818,-153.425 262.663,-144.255"/>
<polygon fill="midnightblue" stroke="midnightblue" points="265.3,-146.581 270.232,-137.204 260.529,-141.459 265.3,-146.581"/>
</g>
<!-- Node4 -->
<g id="node4" class="node"><title>Node4</title>
<polygon fill="none" stroke="#bfbfbf" points="56.9916,-1 56.9916,-21 105.233,-21 105.233,-1 56.9916,-1"/>
<text text-anchor="middle" x="81.1122" y="-7" font-family="Helvetica,sans-Serif" font-size="10.00">stdint.h</text>
</g>
<!-- Node3&#45;&gt;Node4 -->
<g id="edge3" class="edge"><title>Node3&#45;&gt;Node4</title>
<path fill="none" stroke="midnightblue" d="M184.463,-118.632C181.335,-117.7 178.153,-116.795 175.112,-116 100.394,-96.4603 53.7381,-140.001 5.11221,-80 -12.2384,-58.5904 19.604,-38.0777 47.2345,-25.2856"/>
<polygon fill="midnightblue" stroke="midnightblue" points="49.0055,-28.33 56.7446,-21.0941 46.1823,-21.9245 49.0055,-28.33"/>
</g>
<!-- Node5 -->
<g id="node5" class="node"><title>Node5</title>
<polygon fill="none" stroke="#bfbfbf" points="14.2699,-59 14.2699,-79 61.9545,-79 61.9545,-59 14.2699,-59"/>
<text text-anchor="middle" x="38.1122" y="-65" font-family="Helvetica,sans-Serif" font-size="10.00">stdlib.h</text>
</g>
<!-- Node3&#45;&gt;Node5 -->
<g id="edge4" class="edge"><title>Node3&#45;&gt;Node5</title>
<path fill="none" stroke="midnightblue" d="M184.32,-118.448C155.416,-108.87 105.331,-92.2736 71.9563,-81.2146"/>
<polygon fill="midnightblue" stroke="midnightblue" points="72.7705,-77.7973 62.1771,-77.9742 70.5686,-84.442 72.7705,-77.7973"/>
</g>
<!-- Node6 -->
<g id="node6" class="node"><title>Node6</title>
<polygon fill="none" stroke="#bfbfbf" points="79.7157,-59 79.7157,-79 128.509,-79 128.509,-59 79.7157,-59"/>
<text text-anchor="middle" x="104.112" y="-65" font-family="Helvetica,sans-Serif" font-size="10.00">string.h</text>
</g>
<!-- Node3&#45;&gt;Node6 -->
<g id="edge5" class="edge"><title>Node3&#45;&gt;Node6</title>
<path fill="none" stroke="midnightblue" d="M190.104,-116.753C173.68,-107.823 148.595,-94.1848 129.75,-83.9388"/>
<polygon fill="midnightblue" stroke="midnightblue" points="131.261,-80.7769 120.804,-79.0752 127.918,-86.9267 131.261,-80.7769"/>
</g>
<!-- Node7 -->
<g id="node7" class="node"><title>Node7</title>
<polygon fill="none" stroke="#bfbfbf" points="146.381,-59 146.381,-79 191.844,-79 191.844,-59 146.381,-59"/>
<text text-anchor="middle" x="169.112" y="-65" font-family="Helvetica,sans-Serif" font-size="10.00">stdio.h</text>
</g>
<!-- Node3&#45;&gt;Node7 -->
<g id="edge6" class="edge"><title>Node3&#45;&gt;Node7</title>
<path fill="none" stroke="midnightblue" d="M200.837,-116.753C195.47,-108.843 187.595,-97.2372 181.034,-87.5683"/>
<polygon fill="midnightblue" stroke="midnightblue" points="183.782,-85.3847 175.27,-79.0752 177.989,-89.3152 183.782,-85.3847"/>
</g>
<!-- Node8 -->
<g id="node8" class="node"><title>Node8</title>
<polygon fill="none" stroke="#bfbfbf" points="334.819,-1 334.819,-21 391.405,-21 391.405,-1 334.819,-1"/>
<text text-anchor="middle" x="363.112" y="-7" font-family="Helvetica,sans-Serif" font-size="10.00">stdbool.h</text>
</g>
<!-- Node3&#45;&gt;Node8 -->
<g id="edge7" class="edge"><title>Node3&#45;&gt;Node8</title>
<path fill="none" stroke="midnightblue" d="M229.687,-118.282C232.506,-117.447 235.363,-116.662 238.112,-116 286.7,-104.295 427.724,-118.063 460.112,-80 481.736,-54.5871 436.989,-34.0727 401.313,-22.4554"/>
<polygon fill="midnightblue" stroke="midnightblue" points="402.143,-19.048 391.554,-19.4179 400.062,-25.7317 402.143,-19.048"/>
</g>
<!-- Node9 -->
<g id="node9" class="node"><title>Node9</title>
<polygon fill="none" stroke="#bfbfbf" points="299.819,-59 299.819,-79 366.405,-79 366.405,-59 299.819,-59"/>
<text text-anchor="middle" x="333.112" y="-65" font-family="Helvetica,sans-Serif" font-size="10.00">hwpl/fault.h</text>
</g>
<!-- Node3&#45;&gt;Node9 -->
<g id="edge8" class="edge"><title>Node3&#45;&gt;Node9</title>
<path fill="none" stroke="midnightblue" d="M227.637,-116.878C248.138,-107.766 279.873,-93.6617 303.181,-83.3028"/>
<polygon fill="midnightblue" stroke="midnightblue" points="304.88,-86.3779 312.596,-79.1181 302.037,-79.9812 304.88,-86.3779"/>
</g>
<!-- Node10 -->
<g id="node10" class="node"><title>Node10</title>
<polygon fill="none" stroke="#bfbfbf" points="384.543,-59 384.543,-79 451.681,-79 451.681,-59 384.543,-59"/>
<text text-anchor="middle" x="418.112" y="-65" font-family="Helvetica,sans-Serif" font-size="10.00">hwpl/arch.h</text>
</g>
<!-- Node3&#45;&gt;Node10 -->
<g id="edge9" class="edge"><title>Node3&#45;&gt;Node10</title>
<path fill="none" stroke="midnightblue" d="M229.749,-118.519C232.558,-117.644 235.396,-116.784 238.112,-116 284.424,-102.627 338.008,-89.1906 374.591,-80.3227"/>
<polygon fill="midnightblue" stroke="midnightblue" points="375.538,-83.6947 384.438,-77.9465 373.896,-76.89 375.538,-83.6947"/>
</g>
<!-- Node11 -->
<g id="node11" class="node"><title>Node11</title>
<g id="a_node11"><a xlink:href="types_8h_source.html" target="_top" xlink:title="hwpl/types.h">
<polygon fill="none" stroke="black" points="210.319,-59 210.319,-79 281.905,-79 281.905,-59 210.319,-59"/>
<text text-anchor="middle" x="246.112" y="-65" font-family="Helvetica,sans-Serif" font-size="10.00">hwpl/types.h</text>
</a>
</g>
</g>
<!-- Node3&#45;&gt;Node11 -->
<g id="edge10" class="edge"><title>Node3&#45;&gt;Node11</title>
<path fill="none" stroke="midnightblue" d="M213.552,-116.753C219.061,-108.843 227.143,-97.2372 233.877,-87.5683"/>
<polygon fill="midnightblue" stroke="midnightblue" points="236.949,-89.2815 239.792,-79.0752 231.205,-85.281 236.949,-89.2815"/>
</g>
<!-- Node11&#45;&gt;Node4 -->
<g id="edge11" class="edge"><title>Node11&#45;&gt;Node4</title>
<path fill="none" stroke="midnightblue" d="M219.235,-58.878C190.724,-49.2017 145.625,-33.8953 114.769,-23.4231"/>
<polygon fill="midnightblue" stroke="midnightblue" points="115.885,-20.1058 105.291,-20.2061 113.636,-26.7344 115.885,-20.1058"/>
</g>
<!-- Node11&#45;&gt;Node8 -->
<g id="edge12" class="edge"><title>Node11&#45;&gt;Node8</title>
<path fill="none" stroke="midnightblue" d="M265.171,-58.878C284.123,-49.8068 313.413,-35.7876 335.028,-25.4418"/>
<polygon fill="midnightblue" stroke="midnightblue" points="336.553,-28.5925 344.062,-21.1181 333.531,-22.2784 336.553,-28.5925"/>
</g>
</g>
</svg>
