<?xml version="1.0" encoding="UTF-8" standalone="no"?>
<!DOCTYPE svg PUBLIC "-//W3C//DTD SVG 1.1//EN"
 "http://www.w3.org/Graphics/SVG/1.1/DTD/svg11.dtd">
<!-- Generated by graphviz version 2.34.0 (20130907.0228)
 -->
<!-- Title: /Users/tgil/git/CoActionOS/CoActionOS/src/sys/pthread/pthread_attr.c Pages: 1 -->
<svg width="498pt" height="112pt"
 viewBox="0.00 0.00 498.00 112.00" xmlns="http://www.w3.org/2000/svg" xmlns:xlink="http://www.w3.org/1999/xlink">
<g id="graph0" class="graph" transform="scale(1 1) rotate(0) translate(4 108)">
<title>/Users/tgil/git/CoActionOS/CoActionOS/src/sys/pthread/pthread_attr.c</title>
<!-- Node1 -->
<g id="node1" class="node"><title>Node1</title>
<polygon fill="#bfbfbf" stroke="black" points="203.931,-59 203.931,-103 326.069,-103 326.069,-59 203.931,-59"/>
<text text-anchor="start" x="211.931" y="-89" font-family="Helvetica,sans-Serif" font-size="10.00">/Users/tgil/git/CoAction</text>
<text text-anchor="start" x="211.931" y="-77" font-family="Helvetica,sans-Serif" font-size="10.00">OS/CoActionOS/src/sys</text>
<text text-anchor="middle" x="265" y="-65" font-family="Helvetica,sans-Serif" font-size="10.00">/pthread/pthread_attr.c</text>
</g>
<!-- Node2 -->
<g id="node2" class="node"><title>Node2</title>
<g id="a_node2"><a xlink:href="config_8h.html" target="_top" xlink:title="config.h">
<polygon fill="none" stroke="black" points="-0.512207,-1 -0.512207,-21 50.5122,-21 50.5122,-1 -0.512207,-1"/>
<text text-anchor="middle" x="25" y="-7" font-family="Helvetica,sans-Serif" font-size="10.00">config.h</text>
</a>
</g>
</g>
<!-- Node1&#45;&gt;Node2 -->
<g id="edge1" class="edge"><title>Node1&#45;&gt;Node2</title>
<path fill="none" stroke="midnightblue" d="M203.541,-62.6563C165.121,-51.8038 114.349,-37.4434 60.368,-22.0998"/>
<polygon fill="midnightblue" stroke="midnightblue" points="61.188,-18.6943 50.612,-19.326 59.2736,-25.4274 61.188,-18.6943"/>
</g>
<!-- Node3 -->
<g id="node3" class="node"><title>Node3</title>
<polygon fill="none" stroke="#bfbfbf" points="68.8745,-1 68.8745,-21 147.125,-21 147.125,-1 68.8745,-1"/>
<text text-anchor="middle" x="108" y="-7" font-family="Helvetica,sans-Serif" font-size="10.00">sys/features.h</text>
</g>
<!-- Node1&#45;&gt;Node3 -->
<g id="edge2" class="edge"><title>Node1&#45;&gt;Node3</title>
<path fill="none" stroke="midnightblue" d="M216.185,-58.8571C190.623,-47.7856 160.136,-34.581 138.05,-25.0154"/>
<polygon fill="midnightblue" stroke="midnightblue" points="139.408,-21.7894 128.841,-21.0266 136.626,-28.2128 139.408,-21.7894"/>
</g>
<!-- Node4 -->
<g id="node4" class="node"><title>Node4</title>
<polygon fill="none" stroke="#bfbfbf" points="164.872,-1 164.872,-21 223.128,-21 223.128,-1 164.872,-1"/>
<text text-anchor="middle" x="194" y="-7" font-family="Helvetica,sans-Serif" font-size="10.00">pthread.h</text>
</g>
<!-- Node1&#45;&gt;Node4 -->
<g id="edge3" class="edge"><title>Node1&#45;&gt;Node4</title>
<path fill="none" stroke="midnightblue" d="M242.924,-58.8571C232.62,-48.9884 220.547,-37.425 210.972,-28.2545"/>
<polygon fill="midnightblue" stroke="midnightblue" points="213.253,-25.5931 203.61,-21.2039 208.411,-30.6485 213.253,-25.5931"/>
</g>
<!-- Node5 -->
<g id="node5" class="node"><title>Node5</title>
<polygon fill="none" stroke="#bfbfbf" points="241.158,-1 241.158,-21 288.842,-21 288.842,-1 241.158,-1"/>
<text text-anchor="middle" x="265" y="-7" font-family="Helvetica,sans-Serif" font-size="10.00">stdlib.h</text>
</g>
<!-- Node1&#45;&gt;Node5 -->
<g id="edge4" class="edge"><title>Node1&#45;&gt;Node5</title>
<path fill="none" stroke="midnightblue" d="M265,-58.8571C265,-50.074 265,-39.9484 265,-31.3622"/>
<polygon fill="midnightblue" stroke="midnightblue" points="268.5,-31.2039 265,-21.2039 261.5,-31.204 268.5,-31.2039"/>
</g>
<!-- Node6 -->
<g id="node6" class="node"><title>Node6</title>
<polygon fill="none" stroke="#bfbfbf" points="307.158,-1 307.158,-21 354.842,-21 354.842,-1 307.158,-1"/>
<text text-anchor="middle" x="331" y="-7" font-family="Helvetica,sans-Serif" font-size="10.00">errno.h</text>
</g>
<!-- Node1&#45;&gt;Node6 -->
<g id="edge5" class="edge"><title>Node1&#45;&gt;Node6</title>
<path fill="none" stroke="midnightblue" d="M285.521,-58.8571C295.004,-49.0871 306.099,-37.6561 314.956,-28.5303"/>
<polygon fill="midnightblue" stroke="midnightblue" points="317.614,-30.8174 322.067,-21.2039 312.59,-25.9421 317.614,-30.8174"/>
</g>
<!-- Node7 -->
<g id="node7" class="node"><title>Node7</title>
<polygon fill="none" stroke="#bfbfbf" points="372.604,-1 372.604,-21 421.396,-21 421.396,-1 372.604,-1"/>
<text text-anchor="middle" x="397" y="-7" font-family="Helvetica,sans-Serif" font-size="10.00">string.h</text>
</g>
<!-- Node1&#45;&gt;Node7 -->
<g id="edge6" class="edge"><title>Node1&#45;&gt;Node7</title>
<path fill="none" stroke="midnightblue" d="M306.042,-58.8571C327.052,-48.0339 352.019,-35.1721 370.475,-25.6643"/>
<polygon fill="midnightblue" stroke="midnightblue" points="372.191,-28.7176 379.478,-21.0266 368.985,-22.4948 372.191,-28.7176"/>
</g>
<!-- Node8 -->
<g id="node8" class="node"><title>Node8</title>
<polygon fill="none" stroke="#bfbfbf" points="439.488,-1 439.488,-21 490.512,-21 490.512,-1 439.488,-1"/>
<text text-anchor="middle" x="465" y="-7" font-family="Helvetica,sans-Serif" font-size="10.00">sched.h</text>
</g>
<!-- Node1&#45;&gt;Node8 -->
<g id="edge7" class="edge"><title>Node1&#45;&gt;Node8</title>
<path fill="none" stroke="midnightblue" d="M326.093,-59.2283C360.107,-47.6637 401.235,-33.6801 429.874,-23.9429"/>
<polygon fill="midnightblue" stroke="midnightblue" points="431.11,-27.2195 439.451,-20.6867 428.856,-20.5921 431.11,-27.2195"/>
</g>
</g>
</svg>
