<?xml version="1.0" encoding="UTF-8" standalone="no"?>
<!DOCTYPE svg PUBLIC "-//W3C//DTD SVG 1.1//EN"
 "http://www.w3.org/Graphics/SVG/1.1/DTD/svg11.dtd">
<!-- Generated by graphviz version 2.34.0 (20130907.0228)
 -->
<!-- Title: /Users/tgil/git/CoActionOS/CoActionOS/src/sys/pwd/pwd.c Pages: 1 -->
<svg width="130pt" height="112pt"
 viewBox="0.00 0.00 130.00 112.00" xmlns="http://www.w3.org/2000/svg" xmlns:xlink="http://www.w3.org/1999/xlink">
<g id="graph0" class="graph" transform="scale(1 1) rotate(0) translate(4 108)">
<title>/Users/tgil/git/CoActionOS/CoActionOS/src/sys/pwd/pwd.c</title>
<!-- Node1 -->
<g id="node1" class="node"><title>Node1</title>
<polygon fill="#bfbfbf" stroke="black" points="-0.0688477,-59 -0.0688477,-103 122.069,-103 122.069,-59 -0.0688477,-59"/>
<text text-anchor="start" x="7.93115" y="-89" font-family="Helvetica,sans-Serif" font-size="10.00">/Users/tgil/git/CoAction</text>
<text text-anchor="start" x="7.93115" y="-77" font-family="Helvetica,sans-Serif" font-size="10.00">OS/CoActionOS/src/sys</text>
<text text-anchor="middle" x="61" y="-65" font-family="Helvetica,sans-Serif" font-size="10.00">/pwd/pwd.c</text>
</g>
<!-- Node2 -->
<g id="node2" class="node"><title>Node2</title>
<polygon fill="none" stroke="#bfbfbf" points="8.65771,-1 8.65771,-21 51.3423,-21 51.3423,-1 8.65771,-1"/>
<text text-anchor="middle" x="30" y="-7" font-family="Helvetica,sans-Serif" font-size="10.00">pwd.h</text>
</g>
<!-- Node1&#45;&gt;Node2 -->
<g id="edge1" class="edge"><title>Node1&#45;&gt;Node2</title>
<path fill="none" stroke="midnightblue" d="M51.3613,-58.8571C47.2223,-49.7779 42.4293,-39.2643 38.4335,-30.4993"/>
<polygon fill="midnightblue" stroke="midnightblue" points="41.5288,-28.8512 34.1959,-21.2039 35.1594,-31.7549 41.5288,-28.8512"/>
</g>
<!-- Node3 -->
<g id="node3" class="node"><title>Node3</title>
<polygon fill="none" stroke="#bfbfbf" points="69.1577,-1 69.1577,-21 116.842,-21 116.842,-1 69.1577,-1"/>
<text text-anchor="middle" x="93" y="-7" font-family="Helvetica,sans-Serif" font-size="10.00">errno.h</text>
</g>
<!-- Node1&#45;&gt;Node3 -->
<g id="edge2" class="edge"><title>Node1&#45;&gt;Node3</title>
<path fill="none" stroke="midnightblue" d="M70.9496,-58.8571C75.2222,-49.7779 80.1698,-39.2643 84.2945,-30.4993"/>
<polygon fill="midnightblue" stroke="midnightblue" points="87.5776,-31.7424 88.6687,-21.2039 81.2438,-28.7618 87.5776,-31.7424"/>
</g>
</g>
</svg>
