<?xml version="1.0" encoding="UTF-8" standalone="no"?>
<!DOCTYPE svg PUBLIC "-//W3C//DTD SVG 1.1//EN"
 "http://www.w3.org/Graphics/SVG/1.1/DTD/svg11.dtd">
<!-- Generated by graphviz version 2.34.0 (20130907.0228)
 -->
<!-- Title: /Users/tgil/git/CoActionOS/CoActionOS/include/dev/rtc.h Pages: 1 -->
<svg width="262pt" height="112pt"
 viewBox="0.00 0.00 262.00 112.00" xmlns="http://www.w3.org/2000/svg" xmlns:xlink="http://www.w3.org/1999/xlink">
<g id="graph0" class="graph" transform="scale(1 1) rotate(0) translate(4 108)">
<title>/Users/tgil/git/CoActionOS/CoActionOS/include/dev/rtc.h</title>
<!-- Node1 -->
<g id="node1" class="node"><title>Node1</title>
<polygon fill="#bfbfbf" stroke="black" points="54.6406,-59 54.6406,-103 177.359,-103 177.359,-59 54.6406,-59"/>
<text text-anchor="start" x="62.6406" y="-89" font-family="Helvetica,sans-Serif" font-size="10.00">/Users/tgil/git/CoAction</text>
<text text-anchor="start" x="62.6406" y="-77" font-family="Helvetica,sans-Serif" font-size="10.00">OS/CoActionOS/include</text>
<text text-anchor="middle" x="116" y="-65" font-family="Helvetica,sans-Serif" font-size="10.00">/dev/rtc.h</text>
</g>
<!-- Node2 -->
<g id="node2" class="node"><title>Node2</title>
<polygon fill="none" stroke="#bfbfbf" points="-0.615723,-1 -0.615723,-21 42.6157,-21 42.6157,-1 -0.615723,-1"/>
<text text-anchor="middle" x="21" y="-7" font-family="Helvetica,sans-Serif" font-size="10.00">time.h</text>
</g>
<!-- Node1&#45;&gt;Node2 -->
<g id="edge1" class="edge"><title>Node1&#45;&gt;Node2</title>
<path fill="none" stroke="midnightblue" d="M86.4622,-58.8571C72.1235,-48.5937 55.224,-36.4972 42.1875,-27.1658"/>
<polygon fill="midnightblue" stroke="midnightblue" points="44.0272,-24.1784 33.8584,-21.2039 39.9528,-29.8705 44.0272,-24.1784"/>
</g>
<!-- Node3 -->
<g id="node3" class="node"><title>Node3</title>
<polygon fill="none" stroke="#bfbfbf" points="60.8794,-1 60.8794,-21 109.121,-21 109.121,-1 60.8794,-1"/>
<text text-anchor="middle" x="85" y="-7" font-family="Helvetica,sans-Serif" font-size="10.00">stdint.h</text>
</g>
<!-- Node1&#45;&gt;Node3 -->
<g id="edge2" class="edge"><title>Node1&#45;&gt;Node3</title>
<path fill="none" stroke="midnightblue" d="M106.361,-58.8571C102.222,-49.7779 97.4293,-39.2643 93.4335,-30.4993"/>
<polygon fill="midnightblue" stroke="midnightblue" points="96.5288,-28.8512 89.1959,-21.2039 90.1594,-31.7549 96.5288,-28.8512"/>
</g>
<!-- Node4 -->
<g id="node4" class="node"><title>Node4</title>
<g id="a_node4"><a xlink:href="ioctl_8h_source.html" target="_top" xlink:title="ioctl.h">
<polygon fill="none" stroke="black" points="126.938,-1 126.938,-21 169.062,-21 169.062,-1 126.938,-1"/>
<text text-anchor="middle" x="148" y="-7" font-family="Helvetica,sans-Serif" font-size="10.00">ioctl.h</text>
</a>
</g>
</g>
<!-- Node1&#45;&gt;Node4 -->
<g id="edge3" class="edge"><title>Node1&#45;&gt;Node4</title>
<path fill="none" stroke="midnightblue" d="M125.95,-58.8571C130.222,-49.7779 135.17,-39.2643 139.294,-30.4993"/>
<polygon fill="midnightblue" stroke="midnightblue" points="142.578,-31.7424 143.669,-21.2039 136.244,-28.7618 142.578,-31.7424"/>
</g>
<!-- Node5 -->
<g id="node5" class="node"><title>Node5</title>
<polygon fill="none" stroke="#bfbfbf" points="187.431,-1 187.431,-21 254.569,-21 254.569,-1 187.431,-1"/>
<text text-anchor="middle" x="221" y="-7" font-family="Helvetica,sans-Serif" font-size="10.00">hwpl/arch.h</text>
</g>
<!-- Node1&#45;&gt;Node5 -->
<g id="edge4" class="edge"><title>Node1&#45;&gt;Node5</title>
<path fill="none" stroke="midnightblue" d="M148.647,-58.8571C164.746,-48.431 183.766,-36.1133 198.264,-26.7243"/>
<polygon fill="midnightblue" stroke="midnightblue" points="200.571,-29.4002 207.062,-21.0266 196.766,-23.5247 200.571,-29.4002"/>
</g>
</g>
</svg>
