<?xml version="1.0" encoding="UTF-8" standalone="no"?>
<!DOCTYPE svg PUBLIC "-//W3C//DTD SVG 1.1//EN"
 "http://www.w3.org/Graphics/SVG/1.1/DTD/svg11.dtd">
<!-- Generated by graphviz version 2.34.0 (20130907.0228)
 -->
<!-- Title: /Users/tgil/git/CoActionOS/CoActionOS/src/sys/sched/sched_posix.c Pages: 1 -->
<svg width="491pt" height="228pt"
 viewBox="0.00 0.00 490.92 228.00" xmlns="http://www.w3.org/2000/svg" xmlns:xlink="http://www.w3.org/1999/xlink">
<g id="graph0" class="graph" transform="scale(1 1) rotate(0) translate(4 224)">
<title>/Users/tgil/git/CoActionOS/CoActionOS/src/sys/sched/sched_posix.c</title>
<!-- Node1 -->
<g id="node1" class="node"><title>Node1</title>
<polygon fill="#bfbfbf" stroke="black" points="99.9312,-175 99.9312,-219 222.069,-219 222.069,-175 99.9312,-175"/>
<text text-anchor="start" x="107.931" y="-205" font-family="Helvetica,sans-Serif" font-size="10.00">/Users/tgil/git/CoAction</text>
<text text-anchor="start" x="107.931" y="-193" font-family="Helvetica,sans-Serif" font-size="10.00">OS/CoActionOS/src/sys</text>
<text text-anchor="middle" x="161" y="-181" font-family="Helvetica,sans-Serif" font-size="10.00">/sched/sched_posix.c</text>
</g>
<!-- Node2 -->
<g id="node2" class="node"><title>Node2</title>
<g id="a_node2"><a xlink:href="config_8h.html" target="_top" xlink:title="config.h">
<polygon fill="none" stroke="black" points="-0.512207,-117 -0.512207,-137 50.5122,-137 50.5122,-117 -0.512207,-117"/>
<text text-anchor="middle" x="25" y="-123" font-family="Helvetica,sans-Serif" font-size="10.00">config.h</text>
</a>
</g>
</g>
<!-- Node1&#45;&gt;Node2 -->
<g id="edge1" class="edge"><title>Node1&#45;&gt;Node2</title>
<path fill="none" stroke="midnightblue" d="M118.714,-174.857C96.9684,-163.984 71.1081,-151.054 52.0673,-141.534"/>
<polygon fill="midnightblue" stroke="midnightblue" points="53.5627,-138.368 43.0532,-137.027 50.4322,-144.629 53.5627,-138.368"/>
</g>
<!-- Node3 -->
<g id="node3" class="node"><title>Node3</title>
<polygon fill="none" stroke="#bfbfbf" points="68.4878,-117 68.4878,-137 119.512,-137 119.512,-117 68.4878,-117"/>
<text text-anchor="middle" x="94" y="-123" font-family="Helvetica,sans-Serif" font-size="10.00">sched.h</text>
</g>
<!-- Node1&#45;&gt;Node3 -->
<g id="edge2" class="edge"><title>Node1&#45;&gt;Node3</title>
<path fill="none" stroke="midnightblue" d="M140.168,-174.857C130.542,-165.087 119.279,-153.656 110.287,-144.53"/>
<polygon fill="midnightblue" stroke="midnightblue" points="112.58,-141.871 103.069,-137.204 107.594,-146.784 112.58,-141.871"/>
</g>
<!-- Node4 -->
<g id="node4" class="node"><title>Node4</title>
<polygon fill="none" stroke="#bfbfbf" points="137.158,-117 137.158,-137 184.842,-137 184.842,-117 137.158,-117"/>
<text text-anchor="middle" x="161" y="-123" font-family="Helvetica,sans-Serif" font-size="10.00">errno.h</text>
</g>
<!-- Node1&#45;&gt;Node4 -->
<g id="edge3" class="edge"><title>Node1&#45;&gt;Node4</title>
<path fill="none" stroke="midnightblue" d="M161,-174.857C161,-166.074 161,-155.948 161,-147.362"/>
<polygon fill="midnightblue" stroke="midnightblue" points="164.5,-147.204 161,-137.204 157.5,-147.204 164.5,-147.204"/>
</g>
<!-- Node5 -->
<g id="node5" class="node"><title>Node5</title>
<g id="a_node5"><a xlink:href="hwpl_8h.html" target="_top" xlink:title="HWPL Header file (includes all other header files) ">
<polygon fill="none" stroke="black" points="202.547,-117 202.547,-137 247.453,-137 247.453,-117 202.547,-117"/>
<text text-anchor="middle" x="225" y="-123" font-family="Helvetica,sans-Serif" font-size="10.00">hwpl.h</text>
</a>
</g>
</g>
<!-- Node1&#45;&gt;Node5 -->
<g id="edge4" class="edge"><title>Node1&#45;&gt;Node5</title>
<path fill="none" stroke="midnightblue" d="M180.899,-174.857C190.094,-165.087 200.853,-153.656 209.442,-144.53"/>
<polygon fill="midnightblue" stroke="midnightblue" points="212.033,-146.885 216.337,-137.204 206.935,-142.087 212.033,-146.885"/>
</g>
<!-- Node14 -->
<g id="node14" class="node"><title>Node14</title>
<polygon fill="none" stroke="#bfbfbf" points="265.146,-117 265.146,-137 342.854,-137 342.854,-117 265.146,-117"/>
<text text-anchor="middle" x="304" y="-123" font-family="Helvetica,sans-Serif" font-size="10.00">sched_flags.h</text>
</g>
<!-- Node1&#45;&gt;Node14 -->
<g id="edge15" class="edge"><title>Node1&#45;&gt;Node14</title>
<path fill="none" stroke="midnightblue" d="M205.462,-174.857C228.432,-163.935 255.767,-150.936 275.813,-141.403"/>
<polygon fill="midnightblue" stroke="midnightblue" points="277.49,-144.482 285.018,-137.027 274.484,-138.16 277.49,-144.482"/>
</g>
<!-- Node6 -->
<g id="node6" class="node"><title>Node6</title>
<polygon fill="none" stroke="#bfbfbf" points="73.8794,-1 73.8794,-21 122.121,-21 122.121,-1 73.8794,-1"/>
<text text-anchor="middle" x="98" y="-7" font-family="Helvetica,sans-Serif" font-size="10.00">stdint.h</text>
</g>
<!-- Node5&#45;&gt;Node6 -->
<g id="edge5" class="edge"><title>Node5&#45;&gt;Node6</title>
<path fill="none" stroke="midnightblue" d="M202.351,-118.629C199.223,-117.697 196.041,-116.793 193,-116 117.849,-96.3948 70.9354,-140.31 22,-80 4.63674,-58.6007 36.4819,-38.0857 64.1165,-25.2903"/>
<polygon fill="midnightblue" stroke="midnightblue" points="65.8893,-28.3339 73.628,-21.0976 63.0658,-21.9286 65.8893,-28.3339"/>
</g>
<!-- Node7 -->
<g id="node7" class="node"><title>Node7</title>
<polygon fill="none" stroke="#bfbfbf" points="31.1577,-59 31.1577,-79 78.8423,-79 78.8423,-59 31.1577,-59"/>
<text text-anchor="middle" x="55" y="-65" font-family="Helvetica,sans-Serif" font-size="10.00">stdlib.h</text>
</g>
<!-- Node5&#45;&gt;Node7 -->
<g id="edge6" class="edge"><title>Node5&#45;&gt;Node7</title>
<path fill="none" stroke="midnightblue" d="M202.425,-118.564C173.368,-108.992 122.619,-92.2745 88.9115,-81.1709"/>
<polygon fill="midnightblue" stroke="midnightblue" points="89.6336,-77.7238 79.0405,-77.9192 87.4434,-84.3723 89.6336,-77.7238"/>
</g>
<!-- Node8 -->
<g id="node8" class="node"><title>Node8</title>
<polygon fill="none" stroke="#bfbfbf" points="96.6035,-59 96.6035,-79 145.396,-79 145.396,-59 96.6035,-59"/>
<text text-anchor="middle" x="121" y="-65" font-family="Helvetica,sans-Serif" font-size="10.00">string.h</text>
</g>
<!-- Node5&#45;&gt;Node8 -->
<g id="edge7" class="edge"><title>Node5&#45;&gt;Node8</title>
<path fill="none" stroke="midnightblue" d="M207.827,-116.753C191.243,-107.823 165.915,-94.1848 146.886,-83.9388"/>
<polygon fill="midnightblue" stroke="midnightblue" points="148.318,-80.7346 137.854,-79.0752 144.999,-86.8979 148.318,-80.7346"/>
</g>
<!-- Node9 -->
<g id="node9" class="node"><title>Node9</title>
<polygon fill="none" stroke="#bfbfbf" points="163.269,-59 163.269,-79 208.731,-79 208.731,-59 163.269,-59"/>
<text text-anchor="middle" x="186" y="-65" font-family="Helvetica,sans-Serif" font-size="10.00">stdio.h</text>
</g>
<!-- Node5&#45;&gt;Node9 -->
<g id="edge8" class="edge"><title>Node5&#45;&gt;Node9</title>
<path fill="none" stroke="midnightblue" d="M218.56,-116.753C213.051,-108.843 204.969,-97.2372 198.235,-87.5683"/>
<polygon fill="midnightblue" stroke="midnightblue" points="200.907,-85.281 192.32,-79.0752 195.163,-89.2815 200.907,-85.281"/>
</g>
<!-- Node10 -->
<g id="node10" class="node"><title>Node10</title>
<polygon fill="none" stroke="#bfbfbf" points="351.707,-1 351.707,-21 408.293,-21 408.293,-1 351.707,-1"/>
<text text-anchor="middle" x="380" y="-7" font-family="Helvetica,sans-Serif" font-size="10.00">stdbool.h</text>
</g>
<!-- Node5&#45;&gt;Node10 -->
<g id="edge9" class="edge"><title>Node5&#45;&gt;Node10</title>
<path fill="none" stroke="midnightblue" d="M247.575,-118.284C250.394,-117.449 253.251,-116.663 256,-116 304.37,-104.329 444.768,-117.908 477,-80 498.615,-54.5794 453.87,-34.0671 418.197,-22.4523"/>
<polygon fill="midnightblue" stroke="midnightblue" points="419.028,-19.0451 408.439,-19.4156 416.947,-25.729 419.028,-19.0451"/>
</g>
<!-- Node11 -->
<g id="node11" class="node"><title>Node11</title>
<polygon fill="none" stroke="#bfbfbf" points="316.707,-59 316.707,-79 383.293,-79 383.293,-59 316.707,-59"/>
<text text-anchor="middle" x="350" y="-65" font-family="Helvetica,sans-Serif" font-size="10.00">hwpl/fault.h</text>
</g>
<!-- Node5&#45;&gt;Node11 -->
<g id="edge10" class="edge"><title>Node5&#45;&gt;Node11</title>
<path fill="none" stroke="midnightblue" d="M245.362,-116.878C265.701,-107.766 297.184,-93.6617 320.306,-83.3028"/>
<polygon fill="midnightblue" stroke="midnightblue" points="321.952,-86.4007 329.647,-79.1181 319.09,-80.0125 321.952,-86.4007"/>
</g>
<!-- Node12 -->
<g id="node12" class="node"><title>Node12</title>
<polygon fill="none" stroke="#bfbfbf" points="401.431,-59 401.431,-79 468.569,-79 468.569,-59 401.431,-59"/>
<text text-anchor="middle" x="435" y="-65" font-family="Helvetica,sans-Serif" font-size="10.00">hwpl/arch.h</text>
</g>
<!-- Node5&#45;&gt;Node12 -->
<g id="edge11" class="edge"><title>Node5&#45;&gt;Node12</title>
<path fill="none" stroke="midnightblue" d="M247.638,-118.523C250.446,-117.647 253.284,-116.786 256,-116 301.92,-102.706 355.021,-89.3052 391.39,-80.4245"/>
<polygon fill="midnightblue" stroke="midnightblue" points="392.294,-83.8067 401.184,-78.0434 390.64,-77.0049 392.294,-83.8067"/>
</g>
<!-- Node13 -->
<g id="node13" class="node"><title>Node13</title>
<g id="a_node13"><a xlink:href="types_8h_source.html" target="_top" xlink:title="hwpl/types.h">
<polygon fill="none" stroke="black" points="227.207,-59 227.207,-79 298.793,-79 298.793,-59 227.207,-59"/>
<text text-anchor="middle" x="263" y="-65" font-family="Helvetica,sans-Serif" font-size="10.00">hwpl/types.h</text>
</a>
</g>
</g>
<!-- Node5&#45;&gt;Node13 -->
<g id="edge12" class="edge"><title>Node5&#45;&gt;Node13</title>
<path fill="none" stroke="midnightblue" d="M231.275,-116.753C236.642,-108.843 244.518,-97.2372 251.079,-87.5683"/>
<polygon fill="midnightblue" stroke="midnightblue" points="254.123,-89.3152 256.842,-79.0752 248.331,-85.3847 254.123,-89.3152"/>
</g>
<!-- Node13&#45;&gt;Node6 -->
<g id="edge13" class="edge"><title>Node13&#45;&gt;Node6</title>
<path fill="none" stroke="midnightblue" d="M236.123,-58.878C207.612,-49.2017 162.513,-33.8953 131.657,-23.4231"/>
<polygon fill="midnightblue" stroke="midnightblue" points="132.773,-20.1058 122.179,-20.2061 130.523,-26.7344 132.773,-20.1058"/>
</g>
<!-- Node13&#45;&gt;Node10 -->
<g id="edge14" class="edge"><title>Node13&#45;&gt;Node10</title>
<path fill="none" stroke="midnightblue" d="M282.058,-58.878C301.011,-49.8068 330.301,-35.7876 351.916,-25.4418"/>
<polygon fill="midnightblue" stroke="midnightblue" points="353.441,-28.5925 360.95,-21.1181 350.419,-22.2784 353.441,-28.5925"/>
</g>
</g>
</svg>
