<?xml version="1.0" encoding="UTF-8" standalone="no"?>
<!DOCTYPE svg PUBLIC "-//W3C//DTD SVG 1.1//EN"
 "http://www.w3.org/Graphics/SVG/1.1/DTD/svg11.dtd">
<!-- Generated by graphviz version 2.34.0 (20130907.0228)
 -->
<!-- Title: /Users/tgil/git/CoActionOS/CoActionOS/src/sys/unistd/sleep.c Pages: 1 -->
<svg width="252pt" height="112pt"
 viewBox="0.00 0.00 252.00 112.00" xmlns="http://www.w3.org/2000/svg" xmlns:xlink="http://www.w3.org/1999/xlink">
<g id="graph0" class="graph" transform="scale(1 1) rotate(0) translate(4 108)">
<title>/Users/tgil/git/CoActionOS/CoActionOS/src/sys/unistd/sleep.c</title>
<!-- Node1 -->
<g id="node1" class="node"><title>Node1</title>
<polygon fill="#bfbfbf" stroke="black" points="28.9312,-59 28.9312,-103 151.069,-103 151.069,-59 28.9312,-59"/>
<text text-anchor="start" x="36.9312" y="-89" font-family="Helvetica,sans-Serif" font-size="10.00">/Users/tgil/git/CoAction</text>
<text text-anchor="start" x="36.9312" y="-77" font-family="Helvetica,sans-Serif" font-size="10.00">OS/CoActionOS/src/sys</text>
<text text-anchor="middle" x="90" y="-65" font-family="Helvetica,sans-Serif" font-size="10.00">/unistd/sleep.c</text>
</g>
<!-- Node2 -->
<g id="node2" class="node"><title>Node2</title>
<polygon fill="none" stroke="#bfbfbf" points="-0.512207,-1 -0.512207,-21 50.5122,-21 50.5122,-1 -0.512207,-1"/>
<text text-anchor="middle" x="25" y="-7" font-family="Helvetica,sans-Serif" font-size="10.00">unistd.h</text>
</g>
<!-- Node1&#45;&gt;Node2 -->
<g id="edge1" class="edge"><title>Node1&#45;&gt;Node2</title>
<path fill="none" stroke="midnightblue" d="M69.7899,-58.8571C60.4509,-49.0871 49.5242,-37.6561 40.8011,-28.5303"/>
<polygon fill="midnightblue" stroke="midnightblue" points="43.2378,-26.0142 33.7979,-21.2039 38.1777,-30.8511 43.2378,-26.0142"/>
</g>
<!-- Node3 -->
<g id="node3" class="node"><title>Node3</title>
<polygon fill="none" stroke="#bfbfbf" points="68.3843,-1 68.3843,-21 111.616,-21 111.616,-1 68.3843,-1"/>
<text text-anchor="middle" x="90" y="-7" font-family="Helvetica,sans-Serif" font-size="10.00">time.h</text>
</g>
<!-- Node1&#45;&gt;Node3 -->
<g id="edge2" class="edge"><title>Node1&#45;&gt;Node3</title>
<path fill="none" stroke="midnightblue" d="M90,-58.8571C90,-50.074 90,-39.9484 90,-31.3622"/>
<polygon fill="midnightblue" stroke="midnightblue" points="93.5001,-31.2039 90,-21.2039 86.5001,-31.204 93.5001,-31.2039"/>
</g>
<!-- Node4 -->
<g id="node4" class="node"><title>Node4</title>
<polygon fill="none" stroke="#bfbfbf" points="129.247,-1 129.247,-21 244.753,-21 244.753,-1 129.247,-1"/>
<text text-anchor="middle" x="187" y="-7" font-family="Helvetica,sans-Serif" font-size="10.00">../sched/sched_flags.h</text>
</g>
<!-- Node1&#45;&gt;Node4 -->
<g id="edge3" class="edge"><title>Node1&#45;&gt;Node4</title>
<path fill="none" stroke="midnightblue" d="M120.16,-58.8571C134.891,-48.5303 152.269,-36.3478 165.612,-26.9933"/>
<polygon fill="midnightblue" stroke="midnightblue" points="167.945,-29.6328 174.124,-21.0266 163.926,-23.901 167.945,-29.6328"/>
</g>
</g>
</svg>
