<?xml version="1.0" encoding="UTF-8" standalone="no"?>
<!DOCTYPE svg PUBLIC "-//W3C//DTD SVG 1.1//EN"
 "http://www.w3.org/Graphics/SVG/1.1/DTD/svg11.dtd">
<!-- Generated by graphviz version 2.34.0 (20130907.0228)
 -->
<!-- Title: device_t Pages: 1 -->
<svg width="710pt" height="690pt"
 viewBox="0.00 0.00 710.00 690.00" xmlns="http://www.w3.org/2000/svg" xmlns:xlink="http://www.w3.org/1999/xlink">
<g id="graph0" class="graph" transform="scale(1 1) rotate(0) translate(4 686)">
<title>device_t</title>
<!-- Node1 -->
<g id="node1" class="node"><title>Node1</title>
<polygon fill="#bfbfbf" stroke="black" points="305.377,-1 305.377,-97 358.623,-97 358.623,-1 305.377,-1"/>
<text text-anchor="middle" x="332" y="-83" font-family="Helvetica,sans-Serif" font-size="10.00">device_t</text>
<polyline fill="none" stroke="black" points="305.377,-77 358.623,-77 "/>
<text text-anchor="start" x="313.377" y="-63" font-family="Helvetica,sans-Serif" font-size="10.00">+ name</text>
<text text-anchor="start" x="313.377" y="-51" font-family="Helvetica,sans-Serif" font-size="10.00">+ uid</text>
<text text-anchor="start" x="313.377" y="-39" font-family="Helvetica,sans-Serif" font-size="10.00">+ gid</text>
<text text-anchor="start" x="313.377" y="-27" font-family="Helvetica,sans-Serif" font-size="10.00">+ mode</text>
<polyline fill="none" stroke="black" points="305.377,-21 358.623,-21 "/>
<text text-anchor="middle" x="332" y="-7" font-family="Helvetica,sans-Serif" font-size="10.00"> </text>
</g>
<!-- Node2 -->
<g id="node2" class="node"><title>Node2</title>
<g id="a_node2"><a xlink:href="structdevice__driver__t.html" target="_top" xlink:title="HWPL Driver Function Pointers. ">
<polygon fill="none" stroke="black" points="344.094,-147 344.094,-207 427.906,-207 427.906,-147 344.094,-147"/>
<text text-anchor="middle" x="386" y="-193" font-family="Helvetica,sans-Serif" font-size="10.00">device_driver_t</text>
<polyline fill="none" stroke="black" points="344.094,-187 427.906,-187 "/>
<text text-anchor="middle" x="386" y="-173" font-family="Helvetica,sans-Serif" font-size="10.00"> </text>
<polyline fill="none" stroke="black" points="344.094,-167 427.906,-167 "/>
<text text-anchor="middle" x="386" y="-153" font-family="Helvetica,sans-Serif" font-size="10.00"> </text>
</a>
</g>
</g>
<!-- Node2&#45;&gt;Node1 -->
<g id="edge1" class="edge"><title>Node2&#45;&gt;Node1</title>
<path fill="none" stroke="#404040" d="M373.476,-146.776C368.559,-135.304 362.732,-121.709 357.025,-108.391"/>
<polygon fill="none" stroke="#404040" points="357.008,-108.351 350.967,-104.412 352.28,-97.3211 358.321,-101.26 357.008,-108.351"/>
<text text-anchor="middle" x="382.812" y="-118" font-family="Helvetica,sans-Serif" font-size="10.00"> +driver</text>
</g>
<!-- Node3 -->
<g id="node3" class="node"><title>Node3</title>
<g id="a_node3"><a xlink:href="structdevice__cfg__t.html" target="_top" xlink:title="Data structure for device configuration. ">
<polygon fill="none" stroke="black" points="283.785,-305 283.785,-413 356.215,-413 356.215,-305 283.785,-305"/>
<text text-anchor="middle" x="320" y="-399" font-family="Helvetica,sans-Serif" font-size="10.00">device_cfg_t</text>
<polyline fill="none" stroke="black" points="283.785,-393 356.215,-393 "/>
<text text-anchor="start" x="291.785" y="-379" font-family="Helvetica,sans-Serif" font-size="10.00">+ pin_assign</text>
<text text-anchor="start" x="291.785" y="-367" font-family="Helvetica,sans-Serif" font-size="10.00">+ bitrate</text>
<text text-anchor="start" x="291.785" y="-355" font-family="Helvetica,sans-Serif" font-size="10.00">+ pcfg</text>
<text text-anchor="start" x="291.785" y="-343" font-family="Helvetica,sans-Serif" font-size="10.00">+ dcfg</text>
<text text-anchor="start" x="291.785" y="-331" font-family="Helvetica,sans-Serif" font-size="10.00">+ state</text>
<polyline fill="none" stroke="black" points="283.785,-325 356.215,-325 "/>
<text text-anchor="middle" x="320" y="-311" font-family="Helvetica,sans-Serif" font-size="10.00"> </text>
</a>
</g>
</g>
<!-- Node3&#45;&gt;Node1 -->
<g id="edge11" class="edge"><title>Node3&#45;&gt;Node1</title>
<path fill="none" stroke="#404040" d="M314.424,-304.73C310.849,-261.781 307.773,-199.876 313.042,-146 314.22,-133.953 316.211,-121.176 318.471,-109.007"/>
<polygon fill="none" stroke="#404040" points="318.498,-108.869 315.723,-102.213 320.8,-97.092 323.575,-103.748 318.498,-108.869"/>
<text text-anchor="middle" x="324.979" y="-173" font-family="Helvetica,sans-Serif" font-size="10.00"> +cfg</text>
</g>
<!-- Node3&#45;&gt;Node2 -->
<g id="edge2" class="edge"><title>Node3&#45;&gt;Node2</title>
<path fill="none" stroke="#404040" d="M339.445,-304.968C349.555,-277.394 361.72,-244.217 371.079,-218.694"/>
<polygon fill="none" stroke="#404040" points="371.164,-218.462 369.474,-211.452 375.295,-207.195 376.985,-214.206 371.164,-218.462"/>
<text text-anchor="middle" x="383.866" y="-276" font-family="Helvetica,sans-Serif" font-size="10.00"> +write</text>
<text text-anchor="middle" x="383.866" y="-264" font-family="Helvetica,sans-Serif" font-size="10.00">+open</text>
<text text-anchor="middle" x="383.866" y="-252" font-family="Helvetica,sans-Serif" font-size="10.00">+ioctl</text>
<text text-anchor="middle" x="383.866" y="-240" font-family="Helvetica,sans-Serif" font-size="10.00">+close</text>
<text text-anchor="middle" x="383.866" y="-228" font-family="Helvetica,sans-Serif" font-size="10.00">+read</text>
</g>
<!-- Node4 -->
<g id="node4" class="node"><title>Node4</title>
<g id="a_node4"><a xlink:href="structdevice__uart__cfg__t.html" target="_top" xlink:title="Data structure for a UART device (RX and TX lines) ">
<polygon fill="none" stroke="black" points="-0.470215,-469 -0.470215,-553 94.4702,-553 94.4702,-469 -0.470215,-469"/>
<text text-anchor="middle" x="47" y="-539" font-family="Helvetica,sans-Serif" font-size="10.00">device_uart_cfg_t</text>
<polyline fill="none" stroke="black" points="-0.470215,-533 94.4702,-533 "/>
<text text-anchor="start" x="7.52979" y="-519" font-family="Helvetica,sans-Serif" font-size="10.00">+ stop_bits</text>
<text text-anchor="start" x="7.52979" y="-507" font-family="Helvetica,sans-Serif" font-size="10.00">+ parity</text>
<text text-anchor="start" x="7.52979" y="-495" font-family="Helvetica,sans-Serif" font-size="10.00">+ width</text>
<polyline fill="none" stroke="black" points="-0.470215,-489 94.4702,-489 "/>
<text text-anchor="middle" x="47" y="-475" font-family="Helvetica,sans-Serif" font-size="10.00"> </text>
</a>
</g>
</g>
<!-- Node4&#45;&gt;Node3 -->
<g id="edge3" class="edge"><title>Node4&#45;&gt;Node3</title>
<path fill="none" stroke="#404040" d="M94.6315,-469.342C97.7773,-466.827 100.919,-464.36 104,-462 122.542,-447.795 126.665,-443.221 147.15,-432 187.751,-409.761 236.666,-389.985 272.084,-376.813"/>
<polygon fill="none" stroke="#404040" points="272.281,-376.741 276.535,-370.918 283.546,-372.605 279.292,-378.428 272.281,-376.741"/>
<text text-anchor="middle" x="160.925" y="-434" font-family="Helvetica,sans-Serif" font-size="10.00"> +uart</text>
</g>
<!-- Node5 -->
<g id="node5" class="node"><title>Node5</title>
<g id="a_node5"><a xlink:href="structdevice__periph__t.html" target="_top" xlink:title="Data structure for on&#45;chip MCU peripherals. ">
<polygon fill="none" stroke="black" points="112.697,-481 112.697,-541 199.303,-541 199.303,-481 112.697,-481"/>
<text text-anchor="middle" x="156" y="-527" font-family="Helvetica,sans-Serif" font-size="10.00">device_periph_t</text>
<polyline fill="none" stroke="black" points="112.697,-521 199.303,-521 "/>
<text text-anchor="start" x="120.697" y="-507" font-family="Helvetica,sans-Serif" font-size="10.00">+ port</text>
<polyline fill="none" stroke="black" points="112.697,-501 199.303,-501 "/>
<text text-anchor="middle" x="156" y="-487" font-family="Helvetica,sans-Serif" font-size="10.00"> </text>
</a>
</g>
</g>
<!-- Node5&#45;&gt;Node3 -->
<g id="edge4" class="edge"><title>Node5&#45;&gt;Node3</title>
<path fill="none" stroke="#404040" d="M161.392,-480.686C165.536,-464.811 172.647,-445.701 184.584,-432 207.797,-405.356 243.335,-386.987 272.182,-375.474"/>
<polygon fill="none" stroke="#404040" points="272.458,-375.369 276.644,-369.497 283.674,-371.102 279.489,-376.974 272.458,-375.369"/>
<text text-anchor="middle" x="203.208" y="-434" font-family="Helvetica,sans-Serif" font-size="10.00"> +periph</text>
</g>
<!-- Node6 -->
<g id="node6" class="node"><title>Node6</title>
<g id="a_node6"><a xlink:href="structpio__t.html" target="_top" xlink:title="IO port and pin. ">
<polygon fill="none" stroke="black" points="243.075,-609 243.075,-681 284.925,-681 284.925,-609 243.075,-609"/>
<text text-anchor="middle" x="264" y="-667" font-family="Helvetica,sans-Serif" font-size="10.00">pio_t</text>
<polyline fill="none" stroke="black" points="243.075,-661 284.925,-661 "/>
<text text-anchor="start" x="251.075" y="-647" font-family="Helvetica,sans-Serif" font-size="10.00">+ port</text>
<text text-anchor="start" x="251.075" y="-635" font-family="Helvetica,sans-Serif" font-size="10.00">+ pin</text>
<polyline fill="none" stroke="black" points="243.075,-629 284.925,-629 "/>
<text text-anchor="middle" x="264" y="-615" font-family="Helvetica,sans-Serif" font-size="10.00"> </text>
</a>
</g>
</g>
<!-- Node6&#45;&gt;Node3 -->
<g id="edge5" class="edge"><title>Node6&#45;&gt;Node3</title>
<path fill="none" stroke="#404040" d="M251.556,-608.866C240.286,-571.518 227.736,-511.181 244.037,-462 250.653,-442.04 262.859,-422.815 275.58,-406.54"/>
<polygon fill="none" stroke="#404040" points="275.936,-406.105 276.63,-398.928 283.523,-396.808 282.828,-403.986 275.936,-406.105"/>
<text text-anchor="middle" x="255.981" y="-507" font-family="Helvetica,sans-Serif" font-size="10.00"> +pio</text>
</g>
<!-- Node10 -->
<g id="node10" class="node"><title>Node10</title>
<g id="a_node10"><a xlink:href="structdevice__spi__cfg__t.html" target="_top" xlink:title="Data structure for a SPI device with a CS pin. ">
<polygon fill="none" stroke="black" points="274.754,-463 274.754,-559 365.246,-559 365.246,-463 274.754,-463"/>
<text text-anchor="middle" x="320" y="-545" font-family="Helvetica,sans-Serif" font-size="10.00">device_spi_cfg_t</text>
<polyline fill="none" stroke="black" points="274.754,-539 365.246,-539 "/>
<text text-anchor="start" x="282.754" y="-525" font-family="Helvetica,sans-Serif" font-size="10.00">+ width</text>
<text text-anchor="start" x="282.754" y="-513" font-family="Helvetica,sans-Serif" font-size="10.00">+ format</text>
<text text-anchor="start" x="282.754" y="-501" font-family="Helvetica,sans-Serif" font-size="10.00">+ mode</text>
<text text-anchor="start" x="282.754" y="-489" font-family="Helvetica,sans-Serif" font-size="10.00">+ reserved0</text>
<polyline fill="none" stroke="black" points="274.754,-483 365.246,-483 "/>
<text text-anchor="middle" x="320" y="-469" font-family="Helvetica,sans-Serif" font-size="10.00"> </text>
</a>
</g>
</g>
<!-- Node6&#45;&gt;Node10 -->
<g id="edge10" class="edge"><title>Node6&#45;&gt;Node10</title>
<path fill="none" stroke="#404040" d="M278.86,-608.973C283.872,-597.158 289.611,-583.631 295.18,-570.504"/>
<polygon fill="none" stroke="#404040" points="295.321,-570.172 293.982,-563.086 300.008,-559.125 301.347,-566.211 295.321,-570.172"/>
<text text-anchor="middle" x="301.309" y="-580" font-family="Helvetica,sans-Serif" font-size="10.00"> +cs</text>
</g>
<!-- Node7 -->
<g id="node7" class="node"><title>Node7</title>
<g id="a_node7"><a xlink:href="structdevice__adc__cfg__t.html" target="_top" xlink:title="Data structure for an analog input device (up to 16 channels) ">
<polygon fill="none" stroke="black" points="383.084,-475 383.084,-547 476.916,-547 476.916,-475 383.084,-475"/>
<text text-anchor="middle" x="430" y="-533" font-family="Helvetica,sans-Serif" font-size="10.00">device_adc_cfg_t</text>
<polyline fill="none" stroke="black" points="383.084,-527 476.916,-527 "/>
<text text-anchor="start" x="391.084" y="-513" font-family="Helvetica,sans-Serif" font-size="10.00">+ reference</text>
<text text-anchor="start" x="391.084" y="-501" font-family="Helvetica,sans-Serif" font-size="10.00">+ channels</text>
<polyline fill="none" stroke="black" points="383.084,-495 476.916,-495 "/>
<text text-anchor="middle" x="430" y="-481" font-family="Helvetica,sans-Serif" font-size="10.00"> </text>
</a>
</g>
</g>
<!-- Node7&#45;&gt;Node3 -->
<g id="edge6" class="edge"><title>Node7&#45;&gt;Node3</title>
<path fill="none" stroke="#404040" d="M404.21,-474.832C392.043,-458.24 377.189,-437.985 363.364,-419.132"/>
<polygon fill="none" stroke="#404040" points="363.344,-419.105 356.57,-416.632 356.247,-409.428 363.021,-411.901 363.344,-419.105"/>
<text text-anchor="middle" x="394.371" y="-434" font-family="Helvetica,sans-Serif" font-size="10.00"> +adc</text>
</g>
<!-- Node8 -->
<g id="node8" class="node"><title>Node8</title>
<g id="a_node8"><a xlink:href="structdevice__i2c__cfg__t.html" target="_top" xlink:title="Data structure for an I2C device (SCL and SDA lines) ">
<polygon fill="none" stroke="black" points="494.754,-481 494.754,-541 585.246,-541 585.246,-481 494.754,-481"/>
<text text-anchor="middle" x="540" y="-527" font-family="Helvetica,sans-Serif" font-size="10.00">device_i2c_cfg_t</text>
<polyline fill="none" stroke="black" points="494.754,-521 585.246,-521 "/>
<text text-anchor="start" x="502.754" y="-507" font-family="Helvetica,sans-Serif" font-size="10.00">+ slave_addr</text>
<polyline fill="none" stroke="black" points="494.754,-501 585.246,-501 "/>
<text text-anchor="middle" x="540" y="-487" font-family="Helvetica,sans-Serif" font-size="10.00"> </text>
</a>
</g>
</g>
<!-- Node8&#45;&gt;Node3 -->
<g id="edge7" class="edge"><title>Node8&#45;&gt;Node3</title>
<path fill="none" stroke="#404040" d="M508.452,-480.913C500.958,-474.444 492.853,-467.793 485,-462 446.852,-433.856 400.768,-405.823 367.01,-386.288"/>
<polygon fill="none" stroke="#404040" points="366.914,-386.233 359.719,-386.712 356.509,-380.255 363.704,-379.776 366.914,-386.233"/>
<text text-anchor="middle" x="470.701" y="-434" font-family="Helvetica,sans-Serif" font-size="10.00"> +i2c</text>
</g>
<!-- Node9 -->
<g id="node9" class="node"><title>Node9</title>
<g id="a_node9"><a xlink:href="structdevice__pwm__cfg__t.html" target="_top" xlink:title="Data structure for a PWM device (up to 8 channels) ">
<polygon fill="none" stroke="black" points="603.589,-469 603.589,-553 702.411,-553 702.411,-469 603.589,-469"/>
<text text-anchor="middle" x="653" y="-539" font-family="Helvetica,sans-Serif" font-size="10.00">device_pwm_cfg_t</text>
<polyline fill="none" stroke="black" points="603.589,-533 702.411,-533 "/>
<text text-anchor="start" x="611.589" y="-519" font-family="Helvetica,sans-Serif" font-size="10.00">+ top</text>
<text text-anchor="start" x="611.589" y="-507" font-family="Helvetica,sans-Serif" font-size="10.00">+ freq</text>
<text text-anchor="start" x="611.589" y="-495" font-family="Helvetica,sans-Serif" font-size="10.00">+ channels</text>
<polyline fill="none" stroke="black" points="603.589,-489 702.411,-489 "/>
<text text-anchor="middle" x="653" y="-475" font-family="Helvetica,sans-Serif" font-size="10.00"> </text>
</a>
</g>
</g>
<!-- Node9&#45;&gt;Node3 -->
<g id="edge8" class="edge"><title>Node9&#45;&gt;Node3</title>
<path fill="none" stroke="#404040" d="M604.959,-468.882C601.34,-466.422 597.668,-464.098 594,-462 519.707,-419.496 424.403,-388.73 368.003,-372.681"/>
<polygon fill="none" stroke="#404040" points="367.795,-372.623 360.938,-374.857 356.239,-369.387 363.096,-367.153 367.795,-372.623"/>
<text text-anchor="middle" x="573.866" y="-434" font-family="Helvetica,sans-Serif" font-size="10.00"> +pwm</text>
</g>
<!-- Node10&#45;&gt;Node3 -->
<g id="edge9" class="edge"><title>Node10&#45;&gt;Node3</title>
<path fill="none" stroke="#404040" d="M320,-462.951C320,-450.97 320,-437.88 320,-425.172"/>
<polygon fill="none" stroke="#404040" points="320,-425.155 316,-419.155 320,-413.155 324,-419.155 320,-425.155"/>
<text text-anchor="middle" x="330.701" y="-434" font-family="Helvetica,sans-Serif" font-size="10.00"> +spi</text>
</g>
</g>
</svg>
