<?xml version="1.0" encoding="UTF-8" standalone="no"?>
<!DOCTYPE svg PUBLIC "-//W3C//DTD SVG 1.1//EN"
 "http://www.w3.org/Graphics/SVG/1.1/DTD/svg11.dtd">
<!-- Generated by graphviz version 2.34.0 (20130907.0228)
 -->
<!-- Title: device_driver_t Pages: 1 -->
<svg width="710pt" height="544pt"
 viewBox="0.00 0.00 710.00 544.00" xmlns="http://www.w3.org/2000/svg" xmlns:xlink="http://www.w3.org/1999/xlink">
<g id="graph0" class="graph" transform="scale(1 1) rotate(0) translate(4 540)">
<title>device_driver_t</title>
<!-- Node1 -->
<g id="node1" class="node"><title>Node1</title>
<polygon fill="#bfbfbf" stroke="black" points="278.094,-1 278.094,-61 361.906,-61 361.906,-1 278.094,-1"/>
<text text-anchor="middle" x="320" y="-47" font-family="Helvetica,sans-Serif" font-size="10.00">device_driver_t</text>
<polyline fill="none" stroke="black" points="278.094,-41 361.906,-41 "/>
<text text-anchor="middle" x="320" y="-27" font-family="Helvetica,sans-Serif" font-size="10.00"> </text>
<polyline fill="none" stroke="black" points="278.094,-21 361.906,-21 "/>
<text text-anchor="middle" x="320" y="-7" font-family="Helvetica,sans-Serif" font-size="10.00"> </text>
</g>
<!-- Node2 -->
<g id="node2" class="node"><title>Node2</title>
<g id="a_node2"><a xlink:href="structdevice__cfg__t.html" target="_top" xlink:title="Data structure for device configuration. ">
<polygon fill="none" stroke="black" points="283.785,-159 283.785,-267 356.215,-267 356.215,-159 283.785,-159"/>
<text text-anchor="middle" x="320" y="-253" font-family="Helvetica,sans-Serif" font-size="10.00">device_cfg_t</text>
<polyline fill="none" stroke="black" points="283.785,-247 356.215,-247 "/>
<text text-anchor="start" x="291.785" y="-233" font-family="Helvetica,sans-Serif" font-size="10.00">+ pin_assign</text>
<text text-anchor="start" x="291.785" y="-221" font-family="Helvetica,sans-Serif" font-size="10.00">+ bitrate</text>
<text text-anchor="start" x="291.785" y="-209" font-family="Helvetica,sans-Serif" font-size="10.00">+ pcfg</text>
<text text-anchor="start" x="291.785" y="-197" font-family="Helvetica,sans-Serif" font-size="10.00">+ dcfg</text>
<text text-anchor="start" x="291.785" y="-185" font-family="Helvetica,sans-Serif" font-size="10.00">+ state</text>
<polyline fill="none" stroke="black" points="283.785,-179 356.215,-179 "/>
<text text-anchor="middle" x="320" y="-165" font-family="Helvetica,sans-Serif" font-size="10.00"> </text>
</a>
</g>
</g>
<!-- Node2&#45;&gt;Node1 -->
<g id="edge1" class="edge"><title>Node2&#45;&gt;Node1</title>
<path fill="none" stroke="#404040" d="M320,-158.968C320,-131.644 320,-98.8175 320,-73.3884"/>
<polygon fill="none" stroke="#404040" points="320,-73.1953 316,-67.1953 320,-61.1953 324,-67.1953 320,-73.1953"/>
<text text-anchor="middle" x="334.866" y="-130" font-family="Helvetica,sans-Serif" font-size="10.00"> +write</text>
<text text-anchor="middle" x="334.866" y="-118" font-family="Helvetica,sans-Serif" font-size="10.00">+open</text>
<text text-anchor="middle" x="334.866" y="-106" font-family="Helvetica,sans-Serif" font-size="10.00">+ioctl</text>
<text text-anchor="middle" x="334.866" y="-94" font-family="Helvetica,sans-Serif" font-size="10.00">+close</text>
<text text-anchor="middle" x="334.866" y="-82" font-family="Helvetica,sans-Serif" font-size="10.00">+read</text>
</g>
<!-- Node3 -->
<g id="node3" class="node"><title>Node3</title>
<g id="a_node3"><a xlink:href="structdevice__uart__cfg__t.html" target="_top" xlink:title="Data structure for a UART device (RX and TX lines) ">
<polygon fill="none" stroke="black" points="-0.470215,-323 -0.470215,-407 94.4702,-407 94.4702,-323 -0.470215,-323"/>
<text text-anchor="middle" x="47" y="-393" font-family="Helvetica,sans-Serif" font-size="10.00">device_uart_cfg_t</text>
<polyline fill="none" stroke="black" points="-0.470215,-387 94.4702,-387 "/>
<text text-anchor="start" x="7.52979" y="-373" font-family="Helvetica,sans-Serif" font-size="10.00">+ stop_bits</text>
<text text-anchor="start" x="7.52979" y="-361" font-family="Helvetica,sans-Serif" font-size="10.00">+ parity</text>
<text text-anchor="start" x="7.52979" y="-349" font-family="Helvetica,sans-Serif" font-size="10.00">+ width</text>
<polyline fill="none" stroke="black" points="-0.470215,-343 94.4702,-343 "/>
<text text-anchor="middle" x="47" y="-329" font-family="Helvetica,sans-Serif" font-size="10.00"> </text>
</a>
</g>
</g>
<!-- Node3&#45;&gt;Node2 -->
<g id="edge2" class="edge"><title>Node3&#45;&gt;Node2</title>
<path fill="none" stroke="#404040" d="M94.6315,-323.342C97.7773,-320.827 100.919,-318.36 104,-316 122.542,-301.795 126.665,-297.221 147.15,-286 187.751,-263.761 236.666,-243.985 272.084,-230.813"/>
<polygon fill="none" stroke="#404040" points="272.281,-230.741 276.535,-224.918 283.546,-226.605 279.292,-232.428 272.281,-230.741"/>
<text text-anchor="middle" x="160.925" y="-288" font-family="Helvetica,sans-Serif" font-size="10.00"> +uart</text>
</g>
<!-- Node4 -->
<g id="node4" class="node"><title>Node4</title>
<g id="a_node4"><a xlink:href="structdevice__periph__t.html" target="_top" xlink:title="Data structure for on&#45;chip MCU peripherals. ">
<polygon fill="none" stroke="black" points="112.697,-335 112.697,-395 199.303,-395 199.303,-335 112.697,-335"/>
<text text-anchor="middle" x="156" y="-381" font-family="Helvetica,sans-Serif" font-size="10.00">device_periph_t</text>
<polyline fill="none" stroke="black" points="112.697,-375 199.303,-375 "/>
<text text-anchor="start" x="120.697" y="-361" font-family="Helvetica,sans-Serif" font-size="10.00">+ port</text>
<polyline fill="none" stroke="black" points="112.697,-355 199.303,-355 "/>
<text text-anchor="middle" x="156" y="-341" font-family="Helvetica,sans-Serif" font-size="10.00"> </text>
</a>
</g>
</g>
<!-- Node4&#45;&gt;Node2 -->
<g id="edge3" class="edge"><title>Node4&#45;&gt;Node2</title>
<path fill="none" stroke="#404040" d="M161.392,-334.686C165.536,-318.811 172.647,-299.701 184.584,-286 207.797,-259.356 243.335,-240.987 272.182,-229.474"/>
<polygon fill="none" stroke="#404040" points="272.458,-229.369 276.644,-223.497 283.674,-225.102 279.489,-230.974 272.458,-229.369"/>
<text text-anchor="middle" x="203.208" y="-288" font-family="Helvetica,sans-Serif" font-size="10.00"> +periph</text>
</g>
<!-- Node5 -->
<g id="node5" class="node"><title>Node5</title>
<g id="a_node5"><a xlink:href="structpio__t.html" target="_top" xlink:title="IO port and pin. ">
<polygon fill="none" stroke="black" points="243.075,-463 243.075,-535 284.925,-535 284.925,-463 243.075,-463"/>
<text text-anchor="middle" x="264" y="-521" font-family="Helvetica,sans-Serif" font-size="10.00">pio_t</text>
<polyline fill="none" stroke="black" points="243.075,-515 284.925,-515 "/>
<text text-anchor="start" x="251.075" y="-501" font-family="Helvetica,sans-Serif" font-size="10.00">+ port</text>
<text text-anchor="start" x="251.075" y="-489" font-family="Helvetica,sans-Serif" font-size="10.00">+ pin</text>
<polyline fill="none" stroke="black" points="243.075,-483 284.925,-483 "/>
<text text-anchor="middle" x="264" y="-469" font-family="Helvetica,sans-Serif" font-size="10.00"> </text>
</a>
</g>
</g>
<!-- Node5&#45;&gt;Node2 -->
<g id="edge4" class="edge"><title>Node5&#45;&gt;Node2</title>
<path fill="none" stroke="#404040" d="M251.556,-462.866C240.286,-425.518 227.736,-365.181 244.037,-316 250.653,-296.04 262.859,-276.815 275.58,-260.54"/>
<polygon fill="none" stroke="#404040" points="275.936,-260.105 276.63,-252.928 283.523,-250.808 282.828,-257.986 275.936,-260.105"/>
<text text-anchor="middle" x="255.981" y="-361" font-family="Helvetica,sans-Serif" font-size="10.00"> +pio</text>
</g>
<!-- Node9 -->
<g id="node9" class="node"><title>Node9</title>
<g id="a_node9"><a xlink:href="structdevice__spi__cfg__t.html" target="_top" xlink:title="Data structure for a SPI device with a CS pin. ">
<polygon fill="none" stroke="black" points="274.754,-317 274.754,-413 365.246,-413 365.246,-317 274.754,-317"/>
<text text-anchor="middle" x="320" y="-399" font-family="Helvetica,sans-Serif" font-size="10.00">device_spi_cfg_t</text>
<polyline fill="none" stroke="black" points="274.754,-393 365.246,-393 "/>
<text text-anchor="start" x="282.754" y="-379" font-family="Helvetica,sans-Serif" font-size="10.00">+ width</text>
<text text-anchor="start" x="282.754" y="-367" font-family="Helvetica,sans-Serif" font-size="10.00">+ format</text>
<text text-anchor="start" x="282.754" y="-355" font-family="Helvetica,sans-Serif" font-size="10.00">+ mode</text>
<text text-anchor="start" x="282.754" y="-343" font-family="Helvetica,sans-Serif" font-size="10.00">+ reserved0</text>
<polyline fill="none" stroke="black" points="274.754,-337 365.246,-337 "/>
<text text-anchor="middle" x="320" y="-323" font-family="Helvetica,sans-Serif" font-size="10.00"> </text>
</a>
</g>
</g>
<!-- Node5&#45;&gt;Node9 -->
<g id="edge9" class="edge"><title>Node5&#45;&gt;Node9</title>
<path fill="none" stroke="#404040" d="M278.86,-462.973C283.872,-451.158 289.611,-437.631 295.18,-424.504"/>
<polygon fill="none" stroke="#404040" points="295.321,-424.172 293.982,-417.086 300.008,-413.125 301.347,-420.211 295.321,-424.172"/>
<text text-anchor="middle" x="301.309" y="-434" font-family="Helvetica,sans-Serif" font-size="10.00"> +cs</text>
</g>
<!-- Node6 -->
<g id="node6" class="node"><title>Node6</title>
<g id="a_node6"><a xlink:href="structdevice__adc__cfg__t.html" target="_top" xlink:title="Data structure for an analog input device (up to 16 channels) ">
<polygon fill="none" stroke="black" points="383.084,-329 383.084,-401 476.916,-401 476.916,-329 383.084,-329"/>
<text text-anchor="middle" x="430" y="-387" font-family="Helvetica,sans-Serif" font-size="10.00">device_adc_cfg_t</text>
<polyline fill="none" stroke="black" points="383.084,-381 476.916,-381 "/>
<text text-anchor="start" x="391.084" y="-367" font-family="Helvetica,sans-Serif" font-size="10.00">+ reference</text>
<text text-anchor="start" x="391.084" y="-355" font-family="Helvetica,sans-Serif" font-size="10.00">+ channels</text>
<polyline fill="none" stroke="black" points="383.084,-349 476.916,-349 "/>
<text text-anchor="middle" x="430" y="-335" font-family="Helvetica,sans-Serif" font-size="10.00"> </text>
</a>
</g>
</g>
<!-- Node6&#45;&gt;Node2 -->
<g id="edge5" class="edge"><title>Node6&#45;&gt;Node2</title>
<path fill="none" stroke="#404040" d="M404.21,-328.832C392.043,-312.24 377.189,-291.985 363.364,-273.132"/>
<polygon fill="none" stroke="#404040" points="363.344,-273.105 356.57,-270.632 356.247,-263.428 363.021,-265.901 363.344,-273.105"/>
<text text-anchor="middle" x="394.371" y="-288" font-family="Helvetica,sans-Serif" font-size="10.00"> +adc</text>
</g>
<!-- Node7 -->
<g id="node7" class="node"><title>Node7</title>
<g id="a_node7"><a xlink:href="structdevice__i2c__cfg__t.html" target="_top" xlink:title="Data structure for an I2C device (SCL and SDA lines) ">
<polygon fill="none" stroke="black" points="494.754,-335 494.754,-395 585.246,-395 585.246,-335 494.754,-335"/>
<text text-anchor="middle" x="540" y="-381" font-family="Helvetica,sans-Serif" font-size="10.00">device_i2c_cfg_t</text>
<polyline fill="none" stroke="black" points="494.754,-375 585.246,-375 "/>
<text text-anchor="start" x="502.754" y="-361" font-family="Helvetica,sans-Serif" font-size="10.00">+ slave_addr</text>
<polyline fill="none" stroke="black" points="494.754,-355 585.246,-355 "/>
<text text-anchor="middle" x="540" y="-341" font-family="Helvetica,sans-Serif" font-size="10.00"> </text>
</a>
</g>
</g>
<!-- Node7&#45;&gt;Node2 -->
<g id="edge6" class="edge"><title>Node7&#45;&gt;Node2</title>
<path fill="none" stroke="#404040" d="M508.452,-334.913C500.958,-328.444 492.853,-321.793 485,-316 446.852,-287.856 400.768,-259.823 367.01,-240.288"/>
<polygon fill="none" stroke="#404040" points="366.914,-240.233 359.719,-240.712 356.509,-234.255 363.704,-233.776 366.914,-240.233"/>
<text text-anchor="middle" x="470.701" y="-288" font-family="Helvetica,sans-Serif" font-size="10.00"> +i2c</text>
</g>
<!-- Node8 -->
<g id="node8" class="node"><title>Node8</title>
<g id="a_node8"><a xlink:href="structdevice__pwm__cfg__t.html" target="_top" xlink:title="Data structure for a PWM device (up to 8 channels) ">
<polygon fill="none" stroke="black" points="603.589,-323 603.589,-407 702.411,-407 702.411,-323 603.589,-323"/>
<text text-anchor="middle" x="653" y="-393" font-family="Helvetica,sans-Serif" font-size="10.00">device_pwm_cfg_t</text>
<polyline fill="none" stroke="black" points="603.589,-387 702.411,-387 "/>
<text text-anchor="start" x="611.589" y="-373" font-family="Helvetica,sans-Serif" font-size="10.00">+ top</text>
<text text-anchor="start" x="611.589" y="-361" font-family="Helvetica,sans-Serif" font-size="10.00">+ freq</text>
<text text-anchor="start" x="611.589" y="-349" font-family="Helvetica,sans-Serif" font-size="10.00">+ channels</text>
<polyline fill="none" stroke="black" points="603.589,-343 702.411,-343 "/>
<text text-anchor="middle" x="653" y="-329" font-family="Helvetica,sans-Serif" font-size="10.00"> </text>
</a>
</g>
</g>
<!-- Node8&#45;&gt;Node2 -->
<g id="edge7" class="edge"><title>Node8&#45;&gt;Node2</title>
<path fill="none" stroke="#404040" d="M604.959,-322.882C601.34,-320.422 597.668,-318.098 594,-316 519.707,-273.496 424.403,-242.73 368.003,-226.681"/>
<polygon fill="none" stroke="#404040" points="367.795,-226.623 360.938,-228.857 356.239,-223.387 363.096,-221.153 367.795,-226.623"/>
<text text-anchor="middle" x="573.866" y="-288" font-family="Helvetica,sans-Serif" font-size="10.00"> +pwm</text>
</g>
<!-- Node9&#45;&gt;Node2 -->
<g id="edge8" class="edge"><title>Node9&#45;&gt;Node2</title>
<path fill="none" stroke="#404040" d="M320,-316.951C320,-304.97 320,-291.88 320,-279.172"/>
<polygon fill="none" stroke="#404040" points="320,-279.155 316,-273.155 320,-267.155 324,-273.155 320,-279.155"/>
<text text-anchor="middle" x="330.701" y="-288" font-family="Helvetica,sans-Serif" font-size="10.00"> +spi</text>
</g>
</g>
</svg>
