<?xml version="1.0" encoding="UTF-8" standalone="no"?>
<!DOCTYPE svg PUBLIC "-//W3C//DTD SVG 1.1//EN"
 "http://www.w3.org/Graphics/SVG/1.1/DTD/svg11.dtd">
<!-- Generated by graphviz version 2.34.0 (20130907.0228)
 -->
<!-- Title: device_spi_cfg_t Pages: 1 -->
<svg width="98pt" height="228pt"
 viewBox="0.00 0.00 98.00 228.00" xmlns="http://www.w3.org/2000/svg" xmlns:xlink="http://www.w3.org/1999/xlink">
<g id="graph0" class="graph" transform="scale(1 1) rotate(0) translate(4 224)">
<title>device_spi_cfg_t</title>
<!-- Node1 -->
<g id="node1" class="node"><title>Node1</title>
<polygon fill="#bfbfbf" stroke="black" points="-0.246094,-1 -0.246094,-97 90.2461,-97 90.2461,-1 -0.246094,-1"/>
<text text-anchor="middle" x="45" y="-83" font-family="Helvetica,sans-Serif" font-size="10.00">device_spi_cfg_t</text>
<polyline fill="none" stroke="black" points="-0.246094,-77 90.2461,-77 "/>
<text text-anchor="start" x="7.75391" y="-63" font-family="Helvetica,sans-Serif" font-size="10.00">+ width</text>
<text text-anchor="start" x="7.75391" y="-51" font-family="Helvetica,sans-Serif" font-size="10.00">+ format</text>
<text text-anchor="start" x="7.75391" y="-39" font-family="Helvetica,sans-Serif" font-size="10.00">+ mode</text>
<text text-anchor="start" x="7.75391" y="-27" font-family="Helvetica,sans-Serif" font-size="10.00">+ reserved0</text>
<polyline fill="none" stroke="black" points="-0.246094,-21 90.2461,-21 "/>
<text text-anchor="middle" x="45" y="-7" font-family="Helvetica,sans-Serif" font-size="10.00"> </text>
</g>
<!-- Node2 -->
<g id="node2" class="node"><title>Node2</title>
<g id="a_node2"><a xlink:href="structpio__t.html" target="_top" xlink:title="IO port and pin. ">
<polygon fill="none" stroke="black" points="24.0752,-147 24.0752,-219 65.9248,-219 65.9248,-147 24.0752,-147"/>
<text text-anchor="middle" x="45" y="-205" font-family="Helvetica,sans-Serif" font-size="10.00">pio_t</text>
<polyline fill="none" stroke="black" points="24.0752,-199 65.9248,-199 "/>
<text text-anchor="start" x="32.0752" y="-185" font-family="Helvetica,sans-Serif" font-size="10.00">+ port</text>
<text text-anchor="start" x="32.0752" y="-173" font-family="Helvetica,sans-Serif" font-size="10.00">+ pin</text>
<polyline fill="none" stroke="black" points="24.0752,-167 65.9248,-167 "/>
<text text-anchor="middle" x="45" y="-153" font-family="Helvetica,sans-Serif" font-size="10.00"> </text>
</a>
</g>
</g>
<!-- Node2&#45;&gt;Node1 -->
<g id="edge1" class="edge"><title>Node2&#45;&gt;Node1</title>
<path fill="none" stroke="#404040" d="M45,-146.973C45,-135.397 45,-122.177 45,-109.3"/>
<polygon fill="none" stroke="#404040" points="45.0001,-109.125 41,-103.125 45,-97.1251 49,-103.125 45.0001,-109.125"/>
<text text-anchor="middle" x="54.3091" y="-118" font-family="Helvetica,sans-Serif" font-size="10.00"> +cs</text>
</g>
</g>
</svg>
