<?xml version="1.0" encoding="UTF-8" standalone="no"?>
<!DOCTYPE svg PUBLIC "-//W3C//DTD SVG 1.1//EN"
 "http://www.w3.org/Graphics/SVG/1.1/DTD/svg11.dtd">
<!-- Generated by graphviz version 2.36.0 (20140111.2315)
 -->
<!-- Title: /Users/tgil/git/CoActionOS/CoActionOS/include/dev/sys.h Pages: 1 -->
<svg width="411pt" height="276pt"
 viewBox="0.00 0.00 411.00 276.00" xmlns="http://www.w3.org/2000/svg" xmlns:xlink="http://www.w3.org/1999/xlink">
<g id="graph0" class="graph" transform="scale(1 1) rotate(0) translate(4 272)">
<title>/Users/tgil/git/CoActionOS/CoActionOS/include/dev/sys.h</title>
<!-- Node1 -->
<g id="node1" class="node"><title>Node1</title>
<polygon fill="#bfbfbf" stroke="black" points="140.641,-229 140.641,-267 263.359,-267 263.359,-229 140.641,-229"/>
<text text-anchor="start" x="148.641" y="-255" font-family="Helvetica,sans-Serif" font-size="10.00">/Users/tgil/git/CoAction</text>
<text text-anchor="start" x="148.641" y="-245" font-family="Helvetica,sans-Serif" font-size="10.00">OS/CoActionOS/include</text>
<text text-anchor="middle" x="202" y="-235" font-family="Helvetica,sans-Serif" font-size="10.00">/dev/sys.h</text>
</g>
<!-- Node2 -->
<g id="node2" class="node"><title>Node2</title>
<g id="a_node2"><a xlink:href="link__protocol_8h.html" target="_top" xlink:title="USB Link Protocol Header File. ">
<polygon fill="none" stroke="black" points="140.641,-153 140.641,-191 263.359,-191 263.359,-153 140.641,-153"/>
<text text-anchor="start" x="148.641" y="-179" font-family="Helvetica,sans-Serif" font-size="10.00">/Users/tgil/git/CoAction</text>
<text text-anchor="start" x="148.641" y="-169" font-family="Helvetica,sans-Serif" font-size="10.00">OS/CoActionOS/include</text>
<text text-anchor="middle" x="202" y="-159" font-family="Helvetica,sans-Serif" font-size="10.00">/link_protocol.h</text>
</a>
</g>
</g>
<!-- Node1&#45;&gt;Node2 -->
<g id="edge1" class="edge"><title>Node1&#45;&gt;Node2</title>
<path fill="none" stroke="midnightblue" d="M195.419,-218.702C195.053,-209.431 195.282,-199.387 196.105,-191.082"/>
<polygon fill="midnightblue" stroke="midnightblue" points="191.928,-218.962 196.084,-228.708 198.913,-218.498 191.928,-218.962"/>
</g>
<!-- Node7 -->
<g id="node7" class="node"><title>Node7</title>
<g id="a_node7"><a xlink:href="__open_8c.html" target="_top" xlink:title="/Users/tgil/git/CoAction\lOS/CoActionOS/src/sys\l/unistd/_open.c">
<polygon fill="none" stroke="black" points="280.931,-153 280.931,-191 403.069,-191 403.069,-153 280.931,-153"/>
<text text-anchor="start" x="288.931" y="-179" font-family="Helvetica,sans-Serif" font-size="10.00">/Users/tgil/git/CoAction</text>
<text text-anchor="start" x="288.931" y="-169" font-family="Helvetica,sans-Serif" font-size="10.00">OS/CoActionOS/src/sys</text>
<text text-anchor="middle" x="342" y="-159" font-family="Helvetica,sans-Serif" font-size="10.00">/unistd/_open.c</text>
</a>
</g>
</g>
<!-- Node1&#45;&gt;Node7 -->
<g id="edge7" class="edge"><title>Node1&#45;&gt;Node7</title>
<path fill="none" stroke="midnightblue" d="M245.194,-224.169C265.259,-213.563 288.785,-201.128 307.62,-191.172"/>
<polygon fill="midnightblue" stroke="midnightblue" points="243.453,-221.13 236.248,-228.898 246.724,-227.319 243.453,-221.13"/>
</g>
<!-- Node2&#45;&gt;Node1 -->
<g id="edge3" class="edge"><title>Node2&#45;&gt;Node1</title>
<path fill="none" stroke="midnightblue" d="M208.572,-201.063C208.948,-210.322 208.729,-220.374 207.916,-228.708"/>
<polygon fill="midnightblue" stroke="midnightblue" points="212.064,-200.822 207.895,-191.082 205.08,-201.296 212.064,-200.822"/>
</g>
<!-- Node3 -->
<g id="node3" class="node"><title>Node3</title>
<g id="a_node3"><a xlink:href="link_8h.html" target="_top" xlink:title="/Users/tgil/git/CoAction\lOS/CoActionOS/include\l/link.h">
<polygon fill="none" stroke="black" points="-0.359375,-77 -0.359375,-115 122.359,-115 122.359,-77 -0.359375,-77"/>
<text text-anchor="start" x="7.64062" y="-103" font-family="Helvetica,sans-Serif" font-size="10.00">/Users/tgil/git/CoAction</text>
<text text-anchor="start" x="7.64062" y="-93" font-family="Helvetica,sans-Serif" font-size="10.00">OS/CoActionOS/include</text>
<text text-anchor="middle" x="61" y="-83" font-family="Helvetica,sans-Serif" font-size="10.00">/link.h</text>
</a>
</g>
</g>
<!-- Node2&#45;&gt;Node3 -->
<g id="edge2" class="edge"><title>Node2&#45;&gt;Node3</title>
<path fill="none" stroke="midnightblue" d="M158.497,-148.169C138.289,-137.563 114.595,-125.128 95.6251,-115.172"/>
<polygon fill="midnightblue" stroke="midnightblue" points="157.026,-151.35 167.508,-152.898 160.279,-145.151 157.026,-151.35"/>
</g>
<!-- Node4 -->
<g id="node4" class="node"><title>Node4</title>
<g id="a_node4"><a xlink:href="trace_8h_source.html" target="_top" xlink:title="/Users/tgil/git/CoAction\lOS/CoActionOS/include\l/trace.h">
<polygon fill="none" stroke="black" points="140.641,-77 140.641,-115 263.359,-115 263.359,-77 140.641,-77"/>
<text text-anchor="start" x="148.641" y="-103" font-family="Helvetica,sans-Serif" font-size="10.00">/Users/tgil/git/CoAction</text>
<text text-anchor="start" x="148.641" y="-93" font-family="Helvetica,sans-Serif" font-size="10.00">OS/CoActionOS/include</text>
<text text-anchor="middle" x="202" y="-83" font-family="Helvetica,sans-Serif" font-size="10.00">/trace.h</text>
</a>
</g>
</g>
<!-- Node2&#45;&gt;Node4 -->
<g id="edge4" class="edge"><title>Node2&#45;&gt;Node4</title>
<path fill="none" stroke="midnightblue" d="M202,-142.702C202,-133.431 202,-123.387 202,-115.082"/>
<polygon fill="midnightblue" stroke="midnightblue" points="198.5,-142.708 202,-152.708 205.5,-142.708 198.5,-142.708"/>
</g>
<!-- Node6 -->
<g id="node6" class="node"><title>Node6</title>
<g id="a_node6"><a xlink:href="__exit_8c.html" target="_top" xlink:title="/Users/tgil/git/CoAction\lOS/CoActionOS/src/sys\l/unistd/_exit.c">
<polygon fill="none" stroke="black" points="280.931,-77 280.931,-115 403.069,-115 403.069,-77 280.931,-77"/>
<text text-anchor="start" x="288.931" y="-103" font-family="Helvetica,sans-Serif" font-size="10.00">/Users/tgil/git/CoAction</text>
<text text-anchor="start" x="288.931" y="-93" font-family="Helvetica,sans-Serif" font-size="10.00">OS/CoActionOS/src/sys</text>
<text text-anchor="middle" x="342" y="-83" font-family="Helvetica,sans-Serif" font-size="10.00">/unistd/_exit.c</text>
</a>
</g>
</g>
<!-- Node2&#45;&gt;Node6 -->
<g id="edge6" class="edge"><title>Node2&#45;&gt;Node6</title>
<path fill="none" stroke="midnightblue" d="M245.194,-148.169C265.259,-137.563 288.785,-125.128 307.62,-115.172"/>
<polygon fill="midnightblue" stroke="midnightblue" points="243.453,-145.13 236.248,-152.898 246.724,-151.319 243.453,-145.13"/>
</g>
<!-- Node5 -->
<g id="node5" class="node"><title>Node5</title>
<g id="a_node5"><a xlink:href="signal__handler_8c.html" target="_top" xlink:title="/Users/tgil/git/CoAction\lOS/CoActionOS/src/sys\l/signal/signal_handler.c">
<polygon fill="none" stroke="black" points="140.931,-1 140.931,-39 263.069,-39 263.069,-1 140.931,-1"/>
<text text-anchor="start" x="148.931" y="-27" font-family="Helvetica,sans-Serif" font-size="10.00">/Users/tgil/git/CoAction</text>
<text text-anchor="start" x="148.931" y="-17" font-family="Helvetica,sans-Serif" font-size="10.00">OS/CoActionOS/src/sys</text>
<text text-anchor="middle" x="202" y="-7" font-family="Helvetica,sans-Serif" font-size="10.00">/signal/signal_handler.c</text>
</a>
</g>
</g>
<!-- Node4&#45;&gt;Node5 -->
<g id="edge5" class="edge"><title>Node4&#45;&gt;Node5</title>
<path fill="none" stroke="midnightblue" d="M202,-66.7024C202,-57.4309 202,-47.3865 202,-39.0817"/>
<polygon fill="midnightblue" stroke="midnightblue" points="198.5,-66.7078 202,-76.7079 205.5,-66.7079 198.5,-66.7078"/>
</g>
</g>
</svg>
