<?xml version="1.0" encoding="UTF-8" standalone="no"?>
<!DOCTYPE svg PUBLIC "-//W3C//DTD SVG 1.1//EN"
 "http://www.w3.org/Graphics/SVG/1.1/DTD/svg11.dtd">
<!-- Generated by graphviz version 2.34.0 (20130907.0228)
 -->
<!-- Title: /Users/tgil/git/CoActionOS/CoActionOS/include/dev/tty.h Pages: 1 -->
<svg width="210pt" height="112pt"
 viewBox="0.00 0.00 210.00 112.00" xmlns="http://www.w3.org/2000/svg" xmlns:xlink="http://www.w3.org/1999/xlink">
<g id="graph0" class="graph" transform="scale(1 1) rotate(0) translate(4 108)">
<title>/Users/tgil/git/CoActionOS/CoActionOS/include/dev/tty.h</title>
<!-- Node1 -->
<g id="node1" class="node"><title>Node1</title>
<polygon fill="#bfbfbf" stroke="black" points="35.6406,-59 35.6406,-103 158.359,-103 158.359,-59 35.6406,-59"/>
<text text-anchor="start" x="43.6406" y="-89" font-family="Helvetica,sans-Serif" font-size="10.00">/Users/tgil/git/CoAction</text>
<text text-anchor="start" x="43.6406" y="-77" font-family="Helvetica,sans-Serif" font-size="10.00">OS/CoActionOS/include</text>
<text text-anchor="middle" x="97" y="-65" font-family="Helvetica,sans-Serif" font-size="10.00">/dev/tty.h</text>
</g>
<!-- Node2 -->
<g id="node2" class="node"><title>Node2</title>
<polygon fill="none" stroke="#bfbfbf" points="-0.120605,-1 -0.120605,-21 48.1206,-21 48.1206,-1 -0.120605,-1"/>
<text text-anchor="middle" x="24" y="-7" font-family="Helvetica,sans-Serif" font-size="10.00">stdint.h</text>
</g>
<!-- Node1&#45;&gt;Node2 -->
<g id="edge1" class="edge"><title>Node1&#45;&gt;Node2</title>
<path fill="none" stroke="midnightblue" d="M74.3025,-58.8571C63.7082,-48.9884 51.2944,-37.425 41.4497,-28.2545"/>
<polygon fill="midnightblue" stroke="midnightblue" points="43.5836,-25.459 33.8807,-21.2039 38.8123,-30.581 43.5836,-25.459"/>
</g>
<!-- Node3 -->
<g id="node3" class="node"><title>Node3</title>
<g id="a_node3"><a xlink:href="ioctl_8h_source.html" target="_top" xlink:title="dev/ioctl.h">
<polygon fill="none" stroke="black" points="66.4878,-1 66.4878,-21 127.512,-21 127.512,-1 66.4878,-1"/>
<text text-anchor="middle" x="97" y="-7" font-family="Helvetica,sans-Serif" font-size="10.00">dev/ioctl.h</text>
</a>
</g>
</g>
<!-- Node1&#45;&gt;Node3 -->
<g id="edge2" class="edge"><title>Node1&#45;&gt;Node3</title>
<path fill="none" stroke="midnightblue" d="M97,-58.8571C97,-50.074 97,-39.9484 97,-31.3622"/>
<polygon fill="midnightblue" stroke="midnightblue" points="100.5,-31.2039 97,-21.2039 93.5001,-31.204 100.5,-31.2039"/>
</g>
<!-- Node4 -->
<g id="node4" class="node"><title>Node4</title>
<polygon fill="none" stroke="#bfbfbf" points="145.438,-1 145.438,-21 202.562,-21 202.562,-1 145.438,-1"/>
<text text-anchor="middle" x="174" y="-7" font-family="Helvetica,sans-Serif" font-size="10.00">termios.h</text>
</g>
<!-- Node1&#45;&gt;Node4 -->
<g id="edge3" class="edge"><title>Node1&#45;&gt;Node4</title>
<path fill="none" stroke="midnightblue" d="M120.941,-58.8571C132.228,-48.8897 145.472,-37.1935 155.905,-27.9801"/>
<polygon fill="midnightblue" stroke="midnightblue" points="158.399,-30.4468 163.578,-21.2039 153.766,-25.2 158.399,-30.4468"/>
</g>
</g>
</svg>
