<?xml version="1.0" encoding="UTF-8" standalone="no"?>
<!DOCTYPE svg PUBLIC "-//W3C//DTD SVG 1.1//EN"
 "http://www.w3.org/Graphics/SVG/1.1/DTD/svg11.dtd">
<!-- Generated by graphviz version 2.34.0 (20130907.0228)
 -->
<!-- Title: /Users/tgil/git/CoActionOS/CoActionOS/include/dev/uart.h Pages: 1 -->
<svg width="201pt" height="112pt"
 viewBox="0.00 0.00 201.00 112.00" xmlns="http://www.w3.org/2000/svg" xmlns:xlink="http://www.w3.org/1999/xlink">
<g id="graph0" class="graph" transform="scale(1 1) rotate(0) translate(4 108)">
<title>/Users/tgil/git/CoActionOS/CoActionOS/include/dev/uart.h</title>
<!-- Node1 -->
<g id="node1" class="node"><title>Node1</title>
<polygon fill="#bfbfbf" stroke="black" points="25.6406,-59 25.6406,-103 148.359,-103 148.359,-59 25.6406,-59"/>
<text text-anchor="start" x="33.6406" y="-89" font-family="Helvetica,sans-Serif" font-size="10.00">/Users/tgil/git/CoAction</text>
<text text-anchor="start" x="33.6406" y="-77" font-family="Helvetica,sans-Serif" font-size="10.00">OS/CoActionOS/include</text>
<text text-anchor="middle" x="87" y="-65" font-family="Helvetica,sans-Serif" font-size="10.00">/dev/uart.h</text>
</g>
<!-- Node2 -->
<g id="node2" class="node"><title>Node2</title>
<polygon fill="none" stroke="#bfbfbf" points="-0.120605,-1 -0.120605,-21 48.1206,-21 48.1206,-1 -0.120605,-1"/>
<text text-anchor="middle" x="24" y="-7" font-family="Helvetica,sans-Serif" font-size="10.00">stdint.h</text>
</g>
<!-- Node1&#45;&gt;Node2 -->
<g id="edge1" class="edge"><title>Node1&#45;&gt;Node2</title>
<path fill="none" stroke="midnightblue" d="M67.4117,-58.8571C58.4516,-49.1858 47.9834,-37.8868 39.5717,-28.8076"/>
<polygon fill="midnightblue" stroke="midnightblue" points="41.8909,-26.1609 32.5272,-21.2039 36.756,-30.9183 41.8909,-26.1609"/>
</g>
<!-- Node3 -->
<g id="node3" class="node"><title>Node3</title>
<g id="a_node3"><a xlink:href="ioctl_8h_source.html" target="_top" target="_top" xlink:title="ioctl.h">
<polygon fill="none" stroke="black" points="65.9385,-1 65.9385,-21 108.062,-21 108.062,-1 65.9385,-1"/>
<text text-anchor="middle" x="87" y="-7" font-family="Helvetica,sans-Serif" font-size="10.00">ioctl.h</text>
</a>
</g>
</g>
<!-- Node1&#45;&gt;Node3 -->
<g id="edge2" class="edge"><title>Node1&#45;&gt;Node3</title>
<path fill="none" stroke="midnightblue" d="M87,-58.8571C87,-50.074 87,-39.9484 87,-31.3622"/>
<polygon fill="midnightblue" stroke="midnightblue" points="90.5001,-31.2039 87,-21.2039 83.5001,-31.204 90.5001,-31.2039"/>
</g>
<!-- Node4 -->
<g id="node4" class="node"><title>Node4</title>
<polygon fill="none" stroke="#bfbfbf" points="126.431,-1 126.431,-21 193.569,-21 193.569,-1 126.431,-1"/>
<text text-anchor="middle" x="160" y="-7" font-family="Helvetica,sans-Serif" font-size="10.00">hwpl/arch.h</text>
</g>
<!-- Node1&#45;&gt;Node4 -->
<g id="edge3" class="edge"><title>Node1&#45;&gt;Node4</title>
<path fill="none" stroke="midnightblue" d="M109.697,-58.8571C120.292,-48.9884 132.706,-37.425 142.55,-28.2545"/>
<polygon fill="midnightblue" stroke="midnightblue" points="145.188,-30.581 150.119,-21.2039 140.416,-25.459 145.188,-30.581"/>
</g>
</g>
</svg>
