<?xml version="1.0" encoding="UTF-8" standalone="no"?>
<!DOCTYPE svg PUBLIC "-//W3C//DTD SVG 1.1//EN"
 "http://www.w3.org/Graphics/SVG/1.1/DTD/svg11.dtd">
<!-- Generated by graphviz version 2.34.0 (20130907.0228)
 -->
<!-- Title: /Users/tgil/git/CoActionOS/CoActionOS/include/dev/uartfifo.h Pages: 1 -->
<svg width="454pt" height="228pt"
 viewBox="0.00 0.00 454.11 228.00" xmlns="http://www.w3.org/2000/svg" xmlns:xlink="http://www.w3.org/1999/xlink">
<g id="graph0" class="graph" transform="scale(1 1) rotate(0) translate(4 224)">
<title>/Users/tgil/git/CoActionOS/CoActionOS/include/dev/uartfifo.h</title>
<!-- Node1 -->
<g id="node1" class="node"><title>Node1</title>
<polygon fill="#bfbfbf" stroke="black" points="58.6584,-175 58.6584,-219 181.377,-219 181.377,-175 58.6584,-175"/>
<text text-anchor="start" x="66.6584" y="-205" font-family="Helvetica,sans-Serif" font-size="10.00">/Users/tgil/git/CoAction</text>
<text text-anchor="start" x="66.6584" y="-193" font-family="Helvetica,sans-Serif" font-size="10.00">OS/CoActionOS/include</text>
<text text-anchor="middle" x="120.018" y="-181" font-family="Helvetica,sans-Serif" font-size="10.00">/dev/uartfifo.h</text>
</g>
<!-- Node2 -->
<g id="node2" class="node"><title>Node2</title>
<polygon fill="none" stroke="#bfbfbf" points="119.897,-1 119.897,-21 168.138,-21 168.138,-1 119.897,-1"/>
<text text-anchor="middle" x="144.018" y="-7" font-family="Helvetica,sans-Serif" font-size="10.00">stdint.h</text>
</g>
<!-- Node1&#45;&gt;Node2 -->
<g id="edge1" class="edge"><title>Node1&#45;&gt;Node2</title>
<path fill="none" stroke="midnightblue" d="M122.771,-174.893C127.461,-138.934 136.934,-66.3116 141.476,-31.488"/>
<polygon fill="midnightblue" stroke="midnightblue" points="144.99,-31.6036 142.813,-21.2349 138.049,-30.6982 144.99,-31.6036"/>
</g>
<!-- Node3 -->
<g id="node3" class="node"><title>Node3</title>
<g id="a_node3"><a xlink:href="ioctl_8h_source.html" target="_top" xlink:title="dev/ioctl.h">
<polygon fill="none" stroke="black" points="-0.494462,-1 -0.494462,-21 60.53,-21 60.53,-1 -0.494462,-1"/>
<text text-anchor="middle" x="30.0177" y="-7" font-family="Helvetica,sans-Serif" font-size="10.00">dev/ioctl.h</text>
</a>
</g>
</g>
<!-- Node1&#45;&gt;Node3 -->
<g id="edge2" class="edge"><title>Node1&#45;&gt;Node3</title>
<path fill="none" stroke="midnightblue" d="M58.4133,-177.45C39.6289,-168.615 21.0453,-155.93 10.0177,-138 -10.7769,-104.19 7.34394,-55.9692 20.0859,-30.0831"/>
<polygon fill="midnightblue" stroke="midnightblue" points="23.2781,-31.53 24.7721,-21.041 17.0632,-28.3089 23.2781,-31.53"/>
</g>
<!-- Node4 -->
<g id="node4" class="node"><title>Node4</title>
<g id="a_node4"><a xlink:href="uart_8h.html" target="_top" xlink:title="Universal Asynchronous Receiver/Transmitter Header File. ">
<polygon fill="none" stroke="black" points="55.7814,-59 55.7814,-79 116.254,-79 116.254,-59 55.7814,-59"/>
<text text-anchor="middle" x="86.0177" y="-65" font-family="Helvetica,sans-Serif" font-size="10.00">dev/uart.h</text>
</a>
</g>
</g>
<!-- Node1&#45;&gt;Node4 -->
<g id="edge3" class="edge"><title>Node1&#45;&gt;Node4</title>
<path fill="none" stroke="midnightblue" d="M114.327,-174.91C107.861,-150.949 97.4006,-112.184 91.1681,-89.0865"/>
<polygon fill="midnightblue" stroke="midnightblue" points="94.4686,-87.8829 88.4841,-79.1401 87.7103,-89.7066 94.4686,-87.8829"/>
</g>
<!-- Node6 -->
<g id="node6" class="node"><title>Node6</title>
<g id="a_node6"><a xlink:href="device_8h_source.html" target="_top" xlink:title="device.h">
<polygon fill="none" stroke="black" points="291.395,-117 291.395,-137 344.641,-137 344.641,-117 291.395,-117"/>
<text text-anchor="middle" x="318.018" y="-123" font-family="Helvetica,sans-Serif" font-size="10.00">device.h</text>
</a>
</g>
</g>
<!-- Node1&#45;&gt;Node6 -->
<g id="edge7" class="edge"><title>Node1&#45;&gt;Node6</title>
<path fill="none" stroke="midnightblue" d="M181.31,-174.95C214.286,-163.625 253.824,-150.046 281.878,-140.412"/>
<polygon fill="midnightblue" stroke="midnightblue" points="283.339,-143.611 291.66,-137.052 281.065,-136.99 283.339,-143.611"/>
</g>
<!-- Node9 -->
<g id="node9" class="node"><title>Node9</title>
<g id="a_node9"><a xlink:href="types_8h_source.html" target="_top" xlink:title="hwpl/types.h">
<polygon fill="none" stroke="black" points="172.225,-59 172.225,-79 243.811,-79 243.811,-59 172.225,-59"/>
<text text-anchor="middle" x="208.018" y="-65" font-family="Helvetica,sans-Serif" font-size="10.00">hwpl/types.h</text>
</a>
</g>
</g>
<!-- Node1&#45;&gt;Node9 -->
<g id="edge23" class="edge"><title>Node1&#45;&gt;Node9</title>
<path fill="none" stroke="midnightblue" d="M134.747,-174.91C151.862,-150.404 179.792,-110.414 195.77,-87.5363"/>
<polygon fill="midnightblue" stroke="midnightblue" points="198.778,-89.3426 201.634,-79.1401 193.039,-85.3344 198.778,-89.3426"/>
</g>
<!-- Node11 -->
<g id="node11" class="node"><title>Node11</title>
<g id="a_node11"><a xlink:href="fifo_8h.html" target="_top" xlink:title="fifo.h">
<polygon fill="none" stroke="black" points="19.1779,-117 19.1779,-137 56.8576,-137 56.8576,-117 19.1779,-117"/>
<text text-anchor="middle" x="38.0177" y="-123" font-family="Helvetica,sans-Serif" font-size="10.00">fifo.h</text>
</a>
</g>
</g>
<!-- Node1&#45;&gt;Node11 -->
<g id="edge19" class="edge"><title>Node1&#45;&gt;Node11</title>
<path fill="none" stroke="midnightblue" d="M94.5219,-174.857C82.3834,-164.791 68.1187,-152.962 56.9588,-143.707"/>
<polygon fill="midnightblue" stroke="midnightblue" points="59.0484,-140.893 49.1166,-137.204 54.58,-146.281 59.0484,-140.893"/>
</g>
<!-- Node4&#45;&gt;Node2 -->
<g id="edge4" class="edge"><title>Node4&#45;&gt;Node2</title>
<path fill="none" stroke="midnightblue" d="M95.5953,-58.7527C104.21,-50.4349 117.057,-38.031 127.354,-28.0893"/>
<polygon fill="midnightblue" stroke="midnightblue" points="129.855,-30.5391 134.618,-21.0752 124.993,-25.5033 129.855,-30.5391"/>
</g>
<!-- Node4&#45;&gt;Node3 -->
<g id="edge5" class="edge"><title>Node4&#45;&gt;Node3</title>
<path fill="none" stroke="midnightblue" d="M76.7705,-58.7527C68.5342,-50.5165 56.2915,-38.2738 46.4001,-28.3824"/>
<polygon fill="midnightblue" stroke="midnightblue" points="48.6389,-25.6714 39.0929,-21.0752 43.6891,-30.6212 48.6389,-25.6714"/>
</g>
<!-- Node5 -->
<g id="node5" class="node"><title>Node5</title>
<polygon fill="none" stroke="#bfbfbf" points="221.449,-1 221.449,-21 288.587,-21 288.587,-1 221.449,-1"/>
<text text-anchor="middle" x="255.018" y="-7" font-family="Helvetica,sans-Serif" font-size="10.00">hwpl/arch.h</text>
</g>
<!-- Node4&#45;&gt;Node5 -->
<g id="edge6" class="edge"><title>Node4&#45;&gt;Node5</title>
<path fill="none" stroke="midnightblue" d="M113.547,-58.878C141.989,-49.4534 186.549,-34.6878 218.049,-24.2499"/>
<polygon fill="midnightblue" stroke="midnightblue" points="219.389,-27.4932 227.781,-21.0253 217.187,-20.8484 219.389,-27.4932"/>
</g>
<!-- Node6&#45;&gt;Node5 -->
<g id="edge13" class="edge"><title>Node6&#45;&gt;Node5</title>
<path fill="none" stroke="midnightblue" d="M322.649,-116.55C328.683,-102.78 337.316,-76.7996 327.018,-58 319.009,-43.3797 304.156,-32.7309 290.012,-25.3842"/>
<polygon fill="midnightblue" stroke="midnightblue" points="291.43,-22.1827 280.898,-21.0247 288.409,-28.4974 291.43,-22.1827"/>
</g>
<!-- Node7 -->
<g id="node7" class="node"><title>Node7</title>
<polygon fill="none" stroke="#bfbfbf" points="373.9,-59 373.9,-79 432.136,-79 432.136,-59 373.9,-59"/>
<text text-anchor="middle" x="403.018" y="-65" font-family="Helvetica,sans-Serif" font-size="10.00">sys/stat.h</text>
</g>
<!-- Node6&#45;&gt;Node7 -->
<g id="edge8" class="edge"><title>Node6&#45;&gt;Node7</title>
<path fill="none" stroke="midnightblue" d="M332.054,-116.753C345.298,-108.027 365.367,-94.8051 380.788,-84.6458"/>
<polygon fill="midnightblue" stroke="midnightblue" points="382.818,-87.4995 389.243,-79.0752 378.967,-81.6541 382.818,-87.4995"/>
</g>
<!-- Node8 -->
<g id="node8" class="node"><title>Node8</title>
<polygon fill="none" stroke="#bfbfbf" points="306.725,-1 306.725,-21 363.311,-21 363.311,-1 306.725,-1"/>
<text text-anchor="middle" x="335.018" y="-7" font-family="Helvetica,sans-Serif" font-size="10.00">stdbool.h</text>
</g>
<!-- Node6&#45;&gt;Node8 -->
<g id="edge9" class="edge"><title>Node6&#45;&gt;Node8</title>
<path fill="none" stroke="midnightblue" d="M344.674,-124.501C373.86,-121.267 419.382,-111.19 441.018,-80 461.609,-50.3156 411.459,-30.6217 373.309,-20.3882"/>
<polygon fill="midnightblue" stroke="midnightblue" points="373.983,-16.9481 363.428,-17.871 372.255,-23.7314 373.983,-16.9481"/>
</g>
<!-- Node6&#45;&gt;Node9 -->
<g id="edge10" class="edge"><title>Node6&#45;&gt;Node9</title>
<path fill="none" stroke="midnightblue" d="M299.853,-116.753C282.153,-107.742 255.033,-93.9353 234.848,-83.6589"/>
<polygon fill="midnightblue" stroke="midnightblue" points="236.344,-80.493 225.844,-79.0752 233.168,-86.7312 236.344,-80.493"/>
</g>
<!-- Node10 -->
<g id="node10" class="node"><title>Node10</title>
<g id="a_node10"><a xlink:href="pio_8h.html" target="_top" xlink:title="General Purpose Input/Output Header File. ">
<polygon fill="none" stroke="black" points="261.725,-59 261.725,-79 318.311,-79 318.311,-59 261.725,-59"/>
<text text-anchor="middle" x="290.018" y="-65" font-family="Helvetica,sans-Serif" font-size="10.00">dev/pio.h</text>
</a>
</g>
</g>
<!-- Node6&#45;&gt;Node10 -->
<g id="edge14" class="edge"><title>Node6&#45;&gt;Node10</title>
<path fill="none" stroke="midnightblue" d="M313.394,-116.753C309.521,-109.006 303.875,-97.7142 299.102,-88.1688"/>
<polygon fill="midnightblue" stroke="midnightblue" points="302.158,-86.4542 294.555,-79.0752 295.897,-89.5847 302.158,-86.4542"/>
</g>
<!-- Node9&#45;&gt;Node2 -->
<g id="edge11" class="edge"><title>Node9&#45;&gt;Node2</title>
<path fill="none" stroke="midnightblue" d="M197.449,-58.7527C187.85,-50.3534 173.489,-37.7874 162.072,-27.7976"/>
<polygon fill="midnightblue" stroke="midnightblue" points="164.22,-25.0262 154.389,-21.0752 159.61,-30.2943 164.22,-25.0262"/>
</g>
<!-- Node9&#45;&gt;Node8 -->
<g id="edge12" class="edge"><title>Node9&#45;&gt;Node8</title>
<path fill="none" stroke="midnightblue" d="M228.705,-58.878C249.462,-49.7255 281.642,-35.5357 305.163,-25.1643"/>
<polygon fill="midnightblue" stroke="midnightblue" points="306.601,-28.3553 314.339,-21.1181 303.777,-21.9503 306.601,-28.3553"/>
</g>
<!-- Node10&#45;&gt;Node2 -->
<g id="edge16" class="edge"><title>Node10&#45;&gt;Node2</title>
<path fill="none" stroke="midnightblue" d="M266.235,-58.878C242.055,-49.6034 204.39,-35.1564 177.263,-24.7515"/>
<polygon fill="midnightblue" stroke="midnightblue" points="178.38,-21.4315 167.79,-21.1181 175.873,-27.9672 178.38,-21.4315"/>
</g>
<!-- Node10&#45;&gt;Node3 -->
<g id="edge17" class="edge"><title>Node10&#45;&gt;Node3</title>
<path fill="none" stroke="midnightblue" d="M261.424,-60.3019C258.256,-59.5007 255.073,-58.7179 252.018,-58 188.921,-43.1717 115.141,-28.3865 70.529,-19.7245"/>
<polygon fill="midnightblue" stroke="midnightblue" points="71.1364,-16.2772 60.6537,-17.8146 69.8072,-23.1498 71.1364,-16.2772"/>
</g>
<!-- Node10&#45;&gt;Node5 -->
<g id="edge18" class="edge"><title>Node10&#45;&gt;Node5</title>
<path fill="none" stroke="midnightblue" d="M284.238,-58.7527C279.294,-50.8427 272.041,-39.2372 265.998,-29.5683"/>
<polygon fill="midnightblue" stroke="midnightblue" points="268.958,-27.7002 260.69,-21.0752 263.022,-31.4102 268.958,-27.7002"/>
</g>
<!-- Node10&#45;&gt;Node8 -->
<g id="edge15" class="edge"><title>Node10&#45;&gt;Node8</title>
<path fill="none" stroke="midnightblue" d="M297.449,-58.7527C303.936,-50.6796 313.517,-38.7571 321.379,-28.9727"/>
<polygon fill="midnightblue" stroke="midnightblue" points="324.19,-31.0627 327.725,-21.0752 318.733,-26.6779 324.19,-31.0627"/>
</g>
<!-- Node11&#45;&gt;Node2 -->
<g id="edge20" class="edge"><title>Node11&#45;&gt;Node2</title>
<path fill="none" stroke="midnightblue" d="M36.6392,-116.63C35.0891,-102.496 34.2527,-75.5155 47.0177,-58 61.9905,-37.4552 88.5447,-25.7446 110.089,-19.2867"/>
<polygon fill="midnightblue" stroke="midnightblue" points="111.164,-22.621 119.881,-16.5994 109.312,-15.8705 111.164,-22.621"/>
</g>
<!-- Node11&#45;&gt;Node3 -->
<g id="edge21" class="edge"><title>Node11&#45;&gt;Node3</title>
<path fill="none" stroke="midnightblue" d="M31.4242,-116.674C25.5441,-107.744 17.364,-93.6478 14.0177,-80 9.9212,-63.2921 15.2763,-44.2231 20.8668,-30.5387"/>
<polygon fill="midnightblue" stroke="midnightblue" points="24.1332,-31.8085 25.0351,-21.2521 17.747,-28.942 24.1332,-31.8085"/>
</g>
<!-- Node11&#45;&gt;Node9 -->
<g id="edge22" class="edge"><title>Node11&#45;&gt;Node9</title>
<path fill="none" stroke="midnightblue" d="M56.8603,-119.793C84.2414,-110.773 135.592,-93.8578 170.778,-82.2672"/>
<polygon fill="midnightblue" stroke="midnightblue" points="172.284,-85.4563 180.687,-79.0032 170.094,-78.8077 172.284,-85.4563"/>
</g>
</g>
</svg>
