<?xml version="1.0" encoding="UTF-8" standalone="no"?>
<!DOCTYPE svg PUBLIC "-//W3C//DTD SVG 1.1//EN"
 "http://www.w3.org/Graphics/SVG/1.1/DTD/svg11.dtd">
<!-- Generated by graphviz version 2.34.0 (20130907.0228)
 -->
<!-- Title: /Users/tgil/git/CoActionOS/CoActionOS/src/sys/unistd/unistd_data_transfer.c Pages: 1 -->
<svg width="1108pt" height="344pt"
 viewBox="0.00 0.00 1107.71 344.00" xmlns="http://www.w3.org/2000/svg" xmlns:xlink="http://www.w3.org/1999/xlink">
<g id="graph0" class="graph" transform="scale(1 1) rotate(0) translate(4 340)">
<title>/Users/tgil/git/CoActionOS/CoActionOS/src/sys/unistd/unistd_data_transfer.c</title>
<!-- Node1 -->
<g id="node1" class="node"><title>Node1</title>
<polygon fill="#bfbfbf" stroke="black" points="220.678,-291 220.678,-335 367.322,-335 367.322,-291 220.678,-291"/>
<text text-anchor="start" x="228.678" y="-321" font-family="Helvetica,sans-Serif" font-size="10.00">/Users/tgil/git/CoAction</text>
<text text-anchor="start" x="228.678" y="-309" font-family="Helvetica,sans-Serif" font-size="10.00">OS/CoActionOS/src/sys</text>
<text text-anchor="middle" x="294" y="-297" font-family="Helvetica,sans-Serif" font-size="10.00">/unistd/unistd_data_transfer.c</text>
</g>
<!-- Node2 -->
<g id="node2" class="node"><title>Node2</title>
<polygon fill="none" stroke="#bfbfbf" points="-0.566406,-233 -0.566406,-253 46.5664,-253 46.5664,-233 -0.566406,-233"/>
<text text-anchor="middle" x="23" y="-239" font-family="Helvetica,sans-Serif" font-size="10.00">reent.h</text>
</g>
<!-- Node1&#45;&gt;Node2 -->
<g id="edge1" class="edge"><title>Node1&#45;&gt;Node2</title>
<path fill="none" stroke="midnightblue" d="M220.553,-295.206C175.769,-284.708 117.18,-270.517 56.5023,-254.032"/>
<polygon fill="midnightblue" stroke="midnightblue" points="57.3166,-250.627 46.7477,-251.367 55.4717,-257.379 57.3166,-250.627"/>
</g>
<!-- Node3 -->
<g id="node3" class="node"><title>Node3</title>
<polygon fill="none" stroke="#bfbfbf" points="64.9336,-233 64.9336,-253 117.066,-253 117.066,-233 64.9336,-233"/>
<text text-anchor="middle" x="91" y="-239" font-family="Helvetica,sans-Serif" font-size="10.00">stdarg.h</text>
</g>
<!-- Node1&#45;&gt;Node3 -->
<g id="edge2" class="edge"><title>Node1&#45;&gt;Node3</title>
<path fill="none" stroke="midnightblue" d="M231.16,-290.95C196.89,-279.471 155.708,-265.676 126.883,-256.02"/>
<polygon fill="midnightblue" stroke="midnightblue" points="127.828,-252.646 117.234,-252.788 125.605,-259.283 127.828,-252.646"/>
</g>
<!-- Node4 -->
<g id="node4" class="node"><title>Node4</title>
<polygon fill="none" stroke="#bfbfbf" points="301.882,-59 301.882,-79 360.118,-79 360.118,-59 301.882,-59"/>
<text text-anchor="middle" x="331" y="-65" font-family="Helvetica,sans-Serif" font-size="10.00">sys/stat.h</text>
</g>
<!-- Node1&#45;&gt;Node4 -->
<g id="edge3" class="edge"><title>Node1&#45;&gt;Node4</title>
<path fill="none" stroke="midnightblue" d="M248.112,-290.984C200.767,-266.14 137.315,-222.055 164,-174 191.191,-125.035 252.067,-96.1275 292.319,-81.6724"/>
<polygon fill="midnightblue" stroke="midnightblue" points="293.516,-84.9621 301.824,-78.3884 291.23,-78.3458 293.516,-84.9621"/>
</g>
<!-- Node5 -->
<g id="node5" class="node"><title>Node5</title>
<polygon fill="none" stroke="#bfbfbf" points="173.158,-175 173.158,-195 220.842,-195 220.842,-175 173.158,-175"/>
<text text-anchor="middle" x="197" y="-181" font-family="Helvetica,sans-Serif" font-size="10.00">errno.h</text>
</g>
<!-- Node1&#45;&gt;Node5 -->
<g id="edge4" class="edge"><title>Node1&#45;&gt;Node5</title>
<path fill="none" stroke="midnightblue" d="M277.764,-290.91C258.815,-266.295 227.838,-226.058 210.266,-203.232"/>
<polygon fill="midnightblue" stroke="midnightblue" points="212.91,-200.929 204.036,-195.14 207.363,-205.199 212.91,-200.929"/>
</g>
<!-- Node6 -->
<g id="node6" class="node"><title>Node6</title>
<g id="a_node6"><a xlink:href="hwpl_8h.html" target="_top" xlink:title="HWPL Header file (includes all other header files) ">
<polygon fill="none" stroke="black" points="841.547,-117 841.547,-137 886.453,-137 886.453,-117 841.547,-117"/>
<text text-anchor="middle" x="864" y="-123" font-family="Helvetica,sans-Serif" font-size="10.00">hwpl.h</text>
</a>
</g>
</g>
<!-- Node1&#45;&gt;Node6 -->
<g id="edge5" class="edge"><title>Node1&#45;&gt;Node6</title>
<path fill="none" stroke="midnightblue" d="M367.624,-312.77C455.664,-311.311 606.041,-301.182 725,-254 781.552,-231.57 829.578,-174.794 851.414,-145.732"/>
<polygon fill="midnightblue" stroke="midnightblue" points="854.47,-147.483 857.56,-137.349 848.825,-143.344 854.47,-147.483"/>
</g>
<!-- Node15 -->
<g id="node15" class="node"><title>Node15</title>
<g id="a_node15"><a xlink:href="unistd__fs_8h_source.html" target="_top" xlink:title="unistd_fs.h">
<polygon fill="none" stroke="black" points="314.818,-233 314.818,-253 379.182,-253 379.182,-233 314.818,-233"/>
<text text-anchor="middle" x="347" y="-239" font-family="Helvetica,sans-Serif" font-size="10.00">unistd_fs.h</text>
</a>
</g>
</g>
<!-- Node1&#45;&gt;Node15 -->
<g id="edge16" class="edge"><title>Node1&#45;&gt;Node15</title>
<path fill="none" stroke="midnightblue" d="M310.479,-290.857C317.863,-281.383 326.465,-270.347 333.465,-261.366"/>
<polygon fill="midnightblue" stroke="midnightblue" points="336.439,-263.243 339.826,-253.204 330.918,-258.94 336.439,-263.243"/>
</g>
<!-- Node25 -->
<g id="node25" class="node"><title>Node25</title>
<g id="a_node25"><a xlink:href="unistd__flags_8h_source.html" target="_top" xlink:title="unistd_flags.h">
<polygon fill="none" stroke="black" points="639.146,-233 639.146,-253 716.854,-253 716.854,-233 639.146,-233"/>
<text text-anchor="middle" x="678" y="-239" font-family="Helvetica,sans-Serif" font-size="10.00">unistd_flags.h</text>
</a>
</g>
</g>
<!-- Node1&#45;&gt;Node25 -->
<g id="edge39" class="edge"><title>Node1&#45;&gt;Node25</title>
<path fill="none" stroke="midnightblue" d="M367.585,-298.969C444.38,-285.37 562.641,-264.428 628.82,-252.709"/>
<polygon fill="midnightblue" stroke="midnightblue" points="629.744,-256.1 638.98,-250.91 628.523,-249.207 629.744,-256.1"/>
</g>
<!-- Node26 -->
<g id="node26" class="node"><title>Node26</title>
<polygon fill="none" stroke="#bfbfbf" points="974.247,-233 974.247,-253 1089.75,-253 1089.75,-233 974.247,-233"/>
<text text-anchor="middle" x="1032" y="-239" font-family="Helvetica,sans-Serif" font-size="10.00">../sched/sched_flags.h</text>
</g>
<!-- Node1&#45;&gt;Node26 -->
<g id="edge45" class="edge"><title>Node1&#45;&gt;Node26</title>
<path fill="none" stroke="midnightblue" d="M367.543,-306.831C490.427,-297.917 745.198,-278.254 960,-254 961.27,-253.857 962.552,-253.709 963.843,-253.558"/>
<polygon fill="midnightblue" stroke="midnightblue" points="964.371,-257.019 973.873,-252.333 963.523,-250.071 964.371,-257.019"/>
</g>
<!-- Node7 -->
<g id="node7" class="node"><title>Node7</title>
<polygon fill="none" stroke="#bfbfbf" points="679.879,-1 679.879,-21 728.121,-21 728.121,-1 679.879,-1"/>
<text text-anchor="middle" x="704" y="-7" font-family="Helvetica,sans-Serif" font-size="10.00">stdint.h</text>
</g>
<!-- Node6&#45;&gt;Node7 -->
<g id="edge6" class="edge"><title>Node6&#45;&gt;Node7</title>
<path fill="none" stroke="midnightblue" d="M886.711,-121.482C926.421,-112.607 1001.73,-90.8559 974,-58 944.221,-22.7185 804.261,-14.4942 738.412,-12.5796"/>
<polygon fill="midnightblue" stroke="midnightblue" points="738.222,-9.07364 728.135,-12.3149 738.041,-16.0713 738.222,-9.07364"/>
</g>
<!-- Node8 -->
<g id="node8" class="node"><title>Node8</title>
<polygon fill="none" stroke="#bfbfbf" points="918.158,-59 918.158,-79 965.842,-79 965.842,-59 918.158,-59"/>
<text text-anchor="middle" x="942" y="-65" font-family="Helvetica,sans-Serif" font-size="10.00">stdlib.h</text>
</g>
<!-- Node6&#45;&gt;Node8 -->
<g id="edge7" class="edge"><title>Node6&#45;&gt;Node8</title>
<path fill="none" stroke="midnightblue" d="M876.88,-116.753C888.92,-108.109 907.106,-95.0518 921.203,-84.9314"/>
<polygon fill="midnightblue" stroke="midnightblue" points="923.278,-87.7504 929.36,-79.0752 919.195,-82.0642 923.278,-87.7504"/>
</g>
<!-- Node9 -->
<g id="node9" class="node"><title>Node9</title>
<polygon fill="none" stroke="#bfbfbf" points="1021.6,-59 1021.6,-79 1070.4,-79 1070.4,-59 1021.6,-59"/>
<text text-anchor="middle" x="1046" y="-65" font-family="Helvetica,sans-Serif" font-size="10.00">string.h</text>
</g>
<!-- Node6&#45;&gt;Node9 -->
<g id="edge8" class="edge"><title>Node6&#45;&gt;Node9</title>
<path fill="none" stroke="midnightblue" d="M886.682,-119.021C918.126,-109.346 975.214,-91.7803 1011.83,-80.5135"/>
<polygon fill="midnightblue" stroke="midnightblue" points="1013.05,-83.8006 1021.58,-77.5145 1010.99,-77.1102 1013.05,-83.8006"/>
</g>
<!-- Node10 -->
<g id="node10" class="node"><title>Node10</title>
<polygon fill="none" stroke="#bfbfbf" points="732.269,-59 732.269,-79 777.731,-79 777.731,-59 732.269,-59"/>
<text text-anchor="middle" x="755" y="-65" font-family="Helvetica,sans-Serif" font-size="10.00">stdio.h</text>
</g>
<!-- Node6&#45;&gt;Node10 -->
<g id="edge9" class="edge"><title>Node6&#45;&gt;Node10</title>
<path fill="none" stroke="midnightblue" d="M846.001,-116.753C828.462,-107.742 801.588,-93.9353 781.586,-83.6589"/>
<polygon fill="midnightblue" stroke="midnightblue" points="783.158,-80.5319 772.664,-79.0752 779.96,-86.7582 783.158,-80.5319"/>
</g>
<!-- Node11 -->
<g id="node11" class="node"><title>Node11</title>
<polygon fill="none" stroke="#bfbfbf" points="435.707,-1 435.707,-21 492.293,-21 492.293,-1 435.707,-1"/>
<text text-anchor="middle" x="464" y="-7" font-family="Helvetica,sans-Serif" font-size="10.00">stdbool.h</text>
</g>
<!-- Node6&#45;&gt;Node11 -->
<g id="edge10" class="edge"><title>Node6&#45;&gt;Node11</title>
<path fill="none" stroke="midnightblue" d="M841.282,-119.072C836.905,-117.913 832.334,-116.822 828,-116 752.267,-101.635 541.899,-129.726 483,-80 468.982,-68.1648 464.86,-46.9247 463.855,-31.3225"/>
<polygon fill="midnightblue" stroke="midnightblue" points="467.35,-31.0736 463.577,-21.1732 460.353,-31.2654 467.35,-31.0736"/>
</g>
<!-- Node12 -->
<g id="node12" class="node"><title>Node12</title>
<polygon fill="none" stroke="#bfbfbf" points="833.707,-59 833.707,-79 900.293,-79 900.293,-59 833.707,-59"/>
<text text-anchor="middle" x="867" y="-65" font-family="Helvetica,sans-Serif" font-size="10.00">hwpl/fault.h</text>
</g>
<!-- Node6&#45;&gt;Node12 -->
<g id="edge11" class="edge"><title>Node6&#45;&gt;Node12</title>
<path fill="none" stroke="midnightblue" d="M864.495,-116.753C864.897,-109.25 865.477,-98.4238 865.978,-89.0781"/>
<polygon fill="midnightblue" stroke="midnightblue" points="869.474,-89.2481 866.514,-79.0752 862.484,-88.8736 869.474,-89.2481"/>
</g>
<!-- Node13 -->
<g id="node13" class="node"><title>Node13</title>
<polygon fill="none" stroke="#bfbfbf" points="542.431,-1 542.431,-21 609.569,-21 609.569,-1 542.431,-1"/>
<text text-anchor="middle" x="576" y="-7" font-family="Helvetica,sans-Serif" font-size="10.00">hwpl/arch.h</text>
</g>
<!-- Node6&#45;&gt;Node13 -->
<g id="edge12" class="edge"><title>Node6&#45;&gt;Node13</title>
<path fill="none" stroke="midnightblue" d="M856.388,-116.898C843.498,-102.113 815.847,-73.0238 786,-58 732.606,-31.1241 663.826,-19.872 619.81,-15.2138"/>
<polygon fill="midnightblue" stroke="midnightblue" points="620.018,-11.7174 609.722,-14.2159 619.329,-18.6834 620.018,-11.7174"/>
</g>
<!-- Node14 -->
<g id="node14" class="node"><title>Node14</title>
<g id="a_node14"><a xlink:href="types_8h_source.html" target="_top" xlink:title="hwpl/types.h">
<polygon fill="none" stroke="black" points="604.207,-59 604.207,-79 675.793,-79 675.793,-59 604.207,-59"/>
<text text-anchor="middle" x="640" y="-65" font-family="Helvetica,sans-Serif" font-size="10.00">hwpl/types.h</text>
</a>
</g>
</g>
<!-- Node6&#45;&gt;Node14 -->
<g id="edge13" class="edge"><title>Node6&#45;&gt;Node14</title>
<path fill="none" stroke="midnightblue" d="M841.176,-119.545C836.808,-118.343 832.268,-117.115 828,-116 779.652,-103.373 724.035,-89.8938 685.909,-80.8131"/>
<polygon fill="midnightblue" stroke="midnightblue" points="686.663,-77.3949 676.124,-78.4879 685.044,-84.2052 686.663,-77.3949"/>
</g>
<!-- Node14&#45;&gt;Node7 -->
<g id="edge14" class="edge"><title>Node14&#45;&gt;Node7</title>
<path fill="none" stroke="midnightblue" d="M650.568,-58.7527C660.168,-50.3534 674.529,-37.7874 685.946,-27.7976"/>
<polygon fill="midnightblue" stroke="midnightblue" points="688.407,-30.2943 693.628,-21.0752 683.798,-25.0262 688.407,-30.2943"/>
</g>
<!-- Node14&#45;&gt;Node11 -->
<g id="edge15" class="edge"><title>Node14&#45;&gt;Node11</title>
<path fill="none" stroke="midnightblue" d="M611.331,-58.878C581.583,-49.4126 534.902,-34.5598 502.074,-24.1146"/>
<polygon fill="midnightblue" stroke="midnightblue" points="502.956,-20.7222 492.365,-21.0253 500.833,-27.3927 502.956,-20.7222"/>
</g>
<!-- Node15&#45;&gt;Node4 -->
<g id="edge19" class="edge"><title>Node15&#45;&gt;Node4</title>
<path fill="none" stroke="midnightblue" d="M344.556,-232.915C342.186,-223.692 338.706,-208.964 337,-196 332.068,-158.512 331.059,-114.277 330.925,-89.4486"/>
<polygon fill="midnightblue" stroke="midnightblue" points="334.425,-89.2128 330.916,-79.2162 327.425,-89.2196 334.425,-89.2128"/>
</g>
<!-- Node15&#45;&gt;Node5 -->
<g id="edge22" class="edge"><title>Node15&#45;&gt;Node5</title>
<path fill="none" stroke="midnightblue" d="M322.566,-232.878C297.576,-223.548 258.565,-208.984 230.659,-198.566"/>
<polygon fill="midnightblue" stroke="midnightblue" points="231.52,-195.152 220.927,-194.933 229.072,-201.709 231.52,-195.152"/>
</g>
<!-- Node15&#45;&gt;Node10 -->
<g id="edge20" class="edge"><title>Node15&#45;&gt;Node10</title>
<path fill="none" stroke="midnightblue" d="M379.454,-240.075C428.952,-236.28 525.61,-225.458 602,-196 647.451,-178.473 657.828,-169.483 695,-138 713.108,-122.664 730.691,-101.816 742.091,-87.2616"/>
<polygon fill="midnightblue" stroke="midnightblue" points="745.028,-89.1828 748.339,-79.1186 739.475,-84.9214 745.028,-89.1828"/>
</g>
<!-- Node16 -->
<g id="node16" class="node"><title>Node16</title>
<g id="a_node16"><a xlink:href="config_8h.html" target="_top" xlink:title="config.h">
<polygon fill="none" stroke="black" points="238.488,-175 238.488,-195 289.512,-195 289.512,-175 238.488,-175"/>
<text text-anchor="middle" x="264" y="-181" font-family="Helvetica,sans-Serif" font-size="10.00">config.h</text>
</a>
</g>
</g>
<!-- Node15&#45;&gt;Node16 -->
<g id="edge17" class="edge"><title>Node15&#45;&gt;Node16</title>
<path fill="none" stroke="midnightblue" d="M333.294,-232.753C320.483,-224.109 301.13,-211.052 286.13,-200.931"/>
<polygon fill="midnightblue" stroke="midnightblue" points="287.698,-197.767 277.451,-195.075 283.783,-203.57 287.698,-197.767"/>
</g>
<!-- Node17 -->
<g id="node17" class="node"><title>Node17</title>
<polygon fill="none" stroke="#bfbfbf" points="345.771,-175 345.771,-195 406.229,-195 406.229,-175 345.771,-175"/>
<text text-anchor="middle" x="376" y="-181" font-family="Helvetica,sans-Serif" font-size="10.00">sys/fcntl.h</text>
</g>
<!-- Node15&#45;&gt;Node17 -->
<g id="edge18" class="edge"><title>Node15&#45;&gt;Node17</title>
<path fill="none" stroke="midnightblue" d="M351.789,-232.753C355.801,-225.006 361.648,-213.714 366.591,-204.169"/>
<polygon fill="midnightblue" stroke="midnightblue" points="369.81,-205.565 371.3,-195.075 363.594,-202.346 369.81,-205.565"/>
</g>
<!-- Node18 -->
<g id="node18" class="node"><title>Node18</title>
<polygon fill="none" stroke="#bfbfbf" points="424.488,-175 424.488,-195 475.512,-195 475.512,-175 424.488,-175"/>
<text text-anchor="middle" x="450" y="-181" font-family="Helvetica,sans-Serif" font-size="10.00">unistd.h</text>
</g>
<!-- Node15&#45;&gt;Node18 -->
<g id="edge21" class="edge"><title>Node15&#45;&gt;Node18</title>
<path fill="none" stroke="midnightblue" d="M364.008,-232.753C380.432,-223.823 405.517,-210.185 424.363,-199.939"/>
<polygon fill="midnightblue" stroke="midnightblue" points="426.194,-202.927 433.308,-195.075 422.851,-196.777 426.194,-202.927"/>
</g>
<!-- Node19 -->
<g id="node19" class="node"><title>Node19</title>
<g id="a_node19"><a xlink:href="sysfs_8h_source.html" target="_top" xlink:title="sysfs.h">
<polygon fill="none" stroke="black" points="546.441,-175 546.441,-195 593.559,-195 593.559,-175 546.441,-175"/>
<text text-anchor="middle" x="570" y="-181" font-family="Helvetica,sans-Serif" font-size="10.00">sysfs.h</text>
</a>
</g>
</g>
<!-- Node15&#45;&gt;Node19 -->
<g id="edge23" class="edge"><title>Node15&#45;&gt;Node19</title>
<path fill="none" stroke="midnightblue" d="M379.426,-233.857C421.386,-223.32 494.128,-205.053 536.572,-194.394"/>
<polygon fill="midnightblue" stroke="midnightblue" points="537.572,-197.752 546.419,-191.922 535.867,-190.963 537.572,-197.752"/>
</g>
<!-- Node19&#45;&gt;Node4 -->
<g id="edge28" class="edge"><title>Node19&#45;&gt;Node4</title>
<path fill="none" stroke="midnightblue" d="M546.312,-179.666C515.499,-173.406 460.582,-160.095 418,-138 391.338,-124.165 364.722,-101.792 348.083,-86.5149"/>
<polygon fill="midnightblue" stroke="midnightblue" points="350.033,-83.5446 340.345,-79.2558 345.243,-88.65 350.033,-83.5446"/>
</g>
<!-- Node19&#45;&gt;Node7 -->
<g id="edge26" class="edge"><title>Node19&#45;&gt;Node7</title>
<path fill="none" stroke="midnightblue" d="M593.752,-179.989C617.844,-174.651 654.426,-162.823 675,-138 700.568,-107.15 704.58,-58.0629 704.666,-31.1693"/>
<polygon fill="midnightblue" stroke="midnightblue" points="708.165,-31.066 704.513,-21.1201 701.165,-31.172 708.165,-31.066"/>
</g>
<!-- Node19&#45;&gt;Node11 -->
<g id="edge24" class="edge"><title>Node19&#45;&gt;Node11</title>
<path fill="none" stroke="midnightblue" d="M546.283,-177.821C515.26,-169.257 463.387,-153.121 451,-138 428.293,-110.281 432.767,-92.8737 441,-58 443.33,-48.1315 448.118,-37.9664 452.726,-29.7097"/>
<polygon fill="midnightblue" stroke="midnightblue" points="455.788,-31.4093 457.894,-21.0259 449.772,-27.8295 455.788,-31.4093"/>
</g>
<!-- Node20 -->
<g id="node20" class="node"><title>Node20</title>
<polygon fill="none" stroke="#bfbfbf" points="459.99,-117 459.99,-137 526.01,-137 526.01,-117 459.99,-117"/>
<text text-anchor="middle" x="493" y="-123" font-family="Helvetica,sans-Serif" font-size="10.00">sys/types.h</text>
</g>
<!-- Node19&#45;&gt;Node20 -->
<g id="edge25" class="edge"><title>Node19&#45;&gt;Node20</title>
<path fill="none" stroke="midnightblue" d="M557.285,-174.753C545.512,-166.19 527.784,-153.298 513.926,-143.219"/>
<polygon fill="midnightblue" stroke="midnightblue" points="515.624,-140.126 505.478,-137.075 511.507,-145.788 515.624,-140.126"/>
</g>
<!-- Node21 -->
<g id="node21" class="node"><title>Node21</title>
<polygon fill="none" stroke="#bfbfbf" points="544.209,-117 544.209,-137 595.791,-137 595.791,-117 544.209,-117"/>
<text text-anchor="middle" x="570" y="-123" font-family="Helvetica,sans-Serif" font-size="10.00">stddef.h</text>
</g>
<!-- Node19&#45;&gt;Node21 -->
<g id="edge27" class="edge"><title>Node19&#45;&gt;Node21</title>
<path fill="none" stroke="midnightblue" d="M570,-174.753C570,-167.25 570,-156.424 570,-147.078"/>
<polygon fill="midnightblue" stroke="midnightblue" points="573.5,-147.075 570,-137.075 566.5,-147.075 573.5,-147.075"/>
</g>
<!-- Node22 -->
<g id="node22" class="node"><title>Node22</title>
<polygon fill="none" stroke="#bfbfbf" points="770.323,-117 770.323,-137 819.677,-137 819.677,-117 770.323,-117"/>
<text text-anchor="middle" x="795" y="-123" font-family="Helvetica,sans-Serif" font-size="10.00">dirent.h</text>
</g>
<!-- Node19&#45;&gt;Node22 -->
<g id="edge29" class="edge"><title>Node19&#45;&gt;Node22</title>
<path fill="none" stroke="midnightblue" d="M593.654,-178.113C633.514,-168.192 714.228,-148.103 760.441,-136.601"/>
<polygon fill="midnightblue" stroke="midnightblue" points="761.442,-139.959 770.301,-134.147 759.752,-133.166 761.442,-139.959"/>
</g>
<!-- Node23 -->
<g id="node23" class="node"><title>Node23</title>
<g id="a_node23"><a xlink:href="device_8h_source.html" target="_top" xlink:title="device.h">
<polygon fill="none" stroke="black" points="613.377,-117 613.377,-137 666.623,-137 666.623,-117 613.377,-117"/>
<text text-anchor="middle" x="640" y="-123" font-family="Helvetica,sans-Serif" font-size="10.00">device.h</text>
</a>
</g>
</g>
<!-- Node19&#45;&gt;Node23 -->
<g id="edge30" class="edge"><title>Node19&#45;&gt;Node23</title>
<path fill="none" stroke="midnightblue" d="M581.559,-174.753C592.16,-166.272 608.071,-153.543 620.616,-143.507"/>
<polygon fill="midnightblue" stroke="midnightblue" points="623.034,-146.055 628.656,-137.075 618.661,-140.589 623.034,-146.055"/>
</g>
<!-- Node23&#45;&gt;Node4 -->
<g id="edge31" class="edge"><title>Node23&#45;&gt;Node4</title>
<path fill="none" stroke="midnightblue" d="M613.341,-118.262C610.204,-117.45 607.039,-116.676 604,-116 521.529,-97.6499 423.6,-82.8116 370.325,-75.3142"/>
<polygon fill="midnightblue" stroke="midnightblue" points="370.671,-71.8286 360.283,-73.9137 369.704,-78.7615 370.671,-71.8286"/>
</g>
<!-- Node23&#45;&gt;Node11 -->
<g id="edge32" class="edge"><title>Node23&#45;&gt;Node11</title>
<path fill="none" stroke="midnightblue" d="M613.296,-118.45C610.168,-117.605 607.017,-116.771 604,-116 535.901,-98.59 493.681,-135.069 450,-80 438.817,-65.9016 445.439,-45.1197 452.903,-30.2449"/>
<polygon fill="midnightblue" stroke="midnightblue" points="455.987,-31.8998 457.75,-21.4526 449.857,-28.5202 455.987,-31.8998"/>
</g>
<!-- Node23&#45;&gt;Node13 -->
<g id="edge34" class="edge"><title>Node23&#45;&gt;Node13</title>
<path fill="none" stroke="midnightblue" d="M627.957,-116.675C617.761,-108.167 603.488,-94.7077 595,-80 586.298,-64.9212 581.403,-45.6428 578.77,-31.4662"/>
<polygon fill="midnightblue" stroke="midnightblue" points="582.186,-30.6699 577.113,-21.3684 575.278,-31.8031 582.186,-30.6699"/>
</g>
<!-- Node23&#45;&gt;Node14 -->
<g id="edge33" class="edge"><title>Node23&#45;&gt;Node14</title>
<path fill="none" stroke="midnightblue" d="M640,-116.753C640,-109.25 640,-98.4238 640,-89.0781"/>
<polygon fill="midnightblue" stroke="midnightblue" points="643.5,-89.0752 640,-79.0752 636.5,-89.0752 643.5,-89.0752"/>
</g>
<!-- Node24 -->
<g id="node24" class="node"><title>Node24</title>
<g id="a_node24"><a xlink:href="pio_8h.html" target="_top" xlink:title="General Purpose Input/Output Header File. ">
<polygon fill="none" stroke="red" points="491.707,-59 491.707,-79 548.293,-79 548.293,-59 491.707,-59"/>
<text text-anchor="middle" x="520" y="-65" font-family="Helvetica,sans-Serif" font-size="10.00">dev/pio.h</text>
</a>
</g>
</g>
<!-- Node23&#45;&gt;Node24 -->
<g id="edge35" class="edge"><title>Node23&#45;&gt;Node24</title>
<path fill="none" stroke="midnightblue" d="M620.453,-116.878C601.015,-107.807 570.973,-93.7876 548.804,-83.4418"/>
<polygon fill="midnightblue" stroke="midnightblue" points="550.081,-80.1754 539.539,-79.1181 547.121,-86.5187 550.081,-80.1754"/>
</g>
<!-- Node24&#45;&gt;Node7 -->
<g id="edge37" class="edge"><title>Node24&#45;&gt;Node7</title>
<path fill="none" stroke="midnightblue" d="M548.347,-59.3727C581.102,-49.4038 634.971,-33.0088 669.964,-22.3589"/>
<polygon fill="midnightblue" stroke="midnightblue" points="671.188,-25.6447 679.736,-19.3847 669.15,-18.948 671.188,-25.6447"/>
</g>
<!-- Node24&#45;&gt;Node11 -->
<g id="edge36" class="edge"><title>Node24&#45;&gt;Node11</title>
<path fill="none" stroke="midnightblue" d="M510.753,-58.7527C502.516,-50.5165 490.274,-38.2738 480.382,-28.3824"/>
<polygon fill="midnightblue" stroke="midnightblue" points="482.621,-25.6714 473.075,-21.0752 477.671,-30.6212 482.621,-25.6714"/>
</g>
<!-- Node24&#45;&gt;Node13 -->
<g id="edge38" class="edge"><title>Node24&#45;&gt;Node13</title>
<path fill="none" stroke="midnightblue" d="M529.247,-58.7527C537.484,-50.5165 549.726,-38.2738 559.618,-28.3824"/>
<polygon fill="midnightblue" stroke="midnightblue" points="562.329,-30.6212 566.925,-21.0752 557.379,-25.6714 562.329,-30.6212"/>
</g>
<!-- Node25&#45;&gt;Node4 -->
<g id="edge41" class="edge"><title>Node25&#45;&gt;Node4</title>
<path fill="none" stroke="midnightblue" d="M648.059,-232.977C619.356,-224.152 574.914,-210.029 537,-196 513.081,-187.149 507.826,-183.1 484,-174 438.699,-156.697 419.997,-166.824 381,-138 363.214,-124.854 349.02,-103.571 340.365,-88.316"/>
<polygon fill="midnightblue" stroke="midnightblue" points="343.33,-86.4405 335.495,-79.308 337.172,-89.7693 343.33,-86.4405"/>
</g>
<!-- Node25&#45;&gt;Node6 -->
<g id="edge44" class="edge"><title>Node25&#45;&gt;Node6</title>
<path fill="none" stroke="midnightblue" d="M701.842,-232.911C722.627,-224.554 753.238,-211.185 778,-196 803.148,-180.579 829.367,-158.906 846.143,-144.204"/>
<polygon fill="midnightblue" stroke="midnightblue" points="848.85,-146.481 853.999,-137.221 844.2,-141.249 848.85,-146.481"/>
</g>
<!-- Node25&#45;&gt;Node7 -->
<g id="edge40" class="edge"><title>Node25&#45;&gt;Node7</title>
<path fill="none" stroke="midnightblue" d="M716.868,-238.555C836.896,-226.535 1187.24,-180.331 1079,-58 1056.58,-32.6572 826.631,-18.2814 738.3,-13.6593"/>
<polygon fill="midnightblue" stroke="midnightblue" points="738.42,-10.1609 728.254,-13.1439 738.061,-17.1517 738.42,-10.1609"/>
</g>
<!-- Node25&#45;&gt;Node19 -->
<g id="edge43" class="edge"><title>Node25&#45;&gt;Node19</title>
<path fill="none" stroke="midnightblue" d="M660.166,-232.753C642.866,-223.783 616.402,-210.06 596.612,-199.799"/>
<polygon fill="midnightblue" stroke="midnightblue" points="597.991,-196.571 587.502,-195.075 594.769,-202.786 597.991,-196.571"/>
</g>
<!-- Node25&#45;&gt;Node22 -->
<g id="edge42" class="edge"><title>Node25&#45;&gt;Node22</title>
<path fill="none" stroke="midnightblue" d="M699.893,-232.864C716.767,-224.994 739.868,-212.328 756,-196 770.008,-181.821 780.752,-161.61 787.383,-146.91"/>
<polygon fill="midnightblue" stroke="midnightblue" points="790.759,-147.915 791.471,-137.344 784.323,-145.164 790.759,-147.915"/>
</g>
</g>
</svg>
