<?xml version="1.0" encoding="UTF-8"?>
<!DOCTYPE svg PUBLIC "-//W3C//DTD SVG 1.1//EN" "http://www.w3.org/Graphics/SVG/1.1/DTD/svg11.dtd">
<svg version="1.2" width="146.05mm" height="165.1mm" viewBox="0 0 14605 16510" preserveAspectRatio="xMidYMid" fill-rule="evenodd" clip-path="url(#presentation_clip_path)" stroke-width="28.222" stroke-linejoin="round" xmlns="http://www.w3.org/2000/svg" xmlns:ooo="http://xml.openoffice.org/svg/export" xmlns:xlink="http://www.w3.org/1999/xlink" xml:space="preserve">
 <defs class="ClipPathGroup">
  <clipPath id="presentation_clip_path" clipPathUnits="userSpaceOnUse">
   <rect x="0" y="0" width="14605" height="16510"/>
  </clipPath>
 </defs>
 <defs class="TextShapeIndex">
  <g ooo:slide="id1" ooo:id-list="id3 id4 id5 id6 id7 id8 id9 id10 id11 id12 id13 id14 id15 id16 id17 id18 id19 id20 id21 id22 id23 id24 id25 id26 id27 id28 id29 id30 id31 id32 id33 id34 id35 id36 id37 id38 id39 id40 id41 id42 id43 id44 id45 id46 id47 id48 id49 id50 id51 id52 id53 id54 id55 id56 id57 id58 id59 id60 id61 id62 id63 id64 id65 id66 id67 id68 id69 id70 id71 id72 id73 id74 id75"/>
 </defs>
 <defs class="EmbeddedBulletChars">
  <g id="bullet-char-template(57356)" transform="scale(0.00048828125,-0.00048828125)">
   <path d="M 580,1141 L 1163,571 580,0 -4,571 580,1141 Z"/>
  </g>
  <g id="bullet-char-template(57354)" transform="scale(0.00048828125,-0.00048828125)">
   <path d="M 8,1128 L 1137,1128 1137,0 8,0 8,1128 Z"/>
  </g>
  <g id="bullet-char-template(10146)" transform="scale(0.00048828125,-0.00048828125)">
   <path d="M 174,0 L 602,739 174,1481 1456,739 174,0 Z M 1358,739 L 309,1346 659,739 1358,739 Z"/>
  </g>
  <g id="bullet-char-template(10132)" transform="scale(0.00048828125,-0.00048828125)">
   <path d="M 2015,739 L 1276,0 717,0 1260,543 174,543 174,936 1260,936 717,1481 1274,1481 2015,739 Z"/>
  </g>
  <g id="bullet-char-template(10007)" transform="scale(0.00048828125,-0.00048828125)">
   <path d="M 0,-2 C -7,14 -16,27 -25,37 L 356,567 C 262,823 215,952 215,954 215,979 228,992 255,992 264,992 276,990 289,987 310,991 331,999 354,1012 L 381,999 492,748 772,1049 836,1024 860,1049 C 881,1039 901,1025 922,1006 886,937 835,863 770,784 769,783 710,716 594,584 L 774,223 C 774,196 753,168 711,139 L 727,119 C 717,90 699,76 672,76 641,76 570,178 457,381 L 164,-76 C 142,-110 111,-127 72,-127 30,-127 9,-110 8,-76 1,-67 -2,-52 -2,-32 -2,-23 -1,-13 0,-2 Z"/>
  </g>
  <g id="bullet-char-template(10004)" transform="scale(0.00048828125,-0.00048828125)">
   <path d="M 285,-33 C 182,-33 111,30 74,156 52,228 41,333 41,471 41,549 55,616 82,672 116,743 169,778 240,778 293,778 328,747 346,684 L 369,508 C 377,444 397,411 428,410 L 1163,1116 C 1174,1127 1196,1133 1229,1133 1271,1133 1292,1118 1292,1087 L 1292,965 C 1292,929 1282,901 1262,881 L 442,47 C 390,-6 338,-33 285,-33 Z"/>
  </g>
  <g id="bullet-char-template(9679)" transform="scale(0.00048828125,-0.00048828125)">
   <path d="M 813,0 C 632,0 489,54 383,161 276,268 223,411 223,592 223,773 276,916 383,1023 489,1130 632,1184 813,1184 992,1184 1136,1130 1245,1023 1353,916 1407,772 1407,592 1407,412 1353,268 1245,161 1136,54 992,0 813,0 Z"/>
  </g>
  <g id="bullet-char-template(8226)" transform="scale(0.00048828125,-0.00048828125)">
   <path d="M 346,457 C 273,457 209,483 155,535 101,586 74,649 74,723 74,796 101,859 155,911 209,963 273,989 346,989 419,989 480,963 531,910 582,859 608,796 608,723 608,648 583,586 532,535 482,483 420,457 346,457 Z"/>
  </g>
  <g id="bullet-char-template(8211)" transform="scale(0.00048828125,-0.00048828125)">
   <path d="M -4,459 L 1135,459 1135,606 -4,606 -4,459 Z"/>
  </g>
 </defs>
 <defs class="TextEmbeddedBitmaps"/>
 <g>
  <g id="id2" class="Master_Slide">
   <g id="bg-id2" class="Background"/>
   <g id="bo-id2" class="BackgroundObjects"/>
  </g>
 </g>
 <g class="SlideGroup">
  <g>
   <g id="id1" class="Slide" clip-path="url(#presentation_clip_path)">
    <g class="Page">
     <g class="Group">
      <g class="com.sun.star.drawing.LineShape">
       <g id="id3">
        <path fill="none" stroke="rgb(0,0,0)" stroke-width="51" d="M 6034,1746 L 6034,3016"/>
       </g>
      </g>
      <g class="com.sun.star.drawing.LineShape">
       <g id="id4">
        <path fill="none" stroke="rgb(0,0,0)" stroke-width="51" d="M 4764,3016 L 6034,3016"/>
       </g>
      </g>
      <g class="com.sun.star.drawing.LineShape">
       <g id="id5">
        <path fill="none" stroke="rgb(0,0,0)" stroke-width="51" d="M 4764,4286 L 4764,3016"/>
       </g>
      </g>
      <g class="com.sun.star.drawing.LineShape">
       <g id="id6">
        <path fill="none" stroke="rgb(0,0,0)" stroke-width="51" d="M 6034,4286 L 4764,4286"/>
       </g>
      </g>
      <g class="com.sun.star.drawing.LineShape">
       <g id="id7">
        <path fill="none" stroke="rgb(0,0,0)" stroke-width="51" d="M 6034,5556 L 6034,4286"/>
       </g>
      </g>
      <g class="com.sun.star.drawing.LineShape">
       <g id="id8">
        <path fill="none" stroke="rgb(0,0,0)" stroke-width="51" d="M 4764,3016 L 4764,3968"/>
       </g>
      </g>
      <g class="com.sun.star.drawing.LineShape">
       <g id="id9">
        <path fill="none" stroke="rgb(0,0,0)" stroke-width="51" d="M 4561,3021 L 4561,4291"/>
       </g>
      </g>
      <g class="com.sun.star.drawing.LineShape">
       <g id="id10">
        <path fill="none" stroke="rgb(0,0,0)" stroke-width="51" d="M 3504,3653 L 4129,3653"/>
       </g>
      </g>
      <g class="com.sun.star.drawing.CustomShape">
       <g id="id11">
        <path fill="none" stroke="rgb(0,0,0)" stroke-width="51" d="M 4337,3460 C 4445,3460 4528,3542 4528,3650 4528,3758 4445,3841 4337,3841 4229,3841 4147,3758 4147,3650 4147,3542 4229,3460 4337,3460 Z"/>
       </g>
      </g>
     </g>
     <g class="com.sun.star.drawing.ConnectorShape">
      <g id="id12">
       <path fill="none" stroke="rgb(0,0,0)" d="M 6034,5556 L 6034,6613 6044,6613 6044,7143"/>
      </g>
     </g>
     <g class="Group">
      <g class="com.sun.star.drawing.LineShape">
       <g id="id13">
        <path fill="none" stroke="rgb(0,0,0)" stroke-width="51" d="M 5410,793 L 6679,793"/>
       </g>
      </g>
      <g class="com.sun.star.drawing.CustomShape">
       <g id="id14">
        <text class="TextShape"><tspan class="TextParagraph" font-family="Arial, sans-serif" font-size="494px" font-weight="400"><tspan class="TextPosition" x="5523" y="646"><tspan fill="rgb(0,0,0)" stroke="none">VDD</tspan></tspan></tspan></text>
       </g>
      </g>
     </g>
     <g class="com.sun.star.drawing.LineShape">
      <g id="id15">
       <path fill="none" stroke="rgb(0,0,0)" d="M 7949,5557 L 12394,5556"/>
      </g>
     </g>
     <g class="com.sun.star.drawing.CustomShape">
      <g id="id16">
       <text class="TextShape"><tspan class="TextParagraph" font-family="Arial, sans-serif" font-size="494px" font-weight="400"><tspan class="TextPosition" x="10540" y="5409"><tspan fill="rgb(0,0,0)" stroke="none">Output</tspan></tspan></tspan></text>
      </g>
     </g>
     <g class="com.sun.star.drawing.CustomShape">
      <g id="id17">
       <text class="TextShape"><tspan class="TextParagraph" font-family="Arial, sans-serif" font-size="494px" font-weight="400"><tspan class="TextPosition" x="5552" y="8902"><tspan fill="rgb(0,128,0)" stroke="none">OFF</tspan></tspan></tspan></text>
      </g>
     </g>
     <g class="com.sun.star.drawing.CustomShape">
      <g id="id18">
       <text class="TextShape"><tspan class="TextParagraph" font-family="Arial, sans-serif" font-size="494px" font-weight="400"><tspan class="TextPosition" x="5674" y="9537"><tspan fill="rgb(0,0,255)" stroke="none">ON</tspan></tspan></tspan></text>
      </g>
     </g>
     <g class="com.sun.star.drawing.CustomShape">
      <g id="id19">
       <text class="TextShape"><tspan class="TextParagraph" font-family="Arial, sans-serif" font-size="494px" font-weight="400"><tspan class="TextPosition" x="10433" y="6044"><tspan fill="rgb(0,0,255)" stroke="none">0</tspan><tspan fill="rgb(102,102,102)" stroke="none">0 </tspan><tspan fill="rgb(0,0,0)" stroke="none">= 1</tspan></tspan></tspan></text>
      </g>
     </g>
     <g class="Group">
      <g class="com.sun.star.drawing.LineShape">
       <g id="id20">
        <path fill="none" stroke="rgb(0,0,0)" stroke-width="51" d="M 6044,11588 L 6044,12858"/>
       </g>
      </g>
      <g class="com.sun.star.drawing.LineShape">
       <g id="id21">
        <path fill="none" stroke="rgb(0,0,0)" stroke-width="51" d="M 4774,12858 L 6044,12858"/>
       </g>
      </g>
      <g class="com.sun.star.drawing.LineShape">
       <g id="id22">
        <path fill="none" stroke="rgb(0,0,0)" stroke-width="51" d="M 4774,14128 L 4774,12858"/>
       </g>
      </g>
      <g class="com.sun.star.drawing.LineShape">
       <g id="id23">
        <path fill="none" stroke="rgb(0,0,0)" stroke-width="51" d="M 6044,14128 L 4774,14128"/>
       </g>
      </g>
      <g class="com.sun.star.drawing.LineShape">
       <g id="id24">
        <path fill="none" stroke="rgb(0,0,0)" stroke-width="51" d="M 6044,15398 L 6044,14128"/>
       </g>
      </g>
      <g class="com.sun.star.drawing.LineShape">
       <g id="id25">
        <path fill="none" stroke="rgb(0,0,0)" stroke-width="51" d="M 4774,12858 L 4774,13810"/>
       </g>
      </g>
      <g class="com.sun.star.drawing.LineShape">
       <g id="id26">
        <path fill="none" stroke="rgb(0,0,0)" stroke-width="51" d="M 4571,12863 L 4571,14133"/>
       </g>
      </g>
      <g class="com.sun.star.drawing.LineShape">
       <g id="id27">
        <path fill="none" stroke="rgb(0,0,0)" stroke-width="51" d="M 3514,13495 L 4571,13495"/>
       </g>
      </g>
     </g>
     <g class="com.sun.star.drawing.CustomShape">
      <g id="id28">
       <text class="TextShape"><tspan class="TextParagraph" font-family="Arial, sans-serif" font-size="494px" font-weight="400"><tspan class="TextPosition" x="12536" y="13982"><tspan fill="rgb(102,102,102)" stroke="none">OFF</tspan></tspan></tspan></text>
      </g>
     </g>
     <g class="com.sun.star.drawing.CustomShape">
      <g id="id29">
       <text class="TextShape"><tspan class="TextParagraph" font-family="Arial, sans-serif" font-size="494px" font-weight="400"><tspan class="TextPosition" x="12659" y="13347"><tspan fill="rgb(255,0,0)" stroke="none">ON</tspan></tspan></tspan></text>
      </g>
     </g>
     <g class="Group">
      <g class="com.sun.star.drawing.LineShape">
       <g id="id30">
        <path fill="none" stroke="rgb(0,0,0)" stroke-width="51" d="M 5726,16033 L 6360,16033"/>
       </g>
      </g>
      <g class="com.sun.star.drawing.LineShape">
       <g id="id31">
        <path fill="none" stroke="rgb(0,0,0)" stroke-width="51" d="M 5832,16191 L 6255,16191"/>
       </g>
      </g>
      <g class="com.sun.star.drawing.LineShape">
       <g id="id32">
        <path fill="none" stroke="rgb(0,0,0)" stroke-width="51" d="M 5937,16350 L 6148,16350"/>
       </g>
      </g>
     </g>
     <g class="com.sun.star.drawing.ConnectorShape">
      <g id="id33">
       <path fill="none" stroke="rgb(0,0,0)" d="M 6043,16033 L 6043,15399 6044,15399 6044,15398 6044,15398"/>
      </g>
     </g>
     <g class="com.sun.star.drawing.CustomShape">
      <g id="id34">
       <text class="TextShape"><tspan class="TextParagraph" font-family="Arial, sans-serif" font-size="494px" font-weight="400"><tspan class="TextPosition" x="10432" y="6679"><tspan fill="rgb(0,0,255)" stroke="none">0</tspan><tspan fill="rgb(255,0,0)" stroke="none">1</tspan><tspan fill="rgb(102,102,102)" stroke="none"> </tspan><tspan fill="rgb(0,0,0)" stroke="none">= 0</tspan></tspan></tspan></text>
      </g>
     </g>
     <g class="com.sun.star.drawing.CustomShape">
      <g id="id35">
       <text class="TextShape"><tspan class="TextParagraph" font-family="Arial, sans-serif" font-size="494px" font-weight="400"><tspan class="TextPosition" x="10433" y="7314"><tspan fill="rgb(0,128,0)" stroke="none">1</tspan><tspan fill="rgb(102,102,102)" stroke="none">0 </tspan><tspan fill="rgb(0,0,0)" stroke="none">= 0</tspan></tspan></tspan></text>
      </g>
     </g>
     <g class="com.sun.star.drawing.CustomShape">
      <g id="id36">
       <text class="TextShape"><tspan class="TextParagraph" font-family="Arial, sans-serif" font-size="494px" font-weight="400"><tspan class="TextPosition" x="10433" y="7949"><tspan fill="rgb(0,128,0)" stroke="none">1</tspan><tspan fill="rgb(255,0,0)" stroke="none">1</tspan><tspan fill="rgb(102,102,102)" stroke="none"> </tspan><tspan fill="rgb(0,0,0)" stroke="none">= 0</tspan></tspan></tspan></text>
      </g>
     </g>
     <g class="Group">
      <g class="com.sun.star.drawing.LineShape">
       <g id="id37">
        <path fill="none" stroke="rgb(0,0,0)" stroke-width="51" d="M 12711,11589 L 12711,12859"/>
       </g>
      </g>
      <g class="com.sun.star.drawing.LineShape">
       <g id="id38">
        <path fill="none" stroke="rgb(0,0,0)" stroke-width="51" d="M 11441,12859 L 12711,12859"/>
       </g>
      </g>
      <g class="com.sun.star.drawing.LineShape">
       <g id="id39">
        <path fill="none" stroke="rgb(0,0,0)" stroke-width="51" d="M 11441,14129 L 11441,12859"/>
       </g>
      </g>
      <g class="com.sun.star.drawing.LineShape">
       <g id="id40">
        <path fill="none" stroke="rgb(0,0,0)" stroke-width="51" d="M 12711,14129 L 11441,14129"/>
       </g>
      </g>
      <g class="com.sun.star.drawing.LineShape">
       <g id="id41">
        <path fill="none" stroke="rgb(0,0,0)" stroke-width="51" d="M 12711,15399 L 12711,14129"/>
       </g>
      </g>
      <g class="com.sun.star.drawing.LineShape">
       <g id="id42">
        <path fill="none" stroke="rgb(0,0,0)" stroke-width="51" d="M 11441,12859 L 11441,13811"/>
       </g>
      </g>
      <g class="com.sun.star.drawing.LineShape">
       <g id="id43">
        <path fill="none" stroke="rgb(0,0,0)" stroke-width="51" d="M 11238,12864 L 11238,14134"/>
       </g>
      </g>
      <g class="com.sun.star.drawing.LineShape">
       <g id="id44">
        <path fill="none" stroke="rgb(0,0,0)" stroke-width="51" d="M 10181,13496 L 11238,13496"/>
       </g>
      </g>
     </g>
     <g class="com.sun.star.drawing.CustomShape">
      <g id="id45">
       <text class="TextShape"><tspan class="TextParagraph" font-family="Arial, sans-serif" font-size="494px" font-weight="400"><tspan class="TextPosition" x="5550" y="13982"><tspan fill="rgb(0,0,255)" stroke="none">OFF</tspan></tspan></tspan></text>
      </g>
     </g>
     <g class="com.sun.star.drawing.CustomShape">
      <g id="id46">
       <text class="TextShape"><tspan class="TextParagraph" font-family="Arial, sans-serif" font-size="494px" font-weight="400"><tspan class="TextPosition" x="5673" y="13347"><tspan fill="rgb(0,128,0)" stroke="none">ON</tspan></tspan></tspan></text>
      </g>
     </g>
     <g class="Group">
      <g class="com.sun.star.drawing.LineShape">
       <g id="id47">
        <path fill="none" stroke="rgb(0,0,0)" stroke-width="51" d="M 6041,7144 L 6041,8414"/>
       </g>
      </g>
      <g class="com.sun.star.drawing.LineShape">
       <g id="id48">
        <path fill="none" stroke="rgb(0,0,0)" stroke-width="51" d="M 4771,8414 L 6041,8414"/>
       </g>
      </g>
      <g class="com.sun.star.drawing.LineShape">
       <g id="id49">
        <path fill="none" stroke="rgb(0,0,0)" stroke-width="51" d="M 4771,9684 L 4771,8414"/>
       </g>
      </g>
      <g class="com.sun.star.drawing.LineShape">
       <g id="id50">
        <path fill="none" stroke="rgb(0,0,0)" stroke-width="51" d="M 6041,9684 L 4771,9684"/>
       </g>
      </g>
      <g class="com.sun.star.drawing.LineShape">
       <g id="id51">
        <path fill="none" stroke="rgb(0,0,0)" stroke-width="51" d="M 6041,10954 L 6041,9684"/>
       </g>
      </g>
      <g class="com.sun.star.drawing.LineShape">
       <g id="id52">
        <path fill="none" stroke="rgb(0,0,0)" stroke-width="51" d="M 4771,8414 L 4771,9366"/>
       </g>
      </g>
      <g class="com.sun.star.drawing.LineShape">
       <g id="id53">
        <path fill="none" stroke="rgb(0,0,0)" stroke-width="51" d="M 4568,8419 L 4568,9689"/>
       </g>
      </g>
      <g class="com.sun.star.drawing.LineShape">
       <g id="id54">
        <path fill="none" stroke="rgb(0,0,0)" stroke-width="51" d="M 3511,9051 L 4136,9051"/>
       </g>
      </g>
      <g class="com.sun.star.drawing.CustomShape">
       <g id="id55">
        <path fill="none" stroke="rgb(0,0,0)" stroke-width="51" d="M 4344,8858 C 4452,8858 4535,8940 4535,9048 4535,9156 4452,9239 4344,9239 4236,9239 4154,9156 4154,9048 4154,8940 4236,8858 4344,8858 Z"/>
       </g>
      </g>
     </g>
     <g class="com.sun.star.drawing.CustomShape">
      <g id="id56">
       <text class="TextShape"><tspan class="TextParagraph" font-family="Arial, sans-serif" font-size="494px" font-weight="400"><tspan class="TextPosition" x="5550" y="3504"><tspan fill="rgb(255,0,0)" stroke="none">OFF</tspan></tspan></tspan></text>
      </g>
     </g>
     <g class="com.sun.star.drawing.CustomShape">
      <g id="id57">
       <text class="TextShape"><tspan class="TextParagraph" font-family="Arial, sans-serif" font-size="494px" font-weight="400"><tspan class="TextPosition" x="5672" y="4139"><tspan fill="rgb(102,102,102)" stroke="none">ON</tspan></tspan></tspan></text>
      </g>
     </g>
     <g class="com.sun.star.drawing.LineShape">
      <g id="id58">
       <path fill="none" stroke="rgb(0,0,0)" d="M 648,3651 L 3504,3651"/>
      </g>
     </g>
     <g class="com.sun.star.drawing.CustomShape">
      <g id="id59">
       <text class="TextShape"><tspan class="TextParagraph" font-family="Arial, sans-serif" font-size="494px" font-weight="400"><tspan class="TextPosition" x="1117" y="3504"><tspan fill="rgb(0,0,0)" stroke="none">B</tspan></tspan></tspan></text>
      </g>
     </g>
     <g class="com.sun.star.drawing.CustomShape">
      <g id="id60">
       <text class="TextShape"><tspan class="TextParagraph" font-family="Arial, sans-serif" font-size="494px" font-weight="400"><tspan class="TextPosition" x="1147" y="2869"><tspan fill="rgb(255,0,0)" stroke="none">1</tspan></tspan></tspan></text>
      </g>
     </g>
     <g class="com.sun.star.drawing.CustomShape">
      <g id="id61">
       <text class="TextShape"><tspan class="TextParagraph" font-family="Arial, sans-serif" font-size="494px" font-weight="400"><tspan class="TextPosition" x="1146" y="4139"><tspan fill="rgb(102,102,102)" stroke="none">0</tspan></tspan></tspan></text>
      </g>
     </g>
     <g class="com.sun.star.drawing.ConnectorShape">
      <g id="id62">
       <path fill="none" stroke="rgb(0,0,0)" d="M 3504,13493 L 2869,13493 2869,9049 3511,9049"/>
      </g>
     </g>
     <g class="com.sun.star.drawing.LineShape">
      <g id="id63">
       <path fill="none" stroke="rgb(0,0,0)" d="M 636,10953 L 2859,10953"/>
      </g>
     </g>
     <g class="com.sun.star.drawing.CustomShape">
      <g id="id64">
       <text class="TextShape"><tspan class="TextParagraph" font-family="Arial, sans-serif" font-size="494px" font-weight="400"><tspan class="TextPosition" x="1105" y="10806"><tspan fill="rgb(0,0,0)" stroke="none">A</tspan></tspan></tspan></text>
      </g>
     </g>
     <g class="com.sun.star.drawing.CustomShape">
      <g id="id65">
       <text class="TextShape"><tspan class="TextParagraph" font-family="Arial, sans-serif" font-size="494px" font-weight="400"><tspan class="TextPosition" x="1135" y="10171"><tspan fill="rgb(0,128,0)" stroke="none">1</tspan></tspan></tspan></text>
      </g>
     </g>
     <g class="com.sun.star.drawing.CustomShape">
      <g id="id66">
       <text class="TextShape"><tspan class="TextParagraph" font-family="Arial, sans-serif" font-size="494px" font-weight="400"><tspan class="TextPosition" x="1134" y="11441"><tspan fill="rgb(0,0,255)" stroke="none">0</tspan></tspan></tspan></text>
      </g>
     </g>
     <g class="com.sun.star.drawing.LineShape">
      <g id="id67">
       <path fill="none" stroke="rgb(0,0,0)" d="M 7950,13494 L 10806,13494"/>
      </g>
     </g>
     <g class="com.sun.star.drawing.CustomShape">
      <g id="id68">
       <text class="TextShape"><tspan class="TextParagraph" font-family="Arial, sans-serif" font-size="494px" font-weight="400"><tspan class="TextPosition" x="8419" y="13347"><tspan fill="rgb(0,0,0)" stroke="none">B</tspan></tspan></tspan></text>
      </g>
     </g>
     <g class="com.sun.star.drawing.CustomShape">
      <g id="id69">
       <text class="TextShape"><tspan class="TextParagraph" font-family="Arial, sans-serif" font-size="494px" font-weight="400"><tspan class="TextPosition" x="8449" y="12712"><tspan fill="rgb(255,0,0)" stroke="none">1</tspan></tspan></tspan></text>
      </g>
     </g>
     <g class="com.sun.star.drawing.CustomShape">
      <g id="id70">
       <text class="TextShape"><tspan class="TextParagraph" font-family="Arial, sans-serif" font-size="494px" font-weight="400"><tspan class="TextPosition" x="8448" y="13982"><tspan fill="rgb(102,102,102)" stroke="none">0</tspan></tspan></tspan></text>
      </g>
     </g>
     <g class="com.sun.star.drawing.ConnectorShape">
      <g id="id71">
       <path fill="none" stroke="rgb(0,0,0)" d="M 6044,793 L 6044,1746 6044,1746 6044,1746 6034,1746"/>
      </g>
     </g>
     <g class="com.sun.star.drawing.ConnectorShape">
      <g id="id72">
       <path fill="none" stroke="rgb(0,0,0)" d="M 6044,11588 L 6044,11588 6044,10954 6041,10954"/>
      </g>
     </g>
     <g class="com.sun.star.drawing.ConnectorShape">
      <g id="id73">
       <path fill="none" stroke="rgb(0,0,0)" d="M 12711,11589 L 12711,10954 6041,10954"/>
      </g>
     </g>
     <g class="com.sun.star.drawing.ConnectorShape">
      <g id="id74">
       <path fill="none" stroke="rgb(0,0,0)" d="M 6044,15399 L 8100,15399 8100,15399 12711,15399 12711,15399"/>
      </g>
     </g>
     <g class="com.sun.star.drawing.LineShape">
      <g id="id75">
       <path fill="none" stroke="rgb(0,0,0)" d="M 7949,5556 L 7949,10954"/>
      </g>
     </g>
    </g>
   </g>
  </g>
 </g>
</svg>