<?xml version="1.0" encoding="UTF-8"?>
<svg xmlns="http://www.w3.org/2000/svg" xmlns:xlink="http://www.w3.org/1999/xlink" width="648pt" height="144pt" viewBox="0 0 648 144" version="1.1">
<g id="surface1">
<path style="fill:none;stroke-width:0.12;stroke-linecap:butt;stroke-linejoin:round;stroke:rgb(0%,0%,0%);stroke-opacity:1;stroke-miterlimit:10;" d="M 0 54.023438 L 72.011719 54.023438 L 72.011719 0.0546875 L 0 0.0546875 Z M 0 54.023438 Z M 0 54.023438 " transform="matrix(1,0,0,-1,0,144)"/>
<path style=" stroke:none;fill-rule:evenodd;fill:rgb(0%,0%,0%);fill-opacity:1;" d="M 16.238281 118.304688 L 17.570312 118.644531 C 17.285156 119.722656 16.804688 120.570312 16.070312 121.136719 C 15.359375 121.703125 14.480469 121.988281 13.433594 121.988281 C 12.355469 121.988281 11.476562 121.761719 10.796875 121.335938 C 10.117188 120.882812 9.605469 120.257812 9.238281 119.410156 C 8.898438 118.589844 8.730469 117.679688 8.730469 116.746094 C 8.730469 115.699219 8.925781 114.792969 9.324219 114 C 9.722656 113.234375 10.285156 112.640625 11.023438 112.242188 C 11.761719 111.816406 12.554688 111.617188 13.460938 111.617188 C 14.453125 111.617188 15.304688 111.875 15.984375 112.382812 C 16.664062 112.894531 17.144531 113.628906 17.402344 114.535156 L 16.097656 114.847656 C 15.871094 114.113281 15.53125 113.601562 15.078125 113.261719 C 14.652344 112.921875 14.085938 112.753906 13.433594 112.753906 C 12.640625 112.753906 12.015625 112.949219 11.476562 113.320312 C 10.96875 113.6875 10.597656 114.167969 10.402344 114.792969 C 10.203125 115.414062 10.089844 116.066406 10.089844 116.71875 C 10.089844 117.566406 10.203125 118.332031 10.457031 118.957031 C 10.710938 119.578125 11.082031 120.0625 11.617188 120.371094 C 12.128906 120.683594 12.695312 120.855469 13.320312 120.855469 C 14.058594 120.855469 14.679688 120.628906 15.21875 120.203125 C 15.730469 119.777344 16.070312 119.15625 16.238281 118.304688 "/>
<path style=" stroke:none;fill-rule:evenodd;fill:rgb(0%,0%,0%);fill-opacity:1;" d="M 18.5625 118.191406 C 18.5625 116.832031 18.960938 115.839844 19.695312 115.21875 C 20.320312 114.679688 21.085938 114.394531 21.992188 114.394531 C 22.984375 114.394531 23.804688 114.734375 24.429688 115.386719 C 25.054688 116.039062 25.363281 116.945312 25.363281 118.078125 C 25.363281 119.011719 25.222656 119.75 24.96875 120.289062 C 24.683594 120.824219 24.257812 121.25 23.722656 121.535156 C 23.210938 121.847656 22.613281 121.988281 21.992188 121.988281 C 20.972656 121.988281 20.148438 121.648438 19.527344 120.996094 C 18.875 120.34375 18.5625 119.410156 18.5625 118.191406 Z M 19.839844 118.191406 C 19.839844 119.125 20.035156 119.804688 20.433594 120.289062 C 20.859375 120.742188 21.367188 120.96875 21.992188 120.96875 C 22.585938 120.96875 23.097656 120.742188 23.492188 120.257812 C 23.917969 119.804688 24.117188 119.097656 24.117188 118.136719 C 24.117188 117.257812 23.917969 116.578125 23.492188 116.09375 C 23.097656 115.640625 22.585938 115.414062 21.992188 115.414062 C 21.367188 115.414062 20.859375 115.640625 20.433594 116.09375 C 20.035156 116.578125 19.839844 117.257812 19.839844 118.191406 "/>
<path style=" stroke:none;fill-rule:evenodd;fill:rgb(0%,0%,0%);fill-opacity:1;" d="M 26.839844 121.816406 L 26.839844 114.566406 L 27.914062 114.566406 L 27.914062 115.585938 C 28.140625 115.21875 28.453125 114.933594 28.820312 114.734375 C 29.21875 114.507812 29.644531 114.394531 30.125 114.394531 C 30.664062 114.394531 31.117188 114.507812 31.457031 114.734375 C 31.796875 114.960938 32.023438 115.273438 32.164062 115.671875 C 32.761719 114.820312 33.496094 114.394531 34.433594 114.394531 C 35.140625 114.394531 35.679688 114.59375 36.078125 114.988281 C 36.472656 115.386719 36.671875 116.011719 36.671875 116.832031 L 36.671875 121.816406 L 35.425781 121.816406 L 35.425781 117.257812 C 35.425781 116.746094 35.398438 116.40625 35.3125 116.179688 C 35.226562 115.953125 35.085938 115.78125 34.886719 115.671875 C 34.6875 115.527344 34.433594 115.472656 34.148438 115.472656 C 33.640625 115.472656 33.214844 115.640625 32.875 115.980469 C 32.535156 116.320312 32.363281 116.859375 32.363281 117.597656 L 32.363281 121.816406 L 31.144531 121.816406 L 31.144531 117.113281 C 31.144531 116.546875 31.03125 116.152344 30.835938 115.867188 C 30.636719 115.585938 30.324219 115.472656 29.84375 115.472656 C 29.503906 115.472656 29.191406 115.558594 28.90625 115.726562 C 28.59375 115.925781 28.398438 116.179688 28.253906 116.546875 C 28.113281 116.886719 28.058594 117.398438 28.058594 118.050781 L 28.058594 121.816406 "/>
<path style=" stroke:none;fill-rule:evenodd;fill:rgb(0%,0%,0%);fill-opacity:1;" d="M 38.484375 124.59375 L 38.484375 114.566406 L 39.589844 114.566406 L 39.589844 115.5 C 39.847656 115.132812 40.15625 114.847656 40.496094 114.679688 C 40.808594 114.480469 41.234375 114.394531 41.6875 114.394531 C 42.3125 114.394531 42.878906 114.566406 43.332031 114.878906 C 43.8125 115.1875 44.183594 115.640625 44.410156 116.238281 C 44.664062 116.804688 44.777344 117.453125 44.777344 118.136719 C 44.777344 118.871094 44.636719 119.550781 44.378906 120.144531 C 44.097656 120.742188 43.730469 121.195312 43.21875 121.507812 C 42.707031 121.816406 42.171875 121.988281 41.601562 121.988281 C 41.207031 121.988281 40.839844 121.902344 40.496094 121.734375 C 40.1875 121.5625 39.902344 121.335938 39.703125 121.054688 L 39.703125 124.59375 Z M 39.589844 118.21875 C 39.589844 119.15625 39.789062 119.863281 40.15625 120.289062 C 40.527344 120.742188 40.980469 120.96875 41.519531 120.96875 C 42.085938 120.96875 42.539062 120.742188 42.933594 120.289062 C 43.332031 119.804688 43.53125 119.097656 43.53125 118.136719 C 43.53125 117.199219 43.332031 116.519531 42.933594 116.039062 C 42.566406 115.585938 42.113281 115.359375 41.574219 115.359375 C 41.066406 115.359375 40.582031 115.613281 40.1875 116.09375 C 39.789062 116.578125 39.589844 117.285156 39.589844 118.21875 "/>
<path style=" stroke:none;fill-rule:evenodd;fill:rgb(0%,0%,0%);fill-opacity:1;" d="M 46.277344 111.789062 L 47.496094 111.789062 L 47.496094 113.203125 L 46.277344 113.203125 Z M 46.277344 114.566406 L 47.496094 114.566406 L 47.496094 121.816406 L 46.277344 121.816406 Z M 46.277344 114.566406 "/>
<path style=" stroke:none;fill-rule:nonzero;fill:rgb(0%,0%,0%);fill-opacity:1;" d="M 49.367188 111.789062 L 50.585938 111.789062 L 50.585938 121.816406 L 49.367188 121.816406 Z M 49.367188 111.789062 "/>
<path style=" stroke:none;fill-rule:evenodd;fill:rgb(0%,0%,0%);fill-opacity:1;" d="M 57.472656 119.496094 L 58.75 119.636719 C 58.550781 120.371094 58.183594 120.96875 57.613281 121.363281 C 57.078125 121.789062 56.398438 121.988281 55.546875 121.988281 C 54.496094 121.988281 53.648438 121.648438 53.023438 120.996094 C 52.402344 120.34375 52.089844 119.4375 52.089844 118.246094 C 52.089844 117.03125 52.402344 116.09375 53.023438 115.414062 C 53.675781 114.734375 54.46875 114.394531 55.488281 114.394531 C 56.453125 114.394531 57.246094 114.734375 57.871094 115.386719 C 58.464844 116.039062 58.777344 116.972656 58.777344 118.164062 C 58.777344 118.246094 58.777344 118.359375 58.777344 118.503906 L 53.363281 118.503906 C 53.421875 119.296875 53.648438 119.921875 54.042969 120.34375 C 54.441406 120.769531 54.949219 120.96875 55.546875 120.96875 C 56 120.96875 56.398438 120.855469 56.707031 120.628906 C 57.019531 120.371094 57.273438 120.003906 57.472656 119.496094 Z M 53.421875 117.484375 L 57.472656 117.484375 C 57.417969 116.886719 57.273438 116.433594 57.019531 116.121094 C 56.621094 115.640625 56.113281 115.414062 55.488281 115.414062 C 54.921875 115.414062 54.46875 115.585938 54.074219 115.980469 C 53.675781 116.351562 53.476562 116.859375 53.421875 117.484375 "/>
<path style=" stroke:none;fill-rule:evenodd;fill:rgb(0%,0%,0%);fill-opacity:1;" d="M 60.25 121.816406 L 60.25 114.566406 L 61.355469 114.566406 L 61.355469 115.671875 C 61.640625 115.132812 61.894531 114.820312 62.148438 114.648438 C 62.375 114.480469 62.660156 114.394531 62.941406 114.394531 C 63.339844 114.394531 63.765625 114.535156 64.191406 114.792969 L 63.765625 115.925781 C 63.480469 115.753906 63.171875 115.671875 62.859375 115.671875 C 62.601562 115.671875 62.347656 115.753906 62.148438 115.898438 C 61.921875 116.066406 61.78125 116.292969 61.695312 116.578125 C 61.554688 117.03125 61.46875 117.511719 61.46875 118.019531 L 61.46875 121.816406 "/>
<path style="fill:none;stroke-width:0.028;stroke-linecap:butt;stroke-linejoin:round;stroke:rgb(0%,0%,0%);stroke-opacity:1;stroke-miterlimit:10;" d="M 36.019531 94.195312 L 36.019531 66.179688 " transform="matrix(1,0,0,-1,0,144)"/>
<path style=" stroke:none;fill-rule:evenodd;fill:rgb(0%,0%,0%);fill-opacity:1;" d="M 35.992188 90.003906 L 40.242188 77.253906 L 31.742188 77.253906 L 35.992188 90.003906 "/>
<path style="fill:none;stroke-width:0.12;stroke-linecap:butt;stroke-linejoin:round;stroke:rgb(0%,0%,0%);stroke-opacity:1;stroke-miterlimit:10;" d="M 215.949219 54.023438 L 287.933594 54.023438 L 287.933594 0.0546875 L 215.949219 0.0546875 Z M 215.949219 54.023438 Z M 215.949219 54.023438 " transform="matrix(1,0,0,-1,0,144)"/>
<path style=" stroke:none;fill-rule:evenodd;fill:rgb(0%,0%,0%);fill-opacity:1;" d="M 233.890625 121.816406 L 233.890625 111.789062 L 235.222656 111.789062 L 235.222656 120.628906 L 240.152344 120.628906 L 240.152344 121.816406 "/>
<path style=" stroke:none;fill-rule:evenodd;fill:rgb(0%,0%,0%);fill-opacity:1;" d="M 241.570312 111.789062 L 242.789062 111.789062 L 242.789062 113.203125 L 241.570312 113.203125 Z M 241.570312 114.566406 L 242.789062 114.566406 L 242.789062 121.816406 L 241.570312 121.816406 Z M 241.570312 114.566406 "/>
<path style=" stroke:none;fill-rule:evenodd;fill:rgb(0%,0%,0%);fill-opacity:1;" d="M 244.6875 121.816406 L 244.6875 114.566406 L 245.792969 114.566406 L 245.792969 115.585938 C 246.304688 114.792969 247.097656 114.394531 248.089844 114.394531 C 248.542969 114.394531 248.9375 114.480469 249.308594 114.621094 C 249.675781 114.792969 249.929688 114.988281 250.128906 115.246094 C 250.300781 115.5 250.441406 115.8125 250.496094 116.152344 C 250.554688 116.378906 250.582031 116.773438 250.582031 117.339844 L 250.582031 121.816406 L 249.335938 121.816406 L 249.335938 117.398438 C 249.335938 116.886719 249.308594 116.519531 249.195312 116.265625 C 249.109375 116.039062 248.9375 115.839844 248.683594 115.699219 C 248.457031 115.527344 248.171875 115.472656 247.832031 115.472656 C 247.324219 115.472656 246.871094 115.640625 246.472656 115.953125 C 246.105469 116.292969 245.90625 116.917969 245.90625 117.851562 L 245.90625 121.816406 "/>
<path style=" stroke:none;fill-rule:evenodd;fill:rgb(0%,0%,0%);fill-opacity:1;" d="M 252.480469 121.816406 L 252.480469 111.789062 L 253.699219 111.789062 L 253.699219 117.511719 L 256.617188 114.566406 L 258.207031 114.566406 L 255.429688 117.257812 L 258.488281 121.816406 L 256.988281 121.816406 L 254.578125 118.105469 L 253.699219 118.929688 L 253.699219 121.816406 "/>
<path style=" stroke:none;fill-rule:evenodd;fill:rgb(0%,0%,0%);fill-opacity:1;" d="M 264.441406 119.496094 L 265.714844 119.636719 C 265.515625 120.371094 265.148438 120.96875 264.582031 121.363281 C 264.042969 121.789062 263.363281 121.988281 262.511719 121.988281 C 261.464844 121.988281 260.613281 121.648438 259.992188 120.996094 C 259.367188 120.34375 259.054688 119.4375 259.054688 118.246094 C 259.054688 117.03125 259.367188 116.09375 259.992188 115.414062 C 260.644531 114.734375 261.4375 114.394531 262.457031 114.394531 C 263.421875 114.394531 264.214844 114.734375 264.835938 115.386719 C 265.433594 116.039062 265.742188 116.972656 265.742188 118.164062 C 265.742188 118.246094 265.742188 118.359375 265.742188 118.503906 L 260.332031 118.503906 C 260.386719 119.296875 260.613281 119.921875 261.011719 120.34375 C 261.40625 120.769531 261.917969 120.96875 262.511719 120.96875 C 262.96875 120.96875 263.363281 120.855469 263.675781 120.628906 C 263.988281 120.371094 264.242188 120.003906 264.441406 119.496094 Z M 260.386719 117.484375 L 264.441406 117.484375 C 264.382812 116.886719 264.242188 116.433594 263.988281 116.121094 C 263.589844 115.640625 263.078125 115.414062 262.457031 115.414062 C 261.890625 115.414062 261.4375 115.585938 261.039062 115.980469 C 260.644531 116.351562 260.445312 116.859375 260.386719 117.484375 "/>
<path style=" stroke:none;fill-rule:evenodd;fill:rgb(0%,0%,0%);fill-opacity:1;" d="M 267.21875 121.816406 L 267.21875 114.566406 L 268.324219 114.566406 L 268.324219 115.671875 C 268.605469 115.132812 268.863281 114.820312 269.117188 114.648438 C 269.34375 114.480469 269.628906 114.394531 269.910156 114.394531 C 270.308594 114.394531 270.730469 114.535156 271.15625 114.792969 L 270.730469 115.925781 C 270.449219 115.753906 270.136719 115.671875 269.824219 115.671875 C 269.570312 115.671875 269.316406 115.753906 269.117188 115.898438 C 268.890625 116.066406 268.746094 116.292969 268.664062 116.578125 C 268.523438 117.03125 268.4375 117.511719 268.4375 118.019531 L 268.4375 121.816406 "/>
<path style="fill:none;stroke-width:0.12;stroke-linecap:butt;stroke-linejoin:round;stroke:rgb(0%,0%,0%);stroke-opacity:1;stroke-miterlimit:10;" d="M 0 134.964844 L 4.988281 134.964844 L 4.988281 139.46875 L 9.976562 139.46875 L 9.976562 143.945312 L 72.011719 143.945312 L 72.011719 107.964844 L 66.996094 107.964844 L 66.996094 103.460938 L 62.007812 103.460938 L 62.007812 98.957031 C 38.683594 99.269531 38.230469 91.902344 16.097656 90.175781 C 8.160156 91.195312 5.300781 92.042969 0 93.234375 Z M 0 143.945312 Z M 72.011719 89.976562 Z M 4.988281 134.964844 L 62.007812 134.964844 L 62.007812 103.460938 M 0 143.945312 Z M 72.011719 89.976562 Z M 9.976562 139.46875 L 66.996094 139.46875 L 66.996094 107.964844 M 0 143.945312 Z M 72.011719 89.976562 Z M 72.011719 89.976562 " transform="matrix(1,0,0,-1,0,144)"/>
<path style=" stroke:none;fill-rule:evenodd;fill:rgb(0%,0%,0%);fill-opacity:1;" d="M 17.484375 28.414062 L 18.816406 28.753906 C 18.535156 29.828125 18.054688 30.679688 17.316406 31.246094 C 16.605469 31.8125 15.730469 32.097656 14.679688 32.097656 C 13.601562 32.097656 12.726562 31.871094 12.042969 31.445312 C 11.363281 30.992188 10.855469 30.367188 10.484375 29.519531 C 10.144531 28.695312 9.976562 27.789062 9.976562 26.855469 C 9.976562 25.808594 10.175781 24.902344 10.570312 24.105469 C 10.96875 23.34375 11.535156 22.746094 12.269531 22.351562 C 13.007812 21.925781 13.800781 21.726562 14.707031 21.726562 C 15.699219 21.726562 16.550781 21.984375 17.230469 22.492188 C 17.910156 23.003906 18.394531 23.738281 18.648438 24.644531 L 17.34375 24.957031 C 17.117188 24.222656 16.777344 23.710938 16.324219 23.371094 C 15.898438 23.03125 15.332031 22.859375 14.679688 22.859375 C 13.886719 22.859375 13.261719 23.058594 12.726562 23.429688 C 12.214844 23.796875 11.847656 24.277344 11.648438 24.902344 C 11.449219 25.523438 11.335938 26.175781 11.335938 26.828125 C 11.335938 27.675781 11.449219 28.441406 11.703125 29.066406 C 11.960938 29.6875 12.328125 30.171875 12.867188 30.480469 C 13.375 30.792969 13.941406 30.964844 14.566406 30.964844 C 15.304688 30.964844 15.925781 30.738281 16.464844 30.3125 C 16.976562 29.886719 17.316406 29.265625 17.484375 28.414062 "/>
<path style=" stroke:none;fill-rule:evenodd;fill:rgb(0%,0%,0%);fill-opacity:1;" d="M 24.285156 31.925781 L 24.285156 21.898438 L 31.03125 21.898438 L 31.03125 23.089844 L 25.589844 23.089844 L 25.589844 26.203125 L 30.296875 26.203125 L 30.296875 27.363281 L 25.589844 27.363281 L 25.589844 31.925781 "/>
<path style=" stroke:none;fill-rule:evenodd;fill:rgb(0%,0%,0%);fill-opacity:1;" d="M 32.589844 21.898438 L 33.808594 21.898438 L 33.808594 23.316406 L 32.589844 23.316406 Z M 32.589844 24.675781 L 33.808594 24.675781 L 33.808594 31.925781 L 32.589844 31.925781 Z M 32.589844 24.675781 "/>
<path style=" stroke:none;fill-rule:nonzero;fill:rgb(0%,0%,0%);fill-opacity:1;" d="M 35.679688 21.898438 L 36.898438 21.898438 L 36.898438 31.925781 L 35.679688 31.925781 Z M 35.679688 21.898438 "/>
<path style=" stroke:none;fill-rule:evenodd;fill:rgb(0%,0%,0%);fill-opacity:1;" d="M 43.785156 29.601562 L 45.0625 29.746094 C 44.863281 30.480469 44.492188 31.078125 43.925781 31.472656 C 43.390625 31.898438 42.707031 32.097656 41.859375 32.097656 C 40.808594 32.097656 39.960938 31.757812 39.335938 31.105469 C 38.710938 30.453125 38.402344 29.546875 38.402344 28.355469 C 38.402344 27.140625 38.710938 26.203125 39.335938 25.523438 C 39.988281 24.84375 40.78125 24.503906 41.800781 24.503906 C 42.765625 24.503906 43.558594 24.84375 44.183594 25.496094 C 44.777344 26.148438 45.089844 27.082031 45.089844 28.273438 C 45.089844 28.355469 45.089844 28.46875 45.089844 28.613281 L 39.675781 28.613281 C 39.734375 29.40625 39.960938 30.027344 40.355469 30.453125 C 40.753906 30.878906 41.261719 31.078125 41.859375 31.078125 C 42.3125 31.078125 42.707031 30.964844 43.019531 30.738281 C 43.332031 30.480469 43.585938 30.113281 43.785156 29.601562 Z M 39.734375 27.59375 L 43.785156 27.59375 C 43.730469 26.996094 43.585938 26.542969 43.332031 26.230469 C 42.933594 25.75 42.425781 25.523438 41.800781 25.523438 C 41.234375 25.523438 40.78125 25.695312 40.382812 26.089844 C 39.988281 26.460938 39.789062 26.96875 39.734375 27.59375 "/>
<path style=" stroke:none;fill-rule:evenodd;fill:rgb(0%,0%,0%);fill-opacity:1;" d="M 46.109375 29.773438 L 47.328125 29.574219 C 47.414062 30.058594 47.582031 30.425781 47.894531 30.679688 C 48.207031 30.964844 48.660156 31.078125 49.199219 31.078125 C 49.765625 31.078125 50.191406 30.964844 50.472656 30.738281 C 50.730469 30.511719 50.871094 30.226562 50.871094 29.914062 C 50.871094 29.660156 50.757812 29.433594 50.53125 29.265625 C 50.359375 29.148438 49.933594 29.007812 49.253906 28.839844 C 48.347656 28.613281 47.726562 28.414062 47.382812 28.273438 C 47.042969 28.101562 46.761719 27.875 46.589844 27.5625 C 46.421875 27.28125 46.308594 26.941406 46.308594 26.601562 C 46.308594 26.261719 46.394531 25.976562 46.535156 25.695312 C 46.675781 25.410156 46.902344 25.183594 47.15625 25.015625 C 47.328125 24.871094 47.609375 24.757812 47.921875 24.644531 C 48.261719 24.5625 48.601562 24.503906 49 24.503906 C 49.566406 24.503906 50.046875 24.589844 50.503906 24.757812 C 50.925781 24.929688 51.238281 25.128906 51.4375 25.410156 C 51.664062 25.695312 51.804688 26.0625 51.863281 26.542969 L 50.671875 26.714844 C 50.613281 26.347656 50.445312 26.035156 50.191406 25.835938 C 49.933594 25.609375 49.566406 25.523438 49.085938 25.523438 C 48.519531 25.523438 48.121094 25.609375 47.867188 25.808594 C 47.640625 25.976562 47.496094 26.203125 47.496094 26.460938 C 47.496094 26.601562 47.554688 26.742188 47.667969 26.882812 C 47.753906 27.023438 47.921875 27.140625 48.121094 27.222656 C 48.261719 27.253906 48.601562 27.363281 49.226562 27.535156 C 50.078125 27.761719 50.699219 27.960938 51.039062 28.101562 C 51.378906 28.242188 51.664062 28.46875 51.863281 28.753906 C 52.03125 29.035156 52.144531 29.378906 52.144531 29.800781 C 52.144531 30.199219 52.03125 30.59375 51.777344 30.964844 C 51.550781 31.304688 51.210938 31.585938 50.757812 31.785156 C 50.304688 31.984375 49.792969 32.097656 49.226562 32.097656 C 48.261719 32.097656 47.554688 31.898438 47.074219 31.503906 C 46.5625 31.105469 46.25 30.539062 46.109375 29.773438 "/>
<path style="fill:none;stroke-width:0.12;stroke-linecap:butt;stroke-linejoin:round;stroke:rgb(0%,0%,0%);stroke-opacity:1;stroke-miterlimit:10;" d="M 107.976562 45.074219 L 112.964844 45.074219 L 112.964844 49.550781 L 117.949219 49.550781 L 117.949219 54.023438 L 179.988281 54.023438 L 179.988281 18.046875 L 174.972656 18.046875 L 174.972656 13.542969 L 169.984375 13.542969 L 169.984375 9.035156 C 146.660156 9.347656 146.207031 1.984375 124.074219 0.253906 C 116.136719 1.273438 113.273438 2.125 107.976562 3.316406 Z M 107.976562 54.023438 Z M 112.964844 45.074219 L 169.984375 45.074219 L 169.984375 13.542969 M 107.976562 54.023438 Z M 117.949219 49.550781 L 174.972656 49.550781 L 174.972656 18.046875 M 107.976562 54.023438 Z M 107.976562 54.023438 " transform="matrix(1,0,0,-1,0,144)"/>
<path style=" stroke:none;fill-rule:evenodd;fill:rgb(0%,0%,0%);fill-opacity:1;" d="M 119.453125 109.097656 C 119.453125 107.425781 119.90625 106.121094 120.785156 105.1875 C 121.691406 104.253906 122.824219 103.769531 124.242188 103.769531 C 125.179688 103.769531 126 103.996094 126.734375 104.449219 C 127.503906 104.875 128.066406 105.5 128.4375 106.292969 C 128.835938 107.085938 129.03125 107.964844 129.03125 108.984375 C 129.03125 110.003906 128.835938 110.910156 128.410156 111.703125 C 128.011719 112.496094 127.417969 113.121094 126.679688 113.515625 C 125.914062 113.941406 125.121094 114.140625 124.242188 114.140625 C 123.308594 114.140625 122.457031 113.914062 121.71875 113.460938 C 120.984375 113.007812 120.417969 112.382812 120.019531 111.589844 C 119.652344 110.796875 119.453125 109.976562 119.453125 109.097656 Z M 120.8125 109.097656 C 120.8125 110.316406 121.152344 111.277344 121.777344 111.960938 C 122.429688 112.667969 123.25 113.007812 124.242188 113.007812 C 125.234375 113.007812 126.054688 112.667969 126.707031 111.960938 C 127.332031 111.25 127.671875 110.257812 127.671875 108.957031 C 127.671875 108.164062 127.53125 107.453125 127.246094 106.832031 C 126.964844 106.234375 126.566406 105.753906 126.054688 105.414062 C 125.519531 105.074219 124.921875 104.90625 124.242188 104.90625 C 123.308594 104.90625 122.515625 105.246094 121.835938 105.894531 C 121.152344 106.519531 120.8125 107.597656 120.8125 109.097656 "/>
<path style=" stroke:none;fill-rule:evenodd;fill:rgb(0%,0%,0%);fill-opacity:1;" d="M 131.722656 113.96875 L 130.5625 113.96875 L 130.5625 103.941406 L 131.808594 103.941406 L 131.808594 107.539062 C 132.320312 106.886719 132.972656 106.546875 133.792969 106.546875 C 134.246094 106.546875 134.671875 106.632812 135.066406 106.832031 C 135.464844 107 135.777344 107.257812 136.03125 107.566406 C 136.285156 107.90625 136.515625 108.304688 136.65625 108.757812 C 136.796875 109.210938 136.855469 109.722656 136.855469 110.230469 C 136.855469 111.476562 136.570312 112.441406 135.945312 113.121094 C 135.324219 113.800781 134.585938 114.140625 133.734375 114.140625 C 132.886719 114.140625 132.207031 113.773438 131.722656 113.0625 Z M 131.695312 110.285156 C 131.695312 111.164062 131.808594 111.789062 132.0625 112.183594 C 132.433594 112.808594 132.972656 113.121094 133.621094 113.121094 C 134.160156 113.121094 134.644531 112.894531 135.011719 112.410156 C 135.410156 111.960938 135.605469 111.25 135.605469 110.34375 C 135.605469 109.382812 135.410156 108.699219 135.039062 108.246094 C 134.671875 107.792969 134.21875 107.566406 133.679688 107.566406 C 133.140625 107.566406 132.6875 107.792969 132.289062 108.246094 C 131.894531 108.730469 131.695312 109.410156 131.695312 110.285156 "/>
<path style=" stroke:none;fill-rule:evenodd;fill:rgb(0%,0%,0%);fill-opacity:1;" d="M 138.328125 103.941406 L 139.574219 103.941406 L 139.574219 105.386719 L 138.328125 105.386719 Z M 136.769531 116.773438 L 137.023438 115.726562 C 137.25 115.8125 137.449219 115.839844 137.589844 115.839844 C 137.847656 115.839844 138.015625 115.753906 138.15625 115.585938 C 138.269531 115.414062 138.328125 115.019531 138.328125 114.339844 L 138.328125 106.71875 L 139.574219 106.71875 L 139.574219 114.367188 C 139.574219 115.273438 139.460938 115.867188 139.207031 116.238281 C 138.921875 116.691406 138.441406 116.917969 137.730469 116.917969 C 137.421875 116.917969 137.082031 116.859375 136.769531 116.773438 "/>
<path style=" stroke:none;fill-rule:evenodd;fill:rgb(0%,0%,0%);fill-opacity:1;" d="M 146.433594 111.648438 L 147.707031 111.789062 C 147.511719 112.523438 147.140625 113.121094 146.574219 113.515625 C 146.035156 113.941406 145.355469 114.140625 144.507812 114.140625 C 143.457031 114.140625 142.605469 113.800781 141.984375 113.148438 C 141.359375 112.496094 141.046875 111.589844 141.046875 110.402344 C 141.046875 109.183594 141.359375 108.246094 141.984375 107.566406 C 142.636719 106.886719 143.429688 106.546875 144.449219 106.546875 C 145.414062 106.546875 146.207031 106.886719 146.828125 107.539062 C 147.425781 108.191406 147.734375 109.125 147.734375 110.316406 C 147.734375 110.402344 147.734375 110.515625 147.734375 110.65625 L 142.324219 110.65625 C 142.378906 111.449219 142.605469 112.070312 143.003906 112.496094 C 143.398438 112.921875 143.910156 113.121094 144.507812 113.121094 C 144.960938 113.121094 145.355469 113.007812 145.667969 112.78125 C 145.980469 112.523438 146.234375 112.15625 146.433594 111.648438 Z M 142.378906 109.636719 L 146.433594 109.636719 C 146.375 109.039062 146.234375 108.589844 145.980469 108.277344 C 145.582031 107.792969 145.070312 107.566406 144.449219 107.566406 C 143.882812 107.566406 143.429688 107.738281 143.03125 108.132812 C 142.636719 108.503906 142.4375 109.011719 142.378906 109.636719 "/>
<path style=" stroke:none;fill-rule:evenodd;fill:rgb(0%,0%,0%);fill-opacity:1;" d="M 154 111.308594 L 155.191406 111.476562 C 155.074219 112.300781 154.734375 112.949219 154.199219 113.433594 C 153.632812 113.886719 152.980469 114.140625 152.1875 114.140625 C 151.195312 114.140625 150.398438 113.800781 149.777344 113.148438 C 149.183594 112.523438 148.871094 111.589844 148.871094 110.371094 C 148.871094 109.578125 149.011719 108.898438 149.265625 108.304688 C 149.523438 107.738281 149.917969 107.285156 150.457031 107 C 150.996094 106.6875 151.5625 106.546875 152.1875 106.546875 C 152.980469 106.546875 153.632812 106.746094 154.113281 107.144531 C 154.621094 107.539062 154.933594 108.105469 155.074219 108.84375 L 153.886719 109.039062 C 153.773438 108.53125 153.574219 108.164062 153.289062 107.9375 C 153.007812 107.679688 152.640625 107.566406 152.242188 107.566406 C 151.617188 107.566406 151.109375 107.792969 150.710938 108.21875 C 150.34375 108.671875 150.144531 109.382812 150.144531 110.34375 C 150.144531 111.308594 150.34375 112.015625 150.710938 112.46875 C 151.082031 112.894531 151.5625 113.121094 152.15625 113.121094 C 152.640625 113.121094 153.0625 112.980469 153.375 112.667969 C 153.6875 112.382812 153.914062 111.929688 154 111.308594 "/>
<path style=" stroke:none;fill-rule:evenodd;fill:rgb(0%,0%,0%);fill-opacity:1;" d="M 158.929688 112.863281 L 159.128906 113.96875 C 158.761719 114.027344 158.449219 114.054688 158.195312 114.054688 C 157.738281 114.054688 157.398438 114 157.144531 113.855469 C 156.890625 113.714844 156.71875 113.515625 156.636719 113.289062 C 156.523438 113.0625 156.492188 112.582031 156.492188 111.84375 L 156.492188 107.679688 L 155.585938 107.679688 L 155.585938 106.71875 L 156.492188 106.71875 L 156.492188 104.90625 L 157.710938 104.167969 L 157.710938 106.71875 L 158.929688 106.71875 L 158.929688 107.679688 L 157.710938 107.679688 L 157.710938 111.902344 C 157.710938 112.269531 157.710938 112.496094 157.769531 112.582031 C 157.824219 112.695312 157.882812 112.78125 157.96875 112.835938 C 158.082031 112.894531 158.222656 112.921875 158.390625 112.921875 C 158.535156 112.921875 158.703125 112.894531 158.929688 112.863281 "/>
<path style=" stroke:none;fill-rule:evenodd;fill:rgb(0%,0%,0%);fill-opacity:1;" d="M 125.40625 129.691406 L 125.40625 119.664062 L 132.148438 119.664062 L 132.148438 120.855469 L 126.707031 120.855469 L 126.707031 123.972656 L 131.414062 123.972656 L 131.414062 125.132812 L 126.707031 125.132812 L 126.707031 129.691406 "/>
<path style=" stroke:none;fill-rule:evenodd;fill:rgb(0%,0%,0%);fill-opacity:1;" d="M 133.707031 119.664062 L 134.925781 119.664062 L 134.925781 121.082031 L 133.707031 121.082031 Z M 133.707031 122.441406 L 134.925781 122.441406 L 134.925781 129.691406 L 133.707031 129.691406 Z M 133.707031 122.441406 "/>
<path style=" stroke:none;fill-rule:nonzero;fill:rgb(0%,0%,0%);fill-opacity:1;" d="M 136.769531 119.664062 L 137.988281 119.664062 L 137.988281 129.695312 L 136.769531 129.695312 Z M 136.769531 119.664062 "/>
<path style=" stroke:none;fill-rule:evenodd;fill:rgb(0%,0%,0%);fill-opacity:1;" d="M 144.847656 127.371094 L 146.121094 127.511719 C 145.921875 128.25 145.554688 128.84375 144.988281 129.238281 C 144.449219 129.664062 143.769531 129.863281 142.917969 129.863281 C 141.871094 129.863281 141.019531 129.523438 140.394531 128.871094 C 139.773438 128.21875 139.460938 127.3125 139.460938 126.125 C 139.460938 124.90625 139.773438 123.972656 140.394531 123.289062 C 141.046875 122.609375 141.84375 122.269531 142.863281 122.269531 C 143.824219 122.269531 144.617188 122.609375 145.242188 123.261719 C 145.839844 123.914062 146.148438 124.847656 146.148438 126.039062 C 146.148438 126.125 146.148438 126.238281 146.148438 126.378906 L 140.734375 126.378906 C 140.792969 127.171875 141.019531 127.796875 141.417969 128.21875 C 141.8125 128.644531 142.324219 128.84375 142.917969 128.84375 C 143.371094 128.84375 143.769531 128.730469 144.082031 128.503906 C 144.390625 128.25 144.648438 127.878906 144.847656 127.371094 Z M 140.792969 125.359375 L 144.847656 125.359375 C 144.789062 124.765625 144.648438 124.3125 144.390625 124 C 143.996094 123.515625 143.484375 123.289062 142.863281 123.289062 C 142.296875 123.289062 141.84375 123.460938 141.445312 123.855469 C 141.046875 124.226562 140.851562 124.734375 140.792969 125.359375 "/>
<path style=" stroke:none;fill-rule:evenodd;fill:rgb(0%,0%,0%);fill-opacity:1;" d="M 147.171875 127.539062 L 148.386719 127.34375 C 148.472656 127.824219 148.644531 128.191406 148.953125 128.445312 C 149.265625 128.730469 149.71875 128.84375 150.257812 128.84375 C 150.824219 128.84375 151.25 128.730469 151.535156 128.503906 C 151.789062 128.277344 151.929688 127.992188 151.929688 127.683594 C 151.929688 127.425781 151.816406 127.199219 151.589844 127.03125 C 151.421875 126.917969 150.996094 126.773438 150.316406 126.605469 C 149.40625 126.378906 148.785156 126.179688 148.445312 126.039062 C 148.105469 125.867188 147.820312 125.640625 147.652344 125.332031 C 147.480469 125.046875 147.367188 124.707031 147.367188 124.367188 C 147.367188 124.027344 147.453125 123.742188 147.59375 123.460938 C 147.734375 123.175781 147.964844 122.949219 148.21875 122.78125 C 148.386719 122.640625 148.671875 122.527344 148.984375 122.414062 C 149.324219 122.328125 149.664062 122.269531 150.058594 122.269531 C 150.628906 122.269531 151.109375 122.355469 151.5625 122.527344 C 151.988281 122.695312 152.300781 122.894531 152.496094 123.175781 C 152.722656 123.460938 152.867188 123.828125 152.921875 124.3125 L 151.730469 124.480469 C 151.675781 124.113281 151.507812 123.800781 151.25 123.601562 C 150.996094 123.375 150.628906 123.289062 150.144531 123.289062 C 149.578125 123.289062 149.183594 123.375 148.925781 123.574219 C 148.699219 123.742188 148.558594 123.972656 148.558594 124.226562 C 148.558594 124.367188 148.613281 124.507812 148.726562 124.652344 C 148.8125 124.792969 148.984375 124.90625 149.183594 124.992188 C 149.324219 125.019531 149.664062 125.132812 150.285156 125.300781 C 151.136719 125.527344 151.761719 125.726562 152.101562 125.867188 C 152.441406 126.011719 152.722656 126.238281 152.921875 126.519531 C 153.09375 126.804688 153.207031 127.144531 153.207031 127.570312 C 153.207031 127.964844 153.09375 128.363281 152.839844 128.730469 C 152.609375 129.070312 152.269531 129.351562 151.816406 129.550781 C 151.363281 129.75 150.855469 129.863281 150.285156 129.863281 C 149.324219 129.863281 148.613281 129.664062 148.132812 129.269531 C 147.621094 128.871094 147.3125 128.304688 147.171875 127.539062 "/>
<path style="fill:none;stroke-width:0.028;stroke-linecap:butt;stroke-linejoin:round;stroke:rgb(0%,0%,0%);stroke-opacity:1;stroke-miterlimit:10;" d="M 72.011719 26.996094 L 95.816406 26.996094 " transform="matrix(1,0,0,-1,0,144)"/>
<path style=" stroke:none;fill-rule:evenodd;fill:rgb(0%,0%,0%);fill-opacity:1;" d="M 107.976562 116.972656 L 95.222656 112.722656 L 95.222656 121.222656 L 107.976562 116.972656 "/>
<path style="fill:none;stroke-width:0.12;stroke-linecap:butt;stroke-linejoin:round;stroke:rgb(0%,0%,0%);stroke-opacity:1;stroke-miterlimit:10;" d="M 323.898438 54.023438 L 395.910156 54.023438 L 395.910156 10.679688 C 367.398438 11.019531 368.363281 2.152344 342.632812 0.0585938 C 333.421875 1.332031 330.046875 2.324219 323.898438 3.769531 Z M 323.898438 54.023438 Z M 323.898438 54.023438 " transform="matrix(1,0,0,-1,0,144)"/>
<path style=" stroke:none;fill-rule:evenodd;fill:rgb(0%,0%,0%);fill-opacity:1;" d="M 326.421875 116.519531 L 326.421875 106.492188 L 333.675781 106.492188 L 333.675781 107.679688 L 327.753906 107.679688 L 327.753906 110.742188 L 333.277344 110.742188 L 333.277344 111.929688 L 327.753906 111.929688 L 327.753906 115.328125 L 333.902344 115.328125 L 333.902344 116.519531 "/>
<path style=" stroke:none;fill-rule:evenodd;fill:rgb(0%,0%,0%);fill-opacity:1;" d="M 334.753906 116.519531 L 337.386719 112.753906 L 334.949219 109.265625 L 336.480469 109.265625 L 337.585938 110.96875 C 337.8125 111.277344 337.984375 111.5625 338.097656 111.789062 C 338.296875 111.476562 338.492188 111.222656 338.664062 110.96875 L 339.882812 109.265625 L 341.355469 109.265625 L 338.832031 112.667969 L 341.523438 116.519531 L 340.023438 116.519531 L 338.519531 114.253906 L 338.152344 113.660156 L 336.226562 116.519531 "/>
<path style=" stroke:none;fill-rule:evenodd;fill:rgb(0%,0%,0%);fill-opacity:1;" d="M 347.53125 114.195312 L 348.808594 114.339844 C 348.609375 115.074219 348.242188 115.671875 347.675781 116.066406 C 347.136719 116.492188 346.457031 116.691406 345.605469 116.691406 C 344.558594 116.691406 343.707031 116.351562 343.085938 115.699219 C 342.460938 115.046875 342.148438 114.140625 342.148438 112.949219 C 342.148438 111.730469 342.460938 110.796875 343.085938 110.117188 C 343.734375 109.4375 344.527344 109.097656 345.550781 109.097656 C 346.511719 109.097656 347.308594 109.4375 347.929688 110.089844 C 348.523438 110.742188 348.835938 111.675781 348.835938 112.863281 C 348.835938 112.949219 348.835938 113.0625 348.835938 113.203125 L 343.425781 113.203125 C 343.480469 114 343.707031 114.621094 344.105469 115.046875 C 344.5 115.472656 345.011719 115.671875 345.605469 115.671875 C 346.058594 115.671875 346.457031 115.558594 346.769531 115.328125 C 347.078125 115.074219 347.335938 114.707031 347.53125 114.195312 Z M 343.480469 112.183594 L 347.53125 112.183594 C 347.476562 111.589844 347.335938 111.136719 347.078125 110.824219 C 346.683594 110.34375 346.171875 110.117188 345.550781 110.117188 C 344.984375 110.117188 344.527344 110.285156 344.132812 110.683594 C 343.734375 111.050781 343.535156 111.5625 343.480469 112.183594 "/>
<path style=" stroke:none;fill-rule:evenodd;fill:rgb(0%,0%,0%);fill-opacity:1;" d="M 355.101562 113.855469 L 356.289062 114.027344 C 356.175781 114.847656 355.835938 115.5 355.300781 115.980469 C 354.730469 116.433594 354.078125 116.691406 353.285156 116.691406 C 352.296875 116.691406 351.5 116.351562 350.878906 115.699219 C 350.28125 115.074219 349.972656 114.140625 349.972656 112.921875 C 349.972656 112.128906 350.113281 111.449219 350.367188 110.855469 C 350.621094 110.285156 351.019531 109.835938 351.558594 109.550781 C 352.097656 109.238281 352.664062 109.097656 353.285156 109.097656 C 354.078125 109.097656 354.730469 109.296875 355.214844 109.691406 C 355.722656 110.089844 356.035156 110.65625 356.175781 111.390625 L 354.988281 111.589844 C 354.871094 111.082031 354.675781 110.710938 354.390625 110.484375 C 354.109375 110.230469 353.738281 110.117188 353.34375 110.117188 C 352.71875 110.117188 352.210938 110.34375 351.8125 110.769531 C 351.445312 111.222656 351.246094 111.929688 351.246094 112.894531 C 351.246094 113.855469 351.445312 114.566406 351.8125 115.019531 C 352.179688 115.441406 352.664062 115.671875 353.257812 115.671875 C 353.738281 115.671875 354.164062 115.527344 354.476562 115.21875 C 354.789062 114.933594 355.015625 114.480469 355.101562 113.855469 "/>
<path style=" stroke:none;fill-rule:evenodd;fill:rgb(0%,0%,0%);fill-opacity:1;" d="M 362.101562 116.519531 L 362.101562 115.441406 C 361.5625 116.265625 360.769531 116.691406 359.804688 116.691406 C 359.378906 116.691406 358.984375 116.605469 358.613281 116.433594 C 358.246094 116.265625 357.964844 116.066406 357.792969 115.8125 C 357.59375 115.585938 357.480469 115.273438 357.394531 114.90625 C 357.339844 114.679688 357.339844 114.28125 357.339844 113.773438 L 357.339844 109.265625 L 358.558594 109.265625 L 358.558594 113.289062 C 358.558594 113.941406 358.585938 114.367188 358.644531 114.59375 C 358.699219 114.90625 358.867188 115.160156 359.125 115.359375 C 359.378906 115.527344 359.691406 115.613281 360.058594 115.613281 C 360.429688 115.613281 360.769531 115.527344 361.109375 115.328125 C 361.421875 115.160156 361.648438 114.90625 361.789062 114.566406 C 361.902344 114.253906 361.988281 113.773438 361.988281 113.148438 L 361.988281 109.265625 L 363.203125 109.265625 L 363.203125 116.519531 "/>
<path style=" stroke:none;fill-rule:evenodd;fill:rgb(0%,0%,0%);fill-opacity:1;" d="M 367.796875 115.414062 L 367.996094 116.519531 C 367.625 116.578125 367.316406 116.605469 367.058594 116.605469 C 366.605469 116.605469 366.265625 116.546875 366.011719 116.40625 C 365.757812 116.265625 365.585938 116.066406 365.5 115.839844 C 365.386719 115.613281 365.359375 115.132812 365.359375 114.394531 L 365.359375 110.230469 L 364.453125 110.230469 L 364.453125 109.265625 L 365.359375 109.265625 L 365.359375 107.453125 L 366.578125 106.71875 L 366.578125 109.265625 L 367.796875 109.265625 L 367.796875 110.230469 L 366.578125 110.230469 L 366.578125 114.453125 C 366.578125 114.820312 366.578125 115.046875 366.636719 115.132812 C 366.691406 115.246094 366.746094 115.328125 366.832031 115.386719 C 366.945312 115.441406 367.089844 115.472656 367.257812 115.472656 C 367.398438 115.472656 367.570312 115.441406 367.796875 115.414062 "/>
<path style=" stroke:none;fill-rule:evenodd;fill:rgb(0%,0%,0%);fill-opacity:1;" d="M 373.777344 115.613281 C 373.324219 116.011719 372.867188 116.292969 372.445312 116.433594 C 372.019531 116.605469 371.566406 116.691406 371.085938 116.691406 C 370.289062 116.691406 369.695312 116.492188 369.269531 116.09375 C 368.816406 115.699219 368.617188 115.21875 368.617188 114.59375 C 368.617188 114.253906 368.703125 113.914062 368.84375 113.628906 C 369.015625 113.347656 369.242188 113.09375 369.496094 112.921875 C 369.753906 112.753906 370.0625 112.609375 370.375 112.523438 C 370.628906 112.46875 370.972656 112.382812 371.480469 112.328125 C 372.472656 112.214844 373.210938 112.070312 373.664062 111.902344 C 373.664062 111.730469 373.664062 111.648438 373.664062 111.589844 C 373.664062 111.082031 373.550781 110.742188 373.324219 110.542969 C 373.011719 110.257812 372.527344 110.117188 371.933594 110.117188 C 371.339844 110.117188 370.914062 110.230469 370.628906 110.429688 C 370.375 110.628906 370.148438 110.996094 370.035156 111.507812 L 368.816406 111.335938 C 368.929688 110.824219 369.128906 110.402344 369.355469 110.089844 C 369.609375 109.777344 369.980469 109.523438 370.460938 109.351562 C 370.914062 109.183594 371.480469 109.097656 372.105469 109.097656 C 372.726562 109.097656 373.238281 109.183594 373.605469 109.324219 C 374.003906 109.464844 374.285156 109.636719 374.457031 109.863281 C 374.65625 110.089844 374.769531 110.371094 374.851562 110.710938 C 374.882812 110.910156 374.910156 111.277344 374.910156 111.84375 L 374.910156 113.488281 C 374.910156 114.621094 374.9375 115.359375 374.996094 115.640625 C 375.050781 115.953125 375.136719 116.238281 375.308594 116.519531 L 374.003906 116.519531 C 373.890625 116.265625 373.804688 115.953125 373.777344 115.613281 Z M 373.664062 112.863281 C 373.210938 113.0625 372.558594 113.203125 371.652344 113.347656 C 371.140625 113.402344 370.800781 113.488281 370.574219 113.601562 C 370.375 113.6875 370.203125 113.800781 370.09375 114 C 369.980469 114.167969 369.921875 114.367188 369.921875 114.566406 C 369.921875 114.90625 370.0625 115.160156 370.289062 115.386719 C 370.546875 115.613281 370.914062 115.726562 371.394531 115.726562 C 371.878906 115.726562 372.273438 115.613281 372.644531 115.414062 C 373.011719 115.1875 373.292969 114.90625 373.464844 114.566406 C 373.605469 114.28125 373.664062 113.855469 373.664062 113.320312 "/>
<path style=" stroke:none;fill-rule:evenodd;fill:rgb(0%,0%,0%);fill-opacity:1;" d="M 377.941406 116.519531 L 376.78125 116.519531 L 376.78125 106.492188 L 378.027344 106.492188 L 378.027344 110.089844 C 378.535156 109.4375 379.1875 109.097656 380.011719 109.097656 C 380.464844 109.097656 380.890625 109.183594 381.285156 109.382812 C 381.683594 109.550781 381.996094 109.804688 382.25 110.117188 C 382.503906 110.457031 382.730469 110.855469 382.871094 111.308594 C 383.015625 111.761719 383.070312 112.269531 383.070312 112.78125 C 383.070312 114.027344 382.789062 114.988281 382.164062 115.671875 C 381.539062 116.351562 380.804688 116.691406 379.953125 116.691406 C 379.105469 116.691406 378.425781 116.320312 377.941406 115.613281 Z M 377.914062 112.835938 C 377.914062 113.714844 378.027344 114.339844 378.28125 114.734375 C 378.652344 115.359375 379.1875 115.671875 379.839844 115.671875 C 380.378906 115.671875 380.859375 115.441406 381.230469 114.960938 C 381.625 114.507812 381.824219 113.800781 381.824219 112.894531 C 381.824219 111.929688 381.625 111.25 381.257812 110.796875 C 380.890625 110.34375 380.4375 110.117188 379.898438 110.117188 C 379.359375 110.117188 378.90625 110.34375 378.507812 110.796875 C 378.113281 111.277344 377.914062 111.960938 377.914062 112.835938 "/>
<path style=" stroke:none;fill-rule:nonzero;fill:rgb(0%,0%,0%);fill-opacity:1;" d="M 384.574219 106.492188 L 385.792969 106.492188 L 385.792969 116.519531 L 384.574219 116.519531 Z M 384.574219 106.492188 "/>
<path style=" stroke:none;fill-rule:evenodd;fill:rgb(0%,0%,0%);fill-opacity:1;" d="M 392.679688 114.195312 L 393.953125 114.339844 C 393.757812 115.074219 393.386719 115.671875 392.820312 116.066406 C 392.28125 116.492188 391.601562 116.691406 390.753906 116.691406 C 389.703125 116.691406 388.851562 116.351562 388.230469 115.699219 C 387.605469 115.046875 387.292969 114.140625 387.292969 112.949219 C 387.292969 111.730469 387.605469 110.796875 388.230469 110.117188 C 388.882812 109.4375 389.675781 109.097656 390.695312 109.097656 C 391.660156 109.097656 392.453125 109.4375 393.074219 110.089844 C 393.671875 110.742188 393.984375 111.675781 393.984375 112.863281 C 393.984375 112.949219 393.984375 113.0625 393.984375 113.203125 L 388.570312 113.203125 C 388.625 114 388.851562 114.621094 389.25 115.046875 C 389.648438 115.472656 390.15625 115.671875 390.753906 115.671875 C 391.203125 115.671875 391.601562 115.558594 391.914062 115.328125 C 392.226562 115.074219 392.480469 114.707031 392.679688 114.195312 Z M 388.625 112.183594 L 392.679688 112.183594 C 392.621094 111.589844 392.480469 111.136719 392.226562 110.824219 C 391.828125 110.34375 391.320312 110.117188 390.695312 110.117188 C 390.128906 110.117188 389.675781 110.285156 389.277344 110.683594 C 388.882812 111.050781 388.683594 111.5625 388.625 112.183594 "/>
<path style="fill:none;stroke-width:0.028;stroke-linecap:butt;stroke-linejoin:round;stroke:rgb(0%,0%,0%);stroke-opacity:1;stroke-miterlimit:10;" d="M 179.960938 26.996094 L 203.765625 26.996094 " transform="matrix(1,0,0,-1,0,144)"/>
<path style=" stroke:none;fill-rule:evenodd;fill:rgb(0%,0%,0%);fill-opacity:1;" d="M 215.949219 116.972656 L 203.199219 112.722656 L 203.199219 121.222656 L 215.949219 116.972656 "/>
<path style="fill:none;stroke-width:0.028;stroke-linecap:butt;stroke-linejoin:round;stroke:rgb(0%,0%,0%);stroke-opacity:1;stroke-miterlimit:10;" d="M 287.933594 26.996094 L 311.738281 26.996094 " transform="matrix(1,0,0,-1,0,144)"/>
<path style=" stroke:none;fill-rule:evenodd;fill:rgb(0%,0%,0%);fill-opacity:1;" d="M 323.898438 116.972656 L 311.144531 112.722656 L 311.144531 121.222656 L 323.898438 116.972656 "/>
<path style="fill:none;stroke-width:0.12;stroke-linecap:butt;stroke-linejoin:round;stroke:rgb(0%,0%,0%);stroke-opacity:1;stroke-miterlimit:10;" d="M 215.949219 134.964844 L 220.9375 134.964844 L 220.9375 139.46875 L 225.925781 139.46875 L 225.925781 143.945312 L 287.933594 143.945312 L 287.933594 107.964844 L 282.917969 107.964844 L 282.917969 103.460938 L 277.929688 103.460938 L 277.929688 98.957031 C 254.636719 99.269531 254.179688 91.902344 232.046875 90.175781 C 224.113281 91.195312 221.25 92.042969 215.949219 93.234375 Z M 215.949219 143.945312 Z M 287.933594 89.976562 Z M 220.9375 134.964844 L 277.929688 134.964844 L 277.929688 103.460938 M 215.949219 143.945312 Z M 287.933594 89.976562 Z M 225.925781 139.46875 L 282.917969 139.46875 L 282.917969 107.964844 M 215.949219 143.945312 Z M 287.933594 89.976562 Z M 287.933594 89.976562 " transform="matrix(1,0,0,-1,0,144)"/>
<path style=" stroke:none;fill-rule:evenodd;fill:rgb(0%,0%,0%);fill-opacity:1;" d="M 226.578125 24.050781 L 226.578125 14.023438 L 227.910156 14.023438 L 227.910156 22.859375 L 232.839844 22.859375 L 232.839844 24.050781 "/>
<path style=" stroke:none;fill-rule:evenodd;fill:rgb(0%,0%,0%);fill-opacity:1;" d="M 234.257812 14.023438 L 235.476562 14.023438 L 235.476562 15.4375 L 234.257812 15.4375 Z M 234.257812 16.796875 L 235.476562 16.796875 L 235.476562 24.050781 L 234.257812 24.050781 Z M 234.257812 16.796875 "/>
<path style=" stroke:none;fill-rule:evenodd;fill:rgb(0%,0%,0%);fill-opacity:1;" d="M 238.507812 24.050781 L 237.347656 24.050781 L 237.347656 14.023438 L 238.59375 14.023438 L 238.59375 17.621094 C 239.105469 16.96875 239.757812 16.628906 240.578125 16.628906 C 241.03125 16.628906 241.457031 16.714844 241.855469 16.910156 C 242.25 17.082031 242.5625 17.335938 242.816406 17.648438 C 243.070312 17.988281 243.300781 18.386719 243.441406 18.839844 C 243.582031 19.289062 243.640625 19.800781 243.640625 20.3125 C 243.640625 21.558594 243.355469 22.519531 242.730469 23.199219 C 242.109375 23.882812 241.371094 24.222656 240.523438 24.222656 C 239.671875 24.222656 238.992188 23.851562 238.507812 23.144531 Z M 238.480469 20.367188 C 238.480469 21.246094 238.59375 21.867188 238.851562 22.265625 C 239.21875 22.890625 239.757812 23.199219 240.40625 23.199219 C 240.945312 23.199219 241.429688 22.972656 241.796875 22.492188 C 242.195312 22.039062 242.390625 21.332031 242.390625 20.425781 C 242.390625 19.460938 242.195312 18.78125 241.824219 18.328125 C 241.457031 17.875 241.003906 17.648438 240.464844 17.648438 C 239.925781 17.648438 239.472656 17.875 239.074219 18.328125 C 238.679688 18.808594 238.480469 19.488281 238.480469 20.367188 "/>
<path style=" stroke:none;fill-rule:evenodd;fill:rgb(0%,0%,0%);fill-opacity:1;" d="M 245.140625 24.050781 L 245.140625 16.796875 L 246.246094 16.796875 L 246.246094 17.902344 C 246.53125 17.363281 246.785156 17.054688 247.039062 16.882812 C 247.265625 16.714844 247.550781 16.628906 247.832031 16.628906 C 248.230469 16.628906 248.65625 16.769531 249.078125 17.023438 L 248.65625 18.15625 C 248.371094 17.988281 248.058594 17.902344 247.746094 17.902344 C 247.492188 17.902344 247.238281 17.988281 247.039062 18.128906 C 246.8125 18.300781 246.671875 18.527344 246.585938 18.808594 C 246.445312 19.261719 246.359375 19.746094 246.359375 20.253906 L 246.359375 24.050781 "/>
<path style=" stroke:none;fill-rule:evenodd;fill:rgb(0%,0%,0%);fill-opacity:1;" d="M 254.550781 23.144531 C 254.097656 23.539062 253.644531 23.824219 253.21875 23.964844 C 252.792969 24.136719 252.339844 24.222656 251.859375 24.222656 C 251.0625 24.222656 250.46875 24.023438 250.042969 23.625 C 249.589844 23.230469 249.390625 22.746094 249.390625 22.125 C 249.390625 21.785156 249.476562 21.445312 249.617188 21.160156 C 249.789062 20.878906 250.015625 20.621094 250.269531 20.453125 C 250.527344 20.28125 250.835938 20.140625 251.148438 20.054688 C 251.402344 20 251.742188 19.914062 252.253906 19.859375 C 253.246094 19.746094 253.984375 19.601562 254.4375 19.433594 C 254.4375 19.261719 254.4375 19.179688 254.4375 19.121094 C 254.4375 18.609375 254.324219 18.269531 254.097656 18.074219 C 253.785156 17.789062 253.304688 17.648438 252.707031 17.648438 C 252.113281 17.648438 251.6875 17.761719 251.402344 17.960938 C 251.148438 18.15625 250.921875 18.527344 250.808594 19.035156 L 249.589844 18.867188 C 249.703125 18.355469 249.902344 17.933594 250.128906 17.621094 C 250.382812 17.308594 250.753906 17.054688 251.234375 16.882812 C 251.6875 16.714844 252.253906 16.628906 252.878906 16.628906 C 253.5 16.628906 254.011719 16.714844 254.378906 16.855469 C 254.777344 16.996094 255.058594 17.167969 255.230469 17.394531 C 255.429688 17.621094 255.542969 17.902344 255.628906 18.242188 C 255.65625 18.441406 255.683594 18.808594 255.683594 19.375 L 255.683594 21.019531 C 255.683594 22.152344 255.710938 22.890625 255.769531 23.171875 C 255.824219 23.484375 255.910156 23.765625 256.078125 24.050781 L 254.777344 24.050781 C 254.664062 23.796875 254.578125 23.484375 254.550781 23.144531 Z M 254.4375 20.394531 C 253.984375 20.59375 253.332031 20.734375 252.425781 20.878906 C 251.914062 20.933594 251.574219 21.019531 251.347656 21.132812 C 251.148438 21.21875 250.980469 21.332031 250.867188 21.527344 C 250.753906 21.699219 250.695312 21.898438 250.695312 22.097656 C 250.695312 22.4375 250.835938 22.691406 251.0625 22.917969 C 251.320312 23.144531 251.6875 23.257812 252.167969 23.257812 C 252.652344 23.257812 253.046875 23.144531 253.414062 22.945312 C 253.785156 22.71875 254.066406 22.4375 254.238281 22.097656 C 254.378906 21.8125 254.4375 21.386719 254.4375 20.847656 "/>
<path style=" stroke:none;fill-rule:evenodd;fill:rgb(0%,0%,0%);fill-opacity:1;" d="M 257.582031 24.050781 L 257.582031 16.796875 L 258.6875 16.796875 L 258.6875 17.902344 C 258.972656 17.363281 259.226562 17.054688 259.480469 16.882812 C 259.707031 16.714844 259.992188 16.628906 260.273438 16.628906 C 260.671875 16.628906 261.097656 16.769531 261.523438 17.023438 L 261.097656 18.15625 C 260.8125 17.988281 260.5 17.902344 260.191406 17.902344 C 259.933594 17.902344 259.679688 17.988281 259.480469 18.128906 C 259.253906 18.300781 259.113281 18.527344 259.027344 18.808594 C 258.886719 19.261719 258.800781 19.746094 258.800781 20.253906 L 258.800781 24.050781 "/>
<path style=" stroke:none;fill-rule:evenodd;fill:rgb(0%,0%,0%);fill-opacity:1;" d="M 262.203125 26.855469 L 262.058594 25.695312 C 262.316406 25.75 262.570312 25.808594 262.769531 25.808594 C 263.023438 25.808594 263.25 25.75 263.421875 25.664062 C 263.589844 25.582031 263.703125 25.4375 263.816406 25.269531 C 263.902344 25.15625 264.015625 24.84375 264.183594 24.363281 C 264.214844 24.304688 264.242188 24.191406 264.300781 24.050781 L 261.550781 16.796875 L 262.882812 16.796875 L 264.382812 20.992188 C 264.582031 21.527344 264.753906 22.097656 264.921875 22.691406 C 265.0625 22.125 265.234375 21.558594 265.402344 21.019531 L 266.964844 16.796875 L 268.210938 16.796875 L 265.433594 24.164062 C 265.148438 24.957031 264.921875 25.523438 264.753906 25.808594 C 264.527344 26.230469 264.269531 26.515625 263.988281 26.714844 C 263.703125 26.910156 263.363281 26.996094 262.996094 26.996094 C 262.738281 26.996094 262.484375 26.941406 262.203125 26.855469 "/>
<path style=" stroke:none;fill-rule:evenodd;fill:rgb(0%,0%,0%);fill-opacity:1;" d="M 233.378906 39.773438 L 233.378906 29.746094 L 240.125 29.746094 L 240.125 30.933594 L 234.683594 30.933594 L 234.683594 34.050781 L 239.386719 34.050781 L 239.386719 35.214844 L 234.683594 35.214844 L 234.683594 39.773438 "/>
<path style=" stroke:none;fill-rule:evenodd;fill:rgb(0%,0%,0%);fill-opacity:1;" d="M 241.683594 29.746094 L 242.902344 29.746094 L 242.902344 31.160156 L 241.683594 31.160156 Z M 241.683594 32.519531 L 242.902344 32.519531 L 242.902344 39.773438 L 241.683594 39.773438 Z M 241.683594 32.519531 "/>
<path style=" stroke:none;fill-rule:nonzero;fill:rgb(0%,0%,0%);fill-opacity:1;" d="M 244.742188 29.746094 L 245.964844 29.746094 L 245.964844 39.773438 L 244.742188 39.773438 Z M 244.742188 29.746094 "/>
<path style=" stroke:none;fill-rule:evenodd;fill:rgb(0%,0%,0%);fill-opacity:1;" d="M 252.820312 37.449219 L 254.097656 37.59375 C 253.898438 38.328125 253.53125 38.925781 252.964844 39.320312 C 252.425781 39.746094 251.742188 39.945312 250.894531 39.945312 C 249.84375 39.945312 248.996094 39.605469 248.371094 38.953125 C 247.746094 38.300781 247.4375 37.394531 247.4375 36.203125 C 247.4375 34.984375 247.746094 34.050781 248.371094 33.371094 C 249.023438 32.691406 249.816406 32.351562 250.835938 32.351562 C 251.800781 32.351562 252.59375 32.691406 253.21875 33.34375 C 253.8125 33.996094 254.125 34.929688 254.125 36.117188 C 254.125 36.203125 254.125 36.316406 254.125 36.460938 L 248.710938 36.460938 C 248.769531 37.253906 248.996094 37.875 249.390625 38.300781 C 249.789062 38.726562 250.300781 38.925781 250.894531 38.925781 C 251.347656 38.925781 251.742188 38.8125 252.054688 38.585938 C 252.367188 38.328125 252.621094 37.960938 252.820312 37.449219 Z M 248.769531 35.4375 L 252.820312 35.4375 C 252.765625 34.84375 252.621094 34.390625 252.367188 34.078125 C 251.972656 33.597656 251.460938 33.371094 250.835938 33.371094 C 250.269531 33.371094 249.816406 33.539062 249.421875 33.9375 C 249.023438 34.304688 248.824219 34.816406 248.769531 35.4375 "/>
<path style=" stroke:none;fill-rule:evenodd;fill:rgb(0%,0%,0%);fill-opacity:1;" d="M 255.144531 37.621094 L 256.363281 37.421875 C 256.449219 37.902344 256.617188 38.273438 256.929688 38.527344 C 257.242188 38.8125 257.695312 38.925781 258.234375 38.925781 C 258.800781 38.925781 259.226562 38.8125 259.507812 38.585938 C 259.765625 38.355469 259.90625 38.074219 259.90625 37.761719 C 259.90625 37.507812 259.792969 37.28125 259.566406 37.109375 C 259.394531 36.996094 258.972656 36.855469 258.289062 36.6875 C 257.382812 36.460938 256.761719 36.261719 256.421875 36.117188 C 256.078125 35.949219 255.796875 35.722656 255.628906 35.410156 C 255.457031 35.128906 255.34375 34.789062 255.34375 34.449219 C 255.34375 34.109375 255.429688 33.824219 255.570312 33.539062 C 255.710938 33.257812 255.9375 33.03125 256.195312 32.859375 C 256.363281 32.71875 256.648438 32.605469 256.960938 32.492188 C 257.300781 32.40625 257.640625 32.351562 258.035156 32.351562 C 258.601562 32.351562 259.085938 32.4375 259.539062 32.605469 C 259.964844 32.777344 260.273438 32.976562 260.472656 33.257812 C 260.699219 33.539062 260.839844 33.910156 260.898438 34.390625 L 259.707031 34.5625 C 259.652344 34.191406 259.480469 33.882812 259.226562 33.683594 C 258.972656 33.457031 258.601562 33.371094 258.121094 33.371094 C 257.554688 33.371094 257.15625 33.457031 256.902344 33.65625 C 256.675781 33.824219 256.535156 34.050781 256.535156 34.304688 C 256.535156 34.449219 256.589844 34.589844 256.703125 34.730469 C 256.789062 34.871094 256.960938 34.984375 257.15625 35.070312 C 257.300781 35.097656 257.640625 35.214844 258.261719 35.382812 C 259.113281 35.609375 259.734375 35.808594 260.074219 35.949219 C 260.414062 36.089844 260.699219 36.316406 260.898438 36.601562 C 261.066406 36.882812 261.179688 37.222656 261.179688 37.648438 C 261.179688 38.046875 261.066406 38.441406 260.8125 38.8125 C 260.585938 39.152344 260.246094 39.433594 259.792969 39.632812 C 259.339844 39.832031 258.828125 39.945312 258.261719 39.945312 C 257.300781 39.945312 256.589844 39.746094 256.109375 39.347656 C 255.597656 38.953125 255.285156 38.386719 255.144531 37.621094 "/>
<path style="fill:none;stroke-width:0.028;stroke-linecap:butt;stroke-linejoin:round;stroke:rgb(0%,0%,0%);stroke-opacity:1;stroke-miterlimit:10;" d="M 251.941406 94.195312 L 251.941406 66.179688 " transform="matrix(1,0,0,-1,0,144)"/>
<path style=" stroke:none;fill-rule:evenodd;fill:rgb(0%,0%,0%);fill-opacity:1;" d="M 251.941406 90.003906 L 256.195312 77.253906 L 247.691406 77.253906 L 251.941406 90.003906 "/>
<path style="fill:none;stroke-width:0.12;stroke-linecap:butt;stroke-linejoin:round;stroke:rgb(0%,0%,0%);stroke-opacity:1;stroke-miterlimit:10;" d="M 431.871094 54.023438 L 503.886719 54.023438 L 503.886719 0.0546875 L 431.871094 0.0546875 Z M 431.871094 54.023438 Z M 431.871094 54.023438 " transform="matrix(1,0,0,-1,0,144)"/>
<path style=" stroke:none;fill-rule:evenodd;fill:rgb(0%,0%,0%);fill-opacity:1;" d="M 440.234375 121.816406 L 440.234375 112.980469 L 436.945312 112.980469 L 436.945312 111.789062 L 444.882812 111.789062 L 444.882812 112.980469 L 441.566406 112.980469 L 441.566406 121.816406 "/>
<path style=" stroke:none;fill-rule:evenodd;fill:rgb(0%,0%,0%);fill-opacity:1;" d="M 445.53125 121.816406 L 445.53125 114.566406 L 446.636719 114.566406 L 446.636719 115.671875 C 446.921875 115.132812 447.175781 114.820312 447.433594 114.648438 C 447.660156 114.480469 447.941406 114.394531 448.226562 114.394531 C 448.621094 114.394531 449.046875 114.535156 449.472656 114.792969 L 449.046875 115.925781 C 448.765625 115.753906 448.453125 115.671875 448.140625 115.671875 C 447.886719 115.671875 447.628906 115.753906 447.433594 115.898438 C 447.203125 116.066406 447.0625 116.292969 446.976562 116.578125 C 446.835938 117.03125 446.753906 117.511719 446.753906 118.019531 L 446.753906 121.816406 "/>
<path style=" stroke:none;fill-rule:evenodd;fill:rgb(0%,0%,0%);fill-opacity:1;" d="M 454.941406 120.910156 C 454.488281 121.308594 454.035156 121.589844 453.609375 121.734375 C 453.183594 121.902344 452.730469 121.988281 452.25 121.988281 C 451.457031 121.988281 450.859375 121.789062 450.4375 121.394531 C 449.984375 120.996094 449.785156 120.515625 449.785156 119.890625 C 449.785156 119.550781 449.867188 119.210938 450.011719 118.929688 C 450.179688 118.644531 450.40625 118.390625 450.664062 118.21875 C 450.917969 118.050781 451.230469 117.90625 451.539062 117.824219 C 451.796875 117.765625 452.136719 117.679688 452.644531 117.625 C 453.636719 117.511719 454.375 117.371094 454.828125 117.199219 C 454.828125 117.03125 454.828125 116.945312 454.828125 116.886719 C 454.828125 116.378906 454.714844 116.039062 454.488281 115.839844 C 454.175781 115.558594 453.695312 115.414062 453.101562 115.414062 C 452.503906 115.414062 452.078125 115.527344 451.796875 115.726562 C 451.539062 115.925781 451.316406 116.292969 451.199219 116.804688 L 449.984375 116.632812 C 450.097656 116.121094 450.292969 115.699219 450.519531 115.386719 C 450.777344 115.074219 451.144531 114.820312 451.625 114.648438 C 452.078125 114.480469 452.644531 114.394531 453.269531 114.394531 C 453.894531 114.394531 454.402344 114.480469 454.773438 114.621094 C 455.167969 114.761719 455.453125 114.933594 455.621094 115.160156 C 455.820312 115.386719 455.933594 115.671875 456.019531 116.011719 C 456.046875 116.207031 456.074219 116.578125 456.074219 117.144531 L 456.074219 118.785156 C 456.074219 119.921875 456.105469 120.65625 456.160156 120.9375 C 456.21875 121.25 456.300781 121.535156 456.472656 121.816406 L 455.167969 121.816406 C 455.054688 121.5625 454.96875 121.25 454.941406 120.910156 Z M 454.828125 118.164062 C 454.375 118.359375 453.722656 118.503906 452.816406 118.644531 C 452.304688 118.699219 451.964844 118.785156 451.738281 118.898438 C 451.539062 118.984375 451.371094 119.097656 451.257812 119.296875 C 451.144531 119.464844 451.089844 119.664062 451.089844 119.863281 C 451.089844 120.203125 451.230469 120.457031 451.457031 120.683594 C 451.710938 120.910156 452.078125 121.023438 452.5625 121.023438 C 453.042969 121.023438 453.441406 120.910156 453.808594 120.714844 C 454.175781 120.484375 454.460938 120.203125 454.628906 119.863281 C 454.773438 119.578125 454.828125 119.15625 454.828125 118.617188 "/>
<path style=" stroke:none;fill-rule:evenodd;fill:rgb(0%,0%,0%);fill-opacity:1;" d="M 458.003906 121.816406 L 458.003906 114.566406 L 459.109375 114.566406 L 459.109375 115.585938 C 459.617188 114.792969 460.410156 114.394531 461.402344 114.394531 C 461.855469 114.394531 462.253906 114.480469 462.621094 114.621094 C 462.992188 114.792969 463.246094 114.988281 463.445312 115.246094 C 463.613281 115.5 463.757812 115.8125 463.8125 116.152344 C 463.867188 116.378906 463.898438 116.773438 463.898438 117.339844 L 463.898438 121.816406 L 462.648438 121.816406 L 462.648438 117.398438 C 462.648438 116.886719 462.621094 116.519531 462.507812 116.265625 C 462.425781 116.039062 462.253906 115.839844 462 115.699219 C 461.773438 115.527344 461.488281 115.472656 461.148438 115.472656 C 460.636719 115.472656 460.183594 115.640625 459.789062 115.953125 C 459.421875 116.292969 459.222656 116.917969 459.222656 117.851562 L 459.222656 121.816406 "/>
<path style=" stroke:none;fill-rule:evenodd;fill:rgb(0%,0%,0%);fill-opacity:1;" d="M 465.285156 119.664062 L 466.503906 119.464844 C 466.589844 119.949219 466.761719 120.316406 467.070312 120.570312 C 467.382812 120.855469 467.835938 120.96875 468.375 120.96875 C 468.941406 120.96875 469.367188 120.855469 469.648438 120.628906 C 469.90625 120.402344 470.046875 120.117188 470.046875 119.804688 C 470.046875 119.550781 469.933594 119.324219 469.707031 119.15625 C 469.535156 119.039062 469.113281 118.898438 468.433594 118.730469 C 467.523438 118.503906 466.902344 118.304688 466.5625 118.164062 C 466.222656 117.992188 465.9375 117.765625 465.769531 117.453125 C 465.597656 117.171875 465.484375 116.832031 465.484375 116.492188 C 465.484375 116.152344 465.570312 115.867188 465.710938 115.585938 C 465.851562 115.300781 466.078125 115.074219 466.335938 114.90625 C 466.503906 114.761719 466.789062 114.648438 467.101562 114.535156 C 467.441406 114.453125 467.78125 114.394531 468.175781 114.394531 C 468.742188 114.394531 469.226562 114.480469 469.679688 114.648438 C 470.105469 114.820312 470.414062 115.019531 470.613281 115.300781 C 470.839844 115.585938 470.980469 115.953125 471.039062 116.433594 L 469.847656 116.605469 C 469.792969 116.238281 469.621094 115.925781 469.367188 115.726562 C 469.113281 115.5 468.742188 115.414062 468.261719 115.414062 C 467.695312 115.414062 467.296875 115.5 467.042969 115.699219 C 466.816406 115.867188 466.675781 116.09375 466.675781 116.351562 C 466.675781 116.492188 466.730469 116.632812 466.84375 116.773438 C 466.929688 116.917969 467.101562 117.03125 467.296875 117.113281 C 467.441406 117.144531 467.78125 117.257812 468.402344 117.425781 C 469.253906 117.652344 469.878906 117.851562 470.21875 117.992188 C 470.558594 118.136719 470.839844 118.359375 471.039062 118.644531 C 471.210938 118.929688 471.324219 119.269531 471.324219 119.691406 C 471.324219 120.089844 471.210938 120.484375 470.953125 120.855469 C 470.726562 121.195312 470.386719 121.476562 469.933594 121.675781 C 469.480469 121.875 468.96875 121.988281 468.402344 121.988281 C 467.441406 121.988281 466.730469 121.789062 466.25 121.394531 C 465.738281 120.996094 465.429688 120.429688 465.285156 119.664062 "/>
<path style=" stroke:none;fill-rule:nonzero;fill:rgb(0%,0%,0%);fill-opacity:1;" d="M 472.769531 111.789062 L 473.988281 111.789062 L 473.988281 121.816406 L 472.769531 121.816406 Z M 472.769531 111.789062 "/>
<path style=" stroke:none;fill-rule:evenodd;fill:rgb(0%,0%,0%);fill-opacity:1;" d="M 480.644531 120.910156 C 480.191406 121.308594 479.738281 121.589844 479.3125 121.734375 C 478.890625 121.902344 478.4375 121.988281 477.953125 121.988281 C 477.160156 121.988281 476.566406 121.789062 476.140625 121.394531 C 475.6875 120.996094 475.488281 120.515625 475.488281 119.890625 C 475.488281 119.550781 475.574219 119.210938 475.714844 118.929688 C 475.886719 118.644531 476.113281 118.390625 476.367188 118.21875 C 476.621094 118.050781 476.933594 117.90625 477.246094 117.824219 C 477.5 117.765625 477.839844 117.679688 478.351562 117.625 C 479.34375 117.511719 480.078125 117.371094 480.53125 117.199219 C 480.53125 117.03125 480.53125 116.945312 480.53125 116.886719 C 480.53125 116.378906 480.421875 116.039062 480.191406 115.839844 C 479.882812 115.558594 479.398438 115.414062 478.804688 115.414062 C 478.210938 115.414062 477.785156 115.527344 477.5 115.726562 C 477.246094 115.925781 477.019531 116.292969 476.90625 116.804688 L 475.6875 116.632812 C 475.800781 116.121094 476 115.699219 476.226562 115.386719 C 476.480469 115.074219 476.847656 114.820312 477.332031 114.648438 C 477.785156 114.480469 478.351562 114.394531 478.972656 114.394531 C 479.597656 114.394531 480.109375 114.480469 480.476562 114.621094 C 480.871094 114.761719 481.15625 114.933594 481.328125 115.160156 C 481.523438 115.386719 481.636719 115.671875 481.722656 116.011719 C 481.753906 116.207031 481.78125 116.578125 481.78125 117.144531 L 481.78125 118.785156 C 481.78125 119.921875 481.808594 120.65625 481.863281 120.9375 C 481.921875 121.25 482.007812 121.535156 482.175781 121.816406 L 480.871094 121.816406 C 480.761719 121.5625 480.675781 121.25 480.644531 120.910156 Z M 480.53125 118.164062 C 480.078125 118.359375 479.429688 118.503906 478.519531 118.644531 C 478.011719 118.699219 477.671875 118.785156 477.445312 118.898438 C 477.246094 118.984375 477.074219 119.097656 476.960938 119.296875 C 476.847656 119.464844 476.792969 119.664062 476.792969 119.863281 C 476.792969 120.203125 476.933594 120.457031 477.160156 120.683594 C 477.414062 120.910156 477.785156 121.023438 478.265625 121.023438 C 478.746094 121.023438 479.144531 120.910156 479.511719 120.714844 C 479.882812 120.484375 480.164062 120.203125 480.335938 119.863281 C 480.476562 119.578125 480.53125 119.15625 480.53125 118.617188 "/>
<path style=" stroke:none;fill-rule:evenodd;fill:rgb(0%,0%,0%);fill-opacity:1;" d="M 486.34375 120.714844 L 486.539062 121.816406 C 486.171875 121.875 485.859375 121.902344 485.605469 121.902344 C 485.152344 121.902344 484.8125 121.847656 484.558594 121.703125 C 484.300781 121.5625 484.132812 121.363281 484.046875 121.136719 C 483.933594 120.910156 483.90625 120.429688 483.90625 119.691406 L 483.90625 115.527344 L 483 115.527344 L 483 114.566406 L 483.90625 114.566406 L 483.90625 112.753906 L 485.125 112.015625 L 485.125 114.566406 L 486.34375 114.566406 L 486.34375 115.527344 L 485.125 115.527344 L 485.125 119.75 C 485.125 120.117188 485.125 120.34375 485.179688 120.429688 C 485.238281 120.542969 485.292969 120.628906 485.378906 120.683594 C 485.492188 120.742188 485.632812 120.769531 485.804688 120.769531 C 485.945312 120.769531 486.117188 120.742188 486.34375 120.714844 "/>
<path style=" stroke:none;fill-rule:evenodd;fill:rgb(0%,0%,0%);fill-opacity:1;" d="M 487.109375 118.191406 C 487.109375 116.832031 487.503906 115.839844 488.242188 115.21875 C 488.863281 114.679688 489.628906 114.394531 490.535156 114.394531 C 491.527344 114.394531 492.351562 114.734375 492.972656 115.386719 C 493.597656 116.039062 493.910156 116.945312 493.910156 118.078125 C 493.910156 119.011719 493.769531 119.75 493.511719 120.289062 C 493.230469 120.824219 492.804688 121.25 492.265625 121.535156 C 491.757812 121.847656 491.160156 121.988281 490.535156 121.988281 C 489.515625 121.988281 488.695312 121.648438 488.070312 120.996094 C 487.421875 120.34375 487.109375 119.410156 487.109375 118.191406 Z M 488.382812 118.191406 C 488.382812 119.125 488.582031 119.804688 488.976562 120.289062 C 489.402344 120.742188 489.914062 120.96875 490.535156 120.96875 C 491.132812 120.96875 491.640625 120.742188 492.039062 120.257812 C 492.464844 119.804688 492.664062 119.097656 492.664062 118.136719 C 492.664062 117.257812 492.464844 116.578125 492.039062 116.09375 C 491.640625 115.640625 491.132812 115.414062 490.535156 115.414062 C 489.914062 115.414062 489.402344 115.640625 488.976562 116.09375 C 488.582031 116.578125 488.382812 117.257812 488.382812 118.191406 "/>
<path style=" stroke:none;fill-rule:evenodd;fill:rgb(0%,0%,0%);fill-opacity:1;" d="M 495.328125 121.816406 L 495.328125 114.566406 L 496.433594 114.566406 L 496.433594 115.671875 C 496.714844 115.132812 496.96875 114.820312 497.226562 114.648438 C 497.453125 114.480469 497.734375 114.394531 498.019531 114.394531 C 498.414062 114.394531 498.839844 114.535156 499.265625 114.792969 L 498.839844 115.925781 C 498.558594 115.753906 498.246094 115.671875 497.933594 115.671875 C 497.679688 115.671875 497.425781 115.753906 497.226562 115.898438 C 497 116.066406 496.855469 116.292969 496.773438 116.578125 C 496.628906 117.03125 496.546875 117.511719 496.546875 118.019531 L 496.546875 121.816406 "/>
<path style="fill:none;stroke-width:0.12;stroke-linecap:butt;stroke-linejoin:round;stroke:rgb(0%,0%,0%);stroke-opacity:1;stroke-miterlimit:10;" d="M 539.847656 54.023438 L 647.824219 54.023438 L 647.824219 10.679688 C 605.058594 11.019531 606.503906 2.152344 567.933594 0.0585938 C 554.132812 1.332031 549.089844 2.324219 539.847656 3.769531 Z M 539.847656 54.023438 Z M 539.847656 54.023438 " transform="matrix(1,0,0,-1,0,144)"/>
<path style=" stroke:none;fill-rule:evenodd;fill:rgb(0%,0%,0%);fill-opacity:1;" d="M 561.132812 100.796875 L 561.132812 90.769531 L 568.386719 90.769531 L 568.386719 91.957031 L 562.464844 91.957031 L 562.464844 95.015625 L 567.988281 95.015625 L 567.988281 96.207031 L 562.464844 96.207031 L 562.464844 99.605469 L 568.613281 99.605469 L 568.613281 100.796875 "/>
<path style=" stroke:none;fill-rule:evenodd;fill:rgb(0%,0%,0%);fill-opacity:1;" d="M 570.285156 100.796875 L 570.285156 93.542969 L 571.363281 93.542969 L 571.363281 94.5625 C 571.589844 94.195312 571.902344 93.914062 572.269531 93.714844 C 572.664062 93.488281 573.089844 93.375 573.574219 93.375 C 574.113281 93.375 574.566406 93.488281 574.90625 93.714844 C 575.246094 93.941406 575.472656 94.253906 575.613281 94.648438 C 576.210938 93.800781 576.945312 93.375 577.882812 93.375 C 578.589844 93.375 579.128906 93.574219 579.523438 93.96875 C 579.921875 94.367188 580.121094 94.988281 580.121094 95.8125 L 580.121094 100.796875 L 578.871094 100.796875 L 578.871094 96.234375 C 578.871094 95.726562 578.84375 95.386719 578.757812 95.160156 C 578.675781 94.933594 578.53125 94.761719 578.335938 94.648438 C 578.136719 94.507812 577.882812 94.449219 577.597656 94.449219 C 577.085938 94.449219 576.660156 94.621094 576.320312 94.960938 C 575.980469 95.300781 575.8125 95.839844 575.8125 96.574219 L 575.8125 100.796875 L 574.59375 100.796875 L 574.59375 96.09375 C 574.59375 95.527344 574.480469 95.132812 574.28125 94.847656 C 574.082031 94.5625 573.773438 94.449219 573.289062 94.449219 C 572.949219 94.449219 572.636719 94.535156 572.355469 94.707031 C 572.042969 94.902344 571.84375 95.160156 571.703125 95.527344 C 571.5625 95.867188 571.503906 96.378906 571.503906 97.027344 L 571.503906 100.796875 "/>
<path style=" stroke:none;fill-rule:evenodd;fill:rgb(0%,0%,0%);fill-opacity:1;" d="M 583.097656 100.796875 L 581.933594 100.796875 L 581.933594 90.769531 L 583.179688 90.769531 L 583.179688 94.367188 C 583.691406 93.714844 584.34375 93.375 585.164062 93.375 C 585.617188 93.375 586.042969 93.460938 586.441406 93.65625 C 586.835938 93.828125 587.148438 94.082031 587.402344 94.394531 C 587.65625 94.734375 587.886719 95.132812 588.027344 95.585938 C 588.167969 96.035156 588.226562 96.546875 588.226562 97.058594 C 588.226562 98.304688 587.941406 99.265625 587.316406 99.945312 C 586.695312 100.628906 585.957031 100.96875 585.109375 100.96875 C 584.257812 100.96875 583.578125 100.597656 583.097656 99.890625 Z M 583.066406 97.113281 C 583.066406 97.992188 583.179688 98.613281 583.4375 99.011719 C 583.804688 99.636719 584.34375 99.945312 584.992188 99.945312 C 585.53125 99.945312 586.015625 99.71875 586.382812 99.238281 C 586.78125 98.785156 586.976562 98.078125 586.976562 97.171875 C 586.976562 96.207031 586.78125 95.527344 586.410156 95.074219 C 586.042969 94.621094 585.589844 94.394531 585.050781 94.394531 C 584.511719 94.394531 584.058594 94.621094 583.660156 95.074219 C 583.265625 95.554688 583.066406 96.234375 583.066406 97.113281 "/>
<path style=" stroke:none;fill-rule:evenodd;fill:rgb(0%,0%,0%);fill-opacity:1;" d="M 594.714844 98.472656 L 595.988281 98.613281 C 595.792969 99.351562 595.421875 99.945312 594.855469 100.34375 C 594.316406 100.769531 593.636719 100.96875 592.789062 100.96875 C 591.738281 100.96875 590.890625 100.628906 590.265625 99.976562 C 589.640625 99.324219 589.328125 98.417969 589.328125 97.226562 C 589.328125 96.007812 589.640625 95.074219 590.265625 94.394531 C 590.917969 93.714844 591.710938 93.375 592.730469 93.375 C 593.695312 93.375 594.488281 93.714844 595.113281 94.367188 C 595.707031 95.015625 596.019531 95.953125 596.019531 97.140625 C 596.019531 97.226562 596.019531 97.339844 596.019531 97.480469 L 590.605469 97.480469 C 590.660156 98.273438 590.890625 98.898438 591.285156 99.324219 C 591.683594 99.75 592.191406 99.945312 592.789062 99.945312 C 593.242188 99.945312 593.636719 99.835938 593.949219 99.605469 C 594.261719 99.351562 594.515625 98.984375 594.714844 98.472656 Z M 590.660156 96.460938 L 594.714844 96.460938 C 594.65625 95.867188 594.515625 95.414062 594.261719 95.101562 C 593.863281 94.621094 593.355469 94.394531 592.730469 94.394531 C 592.164062 94.394531 591.710938 94.5625 591.3125 94.960938 C 590.917969 95.328125 590.71875 95.839844 590.660156 96.460938 "/>
<path style=" stroke:none;fill-rule:evenodd;fill:rgb(0%,0%,0%);fill-opacity:1;" d="M 602.253906 100.796875 L 602.253906 99.890625 C 601.800781 100.597656 601.121094 100.96875 600.214844 100.96875 C 599.644531 100.96875 599.109375 100.796875 598.625 100.484375 C 598.144531 100.171875 597.746094 99.71875 597.492188 99.152344 C 597.238281 98.585938 597.09375 97.90625 597.09375 97.171875 C 597.09375 96.460938 597.210938 95.78125 597.464844 95.214844 C 597.691406 94.621094 598.058594 94.167969 598.539062 93.855469 C 599.023438 93.542969 599.5625 93.375 600.15625 93.375 C 600.609375 93.375 600.976562 93.460938 601.316406 93.65625 C 601.65625 93.828125 601.941406 94.082031 602.167969 94.367188 L 602.167969 90.769531 L 603.386719 90.769531 L 603.386719 100.796875 Z M 598.371094 97.171875 C 598.371094 98.105469 598.539062 98.785156 598.9375 99.265625 C 599.335938 99.71875 599.789062 99.945312 600.324219 99.945312 C 600.863281 99.945312 601.316406 99.71875 601.714844 99.296875 C 602.082031 98.84375 602.253906 98.191406 602.253906 97.285156 C 602.253906 96.292969 602.082031 95.554688 601.6875 95.101562 C 601.316406 94.621094 600.835938 94.394531 600.269531 94.394531 C 599.730469 94.394531 599.277344 94.621094 598.910156 95.074219 C 598.539062 95.5 598.371094 96.207031 598.371094 97.171875 "/>
<path style=" stroke:none;fill-rule:evenodd;fill:rgb(0%,0%,0%);fill-opacity:1;" d="M 610.074219 100.796875 L 610.074219 99.890625 C 609.621094 100.597656 608.941406 100.96875 608.035156 100.96875 C 607.46875 100.96875 606.929688 100.796875 606.449219 100.484375 C 605.964844 100.171875 605.570312 99.71875 605.3125 99.152344 C 605.058594 98.585938 604.917969 97.90625 604.917969 97.171875 C 604.917969 96.460938 605.03125 95.78125 605.285156 95.214844 C 605.511719 94.621094 605.882812 94.167969 606.363281 93.855469 C 606.84375 93.542969 607.382812 93.375 607.976562 93.375 C 608.429688 93.375 608.800781 93.460938 609.140625 93.65625 C 609.480469 93.828125 609.761719 94.082031 609.988281 94.367188 L 609.988281 90.769531 L 611.210938 90.769531 L 611.210938 100.796875 Z M 606.191406 97.171875 C 606.191406 98.105469 606.363281 98.785156 606.757812 99.265625 C 607.15625 99.71875 607.609375 99.945312 608.148438 99.945312 C 608.6875 99.945312 609.140625 99.71875 609.535156 99.296875 C 609.90625 98.84375 610.074219 98.191406 610.074219 97.285156 C 610.074219 96.292969 609.90625 95.554688 609.507812 95.101562 C 609.140625 94.621094 608.65625 94.394531 608.089844 94.394531 C 607.554688 94.394531 607.097656 94.621094 606.730469 95.074219 C 606.363281 95.5 606.191406 96.207031 606.191406 97.171875 "/>
<path style=" stroke:none;fill-rule:evenodd;fill:rgb(0%,0%,0%);fill-opacity:1;" d="M 618.125 98.472656 L 619.398438 98.613281 C 619.199219 99.351562 618.832031 99.945312 618.265625 100.34375 C 617.726562 100.769531 617.046875 100.96875 616.195312 100.96875 C 615.148438 100.96875 614.296875 100.628906 613.675781 99.976562 C 613.050781 99.324219 612.738281 98.417969 612.738281 97.226562 C 612.738281 96.007812 613.050781 95.074219 613.675781 94.394531 C 614.324219 93.714844 615.121094 93.375 616.140625 93.375 C 617.105469 93.375 617.898438 93.714844 618.519531 94.367188 C 619.117188 95.015625 619.425781 95.953125 619.425781 97.140625 C 619.425781 97.226562 619.425781 97.339844 619.425781 97.480469 L 614.015625 97.480469 C 614.070312 98.273438 614.296875 98.898438 614.695312 99.324219 C 615.089844 99.75 615.601562 99.945312 616.195312 99.945312 C 616.648438 99.945312 617.046875 99.835938 617.359375 99.605469 C 617.671875 99.351562 617.925781 98.984375 618.125 98.472656 Z M 614.070312 96.460938 L 618.125 96.460938 C 618.066406 95.867188 617.925781 95.414062 617.671875 95.101562 C 617.273438 94.621094 616.761719 94.394531 616.140625 94.394531 C 615.574219 94.394531 615.121094 94.5625 614.722656 94.960938 C 614.324219 95.328125 614.128906 95.839844 614.070312 96.460938 "/>
<path style=" stroke:none;fill-rule:evenodd;fill:rgb(0%,0%,0%);fill-opacity:1;" d="M 625.660156 100.796875 L 625.660156 99.890625 C 625.210938 100.597656 624.527344 100.96875 623.621094 100.96875 C 623.054688 100.96875 622.515625 100.796875 622.035156 100.484375 C 621.554688 100.171875 621.15625 99.71875 620.902344 99.152344 C 620.644531 98.585938 620.503906 97.90625 620.503906 97.171875 C 620.503906 96.460938 620.617188 95.78125 620.871094 95.214844 C 621.097656 94.621094 621.46875 94.167969 621.949219 93.855469 C 622.429688 93.542969 622.96875 93.375 623.566406 93.375 C 624.019531 93.375 624.386719 93.460938 624.726562 93.65625 C 625.066406 93.828125 625.351562 94.082031 625.578125 94.367188 L 625.578125 90.769531 L 626.796875 90.769531 L 626.796875 100.796875 Z M 621.78125 97.171875 C 621.78125 98.105469 621.949219 98.785156 622.347656 99.265625 C 622.742188 99.71875 623.195312 99.945312 623.734375 99.945312 C 624.273438 99.945312 624.726562 99.71875 625.125 99.296875 C 625.492188 98.84375 625.660156 98.191406 625.660156 97.285156 C 625.660156 96.292969 625.492188 95.554688 625.09375 95.101562 C 624.726562 94.621094 624.246094 94.394531 623.679688 94.394531 C 623.140625 94.394531 622.6875 94.621094 622.316406 95.074219 C 621.949219 95.5 621.78125 96.207031 621.78125 97.171875 "/>
<path style=" stroke:none;fill-rule:evenodd;fill:rgb(0%,0%,0%);fill-opacity:1;" d="M 552.460938 116.519531 L 552.460938 106.492188 L 556.230469 106.492188 C 556.992188 106.492188 557.617188 106.605469 558.070312 106.804688 C 558.523438 107 558.894531 107.3125 559.148438 107.738281 C 559.402344 108.164062 559.546875 108.617188 559.546875 109.070312 C 559.546875 109.492188 559.433594 109.890625 559.203125 110.285156 C 558.976562 110.65625 558.609375 110.96875 558.15625 111.195312 C 558.75 111.363281 559.203125 111.675781 559.546875 112.101562 C 559.855469 112.523438 560.027344 113.035156 560.027344 113.601562 C 560.027344 114.085938 559.941406 114.507812 559.742188 114.933594 C 559.546875 115.328125 559.289062 115.640625 559.007812 115.867188 C 558.695312 116.066406 558.355469 116.238281 557.902344 116.351562 C 557.476562 116.464844 556.9375 116.519531 556.285156 116.519531 Z M 553.792969 110.710938 L 555.945312 110.710938 C 556.539062 110.710938 556.964844 110.683594 557.222656 110.597656 C 557.5625 110.484375 557.816406 110.316406 557.984375 110.089844 C 558.15625 109.863281 558.242188 109.578125 558.242188 109.210938 C 558.242188 108.898438 558.15625 108.589844 558.015625 108.332031 C 557.84375 108.078125 557.617188 107.90625 557.304688 107.824219 C 557.023438 107.738281 556.511719 107.679688 555.804688 107.679688 L 553.792969 107.679688 Z M 553.792969 115.328125 L 556.285156 115.328125 C 556.710938 115.328125 557.023438 115.328125 557.191406 115.300781 C 557.503906 115.246094 557.761719 115.132812 557.957031 115.019531 C 558.15625 114.878906 558.324219 114.707031 558.46875 114.453125 C 558.582031 114.226562 558.664062 113.941406 558.664062 113.601562 C 558.664062 113.234375 558.554688 112.921875 558.382812 112.640625 C 558.183594 112.355469 557.902344 112.183594 557.5625 112.070312 C 557.25 111.960938 556.738281 111.902344 556.117188 111.902344 L 553.792969 111.902344 "/>
<path style=" stroke:none;fill-rule:evenodd;fill:rgb(0%,0%,0%);fill-opacity:1;" d="M 561.699219 106.492188 L 562.917969 106.492188 L 562.917969 107.90625 L 561.699219 107.90625 Z M 561.699219 109.265625 L 562.917969 109.265625 L 562.917969 116.519531 L 561.699219 116.519531 Z M 561.699219 109.265625 "/>
<path style=" stroke:none;fill-rule:evenodd;fill:rgb(0%,0%,0%);fill-opacity:1;" d="M 564.816406 116.519531 L 564.816406 109.265625 L 565.921875 109.265625 L 565.921875 110.285156 C 566.433594 109.492188 567.226562 109.097656 568.21875 109.097656 C 568.671875 109.097656 569.066406 109.183594 569.4375 109.324219 C 569.804688 109.492188 570.058594 109.691406 570.257812 109.945312 C 570.425781 110.203125 570.570312 110.515625 570.625 110.855469 C 570.683594 111.082031 570.710938 111.476562 570.710938 112.042969 L 570.710938 116.519531 L 569.464844 116.519531 L 569.464844 112.101562 C 569.464844 111.589844 569.4375 111.222656 569.320312 110.96875 C 569.238281 110.742188 569.066406 110.542969 568.8125 110.402344 C 568.585938 110.230469 568.300781 110.175781 567.960938 110.175781 C 567.453125 110.175781 566.996094 110.34375 566.601562 110.65625 C 566.234375 110.996094 566.035156 111.617188 566.035156 112.554688 L 566.035156 116.519531 "/>
<path style=" stroke:none;fill-rule:evenodd;fill:rgb(0%,0%,0%);fill-opacity:1;" d="M 577.3125 115.613281 C 576.859375 116.011719 576.40625 116.292969 575.980469 116.433594 C 575.558594 116.605469 575.105469 116.691406 574.621094 116.691406 C 573.828125 116.691406 573.234375 116.492188 572.808594 116.09375 C 572.355469 115.699219 572.15625 115.21875 572.15625 114.59375 C 572.15625 114.253906 572.242188 113.914062 572.382812 113.628906 C 572.554688 113.347656 572.78125 113.09375 573.035156 112.921875 C 573.289062 112.753906 573.601562 112.609375 573.914062 112.523438 C 574.167969 112.46875 574.507812 112.382812 575.019531 112.328125 C 576.011719 112.214844 576.746094 112.070312 577.199219 111.902344 C 577.199219 111.730469 577.199219 111.648438 577.199219 111.589844 C 577.199219 111.082031 577.085938 110.742188 576.859375 110.542969 C 576.550781 110.257812 576.066406 110.117188 575.472656 110.117188 C 574.878906 110.117188 574.453125 110.230469 574.167969 110.429688 C 573.914062 110.628906 573.6875 110.996094 573.574219 111.507812 L 572.355469 111.335938 C 572.46875 110.824219 572.664062 110.402344 572.894531 110.089844 C 573.148438 109.777344 573.515625 109.523438 573.996094 109.351562 C 574.453125 109.183594 575.019531 109.097656 575.640625 109.097656 C 576.265625 109.097656 576.777344 109.183594 577.144531 109.324219 C 577.539062 109.464844 577.824219 109.636719 577.992188 109.863281 C 578.191406 110.089844 578.304688 110.371094 578.390625 110.710938 C 578.417969 110.910156 578.449219 111.277344 578.449219 111.84375 L 578.449219 113.488281 C 578.449219 114.621094 578.476562 115.359375 578.53125 115.640625 C 578.589844 115.953125 578.675781 116.238281 578.84375 116.519531 L 577.539062 116.519531 C 577.425781 116.265625 577.34375 115.953125 577.3125 115.613281 Z M 577.199219 112.863281 C 576.746094 113.0625 576.097656 113.203125 575.1875 113.347656 C 574.679688 113.402344 574.339844 113.488281 574.113281 113.601562 C 573.914062 113.6875 573.742188 113.800781 573.628906 114 C 573.515625 114.167969 573.460938 114.367188 573.460938 114.566406 C 573.460938 114.90625 573.601562 115.160156 573.828125 115.386719 C 574.082031 115.613281 574.453125 115.726562 574.933594 115.726562 C 575.414062 115.726562 575.8125 115.613281 576.179688 115.414062 C 576.550781 115.1875 576.832031 114.90625 577.003906 114.566406 C 577.144531 114.28125 577.199219 113.855469 577.199219 113.320312 "/>
<path style=" stroke:none;fill-rule:evenodd;fill:rgb(0%,0%,0%);fill-opacity:1;" d="M 580.347656 116.519531 L 580.347656 109.265625 L 581.453125 109.265625 L 581.453125 110.371094 C 581.734375 109.835938 581.988281 109.523438 582.246094 109.351562 C 582.472656 109.183594 582.753906 109.097656 583.039062 109.097656 C 583.4375 109.097656 583.859375 109.238281 584.285156 109.492188 L 583.859375 110.628906 C 583.578125 110.457031 583.265625 110.371094 582.953125 110.371094 C 582.699219 110.371094 582.445312 110.457031 582.246094 110.597656 C 582.019531 110.769531 581.878906 110.996094 581.792969 111.277344 C 581.648438 111.730469 581.566406 112.214844 581.566406 112.722656 L 581.566406 116.519531 "/>
<path style=" stroke:none;fill-rule:evenodd;fill:rgb(0%,0%,0%);fill-opacity:1;" d="M 584.992188 119.324219 L 584.851562 118.164062 C 585.109375 118.21875 585.363281 118.277344 585.5625 118.277344 C 585.816406 118.277344 586.042969 118.21875 586.214844 118.136719 C 586.382812 118.050781 586.496094 117.90625 586.609375 117.738281 C 586.695312 117.625 586.808594 117.3125 586.976562 116.832031 C 587.007812 116.773438 587.035156 116.660156 587.089844 116.519531 L 584.34375 109.265625 L 585.675781 109.265625 L 587.175781 113.460938 C 587.375 114 587.546875 114.566406 587.714844 115.160156 C 587.855469 114.59375 588.027344 114.027344 588.195312 113.488281 L 589.753906 109.265625 L 591.003906 109.265625 L 588.226562 116.632812 C 587.941406 117.425781 587.714844 117.992188 587.546875 118.277344 C 587.316406 118.699219 587.0625 118.984375 586.78125 119.183594 C 586.496094 119.382812 586.15625 119.464844 585.789062 119.464844 C 585.53125 119.464844 585.277344 119.410156 584.992188 119.324219 "/>
<path style=" stroke:none;fill-rule:evenodd;fill:rgb(0%,0%,0%);fill-opacity:1;" d="M 595.394531 112.894531 C 595.394531 111.535156 595.792969 110.542969 596.527344 109.917969 C 597.152344 109.382812 597.917969 109.097656 598.824219 109.097656 C 599.816406 109.097656 600.636719 109.4375 601.261719 110.089844 C 601.886719 110.742188 602.195312 111.648438 602.195312 112.78125 C 602.195312 113.714844 602.054688 114.453125 601.800781 114.988281 C 601.515625 115.527344 601.089844 115.953125 600.554688 116.238281 C 600.042969 116.546875 599.449219 116.691406 598.824219 116.691406 C 597.804688 116.691406 596.980469 116.351562 596.359375 115.699219 C 595.707031 115.046875 595.394531 114.113281 595.394531 112.894531 Z M 596.671875 112.894531 C 596.671875 113.828125 596.867188 114.507812 597.265625 114.988281 C 597.691406 115.441406 598.199219 115.671875 598.824219 115.671875 C 599.417969 115.671875 599.929688 115.441406 600.324219 114.960938 C 600.75 114.507812 600.949219 113.800781 600.949219 112.835938 C 600.949219 111.960938 600.75 111.277344 600.324219 110.796875 C 599.929688 110.34375 599.417969 110.117188 598.824219 110.117188 C 598.199219 110.117188 597.691406 110.34375 597.265625 110.796875 C 596.867188 111.277344 596.671875 111.960938 596.671875 112.894531 "/>
<path style=" stroke:none;fill-rule:evenodd;fill:rgb(0%,0%,0%);fill-opacity:1;" d="M 603.640625 116.519531 L 603.640625 109.265625 L 604.746094 109.265625 L 604.746094 110.371094 C 605.03125 109.835938 605.285156 109.523438 605.539062 109.351562 C 605.765625 109.183594 606.050781 109.097656 606.335938 109.097656 C 606.730469 109.097656 607.15625 109.238281 607.582031 109.492188 L 607.15625 110.628906 C 606.871094 110.457031 606.5625 110.371094 606.25 110.371094 C 605.992188 110.371094 605.738281 110.457031 605.539062 110.597656 C 605.3125 110.769531 605.171875 110.996094 605.085938 111.277344 C 604.945312 111.730469 604.859375 112.214844 604.859375 112.722656 L 604.859375 116.519531 "/>
<path style=" stroke:none;fill-rule:evenodd;fill:rgb(0%,0%,0%);fill-opacity:1;" d="M 612.371094 116.519531 L 612.371094 106.492188 L 613.675781 106.492188 L 613.675781 110.628906 L 618.890625 110.628906 L 618.890625 106.492188 L 620.222656 106.492188 L 620.222656 116.519531 L 618.890625 116.519531 L 618.890625 111.789062 L 613.675781 111.789062 L 613.675781 116.519531 "/>
<path style=" stroke:none;fill-rule:evenodd;fill:rgb(0%,0%,0%);fill-opacity:1;" d="M 627.25 114.195312 L 628.523438 114.339844 C 628.324219 115.074219 627.957031 115.671875 627.390625 116.066406 C 626.851562 116.492188 626.171875 116.691406 625.320312 116.691406 C 624.273438 116.691406 623.421875 116.351562 622.800781 115.699219 C 622.175781 115.046875 621.863281 114.140625 621.863281 112.949219 C 621.863281 111.730469 622.175781 110.796875 622.800781 110.117188 C 623.453125 109.4375 624.246094 109.097656 625.265625 109.097656 C 626.230469 109.097656 627.023438 109.4375 627.644531 110.089844 C 628.242188 110.742188 628.554688 111.675781 628.554688 112.863281 C 628.554688 112.949219 628.554688 113.0625 628.554688 113.203125 L 623.140625 113.203125 C 623.195312 114 623.421875 114.621094 623.820312 115.046875 C 624.21875 115.472656 624.726562 115.671875 625.320312 115.671875 C 625.777344 115.671875 626.171875 115.558594 626.484375 115.328125 C 626.796875 115.074219 627.050781 114.707031 627.25 114.195312 Z M 623.195312 112.183594 L 627.25 112.183594 C 627.191406 111.589844 627.050781 111.136719 626.796875 110.824219 C 626.398438 110.34375 625.890625 110.117188 625.265625 110.117188 C 624.699219 110.117188 624.246094 110.285156 623.847656 110.683594 C 623.453125 111.050781 623.253906 111.5625 623.195312 112.183594 "/>
<path style=" stroke:none;fill-rule:evenodd;fill:rgb(0%,0%,0%);fill-opacity:1;" d="M 629.261719 116.519531 L 631.898438 112.753906 L 629.460938 109.265625 L 630.988281 109.265625 L 632.09375 110.96875 C 632.320312 111.277344 632.492188 111.5625 632.605469 111.789062 C 632.804688 111.476562 633.003906 111.222656 633.171875 110.96875 L 634.390625 109.265625 L 635.863281 109.265625 L 633.34375 112.667969 L 636.035156 116.519531 L 634.53125 116.519531 L 633.03125 114.253906 L 632.660156 113.660156 L 630.734375 116.519531 "/>
<path style=" stroke:none;fill-rule:evenodd;fill:rgb(0%,0%,0%);fill-opacity:1;" d="M 583.746094 132.242188 L 583.746094 122.214844 L 590.492188 122.214844 L 590.492188 123.402344 L 585.050781 123.402344 L 585.050781 126.519531 L 589.753906 126.519531 L 589.753906 127.683594 L 585.050781 127.683594 L 585.050781 132.242188 "/>
<path style=" stroke:none;fill-rule:evenodd;fill:rgb(0%,0%,0%);fill-opacity:1;" d="M 592.050781 122.214844 L 593.269531 122.214844 L 593.269531 123.628906 L 592.050781 123.628906 Z M 592.050781 124.992188 L 593.269531 124.992188 L 593.269531 132.242188 L 592.050781 132.242188 Z M 592.050781 124.992188 "/>
<path style=" stroke:none;fill-rule:nonzero;fill:rgb(0%,0%,0%);fill-opacity:1;" d="M 595.140625 122.214844 L 596.359375 122.214844 L 596.359375 132.242188 L 595.140625 132.242188 Z M 595.140625 122.214844 "/>
<path style=" stroke:none;fill-rule:evenodd;fill:rgb(0%,0%,0%);fill-opacity:1;" d="M 603.246094 129.921875 L 604.519531 130.0625 C 604.320312 130.796875 603.953125 131.394531 603.386719 131.789062 C 602.847656 132.214844 602.167969 132.414062 601.316406 132.414062 C 600.269531 132.414062 599.417969 132.074219 598.796875 131.421875 C 598.171875 130.769531 597.859375 129.863281 597.859375 128.671875 C 597.859375 127.453125 598.171875 126.519531 598.796875 125.839844 C 599.449219 125.160156 600.242188 124.820312 601.261719 124.820312 C 602.226562 124.820312 603.019531 125.160156 603.640625 125.8125 C 604.238281 126.464844 604.550781 127.398438 604.550781 128.589844 C 604.550781 128.671875 604.550781 128.785156 604.550781 128.929688 L 599.136719 128.929688 C 599.191406 129.722656 599.417969 130.34375 599.816406 130.769531 C 600.214844 131.195312 600.722656 131.394531 601.316406 131.394531 C 601.773438 131.394531 602.167969 131.28125 602.480469 131.054688 C 602.792969 130.796875 603.046875 130.429688 603.246094 129.921875 Z M 599.191406 127.910156 L 603.246094 127.910156 C 603.1875 127.3125 603.046875 126.859375 602.792969 126.550781 C 602.394531 126.066406 601.886719 125.839844 601.261719 125.839844 C 600.695312 125.839844 600.242188 126.011719 599.84375 126.40625 C 599.449219 126.773438 599.25 127.285156 599.191406 127.910156 "/>
<path style="fill:none;stroke-width:0.028;stroke-linecap:butt;stroke-linejoin:round;stroke:rgb(0%,0%,0%);stroke-opacity:1;stroke-miterlimit:10;" d="M 395.910156 26.996094 L 419.714844 26.996094 " transform="matrix(1,0,0,-1,0,144)"/>
<path style=" stroke:none;fill-rule:evenodd;fill:rgb(0%,0%,0%);fill-opacity:1;" d="M 431.871094 116.972656 L 419.121094 112.722656 L 419.121094 121.222656 L 431.871094 116.972656 "/>
<path style="fill:none;stroke-width:0.028;stroke-linecap:butt;stroke-linejoin:round;stroke:rgb(0%,0%,0%);stroke-opacity:1;stroke-miterlimit:10;" d="M 503.855469 26.996094 L 527.660156 26.996094 " transform="matrix(1,0,0,-1,0,144)"/>
<path style=" stroke:none;fill-rule:evenodd;fill:rgb(0%,0%,0%);fill-opacity:1;" d="M 539.847656 116.972656 L 527.097656 112.722656 L 527.097656 121.222656 L 539.847656 116.972656 "/>
</g>
</svg>
