<?xml version="1.0" encoding="utf-8"?>
<!-- Generator: Adobe Illustrator 19.1.0, SVG Export Plug-In . SVG Version: 6.00 Build 0)  -->
<svg version="1.1" xmlns="http://www.w3.org/2000/svg" xmlns:xlink="http://www.w3.org/1999/xlink" x="0px" y="0px"
	 viewBox="0 0 862 332.9" style="enable-background:new 0 0 862 332.9;" xml:space="preserve">
<style type="text/css">
	.st0{fill:#FCF8E3;stroke:#DDDDDD;stroke-miterlimit:10;}
	.st1{fill:none;stroke:#DDDDDD;stroke-miterlimit:10;}
	.st2{fill:none;stroke:#A94442;stroke-width:3;stroke-miterlimit:10;}
	.st3{fill:#44546A;}
	.st4{font-family:'Arial-Black';}
	.st5{font-size:15.4292px;}
	.st6{fill:none;stroke:#727272;stroke-width:3;stroke-miterlimit:10;}
	.st7{font-size:12.8191px;}
	.st8{fill:#FFFFFF;stroke:#727272;stroke-width:3;stroke-miterlimit:10;}
	.st9{fill:#727272;}
</style>
<g id="Layer_2">
	<path class="st0" d="M-0.4,336.5h864.9V0H-1.4v336.6C-1,336.5-0.7,336.5-0.4,336.5z"/>
	<path class="st1" d="M196.2,3.3c-0.1,110.1-0.1,219.1-0.1,329.5"/>
	<path class="st1" d="M163.5,3.3c-2.5,110.1,0.5,219.1-0.2,329.5"/>
	<path class="st1" d="M130.9,3.3c0.1,110.1,0.1,219.1,0.1,329.5"/>
	<path class="st1" d="M98.2,3.3C98,113.4,98,222.4,98.1,332.9"/>
	<path class="st1" d="M65.6,3.3C66,113.4,66,222.4,65.8,332.9"/>
	<path class="st1" d="M32.9,3.3C33,113.4,33,222.4,33,332.9"/>
	<path class="st1" d="M0.3,3.3C0,113.4,0,222.4,0.1,332.9"/>
	<path class="st1" d="M234.6,3.3c0.4,110.1,0.4,219.1,0.2,329.5"/>
	<path class="st1" d="M273.1,3.3c-0.1,110.1-0.1,219.1,0,329.5"/>
	<path class="st1" d="M311.5,3.3c0.5,110.1,0.5,219.1,0.3,329.5"/>
	<path class="st1" d="M350,3.3c0,110.1,0,219.1,0,329.5"/>
	<path class="st1" d="M388.5,3.3c-0.4,110.1-0.4,219.1-0.2,329.5"/>
	<path class="st1" d="M426.9,3.3c0.1,110.1,0.1,219.1,0.1,329.5"/>
	<path class="st1" d="M465.4,3.3c-0.3,110.1-0.3,219.1-0.2,329.5"/>
	<path class="st1" d="M503.8,3.3c0.2,110.1,0.2,219.1,0.1,329.5"/>
	<path class="st1" d="M542.3,3.3c-0.2,110.1-0.2,219.1-0.1,329.5"/>
	<path class="st1" d="M580.7,3.3c0.3,110.1,0.3,219.1,0.2,329.5"/>
	<path class="st1" d="M619.2,3.3c-0.2,110.1-0.2,219.1-0.1,329.5"/>
	<path class="st1" d="M657.6,3.3c0.4,110.1,0.4,219.1,0.2,329.5"/>
	<path class="st1" d="M698.5,3.3c-2.5,110.1,0.5,219.1-0.2,329.5"/>
	<path class="st1" d="M739.4,3.3c-0.4,110.1-0.4,219.1-0.2,329.5"/>
	<path class="st1" d="M780.3,3.3c-0.3,110.1-0.3,219.1-0.2,329.5"/>
	<path class="st1" d="M821.2,3.3c-0.1,110.1-0.1,219.1-0.1,329.5"/>
	<path class="st1" d="M862.1,3.3c0,110.1,0,219.1,0,329.5"/>
	<line class="st1" x1="0" y1="1.2" x2="862.1" y2="1.2"/>
	<line class="st1" x1="0" y1="38.4" x2="862.1" y2="38.4"/>
	<line class="st1" x1="0" y1="75.6" x2="862.1" y2="75.6"/>
	<line class="st1" x1="0" y1="112.7" x2="862.1" y2="112.7"/>
	<line class="st1" x1="0" y1="149.9" x2="862.1" y2="149.9"/>
	<line class="st1" x1="0" y1="187.1" x2="862.1" y2="187.1"/>
	<line class="st1" x1="0" y1="224.2" x2="862.1" y2="224.2"/>
	<line class="st1" x1="0" y1="261.4" x2="862.1" y2="261.4"/>
	<line class="st1" x1="0" y1="298.6" x2="862.1" y2="298.6"/>
	<line class="st1" x1="0" y1="335.7" x2="862.1" y2="335.7"/>
</g>
<g id="Layer_5">
</g>
<g id="Layer_1">
</g>
<g id="Layer_6">
	<line class="st2" x1="185.1" y1="238.8" x2="217.1" y2="238.8"/>
	<line class="st2" x1="191" y1="245.5" x2="209.6" y2="245.5"/>
	<line class="st2" x1="193.9" y1="251.4" x2="206.8" y2="251.4"/>
	<line class="st2" x1="197.7" y1="257.5" x2="202.9" y2="257.5"/>
	<line class="st2" x1="200.3" y1="219" x2="200.3" y2="238.9"/>
	<g>
		<text transform="matrix(1 0 0 1 182.8686 277.862)" class="st3 st4 st5">GND</text>
	</g>
</g>
<g id="Layer_4">
</g>
<g id="Layer_7">
	<polyline class="st6" points="796.7,182.9 796.7,217.7 205.2,215.5 	"/>
	<polyline class="st6" points="156.7,124.2 796.7,123.5 796.7,159.9 	"/>
	<line class="st2" x1="47" y1="104.9" x2="80" y2="104.9"/>
	<line class="st2" x1="63.5" y1="105.4" x2="63.5" y2="123.4"/>
	<g>
		<text transform="matrix(1 0 0 1 49.6831 100.2457)" class="st3 st4 st7">VCC</text>
	</g>
	<g>
		<text transform="matrix(1 0 0 1 21.0164 172.9124)" class="st3 st4 st7">120 Ohm @ 100Mhz</text>
	</g>
	<line class="st2" x1="184" y1="104.9" x2="216" y2="104.9"/>
	<line class="st2" x1="199.5" y1="105.4" x2="199.5" y2="123.4"/>
	<g>
		<text transform="matrix(1 0 0 1 164.9399 100.2457)" class="st3 st4 st7">MCU-VCC</text>
	</g>
	<g>
		<text transform="matrix(1 0 0 1 217.0539 176.4123)"><tspan x="0" y="0" class="st3 st4 st7">C20</tspan><tspan x="0" y="15.4" class="st3 st4 st7">1u</tspan></text>
	</g>
	<g>
		<text transform="matrix(1 0 0 1 316.0539 176.4123)"><tspan x="0" y="0" class="st3 st4 st7">C3</tspan><tspan x="0" y="15.4" class="st3 st4 st7">0.1u</tspan></text>
	</g>
	<g>
		<text transform="matrix(1 0 0 1 415.054 176.4123)"><tspan x="0" y="0" class="st3 st4 st7">C4</tspan><tspan x="0" y="15.4" class="st3 st4 st7">0.1u</tspan></text>
	</g>
	<g>
		<text transform="matrix(1 0 0 1 514.054 176.4123)"><tspan x="0" y="0" class="st3 st4 st7">C5 </tspan><tspan x="0" y="15.4" class="st3 st4 st7">0.1u      </tspan></text>
	</g>
	<g>
		<text transform="matrix(1 0 0 1 613.054 176.4123)"><tspan x="0" y="0" class="st3 st4 st7">C6</tspan><tspan x="0" y="15.4" class="st3 st4 st7">0.1u</tspan></text>
	</g>
	<g>
		<text transform="matrix(1 0 0 1 712.054 176.4123)"><tspan x="0" y="0" class="st3 st4 st7">C7</tspan><tspan x="0" y="15.4" class="st3 st4 st7">0.1u</tspan></text>
	</g>
	<g>
		<text transform="matrix(1 0 0 1 811.054 176.4123)"><tspan x="0" y="0" class="st3 st4 st7">C9</tspan><tspan x="0" y="15.4" class="st3 st4 st7">0.1u</tspan></text>
	</g>
	<line class="st8" x1="106" y1="123.9" x2="62" y2="123.9"/>
	<path class="st2" d="M144.2,125.3c0-6.3,2.8-12.4,6.2-12.4c3.4,0,6.2,6.1,6.2,12.4"/>
	<path class="st2" d="M132,125.3c0-6.3,2.5-12.4,6-12.4c3.4,0,6.2,6.1,6.2,12.4"/>
	<path class="st2" d="M118.8,125.3c0-6.3,2.8-12.4,6.2-12.4s6.5,6.1,6.5,12.4"/>
	<path class="st2" d="M118.8,125.3c0-6.3-2.8-12.4-6.2-12.4c-3.4,0-6.2,6.1-6.2,12.4l0,0"/>
	<circle class="st9" cx="199.8" cy="124.2" r="5.8"/>
	<circle class="st9" cx="199.8" cy="215.6" r="5.8"/>
	<circle class="st9" cx="298.7" cy="124.2" r="5.8"/>
	<circle class="st9" cx="298.7" cy="215.6" r="5.8"/>
	<circle class="st9" cx="397.5" cy="124.2" r="5.8"/>
	<circle class="st9" cx="397.5" cy="215.6" r="5.8"/>
	<circle class="st9" cx="496.4" cy="124.2" r="5.8"/>
	<circle class="st9" cx="496.4" cy="215.6" r="5.8"/>
	<circle class="st9" cx="595.3" cy="124.2" r="5.8"/>
	<circle class="st9" cx="595.3" cy="215.6" r="5.8"/>
	<circle class="st9" cx="694.1" cy="124.2" r="5.8"/>
	<circle class="st9" cx="694.1" cy="215.6" r="5.8"/>
	<line class="st6" x1="199.5" y1="128.4" x2="199.5" y2="161.4"/>
	<line class="st6" x1="199.5" y1="182.4" x2="199.5" y2="215.4"/>
	<line class="st2" x1="183" y1="160.9" x2="215" y2="160.9"/>
	<line class="st2" x1="183" y1="183.9" x2="215" y2="183.9"/>
	<line class="st6" x1="298.5" y1="128.4" x2="298.5" y2="161.4"/>
	<line class="st6" x1="298.5" y1="182.4" x2="298.5" y2="215.4"/>
	<line class="st2" x1="282" y1="160.9" x2="314" y2="160.9"/>
	<line class="st2" x1="282" y1="183.9" x2="314" y2="183.9"/>
	<line class="st6" x1="397.5" y1="127.4" x2="397.5" y2="160.4"/>
	<line class="st6" x1="397.5" y1="181.4" x2="397.5" y2="214.4"/>
	<line class="st2" x1="381" y1="159.9" x2="413" y2="159.9"/>
	<line class="st2" x1="381" y1="182.9" x2="413" y2="182.9"/>
	<line class="st6" x1="496.5" y1="127.4" x2="496.5" y2="160.4"/>
	<line class="st6" x1="496.5" y1="181.4" x2="496.5" y2="214.4"/>
	<line class="st2" x1="480" y1="159.9" x2="512" y2="159.9"/>
	<line class="st2" x1="480" y1="182.9" x2="512" y2="182.9"/>
	<line class="st6" x1="595.5" y1="127.4" x2="595.5" y2="160.4"/>
	<line class="st6" x1="595.5" y1="181.4" x2="595.5" y2="214.4"/>
	<line class="st2" x1="579" y1="159.9" x2="611" y2="159.9"/>
	<line class="st2" x1="579" y1="182.9" x2="611" y2="182.9"/>
	<line class="st6" x1="694.5" y1="127.4" x2="694.5" y2="160.4"/>
	<line class="st6" x1="694.5" y1="181.4" x2="694.5" y2="214.4"/>
	<line class="st2" x1="678" y1="159.9" x2="710" y2="159.9"/>
	<line class="st2" x1="678" y1="182.9" x2="710" y2="182.9"/>
	<line class="st6" x1="796.5" y1="127.4" x2="796.5" y2="160.4"/>
	<line class="st6" x1="796.5" y1="181.4" x2="796.5" y2="214.4"/>
	<line class="st2" x1="780" y1="159.9" x2="812" y2="159.9"/>
	<line class="st2" x1="780" y1="182.9" x2="812" y2="182.9"/>
</g>
</svg>
