<?xml version="1.0" encoding="UTF-8"?>
<svg xmlns="http://www.w3.org/2000/svg" xmlns:xlink="http://www.w3.org/1999/xlink" width="432pt" height="216pt" viewBox="0 0 432 216" version="1.1">
<g id="surface1">
<path style="fill:none;stroke-width:0.12;stroke-linecap:butt;stroke-linejoin:round;stroke:rgb(0%,0%,0%);stroke-opacity:1;stroke-miterlimit:10;" d="M 0.0273438 143.972656 L 108.003906 143.972656 L 108.003906 71.984375 L 0.0273438 71.984375 Z M 0.0273438 143.972656 Z M 108.003906 71.988281 Z M 108.003906 71.988281 " transform="matrix(1,0,0,-1,0,216)"/>
<path style=" stroke:none;fill-rule:evenodd;fill:rgb(0%,0%,0%);fill-opacity:1;" d="M 47.949219 101.488281 L 49.28125 101.828125 C 49 102.90625 48.519531 103.757812 47.78125 104.324219 C 47.074219 104.890625 46.195312 105.171875 45.144531 105.171875 C 44.070312 105.171875 43.191406 104.945312 42.511719 104.519531 C 41.828125 104.066406 41.320312 103.445312 40.949219 102.59375 C 40.609375 101.773438 40.441406 100.867188 40.441406 99.933594 C 40.441406 98.882812 40.640625 97.976562 41.035156 97.183594 C 41.433594 96.417969 42 95.824219 42.738281 95.429688 C 43.472656 95.003906 44.265625 94.804688 45.175781 94.804688 C 46.164062 94.804688 47.015625 95.058594 47.695312 95.570312 C 48.375 96.078125 48.859375 96.816406 49.113281 97.722656 L 47.808594 98.035156 C 47.582031 97.296875 47.242188 96.785156 46.789062 96.445312 C 46.363281 96.105469 45.796875 95.9375 45.144531 95.9375 C 44.351562 95.9375 43.730469 96.136719 43.191406 96.503906 C 42.679688 96.871094 42.3125 97.355469 42.113281 97.976562 C 41.914062 98.601562 41.800781 99.253906 41.800781 99.902344 C 41.800781 100.753906 41.914062 101.519531 42.171875 102.140625 C 42.425781 102.765625 42.792969 103.246094 43.332031 103.558594 C 43.84375 103.871094 44.410156 104.039062 45.03125 104.039062 C 45.769531 104.039062 46.394531 103.8125 46.929688 103.386719 C 47.441406 102.964844 47.78125 102.339844 47.949219 101.488281 "/>
<path style=" stroke:none;fill-rule:evenodd;fill:rgb(0%,0%,0%);fill-opacity:1;" d="M 50.898438 105.003906 L 50.898438 94.972656 L 55.347656 94.972656 C 56.226562 94.972656 56.90625 95.089844 57.390625 95.257812 C 57.84375 95.429688 58.210938 95.738281 58.492188 96.222656 C 58.777344 96.675781 58.917969 97.15625 58.917969 97.722656 C 58.917969 98.429688 58.664062 99.023438 58.210938 99.507812 C 57.757812 100.015625 57.046875 100.300781 56.085938 100.441406 C 56.425781 100.613281 56.707031 100.78125 56.878906 100.953125 C 57.273438 101.292969 57.644531 101.746094 57.984375 102.28125 L 59.710938 105.003906 L 58.070312 105.003906 L 56.738281 102.90625 C 56.339844 102.3125 56.027344 101.859375 55.773438 101.546875 C 55.519531 101.207031 55.289062 101.007812 55.09375 100.867188 C 54.894531 100.753906 54.695312 100.640625 54.496094 100.613281 C 54.355469 100.585938 54.101562 100.554688 53.761719 100.554688 L 52.230469 100.554688 L 52.230469 105.003906 Z M 52.230469 99.394531 L 55.066406 99.394531 C 55.6875 99.394531 56.140625 99.335938 56.480469 99.222656 C 56.820312 99.082031 57.105469 98.882812 57.273438 98.628906 C 57.445312 98.347656 57.53125 98.035156 57.53125 97.722656 C 57.53125 97.242188 57.359375 96.84375 57.019531 96.5625 C 56.679688 96.25 56.140625 96.078125 55.40625 96.078125 L 52.230469 96.078125 "/>
<path style=" stroke:none;fill-rule:evenodd;fill:rgb(0%,0%,0%);fill-opacity:1;" d="M 63.226562 105.003906 L 63.226562 96.164062 L 59.9375 96.164062 L 59.9375 94.972656 L 67.875 94.972656 L 67.875 96.164062 L 64.558594 96.164062 L 64.558594 105.003906 "/>
<path style=" stroke:none;fill-rule:evenodd;fill:rgb(0%,0%,0%);fill-opacity:1;" d="M 19.582031 123.671875 C 18.902344 122.824219 18.308594 121.804688 17.855469 120.671875 C 17.371094 119.507812 17.144531 118.316406 17.144531 117.101562 C 17.144531 116.023438 17.316406 114.976562 17.65625 113.984375 C 18.082031 112.820312 18.703125 111.6875 19.582031 110.527344 L 20.460938 110.527344 C 19.894531 111.492188 19.527344 112.171875 19.355469 112.566406 C 19.074219 113.191406 18.875 113.84375 18.703125 114.523438 C 18.507812 115.398438 18.421875 116.25 18.421875 117.101562 C 18.421875 119.308594 19.101562 121.492188 20.460938 123.671875 "/>
<path style=" stroke:none;fill-rule:evenodd;fill:rgb(0%,0%,0%);fill-opacity:1;" d="M 29.160156 117.214844 L 30.492188 117.554688 C 30.210938 118.628906 29.730469 119.480469 28.992188 120.046875 C 28.28125 120.613281 27.40625 120.894531 26.355469 120.894531 C 25.277344 120.894531 24.402344 120.671875 23.722656 120.246094 C 23.039062 119.789062 22.53125 119.167969 22.160156 118.316406 C 21.820312 117.496094 21.652344 116.589844 21.652344 115.65625 C 21.652344 114.605469 21.851562 113.699219 22.246094 112.90625 C 22.644531 112.140625 23.210938 111.546875 23.945312 111.152344 C 24.683594 110.726562 25.476562 110.527344 26.386719 110.527344 C 27.375 110.527344 28.226562 110.78125 28.90625 111.292969 C 29.585938 111.800781 30.070312 112.539062 30.324219 113.445312 L 29.019531 113.757812 C 28.792969 113.019531 28.453125 112.511719 28 112.171875 C 27.574219 111.832031 27.007812 111.660156 26.355469 111.660156 C 25.5625 111.660156 24.9375 111.859375 24.402344 112.226562 C 23.890625 112.59375 23.523438 113.078125 23.324219 113.699219 C 23.125 114.324219 23.011719 114.976562 23.011719 115.628906 C 23.011719 116.476562 23.125 117.242188 23.382812 117.863281 C 23.636719 118.488281 24.003906 118.96875 24.542969 119.28125 C 25.054688 119.59375 25.617188 119.761719 26.242188 119.761719 C 26.980469 119.761719 27.601562 119.535156 28.140625 119.109375 C 28.652344 118.6875 28.992188 118.0625 29.160156 117.214844 "/>
<path style=" stroke:none;fill-rule:evenodd;fill:rgb(0%,0%,0%);fill-opacity:1;" d="M 35.964844 120.726562 L 35.964844 110.695312 L 40.414062 110.695312 C 41.289062 110.695312 41.972656 110.8125 42.453125 110.980469 C 42.90625 111.152344 43.273438 111.460938 43.558594 111.945312 C 43.84375 112.398438 43.984375 112.878906 43.984375 113.445312 C 43.984375 114.152344 43.730469 114.75 43.273438 115.230469 C 42.820312 115.738281 42.113281 116.023438 41.148438 116.164062 C 41.488281 116.335938 41.773438 116.503906 41.941406 116.675781 C 42.339844 117.015625 42.707031 117.46875 43.046875 118.007812 L 44.777344 120.726562 L 43.132812 120.726562 L 41.800781 118.628906 C 41.40625 118.035156 41.09375 117.582031 40.839844 117.269531 C 40.582031 116.929688 40.355469 116.730469 40.15625 116.589844 C 39.960938 116.476562 39.761719 116.363281 39.5625 116.335938 C 39.421875 116.308594 39.164062 116.277344 38.824219 116.277344 L 37.296875 116.277344 L 37.296875 120.726562 Z M 37.296875 115.117188 L 40.128906 115.117188 C 40.753906 115.117188 41.207031 115.058594 41.546875 114.945312 C 41.886719 114.804688 42.171875 114.605469 42.339844 114.351562 C 42.511719 114.070312 42.59375 113.757812 42.59375 113.445312 C 42.59375 112.964844 42.425781 112.566406 42.085938 112.285156 C 41.746094 111.972656 41.207031 111.800781 40.46875 111.800781 L 37.296875 111.800781 "/>
<path style=" stroke:none;fill-rule:evenodd;fill:rgb(0%,0%,0%);fill-opacity:1;" d="M 50.613281 120.726562 L 50.613281 119.648438 C 50.078125 120.472656 49.28125 120.894531 48.320312 120.894531 C 47.894531 120.894531 47.496094 120.8125 47.128906 120.640625 C 46.761719 120.472656 46.476562 120.273438 46.308594 120.019531 C 46.109375 119.789062 45.996094 119.480469 45.910156 119.109375 C 45.855469 118.886719 45.855469 118.488281 45.855469 117.976562 L 45.855469 113.472656 L 47.074219 113.472656 L 47.074219 117.496094 C 47.074219 118.148438 47.101562 118.574219 47.15625 118.800781 C 47.214844 119.109375 47.382812 119.367188 47.640625 119.566406 C 47.894531 119.734375 48.207031 119.820312 48.574219 119.820312 C 48.941406 119.820312 49.28125 119.734375 49.621094 119.535156 C 49.933594 119.367188 50.160156 119.109375 50.304688 118.769531 C 50.417969 118.460938 50.503906 117.976562 50.503906 117.355469 L 50.503906 113.472656 L 51.722656 113.472656 L 51.722656 120.726562 "/>
<path style=" stroke:none;fill-rule:evenodd;fill:rgb(0%,0%,0%);fill-opacity:1;" d="M 53.675781 120.726562 L 53.675781 113.472656 L 54.78125 113.472656 L 54.78125 114.492188 C 55.289062 113.699219 56.085938 113.304688 57.078125 113.304688 C 57.53125 113.304688 57.925781 113.390625 58.296875 113.53125 C 58.664062 113.699219 58.917969 113.898438 59.117188 114.152344 C 59.285156 114.410156 59.429688 114.71875 59.484375 115.058594 C 59.542969 115.285156 59.570312 115.683594 59.570312 116.25 L 59.570312 120.726562 L 58.324219 120.726562 L 58.324219 116.308594 C 58.324219 115.796875 58.296875 115.429688 58.183594 115.175781 C 58.097656 114.945312 57.925781 114.75 57.671875 114.605469 C 57.445312 114.4375 57.160156 114.378906 56.820312 114.378906 C 56.3125 114.378906 55.859375 114.550781 55.460938 114.863281 C 55.09375 115.203125 54.894531 115.824219 54.894531 116.761719 L 54.894531 120.726562 "/>
<path style=" stroke:none;fill-rule:evenodd;fill:rgb(0%,0%,0%);fill-opacity:1;" d="M 64.132812 119.621094 L 64.332031 120.726562 C 63.964844 120.78125 63.652344 120.8125 63.398438 120.8125 C 62.941406 120.8125 62.601562 120.753906 62.347656 120.613281 C 62.09375 120.472656 61.921875 120.273438 61.839844 120.046875 C 61.726562 119.820312 61.695312 119.339844 61.695312 118.601562 L 61.695312 114.4375 L 60.789062 114.4375 L 60.789062 113.472656 L 61.695312 113.472656 L 61.695312 111.660156 L 62.914062 110.925781 L 62.914062 113.472656 L 64.132812 113.472656 L 64.132812 114.4375 L 62.914062 114.4375 L 62.914062 118.65625 C 62.914062 119.027344 62.914062 119.253906 62.972656 119.339844 C 63.027344 119.449219 63.085938 119.535156 63.171875 119.59375 C 63.28125 119.648438 63.425781 119.679688 63.59375 119.679688 C 63.738281 119.679688 63.90625 119.648438 64.132812 119.621094 "/>
<path style=" stroke:none;fill-rule:evenodd;fill:rgb(0%,0%,0%);fill-opacity:1;" d="M 65.351562 110.695312 L 66.570312 110.695312 L 66.570312 112.113281 L 65.351562 112.113281 Z M 65.351562 113.472656 L 66.570312 113.472656 L 66.570312 120.726562 L 65.351562 120.726562 Z M 65.351562 113.472656 "/>
<path style=" stroke:none;fill-rule:evenodd;fill:rgb(0%,0%,0%);fill-opacity:1;" d="M 68.46875 120.726562 L 68.46875 113.472656 L 69.546875 113.472656 L 69.546875 114.492188 C 69.773438 114.125 70.085938 113.84375 70.453125 113.644531 C 70.851562 113.417969 71.273438 113.304688 71.757812 113.304688 C 72.296875 113.304688 72.75 113.417969 73.089844 113.644531 C 73.429688 113.871094 73.65625 114.183594 73.796875 114.578125 C 74.394531 113.730469 75.128906 113.304688 76.066406 113.304688 C 76.773438 113.304688 77.3125 113.503906 77.707031 113.898438 C 78.105469 114.296875 78.304688 114.917969 78.304688 115.738281 L 78.304688 120.726562 L 77.054688 120.726562 L 77.054688 116.164062 C 77.054688 115.65625 77.027344 115.316406 76.941406 115.089844 C 76.859375 114.863281 76.714844 114.691406 76.519531 114.578125 C 76.320312 114.4375 76.066406 114.378906 75.78125 114.378906 C 75.269531 114.378906 74.847656 114.550781 74.507812 114.890625 C 74.164062 115.230469 73.996094 115.769531 73.996094 116.503906 L 73.996094 120.726562 L 72.777344 120.726562 L 72.777344 116.023438 C 72.777344 115.457031 72.664062 115.058594 72.464844 114.777344 C 72.265625 114.492188 71.953125 114.378906 71.472656 114.378906 C 71.132812 114.378906 70.820312 114.464844 70.539062 114.636719 C 70.226562 114.835938 70.027344 115.089844 69.886719 115.457031 C 69.746094 115.796875 69.6875 116.308594 69.6875 116.957031 L 69.6875 120.726562 "/>
<path style=" stroke:none;fill-rule:evenodd;fill:rgb(0%,0%,0%);fill-opacity:1;" d="M 85.078125 118.402344 L 86.351562 118.546875 C 86.152344 119.28125 85.785156 119.875 85.21875 120.273438 C 84.679688 120.699219 84 120.894531 83.148438 120.894531 C 82.101562 120.894531 81.25 120.554688 80.628906 119.90625 C 80.003906 119.253906 79.691406 118.347656 79.691406 117.15625 C 79.691406 115.9375 80.003906 115.003906 80.628906 114.324219 C 81.277344 113.644531 82.074219 113.304688 83.09375 113.304688 C 84.054688 113.304688 84.851562 113.644531 85.472656 114.296875 C 86.070312 114.945312 86.378906 115.882812 86.378906 117.070312 C 86.378906 117.15625 86.378906 117.269531 86.378906 117.410156 L 80.96875 117.410156 C 81.023438 118.203125 81.25 118.828125 81.648438 119.253906 C 82.042969 119.679688 82.554688 119.875 83.148438 119.875 C 83.601562 119.875 84 119.761719 84.3125 119.535156 C 84.621094 119.28125 84.878906 118.914062 85.078125 118.402344 Z M 81.023438 116.390625 L 85.078125 116.390625 C 85.019531 115.796875 84.878906 115.34375 84.621094 115.03125 C 84.226562 114.550781 83.714844 114.324219 83.09375 114.324219 C 82.527344 114.324219 82.074219 114.492188 81.675781 114.890625 C 81.277344 115.257812 81.082031 115.769531 81.023438 116.390625 "/>
<path style=" stroke:none;fill-rule:evenodd;fill:rgb(0%,0%,0%);fill-opacity:1;" d="M 88.703125 123.671875 L 87.824219 123.671875 C 89.1875 121.492188 89.867188 119.308594 89.867188 117.101562 C 89.867188 116.25 89.78125 115.398438 89.582031 114.550781 C 89.414062 113.871094 89.214844 113.21875 88.929688 112.59375 C 88.734375 112.171875 88.390625 111.492188 87.824219 110.527344 L 88.703125 110.527344 C 89.554688 111.6875 90.207031 112.820312 90.601562 113.984375 C 90.941406 114.976562 91.140625 116.023438 91.140625 117.101562 C 91.140625 118.316406 90.886719 119.507812 90.433594 120.671875 C 89.949219 121.804688 89.382812 122.824219 88.703125 123.671875 "/>
<path style="fill:none;stroke-width:0.12;stroke-linecap:butt;stroke-linejoin:round;stroke:rgb(0%,0%,0%);stroke-opacity:1;stroke-miterlimit:10;" d="M 161.964844 215.902344 L 269.96875 215.902344 L 269.96875 143.945312 L 161.964844 143.945312 Z M 161.964844 215.902344 Z M 269.96875 143.945312 Z M 269.96875 143.945312 " transform="matrix(1,0,0,-1,0,216)"/>
<path style=" stroke:none;fill-rule:evenodd;fill:rgb(0%,0%,0%);fill-opacity:1;" d="M 197.046875 40.949219 L 197.046875 33.695312 L 198.125 33.695312 L 198.125 34.714844 C 198.351562 34.347656 198.664062 34.066406 199.03125 33.867188 C 199.429688 33.640625 199.855469 33.527344 200.335938 33.527344 C 200.875 33.527344 201.328125 33.640625 201.667969 33.867188 C 202.007812 34.09375 202.234375 34.40625 202.375 34.800781 C 202.972656 33.949219 203.707031 33.527344 204.644531 33.527344 C 205.351562 33.527344 205.890625 33.726562 206.285156 34.121094 C 206.683594 34.519531 206.882812 35.140625 206.882812 35.964844 L 206.882812 40.949219 L 205.636719 40.949219 L 205.636719 36.386719 C 205.636719 35.878906 205.605469 35.539062 205.523438 35.3125 C 205.4375 35.085938 205.296875 34.914062 205.097656 34.800781 C 204.898438 34.660156 204.644531 34.601562 204.359375 34.601562 C 203.851562 34.601562 203.425781 34.773438 203.085938 35.113281 C 202.742188 35.453125 202.574219 35.992188 202.574219 36.726562 L 202.574219 40.949219 L 201.355469 40.949219 L 201.355469 36.246094 C 201.355469 35.679688 201.242188 35.28125 201.042969 35 C 200.847656 34.714844 200.535156 34.601562 200.050781 34.601562 C 199.710938 34.601562 199.398438 34.6875 199.117188 34.859375 C 198.804688 35.054688 198.605469 35.3125 198.464844 35.679688 C 198.324219 36.019531 198.265625 36.527344 198.265625 37.179688 L 198.265625 40.949219 "/>
<path style=" stroke:none;fill-rule:evenodd;fill:rgb(0%,0%,0%);fill-opacity:1;" d="M 213.429688 40.042969 C 212.976562 40.4375 212.523438 40.722656 212.097656 40.863281 C 211.671875 41.035156 211.21875 41.117188 210.734375 41.117188 C 209.941406 41.117188 209.347656 40.921875 208.921875 40.523438 C 208.46875 40.128906 208.269531 39.644531 208.269531 39.023438 C 208.269531 38.683594 208.355469 38.34375 208.496094 38.058594 C 208.667969 37.777344 208.894531 37.519531 209.148438 37.351562 C 209.402344 37.179688 209.714844 37.039062 210.027344 36.953125 C 210.28125 36.898438 210.621094 36.8125 211.132812 36.757812 C 212.125 36.644531 212.863281 36.5 213.316406 36.332031 C 213.316406 36.160156 213.316406 36.074219 213.316406 36.019531 C 213.316406 35.511719 213.203125 35.171875 212.976562 34.972656 C 212.664062 34.6875 212.183594 34.546875 211.585938 34.546875 C 210.992188 34.546875 210.566406 34.660156 210.28125 34.859375 C 210.027344 35.054688 209.800781 35.425781 209.6875 35.933594 L 208.46875 35.765625 C 208.582031 35.253906 208.78125 34.828125 209.007812 34.519531 C 209.261719 34.207031 209.632812 33.949219 210.113281 33.78125 C 210.566406 33.609375 211.132812 33.527344 211.757812 33.527344 C 212.378906 33.527344 212.890625 33.609375 213.257812 33.753906 C 213.65625 33.894531 213.9375 34.066406 214.109375 34.289062 C 214.308594 34.519531 214.421875 34.800781 214.503906 35.140625 C 214.535156 35.339844 214.5625 35.707031 214.5625 36.273438 L 214.5625 37.917969 C 214.5625 39.050781 214.589844 39.785156 214.648438 40.070312 C 214.703125 40.382812 214.789062 40.664062 214.960938 40.949219 L 213.65625 40.949219 C 213.542969 40.695312 213.457031 40.382812 213.429688 40.042969 Z M 213.316406 37.292969 C 212.863281 37.492188 212.210938 37.632812 211.304688 37.777344 C 210.792969 37.832031 210.453125 37.917969 210.226562 38.03125 C 210.027344 38.117188 209.859375 38.230469 209.742188 38.429688 C 209.632812 38.597656 209.574219 38.796875 209.574219 38.992188 C 209.574219 39.335938 209.714844 39.589844 209.941406 39.816406 C 210.199219 40.042969 210.566406 40.15625 211.046875 40.15625 C 211.53125 40.15625 211.925781 40.042969 212.296875 39.84375 C 212.664062 39.617188 212.945312 39.335938 213.117188 38.992188 C 213.257812 38.710938 213.316406 38.285156 213.316406 37.746094 "/>
<path style=" stroke:none;fill-rule:evenodd;fill:rgb(0%,0%,0%);fill-opacity:1;" d="M 216.488281 30.921875 L 217.707031 30.921875 L 217.707031 32.335938 L 216.488281 32.335938 Z M 216.488281 33.695312 L 217.707031 33.695312 L 217.707031 40.949219 L 216.488281 40.949219 Z M 216.488281 33.695312 "/>
<path style=" stroke:none;fill-rule:evenodd;fill:rgb(0%,0%,0%);fill-opacity:1;" d="M 219.578125 40.949219 L 219.578125 33.695312 L 220.683594 33.695312 L 220.683594 34.714844 C 221.195312 33.921875 221.988281 33.527344 222.980469 33.527344 C 223.433594 33.527344 223.828125 33.609375 224.199219 33.753906 C 224.566406 33.921875 224.820312 34.121094 225.019531 34.375 C 225.191406 34.632812 225.332031 34.941406 225.386719 35.28125 C 225.445312 35.511719 225.472656 35.90625 225.472656 36.472656 L 225.472656 40.949219 L 224.226562 40.949219 L 224.226562 36.527344 C 224.226562 36.019531 224.199219 35.652344 224.085938 35.394531 C 224 35.171875 223.828125 34.972656 223.574219 34.828125 C 223.347656 34.660156 223.0625 34.601562 222.722656 34.601562 C 222.214844 34.601562 221.761719 34.773438 221.363281 35.085938 C 220.996094 35.425781 220.796875 36.046875 220.796875 36.984375 L 220.796875 40.949219 "/>
<path style=" stroke:none;fill-rule:evenodd;fill:rgb(0%,0%,0%);fill-opacity:1;" d="M 229.722656 43.894531 C 229.042969 43.046875 228.449219 42.023438 227.996094 40.890625 C 227.515625 39.730469 227.285156 38.539062 227.285156 37.324219 C 227.285156 36.246094 227.457031 35.199219 227.796875 34.207031 C 228.222656 33.046875 228.847656 31.910156 229.722656 30.75 L 230.601562 30.75 C 230.035156 31.714844 229.667969 32.394531 229.496094 32.789062 C 229.214844 33.414062 229.015625 34.066406 228.847656 34.746094 C 228.648438 35.621094 228.5625 36.472656 228.5625 37.324219 C 228.5625 39.53125 229.242188 41.714844 230.601562 43.894531 "/>
<path style=" stroke:none;fill-rule:evenodd;fill:rgb(0%,0%,0%);fill-opacity:1;" d="M 232.839844 43.894531 L 231.964844 43.894531 C 233.324219 41.714844 234.003906 39.53125 234.003906 37.324219 C 234.003906 36.472656 233.917969 35.621094 233.71875 34.773438 C 233.550781 34.09375 233.351562 33.441406 233.066406 32.816406 C 232.871094 32.394531 232.53125 31.714844 231.964844 30.75 L 232.839844 30.75 C 233.691406 31.910156 234.34375 33.046875 234.738281 34.207031 C 235.078125 35.199219 235.277344 36.246094 235.277344 37.324219 C 235.277344 38.539062 235.023438 39.730469 234.570312 40.890625 C 234.089844 42.023438 233.523438 43.046875 232.839844 43.894531 "/>
<path style="fill:none;stroke-width:0.12;stroke-linecap:butt;stroke-linejoin:round;stroke:rgb(0%,0%,0%);stroke-opacity:1;stroke-miterlimit:10;" d="M 161.964844 72.015625 L 269.96875 72.015625 L 269.96875 0.0585938 L 161.964844 0.0585938 Z M 161.964844 72.015625 Z M 161.964844 72.015625 " transform="matrix(1,0,0,-1,0,216)"/>
<path style=" stroke:none;fill-rule:evenodd;fill:rgb(0%,0%,0%);fill-opacity:1;" d="M 196.679688 187.613281 L 196.679688 177.585938 L 197.785156 177.585938 L 197.785156 178.519531 C 198.039062 178.152344 198.351562 177.867188 198.691406 177.699219 C 199.003906 177.5 199.429688 177.414062 199.882812 177.414062 C 200.507812 177.414062 201.070312 177.585938 201.527344 177.894531 C 202.007812 178.207031 202.375 178.660156 202.601562 179.257812 C 202.859375 179.824219 202.972656 180.472656 202.972656 181.152344 C 202.972656 181.890625 202.828125 182.570312 202.574219 183.164062 C 202.289062 183.761719 201.921875 184.214844 201.410156 184.523438 C 200.902344 184.835938 200.363281 185.007812 199.796875 185.007812 C 199.398438 185.007812 199.03125 184.921875 198.691406 184.753906 C 198.378906 184.582031 198.097656 184.355469 197.898438 184.070312 L 197.898438 187.613281 Z M 197.785156 181.238281 C 197.785156 182.175781 197.984375 182.882812 198.351562 183.308594 C 198.71875 183.761719 199.175781 183.988281 199.710938 183.988281 C 200.277344 183.988281 200.730469 183.761719 201.128906 183.308594 C 201.527344 182.824219 201.722656 182.117188 201.722656 181.152344 C 201.722656 180.21875 201.527344 179.539062 201.128906 179.058594 C 200.761719 178.605469 200.308594 178.378906 199.769531 178.378906 C 199.257812 178.378906 198.777344 178.632812 198.378906 179.113281 C 197.984375 179.597656 197.785156 180.304688 197.785156 181.238281 "/>
<path style=" stroke:none;fill-rule:evenodd;fill:rgb(0%,0%,0%);fill-opacity:1;" d="M 204.414062 184.835938 L 204.414062 177.585938 L 205.523438 177.585938 L 205.523438 178.6875 C 205.804688 178.152344 206.058594 177.839844 206.316406 177.667969 C 206.542969 177.5 206.824219 177.414062 207.109375 177.414062 C 207.503906 177.414062 207.929688 177.554688 208.355469 177.8125 L 207.929688 178.945312 C 207.648438 178.773438 207.335938 178.6875 207.023438 178.6875 C 206.769531 178.6875 206.515625 178.773438 206.316406 178.914062 C 206.089844 179.085938 205.945312 179.3125 205.863281 179.597656 C 205.71875 180.050781 205.636719 180.53125 205.636719 181.039062 L 205.636719 184.835938 "/>
<path style=" stroke:none;fill-rule:evenodd;fill:rgb(0%,0%,0%);fill-opacity:1;" d="M 209.121094 174.808594 L 210.339844 174.808594 L 210.339844 176.222656 L 209.121094 176.222656 Z M 209.121094 177.585938 L 210.339844 177.585938 L 210.339844 184.835938 L 209.121094 184.835938 Z M 209.121094 177.585938 "/>
<path style=" stroke:none;fill-rule:evenodd;fill:rgb(0%,0%,0%);fill-opacity:1;" d="M 212.210938 184.835938 L 212.210938 177.585938 L 213.316406 177.585938 L 213.316406 178.605469 C 213.824219 177.8125 214.617188 177.414062 215.609375 177.414062 C 216.0625 177.414062 216.460938 177.5 216.828125 177.640625 C 217.199219 177.8125 217.453125 178.007812 217.652344 178.265625 C 217.820312 178.519531 217.964844 178.832031 218.019531 179.171875 C 218.074219 179.398438 218.105469 179.792969 218.105469 180.359375 L 218.105469 184.835938 L 216.859375 184.835938 L 216.859375 180.417969 C 216.859375 179.90625 216.828125 179.539062 216.714844 179.285156 C 216.632812 179.058594 216.460938 178.859375 216.207031 178.71875 C 215.980469 178.546875 215.695312 178.492188 215.355469 178.492188 C 214.847656 178.492188 214.390625 178.660156 213.996094 178.972656 C 213.628906 179.3125 213.429688 179.9375 213.429688 180.871094 L 213.429688 184.835938 "/>
<path style=" stroke:none;fill-rule:evenodd;fill:rgb(0%,0%,0%);fill-opacity:1;" d="M 222.667969 183.730469 L 222.867188 184.835938 C 222.496094 184.894531 222.1875 184.921875 221.929688 184.921875 C 221.476562 184.921875 221.136719 184.863281 220.882812 184.722656 C 220.628906 184.582031 220.457031 184.382812 220.371094 184.15625 C 220.257812 183.929688 220.230469 183.449219 220.230469 182.710938 L 220.230469 178.546875 L 219.324219 178.546875 L 219.324219 177.585938 L 220.230469 177.585938 L 220.230469 175.769531 L 221.449219 175.035156 L 221.449219 177.585938 L 222.667969 177.585938 L 222.667969 178.546875 L 221.449219 178.546875 L 221.449219 182.769531 C 221.449219 183.136719 221.449219 183.363281 221.503906 183.449219 C 221.5625 183.5625 221.617188 183.648438 221.703125 183.703125 C 221.816406 183.761719 221.960938 183.789062 222.128906 183.789062 C 222.269531 183.789062 222.441406 183.761719 222.667969 183.730469 "/>
<path style=" stroke:none;fill-rule:evenodd;fill:rgb(0%,0%,0%);fill-opacity:1;" d="M 224.167969 184.835938 L 224.167969 178.546875 L 223.09375 178.546875 L 223.09375 177.585938 L 224.167969 177.585938 L 224.167969 176.820312 C 224.167969 176.308594 224.199219 175.96875 224.3125 175.714844 C 224.425781 175.402344 224.621094 175.148438 224.933594 174.949219 C 225.21875 174.753906 225.644531 174.636719 226.183594 174.636719 C 226.523438 174.636719 226.917969 174.695312 227.316406 174.78125 L 227.144531 175.855469 C 226.890625 175.800781 226.636719 175.769531 226.40625 175.769531 C 226.039062 175.769531 225.785156 175.855469 225.613281 176.027344 C 225.472656 176.167969 225.386719 176.480469 225.386719 176.90625 L 225.386719 177.585938 L 226.804688 177.585938 L 226.804688 178.546875 L 225.386719 178.546875 L 225.386719 184.835938 "/>
<path style=" stroke:none;fill-rule:evenodd;fill:rgb(0%,0%,0%);fill-opacity:1;" d="M 230.148438 187.78125 C 229.46875 186.933594 228.875 185.914062 228.421875 184.78125 C 227.9375 183.617188 227.710938 182.429688 227.710938 181.210938 C 227.710938 180.132812 227.882812 179.085938 228.222656 178.09375 C 228.648438 176.933594 229.269531 175.800781 230.148438 174.636719 L 231.027344 174.636719 C 230.460938 175.601562 230.09375 176.28125 229.921875 176.679688 C 229.640625 177.300781 229.441406 177.953125 229.269531 178.632812 C 229.070312 179.511719 228.988281 180.359375 228.988281 181.210938 C 228.988281 183.421875 229.667969 185.601562 231.027344 187.78125 "/>
<path style=" stroke:none;fill-rule:evenodd;fill:rgb(0%,0%,0%);fill-opacity:1;" d="M 233.238281 187.78125 L 232.359375 187.78125 C 233.71875 185.601562 234.398438 183.421875 234.398438 181.210938 C 234.398438 180.359375 234.316406 179.511719 234.117188 178.660156 C 233.945312 177.980469 233.746094 177.328125 233.464844 176.707031 C 233.265625 176.28125 232.925781 175.601562 232.359375 174.636719 L 233.238281 174.636719 C 234.089844 175.800781 234.738281 176.933594 235.136719 178.09375 C 235.476562 179.085938 235.675781 180.132812 235.675781 181.210938 C 235.675781 182.429688 235.421875 183.617188 234.96875 184.78125 C 234.484375 185.914062 233.917969 186.933594 233.238281 187.78125 "/>
<path style="fill:none;stroke-width:0.12;stroke-linecap:butt;stroke-linejoin:round;stroke:rgb(0%,0%,0%);stroke-opacity:1;stroke-miterlimit:10;" d="M 323.898438 143.972656 L 431.902344 143.972656 L 431.902344 71.984375 L 323.898438 71.984375 Z M 323.898438 143.972656 Z M 431.902344 71.988281 Z M 431.902344 71.988281 " transform="matrix(1,0,0,-1,0,216)"/>
<path style=" stroke:none;fill-rule:evenodd;fill:rgb(0%,0%,0%);fill-opacity:1;" d="M 368.277344 110.554688 L 369.554688 110.695312 C 369.355469 111.433594 368.988281 112.027344 368.421875 112.425781 C 367.882812 112.851562 367.199219 113.050781 366.351562 113.050781 C 365.304688 113.050781 364.453125 112.710938 363.828125 112.058594 C 363.203125 111.40625 362.894531 110.5 362.894531 109.308594 C 362.894531 108.089844 363.203125 107.15625 363.828125 106.476562 C 364.480469 105.796875 365.273438 105.457031 366.296875 105.457031 C 367.257812 105.457031 368.050781 105.796875 368.675781 106.449219 C 369.269531 107.097656 369.582031 108.035156 369.582031 109.222656 C 369.582031 109.308594 369.582031 109.421875 369.582031 109.5625 L 364.167969 109.5625 C 364.226562 110.355469 364.453125 110.980469 364.847656 111.40625 C 365.246094 111.832031 365.757812 112.027344 366.351562 112.027344 C 366.804688 112.027344 367.199219 111.914062 367.511719 111.6875 C 367.824219 111.433594 368.078125 111.066406 368.277344 110.554688 Z M 364.226562 108.542969 L 368.277344 108.542969 C 368.222656 107.949219 368.078125 107.496094 367.824219 107.183594 C 367.429688 106.703125 366.917969 106.476562 366.296875 106.476562 C 365.726562 106.476562 365.273438 106.644531 364.878906 107.042969 C 364.480469 107.410156 364.28125 107.921875 364.226562 108.542969 "/>
<path style=" stroke:none;fill-rule:evenodd;fill:rgb(0%,0%,0%);fill-opacity:1;" d="M 370.261719 112.878906 L 372.898438 109.109375 L 370.460938 105.625 L 371.992188 105.625 L 373.097656 107.324219 C 373.324219 107.636719 373.492188 107.921875 373.605469 108.148438 C 373.804688 107.835938 374.003906 107.582031 374.171875 107.324219 L 375.390625 105.625 L 376.863281 105.625 L 374.34375 109.027344 L 377.035156 112.878906 L 375.53125 112.878906 L 374.03125 110.613281 L 373.664062 110.015625 L 371.734375 112.878906 "/>
<path style=" stroke:none;fill-rule:evenodd;fill:rgb(0%,0%,0%);fill-opacity:1;" d="M 378.085938 102.851562 L 379.304688 102.851562 L 379.304688 104.265625 L 378.085938 104.265625 Z M 378.085938 105.625 L 379.304688 105.625 L 379.304688 112.878906 L 378.085938 112.878906 Z M 378.085938 105.625 "/>
<path style=" stroke:none;fill-rule:evenodd;fill:rgb(0%,0%,0%);fill-opacity:1;" d="M 383.835938 111.773438 L 384.035156 112.878906 C 383.667969 112.933594 383.355469 112.964844 383.101562 112.964844 C 382.648438 112.964844 382.308594 112.90625 382.050781 112.765625 C 381.796875 112.625 381.625 112.425781 381.539062 112.199219 C 381.429688 111.972656 381.398438 111.492188 381.398438 110.753906 L 381.398438 106.589844 L 380.492188 106.589844 L 380.492188 105.625 L 381.398438 105.625 L 381.398438 103.8125 L 382.617188 103.078125 L 382.617188 105.625 L 383.835938 105.625 L 383.835938 106.589844 L 382.617188 106.589844 L 382.617188 110.8125 C 382.617188 111.179688 382.617188 111.40625 382.675781 111.492188 C 382.730469 111.605469 382.789062 111.6875 382.871094 111.746094 C 382.988281 111.800781 383.128906 111.832031 383.300781 111.832031 C 383.441406 111.832031 383.609375 111.800781 383.835938 111.773438 "/>
<path style=" stroke:none;fill-rule:evenodd;fill:rgb(0%,0%,0%);fill-opacity:1;" d="M 387.40625 115.824219 C 386.726562 114.976562 386.132812 113.953125 385.679688 112.820312 C 385.195312 111.660156 384.972656 110.472656 384.972656 109.253906 C 384.972656 108.175781 385.140625 107.128906 385.480469 106.136719 C 385.90625 104.976562 386.527344 103.84375 387.40625 102.679688 L 388.285156 102.679688 C 387.71875 103.644531 387.351562 104.324219 387.179688 104.71875 C 386.898438 105.34375 386.699219 105.996094 386.527344 106.675781 C 386.332031 107.554688 386.246094 108.402344 386.246094 109.253906 C 386.246094 111.460938 386.925781 113.644531 388.285156 115.824219 "/>
<path style=" stroke:none;fill-rule:evenodd;fill:rgb(0%,0%,0%);fill-opacity:1;" d="M 390.496094 115.824219 L 389.617188 115.824219 C 390.980469 113.644531 391.660156 111.460938 391.660156 109.253906 C 391.660156 108.402344 391.574219 107.554688 391.375 106.703125 C 391.203125 106.023438 391.007812 105.371094 390.722656 104.746094 C 390.523438 104.324219 390.183594 103.644531 389.617188 102.679688 L 390.496094 102.679688 C 391.347656 103.84375 392 104.976562 392.394531 106.136719 C 392.734375 107.128906 392.933594 108.175781 392.933594 109.253906 C 392.933594 110.472656 392.679688 111.660156 392.226562 112.820312 C 391.742188 113.953125 391.175781 114.976562 390.496094 115.824219 "/>
<path style="fill:none;stroke-width:0.12;stroke-linecap:butt;stroke-linejoin:round;stroke:rgb(0%,0%,0%);stroke-opacity:1;stroke-miterlimit:10;" d="M 17.371094 179.894531 C 8.699219 179.894531 0.0273438 188.902344 0.0273438 197.914062 C 0.0273438 206.921875 8.699219 215.902344 17.371094 215.902344 L 90.632812 215.902344 C 99.304688 215.902344 108.003906 206.921875 108.003906 197.914062 C 108.003906 188.902344 99.304688 179.894531 90.632812 179.894531 Z M 0.0273438 215.902344 Z M 108.003906 179.894531 Z M 108.003906 179.894531 " transform="matrix(1,0,0,-1,0,216)"/>
<path style=" stroke:none;fill-rule:evenodd;fill:rgb(0%,0%,0%);fill-opacity:1;" d="M 39.902344 19.730469 L 41.148438 19.644531 C 41.207031 20.125 41.347656 20.550781 41.574219 20.863281 C 41.800781 21.175781 42.113281 21.457031 42.59375 21.65625 C 43.046875 21.855469 43.558594 21.9375 44.125 21.9375 C 44.636719 21.9375 45.0625 21.855469 45.457031 21.714844 C 45.855469 21.570312 46.136719 21.371094 46.335938 21.089844 C 46.507812 20.835938 46.617188 20.550781 46.617188 20.238281 C 46.617188 19.929688 46.507812 19.644531 46.335938 19.417969 C 46.136719 19.191406 45.855469 18.992188 45.429688 18.824219 C 45.175781 18.710938 44.578125 18.566406 43.644531 18.34375 C 42.738281 18.113281 42.085938 17.917969 41.714844 17.71875 C 41.234375 17.464844 40.867188 17.152344 40.640625 16.78125 C 40.414062 16.414062 40.300781 15.988281 40.300781 15.535156 C 40.300781 15.027344 40.441406 14.546875 40.726562 14.121094 C 41.007812 13.667969 41.433594 13.328125 41.972656 13.101562 C 42.539062 12.875 43.132812 12.761719 43.8125 12.761719 C 44.550781 12.761719 45.203125 12.902344 45.796875 13.128906 C 46.363281 13.355469 46.789062 13.722656 47.101562 14.175781 C 47.382812 14.660156 47.554688 15.167969 47.582031 15.765625 L 46.308594 15.847656 C 46.25 15.226562 46.023438 14.742188 45.628906 14.433594 C 45.230469 14.09375 44.636719 13.949219 43.871094 13.949219 C 43.078125 13.949219 42.480469 14.09375 42.113281 14.375 C 41.746094 14.6875 41.574219 15.027344 41.574219 15.453125 C 41.574219 15.792969 41.6875 16.105469 41.972656 16.328125 C 42.226562 16.558594 42.878906 16.8125 43.953125 17.039062 C 45.03125 17.292969 45.769531 17.492188 46.164062 17.691406 C 46.761719 17.945312 47.1875 18.285156 47.46875 18.710938 C 47.753906 19.105469 47.894531 19.589844 47.894531 20.125 C 47.894531 20.664062 47.726562 21.175781 47.441406 21.628906 C 47.128906 22.109375 46.675781 22.476562 46.109375 22.734375 C 45.542969 22.988281 44.890625 23.128906 44.183594 23.128906 C 43.273438 23.128906 42.511719 22.988281 41.914062 22.734375 C 41.289062 22.476562 40.808594 22.082031 40.46875 21.542969 C 40.101562 21.003906 39.929688 20.410156 39.902344 19.730469 "/>
<path style=" stroke:none;fill-rule:evenodd;fill:rgb(0%,0%,0%);fill-opacity:1;" d="M 52.175781 21.855469 L 52.371094 22.960938 C 52.003906 23.015625 51.691406 23.042969 51.4375 23.042969 C 50.984375 23.042969 50.644531 22.988281 50.390625 22.847656 C 50.132812 22.703125 49.964844 22.507812 49.878906 22.277344 C 49.765625 22.054688 49.738281 21.570312 49.738281 20.835938 L 49.738281 16.671875 L 48.828125 16.671875 L 48.828125 15.707031 L 49.738281 15.707031 L 49.738281 13.894531 L 50.953125 13.15625 L 50.953125 15.707031 L 52.175781 15.707031 L 52.175781 16.671875 L 50.953125 16.671875 L 50.953125 20.890625 C 50.953125 21.261719 50.953125 21.484375 51.011719 21.570312 C 51.070312 21.683594 51.125 21.769531 51.210938 21.824219 C 51.324219 21.882812 51.464844 21.910156 51.636719 21.910156 C 51.777344 21.910156 51.945312 21.882812 52.175781 21.855469 "/>
<path style=" stroke:none;fill-rule:evenodd;fill:rgb(0%,0%,0%);fill-opacity:1;" d="M 58.125 22.054688 C 57.671875 22.449219 57.21875 22.734375 56.792969 22.875 C 56.367188 23.042969 55.914062 23.128906 55.433594 23.128906 C 54.640625 23.128906 54.042969 22.929688 53.617188 22.535156 C 53.164062 22.136719 52.96875 21.65625 52.96875 21.03125 C 52.96875 20.691406 53.050781 20.351562 53.195312 20.070312 C 53.363281 19.785156 53.589844 19.53125 53.847656 19.359375 C 54.101562 19.191406 54.414062 19.050781 54.726562 18.964844 C 54.980469 18.90625 55.320312 18.824219 55.828125 18.765625 C 56.820312 18.652344 57.558594 18.511719 58.011719 18.34375 C 58.011719 18.171875 58.011719 18.085938 58.011719 18.03125 C 58.011719 17.519531 57.898438 17.179688 57.671875 16.980469 C 57.359375 16.699219 56.878906 16.558594 56.28125 16.558594 C 55.6875 16.558594 55.261719 16.671875 54.980469 16.867188 C 54.726562 17.066406 54.496094 17.433594 54.382812 17.945312 L 53.164062 17.773438 C 53.277344 17.265625 53.476562 16.839844 53.703125 16.527344 C 53.960938 16.21875 54.328125 15.960938 54.808594 15.792969 C 55.261719 15.621094 55.828125 15.535156 56.453125 15.535156 C 57.078125 15.535156 57.585938 15.621094 57.953125 15.765625 C 58.351562 15.90625 58.636719 16.074219 58.804688 16.300781 C 59.003906 16.527344 59.117188 16.8125 59.203125 17.152344 C 59.230469 17.351562 59.257812 17.71875 59.257812 18.285156 L 59.257812 19.929688 C 59.257812 21.0625 59.285156 21.796875 59.34375 22.082031 C 59.402344 22.394531 59.484375 22.675781 59.65625 22.960938 L 58.351562 22.960938 C 58.238281 22.703125 58.152344 22.394531 58.125 22.054688 Z M 58.011719 19.304688 C 57.558594 19.503906 56.90625 19.644531 56 19.785156 C 55.488281 19.84375 55.148438 19.929688 54.921875 20.039062 C 54.726562 20.125 54.554688 20.238281 54.441406 20.4375 C 54.328125 20.609375 54.269531 20.804688 54.269531 21.003906 C 54.269531 21.34375 54.414062 21.601562 54.640625 21.824219 C 54.894531 22.054688 55.261719 22.164062 55.746094 22.164062 C 56.226562 22.164062 56.621094 22.054688 56.992188 21.855469 C 57.359375 21.628906 57.644531 21.34375 57.8125 21.003906 C 57.953125 20.722656 58.011719 20.296875 58.011719 19.757812 "/>
<path style=" stroke:none;fill-rule:evenodd;fill:rgb(0%,0%,0%);fill-opacity:1;" d="M 61.128906 22.960938 L 61.128906 15.707031 L 62.234375 15.707031 L 62.234375 16.8125 C 62.519531 16.273438 62.773438 15.960938 63.027344 15.792969 C 63.253906 15.621094 63.539062 15.535156 63.820312 15.535156 C 64.21875 15.535156 64.644531 15.679688 65.070312 15.933594 L 64.644531 17.066406 C 64.359375 16.898438 64.046875 16.8125 63.738281 16.8125 C 63.480469 16.8125 63.226562 16.898438 63.027344 17.039062 C 62.800781 17.207031 62.660156 17.433594 62.574219 17.71875 C 62.433594 18.171875 62.347656 18.652344 62.347656 19.164062 L 62.347656 22.960938 "/>
<path style=" stroke:none;fill-rule:evenodd;fill:rgb(0%,0%,0%);fill-opacity:1;" d="M 68.46875 21.855469 L 68.667969 22.960938 C 68.300781 23.015625 67.988281 23.042969 67.734375 23.042969 C 67.277344 23.042969 66.9375 22.988281 66.683594 22.847656 C 66.429688 22.703125 66.257812 22.507812 66.175781 22.277344 C 66.0625 22.054688 66.03125 21.570312 66.03125 20.835938 L 66.03125 16.671875 L 65.125 16.671875 L 65.125 15.707031 L 66.03125 15.707031 L 66.03125 13.894531 L 67.25 13.15625 L 67.25 15.707031 L 68.46875 15.707031 L 68.46875 16.671875 L 67.25 16.671875 L 67.25 20.890625 C 67.25 21.261719 67.25 21.484375 67.308594 21.570312 C 67.363281 21.683594 67.421875 21.769531 67.507812 21.824219 C 67.617188 21.882812 67.761719 21.910156 67.929688 21.910156 C 68.074219 21.910156 68.242188 21.882812 68.46875 21.855469 "/>
<path style="fill:none;stroke-width:0.12;stroke-linecap:butt;stroke-linejoin:round;stroke:rgb(0%,0%,0%);stroke-opacity:1;stroke-miterlimit:10;" d="M 341.242188 0.0585938 C 332.570312 0.0585938 323.898438 9.066406 323.898438 18.074219 C 323.898438 27.082031 332.570312 36.0625 341.242188 36.0625 L 414.527344 36.0625 C 423.199219 36.0625 431.902344 27.082031 431.902344 18.074219 C 431.902344 9.066406 423.199219 0.0585938 414.527344 0.0585938 Z M 323.898438 36.0625 Z M 323.898438 36.0625 " transform="matrix(1,0,0,-1,0,216)"/>
<path style=" stroke:none;fill-rule:evenodd;fill:rgb(0%,0%,0%);fill-opacity:1;" d="M 366.550781 202.828125 L 366.550781 192.796875 L 373.804688 192.796875 L 373.804688 193.988281 L 367.882812 193.988281 L 367.882812 197.046875 L 373.40625 197.046875 L 373.40625 198.238281 L 367.882812 198.238281 L 367.882812 201.636719 L 374.03125 201.636719 L 374.03125 202.828125 "/>
<path style=" stroke:none;fill-rule:evenodd;fill:rgb(0%,0%,0%);fill-opacity:1;" d="M 375.730469 202.828125 L 375.730469 195.574219 L 376.835938 195.574219 L 376.835938 196.59375 C 377.347656 195.800781 378.140625 195.402344 379.132812 195.402344 C 379.585938 195.402344 379.984375 195.488281 380.351562 195.632812 C 380.71875 195.800781 380.976562 196 381.171875 196.253906 C 381.34375 196.507812 381.484375 196.820312 381.539062 197.160156 C 381.597656 197.386719 381.625 197.785156 381.625 198.351562 L 381.625 202.828125 L 380.378906 202.828125 L 380.378906 198.40625 C 380.378906 197.898438 380.351562 197.527344 380.238281 197.273438 C 380.152344 197.046875 379.984375 196.847656 379.726562 196.707031 C 379.5 196.535156 379.21875 196.480469 378.878906 196.480469 C 378.367188 196.480469 377.914062 196.652344 377.515625 196.960938 C 377.148438 197.300781 376.949219 197.925781 376.949219 198.859375 L 376.949219 202.828125 "/>
<path style=" stroke:none;fill-rule:evenodd;fill:rgb(0%,0%,0%);fill-opacity:1;" d="M 388.257812 202.828125 L 388.257812 201.921875 C 387.804688 202.628906 387.125 202.996094 386.21875 202.996094 C 385.652344 202.996094 385.113281 202.828125 384.628906 202.515625 C 384.148438 202.203125 383.753906 201.75 383.496094 201.183594 C 383.242188 200.617188 383.101562 199.9375 383.101562 199.199219 C 383.101562 198.492188 383.214844 197.8125 383.46875 197.246094 C 383.695312 196.652344 384.0625 196.195312 384.546875 195.886719 C 385.027344 195.574219 385.566406 195.402344 386.160156 195.402344 C 386.613281 195.402344 386.984375 195.488281 387.324219 195.6875 C 387.664062 195.855469 387.945312 196.113281 388.171875 196.394531 L 388.171875 192.796875 L 389.390625 192.796875 L 389.390625 202.828125 Z M 384.375 199.199219 C 384.375 200.136719 384.546875 200.816406 384.941406 201.296875 C 385.339844 201.75 385.792969 201.976562 386.332031 201.976562 C 386.867188 201.976562 387.324219 201.75 387.71875 201.324219 C 388.089844 200.871094 388.257812 200.21875 388.257812 199.3125 C 388.257812 198.320312 388.089844 197.585938 387.691406 197.132812 C 387.324219 196.652344 386.839844 196.425781 386.273438 196.425781 C 385.734375 196.425781 385.28125 196.652344 384.914062 197.105469 C 384.546875 197.527344 384.375 198.238281 384.375 199.199219 "/>
<path style="fill:none;stroke-width:0.028;stroke-linecap:butt;stroke-linejoin:round;stroke:rgb(0%,0%,0%);stroke-opacity:1;stroke-miterlimit:10;" d="M 54.015625 179.925781 L 54.015625 156.128906 " transform="matrix(1,0,0,-1,0,216)"/>
<path style=" stroke:none;fill-rule:evenodd;fill:rgb(0%,0%,0%);fill-opacity:1;" d="M 54.015625 72.027344 L 58.265625 59.277344 L 49.765625 59.277344 L 54.015625 72.027344 "/>
<path style="fill:none;stroke-width:0.028;stroke-linecap:butt;stroke-linejoin:round;stroke:rgb(0%,0%,0%);stroke-opacity:1;stroke-miterlimit:10;" d="M 108.003906 107.992188 L 135.011719 107.992188 L 135.011719 179.925781 L 149.804688 179.925781 " transform="matrix(1,0,0,-1,0,216)"/>
<path style=" stroke:none;fill-rule:evenodd;fill:rgb(0%,0%,0%);fill-opacity:1;" d="M 161.964844 36.074219 L 149.210938 31.828125 L 149.210938 40.324219 L 161.964844 36.074219 "/>
<path style="fill:none;stroke-width:0.028;stroke-linecap:butt;stroke-linejoin:round;stroke:rgb(0%,0%,0%);stroke-opacity:1;stroke-miterlimit:10;" d="M 215.949219 143.945312 L 215.949219 84.195312 " transform="matrix(1,0,0,-1,0,216)"/>
<path style=" stroke:none;fill-rule:evenodd;fill:rgb(0%,0%,0%);fill-opacity:1;" d="M 215.949219 143.984375 L 220.203125 131.238281 L 211.699219 131.238281 L 215.949219 143.984375 "/>
<path style="fill:none;stroke-width:0.028;stroke-linecap:butt;stroke-linejoin:round;stroke:rgb(0%,0%,0%);stroke-opacity:1;stroke-miterlimit:10;" d="M 269.9375 36.035156 L 296.945312 36.035156 L 296.945312 107.992188 L 311.738281 107.992188 " transform="matrix(1,0,0,-1,0,216)"/>
<path style=" stroke:none;fill-rule:evenodd;fill:rgb(0%,0%,0%);fill-opacity:1;" d="M 323.898438 108.007812 L 311.144531 103.757812 L 311.144531 112.257812 L 323.898438 108.007812 "/>
<path style="fill:none;stroke-width:0.028;stroke-linecap:butt;stroke-linejoin:round;stroke:rgb(0%,0%,0%);stroke-opacity:1;stroke-miterlimit:10;" d="M 377.914062 72.015625 L 377.914062 48.21875 " transform="matrix(1,0,0,-1,0,216)"/>
<path style=" stroke:none;fill-rule:evenodd;fill:rgb(0%,0%,0%);fill-opacity:1;" d="M 377.886719 179.9375 L 382.136719 167.1875 L 373.636719 167.1875 L 377.886719 179.9375 "/>
</g>
</svg>
