<?xml version="1.0" encoding="UTF-8"?>
<!DOCTYPE svg PUBLIC "-//W3C//DTD SVG 1.1//EN" "http://www.w3.org/Graphics/SVG/1.1/DTD/svg11.dtd">
<svg version="1.2" width="120.65mm" height="76.2mm" viewBox="0 0 12065 7620" preserveAspectRatio="xMidYMid" fill-rule="evenodd" clip-path="url(#presentation_clip_path)" stroke-width="28.222" stroke-linejoin="round" xmlns="http://www.w3.org/2000/svg" xmlns:ooo="http://xml.openoffice.org/svg/export" xmlns:xlink="http://www.w3.org/1999/xlink" xml:space="preserve">
 <defs class="ClipPathGroup">
  <clipPath id="presentation_clip_path" clipPathUnits="userSpaceOnUse">
   <rect x="0" y="0" width="12065" height="7620"/>
  </clipPath>
 </defs>
 <defs class="TextShapeIndex">
  <g ooo:slide="id1" ooo:id-list="id3 id4 id5 id6 id7 id8 id9 id10 id11 id12 id13 id14 id15 id16 id17 id18 id19 id20"/>
 </defs>
 <defs class="EmbeddedBulletChars">
  <g id="bullet-char-template(57356)" transform="scale(0.00048828125,-0.00048828125)">
   <path d="M 580,1141 L 1163,571 580,0 -4,571 580,1141 Z"/>
  </g>
  <g id="bullet-char-template(57354)" transform="scale(0.00048828125,-0.00048828125)">
   <path d="M 8,1128 L 1137,1128 1137,0 8,0 8,1128 Z"/>
  </g>
  <g id="bullet-char-template(10146)" transform="scale(0.00048828125,-0.00048828125)">
   <path d="M 174,0 L 602,739 174,1481 1456,739 174,0 Z M 1358,739 L 309,1346 659,739 1358,739 Z"/>
  </g>
  <g id="bullet-char-template(10132)" transform="scale(0.00048828125,-0.00048828125)">
   <path d="M 2015,739 L 1276,0 717,0 1260,543 174,543 174,936 1260,936 717,1481 1274,1481 2015,739 Z"/>
  </g>
  <g id="bullet-char-template(10007)" transform="scale(0.00048828125,-0.00048828125)">
   <path d="M 0,-2 C -7,14 -16,27 -25,37 L 356,567 C 262,823 215,952 215,954 215,979 228,992 255,992 264,992 276,990 289,987 310,991 331,999 354,1012 L 381,999 492,748 772,1049 836,1024 860,1049 C 881,1039 901,1025 922,1006 886,937 835,863 770,784 769,783 710,716 594,584 L 774,223 C 774,196 753,168 711,139 L 727,119 C 717,90 699,76 672,76 641,76 570,178 457,381 L 164,-76 C 142,-110 111,-127 72,-127 30,-127 9,-110 8,-76 1,-67 -2,-52 -2,-32 -2,-23 -1,-13 0,-2 Z"/>
  </g>
  <g id="bullet-char-template(10004)" transform="scale(0.00048828125,-0.00048828125)">
   <path d="M 285,-33 C 182,-33 111,30 74,156 52,228 41,333 41,471 41,549 55,616 82,672 116,743 169,778 240,778 293,778 328,747 346,684 L 369,508 C 377,444 397,411 428,410 L 1163,1116 C 1174,1127 1196,1133 1229,1133 1271,1133 1292,1118 1292,1087 L 1292,965 C 1292,929 1282,901 1262,881 L 442,47 C 390,-6 338,-33 285,-33 Z"/>
  </g>
  <g id="bullet-char-template(9679)" transform="scale(0.00048828125,-0.00048828125)">
   <path d="M 813,0 C 632,0 489,54 383,161 276,268 223,411 223,592 223,773 276,916 383,1023 489,1130 632,1184 813,1184 992,1184 1136,1130 1245,1023 1353,916 1407,772 1407,592 1407,412 1353,268 1245,161 1136,54 992,0 813,0 Z"/>
  </g>
  <g id="bullet-char-template(8226)" transform="scale(0.00048828125,-0.00048828125)">
   <path d="M 346,457 C 273,457 209,483 155,535 101,586 74,649 74,723 74,796 101,859 155,911 209,963 273,989 346,989 419,989 480,963 531,910 582,859 608,796 608,723 608,648 583,586 532,535 482,483 420,457 346,457 Z"/>
  </g>
  <g id="bullet-char-template(8211)" transform="scale(0.00048828125,-0.00048828125)">
   <path d="M -4,459 L 1135,459 1135,606 -4,606 -4,459 Z"/>
  </g>
 </defs>
 <defs class="TextEmbeddedBitmaps"/>
 <g>
  <g id="id2" class="Master_Slide">
   <g id="bg-id2" class="Background"/>
   <g id="bo-id2" class="BackgroundObjects"/>
  </g>
 </g>
 <g class="SlideGroup">
  <g>
   <g id="id1" class="Slide" clip-path="url(#presentation_clip_path)">
    <g class="Page">
     <g class="com.sun.star.drawing.CustomShape">
      <g id="id3">
       <path fill="none" stroke="rgb(0,0,0)" d="M 2541,3563 L 3093,3563"/>
       <path fill="none" stroke="rgb(0,0,0)" d="M 2541,4369 L 3093,4369"/>
       <path fill="none" stroke="rgb(0,0,0)" d="M 2541,3176 L 2541,3176 Z"/>
       <path fill="none" stroke="rgb(0,0,0)" d="M 5542,4757 L 5542,4757 Z"/>
       <path fill="none" stroke="rgb(0,0,0)" d="M 2944,3176 C 3198,3578 3198,4354 2944,4757"/>
       <path fill="none" stroke="rgb(0,0,0)" d="M 2541,3176 L 2541,3176 Z"/>
       <path fill="none" stroke="rgb(0,0,0)" d="M 5542,4757 L 5542,4757 Z"/>
       <path fill="none" stroke="rgb(0,0,0)" d="M 2944,3176 L 3884,3176"/>
       <path fill="none" stroke="rgb(0,0,0)" d="M 2541,3176 L 2541,3176 Z"/>
       <path fill="none" stroke="rgb(0,0,0)" d="M 5542,4757 L 5542,4757 Z"/>
       <path fill="none" stroke="rgb(0,0,0)" d="M 3884,3176 C 4631,3176 5004,3742 5094,3966"/>
       <path fill="none" stroke="rgb(0,0,0)" d="M 2541,3176 L 2541,3176 Z"/>
       <path fill="none" stroke="rgb(0,0,0)" d="M 5542,4757 L 5542,4757 Z"/>
       <path fill="none" stroke="rgb(0,0,0)" d="M 2944,4757 L 3884,4757"/>
       <path fill="none" stroke="rgb(0,0,0)" d="M 2541,3176 L 2541,3176 Z"/>
       <path fill="none" stroke="rgb(0,0,0)" d="M 5542,4757 L 5542,4757 Z"/>
       <path fill="none" stroke="rgb(0,0,0)" d="M 3884,4757 C 4631,4757 5004,4190 5094,3966"/>
       <path fill="none" stroke="rgb(0,0,0)" d="M 2541,3176 L 2541,3176 Z"/>
       <path fill="none" stroke="rgb(0,0,0)" d="M 5542,4757 L 5542,4757 Z"/>
       <path fill="none" stroke="rgb(0,0,0)" d="M 5094,3966 L 5542,3966"/>
       <path fill="none" stroke="rgb(0,0,0)" d="M 2541,3176 L 2541,3176 Z"/>
       <path fill="none" stroke="rgb(0,0,0)" d="M 5542,4757 L 5542,4757 Z"/>
      </g>
     </g>
     <g class="com.sun.star.drawing.CustomShape">
      <g id="id4">
       <path fill="none" stroke="rgb(0,0,0)" d="M 6985,3569 L 7537,3569"/>
       <path fill="none" stroke="rgb(0,0,0)" d="M 6985,4375 L 7537,4375"/>
       <path fill="none" stroke="rgb(0,0,0)" d="M 6985,3182 L 6985,3182 Z"/>
       <path fill="none" stroke="rgb(0,0,0)" d="M 9986,4763 L 9986,4763 Z"/>
       <path fill="none" stroke="rgb(0,0,0)" d="M 7388,3182 C 7642,3584 7642,4360 7388,4763"/>
       <path fill="none" stroke="rgb(0,0,0)" d="M 6985,3182 L 6985,3182 Z"/>
       <path fill="none" stroke="rgb(0,0,0)" d="M 9986,4763 L 9986,4763 Z"/>
       <path fill="none" stroke="rgb(0,0,0)" d="M 7268,3182 C 7522,3584 7522,4360 7268,4763"/>
       <path fill="none" stroke="rgb(0,0,0)" d="M 6985,3182 L 6985,3182 Z"/>
       <path fill="none" stroke="rgb(0,0,0)" d="M 9986,4763 L 9986,4763 Z"/>
       <path fill="none" stroke="rgb(0,0,0)" d="M 7388,3182 L 8328,3182"/>
       <path fill="none" stroke="rgb(0,0,0)" d="M 6985,3182 L 6985,3182 Z"/>
       <path fill="none" stroke="rgb(0,0,0)" d="M 9986,4763 L 9986,4763 Z"/>
       <path fill="none" stroke="rgb(0,0,0)" d="M 8328,3182 C 9075,3182 9448,3748 9538,3972"/>
       <path fill="none" stroke="rgb(0,0,0)" d="M 6985,3182 L 6985,3182 Z"/>
       <path fill="none" stroke="rgb(0,0,0)" d="M 9986,4763 L 9986,4763 Z"/>
       <path fill="none" stroke="rgb(0,0,0)" d="M 7388,4763 L 8328,4763"/>
       <path fill="none" stroke="rgb(0,0,0)" d="M 6985,3182 L 6985,3182 Z"/>
       <path fill="none" stroke="rgb(0,0,0)" d="M 9986,4763 L 9986,4763 Z"/>
       <path fill="none" stroke="rgb(0,0,0)" d="M 8328,4763 C 9075,4763 9448,4196 9538,3972"/>
       <path fill="none" stroke="rgb(0,0,0)" d="M 6985,3182 L 6985,3182 Z"/>
       <path fill="none" stroke="rgb(0,0,0)" d="M 9986,4763 L 9986,4763 Z"/>
       <path fill="none" stroke="rgb(0,0,0)" d="M 9538,3972 L 9986,3972"/>
       <path fill="none" stroke="rgb(0,0,0)" d="M 6985,3182 L 6985,3182 Z"/>
       <path fill="none" stroke="rgb(0,0,0)" d="M 9986,4763 L 9986,4763 Z"/>
      </g>
     </g>
     <g class="com.sun.star.drawing.CustomShape">
      <g id="id5">
       <path fill="none" stroke="rgb(0,0,0)" d="M 7582,636 L 7582,2217 8951,1426 7582,636 Z"/>
       <path fill="none" stroke="rgb(0,0,0)" d="M 6986,636 L 6986,636 Z"/>
       <path fill="none" stroke="rgb(0,0,0)" d="M 9477,2217 L 9477,2217 Z"/>
       <path fill="none" stroke="rgb(0,0,0)" d="M 6986,1426 L 7582,1426"/>
       <path fill="none" stroke="rgb(0,0,0)" d="M 6986,636 L 6986,636 Z"/>
       <path fill="none" stroke="rgb(0,0,0)" d="M 9477,2217 L 9477,2217 Z"/>
       <path fill="none" stroke="rgb(0,0,0)" d="M 9070,1366 C 9103,1366 9129,1392 9129,1425 9129,1458 9103,1484 9070,1484 9037,1484 9011,1458 9011,1425 9011,1392 9037,1366 9070,1366 Z"/>
       <path fill="none" stroke="rgb(0,0,0)" d="M 9190,1426 L 9477,1426"/>
       <path fill="none" stroke="rgb(0,0,0)" d="M 6986,636 L 6986,636 Z"/>
       <path fill="none" stroke="rgb(0,0,0)" d="M 9477,2217 L 9477,2217 Z"/>
      </g>
     </g>
     <g class="com.sun.star.drawing.CustomShape">
      <g id="id6">
       <path fill="none" stroke="rgb(0,0,0)" d="M 5266,6135 C 5299,6135 5325,6161 5325,6194 5325,6227 5299,6253 5266,6253 5233,6253 5207,6227 5207,6194 5207,6161 5233,6135 5266,6135 Z"/>
       <path fill="none" stroke="rgb(0,0,0)" d="M 2595,5405 L 2595,5405 Z"/>
       <path fill="none" stroke="rgb(0,0,0)" d="M 5716,6986 L 5716,6986 Z"/>
       <path fill="none" stroke="rgb(0,0,0)" d="M 2595,5792 L 3147,5792"/>
       <path fill="none" stroke="rgb(0,0,0)" d="M 2595,6598 L 3147,6598"/>
       <path fill="none" stroke="rgb(0,0,0)" d="M 2595,5405 L 2595,5405 Z"/>
       <path fill="none" stroke="rgb(0,0,0)" d="M 5716,6986 L 5716,6986 Z"/>
       <path fill="none" stroke="rgb(0,0,0)" d="M 2998,5405 C 3252,5807 3252,6583 2998,6986"/>
       <path fill="none" stroke="rgb(0,0,0)" d="M 2595,5405 L 2595,5405 Z"/>
       <path fill="none" stroke="rgb(0,0,0)" d="M 5716,6986 L 5716,6986 Z"/>
       <path fill="none" stroke="rgb(0,0,0)" d="M 2998,5405 L 3938,5405"/>
       <path fill="none" stroke="rgb(0,0,0)" d="M 2595,5405 L 2595,5405 Z"/>
       <path fill="none" stroke="rgb(0,0,0)" d="M 5716,6986 L 5716,6986 Z"/>
       <path fill="none" stroke="rgb(0,0,0)" d="M 3938,5405 C 4685,5405 5058,5971 5148,6195"/>
       <path fill="none" stroke="rgb(0,0,0)" d="M 2595,5405 L 2595,5405 Z"/>
       <path fill="none" stroke="rgb(0,0,0)" d="M 5716,6986 L 5716,6986 Z"/>
       <path fill="none" stroke="rgb(0,0,0)" d="M 2998,6986 L 3938,6986"/>
       <path fill="none" stroke="rgb(0,0,0)" d="M 2595,5405 L 2595,5405 Z"/>
       <path fill="none" stroke="rgb(0,0,0)" d="M 5716,6986 L 5716,6986 Z"/>
       <path fill="none" stroke="rgb(0,0,0)" d="M 3938,6986 C 4685,6986 5058,6419 5148,6195"/>
       <path fill="none" stroke="rgb(0,0,0)" d="M 2595,5405 L 2595,5405 Z"/>
       <path fill="none" stroke="rgb(0,0,0)" d="M 5716,6986 L 5716,6986 Z"/>
       <path fill="none" stroke="rgb(0,0,0)" d="M 5387,6195 L 5716,6195"/>
       <path fill="none" stroke="rgb(0,0,0)" d="M 2595,5405 L 2595,5405 Z"/>
       <path fill="none" stroke="rgb(0,0,0)" d="M 5716,6986 L 5716,6986 Z"/>
      </g>
     </g>
     <g class="com.sun.star.drawing.CustomShape">
      <g id="id7">
       <path fill="none" stroke="rgb(0,0,0)" d="M 9656,6135 C 9689,6135 9715,6161 9715,6194 9715,6227 9689,6253 9656,6253 9623,6253 9597,6227 9597,6194 9597,6161 9623,6135 9656,6135 Z"/>
       <path fill="none" stroke="rgb(0,0,0)" d="M 6985,5405 L 6985,5405 Z"/>
       <path fill="none" stroke="rgb(0,0,0)" d="M 10106,6986 L 10106,6986 Z"/>
       <path fill="none" stroke="rgb(0,0,0)" d="M 6985,5792 L 7537,5792"/>
       <path fill="none" stroke="rgb(0,0,0)" d="M 6985,6598 L 7537,6598"/>
       <path fill="none" stroke="rgb(0,0,0)" d="M 6985,5405 L 6985,5405 Z"/>
       <path fill="none" stroke="rgb(0,0,0)" d="M 10106,6986 L 10106,6986 Z"/>
       <path fill="none" stroke="rgb(0,0,0)" d="M 7388,5405 C 7642,5807 7642,6583 7388,6986"/>
       <path fill="none" stroke="rgb(0,0,0)" d="M 6985,5405 L 6985,5405 Z"/>
       <path fill="none" stroke="rgb(0,0,0)" d="M 10106,6986 L 10106,6986 Z"/>
       <path fill="none" stroke="rgb(0,0,0)" d="M 7269,5405 C 7522,5807 7522,6583 7269,6986"/>
       <path fill="none" stroke="rgb(0,0,0)" d="M 6985,5405 L 6985,5405 Z"/>
       <path fill="none" stroke="rgb(0,0,0)" d="M 10106,6986 L 10106,6986 Z"/>
       <path fill="none" stroke="rgb(0,0,0)" d="M 7388,5405 L 8328,5405"/>
       <path fill="none" stroke="rgb(0,0,0)" d="M 6985,5405 L 6985,5405 Z"/>
       <path fill="none" stroke="rgb(0,0,0)" d="M 10106,6986 L 10106,6986 Z"/>
       <path fill="none" stroke="rgb(0,0,0)" d="M 8328,5405 C 9075,5405 9448,5971 9538,6195"/>
       <path fill="none" stroke="rgb(0,0,0)" d="M 6985,5405 L 6985,5405 Z"/>
       <path fill="none" stroke="rgb(0,0,0)" d="M 10106,6986 L 10106,6986 Z"/>
       <path fill="none" stroke="rgb(0,0,0)" d="M 7388,6986 L 8328,6986"/>
       <path fill="none" stroke="rgb(0,0,0)" d="M 6985,5405 L 6985,5405 Z"/>
       <path fill="none" stroke="rgb(0,0,0)" d="M 10106,6986 L 10106,6986 Z"/>
       <path fill="none" stroke="rgb(0,0,0)" d="M 8328,6986 C 9075,6986 9448,6419 9538,6195"/>
       <path fill="none" stroke="rgb(0,0,0)" d="M 6985,5405 L 6985,5405 Z"/>
       <path fill="none" stroke="rgb(0,0,0)" d="M 10106,6986 L 10106,6986 Z"/>
       <path fill="none" stroke="rgb(0,0,0)" d="M 9777,6195 L 10106,6195"/>
       <path fill="none" stroke="rgb(0,0,0)" d="M 6985,5405 L 6985,5405 Z"/>
       <path fill="none" stroke="rgb(0,0,0)" d="M 10106,6986 L 10106,6986 Z"/>
      </g>
     </g>
     <g class="com.sun.star.drawing.CustomShape">
      <g id="id8">
       <text class="TextShape"><tspan class="TextParagraph" font-family="Arial, sans-serif" font-size="494px" font-weight="400"><tspan class="TextPosition" x="749" y="1440"><tspan fill="rgb(0,0,0)" stroke="none">AND</tspan></tspan></tspan></text>
      </g>
     </g>
     <g class="com.sun.star.drawing.CustomShape">
      <g id="id9">
       <text class="TextShape"><tspan class="TextParagraph" font-family="Arial, sans-serif" font-size="494px" font-weight="400"><tspan class="TextPosition" x="900" y="4139"><tspan fill="rgb(0,0,0)" stroke="none">OR</tspan></tspan></tspan></text>
      </g>
     </g>
     <g class="com.sun.star.drawing.CustomShape">
      <g id="id10">
       <text class="TextShape"><tspan class="TextParagraph" font-family="Arial, sans-serif" font-size="494px" font-weight="400"><tspan class="TextPosition" x="722" y="6203"><tspan fill="rgb(0,0,0)" stroke="none">NOR</tspan></tspan></tspan></text>
      </g>
     </g>
     <g class="com.sun.star.drawing.CustomShape">
      <g id="id11">
       <text class="TextShape"><tspan class="TextParagraph" font-family="Arial, sans-serif" font-size="494px" font-weight="400"><tspan class="TextPosition" x="10274" y="1440"><tspan fill="rgb(0,0,0)" stroke="none">NOT</tspan></tspan></tspan></text>
      </g>
     </g>
     <g class="com.sun.star.drawing.CustomShape">
      <g id="id12">
       <text class="TextShape"><tspan class="TextParagraph" font-family="Arial, sans-serif" font-size="494px" font-weight="400"><tspan class="TextPosition" x="10417" y="3980"><tspan fill="rgb(0,0,0)" stroke="none">XOR</tspan></tspan></tspan></text>
      </g>
     </g>
     <g class="com.sun.star.drawing.CustomShape">
      <g id="id13">
       <text class="TextShape"><tspan class="TextParagraph" font-family="Arial, sans-serif" font-size="494px" font-weight="400"><tspan class="TextPosition" x="10239" y="6203"><tspan fill="rgb(0,0,0)" stroke="none">XNOR</tspan></tspan></tspan></text>
      </g>
     </g>
     <g class="Group">
      <g class="com.sun.star.drawing.LineShape">
       <g id="id14">
        <path fill="none" stroke="rgb(0,0,0)" d="M 3016,793 L 3016,2380"/>
       </g>
      </g>
      <g class="com.sun.star.drawing.LineShape">
       <g id="id15">
        <path fill="none" stroke="rgb(0,0,0)" d="M 4286,2381 L 3016,2381"/>
       </g>
      </g>
      <g class="com.sun.star.drawing.LineShape">
       <g id="id16">
        <path fill="none" stroke="rgb(0,0,0)" d="M 4286,793 L 3016,793"/>
       </g>
      </g>
      <g class="com.sun.star.drawing.LineShape">
       <g id="id17">
        <path fill="none" stroke="rgb(0,0,0)" d="M 5556,1587 L 5080,1587"/>
       </g>
      </g>
      <g class="com.sun.star.drawing.LineShape">
       <g id="id18">
        <path fill="none" stroke="rgb(0,0,0)" d="M 2540,2063 L 3016,2063"/>
       </g>
      </g>
      <g class="com.sun.star.drawing.LineShape">
       <g id="id19">
        <path fill="none" stroke="rgb(0,0,0)" d="M 2540,1270 L 3016,1270"/>
       </g>
      </g>
      <g class="com.sun.star.drawing.OpenBezierShape">
       <g id="id20">
        <path fill="none" stroke="rgb(0,0,0)" d="M 4286,793 C 6072,1587 4286,2381 4286,2381"/>
       </g>
      </g>
     </g>
    </g>
   </g>
  </g>
 </g>
</svg>