<?xml version="1.0" encoding="UTF-8"?>
<!DOCTYPE svg PUBLIC "-//W3C//DTD SVG 1.1//EN" "http://www.w3.org/Graphics/SVG/1.1/DTD/svg11.dtd">
<svg version="1.2" width="76.2mm" height="38.1mm" viewBox="0 0 7620 3810" preserveAspectRatio="xMidYMid" fill-rule="evenodd" clip-path="url(#presentation_clip_path)" stroke-width="28.222" stroke-linejoin="round" xmlns="http://www.w3.org/2000/svg" xmlns:ooo="http://xml.openoffice.org/svg/export" xmlns:xlink="http://www.w3.org/1999/xlink" xml:space="preserve">
 <defs class="ClipPathGroup">
  <clipPath id="presentation_clip_path" clipPathUnits="userSpaceOnUse">
   <rect x="0" y="0" width="7620" height="3810"/>
  </clipPath>
 </defs>
 <defs class="TextShapeIndex">
  <g ooo:slide="id1" ooo:id-list="id3 id4 id5 id6 id7 id8 id9 id10 id11 id12 id13 id14 id15 id16 id17 id18 id19 id20 id21 id22 id23 id24 id25 id26 id27 id28 id29 id30 id31 id32 id33 id34 id35 id36 id37 id38 id39 id40 id41 id42 id43 id44 id45 id46 id47 id48"/>
 </defs>
 <defs class="EmbeddedBulletChars">
  <g id="bullet-char-template(57356)" transform="scale(0.00048828125,-0.00048828125)">
   <path d="M 580,1141 L 1163,571 580,0 -4,571 580,1141 Z"/>
  </g>
  <g id="bullet-char-template(57354)" transform="scale(0.00048828125,-0.00048828125)">
   <path d="M 8,1128 L 1137,1128 1137,0 8,0 8,1128 Z"/>
  </g>
  <g id="bullet-char-template(10146)" transform="scale(0.00048828125,-0.00048828125)">
   <path d="M 174,0 L 602,739 174,1481 1456,739 174,0 Z M 1358,739 L 309,1346 659,739 1358,739 Z"/>
  </g>
  <g id="bullet-char-template(10132)" transform="scale(0.00048828125,-0.00048828125)">
   <path d="M 2015,739 L 1276,0 717,0 1260,543 174,543 174,936 1260,936 717,1481 1274,1481 2015,739 Z"/>
  </g>
  <g id="bullet-char-template(10007)" transform="scale(0.00048828125,-0.00048828125)">
   <path d="M 0,-2 C -7,14 -16,27 -25,37 L 356,567 C 262,823 215,952 215,954 215,979 228,992 255,992 264,992 276,990 289,987 310,991 331,999 354,1012 L 381,999 492,748 772,1049 836,1024 860,1049 C 881,1039 901,1025 922,1006 886,937 835,863 770,784 769,783 710,716 594,584 L 774,223 C 774,196 753,168 711,139 L 727,119 C 717,90 699,76 672,76 641,76 570,178 457,381 L 164,-76 C 142,-110 111,-127 72,-127 30,-127 9,-110 8,-76 1,-67 -2,-52 -2,-32 -2,-23 -1,-13 0,-2 Z"/>
  </g>
  <g id="bullet-char-template(10004)" transform="scale(0.00048828125,-0.00048828125)">
   <path d="M 285,-33 C 182,-33 111,30 74,156 52,228 41,333 41,471 41,549 55,616 82,672 116,743 169,778 240,778 293,778 328,747 346,684 L 369,508 C 377,444 397,411 428,410 L 1163,1116 C 1174,1127 1196,1133 1229,1133 1271,1133 1292,1118 1292,1087 L 1292,965 C 1292,929 1282,901 1262,881 L 442,47 C 390,-6 338,-33 285,-33 Z"/>
  </g>
  <g id="bullet-char-template(9679)" transform="scale(0.00048828125,-0.00048828125)">
   <path d="M 813,0 C 632,0 489,54 383,161 276,268 223,411 223,592 223,773 276,916 383,1023 489,1130 632,1184 813,1184 992,1184 1136,1130 1245,1023 1353,916 1407,772 1407,592 1407,412 1353,268 1245,161 1136,54 992,0 813,0 Z"/>
  </g>
  <g id="bullet-char-template(8226)" transform="scale(0.00048828125,-0.00048828125)">
   <path d="M 346,457 C 273,457 209,483 155,535 101,586 74,649 74,723 74,796 101,859 155,911 209,963 273,989 346,989 419,989 480,963 531,910 582,859 608,796 608,723 608,648 583,586 532,535 482,483 420,457 346,457 Z"/>
  </g>
  <g id="bullet-char-template(8211)" transform="scale(0.00048828125,-0.00048828125)">
   <path d="M -4,459 L 1135,459 1135,606 -4,606 -4,459 Z"/>
  </g>
 </defs>
 <defs class="TextEmbeddedBitmaps"/>
 <g>
  <g id="id2" class="Master_Slide">
   <g id="bg-id2" class="Background"/>
   <g id="bo-id2" class="BackgroundObjects"/>
  </g>
 </g>
 <g class="SlideGroup">
  <g>
   <g id="id1" class="Slide" clip-path="url(#presentation_clip_path)">
    <g class="Page">
     <g class="Group">
      <g class="com.sun.star.drawing.RectangleShape">
       <g id="id3">
        <path fill="none" stroke="rgb(0,0,0)" d="M 4716,758 L 4341,758 4341,508 5091,508 5091,758 4716,758 Z"/>
       </g>
      </g>
      <g class="com.sun.star.drawing.LineShape">
       <g id="id4">
        <path fill="none" stroke="rgb(0,0,0)" d="M 4091,633 L 4341,633"/>
       </g>
      </g>
      <g class="com.sun.star.drawing.LineShape">
       <g id="id5">
        <path fill="none" stroke="rgb(0,0,0)" d="M 5091,633 L 5341,633"/>
       </g>
      </g>
     </g>
     <g class="Group">
      <g class="com.sun.star.drawing.RectangleShape">
       <g id="id6">
        <path fill="none" stroke="rgb(0,0,0)" d="M 1922,2028 L 1547,2028 1547,1778 2297,1778 2297,2028 1922,2028 Z"/>
       </g>
      </g>
      <g class="com.sun.star.drawing.LineShape">
       <g id="id7">
        <path fill="none" stroke="rgb(0,0,0)" d="M 1297,1903 L 1547,1903"/>
       </g>
      </g>
      <g class="com.sun.star.drawing.LineShape">
       <g id="id8">
        <path fill="none" stroke="rgb(0,0,0)" d="M 2297,1903 L 2547,1903"/>
       </g>
      </g>
     </g>
     <g class="Group">
      <g class="com.sun.star.drawing.LineShape">
       <g id="id9">
        <path fill="none" stroke="rgb(0,0,0)" d="M 637,2536 L 637,2286"/>
       </g>
      </g>
      <g class="com.sun.star.drawing.LineShape">
       <g id="id10">
        <path fill="none" stroke="rgb(0,0,0)" d="M 762,2536 L 512,2536"/>
       </g>
      </g>
      <g class="com.sun.star.drawing.LineShape">
       <g id="id11">
        <path fill="none" stroke="rgb(0,0,0)" d="M 637,2661 L 762,2536"/>
       </g>
      </g>
      <g class="com.sun.star.drawing.LineShape">
       <g id="id12">
        <path fill="none" stroke="rgb(0,0,0)" d="M 637,2661 L 512,2536"/>
       </g>
      </g>
     </g>
     <g class="com.sun.star.drawing.ConnectorShape">
      <g id="id13">
       <path fill="none" stroke="rgb(52,101,175)" d="M 5844,2032 L 5844,633 5341,633"/>
      </g>
     </g>
     <g class="Group">
      <g class="com.sun.star.drawing.CustomShape">
       <g id="id14">
        <path fill="rgb(255,255,255)" stroke="none" d="M 3300,1778 L 3425,1778 3425,2028 3175,2028 3175,1778 3300,1778 Z"/>
       </g>
      </g>
      <g class="com.sun.star.drawing.LineShape">
       <g id="id15">
        <path fill="none" stroke="rgb(0,0,0)" d="M 3300,1778 L 3300,1903"/>
       </g>
      </g>
      <g class="com.sun.star.drawing.LineShape">
       <g id="id16">
        <path fill="none" stroke="rgb(0,0,0)" d="M 3175,1903 L 3425,1903"/>
       </g>
      </g>
      <g class="com.sun.star.drawing.CustomShape">
       <g id="id17">
        <path fill="rgb(0,0,0)" stroke="none" d="M 3300,1953 C 3328,1953 3350,1931 3350,1903 3350,1875 3328,1853 3300,1853 3272,1853 3250,1875 3250,1903 3250,1931 3272,1953 3300,1953 Z M 3250,1953 L 3250,1953 Z M 3351,1852 L 3351,1852 Z"/>
        <path fill="none" stroke="rgb(0,0,0)" d="M 3300,1953 C 3328,1953 3350,1931 3350,1903 3350,1875 3328,1853 3300,1853 3272,1853 3250,1875 3250,1903 3250,1931 3272,1953 3300,1953 Z"/>
        <path fill="none" stroke="rgb(0,0,0)" d="M 3250,1953 L 3250,1953 Z"/>
        <path fill="none" stroke="rgb(0,0,0)" d="M 3351,1852 L 3351,1852 Z"/>
       </g>
      </g>
     </g>
     <g class="Group">
      <g class="com.sun.star.drawing.LineShape">
       <g id="id18">
        <path fill="none" stroke="rgb(0,0,0)" d="M 3937,2667 L 3937,1651"/>
       </g>
      </g>
      <g class="com.sun.star.drawing.LineShape">
       <g id="id19">
        <path fill="none" stroke="rgb(0,0,0)" d="M 3937,2667 L 4826,2159"/>
       </g>
      </g>
      <g class="com.sun.star.drawing.LineShape">
       <g id="id20">
        <path fill="none" stroke="rgb(0,0,0)" d="M 3937,1651 L 4826,2159"/>
       </g>
      </g>
      <g class="com.sun.star.drawing.PolyPolygonShape">
       <g id="id21">
        <path fill="rgb(0,0,0)" stroke="none" d="M 4133,2421 L 4133,2363 4191,2363 4191,2345 4133,2345 4133,2286 4115,2286 4115,2345 4056,2345 4056,2363 4115,2363 4115,2421 4133,2421 Z"/>
       </g>
      </g>
      <g class="com.sun.star.drawing.PolyPolygonShape">
       <g id="id22">
        <path fill="rgb(0,0,0)" stroke="none" d="M 4064,1905 L 4139,1905 4139,1882 4064,1882 4064,1905 Z"/>
       </g>
      </g>
      <g class="com.sun.star.drawing.LineShape">
       <g id="id23">
        <path fill="none" stroke="rgb(0,0,0)" d="M 3937,1905 L 3683,1905"/>
       </g>
      </g>
      <g class="com.sun.star.drawing.LineShape">
       <g id="id24">
        <path fill="none" stroke="rgb(0,0,0)" d="M 3937,2413 L 3683,2413"/>
       </g>
      </g>
      <g class="com.sun.star.drawing.LineShape">
       <g id="id25">
        <path fill="none" stroke="rgb(0,0,0)" d="M 4826,2159 L 5080,2159"/>
       </g>
      </g>
     </g>
     <g class="com.sun.star.drawing.ConnectorShape">
      <g id="id26">
       <path fill="none" stroke="rgb(52,101,175)" d="M 3300,1778 L 3300,633 4091,633"/>
      </g>
     </g>
     <g class="com.sun.star.drawing.ConnectorShape">
      <g id="id27">
       <path fill="none" stroke="rgb(52,101,175)" d="M 2547,1903 L 3175,1903"/>
      </g>
     </g>
     <g class="com.sun.star.drawing.ConnectorShape">
      <g id="id28">
       <path fill="none" stroke="rgb(52,101,175)" d="M 3685,1905 L 3554,1905 3554,1903 3425,1903"/>
      </g>
     </g>
     <g class="Group">
      <g class="com.sun.star.drawing.EllipseShape">
       <g id="id29">
        <path fill="none" stroke="rgb(0,0,0)" d="M 2333,3095 C 2301,3128 2266,3148 2221,3160 2177,3172 2136,3172 2091,3160 2047,3148 2012,3128 1979,3095 1947,3063 1926,3027 1914,2983 1902,2938 1902,2898 1914,2853 1926,2809 1947,2773 1979,2741 2012,2708 2047,2688 2091,2676 2136,2664 2177,2664 2221,2676 2266,2688 2301,2708 2333,2741 2366,2773 2386,2809 2398,2853 2410,2898 2410,2938 2398,2983 2386,3027 2366,3063 2333,3095 Z"/>
       </g>
      </g>
      <g class="com.sun.star.drawing.LineShape">
       <g id="id30">
        <path fill="none" stroke="rgb(0,0,0)" d="M 1979,2741 L 2334,3096"/>
       </g>
      </g>
      <g class="com.sun.star.drawing.LineShape">
       <g id="id31">
        <path fill="none" stroke="rgb(0,0,0)" d="M 1979,3096 L 2334,2741"/>
       </g>
      </g>
     </g>
     <g class="Group">
      <g class="com.sun.star.drawing.LineShape">
       <g id="id32">
        <path fill="none" stroke="rgb(0,0,0)" d="M 2157,3552 L 2157,3302"/>
       </g>
      </g>
      <g class="com.sun.star.drawing.LineShape">
       <g id="id33">
        <path fill="none" stroke="rgb(0,0,0)" d="M 2282,3552 L 2032,3552"/>
       </g>
      </g>
      <g class="com.sun.star.drawing.LineShape">
       <g id="id34">
        <path fill="none" stroke="rgb(0,0,0)" d="M 2157,3677 L 2282,3552"/>
       </g>
      </g>
      <g class="com.sun.star.drawing.LineShape">
       <g id="id35">
        <path fill="none" stroke="rgb(0,0,0)" d="M 2157,3677 L 2032,3552"/>
       </g>
      </g>
     </g>
     <g class="com.sun.star.drawing.ConnectorShape">
      <g id="id36">
       <path fill="none" stroke="rgb(52,101,175)" d="M 2157,3302 L 2157,3236 2156,3236 2156,3169"/>
      </g>
     </g>
     <g class="com.sun.star.drawing.EllipseShape">
      <g id="id37">
       <path fill="none" stroke="rgb(0,0,0)" d="M 6858,2413 C 6811,2413 6771,2402 6731,2379 6691,2356 6661,2326 6638,2286 6615,2246 6604,2206 6604,2159 6604,2112 6615,2072 6638,2032 6661,1992 6691,1962 6731,1939 6771,1916 6811,1905 6858,1905 6905,1905 6945,1916 6985,1939 7025,1962 7055,1992 7078,2032 7101,2072 7112,2112 7112,2159 7112,2206 7101,2246 7078,2286 7055,2326 7025,2356 6985,2379 6945,2402 6905,2413 6858,2413 Z"/>
       <text class="TextShape"><tspan class="TextParagraph" font-family="Arial, sans-serif" font-size="423px" font-weight="400"><tspan class="TextPosition" x="6610" y="2305"><tspan fill="rgb(0,0,0)" stroke="none">Vo</tspan></tspan></tspan></text>
      </g>
     </g>
     <g class="com.sun.star.drawing.TextShape">
      <g id="id38">
       <text class="TextShape"><tspan class="TextParagraph" font-family="Arial, sans-serif" font-size="423px" font-weight="400"><tspan class="TextPosition" x="2536" y="3087"><tspan fill="rgb(0,0,0)" stroke="none">Vi</tspan></tspan></tspan></text>
      </g>
     </g>
     <g class="Group">
      <g class="com.sun.star.drawing.CustomShape">
       <g id="id39">
        <path fill="rgb(255,255,255)" stroke="none" d="M 5844,2032 L 5969,2032 5969,2282 5719,2282 5719,2032 5844,2032 Z"/>
       </g>
      </g>
      <g class="com.sun.star.drawing.LineShape">
       <g id="id40">
        <path fill="none" stroke="rgb(0,0,0)" d="M 5844,2032 L 5844,2157"/>
       </g>
      </g>
      <g class="com.sun.star.drawing.LineShape">
       <g id="id41">
        <path fill="none" stroke="rgb(0,0,0)" d="M 5719,2157 L 5969,2157"/>
       </g>
      </g>
      <g class="com.sun.star.drawing.CustomShape">
       <g id="id42">
        <path fill="rgb(0,0,0)" stroke="none" d="M 5844,2207 C 5872,2207 5894,2185 5894,2157 5894,2129 5872,2107 5844,2107 5816,2107 5794,2129 5794,2157 5794,2185 5816,2207 5844,2207 Z M 5794,2207 L 5794,2207 Z M 5895,2106 L 5895,2106 Z"/>
        <path fill="none" stroke="rgb(0,0,0)" d="M 5844,2207 C 5872,2207 5894,2185 5894,2157 5894,2129 5872,2107 5844,2107 5816,2107 5794,2129 5794,2157 5794,2185 5816,2207 5844,2207 Z"/>
        <path fill="none" stroke="rgb(0,0,0)" d="M 5794,2207 L 5794,2207 Z"/>
        <path fill="none" stroke="rgb(0,0,0)" d="M 5895,2106 L 5895,2106 Z"/>
       </g>
      </g>
     </g>
     <g class="com.sun.star.drawing.ConnectorShape">
      <g id="id43">
       <path fill="none" stroke="rgb(52,101,175)" d="M 5969,2157 L 6287,2157 6287,2159 6604,2159"/>
      </g>
     </g>
     <g class="com.sun.star.drawing.ConnectorShape">
      <g id="id44">
       <path fill="none" stroke="rgb(52,101,175)" d="M 5080,2159 L 5400,2159 5400,2157 5719,2157"/>
      </g>
     </g>
     <g class="com.sun.star.drawing.TextShape">
      <g id="id45">
       <text class="TextShape"><tspan class="TextParagraph" font-family="Arial, sans-serif" font-size="353px" font-weight="400"><tspan class="TextPosition" x="1774" y="1713"><tspan fill="rgb(0,0,0)" stroke="none">Ri</tspan></tspan></tspan></text>
      </g>
     </g>
     <g class="com.sun.star.drawing.TextShape">
      <g id="id46">
       <text class="TextShape"><tspan class="TextParagraph" font-family="Arial, sans-serif" font-size="353px" font-weight="400"><tspan class="TextPosition" x="4568" y="443"><tspan fill="rgb(0,0,0)" stroke="none">Rf</tspan></tspan></tspan></text>
      </g>
     </g>
     <g class="com.sun.star.drawing.ConnectorShape">
      <g id="id47">
       <path fill="none" stroke="rgb(52,101,175)" d="M 637,2286 L 637,1903 1297,1903"/>
      </g>
     </g>
     <g class="com.sun.star.drawing.ConnectorShape">
      <g id="id48">
       <path fill="none" stroke="rgb(52,101,175)" d="M 2156,2667 L 2156,2413 3045,2413 3045,2413 3685,2413"/>
      </g>
     </g>
    </g>
   </g>
  </g>
 </g>
</svg>