<?xml version="1.0" encoding="utf-8"?>
<!-- Generator: Adobe Illustrator 19.1.0, SVG Export Plug-In . SVG Version: 6.00 Build 0)  -->
<svg version="1.1" xmlns="http://www.w3.org/2000/svg" xmlns:xlink="http://www.w3.org/1999/xlink" x="0px" y="0px"
	 viewBox="0 0 960 560" style="enable-background:new 0 0 960 560;" xml:space="preserve">
<style type="text/css">
	.st0{fill:#FCF8E3;stroke:#DDDDDD;stroke-miterlimit:10;}
	.st1{fill:none;stroke:#DDDDDD;stroke-miterlimit:10;}
	.st2{fill:none;stroke:#A94442;stroke-width:3;stroke-miterlimit:10;}
	.st3{fill:none;stroke:#727272;stroke-width:3;stroke-miterlimit:10;}
	.st4{fill:#44546A;}
	.st5{font-family:'Arial-Black';}
	.st6{font-size:30.6952px;}
</style>
<g id="Layer_2">
	<rect x="213.5" y="133" class="st0" width="535" height="297.5"/>
	<path class="st1" d="M246.1,133.9C246,232,246,331,246.1,428.8"/>
	<path class="st1" d="M284.6,133.9C285,232,285,331,284.8,428.8"/>
	<path class="st1" d="M323.1,133.9C323,232,323,331,323,428.8"/>
	<path class="st1" d="M361.5,133.9C362,232,362,331,361.8,428.8"/>
	<path class="st1" d="M400,133.9c0,98.1,0,197.1,0,294.9"/>
	<path class="st1" d="M438.4,133.9C438,232,438,331,438.2,428.8"/>
	<path class="st1" d="M476.9,133.9C477,232,477,331,477,428.8"/>
	<path class="st1" d="M515.3,133.9C515,232,515,331,515.1,428.8"/>
	<path class="st1" d="M553.8,133.9C554,232,554,331,553.9,428.8"/>
	<path class="st1" d="M592.2,133.9C592,232,592,331,592.1,428.8"/>
	<path class="st1" d="M630.7,133.9C631,232,631,331,630.9,428.8"/>
	<path class="st1" d="M669.2,133.9C669,232,669,331,669.1,428.8"/>
	<path class="st1" d="M707.6,133.9C708,232,708,331,707.8,428.8"/>
	<line class="st1" x1="213.5" y1="133" x2="748.5" y2="133"/>
	<line class="st1" x1="213.5" y1="170.2" x2="748.5" y2="170.2"/>
	<line class="st1" x1="213.5" y1="207.3" x2="748.5" y2="207.3"/>
	<line class="st1" x1="213.5" y1="244.5" x2="748.5" y2="244.5"/>
	<line class="st1" x1="213.5" y1="281.7" x2="748.5" y2="281.7"/>
	<line class="st1" x1="213.5" y1="318.8" x2="748.5" y2="318.8"/>
	<line class="st1" x1="213.5" y1="356" x2="748.5" y2="356"/>
	<line class="st1" x1="213.5" y1="393.2" x2="748.5" y2="393.2"/>
	<line class="st1" x1="213.5" y1="430.3" x2="748.5" y2="430.3"/>
</g>
<g id="Layer_4">
	<line class="st2" x1="316.6" y1="302.7" x2="316.6" y2="290.5"/>
	<polyline class="st3" points="637.1,326 637.1,368 316.6,368 316.6,302.7 	"/>
	<line class="st2" x1="637.1" y1="311.9" x2="637.1" y2="326"/>
	<line class="st2" x1="637.1" y1="236.3" x2="637.1" y2="248.1"/>
	<polyline class="st3" points="316.6,256.7 316.6,202.7 637.1,202.7 637.1,236.3 	"/>
	<line class="st2" x1="316.6" y1="270.5" x2="316.6" y2="256.7"/>
	<rect x="627.1" y="248.1" class="st2" width="20" height="63.8"/>
	<line class="st2" x1="290" y1="270.5" x2="342" y2="270.5"/>
	<line class="st2" x1="303" y1="290.5" x2="329" y2="290.5"/>
	<text transform="matrix(0.8691 0 0 1 238.9786 290.709)" class="st4 st5 st6">Vs</text>
	<text transform="matrix(0.8691 0 0 1 661.6453 290.709)" class="st4 st5 st6">R1</text>
</g>
</svg>
