<?xml version="1.0" encoding="UTF-8"?>
<!DOCTYPE svg PUBLIC "-//W3C//DTD SVG 1.1//EN" "http://www.w3.org/Graphics/SVG/1.1/DTD/svg11.dtd">
<svg version="1.2" width="234.95mm" height="158.75mm" viewBox="0 0 23495 15875" preserveAspectRatio="xMidYMid" fill-rule="evenodd" clip-path="url(#presentation_clip_path)" stroke-width="28.222" stroke-linejoin="round" xmlns="http://www.w3.org/2000/svg" xmlns:ooo="http://xml.openoffice.org/svg/export" xmlns:xlink="http://www.w3.org/1999/xlink" xml:space="preserve">
 <defs class="ClipPathGroup">
  <clipPath id="presentation_clip_path" clipPathUnits="userSpaceOnUse">
   <rect x="0" y="0" width="23495" height="15875"/>
  </clipPath>
 </defs>
 <defs class="TextShapeIndex">
  <g ooo:slide="id1" ooo:id-list="id3 id4 id5 id6 id7 id8 id9 id10 id11 id12 id13 id14 id15 id16 id17 id18 id19 id20 id21 id22 id23 id24 id25 id26 id27 id28 id29 id30 id31 id32 id33 id34 id35 id36 id37 id38 id39 id40 id41 id42 id43 id44 id45 id46 id47 id48 id49 id50 id51 id52 id53 id54 id55 id56 id57 id58 id59 id60"/>
 </defs>
 <defs class="EmbeddedBulletChars">
  <g id="bullet-char-template(57356)" transform="scale(0.00048828125,-0.00048828125)">
   <path d="M 580,1141 L 1163,571 580,0 -4,571 580,1141 Z"/>
  </g>
  <g id="bullet-char-template(57354)" transform="scale(0.00048828125,-0.00048828125)">
   <path d="M 8,1128 L 1137,1128 1137,0 8,0 8,1128 Z"/>
  </g>
  <g id="bullet-char-template(10146)" transform="scale(0.00048828125,-0.00048828125)">
   <path d="M 174,0 L 602,739 174,1481 1456,739 174,0 Z M 1358,739 L 309,1346 659,739 1358,739 Z"/>
  </g>
  <g id="bullet-char-template(10132)" transform="scale(0.00048828125,-0.00048828125)">
   <path d="M 2015,739 L 1276,0 717,0 1260,543 174,543 174,936 1260,936 717,1481 1274,1481 2015,739 Z"/>
  </g>
  <g id="bullet-char-template(10007)" transform="scale(0.00048828125,-0.00048828125)">
   <path d="M 0,-2 C -7,14 -16,27 -25,37 L 356,567 C 262,823 215,952 215,954 215,979 228,992 255,992 264,992 276,990 289,987 310,991 331,999 354,1012 L 381,999 492,748 772,1049 836,1024 860,1049 C 881,1039 901,1025 922,1006 886,937 835,863 770,784 769,783 710,716 594,584 L 774,223 C 774,196 753,168 711,139 L 727,119 C 717,90 699,76 672,76 641,76 570,178 457,381 L 164,-76 C 142,-110 111,-127 72,-127 30,-127 9,-110 8,-76 1,-67 -2,-52 -2,-32 -2,-23 -1,-13 0,-2 Z"/>
  </g>
  <g id="bullet-char-template(10004)" transform="scale(0.00048828125,-0.00048828125)">
   <path d="M 285,-33 C 182,-33 111,30 74,156 52,228 41,333 41,471 41,549 55,616 82,672 116,743 169,778 240,778 293,778 328,747 346,684 L 369,508 C 377,444 397,411 428,410 L 1163,1116 C 1174,1127 1196,1133 1229,1133 1271,1133 1292,1118 1292,1087 L 1292,965 C 1292,929 1282,901 1262,881 L 442,47 C 390,-6 338,-33 285,-33 Z"/>
  </g>
  <g id="bullet-char-template(9679)" transform="scale(0.00048828125,-0.00048828125)">
   <path d="M 813,0 C 632,0 489,54 383,161 276,268 223,411 223,592 223,773 276,916 383,1023 489,1130 632,1184 813,1184 992,1184 1136,1130 1245,1023 1353,916 1407,772 1407,592 1407,412 1353,268 1245,161 1136,54 992,0 813,0 Z"/>
  </g>
  <g id="bullet-char-template(8226)" transform="scale(0.00048828125,-0.00048828125)">
   <path d="M 346,457 C 273,457 209,483 155,535 101,586 74,649 74,723 74,796 101,859 155,911 209,963 273,989 346,989 419,989 480,963 531,910 582,859 608,796 608,723 608,648 583,586 532,535 482,483 420,457 346,457 Z"/>
  </g>
  <g id="bullet-char-template(8211)" transform="scale(0.00048828125,-0.00048828125)">
   <path d="M -4,459 L 1135,459 1135,606 -4,606 -4,459 Z"/>
  </g>
 </defs>
 <defs class="TextEmbeddedBitmaps"/>
 <g>
  <g id="id2" class="Master_Slide">
   <g id="bg-id2" class="Background"/>
   <g id="bo-id2" class="BackgroundObjects"/>
  </g>
 </g>
 <g class="SlideGroup">
  <g>
   <g id="id1" class="Slide" clip-path="url(#presentation_clip_path)">
    <g class="Page">
     <g class="com.sun.star.drawing.RectangleShape">
      <g id="id3">
       <path fill="none" stroke="rgb(0,0,0)" d="M 1870,8666 L 776,8666 776,8031 2963,8031 2963,8666 1870,8666 Z"/>
       <text class="TextShape"><tspan class="TextParagraph" font-family="Century Gothic, sans-serif" font-size="494px" font-weight="400"><tspan class="TextPosition" x="1649" y="8520"><tspan fill="rgb(0,0,0)" stroke="none">r0</tspan></tspan></tspan></text>
      </g>
     </g>
     <g class="com.sun.star.drawing.RectangleShape">
      <g id="id4">
       <path fill="none" stroke="rgb(0,0,0)" d="M 1870,8031 L 776,8031 776,7396 2963,7396 2963,8031 1870,8031 Z"/>
       <text class="TextShape"><tspan class="TextParagraph" font-family="Century Gothic, sans-serif" font-size="494px" font-weight="400"><tspan class="TextPosition" x="1649" y="7885"><tspan fill="rgb(0,0,0)" stroke="none">r1</tspan></tspan></tspan></text>
      </g>
     </g>
     <g class="com.sun.star.drawing.RectangleShape">
      <g id="id5">
       <path fill="none" stroke="rgb(0,0,0)" d="M 1870,7396 L 776,7396 776,6761 2963,6761 2963,7396 1870,7396 Z"/>
       <text class="TextShape"><tspan class="TextParagraph" font-family="Century Gothic, sans-serif" font-size="494px" font-weight="400"><tspan class="TextPosition" x="1649" y="7250"><tspan fill="rgb(0,0,0)" stroke="none">r2</tspan></tspan></tspan></text>
      </g>
     </g>
     <g class="com.sun.star.drawing.RectangleShape">
      <g id="id6">
       <path fill="none" stroke="rgb(0,0,0)" d="M 1870,6761 L 776,6761 776,6126 2963,6126 2963,6761 1870,6761 Z"/>
       <text class="TextShape"><tspan class="TextParagraph" font-family="Century Gothic, sans-serif" font-size="494px" font-weight="400"><tspan class="TextPosition" x="1649" y="6615"><tspan fill="rgb(0,0,0)" stroke="none">r3</tspan></tspan></tspan></text>
      </g>
     </g>
     <g class="com.sun.star.drawing.RectangleShape">
      <g id="id7">
       <path fill="none" stroke="rgb(0,0,0)" d="M 1870,6126 L 776,6126 776,5491 2963,5491 2963,6126 1870,6126 Z"/>
       <text class="TextShape"><tspan class="TextParagraph" font-family="Century Gothic, sans-serif" font-size="494px" font-weight="400"><tspan class="TextPosition" x="1512" y="5980"><tspan fill="rgb(0,0,0)" stroke="none">r12</tspan></tspan></tspan></text>
      </g>
     </g>
     <g class="com.sun.star.drawing.RectangleShape">
      <g id="id8">
       <path fill="none" stroke="rgb(0,0,0)" d="M 1870,5491 L 776,5491 776,4856 2963,4856 2963,5491 1870,5491 Z"/>
       <text class="TextShape"><tspan class="TextParagraph" font-family="Century Gothic, sans-serif" font-size="494px" font-weight="400"><tspan class="TextPosition" x="1554" y="5345"><tspan fill="rgb(0,0,0)" stroke="none">LR</tspan></tspan></tspan></text>
      </g>
     </g>
     <g class="com.sun.star.drawing.RectangleShape">
      <g id="id9">
       <path fill="none" stroke="rgb(0,0,0)" d="M 1870,4856 L 776,4856 776,4221 2963,4221 2963,4856 1870,4856 Z"/>
       <text class="TextShape"><tspan class="TextParagraph" font-family="Century Gothic, sans-serif" font-size="494px" font-weight="400"><tspan class="TextPosition" x="1526" y="4710"><tspan fill="rgb(0,0,0)" stroke="none">PC</tspan></tspan></tspan></text>
      </g>
     </g>
     <g class="com.sun.star.drawing.RectangleShape">
      <g id="id10">
       <path fill="none" stroke="rgb(0,0,0)" d="M 1870,4221 L 776,4221 776,3586 2963,3586 2963,4221 1870,4221 Z"/>
       <text class="TextShape"><tspan class="TextParagraph" font-family="Century Gothic, sans-serif" font-size="494px" font-weight="400"><tspan class="TextPosition" x="1238" y="4075"><tspan fill="rgb(0,0,0)" stroke="none">xPSR</tspan></tspan></tspan></text>
      </g>
     </g>
     <g class="com.sun.star.drawing.RectangleShape">
      <g id="id11">
       <path fill="none" stroke="rgb(0,0,0)" d="M 1870,13746 L 776,13746 776,13111 2963,13111 2963,13746 1870,13746 Z"/>
       <text class="TextShape"><tspan class="TextParagraph" font-family="Century Gothic, sans-serif" font-size="494px" font-weight="400"><tspan class="TextPosition" x="1649" y="13600"><tspan fill="rgb(0,0,0)" stroke="none">r4</tspan></tspan></tspan></text>
      </g>
     </g>
     <g class="com.sun.star.drawing.RectangleShape">
      <g id="id12">
       <path fill="none" stroke="rgb(0,0,0)" d="M 1870,13111 L 776,13111 776,12476 2963,12476 2963,13111 1870,13111 Z"/>
       <text class="TextShape"><tspan class="TextParagraph" font-family="Century Gothic, sans-serif" font-size="494px" font-weight="400"><tspan class="TextPosition" x="1649" y="12965"><tspan fill="rgb(0,0,0)" stroke="none">r5</tspan></tspan></tspan></text>
      </g>
     </g>
     <g class="com.sun.star.drawing.RectangleShape">
      <g id="id13">
       <path fill="none" stroke="rgb(0,0,0)" d="M 1870,12476 L 776,12476 776,11841 2963,11841 2963,12476 1870,12476 Z"/>
       <text class="TextShape"><tspan class="TextParagraph" font-family="Century Gothic, sans-serif" font-size="494px" font-weight="400"><tspan class="TextPosition" x="1649" y="12330"><tspan fill="rgb(0,0,0)" stroke="none">r6</tspan></tspan></tspan></text>
      </g>
     </g>
     <g class="com.sun.star.drawing.RectangleShape">
      <g id="id14">
       <path fill="none" stroke="rgb(0,0,0)" d="M 1870,11841 L 776,11841 776,11206 2963,11206 2963,11841 1870,11841 Z"/>
       <text class="TextShape"><tspan class="TextParagraph" font-family="Century Gothic, sans-serif" font-size="494px" font-weight="400"><tspan class="TextPosition" x="1649" y="11695"><tspan fill="rgb(0,0,0)" stroke="none">r7</tspan></tspan></tspan></text>
      </g>
     </g>
     <g class="com.sun.star.drawing.RectangleShape">
      <g id="id15">
       <path fill="none" stroke="rgb(0,0,0)" d="M 1870,11206 L 776,11206 776,10571 2963,10571 2963,11206 1870,11206 Z"/>
       <text class="TextShape"><tspan class="TextParagraph" font-family="Century Gothic, sans-serif" font-size="494px" font-weight="400"><tspan class="TextPosition" x="1649" y="11060"><tspan fill="rgb(0,0,0)" stroke="none">r8</tspan></tspan></tspan></text>
      </g>
     </g>
     <g class="com.sun.star.drawing.RectangleShape">
      <g id="id16">
       <path fill="none" stroke="rgb(0,0,0)" d="M 1870,10571 L 776,10571 776,9936 2963,9936 2963,10571 1870,10571 Z"/>
       <text class="TextShape"><tspan class="TextParagraph" font-family="Century Gothic, sans-serif" font-size="494px" font-weight="400"><tspan class="TextPosition" x="1649" y="10425"><tspan fill="rgb(0,0,0)" stroke="none">r9</tspan></tspan></tspan></text>
      </g>
     </g>
     <g class="com.sun.star.drawing.RectangleShape">
      <g id="id17">
       <path fill="none" stroke="rgb(0,0,0)" d="M 1870,9936 L 776,9936 776,9301 2963,9301 2963,9936 1870,9936 Z"/>
       <text class="TextShape"><tspan class="TextParagraph" font-family="Century Gothic, sans-serif" font-size="494px" font-weight="400"><tspan class="TextPosition" x="1512" y="9790"><tspan fill="rgb(0,0,0)" stroke="none">r10</tspan></tspan></tspan></text>
      </g>
     </g>
     <g class="com.sun.star.drawing.RectangleShape">
      <g id="id18">
       <path fill="none" stroke="rgb(0,0,0)" d="M 1870,9301 L 776,9301 776,8666 2963,8666 2963,9301 1870,9301 Z"/>
       <text class="TextShape"><tspan class="TextParagraph" font-family="Century Gothic, sans-serif" font-size="494px" font-weight="400"><tspan class="TextPosition" x="1531" y="9155"><tspan fill="rgb(0,0,0)" stroke="none">r11</tspan></tspan></tspan></text>
      </g>
     </g>
     <g class="com.sun.star.drawing.RectangleShape">
      <g id="id19">
       <path fill="none" stroke="rgb(0,0,0)" d="M 1870,3586 L 776,3586 776,2951 2963,2951 2963,3586 1870,3586 Z"/>
      </g>
     </g>
     <g class="com.sun.star.drawing.RectangleShape">
      <g id="id20">
       <path fill="none" stroke="rgb(0,0,0)" d="M 16428,8666 L 15334,8666 15334,8031 17521,8031 17521,8666 16428,8666 Z"/>
       <text class="TextShape"><tspan class="TextParagraph" font-family="Century Gothic, sans-serif" font-size="494px" font-weight="400"><tspan class="TextPosition" x="16207" y="8520"><tspan fill="rgb(0,0,0)" stroke="none">r0</tspan></tspan></tspan></text>
      </g>
     </g>
     <g class="com.sun.star.drawing.RectangleShape">
      <g id="id21">
       <path fill="none" stroke="rgb(0,0,0)" d="M 16428,8031 L 15334,8031 15334,7396 17521,7396 17521,8031 16428,8031 Z"/>
       <text class="TextShape"><tspan class="TextParagraph" font-family="Century Gothic, sans-serif" font-size="494px" font-weight="400"><tspan class="TextPosition" x="16207" y="7885"><tspan fill="rgb(0,0,0)" stroke="none">r1</tspan></tspan></tspan></text>
      </g>
     </g>
     <g class="com.sun.star.drawing.RectangleShape">
      <g id="id22">
       <path fill="none" stroke="rgb(0,0,0)" d="M 16428,7396 L 15334,7396 15334,6761 17521,6761 17521,7396 16428,7396 Z"/>
       <text class="TextShape"><tspan class="TextParagraph" font-family="Century Gothic, sans-serif" font-size="494px" font-weight="400"><tspan class="TextPosition" x="16207" y="7250"><tspan fill="rgb(0,0,0)" stroke="none">r2</tspan></tspan></tspan></text>
      </g>
     </g>
     <g class="com.sun.star.drawing.RectangleShape">
      <g id="id23">
       <path fill="none" stroke="rgb(0,0,0)" d="M 16428,6761 L 15334,6761 15334,6126 17521,6126 17521,6761 16428,6761 Z"/>
       <text class="TextShape"><tspan class="TextParagraph" font-family="Century Gothic, sans-serif" font-size="494px" font-weight="400"><tspan class="TextPosition" x="16207" y="6615"><tspan fill="rgb(0,0,0)" stroke="none">r3</tspan></tspan></tspan></text>
      </g>
     </g>
     <g class="com.sun.star.drawing.RectangleShape">
      <g id="id24">
       <path fill="none" stroke="rgb(0,0,0)" d="M 16428,6126 L 15334,6126 15334,5491 17521,5491 17521,6126 16428,6126 Z"/>
       <text class="TextShape"><tspan class="TextParagraph" font-family="Century Gothic, sans-serif" font-size="494px" font-weight="400"><tspan class="TextPosition" x="16070" y="5980"><tspan fill="rgb(0,0,0)" stroke="none">r12</tspan></tspan></tspan></text>
      </g>
     </g>
     <g class="com.sun.star.drawing.RectangleShape">
      <g id="id25">
       <path fill="none" stroke="rgb(0,0,0)" d="M 16428,5491 L 15334,5491 15334,4856 17521,4856 17521,5491 16428,5491 Z"/>
       <text class="TextShape"><tspan class="TextParagraph" font-family="Century Gothic, sans-serif" font-size="494px" font-weight="400"><tspan class="TextPosition" x="16112" y="5345"><tspan fill="rgb(0,0,0)" stroke="none">LR</tspan></tspan></tspan></text>
      </g>
     </g>
     <g class="com.sun.star.drawing.RectangleShape">
      <g id="id26">
       <path fill="none" stroke="rgb(0,0,0)" d="M 16428,4856 L 15334,4856 15334,4221 17521,4221 17521,4856 16428,4856 Z"/>
       <text class="TextShape"><tspan class="TextParagraph" font-family="Century Gothic, sans-serif" font-size="494px" font-weight="400"><tspan class="TextPosition" x="16084" y="4710"><tspan fill="rgb(0,0,0)" stroke="none">PC</tspan></tspan></tspan></text>
      </g>
     </g>
     <g class="com.sun.star.drawing.RectangleShape">
      <g id="id27">
       <path fill="none" stroke="rgb(0,0,0)" d="M 16428,4221 L 15334,4221 15334,3586 17521,3586 17521,4221 16428,4221 Z"/>
       <text class="TextShape"><tspan class="TextParagraph" font-family="Century Gothic, sans-serif" font-size="494px" font-weight="400"><tspan class="TextPosition" x="15796" y="4075"><tspan fill="rgb(0,0,0)" stroke="none">xPSR</tspan></tspan></tspan></text>
      </g>
     </g>
     <g class="com.sun.star.drawing.RectangleShape">
      <g id="id28">
       <path fill="none" stroke="rgb(0,0,0)" d="M 16428,13746 L 15334,13746 15334,13111 17521,13111 17521,13746 16428,13746 Z"/>
       <text class="TextShape"><tspan class="TextParagraph" font-family="Century Gothic, sans-serif" font-size="494px" font-weight="400"><tspan class="TextPosition" x="16207" y="13600"><tspan fill="rgb(0,0,0)" stroke="none">r4</tspan></tspan></tspan></text>
      </g>
     </g>
     <g class="com.sun.star.drawing.RectangleShape">
      <g id="id29">
       <path fill="none" stroke="rgb(0,0,0)" d="M 16428,13111 L 15334,13111 15334,12476 17521,12476 17521,13111 16428,13111 Z"/>
       <text class="TextShape"><tspan class="TextParagraph" font-family="Century Gothic, sans-serif" font-size="494px" font-weight="400"><tspan class="TextPosition" x="16207" y="12965"><tspan fill="rgb(0,0,0)" stroke="none">r5</tspan></tspan></tspan></text>
      </g>
     </g>
     <g class="com.sun.star.drawing.RectangleShape">
      <g id="id30">
       <path fill="none" stroke="rgb(0,0,0)" d="M 16428,12476 L 15334,12476 15334,11841 17521,11841 17521,12476 16428,12476 Z"/>
       <text class="TextShape"><tspan class="TextParagraph" font-family="Century Gothic, sans-serif" font-size="494px" font-weight="400"><tspan class="TextPosition" x="16207" y="12330"><tspan fill="rgb(0,0,0)" stroke="none">r6</tspan></tspan></tspan></text>
      </g>
     </g>
     <g class="com.sun.star.drawing.RectangleShape">
      <g id="id31">
       <path fill="none" stroke="rgb(0,0,0)" d="M 16428,11841 L 15334,11841 15334,11206 17521,11206 17521,11841 16428,11841 Z"/>
       <text class="TextShape"><tspan class="TextParagraph" font-family="Century Gothic, sans-serif" font-size="494px" font-weight="400"><tspan class="TextPosition" x="16207" y="11695"><tspan fill="rgb(0,0,0)" stroke="none">r7</tspan></tspan></tspan></text>
      </g>
     </g>
     <g class="com.sun.star.drawing.RectangleShape">
      <g id="id32">
       <path fill="none" stroke="rgb(0,0,0)" d="M 16428,11206 L 15334,11206 15334,10571 17521,10571 17521,11206 16428,11206 Z"/>
       <text class="TextShape"><tspan class="TextParagraph" font-family="Century Gothic, sans-serif" font-size="494px" font-weight="400"><tspan class="TextPosition" x="16207" y="11060"><tspan fill="rgb(0,0,0)" stroke="none">r8</tspan></tspan></tspan></text>
      </g>
     </g>
     <g class="com.sun.star.drawing.RectangleShape">
      <g id="id33">
       <path fill="none" stroke="rgb(0,0,0)" d="M 16428,10571 L 15334,10571 15334,9936 17521,9936 17521,10571 16428,10571 Z"/>
       <text class="TextShape"><tspan class="TextParagraph" font-family="Century Gothic, sans-serif" font-size="494px" font-weight="400"><tspan class="TextPosition" x="16207" y="10425"><tspan fill="rgb(0,0,0)" stroke="none">r9</tspan></tspan></tspan></text>
      </g>
     </g>
     <g class="com.sun.star.drawing.RectangleShape">
      <g id="id34">
       <path fill="none" stroke="rgb(0,0,0)" d="M 16428,9936 L 15334,9936 15334,9301 17521,9301 17521,9936 16428,9936 Z"/>
       <text class="TextShape"><tspan class="TextParagraph" font-family="Century Gothic, sans-serif" font-size="494px" font-weight="400"><tspan class="TextPosition" x="16070" y="9790"><tspan fill="rgb(0,0,0)" stroke="none">r10</tspan></tspan></tspan></text>
      </g>
     </g>
     <g class="com.sun.star.drawing.RectangleShape">
      <g id="id35">
       <path fill="none" stroke="rgb(0,0,0)" d="M 16428,9301 L 15334,9301 15334,8666 17521,8666 17521,9301 16428,9301 Z"/>
       <text class="TextShape"><tspan class="TextParagraph" font-family="Century Gothic, sans-serif" font-size="494px" font-weight="400"><tspan class="TextPosition" x="16089" y="9155"><tspan fill="rgb(0,0,0)" stroke="none">r11</tspan></tspan></tspan></text>
      </g>
     </g>
     <g class="com.sun.star.drawing.RectangleShape">
      <g id="id36">
       <path fill="none" stroke="rgb(0,0,0)" d="M 16428,3586 L 15334,3586 15334,2951 17521,2951 17521,3586 16428,3586 Z"/>
      </g>
     </g>
     <g class="com.sun.star.drawing.RectangleShape">
      <g id="id37">
       <path fill="none" stroke="rgb(0,0,0)" d="M 1870,2951 L 776,2951 776,2316 2963,2316 2963,2951 1870,2951 Z"/>
      </g>
     </g>
     <g class="com.sun.star.drawing.RectangleShape">
      <g id="id38">
       <path fill="none" stroke="rgb(0,0,0)" d="M 1870,2316 L 776,2316 776,1681 2963,1681 2963,2316 1870,2316 Z"/>
      </g>
     </g>
     <g class="com.sun.star.drawing.RectangleShape">
      <g id="id39">
       <path fill="none" stroke="rgb(0,0,0)" d="M 1870,1681 L 776,1681 776,1046 2963,1046 2963,1681 1870,1681 Z"/>
      </g>
     </g>
     <g class="com.sun.star.drawing.RectangleShape">
      <g id="id40">
       <path fill="none" stroke="rgb(0,0,0)" d="M 16428,2951 L 15334,2951 15334,2316 17521,2316 17521,2951 16428,2951 Z"/>
      </g>
     </g>
     <g class="com.sun.star.drawing.RectangleShape">
      <g id="id41">
       <path fill="none" stroke="rgb(0,0,0)" d="M 16428,2316 L 15334,2316 15334,1681 17521,1681 17521,2316 16428,2316 Z"/>
      </g>
     </g>
     <g class="com.sun.star.drawing.RectangleShape">
      <g id="id42">
       <path fill="none" stroke="rgb(0,0,0)" d="M 16428,1681 L 15334,1681 15334,1046 17521,1046 17521,1681 16428,1681 Z"/>
      </g>
     </g>
     <g class="com.sun.star.drawing.RectangleShape">
      <g id="id43">
       <text class="TextShape"><tspan class="TextParagraph" font-family="Century Gothic, sans-serif" font-size="494px" font-weight="400"><tspan class="TextPosition" x="645" y="900"><tspan fill="rgb(0,0,0)" stroke="none">Task 1 Stack</tspan></tspan></tspan></text>
      </g>
     </g>
     <g class="com.sun.star.drawing.RectangleShape">
      <g id="id44">
       <text class="TextShape"><tspan class="TextParagraph" font-family="Century Gothic, sans-serif" font-size="494px" font-weight="400"><tspan class="TextPosition" x="14933" y="900"><tspan fill="rgb(0,0,0)" stroke="none">Task 2 Stack</tspan></tspan></tspan></text>
      </g>
     </g>
     <g class="com.sun.star.drawing.CustomShape">
      <g id="id45">
       <path fill="none" stroke="rgb(0,0,0)" d="M 4644,2315 C 4591,2315 4538,2368 4538,2421 L 4538,2845 C 4538,2898 4591,2951 4644,2951 L 7608,2951 C 7661,2951 7714,2898 7714,2845 L 7714,2421 C 7714,2368 7661,2315 7608,2315 L 4644,2315 Z"/>
       <path fill="none" stroke="rgb(0,0,0)" d="M 4538,2315 L 4538,2315 Z"/>
       <path fill="none" stroke="rgb(0,0,0)" d="M 7714,2951 L 7714,2951 Z"/>
       <text class="TextShape"><tspan class="TextParagraph" font-family="Century Gothic, sans-serif" font-size="494px" font-weight="400"><tspan class="TextPosition" x="5633" y="2804"><tspan fill="rgb(0,0,0)" stroke="none">PSP</tspan></tspan></tspan></text>
      </g>
     </g>
     <g class="com.sun.star.drawing.CustomShape">
      <g id="id46">
       <path fill="none" stroke="rgb(0,0,0)" d="M 4644,8030 C 4591,8030 4538,8083 4538,8136 L 4538,8560 C 4538,8613 4591,8666 4644,8666 L 7608,8666 C 7661,8666 7714,8613 7714,8560 L 7714,8136 C 7714,8083 7661,8030 7608,8030 L 4644,8030 Z"/>
       <path fill="none" stroke="rgb(0,0,0)" d="M 4538,8030 L 4538,8030 Z"/>
       <path fill="none" stroke="rgb(0,0,0)" d="M 7714,8666 L 7714,8666 Z"/>
       <text class="TextShape"><tspan class="TextParagraph" font-family="Century Gothic, sans-serif" font-size="494px" font-weight="400"><tspan class="TextPosition" x="5633" y="8519"><tspan fill="rgb(0,0,0)" stroke="none">PSP</tspan></tspan></tspan></text>
      </g>
     </g>
     <g class="com.sun.star.drawing.CustomShape">
      <g id="id47">
       <path fill="none" stroke="rgb(0,0,0)" d="M 4644,13110 C 4591,13110 4538,13163 4538,13216 L 4538,13640 C 4538,13693 4591,13746 4644,13746 L 7608,13746 C 7661,13746 7714,13693 7714,13640 L 7714,13216 C 7714,13163 7661,13110 7608,13110 L 4644,13110 Z"/>
       <path fill="none" stroke="rgb(0,0,0)" d="M 4538,13110 L 4538,13110 Z"/>
       <path fill="none" stroke="rgb(0,0,0)" d="M 7714,13746 L 7714,13746 Z"/>
       <text class="TextShape"><tspan class="TextParagraph" font-family="Century Gothic, sans-serif" font-size="494px" font-weight="400"><tspan class="TextPosition" x="5633" y="13599"><tspan fill="rgb(0,0,0)" stroke="none">PSP</tspan></tspan></tspan></text>
      </g>
     </g>
     <g class="com.sun.star.drawing.CustomShape">
      <g id="id48">
       <path fill="none" stroke="rgb(0,0,0)" d="M 19249,13110 C 19196,13110 19143,13163 19143,13216 L 19143,13640 C 19143,13693 19196,13746 19249,13746 L 22213,13746 C 22266,13746 22319,13693 22319,13640 L 22319,13216 C 22319,13163 22266,13110 22213,13110 L 19249,13110 Z"/>
       <path fill="none" stroke="rgb(0,0,0)" d="M 19143,13110 L 19143,13110 Z"/>
       <path fill="none" stroke="rgb(0,0,0)" d="M 22319,13746 L 22319,13746 Z"/>
       <text class="TextShape"><tspan class="TextParagraph" font-family="Century Gothic, sans-serif" font-size="494px" font-weight="400"><tspan class="TextPosition" x="20238" y="13599"><tspan fill="rgb(0,0,0)" stroke="none">PSP</tspan></tspan></tspan></text>
      </g>
     </g>
     <g class="com.sun.star.drawing.CustomShape">
      <g id="id49">
       <path fill="none" stroke="rgb(0,0,0)" d="M 19249,8030 C 19196,8030 19143,8083 19143,8136 L 19143,8560 C 19143,8613 19196,8666 19249,8666 L 22213,8666 C 22266,8666 22319,8613 22319,8560 L 22319,8136 C 22319,8083 22266,8030 22213,8030 L 19249,8030 Z"/>
       <path fill="none" stroke="rgb(0,0,0)" d="M 19143,8030 L 19143,8030 Z"/>
       <path fill="none" stroke="rgb(0,0,0)" d="M 22319,8666 L 22319,8666 Z"/>
       <text class="TextShape"><tspan class="TextParagraph" font-family="Century Gothic, sans-serif" font-size="494px" font-weight="400"><tspan class="TextPosition" x="20238" y="8519"><tspan fill="rgb(0,0,0)" stroke="none">PSP</tspan></tspan></tspan></text>
      </g>
     </g>
     <g class="com.sun.star.drawing.CustomShape">
      <g id="id50">
       <path fill="none" stroke="rgb(0,0,0)" d="M 19249,2315 C 19196,2315 19143,2368 19143,2421 L 19143,2845 C 19143,2898 19196,2951 19249,2951 L 22213,2951 C 22266,2951 22319,2898 22319,2845 L 22319,2421 C 22319,2368 22266,2315 22213,2315 L 19249,2315 Z"/>
       <path fill="none" stroke="rgb(0,0,0)" d="M 19143,2315 L 19143,2315 Z"/>
       <path fill="none" stroke="rgb(0,0,0)" d="M 22319,2951 L 22319,2951 Z"/>
       <text class="TextShape"><tspan class="TextParagraph" font-family="Century Gothic, sans-serif" font-size="494px" font-weight="400"><tspan class="TextPosition" x="20238" y="2804"><tspan fill="rgb(0,0,0)" stroke="none">PSP</tspan></tspan></tspan></text>
      </g>
     </g>
     <g class="com.sun.star.drawing.ConnectorShape">
      <g id="id51">
       <path fill="none" stroke="rgb(0,0,0)" d="M 6126,2951 L 6126,7601"/>
       <path fill="rgb(0,0,0)" stroke="none" d="M 6126,8031 L 6276,7581 5976,7581 6126,8031 Z"/>
      </g>
     </g>
     <g class="com.sun.star.drawing.CustomShape">
      <g id="id52">
       <path fill="rgb(255,255,255)" stroke="none" d="M 6126,6125 L 4538,6125 4538,4220 7713,4220 7713,6125 6126,6125 Z"/>
       <text class="TextShape"><tspan class="TextParagraph" font-family="Century Gothic, sans-serif" font-size="494px" font-weight="400"><tspan class="TextPosition" x="5288" y="4789"><tspan fill="rgb(0,0,0)" stroke="none">Pushed</tspan></tspan></tspan><tspan class="TextParagraph" font-family="Century Gothic, sans-serif" font-size="494px" font-weight="400"><tspan class="TextPosition" x="5865" y="5344"><tspan fill="rgb(0,0,0)" stroke="none">by</tspan></tspan><tspan class="TextPosition" x="5535" y="5899"><tspan fill="rgb(0,0,0)" stroke="none">NVIC</tspan></tspan></tspan></text>
      </g>
     </g>
     <g class="com.sun.star.drawing.ConnectorShape">
      <g id="id53">
       <path fill="none" stroke="rgb(0,0,0)" d="M 6126,8666 L 6126,12681"/>
       <path fill="rgb(0,0,0)" stroke="none" d="M 6126,13111 L 6276,12661 5976,12661 6126,13111 Z"/>
      </g>
     </g>
     <g class="com.sun.star.drawing.ConnectorShape">
      <g id="id54">
       <path fill="none" stroke="rgb(0,0,0)" d="M 20731,13111 L 20731,9096"/>
       <path fill="rgb(0,0,0)" stroke="none" d="M 20731,8666 L 20581,9116 20881,9116 20731,8666 Z"/>
      </g>
     </g>
     <g class="com.sun.star.drawing.ConnectorShape">
      <g id="id55">
       <path fill="none" stroke="rgb(0,0,0)" d="M 20731,8031 L 20731,3381"/>
       <path fill="rgb(0,0,0)" stroke="none" d="M 20731,2951 L 20581,3401 20881,3401 20731,2951 Z"/>
      </g>
     </g>
     <g class="com.sun.star.drawing.CustomShape">
      <g id="id56">
       <path fill="rgb(255,255,255)" stroke="none" d="M 20731,6125 L 19143,6125 19143,4220 22318,4220 22318,6125 20731,6125 Z"/>
       <text class="TextShape"><tspan class="TextParagraph" font-family="Century Gothic, sans-serif" font-size="494px" font-weight="400"><tspan class="TextPosition" x="19880" y="4789"><tspan fill="rgb(0,0,0)" stroke="none">Popped</tspan></tspan></tspan><tspan class="TextParagraph" font-family="Century Gothic, sans-serif" font-size="494px" font-weight="400"><tspan class="TextPosition" x="20470" y="5344"><tspan fill="rgb(0,0,0)" stroke="none">by</tspan></tspan><tspan class="TextPosition" x="20140" y="5899"><tspan fill="rgb(0,0,0)" stroke="none">NVIC</tspan></tspan></tspan></text>
      </g>
     </g>
     <g class="com.sun.star.drawing.CustomShape">
      <g id="id57">
       <path fill="rgb(255,255,255)" stroke="none" d="M 6126,11840 L 4538,11840 4538,9935 7713,9935 7713,11840 6126,11840 Z"/>
       <text class="TextShape"><tspan class="TextParagraph" font-family="Century Gothic, sans-serif" font-size="494px" font-weight="400"><tspan class="TextPosition" x="5288" y="10504"><tspan fill="rgb(0,0,0)" stroke="none">Pushed</tspan></tspan></tspan><tspan class="TextParagraph" font-family="Century Gothic, sans-serif" font-size="494px" font-weight="400"><tspan class="TextPosition" x="5865" y="11059"><tspan fill="rgb(0,0,0)" stroke="none">by</tspan></tspan><tspan class="TextPosition" x="5180" y="11614"><tspan fill="rgb(0,0,0)" stroke="none">Switcher</tspan></tspan></tspan></text>
      </g>
     </g>
     <g class="com.sun.star.drawing.CustomShape">
      <g id="id58">
       <path fill="rgb(255,255,255)" stroke="none" d="M 20731,11840 L 18508,11840 18508,9935 22953,9935 22953,11840 20731,11840 Z"/>
       <text class="TextShape"><tspan class="TextParagraph" font-family="Century Gothic, sans-serif" font-size="494px" font-weight="400"><tspan class="TextPosition" x="19880" y="10504"><tspan fill="rgb(0,0,0)" stroke="none">Popped</tspan></tspan></tspan><tspan class="TextParagraph" font-family="Century Gothic, sans-serif" font-size="494px" font-weight="400"><tspan class="TextPosition" x="20470" y="11059"><tspan fill="rgb(0,0,0)" stroke="none">by</tspan></tspan><tspan class="TextPosition" x="19785" y="11614"><tspan fill="rgb(0,0,0)" stroke="none">Switcher</tspan></tspan></tspan></text>
      </g>
     </g>
     <g class="com.sun.star.drawing.ConnectorShape">
      <g id="id59">
       <path fill="none" stroke="rgb(0,0,0)" d="M 6126,13746 L 6126,14247 20731,14247 20731,14176"/>
       <path fill="rgb(0,0,0)" stroke="none" d="M 20731,13746 L 20581,14196 20881,14196 20731,13746 Z"/>
      </g>
     </g>
     <g class="com.sun.star.drawing.CustomShape">
      <g id="id60">
       <path fill="rgb(255,255,255)" stroke="none" d="M 11841,16286 L 10253,16286 10253,13746 13428,13746 13428,16286 11841,16286 Z"/>
       <text class="TextShape"><tspan class="TextParagraph" font-family="Century Gothic, sans-serif" font-size="494px" font-weight="400"><tspan class="TextPosition" x="10895" y="14633"><tspan fill="rgb(0,0,0)" stroke="none">Switcher</tspan></tspan></tspan><tspan class="TextParagraph" font-family="Century Gothic, sans-serif" font-size="494px" font-weight="400"><tspan class="TextPosition" x="10702" y="15188"><tspan fill="rgb(0,0,0)" stroke="none">re-assigns</tspan></tspan></tspan><tspan class="TextParagraph" font-family="Century Gothic, sans-serif" font-size="494px" font-weight="400"><tspan class="TextPosition" x="11348" y="15743"><tspan fill="rgb(0,0,0)" stroke="none">PSP</tspan></tspan></tspan></text>
      </g>
     </g>
    </g>
   </g>
  </g>
 </g>
</svg>