<?xml version="1.0" encoding="UTF-8"?>
<!DOCTYPE svg PUBLIC "-//W3C//DTD SVG 1.1//EN" "http://www.w3.org/Graphics/SVG/1.1/DTD/svg11.dtd">
<svg version="1.2" width="182.82mm" height="32.94mm" viewBox="5712 8853 18282 3294" preserveAspectRatio="xMidYMid" fill-rule="evenodd" stroke-width="28.222" stroke-linejoin="round" xmlns="http://www.w3.org/2000/svg" xmlns:ooo="http://xml.openoffice.org/svg/export" xmlns:xlink="http://www.w3.org/1999/xlink" xmlns:presentation="http://sun.com/xmlns/staroffice/presentation" xmlns:smil="http://www.w3.org/2001/SMIL20/" xmlns:anim="urn:oasis:names:tc:opendocument:xmlns:animation:1.0" xml:space="preserve">
 <defs class="ClipPathGroup">
  <clipPath id="presentation_clip_path" clipPathUnits="userSpaceOnUse">
   <rect x="5712" y="8853" width="18282" height="3294"/>
  </clipPath>
  <clipPath id="presentation_clip_path_shrink" clipPathUnits="userSpaceOnUse">
   <rect x="5730" y="8856" width="18246" height="3288"/>
  </clipPath>
 </defs>
 <defs class="TextShapeIndex">
  <g ooo:slide="id1" ooo:id-list="id3 id4 id5 id6 id7 id8 id9 id10 id11 id12 id13 id14 id15 id16 id17 id18 id19 id20 id21"/>
 </defs>
 <defs class="EmbeddedBulletChars">
  <g id="bullet-char-template(57356)" transform="scale(0.00048828125,-0.00048828125)">
   <path d="M 580,1141 L 1163,571 580,0 -4,571 580,1141 Z"/>
  </g>
  <g id="bullet-char-template(57354)" transform="scale(0.00048828125,-0.00048828125)">
   <path d="M 8,1128 L 1137,1128 1137,0 8,0 8,1128 Z"/>
  </g>
  <g id="bullet-char-template(10146)" transform="scale(0.00048828125,-0.00048828125)">
   <path d="M 174,0 L 602,739 174,1481 1456,739 174,0 Z M 1358,739 L 309,1346 659,739 1358,739 Z"/>
  </g>
  <g id="bullet-char-template(10132)" transform="scale(0.00048828125,-0.00048828125)">
   <path d="M 2015,739 L 1276,0 717,0 1260,543 174,543 174,936 1260,936 717,1481 1274,1481 2015,739 Z"/>
  </g>
  <g id="bullet-char-template(10007)" transform="scale(0.00048828125,-0.00048828125)">
   <path d="M 0,-2 C -7,14 -16,27 -25,37 L 356,567 C 262,823 215,952 215,954 215,979 228,992 255,992 264,992 276,990 289,987 310,991 331,999 354,1012 L 381,999 492,748 772,1049 836,1024 860,1049 C 881,1039 901,1025 922,1006 886,937 835,863 770,784 769,783 710,716 594,584 L 774,223 C 774,196 753,168 711,139 L 727,119 C 717,90 699,76 672,76 641,76 570,178 457,381 L 164,-76 C 142,-110 111,-127 72,-127 30,-127 9,-110 8,-76 1,-67 -2,-52 -2,-32 -2,-23 -1,-13 0,-2 Z"/>
  </g>
  <g id="bullet-char-template(10004)" transform="scale(0.00048828125,-0.00048828125)">
   <path d="M 285,-33 C 182,-33 111,30 74,156 52,228 41,333 41,471 41,549 55,616 82,672 116,743 169,778 240,778 293,778 328,747 346,684 L 369,508 C 377,444 397,411 428,410 L 1163,1116 C 1174,1127 1196,1133 1229,1133 1271,1133 1292,1118 1292,1087 L 1292,965 C 1292,929 1282,901 1262,881 L 442,47 C 390,-6 338,-33 285,-33 Z"/>
  </g>
  <g id="bullet-char-template(9679)" transform="scale(0.00048828125,-0.00048828125)">
   <path d="M 813,0 C 632,0 489,54 383,161 276,268 223,411 223,592 223,773 276,916 383,1023 489,1130 632,1184 813,1184 992,1184 1136,1130 1245,1023 1353,916 1407,772 1407,592 1407,412 1353,268 1245,161 1136,54 992,0 813,0 Z"/>
  </g>
  <g id="bullet-char-template(8226)" transform="scale(0.00048828125,-0.00048828125)">
   <path d="M 346,457 C 273,457 209,483 155,535 101,586 74,649 74,723 74,796 101,859 155,911 209,963 273,989 346,989 419,989 480,963 531,910 582,859 608,796 608,723 608,648 583,586 532,535 482,483 420,457 346,457 Z"/>
  </g>
  <g id="bullet-char-template(8211)" transform="scale(0.00048828125,-0.00048828125)">
   <path d="M -4,459 L 1135,459 1135,606 -4,606 -4,459 Z"/>
  </g>
  <g id="bullet-char-template(61548)" transform="scale(0.00048828125,-0.00048828125)">
   <path d="M 173,740 C 173,903 231,1043 346,1159 462,1274 601,1332 765,1332 928,1332 1067,1274 1183,1159 1299,1043 1357,903 1357,740 1357,577 1299,437 1183,322 1067,206 928,148 765,148 601,148 462,206 346,322 231,437 173,577 173,740 Z"/>
  </g>
 </defs>
 <defs class="TextEmbeddedBitmaps"/>
 <g class="SlideGroup">
  <g>
   <g id="container-id1">
    <g id="id1" class="Slide" clip-path="url(#presentation_clip_path)">
     <g class="Page">
      <g class="com.sun.star.drawing.ClosedBezierShape">
       <g id="id3">
        <rect class="BoundingBox" stroke="none" fill="none" x="9709" y="9569" width="1249" height="1979"/>
        <path fill="rgb(36,78,153)" stroke="none" d="M 9786,11137 C 9900,11203 10071,11260 10250,11260 10474,11260 10601,11155 10601,10998 10601,10852 10503,10767 10258,10679 9943,10565 9741,10397 9741,10121 9741,9808 10002,9569 10418,9569 10626,9569 10780,9615 10879,9666 L 10794,9948 C 10726,9911 10592,9857 10412,9857 10190,9857 10093,9976 10093,10087 10093,10235 10204,10303 10460,10403 10794,10528 10956,10696 10956,10973 10956,11280 10723,11547 10227,11547 10025,11547 9815,11490 9709,11428 L 9786,11137 Z"/>
       </g>
      </g>
      <g class="com.sun.star.drawing.ClosedBezierShape">
       <g id="id4">
        <rect class="BoundingBox" stroke="none" fill="none" x="11106" y="9737" width="875" height="1811"/>
        <path fill="rgb(36,78,153)" stroke="none" d="M 11646,9737 L 11646,10133 11980,10133 11980,10395 11646,10395 11646,11007 C 11646,11174 11692,11263 11826,11263 11886,11263 11932,11254 11963,11246 L 11969,11513 C 11917,11533 11826,11547 11714,11547 11586,11547 11478,11504 11413,11433 11339,11354 11305,11229 11305,11046 L 11305,10395 11106,10395 11106,10133 11305,10133 11305,9820 11646,9737 Z"/>
       </g>
      </g>
      <g class="com.sun.star.drawing.ClosedBezierShape">
       <g id="id5">
        <rect class="BoundingBox" stroke="none" fill="none" x="12231" y="10100" width="791" height="1420"/>
        <path fill="rgb(36,78,153)" stroke="none" d="M 12243,10579 C 12243,10391 12240,10258 12232,10132 L 12536,10132 12548,10397 12559,10397 C 12627,10201 12789,10101 12937,10101 12971,10101 12992,10104 13021,10110 L 13021,10440 C 12992,10434 12960,10428 12917,10428 12750,10428 12636,10536 12604,10694 12599,10725 12593,10762 12593,10802 L 12593,11519 12243,11519 12243,10579 Z"/>
       </g>
      </g>
      <g class="com.sun.star.drawing.ClosedBezierShape">
       <g id="id6">
        <rect class="BoundingBox" stroke="none" fill="none" x="13134" y="10101" width="1193" height="1450"/>
        <path fill="rgb(36,78,153)" stroke="none" d="M 13965,10841 C 13718,10835 13480,10890 13480,11101 13480,11237 13569,11300 13680,11300 13820,11300 13922,11209 13954,11109 13962,11083 13965,11055 13965,11032 L 13965,10841 Z M 14010,11519 L 13988,11365 13979,11365 C 13894,11473 13749,11550 13569,11550 13290,11550 13134,11348 13134,11137 13134,10787 13444,10610 13956,10613 L 13956,10590 C 13956,10499 13919,10349 13674,10349 13537,10349 13395,10391 13301,10451 L 13233,10224 C 13335,10161 13515,10101 13735,10101 14178,10101 14306,10383 14306,10684 L 14306,11186 C 14306,11311 14312,11433 14326,11519 L 14010,11519 Z"/>
       </g>
      </g>
      <g class="com.sun.star.drawing.ClosedBezierShape">
       <g id="id7">
        <rect class="BoundingBox" stroke="none" fill="none" x="14518" y="9737" width="877" height="1811"/>
        <path fill="rgb(36,78,153)" stroke="none" d="M 15059,9737 L 15059,10133 15393,10133 15393,10395 15059,10395 15059,11007 C 15059,11174 15104,11263 15238,11263 15299,11263 15344,11254 15376,11246 L 15381,11513 C 15330,11533 15238,11547 15127,11547 14999,11547 14891,11504 14826,11433 14752,11354 14718,11229 14718,11046 L 14718,10395 14518,10395 14518,10133 14718,10133 14718,9820 15059,9737 Z"/>
       </g>
      </g>
      <g class="com.sun.star.drawing.ClosedBezierShape">
       <g id="id8">
        <rect class="BoundingBox" stroke="none" fill="none" x="15636" y="9554" width="395" height="1966"/>
        <path fill="rgb(36,78,153)" stroke="none" d="M 15656,10133 L 16010,10133 16010,11519 15656,11519 15656,10133 Z M 16030,9746 C 16030,9851 15953,9933 15830,9933 15713,9933 15636,9851 15636,9746 15636,9638 15716,9555 15832,9555 15953,9555 16027,9638 16030,9746 Z"/>
       </g>
      </g>
      <g class="com.sun.star.drawing.ClosedBezierShape">
       <g id="id9">
        <rect class="BoundingBox" stroke="none" fill="none" x="16236" y="9467" width="945" height="2053"/>
        <path fill="rgb(36,78,153)" stroke="none" d="M 16424,11519 L 16424,10394 16236,10394 16236,10133 16424,10133 16424,10073 C 16424,9894 16473,9714 16593,9601 16695,9504 16834,9467 16954,9467 17048,9467 17122,9481 17179,9501 L 17153,9771 C 17116,9757 17068,9746 17005,9746 16832,9746 16772,9891 16772,10061 L 16772,10133 17076,10133 17076,10394 16775,10394 16775,11519 16424,11519 Z"/>
       </g>
      </g>
      <g class="com.sun.star.drawing.ClosedBezierShape">
       <g id="id10">
        <rect class="BoundingBox" stroke="none" fill="none" x="17126" y="10132" width="1387" height="2016"/>
        <path fill="rgb(36,78,153)" stroke="none" d="M 17511,10132 L 17762,10875 C 17790,10960 17818,11065 17838,11146 L 17847,11146 C 17870,11065 17895,10963 17921,10872 L 18137,10132 18512,10132 18165,11078 C 17975,11595 17847,11826 17682,11968 17546,12090 17403,12136 17315,12147 L 17234,11851 C 17294,11837 17369,11806 17440,11755 17506,11712 17582,11630 17631,11536 17645,11510 17654,11490 17654,11473 17654,11459 17651,11439 17634,11405 L 17126,10132 17511,10132 Z"/>
       </g>
      </g>
      <g class="com.sun.star.drawing.PolyPolygonShape">
       <g id="id11">
        <rect class="BoundingBox" stroke="none" fill="none" x="18828" y="9601" width="1139" height="1919"/>
        <path fill="rgb(36,78,153)" stroke="none" d="M 18828,9601 L 19177,9601 19177,11226 19966,11226 19966,11519 18828,11519 18828,9601 Z"/>
       </g>
      </g>
      <g class="com.sun.star.drawing.ClosedBezierShape">
       <g id="id12">
        <rect class="BoundingBox" stroke="none" fill="none" x="20119" y="10101" width="1193" height="1450"/>
        <path fill="rgb(36,78,153)" stroke="none" d="M 20950,10841 C 20702,10835 20466,10890 20466,11101 20466,11237 20554,11300 20665,11300 20804,11300 20907,11209 20939,11109 20947,11083 20950,11055 20950,11032 L 20950,10841 Z M 20996,11519 L 20973,11365 20964,11365 C 20879,11473 20733,11550 20554,11550 20275,11550 20119,11348 20119,11137 20119,10787 20429,10610 20942,10613 L 20942,10590 C 20942,10499 20905,10349 20659,10349 20523,10349 20380,10391 20286,10451 L 20218,10224 C 20321,10161 20500,10101 20719,10101 21163,10101 21291,10383 21291,10684 L 21291,11186 C 21291,11311 21297,11433 21311,11519 L 20996,11519 Z"/>
       </g>
      </g>
      <g class="com.sun.star.drawing.ClosedBezierShape">
       <g id="id13">
        <rect class="BoundingBox" stroke="none" fill="none" x="21477" y="9498" width="1390" height="2053"/>
        <path fill="rgb(36,78,153)" stroke="none" d="M 21839,10946 C 21839,10974 21842,11003 21847,11028 21884,11168 22007,11273 22157,11273 22376,11273 22510,11097 22510,10818 22510,10573 22393,10374 22160,10374 22018,10374 21890,10477 21850,10630 21844,10656 21839,10687 21839,10721 L 21839,10946 Z M 21477,11519 C 21482,11425 21488,11270 21488,11128 L 21488,9498 21839,9498 21839,10323 21844,10323 C 21930,10189 22080,10101 22288,10101 22626,10101 22868,10383 22865,10804 22865,11302 22550,11550 22237,11550 22058,11550 21898,11482 21799,11311 L 21793,11311 21776,11519 21477,11519 Z"/>
       </g>
      </g>
      <g class="com.sun.star.drawing.ClosedBezierShape">
       <g id="id14">
        <rect class="BoundingBox" stroke="none" fill="none" x="23009" y="10101" width="986" height="1447"/>
        <path fill="rgb(36,78,153)" stroke="none" d="M 23077,11197 C 23158,11246 23308,11297 23434,11297 23587,11297 23656,11234 23656,11143 23656,11049 23599,11001 23428,10941 23158,10847 23043,10699 23046,10536 23046,10292 23249,10101 23570,10101 23724,10101 23857,10141 23937,10184 L 23869,10431 C 23809,10397 23698,10351 23576,10351 23451,10351 23382,10411 23382,10497 23382,10585 23448,10627 23624,10690 23874,10781 23991,10910 23994,11115 23994,11365 23798,11547 23431,11547 23263,11547 23111,11507 23009,11450 L 23077,11197 Z"/>
       </g>
      </g>
      <g class="com.sun.star.drawing.ClosedBezierShape">
       <g id="id15">
        <rect class="BoundingBox" stroke="none" fill="none" x="6022" y="10066" width="2882" height="216"/>
        <path fill="rgb(164,50,47)" stroke="none" d="M 8782,10067 L 6144,10067 6029,10267 C 6027,10272 6025,10276 6022,10281 L 8903,10281 C 8901,10276 8899,10272 8897,10267 L 8782,10067 Z"/>
       </g>
      </g>
      <g class="com.sun.star.drawing.PolyPolygonShape">
       <g id="id16">
        <rect class="BoundingBox" stroke="none" fill="none" x="6144" y="9589" width="2639" height="480"/>
        <path fill="rgb(175,147,140)" stroke="none" d="M 6420,9589 L 6144,10068 8782,10068 8506,9589 6420,9589 Z"/>
       </g>
      </g>
      <g class="com.sun.star.drawing.ClosedBezierShape">
       <g id="id17">
        <rect class="BoundingBox" stroke="none" fill="none" x="6420" y="9096" width="2087" height="496"/>
        <path fill="rgb(217,218,188)" stroke="none" d="M 8303,9239 C 8252,9151 8158,9096 8057,9096 L 6869,9096 C 6767,9096 6674,9151 6623,9239 L 6420,9590 8506,9590 8303,9239 Z"/>
       </g>
      </g>
      <g class="com.sun.star.drawing.ClosedBezierShape">
       <g id="id18">
        <rect class="BoundingBox" stroke="none" fill="none" x="5992" y="10280" width="2945" height="569"/>
        <path fill="rgb(99,80,83)" stroke="none" d="M 6023,10280 C 5980,10365 5982,10466 6030,10551 L 6202,10848 8726,10848 8898,10551 C 8946,10466 8948,10365 8904,10280 L 6023,10280 Z"/>
       </g>
      </g>
      <g class="com.sun.star.drawing.PolyPolygonShape">
       <g id="id19">
        <rect class="BoundingBox" stroke="none" fill="none" x="6201" y="10847" width="2525" height="162"/>
        <path fill="rgb(205,163,102)" stroke="none" d="M 6293,11008 L 8633,11008 8725,10847 6201,10847 6293,11008 Z"/>
       </g>
      </g>
      <g class="com.sun.star.drawing.ClosedBezierShape">
       <g id="id20">
        <rect class="BoundingBox" stroke="none" fill="none" x="6293" y="11007" width="2341" height="715"/>
        <path fill="rgb(99,80,83)" stroke="none" d="M 6293,11007 L 6623,11579 C 6674,11667 6767,11721 6869,11721 L 8056,11721 C 8157,11721 8252,11667 8303,11579 L 8633,11007 6293,11007 Z"/>
       </g>
      </g>
      <g class="com.sun.star.drawing.ClosedBezierShape">
       <g id="id21">
        <rect class="BoundingBox" stroke="none" fill="none" x="5712" y="8852" width="3503" height="3113"/>
        <path fill="rgb(36,78,153)" stroke="none" d="M 8192,11672 L 6733,11672 6004,10408 6733,9145 8192,9145 8922,10408 8192,11672 Z M 8444,8999 C 8392,8908 8296,8853 8192,8853 L 6733,8853 C 6629,8853 6532,8908 6480,8999 L 5751,10262 C 5699,10352 5699,10463 5751,10554 L 6480,11818 C 6532,11908 6629,11964 6733,11964 L 8192,11964 C 8296,11964 8392,11908 8444,11818 L 9175,10554 C 9227,10463 9227,10352 9175,10262 L 8444,8999 Z"/>
       </g>
      </g>
     </g>
    </g>
   </g>
  </g>
 </g>
</svg>