<?xml version="1.0" encoding="UTF-8" standalone="no"?>
<!DOCTYPE svg PUBLIC "-//W3C//DTD SVG 1.1//EN"
 "http://www.w3.org/Graphics/SVG/1.1/DTD/svg11.dtd">
<!-- Generated by graphviz version 2.36.0 (20140111.2315)
 -->
<!-- Title: Sys::Appfs Pages: 1 -->
<svg width="90pt" height="216pt"
 viewBox="0.00 0.00 90.00 216.00" xmlns="http://www.w3.org/2000/svg" xmlns:xlink="http://www.w3.org/1999/xlink">
<g id="graph0" class="graph" transform="scale(1 1) rotate(0) translate(4 212)">
<title>Sys::Appfs</title>
<!-- Node1 -->
<g id="node1" class="node"><title>Node1</title>
<polygon fill="#bfbfbf" stroke="black" points="5.34619,-113 5.34619,-207 76.6538,-207 76.6538,-113 5.34619,-113"/>
<text text-anchor="middle" x="41" y="-195" font-family="Helvetica,sans-Serif" font-size="10.00">Sys::Appfs</text>
<polyline fill="none" stroke="black" points="5.34619,-189 76.6538,-189 "/>
<text text-anchor="middle" x="41" y="-177" font-family="Helvetica,sans-Serif" font-size="10.00"> </text>
<polyline fill="none" stroke="black" points="5.34619,-171 76.6538,-171 "/>
<text text-anchor="start" x="13.3462" y="-159" font-family="Helvetica,sans-Serif" font-size="10.00">+ Appfs()</text>
<text text-anchor="start" x="13.3462" y="-149" font-family="Helvetica,sans-Serif" font-size="10.00">+ create()</text>
<text text-anchor="start" x="13.3462" y="-139" font-family="Helvetica,sans-Serif" font-size="10.00">+ offset()</text>
<text text-anchor="start" x="13.3462" y="-129" font-family="Helvetica,sans-Serif" font-size="10.00">+ pagesize()</text>
<text text-anchor="start" x="13.3462" y="-119" font-family="Helvetica,sans-Serif" font-size="10.00">+ cleanup()</text>
</g>
<!-- Node2 -->
<g id="node2" class="node"><title>Node2</title>
<g id="a_node2"><a xlink:href="class_calc_1_1_rle_appfs.html" target="_top" xlink:title="Class for reading/writing compressed file data using Appfs. ">
<polygon fill="none" stroke="black" points="-0.0688477,-1 -0.0688477,-75 82.0688,-75 82.0688,-1 -0.0688477,-1"/>
<text text-anchor="middle" x="41" y="-63" font-family="Helvetica,sans-Serif" font-size="10.00">Calc::RleAppfs</text>
<polyline fill="none" stroke="black" points="-0.0688477,-57 82.0688,-57 "/>
<text text-anchor="middle" x="41" y="-45" font-family="Helvetica,sans-Serif" font-size="10.00"> </text>
<polyline fill="none" stroke="black" points="-0.0688477,-39 82.0688,-39 "/>
<text text-anchor="start" x="7.93115" y="-27" font-family="Helvetica,sans-Serif" font-size="10.00">+ RleAppfs()</text>
<text text-anchor="start" x="7.93115" y="-17" font-family="Helvetica,sans-Serif" font-size="10.00">+ write()</text>
<text text-anchor="start" x="7.93115" y="-7" font-family="Helvetica,sans-Serif" font-size="10.00">+ read()</text>
</a>
</g>
</g>
<!-- Node1&#45;&gt;Node2 -->
<g id="edge1" class="edge"><title>Node1&#45;&gt;Node2</title>
<path fill="none" stroke="midnightblue" d="M41,-102.803C41,-93.3664 41,-83.8043 41,-75.0548"/>
<polygon fill="none" stroke="midnightblue" points="37.5001,-102.948 41,-112.948 44.5001,-102.948 37.5001,-102.948"/>
</g>
</g>
</svg>
