<?xml version="1.0" encoding="UTF-8" standalone="no"?>
<!DOCTYPE svg PUBLIC "-//W3C//DTD SVG 1.1//EN"
 "http://www.w3.org/Graphics/SVG/1.1/DTD/svg11.dtd">
<!-- Generated by graphviz version 2.36.0 (20140111.2315)
 -->
<!-- Title: Hal::Periph Pages: 1 -->
<svg width="1006pt" height="750pt"
 viewBox="0.00 0.00 1006.00 750.00" xmlns="http://www.w3.org/2000/svg" xmlns:xlink="http://www.w3.org/1999/xlink">
<g id="graph0" class="graph" transform="scale(1 1) rotate(0) translate(4 746)">
<title>Hal::Periph</title>
<!-- Node1 -->
<g id="node1" class="node"><title>Node1</title>
<polygon fill="#bfbfbf" stroke="black" points="450.54,-435 450.54,-609 525.46,-609 525.46,-435 450.54,-435"/>
<text text-anchor="middle" x="488" y="-597" font-family="Helvetica,sans-Serif" font-size="10.00">Hal::Periph</text>
<polyline fill="none" stroke="black" points="450.54,-591 525.46,-591 "/>
<text text-anchor="start" x="458.54" y="-579" font-family="Helvetica,sans-Serif" font-size="10.00"># port_</text>
<text text-anchor="start" x="458.54" y="-569" font-family="Helvetica,sans-Serif" font-size="10.00"># fd</text>
<polyline fill="none" stroke="black" points="450.54,-563 525.46,-563 "/>
<text text-anchor="start" x="458.54" y="-551" font-family="Helvetica,sans-Serif" font-size="10.00">+ Periph()</text>
<text text-anchor="start" x="458.54" y="-541" font-family="Helvetica,sans-Serif" font-size="10.00">+ open()</text>
<text text-anchor="start" x="458.54" y="-531" font-family="Helvetica,sans-Serif" font-size="10.00">+ open()</text>
<text text-anchor="start" x="458.54" y="-521" font-family="Helvetica,sans-Serif" font-size="10.00">+ setflags()</text>
<text text-anchor="start" x="458.54" y="-511" font-family="Helvetica,sans-Serif" font-size="10.00">+ read()</text>
<text text-anchor="start" x="458.54" y="-501" font-family="Helvetica,sans-Serif" font-size="10.00">+ read()</text>
<text text-anchor="start" x="458.54" y="-491" font-family="Helvetica,sans-Serif" font-size="10.00">+ write()</text>
<text text-anchor="start" x="458.54" y="-481" font-family="Helvetica,sans-Serif" font-size="10.00">+ readline()</text>
<text text-anchor="start" x="458.54" y="-471" font-family="Helvetica,sans-Serif" font-size="10.00">+ write()</text>
<text text-anchor="start" x="458.54" y="-461" font-family="Helvetica,sans-Serif" font-size="10.00">+ write()</text>
<text text-anchor="start" x="458.54" y="-451" font-family="Helvetica,sans-Serif" font-size="10.00">and 7 more...</text>
<text text-anchor="start" x="458.54" y="-441" font-family="Helvetica,sans-Serif" font-size="10.00"># _open()</text>
</g>
<!-- Node3 -->
<g id="node3" class="node"><title>Node3</title>
<g id="a_node3"><a xlink:href="class_hal_1_1_adc.html" target="_top" xlink:title="ADC Peripheral Class. ">
<polygon fill="none" stroke="black" points="-0.533203,-238 -0.533203,-352 58.5332,-352 58.5332,-238 -0.533203,-238"/>
<text text-anchor="middle" x="29" y="-340" font-family="Helvetica,sans-Serif" font-size="10.00">Hal::Adc</text>
<polyline fill="none" stroke="black" points="-0.533203,-334 58.5332,-334 "/>
<text text-anchor="middle" x="29" y="-322" font-family="Helvetica,sans-Serif" font-size="10.00"> </text>
<polyline fill="none" stroke="black" points="-0.533203,-316 58.5332,-316 "/>
<text text-anchor="start" x="7.4668" y="-304" font-family="Helvetica,sans-Serif" font-size="10.00">+ Adc()</text>
<text text-anchor="start" x="7.4668" y="-294" font-family="Helvetica,sans-Serif" font-size="10.00">+ open()</text>
<text text-anchor="start" x="7.4668" y="-284" font-family="Helvetica,sans-Serif" font-size="10.00">+ attr()</text>
<text text-anchor="start" x="7.4668" y="-274" font-family="Helvetica,sans-Serif" font-size="10.00">+ setattr()</text>
<text text-anchor="start" x="7.4668" y="-264" font-family="Helvetica,sans-Serif" font-size="10.00">+ setattr()</text>
<text text-anchor="start" x="7.4668" y="-254" font-family="Helvetica,sans-Serif" font-size="10.00">+ init()</text>
<text text-anchor="start" x="7.4668" y="-244" font-family="Helvetica,sans-Serif" font-size="10.00">+ ports()</text>
</a>
</g>
</g>
<!-- Node1&#45;&gt;Node3 -->
<g id="edge2" class="edge"><title>Node1&#45;&gt;Node3</title>
<path fill="none" stroke="midnightblue" d="M440.028,-520.355C354.122,-516.626 173.11,-496.696 67,-398 53.924,-385.838 45.3236,-368.755 39.6765,-352.043"/>
<polygon fill="none" stroke="midnightblue" points="440.143,-523.862 450.268,-520.742 440.408,-516.867 440.143,-523.862"/>
</g>
<!-- Node4 -->
<g id="node4" class="node"><title>Node4</title>
<g id="a_node4"><a xlink:href="class_hal_1_1_core.html" target="_top" xlink:title="Core Class. ">
<polygon fill="none" stroke="black" points="76.2773,-203 76.2773,-387 183.723,-387 183.723,-203 76.2773,-203"/>
<text text-anchor="middle" x="130" y="-375" font-family="Helvetica,sans-Serif" font-size="10.00">Hal::Core</text>
<polyline fill="none" stroke="black" points="76.2773,-369 183.723,-369 "/>
<text text-anchor="middle" x="130" y="-357" font-family="Helvetica,sans-Serif" font-size="10.00"> </text>
<polyline fill="none" stroke="black" points="76.2773,-351 183.723,-351 "/>
<text text-anchor="start" x="84.2773" y="-339" font-family="Helvetica,sans-Serif" font-size="10.00">+ Core()</text>
<text text-anchor="start" x="84.2773" y="-329" font-family="Helvetica,sans-Serif" font-size="10.00">+ open()</text>
<text text-anchor="start" x="84.2773" y="-319" font-family="Helvetica,sans-Serif" font-size="10.00">+ attr()</text>
<text text-anchor="start" x="84.2773" y="-309" font-family="Helvetica,sans-Serif" font-size="10.00">+ setattr()</text>
<text text-anchor="start" x="84.2773" y="-299" font-family="Helvetica,sans-Serif" font-size="10.00">+ setpinfunc()</text>
<text text-anchor="start" x="84.2773" y="-289" font-family="Helvetica,sans-Serif" font-size="10.00">+ setpinfunc()</text>
<text text-anchor="start" x="84.2773" y="-279" font-family="Helvetica,sans-Serif" font-size="10.00">+ setpinfunc()</text>
<text text-anchor="start" x="84.2773" y="-269" font-family="Helvetica,sans-Serif" font-size="10.00">+ sleep()</text>
<text text-anchor="start" x="84.2773" y="-259" font-family="Helvetica,sans-Serif" font-size="10.00">+ reset()</text>
<text text-anchor="start" x="84.2773" y="-249" font-family="Helvetica,sans-Serif" font-size="10.00">+ invokebootloader()</text>
<text text-anchor="start" x="84.2773" y="-239" font-family="Helvetica,sans-Serif" font-size="10.00">+ setirqprio()</text>
<text text-anchor="start" x="84.2773" y="-229" font-family="Helvetica,sans-Serif" font-size="10.00">+ setirqprio()</text>
<text text-anchor="start" x="84.2773" y="-219" font-family="Helvetica,sans-Serif" font-size="10.00">+ setclkout()</text>
<text text-anchor="start" x="84.2773" y="-209" font-family="Helvetica,sans-Serif" font-size="10.00">+ ports()</text>
</a>
</g>
</g>
<!-- Node1&#45;&gt;Node4 -->
<g id="edge3" class="edge"><title>Node1&#45;&gt;Node4</title>
<path fill="none" stroke="midnightblue" d="M440.311,-510.963C377.398,-495.708 266.006,-461.511 192,-398 188.069,-394.626 184.314,-390.938 180.738,-387.03"/>
<polygon fill="none" stroke="midnightblue" points="439.816,-514.442 450.353,-513.336 441.426,-507.63 439.816,-514.442"/>
</g>
<!-- Node5 -->
<g id="node5" class="node"><title>Node5</title>
<g id="a_node5"><a xlink:href="class_hal_1_1_eint.html" target="_top" xlink:title="External Interrupt Class. ">
<polygon fill="none" stroke="black" points="201.349,-218 201.349,-372 272.651,-372 272.651,-218 201.349,-218"/>
<text text-anchor="middle" x="237" y="-360" font-family="Helvetica,sans-Serif" font-size="10.00">Hal::Eint</text>
<polyline fill="none" stroke="black" points="201.349,-354 272.651,-354 "/>
<text text-anchor="middle" x="237" y="-342" font-family="Helvetica,sans-Serif" font-size="10.00"> </text>
<polyline fill="none" stroke="black" points="201.349,-336 272.651,-336 "/>
<text text-anchor="start" x="209.349" y="-324" font-family="Helvetica,sans-Serif" font-size="10.00">+ Eint()</text>
<text text-anchor="start" x="209.349" y="-314" font-family="Helvetica,sans-Serif" font-size="10.00">+ open()</text>
<text text-anchor="start" x="209.349" y="-304" font-family="Helvetica,sans-Serif" font-size="10.00">+ attr()</text>
<text text-anchor="start" x="209.349" y="-294" font-family="Helvetica,sans-Serif" font-size="10.00">+ setattr()</text>
<text text-anchor="start" x="209.349" y="-284" font-family="Helvetica,sans-Serif" font-size="10.00">+ setaction()</text>
<text text-anchor="start" x="209.349" y="-274" font-family="Helvetica,sans-Serif" font-size="10.00">+ value()</text>
<text text-anchor="start" x="209.349" y="-264" font-family="Helvetica,sans-Serif" font-size="10.00">+ get()</text>
<text text-anchor="start" x="209.349" y="-254" font-family="Helvetica,sans-Serif" font-size="10.00">+ setaction()</text>
<text text-anchor="start" x="209.349" y="-244" font-family="Helvetica,sans-Serif" font-size="10.00">+ setattr()</text>
<text text-anchor="start" x="209.349" y="-234" font-family="Helvetica,sans-Serif" font-size="10.00">+ init()</text>
<text text-anchor="start" x="209.349" y="-224" font-family="Helvetica,sans-Serif" font-size="10.00">+ ports()</text>
</a>
</g>
</g>
<!-- Node1&#45;&gt;Node5 -->
<g id="edge4" class="edge"><title>Node1&#45;&gt;Node5</title>
<path fill="none" stroke="midnightblue" d="M440.822,-503.148C394.662,-483.571 325.053,-448.131 281,-398 274.253,-390.322 268.413,-381.451 263.395,-372.211"/>
<polygon fill="none" stroke="midnightblue" points="439.721,-506.48 450.298,-507.084 442.406,-500.016 439.721,-506.48"/>
</g>
<!-- Node6 -->
<g id="node6" class="node"><title>Node6</title>
<g id="a_node6"><a xlink:href="class_hal_1_1_i2_c.html" target="_top" xlink:title="I2C Peripheral Class. ">
<polygon fill="none" stroke="black" points="290.467,-198 290.467,-392 349.533,-392 349.533,-198 290.467,-198"/>
<text text-anchor="middle" x="320" y="-380" font-family="Helvetica,sans-Serif" font-size="10.00">Hal::I2C</text>
<polyline fill="none" stroke="black" points="290.467,-374 349.533,-374 "/>
<text text-anchor="middle" x="320" y="-362" font-family="Helvetica,sans-Serif" font-size="10.00"> </text>
<polyline fill="none" stroke="black" points="290.467,-356 349.533,-356 "/>
<text text-anchor="start" x="298.467" y="-344" font-family="Helvetica,sans-Serif" font-size="10.00">+ I2C()</text>
<text text-anchor="start" x="298.467" y="-334" font-family="Helvetica,sans-Serif" font-size="10.00">+ open()</text>
<text text-anchor="start" x="298.467" y="-324" font-family="Helvetica,sans-Serif" font-size="10.00">+ attr()</text>
<text text-anchor="start" x="298.467" y="-314" font-family="Helvetica,sans-Serif" font-size="10.00">+ setattr()</text>
<text text-anchor="start" x="298.467" y="-304" font-family="Helvetica,sans-Serif" font-size="10.00">+ setup()</text>
<text text-anchor="start" x="298.467" y="-294" font-family="Helvetica,sans-Serif" font-size="10.00">+ geterr()</text>
<text text-anchor="start" x="298.467" y="-284" font-family="Helvetica,sans-Serif" font-size="10.00">+ err()</text>
<text text-anchor="start" x="298.467" y="-274" font-family="Helvetica,sans-Serif" font-size="10.00">+ setup()</text>
<text text-anchor="start" x="298.467" y="-264" font-family="Helvetica,sans-Serif" font-size="10.00">+ setattr()</text>
<text text-anchor="start" x="298.467" y="-254" font-family="Helvetica,sans-Serif" font-size="10.00">+ init()</text>
<text text-anchor="start" x="298.467" y="-244" font-family="Helvetica,sans-Serif" font-size="10.00">+ read()</text>
<text text-anchor="start" x="298.467" y="-234" font-family="Helvetica,sans-Serif" font-size="10.00">+ write()</text>
<text text-anchor="start" x="298.467" y="-224" font-family="Helvetica,sans-Serif" font-size="10.00">+ set()</text>
<text text-anchor="start" x="298.467" y="-214" font-family="Helvetica,sans-Serif" font-size="10.00">+ clear()</text>
<text text-anchor="start" x="298.467" y="-204" font-family="Helvetica,sans-Serif" font-size="10.00">+ ports()</text>
</a>
</g>
</g>
<!-- Node1&#45;&gt;Node6 -->
<g id="edge5" class="edge"><title>Node1&#45;&gt;Node6</title>
<path fill="none" stroke="midnightblue" d="M442.434,-486.302C415.207,-463.631 381.626,-431.998 359,-398 355.639,-392.949 352.509,-387.568 349.604,-382.017"/>
<polygon fill="none" stroke="midnightblue" points="440.343,-489.114 450.295,-492.748 444.781,-483.701 440.343,-489.114"/>
</g>
<!-- Node7 -->
<g id="node7" class="node"><title>Node7</title>
<g id="a_node7"><a xlink:href="class_hal_1_1_pio.html" target="_top" xlink:title="Pin Input/Output Class. ">
<polygon fill="none" stroke="black" points="367.79,-198 367.79,-392 440.21,-392 440.21,-198 367.79,-198"/>
<text text-anchor="middle" x="404" y="-380" font-family="Helvetica,sans-Serif" font-size="10.00">Hal::Pio</text>
<polyline fill="none" stroke="black" points="367.79,-374 440.21,-374 "/>
<text text-anchor="middle" x="404" y="-362" font-family="Helvetica,sans-Serif" font-size="10.00"> </text>
<polyline fill="none" stroke="black" points="367.79,-356 440.21,-356 "/>
<text text-anchor="start" x="375.79" y="-344" font-family="Helvetica,sans-Serif" font-size="10.00">+ Pio()</text>
<text text-anchor="start" x="375.79" y="-334" font-family="Helvetica,sans-Serif" font-size="10.00">+ open()</text>
<text text-anchor="start" x="375.79" y="-324" font-family="Helvetica,sans-Serif" font-size="10.00">+ attr()</text>
<text text-anchor="start" x="375.79" y="-314" font-family="Helvetica,sans-Serif" font-size="10.00">+ setattr()</text>
<text text-anchor="start" x="375.79" y="-304" font-family="Helvetica,sans-Serif" font-size="10.00">+ setaction()</text>
<text text-anchor="start" x="375.79" y="-294" font-family="Helvetica,sans-Serif" font-size="10.00">+ setmask()</text>
<text text-anchor="start" x="375.79" y="-284" font-family="Helvetica,sans-Serif" font-size="10.00">+ clrmask()</text>
<text text-anchor="start" x="375.79" y="-274" font-family="Helvetica,sans-Serif" font-size="10.00">+ get()</text>
<text text-anchor="start" x="375.79" y="-264" font-family="Helvetica,sans-Serif" font-size="10.00">+ value()</text>
<text text-anchor="start" x="375.79" y="-254" font-family="Helvetica,sans-Serif" font-size="10.00">+ set()</text>
<text text-anchor="start" x="375.79" y="-244" font-family="Helvetica,sans-Serif" font-size="10.00">+ setattr()</text>
<text text-anchor="start" x="375.79" y="-234" font-family="Helvetica,sans-Serif" font-size="10.00">+ init()</text>
<text text-anchor="start" x="375.79" y="-224" font-family="Helvetica,sans-Serif" font-size="10.00">+ setoutput()</text>
<text text-anchor="start" x="375.79" y="-214" font-family="Helvetica,sans-Serif" font-size="10.00">+ setinput()</text>
<text text-anchor="start" x="375.79" y="-204" font-family="Helvetica,sans-Serif" font-size="10.00">+ ports()</text>
</a>
</g>
</g>
<!-- Node1&#45;&gt;Node7 -->
<g id="edge6" class="edge"><title>Node1&#45;&gt;Node7</title>
<path fill="none" stroke="midnightblue" d="M452.297,-425.367C448.187,-414.358 443.995,-403.128 439.882,-392.113"/>
<polygon fill="none" stroke="midnightblue" points="449.107,-426.83 455.884,-434.974 455.665,-424.381 449.107,-426.83"/>
</g>
<!-- Node9 -->
<g id="node9" class="node"><title>Node9</title>
<g id="a_node9"><a xlink:href="class_hal_1_1_pwm.html" target="_top" xlink:title="PWM Class. ">
<polygon fill="none" stroke="black" points="458.467,-228 458.467,-362 517.533,-362 517.533,-228 458.467,-228"/>
<text text-anchor="middle" x="488" y="-350" font-family="Helvetica,sans-Serif" font-size="10.00">Hal::Pwm</text>
<polyline fill="none" stroke="black" points="458.467,-344 517.533,-344 "/>
<text text-anchor="middle" x="488" y="-332" font-family="Helvetica,sans-Serif" font-size="10.00"> </text>
<polyline fill="none" stroke="black" points="458.467,-326 517.533,-326 "/>
<text text-anchor="start" x="466.467" y="-314" font-family="Helvetica,sans-Serif" font-size="10.00">+ Pwm()</text>
<text text-anchor="start" x="466.467" y="-304" font-family="Helvetica,sans-Serif" font-size="10.00">+ open()</text>
<text text-anchor="start" x="466.467" y="-294" font-family="Helvetica,sans-Serif" font-size="10.00">+ attr()</text>
<text text-anchor="start" x="466.467" y="-284" font-family="Helvetica,sans-Serif" font-size="10.00">+ setattr()</text>
<text text-anchor="start" x="466.467" y="-274" font-family="Helvetica,sans-Serif" font-size="10.00">+ set()</text>
<text text-anchor="start" x="466.467" y="-264" font-family="Helvetica,sans-Serif" font-size="10.00">+ set()</text>
<text text-anchor="start" x="466.467" y="-254" font-family="Helvetica,sans-Serif" font-size="10.00">+ setattr()</text>
<text text-anchor="start" x="466.467" y="-244" font-family="Helvetica,sans-Serif" font-size="10.00">+ init()</text>
<text text-anchor="start" x="466.467" y="-234" font-family="Helvetica,sans-Serif" font-size="10.00">+ ports()</text>
</a>
</g>
</g>
<!-- Node1&#45;&gt;Node9 -->
<g id="edge8" class="edge"><title>Node1&#45;&gt;Node9</title>
<path fill="none" stroke="midnightblue" d="M488,-424.967C488,-403.752 488,-381.739 488,-362.033"/>
<polygon fill="none" stroke="midnightblue" points="484.5,-424.974 488,-434.974 491.5,-424.974 484.5,-424.974"/>
</g>
<!-- Node10 -->
<g id="node10" class="node"><title>Node10</title>
<g id="a_node10"><a xlink:href="class_hal_1_1_rtc.html" target="_top" xlink:title="RTC Class. ">
<polygon fill="none" stroke="black" points="536.014,-218 536.014,-372 623.986,-372 623.986,-218 536.014,-218"/>
<text text-anchor="middle" x="580" y="-360" font-family="Helvetica,sans-Serif" font-size="10.00">Hal::Rtc</text>
<polyline fill="none" stroke="black" points="536.014,-354 623.986,-354 "/>
<text text-anchor="middle" x="580" y="-342" font-family="Helvetica,sans-Serif" font-size="10.00"> </text>
<polyline fill="none" stroke="black" points="536.014,-336 623.986,-336 "/>
<text text-anchor="start" x="544.014" y="-324" font-family="Helvetica,sans-Serif" font-size="10.00">+ Rtc()</text>
<text text-anchor="start" x="544.014" y="-314" font-family="Helvetica,sans-Serif" font-size="10.00">+ open()</text>
<text text-anchor="start" x="544.014" y="-304" font-family="Helvetica,sans-Serif" font-size="10.00">+ attr()</text>
<text text-anchor="start" x="544.014" y="-294" font-family="Helvetica,sans-Serif" font-size="10.00">+ setattr()</text>
<text text-anchor="start" x="544.014" y="-284" font-family="Helvetica,sans-Serif" font-size="10.00">+ setaction()</text>
<text text-anchor="start" x="544.014" y="-274" font-family="Helvetica,sans-Serif" font-size="10.00">+ setalarm()</text>
<text text-anchor="start" x="544.014" y="-264" font-family="Helvetica,sans-Serif" font-size="10.00">+ getalarm()</text>
<text text-anchor="start" x="544.014" y="-254" font-family="Helvetica,sans-Serif" font-size="10.00">+ disablealarm()</text>
<text text-anchor="start" x="544.014" y="-244" font-family="Helvetica,sans-Serif" font-size="10.00">+ set()</text>
<text text-anchor="start" x="544.014" y="-234" font-family="Helvetica,sans-Serif" font-size="10.00">+ get()</text>
<text text-anchor="start" x="544.014" y="-224" font-family="Helvetica,sans-Serif" font-size="10.00">+ ports()</text>
</a>
</g>
</g>
<!-- Node1&#45;&gt;Node10 -->
<g id="edge9" class="edge"><title>Node1&#45;&gt;Node10</title>
<path fill="none" stroke="midnightblue" d="M526.978,-425.674C534.3,-407.767 541.865,-389.266 548.907,-372.043"/>
<polygon fill="none" stroke="midnightblue" points="523.72,-424.393 523.175,-434.974 530.199,-427.043 523.72,-424.393"/>
</g>
<!-- Node11 -->
<g id="node11" class="node"><title>Node11</title>
<g id="a_node11"><a xlink:href="class_hal_1_1_spi.html" target="_top" xlink:title="SPI Class. ">
<polygon fill="none" stroke="black" points="641.957,-228 641.957,-362 716.043,-362 716.043,-228 641.957,-228"/>
<text text-anchor="middle" x="679" y="-350" font-family="Helvetica,sans-Serif" font-size="10.00">Hal::Spi</text>
<polyline fill="none" stroke="black" points="641.957,-344 716.043,-344 "/>
<text text-anchor="middle" x="679" y="-332" font-family="Helvetica,sans-Serif" font-size="10.00"> </text>
<polyline fill="none" stroke="black" points="641.957,-326 716.043,-326 "/>
<text text-anchor="start" x="649.957" y="-314" font-family="Helvetica,sans-Serif" font-size="10.00">+ Spi()</text>
<text text-anchor="start" x="649.957" y="-304" font-family="Helvetica,sans-Serif" font-size="10.00">+ open()</text>
<text text-anchor="start" x="649.957" y="-294" font-family="Helvetica,sans-Serif" font-size="10.00">+ attr()</text>
<text text-anchor="start" x="649.957" y="-284" font-family="Helvetica,sans-Serif" font-size="10.00">+ setattr()</text>
<text text-anchor="start" x="649.957" y="-274" font-family="Helvetica,sans-Serif" font-size="10.00">+ swap()</text>
<text text-anchor="start" x="649.957" y="-264" font-family="Helvetica,sans-Serif" font-size="10.00">+ setduplex()</text>
<text text-anchor="start" x="649.957" y="-254" font-family="Helvetica,sans-Serif" font-size="10.00">+ setattr()</text>
<text text-anchor="start" x="649.957" y="-244" font-family="Helvetica,sans-Serif" font-size="10.00">+ init()</text>
<text text-anchor="start" x="649.957" y="-234" font-family="Helvetica,sans-Serif" font-size="10.00">+ ports()</text>
</a>
</g>
</g>
<!-- Node1&#45;&gt;Node11 -->
<g id="edge10" class="edge"><title>Node1&#45;&gt;Node11</title>
<path fill="none" stroke="midnightblue" d="M534.112,-489.764C564.9,-467.107 604.615,-434.186 632,-398 640.236,-387.117 647.483,-374.559 653.664,-362.056"/>
<polygon fill="none" stroke="midnightblue" points="531.723,-487.173 525.682,-495.877 535.833,-492.84 531.723,-487.173"/>
</g>
<!-- Node12 -->
<g id="node12" class="node"><title>Node12</title>
<g id="a_node12"><a xlink:href="class_hal_1_1_tmr.html" target="_top" xlink:title="Tmr (hardware timer) Class. ">
<polygon fill="none" stroke="black" points="734.127,-213 734.127,-377 813.873,-377 813.873,-213 734.127,-213"/>
<text text-anchor="middle" x="774" y="-365" font-family="Helvetica,sans-Serif" font-size="10.00">Hal::Tmr</text>
<polyline fill="none" stroke="black" points="734.127,-359 813.873,-359 "/>
<text text-anchor="middle" x="774" y="-347" font-family="Helvetica,sans-Serif" font-size="10.00"> </text>
<polyline fill="none" stroke="black" points="734.127,-341 813.873,-341 "/>
<text text-anchor="start" x="742.127" y="-329" font-family="Helvetica,sans-Serif" font-size="10.00">+ Tmr()</text>
<text text-anchor="start" x="742.127" y="-319" font-family="Helvetica,sans-Serif" font-size="10.00">+ open()</text>
<text text-anchor="start" x="742.127" y="-309" font-family="Helvetica,sans-Serif" font-size="10.00">+ attr()</text>
<text text-anchor="start" x="742.127" y="-299" font-family="Helvetica,sans-Serif" font-size="10.00">+ setattr()</text>
<text text-anchor="start" x="742.127" y="-289" font-family="Helvetica,sans-Serif" font-size="10.00">+ setaction()</text>
<text text-anchor="start" x="742.127" y="-279" font-family="Helvetica,sans-Serif" font-size="10.00">+ setaction()</text>
<text text-anchor="start" x="742.127" y="-269" font-family="Helvetica,sans-Serif" font-size="10.00">+ on()</text>
<text text-anchor="start" x="742.127" y="-259" font-family="Helvetica,sans-Serif" font-size="10.00">+ off()</text>
<text text-anchor="start" x="742.127" y="-249" font-family="Helvetica,sans-Serif" font-size="10.00">+ setoc()</text>
<text text-anchor="start" x="742.127" y="-239" font-family="Helvetica,sans-Serif" font-size="10.00">+ setoc()</text>
<text text-anchor="start" x="742.127" y="-229" font-family="Helvetica,sans-Serif" font-size="10.00">and 11 more...</text>
<text text-anchor="start" x="742.127" y="-219" font-family="Helvetica,sans-Serif" font-size="10.00">+ ports()</text>
</a>
</g>
</g>
<!-- Node1&#45;&gt;Node12 -->
<g id="edge11" class="edge"><title>Node1&#45;&gt;Node12</title>
<path fill="none" stroke="midnightblue" d="M535.151,-506.659C587.398,-488.684 671.341,-453.342 725,-398 731.017,-391.794 736.413,-384.708 741.225,-377.228"/>
<polygon fill="none" stroke="midnightblue" points="533.823,-503.413 525.461,-509.919 536.055,-510.048 533.823,-503.413"/>
</g>
<!-- Node13 -->
<g id="node13" class="node"><title>Node13</title>
<g id="a_node13"><a xlink:href="class_hal_1_1_uart.html" target="_top" xlink:title="UART Class. ">
<polygon fill="none" stroke="red" points="831.959,-228 831.959,-362 896.041,-362 896.041,-228 831.959,-228"/>
<text text-anchor="middle" x="864" y="-350" font-family="Helvetica,sans-Serif" font-size="10.00">Hal::Uart</text>
<polyline fill="none" stroke="red" points="831.959,-344 896.041,-344 "/>
<text text-anchor="middle" x="864" y="-332" font-family="Helvetica,sans-Serif" font-size="10.00"> </text>
<polyline fill="none" stroke="red" points="831.959,-326 896.041,-326 "/>
<text text-anchor="start" x="839.959" y="-314" font-family="Helvetica,sans-Serif" font-size="10.00">+ Uart()</text>
<text text-anchor="start" x="839.959" y="-304" font-family="Helvetica,sans-Serif" font-size="10.00">+ open()</text>
<text text-anchor="start" x="839.959" y="-294" font-family="Helvetica,sans-Serif" font-size="10.00">+ attr()</text>
<text text-anchor="start" x="839.959" y="-284" font-family="Helvetica,sans-Serif" font-size="10.00">+ setattr()</text>
<text text-anchor="start" x="839.959" y="-274" font-family="Helvetica,sans-Serif" font-size="10.00">+ getbyte()</text>
<text text-anchor="start" x="839.959" y="-264" font-family="Helvetica,sans-Serif" font-size="10.00">+ flush()</text>
<text text-anchor="start" x="839.959" y="-254" font-family="Helvetica,sans-Serif" font-size="10.00">+ setattr()</text>
<text text-anchor="start" x="839.959" y="-244" font-family="Helvetica,sans-Serif" font-size="10.00">+ init()</text>
<text text-anchor="start" x="839.959" y="-234" font-family="Helvetica,sans-Serif" font-size="10.00">+ ports()</text>
</a>
</g>
</g>
<!-- Node1&#45;&gt;Node13 -->
<g id="edge12" class="edge"><title>Node1&#45;&gt;Node13</title>
<path fill="none" stroke="midnightblue" d="M535.507,-515.631C606.635,-505.205 741.075,-475.926 822,-398 832.277,-388.104 840.13,-375.329 846.098,-362.189"/>
<polygon fill="none" stroke="midnightblue" points="534.904,-512.181 525.486,-517.036 535.876,-519.113 534.904,-512.181"/>
</g>
<!-- Node14 -->
<g id="node14" class="node"><title>Node14</title>
<g id="a_node14"><a xlink:href="class_hal_1_1_usb.html" target="_top" xlink:title="USB Class. ">
<polygon fill="none" stroke="black" points="913.676,-193 913.676,-397 998.324,-397 998.324,-193 913.676,-193"/>
<text text-anchor="middle" x="956" y="-385" font-family="Helvetica,sans-Serif" font-size="10.00">Hal::Usb</text>
<polyline fill="none" stroke="black" points="913.676,-379 998.324,-379 "/>
<text text-anchor="middle" x="956" y="-367" font-family="Helvetica,sans-Serif" font-size="10.00"> </text>
<polyline fill="none" stroke="black" points="913.676,-361 998.324,-361 "/>
<text text-anchor="start" x="921.676" y="-349" font-family="Helvetica,sans-Serif" font-size="10.00">+ Usb()</text>
<text text-anchor="start" x="921.676" y="-339" font-family="Helvetica,sans-Serif" font-size="10.00">+ open()</text>
<text text-anchor="start" x="921.676" y="-329" font-family="Helvetica,sans-Serif" font-size="10.00">+ attr()</text>
<text text-anchor="start" x="921.676" y="-319" font-family="Helvetica,sans-Serif" font-size="10.00">+ setattr()</text>
<text text-anchor="start" x="921.676" y="-309" font-family="Helvetica,sans-Serif" font-size="10.00">+ reset()</text>
<text text-anchor="start" x="921.676" y="-299" font-family="Helvetica,sans-Serif" font-size="10.00">+ attach()</text>
<text text-anchor="start" x="921.676" y="-289" font-family="Helvetica,sans-Serif" font-size="10.00">+ configure()</text>
<text text-anchor="start" x="921.676" y="-279" font-family="Helvetica,sans-Serif" font-size="10.00">+ detach()</text>
<text text-anchor="start" x="921.676" y="-269" font-family="Helvetica,sans-Serif" font-size="10.00">+ disableep()</text>
<text text-anchor="start" x="921.676" y="-259" font-family="Helvetica,sans-Serif" font-size="10.00">+ enableep()</text>
<text text-anchor="start" x="921.676" y="-249" font-family="Helvetica,sans-Serif" font-size="10.00">+ isconnected()</text>
<text text-anchor="start" x="921.676" y="-239" font-family="Helvetica,sans-Serif" font-size="10.00">+ resetep()</text>
<text text-anchor="start" x="921.676" y="-229" font-family="Helvetica,sans-Serif" font-size="10.00">+ setaddr()</text>
<text text-anchor="start" x="921.676" y="-219" font-family="Helvetica,sans-Serif" font-size="10.00">+ stallep()</text>
<text text-anchor="start" x="921.676" y="-209" font-family="Helvetica,sans-Serif" font-size="10.00">+ unstallep()</text>
<text text-anchor="start" x="921.676" y="-199" font-family="Helvetica,sans-Serif" font-size="10.00">+ ports()</text>
</a>
</g>
</g>
<!-- Node1&#45;&gt;Node14 -->
<g id="edge13" class="edge"><title>Node1&#45;&gt;Node14</title>
<path fill="none" stroke="midnightblue" d="M535.472,-519.008C619.355,-513.121 795.271,-489.86 905,-398 908.036,-395.458 910.909,-392.691 913.626,-389.749"/>
<polygon fill="none" stroke="midnightblue" points="535.22,-515.517 525.468,-519.657 535.673,-522.502 535.22,-515.517"/>
</g>
<!-- Node2 -->
<g id="node2" class="node"><title>Node2</title>
<g id="a_node2"><a xlink:href="class_hal_1_1_phy.html" target="_top" xlink:title="Base Applib Class for Physical devices. ">
<polygon fill="none" stroke="black" points="461.104,-647 461.104,-741 514.896,-741 514.896,-647 461.104,-647"/>
<text text-anchor="middle" x="488" y="-729" font-family="Helvetica,sans-Serif" font-size="10.00">Hal::Phy</text>
<polyline fill="none" stroke="black" points="461.104,-723 514.896,-723 "/>
<text text-anchor="middle" x="488" y="-711" font-family="Helvetica,sans-Serif" font-size="10.00"> </text>
<polyline fill="none" stroke="black" points="461.104,-705 514.896,-705 "/>
<text text-anchor="start" x="469.104" y="-693" font-family="Helvetica,sans-Serif" font-size="10.00">+ Phy()</text>
<text text-anchor="start" x="469.104" y="-683" font-family="Helvetica,sans-Serif" font-size="10.00">+ ioctl()</text>
<text text-anchor="start" x="469.104" y="-673" font-family="Helvetica,sans-Serif" font-size="10.00">+ ioctl()</text>
<text text-anchor="start" x="469.104" y="-663" font-family="Helvetica,sans-Serif" font-size="10.00">+ ioctl()</text>
<text text-anchor="start" x="469.104" y="-653" font-family="Helvetica,sans-Serif" font-size="10.00">+ ioctl()</text>
</a>
</g>
</g>
<!-- Node2&#45;&gt;Node1 -->
<g id="edge1" class="edge"><title>Node2&#45;&gt;Node1</title>
<path fill="none" stroke="midnightblue" d="M488,-636.763C488,-627.836 488,-618.428 488,-609.004"/>
<polygon fill="none" stroke="midnightblue" points="484.5,-636.996 488,-646.996 491.5,-636.996 484.5,-636.996"/>
</g>
<!-- Node8 -->
<g id="node8" class="node"><title>Node8</title>
<g id="a_node8"><a xlink:href="class_hal_1_1_pin.html" target="_top" xlink:title="Pin class. ">
<polygon fill="none" stroke="black" points="366.54,-1 366.54,-155 441.46,-155 441.46,-1 366.54,-1"/>
<text text-anchor="middle" x="404" y="-143" font-family="Helvetica,sans-Serif" font-size="10.00">Hal::Pin</text>
<polyline fill="none" stroke="black" points="366.54,-137 441.46,-137 "/>
<text text-anchor="middle" x="404" y="-125" font-family="Helvetica,sans-Serif" font-size="10.00"> </text>
<polyline fill="none" stroke="black" points="366.54,-119 441.46,-119 "/>
<text text-anchor="start" x="374.54" y="-107" font-family="Helvetica,sans-Serif" font-size="10.00">+ Pin()</text>
<text text-anchor="start" x="374.54" y="-97" font-family="Helvetica,sans-Serif" font-size="10.00">+ Pin()</text>
<text text-anchor="start" x="374.54" y="-87" font-family="Helvetica,sans-Serif" font-size="10.00">+ init()</text>
<text text-anchor="start" x="374.54" y="-77" font-family="Helvetica,sans-Serif" font-size="10.00">+ setattr()</text>
<text text-anchor="start" x="374.54" y="-67" font-family="Helvetica,sans-Serif" font-size="10.00">+ setinput()</text>
<text text-anchor="start" x="374.54" y="-57" font-family="Helvetica,sans-Serif" font-size="10.00">+ setoutput()</text>
<text text-anchor="start" x="374.54" y="-47" font-family="Helvetica,sans-Serif" font-size="10.00">+ operator=()</text>
<text text-anchor="start" x="374.54" y="-37" font-family="Helvetica,sans-Serif" font-size="10.00">+ get()</text>
<text text-anchor="start" x="374.54" y="-27" font-family="Helvetica,sans-Serif" font-size="10.00">+ value()</text>
<text text-anchor="start" x="374.54" y="-17" font-family="Helvetica,sans-Serif" font-size="10.00">+ isset()</text>
<text text-anchor="start" x="374.54" y="-7" font-family="Helvetica,sans-Serif" font-size="10.00">and 9 more...</text>
</a>
</g>
</g>
<!-- Node7&#45;&gt;Node8 -->
<g id="edge7" class="edge"><title>Node7&#45;&gt;Node8</title>
<path fill="none" stroke="midnightblue" d="M404,-187.725C404,-176.714 404,-165.686 404,-155.104"/>
<polygon fill="none" stroke="midnightblue" points="400.5,-187.819 404,-197.819 407.5,-187.819 400.5,-187.819"/>
</g>
</g>
</svg>
