<?xml version="1.0" encoding="UTF-8" standalone="no"?>
<!DOCTYPE svg PUBLIC "-//W3C//DTD SVG 1.1//EN"
 "http://www.w3.org/Graphics/SVG/1.1/DTD/svg11.dtd">
<!-- Generated by graphviz version 2.36.0 (20140111.2315)
 -->
<!-- Title: Var::StringLarge Pages: 1 -->
<svg width="132pt" height="398pt"
 viewBox="0.00 0.00 132.00 398.00" xmlns="http://www.w3.org/2000/svg" xmlns:xlink="http://www.w3.org/1999/xlink">
<g id="graph0" class="graph" transform="scale(1 1) rotate(0) translate(4 394)">
<title>Var::StringLarge</title>
<!-- Node1 -->
<g id="node1" class="node"><title>Node1</title>
<polygon fill="#bfbfbf" stroke="black" points="17.96,-1 17.96,-75 106.04,-75 106.04,-1 17.96,-1"/>
<text text-anchor="middle" x="62" y="-63" font-family="Helvetica,sans-Serif" font-size="10.00">Var::StringLarge</text>
<polyline fill="none" stroke="black" points="17.96,-57 106.04,-57 "/>
<text text-anchor="middle" x="62" y="-45" font-family="Helvetica,sans-Serif" font-size="10.00"> </text>
<polyline fill="none" stroke="black" points="17.96,-39 106.04,-39 "/>
<text text-anchor="start" x="25.96" y="-27" font-family="Helvetica,sans-Serif" font-size="10.00">+ StringLarge()</text>
<text text-anchor="start" x="25.96" y="-17" font-family="Helvetica,sans-Serif" font-size="10.00">+ StringLarge()</text>
<text text-anchor="start" x="25.96" y="-7" font-family="Helvetica,sans-Serif" font-size="10.00">+ StringLarge()</text>
</g>
<!-- Node2 -->
<g id="node2" class="node"><title>Node2</title>
<g id="a_node2"><a xlink:href="class_var_1_1_string_static.html" target="_top" xlink:title="{Var::StringStatic\&lt;\l 128 \&gt;\n||+ StringStatic()\l+ StringStatic()\l+ StringStatic()\l}">
<polygon fill="none" stroke="black" points="15.3232,-113 15.3232,-197 108.677,-197 108.677,-113 15.3232,-113"/>
<text text-anchor="start" x="23.3232" y="-185" font-family="Helvetica,sans-Serif" font-size="10.00">Var::StringStatic&lt;</text>
<text text-anchor="middle" x="62" y="-175" font-family="Helvetica,sans-Serif" font-size="10.00"> 128 &gt;</text>
<polyline fill="none" stroke="black" points="15.3232,-169 108.677,-169 "/>
<text text-anchor="middle" x="62" y="-157" font-family="Helvetica,sans-Serif" font-size="10.00"> </text>
<polyline fill="none" stroke="black" points="15.3232,-151 108.677,-151 "/>
<text text-anchor="start" x="23.3232" y="-139" font-family="Helvetica,sans-Serif" font-size="10.00">+ StringStatic()</text>
<text text-anchor="start" x="23.3232" y="-129" font-family="Helvetica,sans-Serif" font-size="10.00">+ StringStatic()</text>
<text text-anchor="start" x="23.3232" y="-119" font-family="Helvetica,sans-Serif" font-size="10.00">+ StringStatic()</text>
</a>
</g>
</g>
<!-- Node2&#45;&gt;Node1 -->
<g id="edge1" class="edge"><title>Node2&#45;&gt;Node1</title>
<path fill="none" stroke="midnightblue" d="M62,-102.572C62,-93.3822 62,-83.9836 62,-75.3287"/>
<polygon fill="none" stroke="midnightblue" points="58.5001,-102.807 62,-112.807 65.5001,-102.807 58.5001,-102.807"/>
</g>
<!-- Node3 -->
<g id="node3" class="node"><title>Node3</title>
<g id="a_node3"><a xlink:href="class_var_1_1_string.html" target="_top" xlink:title="String class. ">
<polygon fill="none" stroke="black" points="-0.0527344,-235 -0.0527344,-389 124.053,-389 124.053,-235 -0.0527344,-235"/>
<text text-anchor="middle" x="62" y="-377" font-family="Helvetica,sans-Serif" font-size="10.00">Var::String</text>
<polyline fill="none" stroke="black" points="-0.0527344,-371 124.053,-371 "/>
<text text-anchor="middle" x="62" y="-359" font-family="Helvetica,sans-Serif" font-size="10.00"> </text>
<polyline fill="none" stroke="black" points="-0.0527344,-353 124.053,-353 "/>
<text text-anchor="start" x="7.94727" y="-341" font-family="Helvetica,sans-Serif" font-size="10.00">+ String()</text>
<text text-anchor="start" x="7.94727" y="-331" font-family="Helvetica,sans-Serif" font-size="10.00">+ String()</text>
<text text-anchor="start" x="7.94727" y="-321" font-family="Helvetica,sans-Serif" font-size="10.00">+ String()</text>
<text text-anchor="start" x="7.94727" y="-311" font-family="Helvetica,sans-Serif" font-size="10.00">+ String()</text>
<text text-anchor="start" x="7.94727" y="-301" font-family="Helvetica,sans-Serif" font-size="10.00">+ operator const char *()</text>
<text text-anchor="start" x="7.94727" y="-291" font-family="Helvetica,sans-Serif" font-size="10.00">+ String()</text>
<text text-anchor="start" x="7.94727" y="-281" font-family="Helvetica,sans-Serif" font-size="10.00">+ set_capacity()</text>
<text text-anchor="start" x="7.94727" y="-271" font-family="Helvetica,sans-Serif" font-size="10.00">+ operator=()</text>
<text text-anchor="start" x="7.94727" y="-261" font-family="Helvetica,sans-Serif" font-size="10.00">+ operator&lt;&lt;()</text>
<text text-anchor="start" x="7.94727" y="-251" font-family="Helvetica,sans-Serif" font-size="10.00">+ operator&lt;&lt;()</text>
<text text-anchor="start" x="7.94727" y="-241" font-family="Helvetica,sans-Serif" font-size="10.00">and 41 more...</text>
</a>
</g>
</g>
<!-- Node3&#45;&gt;Node2 -->
<g id="edge2" class="edge"><title>Node3&#45;&gt;Node2</title>
<path fill="none" stroke="midnightblue" d="M62,-224.811C62,-215.204 62,-205.777 62,-197.132"/>
<polygon fill="none" stroke="midnightblue" points="58.5001,-224.862 62,-234.862 65.5001,-224.862 58.5001,-224.862"/>
</g>
</g>
</svg>
