<?xml version="1.0" encoding="UTF-8" standalone="no"?>
<!DOCTYPE svg PUBLIC "-//W3C//DTD SVG 1.1//EN"
 "http://www.w3.org/Graphics/SVG/1.1/DTD/svg11.dtd">
<!-- Generated by graphviz version 2.36.0 (20140111.2315)
 -->
<!-- Title: File Pages: 1 -->
<svg width="179pt" height="396pt"
 viewBox="0.00 0.00 179.00 396.00" xmlns="http://www.w3.org/2000/svg" xmlns:xlink="http://www.w3.org/1999/xlink">
<g id="graph0" class="graph" transform="scale(1 1) rotate(0) translate(4 392)">
<title>File</title>
<!-- Node1 -->
<g id="node1" class="node"><title>Node1</title>
<polygon fill="#bfbfbf" stroke="black" points="32.8931,-193 32.8931,-387 133.107,-387 133.107,-193 32.8931,-193"/>
<text text-anchor="middle" x="83" y="-375" font-family="Helvetica,sans-Serif" font-size="10.00">File</text>
<polyline fill="none" stroke="black" points="32.8931,-369 133.107,-369 "/>
<text text-anchor="middle" x="83" y="-357" font-family="Helvetica,sans-Serif" font-size="10.00"> </text>
<polyline fill="none" stroke="black" points="32.8931,-351 133.107,-351 "/>
<text text-anchor="start" x="40.8931" y="-339" font-family="Helvetica,sans-Serif" font-size="10.00">+ File()</text>
<text text-anchor="start" x="40.8931" y="-329" font-family="Helvetica,sans-Serif" font-size="10.00">+ open()</text>
<text text-anchor="start" x="40.8931" y="-319" font-family="Helvetica,sans-Serif" font-size="10.00">+ open_readwrite()</text>
<text text-anchor="start" x="40.8931" y="-309" font-family="Helvetica,sans-Serif" font-size="10.00">+ open_readonly()</text>
<text text-anchor="start" x="40.8931" y="-299" font-family="Helvetica,sans-Serif" font-size="10.00">+ open_append()</text>
<text text-anchor="start" x="40.8931" y="-289" font-family="Helvetica,sans-Serif" font-size="10.00">+ create()</text>
<text text-anchor="start" x="40.8931" y="-279" font-family="Helvetica,sans-Serif" font-size="10.00">+ read()</text>
<text text-anchor="start" x="40.8931" y="-269" font-family="Helvetica,sans-Serif" font-size="10.00">+ read()</text>
<text text-anchor="start" x="40.8931" y="-259" font-family="Helvetica,sans-Serif" font-size="10.00">+ write()</text>
<text text-anchor="start" x="40.8931" y="-249" font-family="Helvetica,sans-Serif" font-size="10.00">+ write()</text>
<text text-anchor="start" x="40.8931" y="-239" font-family="Helvetica,sans-Serif" font-size="10.00">and 12 more...</text>
<text text-anchor="start" x="40.8931" y="-229" font-family="Helvetica,sans-Serif" font-size="10.00">+ remove()</text>
<text text-anchor="start" x="40.8931" y="-219" font-family="Helvetica,sans-Serif" font-size="10.00">+ stat()</text>
<text text-anchor="start" x="40.8931" y="-209" font-family="Helvetica,sans-Serif" font-size="10.00">+ size()</text>
<text text-anchor="start" x="40.8931" y="-199" font-family="Helvetica,sans-Serif" font-size="10.00">+ name()</text>
</g>
<!-- Node2 -->
<g id="node2" class="node"><title>Node2</title>
<g id="a_node2"><a xlink:href="class_calc_1_1_rle_file.html" target="_top" xlink:title="Class for reading/writing compressed file data. ">
<polygon fill="none" stroke="black" points="-0.339844,-46 -0.339844,-110 72.3398,-110 72.3398,-46 -0.339844,-46"/>
<text text-anchor="middle" x="36" y="-98" font-family="Helvetica,sans-Serif" font-size="10.00">Calc::RleFile</text>
<polyline fill="none" stroke="black" points="-0.339844,-92 72.3398,-92 "/>
<text text-anchor="middle" x="36" y="-80" font-family="Helvetica,sans-Serif" font-size="10.00"> </text>
<polyline fill="none" stroke="black" points="-0.339844,-74 72.3398,-74 "/>
<text text-anchor="start" x="7.66016" y="-62" font-family="Helvetica,sans-Serif" font-size="10.00">+ write()</text>
<text text-anchor="start" x="7.66016" y="-52" font-family="Helvetica,sans-Serif" font-size="10.00">+ read()</text>
</a>
</g>
</g>
<!-- Node1&#45;&gt;Node2 -->
<g id="edge1" class="edge"><title>Node1&#45;&gt;Node2</title>
<path fill="none" stroke="midnightblue" d="M59.3005,-183.109C53.34,-156.477 47.3966,-129.921 43.0042,-110.296"/>
<polygon fill="none" stroke="midnightblue" points="55.8948,-183.917 61.4944,-192.911 62.7258,-182.388 55.8948,-183.917"/>
</g>
<!-- Node3 -->
<g id="node3" class="node"><title>Node3</title>
<g id="a_node3"><a xlink:href="class_fmt_1_1_xml.html" target="_top" xlink:title="XML Class. ">
<polygon fill="none" stroke="black" points="90.7588,-1 90.7588,-155 171.241,-155 171.241,-1 90.7588,-1"/>
<text text-anchor="middle" x="131" y="-143" font-family="Helvetica,sans-Serif" font-size="10.00">Fmt::Xml</text>
<polyline fill="none" stroke="black" points="90.7588,-137 171.241,-137 "/>
<text text-anchor="middle" x="131" y="-125" font-family="Helvetica,sans-Serif" font-size="10.00"> </text>
<polyline fill="none" stroke="black" points="90.7588,-119 171.241,-119 "/>
<text text-anchor="start" x="98.7588" y="-107" font-family="Helvetica,sans-Serif" font-size="10.00">+ Xml()</text>
<text text-anchor="start" x="98.7588" y="-97" font-family="Helvetica,sans-Serif" font-size="10.00">+ Xml()</text>
<text text-anchor="start" x="98.7588" y="-87" font-family="Helvetica,sans-Serif" font-size="10.00">+ init()</text>
<text text-anchor="start" x="98.7588" y="-77" font-family="Helvetica,sans-Serif" font-size="10.00">+ close()</text>
<text text-anchor="start" x="98.7588" y="-67" font-family="Helvetica,sans-Serif" font-size="10.00">+ exit()</text>
<text text-anchor="start" x="98.7588" y="-57" font-family="Helvetica,sans-Serif" font-size="10.00">+ value()</text>
<text text-anchor="start" x="98.7588" y="-47" font-family="Helvetica,sans-Serif" font-size="10.00">+ value()</text>
<text text-anchor="start" x="98.7588" y="-37" font-family="Helvetica,sans-Serif" font-size="10.00">+ setvalue()</text>
<text text-anchor="start" x="98.7588" y="-27" font-family="Helvetica,sans-Serif" font-size="10.00">+ setvalue()</text>
<text text-anchor="start" x="98.7588" y="-17" font-family="Helvetica,sans-Serif" font-size="10.00">+ find()</text>
<text text-anchor="start" x="98.7588" y="-7" font-family="Helvetica,sans-Serif" font-size="10.00">and 17 more...</text>
</a>
</g>
</g>
<!-- Node1&#45;&gt;Node3 -->
<g id="edge2" class="edge"><title>Node1&#45;&gt;Node3</title>
<path fill="none" stroke="midnightblue" d="M107.202,-183.116C109.352,-173.708 111.501,-164.31 113.578,-155.223"/>
<polygon fill="none" stroke="midnightblue" points="103.779,-182.383 104.963,-192.911 110.603,-183.943 103.779,-182.383"/>
</g>
</g>
</svg>
