<?xml version="1.0" encoding="UTF-8" standalone="no"?>
<!DOCTYPE svg PUBLIC "-//W3C//DTD SVG 1.1//EN"
 "http://www.w3.org/Graphics/SVG/1.1/DTD/svg11.dtd">
<!-- Generated by graphviz version 2.36.0 (20140111.2315)
 -->
<!-- Title: Calc::Ema_i32 Pages: 1 -->
<svg width="116pt" height="216pt"
 viewBox="0.00 0.00 116.00 216.00" xmlns="http://www.w3.org/2000/svg" xmlns:xlink="http://www.w3.org/1999/xlink">
<g id="graph0" class="graph" transform="scale(1 1) rotate(0) translate(4 212)">
<title>Calc::Ema_i32</title>
<!-- Node1 -->
<g id="node1" class="node"><title>Node1</title>
<polygon fill="#bfbfbf" stroke="black" points="13.4854,-1 13.4854,-55 94.5146,-55 94.5146,-1 13.4854,-1"/>
<text text-anchor="middle" x="54" y="-43" font-family="Helvetica,sans-Serif" font-size="10.00">Calc::Ema_i32</text>
<polyline fill="none" stroke="black" points="13.4854,-37 94.5146,-37 "/>
<text text-anchor="middle" x="54" y="-25" font-family="Helvetica,sans-Serif" font-size="10.00"> </text>
<polyline fill="none" stroke="black" points="13.4854,-19 94.5146,-19 "/>
<text text-anchor="start" x="21.4854" y="-7" font-family="Helvetica,sans-Serif" font-size="10.00">+ Ema_i32()</text>
</g>
<!-- Node2 -->
<g id="node2" class="node"><title>Node2</title>
<g id="a_node2"><a xlink:href="class_calc_1_1_ema.html" target="_top" xlink:title="{Calc::Ema\&lt; u16, i32,\l i64 \&gt;\n||+ Ema()\l+ calc()\l+ average()\l+ avg()\l+ set()\l+ small_max()\l}">
<polygon fill="none" stroke="black" points="-0.552734,-93 -0.552734,-207 108.553,-207 108.553,-93 -0.552734,-93"/>
<text text-anchor="start" x="7.44727" y="-195" font-family="Helvetica,sans-Serif" font-size="10.00">Calc::Ema&lt; u16, i32,</text>
<text text-anchor="middle" x="54" y="-185" font-family="Helvetica,sans-Serif" font-size="10.00"> i64 &gt;</text>
<polyline fill="none" stroke="black" points="-0.552734,-179 108.553,-179 "/>
<text text-anchor="middle" x="54" y="-167" font-family="Helvetica,sans-Serif" font-size="10.00"> </text>
<polyline fill="none" stroke="black" points="-0.552734,-161 108.553,-161 "/>
<text text-anchor="start" x="7.44727" y="-149" font-family="Helvetica,sans-Serif" font-size="10.00">+ Ema()</text>
<text text-anchor="start" x="7.44727" y="-139" font-family="Helvetica,sans-Serif" font-size="10.00">+ calc()</text>
<text text-anchor="start" x="7.44727" y="-129" font-family="Helvetica,sans-Serif" font-size="10.00">+ average()</text>
<text text-anchor="start" x="7.44727" y="-119" font-family="Helvetica,sans-Serif" font-size="10.00">+ avg()</text>
<text text-anchor="start" x="7.44727" y="-109" font-family="Helvetica,sans-Serif" font-size="10.00">+ set()</text>
<text text-anchor="start" x="7.44727" y="-99" font-family="Helvetica,sans-Serif" font-size="10.00">+ small_max()</text>
</a>
</g>
</g>
<!-- Node2&#45;&gt;Node1 -->
<g id="edge1" class="edge"><title>Node2&#45;&gt;Node1</title>
<path fill="none" stroke="midnightblue" d="M54,-82.6683C54,-72.92 54,-63.3972 54,-55.1446"/>
<polygon fill="none" stroke="midnightblue" points="50.5001,-82.8648 54,-92.8648 57.5001,-82.8648 50.5001,-82.8648"/>
</g>
</g>
</svg>
