<?xml version="1.0" encoding="UTF-8" standalone="no"?>
<!DOCTYPE svg PUBLIC "-//W3C//DTD SVG 1.1//EN"
 "http://www.w3.org/Graphics/SVG/1.1/DTD/svg11.dtd">
<!-- Generated by graphviz version 2.36.0 (20140111.2315)
 -->
<!-- Title: Dbug Pages: 1 -->
<svg width="274pt" height="286pt"
 viewBox="0.00 0.00 274.00 286.00" xmlns="http://www.w3.org/2000/svg" xmlns:xlink="http://www.w3.org/1999/xlink">
<g id="graph0" class="graph" transform="scale(1 1) rotate(0) translate(4 282)">
<title>Dbug</title>
<!-- Node1 -->
<g id="node1" class="node"><title>Node1</title>
<polygon fill="#bfbfbf" stroke="black" points="91.8979,-133 91.8979,-277 172.102,-277 172.102,-133 91.8979,-133"/>
<text text-anchor="middle" x="132" y="-265" font-family="Helvetica,sans-Serif" font-size="10.00">Dbug</text>
<polyline fill="none" stroke="black" points="91.8979,-259 172.102,-259 "/>
<text text-anchor="middle" x="132" y="-247" font-family="Helvetica,sans-Serif" font-size="10.00"> </text>
<polyline fill="none" stroke="black" points="91.8979,-241 172.102,-241 "/>
<text text-anchor="start" x="99.8979" y="-229" font-family="Helvetica,sans-Serif" font-size="10.00">+ Dbug()</text>
<text text-anchor="start" x="99.8979" y="-219" font-family="Helvetica,sans-Serif" font-size="10.00">+ setmode()</text>
<text text-anchor="start" x="99.8979" y="-209" font-family="Helvetica,sans-Serif" font-size="10.00">+ puts()</text>
<text text-anchor="start" x="99.8979" y="-199" font-family="Helvetica,sans-Serif" font-size="10.00">+ operator&lt;&lt;()</text>
<text text-anchor="start" x="99.8979" y="-189" font-family="Helvetica,sans-Serif" font-size="10.00">+ operator&lt;&lt;()</text>
<text text-anchor="start" x="99.8979" y="-179" font-family="Helvetica,sans-Serif" font-size="10.00">+ operator&lt;&lt;()</text>
<text text-anchor="start" x="99.8979" y="-169" font-family="Helvetica,sans-Serif" font-size="10.00">+ operator&lt;&lt;()</text>
<text text-anchor="start" x="99.8979" y="-159" font-family="Helvetica,sans-Serif" font-size="10.00">+ operator&lt;&lt;()</text>
<text text-anchor="start" x="99.8979" y="-149" font-family="Helvetica,sans-Serif" font-size="10.00">+ operator&lt;&lt;()</text>
<text text-anchor="start" x="99.8979" y="-139" font-family="Helvetica,sans-Serif" font-size="10.00">+ write()</text>
</g>
<!-- Node2 -->
<g id="node2" class="node"><title>Node2</title>
<g id="a_node2"><a xlink:href="class_dbug_null.html" target="_top" xlink:title="Debug Null Class. ">
<polygon fill="none" stroke="black" points="-0.205566,-1 -0.205566,-95 72.2056,-95 72.2056,-1 -0.205566,-1"/>
<text text-anchor="middle" x="36" y="-83" font-family="Helvetica,sans-Serif" font-size="10.00">DbugNull</text>
<polyline fill="none" stroke="black" points="-0.205566,-77 72.2056,-77 "/>
<text text-anchor="middle" x="36" y="-65" font-family="Helvetica,sans-Serif" font-size="10.00"> </text>
<polyline fill="none" stroke="black" points="-0.205566,-59 72.2056,-59 "/>
<text text-anchor="start" x="7.79443" y="-47" font-family="Helvetica,sans-Serif" font-size="10.00">+ DbugNull()</text>
<text text-anchor="start" x="7.79443" y="-37" font-family="Helvetica,sans-Serif" font-size="10.00">+ open()</text>
<text text-anchor="start" x="7.79443" y="-27" font-family="Helvetica,sans-Serif" font-size="10.00">+ close()</text>
<text text-anchor="start" x="7.79443" y="-17" font-family="Helvetica,sans-Serif" font-size="10.00">+ read()</text>
<text text-anchor="start" x="7.79443" y="-7" font-family="Helvetica,sans-Serif" font-size="10.00">+ write()</text>
</a>
</g>
</g>
<!-- Node1&#45;&gt;Node2 -->
<g id="edge1" class="edge"><title>Node1&#45;&gt;Node2</title>
<path fill="none" stroke="midnightblue" d="M86.4504,-130.456C79.0106,-118.444 71.492,-106.305 64.6122,-95.1968"/>
<polygon fill="none" stroke="midnightblue" points="83.6026,-132.506 91.8436,-139.164 89.5536,-128.82 83.6026,-132.506"/>
</g>
<!-- Node3 -->
<g id="node3" class="node"><title>Node3</title>
<g id="a_node3"><a xlink:href="class_dbug_stdout.html" target="_top" xlink:title="Debug Stdout Class. ">
<polygon fill="none" stroke="black" points="89.9521,-1 89.9521,-95 174.048,-95 174.048,-1 89.9521,-1"/>
<text text-anchor="middle" x="132" y="-83" font-family="Helvetica,sans-Serif" font-size="10.00">DbugStdout</text>
<polyline fill="none" stroke="black" points="89.9521,-77 174.048,-77 "/>
<text text-anchor="middle" x="132" y="-65" font-family="Helvetica,sans-Serif" font-size="10.00"> </text>
<polyline fill="none" stroke="black" points="89.9521,-59 174.048,-59 "/>
<text text-anchor="start" x="97.9521" y="-47" font-family="Helvetica,sans-Serif" font-size="10.00">+ DbugStdout()</text>
<text text-anchor="start" x="97.9521" y="-37" font-family="Helvetica,sans-Serif" font-size="10.00">+ open()</text>
<text text-anchor="start" x="97.9521" y="-27" font-family="Helvetica,sans-Serif" font-size="10.00">+ close()</text>
<text text-anchor="start" x="97.9521" y="-17" font-family="Helvetica,sans-Serif" font-size="10.00">+ read()</text>
<text text-anchor="start" x="97.9521" y="-7" font-family="Helvetica,sans-Serif" font-size="10.00">+ write()</text>
</a>
</g>
</g>
<!-- Node1&#45;&gt;Node3 -->
<g id="edge2" class="edge"><title>Node1&#45;&gt;Node3</title>
<path fill="none" stroke="midnightblue" d="M132,-122.681C132,-113.312 132,-104.018 132,-95.3476"/>
<polygon fill="none" stroke="midnightblue" points="128.5,-122.851 132,-132.851 135.5,-122.851 128.5,-122.851"/>
</g>
<!-- Node4 -->
<g id="node4" class="node"><title>Node4</title>
<g id="a_node4"><a xlink:href="class_dbug_uart.html" target="_top" xlink:title="Debug UART Class. ">
<polygon fill="none" stroke="black" points="191.962,-1 191.962,-95 266.038,-95 266.038,-1 191.962,-1"/>
<text text-anchor="middle" x="229" y="-83" font-family="Helvetica,sans-Serif" font-size="10.00">DbugUart</text>
<polyline fill="none" stroke="black" points="191.962,-77 266.038,-77 "/>
<text text-anchor="middle" x="229" y="-65" font-family="Helvetica,sans-Serif" font-size="10.00"> </text>
<polyline fill="none" stroke="black" points="191.962,-59 266.038,-59 "/>
<text text-anchor="start" x="199.962" y="-47" font-family="Helvetica,sans-Serif" font-size="10.00">+ DbugUart()</text>
<text text-anchor="start" x="199.962" y="-37" font-family="Helvetica,sans-Serif" font-size="10.00">+ open()</text>
<text text-anchor="start" x="199.962" y="-27" font-family="Helvetica,sans-Serif" font-size="10.00">+ close()</text>
<text text-anchor="start" x="199.962" y="-17" font-family="Helvetica,sans-Serif" font-size="10.00">+ read()</text>
<text text-anchor="start" x="199.962" y="-7" font-family="Helvetica,sans-Serif" font-size="10.00">+ write()</text>
</a>
</g>
</g>
<!-- Node1&#45;&gt;Node4 -->
<g id="edge3" class="edge"><title>Node1&#45;&gt;Node4</title>
<path fill="none" stroke="midnightblue" d="M177.599,-131.135C185.298,-118.832 193.096,-106.373 200.211,-95.0036"/>
<polygon fill="none" stroke="midnightblue" points="174.632,-129.279 172.294,-139.613 180.566,-132.992 174.632,-129.279"/>
</g>
</g>
</svg>
