<?xml version="1.0" encoding="UTF-8" standalone="no"?>
<!DOCTYPE svg PUBLIC "-//W3C//DTD SVG 1.1//EN"
 "http://www.w3.org/Graphics/SVG/1.1/DTD/svg11.dtd">
<!-- Generated by graphviz version 2.36.0 (20140111.2315)
 -->
<!-- Title: Periph Pages: 1 -->
<svg width="558pt" height="790pt"
 viewBox="0.00 0.00 558.00 790.00" xmlns="http://www.w3.org/2000/svg" xmlns:xlink="http://www.w3.org/1999/xlink">
<g id="graph0" class="graph" transform="scale(1 1) rotate(0) translate(4 786)">
<title>Periph</title>
<!-- Node1 -->
<g id="node1" class="node"><title>Node1</title>
<polygon fill="#bfbfbf" stroke="black" points="245.54,-475 245.54,-649 320.46,-649 320.46,-475 245.54,-475"/>
<text text-anchor="middle" x="283" y="-637" font-family="Helvetica,sans-Serif" font-size="10.00">Periph</text>
<polyline fill="none" stroke="black" points="245.54,-631 320.46,-631 "/>
<text text-anchor="start" x="253.54" y="-619" font-family="Helvetica,sans-Serif" font-size="10.00"># port_</text>
<text text-anchor="start" x="253.54" y="-609" font-family="Helvetica,sans-Serif" font-size="10.00"># fd</text>
<polyline fill="none" stroke="black" points="245.54,-603 320.46,-603 "/>
<text text-anchor="start" x="253.54" y="-591" font-family="Helvetica,sans-Serif" font-size="10.00">+ Periph()</text>
<text text-anchor="start" x="253.54" y="-581" font-family="Helvetica,sans-Serif" font-size="10.00">+ open()</text>
<text text-anchor="start" x="253.54" y="-571" font-family="Helvetica,sans-Serif" font-size="10.00">+ open()</text>
<text text-anchor="start" x="253.54" y="-561" font-family="Helvetica,sans-Serif" font-size="10.00">+ setflags()</text>
<text text-anchor="start" x="253.54" y="-551" font-family="Helvetica,sans-Serif" font-size="10.00">+ read()</text>
<text text-anchor="start" x="253.54" y="-541" font-family="Helvetica,sans-Serif" font-size="10.00">+ read()</text>
<text text-anchor="start" x="253.54" y="-531" font-family="Helvetica,sans-Serif" font-size="10.00">+ write()</text>
<text text-anchor="start" x="253.54" y="-521" font-family="Helvetica,sans-Serif" font-size="10.00">+ readline()</text>
<text text-anchor="start" x="253.54" y="-511" font-family="Helvetica,sans-Serif" font-size="10.00">+ write()</text>
<text text-anchor="start" x="253.54" y="-501" font-family="Helvetica,sans-Serif" font-size="10.00">+ write()</text>
<text text-anchor="start" x="253.54" y="-491" font-family="Helvetica,sans-Serif" font-size="10.00">and 7 more...</text>
<text text-anchor="start" x="253.54" y="-481" font-family="Helvetica,sans-Serif" font-size="10.00"># _open()</text>
</g>
<!-- Node3 -->
<g id="node3" class="node"><title>Node3</title>
<g id="a_node3"><a xlink:href="class_core.html" target="_top" xlink:title="Core Class. ">
<polygon fill="none" stroke="black" points="-0.722656,-248 -0.722656,-432 106.723,-432 106.723,-248 -0.722656,-248"/>
<text text-anchor="middle" x="53" y="-420" font-family="Helvetica,sans-Serif" font-size="10.00">Core</text>
<polyline fill="none" stroke="black" points="-0.722656,-414 106.723,-414 "/>
<text text-anchor="middle" x="53" y="-402" font-family="Helvetica,sans-Serif" font-size="10.00"> </text>
<polyline fill="none" stroke="black" points="-0.722656,-396 106.723,-396 "/>
<text text-anchor="start" x="7.27734" y="-384" font-family="Helvetica,sans-Serif" font-size="10.00">+ Core()</text>
<text text-anchor="start" x="7.27734" y="-374" font-family="Helvetica,sans-Serif" font-size="10.00">+ open()</text>
<text text-anchor="start" x="7.27734" y="-364" font-family="Helvetica,sans-Serif" font-size="10.00">+ getattr()</text>
<text text-anchor="start" x="7.27734" y="-354" font-family="Helvetica,sans-Serif" font-size="10.00">+ setattr()</text>
<text text-anchor="start" x="7.27734" y="-344" font-family="Helvetica,sans-Serif" font-size="10.00">+ setpinfunc()</text>
<text text-anchor="start" x="7.27734" y="-334" font-family="Helvetica,sans-Serif" font-size="10.00">+ setpinfunc()</text>
<text text-anchor="start" x="7.27734" y="-324" font-family="Helvetica,sans-Serif" font-size="10.00">+ setpinfunc()</text>
<text text-anchor="start" x="7.27734" y="-314" font-family="Helvetica,sans-Serif" font-size="10.00">+ sleep()</text>
<text text-anchor="start" x="7.27734" y="-304" font-family="Helvetica,sans-Serif" font-size="10.00">+ reset()</text>
<text text-anchor="start" x="7.27734" y="-294" font-family="Helvetica,sans-Serif" font-size="10.00">+ invokebootloader()</text>
<text text-anchor="start" x="7.27734" y="-284" font-family="Helvetica,sans-Serif" font-size="10.00">+ setirqprio()</text>
<text text-anchor="start" x="7.27734" y="-274" font-family="Helvetica,sans-Serif" font-size="10.00">+ setirqprio()</text>
<text text-anchor="start" x="7.27734" y="-264" font-family="Helvetica,sans-Serif" font-size="10.00">+ setclkout()</text>
<text text-anchor="start" x="7.27734" y="-254" font-family="Helvetica,sans-Serif" font-size="10.00">+ getports()</text>
</a>
</g>
</g>
<!-- Node1&#45;&gt;Node3 -->
<g id="edge2" class="edge"><title>Node1&#45;&gt;Node3</title>
<path fill="none" stroke="midnightblue" d="M236.695,-533.755C200.763,-511.131 151.149,-476.511 115,-438 112.264,-435.086 109.578,-432.034 106.949,-428.886"/>
<polygon fill="none" stroke="midnightblue" points="235.179,-536.934 245.519,-539.244 238.876,-530.99 235.179,-536.934"/>
</g>
<!-- Node4 -->
<g id="node4" class="node"><title>Node4</title>
<g id="a_node4"><a xlink:href="class_eint.html" target="_top" xlink:title="External Interrupt Class. ">
<polygon fill="none" stroke="black" points="124.349,-263 124.349,-417 195.651,-417 195.651,-263 124.349,-263"/>
<text text-anchor="middle" x="160" y="-405" font-family="Helvetica,sans-Serif" font-size="10.00">Eint</text>
<polyline fill="none" stroke="black" points="124.349,-399 195.651,-399 "/>
<text text-anchor="middle" x="160" y="-387" font-family="Helvetica,sans-Serif" font-size="10.00"> </text>
<polyline fill="none" stroke="black" points="124.349,-381 195.651,-381 "/>
<text text-anchor="start" x="132.349" y="-369" font-family="Helvetica,sans-Serif" font-size="10.00">+ Eint()</text>
<text text-anchor="start" x="132.349" y="-359" font-family="Helvetica,sans-Serif" font-size="10.00">+ open()</text>
<text text-anchor="start" x="132.349" y="-349" font-family="Helvetica,sans-Serif" font-size="10.00">+ getattr()</text>
<text text-anchor="start" x="132.349" y="-339" font-family="Helvetica,sans-Serif" font-size="10.00">+ setattr()</text>
<text text-anchor="start" x="132.349" y="-329" font-family="Helvetica,sans-Serif" font-size="10.00">+ setaction()</text>
<text text-anchor="start" x="132.349" y="-319" font-family="Helvetica,sans-Serif" font-size="10.00">+ value()</text>
<text text-anchor="start" x="132.349" y="-309" font-family="Helvetica,sans-Serif" font-size="10.00">+ get()</text>
<text text-anchor="start" x="132.349" y="-299" font-family="Helvetica,sans-Serif" font-size="10.00">+ setaction()</text>
<text text-anchor="start" x="132.349" y="-289" font-family="Helvetica,sans-Serif" font-size="10.00">+ setattr()</text>
<text text-anchor="start" x="132.349" y="-279" font-family="Helvetica,sans-Serif" font-size="10.00">+ init()</text>
<text text-anchor="start" x="132.349" y="-269" font-family="Helvetica,sans-Serif" font-size="10.00">+ getports()</text>
</a>
</g>
</g>
<!-- Node1&#45;&gt;Node4 -->
<g id="edge3" class="edge"><title>Node1&#45;&gt;Node4</title>
<path fill="none" stroke="midnightblue" d="M239.921,-497.794C227.728,-478.902 214.836,-457.911 204,-438 200.376,-431.341 196.784,-424.326 193.307,-417.241"/>
<polygon fill="none" stroke="midnightblue" points="237.078,-499.842 245.465,-506.316 242.946,-496.025 237.078,-499.842"/>
</g>
<!-- Node5 -->
<g id="node5" class="node"><title>Node5</title>
<g id="a_node5"><a xlink:href="class_pblock.html" target="_top" xlink:title="Peripheral Block Class. ">
<polygon fill="none" stroke="black" points="213.354,-313 213.354,-367 274.646,-367 274.646,-313 213.354,-313"/>
<text text-anchor="middle" x="244" y="-355" font-family="Helvetica,sans-Serif" font-size="10.00">Pblock</text>
<polyline fill="none" stroke="black" points="213.354,-349 274.646,-349 "/>
<text text-anchor="middle" x="244" y="-337" font-family="Helvetica,sans-Serif" font-size="10.00"> </text>
<polyline fill="none" stroke="black" points="213.354,-331 274.646,-331 "/>
<text text-anchor="start" x="221.354" y="-319" font-family="Helvetica,sans-Serif" font-size="10.00">+ Pblock()</text>
</a>
</g>
</g>
<!-- Node1&#45;&gt;Node5 -->
<g id="edge4" class="edge"><title>Node1&#45;&gt;Node5</title>
<path fill="none" stroke="midnightblue" d="M265.978,-464.976C259.638,-429.212 252.942,-391.445 248.632,-367.128"/>
<polygon fill="none" stroke="midnightblue" points="262.562,-465.762 267.754,-474.997 269.455,-464.54 262.562,-465.762"/>
</g>
<!-- Node11 -->
<g id="node11" class="node"><title>Node11</title>
<g id="a_node11"><a xlink:href="class_pchar.html" target="_top" xlink:title="Peripheral Character Class. ">
<polygon fill="none" stroke="red" points="292.627,-308 292.627,-372 353.373,-372 353.373,-308 292.627,-308"/>
<text text-anchor="middle" x="323" y="-360" font-family="Helvetica,sans-Serif" font-size="10.00">Pchar</text>
<polyline fill="none" stroke="red" points="292.627,-354 353.373,-354 "/>
<text text-anchor="middle" x="323" y="-342" font-family="Helvetica,sans-Serif" font-size="10.00"> </text>
<polyline fill="none" stroke="red" points="292.627,-336 353.373,-336 "/>
<text text-anchor="start" x="300.627" y="-324" font-family="Helvetica,sans-Serif" font-size="10.00">+ Pchar()</text>
<text text-anchor="start" x="300.627" y="-314" font-family="Helvetica,sans-Serif" font-size="10.00">+ getline()</text>
</a>
</g>
</g>
<!-- Node1&#45;&gt;Node11 -->
<g id="edge10" class="edge"><title>Node1&#45;&gt;Node11</title>
<path fill="none" stroke="midnightblue" d="M300.428,-465.143C306.518,-431.653 312.93,-396.383 317.358,-372.033"/>
<polygon fill="none" stroke="midnightblue" points="296.982,-464.532 298.637,-474.997 303.869,-465.784 296.982,-464.532"/>
</g>
<!-- Node13 -->
<g id="node13" class="node"><title>Node13</title>
<g id="a_node13"><a xlink:href="class_pio.html" target="_top" xlink:title="Pin Input/Output Class. ">
<polygon fill="none" stroke="red" points="371.79,-243 371.79,-437 444.21,-437 444.21,-243 371.79,-243"/>
<text text-anchor="middle" x="408" y="-425" font-family="Helvetica,sans-Serif" font-size="10.00">Pio</text>
<polyline fill="none" stroke="red" points="371.79,-419 444.21,-419 "/>
<text text-anchor="middle" x="408" y="-407" font-family="Helvetica,sans-Serif" font-size="10.00"> </text>
<polyline fill="none" stroke="red" points="371.79,-401 444.21,-401 "/>
<text text-anchor="start" x="379.79" y="-389" font-family="Helvetica,sans-Serif" font-size="10.00">+ Pio()</text>
<text text-anchor="start" x="379.79" y="-379" font-family="Helvetica,sans-Serif" font-size="10.00">+ open()</text>
<text text-anchor="start" x="379.79" y="-369" font-family="Helvetica,sans-Serif" font-size="10.00">+ getattr()</text>
<text text-anchor="start" x="379.79" y="-359" font-family="Helvetica,sans-Serif" font-size="10.00">+ setattr()</text>
<text text-anchor="start" x="379.79" y="-349" font-family="Helvetica,sans-Serif" font-size="10.00">+ setaction()</text>
<text text-anchor="start" x="379.79" y="-339" font-family="Helvetica,sans-Serif" font-size="10.00">+ setmask()</text>
<text text-anchor="start" x="379.79" y="-329" font-family="Helvetica,sans-Serif" font-size="10.00">+ clrmask()</text>
<text text-anchor="start" x="379.79" y="-319" font-family="Helvetica,sans-Serif" font-size="10.00">+ get()</text>
<text text-anchor="start" x="379.79" y="-309" font-family="Helvetica,sans-Serif" font-size="10.00">+ value()</text>
<text text-anchor="start" x="379.79" y="-299" font-family="Helvetica,sans-Serif" font-size="10.00">+ set()</text>
<text text-anchor="start" x="379.79" y="-289" font-family="Helvetica,sans-Serif" font-size="10.00">+ setattr()</text>
<text text-anchor="start" x="379.79" y="-279" font-family="Helvetica,sans-Serif" font-size="10.00">+ init()</text>
<text text-anchor="start" x="379.79" y="-269" font-family="Helvetica,sans-Serif" font-size="10.00">+ setoutput()</text>
<text text-anchor="start" x="379.79" y="-259" font-family="Helvetica,sans-Serif" font-size="10.00">+ setinput()</text>
<text text-anchor="start" x="379.79" y="-249" font-family="Helvetica,sans-Serif" font-size="10.00">+ getports()</text>
</a>
</g>
</g>
<!-- Node1&#45;&gt;Node13 -->
<g id="edge12" class="edge"><title>Node1&#45;&gt;Node13</title>
<path fill="none" stroke="midnightblue" d="M326.042,-497.401C338.179,-478.578 351.049,-457.722 362,-438 365.257,-432.134 368.508,-426 371.69,-419.788"/>
<polygon fill="none" stroke="midnightblue" points="323.037,-495.602 320.527,-505.896 328.908,-499.414 323.037,-495.602"/>
</g>
<!-- Node14 -->
<g id="node14" class="node"><title>Node14</title>
<g id="a_node14"><a xlink:href="class_rtc.html" target="_top" xlink:title="RTC Class. ">
<polygon fill="none" stroke="black" points="462.014,-263 462.014,-417 549.986,-417 549.986,-263 462.014,-263"/>
<text text-anchor="middle" x="506" y="-405" font-family="Helvetica,sans-Serif" font-size="10.00">Rtc</text>
<polyline fill="none" stroke="black" points="462.014,-399 549.986,-399 "/>
<text text-anchor="middle" x="506" y="-387" font-family="Helvetica,sans-Serif" font-size="10.00"> </text>
<polyline fill="none" stroke="black" points="462.014,-381 549.986,-381 "/>
<text text-anchor="start" x="470.014" y="-369" font-family="Helvetica,sans-Serif" font-size="10.00">+ Rtc()</text>
<text text-anchor="start" x="470.014" y="-359" font-family="Helvetica,sans-Serif" font-size="10.00">+ open()</text>
<text text-anchor="start" x="470.014" y="-349" font-family="Helvetica,sans-Serif" font-size="10.00">+ getattr()</text>
<text text-anchor="start" x="470.014" y="-339" font-family="Helvetica,sans-Serif" font-size="10.00">+ setattr()</text>
<text text-anchor="start" x="470.014" y="-329" font-family="Helvetica,sans-Serif" font-size="10.00">+ setaction()</text>
<text text-anchor="start" x="470.014" y="-319" font-family="Helvetica,sans-Serif" font-size="10.00">+ setalarm()</text>
<text text-anchor="start" x="470.014" y="-309" font-family="Helvetica,sans-Serif" font-size="10.00">+ getalarm()</text>
<text text-anchor="start" x="470.014" y="-299" font-family="Helvetica,sans-Serif" font-size="10.00">+ disablealarm()</text>
<text text-anchor="start" x="470.014" y="-289" font-family="Helvetica,sans-Serif" font-size="10.00">+ set()</text>
<text text-anchor="start" x="470.014" y="-279" font-family="Helvetica,sans-Serif" font-size="10.00">+ get()</text>
<text text-anchor="start" x="470.014" y="-269" font-family="Helvetica,sans-Serif" font-size="10.00">+ getports()</text>
</a>
</g>
</g>
<!-- Node1&#45;&gt;Node14 -->
<g id="edge13" class="edge"><title>Node1&#45;&gt;Node14</title>
<path fill="none" stroke="midnightblue" d="M329.584,-535.171C366.454,-513.007 417.478,-478.316 453,-438 458.582,-431.665 463.811,-424.642 468.643,-417.354"/>
<polygon fill="none" stroke="midnightblue" points="327.354,-532.424 320.533,-540.532 330.921,-538.447 327.354,-532.424"/>
</g>
<!-- Node2 -->
<g id="node2" class="node"><title>Node2</title>
<g id="a_node2"><a xlink:href="class_phy.html" target="_top" xlink:title="Base Applib Class for Physical devices. ">
<polygon fill="none" stroke="black" points="258.469,-687 258.469,-781 307.531,-781 307.531,-687 258.469,-687"/>
<text text-anchor="middle" x="283" y="-769" font-family="Helvetica,sans-Serif" font-size="10.00">Phy</text>
<polyline fill="none" stroke="black" points="258.469,-763 307.531,-763 "/>
<text text-anchor="middle" x="283" y="-751" font-family="Helvetica,sans-Serif" font-size="10.00"> </text>
<polyline fill="none" stroke="black" points="258.469,-745 307.531,-745 "/>
<text text-anchor="start" x="266.469" y="-733" font-family="Helvetica,sans-Serif" font-size="10.00">+ Phy()</text>
<text text-anchor="start" x="266.469" y="-723" font-family="Helvetica,sans-Serif" font-size="10.00">+ ioctl()</text>
<text text-anchor="start" x="266.469" y="-713" font-family="Helvetica,sans-Serif" font-size="10.00">+ ioctl()</text>
<text text-anchor="start" x="266.469" y="-703" font-family="Helvetica,sans-Serif" font-size="10.00">+ ioctl()</text>
<text text-anchor="start" x="266.469" y="-693" font-family="Helvetica,sans-Serif" font-size="10.00">+ ioctl()</text>
</a>
</g>
</g>
<!-- Node2&#45;&gt;Node1 -->
<g id="edge1" class="edge"><title>Node2&#45;&gt;Node1</title>
<path fill="none" stroke="midnightblue" d="M283,-676.763C283,-667.836 283,-658.428 283,-649.004"/>
<polygon fill="none" stroke="midnightblue" points="279.5,-676.996 283,-686.996 286.5,-676.996 279.5,-676.996"/>
</g>
<!-- Node6 -->
<g id="node6" class="node"><title>Node6</title>
<g id="a_node6"><a xlink:href="class_dac.html" target="_top" xlink:title="DAC Class. ">
<polygon fill="none" stroke="black" points="5.18604,-36 5.18604,-170 64.814,-170 64.814,-36 5.18604,-36"/>
<text text-anchor="middle" x="35" y="-158" font-family="Helvetica,sans-Serif" font-size="10.00">Dac</text>
<polyline fill="none" stroke="black" points="5.18604,-152 64.814,-152 "/>
<text text-anchor="middle" x="35" y="-140" font-family="Helvetica,sans-Serif" font-size="10.00"> </text>
<polyline fill="none" stroke="black" points="5.18604,-134 64.814,-134 "/>
<text text-anchor="start" x="13.186" y="-122" font-family="Helvetica,sans-Serif" font-size="10.00">+ Dac()</text>
<text text-anchor="start" x="13.186" y="-112" font-family="Helvetica,sans-Serif" font-size="10.00">+ open()</text>
<text text-anchor="start" x="13.186" y="-102" font-family="Helvetica,sans-Serif" font-size="10.00">+ getattr()</text>
<text text-anchor="start" x="13.186" y="-92" font-family="Helvetica,sans-Serif" font-size="10.00">+ setattr()</text>
<text text-anchor="start" x="13.186" y="-82" font-family="Helvetica,sans-Serif" font-size="10.00">+ value()</text>
<text text-anchor="start" x="13.186" y="-72" font-family="Helvetica,sans-Serif" font-size="10.00">+ get()</text>
<text text-anchor="start" x="13.186" y="-62" font-family="Helvetica,sans-Serif" font-size="10.00">+ setattr()</text>
<text text-anchor="start" x="13.186" y="-52" font-family="Helvetica,sans-Serif" font-size="10.00">+ init()</text>
<text text-anchor="start" x="13.186" y="-42" font-family="Helvetica,sans-Serif" font-size="10.00">+ set()</text>
</a>
</g>
</g>
<!-- Node5&#45;&gt;Node6 -->
<g id="edge5" class="edge"><title>Node5&#45;&gt;Node6</title>
<path fill="none" stroke="midnightblue" d="M237.244,-302.656C231.637,-282.157 221.614,-257.602 204,-242 159.122,-202.247 118.359,-246.331 74,-206 63.4092,-196.371 55.6732,-183.55 50.0292,-170.257"/>
<polygon fill="none" stroke="midnightblue" points="233.916,-303.775 239.724,-312.636 240.71,-302.087 233.916,-303.775"/>
</g>
<!-- Node7 -->
<g id="node7" class="node"><title>Node7</title>
<g id="a_node7"><a xlink:href="class_hal_1_1_adc.html" target="_top" xlink:title="ADC Peripheral Class. ">
<polygon fill="none" stroke="black" points="83.2944,-46 83.2944,-160 150.706,-160 150.706,-46 83.2944,-46"/>
<text text-anchor="middle" x="117" y="-148" font-family="Helvetica,sans-Serif" font-size="10.00">Hal::Adc</text>
<polyline fill="none" stroke="black" points="83.2944,-142 150.706,-142 "/>
<text text-anchor="middle" x="117" y="-130" font-family="Helvetica,sans-Serif" font-size="10.00"> </text>
<polyline fill="none" stroke="black" points="83.2944,-124 150.706,-124 "/>
<text text-anchor="start" x="91.2944" y="-112" font-family="Helvetica,sans-Serif" font-size="10.00">+ Adc()</text>
<text text-anchor="start" x="91.2944" y="-102" font-family="Helvetica,sans-Serif" font-size="10.00">+ open()</text>
<text text-anchor="start" x="91.2944" y="-92" font-family="Helvetica,sans-Serif" font-size="10.00">+ getattr()</text>
<text text-anchor="start" x="91.2944" y="-82" font-family="Helvetica,sans-Serif" font-size="10.00">+ setattr()</text>
<text text-anchor="start" x="91.2944" y="-72" font-family="Helvetica,sans-Serif" font-size="10.00">+ setattr()</text>
<text text-anchor="start" x="91.2944" y="-62" font-family="Helvetica,sans-Serif" font-size="10.00">+ init()</text>
<text text-anchor="start" x="91.2944" y="-52" font-family="Helvetica,sans-Serif" font-size="10.00">+ getports()</text>
</a>
</g>
</g>
<!-- Node5&#45;&gt;Node7 -->
<g id="edge6" class="edge"><title>Node5&#45;&gt;Node7</title>
<path fill="none" stroke="midnightblue" d="M234.059,-303.187C227.549,-283.836 217.683,-260.241 204,-242 188.631,-221.511 174.364,-226.493 159,-206 148.776,-192.363 140.584,-175.88 134.248,-160.177"/>
<polygon fill="none" stroke="midnightblue" points="230.776,-304.413 237.16,-312.869 237.443,-302.278 230.776,-304.413"/>
</g>
<!-- Node8 -->
<g id="node8" class="node"><title>Node8</title>
<g id="a_node8"><a xlink:href="class_i2_c.html" target="_top" xlink:title="I2C Peripheral Class. ">
<polygon fill="none" stroke="black" points="168.294,-6 168.294,-200 235.706,-200 235.706,-6 168.294,-6"/>
<text text-anchor="middle" x="202" y="-188" font-family="Helvetica,sans-Serif" font-size="10.00">I2C</text>
<polyline fill="none" stroke="black" points="168.294,-182 235.706,-182 "/>
<text text-anchor="middle" x="202" y="-170" font-family="Helvetica,sans-Serif" font-size="10.00"> </text>
<polyline fill="none" stroke="black" points="168.294,-164 235.706,-164 "/>
<text text-anchor="start" x="176.294" y="-152" font-family="Helvetica,sans-Serif" font-size="10.00">+ I2C()</text>
<text text-anchor="start" x="176.294" y="-142" font-family="Helvetica,sans-Serif" font-size="10.00">+ open()</text>
<text text-anchor="start" x="176.294" y="-132" font-family="Helvetica,sans-Serif" font-size="10.00">+ getattr()</text>
<text text-anchor="start" x="176.294" y="-122" font-family="Helvetica,sans-Serif" font-size="10.00">+ setattr()</text>
<text text-anchor="start" x="176.294" y="-112" font-family="Helvetica,sans-Serif" font-size="10.00">+ setup()</text>
<text text-anchor="start" x="176.294" y="-102" font-family="Helvetica,sans-Serif" font-size="10.00">+ geterr()</text>
<text text-anchor="start" x="176.294" y="-92" font-family="Helvetica,sans-Serif" font-size="10.00">+ err()</text>
<text text-anchor="start" x="176.294" y="-82" font-family="Helvetica,sans-Serif" font-size="10.00">+ setup()</text>
<text text-anchor="start" x="176.294" y="-72" font-family="Helvetica,sans-Serif" font-size="10.00">+ setattr()</text>
<text text-anchor="start" x="176.294" y="-62" font-family="Helvetica,sans-Serif" font-size="10.00">+ init()</text>
<text text-anchor="start" x="176.294" y="-52" font-family="Helvetica,sans-Serif" font-size="10.00">+ read()</text>
<text text-anchor="start" x="176.294" y="-42" font-family="Helvetica,sans-Serif" font-size="10.00">+ write()</text>
<text text-anchor="start" x="176.294" y="-32" font-family="Helvetica,sans-Serif" font-size="10.00">+ set()</text>
<text text-anchor="start" x="176.294" y="-22" font-family="Helvetica,sans-Serif" font-size="10.00">+ clear()</text>
<text text-anchor="start" x="176.294" y="-12" font-family="Helvetica,sans-Serif" font-size="10.00">+ getports()</text>
</a>
</g>
</g>
<!-- Node5&#45;&gt;Node8 -->
<g id="edge7" class="edge"><title>Node5&#45;&gt;Node8</title>
<path fill="none" stroke="midnightblue" d="M237.573,-303.04C232.669,-275.599 225.673,-236.455 219.181,-200.13"/>
<polygon fill="none" stroke="midnightblue" points="234.14,-303.725 239.345,-312.953 241.031,-302.493 234.14,-303.725"/>
</g>
<!-- Node9 -->
<g id="node9" class="node"><title>Node9</title>
<g id="a_node9"><a xlink:href="class_pwm.html" target="_top" xlink:title="PWM Class. ">
<polygon fill="none" stroke="black" points="253.294,-36 253.294,-170 320.706,-170 320.706,-36 253.294,-36"/>
<text text-anchor="middle" x="287" y="-158" font-family="Helvetica,sans-Serif" font-size="10.00">Pwm</text>
<polyline fill="none" stroke="black" points="253.294,-152 320.706,-152 "/>
<text text-anchor="middle" x="287" y="-140" font-family="Helvetica,sans-Serif" font-size="10.00"> </text>
<polyline fill="none" stroke="black" points="253.294,-134 320.706,-134 "/>
<text text-anchor="start" x="261.294" y="-122" font-family="Helvetica,sans-Serif" font-size="10.00">+ Pwm()</text>
<text text-anchor="start" x="261.294" y="-112" font-family="Helvetica,sans-Serif" font-size="10.00">+ open()</text>
<text text-anchor="start" x="261.294" y="-102" font-family="Helvetica,sans-Serif" font-size="10.00">+ getattr()</text>
<text text-anchor="start" x="261.294" y="-92" font-family="Helvetica,sans-Serif" font-size="10.00">+ setattr()</text>
<text text-anchor="start" x="261.294" y="-82" font-family="Helvetica,sans-Serif" font-size="10.00">+ set()</text>
<text text-anchor="start" x="261.294" y="-72" font-family="Helvetica,sans-Serif" font-size="10.00">+ set()</text>
<text text-anchor="start" x="261.294" y="-62" font-family="Helvetica,sans-Serif" font-size="10.00">+ setattr()</text>
<text text-anchor="start" x="261.294" y="-52" font-family="Helvetica,sans-Serif" font-size="10.00">+ init()</text>
<text text-anchor="start" x="261.294" y="-42" font-family="Helvetica,sans-Serif" font-size="10.00">+ getports()</text>
</a>
</g>
</g>
<!-- Node5&#45;&gt;Node9 -->
<g id="edge8" class="edge"><title>Node5&#45;&gt;Node9</title>
<path fill="none" stroke="midnightblue" d="M250.649,-302.662C257.097,-267.423 267.029,-213.141 274.883,-170.218"/>
<polygon fill="none" stroke="midnightblue" points="247.123,-302.486 248.766,-312.953 254.009,-303.746 247.123,-302.486"/>
</g>
<!-- Node10 -->
<g id="node10" class="node"><title>Node10</title>
<g id="a_node10"><a xlink:href="class_usb.html" target="_top" xlink:title="USB Class. ">
<polygon fill="none" stroke="black" points="338.676,-1 338.676,-205 423.324,-205 423.324,-1 338.676,-1"/>
<text text-anchor="middle" x="381" y="-193" font-family="Helvetica,sans-Serif" font-size="10.00">Usb</text>
<polyline fill="none" stroke="black" points="338.676,-187 423.324,-187 "/>
<text text-anchor="middle" x="381" y="-175" font-family="Helvetica,sans-Serif" font-size="10.00"> </text>
<polyline fill="none" stroke="black" points="338.676,-169 423.324,-169 "/>
<text text-anchor="start" x="346.676" y="-157" font-family="Helvetica,sans-Serif" font-size="10.00">+ Usb()</text>
<text text-anchor="start" x="346.676" y="-147" font-family="Helvetica,sans-Serif" font-size="10.00">+ open()</text>
<text text-anchor="start" x="346.676" y="-137" font-family="Helvetica,sans-Serif" font-size="10.00">+ getattr()</text>
<text text-anchor="start" x="346.676" y="-127" font-family="Helvetica,sans-Serif" font-size="10.00">+ setattr()</text>
<text text-anchor="start" x="346.676" y="-117" font-family="Helvetica,sans-Serif" font-size="10.00">+ reset()</text>
<text text-anchor="start" x="346.676" y="-107" font-family="Helvetica,sans-Serif" font-size="10.00">+ attach()</text>
<text text-anchor="start" x="346.676" y="-97" font-family="Helvetica,sans-Serif" font-size="10.00">+ configure()</text>
<text text-anchor="start" x="346.676" y="-87" font-family="Helvetica,sans-Serif" font-size="10.00">+ detach()</text>
<text text-anchor="start" x="346.676" y="-77" font-family="Helvetica,sans-Serif" font-size="10.00">+ disableep()</text>
<text text-anchor="start" x="346.676" y="-67" font-family="Helvetica,sans-Serif" font-size="10.00">+ enableep()</text>
<text text-anchor="start" x="346.676" y="-57" font-family="Helvetica,sans-Serif" font-size="10.00">+ isconnected()</text>
<text text-anchor="start" x="346.676" y="-47" font-family="Helvetica,sans-Serif" font-size="10.00">+ resetep()</text>
<text text-anchor="start" x="346.676" y="-37" font-family="Helvetica,sans-Serif" font-size="10.00">+ setaddr()</text>
<text text-anchor="start" x="346.676" y="-27" font-family="Helvetica,sans-Serif" font-size="10.00">+ stallep()</text>
<text text-anchor="start" x="346.676" y="-17" font-family="Helvetica,sans-Serif" font-size="10.00">+ unstallep()</text>
<text text-anchor="start" x="346.676" y="-7" font-family="Helvetica,sans-Serif" font-size="10.00">+ getports()</text>
</a>
</g>
</g>
<!-- Node5&#45;&gt;Node10 -->
<g id="edge9" class="edge"><title>Node5&#45;&gt;Node10</title>
<path fill="none" stroke="midnightblue" d="M253.941,-303.187C260.451,-283.836 270.317,-260.241 284,-242 299.369,-221.511 312.82,-225.855 329,-206 332.327,-201.917 335.523,-197.586 338.579,-193.102"/>
<polygon fill="none" stroke="midnightblue" points="250.557,-302.278 250.84,-312.869 257.224,-304.413 250.557,-302.278"/>
</g>
<!-- Node12 -->
<g id="node12" class="node"><title>Node12</title>
<g id="a_node12"><a xlink:href="class_spi.html" target="_top" xlink:title="SPI Class. ">
<polygon fill="none" stroke="black" points="440.957,-36 440.957,-170 515.043,-170 515.043,-36 440.957,-36"/>
<text text-anchor="middle" x="478" y="-158" font-family="Helvetica,sans-Serif" font-size="10.00">Spi</text>
<polyline fill="none" stroke="black" points="440.957,-152 515.043,-152 "/>
<text text-anchor="middle" x="478" y="-140" font-family="Helvetica,sans-Serif" font-size="10.00"> </text>
<polyline fill="none" stroke="black" points="440.957,-134 515.043,-134 "/>
<text text-anchor="start" x="448.957" y="-122" font-family="Helvetica,sans-Serif" font-size="10.00">+ Spi()</text>
<text text-anchor="start" x="448.957" y="-112" font-family="Helvetica,sans-Serif" font-size="10.00">+ open()</text>
<text text-anchor="start" x="448.957" y="-102" font-family="Helvetica,sans-Serif" font-size="10.00">+ getattr()</text>
<text text-anchor="start" x="448.957" y="-92" font-family="Helvetica,sans-Serif" font-size="10.00">+ setattr()</text>
<text text-anchor="start" x="448.957" y="-82" font-family="Helvetica,sans-Serif" font-size="10.00">+ swap()</text>
<text text-anchor="start" x="448.957" y="-72" font-family="Helvetica,sans-Serif" font-size="10.00">+ setduplex()</text>
<text text-anchor="start" x="448.957" y="-62" font-family="Helvetica,sans-Serif" font-size="10.00">+ setattr()</text>
<text text-anchor="start" x="448.957" y="-52" font-family="Helvetica,sans-Serif" font-size="10.00">+ init()</text>
<text text-anchor="start" x="448.957" y="-42" font-family="Helvetica,sans-Serif" font-size="10.00">+ getports()</text>
</a>
</g>
</g>
<!-- Node11&#45;&gt;Node12 -->
<g id="edge11" class="edge"><title>Node11&#45;&gt;Node12</title>
<path fill="none" stroke="midnightblue" d="M332.773,-298.426C338.946,-279.535 348.558,-257.801 363,-242 386.337,-216.469 408.251,-231.148 432,-206 441.736,-195.69 449.661,-182.966 456.014,-170.043"/>
<polygon fill="none" stroke="midnightblue" points="329.423,-297.413 329.851,-307.999 336.118,-299.456 329.423,-297.413"/>
</g>
</g>
</svg>
