<?xml version="1.0" encoding="UTF-8" standalone="no"?>
<!DOCTYPE svg PUBLIC "-//W3C//DTD SVG 1.1//EN"
 "http://www.w3.org/Graphics/SVG/1.1/DTD/svg11.dtd">
<!-- Generated by graphviz version 2.36.0 (20140111.2315)
 -->
<!-- Title: Dsp::Ema_u16 Pages: 1 -->
<svg width="112pt" height="216pt"
 viewBox="0.00 0.00 112.00 216.00" xmlns="http://www.w3.org/2000/svg" xmlns:xlink="http://www.w3.org/1999/xlink">
<g id="graph0" class="graph" transform="scale(1 1) rotate(0) translate(4 212)">
<title>Dsp::Ema_u16</title>
<!-- Node1 -->
<g id="node1" class="node"><title>Node1</title>
<polygon fill="#bfbfbf" stroke="black" points="10.9263,-1 10.9263,-55 93.0737,-55 93.0737,-1 10.9263,-1"/>
<text text-anchor="middle" x="52" y="-43" font-family="Helvetica,sans-Serif" font-size="10.00">Dsp::Ema_u16</text>
<polyline fill="none" stroke="black" points="10.9263,-37 93.0737,-37 "/>
<text text-anchor="middle" x="52" y="-25" font-family="Helvetica,sans-Serif" font-size="10.00"> </text>
<polyline fill="none" stroke="black" points="10.9263,-19 93.0737,-19 "/>
<text text-anchor="start" x="18.9263" y="-7" font-family="Helvetica,sans-Serif" font-size="10.00">+ Ema_u16()</text>
</g>
<!-- Node2 -->
<g id="node2" class="node"><title>Node2</title>
<g id="a_node2"><a xlink:href="class_dsp_1_1_ema.html" target="_top" xlink:title="{Dsp::Ema\&lt; uint8_t,\l uint16_t, uint32_t \&gt;\n||+ Ema()\l+ calc()\l+ avg()\l+ average()\l+ set()\l+ small_max()\l}">
<polygon fill="none" stroke="black" points="-0.0625,-93 -0.0625,-207 104.062,-207 104.062,-93 -0.0625,-93"/>
<text text-anchor="start" x="7.9375" y="-195" font-family="Helvetica,sans-Serif" font-size="10.00">Dsp::Ema&lt; uint8_t,</text>
<text text-anchor="middle" x="52" y="-185" font-family="Helvetica,sans-Serif" font-size="10.00"> uint16_t, uint32_t &gt;</text>
<polyline fill="none" stroke="black" points="-0.0625,-179 104.062,-179 "/>
<text text-anchor="middle" x="52" y="-167" font-family="Helvetica,sans-Serif" font-size="10.00"> </text>
<polyline fill="none" stroke="black" points="-0.0625,-161 104.062,-161 "/>
<text text-anchor="start" x="7.9375" y="-149" font-family="Helvetica,sans-Serif" font-size="10.00">+ Ema()</text>
<text text-anchor="start" x="7.9375" y="-139" font-family="Helvetica,sans-Serif" font-size="10.00">+ calc()</text>
<text text-anchor="start" x="7.9375" y="-129" font-family="Helvetica,sans-Serif" font-size="10.00">+ avg()</text>
<text text-anchor="start" x="7.9375" y="-119" font-family="Helvetica,sans-Serif" font-size="10.00">+ average()</text>
<text text-anchor="start" x="7.9375" y="-109" font-family="Helvetica,sans-Serif" font-size="10.00">+ set()</text>
<text text-anchor="start" x="7.9375" y="-99" font-family="Helvetica,sans-Serif" font-size="10.00">+ small_max()</text>
</a>
</g>
</g>
<!-- Node2&#45;&gt;Node1 -->
<g id="edge1" class="edge"><title>Node2&#45;&gt;Node1</title>
<path fill="none" stroke="midnightblue" d="M52,-82.6683C52,-72.92 52,-63.3972 52,-55.1446"/>
<polygon fill="none" stroke="midnightblue" points="48.5001,-82.8648 52,-92.8648 55.5001,-82.8648 48.5001,-82.8648"/>
</g>
</g>
</svg>
