<?xml version="1.0" encoding="UTF-8" standalone="no"?>
<!DOCTYPE svg PUBLIC "-//W3C//DTD SVG 1.1//EN"
 "http://www.w3.org/Graphics/SVG/1.1/DTD/svg11.dtd">
<!-- Generated by graphviz version 2.36.0 (20140111.2315)
 -->
<!-- Title: Sys::Dbug Pages: 1 -->
<svg width="294pt" height="286pt"
 viewBox="0.00 0.00 294.00 286.00" xmlns="http://www.w3.org/2000/svg" xmlns:xlink="http://www.w3.org/1999/xlink">
<g id="graph0" class="graph" transform="scale(1 1) rotate(0) translate(4 282)">
<title>Sys::Dbug</title>
<!-- Node1 -->
<g id="node1" class="node"><title>Node1</title>
<polygon fill="#bfbfbf" stroke="black" points="101.898,-133 101.898,-277 182.102,-277 182.102,-133 101.898,-133"/>
<text text-anchor="middle" x="142" y="-265" font-family="Helvetica,sans-Serif" font-size="10.00">Sys::Dbug</text>
<polyline fill="none" stroke="black" points="101.898,-259 182.102,-259 "/>
<text text-anchor="middle" x="142" y="-247" font-family="Helvetica,sans-Serif" font-size="10.00"> </text>
<polyline fill="none" stroke="black" points="101.898,-241 182.102,-241 "/>
<text text-anchor="start" x="109.898" y="-229" font-family="Helvetica,sans-Serif" font-size="10.00">+ Dbug()</text>
<text text-anchor="start" x="109.898" y="-219" font-family="Helvetica,sans-Serif" font-size="10.00">+ setmode()</text>
<text text-anchor="start" x="109.898" y="-209" font-family="Helvetica,sans-Serif" font-size="10.00">+ puts()</text>
<text text-anchor="start" x="109.898" y="-199" font-family="Helvetica,sans-Serif" font-size="10.00">+ operator&lt;&lt;()</text>
<text text-anchor="start" x="109.898" y="-189" font-family="Helvetica,sans-Serif" font-size="10.00">+ operator&lt;&lt;()</text>
<text text-anchor="start" x="109.898" y="-179" font-family="Helvetica,sans-Serif" font-size="10.00">+ operator&lt;&lt;()</text>
<text text-anchor="start" x="109.898" y="-169" font-family="Helvetica,sans-Serif" font-size="10.00">+ operator&lt;&lt;()</text>
<text text-anchor="start" x="109.898" y="-159" font-family="Helvetica,sans-Serif" font-size="10.00">+ operator&lt;&lt;()</text>
<text text-anchor="start" x="109.898" y="-149" font-family="Helvetica,sans-Serif" font-size="10.00">+ operator&lt;&lt;()</text>
<text text-anchor="start" x="109.898" y="-139" font-family="Helvetica,sans-Serif" font-size="10.00">+ write()</text>
</g>
<!-- Node2 -->
<g id="node2" class="node"><title>Node2</title>
<g id="a_node2"><a xlink:href="class_sys_1_1_dbug_null.html" target="_top" xlink:title="Debug Null Class. ">
<polygon fill="none" stroke="black" points="-0.679688,-1 -0.679688,-95 78.6797,-95 78.6797,-1 -0.679688,-1"/>
<text text-anchor="middle" x="39" y="-83" font-family="Helvetica,sans-Serif" font-size="10.00">Sys::DbugNull</text>
<polyline fill="none" stroke="black" points="-0.679688,-77 78.6797,-77 "/>
<text text-anchor="middle" x="39" y="-65" font-family="Helvetica,sans-Serif" font-size="10.00"> </text>
<polyline fill="none" stroke="black" points="-0.679688,-59 78.6797,-59 "/>
<text text-anchor="start" x="7.32031" y="-47" font-family="Helvetica,sans-Serif" font-size="10.00">+ DbugNull()</text>
<text text-anchor="start" x="7.32031" y="-37" font-family="Helvetica,sans-Serif" font-size="10.00">+ open()</text>
<text text-anchor="start" x="7.32031" y="-27" font-family="Helvetica,sans-Serif" font-size="10.00">+ close()</text>
<text text-anchor="start" x="7.32031" y="-17" font-family="Helvetica,sans-Serif" font-size="10.00">+ read()</text>
<text text-anchor="start" x="7.32031" y="-7" font-family="Helvetica,sans-Serif" font-size="10.00">+ write()</text>
</a>
</g>
</g>
<!-- Node1&#45;&gt;Node2 -->
<g id="edge1" class="edge"><title>Node1&#45;&gt;Node2</title>
<path fill="none" stroke="midnightblue" d="M96.2973,-135.224C87.2608,-121.625 77.9831,-107.664 69.5962,-95.0429"/>
<polygon fill="none" stroke="midnightblue" points="93.4329,-137.237 101.883,-143.629 99.263,-133.363 93.4329,-137.237"/>
</g>
<!-- Node3 -->
<g id="node3" class="node"><title>Node3</title>
<g id="a_node3"><a xlink:href="class_sys_1_1_dbug_stdout.html" target="_top" xlink:title="Debug Stdout Class. ">
<polygon fill="none" stroke="black" points="96.478,-1 96.478,-95 187.522,-95 187.522,-1 96.478,-1"/>
<text text-anchor="middle" x="142" y="-83" font-family="Helvetica,sans-Serif" font-size="10.00">Sys::DbugStdout</text>
<polyline fill="none" stroke="black" points="96.478,-77 187.522,-77 "/>
<text text-anchor="middle" x="142" y="-65" font-family="Helvetica,sans-Serif" font-size="10.00"> </text>
<polyline fill="none" stroke="black" points="96.478,-59 187.522,-59 "/>
<text text-anchor="start" x="104.478" y="-47" font-family="Helvetica,sans-Serif" font-size="10.00">+ DbugStdout()</text>
<text text-anchor="start" x="104.478" y="-37" font-family="Helvetica,sans-Serif" font-size="10.00">+ open()</text>
<text text-anchor="start" x="104.478" y="-27" font-family="Helvetica,sans-Serif" font-size="10.00">+ close()</text>
<text text-anchor="start" x="104.478" y="-17" font-family="Helvetica,sans-Serif" font-size="10.00">+ read()</text>
<text text-anchor="start" x="104.478" y="-7" font-family="Helvetica,sans-Serif" font-size="10.00">+ write()</text>
</a>
</g>
</g>
<!-- Node1&#45;&gt;Node3 -->
<g id="edge2" class="edge"><title>Node1&#45;&gt;Node3</title>
<path fill="none" stroke="midnightblue" d="M142,-122.681C142,-113.312 142,-104.018 142,-95.3476"/>
<polygon fill="none" stroke="midnightblue" points="138.5,-122.851 142,-132.851 145.5,-122.851 138.5,-122.851"/>
</g>
<!-- Node4 -->
<g id="node4" class="node"><title>Node4</title>
<g id="a_node4"><a xlink:href="class_sys_1_1_dbug_uart.html" target="_top" xlink:title="Debug UART Class. ">
<polygon fill="none" stroke="black" points="205.488,-1 205.488,-95 286.512,-95 286.512,-1 205.488,-1"/>
<text text-anchor="middle" x="246" y="-83" font-family="Helvetica,sans-Serif" font-size="10.00">Sys::DbugUart</text>
<polyline fill="none" stroke="black" points="205.488,-77 286.512,-77 "/>
<text text-anchor="middle" x="246" y="-65" font-family="Helvetica,sans-Serif" font-size="10.00"> </text>
<polyline fill="none" stroke="black" points="205.488,-59 286.512,-59 "/>
<text text-anchor="start" x="213.488" y="-47" font-family="Helvetica,sans-Serif" font-size="10.00">+ DbugUart()</text>
<text text-anchor="start" x="213.488" y="-37" font-family="Helvetica,sans-Serif" font-size="10.00">+ open()</text>
<text text-anchor="start" x="213.488" y="-27" font-family="Helvetica,sans-Serif" font-size="10.00">+ close()</text>
<text text-anchor="start" x="213.488" y="-17" font-family="Helvetica,sans-Serif" font-size="10.00">+ read()</text>
<text text-anchor="start" x="213.488" y="-7" font-family="Helvetica,sans-Serif" font-size="10.00">+ write()</text>
</a>
</g>
</g>
<!-- Node1&#45;&gt;Node4 -->
<g id="edge3" class="edge"><title>Node1&#45;&gt;Node4</title>
<path fill="none" stroke="midnightblue" d="M187.863,-135.647C197.013,-122.01 206.42,-107.989 214.93,-95.3066"/>
<polygon fill="none" stroke="midnightblue" points="184.874,-133.819 182.209,-144.073 190.687,-137.719 184.874,-133.819"/>
</g>
</g>
</svg>
