<?xml version="1.0" encoding="UTF-8" standalone="no"?>
<!DOCTYPE svg PUBLIC "-//W3C//DTD SVG 1.1//EN"
 "http://www.w3.org/Graphics/SVG/1.1/DTD/svg11.dtd">
<!-- Generated by graphviz version 2.36.0 (20140111.2315)
 -->
<!-- Title: Var::String Pages: 1 -->
<svg width="433pt" height="366pt"
 viewBox="0.00 0.00 433.00 366.00" xmlns="http://www.w3.org/2000/svg" xmlns:xlink="http://www.w3.org/1999/xlink">
<g id="graph0" class="graph" transform="scale(1 1) rotate(0) translate(4 362)">
<title>Var::String</title>
<!-- Node1 -->
<g id="node1" class="node"><title>Node1</title>
<polygon fill="#bfbfbf" stroke="black" points="138.947,-203 138.947,-357 263.053,-357 263.053,-203 138.947,-203"/>
<text text-anchor="middle" x="201" y="-345" font-family="Helvetica,sans-Serif" font-size="10.00">Var::String</text>
<polyline fill="none" stroke="black" points="138.947,-339 263.053,-339 "/>
<text text-anchor="middle" x="201" y="-327" font-family="Helvetica,sans-Serif" font-size="10.00"> </text>
<polyline fill="none" stroke="black" points="138.947,-321 263.053,-321 "/>
<text text-anchor="start" x="146.947" y="-309" font-family="Helvetica,sans-Serif" font-size="10.00">+ String()</text>
<text text-anchor="start" x="146.947" y="-299" font-family="Helvetica,sans-Serif" font-size="10.00">+ String()</text>
<text text-anchor="start" x="146.947" y="-289" font-family="Helvetica,sans-Serif" font-size="10.00">+ String()</text>
<text text-anchor="start" x="146.947" y="-279" font-family="Helvetica,sans-Serif" font-size="10.00">+ String()</text>
<text text-anchor="start" x="146.947" y="-269" font-family="Helvetica,sans-Serif" font-size="10.00">+ operator const char *()</text>
<text text-anchor="start" x="146.947" y="-259" font-family="Helvetica,sans-Serif" font-size="10.00">+ String()</text>
<text text-anchor="start" x="146.947" y="-249" font-family="Helvetica,sans-Serif" font-size="10.00">+ set_capacity()</text>
<text text-anchor="start" x="146.947" y="-239" font-family="Helvetica,sans-Serif" font-size="10.00">+ operator=()</text>
<text text-anchor="start" x="146.947" y="-229" font-family="Helvetica,sans-Serif" font-size="10.00">+ operator&lt;&lt;()</text>
<text text-anchor="start" x="146.947" y="-219" font-family="Helvetica,sans-Serif" font-size="10.00">+ operator&lt;&lt;()</text>
<text text-anchor="start" x="146.947" y="-209" font-family="Helvetica,sans-Serif" font-size="10.00">and 41 more...</text>
</g>
<!-- Node2 -->
<g id="node2" class="node"><title>Node2</title>
<g id="a_node2"><a xlink:href="class_var_1_1_string_name.html" target="_top" xlink:title="{Var::StringName\n||+ StringName()\l}">
<polygon fill="none" stroke="black" points="-0.589355,-56 -0.589355,-110 88.5894,-110 88.5894,-56 -0.589355,-56"/>
<text text-anchor="middle" x="44" y="-98" font-family="Helvetica,sans-Serif" font-size="10.00">Var::StringName</text>
<polyline fill="none" stroke="black" points="-0.589355,-92 88.5894,-92 "/>
<text text-anchor="middle" x="44" y="-80" font-family="Helvetica,sans-Serif" font-size="10.00"> </text>
<polyline fill="none" stroke="black" points="-0.589355,-74 88.5894,-74 "/>
<text text-anchor="start" x="7.41064" y="-62" font-family="Helvetica,sans-Serif" font-size="10.00">+ StringName()</text>
</a>
</g>
</g>
<!-- Node1&#45;&gt;Node2 -->
<g id="edge1" class="edge"><title>Node1&#45;&gt;Node2</title>
<path fill="none" stroke="midnightblue" d="M132.105,-207.796C119.99,-194.265 107.812,-179.963 97,-166 83.1976,-148.174 69.4313,-126.738 59.3892,-110.254"/>
<polygon fill="none" stroke="midnightblue" points="129.519,-210.154 138.82,-215.227 134.712,-205.461 129.519,-210.154"/>
</g>
<!-- Node3 -->
<g id="node3" class="node"><title>Node3</title>
<g id="a_node3"><a xlink:href="class_var_1_1_string_path.html" target="_top" xlink:title="{Var::StringPath\n||+ StringPath()\l+ strip_suffix()\l+ file_name()\l+ filename()\l}">
<polygon fill="none" stroke="black" points="106.462,-41 106.462,-125 189.538,-125 189.538,-41 106.462,-41"/>
<text text-anchor="middle" x="148" y="-113" font-family="Helvetica,sans-Serif" font-size="10.00">Var::StringPath</text>
<polyline fill="none" stroke="black" points="106.462,-107 189.538,-107 "/>
<text text-anchor="middle" x="148" y="-95" font-family="Helvetica,sans-Serif" font-size="10.00"> </text>
<polyline fill="none" stroke="black" points="106.462,-89 189.538,-89 "/>
<text text-anchor="start" x="114.462" y="-77" font-family="Helvetica,sans-Serif" font-size="10.00">+ StringPath()</text>
<text text-anchor="start" x="114.462" y="-67" font-family="Helvetica,sans-Serif" font-size="10.00">+ strip_suffix()</text>
<text text-anchor="start" x="114.462" y="-57" font-family="Helvetica,sans-Serif" font-size="10.00">+ file_name()</text>
<text text-anchor="start" x="114.462" y="-47" font-family="Helvetica,sans-Serif" font-size="10.00">+ filename()</text>
</a>
</g>
</g>
<!-- Node1&#45;&gt;Node3 -->
<g id="edge2" class="edge"><title>Node1&#45;&gt;Node3</title>
<path fill="none" stroke="midnightblue" d="M177.643,-193.064C171.217,-169.42 164.54,-144.855 159.154,-125.038"/>
<polygon fill="none" stroke="midnightblue" points="174.281,-194.038 180.281,-202.77 181.036,-192.202 174.281,-194.038"/>
</g>
<!-- Node4 -->
<g id="node4" class="node"><title>Node4</title>
<g id="a_node4"><a xlink:href="class_var_1_1_string_static.html" target="_top" xlink:title="{Var::StringStatic\&lt;\l arraysize \&gt;\n||+ StringStatic()\l+ StringStatic()\l+ StringStatic()\l}">
<polygon fill="none" stroke="black" points="207.323,-41 207.323,-125 300.677,-125 300.677,-41 207.323,-41"/>
<text text-anchor="start" x="215.323" y="-113" font-family="Helvetica,sans-Serif" font-size="10.00">Var::StringStatic&lt;</text>
<text text-anchor="middle" x="254" y="-103" font-family="Helvetica,sans-Serif" font-size="10.00"> arraysize &gt;</text>
<polyline fill="none" stroke="black" points="207.323,-97 300.677,-97 "/>
<text text-anchor="middle" x="254" y="-85" font-family="Helvetica,sans-Serif" font-size="10.00"> </text>
<polyline fill="none" stroke="black" points="207.323,-79 300.677,-79 "/>
<text text-anchor="start" x="215.323" y="-67" font-family="Helvetica,sans-Serif" font-size="10.00">+ StringStatic()</text>
<text text-anchor="start" x="215.323" y="-57" font-family="Helvetica,sans-Serif" font-size="10.00">+ StringStatic()</text>
<text text-anchor="start" x="215.323" y="-47" font-family="Helvetica,sans-Serif" font-size="10.00">+ StringStatic()</text>
</a>
</g>
</g>
<!-- Node1&#45;&gt;Node4 -->
<g id="edge3" class="edge"><title>Node1&#45;&gt;Node4</title>
<path fill="none" stroke="midnightblue" d="M224.357,-193.064C230.783,-169.42 237.46,-144.855 242.846,-125.038"/>
<polygon fill="none" stroke="midnightblue" points="220.964,-192.202 221.719,-202.77 227.719,-194.038 220.964,-192.202"/>
</g>
<!-- Node5 -->
<g id="node5" class="node"><title>Node5</title>
<g id="a_node5"><a xlink:href="class_var_1_1_token.html" target="_top" xlink:title="Abstract Token Class. ">
<polygon fill="none" stroke="black" points="318.282,-1 318.282,-165 425.718,-165 425.718,-1 318.282,-1"/>
<text text-anchor="middle" x="372" y="-153" font-family="Helvetica,sans-Serif" font-size="10.00">Var::Token</text>
<polyline fill="none" stroke="black" points="318.282,-147 425.718,-147 "/>
<text text-anchor="middle" x="372" y="-135" font-family="Helvetica,sans-Serif" font-size="10.00"> </text>
<polyline fill="none" stroke="black" points="318.282,-129 425.718,-129 "/>
<text text-anchor="start" x="326.282" y="-117" font-family="Helvetica,sans-Serif" font-size="10.00">+ Token()</text>
<text text-anchor="start" x="326.282" y="-107" font-family="Helvetica,sans-Serif" font-size="10.00">+ Token()</text>
<text text-anchor="start" x="326.282" y="-97" font-family="Helvetica,sans-Serif" font-size="10.00">+ Token()</text>
<text text-anchor="start" x="326.282" y="-87" font-family="Helvetica,sans-Serif" font-size="10.00">+ Token()</text>
<text text-anchor="start" x="326.282" y="-77" font-family="Helvetica,sans-Serif" font-size="10.00">+ parse()</text>
<text text-anchor="start" x="326.282" y="-67" font-family="Helvetica,sans-Serif" font-size="10.00">+ count()</text>
<text text-anchor="start" x="326.282" y="-57" font-family="Helvetica,sans-Serif" font-size="10.00">+ size()</text>
<text text-anchor="start" x="326.282" y="-47" font-family="Helvetica,sans-Serif" font-size="10.00">+ at()</text>
<text text-anchor="start" x="326.282" y="-37" font-family="Helvetica,sans-Serif" font-size="10.00">+ count_empty()</text>
<text text-anchor="start" x="326.282" y="-27" font-family="Helvetica,sans-Serif" font-size="10.00">+ set_count_empty()</text>
<text text-anchor="start" x="326.282" y="-17" font-family="Helvetica,sans-Serif" font-size="10.00">+ belongs_to()</text>
<text text-anchor="start" x="326.282" y="-7" font-family="Helvetica,sans-Serif" font-size="10.00">+ belongs_to()</text>
</a>
</g>
</g>
<!-- Node1&#45;&gt;Node5 -->
<g id="edge4" class="edge"><title>Node1&#45;&gt;Node5</title>
<path fill="none" stroke="midnightblue" d="M269.948,-209.198C283.188,-195.146 296.739,-180.296 309,-166 312.039,-162.457 315.11,-158.788 318.176,-155.055"/>
<polygon fill="none" stroke="midnightblue" points="267.398,-206.8 263.061,-216.467 272.479,-211.615 267.398,-206.8"/>
</g>
</g>
</svg>
