<?xml version="1.0" encoding="UTF-8" standalone="no"?>
<!DOCTYPE svg PUBLIC "-//W3C//DTD SVG 1.1//EN"
 "http://www.w3.org/Graphics/SVG/1.1/DTD/svg11.dtd">
<!-- Generated by graphviz version 2.36.0 (20140111.2315)
 -->
<!-- Title: MFont Pages: 1 -->
<svg width="189pt" height="558pt"
 viewBox="0.00 0.00 189.00 558.00" xmlns="http://www.w3.org/2000/svg" xmlns:xlink="http://www.w3.org/1999/xlink">
<g id="graph0" class="graph" transform="scale(1 1) rotate(0) translate(4 554)">
<title>MFont</title>
<!-- Node1 -->
<g id="node1" class="node"><title>Node1</title>
<polygon fill="#bfbfbf" stroke="black" points="41.1528,-465 41.1528,-549 118.847,-549 118.847,-465 41.1528,-465"/>
<text text-anchor="middle" x="80" y="-537" font-family="Helvetica,sans-Serif" font-size="10.00">MFont</text>
<polyline fill="none" stroke="black" points="41.1528,-531 118.847,-531 "/>
<text text-anchor="middle" x="80" y="-519" font-family="Helvetica,sans-Serif" font-size="10.00"> </text>
<polyline fill="none" stroke="black" points="41.1528,-513 118.847,-513 "/>
<text text-anchor="start" x="49.1528" y="-501" font-family="Helvetica,sans-Serif" font-size="10.00">+ len()</text>
<text text-anchor="start" x="49.1528" y="-491" font-family="Helvetica,sans-Serif" font-size="10.00">+ size()</text>
<text text-anchor="start" x="49.1528" y="-481" font-family="Helvetica,sans-Serif" font-size="10.00">+ charset()</text>
<text text-anchor="start" x="49.1528" y="-471" font-family="Helvetica,sans-Serif" font-size="10.00"># to_charset()</text>
</g>
<!-- Node2 -->
<g id="node2" class="node"><title>Node2</title>
<g id="a_node2"><a xlink:href="class_m_b_font.html" target="_top" xlink:title="Monochrome Bitmap Font class. ">
<polygon fill="none" stroke="black" points="23.7798,-163 23.7798,-427 136.22,-427 136.22,-163 23.7798,-163"/>
<text text-anchor="middle" x="80" y="-415" font-family="Helvetica,sans-Serif" font-size="10.00">MBFont</text>
<polyline fill="none" stroke="black" points="23.7798,-409 136.22,-409 "/>
<text text-anchor="start" x="31.7798" y="-397" font-family="Helvetica,sans-Serif" font-size="10.00"># _bitmap</text>
<text text-anchor="start" x="31.7798" y="-387" font-family="Helvetica,sans-Serif" font-size="10.00"># _offset</text>
<text text-anchor="start" x="31.7798" y="-377" font-family="Helvetica,sans-Serif" font-size="10.00"># _ch</text>
<text text-anchor="start" x="31.7798" y="-367" font-family="Helvetica,sans-Serif" font-size="10.00"># _letter_spacing</text>
<text text-anchor="start" x="31.7798" y="-357" font-family="Helvetica,sans-Serif" font-size="10.00"># _space_size</text>
<text text-anchor="start" x="31.7798" y="-347" font-family="Helvetica,sans-Serif" font-size="10.00"># hdr</text>
<polyline fill="none" stroke="black" points="23.7798,-341 136.22,-341 "/>
<text text-anchor="start" x="31.7798" y="-329" font-family="Helvetica,sans-Serif" font-size="10.00">+ MBFont()</text>
<text text-anchor="start" x="31.7798" y="-319" font-family="Helvetica,sans-Serif" font-size="10.00">+ bitmap()</text>
<text text-anchor="start" x="31.7798" y="-309" font-family="Helvetica,sans-Serif" font-size="10.00">+ offset()</text>
<text text-anchor="start" x="31.7798" y="-299" font-family="Helvetica,sans-Serif" font-size="10.00">+ yoffset()</text>
<text text-anchor="start" x="31.7798" y="-289" font-family="Helvetica,sans-Serif" font-size="10.00">+ len()</text>
<text text-anchor="start" x="31.7798" y="-279" font-family="Helvetica,sans-Serif" font-size="10.00">+ size()</text>
<text text-anchor="start" x="31.7798" y="-269" font-family="Helvetica,sans-Serif" font-size="10.00">+ set_str()</text>
<text text-anchor="start" x="31.7798" y="-259" font-family="Helvetica,sans-Serif" font-size="10.00">+ clr_str()</text>
<text text-anchor="start" x="31.7798" y="-249" font-family="Helvetica,sans-Serif" font-size="10.00">+ set_char()</text>
<text text-anchor="start" x="31.7798" y="-239" font-family="Helvetica,sans-Serif" font-size="10.00">+ clr_char()</text>
<text text-anchor="start" x="31.7798" y="-229" font-family="Helvetica,sans-Serif" font-size="10.00">+ set_letter_spacing()</text>
<text text-anchor="start" x="31.7798" y="-219" font-family="Helvetica,sans-Serif" font-size="10.00">+ letter_spacing()</text>
<text text-anchor="start" x="31.7798" y="-209" font-family="Helvetica,sans-Serif" font-size="10.00">+ set_space_size()</text>
<text text-anchor="start" x="31.7798" y="-199" font-family="Helvetica,sans-Serif" font-size="10.00">+ space_size()</text>
<text text-anchor="start" x="31.7798" y="-189" font-family="Helvetica,sans-Serif" font-size="10.00"># load_char()</text>
<text text-anchor="start" x="31.7798" y="-179" font-family="Helvetica,sans-Serif" font-size="10.00"># load_bitmap()</text>
<text text-anchor="start" x="31.7798" y="-169" font-family="Helvetica,sans-Serif" font-size="10.00"># load_kerning()</text>
</a>
</g>
</g>
<!-- Node1&#45;&gt;Node2 -->
<g id="edge1" class="edge"><title>Node1&#45;&gt;Node2</title>
<path fill="none" stroke="midnightblue" d="M80,-454.655C80,-446.086 80,-436.864 80,-427.334"/>
<polygon fill="none" stroke="midnightblue" points="76.5001,-454.761 80,-464.761 83.5001,-454.761 76.5001,-454.761"/>
</g>
<!-- Node3 -->
<g id="node3" class="node"><title>Node3</title>
<g id="a_node3"><a xlink:href="class_font8.html" target="_top" xlink:title="Bitmap Fonts (used with LCDs) ">
<polygon fill="none" stroke="black" points="-0.646484,-16 -0.646484,-110 60.6465,-110 60.6465,-16 -0.646484,-16"/>
<text text-anchor="middle" x="30" y="-98" font-family="Helvetica,sans-Serif" font-size="10.00">Font8</text>
<polyline fill="none" stroke="black" points="-0.646484,-92 60.6465,-92 "/>
<text text-anchor="middle" x="30" y="-80" font-family="Helvetica,sans-Serif" font-size="10.00"> </text>
<polyline fill="none" stroke="black" points="-0.646484,-74 60.6465,-74 "/>
<text text-anchor="start" x="7.35352" y="-62" font-family="Helvetica,sans-Serif" font-size="10.00">+ Font8()</text>
<text text-anchor="start" x="7.35352" y="-52" font-family="Helvetica,sans-Serif" font-size="10.00">+ load()</text>
<text text-anchor="start" x="7.35352" y="-42" font-family="Helvetica,sans-Serif" font-size="10.00">+ bitmap()</text>
<text text-anchor="start" x="7.35352" y="-32" font-family="Helvetica,sans-Serif" font-size="10.00">+ height()</text>
<text text-anchor="start" x="7.35352" y="-22" font-family="Helvetica,sans-Serif" font-size="10.00">+ width()</text>
</a>
</g>
</g>
<!-- Node2&#45;&gt;Node3 -->
<g id="edge2" class="edge"><title>Node2&#45;&gt;Node3</title>
<path fill="none" stroke="midnightblue" d="M49.299,-152.775C45.9847,-137.53 42.8116,-122.933 40.0299,-110.138"/>
<polygon fill="none" stroke="midnightblue" points="45.9502,-153.847 51.4947,-162.876 52.7904,-152.36 45.9502,-153.847"/>
</g>
<!-- Node4 -->
<g id="node4" class="node"><title>Node4</title>
<g id="a_node4"><a xlink:href="class_m_b_font_memory.html" target="_top" xlink:title="Monochrome Bitmap Font class (stored in flash memory) ">
<polygon fill="none" stroke="black" points="78.7993,-1 78.7993,-125 181.201,-125 181.201,-1 78.7993,-1"/>
<text text-anchor="middle" x="130" y="-113" font-family="Helvetica,sans-Serif" font-size="10.00">MBFontMemory</text>
<polyline fill="none" stroke="black" points="78.7993,-107 181.201,-107 "/>
<text text-anchor="middle" x="130" y="-95" font-family="Helvetica,sans-Serif" font-size="10.00"> </text>
<polyline fill="none" stroke="black" points="78.7993,-89 181.201,-89 "/>
<text text-anchor="start" x="86.7993" y="-77" font-family="Helvetica,sans-Serif" font-size="10.00">+ MBFontMemory()</text>
<text text-anchor="start" x="86.7993" y="-67" font-family="Helvetica,sans-Serif" font-size="10.00">+ MBFontMemory()</text>
<text text-anchor="start" x="86.7993" y="-57" font-family="Helvetica,sans-Serif" font-size="10.00">+ set()</text>
<text text-anchor="start" x="86.7993" y="-47" font-family="Helvetica,sans-Serif" font-size="10.00">+ font_memory()</text>
<text text-anchor="start" x="86.7993" y="-37" font-family="Helvetica,sans-Serif" font-size="10.00">+ bitmap()</text>
<text text-anchor="start" x="86.7993" y="-27" font-family="Helvetica,sans-Serif" font-size="10.00"># load_char()</text>
<text text-anchor="start" x="86.7993" y="-17" font-family="Helvetica,sans-Serif" font-size="10.00"># load_bitmap()</text>
<text text-anchor="start" x="86.7993" y="-7" font-family="Helvetica,sans-Serif" font-size="10.00"># load_kerning()</text>
</a>
</g>
</g>
<!-- Node2&#45;&gt;Node4 -->
<g id="edge3" class="edge"><title>Node2&#45;&gt;Node4</title>
<path fill="none" stroke="midnightblue" d="M110.695,-152.801C112.78,-143.211 114.809,-133.878 116.72,-125.088"/>
<polygon fill="none" stroke="midnightblue" points="107.21,-152.36 108.505,-162.876 114.05,-153.847 107.21,-152.36"/>
</g>
</g>
</svg>
