<?xml version="1.0" encoding="UTF-8" standalone="no"?>
<!DOCTYPE svg PUBLIC "-//W3C//DTD SVG 1.1//EN"
 "http://www.w3.org/Graphics/SVG/1.1/DTD/svg11.dtd">
<!-- Generated by graphviz version 2.36.0 (20140111.2315)
 -->
<!-- Title: DbugStdout Pages: 1 -->
<svg width="92pt" height="286pt"
 viewBox="0.00 0.00 92.00 286.00" xmlns="http://www.w3.org/2000/svg" xmlns:xlink="http://www.w3.org/1999/xlink">
<g id="graph0" class="graph" transform="scale(1 1) rotate(0) translate(4 282)">
<title>DbugStdout</title>
<!-- Node1 -->
<g id="node1" class="node"><title>Node1</title>
<polygon fill="#bfbfbf" stroke="black" points="-0.0478516,-1 -0.0478516,-95 84.0479,-95 84.0479,-1 -0.0478516,-1"/>
<text text-anchor="middle" x="42" y="-83" font-family="Helvetica,sans-Serif" font-size="10.00">DbugStdout</text>
<polyline fill="none" stroke="black" points="-0.0478516,-77 84.0479,-77 "/>
<text text-anchor="middle" x="42" y="-65" font-family="Helvetica,sans-Serif" font-size="10.00"> </text>
<polyline fill="none" stroke="black" points="-0.0478516,-59 84.0479,-59 "/>
<text text-anchor="start" x="7.95215" y="-47" font-family="Helvetica,sans-Serif" font-size="10.00">+ DbugStdout()</text>
<text text-anchor="start" x="7.95215" y="-37" font-family="Helvetica,sans-Serif" font-size="10.00">+ open()</text>
<text text-anchor="start" x="7.95215" y="-27" font-family="Helvetica,sans-Serif" font-size="10.00">+ close()</text>
<text text-anchor="start" x="7.95215" y="-17" font-family="Helvetica,sans-Serif" font-size="10.00">+ read()</text>
<text text-anchor="start" x="7.95215" y="-7" font-family="Helvetica,sans-Serif" font-size="10.00">+ write()</text>
</g>
<!-- Node2 -->
<g id="node2" class="node"><title>Node2</title>
<g id="a_node2"><a xlink:href="class_dbug.html" target="_top" xlink:title="Debug Class. ">
<polygon fill="none" stroke="black" points="1.89795,-133 1.89795,-277 82.1021,-277 82.1021,-133 1.89795,-133"/>
<text text-anchor="middle" x="42" y="-265" font-family="Helvetica,sans-Serif" font-size="10.00">Dbug</text>
<polyline fill="none" stroke="black" points="1.89795,-259 82.1021,-259 "/>
<text text-anchor="middle" x="42" y="-247" font-family="Helvetica,sans-Serif" font-size="10.00"> </text>
<polyline fill="none" stroke="black" points="1.89795,-241 82.1021,-241 "/>
<text text-anchor="start" x="9.89795" y="-229" font-family="Helvetica,sans-Serif" font-size="10.00">+ Dbug()</text>
<text text-anchor="start" x="9.89795" y="-219" font-family="Helvetica,sans-Serif" font-size="10.00">+ setmode()</text>
<text text-anchor="start" x="9.89795" y="-209" font-family="Helvetica,sans-Serif" font-size="10.00">+ puts()</text>
<text text-anchor="start" x="9.89795" y="-199" font-family="Helvetica,sans-Serif" font-size="10.00">+ operator&lt;&lt;()</text>
<text text-anchor="start" x="9.89795" y="-189" font-family="Helvetica,sans-Serif" font-size="10.00">+ operator&lt;&lt;()</text>
<text text-anchor="start" x="9.89795" y="-179" font-family="Helvetica,sans-Serif" font-size="10.00">+ operator&lt;&lt;()</text>
<text text-anchor="start" x="9.89795" y="-169" font-family="Helvetica,sans-Serif" font-size="10.00">+ operator&lt;&lt;()</text>
<text text-anchor="start" x="9.89795" y="-159" font-family="Helvetica,sans-Serif" font-size="10.00">+ operator&lt;&lt;()</text>
<text text-anchor="start" x="9.89795" y="-149" font-family="Helvetica,sans-Serif" font-size="10.00">+ operator&lt;&lt;()</text>
<text text-anchor="start" x="9.89795" y="-139" font-family="Helvetica,sans-Serif" font-size="10.00">+ write()</text>
</a>
</g>
</g>
<!-- Node2&#45;&gt;Node1 -->
<g id="edge1" class="edge"><title>Node2&#45;&gt;Node1</title>
<path fill="none" stroke="midnightblue" d="M42,-122.681C42,-113.312 42,-104.018 42,-95.3476"/>
<polygon fill="none" stroke="midnightblue" points="38.5001,-122.851 42,-132.851 45.5001,-122.851 38.5001,-122.851"/>
</g>
</g>
</svg>
