<?xml version="1.0" encoding="UTF-8" standalone="no"?>
<!DOCTYPE svg PUBLIC "-//W3C//DTD SVG 1.1//EN"
 "http://www.w3.org/Graphics/SVG/1.1/DTD/svg11.dtd">
<!-- Generated by graphviz version 2.36.0 (20140111.2315)
 -->
<!-- Title: Rle Pages: 1 -->
<svg width="149pt" height="206pt"
 viewBox="0.00 0.00 149.00 206.00" xmlns="http://www.w3.org/2000/svg" xmlns:xlink="http://www.w3.org/1999/xlink">
<g id="graph0" class="graph" transform="scale(1 1) rotate(0) translate(4 202)">
<title>Rle</title>
<!-- Node1 -->
<g id="node1" class="node"><title>Node1</title>
<polygon fill="#bfbfbf" stroke="black" points="42.957,-113 42.957,-197 107.043,-197 107.043,-113 42.957,-113"/>
<text text-anchor="middle" x="75" y="-185" font-family="Helvetica,sans-Serif" font-size="10.00">Rle</text>
<polyline fill="none" stroke="black" points="42.957,-179 107.043,-179 "/>
<text text-anchor="middle" x="75" y="-167" font-family="Helvetica,sans-Serif" font-size="10.00"> </text>
<polyline fill="none" stroke="black" points="42.957,-161 107.043,-161 "/>
<text text-anchor="start" x="50.957" y="-149" font-family="Helvetica,sans-Serif" font-size="10.00">+ Rle()</text>
<text text-anchor="start" x="50.957" y="-139" font-family="Helvetica,sans-Serif" font-size="10.00">+ encode()</text>
<text text-anchor="start" x="50.957" y="-129" font-family="Helvetica,sans-Serif" font-size="10.00">+ decode()</text>
<text text-anchor="start" x="50.957" y="-119" font-family="Helvetica,sans-Serif" font-size="10.00">+ size()</text>
</g>
<!-- Node2 -->
<g id="node2" class="node"><title>Node2</title>
<g id="a_node2"><a xlink:href="class_rle_appfs.html" target="_top" xlink:title="Class for reading/writing compressed file data using Appfs. ">
<polygon fill="none" stroke="black" points="-0.927246,-1 -0.927246,-75 70.9272,-75 70.9272,-1 -0.927246,-1"/>
<text text-anchor="middle" x="35" y="-63" font-family="Helvetica,sans-Serif" font-size="10.00">RleAppfs</text>
<polyline fill="none" stroke="black" points="-0.927246,-57 70.9272,-57 "/>
<text text-anchor="middle" x="35" y="-45" font-family="Helvetica,sans-Serif" font-size="10.00"> </text>
<polyline fill="none" stroke="black" points="-0.927246,-39 70.9272,-39 "/>
<text text-anchor="start" x="7.07275" y="-27" font-family="Helvetica,sans-Serif" font-size="10.00">+ RleAppfs()</text>
<text text-anchor="start" x="7.07275" y="-17" font-family="Helvetica,sans-Serif" font-size="10.00">+ write()</text>
<text text-anchor="start" x="7.07275" y="-7" font-family="Helvetica,sans-Serif" font-size="10.00">+ read()</text>
</a>
</g>
</g>
<!-- Node1&#45;&gt;Node2 -->
<g id="edge1" class="edge"><title>Node1&#45;&gt;Node2</title>
<path fill="none" stroke="midnightblue" d="M57.318,-103.164C54.0563,-93.7868 50.7112,-84.1697 47.6361,-75.3287"/>
<polygon fill="none" stroke="midnightblue" points="54.0811,-104.512 60.6721,-112.807 60.6925,-102.212 54.0811,-104.512"/>
</g>
<!-- Node3 -->
<g id="node3" class="node"><title>Node3</title>
<g id="a_node3"><a xlink:href="class_rle_file.html" target="_top" xlink:title="Class for reading/writing compressed file data. ">
<polygon fill="none" stroke="black" points="88.8042,-6 88.8042,-70 141.196,-70 141.196,-6 88.8042,-6"/>
<text text-anchor="middle" x="115" y="-58" font-family="Helvetica,sans-Serif" font-size="10.00">RleFile</text>
<polyline fill="none" stroke="black" points="88.8042,-52 141.196,-52 "/>
<text text-anchor="middle" x="115" y="-40" font-family="Helvetica,sans-Serif" font-size="10.00"> </text>
<polyline fill="none" stroke="black" points="88.8042,-34 141.196,-34 "/>
<text text-anchor="start" x="96.8042" y="-22" font-family="Helvetica,sans-Serif" font-size="10.00">+ write()</text>
<text text-anchor="start" x="96.8042" y="-12" font-family="Helvetica,sans-Serif" font-size="10.00">+ read()</text>
</a>
</g>
</g>
<!-- Node1&#45;&gt;Node3 -->
<g id="edge2" class="edge"><title>Node1&#45;&gt;Node3</title>
<path fill="none" stroke="midnightblue" d="M92.7102,-103.083C96.6107,-91.8692 100.629,-80.3167 104.161,-70.1621"/>
<polygon fill="none" stroke="midnightblue" points="89.3075,-102.212 89.3279,-112.807 95.9189,-104.512 89.3075,-102.212"/>
</g>
</g>
</svg>
