<?xml version="1.0" encoding="UTF-8" standalone="no"?>
<!DOCTYPE svg PUBLIC "-//W3C//DTD SVG 1.1//EN"
 "http://www.w3.org/Graphics/SVG/1.1/DTD/svg11.dtd">
<!-- Generated by graphviz version 2.36.0 (20140111.2315)
 -->
<!-- Title: Hal::Phy Pages: 1 -->
<svg width="1006pt" height="578pt"
 viewBox="0.00 0.00 1006.00 578.00" xmlns="http://www.w3.org/2000/svg" xmlns:xlink="http://www.w3.org/1999/xlink">
<g id="graph0" class="graph" transform="scale(1 1) rotate(0) translate(4 574)">
<title>Hal::Phy</title>
<!-- Node1 -->
<g id="node1" class="node"><title>Node1</title>
<polygon fill="#bfbfbf" stroke="black" points="514.104,-475 514.104,-569 567.896,-569 567.896,-475 514.104,-475"/>
<text text-anchor="middle" x="541" y="-557" font-family="Helvetica,sans-Serif" font-size="10.00">Hal::Phy</text>
<polyline fill="none" stroke="black" points="514.104,-551 567.896,-551 "/>
<text text-anchor="middle" x="541" y="-539" font-family="Helvetica,sans-Serif" font-size="10.00"> </text>
<polyline fill="none" stroke="black" points="514.104,-533 567.896,-533 "/>
<text text-anchor="start" x="522.104" y="-521" font-family="Helvetica,sans-Serif" font-size="10.00">+ Phy()</text>
<text text-anchor="start" x="522.104" y="-511" font-family="Helvetica,sans-Serif" font-size="10.00">+ ioctl()</text>
<text text-anchor="start" x="522.104" y="-501" font-family="Helvetica,sans-Serif" font-size="10.00">+ ioctl()</text>
<text text-anchor="start" x="522.104" y="-491" font-family="Helvetica,sans-Serif" font-size="10.00">+ ioctl()</text>
<text text-anchor="start" x="522.104" y="-481" font-family="Helvetica,sans-Serif" font-size="10.00">+ ioctl()</text>
</g>
<!-- Node2 -->
<g id="node2" class="node"><title>Node2</title>
<g id="a_node2"><a xlink:href="class_hal_1_1_periph.html" target="_top" xlink:title="Peripheral Class. ">
<polygon fill="none" stroke="black" points="450.54,-253 450.54,-427 525.46,-427 525.46,-253 450.54,-253"/>
<text text-anchor="middle" x="488" y="-415" font-family="Helvetica,sans-Serif" font-size="10.00">Hal::Periph</text>
<polyline fill="none" stroke="black" points="450.54,-409 525.46,-409 "/>
<text text-anchor="start" x="458.54" y="-397" font-family="Helvetica,sans-Serif" font-size="10.00"># port_</text>
<text text-anchor="start" x="458.54" y="-387" font-family="Helvetica,sans-Serif" font-size="10.00"># fd</text>
<polyline fill="none" stroke="black" points="450.54,-381 525.46,-381 "/>
<text text-anchor="start" x="458.54" y="-369" font-family="Helvetica,sans-Serif" font-size="10.00">+ Periph()</text>
<text text-anchor="start" x="458.54" y="-359" font-family="Helvetica,sans-Serif" font-size="10.00">+ open()</text>
<text text-anchor="start" x="458.54" y="-349" font-family="Helvetica,sans-Serif" font-size="10.00">+ open()</text>
<text text-anchor="start" x="458.54" y="-339" font-family="Helvetica,sans-Serif" font-size="10.00">+ setflags()</text>
<text text-anchor="start" x="458.54" y="-329" font-family="Helvetica,sans-Serif" font-size="10.00">+ read()</text>
<text text-anchor="start" x="458.54" y="-319" font-family="Helvetica,sans-Serif" font-size="10.00">+ read()</text>
<text text-anchor="start" x="458.54" y="-309" font-family="Helvetica,sans-Serif" font-size="10.00">+ write()</text>
<text text-anchor="start" x="458.54" y="-299" font-family="Helvetica,sans-Serif" font-size="10.00">+ readline()</text>
<text text-anchor="start" x="458.54" y="-289" font-family="Helvetica,sans-Serif" font-size="10.00">+ write()</text>
<text text-anchor="start" x="458.54" y="-279" font-family="Helvetica,sans-Serif" font-size="10.00">+ write()</text>
<text text-anchor="start" x="458.54" y="-269" font-family="Helvetica,sans-Serif" font-size="10.00">and 7 more...</text>
<text text-anchor="start" x="458.54" y="-259" font-family="Helvetica,sans-Serif" font-size="10.00"># _open()</text>
</a>
</g>
</g>
<!-- Node1&#45;&gt;Node2 -->
<g id="edge1" class="edge"><title>Node1&#45;&gt;Node2</title>
<path fill="none" stroke="midnightblue" d="M524.455,-464.809C520.921,-452.808 517.111,-439.869 513.333,-427.038"/>
<polygon fill="none" stroke="midnightblue" points="521.169,-466.041 527.351,-474.646 527.884,-464.064 521.169,-466.041"/>
</g>
<!-- Node14 -->
<g id="node14" class="node"><title>Node14</title>
<g id="a_node14"><a xlink:href="class_sys_1_1_file.html" target="_top" xlink:title="File Class. ">
<polygon fill="none" stroke="red" points="543.893,-243 543.893,-437 644.107,-437 644.107,-243 543.893,-243"/>
<text text-anchor="middle" x="594" y="-425" font-family="Helvetica,sans-Serif" font-size="10.00">Sys::File</text>
<polyline fill="none" stroke="red" points="543.893,-419 644.107,-419 "/>
<text text-anchor="middle" x="594" y="-407" font-family="Helvetica,sans-Serif" font-size="10.00"> </text>
<polyline fill="none" stroke="red" points="543.893,-401 644.107,-401 "/>
<text text-anchor="start" x="551.893" y="-389" font-family="Helvetica,sans-Serif" font-size="10.00">+ File()</text>
<text text-anchor="start" x="551.893" y="-379" font-family="Helvetica,sans-Serif" font-size="10.00">+ open()</text>
<text text-anchor="start" x="551.893" y="-369" font-family="Helvetica,sans-Serif" font-size="10.00">+ open_readwrite()</text>
<text text-anchor="start" x="551.893" y="-359" font-family="Helvetica,sans-Serif" font-size="10.00">+ open_readonly()</text>
<text text-anchor="start" x="551.893" y="-349" font-family="Helvetica,sans-Serif" font-size="10.00">+ open_append()</text>
<text text-anchor="start" x="551.893" y="-339" font-family="Helvetica,sans-Serif" font-size="10.00">+ create()</text>
<text text-anchor="start" x="551.893" y="-329" font-family="Helvetica,sans-Serif" font-size="10.00">+ read()</text>
<text text-anchor="start" x="551.893" y="-319" font-family="Helvetica,sans-Serif" font-size="10.00">+ read()</text>
<text text-anchor="start" x="551.893" y="-309" font-family="Helvetica,sans-Serif" font-size="10.00">+ write()</text>
<text text-anchor="start" x="551.893" y="-299" font-family="Helvetica,sans-Serif" font-size="10.00">+ write()</text>
<text text-anchor="start" x="551.893" y="-289" font-family="Helvetica,sans-Serif" font-size="10.00">and 12 more...</text>
<text text-anchor="start" x="551.893" y="-279" font-family="Helvetica,sans-Serif" font-size="10.00">+ remove()</text>
<text text-anchor="start" x="551.893" y="-269" font-family="Helvetica,sans-Serif" font-size="10.00">+ stat()</text>
<text text-anchor="start" x="551.893" y="-259" font-family="Helvetica,sans-Serif" font-size="10.00">+ size()</text>
<text text-anchor="start" x="551.893" y="-249" font-family="Helvetica,sans-Serif" font-size="10.00">+ name()</text>
</a>
</g>
</g>
<!-- Node1&#45;&gt;Node14 -->
<g id="edge13" class="edge"><title>Node1&#45;&gt;Node14</title>
<path fill="none" stroke="midnightblue" d="M557.519,-464.899C560.123,-456.053 562.878,-446.697 565.66,-437.247"/>
<polygon fill="none" stroke="midnightblue" points="554.116,-464.064 554.649,-474.646 560.831,-466.041 554.116,-464.064"/>
</g>
<!-- Node3 -->
<g id="node3" class="node"><title>Node3</title>
<g id="a_node3"><a xlink:href="class_hal_1_1_adc.html" target="_top" xlink:title="ADC Peripheral Class. ">
<polygon fill="none" stroke="black" points="-0.533203,-46 -0.533203,-160 58.5332,-160 58.5332,-46 -0.533203,-46"/>
<text text-anchor="middle" x="29" y="-148" font-family="Helvetica,sans-Serif" font-size="10.00">Hal::Adc</text>
<polyline fill="none" stroke="black" points="-0.533203,-142 58.5332,-142 "/>
<text text-anchor="middle" x="29" y="-130" font-family="Helvetica,sans-Serif" font-size="10.00"> </text>
<polyline fill="none" stroke="black" points="-0.533203,-124 58.5332,-124 "/>
<text text-anchor="start" x="7.4668" y="-112" font-family="Helvetica,sans-Serif" font-size="10.00">+ Adc()</text>
<text text-anchor="start" x="7.4668" y="-102" font-family="Helvetica,sans-Serif" font-size="10.00">+ open()</text>
<text text-anchor="start" x="7.4668" y="-92" font-family="Helvetica,sans-Serif" font-size="10.00">+ attr()</text>
<text text-anchor="start" x="7.4668" y="-82" font-family="Helvetica,sans-Serif" font-size="10.00">+ setattr()</text>
<text text-anchor="start" x="7.4668" y="-72" font-family="Helvetica,sans-Serif" font-size="10.00">+ setattr()</text>
<text text-anchor="start" x="7.4668" y="-62" font-family="Helvetica,sans-Serif" font-size="10.00">+ init()</text>
<text text-anchor="start" x="7.4668" y="-52" font-family="Helvetica,sans-Serif" font-size="10.00">+ ports()</text>
</a>
</g>
</g>
<!-- Node2&#45;&gt;Node3 -->
<g id="edge2" class="edge"><title>Node2&#45;&gt;Node3</title>
<path fill="none" stroke="midnightblue" d="M440.277,-337.098C354.382,-331.143 172.861,-306.633 67,-206 54.1254,-193.761 45.5822,-176.758 39.9253,-160.139"/>
<polygon fill="none" stroke="midnightblue" points="440.311,-340.607 450.514,-337.751 440.757,-333.622 440.311,-340.607"/>
</g>
<!-- Node4 -->
<g id="node4" class="node"><title>Node4</title>
<g id="a_node4"><a xlink:href="class_hal_1_1_core.html" target="_top" xlink:title="Core Class. ">
<polygon fill="none" stroke="black" points="76.2773,-11 76.2773,-195 183.723,-195 183.723,-11 76.2773,-11"/>
<text text-anchor="middle" x="130" y="-183" font-family="Helvetica,sans-Serif" font-size="10.00">Hal::Core</text>
<polyline fill="none" stroke="black" points="76.2773,-177 183.723,-177 "/>
<text text-anchor="middle" x="130" y="-165" font-family="Helvetica,sans-Serif" font-size="10.00"> </text>
<polyline fill="none" stroke="black" points="76.2773,-159 183.723,-159 "/>
<text text-anchor="start" x="84.2773" y="-147" font-family="Helvetica,sans-Serif" font-size="10.00">+ Core()</text>
<text text-anchor="start" x="84.2773" y="-137" font-family="Helvetica,sans-Serif" font-size="10.00">+ open()</text>
<text text-anchor="start" x="84.2773" y="-127" font-family="Helvetica,sans-Serif" font-size="10.00">+ attr()</text>
<text text-anchor="start" x="84.2773" y="-117" font-family="Helvetica,sans-Serif" font-size="10.00">+ setattr()</text>
<text text-anchor="start" x="84.2773" y="-107" font-family="Helvetica,sans-Serif" font-size="10.00">+ setpinfunc()</text>
<text text-anchor="start" x="84.2773" y="-97" font-family="Helvetica,sans-Serif" font-size="10.00">+ setpinfunc()</text>
<text text-anchor="start" x="84.2773" y="-87" font-family="Helvetica,sans-Serif" font-size="10.00">+ setpinfunc()</text>
<text text-anchor="start" x="84.2773" y="-77" font-family="Helvetica,sans-Serif" font-size="10.00">+ sleep()</text>
<text text-anchor="start" x="84.2773" y="-67" font-family="Helvetica,sans-Serif" font-size="10.00">+ reset()</text>
<text text-anchor="start" x="84.2773" y="-57" font-family="Helvetica,sans-Serif" font-size="10.00">+ invokebootloader()</text>
<text text-anchor="start" x="84.2773" y="-47" font-family="Helvetica,sans-Serif" font-size="10.00">+ setirqprio()</text>
<text text-anchor="start" x="84.2773" y="-37" font-family="Helvetica,sans-Serif" font-size="10.00">+ setirqprio()</text>
<text text-anchor="start" x="84.2773" y="-27" font-family="Helvetica,sans-Serif" font-size="10.00">+ setclkout()</text>
<text text-anchor="start" x="84.2773" y="-17" font-family="Helvetica,sans-Serif" font-size="10.00">+ ports()</text>
</a>
</g>
</g>
<!-- Node2&#45;&gt;Node4 -->
<g id="edge3" class="edge"><title>Node2&#45;&gt;Node4</title>
<path fill="none" stroke="midnightblue" d="M440.698,-327.265C377.853,-309.716 266.152,-271.492 192,-206 188.272,-202.708 184.699,-199.136 181.283,-195.367"/>
<polygon fill="none" stroke="midnightblue" points="439.782,-330.643 450.351,-329.905 441.629,-323.891 439.782,-330.643"/>
</g>
<!-- Node5 -->
<g id="node5" class="node"><title>Node5</title>
<g id="a_node5"><a xlink:href="class_hal_1_1_eint.html" target="_top" xlink:title="External Interrupt Class. ">
<polygon fill="none" stroke="black" points="201.349,-26 201.349,-180 272.651,-180 272.651,-26 201.349,-26"/>
<text text-anchor="middle" x="237" y="-168" font-family="Helvetica,sans-Serif" font-size="10.00">Hal::Eint</text>
<polyline fill="none" stroke="black" points="201.349,-162 272.651,-162 "/>
<text text-anchor="middle" x="237" y="-150" font-family="Helvetica,sans-Serif" font-size="10.00"> </text>
<polyline fill="none" stroke="black" points="201.349,-144 272.651,-144 "/>
<text text-anchor="start" x="209.349" y="-132" font-family="Helvetica,sans-Serif" font-size="10.00">+ Eint()</text>
<text text-anchor="start" x="209.349" y="-122" font-family="Helvetica,sans-Serif" font-size="10.00">+ open()</text>
<text text-anchor="start" x="209.349" y="-112" font-family="Helvetica,sans-Serif" font-size="10.00">+ attr()</text>
<text text-anchor="start" x="209.349" y="-102" font-family="Helvetica,sans-Serif" font-size="10.00">+ setattr()</text>
<text text-anchor="start" x="209.349" y="-92" font-family="Helvetica,sans-Serif" font-size="10.00">+ setaction()</text>
<text text-anchor="start" x="209.349" y="-82" font-family="Helvetica,sans-Serif" font-size="10.00">+ value()</text>
<text text-anchor="start" x="209.349" y="-72" font-family="Helvetica,sans-Serif" font-size="10.00">+ get()</text>
<text text-anchor="start" x="209.349" y="-62" font-family="Helvetica,sans-Serif" font-size="10.00">+ setaction()</text>
<text text-anchor="start" x="209.349" y="-52" font-family="Helvetica,sans-Serif" font-size="10.00">+ setattr()</text>
<text text-anchor="start" x="209.349" y="-42" font-family="Helvetica,sans-Serif" font-size="10.00">+ init()</text>
<text text-anchor="start" x="209.349" y="-32" font-family="Helvetica,sans-Serif" font-size="10.00">+ ports()</text>
</a>
</g>
</g>
<!-- Node2&#45;&gt;Node5 -->
<g id="edge4" class="edge"><title>Node2&#45;&gt;Node5</title>
<path fill="none" stroke="midnightblue" d="M441.137,-318.897C394.999,-297.033 325.205,-258.113 281,-206 274.45,-198.279 268.737,-189.435 263.791,-180.253"/>
<polygon fill="none" stroke="midnightblue" points="439.777,-322.125 450.32,-323.172 442.731,-315.779 439.777,-322.125"/>
</g>
<!-- Node6 -->
<g id="node6" class="node"><title>Node6</title>
<g id="a_node6"><a xlink:href="class_hal_1_1_i2_c.html" target="_top" xlink:title="I2C Peripheral Class. ">
<polygon fill="none" stroke="black" points="290.467,-6 290.467,-200 349.533,-200 349.533,-6 290.467,-6"/>
<text text-anchor="middle" x="320" y="-188" font-family="Helvetica,sans-Serif" font-size="10.00">Hal::I2C</text>
<polyline fill="none" stroke="black" points="290.467,-182 349.533,-182 "/>
<text text-anchor="middle" x="320" y="-170" font-family="Helvetica,sans-Serif" font-size="10.00"> </text>
<polyline fill="none" stroke="black" points="290.467,-164 349.533,-164 "/>
<text text-anchor="start" x="298.467" y="-152" font-family="Helvetica,sans-Serif" font-size="10.00">+ I2C()</text>
<text text-anchor="start" x="298.467" y="-142" font-family="Helvetica,sans-Serif" font-size="10.00">+ open()</text>
<text text-anchor="start" x="298.467" y="-132" font-family="Helvetica,sans-Serif" font-size="10.00">+ attr()</text>
<text text-anchor="start" x="298.467" y="-122" font-family="Helvetica,sans-Serif" font-size="10.00">+ setattr()</text>
<text text-anchor="start" x="298.467" y="-112" font-family="Helvetica,sans-Serif" font-size="10.00">+ setup()</text>
<text text-anchor="start" x="298.467" y="-102" font-family="Helvetica,sans-Serif" font-size="10.00">+ geterr()</text>
<text text-anchor="start" x="298.467" y="-92" font-family="Helvetica,sans-Serif" font-size="10.00">+ err()</text>
<text text-anchor="start" x="298.467" y="-82" font-family="Helvetica,sans-Serif" font-size="10.00">+ setup()</text>
<text text-anchor="start" x="298.467" y="-72" font-family="Helvetica,sans-Serif" font-size="10.00">+ setattr()</text>
<text text-anchor="start" x="298.467" y="-62" font-family="Helvetica,sans-Serif" font-size="10.00">+ init()</text>
<text text-anchor="start" x="298.467" y="-52" font-family="Helvetica,sans-Serif" font-size="10.00">+ read()</text>
<text text-anchor="start" x="298.467" y="-42" font-family="Helvetica,sans-Serif" font-size="10.00">+ write()</text>
<text text-anchor="start" x="298.467" y="-32" font-family="Helvetica,sans-Serif" font-size="10.00">+ set()</text>
<text text-anchor="start" x="298.467" y="-22" font-family="Helvetica,sans-Serif" font-size="10.00">+ clear()</text>
<text text-anchor="start" x="298.467" y="-12" font-family="Helvetica,sans-Serif" font-size="10.00">+ ports()</text>
</a>
</g>
</g>
<!-- Node2&#45;&gt;Node6 -->
<g id="edge5" class="edge"><title>Node2&#45;&gt;Node6</title>
<path fill="none" stroke="midnightblue" d="M442.924,-301.118C415.688,-276.323 381.923,-241.947 359,-206 355.636,-200.725 352.492,-195.115 349.565,-189.344"/>
<polygon fill="none" stroke="midnightblue" points="440.64,-303.772 450.418,-307.851 445.319,-298.564 440.64,-303.772"/>
</g>
<!-- Node7 -->
<g id="node7" class="node"><title>Node7</title>
<g id="a_node7"><a xlink:href="class_hal_1_1_pio.html" target="_top" xlink:title="Pin Input/Output Class. ">
<polygon fill="none" stroke="red" points="367.79,-6 367.79,-200 440.21,-200 440.21,-6 367.79,-6"/>
<text text-anchor="middle" x="404" y="-188" font-family="Helvetica,sans-Serif" font-size="10.00">Hal::Pio</text>
<polyline fill="none" stroke="red" points="367.79,-182 440.21,-182 "/>
<text text-anchor="middle" x="404" y="-170" font-family="Helvetica,sans-Serif" font-size="10.00"> </text>
<polyline fill="none" stroke="red" points="367.79,-164 440.21,-164 "/>
<text text-anchor="start" x="375.79" y="-152" font-family="Helvetica,sans-Serif" font-size="10.00">+ Pio()</text>
<text text-anchor="start" x="375.79" y="-142" font-family="Helvetica,sans-Serif" font-size="10.00">+ open()</text>
<text text-anchor="start" x="375.79" y="-132" font-family="Helvetica,sans-Serif" font-size="10.00">+ attr()</text>
<text text-anchor="start" x="375.79" y="-122" font-family="Helvetica,sans-Serif" font-size="10.00">+ setattr()</text>
<text text-anchor="start" x="375.79" y="-112" font-family="Helvetica,sans-Serif" font-size="10.00">+ setaction()</text>
<text text-anchor="start" x="375.79" y="-102" font-family="Helvetica,sans-Serif" font-size="10.00">+ setmask()</text>
<text text-anchor="start" x="375.79" y="-92" font-family="Helvetica,sans-Serif" font-size="10.00">+ clrmask()</text>
<text text-anchor="start" x="375.79" y="-82" font-family="Helvetica,sans-Serif" font-size="10.00">+ get()</text>
<text text-anchor="start" x="375.79" y="-72" font-family="Helvetica,sans-Serif" font-size="10.00">+ value()</text>
<text text-anchor="start" x="375.79" y="-62" font-family="Helvetica,sans-Serif" font-size="10.00">+ set()</text>
<text text-anchor="start" x="375.79" y="-52" font-family="Helvetica,sans-Serif" font-size="10.00">+ setattr()</text>
<text text-anchor="start" x="375.79" y="-42" font-family="Helvetica,sans-Serif" font-size="10.00">+ init()</text>
<text text-anchor="start" x="375.79" y="-32" font-family="Helvetica,sans-Serif" font-size="10.00">+ setoutput()</text>
<text text-anchor="start" x="375.79" y="-22" font-family="Helvetica,sans-Serif" font-size="10.00">+ setinput()</text>
<text text-anchor="start" x="375.79" y="-12" font-family="Helvetica,sans-Serif" font-size="10.00">+ ports()</text>
</a>
</g>
</g>
<!-- Node2&#45;&gt;Node7 -->
<g id="edge6" class="edge"><title>Node2&#45;&gt;Node7</title>
<path fill="none" stroke="midnightblue" d="M453.716,-243.086C448.644,-228.896 443.416,-214.272 438.343,-200.079"/>
<polygon fill="none" stroke="midnightblue" points="450.537,-244.591 457.198,-252.829 457.128,-242.234 450.537,-244.591"/>
</g>
<!-- Node8 -->
<g id="node8" class="node"><title>Node8</title>
<g id="a_node8"><a xlink:href="class_hal_1_1_pwm.html" target="_top" xlink:title="PWM Class. ">
<polygon fill="none" stroke="black" points="458.467,-36 458.467,-170 517.533,-170 517.533,-36 458.467,-36"/>
<text text-anchor="middle" x="488" y="-158" font-family="Helvetica,sans-Serif" font-size="10.00">Hal::Pwm</text>
<polyline fill="none" stroke="black" points="458.467,-152 517.533,-152 "/>
<text text-anchor="middle" x="488" y="-140" font-family="Helvetica,sans-Serif" font-size="10.00"> </text>
<polyline fill="none" stroke="black" points="458.467,-134 517.533,-134 "/>
<text text-anchor="start" x="466.467" y="-122" font-family="Helvetica,sans-Serif" font-size="10.00">+ Pwm()</text>
<text text-anchor="start" x="466.467" y="-112" font-family="Helvetica,sans-Serif" font-size="10.00">+ open()</text>
<text text-anchor="start" x="466.467" y="-102" font-family="Helvetica,sans-Serif" font-size="10.00">+ attr()</text>
<text text-anchor="start" x="466.467" y="-92" font-family="Helvetica,sans-Serif" font-size="10.00">+ setattr()</text>
<text text-anchor="start" x="466.467" y="-82" font-family="Helvetica,sans-Serif" font-size="10.00">+ set()</text>
<text text-anchor="start" x="466.467" y="-72" font-family="Helvetica,sans-Serif" font-size="10.00">+ set()</text>
<text text-anchor="start" x="466.467" y="-62" font-family="Helvetica,sans-Serif" font-size="10.00">+ setattr()</text>
<text text-anchor="start" x="466.467" y="-52" font-family="Helvetica,sans-Serif" font-size="10.00">+ init()</text>
<text text-anchor="start" x="466.467" y="-42" font-family="Helvetica,sans-Serif" font-size="10.00">+ ports()</text>
</a>
</g>
</g>
<!-- Node2&#45;&gt;Node8 -->
<g id="edge7" class="edge"><title>Node2&#45;&gt;Node8</title>
<path fill="none" stroke="midnightblue" d="M488,-242.511C488,-218.228 488,-192.707 488,-170.282"/>
<polygon fill="none" stroke="midnightblue" points="484.5,-242.829 488,-252.829 491.5,-242.829 484.5,-242.829"/>
</g>
<!-- Node9 -->
<g id="node9" class="node"><title>Node9</title>
<g id="a_node9"><a xlink:href="class_hal_1_1_rtc.html" target="_top" xlink:title="RTC Class. ">
<polygon fill="none" stroke="black" points="536.014,-26 536.014,-180 623.986,-180 623.986,-26 536.014,-26"/>
<text text-anchor="middle" x="580" y="-168" font-family="Helvetica,sans-Serif" font-size="10.00">Hal::Rtc</text>
<polyline fill="none" stroke="black" points="536.014,-162 623.986,-162 "/>
<text text-anchor="middle" x="580" y="-150" font-family="Helvetica,sans-Serif" font-size="10.00"> </text>
<polyline fill="none" stroke="black" points="536.014,-144 623.986,-144 "/>
<text text-anchor="start" x="544.014" y="-132" font-family="Helvetica,sans-Serif" font-size="10.00">+ Rtc()</text>
<text text-anchor="start" x="544.014" y="-122" font-family="Helvetica,sans-Serif" font-size="10.00">+ open()</text>
<text text-anchor="start" x="544.014" y="-112" font-family="Helvetica,sans-Serif" font-size="10.00">+ attr()</text>
<text text-anchor="start" x="544.014" y="-102" font-family="Helvetica,sans-Serif" font-size="10.00">+ setattr()</text>
<text text-anchor="start" x="544.014" y="-92" font-family="Helvetica,sans-Serif" font-size="10.00">+ setaction()</text>
<text text-anchor="start" x="544.014" y="-82" font-family="Helvetica,sans-Serif" font-size="10.00">+ setalarm()</text>
<text text-anchor="start" x="544.014" y="-72" font-family="Helvetica,sans-Serif" font-size="10.00">+ getalarm()</text>
<text text-anchor="start" x="544.014" y="-62" font-family="Helvetica,sans-Serif" font-size="10.00">+ disablealarm()</text>
<text text-anchor="start" x="544.014" y="-52" font-family="Helvetica,sans-Serif" font-size="10.00">+ set()</text>
<text text-anchor="start" x="544.014" y="-42" font-family="Helvetica,sans-Serif" font-size="10.00">+ get()</text>
<text text-anchor="start" x="544.014" y="-32" font-family="Helvetica,sans-Serif" font-size="10.00">+ ports()</text>
</a>
</g>
</g>
<!-- Node2&#45;&gt;Node9 -->
<g id="edge8" class="edge"><title>Node2&#45;&gt;Node9</title>
<path fill="none" stroke="midnightblue" d="M525.488,-243.242C533.724,-222.206 542.336,-200.207 550.22,-180.07"/>
<polygon fill="none" stroke="midnightblue" points="522.121,-242.241 521.735,-252.829 528.64,-244.793 522.121,-242.241"/>
</g>
<!-- Node10 -->
<g id="node10" class="node"><title>Node10</title>
<g id="a_node10"><a xlink:href="class_hal_1_1_spi.html" target="_top" xlink:title="SPI Class. ">
<polygon fill="none" stroke="black" points="641.957,-36 641.957,-170 716.043,-170 716.043,-36 641.957,-36"/>
<text text-anchor="middle" x="679" y="-158" font-family="Helvetica,sans-Serif" font-size="10.00">Hal::Spi</text>
<polyline fill="none" stroke="black" points="641.957,-152 716.043,-152 "/>
<text text-anchor="middle" x="679" y="-140" font-family="Helvetica,sans-Serif" font-size="10.00"> </text>
<polyline fill="none" stroke="black" points="641.957,-134 716.043,-134 "/>
<text text-anchor="start" x="649.957" y="-122" font-family="Helvetica,sans-Serif" font-size="10.00">+ Spi()</text>
<text text-anchor="start" x="649.957" y="-112" font-family="Helvetica,sans-Serif" font-size="10.00">+ open()</text>
<text text-anchor="start" x="649.957" y="-102" font-family="Helvetica,sans-Serif" font-size="10.00">+ attr()</text>
<text text-anchor="start" x="649.957" y="-92" font-family="Helvetica,sans-Serif" font-size="10.00">+ setattr()</text>
<text text-anchor="start" x="649.957" y="-82" font-family="Helvetica,sans-Serif" font-size="10.00">+ swap()</text>
<text text-anchor="start" x="649.957" y="-72" font-family="Helvetica,sans-Serif" font-size="10.00">+ setduplex()</text>
<text text-anchor="start" x="649.957" y="-62" font-family="Helvetica,sans-Serif" font-size="10.00">+ setattr()</text>
<text text-anchor="start" x="649.957" y="-52" font-family="Helvetica,sans-Serif" font-size="10.00">+ init()</text>
<text text-anchor="start" x="649.957" y="-42" font-family="Helvetica,sans-Serif" font-size="10.00">+ ports()</text>
</a>
</g>
</g>
<!-- Node2&#45;&gt;Node10 -->
<g id="edge9" class="edge"><title>Node2&#45;&gt;Node10</title>
<path fill="none" stroke="midnightblue" d="M531.696,-245.162C532.773,-244.078 533.875,-243.022 535,-242 569.036,-211.079 598.266,-237.25 632,-206 642.656,-196.128 651.091,-183.364 657.694,-170.227"/>
<polygon fill="none" stroke="midnightblue" points="528.99,-242.937 524.924,-252.721 534.203,-247.609 528.99,-242.937"/>
</g>
<!-- Node11 -->
<g id="node11" class="node"><title>Node11</title>
<g id="a_node11"><a xlink:href="class_hal_1_1_tmr.html" target="_top" xlink:title="Tmr (hardware timer) Class. ">
<polygon fill="none" stroke="black" points="734.127,-21 734.127,-185 813.873,-185 813.873,-21 734.127,-21"/>
<text text-anchor="middle" x="774" y="-173" font-family="Helvetica,sans-Serif" font-size="10.00">Hal::Tmr</text>
<polyline fill="none" stroke="black" points="734.127,-167 813.873,-167 "/>
<text text-anchor="middle" x="774" y="-155" font-family="Helvetica,sans-Serif" font-size="10.00"> </text>
<polyline fill="none" stroke="black" points="734.127,-149 813.873,-149 "/>
<text text-anchor="start" x="742.127" y="-137" font-family="Helvetica,sans-Serif" font-size="10.00">+ Tmr()</text>
<text text-anchor="start" x="742.127" y="-127" font-family="Helvetica,sans-Serif" font-size="10.00">+ open()</text>
<text text-anchor="start" x="742.127" y="-117" font-family="Helvetica,sans-Serif" font-size="10.00">+ attr()</text>
<text text-anchor="start" x="742.127" y="-107" font-family="Helvetica,sans-Serif" font-size="10.00">+ setattr()</text>
<text text-anchor="start" x="742.127" y="-97" font-family="Helvetica,sans-Serif" font-size="10.00">+ setaction()</text>
<text text-anchor="start" x="742.127" y="-87" font-family="Helvetica,sans-Serif" font-size="10.00">+ setaction()</text>
<text text-anchor="start" x="742.127" y="-77" font-family="Helvetica,sans-Serif" font-size="10.00">+ on()</text>
<text text-anchor="start" x="742.127" y="-67" font-family="Helvetica,sans-Serif" font-size="10.00">+ off()</text>
<text text-anchor="start" x="742.127" y="-57" font-family="Helvetica,sans-Serif" font-size="10.00">+ setoc()</text>
<text text-anchor="start" x="742.127" y="-47" font-family="Helvetica,sans-Serif" font-size="10.00">+ setoc()</text>
<text text-anchor="start" x="742.127" y="-37" font-family="Helvetica,sans-Serif" font-size="10.00">and 11 more...</text>
<text text-anchor="start" x="742.127" y="-27" font-family="Helvetica,sans-Serif" font-size="10.00">+ ports()</text>
</a>
</g>
</g>
<!-- Node2&#45;&gt;Node11 -->
<g id="edge10" class="edge"><title>Node2&#45;&gt;Node11</title>
<path fill="none" stroke="midnightblue" d="M530.832,-245.443C532.181,-244.245 533.57,-243.095 535,-242 603.242,-189.752 656.846,-258.363 725,-206 732.478,-200.255 738.874,-193.078 744.331,-185.209"/>
<polygon fill="none" stroke="midnightblue" points="528.088,-243.24 523.536,-252.807 533.061,-248.167 528.088,-243.24"/>
</g>
<!-- Node12 -->
<g id="node12" class="node"><title>Node12</title>
<g id="a_node12"><a xlink:href="class_hal_1_1_uart.html" target="_top" xlink:title="UART Class. ">
<polygon fill="none" stroke="red" points="831.959,-36 831.959,-170 896.041,-170 896.041,-36 831.959,-36"/>
<text text-anchor="middle" x="864" y="-158" font-family="Helvetica,sans-Serif" font-size="10.00">Hal::Uart</text>
<polyline fill="none" stroke="red" points="831.959,-152 896.041,-152 "/>
<text text-anchor="middle" x="864" y="-140" font-family="Helvetica,sans-Serif" font-size="10.00"> </text>
<polyline fill="none" stroke="red" points="831.959,-134 896.041,-134 "/>
<text text-anchor="start" x="839.959" y="-122" font-family="Helvetica,sans-Serif" font-size="10.00">+ Uart()</text>
<text text-anchor="start" x="839.959" y="-112" font-family="Helvetica,sans-Serif" font-size="10.00">+ open()</text>
<text text-anchor="start" x="839.959" y="-102" font-family="Helvetica,sans-Serif" font-size="10.00">+ attr()</text>
<text text-anchor="start" x="839.959" y="-92" font-family="Helvetica,sans-Serif" font-size="10.00">+ setattr()</text>
<text text-anchor="start" x="839.959" y="-82" font-family="Helvetica,sans-Serif" font-size="10.00">+ getbyte()</text>
<text text-anchor="start" x="839.959" y="-72" font-family="Helvetica,sans-Serif" font-size="10.00">+ flush()</text>
<text text-anchor="start" x="839.959" y="-62" font-family="Helvetica,sans-Serif" font-size="10.00">+ setattr()</text>
<text text-anchor="start" x="839.959" y="-52" font-family="Helvetica,sans-Serif" font-size="10.00">+ init()</text>
<text text-anchor="start" x="839.959" y="-42" font-family="Helvetica,sans-Serif" font-size="10.00">+ ports()</text>
</a>
</g>
</g>
<!-- Node2&#45;&gt;Node12 -->
<g id="edge11" class="edge"><title>Node2&#45;&gt;Node12</title>
<path fill="none" stroke="midnightblue" d="M530.204,-245.773C531.748,-244.446 533.346,-243.186 535,-242 639.464,-167.076 719.853,-284.054 822,-206 833.869,-196.93 842.405,-183.918 848.536,-170.209"/>
<polygon fill="none" stroke="midnightblue" points="527.613,-243.411 522.925,-252.913 532.515,-248.409 527.613,-243.411"/>
</g>
<!-- Node13 -->
<g id="node13" class="node"><title>Node13</title>
<g id="a_node13"><a xlink:href="class_hal_1_1_usb.html" target="_top" xlink:title="USB Class. ">
<polygon fill="none" stroke="black" points="913.676,-1 913.676,-205 998.324,-205 998.324,-1 913.676,-1"/>
<text text-anchor="middle" x="956" y="-193" font-family="Helvetica,sans-Serif" font-size="10.00">Hal::Usb</text>
<polyline fill="none" stroke="black" points="913.676,-187 998.324,-187 "/>
<text text-anchor="middle" x="956" y="-175" font-family="Helvetica,sans-Serif" font-size="10.00"> </text>
<polyline fill="none" stroke="black" points="913.676,-169 998.324,-169 "/>
<text text-anchor="start" x="921.676" y="-157" font-family="Helvetica,sans-Serif" font-size="10.00">+ Usb()</text>
<text text-anchor="start" x="921.676" y="-147" font-family="Helvetica,sans-Serif" font-size="10.00">+ open()</text>
<text text-anchor="start" x="921.676" y="-137" font-family="Helvetica,sans-Serif" font-size="10.00">+ attr()</text>
<text text-anchor="start" x="921.676" y="-127" font-family="Helvetica,sans-Serif" font-size="10.00">+ setattr()</text>
<text text-anchor="start" x="921.676" y="-117" font-family="Helvetica,sans-Serif" font-size="10.00">+ reset()</text>
<text text-anchor="start" x="921.676" y="-107" font-family="Helvetica,sans-Serif" font-size="10.00">+ attach()</text>
<text text-anchor="start" x="921.676" y="-97" font-family="Helvetica,sans-Serif" font-size="10.00">+ configure()</text>
<text text-anchor="start" x="921.676" y="-87" font-family="Helvetica,sans-Serif" font-size="10.00">+ detach()</text>
<text text-anchor="start" x="921.676" y="-77" font-family="Helvetica,sans-Serif" font-size="10.00">+ disableep()</text>
<text text-anchor="start" x="921.676" y="-67" font-family="Helvetica,sans-Serif" font-size="10.00">+ enableep()</text>
<text text-anchor="start" x="921.676" y="-57" font-family="Helvetica,sans-Serif" font-size="10.00">+ isconnected()</text>
<text text-anchor="start" x="921.676" y="-47" font-family="Helvetica,sans-Serif" font-size="10.00">+ resetep()</text>
<text text-anchor="start" x="921.676" y="-37" font-family="Helvetica,sans-Serif" font-size="10.00">+ setaddr()</text>
<text text-anchor="start" x="921.676" y="-27" font-family="Helvetica,sans-Serif" font-size="10.00">+ stallep()</text>
<text text-anchor="start" x="921.676" y="-17" font-family="Helvetica,sans-Serif" font-size="10.00">+ unstallep()</text>
<text text-anchor="start" x="921.676" y="-7" font-family="Helvetica,sans-Serif" font-size="10.00">+ ports()</text>
</a>
</g>
</g>
<!-- Node2&#45;&gt;Node13 -->
<g id="edge12" class="edge"><title>Node2&#45;&gt;Node13</title>
<path fill="none" stroke="midnightblue" d="M530.159,-245.709C531.717,-244.402 533.33,-243.163 535,-242 670.584,-147.581 768.831,-299.573 905,-206 907.937,-203.982 910.713,-201.743 913.337,-199.325"/>
<polygon fill="none" stroke="midnightblue" points="527.602,-243.312 522.823,-252.767 532.456,-248.357 527.602,-243.312"/>
</g>
</g>
</svg>
