<?xml version="1.0" encoding="UTF-8" standalone="no"?>
<!DOCTYPE svg PUBLIC "-//W3C//DTD SVG 1.1//EN"
 "http://www.w3.org/Graphics/SVG/1.1/DTD/svg11.dtd">
<!-- Generated by graphviz version 2.36.0 (20140111.2315)
 -->
<!-- Title: Calc::Ema_u16 Pages: 1 -->
<svg width="114pt" height="216pt"
 viewBox="0.00 0.00 114.00 216.00" xmlns="http://www.w3.org/2000/svg" xmlns:xlink="http://www.w3.org/1999/xlink">
<g id="graph0" class="graph" transform="scale(1 1) rotate(0) translate(4 212)">
<title>Calc::Ema_u16</title>
<!-- Node1 -->
<g id="node1" class="node"><title>Node1</title>
<polygon fill="#bfbfbf" stroke="black" points="10.8154,-1 10.8154,-55 95.1846,-55 95.1846,-1 10.8154,-1"/>
<text text-anchor="middle" x="53" y="-43" font-family="Helvetica,sans-Serif" font-size="10.00">Calc::Ema_u16</text>
<polyline fill="none" stroke="black" points="10.8154,-37 95.1846,-37 "/>
<text text-anchor="middle" x="53" y="-25" font-family="Helvetica,sans-Serif" font-size="10.00"> </text>
<polyline fill="none" stroke="black" points="10.8154,-19 95.1846,-19 "/>
<text text-anchor="start" x="18.8154" y="-7" font-family="Helvetica,sans-Serif" font-size="10.00">+ Ema_u16()</text>
</g>
<!-- Node2 -->
<g id="node2" class="node"><title>Node2</title>
<g id="a_node2"><a xlink:href="class_calc_1_1_ema.html" target="_top" xlink:title="{Calc::Ema\&lt; u8, u16,\l u32 \&gt;\n||+ Ema()\l+ calc()\l+ average()\l+ avg()\l+ set()\l+ small_max()\l}">
<polygon fill="none" stroke="black" points="-0.441895,-93 -0.441895,-207 106.442,-207 106.442,-93 -0.441895,-93"/>
<text text-anchor="start" x="7.55811" y="-195" font-family="Helvetica,sans-Serif" font-size="10.00">Calc::Ema&lt; u8, u16,</text>
<text text-anchor="middle" x="53" y="-185" font-family="Helvetica,sans-Serif" font-size="10.00"> u32 &gt;</text>
<polyline fill="none" stroke="black" points="-0.441895,-179 106.442,-179 "/>
<text text-anchor="middle" x="53" y="-167" font-family="Helvetica,sans-Serif" font-size="10.00"> </text>
<polyline fill="none" stroke="black" points="-0.441895,-161 106.442,-161 "/>
<text text-anchor="start" x="7.55811" y="-149" font-family="Helvetica,sans-Serif" font-size="10.00">+ Ema()</text>
<text text-anchor="start" x="7.55811" y="-139" font-family="Helvetica,sans-Serif" font-size="10.00">+ calc()</text>
<text text-anchor="start" x="7.55811" y="-129" font-family="Helvetica,sans-Serif" font-size="10.00">+ average()</text>
<text text-anchor="start" x="7.55811" y="-119" font-family="Helvetica,sans-Serif" font-size="10.00">+ avg()</text>
<text text-anchor="start" x="7.55811" y="-109" font-family="Helvetica,sans-Serif" font-size="10.00">+ set()</text>
<text text-anchor="start" x="7.55811" y="-99" font-family="Helvetica,sans-Serif" font-size="10.00">+ small_max()</text>
</a>
</g>
</g>
<!-- Node2&#45;&gt;Node1 -->
<g id="edge1" class="edge"><title>Node2&#45;&gt;Node1</title>
<path fill="none" stroke="midnightblue" d="M53,-82.6683C53,-72.92 53,-63.3972 53,-55.1446"/>
<polygon fill="none" stroke="midnightblue" points="49.5001,-82.8648 53,-92.8648 56.5001,-82.8648 49.5001,-82.8648"/>
</g>
</g>
</svg>
