<?xml version="1.0" encoding="UTF-8" standalone="no"?>
<!DOCTYPE svg PUBLIC "-//W3C//DTD SVG 1.1//EN"
 "http://www.w3.org/Graphics/SVG/1.1/DTD/svg11.dtd">
<!-- Generated by graphviz version 2.36.0 (20140111.2315)
 -->
<!-- Title: Data::StringName Pages: 1 -->
<svg width="132pt" height="256pt"
 viewBox="0.00 0.00 132.00 256.00" xmlns="http://www.w3.org/2000/svg" xmlns:xlink="http://www.w3.org/1999/xlink">
<g id="graph0" class="graph" transform="scale(1 1) rotate(0) translate(4 252)">
<title>Data::StringName</title>
<!-- Node1 -->
<g id="node1" class="node"><title>Node1</title>
<polygon fill="#bfbfbf" stroke="black" points="14.2612,-1 14.2612,-55 109.739,-55 109.739,-1 14.2612,-1"/>
<text text-anchor="middle" x="62" y="-43" font-family="Helvetica,sans-Serif" font-size="10.00">Data::StringName</text>
<polyline fill="none" stroke="black" points="14.2612,-37 109.739,-37 "/>
<text text-anchor="middle" x="62" y="-25" font-family="Helvetica,sans-Serif" font-size="10.00"> </text>
<polyline fill="none" stroke="black" points="14.2612,-19 109.739,-19 "/>
<text text-anchor="start" x="22.2612" y="-7" font-family="Helvetica,sans-Serif" font-size="10.00">+ StringName()</text>
</g>
<!-- Node2 -->
<g id="node2" class="node"><title>Node2</title>
<g id="a_node2"><a xlink:href="class_data_1_1_string.html" target="_top" xlink:title="String class. ">
<polygon fill="none" stroke="black" points="-0.0527344,-93 -0.0527344,-247 124.053,-247 124.053,-93 -0.0527344,-93"/>
<text text-anchor="middle" x="62" y="-235" font-family="Helvetica,sans-Serif" font-size="10.00">Data::String</text>
<polyline fill="none" stroke="black" points="-0.0527344,-229 124.053,-229 "/>
<text text-anchor="middle" x="62" y="-217" font-family="Helvetica,sans-Serif" font-size="10.00"> </text>
<polyline fill="none" stroke="black" points="-0.0527344,-211 124.053,-211 "/>
<text text-anchor="start" x="7.94727" y="-199" font-family="Helvetica,sans-Serif" font-size="10.00">+ String()</text>
<text text-anchor="start" x="7.94727" y="-189" font-family="Helvetica,sans-Serif" font-size="10.00">+ String()</text>
<text text-anchor="start" x="7.94727" y="-179" font-family="Helvetica,sans-Serif" font-size="10.00">+ String()</text>
<text text-anchor="start" x="7.94727" y="-169" font-family="Helvetica,sans-Serif" font-size="10.00">+ String()</text>
<text text-anchor="start" x="7.94727" y="-159" font-family="Helvetica,sans-Serif" font-size="10.00">+ operator const char *()</text>
<text text-anchor="start" x="7.94727" y="-149" font-family="Helvetica,sans-Serif" font-size="10.00">+ String()</text>
<text text-anchor="start" x="7.94727" y="-139" font-family="Helvetica,sans-Serif" font-size="10.00">+ set_capacity()</text>
<text text-anchor="start" x="7.94727" y="-129" font-family="Helvetica,sans-Serif" font-size="10.00">+ operator=()</text>
<text text-anchor="start" x="7.94727" y="-119" font-family="Helvetica,sans-Serif" font-size="10.00">+ operator&lt;&lt;()</text>
<text text-anchor="start" x="7.94727" y="-109" font-family="Helvetica,sans-Serif" font-size="10.00">+ operator&lt;&lt;()</text>
<text text-anchor="start" x="7.94727" y="-99" font-family="Helvetica,sans-Serif" font-size="10.00">and 41 more...</text>
</a>
</g>
</g>
<!-- Node2&#45;&gt;Node1 -->
<g id="edge1" class="edge"><title>Node2&#45;&gt;Node1</title>
<path fill="none" stroke="midnightblue" d="M62,-82.7484C62,-72.7652 62,-63.2489 62,-55.0739"/>
<polygon fill="none" stroke="midnightblue" points="58.5001,-82.8547 62,-92.8547 65.5001,-82.8547 58.5001,-82.8547"/>
</g>
</g>
</svg>
