<?xml version="1.0" encoding="UTF-8" standalone="no"?>
<!DOCTYPE svg PUBLIC "-//W3C//DTD SVG 1.1//EN"
 "http://www.w3.org/Graphics/SVG/1.1/DTD/svg11.dtd">
<!-- Generated by graphviz version 2.36.0 (20140111.2315)
 -->
<!-- Title: Pin Pages: 1 -->
<svg width="82pt" height="740pt"
 viewBox="0.00 0.00 82.00 740.00" xmlns="http://www.w3.org/2000/svg" xmlns:xlink="http://www.w3.org/1999/xlink">
<g id="graph0" class="graph" transform="scale(1 1) rotate(0) translate(4 736)">
<title>Pin</title>
<!-- Node1 -->
<g id="node1" class="node"><title>Node1</title>
<polygon fill="#bfbfbf" stroke="black" points="-0.460449,-1 -0.460449,-155 74.4604,-155 74.4604,-1 -0.460449,-1"/>
<text text-anchor="middle" x="37" y="-143" font-family="Helvetica,sans-Serif" font-size="10.00">Pin</text>
<polyline fill="none" stroke="black" points="-0.460449,-137 74.4604,-137 "/>
<text text-anchor="middle" x="37" y="-125" font-family="Helvetica,sans-Serif" font-size="10.00"> </text>
<polyline fill="none" stroke="black" points="-0.460449,-119 74.4604,-119 "/>
<text text-anchor="start" x="7.53955" y="-107" font-family="Helvetica,sans-Serif" font-size="10.00">+ Pin()</text>
<text text-anchor="start" x="7.53955" y="-97" font-family="Helvetica,sans-Serif" font-size="10.00">+ Pin()</text>
<text text-anchor="start" x="7.53955" y="-87" font-family="Helvetica,sans-Serif" font-size="10.00">+ init()</text>
<text text-anchor="start" x="7.53955" y="-77" font-family="Helvetica,sans-Serif" font-size="10.00">+ setattr()</text>
<text text-anchor="start" x="7.53955" y="-67" font-family="Helvetica,sans-Serif" font-size="10.00">+ setinput()</text>
<text text-anchor="start" x="7.53955" y="-57" font-family="Helvetica,sans-Serif" font-size="10.00">+ setoutput()</text>
<text text-anchor="start" x="7.53955" y="-47" font-family="Helvetica,sans-Serif" font-size="10.00">+ operator=()</text>
<text text-anchor="start" x="7.53955" y="-37" font-family="Helvetica,sans-Serif" font-size="10.00">+ get()</text>
<text text-anchor="start" x="7.53955" y="-27" font-family="Helvetica,sans-Serif" font-size="10.00">+ value()</text>
<text text-anchor="start" x="7.53955" y="-17" font-family="Helvetica,sans-Serif" font-size="10.00">+ isset()</text>
<text text-anchor="start" x="7.53955" y="-7" font-family="Helvetica,sans-Serif" font-size="10.00">and 8 more...</text>
</g>
<!-- Node2 -->
<g id="node2" class="node"><title>Node2</title>
<g id="a_node2"><a xlink:href="class_pio.html" target="_top" xlink:title="Pin Input/Output Class. ">
<polygon fill="none" stroke="black" points="0.789551,-193 0.789551,-387 73.2104,-387 73.2104,-193 0.789551,-193"/>
<text text-anchor="middle" x="37" y="-375" font-family="Helvetica,sans-Serif" font-size="10.00">Pio</text>
<polyline fill="none" stroke="black" points="0.789551,-369 73.2104,-369 "/>
<text text-anchor="middle" x="37" y="-357" font-family="Helvetica,sans-Serif" font-size="10.00"> </text>
<polyline fill="none" stroke="black" points="0.789551,-351 73.2104,-351 "/>
<text text-anchor="start" x="8.78955" y="-339" font-family="Helvetica,sans-Serif" font-size="10.00">+ Pio()</text>
<text text-anchor="start" x="8.78955" y="-329" font-family="Helvetica,sans-Serif" font-size="10.00">+ open()</text>
<text text-anchor="start" x="8.78955" y="-319" font-family="Helvetica,sans-Serif" font-size="10.00">+ getattr()</text>
<text text-anchor="start" x="8.78955" y="-309" font-family="Helvetica,sans-Serif" font-size="10.00">+ setattr()</text>
<text text-anchor="start" x="8.78955" y="-299" font-family="Helvetica,sans-Serif" font-size="10.00">+ setaction()</text>
<text text-anchor="start" x="8.78955" y="-289" font-family="Helvetica,sans-Serif" font-size="10.00">+ setmask()</text>
<text text-anchor="start" x="8.78955" y="-279" font-family="Helvetica,sans-Serif" font-size="10.00">+ clrmask()</text>
<text text-anchor="start" x="8.78955" y="-269" font-family="Helvetica,sans-Serif" font-size="10.00">+ get()</text>
<text text-anchor="start" x="8.78955" y="-259" font-family="Helvetica,sans-Serif" font-size="10.00">+ value()</text>
<text text-anchor="start" x="8.78955" y="-249" font-family="Helvetica,sans-Serif" font-size="10.00">+ set()</text>
<text text-anchor="start" x="8.78955" y="-239" font-family="Helvetica,sans-Serif" font-size="10.00">+ setattr()</text>
<text text-anchor="start" x="8.78955" y="-229" font-family="Helvetica,sans-Serif" font-size="10.00">+ init()</text>
<text text-anchor="start" x="8.78955" y="-219" font-family="Helvetica,sans-Serif" font-size="10.00">+ setoutput()</text>
<text text-anchor="start" x="8.78955" y="-209" font-family="Helvetica,sans-Serif" font-size="10.00">+ setinput()</text>
<text text-anchor="start" x="8.78955" y="-199" font-family="Helvetica,sans-Serif" font-size="10.00">+ getports()</text>
</a>
</g>
</g>
<!-- Node2&#45;&gt;Node1 -->
<g id="edge1" class="edge"><title>Node2&#45;&gt;Node1</title>
<path fill="none" stroke="midnightblue" d="M37,-182.819C37,-173.51 37,-164.214 37,-155.223"/>
<polygon fill="none" stroke="midnightblue" points="33.5001,-182.911 37,-192.911 40.5001,-182.911 33.5001,-182.911"/>
</g>
<!-- Node3 -->
<g id="node3" class="node"><title>Node3</title>
<g id="a_node3"><a xlink:href="class_periph.html" target="_top" xlink:title="Peripheral Class. ">
<polygon fill="none" stroke="black" points="-0.460449,-425 -0.460449,-599 74.4604,-599 74.4604,-425 -0.460449,-425"/>
<text text-anchor="middle" x="37" y="-587" font-family="Helvetica,sans-Serif" font-size="10.00">Periph</text>
<polyline fill="none" stroke="black" points="-0.460449,-581 74.4604,-581 "/>
<text text-anchor="start" x="7.53955" y="-569" font-family="Helvetica,sans-Serif" font-size="10.00"># port_</text>
<text text-anchor="start" x="7.53955" y="-559" font-family="Helvetica,sans-Serif" font-size="10.00"># fd</text>
<polyline fill="none" stroke="black" points="-0.460449,-553 74.4604,-553 "/>
<text text-anchor="start" x="7.53955" y="-541" font-family="Helvetica,sans-Serif" font-size="10.00">+ Periph()</text>
<text text-anchor="start" x="7.53955" y="-531" font-family="Helvetica,sans-Serif" font-size="10.00">+ open()</text>
<text text-anchor="start" x="7.53955" y="-521" font-family="Helvetica,sans-Serif" font-size="10.00">+ open()</text>
<text text-anchor="start" x="7.53955" y="-511" font-family="Helvetica,sans-Serif" font-size="10.00">+ setflags()</text>
<text text-anchor="start" x="7.53955" y="-501" font-family="Helvetica,sans-Serif" font-size="10.00">+ read()</text>
<text text-anchor="start" x="7.53955" y="-491" font-family="Helvetica,sans-Serif" font-size="10.00">+ read()</text>
<text text-anchor="start" x="7.53955" y="-481" font-family="Helvetica,sans-Serif" font-size="10.00">+ write()</text>
<text text-anchor="start" x="7.53955" y="-471" font-family="Helvetica,sans-Serif" font-size="10.00">+ readline()</text>
<text text-anchor="start" x="7.53955" y="-461" font-family="Helvetica,sans-Serif" font-size="10.00">+ write()</text>
<text text-anchor="start" x="7.53955" y="-451" font-family="Helvetica,sans-Serif" font-size="10.00">+ write()</text>
<text text-anchor="start" x="7.53955" y="-441" font-family="Helvetica,sans-Serif" font-size="10.00">and 7 more...</text>
<text text-anchor="start" x="7.53955" y="-431" font-family="Helvetica,sans-Serif" font-size="10.00"># _open()</text>
</a>
</g>
</g>
<!-- Node3&#45;&gt;Node2 -->
<g id="edge2" class="edge"><title>Node3&#45;&gt;Node2</title>
<path fill="none" stroke="midnightblue" d="M37,-414.732C37,-405.58 37,-396.298 37,-387.147"/>
<polygon fill="none" stroke="midnightblue" points="33.5001,-414.997 37,-424.997 40.5001,-414.997 33.5001,-414.997"/>
</g>
<!-- Node4 -->
<g id="node4" class="node"><title>Node4</title>
<g id="a_node4"><a xlink:href="class_phy.html" target="_top" xlink:title="Base Applib Class for Physical devices. ">
<polygon fill="none" stroke="black" points="12.4692,-637 12.4692,-731 61.5308,-731 61.5308,-637 12.4692,-637"/>
<text text-anchor="middle" x="37" y="-719" font-family="Helvetica,sans-Serif" font-size="10.00">Phy</text>
<polyline fill="none" stroke="black" points="12.4692,-713 61.5308,-713 "/>
<text text-anchor="middle" x="37" y="-701" font-family="Helvetica,sans-Serif" font-size="10.00"> </text>
<polyline fill="none" stroke="black" points="12.4692,-695 61.5308,-695 "/>
<text text-anchor="start" x="20.4692" y="-683" font-family="Helvetica,sans-Serif" font-size="10.00">+ Phy()</text>
<text text-anchor="start" x="20.4692" y="-673" font-family="Helvetica,sans-Serif" font-size="10.00">+ ioctl()</text>
<text text-anchor="start" x="20.4692" y="-663" font-family="Helvetica,sans-Serif" font-size="10.00">+ ioctl()</text>
<text text-anchor="start" x="20.4692" y="-653" font-family="Helvetica,sans-Serif" font-size="10.00">+ ioctl()</text>
<text text-anchor="start" x="20.4692" y="-643" font-family="Helvetica,sans-Serif" font-size="10.00">+ ioctl()</text>
</a>
</g>
</g>
<!-- Node4&#45;&gt;Node3 -->
<g id="edge3" class="edge"><title>Node4&#45;&gt;Node3</title>
<path fill="none" stroke="midnightblue" d="M37,-626.763C37,-617.836 37,-608.428 37,-599.004"/>
<polygon fill="none" stroke="midnightblue" points="33.5001,-626.996 37,-636.996 40.5001,-626.996 33.5001,-626.996"/>
</g>
</g>
</svg>
