<?xml version="1.0" encoding="UTF-8" standalone="no"?>
<!DOCTYPE svg PUBLIC "-//W3C//DTD SVG 1.1//EN"
 "http://www.w3.org/Graphics/SVG/1.1/DTD/svg11.dtd">
<!-- Generated by graphviz version 2.36.0 (20140111.2315)
 -->
<!-- Title: Dsp::Ema_i16 Pages: 1 -->
<svg width="108pt" height="216pt"
 viewBox="0.00 0.00 108.00 216.00" xmlns="http://www.w3.org/2000/svg" xmlns:xlink="http://www.w3.org/1999/xlink">
<g id="graph0" class="graph" transform="scale(1 1) rotate(0) translate(4 212)">
<title>Dsp::Ema_i16</title>
<!-- Node1 -->
<g id="node1" class="node"><title>Node1</title>
<polygon fill="#bfbfbf" stroke="black" points="10.5962,-1 10.5962,-55 89.4038,-55 89.4038,-1 10.5962,-1"/>
<text text-anchor="middle" x="50" y="-43" font-family="Helvetica,sans-Serif" font-size="10.00">Dsp::Ema_i16</text>
<polyline fill="none" stroke="black" points="10.5962,-37 89.4038,-37 "/>
<text text-anchor="middle" x="50" y="-25" font-family="Helvetica,sans-Serif" font-size="10.00"> </text>
<polyline fill="none" stroke="black" points="10.5962,-19 89.4038,-19 "/>
<text text-anchor="start" x="18.5962" y="-7" font-family="Helvetica,sans-Serif" font-size="10.00">+ Ema_i16()</text>
</g>
<!-- Node2 -->
<g id="node2" class="node"><title>Node2</title>
<g id="a_node2"><a xlink:href="class_dsp_1_1_ema.html" target="_top" xlink:title="{Dsp::Ema\&lt; uint8_t,\l int16_t, int32_t \&gt;\n||+ Ema()\l+ calc()\l+ avg()\l+ average()\l+ set()\l+ small_max()\l}">
<polygon fill="none" stroke="black" points="-0.661133,-93 -0.661133,-207 100.661,-207 100.661,-93 -0.661133,-93"/>
<text text-anchor="start" x="7.33887" y="-195" font-family="Helvetica,sans-Serif" font-size="10.00">Dsp::Ema&lt; uint8_t,</text>
<text text-anchor="middle" x="50" y="-185" font-family="Helvetica,sans-Serif" font-size="10.00"> int16_t, int32_t &gt;</text>
<polyline fill="none" stroke="black" points="-0.661133,-179 100.661,-179 "/>
<text text-anchor="middle" x="50" y="-167" font-family="Helvetica,sans-Serif" font-size="10.00"> </text>
<polyline fill="none" stroke="black" points="-0.661133,-161 100.661,-161 "/>
<text text-anchor="start" x="7.33887" y="-149" font-family="Helvetica,sans-Serif" font-size="10.00">+ Ema()</text>
<text text-anchor="start" x="7.33887" y="-139" font-family="Helvetica,sans-Serif" font-size="10.00">+ calc()</text>
<text text-anchor="start" x="7.33887" y="-129" font-family="Helvetica,sans-Serif" font-size="10.00">+ avg()</text>
<text text-anchor="start" x="7.33887" y="-119" font-family="Helvetica,sans-Serif" font-size="10.00">+ average()</text>
<text text-anchor="start" x="7.33887" y="-109" font-family="Helvetica,sans-Serif" font-size="10.00">+ set()</text>
<text text-anchor="start" x="7.33887" y="-99" font-family="Helvetica,sans-Serif" font-size="10.00">+ small_max()</text>
</a>
</g>
</g>
<!-- Node2&#45;&gt;Node1 -->
<g id="edge1" class="edge"><title>Node2&#45;&gt;Node1</title>
<path fill="none" stroke="midnightblue" d="M50,-82.6683C50,-72.92 50,-63.3972 50,-55.1446"/>
<polygon fill="none" stroke="midnightblue" points="46.5001,-82.8648 50,-92.8648 53.5001,-82.8648 46.5001,-82.8648"/>
</g>
</g>
</svg>
