<?xml version="1.0" encoding="UTF-8" standalone="no"?>
<!DOCTYPE svg PUBLIC "-//W3C//DTD SVG 1.1//EN"
 "http://www.w3.org/Graphics/SVG/1.1/DTD/svg11.dtd">
<!-- Generated by graphviz version 2.36.0 (20140111.2315)
 -->
<!-- Title: Fmt::Wav Pages: 1 -->
<svg width="108pt" height="508pt"
 viewBox="0.00 0.00 108.00 508.00" xmlns="http://www.w3.org/2000/svg" xmlns:xlink="http://www.w3.org/1999/xlink">
<g id="graph0" class="graph" transform="scale(1 1) rotate(0) translate(4 504)">
<title>Fmt::Wav</title>
<!-- Node1 -->
<g id="node1" class="node"><title>Node1</title>
<polygon fill="#bfbfbf" stroke="black" points="6.84619,-1 6.84619,-135 93.1538,-135 93.1538,-1 6.84619,-1"/>
<text text-anchor="middle" x="50" y="-123" font-family="Helvetica,sans-Serif" font-size="10.00">Fmt::Wav</text>
<polyline fill="none" stroke="black" points="6.84619,-117 93.1538,-117 "/>
<text text-anchor="middle" x="50" y="-105" font-family="Helvetica,sans-Serif" font-size="10.00"> </text>
<polyline fill="none" stroke="black" points="6.84619,-99 93.1538,-99 "/>
<text text-anchor="start" x="14.8462" y="-87" font-family="Helvetica,sans-Serif" font-size="10.00">+ Wav()</text>
<text text-anchor="start" x="14.8462" y="-77" font-family="Helvetica,sans-Serif" font-size="10.00">+ size()</text>
<text text-anchor="start" x="14.8462" y="-67" font-family="Helvetica,sans-Serif" font-size="10.00">+ wav_size()</text>
<text text-anchor="start" x="14.8462" y="-57" font-family="Helvetica,sans-Serif" font-size="10.00">+ wav_fmt()</text>
<text text-anchor="start" x="14.8462" y="-47" font-family="Helvetica,sans-Serif" font-size="10.00">+ channels()</text>
<text text-anchor="start" x="14.8462" y="-37" font-family="Helvetica,sans-Serif" font-size="10.00">+ sample_rate()</text>
<text text-anchor="start" x="14.8462" y="-27" font-family="Helvetica,sans-Serif" font-size="10.00">+ bytes_sec()</text>
<text text-anchor="start" x="14.8462" y="-17" font-family="Helvetica,sans-Serif" font-size="10.00">+ bits_sample()</text>
<text text-anchor="start" x="14.8462" y="-7" font-family="Helvetica,sans-Serif" font-size="10.00">+ data_size()</text>
</g>
<!-- Node2 -->
<g id="node2" class="node"><title>Node2</title>
<g id="a_node2"><a xlink:href="class_sys_1_1_file.html" target="_top" xlink:title="File Class. ">
<polygon fill="none" stroke="black" points="-0.106934,-173 -0.106934,-367 100.107,-367 100.107,-173 -0.106934,-173"/>
<text text-anchor="middle" x="50" y="-355" font-family="Helvetica,sans-Serif" font-size="10.00">Sys::File</text>
<polyline fill="none" stroke="black" points="-0.106934,-349 100.107,-349 "/>
<text text-anchor="middle" x="50" y="-337" font-family="Helvetica,sans-Serif" font-size="10.00"> </text>
<polyline fill="none" stroke="black" points="-0.106934,-331 100.107,-331 "/>
<text text-anchor="start" x="7.89307" y="-319" font-family="Helvetica,sans-Serif" font-size="10.00">+ File()</text>
<text text-anchor="start" x="7.89307" y="-309" font-family="Helvetica,sans-Serif" font-size="10.00">+ open()</text>
<text text-anchor="start" x="7.89307" y="-299" font-family="Helvetica,sans-Serif" font-size="10.00">+ open_readwrite()</text>
<text text-anchor="start" x="7.89307" y="-289" font-family="Helvetica,sans-Serif" font-size="10.00">+ open_readonly()</text>
<text text-anchor="start" x="7.89307" y="-279" font-family="Helvetica,sans-Serif" font-size="10.00">+ open_append()</text>
<text text-anchor="start" x="7.89307" y="-269" font-family="Helvetica,sans-Serif" font-size="10.00">+ create()</text>
<text text-anchor="start" x="7.89307" y="-259" font-family="Helvetica,sans-Serif" font-size="10.00">+ read()</text>
<text text-anchor="start" x="7.89307" y="-249" font-family="Helvetica,sans-Serif" font-size="10.00">+ read()</text>
<text text-anchor="start" x="7.89307" y="-239" font-family="Helvetica,sans-Serif" font-size="10.00">+ write()</text>
<text text-anchor="start" x="7.89307" y="-229" font-family="Helvetica,sans-Serif" font-size="10.00">+ write()</text>
<text text-anchor="start" x="7.89307" y="-219" font-family="Helvetica,sans-Serif" font-size="10.00">and 12 more...</text>
<text text-anchor="start" x="7.89307" y="-209" font-family="Helvetica,sans-Serif" font-size="10.00">+ remove()</text>
<text text-anchor="start" x="7.89307" y="-199" font-family="Helvetica,sans-Serif" font-size="10.00">+ stat()</text>
<text text-anchor="start" x="7.89307" y="-189" font-family="Helvetica,sans-Serif" font-size="10.00">+ size()</text>
<text text-anchor="start" x="7.89307" y="-179" font-family="Helvetica,sans-Serif" font-size="10.00">+ name()</text>
</a>
</g>
</g>
<!-- Node2&#45;&gt;Node1 -->
<g id="edge1" class="edge"><title>Node2&#45;&gt;Node1</title>
<path fill="none" stroke="midnightblue" d="M50,-162.678C50,-153.356 50,-144.107 50,-135.257"/>
<polygon fill="none" stroke="midnightblue" points="46.5001,-162.808 50,-172.808 53.5001,-162.808 46.5001,-162.808"/>
</g>
<!-- Node3 -->
<g id="node3" class="node"><title>Node3</title>
<g id="a_node3"><a xlink:href="class_hal_1_1_phy.html" target="_top" xlink:title="Base Applib Class for Physical devices. ">
<polygon fill="none" stroke="black" points="23.1035,-405 23.1035,-499 76.8965,-499 76.8965,-405 23.1035,-405"/>
<text text-anchor="middle" x="50" y="-487" font-family="Helvetica,sans-Serif" font-size="10.00">Hal::Phy</text>
<polyline fill="none" stroke="black" points="23.1035,-481 76.8965,-481 "/>
<text text-anchor="middle" x="50" y="-469" font-family="Helvetica,sans-Serif" font-size="10.00"> </text>
<polyline fill="none" stroke="black" points="23.1035,-463 76.8965,-463 "/>
<text text-anchor="start" x="31.1035" y="-451" font-family="Helvetica,sans-Serif" font-size="10.00">+ Phy()</text>
<text text-anchor="start" x="31.1035" y="-441" font-family="Helvetica,sans-Serif" font-size="10.00">+ ioctl()</text>
<text text-anchor="start" x="31.1035" y="-431" font-family="Helvetica,sans-Serif" font-size="10.00">+ ioctl()</text>
<text text-anchor="start" x="31.1035" y="-421" font-family="Helvetica,sans-Serif" font-size="10.00">+ ioctl()</text>
<text text-anchor="start" x="31.1035" y="-411" font-family="Helvetica,sans-Serif" font-size="10.00">+ ioctl()</text>
</a>
</g>
</g>
<!-- Node3&#45;&gt;Node2 -->
<g id="edge2" class="edge"><title>Node3&#45;&gt;Node2</title>
<path fill="none" stroke="midnightblue" d="M50,-394.613C50,-385.852 50,-376.595 50,-367.247"/>
<polygon fill="none" stroke="midnightblue" points="46.5001,-394.645 50,-404.646 53.5001,-394.646 46.5001,-394.645"/>
</g>
</g>
</svg>
