<?xml version="1.0" encoding="UTF-8" standalone="no"?>
<!DOCTYPE svg PUBLIC "-//W3C//DTD SVG 1.1//EN"
 "http://www.w3.org/Graphics/SVG/1.1/DTD/svg11.dtd">
<!-- Generated by graphviz version 2.36.0 (20140111.2315)
 -->
<!-- Title: StringPath Pages: 1 -->
<svg width="132pt" height="286pt"
 viewBox="0.00 0.00 132.00 286.00" xmlns="http://www.w3.org/2000/svg" xmlns:xlink="http://www.w3.org/1999/xlink">
<g id="graph0" class="graph" transform="scale(1 1) rotate(0) translate(4 282)">
<title>StringPath</title>
<!-- Node1 -->
<g id="node1" class="node"><title>Node1</title>
<polygon fill="#bfbfbf" stroke="black" points="22.4644,-1 22.4644,-85 101.536,-85 101.536,-1 22.4644,-1"/>
<text text-anchor="middle" x="62" y="-73" font-family="Helvetica,sans-Serif" font-size="10.00">StringPath</text>
<polyline fill="none" stroke="black" points="22.4644,-67 101.536,-67 "/>
<text text-anchor="middle" x="62" y="-55" font-family="Helvetica,sans-Serif" font-size="10.00"> </text>
<polyline fill="none" stroke="black" points="22.4644,-49 101.536,-49 "/>
<text text-anchor="start" x="30.4644" y="-37" font-family="Helvetica,sans-Serif" font-size="10.00">+ StringPath()</text>
<text text-anchor="start" x="30.4644" y="-27" font-family="Helvetica,sans-Serif" font-size="10.00">+ strip_suffix()</text>
<text text-anchor="start" x="30.4644" y="-17" font-family="Helvetica,sans-Serif" font-size="10.00">+ file_name()</text>
<text text-anchor="start" x="30.4644" y="-7" font-family="Helvetica,sans-Serif" font-size="10.00">+ filename()</text>
</g>
<!-- Node2 -->
<g id="node2" class="node"><title>Node2</title>
<g id="a_node2"><a xlink:href="class_string.html" target="_top" xlink:title="String class. ">
<polygon fill="none" stroke="black" points="-0.0527344,-123 -0.0527344,-277 124.053,-277 124.053,-123 -0.0527344,-123"/>
<text text-anchor="middle" x="62" y="-265" font-family="Helvetica,sans-Serif" font-size="10.00">String</text>
<polyline fill="none" stroke="black" points="-0.0527344,-259 124.053,-259 "/>
<text text-anchor="middle" x="62" y="-247" font-family="Helvetica,sans-Serif" font-size="10.00"> </text>
<polyline fill="none" stroke="black" points="-0.0527344,-241 124.053,-241 "/>
<text text-anchor="start" x="7.94727" y="-229" font-family="Helvetica,sans-Serif" font-size="10.00">+ String()</text>
<text text-anchor="start" x="7.94727" y="-219" font-family="Helvetica,sans-Serif" font-size="10.00">+ String()</text>
<text text-anchor="start" x="7.94727" y="-209" font-family="Helvetica,sans-Serif" font-size="10.00">+ String()</text>
<text text-anchor="start" x="7.94727" y="-199" font-family="Helvetica,sans-Serif" font-size="10.00">+ String()</text>
<text text-anchor="start" x="7.94727" y="-189" font-family="Helvetica,sans-Serif" font-size="10.00">+ operator const char *()</text>
<text text-anchor="start" x="7.94727" y="-179" font-family="Helvetica,sans-Serif" font-size="10.00">+ String()</text>
<text text-anchor="start" x="7.94727" y="-169" font-family="Helvetica,sans-Serif" font-size="10.00">+ set_capacity()</text>
<text text-anchor="start" x="7.94727" y="-159" font-family="Helvetica,sans-Serif" font-size="10.00">+ operator=()</text>
<text text-anchor="start" x="7.94727" y="-149" font-family="Helvetica,sans-Serif" font-size="10.00">+ operator&lt;&lt;()</text>
<text text-anchor="start" x="7.94727" y="-139" font-family="Helvetica,sans-Serif" font-size="10.00">+ operator&lt;&lt;()</text>
<text text-anchor="start" x="7.94727" y="-129" font-family="Helvetica,sans-Serif" font-size="10.00">and 41 more...</text>
</a>
</g>
</g>
<!-- Node2&#45;&gt;Node1 -->
<g id="edge1" class="edge"><title>Node2&#45;&gt;Node1</title>
<path fill="none" stroke="midnightblue" d="M62,-112.811C62,-103.204 62,-93.7774 62,-85.1318"/>
<polygon fill="none" stroke="midnightblue" points="58.5001,-112.862 62,-122.862 65.5001,-112.862 58.5001,-112.862"/>
</g>
</g>
</svg>
