<?xml version="1.0" encoding="UTF-8" standalone="no"?>
<!DOCTYPE svg PUBLIC "-//W3C//DTD SVG 1.1//EN"
 "http://www.w3.org/Graphics/SVG/1.1/DTD/svg11.dtd">
<!-- Generated by graphviz version 2.36.0 (20140111.2315)
 -->
<!-- Title: Hal::Dac Pages: 1 -->
<svg width="82pt" height="580pt"
 viewBox="0.00 0.00 82.00 580.00" xmlns="http://www.w3.org/2000/svg" xmlns:xlink="http://www.w3.org/1999/xlink">
<g id="graph0" class="graph" transform="scale(1 1) rotate(0) translate(4 576)">
<title>Hal::Dac</title>
<!-- Node1 -->
<g id="node1" class="node"><title>Node1</title>
<polygon fill="#bfbfbf" stroke="black" points="7.4668,-1 7.4668,-135 66.5332,-135 66.5332,-1 7.4668,-1"/>
<text text-anchor="middle" x="37" y="-123" font-family="Helvetica,sans-Serif" font-size="10.00">Hal::Dac</text>
<polyline fill="none" stroke="black" points="7.4668,-117 66.5332,-117 "/>
<text text-anchor="middle" x="37" y="-105" font-family="Helvetica,sans-Serif" font-size="10.00"> </text>
<polyline fill="none" stroke="black" points="7.4668,-99 66.5332,-99 "/>
<text text-anchor="start" x="15.4668" y="-87" font-family="Helvetica,sans-Serif" font-size="10.00">+ Dac()</text>
<text text-anchor="start" x="15.4668" y="-77" font-family="Helvetica,sans-Serif" font-size="10.00">+ open()</text>
<text text-anchor="start" x="15.4668" y="-67" font-family="Helvetica,sans-Serif" font-size="10.00">+ attr()</text>
<text text-anchor="start" x="15.4668" y="-57" font-family="Helvetica,sans-Serif" font-size="10.00">+ setattr()</text>
<text text-anchor="start" x="15.4668" y="-47" font-family="Helvetica,sans-Serif" font-size="10.00">+ value()</text>
<text text-anchor="start" x="15.4668" y="-37" font-family="Helvetica,sans-Serif" font-size="10.00">+ get()</text>
<text text-anchor="start" x="15.4668" y="-27" font-family="Helvetica,sans-Serif" font-size="10.00">+ setattr()</text>
<text text-anchor="start" x="15.4668" y="-17" font-family="Helvetica,sans-Serif" font-size="10.00">+ init()</text>
<text text-anchor="start" x="15.4668" y="-7" font-family="Helvetica,sans-Serif" font-size="10.00">+ set()</text>
</g>
<!-- Node2 -->
<g id="node2" class="node"><title>Node2</title>
<g id="a_node2"><a xlink:href="class_hal_1_1_pblock.html" target="_top" xlink:title="Peripheral Block Class. ">
<polygon fill="none" stroke="black" points="3.71191,-173 3.71191,-227 70.2881,-227 70.2881,-173 3.71191,-173"/>
<text text-anchor="middle" x="37" y="-215" font-family="Helvetica,sans-Serif" font-size="10.00">Hal::Pblock</text>
<polyline fill="none" stroke="black" points="3.71191,-209 70.2881,-209 "/>
<text text-anchor="middle" x="37" y="-197" font-family="Helvetica,sans-Serif" font-size="10.00"> </text>
<polyline fill="none" stroke="black" points="3.71191,-191 70.2881,-191 "/>
<text text-anchor="start" x="11.7119" y="-179" font-family="Helvetica,sans-Serif" font-size="10.00">+ Pblock()</text>
</a>
</g>
</g>
<!-- Node2&#45;&gt;Node1 -->
<g id="edge1" class="edge"><title>Node2&#45;&gt;Node1</title>
<path fill="none" stroke="midnightblue" d="M37,-162.644C37,-154.02 37,-144.555 37,-135.059"/>
<polygon fill="none" stroke="midnightblue" points="33.5001,-162.693 37,-172.693 40.5001,-162.693 33.5001,-162.693"/>
</g>
<!-- Node3 -->
<g id="node3" class="node"><title>Node3</title>
<g id="a_node3"><a xlink:href="class_hal_1_1_periph.html" target="_top" xlink:title="Peripheral Class. ">
<polygon fill="none" stroke="black" points="-0.460449,-265 -0.460449,-439 74.4604,-439 74.4604,-265 -0.460449,-265"/>
<text text-anchor="middle" x="37" y="-427" font-family="Helvetica,sans-Serif" font-size="10.00">Hal::Periph</text>
<polyline fill="none" stroke="black" points="-0.460449,-421 74.4604,-421 "/>
<text text-anchor="start" x="7.53955" y="-409" font-family="Helvetica,sans-Serif" font-size="10.00"># port_</text>
<text text-anchor="start" x="7.53955" y="-399" font-family="Helvetica,sans-Serif" font-size="10.00"># fd</text>
<polyline fill="none" stroke="black" points="-0.460449,-393 74.4604,-393 "/>
<text text-anchor="start" x="7.53955" y="-381" font-family="Helvetica,sans-Serif" font-size="10.00">+ Periph()</text>
<text text-anchor="start" x="7.53955" y="-371" font-family="Helvetica,sans-Serif" font-size="10.00">+ open()</text>
<text text-anchor="start" x="7.53955" y="-361" font-family="Helvetica,sans-Serif" font-size="10.00">+ open()</text>
<text text-anchor="start" x="7.53955" y="-351" font-family="Helvetica,sans-Serif" font-size="10.00">+ setflags()</text>
<text text-anchor="start" x="7.53955" y="-341" font-family="Helvetica,sans-Serif" font-size="10.00">+ read()</text>
<text text-anchor="start" x="7.53955" y="-331" font-family="Helvetica,sans-Serif" font-size="10.00">+ read()</text>
<text text-anchor="start" x="7.53955" y="-321" font-family="Helvetica,sans-Serif" font-size="10.00">+ write()</text>
<text text-anchor="start" x="7.53955" y="-311" font-family="Helvetica,sans-Serif" font-size="10.00">+ readline()</text>
<text text-anchor="start" x="7.53955" y="-301" font-family="Helvetica,sans-Serif" font-size="10.00">+ write()</text>
<text text-anchor="start" x="7.53955" y="-291" font-family="Helvetica,sans-Serif" font-size="10.00">+ write()</text>
<text text-anchor="start" x="7.53955" y="-281" font-family="Helvetica,sans-Serif" font-size="10.00">and 7 more...</text>
<text text-anchor="start" x="7.53955" y="-271" font-family="Helvetica,sans-Serif" font-size="10.00"># _open()</text>
</a>
</g>
</g>
<!-- Node3&#45;&gt;Node2 -->
<g id="edge2" class="edge"><title>Node3&#45;&gt;Node2</title>
<path fill="none" stroke="midnightblue" d="M37,-254.483C37,-244.507 37,-235.087 37,-227.013"/>
<polygon fill="none" stroke="midnightblue" points="33.5001,-254.613 37,-264.614 40.5001,-254.614 33.5001,-254.613"/>
</g>
<!-- Node4 -->
<g id="node4" class="node"><title>Node4</title>
<g id="a_node4"><a xlink:href="class_hal_1_1_phy.html" target="_top" xlink:title="Base Applib Class for Physical devices. ">
<polygon fill="none" stroke="black" points="10.1035,-477 10.1035,-571 63.8965,-571 63.8965,-477 10.1035,-477"/>
<text text-anchor="middle" x="37" y="-559" font-family="Helvetica,sans-Serif" font-size="10.00">Hal::Phy</text>
<polyline fill="none" stroke="black" points="10.1035,-553 63.8965,-553 "/>
<text text-anchor="middle" x="37" y="-541" font-family="Helvetica,sans-Serif" font-size="10.00"> </text>
<polyline fill="none" stroke="black" points="10.1035,-535 63.8965,-535 "/>
<text text-anchor="start" x="18.1035" y="-523" font-family="Helvetica,sans-Serif" font-size="10.00">+ Phy()</text>
<text text-anchor="start" x="18.1035" y="-513" font-family="Helvetica,sans-Serif" font-size="10.00">+ ioctl()</text>
<text text-anchor="start" x="18.1035" y="-503" font-family="Helvetica,sans-Serif" font-size="10.00">+ ioctl()</text>
<text text-anchor="start" x="18.1035" y="-493" font-family="Helvetica,sans-Serif" font-size="10.00">+ ioctl()</text>
<text text-anchor="start" x="18.1035" y="-483" font-family="Helvetica,sans-Serif" font-size="10.00">+ ioctl()</text>
</a>
</g>
</g>
<!-- Node4&#45;&gt;Node3 -->
<g id="edge3" class="edge"><title>Node4&#45;&gt;Node3</title>
<path fill="none" stroke="midnightblue" d="M37,-466.763C37,-457.836 37,-448.428 37,-439.004"/>
<polygon fill="none" stroke="midnightblue" points="33.5001,-466.996 37,-476.996 40.5001,-466.996 33.5001,-466.996"/>
</g>
</g>
</svg>
