<?xml version="1.0" encoding="UTF-8" standalone="no"?>
<!DOCTYPE svg PUBLIC "-//W3C//DTD SVG 1.1//EN"
 "http://www.w3.org/Graphics/SVG/1.1/DTD/svg11.dtd">
<!-- Generated by graphviz version 2.36.0 (20140111.2315)
 -->
<!-- Title: Font Pages: 1 -->
<svg width="110pt" height="600pt"
 viewBox="0.00 0.00 110.00 600.00" xmlns="http://www.w3.org/2000/svg" xmlns:xlink="http://www.w3.org/1999/xlink">
<g id="graph0" class="graph" transform="scale(1 1) rotate(0) translate(4 596)">
<title>Font</title>
<!-- Node1 -->
<g id="node1" class="node"><title>Node1</title>
<polygon fill="#bfbfbf" stroke="black" points="12.1528,-497 12.1528,-591 89.8472,-591 89.8472,-497 12.1528,-497"/>
<text text-anchor="middle" x="51" y="-579" font-family="Helvetica,sans-Serif" font-size="10.00">Font</text>
<polyline fill="none" stroke="black" points="12.1528,-573 89.8472,-573 "/>
<text text-anchor="middle" x="51" y="-561" font-family="Helvetica,sans-Serif" font-size="10.00"> </text>
<polyline fill="none" stroke="black" points="12.1528,-555 89.8472,-555 "/>
<text text-anchor="start" x="20.1528" y="-543" font-family="Helvetica,sans-Serif" font-size="10.00">+ Font()</text>
<text text-anchor="start" x="20.1528" y="-533" font-family="Helvetica,sans-Serif" font-size="10.00">+ len()</text>
<text text-anchor="start" x="20.1528" y="-523" font-family="Helvetica,sans-Serif" font-size="10.00">+ size()</text>
<text text-anchor="start" x="20.1528" y="-513" font-family="Helvetica,sans-Serif" font-size="10.00">+ charset()</text>
<text text-anchor="start" x="20.1528" y="-503" font-family="Helvetica,sans-Serif" font-size="10.00"># to_charset()</text>
</g>
<!-- Node2 -->
<g id="node2" class="node"><title>Node2</title>
<g id="a_node2"><a xlink:href="class_m_font.html" target="_top" xlink:title="Monochrome Font. ">
<polygon fill="none" stroke="black" points="21.1909,-385 21.1909,-459 80.8091,-459 80.8091,-385 21.1909,-385"/>
<text text-anchor="middle" x="51" y="-447" font-family="Helvetica,sans-Serif" font-size="10.00">MFont</text>
<polyline fill="none" stroke="black" points="21.1909,-441 80.8091,-441 "/>
<text text-anchor="middle" x="51" y="-429" font-family="Helvetica,sans-Serif" font-size="10.00"> </text>
<polyline fill="none" stroke="black" points="21.1909,-423 80.8091,-423 "/>
<text text-anchor="start" x="29.1909" y="-411" font-family="Helvetica,sans-Serif" font-size="10.00">+ MFont()</text>
<text text-anchor="start" x="29.1909" y="-401" font-family="Helvetica,sans-Serif" font-size="10.00">+ len()</text>
<text text-anchor="start" x="29.1909" y="-391" font-family="Helvetica,sans-Serif" font-size="10.00">+ size()</text>
</a>
</g>
</g>
<!-- Node1&#45;&gt;Node2 -->
<g id="edge1" class="edge"><title>Node1&#45;&gt;Node2</title>
<path fill="none" stroke="midnightblue" d="M51,-486.803C51,-477.366 51,-467.804 51,-459.055"/>
<polygon fill="none" stroke="midnightblue" points="47.5001,-486.948 51,-496.948 54.5001,-486.948 47.5001,-486.948"/>
</g>
<!-- Node3 -->
<g id="node3" class="node"><title>Node3</title>
<g id="a_node3"><a xlink:href="class_m_b_font.html" target="_top" xlink:title="Monochrome Bitmap Font class. ">
<polygon fill="none" stroke="black" points="-0.769531,-133 -0.769531,-347 102.77,-347 102.77,-133 -0.769531,-133"/>
<text text-anchor="middle" x="51" y="-335" font-family="Helvetica,sans-Serif" font-size="10.00">MBFont</text>
<polyline fill="none" stroke="black" points="-0.769531,-329 102.77,-329 "/>
<text text-anchor="start" x="7.23047" y="-317" font-family="Helvetica,sans-Serif" font-size="10.00"># bitmap_</text>
<text text-anchor="start" x="7.23047" y="-307" font-family="Helvetica,sans-Serif" font-size="10.00"># max_byte_width_</text>
<text text-anchor="start" x="7.23047" y="-297" font-family="Helvetica,sans-Serif" font-size="10.00"># max_height_</text>
<text text-anchor="start" x="7.23047" y="-287" font-family="Helvetica,sans-Serif" font-size="10.00"># size_</text>
<text text-anchor="start" x="7.23047" y="-277" font-family="Helvetica,sans-Serif" font-size="10.00"># offset_</text>
<polyline fill="none" stroke="black" points="-0.769531,-271 102.77,-271 "/>
<text text-anchor="start" x="7.23047" y="-259" font-family="Helvetica,sans-Serif" font-size="10.00">+ MBFont()</text>
<text text-anchor="start" x="7.23047" y="-249" font-family="Helvetica,sans-Serif" font-size="10.00">+ MBFont()</text>
<text text-anchor="start" x="7.23047" y="-239" font-family="Helvetica,sans-Serif" font-size="10.00">+ ~MBFont()</text>
<text text-anchor="start" x="7.23047" y="-229" font-family="Helvetica,sans-Serif" font-size="10.00">+ set_file()</text>
<text text-anchor="start" x="7.23047" y="-219" font-family="Helvetica,sans-Serif" font-size="10.00">+ max_byte_width()</text>
<text text-anchor="start" x="7.23047" y="-209" font-family="Helvetica,sans-Serif" font-size="10.00">+ max_height()</text>
<text text-anchor="start" x="7.23047" y="-199" font-family="Helvetica,sans-Serif" font-size="10.00">+ bitmap()</text>
<text text-anchor="start" x="7.23047" y="-189" font-family="Helvetica,sans-Serif" font-size="10.00">+ load()</text>
<text text-anchor="start" x="7.23047" y="-179" font-family="Helvetica,sans-Serif" font-size="10.00">+ load()</text>
<text text-anchor="start" x="7.23047" y="-169" font-family="Helvetica,sans-Serif" font-size="10.00">+ load()</text>
<text text-anchor="start" x="7.23047" y="-159" font-family="Helvetica,sans-Serif" font-size="10.00">and 13 more...</text>
<text text-anchor="start" x="7.23047" y="-149" font-family="Helvetica,sans-Serif" font-size="10.00"># load_char()</text>
<text text-anchor="start" x="7.23047" y="-139" font-family="Helvetica,sans-Serif" font-size="10.00"># load_bitmap()</text>
</a>
</g>
</g>
<!-- Node2&#45;&gt;Node3 -->
<g id="edge2" class="edge"><title>Node2&#45;&gt;Node3</title>
<path fill="none" stroke="midnightblue" d="M51,-374.458C51,-365.857 51,-356.559 51,-347.012"/>
<polygon fill="none" stroke="midnightblue" points="47.5001,-374.574 51,-384.574 54.5001,-374.574 47.5001,-374.574"/>
</g>
<!-- Node4 -->
<g id="node4" class="node"><title>Node4</title>
<g id="a_node4"><a xlink:href="class_font8.html" target="_top" xlink:title="Bitmap Fonts (used with LCDs) ">
<polygon fill="none" stroke="black" points="20.3535,-1 20.3535,-95 81.6465,-95 81.6465,-1 20.3535,-1"/>
<text text-anchor="middle" x="51" y="-83" font-family="Helvetica,sans-Serif" font-size="10.00">Font8</text>
<polyline fill="none" stroke="black" points="20.3535,-77 81.6465,-77 "/>
<text text-anchor="middle" x="51" y="-65" font-family="Helvetica,sans-Serif" font-size="10.00"> </text>
<polyline fill="none" stroke="black" points="20.3535,-59 81.6465,-59 "/>
<text text-anchor="start" x="28.3535" y="-47" font-family="Helvetica,sans-Serif" font-size="10.00">+ Font8()</text>
<text text-anchor="start" x="28.3535" y="-37" font-family="Helvetica,sans-Serif" font-size="10.00">+ load()</text>
<text text-anchor="start" x="28.3535" y="-27" font-family="Helvetica,sans-Serif" font-size="10.00">+ bitmap()</text>
<text text-anchor="start" x="28.3535" y="-17" font-family="Helvetica,sans-Serif" font-size="10.00">+ height()</text>
<text text-anchor="start" x="28.3535" y="-7" font-family="Helvetica,sans-Serif" font-size="10.00">+ width()</text>
</a>
</g>
</g>
<!-- Node3&#45;&gt;Node4 -->
<g id="edge3" class="edge"><title>Node3&#45;&gt;Node4</title>
<path fill="none" stroke="midnightblue" d="M51,-122.71C51,-113.032 51,-103.665 51,-95.0392"/>
<polygon fill="none" stroke="midnightblue" points="47.5001,-122.89 51,-132.89 54.5001,-122.89 47.5001,-122.89"/>
</g>
</g>
</svg>
