<?xml version="1.0" encoding="UTF-8" standalone="no"?>
<!DOCTYPE svg PUBLIC "-//W3C//DTD SVG 1.1//EN"
 "http://www.w3.org/Graphics/SVG/1.1/DTD/svg11.dtd">
<!-- Generated by graphviz version 2.36.0 (20140111.2315)
 -->
<!-- Title: Data::String Pages: 1 -->
<svg width="876pt" height="458pt"
 viewBox="0.00 0.00 876.00 458.00" xmlns="http://www.w3.org/2000/svg" xmlns:xlink="http://www.w3.org/1999/xlink">
<g id="graph0" class="graph" transform="scale(1 1) rotate(0) translate(4 454)">
<title>Data::String</title>
<!-- Node1 -->
<g id="node1" class="node"><title>Node1</title>
<polygon fill="#bfbfbf" stroke="black" points="361.947,-295 361.947,-449 486.053,-449 486.053,-295 361.947,-295"/>
<text text-anchor="middle" x="424" y="-437" font-family="Helvetica,sans-Serif" font-size="10.00">Data::String</text>
<polyline fill="none" stroke="black" points="361.947,-431 486.053,-431 "/>
<text text-anchor="middle" x="424" y="-419" font-family="Helvetica,sans-Serif" font-size="10.00"> </text>
<polyline fill="none" stroke="black" points="361.947,-413 486.053,-413 "/>
<text text-anchor="start" x="369.947" y="-401" font-family="Helvetica,sans-Serif" font-size="10.00">+ String()</text>
<text text-anchor="start" x="369.947" y="-391" font-family="Helvetica,sans-Serif" font-size="10.00">+ String()</text>
<text text-anchor="start" x="369.947" y="-381" font-family="Helvetica,sans-Serif" font-size="10.00">+ String()</text>
<text text-anchor="start" x="369.947" y="-371" font-family="Helvetica,sans-Serif" font-size="10.00">+ String()</text>
<text text-anchor="start" x="369.947" y="-361" font-family="Helvetica,sans-Serif" font-size="10.00">+ operator const char *()</text>
<text text-anchor="start" x="369.947" y="-351" font-family="Helvetica,sans-Serif" font-size="10.00">+ String()</text>
<text text-anchor="start" x="369.947" y="-341" font-family="Helvetica,sans-Serif" font-size="10.00">+ set_capacity()</text>
<text text-anchor="start" x="369.947" y="-331" font-family="Helvetica,sans-Serif" font-size="10.00">+ operator=()</text>
<text text-anchor="start" x="369.947" y="-321" font-family="Helvetica,sans-Serif" font-size="10.00">+ operator&lt;&lt;()</text>
<text text-anchor="start" x="369.947" y="-311" font-family="Helvetica,sans-Serif" font-size="10.00">+ operator&lt;&lt;()</text>
<text text-anchor="start" x="369.947" y="-301" font-family="Helvetica,sans-Serif" font-size="10.00">and 41 more...</text>
</g>
<!-- Node2 -->
<g id="node2" class="node"><title>Node2</title>
<g id="a_node2"><a xlink:href="class_data_1_1_string_name.html" target="_top" xlink:title="String for file names. ">
<polygon fill="none" stroke="black" points="-0.73877,-158 -0.73877,-212 94.7388,-212 94.7388,-158 -0.73877,-158"/>
<text text-anchor="middle" x="47" y="-200" font-family="Helvetica,sans-Serif" font-size="10.00">Data::StringName</text>
<polyline fill="none" stroke="black" points="-0.73877,-194 94.7388,-194 "/>
<text text-anchor="middle" x="47" y="-182" font-family="Helvetica,sans-Serif" font-size="10.00"> </text>
<polyline fill="none" stroke="black" points="-0.73877,-176 94.7388,-176 "/>
<text text-anchor="start" x="7.26123" y="-164" font-family="Helvetica,sans-Serif" font-size="10.00">+ StringName()</text>
</a>
</g>
</g>
<!-- Node1&#45;&gt;Node2 -->
<g id="edge1" class="edge"><title>Node1&#45;&gt;Node2</title>
<path fill="none" stroke="midnightblue" d="M351.858,-357.908C282.931,-342.711 178.627,-312.462 103,-258 86.166,-245.877 71.8966,-227.308 61.9752,-212.064"/>
<polygon fill="none" stroke="midnightblue" points="351.25,-361.357 361.763,-360.042 352.724,-354.514 351.25,-361.357"/>
</g>
<!-- Node3 -->
<g id="node3" class="node"><title>Node3</title>
<g id="a_node3"><a xlink:href="class_data_1_1_string_path.html" target="_top" xlink:title="String for path names. ">
<polygon fill="none" stroke="black" points="112.313,-143 112.313,-227 201.687,-227 201.687,-143 112.313,-143"/>
<text text-anchor="middle" x="157" y="-215" font-family="Helvetica,sans-Serif" font-size="10.00">Data::StringPath</text>
<polyline fill="none" stroke="black" points="112.313,-209 201.687,-209 "/>
<text text-anchor="middle" x="157" y="-197" font-family="Helvetica,sans-Serif" font-size="10.00"> </text>
<polyline fill="none" stroke="black" points="112.313,-191 201.687,-191 "/>
<text text-anchor="start" x="120.313" y="-179" font-family="Helvetica,sans-Serif" font-size="10.00">+ StringPath()</text>
<text text-anchor="start" x="120.313" y="-169" font-family="Helvetica,sans-Serif" font-size="10.00">+ strip_suffix()</text>
<text text-anchor="start" x="120.313" y="-159" font-family="Helvetica,sans-Serif" font-size="10.00">+ file_name()</text>
<text text-anchor="start" x="120.313" y="-149" font-family="Helvetica,sans-Serif" font-size="10.00">+ filename()</text>
</a>
</g>
</g>
<!-- Node1&#45;&gt;Node3 -->
<g id="edge2" class="edge"><title>Node1&#45;&gt;Node3</title>
<path fill="none" stroke="midnightblue" d="M352.614,-342.679C308.789,-323.085 253.175,-294.069 211,-258 200.669,-249.165 191.123,-238.019 183.022,-227.154"/>
<polygon fill="none" stroke="midnightblue" points="351.215,-345.888 361.778,-346.717 354.038,-339.482 351.215,-345.888"/>
</g>
<!-- Node4 -->
<g id="node4" class="node"><title>Node4</title>
<g id="a_node4"><a xlink:href="class_data_1_1_string_static.html" target="_top" xlink:title="Static String Template Class. ">
<polygon fill="none" stroke="black" points="220.094,-143 220.094,-227 313.906,-227 313.906,-143 220.094,-143"/>
<text text-anchor="start" x="228.094" y="-215" font-family="Helvetica,sans-Serif" font-size="10.00">Data::StringStatic</text>
<text text-anchor="middle" x="267" y="-205" font-family="Helvetica,sans-Serif" font-size="10.00">&lt; arraysize &gt;</text>
<polyline fill="none" stroke="black" points="220.094,-199 313.906,-199 "/>
<text text-anchor="middle" x="267" y="-187" font-family="Helvetica,sans-Serif" font-size="10.00"> </text>
<polyline fill="none" stroke="black" points="220.094,-181 313.906,-181 "/>
<text text-anchor="start" x="228.094" y="-169" font-family="Helvetica,sans-Serif" font-size="10.00">+ StringStatic()</text>
<text text-anchor="start" x="228.094" y="-159" font-family="Helvetica,sans-Serif" font-size="10.00">+ StringStatic()</text>
<text text-anchor="start" x="228.094" y="-149" font-family="Helvetica,sans-Serif" font-size="10.00">+ StringStatic()</text>
</a>
</g>
</g>
<!-- Node1&#45;&gt;Node4 -->
<g id="edge3" class="edge"><title>Node1&#45;&gt;Node4</title>
<path fill="none" stroke="midnightblue" d="M355.072,-295.309C344.198,-282.962 333.189,-270.215 323,-258 314.784,-248.15 306.16,-237.325 298.21,-227.128"/>
<polygon fill="none" stroke="midnightblue" points="352.57,-297.764 361.816,-302.937 357.814,-293.127 352.57,-297.764"/>
</g>
<!-- Node5 -->
<g id="node5" class="node"><title>Node5</title>
<g id="a_node5"><a xlink:href="class_data_1_1_token.html" target="_top" xlink:title="Abstract Token Class. ">
<polygon fill="none" stroke="black" points="331.896,-113 331.896,-257 412.104,-257 412.104,-113 331.896,-113"/>
<text text-anchor="middle" x="372" y="-245" font-family="Helvetica,sans-Serif" font-size="10.00">Data::Token</text>
<polyline fill="none" stroke="black" points="331.896,-239 412.104,-239 "/>
<text text-anchor="middle" x="372" y="-227" font-family="Helvetica,sans-Serif" font-size="10.00"> </text>
<polyline fill="none" stroke="black" points="331.896,-221 412.104,-221 "/>
<text text-anchor="start" x="339.896" y="-209" font-family="Helvetica,sans-Serif" font-size="10.00">+ Token()</text>
<text text-anchor="start" x="339.896" y="-199" font-family="Helvetica,sans-Serif" font-size="10.00">+ Token()</text>
<text text-anchor="start" x="339.896" y="-189" font-family="Helvetica,sans-Serif" font-size="10.00">+ Token()</text>
<text text-anchor="start" x="339.896" y="-179" font-family="Helvetica,sans-Serif" font-size="10.00">+ Token()</text>
<text text-anchor="start" x="339.896" y="-169" font-family="Helvetica,sans-Serif" font-size="10.00">+ parse()</text>
<text text-anchor="start" x="339.896" y="-159" font-family="Helvetica,sans-Serif" font-size="10.00">+ count()</text>
<text text-anchor="start" x="339.896" y="-149" font-family="Helvetica,sans-Serif" font-size="10.00">+ size()</text>
<text text-anchor="start" x="339.896" y="-139" font-family="Helvetica,sans-Serif" font-size="10.00">+ at()</text>
<text text-anchor="start" x="339.896" y="-129" font-family="Helvetica,sans-Serif" font-size="10.00">+ belongs_to()</text>
<text text-anchor="start" x="339.896" y="-119" font-family="Helvetica,sans-Serif" font-size="10.00">+ belongs_to()</text>
</a>
</g>
</g>
<!-- Node1&#45;&gt;Node5 -->
<g id="edge4" class="edge"><title>Node1&#45;&gt;Node5</title>
<path fill="none" stroke="midnightblue" d="M399.898,-285.252C397.268,-275.895 394.612,-266.446 392.038,-257.29"/>
<polygon fill="none" stroke="midnightblue" points="396.549,-286.273 402.624,-294.953 403.288,-284.379 396.549,-286.273"/>
</g>
<!-- Node6 -->
<g id="node6" class="node"><title>Node6</title>
<g id="a_node6"><a xlink:href="class_data_1_1_string_static.html" target="_top" xlink:title="{Data::StringStatic\l\&lt; 128 \&gt;\n||+ StringStatic()\l+ StringStatic()\l+ StringStatic()\l}">
<polygon fill="none" stroke="black" points="430.094,-143 430.094,-227 523.906,-227 523.906,-143 430.094,-143"/>
<text text-anchor="start" x="438.094" y="-215" font-family="Helvetica,sans-Serif" font-size="10.00">Data::StringStatic</text>
<text text-anchor="middle" x="477" y="-205" font-family="Helvetica,sans-Serif" font-size="10.00">&lt; 128 &gt;</text>
<polyline fill="none" stroke="black" points="430.094,-199 523.906,-199 "/>
<text text-anchor="middle" x="477" y="-187" font-family="Helvetica,sans-Serif" font-size="10.00"> </text>
<polyline fill="none" stroke="black" points="430.094,-181 523.906,-181 "/>
<text text-anchor="start" x="438.094" y="-169" font-family="Helvetica,sans-Serif" font-size="10.00">+ StringStatic()</text>
<text text-anchor="start" x="438.094" y="-159" font-family="Helvetica,sans-Serif" font-size="10.00">+ StringStatic()</text>
<text text-anchor="start" x="438.094" y="-149" font-family="Helvetica,sans-Serif" font-size="10.00">+ StringStatic()</text>
</a>
</g>
</g>
<!-- Node1&#45;&gt;Node6 -->
<g id="edge5" class="edge"><title>Node1&#45;&gt;Node6</title>
<path fill="none" stroke="midnightblue" d="M448.612,-285.089C454.399,-264.892 460.305,-244.274 465.222,-227.113"/>
<polygon fill="none" stroke="midnightblue" points="445.176,-284.375 445.787,-294.953 451.905,-286.303 445.176,-284.375"/>
</g>
<!-- Node8 -->
<g id="node8" class="node"><title>Node8</title>
<g id="a_node8"><a xlink:href="class_data_1_1_string_static.html" target="_top" xlink:title="{Data::StringStatic\l\&lt; 16 \&gt;\n||+ StringStatic()\l+ StringStatic()\l+ StringStatic()\l}">
<polygon fill="none" stroke="black" points="542.094,-143 542.094,-227 635.906,-227 635.906,-143 542.094,-143"/>
<text text-anchor="start" x="550.094" y="-215" font-family="Helvetica,sans-Serif" font-size="10.00">Data::StringStatic</text>
<text text-anchor="middle" x="589" y="-205" font-family="Helvetica,sans-Serif" font-size="10.00">&lt; 16 &gt;</text>
<polyline fill="none" stroke="black" points="542.094,-199 635.906,-199 "/>
<text text-anchor="middle" x="589" y="-187" font-family="Helvetica,sans-Serif" font-size="10.00"> </text>
<polyline fill="none" stroke="black" points="542.094,-181 635.906,-181 "/>
<text text-anchor="start" x="550.094" y="-169" font-family="Helvetica,sans-Serif" font-size="10.00">+ StringStatic()</text>
<text text-anchor="start" x="550.094" y="-159" font-family="Helvetica,sans-Serif" font-size="10.00">+ StringStatic()</text>
<text text-anchor="start" x="550.094" y="-149" font-family="Helvetica,sans-Serif" font-size="10.00">+ StringStatic()</text>
</a>
</g>
</g>
<!-- Node1&#45;&gt;Node8 -->
<g id="edge7" class="edge"><title>Node1&#45;&gt;Node8</title>
<path fill="none" stroke="midnightblue" d="M493.389,-300.413C506.451,-286.564 519.824,-271.99 532,-258 540.478,-248.259 549.298,-237.474 557.394,-227.281"/>
<polygon fill="none" stroke="midnightblue" points="490.514,-298.358 486.174,-308.024 495.594,-303.174 490.514,-298.358"/>
</g>
<!-- Node10 -->
<g id="node10" class="node"><title>Node10</title>
<g id="a_node10"><a xlink:href="class_data_1_1_string_static.html" target="_top" xlink:title="{Data::StringStatic\l\&lt; 32 \&gt;\n||+ StringStatic()\l+ StringStatic()\l+ StringStatic()\l}">
<polygon fill="none" stroke="black" points="654.094,-143 654.094,-227 747.906,-227 747.906,-143 654.094,-143"/>
<text text-anchor="start" x="662.094" y="-215" font-family="Helvetica,sans-Serif" font-size="10.00">Data::StringStatic</text>
<text text-anchor="middle" x="701" y="-205" font-family="Helvetica,sans-Serif" font-size="10.00">&lt; 32 &gt;</text>
<polyline fill="none" stroke="black" points="654.094,-199 747.906,-199 "/>
<text text-anchor="middle" x="701" y="-187" font-family="Helvetica,sans-Serif" font-size="10.00"> </text>
<polyline fill="none" stroke="black" points="654.094,-181 747.906,-181 "/>
<text text-anchor="start" x="662.094" y="-169" font-family="Helvetica,sans-Serif" font-size="10.00">+ StringStatic()</text>
<text text-anchor="start" x="662.094" y="-159" font-family="Helvetica,sans-Serif" font-size="10.00">+ StringStatic()</text>
<text text-anchor="start" x="662.094" y="-149" font-family="Helvetica,sans-Serif" font-size="10.00">+ StringStatic()</text>
</a>
</g>
</g>
<!-- Node1&#45;&gt;Node10 -->
<g id="edge9" class="edge"><title>Node1&#45;&gt;Node10</title>
<path fill="none" stroke="midnightblue" d="M496.012,-343.345C541.377,-323.763 599.555,-294.52 644,-258 654.717,-249.194 664.732,-238.058 673.286,-227.193"/>
<polygon fill="none" stroke="midnightblue" points="494.368,-340.241 486.536,-347.376 497.108,-346.682 494.368,-340.241"/>
</g>
<!-- Node12 -->
<g id="node12" class="node"><title>Node12</title>
<g id="a_node12"><a xlink:href="class_data_1_1_string_static.html" target="_top" xlink:title="{Data::StringStatic\l\&lt; 64 \&gt;\n||+ StringStatic()\l+ StringStatic()\l+ StringStatic()\l}">
<polygon fill="none" stroke="black" points="767.094,-143 767.094,-227 860.906,-227 860.906,-143 767.094,-143"/>
<text text-anchor="start" x="775.094" y="-215" font-family="Helvetica,sans-Serif" font-size="10.00">Data::StringStatic</text>
<text text-anchor="middle" x="814" y="-205" font-family="Helvetica,sans-Serif" font-size="10.00">&lt; 64 &gt;</text>
<polyline fill="none" stroke="black" points="767.094,-199 860.906,-199 "/>
<text text-anchor="middle" x="814" y="-187" font-family="Helvetica,sans-Serif" font-size="10.00"> </text>
<polyline fill="none" stroke="black" points="767.094,-181 860.906,-181 "/>
<text text-anchor="start" x="775.094" y="-169" font-family="Helvetica,sans-Serif" font-size="10.00">+ StringStatic()</text>
<text text-anchor="start" x="775.094" y="-159" font-family="Helvetica,sans-Serif" font-size="10.00">+ StringStatic()</text>
<text text-anchor="start" x="775.094" y="-149" font-family="Helvetica,sans-Serif" font-size="10.00">+ StringStatic()</text>
</a>
</g>
</g>
<!-- Node1&#45;&gt;Node12 -->
<g id="edge11" class="edge"><title>Node1&#45;&gt;Node12</title>
<path fill="none" stroke="midnightblue" d="M496.476,-358.572C567.577,-343.705 676.586,-313.548 756,-258 767.838,-249.72 778.521,-238.363 787.398,-227.116"/>
<polygon fill="none" stroke="midnightblue" points="495.367,-355.226 486.269,-360.655 496.767,-362.084 495.367,-355.226"/>
</g>
<!-- Node7 -->
<g id="node7" class="node"><title>Node7</title>
<g id="a_node7"><a xlink:href="class_data_1_1_string_large.html" target="_top" xlink:title="Large String. ">
<polygon fill="none" stroke="black" points="429.811,-1 429.811,-75 524.189,-75 524.189,-1 429.811,-1"/>
<text text-anchor="middle" x="477" y="-63" font-family="Helvetica,sans-Serif" font-size="10.00">Data::StringLarge</text>
<polyline fill="none" stroke="black" points="429.811,-57 524.189,-57 "/>
<text text-anchor="middle" x="477" y="-45" font-family="Helvetica,sans-Serif" font-size="10.00"> </text>
<polyline fill="none" stroke="black" points="429.811,-39 524.189,-39 "/>
<text text-anchor="start" x="437.811" y="-27" font-family="Helvetica,sans-Serif" font-size="10.00">+ StringLarge()</text>
<text text-anchor="start" x="437.811" y="-17" font-family="Helvetica,sans-Serif" font-size="10.00">+ StringLarge()</text>
<text text-anchor="start" x="437.811" y="-7" font-family="Helvetica,sans-Serif" font-size="10.00">+ StringLarge()</text>
</a>
</g>
</g>
<!-- Node6&#45;&gt;Node7 -->
<g id="edge6" class="edge"><title>Node6&#45;&gt;Node7</title>
<path fill="none" stroke="midnightblue" d="M477,-132.578C477,-113.659 477,-92.6421 477,-75.3265"/>
<polygon fill="none" stroke="midnightblue" points="473.5,-132.837 477,-142.837 480.5,-132.837 473.5,-132.837"/>
</g>
<!-- Node9 -->
<g id="node9" class="node"><title>Node9</title>
<g id="a_node9"><a xlink:href="class_data_1_1_string_tiny.html" target="_top" xlink:title="Tiny String. ">
<polygon fill="none" stroke="black" points="545.336,-1 545.336,-75 632.664,-75 632.664,-1 545.336,-1"/>
<text text-anchor="middle" x="589" y="-63" font-family="Helvetica,sans-Serif" font-size="10.00">Data::StringTiny</text>
<polyline fill="none" stroke="black" points="545.336,-57 632.664,-57 "/>
<text text-anchor="middle" x="589" y="-45" font-family="Helvetica,sans-Serif" font-size="10.00"> </text>
<polyline fill="none" stroke="black" points="545.336,-39 632.664,-39 "/>
<text text-anchor="start" x="553.336" y="-27" font-family="Helvetica,sans-Serif" font-size="10.00">+ StringTiny()</text>
<text text-anchor="start" x="553.336" y="-17" font-family="Helvetica,sans-Serif" font-size="10.00">+ StringTiny()</text>
<text text-anchor="start" x="553.336" y="-7" font-family="Helvetica,sans-Serif" font-size="10.00">+ StringTiny()</text>
</a>
</g>
</g>
<!-- Node8&#45;&gt;Node9 -->
<g id="edge8" class="edge"><title>Node8&#45;&gt;Node9</title>
<path fill="none" stroke="midnightblue" d="M589,-132.578C589,-113.659 589,-92.6421 589,-75.3265"/>
<polygon fill="none" stroke="midnightblue" points="585.5,-132.837 589,-142.837 592.5,-132.837 585.5,-132.837"/>
</g>
<!-- Node11 -->
<g id="node11" class="node"><title>Node11</title>
<g id="a_node11"><a xlink:href="class_data_1_1_string_small.html" target="_top" xlink:title="Small String. ">
<polygon fill="none" stroke="black" points="652.096,-1 652.096,-75 745.904,-75 745.904,-1 652.096,-1"/>
<text text-anchor="middle" x="699" y="-63" font-family="Helvetica,sans-Serif" font-size="10.00">Data::StringSmall</text>
<polyline fill="none" stroke="black" points="652.096,-57 745.904,-57 "/>
<text text-anchor="middle" x="699" y="-45" font-family="Helvetica,sans-Serif" font-size="10.00"> </text>
<polyline fill="none" stroke="black" points="652.096,-39 745.904,-39 "/>
<text text-anchor="start" x="660.096" y="-27" font-family="Helvetica,sans-Serif" font-size="10.00">+ StringSmall()</text>
<text text-anchor="start" x="660.096" y="-17" font-family="Helvetica,sans-Serif" font-size="10.00">+ StringSmall()</text>
<text text-anchor="start" x="660.096" y="-7" font-family="Helvetica,sans-Serif" font-size="10.00">+ StringSmall()</text>
</a>
</g>
</g>
<!-- Node10&#45;&gt;Node11 -->
<g id="edge10" class="edge"><title>Node10&#45;&gt;Node11</title>
<path fill="none" stroke="midnightblue" d="M700.291,-132.578C700.03,-113.659 699.74,-92.6421 699.501,-75.3265"/>
<polygon fill="none" stroke="midnightblue" points="696.795,-132.886 700.432,-142.837 703.794,-132.789 696.795,-132.886"/>
</g>
<!-- Node13 -->
<g id="node13" class="node"><title>Node13</title>
<g id="a_node13"><a xlink:href="class_data_1_1_string_medium.html" target="_top" xlink:title="Medium String. ">
<polygon fill="none" stroke="black" points="763.815,-1 763.815,-75 868.185,-75 868.185,-1 763.815,-1"/>
<text text-anchor="middle" x="816" y="-63" font-family="Helvetica,sans-Serif" font-size="10.00">Data::StringMedium</text>
<polyline fill="none" stroke="black" points="763.815,-57 868.185,-57 "/>
<text text-anchor="middle" x="816" y="-45" font-family="Helvetica,sans-Serif" font-size="10.00"> </text>
<polyline fill="none" stroke="black" points="763.815,-39 868.185,-39 "/>
<text text-anchor="start" x="771.815" y="-27" font-family="Helvetica,sans-Serif" font-size="10.00">+ StringMedium()</text>
<text text-anchor="start" x="771.815" y="-17" font-family="Helvetica,sans-Serif" font-size="10.00">+ StringMedium()</text>
<text text-anchor="start" x="771.815" y="-7" font-family="Helvetica,sans-Serif" font-size="10.00">+ StringMedium()</text>
</a>
</g>
</g>
<!-- Node12&#45;&gt;Node13 -->
<g id="edge12" class="edge"><title>Node12&#45;&gt;Node13</title>
<path fill="none" stroke="midnightblue" d="M814.709,-132.578C814.97,-113.659 815.26,-92.6421 815.499,-75.3265"/>
<polygon fill="none" stroke="midnightblue" points="811.206,-132.789 814.568,-142.837 818.205,-132.886 811.206,-132.789"/>
</g>
</g>
</svg>
