<?xml version="1.0" encoding="UTF-8" standalone="no"?>
<!DOCTYPE svg PUBLIC "-//W3C//DTD SVG 1.1//EN"
 "http://www.w3.org/Graphics/SVG/1.1/DTD/svg11.dtd">
<!-- Generated by graphviz version 2.36.0 (20140111.2315)
 -->
<!-- Title: String Pages: 1 -->
<svg width="889pt" height="458pt"
 viewBox="0.00 0.00 889.00 458.00" xmlns="http://www.w3.org/2000/svg" xmlns:xlink="http://www.w3.org/1999/xlink">
<g id="graph0" class="graph" transform="scale(1 1) rotate(0) translate(4 454)">
<title>String</title>
<!-- Node1 -->
<g id="node1" class="node"><title>Node1</title>
<polygon fill="#bfbfbf" stroke="black" points="388.947,-295 388.947,-449 513.053,-449 513.053,-295 388.947,-295"/>
<text text-anchor="middle" x="451" y="-437" font-family="Helvetica,sans-Serif" font-size="10.00">String</text>
<polyline fill="none" stroke="black" points="388.947,-431 513.053,-431 "/>
<text text-anchor="middle" x="451" y="-419" font-family="Helvetica,sans-Serif" font-size="10.00"> </text>
<polyline fill="none" stroke="black" points="388.947,-413 513.053,-413 "/>
<text text-anchor="start" x="396.947" y="-401" font-family="Helvetica,sans-Serif" font-size="10.00">+ String()</text>
<text text-anchor="start" x="396.947" y="-391" font-family="Helvetica,sans-Serif" font-size="10.00">+ String()</text>
<text text-anchor="start" x="396.947" y="-381" font-family="Helvetica,sans-Serif" font-size="10.00">+ String()</text>
<text text-anchor="start" x="396.947" y="-371" font-family="Helvetica,sans-Serif" font-size="10.00">+ String()</text>
<text text-anchor="start" x="396.947" y="-361" font-family="Helvetica,sans-Serif" font-size="10.00">+ operator const char *()</text>
<text text-anchor="start" x="396.947" y="-351" font-family="Helvetica,sans-Serif" font-size="10.00">+ String()</text>
<text text-anchor="start" x="396.947" y="-341" font-family="Helvetica,sans-Serif" font-size="10.00">+ set_capacity()</text>
<text text-anchor="start" x="396.947" y="-331" font-family="Helvetica,sans-Serif" font-size="10.00">+ operator=()</text>
<text text-anchor="start" x="396.947" y="-321" font-family="Helvetica,sans-Serif" font-size="10.00">+ operator&lt;&lt;()</text>
<text text-anchor="start" x="396.947" y="-311" font-family="Helvetica,sans-Serif" font-size="10.00">+ operator&lt;&lt;()</text>
<text text-anchor="start" x="396.947" y="-301" font-family="Helvetica,sans-Serif" font-size="10.00">and 41 more...</text>
</g>
<!-- Node2 -->
<g id="node2" class="node"><title>Node2</title>
<g id="a_node2"><a xlink:href="class_string_name.html" target="_top" xlink:title="String for file names. ">
<polygon fill="none" stroke="black" points="-0.0380859,-158 -0.0380859,-212 84.0381,-212 84.0381,-158 -0.0380859,-158"/>
<text text-anchor="middle" x="42" y="-200" font-family="Helvetica,sans-Serif" font-size="10.00">StringName</text>
<polyline fill="none" stroke="black" points="-0.0380859,-194 84.0381,-194 "/>
<text text-anchor="middle" x="42" y="-182" font-family="Helvetica,sans-Serif" font-size="10.00"> </text>
<polyline fill="none" stroke="black" points="-0.0380859,-176 84.0381,-176 "/>
<text text-anchor="start" x="7.96191" y="-164" font-family="Helvetica,sans-Serif" font-size="10.00">+ StringName()</text>
</a>
</g>
</g>
<!-- Node1&#45;&gt;Node2 -->
<g id="edge1" class="edge"><title>Node1&#45;&gt;Node2</title>
<path fill="none" stroke="midnightblue" d="M378.832,-362.086C301.833,-349.606 179.303,-320.941 93,-258 76.7869,-246.176 63.8123,-227.599 55.0072,-212.277"/>
<polygon fill="none" stroke="midnightblue" points="378.499,-365.576 388.921,-363.67 379.585,-358.661 378.499,-365.576"/>
</g>
<!-- Node3 -->
<g id="node3" class="node"><title>Node3</title>
<g id="a_node3"><a xlink:href="class_string_path.html" target="_top" xlink:title="String for path names. ">
<polygon fill="none" stroke="black" points="102.464,-143 102.464,-227 181.536,-227 181.536,-143 102.464,-143"/>
<text text-anchor="middle" x="142" y="-215" font-family="Helvetica,sans-Serif" font-size="10.00">StringPath</text>
<polyline fill="none" stroke="black" points="102.464,-209 181.536,-209 "/>
<text text-anchor="middle" x="142" y="-197" font-family="Helvetica,sans-Serif" font-size="10.00"> </text>
<polyline fill="none" stroke="black" points="102.464,-191 181.536,-191 "/>
<text text-anchor="start" x="110.464" y="-179" font-family="Helvetica,sans-Serif" font-size="10.00">+ StringPath()</text>
<text text-anchor="start" x="110.464" y="-169" font-family="Helvetica,sans-Serif" font-size="10.00">+ strip_suffix()</text>
<text text-anchor="start" x="110.464" y="-159" font-family="Helvetica,sans-Serif" font-size="10.00">+ file_name()</text>
<text text-anchor="start" x="110.464" y="-149" font-family="Helvetica,sans-Serif" font-size="10.00">+ filename()</text>
</a>
</g>
</g>
<!-- Node1&#45;&gt;Node3 -->
<g id="edge2" class="edge"><title>Node1&#45;&gt;Node3</title>
<path fill="none" stroke="midnightblue" d="M378.88,-351.719C323.114,-334.132 246.341,-303.825 191,-258 180.752,-249.514 171.759,-238.354 164.37,-227.362"/>
<polygon fill="none" stroke="midnightblue" points="378.101,-355.141 388.688,-354.749 380.167,-348.453 378.101,-355.141"/>
</g>
<!-- Node4 -->
<g id="node4" class="node"><title>Node4</title>
<g id="a_node4"><a xlink:href="class_string_static.html" target="_top" xlink:title="Static String Template Class. ">
<polygon fill="none" stroke="black" points="199.532,-148 199.532,-222 324.468,-222 324.468,-148 199.532,-148"/>
<text text-anchor="middle" x="262" y="-210" font-family="Helvetica,sans-Serif" font-size="10.00">StringStatic&lt; arraysize &gt;</text>
<polyline fill="none" stroke="black" points="199.532,-204 324.468,-204 "/>
<text text-anchor="middle" x="262" y="-192" font-family="Helvetica,sans-Serif" font-size="10.00"> </text>
<polyline fill="none" stroke="black" points="199.532,-186 324.468,-186 "/>
<text text-anchor="start" x="207.532" y="-174" font-family="Helvetica,sans-Serif" font-size="10.00">+ StringStatic()</text>
<text text-anchor="start" x="207.532" y="-164" font-family="Helvetica,sans-Serif" font-size="10.00">+ StringStatic()</text>
<text text-anchor="start" x="207.532" y="-154" font-family="Helvetica,sans-Serif" font-size="10.00">+ StringStatic()</text>
</a>
</g>
</g>
<!-- Node1&#45;&gt;Node4 -->
<g id="edge3" class="edge"><title>Node1&#45;&gt;Node4</title>
<path fill="none" stroke="midnightblue" d="M381.533,-305.112C365.509,-289.738 348.593,-273.366 333,-258 321.246,-246.417 308.551,-233.633 297.191,-222.091"/>
<polygon fill="none" stroke="midnightblue" points="379.183,-307.707 388.825,-312.098 384.026,-302.653 379.183,-307.707"/>
</g>
<!-- Node5 -->
<g id="node5" class="node"><title>Node5</title>
<g id="a_node5"><a xlink:href="class_string_static.html" target="_top" xlink:title="{StringStatic\&lt; 128 \&gt;\n||+ StringStatic()\l+ StringStatic()\l+ StringStatic()\l}">
<polygon fill="none" stroke="black" points="342.473,-148 342.473,-222 443.527,-222 443.527,-148 342.473,-148"/>
<text text-anchor="middle" x="393" y="-210" font-family="Helvetica,sans-Serif" font-size="10.00">StringStatic&lt; 128 &gt;</text>
<polyline fill="none" stroke="black" points="342.473,-204 443.527,-204 "/>
<text text-anchor="middle" x="393" y="-192" font-family="Helvetica,sans-Serif" font-size="10.00"> </text>
<polyline fill="none" stroke="black" points="342.473,-186 443.527,-186 "/>
<text text-anchor="start" x="350.473" y="-174" font-family="Helvetica,sans-Serif" font-size="10.00">+ StringStatic()</text>
<text text-anchor="start" x="350.473" y="-164" font-family="Helvetica,sans-Serif" font-size="10.00">+ StringStatic()</text>
<text text-anchor="start" x="350.473" y="-154" font-family="Helvetica,sans-Serif" font-size="10.00">+ StringStatic()</text>
</a>
</g>
</g>
<!-- Node1&#45;&gt;Node5 -->
<g id="edge4" class="edge"><title>Node1&#45;&gt;Node5</title>
<path fill="none" stroke="midnightblue" d="M424.092,-285.174C417.151,-263.033 410.049,-240.38 404.388,-222.324"/>
<polygon fill="none" stroke="midnightblue" points="420.827,-286.458 427.158,-294.953 427.506,-284.363 420.827,-286.458"/>
</g>
<!-- Node7 -->
<g id="node7" class="node"><title>Node7</title>
<g id="a_node7"><a xlink:href="class_string_static.html" target="_top" xlink:title="{StringStatic\&lt; 16 \&gt;\n||+ StringStatic()\l+ StringStatic()\l+ StringStatic()\l}">
<polygon fill="none" stroke="black" points="461.254,-148 461.254,-222 556.746,-222 556.746,-148 461.254,-148"/>
<text text-anchor="middle" x="509" y="-210" font-family="Helvetica,sans-Serif" font-size="10.00">StringStatic&lt; 16 &gt;</text>
<polyline fill="none" stroke="black" points="461.254,-204 556.746,-204 "/>
<text text-anchor="middle" x="509" y="-192" font-family="Helvetica,sans-Serif" font-size="10.00"> </text>
<polyline fill="none" stroke="black" points="461.254,-186 556.746,-186 "/>
<text text-anchor="start" x="469.254" y="-174" font-family="Helvetica,sans-Serif" font-size="10.00">+ StringStatic()</text>
<text text-anchor="start" x="469.254" y="-164" font-family="Helvetica,sans-Serif" font-size="10.00">+ StringStatic()</text>
<text text-anchor="start" x="469.254" y="-154" font-family="Helvetica,sans-Serif" font-size="10.00">+ StringStatic()</text>
</a>
</g>
</g>
<!-- Node1&#45;&gt;Node7 -->
<g id="edge6" class="edge"><title>Node1&#45;&gt;Node7</title>
<path fill="none" stroke="midnightblue" d="M477.908,-285.174C484.849,-263.033 491.951,-240.38 497.612,-222.324"/>
<polygon fill="none" stroke="midnightblue" points="474.494,-284.363 474.842,-294.953 481.173,-286.458 474.494,-284.363"/>
</g>
<!-- Node9 -->
<g id="node9" class="node"><title>Node9</title>
<g id="a_node9"><a xlink:href="class_string_static.html" target="_top" xlink:title="{StringStatic\&lt; 32 \&gt;\n||+ StringStatic()\l+ StringStatic()\l+ StringStatic()\l}">
<polygon fill="none" stroke="black" points="574.254,-148 574.254,-222 669.746,-222 669.746,-148 574.254,-148"/>
<text text-anchor="middle" x="622" y="-210" font-family="Helvetica,sans-Serif" font-size="10.00">StringStatic&lt; 32 &gt;</text>
<polyline fill="none" stroke="black" points="574.254,-204 669.746,-204 "/>
<text text-anchor="middle" x="622" y="-192" font-family="Helvetica,sans-Serif" font-size="10.00"> </text>
<polyline fill="none" stroke="black" points="574.254,-186 669.746,-186 "/>
<text text-anchor="start" x="582.254" y="-174" font-family="Helvetica,sans-Serif" font-size="10.00">+ StringStatic()</text>
<text text-anchor="start" x="582.254" y="-164" font-family="Helvetica,sans-Serif" font-size="10.00">+ StringStatic()</text>
<text text-anchor="start" x="582.254" y="-154" font-family="Helvetica,sans-Serif" font-size="10.00">+ StringStatic()</text>
</a>
</g>
</g>
<!-- Node1&#45;&gt;Node9 -->
<g id="edge8" class="edge"><title>Node1&#45;&gt;Node9</title>
<path fill="none" stroke="midnightblue" d="M520.624,-304.635C535.61,-289.627 551.11,-273.53 565,-258 575.097,-246.711 585.55,-233.885 594.704,-222.218"/>
<polygon fill="none" stroke="midnightblue" points="517.936,-302.372 513.319,-311.908 522.875,-307.333 517.936,-302.372"/>
</g>
<!-- Node11 -->
<g id="node11" class="node"><title>Node11</title>
<g id="a_node11"><a xlink:href="class_string_static.html" target="_top" xlink:title="{StringStatic\&lt; 64 \&gt;\n||+ StringStatic()\l+ StringStatic()\l+ StringStatic()\l}">
<polygon fill="none" stroke="black" points="687.254,-148 687.254,-222 782.746,-222 782.746,-148 687.254,-148"/>
<text text-anchor="middle" x="735" y="-210" font-family="Helvetica,sans-Serif" font-size="10.00">StringStatic&lt; 64 &gt;</text>
<polyline fill="none" stroke="black" points="687.254,-204 782.746,-204 "/>
<text text-anchor="middle" x="735" y="-192" font-family="Helvetica,sans-Serif" font-size="10.00"> </text>
<polyline fill="none" stroke="black" points="687.254,-186 782.746,-186 "/>
<text text-anchor="start" x="695.254" y="-174" font-family="Helvetica,sans-Serif" font-size="10.00">+ StringStatic()</text>
<text text-anchor="start" x="695.254" y="-164" font-family="Helvetica,sans-Serif" font-size="10.00">+ StringStatic()</text>
<text text-anchor="start" x="695.254" y="-154" font-family="Helvetica,sans-Serif" font-size="10.00">+ StringStatic()</text>
</a>
</g>
</g>
<!-- Node1&#45;&gt;Node11 -->
<g id="edge10" class="edge"><title>Node1&#45;&gt;Node11</title>
<path fill="none" stroke="midnightblue" d="M522.611,-344.904C569.813,-325.507 631.302,-295.881 678,-258 690.505,-247.856 702.016,-234.509 711.369,-222.065"/>
<polygon fill="none" stroke="midnightblue" points="521.025,-341.77 513.069,-348.767 523.651,-348.259 521.025,-341.77"/>
</g>
<!-- Node13 -->
<g id="node13" class="node"><title>Node13</title>
<g id="a_node13"><a xlink:href="class_token.html" target="_top" xlink:title="Abstract Token Class. ">
<polygon fill="none" stroke="black" points="800.896,-113 800.896,-257 881.104,-257 881.104,-113 800.896,-113"/>
<text text-anchor="middle" x="841" y="-245" font-family="Helvetica,sans-Serif" font-size="10.00">Token</text>
<polyline fill="none" stroke="black" points="800.896,-239 881.104,-239 "/>
<text text-anchor="middle" x="841" y="-227" font-family="Helvetica,sans-Serif" font-size="10.00"> </text>
<polyline fill="none" stroke="black" points="800.896,-221 881.104,-221 "/>
<text text-anchor="start" x="808.896" y="-209" font-family="Helvetica,sans-Serif" font-size="10.00">+ Token()</text>
<text text-anchor="start" x="808.896" y="-199" font-family="Helvetica,sans-Serif" font-size="10.00">+ Token()</text>
<text text-anchor="start" x="808.896" y="-189" font-family="Helvetica,sans-Serif" font-size="10.00">+ Token()</text>
<text text-anchor="start" x="808.896" y="-179" font-family="Helvetica,sans-Serif" font-size="10.00">+ Token()</text>
<text text-anchor="start" x="808.896" y="-169" font-family="Helvetica,sans-Serif" font-size="10.00">+ parse()</text>
<text text-anchor="start" x="808.896" y="-159" font-family="Helvetica,sans-Serif" font-size="10.00">+ count()</text>
<text text-anchor="start" x="808.896" y="-149" font-family="Helvetica,sans-Serif" font-size="10.00">+ size()</text>
<text text-anchor="start" x="808.896" y="-139" font-family="Helvetica,sans-Serif" font-size="10.00">+ at()</text>
<text text-anchor="start" x="808.896" y="-129" font-family="Helvetica,sans-Serif" font-size="10.00">+ belongs_to()</text>
<text text-anchor="start" x="808.896" y="-119" font-family="Helvetica,sans-Serif" font-size="10.00">+ belongs_to()</text>
</a>
</g>
</g>
<!-- Node1&#45;&gt;Node13 -->
<g id="edge12" class="edge"><title>Node1&#45;&gt;Node13</title>
<path fill="none" stroke="midnightblue" d="M523.355,-360.693C596.769,-347.283 710.729,-318.058 791,-258 794.412,-255.447 797.676,-252.592 800.783,-249.53"/>
<polygon fill="none" stroke="midnightblue" points="522.508,-357.289 513.273,-362.482 523.731,-364.181 522.508,-357.289"/>
</g>
<!-- Node6 -->
<g id="node6" class="node"><title>Node6</title>
<g id="a_node6"><a xlink:href="class_string_large.html" target="_top" xlink:title="Large String. ">
<polygon fill="none" stroke="black" points="351.511,-1 351.511,-75 434.489,-75 434.489,-1 351.511,-1"/>
<text text-anchor="middle" x="393" y="-63" font-family="Helvetica,sans-Serif" font-size="10.00">StringLarge</text>
<polyline fill="none" stroke="black" points="351.511,-57 434.489,-57 "/>
<text text-anchor="middle" x="393" y="-45" font-family="Helvetica,sans-Serif" font-size="10.00"> </text>
<polyline fill="none" stroke="black" points="351.511,-39 434.489,-39 "/>
<text text-anchor="start" x="359.511" y="-27" font-family="Helvetica,sans-Serif" font-size="10.00">+ StringLarge()</text>
<text text-anchor="start" x="359.511" y="-17" font-family="Helvetica,sans-Serif" font-size="10.00">+ StringLarge()</text>
<text text-anchor="start" x="359.511" y="-7" font-family="Helvetica,sans-Serif" font-size="10.00">+ StringLarge()</text>
</a>
</g>
</g>
<!-- Node5&#45;&gt;Node6 -->
<g id="edge5" class="edge"><title>Node5&#45;&gt;Node6</title>
<path fill="none" stroke="midnightblue" d="M393,-137.521C393,-117.272 393,-93.9012 393,-75.005"/>
<polygon fill="none" stroke="midnightblue" points="389.5,-137.784 393,-147.784 396.5,-137.784 389.5,-137.784"/>
</g>
<!-- Node8 -->
<g id="node8" class="node"><title>Node8</title>
<g id="a_node8"><a xlink:href="class_string_tiny.html" target="_top" xlink:title="Tiny String. ">
<polygon fill="none" stroke="black" points="471.037,-1 471.037,-75 546.963,-75 546.963,-1 471.037,-1"/>
<text text-anchor="middle" x="509" y="-63" font-family="Helvetica,sans-Serif" font-size="10.00">StringTiny</text>
<polyline fill="none" stroke="black" points="471.037,-57 546.963,-57 "/>
<text text-anchor="middle" x="509" y="-45" font-family="Helvetica,sans-Serif" font-size="10.00"> </text>
<polyline fill="none" stroke="black" points="471.037,-39 546.963,-39 "/>
<text text-anchor="start" x="479.037" y="-27" font-family="Helvetica,sans-Serif" font-size="10.00">+ StringTiny()</text>
<text text-anchor="start" x="479.037" y="-17" font-family="Helvetica,sans-Serif" font-size="10.00">+ StringTiny()</text>
<text text-anchor="start" x="479.037" y="-7" font-family="Helvetica,sans-Serif" font-size="10.00">+ StringTiny()</text>
</a>
</g>
</g>
<!-- Node7&#45;&gt;Node8 -->
<g id="edge7" class="edge"><title>Node7&#45;&gt;Node8</title>
<path fill="none" stroke="midnightblue" d="M509,-137.521C509,-117.272 509,-93.9012 509,-75.005"/>
<polygon fill="none" stroke="midnightblue" points="505.5,-137.784 509,-147.784 512.5,-137.784 505.5,-137.784"/>
</g>
<!-- Node10 -->
<g id="node10" class="node"><title>Node10</title>
<g id="a_node10"><a xlink:href="class_string_small.html" target="_top" xlink:title="Small String. ">
<polygon fill="none" stroke="black" points="580.797,-1 580.797,-75 663.203,-75 663.203,-1 580.797,-1"/>
<text text-anchor="middle" x="622" y="-63" font-family="Helvetica,sans-Serif" font-size="10.00">StringSmall</text>
<polyline fill="none" stroke="black" points="580.797,-57 663.203,-57 "/>
<text text-anchor="middle" x="622" y="-45" font-family="Helvetica,sans-Serif" font-size="10.00"> </text>
<polyline fill="none" stroke="black" points="580.797,-39 663.203,-39 "/>
<text text-anchor="start" x="588.797" y="-27" font-family="Helvetica,sans-Serif" font-size="10.00">+ StringSmall()</text>
<text text-anchor="start" x="588.797" y="-17" font-family="Helvetica,sans-Serif" font-size="10.00">+ StringSmall()</text>
<text text-anchor="start" x="588.797" y="-7" font-family="Helvetica,sans-Serif" font-size="10.00">+ StringSmall()</text>
</a>
</g>
</g>
<!-- Node9&#45;&gt;Node10 -->
<g id="edge9" class="edge"><title>Node9&#45;&gt;Node10</title>
<path fill="none" stroke="midnightblue" d="M622,-137.521C622,-117.272 622,-93.9012 622,-75.005"/>
<polygon fill="none" stroke="midnightblue" points="618.5,-137.784 622,-147.784 625.5,-137.784 618.5,-137.784"/>
</g>
<!-- Node12 -->
<g id="node12" class="node"><title>Node12</title>
<g id="a_node12"><a xlink:href="class_string_medium.html" target="_top" xlink:title="Medium String. ">
<polygon fill="none" stroke="black" points="688.516,-1 688.516,-75 781.484,-75 781.484,-1 688.516,-1"/>
<text text-anchor="middle" x="735" y="-63" font-family="Helvetica,sans-Serif" font-size="10.00">StringMedium</text>
<polyline fill="none" stroke="black" points="688.516,-57 781.484,-57 "/>
<text text-anchor="middle" x="735" y="-45" font-family="Helvetica,sans-Serif" font-size="10.00"> </text>
<polyline fill="none" stroke="black" points="688.516,-39 781.484,-39 "/>
<text text-anchor="start" x="696.516" y="-27" font-family="Helvetica,sans-Serif" font-size="10.00">+ StringMedium()</text>
<text text-anchor="start" x="696.516" y="-17" font-family="Helvetica,sans-Serif" font-size="10.00">+ StringMedium()</text>
<text text-anchor="start" x="696.516" y="-7" font-family="Helvetica,sans-Serif" font-size="10.00">+ StringMedium()</text>
</a>
</g>
</g>
<!-- Node11&#45;&gt;Node12 -->
<g id="edge11" class="edge"><title>Node11&#45;&gt;Node12</title>
<path fill="none" stroke="midnightblue" d="M735,-137.521C735,-117.272 735,-93.9012 735,-75.005"/>
<polygon fill="none" stroke="midnightblue" points="731.5,-137.784 735,-147.784 738.5,-137.784 731.5,-137.784"/>
</g>
</g>
</svg>
