<?xml version="1.0" encoding="UTF-8" standalone="no"?>
<!DOCTYPE svg PUBLIC "-//W3C//DTD SVG 1.1//EN"
 "http://www.w3.org/Graphics/SVG/1.1/DTD/svg11.dtd">
<!-- Generated by graphviz version 2.36.0 (20140111.2315)
 -->
<!-- Title: Hal::Phy Pages: 1 -->
<svg width="981pt" height="568pt"
 viewBox="0.00 0.00 981.00 568.00" xmlns="http://www.w3.org/2000/svg" xmlns:xlink="http://www.w3.org/1999/xlink">
<g id="graph0" class="graph" transform="scale(1 1) rotate(0) translate(4 564)">
<title>Hal::Phy</title>
<!-- Node1 -->
<g id="node1" class="node"><title>Node1</title>
<polygon fill="#bfbfbf" stroke="black" points="507.104,-465 507.104,-559 560.896,-559 560.896,-465 507.104,-465"/>
<text text-anchor="middle" x="534" y="-547" font-family="Helvetica,sans-Serif" font-size="10.00">Hal::Phy</text>
<polyline fill="none" stroke="black" points="507.104,-541 560.896,-541 "/>
<text text-anchor="middle" x="534" y="-529" font-family="Helvetica,sans-Serif" font-size="10.00"> </text>
<polyline fill="none" stroke="black" points="507.104,-523 560.896,-523 "/>
<text text-anchor="start" x="515.104" y="-511" font-family="Helvetica,sans-Serif" font-size="10.00">+ Phy()</text>
<text text-anchor="start" x="515.104" y="-501" font-family="Helvetica,sans-Serif" font-size="10.00">+ ioctl()</text>
<text text-anchor="start" x="515.104" y="-491" font-family="Helvetica,sans-Serif" font-size="10.00">+ ioctl()</text>
<text text-anchor="start" x="515.104" y="-481" font-family="Helvetica,sans-Serif" font-size="10.00">+ ioctl()</text>
<text text-anchor="start" x="515.104" y="-471" font-family="Helvetica,sans-Serif" font-size="10.00">+ ioctl()</text>
</g>
<!-- Node2 -->
<g id="node2" class="node"><title>Node2</title>
<g id="a_node2"><a xlink:href="class_hal_1_1_periph.html" target="_top" xlink:title="Peripheral Class. ">
<polygon fill="none" stroke="red" points="443.54,-243 443.54,-417 518.46,-417 518.46,-243 443.54,-243"/>
<text text-anchor="middle" x="481" y="-405" font-family="Helvetica,sans-Serif" font-size="10.00">Hal::Periph</text>
<polyline fill="none" stroke="red" points="443.54,-399 518.46,-399 "/>
<text text-anchor="start" x="451.54" y="-387" font-family="Helvetica,sans-Serif" font-size="10.00"># port_</text>
<text text-anchor="start" x="451.54" y="-377" font-family="Helvetica,sans-Serif" font-size="10.00"># fd</text>
<polyline fill="none" stroke="red" points="443.54,-371 518.46,-371 "/>
<text text-anchor="start" x="451.54" y="-359" font-family="Helvetica,sans-Serif" font-size="10.00">+ Periph()</text>
<text text-anchor="start" x="451.54" y="-349" font-family="Helvetica,sans-Serif" font-size="10.00">+ open()</text>
<text text-anchor="start" x="451.54" y="-339" font-family="Helvetica,sans-Serif" font-size="10.00">+ open()</text>
<text text-anchor="start" x="451.54" y="-329" font-family="Helvetica,sans-Serif" font-size="10.00">+ setflags()</text>
<text text-anchor="start" x="451.54" y="-319" font-family="Helvetica,sans-Serif" font-size="10.00">+ read()</text>
<text text-anchor="start" x="451.54" y="-309" font-family="Helvetica,sans-Serif" font-size="10.00">+ read()</text>
<text text-anchor="start" x="451.54" y="-299" font-family="Helvetica,sans-Serif" font-size="10.00">+ write()</text>
<text text-anchor="start" x="451.54" y="-289" font-family="Helvetica,sans-Serif" font-size="10.00">+ readline()</text>
<text text-anchor="start" x="451.54" y="-279" font-family="Helvetica,sans-Serif" font-size="10.00">+ write()</text>
<text text-anchor="start" x="451.54" y="-269" font-family="Helvetica,sans-Serif" font-size="10.00">+ write()</text>
<text text-anchor="start" x="451.54" y="-259" font-family="Helvetica,sans-Serif" font-size="10.00">and 7 more...</text>
<text text-anchor="start" x="451.54" y="-249" font-family="Helvetica,sans-Serif" font-size="10.00"># _open()</text>
</a>
</g>
</g>
<!-- Node1&#45;&gt;Node2 -->
<g id="edge1" class="edge"><title>Node1&#45;&gt;Node2</title>
<path fill="none" stroke="midnightblue" d="M517.455,-454.809C513.921,-442.808 510.111,-429.869 506.333,-417.038"/>
<polygon fill="none" stroke="midnightblue" points="514.169,-456.041 520.351,-464.646 520.884,-454.064 514.169,-456.041"/>
</g>
<!-- Node14 -->
<g id="node14" class="node"><title>Node14</title>
<g id="a_node14"><a xlink:href="class_sys_1_1_file.html" target="_top" xlink:title="File Class. ">
<polygon fill="none" stroke="red" points="536.893,-233 536.893,-427 637.107,-427 637.107,-233 536.893,-233"/>
<text text-anchor="middle" x="587" y="-415" font-family="Helvetica,sans-Serif" font-size="10.00">Sys::File</text>
<polyline fill="none" stroke="red" points="536.893,-409 637.107,-409 "/>
<text text-anchor="middle" x="587" y="-397" font-family="Helvetica,sans-Serif" font-size="10.00"> </text>
<polyline fill="none" stroke="red" points="536.893,-391 637.107,-391 "/>
<text text-anchor="start" x="544.893" y="-379" font-family="Helvetica,sans-Serif" font-size="10.00">+ File()</text>
<text text-anchor="start" x="544.893" y="-369" font-family="Helvetica,sans-Serif" font-size="10.00">+ open()</text>
<text text-anchor="start" x="544.893" y="-359" font-family="Helvetica,sans-Serif" font-size="10.00">+ open_readwrite()</text>
<text text-anchor="start" x="544.893" y="-349" font-family="Helvetica,sans-Serif" font-size="10.00">+ open_readonly()</text>
<text text-anchor="start" x="544.893" y="-339" font-family="Helvetica,sans-Serif" font-size="10.00">+ open_append()</text>
<text text-anchor="start" x="544.893" y="-329" font-family="Helvetica,sans-Serif" font-size="10.00">+ create()</text>
<text text-anchor="start" x="544.893" y="-319" font-family="Helvetica,sans-Serif" font-size="10.00">+ read()</text>
<text text-anchor="start" x="544.893" y="-309" font-family="Helvetica,sans-Serif" font-size="10.00">+ read()</text>
<text text-anchor="start" x="544.893" y="-299" font-family="Helvetica,sans-Serif" font-size="10.00">+ write()</text>
<text text-anchor="start" x="544.893" y="-289" font-family="Helvetica,sans-Serif" font-size="10.00">+ write()</text>
<text text-anchor="start" x="544.893" y="-279" font-family="Helvetica,sans-Serif" font-size="10.00">and 12 more...</text>
<text text-anchor="start" x="544.893" y="-269" font-family="Helvetica,sans-Serif" font-size="10.00">+ remove()</text>
<text text-anchor="start" x="544.893" y="-259" font-family="Helvetica,sans-Serif" font-size="10.00">+ stat()</text>
<text text-anchor="start" x="544.893" y="-249" font-family="Helvetica,sans-Serif" font-size="10.00">+ size()</text>
<text text-anchor="start" x="544.893" y="-239" font-family="Helvetica,sans-Serif" font-size="10.00">+ name()</text>
</a>
</g>
</g>
<!-- Node1&#45;&gt;Node14 -->
<g id="edge13" class="edge"><title>Node1&#45;&gt;Node14</title>
<path fill="none" stroke="midnightblue" d="M550.519,-454.899C553.123,-446.053 555.878,-436.697 558.66,-427.247"/>
<polygon fill="none" stroke="midnightblue" points="547.116,-454.064 547.649,-464.646 553.831,-456.041 547.116,-454.064"/>
</g>
<!-- Node3 -->
<g id="node3" class="node"><title>Node3</title>
<g id="a_node3"><a xlink:href="class_hal_1_1_adc.html" target="_top" xlink:title="ADC Peripheral Class. ">
<polygon fill="none" stroke="black" points="-0.533203,-41 -0.533203,-155 58.5332,-155 58.5332,-41 -0.533203,-41"/>
<text text-anchor="middle" x="29" y="-143" font-family="Helvetica,sans-Serif" font-size="10.00">Hal::Adc</text>
<polyline fill="none" stroke="black" points="-0.533203,-137 58.5332,-137 "/>
<text text-anchor="middle" x="29" y="-125" font-family="Helvetica,sans-Serif" font-size="10.00"> </text>
<polyline fill="none" stroke="black" points="-0.533203,-119 58.5332,-119 "/>
<text text-anchor="start" x="7.4668" y="-107" font-family="Helvetica,sans-Serif" font-size="10.00">+ Adc()</text>
<text text-anchor="start" x="7.4668" y="-97" font-family="Helvetica,sans-Serif" font-size="10.00">+ open()</text>
<text text-anchor="start" x="7.4668" y="-87" font-family="Helvetica,sans-Serif" font-size="10.00">+ attr()</text>
<text text-anchor="start" x="7.4668" y="-77" font-family="Helvetica,sans-Serif" font-size="10.00">+ setattr()</text>
<text text-anchor="start" x="7.4668" y="-67" font-family="Helvetica,sans-Serif" font-size="10.00">+ setattr()</text>
<text text-anchor="start" x="7.4668" y="-57" font-family="Helvetica,sans-Serif" font-size="10.00">+ init()</text>
<text text-anchor="start" x="7.4668" y="-47" font-family="Helvetica,sans-Serif" font-size="10.00">+ ports()</text>
</a>
</g>
</g>
<!-- Node2&#45;&gt;Node3 -->
<g id="edge2" class="edge"><title>Node2&#45;&gt;Node3</title>
<path fill="none" stroke="midnightblue" d="M433.259,-326.602C348.642,-319.853 171.454,-294.118 67,-196 55.3334,-185.041 47.1918,-170.067 41.5322,-155.163"/>
<polygon fill="none" stroke="midnightblue" points="433.12,-330.101 443.352,-327.351 433.638,-323.121 433.12,-330.101"/>
</g>
<!-- Node4 -->
<g id="node4" class="node"><title>Node4</title>
<g id="a_node4"><a xlink:href="class_hal_1_1_core.html" target="_top" xlink:title="Core Class. ">
<polygon fill="none" stroke="black" points="76.2773,-6 76.2773,-190 183.723,-190 183.723,-6 76.2773,-6"/>
<text text-anchor="middle" x="130" y="-178" font-family="Helvetica,sans-Serif" font-size="10.00">Hal::Core</text>
<polyline fill="none" stroke="black" points="76.2773,-172 183.723,-172 "/>
<text text-anchor="middle" x="130" y="-160" font-family="Helvetica,sans-Serif" font-size="10.00"> </text>
<polyline fill="none" stroke="black" points="76.2773,-154 183.723,-154 "/>
<text text-anchor="start" x="84.2773" y="-142" font-family="Helvetica,sans-Serif" font-size="10.00">+ Core()</text>
<text text-anchor="start" x="84.2773" y="-132" font-family="Helvetica,sans-Serif" font-size="10.00">+ open()</text>
<text text-anchor="start" x="84.2773" y="-122" font-family="Helvetica,sans-Serif" font-size="10.00">+ attr()</text>
<text text-anchor="start" x="84.2773" y="-112" font-family="Helvetica,sans-Serif" font-size="10.00">+ setattr()</text>
<text text-anchor="start" x="84.2773" y="-102" font-family="Helvetica,sans-Serif" font-size="10.00">+ setpinfunc()</text>
<text text-anchor="start" x="84.2773" y="-92" font-family="Helvetica,sans-Serif" font-size="10.00">+ setpinfunc()</text>
<text text-anchor="start" x="84.2773" y="-82" font-family="Helvetica,sans-Serif" font-size="10.00">+ setpinfunc()</text>
<text text-anchor="start" x="84.2773" y="-72" font-family="Helvetica,sans-Serif" font-size="10.00">+ sleep()</text>
<text text-anchor="start" x="84.2773" y="-62" font-family="Helvetica,sans-Serif" font-size="10.00">+ reset()</text>
<text text-anchor="start" x="84.2773" y="-52" font-family="Helvetica,sans-Serif" font-size="10.00">+ invokebootloader()</text>
<text text-anchor="start" x="84.2773" y="-42" font-family="Helvetica,sans-Serif" font-size="10.00">+ setirqprio()</text>
<text text-anchor="start" x="84.2773" y="-32" font-family="Helvetica,sans-Serif" font-size="10.00">+ setirqprio()</text>
<text text-anchor="start" x="84.2773" y="-22" font-family="Helvetica,sans-Serif" font-size="10.00">+ setclkout()</text>
<text text-anchor="start" x="84.2773" y="-12" font-family="Helvetica,sans-Serif" font-size="10.00">+ ports()</text>
</a>
</g>
</g>
<!-- Node2&#45;&gt;Node4 -->
<g id="edge3" class="edge"><title>Node2&#45;&gt;Node4</title>
<path fill="none" stroke="midnightblue" d="M433.658,-316.329C372.298,-298.017 264.584,-259.237 192,-196 189.288,-193.637 186.65,-191.126 184.09,-188.501"/>
<polygon fill="none" stroke="midnightblue" points="432.881,-319.749 443.461,-319.198 434.847,-313.03 432.881,-319.749"/>
</g>
<!-- Node5 -->
<g id="node5" class="node"><title>Node5</title>
<g id="a_node5"><a xlink:href="class_hal_1_1_dac.html" target="_top" xlink:title="DAC Class. ">
<polygon fill="none" stroke="black" points="201.467,-31 201.467,-165 260.533,-165 260.533,-31 201.467,-31"/>
<text text-anchor="middle" x="231" y="-153" font-family="Helvetica,sans-Serif" font-size="10.00">Hal::Dac</text>
<polyline fill="none" stroke="black" points="201.467,-147 260.533,-147 "/>
<text text-anchor="middle" x="231" y="-135" font-family="Helvetica,sans-Serif" font-size="10.00"> </text>
<polyline fill="none" stroke="black" points="201.467,-129 260.533,-129 "/>
<text text-anchor="start" x="209.467" y="-117" font-family="Helvetica,sans-Serif" font-size="10.00">+ Dac()</text>
<text text-anchor="start" x="209.467" y="-107" font-family="Helvetica,sans-Serif" font-size="10.00">+ open()</text>
<text text-anchor="start" x="209.467" y="-97" font-family="Helvetica,sans-Serif" font-size="10.00">+ attr()</text>
<text text-anchor="start" x="209.467" y="-87" font-family="Helvetica,sans-Serif" font-size="10.00">+ setattr()</text>
<text text-anchor="start" x="209.467" y="-77" font-family="Helvetica,sans-Serif" font-size="10.00">+ value()</text>
<text text-anchor="start" x="209.467" y="-67" font-family="Helvetica,sans-Serif" font-size="10.00">+ get()</text>
<text text-anchor="start" x="209.467" y="-57" font-family="Helvetica,sans-Serif" font-size="10.00">+ setattr()</text>
<text text-anchor="start" x="209.467" y="-47" font-family="Helvetica,sans-Serif" font-size="10.00">+ init()</text>
<text text-anchor="start" x="209.467" y="-37" font-family="Helvetica,sans-Serif" font-size="10.00">+ set()</text>
</a>
</g>
</g>
<!-- Node2&#45;&gt;Node5 -->
<g id="edge4" class="edge"><title>Node2&#45;&gt;Node5</title>
<path fill="none" stroke="midnightblue" d="M433.861,-310.051C386.32,-288.766 313.738,-249.992 269,-196 261.441,-186.878 255.263,-176.074 250.254,-165.046"/>
<polygon fill="none" stroke="midnightblue" points="432.749,-313.386 443.313,-314.201 435.563,-306.976 432.749,-313.386"/>
</g>
<!-- Node6 -->
<g id="node6" class="node"><title>Node6</title>
<g id="a_node6"><a xlink:href="class_hal_1_1_eint.html" target="_top" xlink:title="External Interrupt Class. ">
<polygon fill="none" stroke="black" points="278.349,-21 278.349,-175 349.651,-175 349.651,-21 278.349,-21"/>
<text text-anchor="middle" x="314" y="-163" font-family="Helvetica,sans-Serif" font-size="10.00">Hal::Eint</text>
<polyline fill="none" stroke="black" points="278.349,-157 349.651,-157 "/>
<text text-anchor="middle" x="314" y="-145" font-family="Helvetica,sans-Serif" font-size="10.00"> </text>
<polyline fill="none" stroke="black" points="278.349,-139 349.651,-139 "/>
<text text-anchor="start" x="286.349" y="-127" font-family="Helvetica,sans-Serif" font-size="10.00">+ Eint()</text>
<text text-anchor="start" x="286.349" y="-117" font-family="Helvetica,sans-Serif" font-size="10.00">+ open()</text>
<text text-anchor="start" x="286.349" y="-107" font-family="Helvetica,sans-Serif" font-size="10.00">+ attr()</text>
<text text-anchor="start" x="286.349" y="-97" font-family="Helvetica,sans-Serif" font-size="10.00">+ setattr()</text>
<text text-anchor="start" x="286.349" y="-87" font-family="Helvetica,sans-Serif" font-size="10.00">+ setaction()</text>
<text text-anchor="start" x="286.349" y="-77" font-family="Helvetica,sans-Serif" font-size="10.00">+ value()</text>
<text text-anchor="start" x="286.349" y="-67" font-family="Helvetica,sans-Serif" font-size="10.00">+ get()</text>
<text text-anchor="start" x="286.349" y="-57" font-family="Helvetica,sans-Serif" font-size="10.00">+ setaction()</text>
<text text-anchor="start" x="286.349" y="-47" font-family="Helvetica,sans-Serif" font-size="10.00">+ setattr()</text>
<text text-anchor="start" x="286.349" y="-37" font-family="Helvetica,sans-Serif" font-size="10.00">+ init()</text>
<text text-anchor="start" x="286.349" y="-27" font-family="Helvetica,sans-Serif" font-size="10.00">+ ports()</text>
</a>
</g>
</g>
<!-- Node2&#45;&gt;Node6 -->
<g id="edge5" class="edge"><title>Node2&#45;&gt;Node6</title>
<path fill="none" stroke="midnightblue" d="M436.128,-287.582C410.958,-262.724 380.246,-229.506 358,-196 353.653,-189.453 349.537,-182.406 345.694,-175.206"/>
<polygon fill="none" stroke="midnightblue" points="433.806,-290.207 443.406,-294.691 438.698,-285.2 433.806,-290.207"/>
</g>
<!-- Node7 -->
<g id="node7" class="node"><title>Node7</title>
<g id="a_node7"><a xlink:href="class_hal_1_1_i2_c.html" target="_top" xlink:title="I2C Peripheral Class. ">
<polygon fill="none" stroke="black" points="367.467,-1 367.467,-195 426.533,-195 426.533,-1 367.467,-1"/>
<text text-anchor="middle" x="397" y="-183" font-family="Helvetica,sans-Serif" font-size="10.00">Hal::I2C</text>
<polyline fill="none" stroke="black" points="367.467,-177 426.533,-177 "/>
<text text-anchor="middle" x="397" y="-165" font-family="Helvetica,sans-Serif" font-size="10.00"> </text>
<polyline fill="none" stroke="black" points="367.467,-159 426.533,-159 "/>
<text text-anchor="start" x="375.467" y="-147" font-family="Helvetica,sans-Serif" font-size="10.00">+ I2C()</text>
<text text-anchor="start" x="375.467" y="-137" font-family="Helvetica,sans-Serif" font-size="10.00">+ open()</text>
<text text-anchor="start" x="375.467" y="-127" font-family="Helvetica,sans-Serif" font-size="10.00">+ attr()</text>
<text text-anchor="start" x="375.467" y="-117" font-family="Helvetica,sans-Serif" font-size="10.00">+ setattr()</text>
<text text-anchor="start" x="375.467" y="-107" font-family="Helvetica,sans-Serif" font-size="10.00">+ setup()</text>
<text text-anchor="start" x="375.467" y="-97" font-family="Helvetica,sans-Serif" font-size="10.00">+ geterr()</text>
<text text-anchor="start" x="375.467" y="-87" font-family="Helvetica,sans-Serif" font-size="10.00">+ err()</text>
<text text-anchor="start" x="375.467" y="-77" font-family="Helvetica,sans-Serif" font-size="10.00">+ setup()</text>
<text text-anchor="start" x="375.467" y="-67" font-family="Helvetica,sans-Serif" font-size="10.00">+ setattr()</text>
<text text-anchor="start" x="375.467" y="-57" font-family="Helvetica,sans-Serif" font-size="10.00">+ init()</text>
<text text-anchor="start" x="375.467" y="-47" font-family="Helvetica,sans-Serif" font-size="10.00">+ read()</text>
<text text-anchor="start" x="375.467" y="-37" font-family="Helvetica,sans-Serif" font-size="10.00">+ write()</text>
<text text-anchor="start" x="375.467" y="-27" font-family="Helvetica,sans-Serif" font-size="10.00">+ set()</text>
<text text-anchor="start" x="375.467" y="-17" font-family="Helvetica,sans-Serif" font-size="10.00">+ clear()</text>
<text text-anchor="start" x="375.467" y="-7" font-family="Helvetica,sans-Serif" font-size="10.00">+ ports()</text>
</a>
</g>
</g>
<!-- Node2&#45;&gt;Node7 -->
<g id="edge6" class="edge"><title>Node2&#45;&gt;Node7</title>
<path fill="none" stroke="midnightblue" d="M445.938,-232.998C439.51,-215.397 432.859,-197.186 426.61,-180.075"/>
<polygon fill="none" stroke="midnightblue" points="442.764,-234.51 449.483,-242.702 449.34,-232.108 442.764,-234.51"/>
</g>
<!-- Node8 -->
<g id="node8" class="node"><title>Node8</title>
<g id="a_node8"><a xlink:href="class_hal_1_1_pio.html" target="_top" xlink:title="Pin Input/Output Class. ">
<polygon fill="none" stroke="red" points="444.79,-1 444.79,-195 517.21,-195 517.21,-1 444.79,-1"/>
<text text-anchor="middle" x="481" y="-183" font-family="Helvetica,sans-Serif" font-size="10.00">Hal::Pio</text>
<polyline fill="none" stroke="red" points="444.79,-177 517.21,-177 "/>
<text text-anchor="middle" x="481" y="-165" font-family="Helvetica,sans-Serif" font-size="10.00"> </text>
<polyline fill="none" stroke="red" points="444.79,-159 517.21,-159 "/>
<text text-anchor="start" x="452.79" y="-147" font-family="Helvetica,sans-Serif" font-size="10.00">+ Pio()</text>
<text text-anchor="start" x="452.79" y="-137" font-family="Helvetica,sans-Serif" font-size="10.00">+ open()</text>
<text text-anchor="start" x="452.79" y="-127" font-family="Helvetica,sans-Serif" font-size="10.00">+ attr()</text>
<text text-anchor="start" x="452.79" y="-117" font-family="Helvetica,sans-Serif" font-size="10.00">+ setattr()</text>
<text text-anchor="start" x="452.79" y="-107" font-family="Helvetica,sans-Serif" font-size="10.00">+ setaction()</text>
<text text-anchor="start" x="452.79" y="-97" font-family="Helvetica,sans-Serif" font-size="10.00">+ setmask()</text>
<text text-anchor="start" x="452.79" y="-87" font-family="Helvetica,sans-Serif" font-size="10.00">+ clrmask()</text>
<text text-anchor="start" x="452.79" y="-77" font-family="Helvetica,sans-Serif" font-size="10.00">+ get()</text>
<text text-anchor="start" x="452.79" y="-67" font-family="Helvetica,sans-Serif" font-size="10.00">+ value()</text>
<text text-anchor="start" x="452.79" y="-57" font-family="Helvetica,sans-Serif" font-size="10.00">+ set()</text>
<text text-anchor="start" x="452.79" y="-47" font-family="Helvetica,sans-Serif" font-size="10.00">+ setattr()</text>
<text text-anchor="start" x="452.79" y="-37" font-family="Helvetica,sans-Serif" font-size="10.00">+ init()</text>
<text text-anchor="start" x="452.79" y="-27" font-family="Helvetica,sans-Serif" font-size="10.00">+ setoutput()</text>
<text text-anchor="start" x="452.79" y="-17" font-family="Helvetica,sans-Serif" font-size="10.00">+ setinput()</text>
<text text-anchor="start" x="452.79" y="-7" font-family="Helvetica,sans-Serif" font-size="10.00">+ ports()</text>
</a>
</g>
</g>
<!-- Node2&#45;&gt;Node8 -->
<g id="edge7" class="edge"><title>Node2&#45;&gt;Node8</title>
<path fill="none" stroke="midnightblue" d="M481,-232.402C481,-220.044 481,-207.394 481,-195.044"/>
<polygon fill="none" stroke="midnightblue" points="477.5,-232.702 481,-242.702 484.5,-232.702 477.5,-232.702"/>
</g>
<!-- Node9 -->
<g id="node9" class="node"><title>Node9</title>
<g id="a_node9"><a xlink:href="class_hal_1_1_pwm.html" target="_top" xlink:title="PWM Class. ">
<polygon fill="none" stroke="black" points="535.467,-31 535.467,-165 594.533,-165 594.533,-31 535.467,-31"/>
<text text-anchor="middle" x="565" y="-153" font-family="Helvetica,sans-Serif" font-size="10.00">Hal::Pwm</text>
<polyline fill="none" stroke="black" points="535.467,-147 594.533,-147 "/>
<text text-anchor="middle" x="565" y="-135" font-family="Helvetica,sans-Serif" font-size="10.00"> </text>
<polyline fill="none" stroke="black" points="535.467,-129 594.533,-129 "/>
<text text-anchor="start" x="543.467" y="-117" font-family="Helvetica,sans-Serif" font-size="10.00">+ Pwm()</text>
<text text-anchor="start" x="543.467" y="-107" font-family="Helvetica,sans-Serif" font-size="10.00">+ open()</text>
<text text-anchor="start" x="543.467" y="-97" font-family="Helvetica,sans-Serif" font-size="10.00">+ attr()</text>
<text text-anchor="start" x="543.467" y="-87" font-family="Helvetica,sans-Serif" font-size="10.00">+ setattr()</text>
<text text-anchor="start" x="543.467" y="-77" font-family="Helvetica,sans-Serif" font-size="10.00">+ set()</text>
<text text-anchor="start" x="543.467" y="-67" font-family="Helvetica,sans-Serif" font-size="10.00">+ set()</text>
<text text-anchor="start" x="543.467" y="-57" font-family="Helvetica,sans-Serif" font-size="10.00">+ setattr()</text>
<text text-anchor="start" x="543.467" y="-47" font-family="Helvetica,sans-Serif" font-size="10.00">+ init()</text>
<text text-anchor="start" x="543.467" y="-37" font-family="Helvetica,sans-Serif" font-size="10.00">+ ports()</text>
</a>
</g>
</g>
<!-- Node2&#45;&gt;Node9 -->
<g id="edge8" class="edge"><title>Node2&#45;&gt;Node9</title>
<path fill="none" stroke="midnightblue" d="M516.057,-233.01C524.379,-210.223 533.076,-186.412 540.79,-165.29"/>
<polygon fill="none" stroke="midnightblue" points="512.66,-232.108 512.517,-242.702 519.236,-234.51 512.66,-232.108"/>
</g>
<!-- Node10 -->
<g id="node10" class="node"><title>Node10</title>
<g id="a_node10"><a xlink:href="class_hal_1_1_rtc.html" target="_top" xlink:title="RTC Class. ">
<polygon fill="none" stroke="black" points="613.014,-21 613.014,-175 700.986,-175 700.986,-21 613.014,-21"/>
<text text-anchor="middle" x="657" y="-163" font-family="Helvetica,sans-Serif" font-size="10.00">Hal::Rtc</text>
<polyline fill="none" stroke="black" points="613.014,-157 700.986,-157 "/>
<text text-anchor="middle" x="657" y="-145" font-family="Helvetica,sans-Serif" font-size="10.00"> </text>
<polyline fill="none" stroke="black" points="613.014,-139 700.986,-139 "/>
<text text-anchor="start" x="621.014" y="-127" font-family="Helvetica,sans-Serif" font-size="10.00">+ Rtc()</text>
<text text-anchor="start" x="621.014" y="-117" font-family="Helvetica,sans-Serif" font-size="10.00">+ open()</text>
<text text-anchor="start" x="621.014" y="-107" font-family="Helvetica,sans-Serif" font-size="10.00">+ attr()</text>
<text text-anchor="start" x="621.014" y="-97" font-family="Helvetica,sans-Serif" font-size="10.00">+ setattr()</text>
<text text-anchor="start" x="621.014" y="-87" font-family="Helvetica,sans-Serif" font-size="10.00">+ setaction()</text>
<text text-anchor="start" x="621.014" y="-77" font-family="Helvetica,sans-Serif" font-size="10.00">+ setalarm()</text>
<text text-anchor="start" x="621.014" y="-67" font-family="Helvetica,sans-Serif" font-size="10.00">+ getalarm()</text>
<text text-anchor="start" x="621.014" y="-57" font-family="Helvetica,sans-Serif" font-size="10.00">+ disablealarm()</text>
<text text-anchor="start" x="621.014" y="-47" font-family="Helvetica,sans-Serif" font-size="10.00">+ set()</text>
<text text-anchor="start" x="621.014" y="-37" font-family="Helvetica,sans-Serif" font-size="10.00">+ get()</text>
<text text-anchor="start" x="621.014" y="-27" font-family="Helvetica,sans-Serif" font-size="10.00">+ ports()</text>
</a>
</g>
</g>
<!-- Node2&#45;&gt;Node10 -->
<g id="edge9" class="edge"><title>Node2&#45;&gt;Node10</title>
<path fill="none" stroke="midnightblue" d="M525.251,-234.851C526.152,-233.879 527.068,-232.929 528,-232 554.193,-205.903 576.077,-221.343 603,-196 609.456,-189.923 615.335,-182.898 620.637,-175.462"/>
<polygon fill="none" stroke="midnightblue" points="522.432,-232.764 518.648,-242.66 527.777,-237.284 522.432,-232.764"/>
</g>
<!-- Node11 -->
<g id="node11" class="node"><title>Node11</title>
<g id="a_node11"><a xlink:href="class_hal_1_1_spi.html" target="_top" xlink:title="SPI Class. ">
<polygon fill="none" stroke="black" points="718.957,-31 718.957,-165 793.043,-165 793.043,-31 718.957,-31"/>
<text text-anchor="middle" x="756" y="-153" font-family="Helvetica,sans-Serif" font-size="10.00">Hal::Spi</text>
<polyline fill="none" stroke="black" points="718.957,-147 793.043,-147 "/>
<text text-anchor="middle" x="756" y="-135" font-family="Helvetica,sans-Serif" font-size="10.00"> </text>
<polyline fill="none" stroke="black" points="718.957,-129 793.043,-129 "/>
<text text-anchor="start" x="726.957" y="-117" font-family="Helvetica,sans-Serif" font-size="10.00">+ Spi()</text>
<text text-anchor="start" x="726.957" y="-107" font-family="Helvetica,sans-Serif" font-size="10.00">+ open()</text>
<text text-anchor="start" x="726.957" y="-97" font-family="Helvetica,sans-Serif" font-size="10.00">+ attr()</text>
<text text-anchor="start" x="726.957" y="-87" font-family="Helvetica,sans-Serif" font-size="10.00">+ setattr()</text>
<text text-anchor="start" x="726.957" y="-77" font-family="Helvetica,sans-Serif" font-size="10.00">+ swap()</text>
<text text-anchor="start" x="726.957" y="-67" font-family="Helvetica,sans-Serif" font-size="10.00">+ setduplex()</text>
<text text-anchor="start" x="726.957" y="-57" font-family="Helvetica,sans-Serif" font-size="10.00">+ setattr()</text>
<text text-anchor="start" x="726.957" y="-47" font-family="Helvetica,sans-Serif" font-size="10.00">+ init()</text>
<text text-anchor="start" x="726.957" y="-37" font-family="Helvetica,sans-Serif" font-size="10.00">+ ports()</text>
</a>
</g>
</g>
<!-- Node2&#45;&gt;Node11 -->
<g id="edge10" class="edge"><title>Node2&#45;&gt;Node11</title>
<path fill="none" stroke="midnightblue" d="M523.846,-235.461C525.19,-234.257 526.575,-233.101 528,-232 592.898,-181.844 644.102,-246.156 709,-196 719.513,-187.875 727.809,-176.796 734.31,-165.026"/>
<polygon fill="none" stroke="midnightblue" points="521.092,-233.27 516.571,-242.852 526.08,-238.181 521.092,-233.27"/>
</g>
<!-- Node12 -->
<g id="node12" class="node"><title>Node12</title>
<g id="a_node12"><a xlink:href="class_hal_1_1_tmr.html" target="_top" xlink:title="Tmr (hardware timer) Class. ">
<polygon fill="none" stroke="black" points="811.127,-16 811.127,-180 890.873,-180 890.873,-16 811.127,-16"/>
<text text-anchor="middle" x="851" y="-168" font-family="Helvetica,sans-Serif" font-size="10.00">Hal::Tmr</text>
<polyline fill="none" stroke="black" points="811.127,-162 890.873,-162 "/>
<text text-anchor="middle" x="851" y="-150" font-family="Helvetica,sans-Serif" font-size="10.00"> </text>
<polyline fill="none" stroke="black" points="811.127,-144 890.873,-144 "/>
<text text-anchor="start" x="819.127" y="-132" font-family="Helvetica,sans-Serif" font-size="10.00">+ Tmr()</text>
<text text-anchor="start" x="819.127" y="-122" font-family="Helvetica,sans-Serif" font-size="10.00">+ open()</text>
<text text-anchor="start" x="819.127" y="-112" font-family="Helvetica,sans-Serif" font-size="10.00">+ attr()</text>
<text text-anchor="start" x="819.127" y="-102" font-family="Helvetica,sans-Serif" font-size="10.00">+ setattr()</text>
<text text-anchor="start" x="819.127" y="-92" font-family="Helvetica,sans-Serif" font-size="10.00">+ setaction()</text>
<text text-anchor="start" x="819.127" y="-82" font-family="Helvetica,sans-Serif" font-size="10.00">+ setaction()</text>
<text text-anchor="start" x="819.127" y="-72" font-family="Helvetica,sans-Serif" font-size="10.00">+ on()</text>
<text text-anchor="start" x="819.127" y="-62" font-family="Helvetica,sans-Serif" font-size="10.00">+ off()</text>
<text text-anchor="start" x="819.127" y="-52" font-family="Helvetica,sans-Serif" font-size="10.00">+ setoc()</text>
<text text-anchor="start" x="819.127" y="-42" font-family="Helvetica,sans-Serif" font-size="10.00">+ setoc()</text>
<text text-anchor="start" x="819.127" y="-32" font-family="Helvetica,sans-Serif" font-size="10.00">and 11 more...</text>
<text text-anchor="start" x="819.127" y="-22" font-family="Helvetica,sans-Serif" font-size="10.00">+ ports()</text>
</a>
</g>
</g>
<!-- Node2&#45;&gt;Node12 -->
<g id="edge11" class="edge"><title>Node2&#45;&gt;Node12</title>
<path fill="none" stroke="midnightblue" d="M523.214,-235.786C524.755,-234.456 526.35,-233.191 528,-232 627.598,-160.124 701.811,-267.049 802,-196 808.156,-191.635 813.585,-186.265 818.363,-180.312"/>
<polygon fill="none" stroke="midnightblue" points="520.616,-233.432 515.947,-242.943 525.528,-238.419 520.616,-233.432"/>
</g>
<!-- Node13 -->
<g id="node13" class="node"><title>Node13</title>
<g id="a_node13"><a xlink:href="class_hal_1_1_uart.html" target="_top" xlink:title="UART Class. ">
<polygon fill="none" stroke="red" points="908.959,-31 908.959,-165 973.041,-165 973.041,-31 908.959,-31"/>
<text text-anchor="middle" x="941" y="-153" font-family="Helvetica,sans-Serif" font-size="10.00">Hal::Uart</text>
<polyline fill="none" stroke="red" points="908.959,-147 973.041,-147 "/>
<text text-anchor="middle" x="941" y="-135" font-family="Helvetica,sans-Serif" font-size="10.00"> </text>
<polyline fill="none" stroke="red" points="908.959,-129 973.041,-129 "/>
<text text-anchor="start" x="916.959" y="-117" font-family="Helvetica,sans-Serif" font-size="10.00">+ Uart()</text>
<text text-anchor="start" x="916.959" y="-107" font-family="Helvetica,sans-Serif" font-size="10.00">+ open()</text>
<text text-anchor="start" x="916.959" y="-97" font-family="Helvetica,sans-Serif" font-size="10.00">+ attr()</text>
<text text-anchor="start" x="916.959" y="-87" font-family="Helvetica,sans-Serif" font-size="10.00">+ setattr()</text>
<text text-anchor="start" x="916.959" y="-77" font-family="Helvetica,sans-Serif" font-size="10.00">+ getbyte()</text>
<text text-anchor="start" x="916.959" y="-67" font-family="Helvetica,sans-Serif" font-size="10.00">+ flush()</text>
<text text-anchor="start" x="916.959" y="-57" font-family="Helvetica,sans-Serif" font-size="10.00">+ setattr()</text>
<text text-anchor="start" x="916.959" y="-47" font-family="Helvetica,sans-Serif" font-size="10.00">+ init()</text>
<text text-anchor="start" x="916.959" y="-37" font-family="Helvetica,sans-Serif" font-size="10.00">+ ports()</text>
</a>
</g>
</g>
<!-- Node2&#45;&gt;Node13 -->
<g id="edge12" class="edge"><title>Node2&#45;&gt;Node13</title>
<path fill="none" stroke="midnightblue" d="M523.159,-235.708C524.717,-234.402 526.33,-233.163 528,-232 663.96,-137.346 765.086,-293.527 899,-196 909.681,-188.222 917.676,-177.146 923.651,-165.242"/>
<polygon fill="none" stroke="midnightblue" points="520.602,-233.311 515.822,-242.766 525.455,-238.356 520.602,-233.311"/>
</g>
</g>
</svg>
