<?xml version="1.0" encoding="UTF-8" standalone="no"?>
<!DOCTYPE svg PUBLIC "-//W3C//DTD SVG 1.1//EN"
 "http://www.w3.org/Graphics/SVG/1.1/DTD/svg11.dtd">
<!-- Generated by graphviz version 2.36.0 (20140111.2315)
 -->
<!-- Title: Hal::Uart Pages: 1 -->
<svg width="88pt" height="620pt"
 viewBox="0.00 0.00 88.00 620.00" xmlns="http://www.w3.org/2000/svg" xmlns:xlink="http://www.w3.org/1999/xlink">
<g id="graph0" class="graph" transform="scale(1 1) rotate(0) translate(4 616)">
<title>Hal::Uart</title>
<!-- Node1 -->
<g id="node1" class="node"><title>Node1</title>
<polygon fill="#bfbfbf" stroke="black" points="7.95947,-133 7.95947,-267 72.0405,-267 72.0405,-133 7.95947,-133"/>
<text text-anchor="middle" x="40" y="-255" font-family="Helvetica,sans-Serif" font-size="10.00">Hal::Uart</text>
<polyline fill="none" stroke="black" points="7.95947,-249 72.0405,-249 "/>
<text text-anchor="middle" x="40" y="-237" font-family="Helvetica,sans-Serif" font-size="10.00"> </text>
<polyline fill="none" stroke="black" points="7.95947,-231 72.0405,-231 "/>
<text text-anchor="start" x="15.9595" y="-219" font-family="Helvetica,sans-Serif" font-size="10.00">+ Uart()</text>
<text text-anchor="start" x="15.9595" y="-209" font-family="Helvetica,sans-Serif" font-size="10.00">+ open()</text>
<text text-anchor="start" x="15.9595" y="-199" font-family="Helvetica,sans-Serif" font-size="10.00">+ attr()</text>
<text text-anchor="start" x="15.9595" y="-189" font-family="Helvetica,sans-Serif" font-size="10.00">+ setattr()</text>
<text text-anchor="start" x="15.9595" y="-179" font-family="Helvetica,sans-Serif" font-size="10.00">+ getbyte()</text>
<text text-anchor="start" x="15.9595" y="-169" font-family="Helvetica,sans-Serif" font-size="10.00">+ flush()</text>
<text text-anchor="start" x="15.9595" y="-159" font-family="Helvetica,sans-Serif" font-size="10.00">+ setattr()</text>
<text text-anchor="start" x="15.9595" y="-149" font-family="Helvetica,sans-Serif" font-size="10.00">+ init()</text>
<text text-anchor="start" x="15.9595" y="-139" font-family="Helvetica,sans-Serif" font-size="10.00">+ ports()</text>
</g>
<!-- Node4 -->
<g id="node4" class="node"><title>Node4</title>
<g id="a_node4"><a xlink:href="class_sys_1_1_dbug_uart.html" target="_top" xlink:title="Debug UART Class. ">
<polygon fill="none" stroke="black" points="-0.512207,-1 -0.512207,-95 80.5122,-95 80.5122,-1 -0.512207,-1"/>
<text text-anchor="middle" x="40" y="-83" font-family="Helvetica,sans-Serif" font-size="10.00">Sys::DbugUart</text>
<polyline fill="none" stroke="black" points="-0.512207,-77 80.5122,-77 "/>
<text text-anchor="middle" x="40" y="-65" font-family="Helvetica,sans-Serif" font-size="10.00"> </text>
<polyline fill="none" stroke="black" points="-0.512207,-59 80.5122,-59 "/>
<text text-anchor="start" x="7.48779" y="-47" font-family="Helvetica,sans-Serif" font-size="10.00">+ DbugUart()</text>
<text text-anchor="start" x="7.48779" y="-37" font-family="Helvetica,sans-Serif" font-size="10.00">+ open()</text>
<text text-anchor="start" x="7.48779" y="-27" font-family="Helvetica,sans-Serif" font-size="10.00">+ close()</text>
<text text-anchor="start" x="7.48779" y="-17" font-family="Helvetica,sans-Serif" font-size="10.00">+ read()</text>
<text text-anchor="start" x="7.48779" y="-7" font-family="Helvetica,sans-Serif" font-size="10.00">+ write()</text>
</a>
</g>
</g>
<!-- Node1&#45;&gt;Node4 -->
<g id="edge3" class="edge"><title>Node1&#45;&gt;Node4</title>
<path fill="none" stroke="midnightblue" d="M40,-122.595C40,-113.203 40,-103.839 40,-95.0946"/>
<polygon fill="none" stroke="midnightblue" points="36.5001,-122.771 40,-132.771 43.5001,-122.771 36.5001,-122.771"/>
</g>
<!-- Node2 -->
<g id="node2" class="node"><title>Node2</title>
<g id="a_node2"><a xlink:href="class_hal_1_1_periph.html" target="_top" xlink:title="Peripheral Class. ">
<polygon fill="none" stroke="black" points="2.53955,-305 2.53955,-479 77.4604,-479 77.4604,-305 2.53955,-305"/>
<text text-anchor="middle" x="40" y="-467" font-family="Helvetica,sans-Serif" font-size="10.00">Hal::Periph</text>
<polyline fill="none" stroke="black" points="2.53955,-461 77.4604,-461 "/>
<text text-anchor="start" x="10.5396" y="-449" font-family="Helvetica,sans-Serif" font-size="10.00"># port_</text>
<text text-anchor="start" x="10.5396" y="-439" font-family="Helvetica,sans-Serif" font-size="10.00"># fd</text>
<polyline fill="none" stroke="black" points="2.53955,-433 77.4604,-433 "/>
<text text-anchor="start" x="10.5396" y="-421" font-family="Helvetica,sans-Serif" font-size="10.00">+ Periph()</text>
<text text-anchor="start" x="10.5396" y="-411" font-family="Helvetica,sans-Serif" font-size="10.00">+ open()</text>
<text text-anchor="start" x="10.5396" y="-401" font-family="Helvetica,sans-Serif" font-size="10.00">+ open()</text>
<text text-anchor="start" x="10.5396" y="-391" font-family="Helvetica,sans-Serif" font-size="10.00">+ setflags()</text>
<text text-anchor="start" x="10.5396" y="-381" font-family="Helvetica,sans-Serif" font-size="10.00">+ read()</text>
<text text-anchor="start" x="10.5396" y="-371" font-family="Helvetica,sans-Serif" font-size="10.00">+ read()</text>
<text text-anchor="start" x="10.5396" y="-361" font-family="Helvetica,sans-Serif" font-size="10.00">+ write()</text>
<text text-anchor="start" x="10.5396" y="-351" font-family="Helvetica,sans-Serif" font-size="10.00">+ readline()</text>
<text text-anchor="start" x="10.5396" y="-341" font-family="Helvetica,sans-Serif" font-size="10.00">+ write()</text>
<text text-anchor="start" x="10.5396" y="-331" font-family="Helvetica,sans-Serif" font-size="10.00">+ write()</text>
<text text-anchor="start" x="10.5396" y="-321" font-family="Helvetica,sans-Serif" font-size="10.00">and 7 more...</text>
<text text-anchor="start" x="10.5396" y="-311" font-family="Helvetica,sans-Serif" font-size="10.00"># _open()</text>
</a>
</g>
</g>
<!-- Node2&#45;&gt;Node1 -->
<g id="edge1" class="edge"><title>Node2&#45;&gt;Node1</title>
<path fill="none" stroke="midnightblue" d="M40,-294.773C40,-285.436 40,-276.114 40,-267.169"/>
<polygon fill="none" stroke="midnightblue" points="36.5001,-294.895 40,-304.895 43.5001,-294.895 36.5001,-294.895"/>
</g>
<!-- Node3 -->
<g id="node3" class="node"><title>Node3</title>
<g id="a_node3"><a xlink:href="class_hal_1_1_phy.html" target="_top" xlink:title="Base Applib Class for Physical devices. ">
<polygon fill="none" stroke="black" points="13.1035,-517 13.1035,-611 66.8965,-611 66.8965,-517 13.1035,-517"/>
<text text-anchor="middle" x="40" y="-599" font-family="Helvetica,sans-Serif" font-size="10.00">Hal::Phy</text>
<polyline fill="none" stroke="black" points="13.1035,-593 66.8965,-593 "/>
<text text-anchor="middle" x="40" y="-581" font-family="Helvetica,sans-Serif" font-size="10.00"> </text>
<polyline fill="none" stroke="black" points="13.1035,-575 66.8965,-575 "/>
<text text-anchor="start" x="21.1035" y="-563" font-family="Helvetica,sans-Serif" font-size="10.00">+ Phy()</text>
<text text-anchor="start" x="21.1035" y="-553" font-family="Helvetica,sans-Serif" font-size="10.00">+ ioctl()</text>
<text text-anchor="start" x="21.1035" y="-543" font-family="Helvetica,sans-Serif" font-size="10.00">+ ioctl()</text>
<text text-anchor="start" x="21.1035" y="-533" font-family="Helvetica,sans-Serif" font-size="10.00">+ ioctl()</text>
<text text-anchor="start" x="21.1035" y="-523" font-family="Helvetica,sans-Serif" font-size="10.00">+ ioctl()</text>
</a>
</g>
</g>
<!-- Node3&#45;&gt;Node2 -->
<g id="edge2" class="edge"><title>Node3&#45;&gt;Node2</title>
<path fill="none" stroke="midnightblue" d="M40,-506.763C40,-497.836 40,-488.428 40,-479.004"/>
<polygon fill="none" stroke="midnightblue" points="36.5001,-506.996 40,-516.996 43.5001,-506.996 36.5001,-506.996"/>
</g>
</g>
</svg>
