<?xml version="1.0" encoding="UTF-8" standalone="no"?>
<!DOCTYPE svg PUBLIC "-//W3C//DTD SVG 1.1//EN"
 "http://www.w3.org/Graphics/SVG/1.1/DTD/svg11.dtd">
<!-- Generated by graphviz version 2.36.0 (20140111.2315)
 -->
<!-- Title: Var::String Pages: 1 -->
<svg width="407pt" height="346pt"
 viewBox="0.00 0.00 407.00 346.00" xmlns="http://www.w3.org/2000/svg" xmlns:xlink="http://www.w3.org/1999/xlink">
<g id="graph0" class="graph" transform="scale(1 1) rotate(0) translate(4 342)">
<title>Var::String</title>
<!-- Node1 -->
<g id="node1" class="node"><title>Node1</title>
<polygon fill="#bfbfbf" stroke="black" points="138.947,-183 138.947,-337 263.053,-337 263.053,-183 138.947,-183"/>
<text text-anchor="middle" x="201" y="-325" font-family="Helvetica,sans-Serif" font-size="10.00">Var::String</text>
<polyline fill="none" stroke="black" points="138.947,-319 263.053,-319 "/>
<text text-anchor="middle" x="201" y="-307" font-family="Helvetica,sans-Serif" font-size="10.00"> </text>
<polyline fill="none" stroke="black" points="138.947,-301 263.053,-301 "/>
<text text-anchor="start" x="146.947" y="-289" font-family="Helvetica,sans-Serif" font-size="10.00">+ String()</text>
<text text-anchor="start" x="146.947" y="-279" font-family="Helvetica,sans-Serif" font-size="10.00">+ String()</text>
<text text-anchor="start" x="146.947" y="-269" font-family="Helvetica,sans-Serif" font-size="10.00">+ String()</text>
<text text-anchor="start" x="146.947" y="-259" font-family="Helvetica,sans-Serif" font-size="10.00">+ String()</text>
<text text-anchor="start" x="146.947" y="-249" font-family="Helvetica,sans-Serif" font-size="10.00">+ operator const char *()</text>
<text text-anchor="start" x="146.947" y="-239" font-family="Helvetica,sans-Serif" font-size="10.00">+ String()</text>
<text text-anchor="start" x="146.947" y="-229" font-family="Helvetica,sans-Serif" font-size="10.00">+ set_capacity()</text>
<text text-anchor="start" x="146.947" y="-219" font-family="Helvetica,sans-Serif" font-size="10.00">+ operator=()</text>
<text text-anchor="start" x="146.947" y="-209" font-family="Helvetica,sans-Serif" font-size="10.00">+ operator&lt;&lt;()</text>
<text text-anchor="start" x="146.947" y="-199" font-family="Helvetica,sans-Serif" font-size="10.00">+ operator&lt;&lt;()</text>
<text text-anchor="start" x="146.947" y="-189" font-family="Helvetica,sans-Serif" font-size="10.00">and 41 more...</text>
</g>
<!-- Node2 -->
<g id="node2" class="node"><title>Node2</title>
<g id="a_node2"><a xlink:href="class_var_1_1_string_name.html" target="_top" xlink:title="String for file names. ">
<polygon fill="none" stroke="black" points="-0.589355,-46 -0.589355,-100 88.5894,-100 88.5894,-46 -0.589355,-46"/>
<text text-anchor="middle" x="44" y="-88" font-family="Helvetica,sans-Serif" font-size="10.00">Var::StringName</text>
<polyline fill="none" stroke="black" points="-0.589355,-82 88.5894,-82 "/>
<text text-anchor="middle" x="44" y="-70" font-family="Helvetica,sans-Serif" font-size="10.00"> </text>
<polyline fill="none" stroke="black" points="-0.589355,-64 88.5894,-64 "/>
<text text-anchor="start" x="7.41064" y="-52" font-family="Helvetica,sans-Serif" font-size="10.00">+ StringName()</text>
</a>
</g>
</g>
<!-- Node1&#45;&gt;Node2 -->
<g id="edge1" class="edge"><title>Node1&#45;&gt;Node2</title>
<path fill="none" stroke="midnightblue" d="M131.765,-186.103C119.915,-172.972 107.914,-159.244 97,-146 84.8587,-131.267 72.1493,-114.07 62.2206,-100.178"/>
<polygon fill="none" stroke="midnightblue" points="129.402,-188.707 138.716,-193.757 134.584,-184.001 129.402,-188.707"/>
</g>
<!-- Node3 -->
<g id="node3" class="node"><title>Node3</title>
<g id="a_node3"><a xlink:href="class_var_1_1_string_path.html" target="_top" xlink:title="String for path names. ">
<polygon fill="none" stroke="black" points="106.462,-31 106.462,-115 189.538,-115 189.538,-31 106.462,-31"/>
<text text-anchor="middle" x="148" y="-103" font-family="Helvetica,sans-Serif" font-size="10.00">Var::StringPath</text>
<polyline fill="none" stroke="black" points="106.462,-97 189.538,-97 "/>
<text text-anchor="middle" x="148" y="-85" font-family="Helvetica,sans-Serif" font-size="10.00"> </text>
<polyline fill="none" stroke="black" points="106.462,-79 189.538,-79 "/>
<text text-anchor="start" x="114.462" y="-67" font-family="Helvetica,sans-Serif" font-size="10.00">+ StringPath()</text>
<text text-anchor="start" x="114.462" y="-57" font-family="Helvetica,sans-Serif" font-size="10.00">+ strip_suffix()</text>
<text text-anchor="start" x="114.462" y="-47" font-family="Helvetica,sans-Serif" font-size="10.00">+ file_name()</text>
<text text-anchor="start" x="114.462" y="-37" font-family="Helvetica,sans-Serif" font-size="10.00">+ filename()</text>
</a>
</g>
</g>
<!-- Node1&#45;&gt;Node3 -->
<g id="edge2" class="edge"><title>Node1&#45;&gt;Node3</title>
<path fill="none" stroke="midnightblue" d="M176.388,-173.089C170.601,-152.892 164.695,-132.274 159.778,-115.113"/>
<polygon fill="none" stroke="midnightblue" points="173.095,-174.303 179.213,-182.953 179.824,-172.375 173.095,-174.303"/>
</g>
<!-- Node4 -->
<g id="node4" class="node"><title>Node4</title>
<g id="a_node4"><a xlink:href="class_var_1_1_string_static.html" target="_top" xlink:title="Static String Template Class. ">
<polygon fill="none" stroke="black" points="207.323,-31 207.323,-115 300.677,-115 300.677,-31 207.323,-31"/>
<text text-anchor="start" x="215.323" y="-103" font-family="Helvetica,sans-Serif" font-size="10.00">Var::StringStatic&lt;</text>
<text text-anchor="middle" x="254" y="-93" font-family="Helvetica,sans-Serif" font-size="10.00"> arraysize &gt;</text>
<polyline fill="none" stroke="black" points="207.323,-87 300.677,-87 "/>
<text text-anchor="middle" x="254" y="-75" font-family="Helvetica,sans-Serif" font-size="10.00"> </text>
<polyline fill="none" stroke="black" points="207.323,-69 300.677,-69 "/>
<text text-anchor="start" x="215.323" y="-57" font-family="Helvetica,sans-Serif" font-size="10.00">+ StringStatic()</text>
<text text-anchor="start" x="215.323" y="-47" font-family="Helvetica,sans-Serif" font-size="10.00">+ StringStatic()</text>
<text text-anchor="start" x="215.323" y="-37" font-family="Helvetica,sans-Serif" font-size="10.00">+ StringStatic()</text>
</a>
</g>
</g>
<!-- Node1&#45;&gt;Node4 -->
<g id="edge3" class="edge"><title>Node1&#45;&gt;Node4</title>
<path fill="none" stroke="midnightblue" d="M225.612,-173.089C231.399,-152.892 237.305,-132.274 242.222,-115.113"/>
<polygon fill="none" stroke="midnightblue" points="222.176,-172.375 222.787,-182.953 228.905,-174.303 222.176,-172.375"/>
</g>
<!-- Node5 -->
<g id="node5" class="node"><title>Node5</title>
<g id="a_node5"><a xlink:href="class_var_1_1_token.html" target="_top" xlink:title="Abstract Token Class. ">
<polygon fill="none" stroke="black" points="318.896,-1 318.896,-145 399.104,-145 399.104,-1 318.896,-1"/>
<text text-anchor="middle" x="359" y="-133" font-family="Helvetica,sans-Serif" font-size="10.00">Var::Token</text>
<polyline fill="none" stroke="black" points="318.896,-127 399.104,-127 "/>
<text text-anchor="middle" x="359" y="-115" font-family="Helvetica,sans-Serif" font-size="10.00"> </text>
<polyline fill="none" stroke="black" points="318.896,-109 399.104,-109 "/>
<text text-anchor="start" x="326.896" y="-97" font-family="Helvetica,sans-Serif" font-size="10.00">+ Token()</text>
<text text-anchor="start" x="326.896" y="-87" font-family="Helvetica,sans-Serif" font-size="10.00">+ Token()</text>
<text text-anchor="start" x="326.896" y="-77" font-family="Helvetica,sans-Serif" font-size="10.00">+ Token()</text>
<text text-anchor="start" x="326.896" y="-67" font-family="Helvetica,sans-Serif" font-size="10.00">+ Token()</text>
<text text-anchor="start" x="326.896" y="-57" font-family="Helvetica,sans-Serif" font-size="10.00">+ parse()</text>
<text text-anchor="start" x="326.896" y="-47" font-family="Helvetica,sans-Serif" font-size="10.00">+ count()</text>
<text text-anchor="start" x="326.896" y="-37" font-family="Helvetica,sans-Serif" font-size="10.00">+ size()</text>
<text text-anchor="start" x="326.896" y="-27" font-family="Helvetica,sans-Serif" font-size="10.00">+ at()</text>
<text text-anchor="start" x="326.896" y="-17" font-family="Helvetica,sans-Serif" font-size="10.00">+ belongs_to()</text>
<text text-anchor="start" x="326.896" y="-7" font-family="Helvetica,sans-Serif" font-size="10.00">+ belongs_to()</text>
</a>
</g>
</g>
<!-- Node1&#45;&gt;Node5 -->
<g id="edge4" class="edge"><title>Node1&#45;&gt;Node5</title>
<path fill="none" stroke="midnightblue" d="M270.016,-190.18C283.365,-175.937 296.94,-160.766 309,-146 312.273,-141.993 315.559,-137.78 318.796,-133.486"/>
<polygon fill="none" stroke="midnightblue" points="267.389,-187.864 263.065,-197.536 272.477,-192.672 267.389,-187.864"/>
</g>
</g>
</svg>
