<?xml version="1.0" encoding="UTF-8" standalone="no"?>
<!DOCTYPE svg PUBLIC "-//W3C//DTD SVG 1.1//EN"
 "http://www.w3.org/Graphics/SVG/1.1/DTD/svg11.dtd">
<!-- Generated by graphviz version 2.36.0 (20140111.2315)
 -->
<!-- Title: Hal::Periph Pages: 1 -->
<svg width="1083pt" height="558pt"
 viewBox="0.00 0.00 1083.00 558.00" xmlns="http://www.w3.org/2000/svg" xmlns:xlink="http://www.w3.org/1999/xlink">
<g id="graph0" class="graph" transform="scale(1 1) rotate(0) translate(4 554)">
<title>Hal::Periph</title>
<!-- Node1 -->
<g id="node1" class="node"><title>Node1</title>
<polygon fill="#bfbfbf" stroke="black" points="485.54,-243 485.54,-417 560.46,-417 560.46,-243 485.54,-243"/>
<text text-anchor="middle" x="523" y="-405" font-family="Helvetica,sans-Serif" font-size="10.00">Hal::Periph</text>
<polyline fill="none" stroke="black" points="485.54,-399 560.46,-399 "/>
<text text-anchor="start" x="493.54" y="-387" font-family="Helvetica,sans-Serif" font-size="10.00"># port_</text>
<text text-anchor="start" x="493.54" y="-377" font-family="Helvetica,sans-Serif" font-size="10.00"># fd</text>
<polyline fill="none" stroke="black" points="485.54,-371 560.46,-371 "/>
<text text-anchor="start" x="493.54" y="-359" font-family="Helvetica,sans-Serif" font-size="10.00">+ Periph()</text>
<text text-anchor="start" x="493.54" y="-349" font-family="Helvetica,sans-Serif" font-size="10.00">+ open()</text>
<text text-anchor="start" x="493.54" y="-339" font-family="Helvetica,sans-Serif" font-size="10.00">+ open()</text>
<text text-anchor="start" x="493.54" y="-329" font-family="Helvetica,sans-Serif" font-size="10.00">+ setflags()</text>
<text text-anchor="start" x="493.54" y="-319" font-family="Helvetica,sans-Serif" font-size="10.00">+ read()</text>
<text text-anchor="start" x="493.54" y="-309" font-family="Helvetica,sans-Serif" font-size="10.00">+ read()</text>
<text text-anchor="start" x="493.54" y="-299" font-family="Helvetica,sans-Serif" font-size="10.00">+ write()</text>
<text text-anchor="start" x="493.54" y="-289" font-family="Helvetica,sans-Serif" font-size="10.00">+ readline()</text>
<text text-anchor="start" x="493.54" y="-279" font-family="Helvetica,sans-Serif" font-size="10.00">+ write()</text>
<text text-anchor="start" x="493.54" y="-269" font-family="Helvetica,sans-Serif" font-size="10.00">+ write()</text>
<text text-anchor="start" x="493.54" y="-259" font-family="Helvetica,sans-Serif" font-size="10.00">and 7 more...</text>
<text text-anchor="start" x="493.54" y="-249" font-family="Helvetica,sans-Serif" font-size="10.00"># _open()</text>
</g>
<!-- Node3 -->
<g id="node3" class="node"><title>Node3</title>
<g id="a_node3"><a xlink:href="class_hal_1_1_adc.html" target="_top" xlink:title="ADC Peripheral Class. ">
<polygon fill="none" stroke="black" points="-0.533203,-46 -0.533203,-160 58.5332,-160 58.5332,-46 -0.533203,-46"/>
<text text-anchor="middle" x="29" y="-148" font-family="Helvetica,sans-Serif" font-size="10.00">Hal::Adc</text>
<polyline fill="none" stroke="black" points="-0.533203,-142 58.5332,-142 "/>
<text text-anchor="middle" x="29" y="-130" font-family="Helvetica,sans-Serif" font-size="10.00"> </text>
<polyline fill="none" stroke="black" points="-0.533203,-124 58.5332,-124 "/>
<text text-anchor="start" x="7.4668" y="-112" font-family="Helvetica,sans-Serif" font-size="10.00">+ Adc()</text>
<text text-anchor="start" x="7.4668" y="-102" font-family="Helvetica,sans-Serif" font-size="10.00">+ open()</text>
<text text-anchor="start" x="7.4668" y="-92" font-family="Helvetica,sans-Serif" font-size="10.00">+ attr()</text>
<text text-anchor="start" x="7.4668" y="-82" font-family="Helvetica,sans-Serif" font-size="10.00">+ setattr()</text>
<text text-anchor="start" x="7.4668" y="-72" font-family="Helvetica,sans-Serif" font-size="10.00">+ setattr()</text>
<text text-anchor="start" x="7.4668" y="-62" font-family="Helvetica,sans-Serif" font-size="10.00">+ init()</text>
<text text-anchor="start" x="7.4668" y="-52" font-family="Helvetica,sans-Serif" font-size="10.00">+ ports()</text>
</a>
</g>
</g>
<!-- Node1&#45;&gt;Node3 -->
<g id="edge2" class="edge"><title>Node1&#45;&gt;Node3</title>
<path fill="none" stroke="midnightblue" d="M475.424,-329.687C384.382,-328.411 184.172,-312.736 67,-206 53.7983,-193.974 45.1651,-176.928 39.5265,-160.206"/>
<polygon fill="none" stroke="midnightblue" points="475.423,-333.187 485.453,-329.775 475.484,-326.188 475.423,-333.187"/>
</g>
<!-- Node4 -->
<g id="node4" class="node"><title>Node4</title>
<g id="a_node4"><a xlink:href="class_hal_1_1_core.html" target="_top" xlink:title="Core Class. ">
<polygon fill="none" stroke="black" points="76.2773,-11 76.2773,-195 183.723,-195 183.723,-11 76.2773,-11"/>
<text text-anchor="middle" x="130" y="-183" font-family="Helvetica,sans-Serif" font-size="10.00">Hal::Core</text>
<polyline fill="none" stroke="black" points="76.2773,-177 183.723,-177 "/>
<text text-anchor="middle" x="130" y="-165" font-family="Helvetica,sans-Serif" font-size="10.00"> </text>
<polyline fill="none" stroke="black" points="76.2773,-159 183.723,-159 "/>
<text text-anchor="start" x="84.2773" y="-147" font-family="Helvetica,sans-Serif" font-size="10.00">+ Core()</text>
<text text-anchor="start" x="84.2773" y="-137" font-family="Helvetica,sans-Serif" font-size="10.00">+ open()</text>
<text text-anchor="start" x="84.2773" y="-127" font-family="Helvetica,sans-Serif" font-size="10.00">+ attr()</text>
<text text-anchor="start" x="84.2773" y="-117" font-family="Helvetica,sans-Serif" font-size="10.00">+ setattr()</text>
<text text-anchor="start" x="84.2773" y="-107" font-family="Helvetica,sans-Serif" font-size="10.00">+ setpinfunc()</text>
<text text-anchor="start" x="84.2773" y="-97" font-family="Helvetica,sans-Serif" font-size="10.00">+ setpinfunc()</text>
<text text-anchor="start" x="84.2773" y="-87" font-family="Helvetica,sans-Serif" font-size="10.00">+ setpinfunc()</text>
<text text-anchor="start" x="84.2773" y="-77" font-family="Helvetica,sans-Serif" font-size="10.00">+ sleep()</text>
<text text-anchor="start" x="84.2773" y="-67" font-family="Helvetica,sans-Serif" font-size="10.00">+ reset()</text>
<text text-anchor="start" x="84.2773" y="-57" font-family="Helvetica,sans-Serif" font-size="10.00">+ invokebootloader()</text>
<text text-anchor="start" x="84.2773" y="-47" font-family="Helvetica,sans-Serif" font-size="10.00">+ setirqprio()</text>
<text text-anchor="start" x="84.2773" y="-37" font-family="Helvetica,sans-Serif" font-size="10.00">+ setirqprio()</text>
<text text-anchor="start" x="84.2773" y="-27" font-family="Helvetica,sans-Serif" font-size="10.00">+ setclkout()</text>
<text text-anchor="start" x="84.2773" y="-17" font-family="Helvetica,sans-Serif" font-size="10.00">+ ports()</text>
</a>
</g>
</g>
<!-- Node1&#45;&gt;Node4 -->
<g id="edge3" class="edge"><title>Node1&#45;&gt;Node4</title>
<path fill="none" stroke="midnightblue" d="M475.313,-321.494C406.177,-308.529 277.095,-276.262 192,-206 188.005,-202.701 184.199,-199.074 180.583,-195.214"/>
<polygon fill="none" stroke="midnightblue" points="475.007,-324.995 485.472,-323.34 476.259,-318.108 475.007,-324.995"/>
</g>
<!-- Node5 -->
<g id="node5" class="node"><title>Node5</title>
<g id="a_node5"><a xlink:href="class_hal_1_1_dac.html" target="_top" xlink:title="DAC Class. ">
<polygon fill="none" stroke="black" points="201.467,-36 201.467,-170 260.533,-170 260.533,-36 201.467,-36"/>
<text text-anchor="middle" x="231" y="-158" font-family="Helvetica,sans-Serif" font-size="10.00">Hal::Dac</text>
<polyline fill="none" stroke="black" points="201.467,-152 260.533,-152 "/>
<text text-anchor="middle" x="231" y="-140" font-family="Helvetica,sans-Serif" font-size="10.00"> </text>
<polyline fill="none" stroke="black" points="201.467,-134 260.533,-134 "/>
<text text-anchor="start" x="209.467" y="-122" font-family="Helvetica,sans-Serif" font-size="10.00">+ Dac()</text>
<text text-anchor="start" x="209.467" y="-112" font-family="Helvetica,sans-Serif" font-size="10.00">+ open()</text>
<text text-anchor="start" x="209.467" y="-102" font-family="Helvetica,sans-Serif" font-size="10.00">+ attr()</text>
<text text-anchor="start" x="209.467" y="-92" font-family="Helvetica,sans-Serif" font-size="10.00">+ setattr()</text>
<text text-anchor="start" x="209.467" y="-82" font-family="Helvetica,sans-Serif" font-size="10.00">+ value()</text>
<text text-anchor="start" x="209.467" y="-72" font-family="Helvetica,sans-Serif" font-size="10.00">+ get()</text>
<text text-anchor="start" x="209.467" y="-62" font-family="Helvetica,sans-Serif" font-size="10.00">+ setattr()</text>
<text text-anchor="start" x="209.467" y="-52" font-family="Helvetica,sans-Serif" font-size="10.00">+ init()</text>
<text text-anchor="start" x="209.467" y="-42" font-family="Helvetica,sans-Serif" font-size="10.00">+ set()</text>
</a>
</g>
</g>
<!-- Node1&#45;&gt;Node5 -->
<g id="edge4" class="edge"><title>Node1&#45;&gt;Node5</title>
<path fill="none" stroke="midnightblue" d="M475.518,-317.619C418.974,-301.744 325.145,-267.709 269,-206 259.716,-195.796 252.637,-183.118 247.26,-170.206"/>
<polygon fill="none" stroke="midnightblue" points="474.714,-321.028 485.283,-320.284 476.557,-314.275 474.714,-321.028"/>
</g>
<!-- Node6 -->
<g id="node6" class="node"><title>Node6</title>
<g id="a_node6"><a xlink:href="class_hal_1_1_eint.html" target="_top" xlink:title="External Interrupt Class. ">
<polygon fill="none" stroke="black" points="278.349,-26 278.349,-180 349.651,-180 349.651,-26 278.349,-26"/>
<text text-anchor="middle" x="314" y="-168" font-family="Helvetica,sans-Serif" font-size="10.00">Hal::Eint</text>
<polyline fill="none" stroke="black" points="278.349,-162 349.651,-162 "/>
<text text-anchor="middle" x="314" y="-150" font-family="Helvetica,sans-Serif" font-size="10.00"> </text>
<polyline fill="none" stroke="black" points="278.349,-144 349.651,-144 "/>
<text text-anchor="start" x="286.349" y="-132" font-family="Helvetica,sans-Serif" font-size="10.00">+ Eint()</text>
<text text-anchor="start" x="286.349" y="-122" font-family="Helvetica,sans-Serif" font-size="10.00">+ open()</text>
<text text-anchor="start" x="286.349" y="-112" font-family="Helvetica,sans-Serif" font-size="10.00">+ attr()</text>
<text text-anchor="start" x="286.349" y="-102" font-family="Helvetica,sans-Serif" font-size="10.00">+ setattr()</text>
<text text-anchor="start" x="286.349" y="-92" font-family="Helvetica,sans-Serif" font-size="10.00">+ setaction()</text>
<text text-anchor="start" x="286.349" y="-82" font-family="Helvetica,sans-Serif" font-size="10.00">+ value()</text>
<text text-anchor="start" x="286.349" y="-72" font-family="Helvetica,sans-Serif" font-size="10.00">+ get()</text>
<text text-anchor="start" x="286.349" y="-62" font-family="Helvetica,sans-Serif" font-size="10.00">+ setaction()</text>
<text text-anchor="start" x="286.349" y="-52" font-family="Helvetica,sans-Serif" font-size="10.00">+ setattr()</text>
<text text-anchor="start" x="286.349" y="-42" font-family="Helvetica,sans-Serif" font-size="10.00">+ init()</text>
<text text-anchor="start" x="286.349" y="-32" font-family="Helvetica,sans-Serif" font-size="10.00">+ ports()</text>
</a>
</g>
</g>
<!-- Node1&#45;&gt;Node6 -->
<g id="edge5" class="edge"><title>Node1&#45;&gt;Node6</title>
<path fill="none" stroke="midnightblue" d="M476.473,-303.523C440.161,-281.667 390.572,-247.22 358,-206 351.782,-198.132 346.275,-189.251 341.446,-180.095"/>
<polygon fill="none" stroke="midnightblue" points="475.012,-306.725 485.401,-308.804 478.576,-300.7 475.012,-306.725"/>
</g>
<!-- Node7 -->
<g id="node7" class="node"><title>Node7</title>
<g id="a_node7"><a xlink:href="class_hal_1_1_i2_c.html" target="_top" xlink:title="I2C Peripheral Class. ">
<polygon fill="none" stroke="black" points="367.467,-6 367.467,-200 426.533,-200 426.533,-6 367.467,-6"/>
<text text-anchor="middle" x="397" y="-188" font-family="Helvetica,sans-Serif" font-size="10.00">Hal::I2C</text>
<polyline fill="none" stroke="black" points="367.467,-182 426.533,-182 "/>
<text text-anchor="middle" x="397" y="-170" font-family="Helvetica,sans-Serif" font-size="10.00"> </text>
<polyline fill="none" stroke="black" points="367.467,-164 426.533,-164 "/>
<text text-anchor="start" x="375.467" y="-152" font-family="Helvetica,sans-Serif" font-size="10.00">+ I2C()</text>
<text text-anchor="start" x="375.467" y="-142" font-family="Helvetica,sans-Serif" font-size="10.00">+ open()</text>
<text text-anchor="start" x="375.467" y="-132" font-family="Helvetica,sans-Serif" font-size="10.00">+ attr()</text>
<text text-anchor="start" x="375.467" y="-122" font-family="Helvetica,sans-Serif" font-size="10.00">+ setattr()</text>
<text text-anchor="start" x="375.467" y="-112" font-family="Helvetica,sans-Serif" font-size="10.00">+ setup()</text>
<text text-anchor="start" x="375.467" y="-102" font-family="Helvetica,sans-Serif" font-size="10.00">+ geterr()</text>
<text text-anchor="start" x="375.467" y="-92" font-family="Helvetica,sans-Serif" font-size="10.00">+ err()</text>
<text text-anchor="start" x="375.467" y="-82" font-family="Helvetica,sans-Serif" font-size="10.00">+ setup()</text>
<text text-anchor="start" x="375.467" y="-72" font-family="Helvetica,sans-Serif" font-size="10.00">+ setattr()</text>
<text text-anchor="start" x="375.467" y="-62" font-family="Helvetica,sans-Serif" font-size="10.00">+ init()</text>
<text text-anchor="start" x="375.467" y="-52" font-family="Helvetica,sans-Serif" font-size="10.00">+ read()</text>
<text text-anchor="start" x="375.467" y="-42" font-family="Helvetica,sans-Serif" font-size="10.00">+ write()</text>
<text text-anchor="start" x="375.467" y="-32" font-family="Helvetica,sans-Serif" font-size="10.00">+ set()</text>
<text text-anchor="start" x="375.467" y="-22" font-family="Helvetica,sans-Serif" font-size="10.00">+ clear()</text>
<text text-anchor="start" x="375.467" y="-12" font-family="Helvetica,sans-Serif" font-size="10.00">+ ports()</text>
</a>
</g>
</g>
<!-- Node1&#45;&gt;Node7 -->
<g id="edge6" class="edge"><title>Node1&#45;&gt;Node7</title>
<path fill="none" stroke="midnightblue" d="M479.265,-273.466C464.352,-252.982 448.343,-229.118 436,-206 432.696,-199.812 429.533,-193.282 426.538,-186.638"/>
<polygon fill="none" stroke="midnightblue" points="476.605,-275.755 485.355,-281.729 482.24,-271.603 476.605,-275.755"/>
</g>
<!-- Node8 -->
<g id="node8" class="node"><title>Node8</title>
<g id="a_node8"><a xlink:href="class_hal_1_1_pio.html" target="_top" xlink:title="Pin Input/Output Class. ">
<polygon fill="none" stroke="red" points="444.79,-6 444.79,-200 517.21,-200 517.21,-6 444.79,-6"/>
<text text-anchor="middle" x="481" y="-188" font-family="Helvetica,sans-Serif" font-size="10.00">Hal::Pio</text>
<polyline fill="none" stroke="red" points="444.79,-182 517.21,-182 "/>
<text text-anchor="middle" x="481" y="-170" font-family="Helvetica,sans-Serif" font-size="10.00"> </text>
<polyline fill="none" stroke="red" points="444.79,-164 517.21,-164 "/>
<text text-anchor="start" x="452.79" y="-152" font-family="Helvetica,sans-Serif" font-size="10.00">+ Pio()</text>
<text text-anchor="start" x="452.79" y="-142" font-family="Helvetica,sans-Serif" font-size="10.00">+ open()</text>
<text text-anchor="start" x="452.79" y="-132" font-family="Helvetica,sans-Serif" font-size="10.00">+ attr()</text>
<text text-anchor="start" x="452.79" y="-122" font-family="Helvetica,sans-Serif" font-size="10.00">+ setattr()</text>
<text text-anchor="start" x="452.79" y="-112" font-family="Helvetica,sans-Serif" font-size="10.00">+ setaction()</text>
<text text-anchor="start" x="452.79" y="-102" font-family="Helvetica,sans-Serif" font-size="10.00">+ setmask()</text>
<text text-anchor="start" x="452.79" y="-92" font-family="Helvetica,sans-Serif" font-size="10.00">+ clrmask()</text>
<text text-anchor="start" x="452.79" y="-82" font-family="Helvetica,sans-Serif" font-size="10.00">+ get()</text>
<text text-anchor="start" x="452.79" y="-72" font-family="Helvetica,sans-Serif" font-size="10.00">+ value()</text>
<text text-anchor="start" x="452.79" y="-62" font-family="Helvetica,sans-Serif" font-size="10.00">+ set()</text>
<text text-anchor="start" x="452.79" y="-52" font-family="Helvetica,sans-Serif" font-size="10.00">+ setattr()</text>
<text text-anchor="start" x="452.79" y="-42" font-family="Helvetica,sans-Serif" font-size="10.00">+ init()</text>
<text text-anchor="start" x="452.79" y="-32" font-family="Helvetica,sans-Serif" font-size="10.00">+ setoutput()</text>
<text text-anchor="start" x="452.79" y="-22" font-family="Helvetica,sans-Serif" font-size="10.00">+ setinput()</text>
<text text-anchor="start" x="452.79" y="-12" font-family="Helvetica,sans-Serif" font-size="10.00">+ ports()</text>
</a>
</g>
</g>
<!-- Node1&#45;&gt;Node8 -->
<g id="edge7" class="edge"><title>Node1&#45;&gt;Node8</title>
<path fill="none" stroke="midnightblue" d="M505.086,-233.033C503.051,-222.131 500.977,-211.017 498.941,-200.113"/>
<polygon fill="none" stroke="midnightblue" points="501.666,-233.786 506.942,-242.974 508.547,-232.502 501.666,-233.786"/>
</g>
<!-- Node9 -->
<g id="node9" class="node"><title>Node9</title>
<g id="a_node9"><a xlink:href="class_hal_1_1_pwm.html" target="_top" xlink:title="PWM Class. ">
<polygon fill="none" stroke="black" points="535.467,-36 535.467,-170 594.533,-170 594.533,-36 535.467,-36"/>
<text text-anchor="middle" x="565" y="-158" font-family="Helvetica,sans-Serif" font-size="10.00">Hal::Pwm</text>
<polyline fill="none" stroke="black" points="535.467,-152 594.533,-152 "/>
<text text-anchor="middle" x="565" y="-140" font-family="Helvetica,sans-Serif" font-size="10.00"> </text>
<polyline fill="none" stroke="black" points="535.467,-134 594.533,-134 "/>
<text text-anchor="start" x="543.467" y="-122" font-family="Helvetica,sans-Serif" font-size="10.00">+ Pwm()</text>
<text text-anchor="start" x="543.467" y="-112" font-family="Helvetica,sans-Serif" font-size="10.00">+ open()</text>
<text text-anchor="start" x="543.467" y="-102" font-family="Helvetica,sans-Serif" font-size="10.00">+ attr()</text>
<text text-anchor="start" x="543.467" y="-92" font-family="Helvetica,sans-Serif" font-size="10.00">+ setattr()</text>
<text text-anchor="start" x="543.467" y="-82" font-family="Helvetica,sans-Serif" font-size="10.00">+ set()</text>
<text text-anchor="start" x="543.467" y="-72" font-family="Helvetica,sans-Serif" font-size="10.00">+ set()</text>
<text text-anchor="start" x="543.467" y="-62" font-family="Helvetica,sans-Serif" font-size="10.00">+ setattr()</text>
<text text-anchor="start" x="543.467" y="-52" font-family="Helvetica,sans-Serif" font-size="10.00">+ init()</text>
<text text-anchor="start" x="543.467" y="-42" font-family="Helvetica,sans-Serif" font-size="10.00">+ ports()</text>
</a>
</g>
</g>
<!-- Node1&#45;&gt;Node9 -->
<g id="edge8" class="edge"><title>Node1&#45;&gt;Node9</title>
<path fill="none" stroke="midnightblue" d="M540.926,-232.967C544.886,-211.752 548.995,-189.739 552.674,-170.033"/>
<polygon fill="none" stroke="midnightblue" points="537.453,-232.502 539.058,-242.974 544.334,-233.786 537.453,-232.502"/>
</g>
<!-- Node10 -->
<g id="node10" class="node"><title>Node10</title>
<g id="a_node10"><a xlink:href="class_hal_1_1_rtc.html" target="_top" xlink:title="RTC Class. ">
<polygon fill="none" stroke="black" points="613.014,-26 613.014,-180 700.986,-180 700.986,-26 613.014,-26"/>
<text text-anchor="middle" x="657" y="-168" font-family="Helvetica,sans-Serif" font-size="10.00">Hal::Rtc</text>
<polyline fill="none" stroke="black" points="613.014,-162 700.986,-162 "/>
<text text-anchor="middle" x="657" y="-150" font-family="Helvetica,sans-Serif" font-size="10.00"> </text>
<polyline fill="none" stroke="black" points="613.014,-144 700.986,-144 "/>
<text text-anchor="start" x="621.014" y="-132" font-family="Helvetica,sans-Serif" font-size="10.00">+ Rtc()</text>
<text text-anchor="start" x="621.014" y="-122" font-family="Helvetica,sans-Serif" font-size="10.00">+ open()</text>
<text text-anchor="start" x="621.014" y="-112" font-family="Helvetica,sans-Serif" font-size="10.00">+ attr()</text>
<text text-anchor="start" x="621.014" y="-102" font-family="Helvetica,sans-Serif" font-size="10.00">+ setattr()</text>
<text text-anchor="start" x="621.014" y="-92" font-family="Helvetica,sans-Serif" font-size="10.00">+ setaction()</text>
<text text-anchor="start" x="621.014" y="-82" font-family="Helvetica,sans-Serif" font-size="10.00">+ setalarm()</text>
<text text-anchor="start" x="621.014" y="-72" font-family="Helvetica,sans-Serif" font-size="10.00">+ getalarm()</text>
<text text-anchor="start" x="621.014" y="-62" font-family="Helvetica,sans-Serif" font-size="10.00">+ disablealarm()</text>
<text text-anchor="start" x="621.014" y="-52" font-family="Helvetica,sans-Serif" font-size="10.00">+ set()</text>
<text text-anchor="start" x="621.014" y="-42" font-family="Helvetica,sans-Serif" font-size="10.00">+ get()</text>
<text text-anchor="start" x="621.014" y="-32" font-family="Helvetica,sans-Serif" font-size="10.00">+ ports()</text>
</a>
</g>
</g>
<!-- Node1&#45;&gt;Node10 -->
<g id="edge9" class="edge"><title>Node1&#45;&gt;Node10</title>
<path fill="none" stroke="midnightblue" d="M566.086,-265.137C578.366,-246.308 591.519,-225.516 603,-206 607.877,-197.71 612.823,-188.944 617.642,-180.17"/>
<polygon fill="none" stroke="midnightblue" points="563.069,-263.356 560.515,-273.639 568.923,-267.193 563.069,-263.356"/>
</g>
<!-- Node11 -->
<g id="node11" class="node"><title>Node11</title>
<g id="a_node11"><a xlink:href="class_hal_1_1_spi.html" target="_top" xlink:title="SPI Class. ">
<polygon fill="none" stroke="black" points="718.957,-36 718.957,-170 793.043,-170 793.043,-36 718.957,-36"/>
<text text-anchor="middle" x="756" y="-158" font-family="Helvetica,sans-Serif" font-size="10.00">Hal::Spi</text>
<polyline fill="none" stroke="black" points="718.957,-152 793.043,-152 "/>
<text text-anchor="middle" x="756" y="-140" font-family="Helvetica,sans-Serif" font-size="10.00"> </text>
<polyline fill="none" stroke="black" points="718.957,-134 793.043,-134 "/>
<text text-anchor="start" x="726.957" y="-122" font-family="Helvetica,sans-Serif" font-size="10.00">+ Spi()</text>
<text text-anchor="start" x="726.957" y="-112" font-family="Helvetica,sans-Serif" font-size="10.00">+ open()</text>
<text text-anchor="start" x="726.957" y="-102" font-family="Helvetica,sans-Serif" font-size="10.00">+ attr()</text>
<text text-anchor="start" x="726.957" y="-92" font-family="Helvetica,sans-Serif" font-size="10.00">+ setattr()</text>
<text text-anchor="start" x="726.957" y="-82" font-family="Helvetica,sans-Serif" font-size="10.00">+ swap()</text>
<text text-anchor="start" x="726.957" y="-72" font-family="Helvetica,sans-Serif" font-size="10.00">+ setduplex()</text>
<text text-anchor="start" x="726.957" y="-62" font-family="Helvetica,sans-Serif" font-size="10.00">+ setattr()</text>
<text text-anchor="start" x="726.957" y="-52" font-family="Helvetica,sans-Serif" font-size="10.00">+ init()</text>
<text text-anchor="start" x="726.957" y="-42" font-family="Helvetica,sans-Serif" font-size="10.00">+ ports()</text>
</a>
</g>
</g>
<!-- Node1&#45;&gt;Node11 -->
<g id="edge10" class="edge"><title>Node1&#45;&gt;Node11</title>
<path fill="none" stroke="midnightblue" d="M569.674,-307.473C610.859,-286.503 670.211,-251.206 709,-206 718.078,-195.42 725.752,-182.793 732.097,-170.088"/>
<polygon fill="none" stroke="midnightblue" points="568.035,-304.379 560.657,-311.983 571.167,-310.64 568.035,-304.379"/>
</g>
<!-- Node12 -->
<g id="node12" class="node"><title>Node12</title>
<g id="a_node12"><a xlink:href="class_hal_1_1_tmr.html" target="_top" xlink:title="Tmr (hardware timer) Class. ">
<polygon fill="none" stroke="black" points="811.127,-21 811.127,-185 890.873,-185 890.873,-21 811.127,-21"/>
<text text-anchor="middle" x="851" y="-173" font-family="Helvetica,sans-Serif" font-size="10.00">Hal::Tmr</text>
<polyline fill="none" stroke="black" points="811.127,-167 890.873,-167 "/>
<text text-anchor="middle" x="851" y="-155" font-family="Helvetica,sans-Serif" font-size="10.00"> </text>
<polyline fill="none" stroke="black" points="811.127,-149 890.873,-149 "/>
<text text-anchor="start" x="819.127" y="-137" font-family="Helvetica,sans-Serif" font-size="10.00">+ Tmr()</text>
<text text-anchor="start" x="819.127" y="-127" font-family="Helvetica,sans-Serif" font-size="10.00">+ open()</text>
<text text-anchor="start" x="819.127" y="-117" font-family="Helvetica,sans-Serif" font-size="10.00">+ attr()</text>
<text text-anchor="start" x="819.127" y="-107" font-family="Helvetica,sans-Serif" font-size="10.00">+ setattr()</text>
<text text-anchor="start" x="819.127" y="-97" font-family="Helvetica,sans-Serif" font-size="10.00">+ setaction()</text>
<text text-anchor="start" x="819.127" y="-87" font-family="Helvetica,sans-Serif" font-size="10.00">+ setaction()</text>
<text text-anchor="start" x="819.127" y="-77" font-family="Helvetica,sans-Serif" font-size="10.00">+ on()</text>
<text text-anchor="start" x="819.127" y="-67" font-family="Helvetica,sans-Serif" font-size="10.00">+ off()</text>
<text text-anchor="start" x="819.127" y="-57" font-family="Helvetica,sans-Serif" font-size="10.00">+ setoc()</text>
<text text-anchor="start" x="819.127" y="-47" font-family="Helvetica,sans-Serif" font-size="10.00">+ setoc()</text>
<text text-anchor="start" x="819.127" y="-37" font-family="Helvetica,sans-Serif" font-size="10.00">and 11 more...</text>
<text text-anchor="start" x="819.127" y="-27" font-family="Helvetica,sans-Serif" font-size="10.00">+ ports()</text>
</a>
</g>
</g>
<!-- Node1&#45;&gt;Node12 -->
<g id="edge11" class="edge"><title>Node1&#45;&gt;Node12</title>
<path fill="none" stroke="midnightblue" d="M570.727,-318.803C631.356,-303.653 736.02,-269.863 802,-206 808.352,-199.852 813.985,-192.713 818.956,-185.122"/>
<polygon fill="none" stroke="midnightblue" points="569.554,-315.486 560.662,-321.247 571.206,-322.288 569.554,-315.486"/>
</g>
<!-- Node13 -->
<g id="node13" class="node"><title>Node13</title>
<g id="a_node13"><a xlink:href="class_hal_1_1_uart.html" target="_top" xlink:title="UART Class. ">
<polygon fill="none" stroke="red" points="908.959,-36 908.959,-170 973.041,-170 973.041,-36 908.959,-36"/>
<text text-anchor="middle" x="941" y="-158" font-family="Helvetica,sans-Serif" font-size="10.00">Hal::Uart</text>
<polyline fill="none" stroke="red" points="908.959,-152 973.041,-152 "/>
<text text-anchor="middle" x="941" y="-140" font-family="Helvetica,sans-Serif" font-size="10.00"> </text>
<polyline fill="none" stroke="red" points="908.959,-134 973.041,-134 "/>
<text text-anchor="start" x="916.959" y="-122" font-family="Helvetica,sans-Serif" font-size="10.00">+ Uart()</text>
<text text-anchor="start" x="916.959" y="-112" font-family="Helvetica,sans-Serif" font-size="10.00">+ open()</text>
<text text-anchor="start" x="916.959" y="-102" font-family="Helvetica,sans-Serif" font-size="10.00">+ attr()</text>
<text text-anchor="start" x="916.959" y="-92" font-family="Helvetica,sans-Serif" font-size="10.00">+ setattr()</text>
<text text-anchor="start" x="916.959" y="-82" font-family="Helvetica,sans-Serif" font-size="10.00">+ getbyte()</text>
<text text-anchor="start" x="916.959" y="-72" font-family="Helvetica,sans-Serif" font-size="10.00">+ flush()</text>
<text text-anchor="start" x="916.959" y="-62" font-family="Helvetica,sans-Serif" font-size="10.00">+ setattr()</text>
<text text-anchor="start" x="916.959" y="-52" font-family="Helvetica,sans-Serif" font-size="10.00">+ init()</text>
<text text-anchor="start" x="916.959" y="-42" font-family="Helvetica,sans-Serif" font-size="10.00">+ ports()</text>
</a>
</g>
</g>
<!-- Node1&#45;&gt;Node13 -->
<g id="edge12" class="edge"><title>Node1&#45;&gt;Node13</title>
<path fill="none" stroke="midnightblue" d="M570.782,-325.951C649.069,-318.497 805.297,-292.974 899,-206 909.527,-196.229 917.491,-183.428 923.49,-170.212"/>
<polygon fill="none" stroke="midnightblue" points="570.371,-322.473 560.722,-326.849 570.994,-329.446 570.371,-322.473"/>
</g>
<!-- Node14 -->
<g id="node14" class="node"><title>Node14</title>
<g id="a_node14"><a xlink:href="class_hal_1_1_usb.html" target="_top" xlink:title="USB Class. ">
<polygon fill="none" stroke="black" points="990.676,-1 990.676,-205 1075.32,-205 1075.32,-1 990.676,-1"/>
<text text-anchor="middle" x="1033" y="-193" font-family="Helvetica,sans-Serif" font-size="10.00">Hal::Usb</text>
<polyline fill="none" stroke="black" points="990.676,-187 1075.32,-187 "/>
<text text-anchor="middle" x="1033" y="-175" font-family="Helvetica,sans-Serif" font-size="10.00"> </text>
<polyline fill="none" stroke="black" points="990.676,-169 1075.32,-169 "/>
<text text-anchor="start" x="998.676" y="-157" font-family="Helvetica,sans-Serif" font-size="10.00">+ Usb()</text>
<text text-anchor="start" x="998.676" y="-147" font-family="Helvetica,sans-Serif" font-size="10.00">+ open()</text>
<text text-anchor="start" x="998.676" y="-137" font-family="Helvetica,sans-Serif" font-size="10.00">+ attr()</text>
<text text-anchor="start" x="998.676" y="-127" font-family="Helvetica,sans-Serif" font-size="10.00">+ setattr()</text>
<text text-anchor="start" x="998.676" y="-117" font-family="Helvetica,sans-Serif" font-size="10.00">+ reset()</text>
<text text-anchor="start" x="998.676" y="-107" font-family="Helvetica,sans-Serif" font-size="10.00">+ attach()</text>
<text text-anchor="start" x="998.676" y="-97" font-family="Helvetica,sans-Serif" font-size="10.00">+ configure()</text>
<text text-anchor="start" x="998.676" y="-87" font-family="Helvetica,sans-Serif" font-size="10.00">+ detach()</text>
<text text-anchor="start" x="998.676" y="-77" font-family="Helvetica,sans-Serif" font-size="10.00">+ disableep()</text>
<text text-anchor="start" x="998.676" y="-67" font-family="Helvetica,sans-Serif" font-size="10.00">+ enableep()</text>
<text text-anchor="start" x="998.676" y="-57" font-family="Helvetica,sans-Serif" font-size="10.00">+ isconnected()</text>
<text text-anchor="start" x="998.676" y="-47" font-family="Helvetica,sans-Serif" font-size="10.00">+ resetep()</text>
<text text-anchor="start" x="998.676" y="-37" font-family="Helvetica,sans-Serif" font-size="10.00">+ setaddr()</text>
<text text-anchor="start" x="998.676" y="-27" font-family="Helvetica,sans-Serif" font-size="10.00">+ stallep()</text>
<text text-anchor="start" x="998.676" y="-17" font-family="Helvetica,sans-Serif" font-size="10.00">+ unstallep()</text>
<text text-anchor="start" x="998.676" y="-7" font-family="Helvetica,sans-Serif" font-size="10.00">+ ports()</text>
</a>
</g>
</g>
<!-- Node1&#45;&gt;Node14 -->
<g id="edge13" class="edge"><title>Node1&#45;&gt;Node14</title>
<path fill="none" stroke="midnightblue" d="M570.829,-328.591C661.175,-325.386 858.883,-306.476 982,-206 984.914,-203.622 987.677,-201.034 990.295,-198.282"/>
<polygon fill="none" stroke="midnightblue" points="570.502,-325.099 560.613,-328.902 570.715,-332.096 570.502,-325.099"/>
</g>
<!-- Node2 -->
<g id="node2" class="node"><title>Node2</title>
<g id="a_node2"><a xlink:href="class_hal_1_1_phy.html" target="_top" xlink:title="Base Applib Class for Physical devices. ">
<polygon fill="none" stroke="black" points="496.104,-455 496.104,-549 549.896,-549 549.896,-455 496.104,-455"/>
<text text-anchor="middle" x="523" y="-537" font-family="Helvetica,sans-Serif" font-size="10.00">Hal::Phy</text>
<polyline fill="none" stroke="black" points="496.104,-531 549.896,-531 "/>
<text text-anchor="middle" x="523" y="-519" font-family="Helvetica,sans-Serif" font-size="10.00"> </text>
<polyline fill="none" stroke="black" points="496.104,-513 549.896,-513 "/>
<text text-anchor="start" x="504.104" y="-501" font-family="Helvetica,sans-Serif" font-size="10.00">+ Phy()</text>
<text text-anchor="start" x="504.104" y="-491" font-family="Helvetica,sans-Serif" font-size="10.00">+ ioctl()</text>
<text text-anchor="start" x="504.104" y="-481" font-family="Helvetica,sans-Serif" font-size="10.00">+ ioctl()</text>
<text text-anchor="start" x="504.104" y="-471" font-family="Helvetica,sans-Serif" font-size="10.00">+ ioctl()</text>
<text text-anchor="start" x="504.104" y="-461" font-family="Helvetica,sans-Serif" font-size="10.00">+ ioctl()</text>
</a>
</g>
</g>
<!-- Node2&#45;&gt;Node1 -->
<g id="edge1" class="edge"><title>Node2&#45;&gt;Node1</title>
<path fill="none" stroke="midnightblue" d="M523,-444.763C523,-435.836 523,-426.428 523,-417.004"/>
<polygon fill="none" stroke="midnightblue" points="519.5,-444.996 523,-454.996 526.5,-444.996 519.5,-444.996"/>
</g>
</g>
</svg>
