<?xml version="1.0" encoding="UTF-8" standalone="no"?>
<!DOCTYPE svg PUBLIC "-//W3C//DTD SVG 1.1//EN"
 "http://www.w3.org/Graphics/SVG/1.1/DTD/svg11.dtd">
<!-- Generated by graphviz version 2.36.0 (20140111.2315)
 -->
<!-- Title: Sys::File Pages: 1 -->
<svg width="394pt" height="528pt"
 viewBox="0.00 0.00 394.00 528.00" xmlns="http://www.w3.org/2000/svg" xmlns:xlink="http://www.w3.org/1999/xlink">
<g id="graph0" class="graph" transform="scale(1 1) rotate(0) translate(4 524)">
<title>Sys::File</title>
<!-- Node1 -->
<g id="node1" class="node"><title>Node1</title>
<polygon fill="#bfbfbf" stroke="black" points="140.893,-193 140.893,-387 241.107,-387 241.107,-193 140.893,-193"/>
<text text-anchor="middle" x="191" y="-375" font-family="Helvetica,sans-Serif" font-size="10.00">Sys::File</text>
<polyline fill="none" stroke="black" points="140.893,-369 241.107,-369 "/>
<text text-anchor="middle" x="191" y="-357" font-family="Helvetica,sans-Serif" font-size="10.00"> </text>
<polyline fill="none" stroke="black" points="140.893,-351 241.107,-351 "/>
<text text-anchor="start" x="148.893" y="-339" font-family="Helvetica,sans-Serif" font-size="10.00">+ File()</text>
<text text-anchor="start" x="148.893" y="-329" font-family="Helvetica,sans-Serif" font-size="10.00">+ open()</text>
<text text-anchor="start" x="148.893" y="-319" font-family="Helvetica,sans-Serif" font-size="10.00">+ open_readwrite()</text>
<text text-anchor="start" x="148.893" y="-309" font-family="Helvetica,sans-Serif" font-size="10.00">+ open_readonly()</text>
<text text-anchor="start" x="148.893" y="-299" font-family="Helvetica,sans-Serif" font-size="10.00">+ open_append()</text>
<text text-anchor="start" x="148.893" y="-289" font-family="Helvetica,sans-Serif" font-size="10.00">+ create()</text>
<text text-anchor="start" x="148.893" y="-279" font-family="Helvetica,sans-Serif" font-size="10.00">+ read()</text>
<text text-anchor="start" x="148.893" y="-269" font-family="Helvetica,sans-Serif" font-size="10.00">+ read()</text>
<text text-anchor="start" x="148.893" y="-259" font-family="Helvetica,sans-Serif" font-size="10.00">+ write()</text>
<text text-anchor="start" x="148.893" y="-249" font-family="Helvetica,sans-Serif" font-size="10.00">+ write()</text>
<text text-anchor="start" x="148.893" y="-239" font-family="Helvetica,sans-Serif" font-size="10.00">and 12 more...</text>
<text text-anchor="start" x="148.893" y="-229" font-family="Helvetica,sans-Serif" font-size="10.00">+ remove()</text>
<text text-anchor="start" x="148.893" y="-219" font-family="Helvetica,sans-Serif" font-size="10.00">+ stat()</text>
<text text-anchor="start" x="148.893" y="-209" font-family="Helvetica,sans-Serif" font-size="10.00">+ size()</text>
<text text-anchor="start" x="148.893" y="-199" font-family="Helvetica,sans-Serif" font-size="10.00">+ name()</text>
</g>
<!-- Node3 -->
<g id="node3" class="node"><title>Node3</title>
<g id="a_node3"><a xlink:href="class_calc_1_1_rle_file.html" target="_top" xlink:title="Class for reading/writing compressed file data. ">
<polygon fill="none" stroke="black" points="-0.339844,-46 -0.339844,-110 72.3398,-110 72.3398,-46 -0.339844,-46"/>
<text text-anchor="middle" x="36" y="-98" font-family="Helvetica,sans-Serif" font-size="10.00">Calc::RleFile</text>
<polyline fill="none" stroke="black" points="-0.339844,-92 72.3398,-92 "/>
<text text-anchor="middle" x="36" y="-80" font-family="Helvetica,sans-Serif" font-size="10.00"> </text>
<polyline fill="none" stroke="black" points="-0.339844,-74 72.3398,-74 "/>
<text text-anchor="start" x="7.66016" y="-62" font-family="Helvetica,sans-Serif" font-size="10.00">+ write()</text>
<text text-anchor="start" x="7.66016" y="-52" font-family="Helvetica,sans-Serif" font-size="10.00">+ read()</text>
</a>
</g>
</g>
<!-- Node1&#45;&gt;Node3 -->
<g id="edge2" class="edge"><title>Node1&#45;&gt;Node3</title>
<path fill="none" stroke="midnightblue" d="M134.177,-223.605C116.755,-202.535 97.9808,-178.742 82,-156 71.7042,-141.348 61.3759,-124.322 53.1219,-110.011"/>
<polygon fill="none" stroke="midnightblue" points="131.693,-226.091 140.779,-231.539 137.073,-221.613 131.693,-226.091"/>
</g>
<!-- Node4 -->
<g id="node4" class="node"><title>Node4</title>
<g id="a_node4"><a xlink:href="class_fmt_1_1_bmp.html" target="_top" xlink:title="BMP File format. ">
<polygon fill="none" stroke="black" points="90.5088,-1 90.5088,-155 183.491,-155 183.491,-1 90.5088,-1"/>
<text text-anchor="middle" x="137" y="-143" font-family="Helvetica,sans-Serif" font-size="10.00">Fmt::Bmp</text>
<polyline fill="none" stroke="black" points="90.5088,-137 183.491,-137 "/>
<text text-anchor="middle" x="137" y="-125" font-family="Helvetica,sans-Serif" font-size="10.00"> </text>
<polyline fill="none" stroke="black" points="90.5088,-119 183.491,-119 "/>
<text text-anchor="start" x="98.5088" y="-107" font-family="Helvetica,sans-Serif" font-size="10.00">+ Bmp()</text>
<text text-anchor="start" x="98.5088" y="-97" font-family="Helvetica,sans-Serif" font-size="10.00">+ Bmp()</text>
<text text-anchor="start" x="98.5088" y="-87" font-family="Helvetica,sans-Serif" font-size="10.00">+ width()</text>
<text text-anchor="start" x="98.5088" y="-77" font-family="Helvetica,sans-Serif" font-size="10.00">+ height()</text>
<text text-anchor="start" x="98.5088" y="-67" font-family="Helvetica,sans-Serif" font-size="10.00">+ bits_per_pixel()</text>
<text text-anchor="start" x="98.5088" y="-57" font-family="Helvetica,sans-Serif" font-size="10.00">+ planes()</text>
<text text-anchor="start" x="98.5088" y="-47" font-family="Helvetica,sans-Serif" font-size="10.00">+ row_size()</text>
<text text-anchor="start" x="98.5088" y="-37" font-family="Helvetica,sans-Serif" font-size="10.00">+ create()</text>
<text text-anchor="start" x="98.5088" y="-27" font-family="Helvetica,sans-Serif" font-size="10.00">+ rewind()</text>
<text text-anchor="start" x="98.5088" y="-17" font-family="Helvetica,sans-Serif" font-size="10.00">+ seek_row()</text>
<text text-anchor="start" x="98.5088" y="-7" font-family="Helvetica,sans-Serif" font-size="10.00">+ read_pixel()</text>
</a>
</g>
</g>
<!-- Node1&#45;&gt;Node4 -->
<g id="edge3" class="edge"><title>Node1&#45;&gt;Node4</title>
<path fill="none" stroke="midnightblue" d="M163.773,-183.116C161.354,-173.708 158.937,-164.31 156.6,-155.223"/>
<polygon fill="none" stroke="midnightblue" points="160.411,-184.098 166.291,-192.911 167.191,-182.355 160.411,-184.098"/>
</g>
<!-- Node5 -->
<g id="node5" class="node"><title>Node5</title>
<g id="a_node5"><a xlink:href="class_fmt_1_1_wav.html" target="_top" xlink:title="WAV File format. ">
<polygon fill="none" stroke="black" points="201.846,-11 201.846,-145 288.154,-145 288.154,-11 201.846,-11"/>
<text text-anchor="middle" x="245" y="-133" font-family="Helvetica,sans-Serif" font-size="10.00">Fmt::Wav</text>
<polyline fill="none" stroke="black" points="201.846,-127 288.154,-127 "/>
<text text-anchor="middle" x="245" y="-115" font-family="Helvetica,sans-Serif" font-size="10.00"> </text>
<polyline fill="none" stroke="black" points="201.846,-109 288.154,-109 "/>
<text text-anchor="start" x="209.846" y="-97" font-family="Helvetica,sans-Serif" font-size="10.00">+ Wav()</text>
<text text-anchor="start" x="209.846" y="-87" font-family="Helvetica,sans-Serif" font-size="10.00">+ size()</text>
<text text-anchor="start" x="209.846" y="-77" font-family="Helvetica,sans-Serif" font-size="10.00">+ wav_size()</text>
<text text-anchor="start" x="209.846" y="-67" font-family="Helvetica,sans-Serif" font-size="10.00">+ wav_fmt()</text>
<text text-anchor="start" x="209.846" y="-57" font-family="Helvetica,sans-Serif" font-size="10.00">+ channels()</text>
<text text-anchor="start" x="209.846" y="-47" font-family="Helvetica,sans-Serif" font-size="10.00">+ sample_rate()</text>
<text text-anchor="start" x="209.846" y="-37" font-family="Helvetica,sans-Serif" font-size="10.00">+ bytes_sec()</text>
<text text-anchor="start" x="209.846" y="-27" font-family="Helvetica,sans-Serif" font-size="10.00">+ bits_sample()</text>
<text text-anchor="start" x="209.846" y="-17" font-family="Helvetica,sans-Serif" font-size="10.00">+ data_size()</text>
</a>
</g>
</g>
<!-- Node1&#45;&gt;Node5 -->
<g id="edge4" class="edge"><title>Node1&#45;&gt;Node5</title>
<path fill="none" stroke="midnightblue" d="M218.253,-183.017C221.583,-170.067 224.908,-157.137 228.025,-145.014"/>
<polygon fill="none" stroke="midnightblue" points="214.809,-182.355 215.709,-192.911 221.589,-184.098 214.809,-182.355"/>
</g>
<!-- Node6 -->
<g id="node6" class="node"><title>Node6</title>
<g id="a_node6"><a xlink:href="class_fmt_1_1_xml.html" target="_top" xlink:title="XML Class. ">
<polygon fill="none" stroke="black" points="305.759,-1 305.759,-155 386.241,-155 386.241,-1 305.759,-1"/>
<text text-anchor="middle" x="346" y="-143" font-family="Helvetica,sans-Serif" font-size="10.00">Fmt::Xml</text>
<polyline fill="none" stroke="black" points="305.759,-137 386.241,-137 "/>
<text text-anchor="middle" x="346" y="-125" font-family="Helvetica,sans-Serif" font-size="10.00"> </text>
<polyline fill="none" stroke="black" points="305.759,-119 386.241,-119 "/>
<text text-anchor="start" x="313.759" y="-107" font-family="Helvetica,sans-Serif" font-size="10.00">+ Xml()</text>
<text text-anchor="start" x="313.759" y="-97" font-family="Helvetica,sans-Serif" font-size="10.00">+ Xml()</text>
<text text-anchor="start" x="313.759" y="-87" font-family="Helvetica,sans-Serif" font-size="10.00">+ init()</text>
<text text-anchor="start" x="313.759" y="-77" font-family="Helvetica,sans-Serif" font-size="10.00">+ close()</text>
<text text-anchor="start" x="313.759" y="-67" font-family="Helvetica,sans-Serif" font-size="10.00">+ exit()</text>
<text text-anchor="start" x="313.759" y="-57" font-family="Helvetica,sans-Serif" font-size="10.00">+ value()</text>
<text text-anchor="start" x="313.759" y="-47" font-family="Helvetica,sans-Serif" font-size="10.00">+ value()</text>
<text text-anchor="start" x="313.759" y="-37" font-family="Helvetica,sans-Serif" font-size="10.00">+ setvalue()</text>
<text text-anchor="start" x="313.759" y="-27" font-family="Helvetica,sans-Serif" font-size="10.00">+ setvalue()</text>
<text text-anchor="start" x="313.759" y="-17" font-family="Helvetica,sans-Serif" font-size="10.00">+ find()</text>
<text text-anchor="start" x="313.759" y="-7" font-family="Helvetica,sans-Serif" font-size="10.00">and 17 more...</text>
</a>
</g>
</g>
<!-- Node1&#45;&gt;Node6 -->
<g id="edge5" class="edge"><title>Node1&#45;&gt;Node6</title>
<path fill="none" stroke="midnightblue" d="M247.653,-220.772C264.035,-200.29 281.631,-177.536 297,-156 299.853,-152.002 302.734,-147.843 305.594,-143.62"/>
<polygon fill="none" stroke="midnightblue" points="244.737,-218.812 241.201,-228.8 250.194,-223.197 244.737,-218.812"/>
</g>
<!-- Node2 -->
<g id="node2" class="node"><title>Node2</title>
<g id="a_node2"><a xlink:href="class_hal_1_1_phy.html" target="_top" xlink:title="Base Applib Class for Physical devices. ">
<polygon fill="none" stroke="black" points="164.104,-425 164.104,-519 217.896,-519 217.896,-425 164.104,-425"/>
<text text-anchor="middle" x="191" y="-507" font-family="Helvetica,sans-Serif" font-size="10.00">Hal::Phy</text>
<polyline fill="none" stroke="black" points="164.104,-501 217.896,-501 "/>
<text text-anchor="middle" x="191" y="-489" font-family="Helvetica,sans-Serif" font-size="10.00"> </text>
<polyline fill="none" stroke="black" points="164.104,-483 217.896,-483 "/>
<text text-anchor="start" x="172.104" y="-471" font-family="Helvetica,sans-Serif" font-size="10.00">+ Phy()</text>
<text text-anchor="start" x="172.104" y="-461" font-family="Helvetica,sans-Serif" font-size="10.00">+ ioctl()</text>
<text text-anchor="start" x="172.104" y="-451" font-family="Helvetica,sans-Serif" font-size="10.00">+ ioctl()</text>
<text text-anchor="start" x="172.104" y="-441" font-family="Helvetica,sans-Serif" font-size="10.00">+ ioctl()</text>
<text text-anchor="start" x="172.104" y="-431" font-family="Helvetica,sans-Serif" font-size="10.00">+ ioctl()</text>
</a>
</g>
</g>
<!-- Node2&#45;&gt;Node1 -->
<g id="edge1" class="edge"><title>Node2&#45;&gt;Node1</title>
<path fill="none" stroke="midnightblue" d="M191,-414.613C191,-405.852 191,-396.595 191,-387.247"/>
<polygon fill="none" stroke="midnightblue" points="187.5,-414.645 191,-424.646 194.5,-414.646 187.5,-414.645"/>
</g>
</g>
</svg>
