<?xml version="1.0" encoding="UTF-8" standalone="no"?>
<!DOCTYPE svg PUBLIC "-//W3C//DTD SVG 1.1//EN"
 "http://www.w3.org/Graphics/SVG/1.1/DTD/svg11.dtd">
<!-- Generated by graphviz version 2.36.0 (20140111.2315)
 -->
<!-- Title: Pblock Pages: 1 -->
<svg width="425pt" height="650pt"
 viewBox="0.00 0.00 425.00 650.00" xmlns="http://www.w3.org/2000/svg" xmlns:xlink="http://www.w3.org/1999/xlink">
<g id="graph0" class="graph" transform="scale(1 1) rotate(0) translate(4 646)">
<title>Pblock</title>
<!-- Node1 -->
<g id="node1" class="node"><title>Node1</title>
<polygon fill="#bfbfbf" stroke="black" points="165.354,-243 165.354,-297 226.646,-297 226.646,-243 165.354,-243"/>
<text text-anchor="middle" x="196" y="-285" font-family="Helvetica,sans-Serif" font-size="10.00">Pblock</text>
<polyline fill="none" stroke="black" points="165.354,-279 226.646,-279 "/>
<text text-anchor="middle" x="196" y="-267" font-family="Helvetica,sans-Serif" font-size="10.00"> </text>
<polyline fill="none" stroke="black" points="165.354,-261 226.646,-261 "/>
<text text-anchor="start" x="173.354" y="-249" font-family="Helvetica,sans-Serif" font-size="10.00">+ Pblock()</text>
</g>
<!-- Node4 -->
<g id="node4" class="node"><title>Node4</title>
<g id="a_node4"><a xlink:href="class_dac.html" target="_top" xlink:title="DAC Class. ">
<polygon fill="none" stroke="black" points="-0.813965,-36 -0.813965,-170 58.814,-170 58.814,-36 -0.813965,-36"/>
<text text-anchor="middle" x="29" y="-158" font-family="Helvetica,sans-Serif" font-size="10.00">Dac</text>
<polyline fill="none" stroke="black" points="-0.813965,-152 58.814,-152 "/>
<text text-anchor="middle" x="29" y="-140" font-family="Helvetica,sans-Serif" font-size="10.00"> </text>
<polyline fill="none" stroke="black" points="-0.813965,-134 58.814,-134 "/>
<text text-anchor="start" x="7.18604" y="-122" font-family="Helvetica,sans-Serif" font-size="10.00">+ Dac()</text>
<text text-anchor="start" x="7.18604" y="-112" font-family="Helvetica,sans-Serif" font-size="10.00">+ open()</text>
<text text-anchor="start" x="7.18604" y="-102" font-family="Helvetica,sans-Serif" font-size="10.00">+ getattr()</text>
<text text-anchor="start" x="7.18604" y="-92" font-family="Helvetica,sans-Serif" font-size="10.00">+ setattr()</text>
<text text-anchor="start" x="7.18604" y="-82" font-family="Helvetica,sans-Serif" font-size="10.00">+ value()</text>
<text text-anchor="start" x="7.18604" y="-72" font-family="Helvetica,sans-Serif" font-size="10.00">+ get()</text>
<text text-anchor="start" x="7.18604" y="-62" font-family="Helvetica,sans-Serif" font-size="10.00">+ setattr()</text>
<text text-anchor="start" x="7.18604" y="-52" font-family="Helvetica,sans-Serif" font-size="10.00">+ init()</text>
<text text-anchor="start" x="7.18604" y="-42" font-family="Helvetica,sans-Serif" font-size="10.00">+ set()</text>
</a>
</g>
</g>
<!-- Node1&#45;&gt;Node4 -->
<g id="edge3" class="edge"><title>Node1&#45;&gt;Node4</title>
<path fill="none" stroke="midnightblue" d="M155.628,-257.79C127.682,-248.166 91.4371,-231.704 68,-206 58.6751,-195.773 51.497,-183.085 45.9997,-170.171"/>
<polygon fill="none" stroke="midnightblue" points="154.54,-261.117 165.133,-260.914 156.725,-254.467 154.54,-261.117"/>
</g>
<!-- Node5 -->
<g id="node5" class="node"><title>Node5</title>
<g id="a_node5"><a xlink:href="class_hal_1_1_adc.html" target="_top" xlink:title="ADC Peripheral Class. ">
<polygon fill="none" stroke="black" points="77.2944,-46 77.2944,-160 144.706,-160 144.706,-46 77.2944,-46"/>
<text text-anchor="middle" x="111" y="-148" font-family="Helvetica,sans-Serif" font-size="10.00">Hal::Adc</text>
<polyline fill="none" stroke="black" points="77.2944,-142 144.706,-142 "/>
<text text-anchor="middle" x="111" y="-130" font-family="Helvetica,sans-Serif" font-size="10.00"> </text>
<polyline fill="none" stroke="black" points="77.2944,-124 144.706,-124 "/>
<text text-anchor="start" x="85.2944" y="-112" font-family="Helvetica,sans-Serif" font-size="10.00">+ Adc()</text>
<text text-anchor="start" x="85.2944" y="-102" font-family="Helvetica,sans-Serif" font-size="10.00">+ open()</text>
<text text-anchor="start" x="85.2944" y="-92" font-family="Helvetica,sans-Serif" font-size="10.00">+ getattr()</text>
<text text-anchor="start" x="85.2944" y="-82" font-family="Helvetica,sans-Serif" font-size="10.00">+ setattr()</text>
<text text-anchor="start" x="85.2944" y="-72" font-family="Helvetica,sans-Serif" font-size="10.00">+ setattr()</text>
<text text-anchor="start" x="85.2944" y="-62" font-family="Helvetica,sans-Serif" font-size="10.00">+ init()</text>
<text text-anchor="start" x="85.2944" y="-52" font-family="Helvetica,sans-Serif" font-size="10.00">+ getports()</text>
</a>
</g>
</g>
<!-- Node1&#45;&gt;Node5 -->
<g id="edge4" class="edge"><title>Node1&#45;&gt;Node5</title>
<path fill="none" stroke="midnightblue" d="M170.52,-234.444C164.397,-225.417 158.146,-215.538 153,-206 145.18,-191.505 137.874,-175.238 131.619,-160.025"/>
<polygon fill="none" stroke="midnightblue" points="167.737,-236.573 176.311,-242.798 173.49,-232.585 167.737,-236.573"/>
</g>
<!-- Node6 -->
<g id="node6" class="node"><title>Node6</title>
<g id="a_node6"><a xlink:href="class_i2_c.html" target="_top" xlink:title="I2C Peripheral Class. ">
<polygon fill="none" stroke="black" points="162.294,-6 162.294,-200 229.706,-200 229.706,-6 162.294,-6"/>
<text text-anchor="middle" x="196" y="-188" font-family="Helvetica,sans-Serif" font-size="10.00">I2C</text>
<polyline fill="none" stroke="black" points="162.294,-182 229.706,-182 "/>
<text text-anchor="middle" x="196" y="-170" font-family="Helvetica,sans-Serif" font-size="10.00"> </text>
<polyline fill="none" stroke="black" points="162.294,-164 229.706,-164 "/>
<text text-anchor="start" x="170.294" y="-152" font-family="Helvetica,sans-Serif" font-size="10.00">+ I2C()</text>
<text text-anchor="start" x="170.294" y="-142" font-family="Helvetica,sans-Serif" font-size="10.00">+ open()</text>
<text text-anchor="start" x="170.294" y="-132" font-family="Helvetica,sans-Serif" font-size="10.00">+ getattr()</text>
<text text-anchor="start" x="170.294" y="-122" font-family="Helvetica,sans-Serif" font-size="10.00">+ setattr()</text>
<text text-anchor="start" x="170.294" y="-112" font-family="Helvetica,sans-Serif" font-size="10.00">+ setup()</text>
<text text-anchor="start" x="170.294" y="-102" font-family="Helvetica,sans-Serif" font-size="10.00">+ geterr()</text>
<text text-anchor="start" x="170.294" y="-92" font-family="Helvetica,sans-Serif" font-size="10.00">+ err()</text>
<text text-anchor="start" x="170.294" y="-82" font-family="Helvetica,sans-Serif" font-size="10.00">+ setup()</text>
<text text-anchor="start" x="170.294" y="-72" font-family="Helvetica,sans-Serif" font-size="10.00">+ setattr()</text>
<text text-anchor="start" x="170.294" y="-62" font-family="Helvetica,sans-Serif" font-size="10.00">+ init()</text>
<text text-anchor="start" x="170.294" y="-52" font-family="Helvetica,sans-Serif" font-size="10.00">+ read()</text>
<text text-anchor="start" x="170.294" y="-42" font-family="Helvetica,sans-Serif" font-size="10.00">+ write()</text>
<text text-anchor="start" x="170.294" y="-32" font-family="Helvetica,sans-Serif" font-size="10.00">+ set()</text>
<text text-anchor="start" x="170.294" y="-22" font-family="Helvetica,sans-Serif" font-size="10.00">+ clear()</text>
<text text-anchor="start" x="170.294" y="-12" font-family="Helvetica,sans-Serif" font-size="10.00">+ getports()</text>
</a>
</g>
</g>
<!-- Node1&#45;&gt;Node6 -->
<g id="edge5" class="edge"><title>Node1&#45;&gt;Node6</title>
<path fill="none" stroke="midnightblue" d="M196,-232.697C196,-222.823 196,-211.646 196,-200.104"/>
<polygon fill="none" stroke="midnightblue" points="192.5,-232.855 196,-242.855 199.5,-232.855 192.5,-232.855"/>
</g>
<!-- Node7 -->
<g id="node7" class="node"><title>Node7</title>
<g id="a_node7"><a xlink:href="class_pwm.html" target="_top" xlink:title="PWM Class. ">
<polygon fill="none" stroke="black" points="247.294,-36 247.294,-170 314.706,-170 314.706,-36 247.294,-36"/>
<text text-anchor="middle" x="281" y="-158" font-family="Helvetica,sans-Serif" font-size="10.00">Pwm</text>
<polyline fill="none" stroke="black" points="247.294,-152 314.706,-152 "/>
<text text-anchor="middle" x="281" y="-140" font-family="Helvetica,sans-Serif" font-size="10.00"> </text>
<polyline fill="none" stroke="black" points="247.294,-134 314.706,-134 "/>
<text text-anchor="start" x="255.294" y="-122" font-family="Helvetica,sans-Serif" font-size="10.00">+ Pwm()</text>
<text text-anchor="start" x="255.294" y="-112" font-family="Helvetica,sans-Serif" font-size="10.00">+ open()</text>
<text text-anchor="start" x="255.294" y="-102" font-family="Helvetica,sans-Serif" font-size="10.00">+ getattr()</text>
<text text-anchor="start" x="255.294" y="-92" font-family="Helvetica,sans-Serif" font-size="10.00">+ setattr()</text>
<text text-anchor="start" x="255.294" y="-82" font-family="Helvetica,sans-Serif" font-size="10.00">+ set()</text>
<text text-anchor="start" x="255.294" y="-72" font-family="Helvetica,sans-Serif" font-size="10.00">+ set()</text>
<text text-anchor="start" x="255.294" y="-62" font-family="Helvetica,sans-Serif" font-size="10.00">+ setattr()</text>
<text text-anchor="start" x="255.294" y="-52" font-family="Helvetica,sans-Serif" font-size="10.00">+ init()</text>
<text text-anchor="start" x="255.294" y="-42" font-family="Helvetica,sans-Serif" font-size="10.00">+ getports()</text>
</a>
</g>
</g>
<!-- Node1&#45;&gt;Node7 -->
<g id="edge6" class="edge"><title>Node1&#45;&gt;Node7</title>
<path fill="none" stroke="midnightblue" d="M220.791,-234.355C226.773,-225.331 232.904,-215.475 238,-206 244.099,-194.66 249.951,-182.27 255.268,-170.155"/>
<polygon fill="none" stroke="midnightblue" points="217.841,-232.469 215.139,-242.714 223.64,-236.391 217.841,-232.469"/>
</g>
<!-- Node8 -->
<g id="node8" class="node"><title>Node8</title>
<g id="a_node8"><a xlink:href="class_usb.html" target="_top" xlink:title="USB Class. ">
<polygon fill="none" stroke="black" points="332.676,-1 332.676,-205 417.324,-205 417.324,-1 332.676,-1"/>
<text text-anchor="middle" x="375" y="-193" font-family="Helvetica,sans-Serif" font-size="10.00">Usb</text>
<polyline fill="none" stroke="black" points="332.676,-187 417.324,-187 "/>
<text text-anchor="middle" x="375" y="-175" font-family="Helvetica,sans-Serif" font-size="10.00"> </text>
<polyline fill="none" stroke="black" points="332.676,-169 417.324,-169 "/>
<text text-anchor="start" x="340.676" y="-157" font-family="Helvetica,sans-Serif" font-size="10.00">+ Usb()</text>
<text text-anchor="start" x="340.676" y="-147" font-family="Helvetica,sans-Serif" font-size="10.00">+ open()</text>
<text text-anchor="start" x="340.676" y="-137" font-family="Helvetica,sans-Serif" font-size="10.00">+ getattr()</text>
<text text-anchor="start" x="340.676" y="-127" font-family="Helvetica,sans-Serif" font-size="10.00">+ setattr()</text>
<text text-anchor="start" x="340.676" y="-117" font-family="Helvetica,sans-Serif" font-size="10.00">+ reset()</text>
<text text-anchor="start" x="340.676" y="-107" font-family="Helvetica,sans-Serif" font-size="10.00">+ attach()</text>
<text text-anchor="start" x="340.676" y="-97" font-family="Helvetica,sans-Serif" font-size="10.00">+ configure()</text>
<text text-anchor="start" x="340.676" y="-87" font-family="Helvetica,sans-Serif" font-size="10.00">+ detach()</text>
<text text-anchor="start" x="340.676" y="-77" font-family="Helvetica,sans-Serif" font-size="10.00">+ disableep()</text>
<text text-anchor="start" x="340.676" y="-67" font-family="Helvetica,sans-Serif" font-size="10.00">+ enableep()</text>
<text text-anchor="start" x="340.676" y="-57" font-family="Helvetica,sans-Serif" font-size="10.00">+ isconnected()</text>
<text text-anchor="start" x="340.676" y="-47" font-family="Helvetica,sans-Serif" font-size="10.00">+ resetep()</text>
<text text-anchor="start" x="340.676" y="-37" font-family="Helvetica,sans-Serif" font-size="10.00">+ setaddr()</text>
<text text-anchor="start" x="340.676" y="-27" font-family="Helvetica,sans-Serif" font-size="10.00">+ stallep()</text>
<text text-anchor="start" x="340.676" y="-17" font-family="Helvetica,sans-Serif" font-size="10.00">+ unstallep()</text>
<text text-anchor="start" x="340.676" y="-7" font-family="Helvetica,sans-Serif" font-size="10.00">+ getports()</text>
</a>
</g>
</g>
<!-- Node1&#45;&gt;Node8 -->
<g id="edge7" class="edge"><title>Node1&#45;&gt;Node8</title>
<path fill="none" stroke="midnightblue" d="M236.392,-256.516C263.584,-246.443 298.766,-229.97 323,-206 326.392,-202.645 329.604,-199.023 332.642,-195.213"/>
<polygon fill="none" stroke="midnightblue" points="235.018,-253.289 226.77,-259.939 237.365,-259.884 235.018,-253.289"/>
</g>
<!-- Node2 -->
<g id="node2" class="node"><title>Node2</title>
<g id="a_node2"><a xlink:href="class_periph.html" target="_top" xlink:title="Peripheral Class. ">
<polygon fill="none" stroke="black" points="158.54,-335 158.54,-509 233.46,-509 233.46,-335 158.54,-335"/>
<text text-anchor="middle" x="196" y="-497" font-family="Helvetica,sans-Serif" font-size="10.00">Periph</text>
<polyline fill="none" stroke="black" points="158.54,-491 233.46,-491 "/>
<text text-anchor="start" x="166.54" y="-479" font-family="Helvetica,sans-Serif" font-size="10.00"># port_</text>
<text text-anchor="start" x="166.54" y="-469" font-family="Helvetica,sans-Serif" font-size="10.00"># fd</text>
<polyline fill="none" stroke="black" points="158.54,-463 233.46,-463 "/>
<text text-anchor="start" x="166.54" y="-451" font-family="Helvetica,sans-Serif" font-size="10.00">+ Periph()</text>
<text text-anchor="start" x="166.54" y="-441" font-family="Helvetica,sans-Serif" font-size="10.00">+ open()</text>
<text text-anchor="start" x="166.54" y="-431" font-family="Helvetica,sans-Serif" font-size="10.00">+ open()</text>
<text text-anchor="start" x="166.54" y="-421" font-family="Helvetica,sans-Serif" font-size="10.00">+ setflags()</text>
<text text-anchor="start" x="166.54" y="-411" font-family="Helvetica,sans-Serif" font-size="10.00">+ read()</text>
<text text-anchor="start" x="166.54" y="-401" font-family="Helvetica,sans-Serif" font-size="10.00">+ read()</text>
<text text-anchor="start" x="166.54" y="-391" font-family="Helvetica,sans-Serif" font-size="10.00">+ write()</text>
<text text-anchor="start" x="166.54" y="-381" font-family="Helvetica,sans-Serif" font-size="10.00">+ readline()</text>
<text text-anchor="start" x="166.54" y="-371" font-family="Helvetica,sans-Serif" font-size="10.00">+ write()</text>
<text text-anchor="start" x="166.54" y="-361" font-family="Helvetica,sans-Serif" font-size="10.00">+ write()</text>
<text text-anchor="start" x="166.54" y="-351" font-family="Helvetica,sans-Serif" font-size="10.00">and 7 more...</text>
<text text-anchor="start" x="166.54" y="-341" font-family="Helvetica,sans-Serif" font-size="10.00"># _open()</text>
</a>
</g>
</g>
<!-- Node2&#45;&gt;Node1 -->
<g id="edge1" class="edge"><title>Node2&#45;&gt;Node1</title>
<path fill="none" stroke="midnightblue" d="M196,-324.483C196,-314.507 196,-305.087 196,-297.013"/>
<polygon fill="none" stroke="midnightblue" points="192.5,-324.613 196,-334.614 199.5,-324.614 192.5,-324.613"/>
</g>
<!-- Node3 -->
<g id="node3" class="node"><title>Node3</title>
<g id="a_node3"><a xlink:href="class_phy.html" target="_top" xlink:title="Base Applib Class for Physical devices. ">
<polygon fill="none" stroke="black" points="171.469,-547 171.469,-641 220.531,-641 220.531,-547 171.469,-547"/>
<text text-anchor="middle" x="196" y="-629" font-family="Helvetica,sans-Serif" font-size="10.00">Phy</text>
<polyline fill="none" stroke="black" points="171.469,-623 220.531,-623 "/>
<text text-anchor="middle" x="196" y="-611" font-family="Helvetica,sans-Serif" font-size="10.00"> </text>
<polyline fill="none" stroke="black" points="171.469,-605 220.531,-605 "/>
<text text-anchor="start" x="179.469" y="-593" font-family="Helvetica,sans-Serif" font-size="10.00">+ Phy()</text>
<text text-anchor="start" x="179.469" y="-583" font-family="Helvetica,sans-Serif" font-size="10.00">+ ioctl()</text>
<text text-anchor="start" x="179.469" y="-573" font-family="Helvetica,sans-Serif" font-size="10.00">+ ioctl()</text>
<text text-anchor="start" x="179.469" y="-563" font-family="Helvetica,sans-Serif" font-size="10.00">+ ioctl()</text>
<text text-anchor="start" x="179.469" y="-553" font-family="Helvetica,sans-Serif" font-size="10.00">+ ioctl()</text>
</a>
</g>
</g>
<!-- Node3&#45;&gt;Node2 -->
<g id="edge2" class="edge"><title>Node3&#45;&gt;Node2</title>
<path fill="none" stroke="midnightblue" d="M196,-536.763C196,-527.836 196,-518.428 196,-509.004"/>
<polygon fill="none" stroke="midnightblue" points="192.5,-536.996 196,-546.996 199.5,-536.996 192.5,-536.996"/>
</g>
</g>
</svg>
