<?xml version="1.0" encoding="UTF-8" standalone="no"?>
<!DOCTYPE svg PUBLIC "-//W3C//DTD SVG 1.1//EN"
 "http://www.w3.org/Graphics/SVG/1.1/DTD/svg11.dtd">
<!-- Generated by graphviz version 2.36.0 (20140111.2315)
 -->
<!-- Title: RleAppfs Pages: 1 -->
<svg width="161pt" height="216pt"
 viewBox="0.00 0.00 161.00 216.00" xmlns="http://www.w3.org/2000/svg" xmlns:xlink="http://www.w3.org/1999/xlink">
<g id="graph0" class="graph" transform="scale(1 1) rotate(0) translate(4 212)">
<title>RleAppfs</title>
<!-- Node1 -->
<g id="node1" class="node"><title>Node1</title>
<polygon fill="#bfbfbf" stroke="black" points="39.0728,-1 39.0728,-75 110.927,-75 110.927,-1 39.0728,-1"/>
<text text-anchor="middle" x="75" y="-63" font-family="Helvetica,sans-Serif" font-size="10.00">RleAppfs</text>
<polyline fill="none" stroke="black" points="39.0728,-57 110.927,-57 "/>
<text text-anchor="middle" x="75" y="-45" font-family="Helvetica,sans-Serif" font-size="10.00"> </text>
<polyline fill="none" stroke="black" points="39.0728,-39 110.927,-39 "/>
<text text-anchor="start" x="47.0728" y="-27" font-family="Helvetica,sans-Serif" font-size="10.00">+ RleAppfs()</text>
<text text-anchor="start" x="47.0728" y="-17" font-family="Helvetica,sans-Serif" font-size="10.00">+ write()</text>
<text text-anchor="start" x="47.0728" y="-7" font-family="Helvetica,sans-Serif" font-size="10.00">+ read()</text>
</g>
<!-- Node2 -->
<g id="node2" class="node"><title>Node2</title>
<g id="a_node2"><a xlink:href="class_rle.html" target="_top" xlink:title="Run Length Encoding Class. ">
<polygon fill="none" stroke="black" points="-0.0429688,-118 -0.0429688,-202 64.043,-202 64.043,-118 -0.0429688,-118"/>
<text text-anchor="middle" x="32" y="-190" font-family="Helvetica,sans-Serif" font-size="10.00">Rle</text>
<polyline fill="none" stroke="black" points="-0.0429688,-184 64.043,-184 "/>
<text text-anchor="middle" x="32" y="-172" font-family="Helvetica,sans-Serif" font-size="10.00"> </text>
<polyline fill="none" stroke="black" points="-0.0429688,-166 64.043,-166 "/>
<text text-anchor="start" x="7.95703" y="-154" font-family="Helvetica,sans-Serif" font-size="10.00">+ Rle()</text>
<text text-anchor="start" x="7.95703" y="-144" font-family="Helvetica,sans-Serif" font-size="10.00">+ encode()</text>
<text text-anchor="start" x="7.95703" y="-134" font-family="Helvetica,sans-Serif" font-size="10.00">+ decode()</text>
<text text-anchor="start" x="7.95703" y="-124" font-family="Helvetica,sans-Serif" font-size="10.00">+ size()</text>
</a>
</g>
</g>
<!-- Node2&#45;&gt;Node1 -->
<g id="edge1" class="edge"><title>Node2&#45;&gt;Node1</title>
<path fill="none" stroke="midnightblue" d="M50.2339,-108.115C54.204,-97.0353 58.3263,-85.5312 62.0421,-75.1616"/>
<polygon fill="none" stroke="midnightblue" points="46.8767,-107.108 46.7982,-117.703 53.4664,-109.47 46.8767,-107.108"/>
</g>
<!-- Node3 -->
<g id="node3" class="node"><title>Node3</title>
<g id="a_node3"><a xlink:href="class_appfs.html" target="_top" xlink:title="Class for accessing Application file system (Flash/RAM) ">
<polygon fill="none" stroke="black" points="82.3462,-113 82.3462,-207 153.654,-207 153.654,-113 82.3462,-113"/>
<text text-anchor="middle" x="118" y="-195" font-family="Helvetica,sans-Serif" font-size="10.00">Appfs</text>
<polyline fill="none" stroke="black" points="82.3462,-189 153.654,-189 "/>
<text text-anchor="middle" x="118" y="-177" font-family="Helvetica,sans-Serif" font-size="10.00"> </text>
<polyline fill="none" stroke="black" points="82.3462,-171 153.654,-171 "/>
<text text-anchor="start" x="90.3462" y="-159" font-family="Helvetica,sans-Serif" font-size="10.00">+ Appfs()</text>
<text text-anchor="start" x="90.3462" y="-149" font-family="Helvetica,sans-Serif" font-size="10.00">+ create()</text>
<text text-anchor="start" x="90.3462" y="-139" font-family="Helvetica,sans-Serif" font-size="10.00">+ offset()</text>
<text text-anchor="start" x="90.3462" y="-129" font-family="Helvetica,sans-Serif" font-size="10.00">+ pagesize()</text>
<text text-anchor="start" x="90.3462" y="-119" font-family="Helvetica,sans-Serif" font-size="10.00">+ cleanup()</text>
</a>
</g>
</g>
<!-- Node3&#45;&gt;Node1 -->
<g id="edge2" class="edge"><title>Node3&#45;&gt;Node1</title>
<path fill="none" stroke="midnightblue" d="M98.0784,-103.405C94.6272,-93.7737 91.1216,-83.9904 87.9196,-75.0548"/>
<polygon fill="none" stroke="midnightblue" points="94.8298,-104.715 101.498,-112.948 101.42,-102.354 94.8298,-104.715"/>
</g>
</g>
</svg>
