<?xml version="1.0" encoding="UTF-8" standalone="no"?>
<!DOCTYPE svg PUBLIC "-//W3C//DTD SVG 1.1//EN"
 "http://www.w3.org/Graphics/SVG/1.1/DTD/svg11.dtd">
<!-- Generated by graphviz version 2.36.0 (20140111.2315)
 -->
<!-- Title: include/Hal Pages: 1 -->
<svg width="94pt" height="150pt"
 viewBox="0.00 0.00 94.00 150.00" xmlns="http://www.w3.org/2000/svg" xmlns:xlink="http://www.w3.org/1999/xlink">
<g id="graph0" class="graph" transform="scale(1 1) rotate(0) translate(4 146)">
<title>include/Hal</title>
<g id="clust1" class="cluster"><title>clusterdir_d44c64559bbebec7f509842c48db8b23</title>
<g id="a_clust1"><a xlink:href="dir_d44c64559bbebec7f509842c48db8b23.html" target="_top" xlink:title="include">
<polygon fill="#ddddee" stroke="black" points="8,-64 8,-134 78,-134 78,-64 8,-64"/>
<text text-anchor="middle" x="43" y="-122" font-family="Helvetica,sans-Serif" font-size="10.00">include</text>
</a>
</g>
</g>
<!-- dir_73d196bab2a1569080baa8a8aeaf175c -->
<g id="node1" class="node"><title>dir_73d196bab2a1569080baa8a8aeaf175c</title>
<g id="a_node1"><a xlink:href="dir_73d196bab2a1569080baa8a8aeaf175c.html" target="_top" xlink:title="Hal">
<polygon fill="#eeeeff" stroke="black" points="70,-108 16,-108 16,-72 70,-72 70,-108"/>
<text text-anchor="middle" x="43" y="-87" font-family="Helvetica,sans-Serif" font-size="10.00">Hal</text>
</a>
</g>
</g>
<!-- dir_b142eaf1c758882af30358f2d78f1e20 -->
<g id="node2" class="node"><title>dir_b142eaf1c758882af30358f2d78f1e20</title>
<g id="a_node2"><a xlink:href="dir_b142eaf1c758882af30358f2d78f1e20.html" target="_top" xlink:title="Sys">
<polygon fill="none" stroke="black" points="70,-36 16,-36 16,-0 70,-0 70,-36"/>
<text text-anchor="middle" x="43" y="-15" font-family="Helvetica,sans-Serif" font-size="10.00">Sys</text>
</a>
</g>
</g>
<!-- dir_73d196bab2a1569080baa8a8aeaf175c&#45;&gt;dir_b142eaf1c758882af30358f2d78f1e20 -->
<g id="edge1" class="edge"><title>dir_73d196bab2a1569080baa8a8aeaf175c&#45;&gt;dir_b142eaf1c758882af30358f2d78f1e20</title>
<path fill="none" stroke="black" d="M37.0843,-71.6966C36.2886,-63.9827 36.0621,-54.7125 36.4047,-46.1124"/>
<polygon fill="black" stroke="black" points="39.8984,-46.3243 37.105,-36.1043 32.9154,-45.8356 39.8984,-46.3243"/>
<g id="a_edge1&#45;headlabel"><a xlink:href="dir_000004_000006.html" target="_top" xlink:title="1">
<text text-anchor="middle" x="42.4799" y="-47.1083" font-family="Helvetica,sans-Serif" font-size="10.00">1</text>
</a>
</g>
</g>
<!-- dir_b142eaf1c758882af30358f2d78f1e20&#45;&gt;dir_73d196bab2a1569080baa8a8aeaf175c -->
<g id="edge2" class="edge"><title>dir_b142eaf1c758882af30358f2d78f1e20&#45;&gt;dir_73d196bab2a1569080baa8a8aeaf175c</title>
<path fill="none" stroke="black" d="M48.895,-36.1043C49.7005,-43.7913 49.9369,-53.0537 49.604,-61.6651"/>
<polygon fill="black" stroke="black" points="46.1085,-61.4805 48.9157,-71.6966 53.0921,-61.9597 46.1085,-61.4805"/>
<g id="a_edge2&#45;headlabel"><a xlink:href="dir_000006_000004.html" target="_top" xlink:title="2">
<text text-anchor="middle" x="43.5219" y="-54.7" font-family="Helvetica,sans-Serif" font-size="10.00">2</text>
</a>
</g>
</g>
</g>
</svg>
