<?xml version="1.0" encoding="UTF-8" standalone="no"?>
<!DOCTYPE svg PUBLIC "-//W3C//DTD SVG 1.1//EN"
 "http://www.w3.org/Graphics/SVG/1.1/DTD/svg11.dtd">
<!-- Generated by graphviz version 2.36.0 (20140111.2315)
 -->
<!-- Title: include Pages: 1 -->
<svg width="278pt" height="292pt"
 viewBox="0.00 0.00 278.00 292.00" xmlns="http://www.w3.org/2000/svg" xmlns:xlink="http://www.w3.org/1999/xlink">
<g id="graph0" class="graph" transform="scale(1 1) rotate(0) translate(4 288)">
<title>include</title>
<g id="clust1" class="cluster"><title>clusterdir_d44c64559bbebec7f509842c48db8b23</title>
<g id="a_clust1"><a xlink:href="dir_d44c64559bbebec7f509842c48db8b23.html" target="_top">
<polygon fill="#eeeeff" stroke="black" points="8,-8 8,-276 262,-276 262,-8 8,-8"/>
</a>
</g>
</g>
<!-- dir_d44c64559bbebec7f509842c48db8b23 -->
<g id="node1" class="node"><title>dir_d44c64559bbebec7f509842c48db8b23</title>
<text text-anchor="middle" x="187" y="-247" font-family="Helvetica,sans-Serif" font-size="10.00">include</text>
</g>
<!-- dir_cbcad341ee742cad9ed1310bfa2331ba -->
<g id="node2" class="node"><title>dir_cbcad341ee742cad9ed1310bfa2331ba</title>
<g id="a_node2"><a xlink:href="dir_cbcad341ee742cad9ed1310bfa2331ba.html" target="_top" xlink:title="Calc">
<polygon fill="white" stroke="black" points="214,-196 160,-196 160,-160 214,-160 214,-196"/>
<text text-anchor="middle" x="187" y="-175" font-family="Helvetica,sans-Serif" font-size="10.00">Calc</text>
</a>
</g>
</g>
<!-- dir_d44c64559bbebec7f509842c48db8b23&#45;&gt;dir_cbcad341ee742cad9ed1310bfa2331ba -->
<g id="edge9" class="edge"><title>dir_d44c64559bbebec7f509842c48db8b23&#45;&gt;dir_cbcad341ee742cad9ed1310bfa2331ba</title>
<path fill="none" stroke="black" d="M187,-231.697C187,-223.983 187,-214.712 187,-206.112"/>
<polygon fill="black" stroke="black" points="190.5,-206.104 187,-196.104 183.5,-206.104 190.5,-206.104"/>
<g id="a_edge9&#45;headlabel"><a xlink:href="dir_000000_000001.html" target="_top" xlink:title="5">
<text text-anchor="middle" x="193.339" y="-206.699" font-family="Helvetica,sans-Serif" font-size="10.00">5</text>
</a>
</g>
</g>
<!-- dir_46e52f7f5d7679a59c11af698913ca02 -->
<g id="node3" class="node"><title>dir_46e52f7f5d7679a59c11af698913ca02</title>
<g id="a_node3"><a xlink:href="dir_46e52f7f5d7679a59c11af698913ca02.html" target="_top" xlink:title="Draw">
<polygon fill="white" stroke="black" points="70,-196 16,-196 16,-160 70,-160 70,-196"/>
<text text-anchor="middle" x="43" y="-175" font-family="Helvetica,sans-Serif" font-size="10.00">Draw</text>
</a>
</g>
</g>
<!-- dir_d44c64559bbebec7f509842c48db8b23&#45;&gt;dir_46e52f7f5d7679a59c11af698913ca02 -->
<g id="edge7" class="edge"><title>dir_d44c64559bbebec7f509842c48db8b23&#45;&gt;dir_46e52f7f5d7679a59c11af698913ca02</title>
<path fill="none" stroke="black" d="M159.915,-235.834C137.231,-224.807 104.643,-208.966 79.6319,-196.807"/>
<polygon fill="black" stroke="black" points="80.9773,-193.57 70.4534,-192.345 77.9169,-199.865 80.9773,-193.57"/>
<g id="a_edge7&#45;headlabel"><a xlink:href="dir_000000_000002.html" target="_top" xlink:title="7">
<text text-anchor="middle" x="85.4515" y="-189.588" font-family="Helvetica,sans-Serif" font-size="10.00">7</text>
</a>
</g>
</g>
<!-- dir_d870631ce8b8340dce476689be18ffbd -->
<g id="node4" class="node"><title>dir_d870631ce8b8340dce476689be18ffbd</title>
<g id="a_node4"><a xlink:href="dir_d870631ce8b8340dce476689be18ffbd.html" target="_top" xlink:title="Fmt">
<polygon fill="white" stroke="black" points="142,-196 88,-196 88,-160 142,-160 142,-196"/>
<text text-anchor="middle" x="115" y="-175" font-family="Helvetica,sans-Serif" font-size="10.00">Fmt</text>
</a>
</g>
</g>
<!-- dir_d44c64559bbebec7f509842c48db8b23&#45;&gt;dir_d870631ce8b8340dce476689be18ffbd -->
<g id="edge10" class="edge"><title>dir_d44c64559bbebec7f509842c48db8b23&#45;&gt;dir_d870631ce8b8340dce476689be18ffbd</title>
<path fill="none" stroke="black" d="M169.202,-231.697C160.396,-223.135 149.618,-212.656 139.999,-203.304"/>
<polygon fill="black" stroke="black" points="142.203,-200.566 132.593,-196.104 137.323,-205.585 142.203,-200.566"/>
<g id="a_edge10&#45;headlabel"><a xlink:href="dir_000000_000003.html" target="_top" xlink:title="3">
<text text-anchor="middle" x="146.759" y="-198.036" font-family="Helvetica,sans-Serif" font-size="10.00">3</text>
</a>
</g>
</g>
<!-- dir_73d196bab2a1569080baa8a8aeaf175c -->
<g id="node5" class="node"><title>dir_73d196bab2a1569080baa8a8aeaf175c</title>
<g id="a_node5"><a xlink:href="dir_73d196bab2a1569080baa8a8aeaf175c.html" target="_top" xlink:title="Hal">
<polygon fill="white" stroke="black" points="211,-52 157,-52 157,-16 211,-16 211,-52"/>
<text text-anchor="middle" x="184" y="-31" font-family="Helvetica,sans-Serif" font-size="10.00">Hal</text>
</a>
</g>
</g>
<!-- dir_d44c64559bbebec7f509842c48db8b23&#45;&gt;dir_73d196bab2a1569080baa8a8aeaf175c -->
<g id="edge8" class="edge"><title>dir_d44c64559bbebec7f509842c48db8b23&#45;&gt;dir_73d196bab2a1569080baa8a8aeaf175c</title>
<path fill="none" stroke="black" d="M204.132,-231.807C212.873,-222.074 222.917,-209.226 229,-196 249.225,-152.027 262.712,-132.206 243,-88 237.83,-76.4071 228.733,-66.2907 219.207,-58.0907"/>
<polygon fill="black" stroke="black" points="221.175,-55.1823 211.181,-51.6631 216.799,-60.6461 221.175,-55.1823"/>
<g id="a_edge8&#45;headlabel"><a xlink:href="dir_000000_000004.html" target="_top" xlink:title="16">
<text text-anchor="middle" x="225.755" y="-52.2132" font-family="Helvetica,sans-Serif" font-size="10.00">16</text>
</a>
</g>
</g>
<!-- dir_b634e31a8063e87588e463fe676a30ab -->
<g id="node6" class="node"><title>dir_b634e31a8063e87588e463fe676a30ab</title>
<g id="a_node6"><a xlink:href="dir_b634e31a8063e87588e463fe676a30ab.html" target="_top" xlink:title="Isp">
<polygon fill="white" stroke="black" points="234,-124 180,-124 180,-88 234,-88 234,-124"/>
<text text-anchor="middle" x="207" y="-103" font-family="Helvetica,sans-Serif" font-size="10.00">Isp</text>
</a>
</g>
</g>
<!-- dir_d44c64559bbebec7f509842c48db8b23&#45;&gt;dir_b634e31a8063e87588e463fe676a30ab -->
<g id="edge11" class="edge"><title>dir_d44c64559bbebec7f509842c48db8b23&#45;&gt;dir_b634e31a8063e87588e463fe676a30ab</title>
<path fill="none" stroke="black" d="M202.61,-231.774C210.373,-222.03 218.946,-209.184 223,-196 229.317,-175.458 224.303,-151.436 218.27,-133.529"/>
<polygon fill="black" stroke="black" points="221.51,-132.2 214.778,-124.019 214.939,-134.613 221.51,-132.2"/>
<g id="a_edge11&#45;headlabel"><a xlink:href="dir_000000_000005.html" target="_top" xlink:title="1">
<text text-anchor="middle" x="225.414" y="-131.596" font-family="Helvetica,sans-Serif" font-size="10.00">1</text>
</a>
</g>
</g>
<!-- dir_b142eaf1c758882af30358f2d78f1e20 -->
<g id="node7" class="node"><title>dir_b142eaf1c758882af30358f2d78f1e20</title>
<g id="a_node7"><a xlink:href="dir_b142eaf1c758882af30358f2d78f1e20.html" target="_top" xlink:title="Sys">
<polygon fill="white" stroke="black" points="162,-124 108,-124 108,-88 162,-88 162,-124"/>
<text text-anchor="middle" x="135" y="-103" font-family="Helvetica,sans-Serif" font-size="10.00">Sys</text>
</a>
</g>
</g>
<!-- dir_cbcad341ee742cad9ed1310bfa2331ba&#45;&gt;dir_b142eaf1c758882af30358f2d78f1e20 -->
<g id="edge4" class="edge"><title>dir_cbcad341ee742cad9ed1310bfa2331ba&#45;&gt;dir_b142eaf1c758882af30358f2d78f1e20</title>
<path fill="none" stroke="black" d="M174.146,-159.697C167.975,-151.389 160.463,-141.277 153.676,-132.141"/>
<polygon fill="black" stroke="black" points="156.479,-130.045 147.706,-124.104 150.86,-134.219 156.479,-130.045"/>
<g id="a_edge4&#45;headlabel"><a xlink:href="dir_000001_000006.html" target="_top" xlink:title="2">
<text text-anchor="middle" x="160.902" y="-128.237" font-family="Helvetica,sans-Serif" font-size="10.00">2</text>
</a>
</g>
</g>
<!-- dir_46e52f7f5d7679a59c11af698913ca02&#45;&gt;dir_b142eaf1c758882af30358f2d78f1e20 -->
<g id="edge1" class="edge"><title>dir_46e52f7f5d7679a59c11af698913ca02&#45;&gt;dir_b142eaf1c758882af30358f2d78f1e20</title>
<path fill="none" stroke="black" d="M65.7416,-159.697C77.4396,-150.796 91.8609,-139.823 104.51,-130.199"/>
<polygon fill="black" stroke="black" points="106.681,-132.945 112.52,-124.104 102.442,-127.374 106.681,-132.945"/>
<g id="a_edge1&#45;headlabel"><a xlink:href="dir_000002_000006.html" target="_top" xlink:title="1">
<text text-anchor="middle" x="105.54" y="-134.381" font-family="Helvetica,sans-Serif" font-size="10.00">1</text>
</a>
</g>
</g>
<!-- dir_67799cdd02442778bdf31f2a76de14e4 -->
<g id="node8" class="node"><title>dir_67799cdd02442778bdf31f2a76de14e4</title>
<g id="a_node8"><a xlink:href="dir_67799cdd02442778bdf31f2a76de14e4.html" target="_top" xlink:title="Var">
<polygon fill="white" stroke="black" points="116,-52 62,-52 62,-16 116,-16 116,-52"/>
<text text-anchor="middle" x="89" y="-31" font-family="Helvetica,sans-Serif" font-size="10.00">Var</text>
</a>
</g>
</g>
<!-- dir_46e52f7f5d7679a59c11af698913ca02&#45;&gt;dir_67799cdd02442778bdf31f2a76de14e4 -->
<g id="edge2" class="edge"><title>dir_46e52f7f5d7679a59c11af698913ca02&#45;&gt;dir_67799cdd02442778bdf31f2a76de14e4</title>
<path fill="none" stroke="black" d="M48.5487,-159.871C56.4231,-135.564 70.9179,-90.8187 80.2492,-62.0132"/>
<polygon fill="black" stroke="black" points="83.6795,-62.7812 83.4316,-52.1893 77.0202,-60.6239 83.6795,-62.7812"/>
<g id="a_edge2&#45;headlabel"><a xlink:href="dir_000002_000007.html" target="_top" xlink:title="2">
<text text-anchor="middle" x="85.2728" y="-64.0758" font-family="Helvetica,sans-Serif" font-size="10.00">2</text>
</a>
</g>
</g>
<!-- dir_d870631ce8b8340dce476689be18ffbd&#45;&gt;dir_b142eaf1c758882af30358f2d78f1e20 -->
<g id="edge5" class="edge"><title>dir_d870631ce8b8340dce476689be18ffbd&#45;&gt;dir_b142eaf1c758882af30358f2d78f1e20</title>
<path fill="none" stroke="black" d="M119.944,-159.697C122.172,-151.898 124.855,-142.509 127.335,-133.829"/>
<polygon fill="black" stroke="black" points="130.731,-134.681 130.113,-124.104 124,-132.758 130.731,-134.681"/>
<g id="a_edge5&#45;headlabel"><a xlink:href="dir_000003_000006.html" target="_top" xlink:title="3">
<text text-anchor="middle" x="132.474" y="-135.917" font-family="Helvetica,sans-Serif" font-size="10.00">3</text>
</a>
</g>
</g>
<!-- dir_d870631ce8b8340dce476689be18ffbd&#45;&gt;dir_67799cdd02442778bdf31f2a76de14e4 -->
<g id="edge6" class="edge"><title>dir_d870631ce8b8340dce476689be18ffbd&#45;&gt;dir_67799cdd02442778bdf31f2a76de14e4</title>
<path fill="none" stroke="black" d="M108.856,-159.538C105.475,-149.301 101.475,-136.051 99,-124 94.804,-103.567 92.2595,-80.108 90.788,-62.406"/>
<polygon fill="black" stroke="black" points="94.2603,-61.9093 90.0052,-52.2064 87.2808,-62.445 94.2603,-61.9093"/>
<g id="a_edge6&#45;headlabel"><a xlink:href="dir_000003_000007.html" target="_top" xlink:title="1">
<text text-anchor="middle" x="97.3662" y="-62.2761" font-family="Helvetica,sans-Serif" font-size="10.00">1</text>
</a>
</g>
</g>
<!-- dir_73d196bab2a1569080baa8a8aeaf175c&#45;&gt;dir_b142eaf1c758882af30358f2d78f1e20 -->
<g id="edge3" class="edge"><title>dir_73d196bab2a1569080baa8a8aeaf175c&#45;&gt;dir_b142eaf1c758882af30358f2d78f1e20</title>
<path fill="none" stroke="black" d="M177.922,-52.1043C172.995,-60.3826 166.128,-70.488 159.269,-79.6398"/>
<polygon fill="black" stroke="black" points="156.385,-77.6477 153.028,-87.6966 161.919,-81.9345 156.385,-77.6477"/>
<g id="a_edge3&#45;headlabel"><a xlink:href="dir_000004_000006.html" target="_top" xlink:title="1">
<text text-anchor="middle" x="156.342" y="-70.0672" font-family="Helvetica,sans-Serif" font-size="10.00">1</text>
</a>
</g>
</g>
<!-- dir_b634e31a8063e87588e463fe676a30ab&#45;&gt;dir_73d196bab2a1569080baa8a8aeaf175c -->
<g id="edge12" class="edge"><title>dir_b634e31a8063e87588e463fe676a30ab&#45;&gt;dir_73d196bab2a1569080baa8a8aeaf175c</title>
<path fill="none" stroke="black" d="M201.315,-87.6966C198.752,-79.8979 195.667,-70.5085 192.815,-61.8292"/>
<polygon fill="black" stroke="black" points="196.067,-60.5121 189.62,-52.1043 189.416,-62.6972 196.067,-60.5121"/>
<g id="a_edge12&#45;headlabel"><a xlink:href="dir_000005_000004.html" target="_top" xlink:title="4">
<text text-anchor="middle" x="199.886" y="-60.0408" font-family="Helvetica,sans-Serif" font-size="10.00">4</text>
</a>
</g>
</g>
<!-- dir_b142eaf1c758882af30358f2d78f1e20&#45;&gt;dir_73d196bab2a1569080baa8a8aeaf175c -->
<g id="edge13" class="edge"><title>dir_b142eaf1c758882af30358f2d78f1e20&#45;&gt;dir_73d196bab2a1569080baa8a8aeaf175c</title>
<path fill="none" stroke="black" d="M141.197,-87.6966C146.155,-79.3893 153.037,-69.2771 159.895,-60.1407"/>
<polygon fill="black" stroke="black" points="162.766,-62.1503 166.132,-52.1043 157.236,-57.8587 162.766,-62.1503"/>
<g id="a_edge13&#45;headlabel"><a xlink:href="dir_000006_000004.html" target="_top" xlink:title="2">
<text text-anchor="middle" x="162.805" y="-63.7308" font-family="Helvetica,sans-Serif" font-size="10.00">2</text>
</a>
</g>
</g>
<!-- dir_b142eaf1c758882af30358f2d78f1e20&#45;&gt;dir_67799cdd02442778bdf31f2a76de14e4 -->
<g id="edge14" class="edge"><title>dir_b142eaf1c758882af30358f2d78f1e20&#45;&gt;dir_67799cdd02442778bdf31f2a76de14e4</title>
<path fill="none" stroke="black" d="M123.629,-87.6966C118.282,-79.5589 111.796,-69.689 105.889,-60.7013"/>
<polygon fill="black" stroke="black" points="108.657,-58.5393 100.24,-52.1043 102.807,-62.3835 108.657,-58.5393"/>
<g id="a_edge14&#45;headlabel"><a xlink:href="dir_000006_000007.html" target="_top" xlink:title="2">
<text text-anchor="middle" x="113.004" y="-56.984" font-family="Helvetica,sans-Serif" font-size="10.00">2</text>
</a>
</g>
</g>
</g>
</svg>
