<?xml version="1.0" encoding="UTF-8" standalone="no"?>
<!DOCTYPE svg PUBLIC "-//W3C//DTD SVG 1.1//EN"
 "http://www.w3.org/Graphics/SVG/1.1/DTD/svg11.dtd">
<!-- Generated by graphviz version 2.36.0 (20140111.2315)
 -->
<!-- Title: include Pages: 1 -->
<svg width="310pt" height="220pt"
 viewBox="0.00 0.00 310.00 220.00" xmlns="http://www.w3.org/2000/svg" xmlns:xlink="http://www.w3.org/1999/xlink">
<g id="graph0" class="graph" transform="scale(1 1) rotate(0) translate(4 216)">
<title>include</title>
<g id="clust1" class="cluster"><title>clusterdir_d44c64559bbebec7f509842c48db8b23</title>
<g id="a_clust1"><a xlink:href="dir_d44c64559bbebec7f509842c48db8b23.html" target="_top">
<polygon fill="#eeeeff" stroke="black" points="8,-8 8,-204 294,-204 294,-8 8,-8"/>
</a>
</g>
</g>
<!-- dir_d44c64559bbebec7f509842c48db8b23 -->
<g id="node1" class="node"><title>dir_d44c64559bbebec7f509842c48db8b23</title>
<text text-anchor="middle" x="259" y="-175" font-family="Helvetica,sans-Serif" font-size="10.00">include</text>
</g>
<!-- dir_cbcad341ee742cad9ed1310bfa2331ba -->
<g id="node2" class="node"><title>dir_cbcad341ee742cad9ed1310bfa2331ba</title>
<g id="a_node2"><a xlink:href="dir_cbcad341ee742cad9ed1310bfa2331ba.html" target="_top" xlink:title="Calc">
<polygon fill="white" stroke="black" points="70,-196 16,-196 16,-160 70,-160 70,-196"/>
<text text-anchor="middle" x="43" y="-175" font-family="Helvetica,sans-Serif" font-size="10.00">Calc</text>
</a>
</g>
</g>
<!-- dir_b142eaf1c758882af30358f2d78f1e20 -->
<g id="node7" class="node"><title>dir_b142eaf1c758882af30358f2d78f1e20</title>
<g id="a_node7"><a xlink:href="dir_b142eaf1c758882af30358f2d78f1e20.html" target="_top" xlink:title="Sys">
<polygon fill="white" stroke="black" points="142,-124 88,-124 88,-88 142,-88 142,-124"/>
<text text-anchor="middle" x="115" y="-103" font-family="Helvetica,sans-Serif" font-size="10.00">Sys</text>
</a>
</g>
</g>
<!-- dir_cbcad341ee742cad9ed1310bfa2331ba&#45;&gt;dir_b142eaf1c758882af30358f2d78f1e20 -->
<g id="edge4" class="edge"><title>dir_cbcad341ee742cad9ed1310bfa2331ba&#45;&gt;dir_b142eaf1c758882af30358f2d78f1e20</title>
<path fill="none" stroke="black" d="M60.7978,-159.697C69.604,-151.135 80.3821,-140.656 90.0011,-131.304"/>
<polygon fill="black" stroke="black" points="92.6768,-133.585 97.407,-124.104 87.7972,-128.566 92.6768,-133.585"/>
<g id="a_edge4&#45;headlabel"><a xlink:href="dir_000001_000006.html" target="_top" xlink:title="2">
<text text-anchor="middle" x="92.0787" y="-135.126" font-family="Helvetica,sans-Serif" font-size="10.00">2</text>
</a>
</g>
</g>
<!-- dir_46e52f7f5d7679a59c11af698913ca02 -->
<g id="node3" class="node"><title>dir_46e52f7f5d7679a59c11af698913ca02</title>
<g id="a_node3"><a xlink:href="dir_46e52f7f5d7679a59c11af698913ca02.html" target="_top" xlink:title="Draw">
<polygon fill="white" stroke="black" points="214,-196 160,-196 160,-160 214,-160 214,-196"/>
<text text-anchor="middle" x="187" y="-175" font-family="Helvetica,sans-Serif" font-size="10.00">Draw</text>
</a>
</g>
</g>
<!-- dir_46e52f7f5d7679a59c11af698913ca02&#45;&gt;dir_b142eaf1c758882af30358f2d78f1e20 -->
<g id="edge1" class="edge"><title>dir_46e52f7f5d7679a59c11af698913ca02&#45;&gt;dir_b142eaf1c758882af30358f2d78f1e20</title>
<path fill="none" stroke="black" d="M169.202,-159.697C160.396,-151.135 149.618,-140.656 139.999,-131.304"/>
<polygon fill="black" stroke="black" points="142.203,-128.566 132.593,-124.104 137.323,-133.585 142.203,-128.566"/>
<g id="a_edge1&#45;headlabel"><a xlink:href="dir_000002_000006.html" target="_top" xlink:title="1">
<text text-anchor="middle" x="146.759" y="-126.036" font-family="Helvetica,sans-Serif" font-size="10.00">1</text>
</a>
</g>
</g>
<!-- dir_67799cdd02442778bdf31f2a76de14e4 -->
<g id="node8" class="node"><title>dir_67799cdd02442778bdf31f2a76de14e4</title>
<g id="a_node8"><a xlink:href="dir_67799cdd02442778bdf31f2a76de14e4.html" target="_top" xlink:title="Var">
<polygon fill="white" stroke="black" points="201,-52 147,-52 147,-16 201,-16 201,-52"/>
<text text-anchor="middle" x="174" y="-31" font-family="Helvetica,sans-Serif" font-size="10.00">Var</text>
</a>
</g>
</g>
<!-- dir_46e52f7f5d7679a59c11af698913ca02&#45;&gt;dir_67799cdd02442778bdf31f2a76de14e4 -->
<g id="edge2" class="edge"><title>dir_46e52f7f5d7679a59c11af698913ca02&#45;&gt;dir_67799cdd02442778bdf31f2a76de14e4</title>
<path fill="none" stroke="black" d="M185.432,-159.871C183.216,-135.67 179.146,-91.2108 176.508,-62.3932"/>
<polygon fill="black" stroke="black" points="179.971,-61.8285 175.574,-52.1893 173,-62.4667 179.971,-61.8285"/>
<g id="a_edge2&#45;headlabel"><a xlink:href="dir_000002_000007.html" target="_top" xlink:title="2">
<text text-anchor="middle" x="183.126" y="-62.1493" font-family="Helvetica,sans-Serif" font-size="10.00">2</text>
</a>
</g>
</g>
<!-- dir_d870631ce8b8340dce476689be18ffbd -->
<g id="node4" class="node"><title>dir_d870631ce8b8340dce476689be18ffbd</title>
<g id="a_node4"><a xlink:href="dir_d870631ce8b8340dce476689be18ffbd.html" target="_top" xlink:title="Fmt">
<polygon fill="white" stroke="black" points="142,-196 88,-196 88,-160 142,-160 142,-196"/>
<text text-anchor="middle" x="115" y="-175" font-family="Helvetica,sans-Serif" font-size="10.00">Fmt</text>
</a>
</g>
</g>
<!-- dir_d870631ce8b8340dce476689be18ffbd&#45;&gt;dir_b142eaf1c758882af30358f2d78f1e20 -->
<g id="edge5" class="edge"><title>dir_d870631ce8b8340dce476689be18ffbd&#45;&gt;dir_b142eaf1c758882af30358f2d78f1e20</title>
<path fill="none" stroke="black" d="M115,-159.697C115,-151.983 115,-142.712 115,-134.112"/>
<polygon fill="black" stroke="black" points="118.5,-134.104 115,-124.104 111.5,-134.104 118.5,-134.104"/>
<g id="a_edge5&#45;headlabel"><a xlink:href="dir_000003_000006.html" target="_top" xlink:title="3">
<text text-anchor="middle" x="121.339" y="-134.699" font-family="Helvetica,sans-Serif" font-size="10.00">3</text>
</a>
</g>
</g>
<!-- dir_d870631ce8b8340dce476689be18ffbd&#45;&gt;dir_67799cdd02442778bdf31f2a76de14e4 -->
<g id="edge6" class="edge"><title>dir_d870631ce8b8340dce476689be18ffbd&#45;&gt;dir_67799cdd02442778bdf31f2a76de14e4</title>
<path fill="none" stroke="black" d="M128.953,-159.758C136.413,-149.809 145.224,-136.77 151,-124 159.962,-104.187 165.899,-80.2518 169.493,-62.1955"/>
<polygon fill="black" stroke="black" points="172.942,-62.7926 171.344,-52.3191 166.062,-61.5035 172.942,-62.7926"/>
<g id="a_edge6&#45;headlabel"><a xlink:href="dir_000003_000007.html" target="_top" xlink:title="1">
<text text-anchor="middle" x="175.071" y="-63.8486" font-family="Helvetica,sans-Serif" font-size="10.00">1</text>
</a>
</g>
</g>
<!-- dir_73d196bab2a1569080baa8a8aeaf175c -->
<g id="node5" class="node"><title>dir_73d196bab2a1569080baa8a8aeaf175c</title>
<g id="a_node5"><a xlink:href="dir_73d196bab2a1569080baa8a8aeaf175c.html" target="_top" xlink:title="Hal">
<polygon fill="white" stroke="black" points="129,-52 75,-52 75,-16 129,-16 129,-52"/>
<text text-anchor="middle" x="102" y="-31" font-family="Helvetica,sans-Serif" font-size="10.00">Hal</text>
</a>
</g>
</g>
<!-- dir_73d196bab2a1569080baa8a8aeaf175c&#45;&gt;dir_b142eaf1c758882af30358f2d78f1e20 -->
<g id="edge3" class="edge"><title>dir_73d196bab2a1569080baa8a8aeaf175c&#45;&gt;dir_b142eaf1c758882af30358f2d78f1e20</title>
<path fill="none" stroke="black" d="M111.072,-52.1043C113.305,-59.7913 115.261,-69.0537 116.528,-77.6651"/>
<polygon fill="black" stroke="black" points="113.063,-78.1716 117.702,-87.6966 120.015,-77.3574 113.063,-78.1716"/>
<g id="a_edge3&#45;headlabel"><a xlink:href="dir_000004_000006.html" target="_top" xlink:title="1">
<text text-anchor="middle" x="109.825" y="-71.9316" font-family="Helvetica,sans-Serif" font-size="10.00">1</text>
</a>
</g>
</g>
<!-- dir_b634e31a8063e87588e463fe676a30ab -->
<g id="node6" class="node"><title>dir_b634e31a8063e87588e463fe676a30ab</title>
<g id="a_node6"><a xlink:href="dir_b634e31a8063e87588e463fe676a30ab.html" target="_top" xlink:title="Isp">
<polygon fill="white" stroke="black" points="70,-124 16,-124 16,-88 70,-88 70,-124"/>
<text text-anchor="middle" x="43" y="-103" font-family="Helvetica,sans-Serif" font-size="10.00">Isp</text>
</a>
</g>
</g>
<!-- dir_b634e31a8063e87588e463fe676a30ab&#45;&gt;dir_73d196bab2a1569080baa8a8aeaf175c -->
<g id="edge7" class="edge"><title>dir_b634e31a8063e87588e463fe676a30ab&#45;&gt;dir_73d196bab2a1569080baa8a8aeaf175c</title>
<path fill="none" stroke="black" d="M57.5843,-87.6966C64.6576,-79.3046 73.2834,-69.0705 81.0454,-59.8613"/>
<polygon fill="black" stroke="black" points="83.8149,-62.0063 87.5835,-52.1043 78.4625,-57.495 83.8149,-62.0063"/>
<g id="a_edge7&#45;headlabel"><a xlink:href="dir_000005_000004.html" target="_top" xlink:title="4">
<text text-anchor="middle" x="83.6693" y="-63.5846" font-family="Helvetica,sans-Serif" font-size="10.00">4</text>
</a>
</g>
</g>
<!-- dir_b142eaf1c758882af30358f2d78f1e20&#45;&gt;dir_73d196bab2a1569080baa8a8aeaf175c -->
<g id="edge8" class="edge"><title>dir_b142eaf1c758882af30358f2d78f1e20&#45;&gt;dir_73d196bab2a1569080baa8a8aeaf175c</title>
<path fill="none" stroke="black" d="M105.871,-87.6966C103.643,-79.9827 101.694,-70.7125 100.44,-62.1124"/>
<polygon fill="black" stroke="black" points="103.908,-61.6356 99.2815,-52.1043 96.9546,-62.4405 103.908,-61.6356"/>
<g id="a_edge8&#45;headlabel"><a xlink:href="dir_000006_000004.html" target="_top" xlink:title="2">
<text text-anchor="middle" x="107.142" y="-61.8799" font-family="Helvetica,sans-Serif" font-size="10.00">2</text>
</a>
</g>
</g>
<!-- dir_b142eaf1c758882af30358f2d78f1e20&#45;&gt;dir_67799cdd02442778bdf31f2a76de14e4 -->
<g id="edge9" class="edge"><title>dir_b142eaf1c758882af30358f2d78f1e20&#45;&gt;dir_67799cdd02442778bdf31f2a76de14e4</title>
<path fill="none" stroke="black" d="M129.584,-87.6966C136.658,-79.3046 145.283,-69.0705 153.045,-59.8613"/>
<polygon fill="black" stroke="black" points="155.815,-62.0063 159.583,-52.1043 150.463,-57.495 155.815,-62.0063"/>
<g id="a_edge9&#45;headlabel"><a xlink:href="dir_000006_000007.html" target="_top" xlink:title="2">
<text text-anchor="middle" x="155.669" y="-63.5846" font-family="Helvetica,sans-Serif" font-size="10.00">2</text>
</a>
</g>
</g>
</g>
</svg>
