<?xml version="1.0" encoding="UTF-8" standalone="no"?>
<!DOCTYPE svg PUBLIC "-//W3C//DTD SVG 1.1//EN"
 "http://www.w3.org/Graphics/SVG/1.1/DTD/svg11.dtd">
<!-- Generated by graphviz version 2.36.0 (20140111.2315)
 -->
<!-- Title: Peripherals Pages: 1 -->
<svg width="248pt" height="486pt"
 viewBox="0.00 0.00 248.00 486.00" xmlns="http://www.w3.org/2000/svg" xmlns:xlink="http://www.w3.org/1999/xlink">
<g id="graph0" class="graph" transform="scale(1 1) rotate(0) translate(4 482)">
<title>Peripherals</title>
<!-- Node8 -->
<g id="node1" class="node"><title>Node8</title>
<g id="a_node1"><a xlink:href="group___r_t_c.html" target="_top" xlink:title="Real Time Clock. ">
<polygon fill="none" stroke="black" points="112.689,-460 112.689,-478 231.311,-478 231.311,-460 112.689,-460"/>
<text text-anchor="middle" x="172" y="-466" font-family="Helvetica,sans-Serif" font-size="10.00">Real Time Clock (RTC)</text>
</a>
</g>
</g>
<!-- Node0 -->
<g id="node2" class="node"><title>Node0</title>
<polygon fill="#bfbfbf" stroke="black" points="0.709473,-245 0.709473,-263 67.2905,-263 67.2905,-245 0.709473,-245"/>
<text text-anchor="middle" x="34" y="-251" font-family="Helvetica,sans-Serif" font-size="10.00">Peripherals</text>
</g>
<!-- Node0&#45;&gt;Node8 -->
<g id="edge8" class="edge"><title>Node0&#45;&gt;Node8</title>
<path fill="none" stroke="midnightblue" d="M36.1189,-273.464C39.4426,-312.7 52.5565,-401.659 104,-450 108.405,-454.14 113.646,-457.387 119.227,-459.933"/>
<polygon fill="midnightblue" stroke="midnightblue" points="39.6024,-273.108 35.3933,-263.385 32.6205,-273.61 39.6024,-273.108"/>
</g>
<!-- Node4 -->
<g id="node3" class="node"><title>Node4</title>
<g id="a_node3"><a xlink:href="group___i2_c.html" target="_top" xlink:title="Inter&#45;IC Communications. ">
<polygon fill="none" stroke="black" points="114.256,-413 114.256,-441 229.744,-441 229.744,-413 114.256,-413"/>
<text text-anchor="start" x="122.256" y="-429" font-family="Helvetica,sans-Serif" font-size="10.00">Inter&#45;Integrated Circuit</text>
<text text-anchor="middle" x="172" y="-419" font-family="Helvetica,sans-Serif" font-size="10.00"> (I2C) Master</text>
</a>
</g>
</g>
<!-- Node0&#45;&gt;Node4 -->
<g id="edge4" class="edge"><title>Node0&#45;&gt;Node4</title>
<path fill="none" stroke="midnightblue" d="M38.8606,-273.233C46.1443,-304.686 64.8337,-367.199 104,-403 108.286,-406.918 113.257,-410.206 118.517,-412.964"/>
<polygon fill="midnightblue" stroke="midnightblue" points="42.2157,-272.189 36.6764,-263.158 35.3746,-273.673 42.2157,-272.189"/>
</g>
<!-- Node2 -->
<g id="node4" class="node"><title>Node2</title>
<g id="a_node4"><a xlink:href="group___c_o_r_e.html" target="_top" xlink:title="Core MCU Access. ">
<polygon fill="none" stroke="black" points="118.988,-366 118.988,-394 225.012,-394 225.012,-366 118.988,-366"/>
<text text-anchor="start" x="126.988" y="-382" font-family="Helvetica,sans-Serif" font-size="10.00">Core Microcontroller</text>
<text text-anchor="middle" x="172" y="-372" font-family="Helvetica,sans-Serif" font-size="10.00"> Access</text>
</a>
</g>
</g>
<!-- Node0&#45;&gt;Node2 -->
<g id="edge2" class="edge"><title>Node0&#45;&gt;Node2</title>
<path fill="none" stroke="midnightblue" d="M42.9218,-272.231C53.6479,-294.906 74.8535,-333.379 104,-356 108.978,-359.864 114.632,-363.14 120.494,-365.91"/>
<polygon fill="midnightblue" stroke="midnightblue" points="46.0667,-270.692 38.7401,-263.039 39.695,-273.59 46.0667,-270.692"/>
</g>
<!-- Node9 -->
<g id="node5" class="node"><title>Node9</title>
<g id="a_node5"><a xlink:href="group___s_p_i.html" target="_top" xlink:title="Serial Peripheral Interface. ">
<polygon fill="none" stroke="black" points="106.192,-319 106.192,-347 237.808,-347 237.808,-319 106.192,-319"/>
<text text-anchor="start" x="114.192" y="-335" font-family="Helvetica,sans-Serif" font-size="10.00">Serial Peripheral Interface</text>
<text text-anchor="middle" x="172" y="-325" font-family="Helvetica,sans-Serif" font-size="10.00"> (SPI) Master</text>
</a>
</g>
</g>
<!-- Node0&#45;&gt;Node9 -->
<g id="edge9" class="edge"><title>Node0&#45;&gt;Node9</title>
<path fill="none" stroke="midnightblue" d="M51.9744,-270.18C65.2825,-282.18 84.7186,-298.253 104,-309 110.691,-312.729 118.072,-316.06 125.414,-318.967"/>
<polygon fill="midnightblue" stroke="midnightblue" points="54.26,-267.527 44.5364,-263.32 49.514,-272.672 54.26,-267.527"/>
</g>
<!-- Node5 -->
<g id="node6" class="node"><title>Node5</title>
<g id="a_node6"><a xlink:href="group___p_i_o.html" target="_top" xlink:title="Pin Input/Output. ">
<polygon fill="none" stroke="black" points="114.532,-282 114.532,-300 229.468,-300 229.468,-282 114.532,-282"/>
<text text-anchor="middle" x="172" y="-288" font-family="Helvetica,sans-Serif" font-size="10.00">Pin Input/Output (PIO)</text>
</a>
</g>
</g>
<!-- Node0&#45;&gt;Node5 -->
<g id="edge5" class="edge"><title>Node0&#45;&gt;Node5</title>
<path fill="none" stroke="midnightblue" d="M77.4044,-265.536C96.8491,-270.827 119.563,-277.006 137.746,-281.953"/>
<polygon fill="midnightblue" stroke="midnightblue" points="78.1435,-262.11 67.5754,-262.862 76.3058,-268.865 78.1435,-262.11"/>
</g>
<!-- Node10 -->
<g id="node7" class="node"><title>Node10</title>
<g id="a_node7"><a xlink:href="group___t_m_r.html" target="_top" xlink:title="Timer. ">
<polygon fill="none" stroke="black" points="135.858,-245 135.858,-263 208.142,-263 208.142,-245 135.858,-245"/>
<text text-anchor="middle" x="172" y="-251" font-family="Helvetica,sans-Serif" font-size="10.00">Timer (TMR)</text>
</a>
</g>
</g>
<!-- Node0&#45;&gt;Node10 -->
<g id="edge10" class="edge"><title>Node0&#45;&gt;Node10</title>
<path fill="none" stroke="midnightblue" d="M77.6226,-254C96.3415,-254 118.056,-254 135.832,-254"/>
<polygon fill="midnightblue" stroke="midnightblue" points="77.5754,-250.5 67.5754,-254 77.5754,-257.5 77.5754,-250.5"/>
</g>
<!-- Node1 -->
<g id="node8" class="node"><title>Node1</title>
<g id="a_node8"><a xlink:href="group___a_d_c.html" target="_top" xlink:title="Analog to Digital Converter. ">
<polygon fill="none" stroke="black" points="104.247,-198 104.247,-226 239.753,-226 239.753,-198 104.247,-198"/>
<text text-anchor="start" x="112.247" y="-214" font-family="Helvetica,sans-Serif" font-size="10.00">Analog to Digital Converter</text>
<text text-anchor="middle" x="172" y="-204" font-family="Helvetica,sans-Serif" font-size="10.00"> (ADC)</text>
</a>
</g>
</g>
<!-- Node0&#45;&gt;Node1 -->
<g id="edge1" class="edge"><title>Node0&#45;&gt;Node1</title>
<path fill="none" stroke="midnightblue" d="M73.8257,-242.01C89.9538,-237.029 108.784,-231.214 125.551,-226.036"/>
<polygon fill="midnightblue" stroke="midnightblue" points="72.6974,-238.695 64.1754,-244.99 74.7629,-245.383 72.6974,-238.695"/>
</g>
<!-- Node7 -->
<g id="node9" class="node"><title>Node7</title>
<g id="a_node9"><a xlink:href="group___q_e_i.html" target="_top" xlink:title="Quadrature Encoder Interface. ">
<polygon fill="none" stroke="black" points="118.695,-151 118.695,-179 225.305,-179 225.305,-151 118.695,-151"/>
<text text-anchor="start" x="126.695" y="-167" font-family="Helvetica,sans-Serif" font-size="10.00">Quadrature Encoder</text>
<text text-anchor="middle" x="172" y="-157" font-family="Helvetica,sans-Serif" font-size="10.00"> Interface (QEI)</text>
</a>
</g>
</g>
<!-- Node0&#45;&gt;Node7 -->
<g id="edge7" class="edge"><title>Node0&#45;&gt;Node7</title>
<path fill="none" stroke="midnightblue" d="M49.3141,-237.045C62.3072,-222.572 82.6511,-202.082 104,-189 110.11,-185.256 116.891,-181.976 123.725,-179.143"/>
<polygon fill="midnightblue" stroke="midnightblue" points="46.508,-234.937 42.5613,-244.769 51.7781,-239.544 46.508,-234.937"/>
</g>
<!-- Node6 -->
<g id="node10" class="node"><title>Node6</title>
<g id="a_node10"><a xlink:href="group___p_w_m.html" target="_top" xlink:title="Pulse Width Modulation. ">
<polygon fill="none" stroke="black" points="111.473,-104 111.473,-132 232.527,-132 232.527,-104 111.473,-104"/>
<text text-anchor="start" x="119.473" y="-120" font-family="Helvetica,sans-Serif" font-size="10.00">Pulse Width Modulation</text>
<text text-anchor="middle" x="172" y="-110" font-family="Helvetica,sans-Serif" font-size="10.00"> (PWM)</text>
</a>
</g>
</g>
<!-- Node0&#45;&gt;Node6 -->
<g id="edge6" class="edge"><title>Node0&#45;&gt;Node6</title>
<path fill="none" stroke="midnightblue" d="M41.8778,-235.387C51.9028,-210.698 72.8004,-167.297 104,-142 108.799,-138.109 114.279,-134.823 119.991,-132.053"/>
<polygon fill="midnightblue" stroke="midnightblue" points="38.6126,-234.127 38.2487,-244.716 45.1363,-236.665 38.6126,-234.127"/>
</g>
<!-- Node11 -->
<g id="node11" class="node"><title>Node11</title>
<g id="a_node11"><a xlink:href="group___u_a_r_t.html" target="_top" xlink:title="UART. ">
<polygon fill="none" stroke="black" points="110.36,-47 110.36,-85 233.64,-85 233.64,-47 110.36,-47"/>
<text text-anchor="start" x="118.36" y="-73" font-family="Helvetica,sans-Serif" font-size="10.00">Universal Asynchronous</text>
<text text-anchor="start" x="118.36" y="-63" font-family="Helvetica,sans-Serif" font-size="10.00"> Receiver/Transmitter</text>
<text text-anchor="middle" x="172" y="-53" font-family="Helvetica,sans-Serif" font-size="10.00"> (UART)</text>
</a>
</g>
</g>
<!-- Node0&#45;&gt;Node11 -->
<g id="edge11" class="edge"><title>Node0&#45;&gt;Node11</title>
<path fill="none" stroke="midnightblue" d="M38.5641,-234.69C45.5557,-201.885 64.0104,-134.952 104,-95 107.766,-91.2376 112.1,-87.9291 116.713,-85.0269"/>
<polygon fill="midnightblue" stroke="midnightblue" points="35.0773,-234.278 36.5527,-244.77 41.942,-235.648 35.0773,-234.278"/>
</g>
<!-- Node3 -->
<g id="node12" class="node"><title>Node3</title>
<g id="a_node12"><a xlink:href="group___e_i_n_t.html" target="_top" xlink:title="External Interrupts. ">
<polygon fill="none" stroke="black" points="123.148,-0 123.148,-28 220.852,-28 220.852,-0 123.148,-0"/>
<text text-anchor="start" x="131.148" y="-16" font-family="Helvetica,sans-Serif" font-size="10.00">External Interrupts</text>
<text text-anchor="middle" x="172" y="-6" font-family="Helvetica,sans-Serif" font-size="10.00"> (EINT)</text>
</a>
</g>
</g>
<!-- Node0&#45;&gt;Node3 -->
<g id="edge3" class="edge"><title>Node0&#45;&gt;Node3</title>
<path fill="none" stroke="midnightblue" d="M35.6686,-234.618C38.1458,-192.968 49.7539,-94.1658 104,-38 109.322,-32.4898 115.996,-28.2409 123.055,-24.9656"/>
<polygon fill="midnightblue" stroke="midnightblue" points="32.1651,-234.611 35.1842,-244.766 39.1571,-234.945 32.1651,-234.611"/>
</g>
</g>
</svg>
