<?xml version="1.0" encoding="UTF-8" standalone="no"?>
<!DOCTYPE svg PUBLIC "-//W3C//DTD SVG 1.1//EN"
 "http://www.w3.org/Graphics/SVG/1.1/DTD/svg11.dtd">
<!-- Generated by graphviz version 2.36.0 (20140111.2315)
 -->
<!-- Title: Graphical Class Hierarchy Pages: 1 -->
<svg width="350pt" height="63pt"
 viewBox="0.00 0.00 350.00 63.00" xmlns="http://www.w3.org/2000/svg" xmlns:xlink="http://www.w3.org/1999/xlink">
<g id="graph0" class="graph" transform="scale(1 1) rotate(0) translate(4 59)">
<title>Graphical Class Hierarchy</title>
<!-- Node1 -->
<g id="node1" class="node"><title>Node1</title>
<g id="a_node1"><a xlink:href="class_draw_1_1_m_font.html" target="_top" xlink:title="Monochrome Font. ">
<polygon fill="none" stroke="black" points="0.384277,-18 0.384277,-36 73.6157,-36 73.6157,-18 0.384277,-18"/>
<text text-anchor="middle" x="37" y="-24" font-family="Helvetica,sans-Serif" font-size="10.00">Draw::MFont</text>
</a>
</g>
</g>
<!-- Node2 -->
<g id="node2" class="node"><title>Node2</title>
<g id="a_node2"><a xlink:href="class_draw_1_1_m_b_font.html" target="_top" xlink:title="Monochrome Bitmap Font class. ">
<polygon fill="none" stroke="black" points="110.049,-18 110.049,-36 189.951,-36 189.951,-18 110.049,-18"/>
<text text-anchor="middle" x="150" y="-24" font-family="Helvetica,sans-Serif" font-size="10.00">Draw::MBFont</text>
</a>
</g>
</g>
<!-- Node1&#45;&gt;Node2 -->
<g id="edge1" class="edge"><title>Node1&#45;&gt;Node2</title>
<path fill="none" stroke="midnightblue" d="M84.0055,-27C92.6025,-27 101.513,-27 109.878,-27"/>
<polygon fill="midnightblue" stroke="midnightblue" points="83.7321,-23.5001 73.7321,-27 83.7321,-30.5001 83.7321,-23.5001"/>
</g>
<!-- Node3 -->
<g id="node3" class="node"><title>Node3</title>
<g id="a_node3"><a xlink:href="class_draw_1_1_font8.html" target="_top" xlink:title="Bitmap Fonts (used with LCDs) ">
<polygon fill="none" stroke="black" points="248.769,-37 248.769,-55 319.231,-55 319.231,-37 248.769,-37"/>
<text text-anchor="middle" x="284" y="-43" font-family="Helvetica,sans-Serif" font-size="10.00">Draw::Font8</text>
</a>
</g>
</g>
<!-- Node2&#45;&gt;Node3 -->
<g id="edge2" class="edge"><title>Node2&#45;&gt;Node3</title>
<path fill="none" stroke="midnightblue" d="M200.528,-34.1291C216.542,-36.4341 233.938,-38.938 248.607,-41.0494"/>
<polygon fill="midnightblue" stroke="midnightblue" points="200.644,-30.6097 190.247,-32.6492 199.646,-37.5383 200.644,-30.6097"/>
</g>
<!-- Node4 -->
<g id="node4" class="node"><title>Node4</title>
<g id="a_node4"><a xlink:href="class_draw_1_1_m_b_font_memory.html" target="_top" xlink:title="Monochrome Bitmap Font class (stored in flash memory) ">
<polygon fill="none" stroke="black" points="225.993,-0 225.993,-18 342.007,-18 342.007,-0 225.993,-0"/>
<text text-anchor="middle" x="284" y="-6" font-family="Helvetica,sans-Serif" font-size="10.00">Draw::MBFontMemory</text>
</a>
</g>
</g>
<!-- Node2&#45;&gt;Node4 -->
<g id="edge3" class="edge"><title>Node2&#45;&gt;Node4</title>
<path fill="none" stroke="midnightblue" d="M200.408,-20.2625C208.618,-19.143 217.194,-17.9736 225.581,-16.8298"/>
<polygon fill="midnightblue" stroke="midnightblue" points="199.682,-16.829 190.247,-21.6481 200.628,-23.7648 199.682,-16.829"/>
</g>
</g>
</svg>
