<?xml version="1.0" encoding="UTF-8" standalone="no"?>
<!DOCTYPE svg PUBLIC "-//W3C//DTD SVG 1.1//EN"
 "http://www.w3.org/Graphics/SVG/1.1/DTD/svg11.dtd">
<!-- Generated by graphviz version 2.36.0 (20140111.2315)
 -->
<!-- Title: Graphical Class Hierarchy Pages: 1 -->
<svg width="410pt" height="692pt"
 viewBox="0.00 0.00 410.00 692.00" xmlns="http://www.w3.org/2000/svg" xmlns:xlink="http://www.w3.org/1999/xlink">
<g id="graph0" class="graph" transform="scale(1 1) rotate(0) translate(4 688)">
<title>Graphical Class Hierarchy</title>
<!-- Node1 -->
<g id="node1" class="node"><title>Node1</title>
<g id="a_node1"><a xlink:href="class_calc_1_1_rle.html" target="_top" xlink:title="Run Length Encoding Class. ">
<polygon fill="none" stroke="black" points="94.7168,-629 94.7168,-647 151.283,-647 151.283,-629 94.7168,-629"/>
<text text-anchor="middle" x="123" y="-635" font-family="Helvetica,sans-Serif" font-size="10.00">Calc::Rle</text>
</a>
</g>
</g>
<!-- Node2 -->
<g id="node2" class="node"><title>Node2</title>
<g id="a_node2"><a xlink:href="class_calc_1_1_rle_appfs.html" target="_top" xlink:title="Class for reading/writing compressed file data using Appfs. ">
<polygon fill="none" stroke="black" points="191.931,-666 191.931,-684 274.069,-684 274.069,-666 191.931,-666"/>
<text text-anchor="middle" x="233" y="-672" font-family="Helvetica,sans-Serif" font-size="10.00">Calc::RleAppfs</text>
</a>
</g>
</g>
<!-- Node1&#45;&gt;Node2 -->
<g id="edge1" class="edge"><title>Node1&#45;&gt;Node2</title>
<path fill="none" stroke="midnightblue" d="M160.28,-650.429C175.074,-655.498 191.865,-661.25 205.479,-665.914"/>
<polygon fill="midnightblue" stroke="midnightblue" points="161.014,-646.981 150.42,-647.051 158.746,-653.603 161.014,-646.981"/>
</g>
<!-- Node3 -->
<g id="node3" class="node"><title>Node3</title>
<g id="a_node3"><a xlink:href="class_calc_1_1_rle_file.html" target="_top" xlink:title="Class for reading/writing compressed file data. ">
<polygon fill="none" stroke="black" points="196.66,-629 196.66,-647 269.34,-647 269.34,-629 196.66,-629"/>
<text text-anchor="middle" x="233" y="-635" font-family="Helvetica,sans-Serif" font-size="10.00">Calc::RleFile</text>
</a>
</g>
</g>
<!-- Node1&#45;&gt;Node3 -->
<g id="edge2" class="edge"><title>Node1&#45;&gt;Node3</title>
<path fill="none" stroke="midnightblue" d="M161.539,-638C172.831,-638 185.185,-638 196.35,-638"/>
<polygon fill="midnightblue" stroke="midnightblue" points="161.532,-634.5 151.532,-638 161.532,-641.5 161.532,-634.5"/>
</g>
<!-- Node4 -->
<g id="node4" class="node"><title>Node4</title>
<g id="a_node4"><a xlink:href="class_hal_1_1_phy.html" target="_top" xlink:title="Base Applib Class for Physical devices. ">
<polygon fill="none" stroke="black" points="0.103516,-425 0.103516,-443 53.8965,-443 53.8965,-425 0.103516,-425"/>
<text text-anchor="middle" x="27" y="-431" font-family="Helvetica,sans-Serif" font-size="10.00">Hal::Phy</text>
</a>
</g>
</g>
<!-- Node5 -->
<g id="node5" class="node"><title>Node5</title>
<g id="a_node5"><a xlink:href="class_hal_1_1_periph.html" target="_top" xlink:title="Peripheral Class. ">
<polygon fill="none" stroke="black" points="90.2661,-277 90.2661,-295 155.734,-295 155.734,-277 90.2661,-277"/>
<text text-anchor="middle" x="123" y="-283" font-family="Helvetica,sans-Serif" font-size="10.00">Hal::Periph</text>
</a>
</g>
</g>
<!-- Node4&#45;&gt;Node5 -->
<g id="edge3" class="edge"><title>Node4&#45;&gt;Node5</title>
<path fill="none" stroke="midnightblue" d="M39.4091,-416.037C59.5739,-384.288 100.826,-319.338 116.122,-295.255"/>
<polygon fill="midnightblue" stroke="midnightblue" points="36.2871,-414.424 33.8801,-424.742 42.196,-418.177 36.2871,-414.424"/>
</g>
<!-- Node22 -->
<g id="node22" class="node"><title>Node22</title>
<g id="a_node22"><a xlink:href="class_sys_1_1_file.html" target="_top" xlink:title="File Class. ">
<polygon fill="none" stroke="black" points="95.8301,-555 95.8301,-573 150.17,-573 150.17,-555 95.8301,-555"/>
<text text-anchor="middle" x="123" y="-561" font-family="Helvetica,sans-Serif" font-size="10.00">Sys::File</text>
</a>
</g>
</g>
<!-- Node4&#45;&gt;Node22 -->
<g id="edge20" class="edge"><title>Node4&#45;&gt;Node22</title>
<path fill="none" stroke="midnightblue" d="M40.869,-451.798C61.1362,-479.827 99.7794,-533.269 115.301,-554.735"/>
<polygon fill="midnightblue" stroke="midnightblue" points="43.456,-449.402 34.7602,-443.349 37.7835,-453.504 43.456,-449.402"/>
</g>
<!-- Node6 -->
<g id="node6" class="node"><title>Node6</title>
<g id="a_node6"><a xlink:href="class_hal_1_1_adc.html" target="_top" xlink:title="ADC Peripheral Class. ">
<polygon fill="none" stroke="black" points="206.104,-481 206.104,-499 259.896,-499 259.896,-481 206.104,-481"/>
<text text-anchor="middle" x="233" y="-487" font-family="Helvetica,sans-Serif" font-size="10.00">Hal::Adc</text>
</a>
</g>
</g>
<!-- Node5&#45;&gt;Node6 -->
<g id="edge4" class="edge"><title>Node5&#45;&gt;Node6</title>
<path fill="none" stroke="midnightblue" d="M126.304,-305.693C131.571,-342.508 147.663,-422.423 192,-471 195.835,-475.202 200.796,-478.562 205.91,-481.216"/>
<polygon fill="midnightblue" stroke="midnightblue" points="129.719,-304.811 124.952,-295.348 122.778,-305.718 129.719,-304.811"/>
</g>
<!-- Node7 -->
<g id="node7" class="node"><title>Node7</title>
<g id="a_node7"><a xlink:href="class_hal_1_1_core.html" target="_top" xlink:title="Core Class. ">
<polygon fill="none" stroke="black" points="203.882,-444 203.882,-462 262.118,-462 262.118,-444 203.882,-444"/>
<text text-anchor="middle" x="233" y="-450" font-family="Helvetica,sans-Serif" font-size="10.00">Hal::Core</text>
</a>
</g>
</g>
<!-- Node5&#45;&gt;Node7 -->
<g id="edge5" class="edge"><title>Node5&#45;&gt;Node7</title>
<path fill="none" stroke="midnightblue" d="M128.278,-305.123C136.05,-335.897 155.197,-396.724 192,-434 195.997,-438.048 201.026,-441.344 206.155,-443.984"/>
<polygon fill="midnightblue" stroke="midnightblue" points="131.645,-304.157 125.917,-295.244 124.837,-305.784 131.645,-304.157"/>
</g>
<!-- Node8 -->
<g id="node8" class="node"><title>Node8</title>
<g id="a_node8"><a xlink:href="class_hal_1_1_eint.html" target="_top" xlink:title="External Interrupt Class. ">
<polygon fill="none" stroke="black" points="206.104,-407 206.104,-425 259.896,-425 259.896,-407 206.104,-407"/>
<text text-anchor="middle" x="233" y="-413" font-family="Helvetica,sans-Serif" font-size="10.00">Hal::Eint</text>
</a>
</g>
</g>
<!-- Node5&#45;&gt;Node8 -->
<g id="edge6" class="edge"><title>Node5&#45;&gt;Node8</title>
<path fill="none" stroke="midnightblue" d="M131.421,-304.687C141.8,-328.773 162.721,-370.676 192,-397 196.345,-400.906 201.636,-404.168 206.927,-406.823"/>
<polygon fill="midnightblue" stroke="midnightblue" points="134.58,-303.167 127.513,-295.273 128.114,-305.85 134.58,-303.167"/>
</g>
<!-- Node9 -->
<g id="node9" class="node"><title>Node9</title>
<g id="a_node9"><a xlink:href="class_hal_1_1_i2_c.html" target="_top" xlink:title="I2C Peripheral Class. ">
<polygon fill="none" stroke="black" points="206.938,-370 206.938,-388 259.062,-388 259.062,-370 206.938,-370"/>
<text text-anchor="middle" x="233" y="-376" font-family="Helvetica,sans-Serif" font-size="10.00">Hal::I2C</text>
</a>
</g>
</g>
<!-- Node5&#45;&gt;Node9 -->
<g id="edge7" class="edge"><title>Node5&#45;&gt;Node9</title>
<path fill="none" stroke="midnightblue" d="M136.768,-303.365C149.391,-319.61 169.964,-343.746 192,-360 197.197,-363.834 203.29,-367.197 209.132,-369.986"/>
<polygon fill="midnightblue" stroke="midnightblue" points="139.446,-301.104 130.614,-295.252 133.869,-305.334 139.446,-301.104"/>
</g>
<!-- Node10 -->
<g id="node10" class="node"><title>Node10</title>
<g id="a_node10"><a xlink:href="class_hal_1_1_pblock.html" target="_top" xlink:title="Peripheral Block Class. ">
<polygon fill="none" stroke="black" points="199.712,-333 199.712,-351 266.288,-351 266.288,-333 199.712,-333"/>
<text text-anchor="middle" x="233" y="-339" font-family="Helvetica,sans-Serif" font-size="10.00">Hal::Pblock</text>
</a>
</g>
</g>
<!-- Node5&#45;&gt;Node10 -->
<g id="edge8" class="edge"><title>Node5&#45;&gt;Node10</title>
<path fill="none" stroke="midnightblue" d="M149.164,-300.12C161.911,-307.163 177.683,-315.712 192,-323 198.577,-326.348 205.847,-329.857 212.364,-332.936"/>
<polygon fill="midnightblue" stroke="midnightblue" points="150.521,-296.87 140.08,-295.073 147.122,-302.989 150.521,-296.87"/>
</g>
<!-- Node12 -->
<g id="node12" class="node"><title>Node12</title>
<g id="a_node12"><a xlink:href="class_hal_1_1_pchar.html" target="_top" xlink:title="Peripheral Character Class. ">
<polygon fill="none" stroke="black" points="201.658,-296 201.658,-314 264.342,-314 264.342,-296 201.658,-296"/>
<text text-anchor="middle" x="233" y="-302" font-family="Helvetica,sans-Serif" font-size="10.00">Hal::Pchar</text>
</a>
</g>
</g>
<!-- Node5&#45;&gt;Node12 -->
<g id="edge10" class="edge"><title>Node5&#45;&gt;Node12</title>
<path fill="none" stroke="midnightblue" d="M165.964,-293.382C177.816,-295.468 190.483,-297.696 201.521,-299.638"/>
<polygon fill="midnightblue" stroke="midnightblue" points="166.275,-289.884 155.819,-291.598 165.062,-296.778 166.275,-289.884"/>
</g>
<!-- Node13 -->
<g id="node13" class="node"><title>Node13</title>
<g id="a_node13"><a xlink:href="class_hal_1_1_pio.html" target="_top" xlink:title="Pin Input/Output Class. ">
<polygon fill="none" stroke="black" points="207.493,-259 207.493,-277 258.507,-277 258.507,-259 207.493,-259"/>
<text text-anchor="middle" x="233" y="-265" font-family="Helvetica,sans-Serif" font-size="10.00">Hal::Pio</text>
</a>
</g>
</g>
<!-- Node5&#45;&gt;Node13 -->
<g id="edge11" class="edge"><title>Node5&#45;&gt;Node13</title>
<path fill="none" stroke="midnightblue" d="M165.766,-279.039C179.787,-276.702 194.969,-274.172 207.256,-272.124"/>
<polygon fill="midnightblue" stroke="midnightblue" points="165.108,-275.6 155.819,-280.697 166.259,-282.505 165.108,-275.6"/>
</g>
<!-- Node15 -->
<g id="node15" class="node"><title>Node15</title>
<g id="a_node15"><a xlink:href="class_hal_1_1_pwm.html" target="_top" xlink:title="PWM Class. ">
<polygon fill="none" stroke="black" points="203.608,-222 203.608,-240 262.392,-240 262.392,-222 203.608,-222"/>
<text text-anchor="middle" x="233" y="-228" font-family="Helvetica,sans-Serif" font-size="10.00">Hal::Pwm</text>
</a>
</g>
</g>
<!-- Node5&#45;&gt;Node15 -->
<g id="edge13" class="edge"><title>Node5&#45;&gt;Node15</title>
<path fill="none" stroke="midnightblue" d="M149.715,-272.048C162.381,-265.263 177.92,-257.067 192,-250 198.596,-246.689 205.87,-243.19 212.386,-240.109"/>
<polygon fill="midnightblue" stroke="midnightblue" points="147.81,-269.099 140.662,-276.919 151.127,-275.263 147.81,-269.099"/>
</g>
<!-- Node16 -->
<g id="node16" class="node"><title>Node16</title>
<g id="a_node16"><a xlink:href="class_hal_1_1_rtc.html" target="_top" xlink:title="RTC Class. ">
<polygon fill="none" stroke="black" points="207.219,-185 207.219,-203 258.781,-203 258.781,-185 207.219,-185"/>
<text text-anchor="middle" x="233" y="-191" font-family="Helvetica,sans-Serif" font-size="10.00">Hal::Rtc</text>
</a>
</g>
</g>
<!-- Node5&#45;&gt;Node16 -->
<g id="edge14" class="edge"><title>Node5&#45;&gt;Node16</title>
<path fill="none" stroke="midnightblue" d="M136.816,-268.882C149.473,-252.865 170.071,-229.061 192,-213 197.21,-209.184 203.308,-205.827 209.149,-203.038"/>
<polygon fill="midnightblue" stroke="midnightblue" points="133.981,-266.825 130.642,-276.88 139.523,-271.102 133.981,-266.825"/>
</g>
<!-- Node17 -->
<g id="node17" class="node"><title>Node17</title>
<g id="a_node17"><a xlink:href="class_hal_1_1_spi.html" target="_top" xlink:title="SPI Class. ">
<polygon fill="none" stroke="black" points="207.493,-148 207.493,-166 258.507,-166 258.507,-148 207.493,-148"/>
<text text-anchor="middle" x="233" y="-154" font-family="Helvetica,sans-Serif" font-size="10.00">Hal::Spi</text>
</a>
</g>
</g>
<!-- Node5&#45;&gt;Node17 -->
<g id="edge15" class="edge"><title>Node5&#45;&gt;Node17</title>
<path fill="none" stroke="midnightblue" d="M131.464,-267.483C141.889,-243.616 162.86,-202.093 192,-176 196.467,-172 201.926,-168.673 207.357,-165.981"/>
<polygon fill="midnightblue" stroke="midnightblue" points="128.191,-266.237 127.536,-276.812 134.642,-268.954 128.191,-266.237"/>
</g>
<!-- Node18 -->
<g id="node18" class="node"><title>Node18</title>
<g id="a_node18"><a xlink:href="class_hal_1_1_tmr.html" target="_top" xlink:title="Tmr (hardware timer) Class. ">
<polygon fill="none" stroke="black" points="205.835,-111 205.835,-129 260.165,-129 260.165,-111 205.835,-111"/>
<text text-anchor="middle" x="233" y="-117" font-family="Helvetica,sans-Serif" font-size="10.00">Hal::Tmr</text>
</a>
</g>
</g>
<!-- Node5&#45;&gt;Node18 -->
<g id="edge16" class="edge"><title>Node5&#45;&gt;Node18</title>
<path fill="none" stroke="midnightblue" d="M128.314,-267.006C136.137,-236.438 155.354,-176.021 192,-139 196.002,-134.957 201.033,-131.663 206.163,-129.024"/>
<polygon fill="midnightblue" stroke="midnightblue" points="124.889,-266.275 125.936,-276.818 131.693,-267.924 124.889,-266.275"/>
</g>
<!-- Node19 -->
<g id="node19" class="node"><title>Node19</title>
<g id="a_node19"><a xlink:href="class_hal_1_1_uart.html" target="_top" xlink:title="UART Class. ">
<polygon fill="none" stroke="black" points="205.273,-74 205.273,-92 260.727,-92 260.727,-74 205.273,-74"/>
<text text-anchor="middle" x="233" y="-80" font-family="Helvetica,sans-Serif" font-size="10.00">Hal::Uart</text>
</a>
</g>
</g>
<!-- Node5&#45;&gt;Node19 -->
<g id="edge17" class="edge"><title>Node5&#45;&gt;Node19</title>
<path fill="none" stroke="midnightblue" d="M126.335,-266.412C131.655,-229.793 147.832,-150.307 192,-102 195.735,-97.9148 200.533,-94.6246 205.501,-92.0053"/>
<polygon fill="midnightblue" stroke="midnightblue" points="122.816,-266.327 124.968,-276.701 129.755,-267.25 122.816,-266.327"/>
</g>
<!-- Node21 -->
<g id="node21" class="node"><title>Node21</title>
<g id="a_node21"><a xlink:href="class_hal_1_1_usb.html" target="_top" xlink:title="USB Class. ">
<polygon fill="none" stroke="black" points="205.828,-0 205.828,-18 260.172,-18 260.172,-0 205.828,-0"/>
<text text-anchor="middle" x="233" y="-6" font-family="Helvetica,sans-Serif" font-size="10.00">Hal::Usb</text>
</a>
</g>
</g>
<!-- Node5&#45;&gt;Node21 -->
<g id="edge19" class="edge"><title>Node5&#45;&gt;Node21</title>
<path fill="none" stroke="midnightblue" d="M123.819,-266.58C124.396,-219.975 132.017,-100.304 192,-28 195.632,-23.6214 200.507,-20.1866 205.602,-17.5158"/>
<polygon fill="midnightblue" stroke="midnightblue" points="120.318,-266.774 123.796,-276.782 127.318,-266.79 120.318,-266.774"/>
</g>
<!-- Node11 -->
<g id="node11" class="node"><title>Node11</title>
<g id="a_node11"><a xlink:href="class_hal_1_1_dac.html" target="_top" xlink:title="DAC Class. ">
<polygon fill="none" stroke="black" points="328.828,-333 328.828,-351 383.172,-351 383.172,-333 328.828,-333"/>
<text text-anchor="middle" x="356" y="-339" font-family="Helvetica,sans-Serif" font-size="10.00">Hal::Dac</text>
</a>
</g>
</g>
<!-- Node10&#45;&gt;Node11 -->
<g id="edge9" class="edge"><title>Node10&#45;&gt;Node11</title>
<path fill="none" stroke="midnightblue" d="M276.845,-342C294.106,-342 313.468,-342 328.603,-342"/>
<polygon fill="midnightblue" stroke="midnightblue" points="276.426,-338.5 266.426,-342 276.426,-345.5 276.426,-338.5"/>
</g>
<!-- Node14 -->
<g id="node14" class="node"><title>Node14</title>
<g id="a_node14"><a xlink:href="class_hal_1_1_pin.html" target="_top" xlink:title="Pin class. ">
<polygon fill="none" stroke="black" points="330.493,-259 330.493,-277 381.507,-277 381.507,-259 330.493,-259"/>
<text text-anchor="middle" x="356" y="-265" font-family="Helvetica,sans-Serif" font-size="10.00">Hal::Pin</text>
</a>
</g>
</g>
<!-- Node13&#45;&gt;Node14 -->
<g id="edge12" class="edge"><title>Node13&#45;&gt;Node14</title>
<path fill="none" stroke="midnightblue" d="M268.874,-268C288.51,-268 312.563,-268 330.255,-268"/>
<polygon fill="midnightblue" stroke="midnightblue" points="268.778,-264.5 258.778,-268 268.778,-271.5 268.778,-264.5"/>
</g>
<!-- Node20 -->
<g id="node20" class="node"><title>Node20</title>
<g id="a_node20"><a xlink:href="class_sys_1_1_dbug_uart.html" target="_top" xlink:title="Debug UART Class. ">
<polygon fill="none" stroke="black" points="315.488,-74 315.488,-92 396.512,-92 396.512,-74 315.488,-74"/>
<text text-anchor="middle" x="356" y="-80" font-family="Helvetica,sans-Serif" font-size="10.00">Sys::DbugUart</text>
</a>
</g>
</g>
<!-- Node19&#45;&gt;Node20 -->
<g id="edge18" class="edge"><title>Node19&#45;&gt;Node20</title>
<path fill="none" stroke="midnightblue" d="M271.121,-83C285.132,-83 301.12,-83 315.354,-83"/>
<polygon fill="midnightblue" stroke="midnightblue" points="270.854,-79.5001 260.854,-83 270.854,-86.5001 270.854,-79.5001"/>
</g>
<!-- Node22&#45;&gt;Node3 -->
<g id="edge21" class="edge"><title>Node22&#45;&gt;Node3</title>
<path fill="none" stroke="midnightblue" d="M141.466,-580.066C154.71,-591.752 173.696,-607.479 192,-619 197.726,-622.604 204.242,-625.975 210.328,-628.848"/>
<polygon fill="midnightblue" stroke="midnightblue" points="143.801,-577.458 134.02,-573.385 139.126,-582.669 143.801,-577.458"/>
</g>
<!-- Node23 -->
<g id="node23" class="node"><title>Node23</title>
<g id="a_node23"><a xlink:href="class_fmt_1_1_bmp.html" target="_top" xlink:title="BMP File format. ">
<polygon fill="none" stroke="black" points="203.333,-592 203.333,-610 262.667,-610 262.667,-592 203.333,-592"/>
<text text-anchor="middle" x="233" y="-598" font-family="Helvetica,sans-Serif" font-size="10.00">Fmt::Bmp</text>
</a>
</g>
</g>
<!-- Node22&#45;&gt;Node23 -->
<g id="edge22" class="edge"><title>Node22&#45;&gt;Node23</title>
<path fill="none" stroke="midnightblue" d="M160.28,-576.429C175.074,-581.498 191.865,-587.25 205.479,-591.914"/>
<polygon fill="midnightblue" stroke="midnightblue" points="161.014,-572.981 150.42,-573.051 158.746,-579.603 161.014,-572.981"/>
</g>
<!-- Node24 -->
<g id="node24" class="node"><title>Node24</title>
<g id="a_node24"><a xlink:href="class_fmt_1_1_wav.html" target="_top" xlink:title="WAV File format. ">
<polygon fill="none" stroke="black" points="203.796,-555 203.796,-573 262.204,-573 262.204,-555 203.796,-555"/>
<text text-anchor="middle" x="233" y="-561" font-family="Helvetica,sans-Serif" font-size="10.00">Fmt::Wav</text>
</a>
</g>
</g>
<!-- Node22&#45;&gt;Node24 -->
<g id="edge23" class="edge"><title>Node22&#45;&gt;Node24</title>
<path fill="none" stroke="midnightblue" d="M160.72,-564C174.725,-564 190.464,-564 203.583,-564"/>
<polygon fill="midnightblue" stroke="midnightblue" points="160.42,-560.5 150.42,-564 160.42,-567.5 160.42,-560.5"/>
</g>
<!-- Node25 -->
<g id="node25" class="node"><title>Node25</title>
<g id="a_node25"><a xlink:href="class_fmt_1_1_xml.html" target="_top" xlink:title="XML Class. ">
<polygon fill="none" stroke="black" points="205.002,-518 205.002,-536 260.998,-536 260.998,-518 205.002,-518"/>
<text text-anchor="middle" x="233" y="-524" font-family="Helvetica,sans-Serif" font-size="10.00">Fmt::Xml</text>
</a>
</g>
</g>
<!-- Node22&#45;&gt;Node25 -->
<g id="edge24" class="edge"><title>Node22&#45;&gt;Node25</title>
<path fill="none" stroke="midnightblue" d="M160.28,-551.571C175.074,-546.502 191.865,-540.75 205.479,-536.086"/>
<polygon fill="midnightblue" stroke="midnightblue" points="158.746,-548.397 150.42,-554.949 161.014,-555.019 158.746,-548.397"/>
</g>
<!-- Node26 -->
<g id="node26" class="node"><title>Node26</title>
<g id="a_node26"><a xlink:href="class_sys_1_1_appfs.html" target="_top" xlink:title="Class for accessing Application file system (Flash/RAM) ">
<polygon fill="none" stroke="black" points="91.1011,-666 91.1011,-684 154.899,-684 154.899,-666 91.1011,-666"/>
<text text-anchor="middle" x="123" y="-672" font-family="Helvetica,sans-Serif" font-size="10.00">Sys::Appfs</text>
</a>
</g>
</g>
<!-- Node26&#45;&gt;Node2 -->
<g id="edge25" class="edge"><title>Node26&#45;&gt;Node2</title>
<path fill="none" stroke="midnightblue" d="M164.97,-675C173.75,-675 183.019,-675 191.77,-675"/>
<polygon fill="midnightblue" stroke="midnightblue" points="164.949,-671.5 154.948,-675 164.948,-678.5 164.949,-671.5"/>
</g>
<!-- Node27 -->
<g id="node27" class="node"><title>Node27</title>
<g id="a_node27"><a xlink:href="class_sys_1_1_dbug.html" target="_top" xlink:title="Debug Class. ">
<polygon fill="none" stroke="black" points="201.934,-37 201.934,-55 264.066,-55 264.066,-37 201.934,-37"/>
<text text-anchor="middle" x="233" y="-43" font-family="Helvetica,sans-Serif" font-size="10.00">Sys::Dbug</text>
</a>
</g>
</g>
<!-- Node27&#45;&gt;Node20 -->
<g id="edge28" class="edge"><title>Node27&#45;&gt;Node20</title>
<path fill="none" stroke="midnightblue" d="M273.218,-57.9923C290.134,-63.1649 309.594,-69.1155 325.286,-73.914"/>
<polygon fill="midnightblue" stroke="midnightblue" points="274.186,-54.6285 263.6,-55.0512 272.139,-61.3225 274.186,-54.6285"/>
</g>
<!-- Node28 -->
<g id="node28" class="node"><title>Node28</title>
<g id="a_node28"><a xlink:href="class_sys_1_1_dbug_null.html" target="_top" xlink:title="Debug Null Class. ">
<polygon fill="none" stroke="black" points="316.32,-37 316.32,-55 395.68,-55 395.68,-37 316.32,-37"/>
<text text-anchor="middle" x="356" y="-43" font-family="Helvetica,sans-Serif" font-size="10.00">Sys::DbugNull</text>
</a>
</g>
</g>
<!-- Node27&#45;&gt;Node28 -->
<g id="edge26" class="edge"><title>Node27&#45;&gt;Node28</title>
<path fill="none" stroke="midnightblue" d="M274.573,-46C287.945,-46 302.779,-46 316.028,-46"/>
<polygon fill="midnightblue" stroke="midnightblue" points="274.221,-42.5001 264.221,-46 274.221,-49.5001 274.221,-42.5001"/>
</g>
<!-- Node29 -->
<g id="node29" class="node"><title>Node29</title>
<g id="a_node29"><a xlink:href="class_sys_1_1_dbug_stdout.html" target="_top" xlink:title="Debug Stdout Class. ">
<polygon fill="none" stroke="black" points="310.478,-0 310.478,-18 401.522,-18 401.522,-0 310.478,-0"/>
<text text-anchor="middle" x="356" y="-6" font-family="Helvetica,sans-Serif" font-size="10.00">Sys::DbugStdout</text>
</a>
</g>
</g>
<!-- Node27&#45;&gt;Node29 -->
<g id="edge27" class="edge"><title>Node27&#45;&gt;Node29</title>
<path fill="none" stroke="midnightblue" d="M273.218,-34.0077C290.134,-28.8351 309.594,-22.8845 325.286,-18.086"/>
<polygon fill="midnightblue" stroke="midnightblue" points="272.139,-30.6775 263.6,-36.9488 274.186,-37.3715 272.139,-30.6775"/>
</g>
</g>
</svg>
