<?xml version="1.0" encoding="UTF-8" standalone="no"?>
<!DOCTYPE svg PUBLIC "-//W3C//DTD SVG 1.1//EN"
 "http://www.w3.org/Graphics/SVG/1.1/DTD/svg11.dtd">
<!-- Generated by graphviz version 2.36.0 (20140111.2315)
 -->
<!-- Title: Graphical Class Hierarchy Pages: 1 -->
<svg width="358pt" height="305pt"
 viewBox="0.00 0.00 358.00 305.00" xmlns="http://www.w3.org/2000/svg" xmlns:xlink="http://www.w3.org/1999/xlink">
<g id="graph0" class="graph" transform="scale(1 1) rotate(0) translate(4 301)">
<title>Graphical Class Hierarchy</title>
<!-- Node1 -->
<g id="node1" class="node"><title>Node1</title>
<g id="a_node1"><a xlink:href="class_var_1_1_string.html" target="_top" xlink:title="String class. ">
<polygon fill="none" stroke="black" points="0.748047,-139 0.748047,-157 63.252,-157 63.252,-139 0.748047,-139"/>
<text text-anchor="middle" x="32" y="-145" font-family="Helvetica,sans-Serif" font-size="10.00">Var::String</text>
</a>
</g>
</g>
<!-- Node2 -->
<g id="node2" class="node"><title>Node2</title>
<g id="a_node2"><a xlink:href="class_var_1_1_string_static.html" target="_top" xlink:title="Var::StringStatic\&lt;\l 128 \&gt;">
<polygon fill="none" stroke="black" points="111.323,-269 111.323,-297 204.677,-297 204.677,-269 111.323,-269"/>
<text text-anchor="start" x="119.323" y="-285" font-family="Helvetica,sans-Serif" font-size="10.00">Var::StringStatic&lt;</text>
<text text-anchor="middle" x="158" y="-275" font-family="Helvetica,sans-Serif" font-size="10.00"> 128 &gt;</text>
</a>
</g>
</g>
<!-- Node1&#45;&gt;Node2 -->
<g id="edge1" class="edge"><title>Node1&#45;&gt;Node2</title>
<path fill="none" stroke="midnightblue" d="M39.915,-166.528C49.817,-190.779 70.1923,-233.217 100,-259 104.466,-262.863 109.645,-266.175 115.023,-268.992"/>
<polygon fill="midnightblue" stroke="midnightblue" points="43.1165,-165.105 36.2105,-157.07 36.5987,-167.658 43.1165,-165.105"/>
</g>
<!-- Node4 -->
<g id="node4" class="node"><title>Node4</title>
<g id="a_node4"><a xlink:href="class_var_1_1_string_static.html" target="_top" xlink:title="Var::StringStatic\&lt; 16 \&gt;">
<polygon fill="none" stroke="black" points="100.063,-232 100.063,-250 215.937,-250 215.937,-232 100.063,-232"/>
<text text-anchor="middle" x="158" y="-238" font-family="Helvetica,sans-Serif" font-size="10.00">Var::StringStatic&lt; 16 &gt;</text>
</a>
</g>
</g>
<!-- Node1&#45;&gt;Node4 -->
<g id="edge3" class="edge"><title>Node1&#45;&gt;Node4</title>
<path fill="none" stroke="midnightblue" d="M44.7152,-165.452C56.7641,-182.156 76.9805,-206.972 100,-222 106.202,-226.049 113.348,-229.313 120.437,-231.917"/>
<polygon fill="midnightblue" stroke="midnightblue" points="47.4913,-163.314 38.8957,-157.12 41.7525,-167.322 47.4913,-163.314"/>
</g>
<!-- Node6 -->
<g id="node6" class="node"><title>Node6</title>
<g id="a_node6"><a xlink:href="class_var_1_1_string_static.html" target="_top" xlink:title="Var::StringStatic\&lt; 32 \&gt;">
<polygon fill="none" stroke="black" points="100.063,-195 100.063,-213 215.937,-213 215.937,-195 100.063,-195"/>
<text text-anchor="middle" x="158" y="-201" font-family="Helvetica,sans-Serif" font-size="10.00">Var::StringStatic&lt; 32 &gt;</text>
</a>
</g>
</g>
<!-- Node1&#45;&gt;Node6 -->
<g id="edge5" class="edge"><title>Node1&#45;&gt;Node6</title>
<path fill="none" stroke="midnightblue" d="M56.4279,-162.32C69.053,-169.68 85.0655,-178.453 100,-185 108.407,-188.686 117.77,-192.082 126.437,-194.954"/>
<polygon fill="midnightblue" stroke="midnightblue" points="57.8938,-159.12 47.5076,-157.028 54.3219,-165.141 57.8938,-159.12"/>
</g>
<!-- Node8 -->
<g id="node8" class="node"><title>Node8</title>
<g id="a_node8"><a xlink:href="class_var_1_1_string_static.html" target="_top" xlink:title="Var::StringStatic\&lt; 64 \&gt;">
<polygon fill="none" stroke="black" points="100.063,-158 100.063,-176 215.937,-176 215.937,-158 100.063,-158"/>
<text text-anchor="middle" x="158" y="-164" font-family="Helvetica,sans-Serif" font-size="10.00">Var::StringStatic&lt; 64 &gt;</text>
</a>
</g>
</g>
<!-- Node1&#45;&gt;Node8 -->
<g id="edge7" class="edge"><title>Node1&#45;&gt;Node8</title>
<path fill="none" stroke="midnightblue" d="M73.3174,-154.178C81.7954,-155.477 90.8922,-156.871 99.8531,-158.244"/>
<polygon fill="midnightblue" stroke="midnightblue" points="73.7486,-150.703 63.3338,-152.648 72.6883,-157.622 73.7486,-150.703"/>
</g>
<!-- Node10 -->
<g id="node10" class="node"><title>Node10</title>
<g id="a_node10"><a xlink:href="class_var_1_1_string_name.html" target="_top" xlink:title="String for file names. ">
<polygon fill="none" stroke="black" points="113.411,-121 113.411,-139 202.589,-139 202.589,-121 113.411,-121"/>
<text text-anchor="middle" x="158" y="-127" font-family="Helvetica,sans-Serif" font-size="10.00">Var::StringName</text>
</a>
</g>
</g>
<!-- Node1&#45;&gt;Node10 -->
<g id="edge9" class="edge"><title>Node1&#45;&gt;Node10</title>
<path fill="none" stroke="midnightblue" d="M73.2666,-142.155C86.0942,-140.293 100.343,-138.224 113.395,-136.33"/>
<polygon fill="midnightblue" stroke="midnightblue" points="72.7273,-138.696 63.3338,-143.597 73.7329,-145.624 72.7273,-138.696"/>
</g>
<!-- Node11 -->
<g id="node11" class="node"><title>Node11</title>
<g id="a_node11"><a xlink:href="class_var_1_1_string_path.html" target="_top" xlink:title="String for path names. ">
<polygon fill="none" stroke="black" points="116.462,-84 116.462,-102 199.538,-102 199.538,-84 116.462,-84"/>
<text text-anchor="middle" x="158" y="-90" font-family="Helvetica,sans-Serif" font-size="10.00">Var::StringPath</text>
</a>
</g>
</g>
<!-- Node1&#45;&gt;Node11 -->
<g id="edge10" class="edge"><title>Node1&#45;&gt;Node11</title>
<path fill="none" stroke="midnightblue" d="M56.9676,-133.828C69.5271,-126.737 85.3148,-118.337 100,-112 108.524,-108.322 118.01,-104.904 126.76,-102.011"/>
<polygon fill="midnightblue" stroke="midnightblue" points="54.9936,-130.926 48.0643,-138.941 58.4792,-136.996 54.9936,-130.926"/>
</g>
<!-- Node12 -->
<g id="node12" class="node"><title>Node12</title>
<g id="a_node12"><a xlink:href="class_var_1_1_string_static.html" target="_top" xlink:title="Static String Template Class. ">
<polygon fill="none" stroke="black" points="111.323,-37 111.323,-65 204.677,-65 204.677,-37 111.323,-37"/>
<text text-anchor="start" x="119.323" y="-53" font-family="Helvetica,sans-Serif" font-size="10.00">Var::StringStatic&lt;</text>
<text text-anchor="middle" x="158" y="-43" font-family="Helvetica,sans-Serif" font-size="10.00"> arraysize &gt;</text>
</a>
</g>
</g>
<!-- Node1&#45;&gt;Node12 -->
<g id="edge11" class="edge"><title>Node1&#45;&gt;Node12</title>
<path fill="none" stroke="midnightblue" d="M45.4164,-130.648C57.7355,-114.462 77.9243,-90.5403 100,-75 105.268,-71.2916 111.198,-68.0031 117.19,-65.1415"/>
<polygon fill="midnightblue" stroke="midnightblue" points="42.5605,-128.623 39.4202,-138.742 48.1852,-132.79 42.5605,-128.623"/>
</g>
<!-- Node13 -->
<g id="node13" class="node"><title>Node13</title>
<g id="a_node13"><a xlink:href="class_var_1_1_token.html" target="_top" xlink:title="Abstract Token Class. ">
<polygon fill="none" stroke="black" points="126.467,-0 126.467,-18 189.533,-18 189.533,-0 126.467,-0"/>
<text text-anchor="middle" x="158" y="-6" font-family="Helvetica,sans-Serif" font-size="10.00">Var::Token</text>
</a>
</g>
</g>
<!-- Node1&#45;&gt;Node13 -->
<g id="edge12" class="edge"><title>Node1&#45;&gt;Node13</title>
<path fill="none" stroke="midnightblue" d="M38.6966,-129.098C47.5827,-102.746 67.2119,-55.153 100,-28 107.472,-21.8125 117.037,-17.6132 126.189,-14.774"/>
<polygon fill="midnightblue" stroke="midnightblue" points="35.3474,-128.081 35.6292,-138.672 42.0136,-130.217 35.3474,-128.081"/>
</g>
<!-- Node3 -->
<g id="node3" class="node"><title>Node3</title>
<g id="a_node3"><a xlink:href="class_var_1_1_string_large.html" target="_top" xlink:title="Large String. ">
<polygon fill="none" stroke="black" points="256.96,-274 256.96,-292 345.04,-292 345.04,-274 256.96,-274"/>
<text text-anchor="middle" x="301" y="-280" font-family="Helvetica,sans-Serif" font-size="10.00">Var::StringLarge</text>
</a>
</g>
</g>
<!-- Node2&#45;&gt;Node3 -->
<g id="edge2" class="edge"><title>Node2&#45;&gt;Node3</title>
<path fill="none" stroke="midnightblue" d="M214.789,-283C228.778,-283 243.576,-283 256.845,-283"/>
<polygon fill="midnightblue" stroke="midnightblue" points="214.779,-279.5 204.779,-283 214.779,-286.5 214.779,-279.5"/>
</g>
<!-- Node5 -->
<g id="node5" class="node"><title>Node5</title>
<g id="a_node5"><a xlink:href="class_var_1_1_string_tiny.html" target="_top" xlink:title="Tiny String. ">
<polygon fill="none" stroke="black" points="260.485,-232 260.485,-250 341.515,-250 341.515,-232 260.485,-232"/>
<text text-anchor="middle" x="301" y="-238" font-family="Helvetica,sans-Serif" font-size="10.00">Var::StringTiny</text>
</a>
</g>
</g>
<!-- Node4&#45;&gt;Node5 -->
<g id="edge4" class="edge"><title>Node4&#45;&gt;Node5</title>
<path fill="none" stroke="midnightblue" d="M226.118,-241C237.768,-241 249.541,-241 260.162,-241"/>
<polygon fill="midnightblue" stroke="midnightblue" points="225.944,-237.5 215.944,-241 225.944,-244.5 225.944,-237.5"/>
</g>
<!-- Node7 -->
<g id="node7" class="node"><title>Node7</title>
<g id="a_node7"><a xlink:href="class_var_1_1_string_small.html" target="_top" xlink:title="Small String. ">
<polygon fill="none" stroke="black" points="257.246,-195 257.246,-213 344.754,-213 344.754,-195 257.246,-195"/>
<text text-anchor="middle" x="301" y="-201" font-family="Helvetica,sans-Serif" font-size="10.00">Var::StringSmall</text>
</a>
</g>
</g>
<!-- Node6&#45;&gt;Node7 -->
<g id="edge6" class="edge"><title>Node6&#45;&gt;Node7</title>
<path fill="none" stroke="midnightblue" d="M226.034,-204C236.625,-204 247.319,-204 257.16,-204"/>
<polygon fill="midnightblue" stroke="midnightblue" points="225.944,-200.5 215.944,-204 225.944,-207.5 225.944,-200.5"/>
</g>
<!-- Node9 -->
<g id="node9" class="node"><title>Node9</title>
<g id="a_node9"><a xlink:href="class_var_1_1_string_medium.html" target="_top" xlink:title="Medium String. ">
<polygon fill="none" stroke="black" points="251.965,-158 251.965,-176 350.035,-176 350.035,-158 251.965,-158"/>
<text text-anchor="middle" x="301" y="-164" font-family="Helvetica,sans-Serif" font-size="10.00">Var::StringMedium</text>
</a>
</g>
</g>
<!-- Node8&#45;&gt;Node9 -->
<g id="edge8" class="edge"><title>Node8&#45;&gt;Node9</title>
<path fill="none" stroke="midnightblue" d="M226.1,-167C234.805,-167 243.58,-167 251.892,-167"/>
<polygon fill="midnightblue" stroke="midnightblue" points="225.944,-163.5 215.944,-167 225.944,-170.5 225.944,-163.5"/>
</g>
</g>
</svg>
